<svg width="129" height="104" viewBox="0 0 129 104" fill="none" xmlns="http://www.w3.org/2000/svg">
<path d="M129 89.2632H0V89.3277H129V89.2632Z" fill="#EBEBEB"/>
<path d="M112.403 93.4146H107.529V93.4791H112.403V93.4146Z" fill="#EBEBEB"/>
<path d="M83.2107 92.9653H75.6074V93.0298H83.2107V92.9653Z" fill="#EBEBEB"/>
<path d="M107.272 91.0205H95.1172V91.085H107.272V91.0205Z" fill="#EBEBEB"/>
<path d="M16.3654 91.4536H13.5352V91.5181H16.3654V91.4536Z" fill="#EBEBEB"/>
<path d="M28.6106 91.4536H18.6621V91.5181H28.6106V91.4536Z" fill="#EBEBEB"/>
<path d="M58.0898 92.542H44.1191V92.6065H58.0898V92.542Z" fill="#EBEBEB"/>
<path d="M61.1472 72.9624H11.33C10.9397 72.9617 10.5657 72.8062 10.2899 72.53C10.0142 72.2538 9.85937 71.8795 9.85938 71.4892V1.46028C9.86277 1.07225 10.0191 0.701239 10.2945 0.427821C10.5698 0.154403 10.9419 0.000664708 11.33 0H61.1472C61.3407 0 61.5322 0.0381046 61.711 0.112139C61.8897 0.186173 62.0521 0.294687 62.1889 0.431484C62.3257 0.568282 62.4342 0.730684 62.5082 0.909419C62.5823 1.08815 62.6204 1.27972 62.6204 1.47318V71.4944C62.619 71.8842 62.4632 72.2576 62.1871 72.5327C61.9109 72.8079 61.537 72.9624 61.1472 72.9624ZM11.33 0.0516002C10.9568 0.0522836 10.5992 0.201 10.3356 0.465104C10.0719 0.729209 9.92387 1.08712 9.92388 1.46028V71.4944C9.92354 71.6792 9.95966 71.8624 10.0302 72.0333C10.1007 72.2041 10.2042 72.3595 10.3348 72.4903C10.4654 72.6212 10.6205 72.7249 10.7913 72.7958C10.9621 72.8666 11.1451 72.9031 11.33 72.9031H61.1472C61.5206 72.9024 61.8785 72.7537 62.1425 72.4897C62.4066 72.2257 62.5552 71.8678 62.5559 71.4944V1.46028C62.5545 1.08709 62.4057 0.72958 62.1418 0.465695C61.8779 0.20181 61.5204 0.0529597 61.1472 0.0516002H11.33Z" fill="#EBEBEB"/>
<path d="M116.953 72.9624H67.1333C66.7435 72.9624 66.3696 72.8079 66.0935 72.5327C65.8173 72.2576 65.6615 71.8842 65.6602 71.4944V1.46028C65.6642 1.07202 65.8212 0.701006 66.0969 0.427659C66.3727 0.154312 66.7451 0.000657459 67.1333 0H116.953C117.341 0.00201052 117.712 0.156264 117.986 0.429466C118.261 0.702668 118.417 1.07291 118.421 1.46028V71.4944C118.42 71.8835 118.266 72.2565 117.99 72.5317C117.715 72.8068 117.342 72.9617 116.953 72.9624ZM67.1333 0.0516002C66.7601 0.0529597 66.4026 0.20181 66.1387 0.465695C65.8749 0.72958 65.726 1.08709 65.7247 1.46028V71.4944C65.7253 71.8678 65.874 72.2257 66.138 72.4897C66.402 72.7537 66.7599 72.9024 67.1333 72.9031H116.953C117.327 72.9024 117.684 72.7537 117.948 72.4897C118.212 72.2257 118.361 71.8678 118.362 71.4944V1.46028C118.36 1.08709 118.212 0.72958 117.948 0.465695C117.684 0.20181 117.326 0.0529597 116.953 0.0516002H67.1333Z" fill="#EBEBEB"/>
<path d="M112.403 93.4146H107.529V93.4791H112.403V93.4146Z" fill="#EBEBEB"/>
<path d="M83.2107 92.9653H75.6074V93.0298H83.2107V92.9653Z" fill="#EBEBEB"/>
<path d="M107.272 91.0205H95.1172V91.085H107.272V91.0205Z" fill="#EBEBEB"/>
<path d="M16.3654 91.4536H13.5352V91.5181H16.3654V91.4536Z" fill="#EBEBEB"/>
<path d="M28.6106 91.4536H18.6621V91.5181H28.6106V91.4536Z" fill="#EBEBEB"/>
<path d="M58.0898 92.542H44.1191V92.6065H58.0898V92.542Z" fill="#EBEBEB"/>
<path d="M108.363 89.627C109.322 89.627 110.1 88.8496 110.1 87.8906C110.1 86.9317 109.322 86.1543 108.363 86.1543C107.404 86.1543 106.627 86.9317 106.627 87.8906C106.627 88.8496 107.404 89.627 108.363 89.627Z" fill="#E0E0E0"/>
<path d="M106.627 89.627C107.586 89.627 108.363 88.8496 108.363 87.8906C108.363 86.9317 107.586 86.1543 106.627 86.1543C105.668 86.1543 104.891 86.9317 104.891 87.8906C104.891 88.8496 105.668 89.627 106.627 89.627Z" fill="#EBEBEB"/>
<path d="M85.0625 89.627C86.0215 89.627 86.7988 88.8496 86.7988 87.8906C86.7988 86.9317 86.0215 86.1543 85.0625 86.1543C84.1036 86.1543 83.3262 86.9317 83.3262 87.8906C83.3262 88.8496 84.1036 89.627 85.0625 89.627Z" fill="#E0E0E0"/>
<path d="M108.194 47.9678H78.916V86.5052H108.194V47.9678Z" fill="#EBEBEB"/>
<path d="M110.1 47.9678H84.5938V86.5052H110.1V47.9678Z" fill="#F5F5F5"/>
<path d="M107.997 49.9619H86.9004V84.5546H107.997V49.9619Z" stroke="#E0E0E0" stroke-width="0.516" stroke-miterlimit="10"/>
<path d="M86.9004 60.9785H108.196" stroke="#E0E0E0" stroke-width="0.516" stroke-miterlimit="10"/>
<path d="M86.9004 73.0117H108.196" stroke="#E0E0E0" stroke-width="0.516" stroke-miterlimit="10"/>
<path d="M101.964 51.4092H94.1289V52.3431H101.964V51.4092Z" fill="#FAFAFA"/>
<path d="M101.964 62.4878H94.1289V63.4218H101.964V62.4878Z" fill="#FAFAFA"/>
<path d="M101.964 74.9053H94.1289V75.8392H101.964V74.9053Z" fill="#FAFAFA"/>
<path d="M83.3262 89.627C84.2851 89.627 85.0625 88.8496 85.0625 87.8906C85.0625 86.9317 84.2851 86.1543 83.3262 86.1543C82.3672 86.1543 81.5898 86.9317 81.5898 87.8906C81.5898 88.8496 82.3672 89.627 83.3262 89.627Z" fill="#EBEBEB"/>
<path d="M78.4509 10.4419H25.2461V47.1501H78.4509V10.4419Z" fill="#EBEBEB"/>
<path d="M79.4857 10.4419H78.4512V47.1501H79.4857V10.4419Z" fill="#E0E0E0"/>
<path d="M77.3693 14.1416H26.7188V45.3312H77.3693V14.1416Z" fill="#F5F5F5"/>
<path d="M51.2618 45.3309H46.6772L33.4805 14.0923H38.0651L51.2618 45.3309Z" fill="#FAFAFA"/>
<path d="M61.5102 45.3309H53.2026L40.0059 14.0923H48.3186L61.5102 45.3309Z" fill="#FAFAFA"/>
<path d="M73.8374 45.341H69.2501L56.0586 14.105H60.6407L73.8374 45.341Z" fill="#FAFAFA"/>
<path opacity="0.3" d="M79.488 8.56299H25.2461V23.8959H79.488V8.56299Z" fill="#E0E0E0" stroke="#F0F0F0" stroke-width="0.258" stroke-miterlimit="10"/>
<path d="M79.3332 20.6973H25.2461V21.172H79.3332V20.6973Z" fill="#FAFAFA"/>
<path d="M79.3332 18.5015H25.2461V18.9762H79.3332V18.5015Z" fill="#FAFAFA"/>
<path d="M79.3332 16.3027H25.2461V16.7775H79.3332V16.3027Z" fill="#FAFAFA"/>
<path d="M79.3332 14.1079H25.2461V14.5826H79.3332V14.1079Z" fill="#FAFAFA"/>
<path d="M79.3332 11.9097H25.2461V12.3844H79.3332V11.9097Z" fill="#FAFAFA"/>
<path d="M80.4889 7.90576H24.6035V8.55076H80.4889V7.90576Z" fill="#E0E0E0"/>
<path d="M24.9698 8.2278C24.9698 8.80314 24.6318 9.2598 24.219 9.2598C23.8062 9.2598 23.4785 8.80056 23.4785 8.2278C23.4785 7.65504 23.8165 7.1958 24.2319 7.1958C24.6473 7.1958 24.9698 7.64988 24.9698 8.2278Z" fill="#E0E0E0"/>
<path d="M81.2385 8.2278C81.2385 8.80314 80.9005 9.2598 80.4877 9.2598C80.0749 9.2598 79.7344 8.79282 79.7344 8.2278C79.7344 7.66278 80.0724 7.1958 80.4877 7.1958C80.9031 7.1958 81.2385 7.64988 81.2385 8.2278Z" fill="#E0E0E0"/>
<path d="M63.299 103.066C86.016 103.066 104.432 101.627 104.432 99.8514C104.432 98.076 86.016 96.6367 63.299 96.6367C40.5819 96.6367 22.166 98.076 22.166 99.8514C22.166 101.627 40.5819 103.066 63.299 103.066Z" fill="#F5F5F5"/>
<path d="M102.401 28.0451L96.9033 45.197C96.8406 45.3936 96.7279 45.5706 96.5762 45.7106C96.4245 45.8506 96.2391 45.9488 96.0381 45.9956C95.837 46.0425 95.6273 46.0363 95.4294 45.9777C95.2315 45.9191 95.0521 45.8101 94.909 45.6614L92.0504 42.7021C91.8343 42.4797 91.5404 42.3497 91.2305 42.3396C90.9206 42.3295 90.6189 42.44 90.3888 42.6479L66.5161 64.3199C66.3029 64.5132 66.0271 64.6231 65.7393 64.6292C65.4516 64.6354 65.1713 64.5375 64.95 64.3535L49.7925 51.7502C49.5735 51.57 49.2974 51.4736 49.0138 51.4783C48.7302 51.4831 48.4575 51.5886 48.2445 51.776L18.4688 78.1642L19.5988 67.5862C19.6278 67.2876 19.7688 67.011 19.9935 66.8122L48.0923 41.9101C48.3058 41.7235 48.5786 41.6188 48.8621 41.6145C49.1455 41.6103 49.4213 41.7068 49.6403 41.8868L64.7359 54.4669C64.9572 54.6509 65.2375 54.7488 65.5252 54.7427C65.8129 54.7365 66.0887 54.6267 66.302 54.4334L85.136 37.3254C85.2544 37.2179 85.35 37.0877 85.4171 36.9425C85.4841 36.7974 85.5213 36.6402 85.5264 36.4803C85.5314 36.3205 85.5043 36.1613 85.4465 36.0121C85.3887 35.863 85.3016 35.727 85.1901 35.6123L82.3779 32.6866C82.2309 32.5346 82.1268 32.3464 82.0763 32.1411C82.0258 31.9357 82.0307 31.7207 82.0906 31.5179C82.1504 31.3151 82.263 31.1318 82.4168 30.9867C82.5706 30.8417 82.7602 30.74 82.9662 30.6922L100.995 26.5178C101.201 26.4696 101.416 26.4769 101.617 26.5389C101.819 26.601 102.001 26.7156 102.144 26.871C102.287 27.0264 102.386 27.217 102.432 27.4233C102.477 27.6296 102.466 27.8442 102.401 28.0451Z" fill="#FF6D38"/>
<path opacity="0.1" d="M102.394 28.0738L96.9137 45.1792C96.8492 45.3783 96.7343 45.5574 96.5801 45.6989C96.4259 45.8405 96.2377 45.9397 96.0339 45.987C95.83 46.0343 95.6173 46.028 95.4166 45.9687C95.2158 45.9094 95.0339 45.7992 94.8884 45.6487L92.0503 42.723C91.8313 42.4967 91.5329 42.3644 91.2182 42.3538C90.9034 42.3432 90.5968 42.4552 90.363 42.6662L66.5161 64.3202C66.2808 64.535 65.9701 64.6482 65.6518 64.6349C65.3849 64.6264 65.1286 64.5282 64.9242 64.3563L49.8003 51.7685C49.5768 51.5851 49.2956 51.4868 49.0065 51.4911C48.7175 51.4953 48.4393 51.6018 48.2213 51.7917L18.4688 78.1645L19.6478 67.1401L48.082 41.9413C48.2995 41.7504 48.5779 41.6433 48.8672 41.639C49.1565 41.6348 49.4379 41.7337 49.661 41.918L56.0877 47.2664L64.723 54.4672C64.948 54.6529 65.2322 54.7516 65.5239 54.7455C65.8155 54.7393 66.0953 54.6287 66.3123 54.4336L85.1385 37.336C85.2592 37.2272 85.3566 37.0952 85.4251 36.9479C85.4935 36.8006 85.5315 36.6409 85.5368 36.4786C85.5421 36.3162 85.5146 36.1545 85.4559 36.003C85.3972 35.8515 85.3086 35.7135 85.1953 35.597L82.4063 32.71C82.2575 32.5557 82.1523 32.3646 82.1014 32.1563C82.0505 31.948 82.0557 31.73 82.1166 31.5244C82.1774 31.3188 82.2917 31.133 82.4477 30.9859C82.6038 30.8389 82.796 30.7358 83.0049 30.6873L100.972 26.5232C101.18 26.4764 101.397 26.4853 101.601 26.5492C101.804 26.613 101.988 26.7295 102.132 26.8868C102.276 27.0441 102.376 27.2367 102.422 27.4451C102.468 27.6535 102.458 27.8704 102.394 28.0738Z" fill="black"/>
<path d="M71.2873 92.4028H49.2773V97.3977H71.2873V92.4028Z" fill="#FF6D38"/>
<path opacity="0.2" d="M52.0647 92.4028H51.4688V97.3977H52.0647V92.4028Z" fill="black"/>
<path opacity="0.2" d="M55.1253 92.4028H54.5293V97.3977H55.1253V92.4028Z" fill="black"/>
<path opacity="0.2" d="M58.1858 97.3977H57.5898V92.4028L58.1858 92.4906V97.3977Z" fill="black"/>
<path opacity="0.2" d="M61.2464 92.4028H60.6504V97.3977H61.2464V92.4028Z" fill="black"/>
<path opacity="0.2" d="M64.3108 92.4028H63.7148V97.3977H64.3108V92.4028Z" fill="black"/>
<path opacity="0.2" d="M67.3714 92.4028H66.7754V97.3977H67.3714V92.4028Z" fill="black"/>
<path opacity="0.2" d="M70.4319 92.4028H69.8359V97.3977H70.4319V92.4028Z" fill="black"/>
<path opacity="0.09" d="M71.2873 92.4028H49.2773V93.4322H71.2873V92.4028Z" fill="black"/>
<path d="M74.717 87.4058H52.707V92.4006H74.717V87.4058Z" fill="#FF6D38"/>
<path opacity="0.2" d="M55.4944 87.4058H54.8984V92.4006H55.4944V87.4058Z" fill="black"/>
<path opacity="0.2" d="M58.5569 87.4058H57.9609V92.4006H58.5569V87.4058Z" fill="black"/>
<path opacity="0.2" d="M61.6175 87.4058H61.0215V92.4006H61.6175V87.4058Z" fill="black"/>
<path opacity="0.2" d="M64.68 87.4058H64.084V92.4006H64.68V87.4058Z" fill="black"/>
<path opacity="0.2" d="M67.7425 87.4058H67.1465V92.4006H67.7425V87.4058Z" fill="black"/>
<path opacity="0.2" d="M70.8011 87.4058H70.2051V92.4006H70.8011V87.4058Z" fill="black"/>
<path opacity="0.2" d="M73.8655 87.4058H73.2695V92.4006H73.8655V87.4058Z" fill="black"/>
<path opacity="0.09" d="M74.717 87.4058H52.707V88.4352H74.717V87.4058Z" fill="black"/>
<path d="M71.6584 82.4111H49.6484V87.406H71.6584V82.4111Z" fill="#FF6D38"/>
<path opacity="0.2" d="M52.4358 82.4111H51.8398V87.406H52.4358V82.4111Z" fill="black"/>
<path opacity="0.2" d="M55.4944 87.4086H54.8984V82.4163L55.4944 82.4111V87.4086Z" fill="black"/>
<path opacity="0.2" d="M58.5569 82.4111H57.9609V87.406H58.5569V82.4111Z" fill="black"/>
<path opacity="0.2" d="M61.6175 82.4111H61.0215V87.406H61.6175V82.4111Z" fill="black"/>
<path opacity="0.2" d="M64.68 87.4086H64.084V82.4111L64.68 82.4163V87.4086Z" fill="black"/>
<path opacity="0.2" d="M67.7425 82.4111H67.1465V87.406H67.7425V82.4111Z" fill="black"/>
<path opacity="0.2" d="M70.8011 82.4111H70.2051V87.406H70.8011V82.4111Z" fill="black"/>
<path opacity="0.09" d="M71.6584 82.4111H49.6484V83.6418H71.6584V82.4111Z" fill="black"/>
<path d="M74.717 77.4185H52.707V82.4133H74.717V77.4185Z" fill="#FF6D38"/>
<path opacity="0.2" d="M55.4944 77.4185H54.8984V82.4133H55.4944V77.4185Z" fill="black"/>
<path opacity="0.2" d="M58.5569 77.4185H57.9609V82.4133H58.5569V77.4185Z" fill="black"/>
<path opacity="0.2" d="M61.6175 77.4185H61.0215V82.4133H61.6175V77.4185Z" fill="black"/>
<path opacity="0.2" d="M64.68 77.4185H64.084V82.4133H64.68V77.4185Z" fill="black"/>
<path opacity="0.2" d="M67.7425 77.4185H67.1465V82.4133H67.7425V77.4185Z" fill="black"/>
<path opacity="0.2" d="M70.8011 82.4108L70.2051 82.4159V77.4185L70.8011 77.5088V82.4108Z" fill="black"/>
<path opacity="0.2" d="M73.8655 77.4185H73.2695V82.4133H73.8655V77.4185Z" fill="black"/>
<path opacity="0.09" d="M74.717 77.4185H52.707V78.4479H74.717V77.4185Z" fill="black"/>
<path d="M75.6858 72.4233H53.6758V77.4182H75.6858V72.4233Z" fill="#FF6D38"/>
<path opacity="0.2" d="M56.4612 72.4233H55.8652V77.4182H56.4612V72.4233Z" fill="black"/>
<path opacity="0.2" d="M59.5237 72.4233H58.9277V77.4182H59.5237V72.4233Z" fill="black"/>
<path opacity="0.2" d="M62.5843 72.4233H61.9883V77.4182H62.5843V72.4233Z" fill="black"/>
<path opacity="0.2" d="M65.6468 72.4233H65.0508V77.4182H65.6468V72.4233Z" fill="black"/>
<path opacity="0.2" d="M68.7054 72.4233H68.1094V77.4182H68.7054V72.4233Z" fill="black"/>
<path opacity="0.2" d="M71.7698 72.4233H71.1738V77.4182H71.7698V72.4233Z" fill="black"/>
<path opacity="0.2" d="M74.8304 72.4233H74.2344V77.4182H74.8304V72.4233Z" fill="black"/>
<path opacity="0.09" d="M75.6858 72.4233H53.6758V73.4528H75.6858V72.4233Z" fill="black"/>
<path d="M73.0666 67.4287H51.0566V72.4236H73.0666V67.4287Z" fill="#FF6D38"/>
<path opacity="0.2" d="M53.844 67.4287H53.248V72.4236H53.844V67.4287Z" fill="black"/>
<path opacity="0.2" d="M56.9065 67.4287H56.3105V72.4236H56.9065V67.4287Z" fill="black"/>
<path opacity="0.2" d="M59.9651 67.4287H59.3691V72.4236H59.9651V67.4287Z" fill="black"/>
<path opacity="0.2" d="M63.0276 67.4287H62.4316V72.4236H63.0276V67.4287Z" fill="black"/>
<path opacity="0.2" d="M66.0862 67.4287H65.4902V72.4236H66.0862V67.4287Z" fill="black"/>
<path opacity="0.2" d="M69.1507 67.4287H68.5547V72.4236H69.1507V67.4287Z" fill="black"/>
<path opacity="0.2" d="M72.2132 67.4287H71.6172V72.4236H72.2132V67.4287Z" fill="black"/>
<path opacity="0.09" d="M73.0666 67.4287H51.0566V68.4581H73.0666V67.4287Z" fill="black"/>
<path d="M43.7658 92.478H21.7559V97.4729H43.7658V92.478Z" fill="#FF6D38"/>
<path opacity="0.2" d="M24.5413 92.478H23.9453V97.4729H24.5413V92.478Z" fill="black"/>
<path opacity="0.2" d="M27.6038 92.478H27.0078V97.4729H27.6038V92.478Z" fill="black"/>
<path opacity="0.2" d="M30.6682 92.478H30.0723V97.4729H30.6682V92.478Z" fill="black"/>
<path opacity="0.2" d="M33.7268 92.478H33.1309V97.4729H33.7268V92.478Z" fill="black"/>
<path opacity="0.2" d="M36.7893 92.478H36.1934V97.4729H36.7893V92.478Z" fill="black"/>
<path opacity="0.2" d="M39.8479 92.478H39.252V97.4729H39.8479V92.478Z" fill="black"/>
<path opacity="0.2" d="M42.9124 92.478H42.3164V97.4729H42.9124V92.478Z" fill="black"/>
<path opacity="0.09" d="M43.7658 92.478H21.7559V93.5075H43.7658V92.478Z" fill="black"/>
<path d="M44.8069 87.4834H22.7969V92.4783H44.8069V87.4834Z" fill="#FF6D38"/>
<path opacity="0.2" d="M25.5823 87.4834H24.9863V92.4783H25.5823V87.4834Z" fill="black"/>
<path opacity="0.2" d="M28.6448 87.4834H28.0488V92.4783H28.6448V87.4834Z" fill="black"/>
<path opacity="0.2" d="M31.7054 87.4834H31.1094V92.4783H31.7054V87.4834Z" fill="black"/>
<path opacity="0.2" d="M34.7679 87.4834H34.1719V92.4783H34.7679V87.4834Z" fill="black"/>
<path opacity="0.2" d="M37.8264 87.4834H37.2305V92.4783H37.8264V87.4834Z" fill="black"/>
<path opacity="0.2" d="M40.889 87.4834H40.293V92.4783H40.889V87.4834Z" fill="black"/>
<path opacity="0.2" d="M43.9534 87.4834H43.3574V92.4783H43.9534V87.4834Z" fill="black"/>
<path opacity="0.09" d="M44.8069 87.4834H22.7969V88.4251H44.8069V87.4834Z" fill="black"/>
<path d="M43.4553 82.4858H21.4453V87.4807H43.4553V82.4858Z" fill="#FF6D38"/>
<path opacity="0.2" d="M24.2327 82.4858H23.6367V87.4807H24.2327V82.4858Z" fill="black"/>
<path opacity="0.2" d="M27.2952 82.4858H26.6992V87.4807H27.2952V82.4858Z" fill="black"/>
<path opacity="0.2" d="M30.3538 82.4858H29.7578V87.4807H30.3538V82.4858Z" fill="black"/>
<path opacity="0.2" d="M33.4163 82.4858H32.8203V87.4807H33.4163V82.4858Z" fill="black"/>
<path opacity="0.2" d="M36.4807 82.4858H35.8848V87.4807H36.4807V82.4858Z" fill="black"/>
<path opacity="0.2" d="M39.5393 82.4858H38.9434V87.4807H39.5393V82.4858Z" fill="black"/>
<path opacity="0.2" d="M42.6018 82.4858H42.0059V87.4807H42.6018V82.4858Z" fill="black"/>
<path opacity="0.09" d="M43.4553 82.4858H21.4453V83.4275H43.4553V82.4858Z" fill="black"/>
<path d="M91.8064 79.9805H86.9844V97.607H91.8064V79.9805Z" fill="#FF6D38"/>
<g opacity="0.4">
<path d="M91.8044 84.6709V88.2545L86.9824 93.0765V89.222L91.8044 84.6709Z" fill="white"/>
<path d="M91.8044 82.0498V82.6587L86.9824 87.4833V86.8744L91.8044 82.0498Z" fill="white"/>
</g>
<path d="M97.7439 85.6592H92.9219V97.6072H97.7439V85.6592Z" fill="#FF6D38"/>
<g opacity="0.4">
<path d="M97.74 89.1816V92.7291L92.918 97.5486V93.7353L97.74 89.1816Z" fill="white"/>
<path d="M97.74 87.5093V88.1904L92.918 93.015V92.3287L97.74 87.5093Z" fill="white"/>
</g>
<path d="M85.865 71.5103H81.043V97.607H85.865V71.5103Z" fill="#FF6D38"/>
<g opacity="0.4">
<path d="M85.8676 76.4097V79.9752L81.043 84.7972V80.9634L85.8676 76.4097Z" fill="white"/>
<path d="M85.8676 74.4487V75.1144L81.043 79.9415V79.2708L85.8676 74.4487Z" fill="white"/>
</g>
<path d="M84.0436 73.6928C83.9711 73.8089 83.8659 73.9009 83.7412 73.9571C83.6164 74.0133 83.4779 74.0312 83.3429 74.0086C83.208 73.9861 83.0828 73.924 82.9832 73.8302C82.8835 73.7364 82.814 73.6152 82.7833 73.4819C82.7526 73.3486 82.7621 73.2092 82.8107 73.0813C82.8592 72.9534 82.9446 72.8427 83.0561 72.7634C83.1675 72.6841 83.3 72.6396 83.4368 72.6356C83.5735 72.6315 83.7084 72.6682 83.8243 72.7408C83.979 72.8386 84.0888 72.9934 84.1298 73.1717C84.1709 73.35 84.1399 73.5373 84.0436 73.6928Z" fill="#263238"/>
<path d="M89.9789 82.0729C89.9064 82.1881 89.8014 82.2792 89.6772 82.3348C89.553 82.3903 89.4151 82.4079 89.2809 82.3852C89.1467 82.3624 89.0223 82.3005 88.9233 82.2071C88.8243 82.1138 88.7552 81.9932 88.7246 81.8606C88.6941 81.728 88.7035 81.5893 88.7517 81.462C88.7998 81.3348 88.8846 81.2246 88.9953 81.1455C89.1061 81.0664 89.2377 81.0218 89.3737 81.0174C89.5097 81.0131 89.644 81.0491 89.7596 81.1209C89.8367 81.1688 89.9035 81.2315 89.9563 81.3054C90.0091 81.3793 90.0468 81.4628 90.0672 81.5513C90.0876 81.6398 90.0902 81.7314 90.0751 81.8209C90.0599 81.9105 90.0272 81.9961 89.9789 82.0729Z" fill="#263238"/>
<path d="M95.9156 87.7488C95.8434 87.8643 95.7385 87.9558 95.6143 88.0118C95.4901 88.0677 95.3521 88.0856 95.2177 88.0631C95.0834 88.0406 94.9587 87.9788 94.8595 87.8854C94.7602 87.7921 94.6909 87.6714 94.6603 87.5387C94.6296 87.406 94.639 87.2671 94.6872 87.1397C94.7355 87.0123 94.8204 86.9021 94.9313 86.823C95.0422 86.7438 95.174 86.6994 95.3102 86.6952C95.4464 86.691 95.5807 86.7272 95.6963 86.7994C95.7733 86.8471 95.8401 86.9095 95.8929 86.9832C95.9456 87.0568 95.9833 87.1402 96.0037 87.2284C96.0241 87.3167 96.0268 87.4081 96.0116 87.4974C95.9965 87.5867 95.9639 87.6722 95.9156 87.7488Z" fill="#263238"/>
<path d="M95.3328 87.3769L89.213 93.0761L89.3936 81.706L83.457 85.3774V73.3262" stroke="#263238" stroke-width="0.258" stroke-miterlimit="10"/>
<path d="M40.1011 41.6384C40.1011 41.6384 38.4576 44.0636 38.0732 44.3139C37.6888 44.5641 32.5004 43.5786 29.9539 42.2499L28.6407 40.6038L26.6593 39.9072L25.5215 42.1673L27.0927 43.1993C27.0927 43.1993 28.0989 44.3577 29.2264 44.0352C29.2264 44.0352 33.2821 46.6823 36.1924 47.3583C39.1026 48.0342 39.776 47.2525 40.6248 46.561C41.4736 45.8696 43.7208 42.5904 43.7208 42.5904L40.1011 41.6384Z" fill="#B55B52"/>
<path d="M55.6992 31.4373C55.6992 31.4373 62.1905 29.4559 64.3887 27.8124C64.3887 27.8124 67.7246 23.7308 68.2793 19.3732L67.5285 17.1054L67.9258 14.5254L70.3975 15.0775C70.3975 15.0775 71.6875 17.7917 70.1163 19.9176C70.1163 19.9176 69.6957 26.2334 67.0203 29.5255C64.3448 32.8176 55.9753 35.0183 55.9753 35.0183L55.6992 31.4373Z" fill="#B55B52"/>
<path d="M58.0249 55.2896L57.4935 36.1976L61.6653 34.2032L58.9847 29.4199C58.9847 29.4199 55.7313 30.3745 52.914 30.3745C49.1704 30.3745 45.4036 33.2125 43.368 34.0175C41.3323 34.8224 39.0723 41.7446 39.0723 41.7446L43.7782 44.2652L44.6605 41.6698C44.6605 41.6698 45.9273 51.2622 45.9325 55.4702L58.0249 55.2896Z" fill="#FF6D38"/>
<path opacity="0.1" d="M58.0249 55.2896L57.4935 36.1976L61.6653 34.2032L58.9847 29.4199C58.9847 29.4199 55.7313 30.3745 52.914 30.3745C49.1704 30.3745 45.4036 33.2125 43.368 34.0175C41.3323 34.8224 39.0723 41.7446 39.0723 41.7446L43.7782 44.2652L44.6605 41.6698C44.6605 41.6698 45.9273 51.2622 45.9325 55.4702L58.0249 55.2896Z" fill="white"/>
<path d="M48.5066 28.6326C48.5066 28.6326 45.2481 28.9732 44.6573 26.3803C44.6573 26.3803 42.7119 25.6063 44.0948 23.6867C44.0948 23.6867 42.3043 21.0216 44.5902 20.2295C44.9027 19.4774 45.3901 18.8107 46.012 18.2847C46.634 17.7588 47.3724 17.3889 48.1661 17.2058C50.0159 16.7517 49.4922 17.745 49.4922 17.745C49.4922 17.745 53.3286 16.2615 53.8782 17.9153C54.4277 19.5691 51.4401 20.3018 51.4401 20.3018L48.5066 28.6326Z" fill="#263238"/>
<path d="M50.5354 28.1505C50.545 28.3055 50.5639 28.4597 50.5922 28.6124C50.7238 29.3864 51.2552 30.6196 52.5452 31.0272C52.5452 31.0272 52.7233 32.405 50.5922 32.1676C48.4611 31.9302 47.4471 31.551 47.4471 31.551C47.7736 29.8842 47.7525 28.1679 47.3852 26.5097C47.3852 26.5097 46.1829 26.7109 45.5044 26.0246C44.8259 25.3383 45.071 23.602 47.1943 24.585C47.1943 24.585 47.6536 22.054 46.1623 21.2929C46.1623 21.2929 49.0829 21.716 51.4178 20.2944C51.4178 20.2944 53.4327 22.8744 53.1515 25.3383C52.8703 27.8022 50.5354 28.1505 50.5354 28.1505Z" fill="#B55B52"/>
<path d="M51.0525 25.1758C51.0525 25.1758 50.294 25.6686 49.4297 24.9565" stroke="#263238" stroke-width="0.186357" stroke-linecap="round" stroke-linejoin="round"/>
<path d="M49.2794 23.047C49.3259 23.2354 49.4574 23.3644 49.5735 23.336C49.6896 23.3076 49.7464 23.1322 49.7 22.9438C49.6535 22.7555 49.5219 22.6239 49.4058 22.6523C49.2897 22.6807 49.2201 22.8587 49.2794 23.047Z" fill="#263238"/>
<path d="M51.3053 22.2911C51.3517 22.482 51.4833 22.611 51.5994 22.5826C51.7155 22.5543 51.7723 22.3762 51.7258 22.1879C51.6794 21.9996 51.5478 21.8706 51.4317 21.8989C51.3156 21.9273 51.2588 22.1028 51.3053 22.2911Z" fill="#263238"/>
<path d="M49.1469 21.6772C48.9727 21.7253 48.8171 21.825 48.7006 21.9631C48.5841 22.1013 48.5121 22.2714 48.4941 22.4512" stroke="#263238" stroke-width="0.248476" stroke-linecap="round" stroke-linejoin="round"/>
<path d="M51.8995 21.0217C51.8995 21.0217 51.4402 20.6785 51.0352 20.9726" stroke="#263238" stroke-width="0.248476" stroke-linecap="round" stroke-linejoin="round"/>
<path d="M51.3646 24.2158L50.8848 22.6343L52.2367 23.7592C52.1638 23.9222 52.0381 24.0559 51.8799 24.1388C51.7217 24.2216 51.5402 24.2488 51.3646 24.2158Z" fill="#A02724"/>
<path opacity="0.19" d="M50.5905 28.6195C50.396 28.655 50.1962 28.6484 50.0044 28.6004C49.8126 28.5523 49.6333 28.4639 49.4785 28.3409C49.8733 28.2996 50.5337 28.1577 50.5337 28.1577C50.5433 28.3127 50.5623 28.4669 50.5905 28.6195Z" fill="black"/>
<path d="M51.7363 32.2037L51.7234 34.6753L50.5108 34.7863C50.5108 34.7863 49.5846 33.8781 49.5253 33.4034C49.4659 32.9287 50.8591 31.6825 51.7363 32.2037Z" fill="#263238"/>
<path d="M51.5484 34.4224C51.5484 34.4224 53.3699 41.1304 54.2445 44.4844L53.2486 46.4684L51.5716 44.794L50.666 34.5333L51.5484 34.4224Z" fill="#263238"/>
<path d="M59.8793 95.2303L56.1847 95.8108C56.1847 95.8108 55.0469 81.6956 54.7554 76.4015C54.7064 75.4856 54.6135 74.5103 54.4974 73.5196C53.9246 68.7672 52.7533 63.6872 52.7533 63.6872C52.7533 63.6872 52.3715 72.1625 51.3137 78.6512C50.2559 85.1399 45.7796 94.6472 45.7796 94.6472L42.2656 93.0296C45.0107 85.176 45.6403 75.3953 45.8776 71.7368C46.115 68.0784 45.8467 53.0318 45.8467 53.0318L57.9469 52.5029C59.1156 58.1996 60.6352 71.2208 60.8029 75.7229C60.9706 80.225 59.8793 95.2303 59.8793 95.2303Z" fill="#263238"/>
<path d="M59.2227 96.3037L59.4188 99.2707L57.2335 99.7635L57.0039 96.4456L59.2227 96.3037Z" fill="#B55B52"/>
<path d="M60.4686 94.7456L55.791 95.6512L56.0206 97.1037L60.3808 96.3117L60.4686 94.7456Z" fill="#FF6D38"/>
<path d="M45.0251 95.0523L43.7351 97.8025L41.6582 97.0002L43.0437 94.1338L45.0251 95.0523Z" fill="#B55B52"/>
<path d="M41.8002 97.0362L44.2358 97.996C44.3415 98.0367 44.4286 98.1147 44.4809 98.2153C44.6666 98.5739 45.1749 99.4537 45.7838 99.7891C46.5578 100.217 46.968 100.517 46.6893 100.96C46.4107 101.404 45.9876 101.252 45.5541 101.138C45.2007 101.046 41.8699 99.6498 40.6521 99.1338C40.5965 99.1102 40.5466 99.0748 40.506 99.03C40.4654 98.9852 40.4351 98.9321 40.4171 98.8744C40.3992 98.8166 40.3941 98.7557 40.4021 98.6958C40.4102 98.6359 40.4312 98.5784 40.4638 98.5275L41.3075 97.2014C41.3589 97.1222 41.4356 97.0629 41.5251 97.0329C41.6145 97.0029 41.7115 97.0041 41.8002 97.0362Z" fill="#263238"/>
<path d="M57.1877 99.6504L59.7677 99.1344C59.8783 99.1132 59.9927 99.1324 60.0902 99.1885C60.4411 99.3872 61.3415 99.8568 62.0356 99.8129C62.9153 99.7561 63.4236 99.7871 63.4288 100.311C63.4339 100.835 62.9953 100.935 62.567 101.072C62.2213 101.183 58.6635 101.802 57.3503 102.029C57.2908 102.04 57.2297 102.037 57.1713 102.021C57.1129 102.006 57.0587 101.978 57.0124 101.939C56.9662 101.9 56.929 101.851 56.9036 101.796C56.8782 101.742 56.8651 101.682 56.8652 101.621V100.048C56.8674 99.9551 56.9002 99.8658 56.9586 99.7939C57.0169 99.722 57.0976 99.6715 57.1877 99.6504Z" fill="#263238"/>
<path d="M47.0889 94.0461L42.0759 92.9702L41.6348 94.4228L46.1833 95.7592L47.0889 94.0461Z" fill="#FF6D38"/>
<path opacity="0.61" d="M54.4953 73.5583C53.9225 68.8085 52.7512 63.7259 52.7512 63.7259L52.2559 57.4023C52.2559 57.4023 55.0526 68.3261 54.4953 73.5583Z" fill="black"/>
<path d="M47.5761 30.7974C48.4943 31.4274 49.5147 31.8935 50.5921 32.1751L49.7974 34.5151C49.7974 34.5151 47.8547 33.6225 46.8691 32.8149L47.5761 30.7974Z" fill="white"/>
<path d="M50.5898 32.1749L51.8979 34.2027C52.4973 33.3733 52.9309 32.4359 53.175 31.4421L51.7044 30.374C51.7044 30.374 51.0852 31.7259 50.5898 32.1749Z" fill="white"/>
</svg>
