<svg width="131" height="97" viewBox="0 0 131 97" fill="none" xmlns="http://www.w3.org/2000/svg">
<path d="M130.18 85.2422H0V85.3073H130.18V85.2422Z" fill="#EBEBEB"/>
<path d="M117.137 89.4312H108.514V89.4962H117.137V89.4312Z" fill="#EBEBEB"/>
<path d="M86.2371 90.1392H83.9746V90.2043H86.2371V90.1392Z" fill="#EBEBEB"/>
<path d="M108.254 87.0151H103.258V87.0802H108.254V87.0151Z" fill="#EBEBEB"/>
<path d="M24.9032 87.4526H13.6582V87.5177H24.9032V87.4526Z" fill="#EBEBEB"/>
<path d="M28.8727 87.4526H27.2246V87.5177H28.8727V87.4526Z" fill="#EBEBEB"/>
<path d="M58.6211 88.5513H34.2305V88.6164H58.6211V88.5513Z" fill="#EBEBEB"/>
<path d="M61.7063 73.63H11.4333C11.0394 73.6293 10.662 73.4724 10.3837 73.1937C10.1055 72.915 9.94922 72.5372 9.94922 72.1434V1.47364C9.95265 1.08207 10.1104 0.707655 10.3883 0.431735C10.6662 0.155815 11.0417 0.00067079 11.4333 0H61.7063C62.1006 0 62.4788 0.15663 62.7576 0.435433C63.0364 0.714236 63.193 1.09237 63.193 1.48666V72.1434C63.193 72.5377 63.0364 72.9158 62.7576 73.1946C62.4788 73.4734 62.1006 73.63 61.7063 73.63ZM11.4333 0.0520724C11.0567 0.0527621 10.6958 0.202838 10.4298 0.469359C10.1637 0.735881 10.0143 1.09707 10.0143 1.47364V72.1434C10.0143 72.52 10.1637 72.8811 10.4298 73.1477C10.6958 73.4142 11.0567 73.5643 11.4333 73.5649H61.7063C62.0832 73.5643 62.4443 73.4143 62.7108 73.1478C62.9772 72.8814 63.1272 72.5202 63.1279 72.1434V1.47364C63.1272 1.09683 62.9772 0.735647 62.7108 0.4692C62.4443 0.202753 62.0832 0.0527606 61.7063 0.0520724H11.4333Z" fill="#EBEBEB"/>
<path d="M118.024 73.63H67.7484C67.3543 73.6293 66.9766 73.4725 66.6979 73.1938C66.4193 72.9152 66.2624 72.5375 66.2617 72.1434V1.47364C66.2658 1.08183 66.4242 0.70742 66.7025 0.431572C66.9808 0.155724 67.3565 0.000663475 67.7484 0H118.024C118.415 0.00135505 118.79 0.156802 119.067 0.432649C119.345 0.708496 119.502 1.08252 119.506 1.47364V72.1434C119.506 72.5368 119.35 72.9141 119.072 73.1928C118.794 73.4714 118.417 73.6287 118.024 73.63ZM67.7484 0.0520724C67.3716 0.0527606 67.0104 0.202753 66.7439 0.4692C66.4775 0.735647 66.3275 1.09683 66.3268 1.47364V72.1434C66.3275 72.5202 66.4775 72.8814 66.7439 73.1478C67.0104 73.4143 67.3716 73.5643 67.7484 73.5649H118.024C118.401 73.5643 118.762 73.4143 119.028 73.1478C119.295 72.8814 119.445 72.5202 119.446 72.1434V1.47364C119.445 1.09683 119.295 0.735647 119.028 0.4692C118.762 0.202753 118.401 0.0527606 118.024 0.0520724H67.7484Z" fill="#EBEBEB"/>
<path d="M93.5524 35.2137C101.09 35.2137 107.201 29.1032 107.201 21.5656C107.201 14.0279 101.09 7.91748 93.5524 7.91748C86.0148 7.91748 79.9043 14.0279 79.9043 21.5656C79.9043 29.1032 86.0148 35.2137 93.5524 35.2137Z" fill="#E0E0E0"/>
<path d="M92.5173 35.2137C100.055 35.2137 106.165 29.1032 106.165 21.5656C106.165 14.0279 100.055 7.91748 92.5173 7.91748C84.9796 7.91748 78.8691 14.0279 78.8691 21.5656C78.8691 29.1032 84.9796 35.2137 92.5173 35.2137Z" fill="#F5F5F5"/>
<path d="M101.437 30.4872C106.363 25.5609 106.363 17.5739 101.437 12.6476C96.5108 7.72134 88.5238 7.72134 83.5975 12.6476C78.6713 17.5739 78.6713 25.5609 83.5975 30.4872C88.5238 35.4134 96.5108 35.4134 101.437 30.4872Z" fill="white"/>
<path d="M94.666 30.7462C94.5974 30.7463 94.5307 30.7232 94.4769 30.6807C94.423 30.6382 94.385 30.5787 94.3692 30.5119L92.2186 21.6388C92.2034 21.5612 92.2187 21.4808 92.2612 21.4142C92.3038 21.3477 92.3704 21.3 92.4471 21.2813C92.5239 21.2625 92.6049 21.274 92.6734 21.3134C92.7419 21.3529 92.7926 21.4172 92.8149 21.493L94.9628 30.3687C94.9816 30.4477 94.9684 30.531 94.9259 30.6003C94.8835 30.6696 94.8153 30.7193 94.7363 30.7384C94.7132 30.7436 94.6897 30.7462 94.666 30.7462Z" fill="#F5F5F5"/>
<path d="M92.5175 22.1775C92.4371 22.1775 92.3576 22.1616 92.2834 22.1308C92.2093 22.1 92.1419 22.0548 92.0853 21.9978L84.704 14.6166C84.6473 14.5597 84.6023 14.4921 84.5716 14.4178C84.541 14.3435 84.5253 14.2639 84.5254 14.1835C84.5256 14.0211 84.5904 13.8655 84.7053 13.7509C84.8203 13.6363 84.9761 13.572 85.1385 13.5723C85.3008 13.5725 85.4564 13.6372 85.571 13.7522L92.5175 20.7012L96.5713 16.6474C96.6863 16.5328 96.8421 16.4685 97.0044 16.4688C97.1668 16.469 97.3224 16.5338 97.437 16.6487C97.5516 16.7637 97.6159 16.9195 97.6156 17.0818C97.6154 17.2442 97.5507 17.3998 97.4357 17.5144L92.9497 21.9978C92.8351 22.1126 92.6796 22.1772 92.5175 22.1775Z" fill="#EBEBEB"/>
<path d="M57.6697 83.3413H59.7266V69.2558H57.6697V83.3413Z" fill="#F0F0F0"/>
<path d="M16.0677 85.2422H58.3711V83.3416H16.0677V85.2422Z" fill="#F0F0F0"/>
<path d="M57.6692 69.2563H14.707V83.3419H57.6692V69.2563Z" fill="#F5F5F5"/>
<path d="M54.8898 71.7085H17.4863V79.7536H54.8898V71.7085Z" fill="#F0F0F0"/>
<path d="M27.09 72.7842H45.2892C45.63 72.7842 45.9062 72.5079 45.9062 72.1671V72.0526C45.9062 71.7118 45.63 71.4355 45.2892 71.4355H27.09C26.7492 71.4355 26.4729 71.7118 26.4729 72.0526V72.1671C26.4729 72.5079 26.7492 72.7842 27.09 72.7842Z" fill="#F5F5F5"/>
<path d="M13.7653 69.2563H57.6699V67.9988H13.7653V69.2563Z" fill="#F0F0F0"/>
<path d="M60.7135 67.998H57.6699V69.2556H60.7135V67.998Z" fill="#E6E6E6"/>
<path d="M111.875 54.3838H107.865V85.2417H111.875V54.3838Z" fill="#F0F0F0"/>
<path d="M72.7712 85.2422H107.865V54.3842H72.7712V85.2422Z" fill="#F5F5F5"/>
<path d="M72.4506 82.5322H103.262V66.028H72.4506V82.5322Z" fill="#FAFAFA"/>
<path d="M72.4506 64.2778H103.262V58.8441H72.4506V64.2778Z" fill="#FAFAFA"/>
<g style="mix-blend-mode:multiply" opacity="0.7">
<path d="M103.538 66.0273H103.262V82.5316H103.538V66.0273Z" fill="#E6E6E6"/>
</g>
<g style="mix-blend-mode:multiply" opacity="0.7">
<path d="M103.538 58.8442H103.262V64.278H103.538V58.8442Z" fill="#E6E6E6"/>
</g>
<g style="mix-blend-mode:multiply" opacity="0.7">
<path d="M111.876 55.686H72.6836V56.3838H111.876V55.686Z" fill="#E6E6E6"/>
</g>
<path d="M112.343 53.9624H107.865V55.9802H112.343V53.9624Z" fill="#F0F0F0"/>
<path d="M72.3026 55.9805L107.865 55.9805V53.9627L72.3026 53.9627V55.9805Z" fill="#F5F5F5"/>
<path d="M85.6422 48.0209C85.4003 47.6398 85.2407 47.2123 85.1736 46.7659C85.103 46.3201 85.0803 45.868 85.1059 45.4173C85.1617 44.5205 85.353 43.6374 85.6735 42.798C85.826 42.3815 85.9998 41.9731 86.1942 41.5743C86.4025 41.1838 86.6108 40.7933 86.8451 40.4209C87.0794 40.0486 87.3372 39.6893 87.6028 39.3404C87.8683 38.9916 88.1677 38.6661 88.4776 38.3511C88.3266 38.7703 88.1469 39.166 87.9568 39.5618C87.7668 39.9575 87.6184 40.3559 87.4361 40.7412L86.931 41.9128L86.6993 42.5038L86.5795 42.798L86.4754 43.0948C86.178 43.8772 85.942 44.6815 85.7698 45.5006C85.6804 45.9098 85.6195 46.3248 85.5876 46.7425C85.5487 47.1692 85.5671 47.5991 85.6422 48.0209Z" fill="#E6E6E6"/>
<path d="M80.589 48.711C80.6225 48.0824 80.5672 47.4522 80.425 46.839C80.2918 46.2799 80.0306 45.7594 79.6621 45.3185C79.2692 44.8814 78.8042 44.5151 78.2874 44.2354C77.7537 43.9255 77.1652 43.6834 76.5586 43.397C77.2327 43.3251 77.9144 43.3979 78.5582 43.6105C78.8907 43.7194 79.2089 43.868 79.5059 44.0531C79.8095 44.2486 80.0839 44.4861 80.3208 44.7587C80.7936 45.3163 81.0683 46.0149 81.1019 46.7452C81.1378 47.4377 80.9586 48.1243 80.589 48.711Z" fill="#E6E6E6"/>
<path d="M80.8163 48.6198C80.7942 47.8872 80.7255 47.1567 80.6106 46.4328C80.5031 45.7429 80.3116 45.0688 80.0404 44.4254C79.7691 43.7929 79.3962 43.2089 78.9365 42.6966C78.4403 42.1669 77.8887 41.6921 77.291 41.2803C78.061 41.3996 78.7873 41.7153 79.3999 42.1967C80.0279 42.6956 80.5211 43.3436 80.8345 44.0818C81.1436 44.8082 81.2971 45.5914 81.285 46.3807C81.2895 47.1519 81.1297 47.9152 80.8163 48.6198Z" fill="#E6E6E6"/>
<path d="M85.2965 47.2893C84.7309 46.5554 84.2505 45.7597 83.8645 44.9174C83.4721 44.0773 83.1491 43.2065 82.8986 42.3138C82.6452 41.4186 82.4769 40.5016 82.3961 39.5748C82.3108 38.6481 82.3538 37.7142 82.5237 36.7993C82.7137 37.7132 82.8595 38.5958 83.0678 39.4732C83.2761 40.3506 83.4844 41.215 83.7318 42.0768C83.9791 42.9386 84.229 43.8004 84.4972 44.6622C84.7654 45.524 85.0388 46.3988 85.2965 47.2893Z" fill="#E6E6E6"/>
<path d="M85.0628 47.2242C84.4183 46.5937 83.8439 45.8953 83.3497 45.1413C82.8548 44.3893 82.4195 43.5997 82.0479 42.7798C81.671 41.9579 81.3712 41.1029 81.1522 40.2257C80.9306 39.3469 80.8298 38.4421 80.8528 37.5361C81.1809 38.3849 81.4647 39.2076 81.8005 40.0174C82.1364 40.8271 82.4696 41.629 82.842 42.4231C83.2143 43.2172 83.5736 44.0087 83.9537 44.8054C84.3338 45.6021 84.7009 46.3962 85.0628 47.2242Z" fill="#E6E6E6"/>
<path d="M86.0307 48.0573C85.3007 47.6707 84.6226 47.193 84.0129 46.6357C83.3988 46.0821 82.8383 45.4719 82.3388 44.8132C81.829 44.158 81.3925 43.4491 81.037 42.699C80.6812 41.9496 80.444 41.1494 80.334 40.3271C80.7818 41.0275 81.1776 41.7123 81.6358 42.3658C82.094 43.0193 82.5366 43.6676 83.0235 44.2898C83.5104 44.9121 83.9973 45.537 84.5024 46.1566C85.0075 46.7763 85.5204 47.4064 86.0307 48.0573Z" fill="#E6E6E6"/>
<path d="M84.6174 47.2296C83.9081 46.9376 83.2505 46.5332 82.6699 46.0319C82.0842 45.5393 81.5597 44.9781 81.1077 44.3604C80.878 44.0524 80.6659 43.7316 80.4724 43.3997C80.2839 43.0631 80.1161 42.7153 79.9699 42.3582C79.6704 41.6511 79.4867 40.9003 79.4258 40.1348C79.8345 40.7883 80.1704 41.4366 80.5766 42.0458C80.7588 42.3609 80.9775 42.6525 81.1676 42.9597C81.3577 43.2669 81.579 43.5533 81.8029 43.8397C82.2333 44.4194 82.6846 44.9879 83.1568 45.5451C83.615 46.11 84.0967 46.6594 84.6174 47.2296Z" fill="#E6E6E6"/>
<path d="M85.7261 47.6745C85.3893 47.4368 85.1201 47.1156 84.945 46.7424C84.7641 46.37 84.637 45.9738 84.5675 45.5656C84.4373 44.7562 84.4602 43.9296 84.6352 43.1286C84.7194 42.7356 84.8237 42.3472 84.9476 41.9648C85.096 41.5925 85.2288 41.215 85.4058 40.8583C85.5829 40.5016 85.7703 40.1527 85.9812 39.8168C86.1981 39.484 86.4319 39.1625 86.6816 38.8535C86.5983 39.2467 86.4811 39.619 86.3692 39.9913C86.2572 40.3636 86.1635 40.7385 86.0411 41.1004C85.9187 41.4623 85.8458 41.8373 85.7339 42.1992L85.6063 42.7485C85.562 42.9308 85.51 43.113 85.4839 43.2979C85.3268 44.0207 85.2466 44.7582 85.2444 45.4979C85.2411 45.8674 85.2743 46.2363 85.3433 46.5992C85.4084 46.977 85.5378 47.3407 85.7261 47.6745Z" fill="#E6E6E6"/>
<path d="M85.2424 46.8444C84.6716 46.2342 84.2579 45.4944 84.0369 44.6886C83.7965 43.8751 83.7196 43.0221 83.8104 42.1788C83.8234 41.9679 83.8755 41.7622 83.9093 41.5539L83.9692 41.2414L84.0603 40.9394C84.128 40.739 84.1853 40.5385 84.2608 40.3432C84.3363 40.1479 84.4353 39.9605 84.5212 39.773L84.6618 39.4944L84.831 39.2341L85.1747 38.7133C85.4317 38.3929 85.7091 38.0893 86.0052 37.8047C85.8699 38.1978 85.6902 38.5545 85.5444 38.9242L85.3387 39.4788L85.2346 39.7392L85.1513 40.0204C85.0966 40.2052 85.0393 40.3901 84.9794 40.5723L84.8518 41.1321L84.7842 41.4107L84.7451 41.6919C84.7217 41.8793 84.6748 42.0668 84.6644 42.2543C84.585 43.0122 84.5955 43.7769 84.6956 44.5324C84.7921 45.3209 84.9755 46.0963 85.2424 46.8444Z" fill="#E6E6E6"/>
<path d="M84.1431 46.5266L80.4121 43.207L80.9641 47.7139L84.1431 46.5266Z" fill="#E6E6E6"/>
<path d="M76.9512 45.9199H87.777L86.358 53.9625H78.3701L76.9512 45.9199Z" fill="#F5F5F5"/>
<path d="M83.7148 45.9199H87.7765L86.3575 53.9625H84.2251L83.7148 45.9199Z" fill="#EBEBEB"/>
<path d="M97.3395 48.0366C97.3905 47.6811 97.3755 47.3192 97.2953 46.9691C97.2264 46.6341 97.1189 46.3082 96.975 45.998C96.6833 45.3754 96.3132 44.7927 95.8737 44.264C95.7748 44.1208 95.6472 44.0036 95.5352 43.8656C95.4233 43.7276 95.3087 43.6053 95.189 43.4673C94.9286 43.2069 94.7047 42.9465 94.4469 42.6862C94.1892 42.4258 93.9418 42.1655 93.6815 41.9051C93.4211 41.6447 93.1608 41.3844 92.9004 41.1006C93.2519 41.2334 93.5851 41.3974 93.9236 41.564C94.252 41.7446 94.5709 41.9419 94.8791 42.155C95.0345 42.2615 95.184 42.3762 95.327 42.4987C95.4728 42.6185 95.616 42.7435 95.7592 42.8658C96.0368 43.1278 96.2976 43.4069 96.5402 43.7016C97.0402 44.3036 97.4051 45.0059 97.6103 45.761C97.7091 46.1432 97.7434 46.5392 97.7119 46.9327C97.6942 47.3284 97.5651 47.711 97.3395 48.0366Z" fill="#E6E6E6"/>
<path d="M103.426 46.9459C103.151 46.7094 102.948 46.401 102.84 46.0555C102.78 45.8775 102.74 45.6931 102.723 45.5061C102.717 45.4107 102.717 45.3151 102.723 45.2197C102.72 45.1244 102.728 45.0291 102.749 44.9359C102.902 44.1953 103.289 43.5235 103.853 43.0197C103.983 42.8921 104.131 42.7905 104.269 42.676C104.406 42.562 104.553 42.4592 104.707 42.3688C104.858 42.2802 105.009 42.1891 105.165 42.1084C105.24 42.0667 105.316 42.0199 105.397 41.9834L105.636 41.8819C105.798 41.8142 105.959 41.7517 106.12 41.6892C106.281 41.6243 106.446 41.572 106.615 41.533C106.95 41.4456 107.29 41.3761 107.633 41.3247C107.364 41.5379 107.083 41.7361 106.792 41.9183C106.649 42.0042 106.514 42.1006 106.378 42.1995C106.243 42.2985 106.118 42.387 105.967 42.4781C105.683 42.6473 105.446 42.8634 105.186 43.0457C105.056 43.1368 104.932 43.2369 104.816 43.3451C104.696 43.4492 104.556 43.543 104.457 43.6523C104.006 44.051 103.65 44.5456 103.415 45.0999C103.366 45.2394 103.326 45.382 103.295 45.5269C103.271 45.6776 103.259 45.83 103.259 45.9826C103.259 46.3109 103.315 46.6367 103.426 46.9459Z" fill="#E6E6E6"/>
<path d="M103.147 46.9457C102.677 46.3332 102.421 45.5831 102.418 44.8108C102.408 44.0197 102.609 43.2403 103.002 42.5535L103.314 42.0588C103.434 41.9052 103.561 41.7594 103.689 41.6136L103.884 41.3975L104.098 41.21L104.535 40.8429C104.844 40.6284 105.165 40.4311 105.496 40.2519C105.835 40.0979 106.183 39.9623 106.537 39.8457C106.277 40.1217 106.017 40.3664 105.738 40.6008C105.459 40.8351 105.233 41.1032 104.988 41.3506C104.874 41.486 104.762 41.611 104.644 41.7437L104.47 41.9338L104.322 42.1421C104.223 42.2801 104.113 42.4024 104.017 42.5482L103.757 42.9778C103.427 43.5573 103.203 44.1914 103.098 44.8498C102.99 45.5459 103.007 46.2556 103.147 46.9457Z" fill="#E6E6E6"/>
<path d="M97.6719 47.331C97.888 46.5265 98.1223 45.7506 98.3488 44.9877C98.5753 44.2249 98.7966 43.4464 98.9997 42.6757C99.2028 41.9051 99.372 41.1292 99.5204 40.3325C99.6688 39.5358 99.7496 38.7703 99.8199 37.9268C100.093 38.7219 100.222 39.5596 100.2 40.4002C100.169 41.237 100.047 42.068 99.8381 42.8788C99.6257 43.6847 99.3389 44.4692 98.9815 45.2221C98.6321 45.9756 98.1923 46.6837 97.6719 47.331Z" fill="#E6E6E6"/>
<path d="M97.9434 47.2011C98.2818 46.4201 98.6463 45.639 99.0056 44.8917C99.3649 44.1445 99.7268 43.3843 100.073 42.6292C100.419 41.8742 100.753 41.1165 101.062 40.3484C101.372 39.5804 101.638 38.7863 101.898 37.9688C101.979 38.8331 101.916 39.7049 101.713 40.5489C101.508 41.3882 101.223 42.206 100.862 42.9911C100.499 43.7699 100.075 44.5187 99.594 45.2302C99.1173 45.9454 98.5637 46.6063 97.9434 47.2011Z" fill="#E6E6E6"/>
<path d="M96.8828 48.1926C97.3905 47.4948 97.9243 46.8361 98.445 46.1774C98.9657 45.5187 99.4864 44.8756 99.9915 44.2117C100.497 43.5478 100.991 42.889 101.465 42.2069C101.939 41.5248 102.371 40.8218 102.811 40.0771C102.696 40.9376 102.44 41.7732 102.054 42.5506C101.666 43.3227 101.206 44.056 100.679 44.7402C100.151 45.4179 99.5705 46.0526 98.9423 46.6382C98.3145 47.2299 97.6239 47.7511 96.8828 48.1926Z" fill="#E6E6E6"/>
<path d="M98.4766 47.0575C98.9739 46.4352 99.4711 45.8468 99.9606 45.2506C100.45 44.6544 100.924 44.0633 101.387 43.4619C101.851 42.8605 102.28 42.2408 102.689 41.6081C103.098 40.9755 103.47 40.3063 103.871 39.6138C103.813 40.4142 103.615 41.1983 103.288 41.931C102.962 42.6627 102.55 43.3531 102.062 43.9878C101.577 44.6194 101.032 45.2012 100.432 45.7244C99.8418 46.2532 99.1843 46.7014 98.4766 47.0575Z" fill="#E6E6E6"/>
<path d="M97.2046 47.784C97.4872 47.2193 97.6233 46.5926 97.6004 45.9615C97.5659 45.3592 97.4119 44.7697 97.1473 44.2275L97.0588 44.0166L96.9469 43.8135L96.7282 43.4021C96.5537 43.1418 96.3975 42.8632 96.2074 42.595C96.0174 42.3269 95.8455 42.0587 95.6529 41.7905C95.4506 41.5207 95.262 41.2409 95.0879 40.9521C95.3873 41.1168 95.6776 41.2976 95.9575 41.4937C96.2305 41.7015 96.4913 41.925 96.7386 42.1628C96.8621 42.2838 96.9778 42.4125 97.0849 42.5482C97.1959 42.6818 97.3053 42.8172 97.4129 42.9543L97.6915 43.4048L97.8243 43.6339L97.9336 43.8786C98.2513 44.5386 98.3689 45.2771 98.2721 46.0032C98.2259 46.3573 98.1072 46.6982 97.9236 47.0046C97.7399 47.311 97.4952 47.5763 97.2046 47.784Z" fill="#E6E6E6"/>
<path d="M97.6884 46.9532C97.9026 46.308 98.0492 45.6422 98.1258 44.9667C98.1961 44.3369 98.1494 43.6996 97.9878 43.0869C97.9067 42.7848 97.7932 42.4924 97.6493 42.2147C97.5061 41.9282 97.337 41.6555 97.1442 41.3997C96.7298 40.8581 96.2755 40.3481 95.7852 39.874C96.4828 40.0806 97.1222 40.448 97.6519 40.9467C97.9282 41.2008 98.1682 41.4917 98.3653 41.8111C98.5685 42.1338 98.7229 42.4848 98.8236 42.8526C99.0196 43.5886 99.0079 44.3645 98.7897 45.0943C98.5925 45.8 98.2126 46.4412 97.6884 46.9532Z" fill="#E6E6E6"/>
<path d="M98.9609 46.3364L103.033 42.4258L102.869 46.2609L98.9609 46.3364Z" fill="#E6E6E6"/>
<path d="M94.5059 45.9199H105.332L103.913 53.9625H95.9248L94.5059 45.9199Z" fill="#F5F5F5"/>
<path d="M101.268 45.9199H105.332L103.913 53.9625H101.78L101.268 45.9199Z" fill="#EBEBEB"/>
<path d="M27.0448 9.30029V51.4787C27.0448 53.2327 26.3481 54.9147 25.1079 56.155C23.8676 57.3952 22.1856 58.0919 20.4316 58.0919H51.1542C52.9084 58.0919 54.5907 57.3952 55.8314 56.1551C57.072 54.915 57.7693 53.2329 57.77 51.4787V9.30029H27.0448Z" fill="#F5F5F5"/>
<path d="M52.9463 19.9775H33.0938V39.8301H52.9463V19.9775Z" fill="#F0F0F0"/>
<path d="M52.3388 19.3657H32.4863V39.2182H52.3388V19.3657Z" fill="white"/>
<path d="M37.3589 42.1577H32.3105V47.2061H37.3589V42.1577Z" fill="white"/>
<path d="M52.3355 42.1577H47.2871V47.2061H52.3355V42.1577Z" fill="white"/>
<path d="M44.8472 42.1577H39.7988V47.2061H44.8472V42.1577Z" fill="white"/>
<path d="M57.7734 9.30029H27.043V14.32H57.7734V9.30029Z" fill="#F0F0F0"/>
<path d="M28.9004 7.68828V10.9116C28.9001 11.0296 28.923 11.1466 28.9681 11.2557C29.0131 11.3648 29.0792 11.464 29.1627 11.5475C29.2462 11.6309 29.3454 11.6971 29.4545 11.7421C29.5636 11.7871 29.6806 11.8101 29.7986 11.8098C29.9166 11.8098 30.0334 11.7866 30.1424 11.7414C30.2514 11.6963 30.3504 11.6301 30.4338 11.5467C30.5172 11.4633 30.5834 11.3643 30.6285 11.2553C30.6736 11.1463 30.6969 11.0295 30.6969 10.9116V7.68828C30.6962 7.45026 30.6013 7.22219 30.433 7.05389C30.2647 6.88558 30.0367 6.79073 29.7986 6.79004C29.5604 6.79004 29.3319 6.88468 29.1635 7.05313C28.995 7.22158 28.9004 7.45005 28.9004 7.68828Z" fill="#E6E6E6"/>
<path d="M54.1348 7.68828V10.9116C54.1348 11.1498 54.2294 11.3783 54.3979 11.5467C54.5663 11.7152 54.7948 11.8098 55.033 11.8098C55.1511 11.8101 55.268 11.7871 55.3772 11.7421C55.4863 11.6971 55.5855 11.6309 55.6689 11.5475C55.7524 11.464 55.8186 11.3648 55.8636 11.2557C55.9086 11.1466 55.9316 11.0296 55.9313 10.9116V7.68828C55.9313 7.45005 55.8366 7.22158 55.6682 7.05313C55.4997 6.88468 55.2712 6.79004 55.033 6.79004C54.795 6.79073 54.5669 6.88558 54.3986 7.05389C54.2303 7.22219 54.1355 7.45026 54.1348 7.68828Z" fill="#E6E6E6"/>
<path d="M49.0859 7.68829V10.9116C49.0859 11.0295 49.1092 11.1463 49.1543 11.2553C49.1995 11.3643 49.2656 11.4633 49.349 11.5467C49.4324 11.6301 49.5315 11.6963 49.6404 11.7414C49.7494 11.7866 49.8662 11.8098 49.9842 11.8098C50.1021 11.8098 50.2189 11.7866 50.3279 11.7414C50.4369 11.6963 50.5359 11.6301 50.6193 11.5467C50.7027 11.4633 50.7689 11.3643 50.8141 11.2553C50.8592 11.1463 50.8824 11.0295 50.8824 10.9116V7.68829C50.8817 7.45117 50.7876 7.22387 50.6204 7.05572C50.4532 6.88756 50.2265 6.7921 49.9894 6.79004C49.8711 6.7897 49.7539 6.81266 49.6445 6.85762C49.535 6.90257 49.4355 6.96864 49.3516 7.05205C49.2677 7.13546 49.2011 7.23458 49.1555 7.34374C49.1099 7.45291 49.0863 7.56999 49.0859 7.68829Z" fill="#E6E6E6"/>
<path d="M44.0391 7.68828V10.9116C44.0387 11.0296 44.0617 11.1466 44.1067 11.2557C44.1518 11.3648 44.2179 11.464 44.3014 11.5475C44.3849 11.6309 44.484 11.6971 44.5932 11.7421C44.7023 11.7871 44.8193 11.8101 44.9373 11.8098C45.1739 11.8077 45.4001 11.7121 45.5665 11.5438C45.7329 11.3755 45.8258 11.1482 45.8251 10.9116V7.68828C45.8251 7.4505 45.7309 7.22243 45.563 7.05405C45.3951 6.88567 45.1673 6.79073 44.9295 6.79004C44.6926 6.7921 44.4662 6.88764 44.2994 7.05587C44.1326 7.22411 44.0391 7.4514 44.0391 7.68828Z" fill="#E6E6E6"/>
<path d="M38.9883 7.68828V10.9116C38.9879 11.0294 39.0109 11.1461 39.0557 11.2551C39.1006 11.3641 39.1665 11.4631 39.2497 11.5465C39.3329 11.63 39.4317 11.6962 39.5406 11.7414C39.6494 11.7865 39.7661 11.8098 39.8839 11.8098C40.002 11.8101 40.1189 11.7871 40.2281 11.7421C40.3372 11.6971 40.4364 11.6309 40.5198 11.5475C40.6033 11.464 40.6695 11.3648 40.7145 11.2557C40.7595 11.1466 40.7825 11.0296 40.7822 10.9116V7.68828C40.7822 7.45005 40.6875 7.22158 40.5191 7.05313C40.3506 6.88468 40.1222 6.79004 39.8839 6.79004C39.6461 6.79073 39.4183 6.88567 39.2505 7.05405C39.0826 7.22243 38.9883 7.4505 38.9883 7.68828Z" fill="#E6E6E6"/>
<path d="M33.9375 7.68828V10.9116C33.9375 11.0295 33.9607 11.1463 34.0059 11.2553C34.051 11.3643 34.1172 11.4633 34.2006 11.5467C34.284 11.6301 34.383 11.6963 34.492 11.7414C34.601 11.7866 34.7178 11.8098 34.8357 11.8098C34.9537 11.8098 35.0705 11.7866 35.1795 11.7414C35.2885 11.6963 35.3875 11.6301 35.4709 11.5467C35.5543 11.4633 35.6205 11.3643 35.6656 11.2553C35.7108 11.1463 35.734 11.0295 35.734 10.9116V7.68828C35.7333 7.45026 35.6384 7.22219 35.4701 7.05389C35.3018 6.88558 35.0738 6.79073 34.8357 6.79004C34.5977 6.79073 34.3697 6.88558 34.2013 7.05389C34.033 7.22219 33.9382 7.45026 33.9375 7.68828Z" fill="#E6E6E6"/>
<path d="M48.393 55.311C48.393 56.0451 48.6846 56.749 49.2036 57.268C49.7226 57.7871 50.4266 58.0787 51.1606 58.0787H16.5821C15.8481 58.0787 15.1441 57.7871 14.6251 57.268C14.106 56.749 13.8145 56.0451 13.8145 55.311H48.393Z" fill="#E6E6E6"/>
<path d="M65.0888 97C92.9689 97 115.57 95.6805 115.57 94.0527C115.57 92.425 92.9689 91.1055 65.0888 91.1055C37.2087 91.1055 14.6074 92.425 14.6074 94.0527C14.6074 95.6805 37.2087 97 65.0888 97Z" fill="#F5F5F5"/>
<path opacity="0.2" d="M70.1886 69.186C70.1886 69.186 51.0547 80.4831 51.0547 91.1865H89.3277C89.3251 80.4831 70.1886 69.186 70.1886 69.186Z" fill="#FF6D38"/>
<path opacity="0.2" d="M70.1896 82.665C70.1896 82.665 52.5215 87.0417 52.5215 91.1867H87.8577C87.8577 87.0417 70.1896 82.665 70.1896 82.665Z" fill="#FF6D38"/>
<path opacity="0.3" d="M72.5117 72.3052C76.1047 75.8383 83.0876 83.6673 83.0876 91.1865H78.2995C78.2995 83.6673 74.4774 75.8383 72.5117 72.3052Z" fill="white"/>
<path opacity="0.2" d="M70.1886 69.186C70.1886 69.186 51.0547 57.889 51.0547 47.1855H89.3277C89.3251 57.889 70.1886 69.186 70.1886 69.186Z" fill="#FF6D38"/>
<path opacity="0.2" d="M70.1887 68.1553C70.1887 68.1553 60.4199 63.4688 60.4199 59.0166H79.96C79.96 63.461 70.1887 68.1553 70.1887 68.1553Z" fill="#FF6D38"/>
<path opacity="0.3" d="M68.1025 66.0669C64.5122 62.5338 57.5371 54.7048 57.5371 47.1855H62.3251C62.3147 54.7048 66.129 62.5338 68.1025 66.0669Z" fill="white"/>
<path opacity="0.3" d="M72.5117 66.0669C76.1047 62.5338 82.9131 53.7987 83.0876 47.1855H81.8118C81.213 55.2489 75.3549 62.6484 72.5117 66.0669Z" fill="white"/>
<path d="M86.7274 43.4077H84.5586V43.6681H86.7274V43.4077Z" fill="#FF6D38"/>
<path d="M94.0899 46.9851H93.8295C93.8288 46.106 93.4795 45.2631 92.8582 44.6413C92.2368 44.0194 91.3942 43.6695 90.5151 43.6681H88.2266V43.4077H90.5151C91.463 43.4098 92.3715 43.7874 93.0415 44.4579C93.7115 45.1284 94.0885 46.0372 94.0899 46.9851Z" fill="#FF6D38"/>
<path d="M90.5128 44.3193H49.8653C48.3929 44.3193 47.1992 45.513 47.1992 46.9854V47.3864C47.1992 48.8588 48.3929 50.0525 49.8653 50.0525H90.5128C91.9853 50.0525 93.1789 48.8588 93.1789 47.3864V46.9854C93.1789 45.513 91.9853 44.3193 90.5128 44.3193Z" fill="#FF6D38"/>
<path d="M90.5128 88.3198H49.8653C48.3929 88.3198 47.1992 89.5135 47.1992 90.9859V91.3869C47.1992 92.8593 48.3929 94.053 49.8653 94.053H90.5128C91.9853 94.053 93.1789 92.8593 93.1789 91.3869V90.9859C93.1789 89.5135 91.9853 88.3198 90.5128 88.3198Z" fill="#FF6D38"/>
<path d="M36.6383 64.9651L34.873 63.3978L37.8828 58.7764L39.6481 60.3411L36.6383 64.9651Z" fill="#FF8B7B"/>
<path d="M35.2387 62.4032L37.483 63.9654C37.5021 63.9774 37.5187 63.993 37.5319 64.0114C37.545 64.0297 37.5543 64.0505 37.5594 64.0725C37.5645 64.0945 37.5652 64.1173 37.5615 64.1396C37.5577 64.1619 37.5496 64.1832 37.5377 64.2023L36.4129 66.0561C36.3481 66.1493 36.2493 66.2133 36.1377 66.2343C36.0262 66.2552 35.9108 66.2314 35.8167 66.1681C35.0356 65.6135 34.7466 65.3427 33.8119 64.5877C32.8881 63.8616 32.0017 63.0891 31.1562 62.2731C30.4637 61.5545 31.1953 60.8593 31.5624 61.1067C32.4294 61.6951 33.9369 62.3434 34.8091 62.2913C34.9608 62.2793 35.1121 62.3187 35.2387 62.4032Z" fill="#263238"/>
<path opacity="0.2" d="M39.6464 60.3437L37.8812 58.7764L36.4336 61.0024L38.2431 62.5047L39.6464 60.3437Z" fill="black"/>
<path d="M57.6062 37.2578C57.6062 37.2578 45.7598 36.4481 44.2913 40.4629C40.9509 49.5911 36.6055 59.2739 36.6055 59.2739L40.0969 61.802C40.0969 61.802 47.4781 50.5154 49.7303 43.2695C54.2866 44.3761 62.5244 45.3212 65.1775 42.275C67.4426 39.6714 65.7477 37.2578 65.7477 37.2578H57.6062Z" fill="#263238"/>
<path opacity="0.3" d="M47.4594 44.3525C47.1834 45.4669 46.7643 48.6589 46.5039 50.7756C47.0793 49.6613 47.6261 48.5313 48.1181 47.4274L47.4594 44.3525Z" fill="black"/>
<path d="M39.8742 62.9448L35.9141 59.8413L36.7238 58.1021L41.1499 61.4841L39.8742 62.9448Z" fill="#FF6D38"/>
<path d="M34.2896 62.26C34.4732 62.3796 34.6687 62.4799 34.8728 62.5594C34.883 62.563 34.894 62.5636 34.9044 62.5611C34.9149 62.5587 34.9245 62.5534 34.9321 62.5458C34.9397 62.5382 34.9451 62.5286 34.9475 62.5181C34.9499 62.5076 34.9493 62.4967 34.9457 62.4865C34.9119 62.398 34.6151 61.6195 34.3053 61.544C34.2697 61.5359 34.2327 61.5369 34.1976 61.5469C34.1626 61.5569 34.1306 61.5756 34.1048 61.6013C34.0612 61.6358 34.0275 61.6811 34.0069 61.7328C33.9864 61.7844 33.9797 61.8405 33.9876 61.8955C34.0403 62.0499 34.1477 62.1796 34.2896 62.26ZM34.7921 62.4032C34.3834 62.2262 34.1282 62.0309 34.0996 61.8825C34.0951 61.8462 34.1005 61.8095 34.1151 61.776C34.1298 61.7426 34.1532 61.7137 34.1829 61.6924C34.1949 61.6795 34.2102 61.67 34.2271 61.665C34.2441 61.6599 34.2621 61.6595 34.2792 61.6638C34.4458 61.7054 34.6619 62.0934 34.7921 62.4032Z" fill="#FF6D38"/>
<path d="M34.8597 62.5516C34.8682 62.5541 34.8772 62.5541 34.8857 62.5516C34.8954 62.5527 34.9052 62.5513 34.9143 62.5477C34.9234 62.5441 34.9314 62.5383 34.9378 62.5308C34.956 62.51 35.3986 61.9658 35.3335 61.6299C35.3249 61.587 35.3066 61.5466 35.28 61.5119C35.2534 61.4771 35.2191 61.4489 35.1799 61.4295C35.1399 61.4044 35.0928 61.3931 35.0458 61.3974C34.9988 61.4016 34.9544 61.4211 34.9195 61.4529C34.7217 61.6378 34.7295 62.2626 34.8466 62.5204C34.8484 62.5317 34.8528 62.5424 34.8597 62.5516ZM35.1487 61.5544C35.1675 61.5669 35.1836 61.583 35.1962 61.6018C35.2087 61.6205 35.2173 61.6416 35.2216 61.6638C35.2606 61.8617 35.0497 62.2027 34.9117 62.3902C34.8388 62.1298 34.8623 61.6664 34.9898 61.5466C35.0159 61.5232 35.0523 61.4998 35.1278 61.5466L35.1487 61.5544Z" fill="#FF6D38"/>
<path d="M52.2019 67.6964L49.9237 68.152L49.502 62.0518L51.8166 62.1247L52.2019 67.6964Z" fill="#FF8B7B"/>
<path d="M49.6154 67.3189L52.219 66.2228C52.2403 66.2123 52.2635 66.2062 52.2872 66.2049C52.3109 66.2035 52.3346 66.207 52.357 66.215C52.3793 66.223 52.3998 66.2354 52.4173 66.2515C52.4347 66.2676 52.4487 66.2871 52.4585 66.3087L53.4531 68.3083C53.4986 68.4165 53.4998 68.5382 53.4565 68.6473C53.4131 68.7563 53.3287 68.844 53.2214 68.8915C52.3101 69.2586 51.8571 69.3862 50.7141 69.8704C50.0111 70.1673 48.1105 71.0265 47.0951 71.279C46.0797 71.5316 45.8506 70.5135 46.2619 70.3157C47.2357 69.847 48.8499 68.4176 49.2847 67.6287C49.3588 67.4926 49.4747 67.384 49.6154 67.3189Z" fill="#263238"/>
<path d="M48.968 68.0685C49.1732 67.9748 49.3678 67.8596 49.5487 67.7248C49.5576 67.7179 49.5645 67.7087 49.5687 67.6982C49.5728 67.6876 49.574 67.6761 49.5721 67.665C49.569 67.654 49.5631 67.6441 49.5548 67.6363C49.5465 67.6285 49.5363 67.6231 49.5252 67.6207C49.4315 67.5999 48.5879 67.4306 48.351 67.6598C48.324 67.6859 48.3043 67.7186 48.2938 67.7547C48.2833 67.7907 48.2824 67.8289 48.2911 67.8654C48.2969 67.9218 48.3176 67.9755 48.351 68.0213C48.3844 68.067 48.4293 68.1031 48.4812 68.1258C48.645 68.1677 48.8185 68.1473 48.968 68.0685ZM49.3664 67.7092C48.9889 67.9696 48.679 68.0815 48.5254 68.0217C48.4912 68.006 48.4619 67.9811 48.4407 67.9499C48.4196 67.9187 48.4075 67.8823 48.4057 67.8446C48.4006 67.8269 48.4004 67.8082 48.405 67.7903C48.4096 67.7725 48.4188 67.7562 48.4317 67.7431C48.5593 67.6207 49.0279 67.6519 49.3664 67.7092Z" fill="#FF6D38"/>
<path d="M49.5338 67.7324C49.5426 67.7279 49.5506 67.7217 49.5572 67.7142C49.5615 67.7058 49.5638 67.6964 49.5638 67.6869C49.5638 67.6774 49.5615 67.668 49.5572 67.6595C49.5572 67.6309 49.3177 66.9436 48.9896 66.816C48.9474 66.7991 48.9019 66.7925 48.8566 66.7966C48.8114 66.8006 48.7678 66.8153 48.7293 66.8394C48.6836 66.8598 48.6463 66.8952 48.6235 66.9397C48.6008 66.9842 48.594 67.0352 48.6043 67.0841C48.6564 67.3445 49.2057 67.696 49.4947 67.7351C49.5076 67.7393 49.5216 67.7384 49.5338 67.7324ZM48.823 66.9279C48.8444 66.9189 48.8674 66.9143 48.8907 66.9143C48.9139 66.9143 48.9369 66.9189 48.9584 66.9279C49.1536 67.0034 49.3333 67.3758 49.4218 67.5997C49.1615 67.5137 48.7631 67.2456 48.7293 67.0633C48.7293 67.0295 48.7293 66.9852 48.7996 66.9436L48.823 66.9279Z" fill="#FF6D38"/>
<path opacity="0.2" d="M51.8192 62.1273L49.502 62.0518L49.7233 65.2386L52.0301 65.1969L51.8192 62.1273Z" fill="black"/>
<path d="M63.3596 37.2578C63.3596 37.2578 46.4361 38.859 47.0454 43.9543C47.9358 51.3043 48.5867 64.1739 48.5867 64.1739L52.9009 64.3431C52.9009 64.3431 54.5203 53.0279 53.5726 45.5008C57.9545 45.5008 67.4733 45.7326 69.1474 43.4674C71.1339 40.7805 70.2149 37.2578 70.2149 37.2578H63.3596Z" fill="#263238"/>
<path d="M53.3791 64.6085L48.2005 64.3508L48.0156 62.0986L53.6941 62.4892L53.3791 64.6085Z" fill="#FF6D38"/>
<path d="M59.6024 22.3362C59.5659 22.8023 59.5243 23.2162 59.467 23.651C59.4097 24.0858 59.355 24.5102 59.2873 24.9398C59.1624 25.7964 58.9905 26.6478 58.7979 27.5044C58.6052 28.361 58.3683 29.215 58.0715 30.0767C57.7701 30.9833 57.3748 31.856 56.892 32.6804C56.6038 33.1654 56.2537 33.6108 55.8506 34.0056C55.7438 34.1054 55.6317 34.1992 55.5147 34.2868C55.408 34.3753 55.3012 34.4508 55.1919 34.5263C54.9837 34.6732 54.7672 34.8079 54.5436 34.9299C53.7179 35.3791 52.8446 35.7345 51.94 35.9895C51.5104 36.1223 51.0782 36.2291 50.6382 36.3254C50.1982 36.4217 49.779 36.5051 49.3364 36.5727C48.4748 36.7137 47.6052 36.8007 46.7328 36.8331C46.5177 36.8422 46.3066 36.7731 46.1385 36.6385C45.9705 36.5039 45.8569 36.313 45.8188 36.1011C45.7806 35.8893 45.8206 35.6707 45.9312 35.486C46.0418 35.3013 46.2155 35.1629 46.4203 35.0965L46.4542 35.0835C47.981 34.6005 49.4788 34.0302 50.9402 33.3755C51.6122 33.0714 52.2553 32.7071 52.8616 32.2872C52.9996 32.1883 53.122 32.0867 53.247 31.9852C53.3043 31.9357 53.3641 31.8863 53.4136 31.8342C53.4598 31.7927 53.5032 31.7484 53.5438 31.7014C53.7166 31.4924 53.8651 31.2644 53.9864 31.0219C54.3023 30.3802 54.556 29.7097 54.7441 29.0197C54.9549 28.2881 55.1372 27.5252 55.2882 26.7493C55.4392 25.9735 55.5746 25.1872 55.7022 24.3905C55.8298 23.5938 55.9261 22.7814 56.0146 22.0264V21.9821C56.0798 21.5256 56.3188 21.1118 56.6818 20.8273C57.0448 20.5427 57.5036 20.4094 57.9625 20.4551C58.4215 20.5008 58.845 20.722 59.1447 21.0725C59.4445 21.423 59.5972 21.8758 59.5711 22.3362H59.6024Z" fill="#FF6D38"/>
<path d="M46.8194 34.6279L45.5176 34.7086L46.559 37.104C46.559 37.104 48.8111 37.0545 48.7643 35.9454L48.3581 35.4246C48.1722 35.1909 47.9391 34.9991 47.6739 34.8618C47.4087 34.7245 47.1175 34.6448 46.8194 34.6279Z" fill="#FF8B7B"/>
<path d="M44.0898 34.9065L45.2146 37.1092H46.5555L45.514 34.7139L44.0898 34.9065Z" fill="#FF8B7B"/>
<path d="M59.4159 18.6445L61.9336 18.1238L63.9384 17.8348C64.2248 17.788 64.5158 17.7749 64.8054 17.7958C65.5747 17.8655 66.3045 18.1684 66.8972 18.6638C67.4899 19.1593 67.9173 19.8238 68.1224 20.5686C68.6249 22.3911 69.0779 24.6276 69.4242 26.609C69.9084 29.361 70.1584 33.4955 70.2052 37.2551H58.2781C58.0178 30.4467 56.5701 26.0596 56.0781 23.3388C55.9299 22.5174 56.0557 21.6701 56.4363 20.9273C56.8169 20.1844 57.4311 19.5873 58.1844 19.2277L59.4159 18.6445Z" fill="#FF6D38"/>
<path d="M58.2773 20.1415C58.306 21.2611 58.5377 25.2524 59.738 27.5201C59.9489 25.3956 62.4718 18.9282 62.4718 18.9282L58.2773 20.1415Z" fill="#F5F5F5"/>
<path opacity="0.3" d="M69.6972 28.4781C69.6972 28.4364 69.6972 28.3974 69.6816 28.3531L69.6582 28.1656C69.6452 28.0641 69.6321 27.9626 69.6191 27.8662L69.5801 27.5877L69.541 27.3273C69.541 27.2544 69.5176 27.1789 69.5072 27.1086C69.4811 26.942 69.4551 26.7805 69.4265 26.6217C69.3405 26.1348 69.2494 25.6297 69.1505 25.122V25.0804C69.0515 24.5597 68.95 24.0572 68.8406 23.5495V23.5156C68.7964 23.2969 68.7495 23.0834 68.7 22.8673L68.6454 22.6278L68.5516 22.2138L68.4735 21.891L68.4579 21.8233C68.3538 21.3963 68.247 20.9771 68.1377 20.5813L66.3282 19.6284C66.5365 20.4277 66.7343 21.3077 66.9218 22.2086C66.7052 22.3219 66.5055 22.4647 66.3282 22.633C65.896 23.0183 65.9116 23.8385 66.3438 24.8096C67.5402 27.5866 68.2026 30.5641 68.2965 33.5864C68.3512 34.8127 68.385 36.0546 68.4006 37.2601H70.2232C70.1711 34.2737 70.0045 31.0557 69.6972 28.4781Z" fill="black"/>
<path d="M60.9965 13.6274L59.9732 15.1896L58.5829 17.3115C58.7619 17.4938 58.9073 17.7062 59.0125 17.939C59.2729 18.4597 59.476 18.8347 58.4007 19.5663C58.1715 19.7225 58.1637 19.9698 58.2158 20.2432C58.2783 20.5765 58.4762 20.9254 59.6322 20.7197C60.7494 20.5048 61.769 19.9393 62.543 19.1054C62.9283 18.7175 62.8398 18.4285 62.4675 18.0275C61.4156 16.895 61.1006 15.0855 60.9965 13.6274Z" fill="#FF8B7B"/>
<path d="M58.5391 20.7583L59.2759 21.2218L60.4735 20.7141C60.1912 20.4291 59.8273 20.2389 59.4321 20.1699C59.0879 20.2841 58.7798 20.4871 58.5391 20.7583Z" fill="#263238"/>
<path d="M59.418 20.1699C59.9673 20.3964 60.2433 20.9067 60.4933 21.4952C60.4933 21.4952 63.1255 19.5008 63.1802 18.186C63.0396 17.7382 62.3809 17.8163 62.3809 17.8163C62.3809 17.8163 61.579 19.2066 59.418 20.1699Z" fill="white"/>
<path d="M59.4194 20.1703C59.1627 20.2741 58.9447 20.4552 58.7954 20.6884C58.6461 20.9216 58.5731 21.1955 58.5863 21.4721C58.5863 21.4721 57.4146 20.0974 58.3676 19.0585C58.6261 18.9229 58.9008 18.8205 59.1851 18.7539C59.1851 18.7539 58.8987 19.3267 59.4194 20.1703Z" fill="white"/>
<path d="M59.5057 21.0059H59.1699C59.0605 21.1933 58.9095 23.6355 58.8496 24.9347C59.0105 25.6932 59.2469 26.4337 59.5552 27.1452C59.5542 27.1538 59.5542 27.1626 59.5552 27.1712C59.5734 27.2129 59.5916 27.2519 59.6125 27.291C59.6489 27.3691 59.6854 27.4472 59.727 27.5201C59.8473 26.7136 60.0345 25.9184 60.2868 25.143C59.9431 23.6381 59.5057 21.0059 59.5057 21.0059Z" fill="#263238"/>
<path opacity="0.2" d="M58.927 16.7881L59.781 15.2754C59.7966 15.3118 59.8174 15.3561 59.8383 15.3978C59.9132 15.5866 59.9741 15.7806 60.0205 15.9784C60.1767 16.6527 59.656 17.6108 59.0806 18.0613C59.0572 18.0196 59.0364 17.9753 59.0129 17.9311C58.9105 17.7125 58.7782 17.5092 58.6198 17.327L58.5859 17.301L58.927 16.7881Z" fill="black"/>
<path d="M54.7654 13.5388C54.5597 12.6145 56.0307 11.3361 56.0307 11.3361L54.2889 10.7295C53.5026 11.2945 54.0129 12.9061 54.7654 13.5388Z" fill="#263238"/>
<path d="M60.6328 10.8672C61.0441 13.1792 61.4138 14.5123 60.5442 15.9885C60.2717 16.4733 59.8718 16.8742 59.3879 17.1481C58.9039 17.4219 58.3542 17.5581 57.7984 17.542C57.2425 17.526 56.7017 17.3581 56.2343 17.0568C55.767 16.7554 55.391 16.332 55.147 15.8323C54.1706 13.9265 53.6629 10.4689 55.6494 8.95099C56.0704 8.61158 56.5732 8.38877 57.1074 8.30491C57.6417 8.22104 58.1885 8.27906 58.6933 8.47315C59.198 8.66724 59.6429 8.99057 59.9833 9.41076C60.3237 9.83095 60.5476 10.3332 60.6328 10.8672Z" fill="#FF8B7B"/>
<path d="M60.6638 13.2054L59.5703 12.906V11.5001C59.5703 11.5001 58.1878 10.719 58.4013 9.74265C58.5072 9.19374 58.6561 8.654 58.8465 8.12841C58.8465 8.12841 61.0388 7.98782 61.7105 8.26901C61.5365 8.45751 61.3476 8.63165 61.1455 8.78973C61.6712 9.1534 62.122 9.61481 62.4734 10.1488C62.1988 10.21 61.9422 10.3338 61.7235 10.5107C61.7235 10.5107 62.0099 12.44 60.6638 13.2054Z" fill="#263238"/>
<path d="M58.1504 6.62893C58.9549 7.13403 58.4889 8.06092 58.4889 8.06092L60.642 8.10518C60.5275 7.42564 58.6607 6.59508 58.1504 6.62893Z" fill="#263238"/>
<path d="M58.9919 10.2167C58.8383 10.6489 57.0938 11.18 55.503 11.2321C54.7101 11.2149 53.9255 11.0671 53.1806 10.7947C53.4052 10.564 53.6699 10.3761 53.9617 10.2401C53.001 10.0032 51.7851 9.15963 51.4492 8.47228C52.1507 8.22158 52.9085 8.17287 53.6362 8.33168C53.3981 8.13063 53.2024 7.88406 53.0606 7.60644C52.9189 7.32881 52.834 7.02569 52.8109 6.71484C52.8109 6.71484 56.8829 8.32908 58.4503 7.65995C60.1531 6.93094 61.4471 8.29784 60.3275 9.33928C59.208 10.3807 58.9919 10.2167 58.9919 10.2167Z" fill="#263238"/>
<path d="M61.8789 12.5415C61.9011 13.0515 61.7353 13.5518 61.4129 13.9475C60.9911 14.45 60.335 14.049 60.184 13.4268C60.0486 12.8618 60.2256 11.9896 60.7802 11.7188C61.3348 11.448 61.8503 11.9089 61.8789 12.5415Z" fill="#FF8B7B"/>
<path d="M57.1142 13.018C57.1715 13.2003 57.1142 13.3799 57.0101 13.4242C56.9059 13.4685 56.7497 13.3539 56.6898 13.1638C56.6299 12.9738 56.6898 12.8019 56.794 12.7577C56.8981 12.7134 57.0543 12.8254 57.1142 13.018Z" fill="#263238"/>
<path d="M55.0966 13.7472C55.1539 13.9268 55.0966 14.1091 54.9925 14.1507C54.8883 14.1924 54.7321 14.083 54.6722 13.8904C54.6124 13.6977 54.6722 13.5285 54.7764 13.4868C54.8805 13.4451 55.0367 13.5649 55.0966 13.7472Z" fill="#263238"/>
<path d="M55.7851 13.6504C55.7936 14.1892 55.7306 14.7268 55.5977 15.249C55.7298 15.2771 55.8665 15.2756 55.9979 15.2445C56.1294 15.2134 56.2523 15.1536 56.3579 15.0694L55.7851 13.6504Z" fill="#A02724"/>
<path d="M57.0207 15.7649C57.2297 15.6948 57.4227 15.5836 57.5881 15.4378C57.7536 15.2921 57.8882 15.1147 57.984 14.9161C57.9892 14.9023 57.9889 14.887 57.9831 14.8734C57.9772 14.8598 57.9664 14.849 57.9528 14.8432C57.9461 14.8402 57.9389 14.8386 57.9316 14.8384C57.9243 14.8382 57.9171 14.8395 57.9103 14.8422C57.9035 14.8448 57.8973 14.8488 57.8921 14.8539C57.8869 14.859 57.8827 14.8651 57.8799 14.8719C57.7742 15.0872 57.6204 15.2753 57.4303 15.4216C57.2402 15.5679 57.019 15.6684 56.7838 15.7154C56.7765 15.7169 56.7696 15.7199 56.7635 15.7242C56.7574 15.7285 56.7522 15.734 56.7483 15.7403C56.7444 15.7466 56.7419 15.7537 56.7408 15.7611C56.7397 15.7684 56.7402 15.7759 56.7421 15.7831C56.7452 15.7973 56.7538 15.8096 56.766 15.8174C56.7782 15.8252 56.793 15.8279 56.8072 15.8248C56.8796 15.8095 56.9509 15.7895 57.0207 15.7649Z" fill="#263238"/>
<path d="M57.5614 11.9504C57.5775 11.9408 57.5909 11.9274 57.6005 11.9113C57.6087 11.8993 57.6144 11.8857 57.6173 11.8713C57.6202 11.857 57.6202 11.8423 57.6173 11.8279C57.6144 11.8136 57.6086 11.8 57.6003 11.788C57.5921 11.7759 57.5815 11.7656 57.5692 11.7577C57.4229 11.6598 57.2548 11.5991 57.0796 11.581C56.9045 11.5628 56.7275 11.5877 56.5642 11.6536C56.5509 11.6599 56.5389 11.6688 56.529 11.6797C56.5191 11.6907 56.5115 11.7035 56.5065 11.7174C56.5016 11.7313 56.4994 11.746 56.5001 11.7608C56.5009 11.7755 56.5045 11.79 56.5108 11.8033C56.5172 11.8166 56.5261 11.8286 56.537 11.8385C56.548 11.8484 56.5607 11.856 56.5746 11.861C56.5885 11.8659 56.6033 11.8681 56.618 11.8674C56.6328 11.8666 56.6472 11.863 56.6606 11.8567C56.7882 11.8071 56.926 11.7893 57.062 11.8047C57.198 11.8201 57.3283 11.8683 57.4416 11.9452C57.459 11.9573 57.4796 11.9643 57.5008 11.9652C57.522 11.9661 57.543 11.961 57.5614 11.9504Z" fill="#263238"/>
<path d="M54.6945 12.6508C54.6995 12.633 54.6995 12.6141 54.6945 12.5962C54.683 12.569 54.6613 12.5474 54.6339 12.5362C54.6066 12.525 54.576 12.525 54.5487 12.5363C54.3848 12.6 54.2391 12.7031 54.1246 12.8367C54.0101 12.9702 53.9305 13.13 53.8926 13.3018C53.8919 13.3287 53.901 13.355 53.9182 13.3759C53.9354 13.3967 53.9595 13.4106 53.9861 13.415C54.0127 13.4194 54.0401 13.4141 54.0631 13.4C54.0861 13.3859 54.1032 13.3639 54.1113 13.3382C54.1437 13.2043 54.208 13.0801 54.2987 12.9763C54.3893 12.8725 54.5037 12.7921 54.632 12.742C54.6494 12.7335 54.6644 12.7206 54.6753 12.7047C54.6863 12.6887 54.6929 12.6701 54.6945 12.6508Z" fill="#263238"/>
<path d="M67.5661 19.4487C67.8525 19.8027 68.1025 20.123 68.3472 20.4641C68.5919 20.8051 68.8471 21.1436 69.0866 21.4899C69.5735 22.1798 70.0265 22.8958 70.4691 23.6248C70.9118 24.3539 71.3231 25.1141 71.6928 25.9186C72.0941 26.7533 72.4124 27.6253 72.6432 28.5222C72.7727 29.0436 72.8408 29.5784 72.8462 30.1156C72.8398 30.6528 72.7627 31.1868 72.6171 31.7038C72.3579 32.6041 71.9796 33.4657 71.4924 34.2658C71.2684 34.6485 71.0263 35.0156 70.7738 35.3697C70.5212 35.7238 70.253 36.0675 69.9927 36.3981C69.4492 37.0631 68.8584 37.6878 68.2248 38.2675C68.0663 38.4088 67.8626 38.489 67.6503 38.4936C67.438 38.4983 67.231 38.4272 67.0664 38.293C66.9018 38.1588 66.7904 37.9704 66.7522 37.7615C66.714 37.5526 66.7515 37.3369 66.8579 37.1532L66.8814 37.1141C67.6899 35.8024 68.3966 34.4306 68.9955 33.0109C69.2642 32.371 69.4598 31.7028 69.5787 31.0191C69.6223 30.7445 69.6336 30.4658 69.6126 30.1885C69.5812 29.9142 69.5219 29.6437 69.4355 29.3814C69.2103 28.7157 68.9272 28.071 68.5893 27.4548C68.2431 26.8012 67.8525 26.1529 67.4359 25.4942C67.0194 24.8355 66.582 24.1924 66.1341 23.5598L65.4494 22.6068C65.2203 22.297 64.9807 21.9663 64.7646 21.6826L64.749 21.6617C64.4555 21.2895 64.3219 20.816 64.3776 20.3453C64.4333 19.8746 64.6736 19.4453 65.0458 19.1518C65.418 18.8584 65.8915 18.7248 66.3622 18.7804C66.8329 18.8361 67.2622 19.0765 67.5557 19.4487H67.5661Z" fill="#FF6D38"/>
<path d="M42.7615 38.6558L64.913 37.6535C64.9829 37.6489 65.053 37.6584 65.1191 37.6816C65.1852 37.7047 65.2459 37.7409 65.2977 37.7881C65.3495 37.8352 65.3912 37.8924 65.4204 37.956C65.4496 38.0197 65.4656 38.0886 65.4676 38.1586L42.2564 39.2C42.2533 39.131 42.2639 39.062 42.2877 38.9971C42.3115 38.9322 42.3479 38.8727 42.3949 38.8221C42.4419 38.7714 42.4986 38.7307 42.5615 38.7021C42.6244 38.6736 42.6924 38.6579 42.7615 38.6558Z" fill="#FF6D38"/>
<g opacity="0.6">
<path d="M42.7595 38.6554L64.911 37.653C64.9809 37.6484 65.051 37.658 65.1171 37.6811C65.1832 37.7042 65.244 37.7404 65.2957 37.7876C65.3475 37.8348 65.3892 37.8919 65.4184 37.9555C65.4476 38.0192 65.4637 38.0881 65.4656 38.1581L42.2544 39.1995C42.2513 39.1305 42.2619 39.0615 42.2857 38.9966C42.3095 38.9318 42.346 38.8723 42.393 38.8216C42.44 38.771 42.4966 38.7302 42.5596 38.7016C42.6225 38.6731 42.6905 38.6574 42.7595 38.6554Z" fill="white"/>
</g>
<path d="M39.2356 28.3794L54.9953 27.666C55.0964 27.6674 55.1946 27.6999 55.2766 27.759C55.3586 27.8182 55.4203 27.9012 55.4535 27.9967L58.4789 37.5962C58.4952 37.6358 58.5014 37.6789 58.4971 37.7215C58.4927 37.7642 58.4779 37.8051 58.454 37.8406C58.43 37.8762 58.3977 37.9053 58.3598 37.9253C58.3219 37.9453 58.2796 37.9557 58.2368 37.9555L42.4771 38.6689C42.3766 38.6679 42.2788 38.6359 42.1973 38.5771C42.1157 38.5184 42.0543 38.4358 42.0215 38.3408L38.9961 28.7387C38.9799 28.6993 38.9736 28.6564 38.9778 28.614C38.9821 28.5716 38.9966 28.5308 39.0203 28.4953C39.0439 28.4599 39.076 28.4307 39.1135 28.4105C39.151 28.3903 39.193 28.3796 39.2356 28.3794Z" fill="#FF6D38"/>
<path opacity="0.6" d="M39.2356 28.3794L54.9953 27.666C55.0964 27.6674 55.1946 27.6999 55.2766 27.759C55.3586 27.8182 55.4203 27.9012 55.4535 27.9967L58.4789 37.5962C58.4952 37.6358 58.5014 37.6789 58.4971 37.7215C58.4927 37.7642 58.4779 37.8051 58.454 37.8406C58.43 37.8762 58.3977 37.9053 58.3598 37.9253C58.3219 37.9453 58.2796 37.9557 58.2368 37.9555L42.4771 38.6689C42.3766 38.6679 42.2788 38.6359 42.1973 38.5771C42.1157 38.5184 42.0543 38.4358 42.0215 38.3408L38.9961 28.7387C38.9799 28.6993 38.9736 28.6564 38.9778 28.614C38.9821 28.5716 38.9966 28.5308 39.0203 28.4953C39.0439 28.4599 39.076 28.4307 39.1135 28.4105C39.151 28.3903 39.193 28.3796 39.2356 28.3794Z" fill="white"/>
<path opacity="0.5" d="M55.4582 27.9937L58.4836 37.5932C58.5005 37.633 58.5072 37.6764 58.5031 37.7194C58.499 37.7624 58.4843 37.8037 58.4603 37.8396C58.4363 37.8755 58.4037 37.9048 58.3655 37.925C58.3273 37.9452 58.2847 37.9555 58.2415 37.9551L55 27.6631C55.1011 27.6644 55.1993 27.6969 55.2813 27.7561C55.3633 27.8152 55.4251 27.8982 55.4582 27.9937Z" fill="#FF6D38"/>
<path opacity="0.5" d="M59.0863 37.9163L64.9106 37.6559C64.9804 37.6513 65.0505 37.6609 65.1166 37.684C65.1827 37.7071 65.2435 37.7434 65.2952 37.7905C65.347 37.8377 65.3888 37.8948 65.4179 37.9585C65.4471 38.0221 65.4632 38.091 65.4651 38.161L58.5812 38.4708C58.5766 38.4009 58.5862 38.3309 58.6093 38.2648C58.6324 38.1987 58.6687 38.1379 58.7158 38.0861C58.763 38.0344 58.8201 37.9926 58.8837 37.9634C58.9474 37.9343 59.0163 37.9182 59.0863 37.9163Z" fill="#FF6D38"/>
<path d="M66.4463 37.0441L64.957 37.2602L66.4827 39.3822C66.4827 39.3822 68.9067 38.9943 68.6255 37.919L68.1048 37.4868C67.8747 37.3011 67.6082 37.1658 67.3225 37.0896C67.0368 37.0133 66.7383 36.9978 66.4463 37.0441Z" fill="#FF8B7B"/>
<path d="M63.1348 37.8955L65.0016 39.5228L66.483 39.3822L64.9573 37.2603L63.1348 37.8955Z" fill="#FF8B7B"/>
</svg>
