<svg width="130" height="119" viewBox="0 0 130 119" fill="none" xmlns="http://www.w3.org/2000/svg">
<path d="M103.143 35.6536H125.697C125.697 35.6536 123.709 32.0252 117.895 32.5533C112.353 33.0587 112.069 30.7675 109.25 30.4864C106.43 30.2054 104.082 32.3659 103.143 35.6536Z" fill="#F5F5F5"/>
<path d="M6.25391 23.3719H28.8022C28.8022 23.3719 26.8148 19.7378 21.0088 20.2716C15.4583 20.7769 15.1744 18.4858 12.3609 18.2047C9.54728 17.9236 7.19365 20.0842 6.25391 23.3719Z" fill="#F5F5F5"/>
<path d="M46.9551 6.55556H75.4201C75.4201 6.55556 72.9018 1.97322 65.5769 2.64042C58.5784 3.27922 58.2235 0.388994 54.6633 0.0312649C51.103 -0.326464 48.1418 2.41896 46.9551 6.55556Z" fill="#E0E0E0"/>
<path d="M114.336 112.673C110.458 110.203 109.396 105.357 109.357 100.962C109.357 100.229 109.234 99.4598 109.558 98.8011C109.882 98.1425 110.671 97.6655 111.341 97.9494C111.909 98.1822 112.162 98.8011 112.477 99.315C112.912 99.9977 113.532 100.542 114.265 100.885C114.742 101.106 115.324 101.229 115.776 100.956C116.392 100.578 116.429 99.704 116.392 98.9686C116.326 97.6115 116.259 96.2544 116.193 94.8973C116.117 94.1703 116.16 93.4357 116.321 92.7226C116.403 92.3685 116.569 92.0394 116.804 91.7627C117.04 91.4861 117.339 91.27 117.675 91.1327C118.359 90.9112 119.234 91.2718 119.413 91.9844C119.453 92.2856 119.473 92.5891 119.472 92.8929C119.474 93.0439 119.52 93.191 119.605 93.3158C119.689 93.4407 119.809 93.5375 119.949 93.5942C120.233 93.668 120.517 93.4465 120.736 93.2251C121.457 92.4585 121.925 91.4876 122.363 90.5251C122.8 89.5626 123.214 88.5775 123.87 87.7456C124.526 86.9137 125.434 86.238 126.476 86.133C127.518 86.0279 128.657 86.627 128.964 87.6406C129.27 88.6541 128.717 89.7245 128.112 90.5819C127.197 91.8569 126.103 92.993 124.864 93.9548C124.62 94.1022 124.431 94.3242 124.324 94.5879C124.185 95.0819 124.668 95.5447 125.153 95.6838C125.704 95.8399 126.289 95.7604 126.857 95.803C127.425 95.8456 128.055 96.0699 128.291 96.598C128.623 97.3276 128.032 98.1368 127.439 98.6734C126.254 99.7491 124.893 100.613 123.416 101.229C122.871 101.405 122.363 101.679 121.917 102.038C121.499 102.432 121.267 103.1 121.551 103.602C121.834 104.105 122.51 104.241 123.07 104.11C123.629 103.98 124.114 103.656 124.642 103.432C125.628 103.012 126.914 103.026 127.601 103.863C127.809 104.152 127.947 104.486 128.005 104.838C128.063 105.19 128.038 105.55 127.933 105.89C127.718 106.569 127.368 107.198 126.905 107.739C125.402 109.714 123.4 111.253 121.105 112.199C118.816 113.105 116.673 113.414 114.328 112.67" fill="#FF6D38"/>
<path d="M114.42 115.93C114.537 113.886 114.849 111.858 115.354 109.874C115.979 107.452 116.743 105.068 117.642 102.734L118.341 100.891C118.571 100.289 118.798 99.6901 119.056 99.1166C119.557 98.0203 120.117 96.9521 120.734 95.9169C121.319 94.9261 121.907 94.0062 122.466 93.1488C123.025 92.2913 123.562 91.5049 124.081 90.8093C124.895 89.7054 125.795 88.6677 126.773 87.7062C127.119 87.3655 127.398 87.11 127.585 86.9396C127.679 86.8601 127.75 86.7948 127.804 86.7465C127.828 86.7244 127.854 86.7036 127.88 86.6841C127.88 86.6841 127.86 86.7125 127.812 86.7579L127.605 86.9595C127.42 87.1355 127.151 87.3967 126.81 87.7431C125.849 88.7167 124.961 89.7606 124.155 90.8661C123.644 91.5645 123.113 92.3538 122.557 93.2112C122 94.0686 121.421 94.9913 120.853 95.9822C120.241 97.015 119.684 98.0803 119.187 99.1734C118.931 99.7412 118.707 100.335 118.474 100.939C118.241 101.544 118.014 102.16 117.779 102.782C116.883 105.111 116.117 107.488 115.485 109.902C114.976 111.879 114.654 113.899 114.525 115.936" fill="#263238"/>
<path d="M119.088 99.1106C119.048 99.0119 119.02 98.909 119.003 98.8039C118.954 98.6023 118.898 98.3128 118.83 97.9522C118.696 97.2311 118.546 96.2288 118.384 95.1131C118.222 93.9973 118.054 93.0093 117.91 92.2938C117.839 91.9361 117.779 91.6437 117.734 91.4421C117.705 91.3392 117.687 91.2336 117.68 91.127C117.725 91.2242 117.761 91.326 117.785 91.4307C117.844 91.6266 117.921 91.9134 118.003 92.2825C118.171 92.9951 118.353 93.9859 118.514 95.1017C118.676 96.2175 118.815 97.18 118.923 97.9408C118.974 98.2815 119.02 98.5683 119.054 98.7926C119.077 98.897 119.088 99.0036 119.088 99.1106Z" fill="#263238"/>
<path d="M128.388 96.9613C128.266 96.993 128.142 97.013 128.016 97.0209C127.778 97.0521 127.431 97.0975 127.003 97.1657C126.151 97.2934 124.976 97.5149 123.692 97.813C122.409 98.1111 121.259 98.4376 120.433 98.696C120.018 98.8209 119.686 98.9316 119.456 99.0083C119.34 99.0546 119.219 99.0898 119.096 99.1133C119.206 99.0516 119.321 98.9994 119.439 98.9572C119.664 98.8663 119.993 98.7414 120.405 98.6051C121.225 98.3212 122.375 97.9833 123.661 97.6824C124.76 97.4224 125.872 97.2177 126.991 97.0691C127.42 97.0152 127.769 96.984 128.011 96.9698C128.136 96.9557 128.262 96.9528 128.388 96.9613Z" fill="#263238"/>
<path d="M115.459 109.695C115.433 109.66 115.41 109.623 115.391 109.584L115.218 109.252C115.067 108.968 114.86 108.54 114.61 108.011C114.114 106.958 113.475 105.482 112.785 103.841C112.095 102.2 111.47 100.718 110.996 99.656C110.763 99.1392 110.57 98.7162 110.428 98.3982C110.37 98.262 110.319 98.1484 110.275 98.0575C110.255 98.0183 110.24 97.9762 110.232 97.9326C110.259 97.9672 110.281 98.0043 110.301 98.0433C110.349 98.1342 110.406 98.2449 110.477 98.3755C110.624 98.6594 110.831 99.0881 111.081 99.6162C111.578 100.67 112.217 102.149 112.907 103.787C113.597 105.425 114.221 106.91 114.696 107.972C114.931 108.488 115.121 108.914 115.263 109.229C115.326 109.366 115.374 109.479 115.417 109.573C115.436 109.612 115.451 109.653 115.459 109.695Z" fill="#263238"/>
<path d="M127.738 105.149C127.7 105.174 127.659 105.193 127.616 105.206L127.258 105.342L125.944 105.831C124.837 106.245 123.309 106.833 121.623 107.486C119.936 108.139 118.403 108.713 117.285 109.104C116.717 109.3 116.271 109.454 115.956 109.553L115.59 109.666C115.548 109.683 115.504 109.692 115.459 109.695C115.498 109.673 115.539 109.654 115.581 109.638L115.939 109.502L117.253 109.013C118.363 108.602 119.888 108.011 121.574 107.358C123.261 106.705 124.794 106.132 125.913 105.743C126.48 105.547 126.926 105.394 127.244 105.294L127.605 105.195C127.647 105.174 127.692 105.158 127.738 105.149Z" fill="#263238"/>
<path d="M0.411667 107.123C0.744957 107.047 1.09006 107.039 1.42655 107.099C1.76304 107.159 2.08408 107.286 2.37066 107.472C2.94148 107.85 3.41828 108.354 3.76467 108.945C4.46309 110.064 4.70442 111.563 4.72713 112.883C3.26214 112.815 2.01861 111.657 1.42523 111.029C0.485484 110.038 -0.613256 107.676 0.411667 107.123Z" fill="#FF6D38"/>
<path d="M7.06433 113.781C6.7715 113.533 6.54945 113.213 6.42078 112.852C6.29211 112.49 6.26142 112.102 6.33184 111.725C6.40692 111.351 6.55611 110.995 6.77064 110.679C6.98517 110.363 7.26071 110.093 7.58105 109.885C7.71763 109.773 7.87717 109.692 8.04839 109.649C8.2196 109.605 8.39832 109.6 8.5719 109.633C8.72693 109.689 8.86382 109.787 8.96822 109.915C9.07263 110.043 9.14069 110.196 9.16528 110.359C9.21192 110.687 9.17178 111.021 9.04887 111.328C8.67127 112.392 8.1148 113.355 7.06149 113.775" fill="#FF6D38"/>
<path d="M8.39402 117.954C8.39402 117.954 8.33156 117.874 8.24639 117.718C8.16121 117.562 8.04481 117.335 7.90569 117.048C7.52996 116.303 7.25682 115.51 7.09371 114.692C6.93419 113.863 7.00288 113.006 7.29245 112.213C7.3826 111.975 7.50282 111.75 7.65017 111.543C7.69884 111.464 7.76022 111.393 7.83188 111.333C7.65995 111.625 7.51184 111.931 7.38898 112.247C7.13814 113.028 7.08738 113.86 7.24134 114.666C7.40381 115.472 7.65914 116.256 8.00223 117.003C8.15089 117.312 8.2817 117.63 8.39402 117.954Z" fill="#263238"/>
<path d="M1.39062 108.849C1.50588 108.946 1.61229 109.054 1.70861 109.17C1.90451 109.389 2.18558 109.707 2.52627 110.107C3.2105 110.905 4.13605 112.023 5.12975 113.284C6.12344 114.544 6.99221 115.708 7.6083 116.56C7.91776 116.986 8.16193 117.335 8.32943 117.577C8.42106 117.699 8.50271 117.828 8.5736 117.963C8.46963 117.853 8.37468 117.735 8.28969 117.611L7.53448 116.623C6.89568 115.788 6.01555 114.635 5.02186 113.375C4.02817 112.114 3.11681 110.99 2.46665 110.175L1.68305 109.207C1.5749 109.097 1.47702 108.977 1.39062 108.849Z" fill="#263238"/>
<path d="M6.09106 115.416C5.45837 114.919 4.71636 114.579 3.92643 114.426C3.1365 114.272 2.32136 114.309 1.54847 114.533C1.15667 114.649 0.722284 114.891 0.682536 115.297C0.642788 115.703 1.02607 116.023 1.39232 116.205C2.16538 116.572 3.02959 116.702 3.87626 116.578C4.72293 116.455 5.51425 116.084 6.15068 115.512" fill="#FF6D38"/>
<path d="M2.49805 115.268C2.57936 115.232 2.66536 115.207 2.75357 115.195C2.85388 115.167 2.9565 115.148 3.06019 115.138C3.19637 115.115 3.33387 115.101 3.47186 115.095C3.83115 115.074 4.19168 115.089 4.54789 115.141C4.98346 115.21 5.41067 115.324 5.82266 115.481C6.2305 115.648 6.61969 115.858 6.98386 116.106C7.27653 116.312 7.54762 116.547 7.793 116.807C7.89396 116.905 7.98878 117.01 8.07692 117.12C8.14401 117.199 8.20566 117.282 8.26146 117.369C8.3177 117.439 8.36273 117.516 8.3949 117.599C8.37219 117.616 8.16209 117.301 7.73338 116.881C7.47951 116.637 7.20498 116.416 6.91288 116.22C6.19521 115.739 5.38302 115.418 4.53086 115.277C4.18362 115.221 3.83211 115.195 3.48038 115.2C2.87281 115.212 2.50373 115.297 2.49805 115.268Z" fill="#263238"/>
<path d="M17.0215 55.6415L94.203 15.8682L89.2515 8.87832L114.463 6.60986L103.092 27.0231L97.8058 20.408L19.5994 63.3639L17.0215 55.6415Z" fill="#FF6D38"/>
<path d="M30.4094 83.9043H12.6309V118.15H30.4094V83.9043Z" fill="#263238"/>
<path d="M25.5637 83.9043H7.78516V118.15H25.5637V83.9043Z" fill="#455A64"/>
<path d="M58.1516 72.4824H40.373V118.15H58.1516V72.4824Z" fill="#263238"/>
<path d="M52.7786 72.4824H35V118.15H52.7786V72.4824Z" fill="#455A64"/>
<path d="M86.6868 58.0142H68.9082V118.15H86.6868V58.0142Z" fill="#263238"/>
<path d="M81.3469 58.0142H63.5684V118.15H81.3469V58.0142Z" fill="#455A64"/>
<path d="M115.343 45.3433H97.5645V118.15H115.343V45.3433Z" fill="#263238"/>
<path d="M108.261 45.3433H90.4824V118.15H108.261V45.3433Z" fill="#455A64"/>
<path d="M17.4956 78.4795L19.1508 77.1167L16.6183 73.9937L14.1738 75.9526L14.3186 76.1571C14.9688 77.0571 17.6915 80.6855 18.3331 81.1198C19.0486 81.6139 17.4956 78.4795 17.4956 78.4795Z" fill="#FF6D38"/>
<g opacity="0.5">
<path d="M15.117 77.088C15.3444 76.8239 15.4666 76.4854 15.4605 76.1369C15.4573 75.7979 15.3266 75.4725 15.0943 75.2256L14.2227 75.9325L15.117 77.088Z" fill="white"/>
</g>
<g opacity="0.4">
<path d="M18.2077 80.0492C18.2077 80.0492 18.6932 81.1848 18.4462 81.2019C18.1992 81.2189 15.3231 77.6473 14.1875 75.9637L14.2613 75.9126L17.5802 80.0975C17.5802 80.0975 18.0515 79.8732 18.2077 80.0492Z" fill="white"/>
</g>
<path d="M14.2109 75.8618C14.2109 75.8618 14.2109 75.8845 14.2478 75.9214L14.3643 76.0833L14.7986 76.671C15.1706 77.1621 15.693 77.8378 16.2835 78.5703C16.874 79.3028 17.4191 79.953 17.8337 80.4186L18.3163 80.9666L18.4497 81.1142L18.5008 81.1625L18.4583 81.1057L18.3305 80.9552L17.8592 80.3874C17.4617 79.9161 16.9138 79.2517 16.3232 78.5306C15.7327 77.8095 15.2046 77.1281 14.827 76.6397L14.3784 76.0719L14.2564 75.9158C14.2423 75.8969 14.2271 75.8789 14.2109 75.8618Z" fill="#263238"/>
<path d="M17.5332 80.1372C17.6475 80.0853 17.7676 80.0472 17.8909 80.0236C18.0152 80.0153 18.1399 80.0211 18.2629 80.0407C18.1493 79.9732 18.0149 79.9499 17.8853 79.9754C17.7521 79.9847 17.6269 80.0422 17.5332 80.1372Z" fill="#263238"/>
<path d="M17.254 78.8372C17.254 78.8372 17.3448 78.8372 17.4527 78.8372C17.5606 78.8372 17.6486 78.8032 17.6458 78.789C17.6429 78.7748 17.5549 78.7748 17.447 78.789C17.3391 78.8032 17.2511 78.823 17.254 78.8372Z" fill="#263238"/>
<path d="M17.1836 78.4765C17.1836 78.4907 17.2546 78.5134 17.3454 78.5276C17.4013 78.5417 17.4599 78.5417 17.5158 78.5276C17.5158 78.5134 17.4448 78.4907 17.3539 78.4765C17.2631 78.4623 17.1836 78.4623 17.1836 78.4765Z" fill="#263238"/>
<path d="M17.3477 78.0789C17.3477 78.0789 17.3874 78.1669 17.4584 78.2577C17.5294 78.3486 17.5975 78.4139 17.6089 78.4054C17.5839 78.3391 17.5463 78.2784 17.4981 78.2265C17.4243 78.1357 17.359 78.0704 17.3477 78.0789Z" fill="#263238"/>
<path d="M17.5098 77.8547C17.5187 77.9375 17.5523 78.0157 17.6063 78.079C17.683 78.1926 17.7738 78.2551 17.7823 78.2465C17.7431 78.1772 17.6974 78.1116 17.646 78.0506C17.5722 77.9399 17.524 77.8491 17.5098 77.8547Z" fill="#263238"/>
<path d="M17.6122 78.7234C17.6542 78.7994 17.7101 78.8668 17.7769 78.9221C17.8441 78.9875 17.9173 79.0464 17.9955 79.0982C18.0421 79.1308 18.0927 79.1575 18.1459 79.1777C18.1621 79.1847 18.1795 79.1883 18.1971 79.1883C18.2146 79.1883 18.232 79.1847 18.2482 79.1777C18.2662 79.168 18.2807 79.1529 18.2899 79.1346C18.299 79.1164 18.3023 79.0957 18.2993 79.0755C18.275 78.9689 18.2144 78.8741 18.1279 78.8073C18.0414 78.7405 17.9344 78.7058 17.8251 78.7092C17.7604 78.7103 17.6966 78.7248 17.6377 78.7518C17.6154 78.7608 17.5951 78.7744 17.5781 78.7915C17.6569 78.7609 17.7406 78.7446 17.8251 78.7433C17.9145 78.7466 18.0011 78.7752 18.075 78.8256C18.1646 78.8835 18.2278 78.9742 18.251 79.0783C18.251 79.1266 18.2056 79.1464 18.1573 79.1266C18.1081 79.1077 18.0614 79.0829 18.0182 79.0528C17.9402 79.0048 17.8662 78.9506 17.7967 78.8909C17.6803 78.7916 17.6179 78.7177 17.6122 78.7234Z" fill="#263238"/>
<path d="M17.6429 78.7917C17.7045 78.7799 17.7604 78.7479 17.8019 78.7009C17.8493 78.6522 17.8844 78.5928 17.9041 78.5277C17.92 78.4866 17.9252 78.4421 17.9192 78.3984C17.9133 78.3547 17.8964 78.3133 17.8701 78.2779C17.8608 78.2684 17.8498 78.2609 17.8376 78.2558C17.8254 78.2507 17.8123 78.248 17.7991 78.248C17.7859 78.248 17.7728 78.2507 17.7606 78.2558C17.7484 78.2609 17.7374 78.2684 17.7281 78.2779C17.7006 78.3084 17.6793 78.3441 17.6656 78.3829C17.643 78.4453 17.6278 78.5101 17.6202 78.576C17.6058 78.6357 17.6058 78.698 17.6202 78.7577C17.6202 78.7577 17.6202 78.6895 17.6401 78.5817C17.6517 78.5194 17.6698 78.4585 17.694 78.3999C17.7139 78.3375 17.7735 78.258 17.8246 78.3006C17.8432 78.3304 17.8549 78.3639 17.8588 78.3988C17.8627 78.4337 17.8588 78.469 17.8473 78.5022C17.8301 78.5613 17.8012 78.6163 17.7622 78.664C17.7271 78.7107 17.6871 78.7536 17.6429 78.7917Z" fill="#263238"/>
<path d="M15.1172 75.2342C15.1172 75.2342 15.1967 75.3165 15.2961 75.4698C15.4222 75.6716 15.4891 75.9048 15.4891 76.1427C15.4891 76.3807 15.4222 76.6138 15.2961 76.8156C15.1995 76.9717 15.1143 77.0512 15.12 77.0569C15.1257 77.0626 15.1456 77.0427 15.1825 77.0058C15.2354 76.9539 15.2829 76.8968 15.3244 76.8355C15.4607 76.63 15.5337 76.3892 15.5345 76.1427C15.531 75.8958 15.4539 75.6556 15.3131 75.4528C15.2707 75.3912 15.2222 75.3342 15.1683 75.2825C15.1427 75.2484 15.12 75.2314 15.1172 75.2342Z" fill="#263238"/>
<path d="M16.6778 74.5044C16.4516 74.6551 16.2345 74.8191 16.0277 74.9956C15.8073 75.1612 15.596 75.3384 15.3945 75.5265C15.6264 75.3774 15.8484 75.2133 16.0589 75.0353C16.2752 74.8703 16.4818 74.693 16.6778 74.5044Z" fill="#263238"/>
<path d="M15.7441 77.2214C15.8292 77.3991 15.9381 77.5643 16.0678 77.7126C16.1835 77.8729 16.3201 78.017 16.4738 78.1413C16.4738 78.1413 16.3063 77.9369 16.1047 77.6842C15.9031 77.4315 15.7441 77.2129 15.7441 77.2214Z" fill="#263238"/>
<path d="M15.244 76.6084C15.244 76.6084 15.2156 76.6623 15.1843 76.7191C15.1531 76.7759 15.1219 76.8242 15.1332 76.8327C15.1446 76.8412 15.1957 76.81 15.2298 76.7418C15.2638 76.6737 15.2582 76.6112 15.244 76.6084Z" fill="#263238"/>
<path d="M15.3432 76.1455C15.3432 76.1455 15.3148 76.1909 15.3092 76.2506C15.3035 76.3102 15.3092 76.3584 15.3092 76.3584C15.3092 76.3584 15.3376 76.313 15.3461 76.2562C15.3546 76.1995 15.3574 76.1483 15.3432 76.1455Z" fill="#263238"/>
<path d="M15.207 75.7111C15.207 75.7111 15.2326 75.7622 15.2553 75.8219C15.278 75.8815 15.278 75.9326 15.2922 75.9354C15.3064 75.9383 15.3263 75.8758 15.2922 75.8048C15.2581 75.7338 15.2155 75.6998 15.207 75.7111Z" fill="#263238"/>
<path d="M15.0801 75.4246C15.0801 75.4246 15.0801 75.4615 15.0801 75.4955C15.0801 75.5296 15.1113 75.5523 15.1227 75.5495C15.134 75.5466 15.1227 75.5126 15.1227 75.4785C15.1227 75.4444 15.0943 75.4217 15.0801 75.4246Z" fill="#263238"/>
<path d="M49.0603 71.3788L49.1284 69.2352L45.1139 69.0791L44.9805 72.2021L45.2275 72.2277C46.3347 72.3299 50.8575 72.6791 51.607 72.4832C52.4417 72.2788 49.0603 71.3788 49.0603 71.3788Z" fill="#FF6D38"/>
<g opacity="0.5">
<path d="M46.4371 72.239C46.3908 71.8982 46.2198 71.5867 45.9573 71.3645C45.7006 71.1433 45.3705 71.0258 45.0318 71.0352L44.9863 72.1566L46.4371 72.239Z" fill="white"/>
</g>
<g opacity="0.4">
<path d="M50.7098 71.8784C50.7098 71.8784 51.8909 72.2702 51.7347 72.4604C51.5786 72.6507 46.9934 72.4604 44.9805 72.2163V72.1254L50.3265 72.3809C50.3265 72.3809 50.477 71.8784 50.7098 71.8784Z" fill="white"/>
</g>
<path d="M44.9277 72.1196H44.9959L45.1946 72.1395L45.9243 72.1991C46.5375 72.2445 47.3893 72.2985 48.3318 72.3354C49.2744 72.3723 50.1233 72.3893 50.7423 72.3922H51.6706C51.6942 72.3945 51.718 72.3945 51.7416 72.3922H51.6706H51.4719L50.7423 72.378C50.1262 72.378 49.2744 72.3439 48.3318 72.307C47.3893 72.2701 46.5404 72.2218 45.9243 72.1849L45.1946 72.1395H44.9987L44.9277 72.1196Z" fill="#263238"/>
<path d="M50.3324 72.4433C50.368 72.3234 50.4176 72.2081 50.48 72.0998C50.558 72.0015 50.6455 71.9111 50.7412 71.8301C50.6141 71.8714 50.5069 71.9584 50.4403 72.0742C50.3585 72.1789 50.3198 72.311 50.3324 72.4433Z" fill="#263238"/>
<path d="M49.1719 71.796C49.1719 71.796 49.24 71.7363 49.3025 71.6455C49.3649 71.5546 49.4075 71.478 49.3961 71.4695C49.3848 71.461 49.3252 71.5291 49.2627 71.6199C49.2002 71.7108 49.1605 71.7874 49.1719 71.796Z" fill="#263238"/>
<path d="M48.8544 71.6113C48.8544 71.6113 48.9283 71.58 48.9992 71.5232C49.0702 71.4665 49.1213 71.4068 49.1128 71.3955C49.1043 71.3841 49.039 71.4239 48.968 71.4835C48.897 71.5431 48.8459 71.5999 48.8544 71.6113Z" fill="#263238"/>
<path d="M48.6602 71.2254C48.7271 71.2509 48.7986 71.2625 48.8702 71.2594C48.9404 71.2713 49.0124 71.2665 49.0803 71.2452C49.0147 71.2183 48.9439 71.2067 48.8731 71.2112C48.802 71.1997 48.7291 71.2045 48.6602 71.2254Z" fill="#263238"/>
<path d="M48.6016 70.9526C48.6692 71.0024 48.7504 71.0302 48.8344 71.0321C48.9153 71.0476 48.999 71.0397 49.0757 71.0094C48.9983 70.9927 48.9193 70.9841 48.8401 70.9839C48.7613 70.9681 48.6817 70.9577 48.6016 70.9526Z" fill="#263238"/>
<path d="M49.3203 71.4496C49.4057 71.4654 49.4933 71.4654 49.5787 71.4496C49.6747 71.4433 49.7699 71.4271 49.8626 71.4013C49.9176 71.3873 49.9709 71.3673 50.0216 71.3417C50.0375 71.3342 50.0518 71.3235 50.0635 71.3103C50.0752 71.2972 50.0841 71.2817 50.0897 71.265C50.094 71.2458 50.0928 71.2258 50.0863 71.2072C50.0798 71.1886 50.0682 71.1723 50.0528 71.16C49.9567 71.1077 49.8453 71.0907 49.7379 71.112C49.6306 71.1332 49.534 71.1914 49.4651 71.2764C49.423 71.3254 49.3912 71.3824 49.3714 71.4439C49.3658 71.4672 49.3658 71.4916 49.3714 71.5149C49.4009 71.436 49.4442 71.3629 49.4992 71.2991C49.5593 71.2331 49.6372 71.1858 49.7235 71.1628C49.7743 71.1478 49.8276 71.143 49.8802 71.1489C49.9329 71.1547 49.9838 71.1711 50.0301 71.1969C50.0698 71.2281 50.0528 71.2764 50.0074 71.3019C49.9599 71.325 49.9105 71.344 49.8597 71.3587C49.7669 71.3857 49.6719 71.4047 49.5758 71.4155C49.4197 71.4467 49.3232 71.4439 49.3203 71.4496Z" fill="#263238"/>
<path d="M49.3884 71.4667C49.42 71.4128 49.433 71.3499 49.4253 71.2878C49.4189 71.2206 49.3975 71.1556 49.3628 71.0976C49.3428 71.0582 49.3129 71.0247 49.2761 71.0004C49.2393 70.976 49.1968 70.9616 49.1527 70.9585C49.1396 70.9602 49.127 70.9646 49.1156 70.9712C49.1042 70.9779 49.0942 70.9868 49.0863 70.9974C49.0783 71.008 49.0726 71.02 49.0694 71.0328C49.0662 71.0457 49.0656 71.059 49.0676 71.0721C49.0726 71.1141 49.0861 71.1547 49.1073 71.1913C49.1389 71.2492 49.178 71.3027 49.2237 71.3503C49.3004 71.4326 49.3628 71.4667 49.3657 71.461C49.3685 71.4553 49.3174 71.4128 49.2493 71.3276C49.2091 71.2788 49.1748 71.2254 49.147 71.1686C49.113 71.1146 49.0931 71.0153 49.147 71.0068C49.201 70.9982 49.2748 71.0692 49.3117 71.1203C49.3468 71.1724 49.37 71.2315 49.3799 71.2935C49.3873 71.3509 49.3901 71.4088 49.3884 71.4667Z" fill="#263238"/>
<path d="M45.0527 71.0265C45.0527 71.0265 45.1691 71.0265 45.3366 71.0463C45.5712 71.082 45.7918 71.1801 45.9754 71.3303C46.1544 71.487 46.2861 71.6905 46.3559 71.918C46.4098 72.094 46.4127 72.2019 46.4212 72.2019C46.4261 72.1756 46.4261 72.1487 46.4212 72.1224C46.4183 72.0484 46.4069 71.9751 46.3871 71.9038C46.3233 71.6649 46.1899 71.4505 46.0038 71.2877C45.8147 71.1305 45.5838 71.0319 45.3395 71.0038C45.2658 70.9968 45.1917 70.9968 45.118 71.0038C45.0811 71.0151 45.0527 71.0208 45.0527 71.0265Z" fill="#263238"/>
<path d="M45.5339 69.3716C45.4936 69.6443 45.4709 69.9193 45.4658 70.1949C45.4435 70.4697 45.4378 70.7456 45.4487 71.0211C45.4853 70.748 45.507 70.4732 45.514 70.1978C45.538 69.9231 45.5447 69.6471 45.5339 69.3716Z" fill="#263238"/>
<path d="M46.957 71.8672C47.1472 71.9219 47.344 71.9496 47.5419 71.9495C47.738 71.9668 47.9354 71.9592 48.1296 71.9268C48.1296 71.9126 47.8684 71.9268 47.5447 71.9012C47.2211 71.8757 46.9741 71.853 46.957 71.8672Z" fill="#263238"/>
<path d="M46.1699 71.8357C46.1699 71.8357 46.1898 71.8925 46.2153 71.9549C46.2409 72.0174 46.2523 72.0685 46.2636 72.0685C46.275 72.0685 46.2892 72.006 46.2636 71.9351C46.2381 71.8641 46.1784 71.8272 46.1699 71.8357Z" fill="#263238"/>
<path d="M45.8906 71.4552C45.8906 71.4552 45.8906 71.5063 45.9446 71.5518C45.9985 71.5972 46.0241 71.6227 46.0354 71.6142C46.0468 71.6057 46.0212 71.5631 45.9815 71.5177C45.9417 71.4723 45.8991 71.4467 45.8906 71.4552Z" fill="#263238"/>
<path d="M45.473 71.2706C45.473 71.2848 45.5269 71.2848 45.5866 71.3075C45.6462 71.3303 45.6859 71.3643 45.6973 71.3558C45.7086 71.3473 45.6746 71.2905 45.6036 71.2621C45.5326 71.2337 45.4673 71.2564 45.473 71.2706Z" fill="#263238"/>
<path d="M45.1719 71.1801C45.1719 71.1801 45.1889 71.2114 45.223 71.2256C45.2571 71.2398 45.2854 71.2426 45.2911 71.2256C45.2968 71.2085 45.2741 71.1915 45.2429 71.1773C45.2116 71.1631 45.1776 71.1659 45.1719 71.1801Z" fill="#263238"/>
<path d="M50.8917 17.566C50.5339 17.4638 49.9264 19.4 49.8156 18.9089C49.7049 18.4177 50.8349 16.6376 50.4544 16.5354C49.9604 16.4161 49.3614 18.4546 49.2989 18.6221C49.2365 18.7896 48.9895 18.7045 49.0548 18.5568C49.1485 18.3411 50.0797 16.0641 49.5942 15.942C49.3245 15.8739 49.2478 16.3679 49.2478 16.3679C49.2478 16.3679 48.5352 18.5625 48.3081 18.4972C48.0809 18.4319 48.4529 17.1288 48.6119 16.6972C48.7708 16.2657 48.6289 16.0272 48.3819 16.1123C48.2144 16.172 47.7005 17.4808 47.5529 17.9095C47.4052 18.3382 47.0276 19.5221 46.7409 18.7868C46.4541 18.0515 45.9544 17.5944 45.733 17.5631C45.6813 17.561 45.6303 17.5751 45.5871 17.6036C45.5438 17.632 45.5106 17.6733 45.4921 17.7216C45.4736 17.7699 45.4708 17.8228 45.4839 17.8728C45.4971 17.9228 45.5256 17.9674 45.5655 18.0004C45.7388 18.2032 45.8822 18.4298 45.9913 18.6732C46.0886 18.8654 46.152 19.0728 46.1787 19.2865C46.2388 19.7133 46.2568 20.1451 46.2327 20.5754L42.3544 28.6414L35.2339 26.4269L34.5156 30.4613C34.5156 30.4613 43.8847 33.9449 44.4525 33.5843C45.7018 32.8064 49.0803 21.2057 49.0803 21.2057C49.6353 20.3978 50.1471 19.561 50.6134 18.6988C51.1216 17.6511 51.028 17.6057 50.8917 17.566Z" fill="#B78876"/>
<path d="M14.438 44.8272C14.238 44.6497 14.0649 44.4441 13.9241 44.2168C13.7982 44.0449 13.7022 43.8529 13.6402 43.649C13.5578 43.3396 13.4925 43.0258 13.4443 42.7093C13.4443 42.7093 15.8944 35.3985 16.5417 34.2686C17.1891 33.1386 26.1238 29.9219 26.1238 29.9219L24.9881 25.4673C24.9881 25.4673 16.8427 28.7408 13.7282 31.2051C11.7408 32.7723 10.3212 42.4935 10.3212 42.502C9.94976 43.254 9.619 44.0255 9.33038 44.8131C8.97265 45.9487 9.07202 45.9686 9.20829 45.9884C9.58022 46.0396 9.91524 44.0408 10.0913 44.5121C10.2673 44.9834 9.39852 46.9112 9.78748 46.9481C10.2928 46.9992 10.6051 44.8982 10.6392 44.7222C10.6733 44.5462 10.9231 44.5973 10.8891 44.7534C10.8266 44.9806 10.2162 47.3654 10.713 47.4194C10.9969 47.4478 10.9969 46.9481 10.9969 46.9481C10.9969 46.9481 11.4029 44.6768 11.6357 44.7108C11.8685 44.7449 11.6812 46.085 11.5846 46.5336C11.4881 46.9821 11.6585 47.2036 11.8913 47.0815C12.0474 46.9992 12.3796 45.6336 12.4591 45.1907C12.5386 44.7477 12.743 43.5184 13.1433 44.2083C13.5436 44.8982 14.1086 45.29 14.3244 45.29C14.3785 45.2886 14.4307 45.2694 14.4729 45.2354C14.515 45.2015 14.5449 45.1546 14.5578 45.102C14.5707 45.0494 14.5659 44.994 14.5443 44.9444C14.5226 44.8947 14.4853 44.8536 14.438 44.8272Z" fill="#B78876"/>
<path d="M14.832 74.4591L18.8664 78.9704L31.5999 66.1234C33.1605 64.5455 34.0896 62.451 34.2119 60.2351L34.7541 50.1846L26.4866 45.1338L27.1453 59.2016C27.1813 59.9586 27.0618 60.7149 26.7942 61.4239C26.5266 62.1329 26.1166 62.7796 25.5895 63.324L14.832 74.4591Z" fill="#263238"/>
<path d="M24.8286 45.5227C24.7519 45.6249 24.468 52.0243 29.5869 52.8249C29.8936 52.8732 31.7447 53.0606 31.7447 53.0606C37.5535 53.0152 45.3923 52.7767 45.3923 52.7767L44.0891 70.6404L50.2586 70.6603L52.1352 51.5899C52.5469 46.3092 48.0895 45.3978 45.6336 45.3439L33.8201 45.2246L24.8286 45.5227Z" fill="#263238"/>
<path d="M30.8375 45.5226C30.8372 45.722 30.7843 45.9179 30.6842 46.0904C30.474 46.5351 30.125 46.8996 29.6898 47.129C29.2546 47.3584 28.7567 47.4403 28.2709 47.3623C28.0678 47.3457 27.8723 47.2773 27.7031 47.1636C27.7031 47.1409 27.9246 47.226 28.2709 47.2573C28.7323 47.3051 29.1974 47.2151 29.6077 46.9989C30.018 46.7826 30.355 46.4497 30.5763 46.0421C30.7665 45.7412 30.8148 45.5169 30.8375 45.5226Z" fill="#455A64"/>
<path d="M47.0079 51.604C46.7958 51.849 46.5479 52.0605 46.2726 52.2314C46.0244 52.4394 45.747 52.6097 45.4492 52.7368C45.6596 52.4901 45.9078 52.2784 46.1845 52.1094C46.4322 51.9008 46.7098 51.7304 47.0079 51.604Z" fill="#455A64"/>
<path d="M47.2586 52.6718C46.6486 52.838 46.0162 52.907 45.3848 52.8762C45.6834 52.7704 45.9965 52.711 46.3132 52.7002C46.6248 52.6405 46.9439 52.631 47.2586 52.6718Z" fill="#455A64"/>
<path d="M27.7128 26.9635C28.0028 26.9652 28.2902 26.9083 28.5577 26.7963C28.8252 26.6843 29.0674 26.5194 29.2696 26.3116C29.4719 26.1037 29.6301 25.8572 29.7349 25.5868C29.8396 25.3163 29.8886 25.0275 29.8791 24.7377C29.8393 23.5623 29.7939 22.3755 29.7939 22.3755C29.7939 22.3755 31.557 22.0916 31.5598 20.32C31.5627 18.5484 31.2163 14.5055 31.2163 14.5055C30.2075 14.0863 29.105 13.9443 28.0228 14.094C26.9407 14.2438 25.9182 14.6799 25.0611 15.3572L24.8027 15.5616L25.575 24.9989C25.6224 25.5339 25.8679 26.0319 26.2633 26.3953C26.6588 26.7587 27.1757 26.9614 27.7128 26.9635Z" fill="#B78876"/>
<path d="M30.6017 17.6541C30.5509 17.6089 30.5201 17.5454 30.5161 17.4775C30.5121 17.4096 30.5352 17.3429 30.5804 17.2921C30.6256 17.2413 30.6891 17.2105 30.757 17.2065C30.8249 17.2025 30.8916 17.2256 30.9424 17.2708C30.9675 17.2932 30.9881 17.3203 31.0028 17.3506C31.0174 17.3809 31.026 17.4138 31.028 17.4474C31.03 17.481 31.0253 17.5147 31.0143 17.5465C31.0032 17.5783 30.986 17.6076 30.9637 17.6328C30.9413 17.658 30.9142 17.6785 30.8839 17.6932C30.8536 17.7079 30.8207 17.7164 30.7871 17.7184C30.7535 17.7204 30.7198 17.7157 30.688 17.7047C30.6562 17.6937 30.6269 17.6765 30.6017 17.6541Z" fill="#263238"/>
<path d="M31.2653 17.3106C31.2369 17.339 31.0637 17.2084 30.8196 17.2112C30.5754 17.214 30.4022 17.339 30.3738 17.3077C30.3454 17.2765 30.3738 17.2396 30.4647 17.18C30.5674 17.104 30.6918 17.0632 30.8196 17.0636C30.9476 17.0612 31.0727 17.1023 31.1745 17.18C31.2511 17.2396 31.2795 17.2964 31.2653 17.3106Z" fill="#263238"/>
<path d="M28.2844 17.4866C28.3275 17.5127 28.362 17.551 28.3834 17.5967C28.4048 17.6424 28.4122 17.6934 28.4047 17.7433C28.3971 17.7931 28.375 17.8397 28.3411 17.877C28.3071 17.9143 28.2629 17.9408 28.214 17.953C28.165 17.9652 28.1136 17.9627 28.0661 17.9458C28.0186 17.9288 27.9771 17.8981 27.947 17.8577C27.9169 17.8172 27.8994 17.7687 27.8968 17.7184C27.8942 17.668 27.9066 17.6179 27.9323 17.5746C27.9682 17.5172 28.0249 17.4759 28.0906 17.4595C28.1563 17.443 28.2257 17.4528 28.2844 17.4866Z" fill="#263238"/>
<path d="M28.6306 17.5547C28.6022 17.5859 28.4261 17.4524 28.1848 17.4553C27.9435 17.4581 27.7675 17.583 27.7391 17.5518C27.7107 17.5206 27.7391 17.4837 27.8299 17.4241C27.9328 17.3484 28.0571 17.3076 28.1848 17.3076C28.3125 17.3076 28.4368 17.3484 28.5397 17.4241C28.6164 17.4837 28.6419 17.5405 28.6306 17.5547Z" fill="#263238"/>
<path d="M29.6237 19.3716C29.748 19.3192 29.8807 19.2894 30.0155 19.2836C30.0779 19.2836 30.129 19.2609 30.1319 19.2268C30.133 19.1633 30.1173 19.1006 30.0864 19.0451L29.8877 18.5539C29.7007 18.1382 29.557 17.7044 29.459 17.2593C29.6883 17.6543 29.8784 18.0708 30.0268 18.5028C30.0921 18.676 30.1546 18.8378 30.2142 18.9997C30.2573 19.0805 30.2713 19.1737 30.2539 19.2637C30.2446 19.2881 30.2297 19.31 30.2105 19.3277C30.1913 19.3454 30.1683 19.3585 30.1432 19.3659C30.1075 19.3723 30.071 19.3723 30.0353 19.3659C29.8995 19.3922 29.7601 19.3942 29.6237 19.3716Z" fill="#263238"/>
<path d="M28.839 19.647C29.2086 19.8436 29.6163 19.9578 30.0342 19.982C29.9543 20.1117 29.8326 20.2104 29.6892 20.262C29.5459 20.3136 29.3892 20.3149 29.245 20.2659C28.714 20.07 28.839 19.647 28.839 19.647Z" fill="white"/>
<path d="M29.7976 22.3501C28.9837 22.3757 28.1808 22.1572 27.4922 21.7227C27.4922 21.7227 28.06 22.9861 29.8061 22.81L29.7976 22.3501Z" fill="#A36957"/>
<path d="M24.6019 17.1401C24.6842 16.795 24.6664 16.4336 24.5508 16.0982C24.4353 15.7654 24.3721 15.4168 24.3634 15.0647C24.3603 14.8856 24.4097 14.7095 24.5056 14.5581C24.6015 14.4067 24.7396 14.2867 24.9029 14.213C25.1413 14.1335 25.4082 14.196 25.6495 14.1278C25.8889 14.0301 26.1019 13.8774 26.2713 13.6821C26.9797 13.0325 27.8579 12.5973 28.8038 12.4272C29.0776 12.36 29.3652 12.3758 29.63 12.4726C29.7594 12.5257 29.8657 12.6231 29.9297 12.7475C29.9937 12.8719 30.0113 13.015 29.9792 13.1512C30.3248 12.9254 30.7102 12.7674 31.1148 12.6856C31.3159 12.6474 31.5235 12.6659 31.7146 12.7391C31.9056 12.8124 32.0725 12.9373 32.1966 13.1001C32.418 13.4408 32.276 13.9972 31.8814 14.0966C31.9941 14.1226 32.1005 14.1707 32.1944 14.2383C32.2883 14.3058 32.3678 14.3913 32.4283 14.4899C32.4889 14.5884 32.5291 14.6981 32.5469 14.8124C32.5646 14.9266 32.5594 15.0433 32.5316 15.1556C32.4616 15.3795 32.3313 15.5798 32.155 15.7345C31.9787 15.8892 31.7633 15.9925 31.5322 16.0329C31.0679 16.106 30.5924 16.046 30.1609 15.8597C29.7265 15.695 29.3092 15.4679 28.8805 15.2919C28.7343 15.4891 28.5396 15.6452 28.3152 15.7447C28.0907 15.8442 27.8443 15.8838 27.6 15.8597C27.1146 15.8063 26.6425 15.6669 26.206 15.448C26.2876 15.9513 26.2447 16.467 26.0811 16.9499C25.9782 17.1319 25.8899 17.3218 25.8171 17.5177C25.7752 17.7948 25.759 18.0752 25.7688 18.3553C25.7461 18.6392 25.5928 18.9458 25.3145 18.9884C25.1878 18.9934 25.0631 18.9559 24.9602 18.8818C24.8573 18.8077 24.7821 18.7013 24.7467 18.5796C24.6824 18.3332 24.666 18.0769 24.6984 17.8244C24.6984 17.5717 24.4855 17.3758 24.6104 17.1486" fill="#263238"/>
<path d="M25.0556 17.711C25.0505 17.6406 25.0178 17.5752 24.9646 17.5289C24.9114 17.4826 24.842 17.4593 24.7717 17.464C24.4452 17.4782 23.9199 17.6485 23.9199 18.557C23.9426 19.8545 25.1606 19.4428 25.1635 19.4088C25.1663 19.3747 25.0953 18.2135 25.0556 17.711Z" fill="#B78876"/>
<path d="M24.8659 18.9173C24.8659 18.9173 24.8432 18.9344 24.8063 18.9514C24.7517 18.9735 24.6906 18.9735 24.636 18.9514C24.5521 18.899 24.4833 18.8256 24.4365 18.7385C24.3897 18.6513 24.3664 18.5534 24.3691 18.4546C24.3635 18.3438 24.383 18.2332 24.4259 18.1309C24.4387 18.0905 24.4603 18.0534 24.4893 18.0225C24.5183 17.9915 24.5539 17.9674 24.5934 17.952C24.6198 17.9453 24.6478 17.9478 24.6726 17.9592C24.6974 17.9705 24.7175 17.9901 24.7297 18.0145C24.7467 18.0486 24.7297 18.0741 24.7467 18.0769C24.7637 18.0798 24.7722 18.0542 24.7609 18.0003C24.7534 17.9687 24.7354 17.9407 24.7098 17.9208C24.692 17.9076 24.6719 17.8981 24.6504 17.8927C24.629 17.8873 24.6067 17.8863 24.5849 17.8896C24.5316 17.9004 24.4821 17.925 24.4413 17.9609C24.4005 17.9967 24.3697 18.0426 24.352 18.094C24.2981 18.2073 24.2727 18.332 24.2782 18.4574C24.2718 18.5752 24.3008 18.6923 24.3615 18.7935C24.4222 18.8948 24.5119 18.9755 24.6189 19.0252C24.6538 19.0345 24.6903 19.0357 24.7257 19.0288C24.7611 19.0219 24.7945 19.0071 24.8233 18.9855C24.8631 18.9486 24.8688 18.9202 24.8659 18.9173Z" fill="#A36957"/>
<path d="M28.5803 16.615C28.3817 16.6602 28.1808 16.6943 27.9784 16.7172C27.6547 16.791 27.4106 16.9301 27.3935 16.8961C27.3765 16.862 27.5866 16.6576 27.9443 16.5753C28.0475 16.5385 28.1571 16.5231 28.2664 16.5299C28.3757 16.5367 28.4825 16.5657 28.5803 16.615Z" fill="#263238"/>
<path d="M29.2956 21.569C29.2559 21.569 29.2275 21.3901 29.2331 21.1715C29.2388 20.9529 29.2786 20.774 29.3212 20.7769C29.3637 20.7797 29.3893 20.9558 29.3808 21.1744C29.3723 21.393 29.3354 21.5718 29.2956 21.569Z" fill="#263238"/>
<path d="M29.6558 21.4415C29.6161 21.4415 29.582 21.291 29.582 21.1065C29.582 20.922 29.6161 20.7715 29.6558 20.7715C29.6956 20.7715 29.7297 20.922 29.7297 21.1065C29.7297 21.291 29.6871 21.4415 29.6558 21.4415Z" fill="#263238"/>
<path d="M30.0334 21.3475C29.9937 21.3475 29.9511 21.2197 29.9369 21.0636C29.9227 20.9074 29.9369 20.7627 29.9851 20.7598C30.0334 20.757 30.0703 20.8876 30.0845 21.0437C30.0987 21.1999 30.076 21.3447 30.0334 21.3475Z" fill="#263238"/>
<path d="M39.5447 27.5458C37.5573 26.694 36.1377 26.2086 35.0532 25.6123C31.6463 23.7527 30.8144 24.278 30.0393 24.2382C28.6106 24.8073 27.041 24.9213 25.545 24.5647C23.5576 24.7918 22.422 25.7231 20.2018 26.6117L15.7812 28.9824L18.9696 33.4199L23.0608 32.0543C23.3986 33.7578 23.4809 35.1177 23.7081 37.1874L24.1425 45.5401L36.5295 45.3499L35.2746 37.4004L34.5223 31.1373L38.1649 32.642L39.5447 27.5316" fill="#FF6D38"/>
<g opacity="0.4">
<path d="M35.2195 25.6743C35.2195 25.6743 35.2195 25.6743 35.2535 25.7027C35.2838 25.7361 35.3096 25.7733 35.3302 25.8134C35.3626 25.8955 35.3761 25.9838 35.3697 26.0717C35.3633 26.1597 35.3372 26.2451 35.2933 26.3216C35.1649 26.5697 34.9496 26.7617 34.6886 26.8611C34.3443 26.9602 33.9878 27.0108 33.6296 27.0115C33.428 27.0243 33.2282 27.0576 33.0333 27.1109C32.8314 27.1777 32.6401 27.2733 32.4655 27.3948C32.0964 27.6617 31.7728 28.0336 31.3781 28.3828C31.1744 28.5678 30.9412 28.7175 30.6882 28.8257C30.4181 28.9339 30.1231 28.9644 29.8365 28.9138C29.246 28.8087 28.7548 28.451 28.2182 28.2096C27.6909 27.9793 27.1098 27.9006 26.5403 27.9825C26.0042 28.0542 25.4732 28.1594 24.9504 28.2977C24.4676 28.4168 23.9738 28.4862 23.4769 28.5049C23.0365 28.5217 22.5985 28.4331 22.1993 28.2466C21.8751 28.0782 21.6083 27.8173 21.4327 27.497C21.2975 27.2568 21.2334 26.983 21.2482 26.7078C21.2636 26.5351 21.3222 26.3692 21.4185 26.2251C21.4524 26.1758 21.4925 26.1309 21.5378 26.0917C21.4038 26.2719 21.324 26.4866 21.3078 26.7106C21.3016 26.9724 21.3706 27.2306 21.5065 27.4544C21.6782 27.756 21.9363 27.9993 22.2475 28.1529C22.633 28.3237 23.0529 28.4025 23.474 28.3828C23.9619 28.3594 24.4461 28.2861 24.9191 28.1642C25.4477 28.0229 25.9843 27.9139 26.5261 27.8377C27.1208 27.7522 27.7276 27.8348 28.2778 28.0762C28.8456 28.3261 29.3169 28.6753 29.8592 28.769C30.1212 28.8182 30.3918 28.7926 30.64 28.6951C30.8781 28.5937 31.0977 28.4537 31.2901 28.2806C31.6791 27.9456 32.0113 27.568 32.3974 27.2955C32.5858 27.1629 32.7936 27.0604 33.0135 26.9917C33.2168 26.9389 33.4253 26.9084 33.6352 26.9008C33.9847 26.9028 34.333 26.8598 34.6715 26.7731C34.9167 26.6849 35.1229 26.513 35.2535 26.2876C35.2969 26.218 35.3247 26.1398 35.335 26.0585C35.3453 25.9771 35.3378 25.8945 35.3132 25.8163C35.2592 25.7197 35.211 25.68 35.2195 25.6743Z" fill="black"/>
</g>
<g opacity="0.4">
<path d="M34.2756 31.4948C34.2423 31.5543 34.2034 31.6104 34.1592 31.6623C34.0342 31.8129 33.8901 31.9465 33.7305 32.0598C33.4743 32.2413 33.1849 32.3705 32.8788 32.4403C32.4732 32.5392 32.0484 32.5265 31.6494 32.4034C31.2094 32.2699 30.7807 31.9974 30.2753 31.881C29.7249 31.7988 29.1632 31.9156 28.6911 32.2103C28.1523 32.5393 27.5717 32.7943 26.9649 32.9683C26.2934 33.1147 25.5951 33.0814 24.9406 32.8718C24.6103 32.7643 24.296 32.6124 24.0065 32.4204C23.7226 32.2302 23.4671 32.0144 23.2116 31.8213C22.9658 31.6261 22.6981 31.4603 22.4138 31.3273C22.1372 31.2108 21.8458 31.1334 21.5478 31.0974C20.9873 31.0441 20.4244 31.0195 19.8614 31.0235C19.3623 31.0201 18.8669 30.9377 18.3936 30.7794C17.996 30.6455 17.6499 30.3915 17.4027 30.0526C17.2189 29.7966 17.1089 29.4951 17.0847 29.181C17.0714 28.9859 17.1075 28.7905 17.1898 28.6131C17.2164 28.5501 17.2528 28.4916 17.2977 28.4399C17.2977 28.4399 17.2636 28.5024 17.2182 28.6245C17.1455 28.8043 17.1201 28.9998 17.1444 29.1923C17.1745 29.4935 17.2875 29.7805 17.4709 30.0213C17.7131 30.3398 18.047 30.5766 18.4276 30.6999C18.8926 30.8455 19.377 30.9192 19.8642 30.9185C20.4327 30.9084 21.0013 30.9283 21.5677 30.9781C21.878 31.0149 22.1818 31.0942 22.4706 31.2138C22.7658 31.3502 23.044 31.5208 23.2996 31.722C23.5608 31.9179 23.8135 32.1308 24.0889 32.3125C24.3671 32.4975 24.6688 32.6445 24.986 32.7497C25.616 32.9499 26.2873 32.9822 26.9337 32.8434C27.5323 32.6758 28.1054 32.4275 28.6371 32.1052C28.8987 31.9663 29.1761 31.8596 29.4633 31.7873C29.7435 31.7222 30.0349 31.7222 30.315 31.7873C30.8516 31.9179 31.2718 32.1961 31.6949 32.3295C32.0756 32.4528 32.4823 32.4724 32.8731 32.3863C33.1701 32.324 33.4524 32.2054 33.705 32.0371C33.9174 31.8813 34.1092 31.6991 34.2756 31.4948Z" fill="black"/>
</g>
<g opacity="0.4">
<path d="M38.8032 29.6238C38.8032 29.6493 38.5676 29.6834 38.2354 29.8736C37.8089 30.1406 37.4095 30.4487 37.043 30.7935C36.6616 31.1476 36.195 31.3971 35.6887 31.5175C35.4769 31.5708 35.2533 31.5528 35.0527 31.4663C35.2583 31.4692 35.4637 31.4521 35.666 31.4152C36.1432 31.2689 36.5817 31.0176 36.9493 30.6799C37.3209 30.3272 37.737 30.0246 38.1871 29.7799C38.3734 29.6703 38.5872 29.6161 38.8032 29.6238Z" fill="black"/>
</g>
<g opacity="0.4">
<path d="M34.6893 36.5485C34.6893 36.5485 34.6893 36.5939 34.6467 36.6649C34.5889 36.7704 34.5072 36.8608 34.4082 36.929C34.2215 37.0478 34.0104 37.1228 33.7906 37.1484C33.5708 37.174 33.348 37.1494 33.1391 37.0766C32.6053 36.9318 32.046 36.5741 31.3363 36.5315C30.5646 36.5037 29.7945 36.6192 29.065 36.8722C28.3249 37.1316 27.5654 37.3319 26.7937 37.4712C26.1526 37.5785 25.4944 37.5068 24.8914 37.264C24.4842 37.1021 24.1309 36.8285 23.8722 36.4747C23.8028 36.379 23.7455 36.2751 23.7019 36.1652C23.6839 36.1282 23.6705 36.0891 23.6621 36.0488C23.6621 36.0488 23.7359 36.2021 23.9176 36.4378C24.1845 36.7669 24.5344 37.0188 24.9312 37.1674C25.519 37.3888 26.1557 37.4466 26.7738 37.3349C27.5347 37.1902 28.2835 36.988 29.0139 36.7302C29.7595 36.4717 30.548 36.3589 31.3363 36.398C31.6815 36.4292 32.0197 36.5145 32.3385 36.6507C32.6224 36.7728 32.9063 36.8977 33.159 36.9744C33.3546 37.0487 33.5642 37.0788 33.7728 37.0626C33.9814 37.0464 34.1838 36.9843 34.3656 36.8807C34.4973 36.796 34.608 36.6824 34.6893 36.5485Z" fill="black"/>
</g>
<g opacity="0.4">
<path d="M35.9187 41.5992C35.9256 41.6434 35.9256 41.6884 35.9187 41.7326C35.8946 41.8615 35.839 41.9825 35.7569 42.0847C35.5947 42.2635 35.391 42.3998 35.1638 42.4815C34.9365 42.5632 34.6927 42.5878 34.4537 42.5531C34.1307 42.5047 33.8144 42.419 33.5111 42.2976C33.1712 42.1625 32.8168 42.0672 32.455 42.0137C31.6913 41.9115 30.8566 42.1783 30.0133 42.4821C29.5875 42.6326 29.1616 42.7802 28.7499 42.8853C27.657 43.1575 26.5041 43.0514 25.4793 42.5843C25.0474 42.3944 24.6464 42.1408 24.2897 41.832C24.1885 41.7512 24.0936 41.663 24.0058 41.5679C23.9461 41.5026 23.9149 41.4686 23.9206 41.4629C24.3948 41.8848 24.9311 42.2314 25.5105 42.4907C26.1401 42.7543 26.8153 42.8922 27.4979 42.8966C27.902 42.8946 28.3044 42.8431 28.696 42.7433C29.1048 42.6383 29.5193 42.4935 29.9424 42.343C30.7941 42.0421 31.6458 41.7752 32.4521 41.8802C32.8235 41.937 33.186 42.041 33.531 42.1897C33.8263 42.3111 34.1337 42.4006 34.448 42.4566C34.6724 42.4925 34.9021 42.4747 35.1183 42.4046C35.3345 42.3346 35.531 42.2142 35.6916 42.0534C35.8045 41.9237 35.8827 41.7674 35.9187 41.5992Z" fill="black"/>
</g>
<g opacity="0.4">
<path d="M26.1748 31.2789C25.9721 31.0916 25.7911 30.8821 25.6353 30.6543C25.4408 30.4567 25.272 30.2354 25.1328 29.9956C25.599 30.3113 25.9615 30.7578 26.1748 31.2789Z" fill="black"/>
</g>
<g opacity="0.4">
<path d="M33.3295 29.4307C33.1887 29.6828 33.0074 29.9101 32.7929 30.1035C32.6123 30.3284 32.3943 30.5205 32.1484 30.6714C32.288 30.4183 32.4694 30.1908 32.685 29.9985C32.8657 29.7736 33.0837 29.5815 33.3295 29.4307Z" fill="black"/>
</g>
<g opacity="0.4">
<path d="M37.3214 29.0391C37.2959 29.0732 37.0375 28.9114 36.7167 28.6785C36.3959 28.4457 36.1801 28.2328 36.2028 28.1987C36.4264 28.2773 36.6321 28.3999 36.8075 28.5593C37.1113 28.7921 37.3413 29.0079 37.3214 29.0391Z" fill="black"/>
</g>
<g opacity="0.4">
<path d="M19.523 28.1558C19.5734 28.3816 19.5422 28.6179 19.435 28.823C19.3129 29.1722 19.1113 29.3908 19.0801 29.3908C19.1297 29.1819 19.2021 28.9791 19.2959 28.786C19.3475 28.568 19.4237 28.3566 19.523 28.1558Z" fill="black"/>
</g>
<g opacity="0.4">
<path d="M26.3929 40.9863C26.3588 41.0118 26.1089 40.7592 25.8506 40.4185C25.6687 40.2291 25.5233 40.0077 25.4219 39.7655C25.4559 39.7399 25.7058 39.9898 25.9641 40.3333C26.1461 40.5226 26.2915 40.744 26.3929 40.9863Z" fill="black"/>
</g>
<g opacity="0.4">
<path d="M29.9406 39.3677C29.7889 39.617 29.597 39.8395 29.3728 40.0264C29.1794 40.2481 28.9488 40.4345 28.6914 40.5771C28.8442 40.3286 29.0359 40.1062 29.2592 39.9185C29.4546 39.6987 29.6848 39.5126 29.9406 39.3677Z" fill="black"/>
</g>
<g opacity="0.4">
<path d="M34.3373 40.546C34.0841 40.4521 33.8503 40.3126 33.6474 40.1343C33.2869 39.8731 33.0171 39.6347 33.0427 39.6006C33.295 39.6976 33.5285 39.8379 33.7326 40.0151C33.9649 40.1536 34.1699 40.3335 34.3373 40.546Z" fill="black"/>
</g>
<g opacity="0.4">
<path d="M27.3617 34.4189C27.1279 34.6382 26.8617 34.8201 26.5724 34.9584C26.3105 35.1378 26.0235 35.2775 25.7207 35.3729C25.9554 35.1526 26.2226 34.9697 26.5128 34.8306C26.7728 34.6503 27.0592 34.5114 27.3617 34.4189Z" fill="black"/>
</g>
<g opacity="0.4">
<path d="M31.2392 34.7482C30.9868 34.7432 30.746 34.6416 30.5663 34.4643C30.3569 34.3197 30.213 34.0983 30.166 33.8482C30.2029 33.8283 30.3676 34.1037 30.6629 34.3507C30.9581 34.5977 31.2506 34.7056 31.2392 34.7482Z" fill="black"/>
</g>
<g opacity="0.4">
<path d="M25.9134 25.9844C25.9304 26.0213 25.6721 26.1774 25.3456 26.3279C25.1492 26.4431 24.9304 26.5147 24.7039 26.538C24.6869 26.5011 24.9481 26.3478 25.2717 26.1945C25.4679 26.0788 25.6868 26.0071 25.9134 25.9844Z" fill="black"/>
</g>
<g opacity="0.4">
<path d="M29.9086 26.6485C29.6588 26.5997 29.4208 26.5033 29.2073 26.3646C28.9708 26.2687 28.7556 26.1268 28.5742 25.9473C28.8233 25.9985 29.0609 26.0947 29.2755 26.2312C29.512 26.3271 29.7272 26.469 29.9086 26.6485Z" fill="black"/>
</g>
<g opacity="0.4">
<path d="M33.2806 25.5157C33.0722 25.6078 32.8469 25.6552 32.6191 25.6549C32.3964 25.7032 32.166 25.7032 31.9434 25.6549C32.1517 25.5628 32.3771 25.5154 32.6049 25.5157C32.8275 25.4674 33.0579 25.4674 33.2806 25.5157Z" fill="black"/>
</g>
<g opacity="0.4">
<path d="M26.6667 44.7223C26.6411 44.7563 26.3827 44.5973 26.079 44.3702C25.7752 44.1431 25.5566 43.9302 25.5821 43.8989C25.8004 43.974 26.0006 44.0939 26.1698 44.251C26.4679 44.4781 26.6922 44.6882 26.6667 44.7223Z" fill="black"/>
</g>
<g opacity="0.4">
<path d="M31.9445 43.8364C31.9729 43.862 31.7657 44.1345 31.4221 44.3702C31.2254 44.5292 30.9867 44.6279 30.7351 44.6541C30.718 44.6143 31.019 44.4667 31.337 44.2396C31.5259 44.0858 31.7294 43.9507 31.9445 43.8364Z" fill="black"/>
</g>
<g opacity="0.4">
<path d="M35.3889 44.9037C35.1516 44.8644 34.9241 44.7795 34.7189 44.6539C34.493 44.5689 34.2864 44.4396 34.1113 44.2734C34.3502 44.3087 34.5793 44.3928 34.7842 44.5204C35.0093 44.6066 35.215 44.7369 35.3889 44.9037Z" fill="black"/>
</g>
<path d="M47.8012 51.2747C47.7294 51.2911 47.6562 51.3006 47.5826 51.303C47.4378 51.303 47.2249 51.3314 46.9523 51.3485C46.4043 51.3797 45.6094 51.4138 44.6271 51.4478C42.6624 51.5131 39.9482 51.5784 36.9614 51.5955C35.4624 51.5955 34.0343 51.5955 32.734 51.5387C31.5663 51.4884 30.4353 51.116 29.4662 50.4627C28.8196 50.0167 28.2899 49.4217 27.9217 48.728C27.7882 48.4745 27.6834 48.2069 27.6094 47.9302C27.6292 47.9302 27.7116 48.2141 27.9699 48.6996C28.3525 49.3712 28.8849 49.9454 29.5258 50.3775C30.4842 51.0044 31.5952 51.3587 32.7397 51.4024C34.0343 51.4564 35.4652 51.4507 36.9614 51.4478C39.9595 51.4308 42.6709 51.3825 44.6271 51.3456L46.9523 51.2889L47.5854 51.2718C47.6573 51.2662 47.7295 51.2671 47.8012 51.2747Z" fill="#455A64"/>
</svg>
