<svg width="117" height="134" viewBox="0 0 117 134" fill="none" xmlns="http://www.w3.org/2000/svg">
<path d="M8.56219 128.008C8.20771 127.705 7.41757 126.742 8.02099 125.624C8.24559 125.213 8.71913 125.01 9.14938 124.828C9.59175 124.679 10.0087 124.462 10.386 124.187C11.0544 123.619 11.2411 122.672 11.6849 121.911C12.1963 121.037 13.1488 120.383 14.1554 120.429C15.3081 120.48 16.2714 121.424 16.7071 122.496C17.1428 123.567 17.159 124.763 17.1671 125.924C17.1671 126.566 17.1428 127.277 16.6719 127.721C16.2011 128.165 15.5977 128.119 14.9969 128.119L8.69478 127.924" fill="#F5F5F5"/>
<path d="M20.6118 110.676H4.03516L7.0117 128.481C7.07364 128.852 7.2395 129.198 7.49002 129.478C7.74053 129.758 8.06541 129.962 8.42692 130.064C8.44548 130.071 8.46447 130.076 8.48374 130.081C8.53258 130.096 8.58227 130.109 8.63257 130.119C8.74304 130.142 8.8553 130.155 8.96811 130.159V130.175L9.04929 130.162H16.4365C16.9386 130.16 17.4238 129.981 17.8055 129.654C18.1872 129.328 18.4405 128.877 18.5201 128.381L19.9597 116.115L20.0246 115.628L20.5956 110.771L20.6118 110.676ZM17.4919 122.033H15.7844L15.9549 116.867H17.9248L17.4919 122.033ZM18.098 116.867H19.7216L19.1154 122.033H17.6488L18.098 116.867ZM13.2273 127.762L13.1245 123.272H15.5598L15.411 127.762H13.2273ZM10.5809 123.272H12.9594L13.0649 127.762H10.9326L10.5809 123.272ZM10.7649 127.762H8.77057C8.58116 126.549 8.33492 124.975 8.06703 123.272H10.4185L10.7649 127.762ZM10.4943 122.033L10.0938 116.867H12.816L12.935 122.033H10.4943ZM13.1082 122.033L12.9892 116.867H15.7898L15.6193 122.033H13.1082ZM12.9594 115.628L12.8484 110.844H15.9901L15.8304 115.628H12.9594ZM12.7943 115.628H9.98825L9.61754 110.844H12.678L12.7943 115.628ZM9.81778 115.628H6.86288C6.75735 114.968 6.65993 114.34 6.57063 113.777C6.25945 111.843 6.14309 111.117 6.08086 110.844H9.45247L9.81778 115.628ZM9.91519 116.867L10.3157 122.033H7.88032C7.79914 121.508 7.71525 120.978 7.63137 120.447C7.43925 119.23 7.24712 118.012 7.06853 116.867H9.91519ZM7.70172 122.033H6.10792L5.24201 116.867H6.89264C7.1443 118.464 7.42572 120.242 7.70713 122.033H7.70172ZM7.89655 123.272C8.14009 124.826 8.38092 126.357 8.6001 127.762H7.06853L6.31627 123.272H7.89655ZM15.5977 127.762L15.7465 123.272H17.3701L16.9858 127.762H15.5977ZM16.0009 115.628L16.1605 110.844H18.4444L18.0331 115.628H16.0009ZM5.92391 110.844C5.98885 111.188 6.29192 113.071 6.69781 115.628H5.04448L4.23269 110.844H5.92391ZM18.4417 127.762H17.159L17.5433 123.272H18.9666L18.4417 127.762ZM19.865 115.628H18.1954L18.6067 110.844H20.4251L19.865 115.628Z" fill="#E0E0E0"/>
<path d="M74.2224 98.21H31.6523V117.844H74.2224V98.21Z" fill="#F5F5F5"/>
<path d="M73.2104 116.916H32.6211V99.2412H73.2104V116.916ZM32.8917 116.646H72.9398V99.5064H32.8917V116.646Z" fill="#E0E0E0"/>
<path d="M84.6236 98.21H74.2246V117.844H84.6236V98.21Z" fill="#E0E0E0"/>
<path d="M32.7592 104.712H73.0779C73.0923 104.712 73.106 104.707 73.1162 104.696C73.1263 104.686 73.132 104.672 73.132 104.658C73.132 104.644 73.1263 104.63 73.1162 104.62C73.106 104.61 73.0923 104.604 73.0779 104.604H32.7592C32.7448 104.604 32.7311 104.61 32.7209 104.62C32.7108 104.63 32.7051 104.644 32.7051 104.658C32.7051 104.672 32.7108 104.686 32.7209 104.696C32.7311 104.707 32.7448 104.712 32.7592 104.712Z" fill="#E0E0E0"/>
<path d="M53.0501 104.659C53.1629 102.883 53.1674 101.102 53.0637 99.3251C53.0637 99.3108 53.058 99.297 53.0478 99.2868C53.0377 99.2767 53.0239 99.271 53.0095 99.271C52.9952 99.271 52.9814 99.2767 52.9713 99.2868C52.9611 99.297 52.9554 99.3108 52.9554 99.3251C52.8517 101.102 52.8562 102.883 52.969 104.659C52.969 104.669 52.9732 104.68 52.9808 104.687C52.9885 104.695 52.9988 104.699 53.0095 104.699C53.0203 104.699 53.0306 104.695 53.0382 104.687C53.0459 104.68 53.0501 104.669 53.0501 104.659Z" fill="#E0E0E0"/>
<path d="M63.9046 101.993C63.9046 102.1 63.8729 102.205 63.8134 102.294C63.754 102.383 63.6694 102.452 63.5706 102.493C63.4717 102.534 63.3629 102.545 63.2579 102.524C63.1529 102.503 63.0565 102.451 62.9808 102.376C62.9051 102.3 62.8535 102.203 62.8327 102.098C62.8118 101.993 62.8225 101.885 62.8635 101.786C62.9044 101.687 62.9738 101.602 63.0628 101.543C63.1518 101.483 63.2564 101.452 63.3635 101.452C63.507 101.452 63.6446 101.509 63.7461 101.61C63.8476 101.712 63.9046 101.849 63.9046 101.993Z" fill="#E0E0E0"/>
<path d="M42.7445 101.993C42.7445 102.1 42.7128 102.205 42.6533 102.294C42.5938 102.383 42.5093 102.452 42.4104 102.493C42.3115 102.534 42.2027 102.545 42.0977 102.524C41.9927 102.503 41.8963 102.451 41.8206 102.376C41.7449 102.3 41.6934 102.203 41.6725 102.098C41.6516 101.993 41.6623 101.885 41.7033 101.786C41.7443 101.687 41.8136 101.602 41.9026 101.543C41.9916 101.483 42.0963 101.452 42.2033 101.452C42.3468 101.452 42.4845 101.509 42.586 101.61C42.6875 101.712 42.7445 101.849 42.7445 101.993Z" fill="#E0E0E0"/>
<path d="M53.4808 108.079C53.4808 108.186 53.4491 108.29 53.3896 108.379C53.3301 108.468 53.2456 108.538 53.1467 108.579C53.0478 108.62 52.939 108.63 52.834 108.61C52.7291 108.589 52.6326 108.537 52.5569 108.461C52.4813 108.386 52.4297 108.289 52.4088 108.184C52.388 108.079 52.3987 107.971 52.4396 107.872C52.4806 107.773 52.55 107.688 52.639 107.629C52.728 107.569 52.8326 107.538 52.9396 107.538C53.0832 107.538 53.2208 107.595 53.3223 107.696C53.4238 107.798 53.4808 107.935 53.4808 108.079Z" fill="#E0E0E0"/>
<path d="M36.7407 117.842L34.5488 130.167H35.7827L39.8227 117.842H36.7407Z" fill="#E0E0E0"/>
<path d="M71.2129 117.842L73.0449 130.189H71.8109L68.1309 117.842H71.2129Z" fill="#E0E0E0"/>
<path d="M79.4415 117.842L81.5169 130.189H80.2857L76.3594 117.842H79.4415Z" fill="#E0E0E0"/>
<path d="M53.432 113.637C53.432 113.744 53.4003 113.849 53.3408 113.938C53.2813 114.027 53.1968 114.096 53.0979 114.137C52.999 114.178 52.8902 114.189 52.7852 114.168C52.6802 114.147 52.5838 114.095 52.5081 114.02C52.4324 113.944 52.3809 113.847 52.36 113.742C52.3391 113.637 52.3498 113.529 52.3908 113.43C52.4318 113.331 52.5011 113.246 52.5901 113.187C52.6791 113.127 52.7838 113.096 52.8908 113.096C53.0343 113.096 53.172 113.153 53.2735 113.254C53.375 113.356 53.432 113.493 53.432 113.637Z" fill="#E0E0E0"/>
<path d="M32.7592 110.801H73.0779C73.0923 110.801 73.106 110.795 73.1162 110.785C73.1263 110.775 73.132 110.761 73.132 110.747C73.132 110.733 73.1263 110.719 73.1162 110.709C73.106 110.699 73.0923 110.693 73.0779 110.693H32.7592C32.7448 110.693 32.7311 110.699 32.7209 110.709C32.7108 110.719 32.7051 110.733 32.7051 110.747C32.7051 110.761 32.7108 110.775 32.7209 110.785C32.7311 110.795 32.7448 110.801 32.7592 110.801Z" fill="#E0E0E0"/>
<path d="M61.3731 91.5397L61.3594 88.9204L48.4873 88.9878L48.501 91.6071L61.3731 91.5397Z" fill="#E0E0E0"/>
<path d="M62.9198 98.1505L62.8984 94.0781L48.5517 94.1532L48.573 98.2256L62.9198 98.1505Z" fill="#F5F5F5"/>
<path d="M60.1578 98.1262C60.0866 97.4504 60.0631 96.7704 60.0875 96.0913C60.063 95.4113 60.0865 94.7304 60.1578 94.0537C60.2257 94.7306 60.2483 95.4114 60.2255 96.0913C60.2482 96.7703 60.2256 97.4501 60.1578 98.1262Z" fill="#E0E0E0"/>
<path d="M60.7598 98.1262C60.692 97.4501 60.6694 96.7703 60.6922 96.0913C60.6694 95.4114 60.692 94.7306 60.7598 94.0537C60.8295 94.7305 60.853 95.4113 60.8302 96.0913C60.8529 96.7704 60.8294 97.4503 60.7598 98.1262Z" fill="#E0E0E0"/>
<path d="M50.735 98.1262C50.6654 97.4503 50.6419 96.7704 50.6647 96.0913C50.6419 95.4113 50.6654 94.7305 50.735 94.0537C50.8047 94.7305 50.8282 95.4113 50.8054 96.0913C50.8281 96.7704 50.8046 97.4503 50.735 98.1262Z" fill="#E0E0E0"/>
<path d="M51.3375 98.1262C51.2663 97.4504 51.2428 96.7704 51.2672 96.0913C51.2427 95.4113 51.2662 94.7304 51.3375 94.0537C51.4054 94.7306 51.428 95.4114 51.4052 96.0913C51.4279 96.7703 51.4053 97.4501 51.3375 98.1262Z" fill="#E0E0E0"/>
<path d="M52.6543 96.1563C52.6543 96.1184 54.0993 96.0859 55.8852 96.0859C57.6711 96.0859 59.1323 96.1184 59.1323 96.1563C59.1323 96.1942 57.6847 96.2267 55.8852 96.2267C54.0857 96.2267 52.6543 96.1888 52.6543 96.1563Z" fill="#E0E0E0"/>
<path d="M68.3067 94.0568L68.293 91.4375L50.5909 91.5302L50.6046 94.1495L68.3067 94.0568Z" fill="#EBEBEB"/>
<path d="M65.7738 93.7344C65.6058 93.7365 65.441 93.6887 65.3003 93.5969C65.1596 93.5052 65.0494 93.3737 64.9836 93.2191C64.9179 93.0646 64.8995 92.8939 64.931 92.7289C64.9624 92.5639 65.0422 92.412 65.1602 92.2925C65.2783 92.1729 65.4291 92.0912 65.5937 92.0576C65.7583 92.024 65.9292 92.0402 66.0845 92.1039C66.2399 92.1677 66.3729 92.2763 66.4664 92.4158C66.56 92.5553 66.6099 92.7194 66.6099 92.8874C66.6107 92.9979 66.5896 93.1075 66.548 93.2099C66.5063 93.3123 66.4449 93.4054 66.3673 93.4841C66.2896 93.5627 66.1973 93.6253 66.0954 93.6683C65.9936 93.7112 65.8843 93.7337 65.7738 93.7344Z" fill="#E0E0E0"/>
<path d="M63.4746 93.15V92.625H51.6252V93.15H63.4746Z" fill="#E0E0E0"/>
<path d="M79.2064 61.0812C90.4512 49.8364 90.4512 31.605 79.2064 20.3602C67.9616 9.11546 49.7302 9.11546 38.4855 20.3602C27.2407 31.605 27.2407 49.8364 38.4855 61.0812C49.7302 72.3259 67.9616 72.3259 79.2064 61.0812Z" fill="#E0E0E0"/>
<path d="M75.1338 57.0095C84.1299 48.0134 84.1299 33.428 75.1338 24.4319C66.1378 15.4359 51.5524 15.4359 42.5563 24.4319C33.5603 33.428 33.5603 48.0134 42.5563 57.0095C51.5524 66.0055 66.1378 66.0055 75.1338 57.0095Z" fill="#FAFAFA"/>
<path d="M75.3243 45.896C78.1837 36.794 73.123 27.0973 64.021 24.2379C54.919 21.3786 45.2223 26.4392 42.3629 35.5413C39.5035 44.6433 44.5642 54.34 53.6663 57.1994C62.7683 60.0587 72.465 54.9981 75.3243 45.896Z" fill="#E0E0E0"/>
<path d="M69.3672 45.4137C71.9572 39.6046 69.3476 32.7956 63.5385 30.2056C57.7293 27.6155 50.9204 30.2251 48.3303 36.0343C45.7403 41.8435 48.3499 48.6524 54.159 51.2424C59.9682 53.8325 66.7771 51.2229 69.3672 45.4137Z" fill="#FAFAFA"/>
<path d="M61.4539 45.8544C64.2888 44.4131 65.4185 40.9466 63.9772 38.1117C62.5358 35.2769 59.0693 34.1472 56.2345 35.5885C53.3997 37.0298 52.27 40.4963 53.7113 43.3312C55.1526 46.166 58.6191 47.2957 61.4539 45.8544Z" fill="#E0E0E0"/>
<path d="M59.7306 41.5691L51.7372 39.4612L53.7829 37.3614L37.2441 23.7802L38.1588 22.8872L54.7841 36.3872L56.3888 34.1927L59.7306 41.5691Z" fill="#EBEBEB"/>
<path d="M37.2453 23.7801L36.9963 23.9208C36.3875 24.2649 35.6981 24.4412 34.9988 24.4317C34.2995 24.4222 33.6152 24.2272 33.0159 23.8667L26.0859 19.7049L30.751 18.9716L30.2477 14.063L36.6256 18.4304C37.3265 18.9103 37.8542 19.6031 38.1305 20.4063C38.4068 21.2095 38.4172 22.0803 38.1599 22.8898L37.2453 23.7801Z" fill="#EBEBEB"/>
<path d="M105.949 110.108C105.981 108.429 106.629 106.82 107.77 105.589C108.32 107.856 105.949 110.108 105.949 110.108Z" fill="#EBEBEB"/>
<path d="M108.59 108.831C110.142 108.188 111.876 108.14 113.461 108.695C111.602 110.102 108.59 108.831 108.59 108.831Z" fill="#EBEBEB"/>
<path d="M108.894 107.359C108.641 106.058 108.876 104.71 109.554 103.571C110.352 105.235 108.894 107.359 108.894 107.359Z" fill="#EBEBEB"/>
<path d="M98.6719 102.058C102.541 103.086 104.625 106.444 104.625 106.444C101.31 106.444 98.6719 102.058 98.6719 102.058Z" fill="#EBEBEB"/>
<path d="M104.845 103.641C104.645 99.4791 108.712 94.7681 108.712 94.7681C108.098 99.9364 104.845 103.641 104.845 103.641Z" fill="#EBEBEB"/>
<path d="M104.825 91.7861C104.903 93.868 104.397 95.9302 103.364 97.7392C102.79 95.0712 104.825 91.7861 104.825 91.7861Z" fill="#EBEBEB"/>
<path d="M103.269 100.248C100.224 99.923 98.5684 96.895 98.5684 96.895C102.235 97.9206 103.269 100.248 103.269 100.248Z" fill="#EBEBEB"/>
<path d="M96.6934 112.965C98.1206 112.08 99.8236 111.752 101.477 112.043C99.8701 113.736 96.6934 112.965 96.6934 112.965Z" fill="#EBEBEB"/>
<path d="M104.578 114.334C104.19 115.319 103.467 116.135 102.535 116.637C102.665 115.233 104.578 114.334 104.578 114.334Z" fill="#EBEBEB"/>
<path d="M104.188 113.886C103.089 114.523 101.801 114.753 100.549 114.535C101.721 113.315 104.188 113.886 104.188 113.886Z" fill="#EBEBEB"/>
<path d="M105.745 119.49C105.742 119.469 105.742 119.448 105.745 119.428C105.745 119.376 105.745 119.317 105.745 119.246C105.745 119.073 105.745 118.84 105.745 118.548C105.745 118.256 105.745 117.874 105.745 117.444C105.745 117.014 105.745 116.524 105.715 115.983C105.688 114.9 105.613 113.615 105.502 112.195C105.391 110.774 105.204 109.204 104.961 107.57C104.465 104.307 103.813 101.376 103.272 99.2763C103.001 98.2264 102.782 97.3821 102.62 96.7976C102.541 96.5135 102.482 96.2889 102.436 96.1239L102.393 95.948C102.39 95.9273 102.39 95.9064 102.393 95.8857C102.404 95.9041 102.412 95.9242 102.417 95.9453L102.474 96.1157L102.679 96.7814C102.861 97.3605 103.099 98.2047 103.378 99.2519C104.097 101.986 104.667 104.757 105.082 107.554C105.32 109.177 105.491 110.758 105.607 112.186C105.724 113.615 105.778 114.906 105.791 115.991C105.81 116.532 105.805 117.022 105.791 117.452C105.778 117.882 105.791 118.264 105.775 118.556C105.759 118.848 105.756 119.084 105.751 119.254C105.751 119.327 105.751 119.387 105.751 119.436L105.745 119.49Z" fill="#E0E0E0"/>
<path d="M100.158 110.679C100.18 110.646 101.409 111.453 102.905 112.478C104.401 113.504 105.595 114.359 105.573 114.391C105.551 114.424 104.323 113.617 102.827 112.592C101.33 111.566 100.137 110.708 100.158 110.679Z" fill="#E0E0E0"/>
<path d="M105.572 111.123C105.627 111.046 105.69 110.976 105.762 110.915L106.303 110.387L108.132 108.672C108.833 108.014 109.466 107.419 109.961 106.959L110.503 106.436C110.568 106.369 110.64 106.309 110.719 106.258C110.669 106.337 110.609 106.41 110.54 106.474C110.421 106.61 110.24 106.796 110.015 107.015C109.566 107.475 108.933 108.098 108.213 108.761C107.493 109.424 106.839 110.025 106.357 110.449C106.116 110.66 105.919 110.828 105.778 110.945C105.717 111.012 105.648 111.072 105.572 111.123Z" fill="#E0E0E0"/>
<path d="M96.25 108.706C96.25 108.706 99.3943 108.647 100.726 111.12C99.8431 111.094 98.9787 110.863 98.2016 110.444C97.4244 110.025 96.7561 109.43 96.25 108.706Z" fill="#EBEBEB"/>
<path d="M100.545 107.442C100.545 107.442 103.105 109.269 102.71 112.043C102.015 111.497 101.458 110.798 101.082 109.999C100.706 109.2 100.522 108.325 100.545 107.442Z" fill="#EBEBEB"/>
<path d="M114.032 102.954C114.032 102.954 113.023 106.471 109.811 107.107C110.142 106.134 110.696 105.252 111.429 104.53C112.162 103.809 113.053 103.269 114.032 102.954Z" fill="#EBEBEB"/>
<path d="M99.1504 89.8569C99.1504 89.8569 103.163 92.4736 102.73 96.7301C101.639 95.943 100.747 94.9115 100.125 93.7181C99.5035 92.5247 99.1697 91.2024 99.1504 89.8569Z" fill="#EBEBEB"/>
<path d="M112.502 113.136C112.419 113.215 112.328 113.285 112.231 113.345C112.058 113.469 111.812 113.656 111.511 113.886C110.735 114.506 110.011 115.19 109.347 115.929C108.684 116.672 108.083 117.467 107.55 118.307C107.347 118.629 107.187 118.894 107.082 119.081C107.031 119.177 106.97 119.268 106.9 119.352C106.934 119.246 106.978 119.143 107.033 119.046C107.125 118.851 107.274 118.578 107.469 118.234C108.495 116.505 109.852 114.994 111.463 113.788C111.771 113.558 112.028 113.382 112.209 113.272C112.302 113.217 112.4 113.171 112.502 113.136Z" fill="#E0E0E0"/>
<path d="M109.009 115.75C108.719 114.096 109.047 112.393 109.932 110.966C110.362 113.948 109.009 115.75 109.009 115.75Z" fill="#EBEBEB"/>
<path d="M111.711 114.278C112.772 113.675 114.018 113.482 115.212 113.737C113.283 114.763 111.711 114.278 111.711 114.278Z" fill="#EBEBEB"/>
<path d="M99.8945 119.814L101.399 129.707H110.145L112.174 119.957L99.8945 119.814Z" fill="#EBEBEB"/>
<path d="M110.949 126.154C110.949 126.184 108.708 126.206 105.945 126.206C103.183 126.206 100.939 126.184 100.939 126.154C100.939 126.125 103.18 126.103 105.945 126.103C108.711 126.103 110.949 126.127 110.949 126.154Z" fill="#FAFAFA"/>
<path d="M110.986 125.684C110.986 125.711 108.729 125.735 105.947 125.735C103.166 125.735 100.906 125.711 100.906 125.684C100.906 125.657 103.163 125.632 105.947 125.632C108.732 125.632 110.986 125.64 110.986 125.684Z" fill="#FAFAFA"/>
<path d="M110.966 125.121C110.966 125.148 108.712 125.172 105.927 125.172C103.143 125.172 100.889 125.148 100.889 125.121C100.889 125.094 103.145 125.069 105.927 125.069C108.709 125.069 110.966 125.091 110.966 125.121Z" fill="#FAFAFA"/>
<path d="M102.401 129.145C102.28 128.736 102.189 128.319 102.131 127.897C102.043 127.482 101.987 127.06 101.963 126.636C102.178 127.459 102.324 128.298 102.399 129.145H102.401Z" fill="#FAFAFA"/>
<path d="M102.999 129.039C102.937 128.637 102.901 128.231 102.891 127.824C102.845 127.419 102.826 127.011 102.834 126.604C102.991 127.405 103.047 128.223 102.999 129.039Z" fill="#FAFAFA"/>
<path d="M104.082 129.039C103.964 128.632 103.888 128.214 103.855 127.792C103.788 127.374 103.765 126.95 103.787 126.528C103.868 126.942 103.924 127.36 103.955 127.781C104.021 128.197 104.063 128.618 104.082 129.039Z" fill="#FAFAFA"/>
<path d="M104.843 129.09C104.76 128.673 104.72 128.249 104.721 127.824C104.69 127.4 104.704 126.974 104.762 126.552C104.806 126.974 104.827 127.397 104.824 127.821C104.855 128.244 104.861 128.667 104.843 129.09Z" fill="#FAFAFA"/>
<path d="M106.19 129.039C106.126 128.642 106.095 128.24 106.098 127.838C106.064 127.436 106.064 127.032 106.098 126.631C106.162 127.029 106.193 127.432 106.19 127.835C106.225 128.236 106.225 128.639 106.19 129.039Z" fill="#FAFAFA"/>
<path d="M107.176 129.091C107.127 128.678 107.113 128.263 107.136 127.848C107.123 127.434 107.143 127.018 107.195 126.606C107.245 127.018 107.259 127.434 107.236 127.848C107.249 128.263 107.229 128.679 107.176 129.091Z" fill="#FAFAFA"/>
<path d="M108.098 128.958C108.088 128.524 108.112 128.089 108.171 127.659C108.196 127.226 108.255 126.795 108.35 126.371C108.358 126.805 108.333 127.24 108.274 127.67C108.248 128.103 108.189 128.534 108.098 128.958Z" fill="#FAFAFA"/>
<path d="M109.287 128.828C109.286 128.455 109.336 128.084 109.433 127.724C109.495 127.356 109.604 126.998 109.758 126.658C109.703 127.022 109.628 127.384 109.533 127.74C109.471 128.107 109.389 128.47 109.287 128.828Z" fill="#FAFAFA"/>
<path d="M98.8887 117.858V119.709C98.8887 119.902 98.9654 120.087 99.1019 120.223C99.2384 120.36 99.4235 120.437 99.6166 120.437H112.28C112.474 120.437 112.659 120.36 112.796 120.224C112.933 120.087 113.01 119.902 113.011 119.709V117.858H98.8887Z" fill="#EBEBEB"/>
<path d="M99.9883 120.437L100.091 121.026L111.778 121.86L112.073 120.437H99.9883Z" fill="#E0E0E0"/>
<path d="M112.375 129.961C112.375 130.002 88.1864 130.032 58.3532 130.032C28.5201 130.032 4.32617 130.013 4.32617 129.961C4.32617 129.91 28.5093 129.891 58.3532 129.891C88.1972 129.891 112.375 129.924 112.375 129.961Z" fill="#263238"/>
<path d="M0 49.8466C0 49.8466 2.7736 61.2116 15.1885 58.6031C15.1885 58.6031 11.5923 47.1001 0 49.8466Z" fill="#455A64"/>
<path d="M5.99805 67.0509C5.99805 67.0509 11.6968 75.5476 21.1135 69.6703C21.1135 69.6703 14.6923 61.3035 5.99805 67.0509Z" fill="#455A64"/>
<path d="M15.0801 80.0149C15.0801 80.0149 23.3955 87.0856 31.3591 78.321C31.3591 78.3291 22.3402 71.5913 15.0801 80.0149Z" fill="#455A64"/>
<path d="M23.675 52.7393C23.675 52.7393 14.4531 57.1716 18.9288 67.3298C19.5863 66.9645 28.0451 61.9693 23.675 52.7393Z" fill="#455A64"/>
<path d="M25.6767 64.9863C25.6767 64.9863 21.0766 71.1965 27.9308 76.5299C28.3583 75.8643 32.374 69.9409 25.6767 64.9863Z" fill="#455A64"/>
<path d="M4.34507 36.7715C4.34507 36.7715 3.28704 45.9717 13.2314 47.4546C13.2314 47.4546 13.7158 37.9134 4.34507 36.7715Z" fill="#455A64"/>
<path d="M18.6103 27.4575C18.6103 27.4575 10.5655 30.8156 14.0589 40.2431C14.0589 40.2431 22.1199 36.2221 18.6103 27.4575Z" fill="#455A64"/>
<path d="M23.4641 40.9087C23.4641 40.9087 12.8134 42.1237 13.7497 53.7051C13.7497 53.7051 24.6276 51.7677 23.4641 40.9087Z" fill="#455A64"/>
<path d="M38.6217 81.3738L38.4864 81.3332L38.0859 81.2277C37.7369 81.1357 37.2146 81.0112 36.5598 80.7974C34.7026 80.2245 32.907 79.4685 31.1993 78.5407C28.6703 77.1612 26.3354 75.4523 24.2558 73.4589C23.0221 72.279 21.8737 71.0131 20.8192 69.6706L20.0075 68.5882C19.8722 68.4096 19.7369 68.2283 19.6043 68.047C19.4717 67.8657 19.3526 67.6681 19.2281 67.4787L18.4732 66.3206L17.7805 65.1083L17.4341 64.4968L17.1256 63.8717C16.9227 63.4577 16.7143 63.0464 16.5168 62.6324L15.9756 61.3822C15.889 61.1739 15.797 60.9682 15.705 60.7599C15.613 60.5515 15.5535 60.3431 15.4804 60.1348L15.0366 58.8954C14.9121 58.4787 14.7904 58.0674 14.6713 57.6588C14.6118 57.4532 14.5496 57.2502 14.49 57.05C14.4305 56.8498 14.3899 56.6414 14.3412 56.4412C14.2465 56.0353 14.1518 55.6294 14.0706 55.237C13.4711 52.4226 13.2131 49.5461 13.3021 46.67C13.3649 44.7275 13.5812 42.793 13.9488 40.8846C14.0922 40.2108 14.2194 39.6913 14.3006 39.3395C14.3385 39.1636 14.3683 39.0311 14.3899 38.9363C14.4115 38.8416 14.417 38.7983 14.417 38.7983C14.417 38.7983 14.4007 38.8416 14.3764 38.9336C14.352 39.0256 14.3195 39.1582 14.2763 39.3314C14.1897 39.6859 14.0544 40.2027 13.9028 40.8738C12.9285 45.6272 12.9525 50.5312 13.9732 55.2749C14.0652 55.6727 14.1599 56.0731 14.2438 56.4817C14.2952 56.6847 14.3331 56.8903 14.3926 57.0933C14.4521 57.2962 14.5117 57.4992 14.5739 57.7048C14.693 58.1134 14.8147 58.5166 14.9392 58.9442L15.383 60.1889C15.456 60.3973 15.5318 60.6083 15.6076 60.8167C15.6833 61.025 15.7808 61.2307 15.8782 61.439L16.4194 62.6973C16.6142 63.1113 16.8226 63.5226 17.0282 63.9393C17.131 64.1504 17.2339 64.3588 17.3394 64.5671C17.4449 64.7755 17.5694 64.9757 17.6858 65.1814L18.3812 66.3991L19.1388 67.5599C19.266 67.7493 19.3851 67.9442 19.515 68.1309L19.9209 68.6721L20.7327 69.7544C21.7903 71.0975 22.9424 72.3635 24.18 73.5428C26.271 75.542 28.6199 77.2529 31.1641 78.63C32.8798 79.553 34.685 80.2992 36.5517 80.857C37.2092 81.0653 37.7342 81.179 38.0859 81.2656L38.4891 81.3576L38.6217 81.3738Z" fill="#263238"/>
<path d="M26.6727 69.9922C26.6612 70.082 26.6612 70.173 26.6727 70.2628C26.6727 70.4306 26.7106 70.6714 26.7485 70.9663C26.8189 71.5616 26.9433 72.3788 27.1165 73.2718C27.2897 74.1648 27.4872 74.9711 27.6415 75.5475C27.72 75.837 27.7876 76.0698 27.839 76.2294C27.8578 76.3142 27.8878 76.3961 27.9283 76.4729C27.9254 76.3813 27.9109 76.2904 27.885 76.2024L27.7254 75.515C27.5901 74.9333 27.4115 74.1296 27.2356 73.2366C27.0597 72.3437 26.9271 71.5319 26.8324 70.942C26.7891 70.6714 26.7512 70.4333 26.7188 70.2438C26.7132 70.1585 26.6978 70.074 26.6727 69.9922Z" fill="#263238"/>
<path d="M24.4082 79.2143C24.4991 79.2181 24.5901 79.2099 24.6788 79.1899L25.3878 79.0871C25.9831 78.9978 26.8084 78.8814 27.7203 78.7759C28.6322 78.6704 29.4629 78.5919 30.0636 78.5405L30.7753 78.4782C30.8667 78.4769 30.9576 78.4642 31.0459 78.4404C30.956 78.43 30.8652 78.43 30.7753 78.4404C30.6048 78.4404 30.3613 78.4404 30.0609 78.4647C29.4575 78.4945 28.6241 78.5594 27.7095 78.665C26.7949 78.7705 25.9695 78.9031 25.3742 79.014C25.0793 79.0681 24.833 79.1168 24.6734 79.1547C24.5829 79.1637 24.4938 79.1837 24.4082 79.2143Z" fill="#263238"/>
<path d="M13.1992 67.9443C13.2987 67.9781 13.401 68.0026 13.505 68.0174L14.3465 68.1852C15.0582 68.3232 16.0405 68.5288 17.1147 68.7886C18.189 69.0484 19.155 69.3163 19.8505 69.5165L20.6622 69.7546C20.7621 69.7906 20.8655 69.816 20.9707 69.8304C20.8778 69.7804 20.7798 69.7405 20.6785 69.7113C20.4864 69.641 20.2076 69.5463 19.8667 69.4407C19.1767 69.2188 18.2134 68.9374 17.1337 68.6777C16.054 68.4179 15.0717 68.2231 14.3547 68.104C13.9975 68.0445 13.7052 68.0012 13.505 67.9768C13.4045 67.9551 13.302 67.9442 13.1992 67.9443Z" fill="#263238"/>
<path d="M21.3379 59.2358C21.265 59.3188 21.2015 59.4095 21.1485 59.5064C21.0322 59.6904 20.8779 59.9664 20.6966 60.3182C19.7611 62.1375 19.1903 64.1221 19.0162 66.1604C18.9838 66.55 18.9702 66.8639 18.9702 67.0831C18.9604 67.1965 18.9604 67.3106 18.9702 67.4241C18.9929 67.3127 19.0046 67.1994 19.0054 67.0858C19.0054 66.8693 19.0487 66.5446 19.0893 66.1685C19.3102 64.1496 19.8758 62.1837 20.7616 60.3561C20.9293 60.0043 21.0755 59.7229 21.1783 59.5443C21.2416 59.447 21.295 59.3437 21.3379 59.2358Z" fill="#263238"/>
<path d="M8.98633 53.9375C9.06134 54.0034 9.14295 54.0615 9.22986 54.1107L9.91447 54.5545C10.4881 54.936 11.2674 55.4826 12.0792 56.1429C12.891 56.8031 13.5919 57.4498 14.0816 57.9315L14.658 58.5052C14.7243 58.5815 14.7987 58.6505 14.8799 58.7108C14.8262 58.6259 14.7636 58.547 14.6932 58.4754C14.5687 58.3266 14.382 58.1209 14.152 57.872C13.5285 57.2233 12.8651 56.6142 12.1658 56.0481C11.4663 55.4821 10.7325 54.9598 9.96859 54.4841C9.67635 54.3001 9.4274 54.1594 9.26504 54.0701C9.17699 54.0163 9.08358 53.9719 8.98633 53.9375Z" fill="#263238"/>
<path d="M20.6173 45.5278C20.6173 45.5278 20.5821 45.5495 20.528 45.5955L20.2953 45.8038C20.0924 45.9878 19.8055 46.2611 19.4565 46.6021C18.761 47.2867 17.8329 48.2636 16.8615 49.3973C15.89 50.5311 15.0782 51.6054 14.5154 52.4037C14.2448 52.8014 14.0094 53.1262 13.8606 53.3562L13.6901 53.6268C13.6681 53.6555 13.6508 53.6874 13.6387 53.7215C13.6387 53.7215 13.6684 53.6971 13.7117 53.6403L13.8984 53.3886L14.583 52.4578C15.1648 51.6758 15.9901 50.6123 16.9535 49.4812C17.9168 48.3501 18.8476 47.3652 19.5187 46.667L20.3305 45.8553L20.547 45.6307C20.5757 45.6003 20.5994 45.5656 20.6173 45.5278Z" fill="#263238"/>
<path d="M7.78711 39.7671C7.85464 39.8689 7.93068 39.9649 8.01441 40.0539L8.66113 40.817C9.20232 41.4637 9.93022 42.3756 10.6798 43.4201C11.4293 44.4646 12.0544 45.4523 12.4928 46.1748C12.7011 46.5211 12.8716 46.8107 13.0042 47.0326C13.062 47.1403 13.128 47.2435 13.2017 47.341C13.1596 47.226 13.108 47.1147 13.0475 47.0082C12.9392 46.7972 12.7769 46.4968 12.5658 46.1315C12.1464 45.3955 11.5294 44.4024 10.7772 43.3498C10.0249 42.2972 9.28621 41.3961 8.72608 40.7602C8.45548 40.4436 8.21465 40.1919 8.04959 40.0214C7.971 39.9279 7.88305 39.8427 7.78711 39.7671Z" fill="#263238"/>
<path d="M17.4179 31.0239C17.3519 31.1314 17.2958 31.2446 17.2501 31.3622C17.15 31.5814 17.0093 31.9034 16.8388 32.3011C16.5005 33.0994 16.0541 34.1953 15.5968 35.4482C15.1394 36.701 14.7525 37.824 14.49 38.6493C14.3601 39.0606 14.2573 39.3961 14.1897 39.6289C14.1482 39.7476 14.1174 39.8699 14.0977 39.9942C14.157 39.8788 14.206 39.7584 14.2438 39.6343C14.3304 39.3853 14.444 39.0606 14.5793 38.6682C14.8634 37.8565 15.2585 36.7227 15.7185 35.4833C16.1785 34.244 16.6007 33.14 16.92 32.3282C17.0715 31.9412 17.1906 31.6192 17.2934 31.373C17.3442 31.2602 17.3859 31.1435 17.4179 31.0239Z" fill="#263238"/>
<path d="M116.999 48.2313C116.999 48.2313 114.225 59.5963 101.811 56.9905C101.811 56.9905 105.409 45.4848 116.999 48.2313Z" fill="#455A64"/>
<path d="M111 65.4357C111 65.4357 105.301 73.9351 95.8848 68.0577C95.8848 68.0469 102.306 59.6909 111 65.4357Z" fill="#455A64"/>
<path d="M101.917 78.3997C101.917 78.3997 93.6042 85.4731 85.6406 76.7058C85.6406 76.7058 94.6596 69.9788 101.917 78.3997Z" fill="#455A64"/>
<path d="M93.3245 51.1265C93.3245 51.1265 102.546 55.5588 98.0708 65.7143C97.4159 65.3408 88.9679 60.3565 93.3245 51.1265Z" fill="#455A64"/>
<path d="M91.3231 63.3711C91.3231 63.3711 95.9232 69.5813 89.069 74.9174C88.6415 74.2517 84.6259 68.3176 91.3231 63.3711Z" fill="#455A64"/>
<path d="M112.657 35.1587C112.657 35.1587 113.715 44.3589 103.768 45.8418C103.768 45.8418 103.284 36.3006 112.657 35.1587Z" fill="#455A64"/>
<path d="M98.3984 25.834C98.3984 25.834 106.443 29.1948 102.95 38.6223C102.942 38.6304 94.8807 34.6067 98.3984 25.834Z" fill="#455A64"/>
<path d="M93.5293 39.2964C93.5293 39.2964 104.18 40.5114 103.244 52.1037C103.252 52.1037 92.3739 50.1554 93.5293 39.2964Z" fill="#455A64"/>
<path d="M78.375 79.7582L78.5103 79.7203L78.9081 79.612C79.2598 79.52 79.7794 79.3983 80.4342 79.1845C82.2909 78.6103 84.0865 77.8544 85.7947 76.9277C88.3275 75.5447 90.6659 73.8322 92.749 71.8351C93.9789 70.6598 95.1253 69.4003 96.1802 68.0657L96.9784 66.9834L97.3843 66.4422C97.5142 66.2555 97.6333 66.0633 97.7577 65.8712C98.0094 65.4897 98.2583 65.1027 98.5127 64.7158L99.2054 63.5008C99.3218 63.2979 99.4381 63.0949 99.5518 62.892L99.8603 62.2669C100.066 61.8502 100.274 61.4551 100.469 61.0276L101.01 59.7747C101.097 59.5663 101.189 59.3634 101.281 59.155C101.373 58.9467 101.432 58.7356 101.505 58.5273L101.949 57.2906C102.074 56.8739 102.196 56.4599 102.315 56.0513C102.377 55.8484 102.436 55.6454 102.496 55.4425C102.555 55.2395 102.596 55.0366 102.645 54.8336C102.742 54.4277 102.837 54.0273 102.929 53.6322C103.529 50.8115 103.788 47.9288 103.7 45.0462C103.636 43.1027 103.419 41.1674 103.051 39.2582C102.907 38.5871 102.78 38.0675 102.702 37.7131C102.661 37.5399 102.631 37.4046 102.61 37.3099C102.588 37.2152 102.585 37.1719 102.585 37.1719L102.623 37.3072L102.723 37.7077C102.81 38.0594 102.945 38.579 103.099 39.25C103.484 41.1605 103.712 43.0988 103.784 45.0462C103.879 47.9369 103.621 50.8284 103.015 53.6565L102.745 54.8607C102.696 55.0636 102.656 55.272 102.596 55.4722C102.536 55.6725 102.477 55.8808 102.415 56.0838C102.296 56.4951 102.174 56.9091 102.049 57.3258C101.903 57.7371 101.757 58.1376 101.606 58.5678C101.533 58.7789 101.457 58.9873 101.381 59.1983C101.305 59.4094 101.208 59.6123 101.11 59.8207L100.569 61.079C100.372 61.493 100.163 61.8908 99.9577 62.321L99.6492 62.9488L99.3001 63.5603L98.6047 64.778L97.847 65.9389C97.7226 66.131 97.6008 66.3258 97.4709 66.5098L97.065 67.051L96.2532 68.1334C95.1947 69.4765 94.0417 70.7425 92.8031 71.9217C90.7134 73.9232 88.3644 75.6352 85.8191 77.0116C84.1036 77.9345 82.2984 78.6798 80.4315 79.2359C79.774 79.4443 79.249 79.5606 78.8972 79.6445L78.4968 79.7392C78.4565 79.7473 78.4158 79.7537 78.375 79.7582Z" fill="#263238"/>
<path d="M90.3259 68.3799C90.3375 68.4697 90.3375 68.5607 90.3259 68.6505C90.3123 68.8155 90.288 69.0564 90.2528 69.354C90.1798 69.9466 90.058 70.7638 89.8821 71.6595C89.7062 72.5552 89.5141 73.3588 89.3571 73.9352C89.2787 74.2247 89.211 74.4547 89.1596 74.6144C89.1397 74.6997 89.1098 74.7824 89.0703 74.8606C89.0747 74.7733 89.0901 74.687 89.1163 74.6036C89.1596 74.4142 89.211 74.1842 89.2733 73.9136C89.4086 73.3345 89.5899 72.5281 89.763 71.6351C89.9362 70.7422 90.0742 69.9304 90.1662 69.3405C90.2122 69.0699 90.2501 68.8345 90.2799 68.6451C90.2839 68.5551 90.2993 68.466 90.3259 68.3799Z" fill="#263238"/>
<path d="M92.594 77.6015C92.5031 77.6052 92.4121 77.597 92.3234 77.5772L91.6171 77.4743C91.0191 77.385 90.1965 77.2687 89.2819 77.1604C88.3673 77.0522 87.5393 76.9764 86.9385 76.925L86.2296 76.8628C86.1381 76.8628 86.047 76.85 85.959 76.8249C86.0489 76.8142 86.1397 76.8142 86.2296 76.8249C86.3973 76.8249 86.6409 76.8249 86.944 76.8493C87.5447 76.879 88.3781 76.9413 89.2927 77.0495C90.2073 77.1577 91.0326 77.2876 91.628 77.3986C91.9229 77.4527 92.1691 77.5014 92.3288 77.5393C92.4193 77.5497 92.5083 77.5706 92.594 77.6015Z" fill="#263238"/>
<path d="M103.811 66.3286C103.711 66.364 103.608 66.3894 103.503 66.4044L102.661 66.5694C101.949 66.7102 100.97 66.9158 99.8929 67.1756C98.816 67.4354 97.8527 67.7032 97.1572 67.9035L96.3319 68.1416C96.2318 68.1761 96.1284 68.2006 96.0234 68.2147C96.1188 68.168 96.2174 68.1282 96.3184 68.0956C96.5078 68.0252 96.7865 67.9332 97.1302 67.825C97.8202 67.6031 98.7862 67.3217 99.8632 67.0592C100.94 66.7967 101.925 66.6073 102.642 66.4883C102.999 66.4287 103.292 66.3854 103.492 66.3584C103.597 66.3384 103.704 66.3285 103.811 66.3286Z" fill="#263238"/>
<path d="M95.6602 57.6206C95.7324 57.7089 95.7958 57.8041 95.8496 57.9047C95.9686 58.0887 96.1202 58.3647 96.3042 58.7165C97.2373 60.5366 97.8071 62.5209 97.9819 64.5587C98.0143 64.9483 98.0306 65.2649 98.0279 65.4841C98.0395 65.5966 98.0395 65.7099 98.0279 65.8223C98.0068 65.7117 97.995 65.5994 97.9927 65.4868C97.9927 65.2676 97.9521 64.9456 97.9088 64.5668C97.6867 62.5461 97.1202 60.5784 96.2338 58.749C96.066 58.3999 95.9226 58.1185 95.8171 57.9372C95.7552 57.8367 95.7026 57.7307 95.6602 57.6206Z" fill="#263238"/>
<path d="M108.016 52.3223C107.94 52.389 107.858 52.4471 107.77 52.4954L107.088 52.9419C106.514 53.3208 105.735 53.8674 104.923 54.5276C104.111 55.1879 103.41 55.8346 102.921 56.3163L102.344 56.8926C102.278 56.9672 102.204 57.0352 102.125 57.0956C102.177 57.0102 102.239 56.9312 102.309 56.8602C102.433 56.714 102.62 56.5057 102.85 56.2567C103.474 55.6088 104.138 54.9998 104.836 54.4329C105.535 53.8664 106.268 53.344 107.031 52.8689C107.323 52.6876 107.572 52.5469 107.734 52.4549C107.824 52.4015 107.918 52.3571 108.016 52.3223Z" fill="#263238"/>
<path d="M96.3848 43.915C96.417 43.9328 96.4463 43.9557 96.4714 43.9827L96.7068 44.191C96.9097 44.375 97.1938 44.6456 97.5429 44.9893C98.2383 45.6712 99.1665 46.648 100.138 47.7818C101.109 48.9156 101.921 49.9926 102.487 50.7882C102.757 51.1859 102.99 51.5134 103.139 51.7407L103.309 52.0113C103.331 52.0411 103.348 52.0739 103.361 52.1087C103.333 52.0836 103.309 52.0555 103.288 52.0248L103.101 51.7731L102.416 50.845C101.835 50.063 101.009 48.9995 100.046 47.8684C99.0826 46.7373 98.1517 45.7551 97.4807 45.0569L96.6689 44.2452L96.4497 44.0179C96.4227 43.9873 96.4008 43.9526 96.3848 43.915Z" fill="#263238"/>
<path d="M109.223 38.1514C109.157 38.2539 109.08 38.3499 108.996 38.4382L108.349 39.2013C107.808 39.8507 107.08 40.7599 106.331 41.8071C105.581 42.8543 104.956 43.8393 104.52 44.5591L104.006 45.4168C103.947 45.5246 103.881 45.6286 103.809 45.728C103.85 45.6125 103.903 45.501 103.966 45.3952C104.071 45.1841 104.236 44.8838 104.444 44.5158C104.864 43.7825 105.481 42.7867 106.233 41.7368C106.985 40.6868 107.724 39.7803 108.284 39.1472C108.555 38.8306 108.796 38.5762 108.961 38.4084C109.042 38.3164 109.129 38.2304 109.223 38.1514Z" fill="#263238"/>
<path d="M99.5801 29.4111C99.6465 29.5174 99.7026 29.6298 99.7478 29.7467C99.8507 29.9686 99.9914 30.2879 100.159 30.6883C100.497 31.4839 100.944 32.5825 101.401 33.8354C101.858 35.0882 102.245 36.2085 102.508 37.0338C102.641 37.4478 102.741 37.7806 102.808 38.0161C102.849 38.1341 102.88 38.2554 102.9 38.3787C102.845 38.2667 102.799 38.1498 102.765 38.0296L102.427 37.0609C102.143 36.2491 101.748 35.1153 101.288 33.876C100.828 32.6366 100.397 31.5245 100.081 30.7208L99.7045 29.7656C99.6555 29.6503 99.6139 29.5318 99.5801 29.4111Z" fill="#263238"/>
<path d="M72.6429 96.5128C72.6429 96.5128 74.0446 102.111 72.6429 104.382C72.5861 104.476 72.5239 104.571 72.4589 104.652C71.5474 105.963 70.2316 106.939 68.7128 107.431C67.194 107.923 65.5558 107.904 64.0488 107.377L48.2812 101.965L49.4854 97.7332L59.6084 98.9834L70.4105 96.042L72.6429 96.5128Z" fill="#FFBE9D"/>
<path d="M65.6129 87.8672C65.6129 87.8672 70.6622 102.579 70.4106 106.108C70.1589 109.637 60.3986 128.124 60.3986 128.124L56.1232 126.159C56.1232 126.159 57.763 120.972 58.8562 116.434C59.3974 114.142 59.6247 111.358 60.0468 110.232C61.3294 106.868 62.8285 105.118 62.8285 105.118L55.9473 90.9736L65.6129 87.8672Z" fill="#FFBE9D"/>
<path d="M51.7764 78.0584C51.7764 78.0584 50.2854 82.1606 51.3164 86.0355C52.3474 89.9104 62.0509 105.789 62.0509 105.789L73.2806 99.2947C73.2806 99.2947 72.8477 85.1426 68.9349 77.2466L51.7764 78.0584Z" fill="#263238"/>
<path d="M70.3207 100.978C70.3207 100.978 70.3477 101.019 70.3856 101.102C70.4235 101.186 70.4776 101.311 70.5344 101.476C70.697 101.944 70.8051 102.428 70.8565 102.921C70.9287 103.653 70.9096 104.391 70.7996 105.118C70.7374 105.529 70.6643 105.954 70.5534 106.393C70.4424 106.831 70.2963 107.275 70.1367 107.721C69.4954 109.518 68.8081 111.096 68.3075 112.237C68.0558 112.808 67.8474 113.266 67.6986 113.59C67.6283 113.734 67.5714 113.861 67.5254 113.95C67.5068 113.994 67.4832 114.034 67.4551 114.072C67.4637 114.026 67.4783 113.982 67.4984 113.94L67.6472 113.569L68.2155 112.216C68.6917 111.063 69.3655 109.48 70.0041 107.691C70.161 107.245 70.3044 106.804 70.4181 106.376C70.5317 105.949 70.6075 105.521 70.6725 105.115C70.7877 104.4 70.8176 103.673 70.7617 102.951C70.7225 102.463 70.6318 101.98 70.4911 101.511C70.3829 101.159 70.3072 100.983 70.3207 100.978Z" fill="#EB996E"/>
<path d="M59.2505 114.502C59.2477 114.376 59.2559 114.249 59.2749 114.123C59.2965 113.877 59.3398 113.525 59.3994 113.093C59.546 111.956 59.8043 110.837 60.1706 109.751C60.5697 108.675 61.088 107.648 61.7157 106.688C61.9511 106.32 62.1486 106.022 62.2893 105.822C62.3561 105.713 62.4332 105.612 62.5193 105.519C62.4682 105.635 62.4066 105.746 62.3353 105.851C62.1946 106.084 62.016 106.393 61.7941 106.739C61.1961 107.707 60.6949 108.731 60.2977 109.797C59.9343 110.875 59.6627 111.982 59.486 113.106C59.4156 113.517 59.3588 113.861 59.3155 114.129C59.3076 114.255 59.2858 114.381 59.2505 114.502Z" fill="#EB996E"/>
<path d="M70.2582 97.8984C70.2355 97.8576 70.2182 97.8139 70.2068 97.7686L70.085 97.3924C69.9795 97.0434 69.8334 96.5806 69.6575 96.0043C69.2976 94.8299 68.7862 93.2144 68.18 91.4447C67.5739 89.6751 66.9867 88.0839 66.5565 86.9339L66.0423 85.5809C65.9882 85.4321 65.9449 85.3103 65.907 85.2102C65.888 85.1681 65.8752 85.1234 65.8691 85.0776C65.8969 85.1147 65.9188 85.1557 65.9341 85.1994L66.0937 85.562C66.2317 85.8759 66.4212 86.3359 66.6485 86.915C67.1058 88.0542 67.7065 89.6426 68.3153 91.415C68.9242 93.1874 69.4193 94.8109 69.7576 95.9907C69.9254 96.5806 70.058 97.0731 70.1418 97.3951C70.1797 97.5467 70.2122 97.6657 70.2366 97.7767C70.2495 97.816 70.2568 97.857 70.2582 97.8984Z" fill="#455A64"/>
<path d="M63.6502 86.9204C63.634 86.9394 63.2985 86.6634 62.7005 86.3035C62.3513 86.0943 61.9898 85.9064 61.6181 85.7406C61.16 85.5428 60.689 85.3764 60.2083 85.2427C59.7248 85.1172 59.2328 85.0268 58.7362 84.9722C58.3311 84.9273 57.9234 84.9083 57.5159 84.9153C56.8177 84.9289 56.3902 84.9992 56.3848 84.9722C56.4809 84.9379 56.5809 84.9151 56.6824 84.9045C56.9571 84.8567 57.2346 84.8269 57.5131 84.8152C57.9255 84.7942 58.3388 84.8033 58.7498 84.8423C59.2541 84.8924 59.7536 84.9828 60.2435 85.1129C60.7321 85.2477 61.2097 85.4196 61.6722 85.627C62.0467 85.8005 62.4084 86.0004 62.7546 86.225C62.9898 86.3742 63.2148 86.5387 63.4284 86.7175C63.5103 86.7759 63.5848 86.8441 63.6502 86.9204Z" fill="#455A64"/>
<path d="M67.7825 71.0232C67.8637 69.1669 70.0555 66.8344 69.49 61.5686C68.8947 56.0457 68.0558 51.1777 68.0558 51.1777L63.8914 52.1925L63.177 51.1777L56.3012 52.8013L55.2188 53.8214L50.4482 55.7724C50.166 55.8885 49.9101 56.0601 49.6958 56.2773C49.4815 56.4944 49.3131 56.7525 49.2007 57.0361L45.8778 65.4868L38.6556 60.6296L35.9199 64.3395C35.9199 64.3395 45.0119 72.6819 47.3877 72.4411C49.5173 72.2246 51.3006 68.9937 52.1854 67.059L53.5546 72.7658C53.5546 72.7658 51.3899 76.5812 50.9542 83.0484L65.2362 83.5896C65.6768 83.6068 66.1154 83.5214 66.5174 83.3402C66.9193 83.1589 67.2737 82.8867 67.5525 82.5451L70.2585 79.2412C70.2585 79.2412 67.7013 72.8687 67.7825 71.0232Z" fill="#FF6D38"/>
<path d="M66.1094 52.1977L67.9521 51.3534L75.1906 45.0459L77.7937 34.0435L82.3938 35.9674C82.3938 35.9674 81.9527 44.2341 81.3764 47.0618C80.8 49.8895 69.1752 59.1168 69.1752 59.1168L66.1094 52.1977Z" fill="#FF6D38"/>
<path d="M68.6347 53.8833C68.696 54.1936 68.7403 54.5071 68.7673 54.8223C68.8457 55.4419 68.9459 56.2267 69.0541 57.0926C69.1623 57.9585 69.2544 58.7865 69.3031 59.3683C69.3301 59.6605 69.3464 59.9095 69.3545 60.061C69.3673 60.1462 69.3673 60.2328 69.3545 60.3181C69.2865 60.0085 69.2386 59.6948 69.2111 59.3791C69.1326 58.7594 69.0325 57.9774 68.9215 57.1115C68.8106 56.2456 68.7213 55.4176 68.6753 54.8331C68.6509 54.5408 68.6374 54.3054 68.632 54.1404C68.6192 54.0551 68.6201 53.9683 68.6347 53.8833Z" fill="#263238"/>
<path d="M63.6924 68.6609C63.6435 68.6188 63.5982 68.5727 63.5571 68.5229L63.1918 68.1062C62.8671 67.73 62.4125 67.2051 61.8605 66.5611L57.5093 61.4198L55.1173 58.5758L55.0875 58.5406L55.1118 58.5027L55.6449 57.5746L55.7099 57.6639C55.396 57.7288 55.101 57.7451 54.8304 57.8019L54.752 57.8208V57.7397C54.8981 56.5923 55.0225 55.6426 55.1037 54.9634C55.147 54.6441 55.1822 54.3897 55.2093 54.2003C55.2166 54.1087 55.233 54.0181 55.258 53.9297C55.2598 54.0202 55.2544 54.1107 55.2417 54.2003C55.2228 54.3924 55.1984 54.6468 55.166 54.9688C55.0929 55.648 54.9901 56.5923 54.8656 57.7505L54.7952 57.691C55.0658 57.626 55.377 57.6071 55.6747 57.5421L55.8073 57.5124L55.7423 57.6314C55.5773 57.9291 55.4041 58.2403 55.2228 58.5623V58.4892C55.9561 59.3605 56.7706 60.3211 57.623 61.3305L61.9525 66.4934L63.2486 68.0683L63.595 68.5012C63.6331 68.5508 63.6657 68.6044 63.6924 68.6609Z" fill="#263238"/>
<path d="M64.7627 67.8787C64.7608 67.8188 64.7662 67.7588 64.7789 67.7001L64.8519 67.1887C64.9196 66.7449 65.0278 66.1063 65.1685 65.3135C65.3093 64.5206 65.4743 63.5844 65.6286 62.5372C65.8032 61.4049 65.9036 60.2623 65.9289 59.1169C65.9607 57.8779 65.8701 56.6389 65.6583 55.4178L65.707 55.4665L64.7627 55.2419L64.6192 55.2068L64.7464 55.131L65.4364 54.7251L65.4202 54.8036C65.1198 54.376 64.898 53.9674 64.6896 53.6102C64.4812 53.2531 64.3108 52.95 64.1646 52.6902C64.0185 52.4305 63.894 52.2437 63.821 52.1111C63.7748 52.047 63.7341 51.9791 63.6992 51.9082C63.7157 51.9214 63.7303 51.9369 63.7425 51.9542C63.7801 51.9992 63.8153 52.0462 63.848 52.0949C63.9373 52.2194 64.0618 52.4115 64.2161 52.6578L64.7572 53.567C64.971 53.916 65.2037 54.3246 65.5014 54.7386L65.5366 54.7873L65.4851 54.8198L64.8005 55.2338L64.7843 55.1256L65.7287 55.3421H65.7693V55.3826C65.9978 56.6138 66.1002 57.865 66.075 59.1169C66.0482 60.2702 65.9415 61.4203 65.7557 62.5588C65.5961 63.6087 65.4148 64.5477 65.266 65.3351C65.1171 66.1226 64.9954 66.7422 64.9061 67.1995C64.8655 67.4079 64.833 67.5757 64.806 67.7056C64.7974 67.7646 64.7829 67.8226 64.7627 67.8787Z" fill="#263238"/>
<path d="M65.6573 70.7905C65.5943 70.8463 65.5231 70.8919 65.4462 70.9258C65.3055 71.0043 65.0998 71.1098 64.8428 71.2343C63.4981 71.8782 62.0884 72.3762 60.6377 72.7199C60.3671 72.7848 60.1344 72.8335 59.9775 72.8606C59.8965 72.8829 59.8124 72.892 59.7285 72.8876C60.0181 72.7809 60.3136 72.6905 60.6134 72.617C61.1545 72.4628 61.9149 72.2355 62.7321 71.946C63.5493 71.6564 64.2799 71.3588 64.8022 71.1342C65.0797 71.0019 65.3653 70.8871 65.6573 70.7905Z" fill="#263238"/>
<path d="M65.8877 73.0038C65.6649 73.0296 65.4404 73.0359 65.2166 73.0228C64.8026 73.0228 64.2316 73.0228 63.593 73.0552C62.9544 73.0877 62.3943 73.1283 61.983 73.1635C61.766 73.1926 61.5467 73.2008 61.3281 73.1878C61.5427 73.1192 61.7641 73.0738 61.9884 73.0525C62.3997 72.993 62.9733 72.9307 63.6119 72.9037C64.2506 72.8766 64.8215 72.8875 65.2355 72.9037C65.4561 72.9112 65.675 72.9448 65.8877 73.0038Z" fill="#263238"/>
<path d="M64.8457 70.8468C64.7641 70.3569 64.7279 69.8605 64.7374 69.364C64.7016 68.8689 64.7125 68.3715 64.7699 67.8784C64.8531 68.3681 64.8893 68.8647 64.8781 69.3613C64.9156 69.8563 64.9047 70.3539 64.8457 70.8468Z" fill="#263238"/>
<path d="M64.6258 72.8709C64.5197 72.6283 64.4565 72.3692 64.439 72.1051C64.3756 71.8467 64.3591 71.5791 64.3903 71.3149C64.56 71.8156 64.6397 72.3424 64.6258 72.8709Z" fill="#263238"/>
<path d="M66.3181 83.4297C66.2911 83.2969 66.2766 83.1619 66.2748 83.0265C66.2558 82.7559 66.2288 82.3879 66.1855 81.9251C66.107 80.9943 65.9663 79.7117 65.7579 78.3046C65.5496 76.8975 65.3033 75.623 65.1166 74.7192C65.0219 74.2619 64.9353 73.8939 64.8785 73.6368C64.8391 73.5064 64.8137 73.3721 64.8027 73.2363C64.8563 73.3616 64.8998 73.491 64.9326 73.6233C65.0057 73.8722 65.1058 74.2375 65.2032 74.6921C65.4251 75.6013 65.6849 76.8704 65.8959 78.2802C66.107 79.69 66.2315 80.9862 66.2856 81.9143C66.3154 82.3825 66.3262 82.7586 66.3289 83.0211C66.3389 83.1573 66.3352 83.2942 66.3181 83.4297Z" fill="#263238"/>
<g opacity="0.3">
<path d="M54.7649 57.7831L55.0842 57.9157L54.7324 58.7275C54.7324 58.7275 60.1443 65.3463 61.6245 66.6262C63.4104 68.1794 63.4618 68.3796 63.4618 68.3796L55.1681 58.5273L55.6903 57.5991L54.7649 57.7831Z" fill="black"/>
</g>
<g opacity="0.3">
<path d="M58.6523 73.215L66.6187 70.731C66.6656 70.9629 66.6478 71.2032 66.5671 71.4257C66.4864 71.6481 66.3461 71.844 66.1614 71.9919C65.7862 72.2817 65.3521 72.4858 64.8896 72.5899C62.971 73.1311 60.6575 73.4667 58.6821 73.215" fill="black"/>
</g>
<path d="M47.8457 67.2346C47.3959 66.3302 46.6057 65.6412 45.6484 65.3188C45.8001 65.3143 45.9508 65.3438 46.0895 65.4054C46.7854 65.65 47.3614 66.1515 47.6996 66.8071C47.7782 66.9375 47.8281 67.0833 47.8457 67.2346Z" fill="#263238"/>
<path d="M50.6777 59.8394C50.6983 59.8794 50.7129 59.9223 50.721 59.9665C50.7481 60.0694 50.7806 60.1911 50.8184 60.34C50.8996 60.689 51.0106 61.1517 51.1459 61.7227C51.4165 62.889 51.7845 64.5044 52.1795 66.2876C52.5746 68.0709 52.9156 69.6728 53.1753 70.8634C53.2944 71.4344 53.3918 71.9052 53.4622 72.2543C53.4919 72.4058 53.5163 72.5249 53.5352 72.6331C53.5458 72.6766 53.5521 72.721 53.5542 72.7657C53.4918 72.6033 53.4438 72.4358 53.4107 72.2651C53.3269 71.9187 53.2132 71.4533 53.0779 70.8851C52.8073 69.7188 52.4366 68.106 52.0415 66.3201C51.6465 64.5342 51.2947 62.9052 51.0457 61.7443C50.9294 61.1734 50.832 60.7026 50.7751 60.3535C50.7481 60.202 50.7237 60.0829 50.7048 59.9719C50.6903 59.9291 50.6812 59.8845 50.6777 59.8394Z" fill="#263238"/>
<path d="M37.0948 63.9873C37.0679 64.0983 37.0735 64.2148 37.111 64.3228C37.1323 64.3766 37.1651 64.4251 37.2072 64.4649C37.2493 64.5046 37.2996 64.5347 37.3545 64.5528C37.4209 64.5681 37.4904 64.5628 37.5537 64.5377C37.617 64.5126 37.6712 64.4688 37.709 64.4121C37.7523 64.3599 37.779 64.2959 37.7858 64.2285C37.7925 64.161 37.779 64.093 37.7469 64.0333C37.7134 63.9861 37.6702 63.9465 37.6203 63.9171C37.5704 63.8877 37.5149 63.8692 37.4574 63.8628C37.3429 63.8566 37.2291 63.8839 37.1299 63.9413C37.1299 63.9413 37.1299 63.898 37.1895 63.852C37.267 63.7927 37.3626 63.7621 37.4601 63.7654C37.5359 63.7655 37.6107 63.7834 37.6784 63.8177C37.7461 63.852 37.8048 63.9018 37.8497 63.9629C37.8972 64.0458 37.9192 64.1408 37.913 64.2361C37.9069 64.3314 37.8729 64.4228 37.8152 64.499C37.7576 64.5751 37.6788 64.6326 37.5887 64.6643C37.4986 64.696 37.4012 64.7005 37.3085 64.6773C37.2371 64.6516 37.1727 64.6093 37.121 64.5537C37.0692 64.4982 37.0314 64.4311 37.0109 64.358C36.9755 64.2647 36.9755 64.1617 37.0109 64.0684C37.0542 64.0062 37.0894 63.9873 37.0948 63.9873Z" fill="#263238"/>
<path d="M78.4014 35.5752C78.4014 35.5752 78.4231 35.5346 78.5015 35.5129C78.5559 35.5056 78.6113 35.5093 78.6643 35.5237C78.7172 35.5381 78.7668 35.563 78.81 35.5968C78.9441 35.6937 79.0345 35.8396 79.0617 36.0027C79.0693 36.1088 79.0412 36.2144 78.9819 36.3027C78.9226 36.391 78.8354 36.4568 78.7343 36.4898C78.6384 36.5297 78.5332 36.5413 78.431 36.523C78.3288 36.5048 78.234 36.4576 78.1579 36.387C78.1015 36.3241 78.0631 36.2472 78.0464 36.1644C78.0298 36.0817 78.0355 35.9959 78.0632 35.9161C78.1498 35.6455 78.3013 35.5644 78.3094 35.5752C78.2491 35.6923 78.1993 35.8146 78.1606 35.9405C78.1436 36.0023 78.1429 36.0674 78.1585 36.1295C78.1742 36.1916 78.2056 36.2486 78.2499 36.295C78.3096 36.3446 78.3818 36.3769 78.4586 36.3883C78.5354 36.3998 78.6139 36.3899 78.6855 36.3599C78.7583 36.3371 78.8216 36.2912 78.866 36.2292C78.9105 36.1672 78.9335 36.0925 78.9318 36.0163C78.9134 35.8842 78.8481 35.7631 78.7478 35.6753C78.683 35.6121 78.5974 35.5746 78.507 35.5698C78.442 35.5752 78.4068 35.5995 78.4014 35.5752Z" fill="#263238"/>
<path d="M40.1932 54.1489C41.9683 51.884 44.3658 50.09 47.2611 49.6299C48.7548 49.3891 50.2025 49.6299 51.6204 50.1197C53.1249 50.6311 54.5672 51.2373 56.1556 51.4456C57.9794 51.6865 59.8114 51.5187 61.6298 51.3103C61.9815 51.2697 63.2831 50.9396 63.2831 50.5554C63.2831 50.2307 61.9842 49.9547 61.6298 49.9952C59.9791 50.1847 58.3096 50.3497 56.6481 50.1901C55.0245 50.0331 53.5498 49.3918 52.0263 48.8723C50.5401 48.3241 48.947 48.1277 47.3721 48.2986C45.7964 48.5 44.2827 49.039 42.9343 49.8789C41.5238 50.7689 40.2809 51.9001 39.2624 53.2207C39.1452 53.3469 39.0801 53.5127 39.0801 53.6848C39.0801 53.857 39.1452 54.0227 39.2624 54.1489C39.3864 54.2712 39.5536 54.3397 39.7278 54.3397C39.902 54.3397 40.0692 54.2712 40.1932 54.1489Z" fill="#455A64"/>
<g opacity="0.3">
<path d="M40.1964 54.1682C41.9715 51.9033 44.369 50.1093 47.2643 49.6493C48.7365 49.4492 50.2352 49.6175 51.6263 50.1391C53.1309 50.6478 54.5731 51.2566 56.1588 51.465C57.9826 51.7058 59.8173 51.538 61.633 51.3297C61.9874 51.2891 63.2809 51.0591 63.2809 50.6775C63.2809 50.3528 61.9874 49.974 61.633 50.0146C59.9823 50.204 58.3128 50.3691 56.6513 50.2067C55.0277 50.0525 53.5557 49.4112 52.0322 48.8916C50.5449 48.344 48.9513 48.1467 47.3753 48.3152C45.7995 48.518 44.2859 49.0579 42.9375 49.8982C41.5278 50.7882 40.2858 51.9195 39.2683 53.2401C39.1499 53.3656 39.084 53.5316 39.084 53.7041C39.084 53.8767 39.1499 54.0427 39.2683 54.1682C39.3918 54.2903 39.5586 54.3588 39.7323 54.3588C39.9061 54.3588 40.0728 54.2903 40.1964 54.1682Z" fill="black"/>
</g>
<path d="M65.9284 38.1753C66.5454 37.8262 66.6672 36.8873 66.2477 36.3109C66.021 36.0358 65.717 35.8351 65.375 35.7348C65.0329 35.6344 64.6686 35.639 64.3292 35.748C64.402 35.5427 64.4066 35.3193 64.3422 35.1111C64.2779 34.9029 64.148 34.7211 63.972 34.5926C63.6129 34.3441 63.1825 34.2196 62.7462 34.2381C62.1645 34.2381 61.4988 34.4194 61.2607 34.9498C61.1687 34.6034 60.7763 34.4275 60.4191 34.4086C59.9395 34.3922 59.4707 34.5532 59.1023 34.8607C58.7339 35.1682 58.4917 35.6007 58.4221 36.0755C58.1022 35.8929 57.7334 35.8144 57.3668 35.8509C57.1845 35.8736 57.0148 35.956 56.8841 36.0852C56.7535 36.2144 56.6692 36.3832 56.6443 36.5652C56.5218 36.4324 56.368 36.3324 56.1969 36.2742C56.0258 36.2161 55.8429 36.2017 55.6648 36.2324C55.4021 36.2399 55.1481 36.3278 54.9369 36.4841C54.8333 36.5641 54.7566 36.6738 54.717 36.7985C54.6774 36.9232 54.6766 37.0571 54.715 37.1822C54.4658 37.1397 54.2098 37.1913 53.9965 37.3268C53.7832 37.4624 53.6277 37.6723 53.5604 37.9159C53.493 38.1595 53.5184 38.4194 53.6318 38.6453C53.7451 38.8712 53.9382 39.047 54.1738 39.1386C54.0028 39.2793 53.8705 39.4613 53.7893 39.6673C53.7081 39.8734 53.6807 40.0967 53.7096 40.3162C53.7386 40.5358 53.823 40.7443 53.9548 40.9222C54.0867 41.1001 54.2617 41.2416 54.4633 41.3331C54.414 41.3548 54.3703 41.3874 54.3355 41.4284C54.3007 41.4695 54.2757 41.5179 54.2624 41.5701C54.2491 41.6223 54.2479 41.6768 54.2588 41.7295C54.2697 41.7822 54.2924 41.8317 54.3253 41.8743C54.4552 42.0529 54.3686 42.0637 54.5959 42.0583C54.6392 42.816 54.6987 43.3978 54.742 44.1554C54.7718 44.6452 54.761 45.2865 54.9396 45.7411C55.0735 45.9957 55.2565 46.2212 55.478 46.4047C55.6996 46.5881 55.9553 46.7259 56.2303 46.81L65.2547 43.4221C65.5539 43.1042 65.757 42.7079 65.8403 42.2793C65.9237 41.8507 65.8838 41.4072 65.7255 41.0003C65.6966 40.9641 65.6764 40.9217 65.6663 40.8765C65.6561 40.8313 65.6564 40.7843 65.6671 40.7393C65.6778 40.6942 65.6986 40.6521 65.7279 40.6162C65.7573 40.5803 65.7944 40.5516 65.8364 40.5322C66.0193 40.3915 66.1717 40.215 66.2842 40.0136C66.3968 39.8122 66.4673 39.59 66.4913 39.3605C66.5083 39.1311 66.4654 38.9012 66.3667 38.6934C66.2681 38.4856 66.117 38.307 65.9284 38.1753Z" fill="#263238"/>
<path d="M65.1177 41.2575C64.9148 39.4309 62.8583 37.6937 61.0588 37.9724L55.2031 39.3633L55.2708 40.3483L56.7645 53.6074L63.0937 57.3795L62.723 50.8609C62.723 50.8609 65.0339 50.363 65.3694 47.2836C65.5372 45.7656 65.3396 43.2761 65.1177 41.2575Z" fill="#FFBE9D"/>
<path d="M63.9893 43.9123C63.9946 44.0138 63.9603 44.1133 63.8937 44.1901C63.8271 44.2668 63.7333 44.3147 63.6321 44.3236C63.5338 44.3335 63.4356 44.304 63.3591 44.2416C63.2825 44.1792 63.2337 44.089 63.2235 43.9908C63.2168 43.8887 63.2505 43.7881 63.3173 43.7106C63.3841 43.6332 63.4787 43.5851 63.5807 43.5768C63.6792 43.5677 63.7774 43.5978 63.8539 43.6606C63.9304 43.7235 63.979 43.8139 63.9893 43.9123Z" fill="#263238"/>
<path d="M64.6377 42.5671C64.5917 42.6213 64.2832 42.4156 63.8638 42.4372C63.4443 42.4589 63.1467 42.6835 63.1007 42.6348C63.0547 42.5861 63.1196 42.5184 63.2495 42.4129C63.4254 42.2795 63.6378 42.203 63.8584 42.1937C64.0777 42.1805 64.2953 42.2394 64.478 42.3615C64.6106 42.4535 64.6593 42.5455 64.6377 42.5671Z" fill="#263238"/>
<path d="M60.3138 44.0285C60.3206 44.1299 60.2872 44.2298 60.2208 44.3068C60.1545 44.3837 60.0606 44.4315 59.9593 44.4398C59.9098 44.4462 59.8596 44.4426 59.8115 44.4293C59.7634 44.4159 59.7184 44.393 59.6793 44.362C59.6402 44.331 59.6077 44.2924 59.5838 44.2486C59.5599 44.2048 59.5449 44.1567 59.5399 44.107C59.5332 44.0054 59.5665 43.9051 59.6327 43.8277C59.699 43.7503 59.7929 43.702 59.8944 43.693C59.9441 43.6866 59.9946 43.6903 60.0429 43.7038C60.0911 43.7173 60.1362 43.7405 60.1753 43.7718C60.2144 43.8031 60.2469 43.8419 60.2707 43.8861C60.2945 43.9302 60.3091 43.9786 60.3138 44.0285Z" fill="#263238"/>
<path d="M60.529 42.9326C60.483 42.9867 60.1773 42.7811 59.7578 42.8027C59.3384 42.8244 59.0408 43.049 58.9921 42.9976C58.9434 42.9461 59.0137 42.8839 59.1436 42.7784C59.3173 42.6438 59.5284 42.5664 59.7479 42.5567C59.9674 42.547 60.1845 42.6055 60.3694 42.7243C60.5155 42.819 60.5507 42.9083 60.529 42.9326Z" fill="#263238"/>
<path d="M62.1882 45.8984C62.4059 45.8168 62.6333 45.764 62.8647 45.7414C62.9702 45.7252 63.0703 45.6981 63.0866 45.6251C63.0896 45.5133 63.0595 45.4031 63 45.3085L62.6428 44.4967C62.1449 43.3494 61.7796 42.405 61.831 42.386C61.8824 42.3671 62.3181 43.279 62.816 44.4263C62.935 44.6969 63.0487 44.9675 63.1596 45.2381C63.2324 45.365 63.2591 45.5132 63.2354 45.6575C63.2217 45.6967 63.1993 45.7322 63.1697 45.7613C63.1401 45.7904 63.1043 45.8123 63.0649 45.8253C63.0071 45.8439 62.947 45.8548 62.8863 45.8578C62.6561 45.8992 62.4217 45.9128 62.1882 45.8984Z" fill="#263238"/>
<path d="M62.7203 50.872C61.288 50.9621 59.859 50.651 58.5938 49.9736C58.5938 49.9736 59.8385 52.2439 62.8692 51.8137L62.7203 50.872Z" fill="#EB996E"/>
<path d="M62.0624 46.9208C61.9775 46.8241 61.8693 46.7505 61.7482 46.7069C61.627 46.6634 61.4968 46.6513 61.3697 46.6719C61.2782 46.6832 61.19 46.7131 61.1105 46.7596C61.0309 46.8061 60.9617 46.8683 60.907 46.9424C60.8556 47.0163 60.8281 47.1041 60.8281 47.1941C60.8281 47.2841 60.8556 47.3719 60.907 47.4458C60.9776 47.5187 61.0686 47.5686 61.1681 47.5889C61.2676 47.6092 61.3709 47.5989 61.4644 47.5594C61.66 47.4802 61.8376 47.3624 61.9866 47.213C62.0322 47.1771 62.0707 47.1331 62.1003 47.0832C62.1149 47.0596 62.1227 47.0324 62.1227 47.0047C62.1227 46.977 62.1149 46.9498 62.1003 46.9262" fill="#EB996E"/>
<path d="M60.9687 46.2471C61.0363 46.2471 61.0607 46.6963 61.4666 47.0047C61.8725 47.3132 62.3541 47.2374 62.3596 47.2997C62.365 47.3619 62.2567 47.3944 62.0511 47.4106C61.7846 47.4268 61.521 47.3482 61.3069 47.1887C61.1006 47.0343 60.9612 46.8068 60.9173 46.5528C60.8929 46.3607 60.9362 46.2471 60.9687 46.2471Z" fill="#263238"/>
<path d="M60.5835 41.4199C60.5456 41.5363 60.1262 41.5038 59.6364 41.585C59.1467 41.6662 58.7543 41.8231 58.6839 41.723C58.6515 41.6743 58.7164 41.5633 58.8706 41.4524C59.0789 41.3072 59.3174 41.211 59.5681 41.1712C59.8188 41.1314 60.0753 41.1489 60.3183 41.2224C60.5159 41.2792 60.597 41.3658 60.5835 41.4199Z" fill="#263238"/>
<path d="M64.4233 41.3545C64.3529 41.4546 64.058 41.3545 63.7116 41.3815C63.3653 41.4086 63.073 41.4762 63 41.3815C62.9675 41.3328 63 41.2354 63.1326 41.138C63.3 41.0205 63.499 40.9564 63.7035 40.954C63.908 40.9483 64.1093 41.006 64.2799 41.1191C64.4071 41.2111 64.4531 41.3058 64.4233 41.3545Z" fill="#263238"/>
<path d="M63.6862 37.7858L63.4968 37.7073C63.7917 37.0471 63.2938 36.2001 62.5903 36.035C62.2333 35.9737 61.866 36.0293 61.5432 36.1936C61.2204 36.3579 60.9593 36.6222 60.7989 36.9469C60.6368 36.6636 60.3836 36.4434 60.0805 36.3221C59.7774 36.2007 59.4422 36.1854 59.1293 36.2786C58.6179 36.4491 58.2526 36.8874 57.9008 37.2987C57.8224 37.3907 57.7222 37.4908 57.6005 37.4773C57.5138 37.4544 57.4363 37.4052 57.3786 37.3366C57.0739 37.0853 56.7005 36.9315 56.3072 36.8953C55.9139 36.8591 55.5187 36.9422 55.1732 37.1337C54.8329 37.3334 54.5361 37.5994 54.3005 37.916C54.0648 38.2325 53.8951 38.5931 53.8013 38.9764C53.7032 39.2863 53.6864 39.6161 53.7526 39.9343C53.787 40.092 53.8624 40.2379 53.9712 40.3572C54.08 40.4764 54.2184 40.5648 54.3723 40.6135C54.2349 40.8065 54.1437 41.0284 54.1057 41.2622C54.0678 41.496 54.0841 41.7354 54.1534 41.9619C54.2227 42.1884 54.3432 42.3959 54.5054 42.5684C54.6677 42.741 54.8675 42.8739 55.0894 42.9569C55.1219 43.06 55.1664 43.159 55.222 43.2518C55.1706 43.8077 55.1516 44.366 55.1651 44.9241C55.157 45.1652 55.2071 45.4047 55.3112 45.6222C55.3667 45.7286 55.4545 45.8147 55.5619 45.8682C55.6693 45.9217 55.7909 45.9398 55.9093 45.9199C56.1609 45.8495 56.5127 45.7196 56.5885 45.468C56.721 45.0188 56.5749 44.3991 56.6101 43.931C56.8707 43.8922 57.1147 43.7793 57.313 43.6058C57.5113 43.4322 57.6555 43.2053 57.7285 42.9521C57.8015 42.699 57.8002 42.4301 57.7247 42.1776C57.6493 41.9252 57.5028 41.6997 57.3028 41.5281C57.5213 41.6192 57.7582 41.6571 57.9942 41.6387C58.2302 41.6202 58.4584 41.546 58.66 41.422C58.8616 41.2981 59.0309 41.128 59.1539 40.9258C59.2769 40.7236 59.3501 40.4951 59.3675 40.259C59.5833 40.4607 59.84 40.6134 60.1202 40.7068C60.4004 40.8002 60.6974 40.8321 60.991 40.8002C61.2734 40.7848 61.5386 40.6596 61.7298 40.4512C61.8204 40.3435 61.8683 40.2062 61.8643 40.0655C61.8603 39.9248 61.8047 39.7905 61.7081 39.6881C61.9775 39.8085 62.2763 39.847 62.5673 39.7989C62.8584 39.7508 63.1289 39.6181 63.3452 39.4175C63.5541 39.2079 63.6976 38.942 63.7581 38.6523C63.8187 38.3626 63.7937 38.0615 63.6862 37.7858Z" fill="#263238"/>
<path d="M56.0549 44.41C56.0089 44.391 54.2393 43.9283 54.3529 45.7224C54.4666 47.5164 56.2335 47.0374 56.2335 46.986C56.2335 46.9346 56.0549 44.41 56.0549 44.41Z" fill="#FFBE9D"/>
<path d="M55.6461 46.3391C55.6461 46.3391 55.6163 46.3634 55.5649 46.3905C55.4928 46.427 55.4093 46.4338 55.3322 46.4094C55.2122 46.3421 55.1121 46.2444 55.0418 46.1261C54.9715 46.0078 54.9336 45.8732 54.9317 45.7356C54.9188 45.5825 54.9391 45.4283 54.9912 45.2837C55.0048 45.2269 55.0317 45.1741 55.0699 45.1299C55.108 45.0856 55.1562 45.0512 55.2104 45.0294C55.2458 45.0174 55.2844 45.0184 55.3191 45.0323C55.3539 45.0462 55.3825 45.072 55.3998 45.1051C55.4269 45.1539 55.4188 45.189 55.4269 45.1917C55.435 45.1944 55.4648 45.1593 55.4458 45.0862C55.4327 45.0423 55.405 45.0041 55.3674 44.978C55.3423 44.961 55.314 44.9491 55.2843 44.9431C55.2546 44.937 55.224 44.9369 55.1942 44.9428C55.1215 44.9616 55.0549 44.9989 55.0008 45.051C54.9468 45.1032 54.9071 45.1684 54.8857 45.2404C54.8186 45.4001 54.7925 45.5741 54.8099 45.7465C54.81 45.9069 54.8576 46.0637 54.9467 46.1971C55.0358 46.3305 55.1624 46.4345 55.3105 46.496C55.3577 46.5046 55.4061 46.5033 55.4527 46.4921C55.4993 46.481 55.5431 46.4602 55.5811 46.4311C55.6461 46.3824 55.6461 46.3418 55.6461 46.3391Z" fill="#EB996E"/>
<path d="M59.2793 39.9559C59.2955 39.9576 59.3118 39.9576 59.328 39.9559L59.4714 39.9721C59.6522 39.9858 59.8341 39.9767 60.0126 39.9451C60.1425 39.92 60.2688 39.8791 60.3887 39.8233C60.531 39.7593 60.659 39.6673 60.7649 39.5527C60.8846 39.4164 60.9691 39.2529 61.0111 39.0765C61.0582 38.8772 61.0313 38.6675 60.9353 38.4866L60.8866 38.5326C61.2607 38.7717 61.7023 38.8828 62.1449 38.8492C62.3865 38.8343 62.6232 38.7746 62.843 38.6733C62.9583 38.6196 63.0658 38.5504 63.1623 38.4676C63.2607 38.3776 63.3327 38.2626 63.3707 38.1348C63.4089 37.9871 63.4136 37.8326 63.3842 37.6829C63.3606 37.5387 63.3253 37.3966 63.2787 37.2581C63.2361 37.1215 63.1751 36.9913 63.0974 36.8711C63.0589 36.8092 63.0072 36.7567 62.9458 36.7174C62.8845 36.6781 62.8152 36.653 62.7429 36.6438V36.7169C63.0084 36.7846 63.289 36.7598 63.5385 36.6465C63.7677 36.5489 63.9646 36.3885 64.1067 36.1838C64.2301 36.0042 64.2987 35.7927 64.3043 35.575C64.3057 35.3475 64.2475 35.1236 64.1355 34.9256C64.0234 34.7276 63.8614 34.5624 63.6657 34.4466C63.582 34.3971 63.4905 34.3623 63.3951 34.3438C63.4801 34.381 63.5632 34.4225 63.644 34.4682C63.8631 34.6068 64.0349 34.8088 64.1365 35.0473C64.2086 35.2136 64.2437 35.3937 64.2393 35.575C64.2348 35.785 64.1669 35.9887 64.0445 36.1594C63.9084 36.3518 63.7208 36.5018 63.5033 36.5924C63.2676 36.6972 63.0034 36.7191 62.7537 36.6546L62.7402 36.7304C62.8015 36.7388 62.8601 36.761 62.9116 36.7952C62.9631 36.8294 63.0063 36.8747 63.0379 36.9279C63.112 37.0405 63.1686 37.1637 63.2056 37.2932C63.3137 37.556 63.3456 37.8439 63.2976 38.124C63.2574 38.2356 63.1932 38.3371 63.1095 38.4213C63.0258 38.5054 62.9247 38.5702 62.8133 38.611C62.6018 38.7086 62.3745 38.7673 62.1422 38.7842C61.7158 38.8179 61.2898 38.7135 60.9272 38.4866L60.8109 38.4108L60.8785 38.5326C60.9688 38.6978 60.9948 38.8905 60.9516 39.0738C60.9138 39.2409 60.8368 39.3967 60.727 39.5284C60.6274 39.6417 60.5059 39.7338 60.3698 39.799C60.2547 39.8556 60.1328 39.8974 60.0072 39.9234C59.8293 39.9603 59.6476 39.9757 59.466 39.9694C59.4041 39.9611 59.3418 39.9566 59.2793 39.9559Z" fill="white"/>
<path d="M64.0352 39.044C64.0352 39.044 64.0703 39.0684 64.1407 39.0873C64.2698 39.1203 64.4048 39.122 64.5347 39.0923C64.6646 39.0627 64.7855 39.0025 64.8875 38.9169C64.9262 38.8828 64.9577 38.8413 64.98 38.7948C65.0023 38.7483 65.015 38.6978 65.0174 38.6463C65.0198 38.5912 65.0066 38.5366 64.9793 38.4887C64.9521 38.4408 64.9118 38.4016 64.8632 38.3757L64.8361 38.4514H64.8632C65.038 38.4916 65.2196 38.4927 65.395 38.4548C65.5703 38.417 65.7352 38.341 65.8779 38.2322C65.9638 38.1672 66.0395 38.0897 66.1025 38.0022C66.1278 37.9718 66.147 37.937 66.1593 37.8994C66.063 38.0037 65.958 38.0997 65.8454 38.1862C65.7066 38.2825 65.5493 38.349 65.3836 38.3816C65.2178 38.4142 65.0471 38.4122 64.8821 38.3757H64.8578L64.4816 38.2918L64.8307 38.4487C64.8667 38.469 64.8962 38.4991 64.9159 38.5355C64.9355 38.5719 64.9444 38.6131 64.9417 38.6544C64.9353 38.736 64.8986 38.8122 64.8388 38.8681C64.7288 38.9674 64.5926 39.0332 64.4465 39.0576C64.3094 39.0732 64.1709 39.0686 64.0352 39.044Z" fill="white"/>
<path d="M78.5782 34.2682L78.7757 33.1479C78.7757 33.1479 78.1208 30.7125 78.1885 30.3608C78.2561 30.009 78.3292 28.3394 78.3292 28.3394L80.0123 26.4452C80.1309 26.4408 80.2482 26.4716 80.3493 26.5337C80.4505 26.5958 80.5309 26.6865 80.5806 26.7943C80.5806 26.7943 81.3491 26.7321 81.5222 27.2516C81.5883 27.2162 81.6623 27.1981 81.7373 27.1992C81.8123 27.2003 81.8857 27.2205 81.9507 27.2579C82.0157 27.2952 82.0701 27.3486 82.1088 27.4128C82.1474 27.4771 82.1691 27.5501 82.1717 27.625C82.2062 27.785 82.2217 27.9485 82.2177 28.1121C82.3286 28.1365 82.9672 28.288 82.9726 28.6046C82.953 29.0915 82.8618 29.573 82.702 30.0333C82.6685 30.1152 82.6155 30.1876 82.5476 30.2442C82.4797 30.3008 82.3989 30.3399 82.3124 30.3581L82.123 31.2213C82.123 31.2213 81.9579 32.6392 81.6413 33.2994L81.4005 33.6918L81.3274 35.4588L78.5782 34.2682Z" fill="#FFBE9D"/>
<path d="M81.0817 27.9795C80.9901 27.5272 80.8058 27.0987 80.5405 26.7212L79.8965 27.1325C79.9715 27.3515 80.0619 27.5649 80.1671 27.7711C80.2119 27.8928 80.2839 28.0027 80.3777 28.0923C80.4715 28.1819 80.5846 28.2488 80.7083 28.2879C80.8517 28.3231 81.0357 28.2879 81.0817 28.1472C81.0952 28.0921 81.0952 28.0346 81.0817 27.9795Z" fill="#FFBE9D"/>
<path d="M79.9004 27.1324C79.9034 27.1778 79.9135 27.2225 79.9302 27.2649C79.9684 27.3816 80.0145 27.4955 80.0682 27.6059C80.1006 27.679 80.1331 27.7574 80.171 27.8413C80.2122 27.9312 80.267 28.0142 80.3333 28.0876C80.4086 28.1711 80.5009 28.2375 80.6039 28.2824C80.6608 28.3066 80.722 28.319 80.7839 28.319C80.8457 28.319 80.9069 28.3066 80.9638 28.2824C80.9943 28.2698 81.0218 28.251 81.0446 28.2273C81.0674 28.2035 81.0851 28.1753 81.0964 28.1444C81.1112 28.0849 81.1112 28.0226 81.0964 27.9631C81.0791 27.8549 81.0538 27.7482 81.0207 27.6438C80.9665 27.4692 80.8968 27.2998 80.8123 27.1378C80.7392 26.9971 80.6716 26.8915 80.6256 26.8185C80.6017 26.7793 80.5746 26.7421 80.5444 26.7075C80.5621 26.7496 80.5829 26.7903 80.6066 26.8293C80.6499 26.9051 80.7095 27.0133 80.7771 27.154C80.8572 27.3167 80.9233 27.486 80.9747 27.66C81.0034 27.7625 81.0269 27.8663 81.045 27.9712C81.0573 28.0219 81.0573 28.0748 81.045 28.1254C81.0364 28.1497 81.0228 28.1718 81.0051 28.1905C80.9874 28.2091 80.9659 28.2238 80.9422 28.2337C80.8921 28.255 80.8383 28.2661 80.7839 28.2661C80.7295 28.2661 80.6756 28.255 80.6256 28.2337C80.5296 28.1933 80.4437 28.1324 80.3739 28.0551C80.309 27.9846 80.2543 27.9054 80.2116 27.8197C80.1737 27.7412 80.1412 27.66 80.106 27.5897C80.0487 27.4816 79.9972 27.3705 79.9518 27.2568C79.938 27.214 79.9208 27.1724 79.9004 27.1324Z" fill="#EB996E"/>
<path d="M80.9259 28.2691C80.9259 28.2691 80.9259 28.2691 80.9259 28.3069C80.9231 28.3439 80.9231 28.381 80.9259 28.4179C80.9353 28.5534 80.9711 28.6858 81.0314 28.8075C81.1238 28.9877 81.2584 29.1427 81.4238 29.2594C81.4738 29.2961 81.531 29.3218 81.5916 29.3348C81.6522 29.3479 81.7149 29.348 81.7756 29.3352C81.8423 29.3227 81.9026 29.2873 81.9461 29.2351C81.9894 29.1793 82.0131 29.1109 82.0137 29.0403C82.0064 28.913 81.9855 28.7869 81.9515 28.6641C81.9217 28.5451 81.8892 28.4314 81.8568 28.3232L81.6809 27.7549C81.6322 27.5953 81.5943 27.4627 81.5726 27.3734C81.5634 27.3242 81.5489 27.2761 81.5293 27.23C81.5313 27.2793 81.5385 27.3283 81.551 27.3761C81.5699 27.4708 81.5997 27.6034 81.6457 27.7658C81.6917 27.9281 81.7485 28.1256 81.8108 28.3367C81.8405 28.445 81.8703 28.5586 81.9001 28.675C81.9319 28.7935 81.9519 28.915 81.9596 29.0376C81.9608 29.0963 81.9417 29.1537 81.9055 29.1999C81.8687 29.2427 81.8195 29.273 81.7648 29.2865C81.7106 29.2967 81.6549 29.296 81.601 29.2843C81.5471 29.2727 81.496 29.2505 81.4509 29.2189C81.291 29.1148 81.1576 28.9749 81.0612 28.8103C80.9986 28.6943 80.9582 28.5677 80.9421 28.4368C80.9286 28.334 80.9313 28.2691 80.9259 28.2691Z" fill="#EB996E"/>
<path d="M81.3375 29.1916C81.3375 29.1916 81.3375 29.1916 81.3213 29.2349C81.3051 29.2782 81.3051 29.3053 81.2942 29.3621C81.2691 29.5208 81.2691 29.6824 81.2942 29.841C81.3258 30.0816 81.4373 30.3046 81.6108 30.4742C81.7169 30.577 81.8583 30.6351 82.0059 30.6366C82.046 30.6359 82.0857 30.6272 82.1224 30.6109C82.1591 30.5946 82.1922 30.5712 82.2197 30.5419C82.2722 30.479 82.3043 30.4016 82.3117 30.32C82.3324 30.0299 82.3324 29.7388 82.3117 29.4487C82.29 29.1781 82.2711 28.9481 82.2548 28.7451C82.2386 28.5422 82.2332 28.3825 82.2278 28.2716C82.2312 28.213 82.2312 28.1543 82.2278 28.0957C82.2278 28.0957 82.2278 28.1119 82.2278 28.1417C82.2278 28.1715 82.2278 28.2148 82.2278 28.2716C82.2278 28.3825 82.2278 28.5422 82.2278 28.7478C82.2278 28.9535 82.2575 29.1889 82.2738 29.4541C82.2929 29.7397 82.2929 30.0263 82.2738 30.3119C82.2675 30.3824 82.2402 30.4493 82.1953 30.504C82.1732 30.529 82.1462 30.5491 82.1159 30.5631C82.0856 30.577 82.0528 30.5846 82.0194 30.5852C81.8851 30.5819 81.7569 30.5289 81.6595 30.4364C81.4915 30.2755 81.382 30.0631 81.3484 29.8329C81.3073 29.6214 81.3036 29.4044 81.3375 29.1916Z" fill="#EB996E"/>
<path d="M64.2749 28.3015L64.3019 28.2339L64.3425 28.2934C64.3748 28.3397 64.42 28.3755 64.4724 28.3962L64.5374 28.4233L64.4805 28.4639C64.4325 28.4949 64.3956 28.5404 64.375 28.5938L64.348 28.6587L64.3101 28.5992C64.2772 28.5535 64.2322 28.5179 64.1802 28.4964L64.1152 28.4693L64.1721 28.4287C64.2176 28.3969 64.2533 28.3528 64.2749 28.3015Z" fill="#E0E0E0"/>
<path d="M82.2963 20.8277L82.3423 20.7168L82.4127 20.8142C82.4675 20.8942 82.5447 20.9563 82.6345 20.9928L82.7455 21.0388L82.6481 21.1092C82.5674 21.1633 82.5051 21.2407 82.4695 21.331L82.4235 21.442L82.3531 21.3446C82.2982 21.2646 82.2211 21.2025 82.1312 21.166L82.0176 21.12L82.1177 21.0496C82.1969 20.994 82.2588 20.917 82.2963 20.8277Z" fill="#E0E0E0"/>
<path d="M81.5045 16.7878L81.5803 16.6011L81.6993 16.7661C81.7916 16.9008 81.9215 17.0052 82.0727 17.0665L82.2594 17.1423L82.0944 17.2613C81.9604 17.3543 81.8561 17.484 81.794 17.6347L81.7183 17.8215L81.6019 17.6564C81.508 17.5222 81.3774 17.4179 81.2258 17.356L81.0391 17.2803L81.2041 17.1639C81.3383 17.07 81.4426 16.9394 81.5045 16.7878Z" fill="#E0E0E0"/>
<path d="M72.3762 33.5862L72.3086 33.3941L72.5061 33.4428C72.6647 33.4804 72.8306 33.4729 72.9851 33.4212L73.1772 33.3535L73.1312 33.551C73.0909 33.7093 73.0984 33.876 73.1529 34.03L73.2178 34.2221L73.0203 34.1734C72.8617 34.1358 72.6958 34.1433 72.5413 34.1951L72.3492 34.2627L72.3979 34.0652C72.4355 33.9066 72.428 33.7407 72.3762 33.5862Z" fill="#E0E0E0"/>
<path d="M69.0903 26.6452C68.7466 27.0592 68.3921 27.457 68.0593 27.8845C67.9116 28.0627 67.8046 28.2711 67.7457 28.4949C67.6868 28.7188 67.6775 28.9528 67.7184 29.1807C67.7703 29.4121 67.8691 29.6305 68.0087 29.8222C68.1483 30.014 68.3258 30.1751 68.5301 30.2955C69.7938 31.1614 71.3416 31.892 72.9111 31.6999C73.9778 31.5489 74.9461 30.995 75.617 30.1521C75.6719 30.0829 75.6976 29.995 75.6885 29.9072C75.6795 29.8193 75.6364 29.7385 75.5686 29.682C75.5008 29.6255 75.4135 29.5977 75.3255 29.6047C75.2375 29.6116 75.1556 29.6527 75.0975 29.7191C74.594 30.3591 73.8863 30.8071 73.0924 30.9882C72.4075 31.1072 71.7036 31.0504 71.0467 30.8232C70.4172 30.6148 69.8169 30.3265 69.2608 29.9654C68.9658 29.8193 68.7056 29.6117 68.4977 29.3565C68.4015 29.1964 68.3576 29.0103 68.3722 28.824C68.3867 28.6378 68.459 28.4607 68.5789 28.3175C68.9117 27.8953 69.2689 27.5057 69.6125 27.0781C69.6699 27.0089 69.6975 26.9196 69.6891 26.8301C69.6807 26.7405 69.6371 26.6579 69.5679 26.6005C69.4986 26.5431 69.4094 26.5156 69.3198 26.5239C69.2303 26.5323 69.1477 26.5759 69.0903 26.6452Z" fill="#FF6D38"/>
<path d="M76.1261 19.1797C76.4508 18.7901 76.7729 18.4004 77.0976 18.0135C77.1817 17.895 77.2917 17.7971 77.4192 17.7273C77.5467 17.6574 77.6884 17.6174 77.8336 17.6103C78.2341 17.6103 78.4857 17.8809 78.7428 18.1515C79.652 19.0877 80.4962 20.2892 80.5882 21.6313C80.6283 22.533 80.3202 23.4156 79.7278 24.0965C79.6729 24.1656 79.6472 24.2535 79.6563 24.3414C79.6653 24.4292 79.7083 24.51 79.7762 24.5665C79.844 24.6231 79.9313 24.6508 80.0193 24.6439C80.1073 24.637 80.1892 24.5959 80.2473 24.5294C80.8774 23.8027 81.2436 22.8845 81.2864 21.9236C81.2844 21.0907 81.0652 20.2727 80.6505 19.5505C80.2752 18.8788 79.81 18.2616 79.2677 17.7158C78.999 17.3736 78.6359 17.1177 78.2232 16.9798C77.9796 16.9191 77.725 16.9182 77.4809 16.9771C77.2369 17.036 77.0107 17.1529 76.8216 17.318C76.3814 17.7613 75.9753 18.2371 75.6066 18.7414C75.578 18.7755 75.5564 18.8149 75.543 18.8574C75.5296 18.8998 75.5247 18.9445 75.5286 18.9889C75.5325 19.0332 75.5451 19.0764 75.5657 19.1158C75.5863 19.1553 75.6144 19.1904 75.6485 19.219C75.6826 19.2476 75.7221 19.2692 75.7645 19.2826C75.807 19.2959 75.8517 19.3008 75.896 19.2969C75.9404 19.293 75.9835 19.2804 76.023 19.2599C76.0625 19.2393 76.0975 19.2111 76.1261 19.177V19.1797Z" fill="#FF6D38"/>
<path d="M80.9846 28.6992L80.2729 29.2404V29.2621H80.254L79.8535 30.0738C79.8535 30.0738 81.101 31.2672 81.6313 32.5633L82.6866 31.2996L82.7137 31.2645L83.769 30.0008C82.3836 29.714 80.9846 28.6992 80.9846 28.6992Z" fill="#FF6D38"/>
<path d="M81.29 28.5392L79.7422 30.3954C79.6947 30.4528 79.6363 30.5002 79.5704 30.5349C79.5045 30.5697 79.4324 30.591 79.3583 30.5978C79.2841 30.6046 79.2093 30.5967 79.1382 30.5745C79.0671 30.5523 79.0011 30.5163 78.944 30.4685C78.8846 30.4209 78.8355 30.3617 78.7995 30.2947C78.7636 30.2276 78.7415 30.154 78.7347 30.0782C78.7279 30.0024 78.7364 29.926 78.7598 29.8536C78.7832 29.7811 78.821 29.7142 78.8709 29.6567L80.4187 27.8004C80.4662 27.7431 80.5246 27.6957 80.5905 27.6609C80.6564 27.6262 80.7285 27.6048 80.8027 27.5981C80.8768 27.5913 80.9516 27.5992 81.0227 27.6214C81.0938 27.6436 81.1598 27.6796 81.217 27.7274C81.2763 27.775 81.3254 27.8341 81.3614 27.9012C81.3973 27.9683 81.4194 28.0419 81.4262 28.1177C81.433 28.1935 81.4245 28.2699 81.4011 28.3423C81.3777 28.4147 81.3399 28.4817 81.29 28.5392Z" fill="#FF6D38"/>
<path d="M74.8569 17.3071L71.2038 21.6962L71.009 21.9289L67.5508 26.0717C67.613 26.1745 75.8797 33.7945 79.7627 28.8318C83.957 24.1045 74.9732 17.3531 74.8569 17.3071Z" fill="#FF6D38"/>
<path d="M74.8572 17.3071C74.8883 17.3212 74.9175 17.3394 74.9438 17.3612C75.0006 17.3991 75.0818 17.456 75.1846 17.5371C75.3957 17.6941 75.6988 17.9349 76.0776 18.2623C77.1485 19.1809 78.1248 20.2043 78.9919 21.3174C79.5944 22.088 80.0938 22.934 80.4775 23.8339C80.949 24.8711 81.0576 26.0368 80.7859 27.1433C80.6175 27.734 80.322 28.2807 79.92 28.7452C79.5391 29.2582 79.061 29.6913 78.5129 30.0197C77.9324 30.3453 77.2837 30.5306 76.6188 30.5609C75.9395 30.5915 75.2596 30.5176 74.6028 30.3417C73.208 29.9451 71.8821 29.3373 70.6711 28.5395C70.0839 28.1661 69.5265 27.7738 68.9961 27.3706C68.7255 27.1676 68.4766 26.962 68.2303 26.7563L67.8623 26.4424C67.7405 26.3315 67.6323 26.2449 67.5024 26.1096L67.4727 26.0771L67.5078 26.0338C69.6726 23.4496 71.5099 21.2632 72.8061 19.7154L74.316 17.9295L74.7165 17.4614L74.822 17.345C74.8325 17.3313 74.8443 17.3186 74.8572 17.3071C74.8482 17.3237 74.8373 17.3391 74.8247 17.3531L74.7219 17.4803L74.3295 17.9674L72.8467 19.7777L67.608 26.1042L67.5647 26.0609L67.6134 26.0311L67.6296 26.0474L67.6729 26.0852L67.7595 26.1664L67.9354 26.3207L68.3115 26.6454C68.5605 26.851 68.8148 27.0513 69.0773 27.2515C69.605 27.652 70.1597 28.0416 70.7442 28.4124C71.9446 29.203 73.2586 29.8062 74.6407 30.201C75.2835 30.373 75.9486 30.446 76.6134 30.4175C77.2564 30.3863 77.8834 30.2067 78.4453 29.8925C78.9792 29.5719 79.4459 29.1511 79.8199 28.6532C80.2108 28.2029 80.4989 27.6729 80.6642 27.1C80.9304 26.0206 80.8275 24.8832 80.3719 23.8691C79.9957 22.9801 79.5064 22.1434 78.9161 21.3796C78.0582 20.265 77.0959 19.2348 76.0424 18.3029C75.669 17.9863 75.374 17.7157 75.1711 17.5588L74.9384 17.3721L74.8572 17.3071Z" fill="#263238"/>
<g opacity="0.3">
<path d="M74.8574 17.3066C75.3986 17.7504 75.91 18.1482 76.389 18.5838C79.6226 21.5198 81.7062 24.8427 80.5399 27.6623L79.6469 29.0153C79.6469 29.0153 80.5886 25.5571 78.8351 23.0622C77.0817 20.5673 74.668 17.7288 74.668 17.7288L74.8574 17.3066Z" fill="black"/>
</g>
<path d="M85.9916 29.3027L81.4321 34.7633C81.2544 34.6154 81.1077 34.4339 81.0003 34.2292C80.8929 34.0245 80.8269 33.8007 80.806 33.5705C80.7851 33.3403 80.8099 33.1083 80.8787 32.8876C80.9476 32.667 81.0593 32.4621 81.2075 32.2846L83.5183 29.5273C83.6663 29.3497 83.8478 29.203 84.0524 29.0955C84.2571 28.9881 84.4809 28.9221 84.7111 28.9012C84.9413 28.8804 85.1734 28.9051 85.394 28.974C85.6147 29.0428 85.8196 29.1545 85.997 29.3027H85.9916Z" fill="#FF6D38"/>
<path d="M86.6703 28.3475L80.5508 35.6924L84.085 38.637L90.2045 31.2921L86.6703 28.3475Z" fill="#263238"/>
<path d="M86.6723 30.2041L82.3438 35.3994L84.0755 36.8423L88.404 31.647L86.6723 30.2041Z" fill="#455A64"/>
<path d="M73.4537 23.4415L75.1584 23.8528L76.4654 22.6812L76.6007 24.4292L78.1215 25.3086L76.4979 25.9797L76.1326 27.698L74.9934 26.3612L73.248 26.5425L74.1654 25.0462L73.4537 23.4415Z" fill="white"/>
<path d="M77.9053 29.6541L77.8836 29.6731L77.8214 29.7218C77.7361 29.7822 77.6456 29.8347 77.5508 29.8787C77.4052 29.9478 77.2516 29.9987 77.0935 30.0303C76.8852 30.073 76.6728 30.092 76.4603 30.0871C76.2023 30.0833 75.9452 30.0571 75.6918 30.0086L75.267 29.9274C75.1235 29.895 74.9774 29.8544 74.8259 29.8192C74.175 29.6386 73.5412 29.4013 72.9317 29.1102C72.3201 28.8206 71.7264 28.4944 71.1539 28.1334C70.6127 27.8033 70.1581 27.484 69.7712 27.2161C69.3842 26.9482 69.0757 26.7182 68.8647 26.5612L68.6347 26.3745L68.5697 26.3285L68.5508 26.3096L68.5724 26.3258L68.6347 26.3745L68.8809 26.5504C69.0974 26.7046 69.4086 26.9265 69.7955 27.1944C70.1825 27.4623 70.6479 27.7789 71.1783 28.1063C71.7476 28.4654 72.3376 28.7907 72.9452 29.0805C73.5551 29.3699 74.1889 29.6062 74.8394 29.7867C74.9909 29.8246 75.1371 29.8652 75.2805 29.8977L75.7026 29.9815C75.9553 30.0285 76.2114 30.0548 76.4684 30.06C76.6798 30.0667 76.8913 30.0495 77.0989 30.0086C77.2557 29.9783 77.4083 29.9292 77.5535 29.8625C77.648 29.8201 77.7385 29.7693 77.8241 29.711L77.889 29.665L77.9053 29.6541Z" fill="white"/>
<path d="M79.0301 29.8467C79.0148 29.8848 79.0047 29.9249 79.0003 29.9657C78.9974 30.0163 79.0058 30.0668 79.025 30.1136C79.0442 30.1605 79.0737 30.2024 79.1113 30.2363C79.1864 30.3004 79.2739 30.3483 79.3683 30.377C79.4387 30.4014 79.4847 30.4149 79.4847 30.4176C79.4423 30.4174 79.4002 30.4101 79.3602 30.396C79.2605 30.3717 79.1678 30.3245 79.0896 30.258C79.0532 30.2232 79.0245 30.1811 79.0054 30.1345C78.9863 30.0879 78.9772 30.0377 78.9787 29.9874C78.9827 29.956 78.9928 29.9256 79.0084 29.8981L79.0301 29.8467Z" fill="white"/>
<path d="M81.4736 32.2684C81.4736 32.2684 81.4547 32.2927 81.4222 32.3387C81.3732 32.4012 81.3289 32.4673 81.2896 32.5363C81.1568 32.7637 81.0764 33.0179 81.0542 33.2804C81.0352 33.5433 81.0731 33.8073 81.1651 34.0543C81.1941 34.1284 81.2275 34.2007 81.2652 34.2708C81.2805 34.2956 81.2932 34.3219 81.3031 34.3492L81.2896 34.333L81.2544 34.2762C81.2139 34.2073 81.1777 34.1359 81.1462 34.0624C81.0461 33.8146 81.0044 33.547 81.0244 33.2804C81.0539 32.9318 81.1889 32.6005 81.4114 32.3306L81.4574 32.2819C81.4574 32.2819 81.4736 32.2657 81.4736 32.2684Z" fill="white"/>
<path d="M79.9825 30.3983C80.2968 30.0908 80.5454 29.7225 80.7131 29.316C80.7949 29.1137 80.8157 28.8918 80.7729 28.6778C80.7301 28.4639 80.6256 28.2671 80.4723 28.1118L78.5781 30.2766L80.6996 33.0448C81.3138 31.9894 80.8105 30.7366 79.9825 30.3983Z" fill="#FFBE9D"/>
<path d="M81.0813 32.5985C81.0813 32.5985 81.0813 32.5823 81.0813 32.5498C81.0813 32.5173 81.1029 32.4713 81.111 32.4064C81.1409 32.2227 81.1409 32.0353 81.111 31.8516C81.0651 31.5699 80.959 31.3013 80.7998 31.0642C80.6008 30.7613 80.3191 30.5218 79.988 30.3742V30.4148C80.1438 30.2481 80.2901 30.0728 80.4264 29.8898C80.5756 29.6936 80.6875 29.4716 80.7565 29.235C80.8065 29.0296 80.8065 28.8153 80.7565 28.6099C80.7145 28.4134 80.6112 28.2353 80.4616 28.1012L80.4427 28.085L80.4264 28.1039L79.0734 29.6734L78.6865 30.128L78.5837 30.2524C78.5593 30.2822 78.5485 30.2957 78.5512 30.2984L78.5891 30.2578L78.6973 30.1415L79.0978 29.6923L80.4643 28.1391H80.4291C80.5672 28.2676 80.6618 28.4359 80.6997 28.6207C80.7429 28.8184 80.7373 29.0237 80.6835 29.2188C80.6175 29.4495 80.5092 29.6661 80.3642 29.8574C80.2299 30.0388 80.0863 30.2131 79.9339 30.3796L79.9096 30.404H79.9421C80.2709 30.5446 80.5526 30.7766 80.7538 31.0723C80.9113 31.3039 81.0191 31.5655 81.0704 31.8408C81.1033 32.0193 81.1097 32.2017 81.0894 32.382C81.1029 32.5308 81.0813 32.5985 81.0813 32.5985Z" fill="#EB996E"/>
<path d="M81.1816 32.4439C81.9528 31.4292 82.9026 30.3739 83.6738 29.3564L81.1816 32.4439Z" fill="#FF6D38"/>
<path d="M83.6738 29.3511C83.3276 29.9174 82.928 30.4493 82.4805 30.9395C82.1477 31.3372 81.8446 31.6944 81.5767 32.0219C81.4621 32.1792 81.3295 32.3227 81.1816 32.4494C81.527 31.8832 81.9257 31.3513 82.3723 30.861L83.2788 29.7786C83.3953 29.6228 83.5277 29.4795 83.6738 29.3511Z" fill="#263238"/>
<path d="M49.0338 103.097L48.6955 103.013C48.6955 103.013 44.9532 108.2 43.8438 107.992L46.7391 96.5645L50.5004 97.6847C49.2827 99.1838 48.7442 100.94 49.0338 103.097Z" fill="#455A64"/>
<path d="M48.9932 98.5315C48.9874 98.413 48.9381 98.3008 48.8547 98.2164C48.7713 98.1321 48.6597 98.0814 48.5413 98.0742C48.4229 98.0762 48.3097 98.1231 48.2248 98.2056C48.1398 98.288 48.0895 98.3997 48.084 98.518C48.0899 98.6434 48.1421 98.7621 48.2306 98.8511C48.3191 98.9401 48.4376 98.9931 48.5629 98.9997C48.6864 98.9853 48.7996 98.9238 48.8787 98.828C48.9579 98.7322 48.997 98.6095 48.9878 98.4855" fill="white"/>
<path d="M46.74 96.5645L47.6438 96.835L44.5509 107.686C44.5509 107.686 44.1991 108.138 43.8555 107.992L46.74 96.5645Z" fill="#263238"/>
<path d="M48.6543 103.045C48.6002 103.029 48.6543 102.742 48.5353 102.423C48.4162 102.103 48.2268 101.898 48.2647 101.852C48.3026 101.806 48.6029 101.971 48.7274 102.36C48.8519 102.75 48.7031 103.069 48.6543 103.045Z" fill="#263238"/>
<path d="M47.8557 104.116C47.7989 104.116 47.7637 103.846 47.5851 103.602C47.4066 103.359 47.1603 103.234 47.1765 103.18C47.1928 103.126 47.5175 103.18 47.7448 103.483C47.9721 103.786 47.9099 104.13 47.8557 104.116Z" fill="#263238"/>
<path d="M46.2483 104.433C46.2483 104.382 46.5486 104.374 46.8165 104.596C47.0844 104.818 47.1412 105.107 47.0871 105.118C47.033 105.129 46.9112 104.929 46.6866 104.75C46.462 104.571 46.2401 104.49 46.2483 104.433Z" fill="#263238"/>
<path d="M60.8778 127.539L60.7479 127.84C60.7479 127.84 64.9394 132.077 64.5768 133.065L54.5215 128.66L56.1288 125.375C56.7192 126.054 57.4487 126.6 58.268 126.973C59.0873 127.347 59.9773 127.54 60.8778 127.539Z" fill="#455A64"/>
<path d="M56.6786 126.876C56.5689 126.863 56.4581 126.891 56.3676 126.954C56.2771 127.018 56.2134 127.112 56.1888 127.22C56.1718 127.329 56.197 127.44 56.2594 127.531C56.3217 127.623 56.4165 127.686 56.5243 127.71C56.6406 127.723 56.7576 127.692 56.8529 127.624C56.9483 127.557 57.0153 127.456 57.0412 127.342C57.0472 127.226 57.0083 127.113 56.9326 127.026C56.8569 126.939 56.7503 126.884 56.6353 126.874" fill="white"/>
<path d="M54.5215 128.66L54.9084 127.87L64.4036 132.394C64.4036 132.394 64.7662 132.784 64.5768 133.079L54.5215 128.66Z" fill="#263238"/>
<path d="M60.7876 127.883C60.7633 127.932 60.5171 127.848 60.1977 127.899C59.8784 127.951 59.6566 128.1 59.6295 128.062C59.6024 128.024 59.7919 127.769 60.1707 127.713C60.5495 127.656 60.8039 127.848 60.7876 127.883Z" fill="#263238"/>
<path d="M61.6345 128.784C61.6345 128.836 61.3774 128.825 61.1177 128.96C60.8579 129.096 60.7172 129.293 60.6685 129.269C60.6198 129.245 60.7118 128.955 61.0338 128.795C61.3558 128.636 61.6561 128.736 61.6345 128.784Z" fill="#263238"/>
<path d="M61.6812 130.308C61.6325 130.308 61.6812 130.037 61.9139 129.81C62.1466 129.583 62.4361 129.591 62.4388 129.642C62.4415 129.694 62.2359 129.772 62.0383 129.951C61.8408 130.129 61.7326 130.327 61.6812 130.308Z" fill="#263238"/>
<path d="M55.9176 47.043C55.8992 46.9427 55.8441 46.8528 55.7631 46.7908C55.6821 46.7287 55.5809 46.6991 55.4793 46.7074H55.4522C55.377 46.7225 55.3079 46.7592 55.2534 46.813C55.1989 46.8669 55.1613 46.9355 55.1453 47.0105C55.1294 47.0854 55.1357 47.1634 55.1636 47.2348C55.1914 47.3062 55.2396 47.3679 55.3021 47.4122C55.3646 47.4566 55.4387 47.4816 55.5153 47.4843C55.5919 47.487 55.6676 47.4672 55.7331 47.4274C55.7986 47.3875 55.8509 47.3294 55.8837 47.2601C55.9165 47.1908 55.9283 47.1135 55.9176 47.0376V47.043Z" fill="#455A64"/>
<path d="M56.2988 52.8038L58.6801 59.3793L64.3923 68.6607L64.5628 58.8137L62.9203 51.2046H62.7877L61.6079 56.235L60.0412 54.3408L56.4774 51.8594L56.2988 52.8038Z" fill="#FAFAFA"/>
<path d="M63.8314 55.434C63.6957 55.2999 63.5742 55.152 63.4688 54.9929C63.3606 54.8549 63.2307 54.6899 63.0792 54.5113C62.9224 54.315 62.7405 54.1403 62.538 53.9917L62.6435 53.9457C62.6212 54.0376 62.5932 54.1279 62.5596 54.2163C62.3269 54.7981 62.059 55.2852 61.8858 55.6505C61.7126 56.0158 61.6288 56.2458 61.6152 56.2431C61.6349 56.0217 61.6983 55.8065 61.8019 55.6099C61.9508 55.2338 62.2078 54.7332 62.4324 54.1676C62.4639 54.0882 62.4901 54.0069 62.5109 53.9241L62.5353 53.8267L62.6164 53.8808C62.832 54.037 63.0227 54.2249 63.182 54.4382C63.3308 54.6249 63.4526 54.8008 63.5527 54.9469C63.6665 55.0964 63.7602 55.2602 63.8314 55.434Z" fill="#263238"/>
<path d="M64.391 68.6606C64.3417 68.5081 64.3063 68.3514 64.2854 68.1925C64.2205 67.8678 64.1339 67.4348 64.0311 66.9126C63.8119 65.8302 63.4899 64.3446 63.1246 62.7021C62.7593 61.0596 62.4237 59.5957 62.1775 58.4971C62.0611 57.9775 61.9664 57.5473 61.9069 57.2226C61.865 57.0674 61.836 56.909 61.8203 56.749C61.8775 56.8988 61.9236 57.0525 61.9583 57.209C62.0395 57.5067 62.1504 57.9396 62.2857 58.4754C62.5563 59.5578 62.9054 61.0271 63.2707 62.6696C63.636 64.3122 63.9445 65.8086 64.1393 66.8936C64.234 67.4348 64.3098 67.8786 64.3504 68.1844C64.374 68.3421 64.3876 68.5012 64.391 68.6606Z" fill="#263238"/>
<path d="M63.2808 50.6769C61.6978 51.8324 58.2369 52.0434 56.773 51.9487C54.8003 51.8107 52.668 50.9989 50.7739 50.4902C48.8012 49.9734 46.9855 50.0059 45.0183 50.2873C43.0511 50.5687 40.705 51.9108 39.5469 53.5019L40.3587 54.3706C40.3587 54.3706 43.0646 52.1219 45.5324 51.7918C47.8974 51.4806 49.3587 51.9839 52.135 52.7172C55.2955 53.5534 59.1163 53.3694 60.3205 53.0446C61.479 52.7193 62.5865 52.2338 63.6109 51.6024L63.2808 50.6769Z" fill="#455A64"/>
<path d="M56.8672 54.3706C56.9521 54.4158 57.0312 54.4712 57.1026 54.5357C57.246 54.6466 57.4517 54.8063 57.706 55.02C58.212 55.434 58.9048 56.0158 59.6624 56.6625L59.703 56.6977L59.5894 56.7356C59.7193 56.1322 59.8437 55.5666 59.952 55.0714L59.9736 54.9713L60.0494 55.0336C60.4823 55.3853 60.8395 55.6803 61.0885 55.8886C61.2245 55.992 61.3504 56.1079 61.4646 56.235C61.3151 56.152 61.1738 56.055 61.0425 55.9455C60.7719 55.7533 60.412 55.4719 59.9736 55.1337L60.071 55.0985L59.7274 56.7681L59.703 56.8844L59.611 56.806L59.5704 56.7708C58.8128 56.1241 58.1309 55.5315 57.6411 55.0985C57.3948 54.882 57.2 54.7034 57.0647 54.579C56.9902 54.5183 56.9238 54.4483 56.8672 54.3706Z" fill="#263238"/>
<path d="M37.4464 60.857C37.4626 60.7515 36.9052 58.6219 36.9052 58.6219L34.1992 57.3853L34.6755 59.8531C34.9833 60.1581 35.3066 60.4472 35.6442 60.719C35.6902 60.7028 37.4464 60.857 37.4464 60.857Z" fill="#EB996E"/>
<path d="M41.5131 56.319C41.5737 57.0304 41.422 57.7438 41.0771 58.369C40.7322 58.9942 40.2097 59.503 39.5756 59.8312C38.9415 60.1594 38.2243 60.2921 37.5148 60.2127C36.8052 60.1333 36.1352 59.8452 35.5893 59.3849C35.0435 58.9246 34.6464 58.3128 34.4484 57.6269C34.2503 56.9409 34.26 56.2116 34.4765 55.5312C34.6929 54.8508 35.1062 54.2499 35.6642 53.8044C36.2221 53.3589 36.8997 53.0889 37.6111 53.0286C38.5649 52.9476 39.5117 53.2488 40.2434 53.8658C40.9752 54.4829 41.4319 55.3653 41.5131 56.319Z" fill="#FF6D38"/>
<g opacity="0.3">
<path d="M41.5111 56.319C41.5717 57.0304 41.42 57.7438 41.0751 58.369C40.7303 58.9942 40.2077 59.503 39.5736 59.8312C38.9395 60.1594 38.2224 60.2921 37.5128 60.2127C36.8033 60.1333 36.1332 59.8452 35.5874 59.3849C35.0416 58.9246 34.6445 58.3128 34.4464 57.6269C34.2483 56.9409 34.2581 56.2116 34.4745 55.5312C34.6909 54.8508 35.1043 54.2499 35.6622 53.8044C36.2202 53.3589 36.8977 53.0889 37.6092 53.0286C38.5629 52.9476 39.5097 53.2488 40.2415 53.8658C40.9732 54.4829 41.4299 55.3653 41.5111 56.319Z" fill="black"/>
</g>
<path d="M41.5131 55.8507C41.5737 56.5622 41.422 57.2756 41.0771 57.9007C40.7322 58.5259 40.2097 59.0347 39.5756 59.3629C38.9415 59.6911 38.2243 59.8239 37.5148 59.7444C36.8052 59.665 36.1352 59.3769 35.5893 58.9167C35.0435 58.4564 34.6464 57.8446 34.4484 57.1586C34.2503 56.4727 34.26 55.7434 34.4765 55.063C34.6929 54.3826 35.1062 53.7816 35.6642 53.3362C36.2221 52.8907 36.8997 52.6207 37.6111 52.5603C38.5649 52.4794 39.5117 52.7805 40.2434 53.3976C40.9752 54.0146 41.4319 54.897 41.5131 55.8507Z" fill="#FF6D38"/>
<g opacity="0.3">
<path d="M35.3947 56.5213C35.3325 55.7858 35.5649 55.0556 36.0408 54.4914C36.5168 53.9271 37.1973 53.575 37.9329 53.5123H38.0492C37.6719 53.4908 37.2941 53.5465 36.939 53.6758C36.5839 53.8052 36.2589 54.0055 35.9838 54.2646C35.7087 54.5238 35.4893 54.8362 35.3389 55.183C35.1886 55.5297 35.1105 55.9035 35.1094 56.2814C35.1083 56.6593 35.1842 57.0335 35.3325 57.3811C35.4808 57.7288 35.6984 58.0425 35.972 58.3032C36.2456 58.564 36.5694 58.7662 36.9238 58.8976C37.2781 59.0291 37.6555 59.0869 38.033 59.0676C37.3592 59.0352 36.7203 58.7591 36.2349 58.2907C35.7496 57.8223 35.451 57.1935 35.3947 56.5213Z" fill="black"/>
</g>
<g opacity="0.3">
<path d="M39.4219 53.9427L40.0145 53.2202L40.4664 53.6045L39.8305 54.2647L39.4219 53.9427Z" fill="white"/>
</g>
<path d="M40.6878 56.0485C40.6449 55.8254 40.5889 55.6049 40.5201 55.3883C40.3068 54.8053 39.9061 54.3095 39.3809 53.9785C38.9946 53.7371 38.5542 53.596 38.0996 53.5681C37.645 53.5403 37.1906 53.6264 36.7777 53.8188C36.5402 53.9279 36.3203 54.072 36.1256 54.2464C35.919 54.4253 35.7427 54.6363 35.6034 54.8715C35.3019 55.3634 35.1655 55.9388 35.2142 56.5137C35.2629 57.0886 35.494 57.6329 35.874 58.0672C36.0515 58.2745 36.2607 58.4526 36.4936 58.5949C36.7152 58.7349 36.9571 58.8399 37.2107 58.906C37.5792 59.0049 37.9642 59.0261 38.3414 58.9682C38.7185 58.9103 39.0795 58.7747 39.4014 58.5698C39.7232 58.365 39.999 58.0954 40.2112 57.7783C40.4233 57.4612 40.5672 57.1034 40.6337 56.7277C40.6662 56.5027 40.6842 56.2759 40.6878 56.0485C40.7247 56.2771 40.7247 56.51 40.6878 56.7386C40.6281 57.1304 40.4862 57.5052 40.2715 57.8384C40.0568 58.1716 39.7742 58.4557 39.4421 58.6721C39.11 58.8884 38.7359 59.0322 38.3444 59.094C37.9529 59.1558 37.5527 59.1341 37.1701 59.0305C36.6259 58.8859 36.137 58.5826 35.7657 58.1592C35.3624 57.7022 35.1172 57.1274 35.0665 56.52C35.0158 55.9126 35.1623 55.3051 35.4843 54.7876C35.6297 54.5434 35.8123 54.3234 36.0255 54.1354C36.2304 53.953 36.4622 53.8033 36.7128 53.6917C37.1747 53.4801 37.6849 53.396 38.1903 53.4481C38.7272 53.505 39.2363 53.7155 39.6567 54.0543C40.0771 54.3931 40.391 54.8459 40.5607 55.3585C40.6416 55.5797 40.6846 55.813 40.6878 56.0485Z" fill="#263238"/>
<path d="M36.5906 53.104C36.5906 53.1284 36.3903 53.1825 36.1143 53.3746C35.7644 53.6388 35.4585 53.9566 35.2078 54.3163C34.9471 54.6675 34.7627 55.0693 34.6666 55.4961C34.5909 55.8235 34.5882 56.0373 34.5665 56.0373C34.5247 55.8529 34.5247 55.6615 34.5665 55.4771C34.6419 55.0241 34.8278 54.5965 35.1077 54.2324C35.3667 53.8589 35.6957 53.5391 36.0764 53.2907C36.2276 53.1827 36.4054 53.1181 36.5906 53.104Z" fill="white"/>
<path d="M37.2793 52.8606C37.2793 52.8985 37.2252 52.9472 37.1332 52.9743C37.0412 53.0013 36.9573 52.9743 36.9465 52.9499C36.9356 52.9255 37.0033 52.8606 37.0953 52.8362C37.1873 52.8119 37.2712 52.8227 37.2793 52.8606Z" fill="white"/>
<path d="M39.0895 58.3428C38.8143 58.5273 38.5004 58.6462 38.172 58.6903C37.8436 58.7344 37.5094 58.7025 37.1953 58.5971C37.1953 58.5565 37.6364 58.6242 38.1586 58.5511C38.6809 58.4781 39.0732 58.3049 39.0895 58.3428Z" fill="white"/>
<path d="M40.6948 57.4312C40.6623 57.4095 40.7218 57.2526 40.7733 57.0551C40.8247 56.8575 40.8463 56.6897 40.8869 56.687C40.9275 56.6843 40.9681 56.8683 40.9086 57.0902C40.849 57.3121 40.7273 57.4528 40.6948 57.4312Z" fill="white"/>
<g opacity="0.3">
<path d="M38.2879 55.2334V57.7283H37.7088V55.6961H37.2109V55.2334H38.2879Z" fill="black"/>
</g>
<path d="M37.6132 60.5401C37.0964 60.3263 35.2536 60.1017 35.2536 60.1017L35.3997 59.2521C35.3997 59.2521 36.4334 58.9436 36.7121 58.4944C36.7911 58.3522 36.8343 58.1929 36.8381 58.0303C36.8419 57.8677 36.8061 57.7066 36.7338 57.5609L36.1628 57.7232C36.4497 57.431 36.2846 56.86 36.2846 56.86L35.6487 56.9953C35.7046 56.9536 35.7511 56.9006 35.7851 56.8397C35.8191 56.7787 35.8398 56.7113 35.846 56.6418C35.8521 56.5724 35.8435 56.5024 35.8207 56.4364C35.7979 56.3705 35.7614 56.3101 35.7136 56.2593L35.2212 56.4189C35.5188 56.0942 34.9884 55.7397 34.9884 55.7397C34.9884 55.7397 32.7479 57.4878 32.6018 57.7286C32.4557 57.9694 32.7777 58.6108 32.7777 58.6108C32.5989 58.818 32.4842 59.0728 32.4476 59.3441C32.434 59.7175 32.9076 59.8555 32.9076 59.8555C32.879 60.0535 32.8919 60.2553 32.9454 60.4481C33.0374 60.7566 34.5257 61.6171 34.5257 61.6171L36.4821 63.5897L38.4494 60.9C38.4494 60.9 38.1301 60.7539 37.6132 60.5401Z" fill="#FFBE9D"/>
<path d="M36.7046 57.5884C36.5562 57.6843 36.3909 57.7514 36.2175 57.7859C35.8147 57.8865 35.4188 58.013 35.0323 58.1647C34.827 58.2532 34.637 58.3738 34.4695 58.5219C34.3153 58.6626 34.1989 58.7925 34.0771 58.9224C33.8552 59.1605 33.6794 59.2688 33.6685 59.2525C33.6577 59.2363 33.8038 59.1091 34.0041 58.8575C34.1205 58.7065 34.2462 58.5628 34.3802 58.4272C34.5532 58.2627 34.7538 58.1299 34.9728 58.0349C35.3675 57.8803 35.7762 57.7643 36.1932 57.6885C36.3605 57.6406 36.5316 57.6071 36.7046 57.5884Z" fill="#EB996E"/>
<path d="M36.3255 60.2941C36.3255 60.3293 35.8601 60.2265 35.2431 60.2535H35.1484L35.1755 60.1615C35.2107 60.0371 35.2459 59.8909 35.2729 59.7611C35.3114 59.5745 35.3367 59.3856 35.3487 59.1955V59.1387H35.4082C35.6239 59.1147 35.8342 59.0553 36.0306 58.9628C36.1821 58.9006 36.2687 58.8546 36.2768 58.8681C36.2849 58.8816 36.2119 58.9466 36.0685 59.0332C35.8681 59.1571 35.6442 59.2382 35.4109 59.2713L35.4732 59.209C35.4666 59.4063 35.444 59.6027 35.4055 59.7962C35.3786 59.9353 35.3434 60.0727 35.3 60.2075L35.2323 60.1182C35.6055 60.0908 35.9798 60.151 36.3255 60.2941Z" fill="#EB996E"/>
<path d="M33.4062 58.3889C33.4964 58.2561 33.6048 58.1368 33.7283 58.0344L34.1071 57.661C34.1807 57.5812 34.2633 57.5104 34.3533 57.4499C34.4515 57.3882 34.5547 57.3348 34.6618 57.2903C35.0315 57.1466 35.4125 57.0344 35.801 56.9547C35.9585 56.9079 36.1212 56.8806 36.2854 56.8735C36.1435 56.9573 35.9891 57.0176 35.8281 57.0521C35.5412 57.1441 35.1354 57.2497 34.7186 57.4201C34.6182 57.4606 34.5213 57.5095 34.4291 57.5663C34.345 57.6209 34.2669 57.6844 34.1964 57.7557L33.7986 58.1047C33.6819 58.2174 33.5498 58.3131 33.4062 58.3889Z" fill="#EB996E"/>
<path d="M33.0323 57.8152C33.0187 57.799 33.1432 57.6718 33.3543 57.4797L33.7277 57.1495L33.9523 56.9547L34.0713 56.8546L34.1336 56.8032C34.1582 56.7846 34.1845 56.7683 34.212 56.7545C34.5528 56.6009 34.9035 56.4707 35.262 56.3648C35.406 56.3057 35.5585 56.2701 35.7139 56.2593C35.5841 56.3429 35.444 56.4093 35.2971 56.4568C35.0265 56.5678 34.6585 56.7003 34.2797 56.8789L34.2202 56.9141L34.1579 56.9628L34.0389 57.0629L33.8089 57.2497L33.4165 57.5581C33.3015 57.6619 33.1721 57.7485 33.0323 57.8152Z" fill="#EB996E"/>
<path d="M41.3318 42.224L41.4319 41.9751L41.5862 42.1943C41.71 42.3707 41.8819 42.5078 42.0814 42.5894L42.3303 42.6922L42.1111 42.8464C41.9341 42.9684 41.7967 43.1396 41.716 43.3389L41.6132 43.5878L41.459 43.3687C41.3351 43.1923 41.1633 43.0552 40.9638 42.9736L40.7148 42.8708L40.9367 42.7165C41.1123 42.593 41.2493 42.4222 41.3318 42.224Z" fill="#FF6D38"/>
<path d="M75.0642 70.8232L75.1643 70.5742L75.3186 70.7934C75.4424 70.9698 75.6143 71.1069 75.8138 71.1885L76.0627 71.2913L75.8408 71.4455C75.6652 71.5701 75.5282 71.7418 75.4458 71.9407L75.3456 72.187L75.1914 71.9678C75.0676 71.7914 74.8957 71.6543 74.6962 71.5727L74.4473 71.4699L74.6692 71.3157C74.8447 71.1921 74.9817 71.0213 75.0642 70.8232Z" fill="#FF6D38"/>
<path d="M80.8845 59.2794L80.9847 59.0332L81.1389 59.2524C81.2634 59.4281 81.4351 59.5651 81.6341 59.6475L81.883 59.7503L81.6639 59.9045C81.4876 60.0273 81.3504 60.1983 81.2688 60.397L81.166 60.6459L81.0117 60.4268C80.8879 60.2504 80.716 60.1133 80.5165 60.0317L80.2676 59.9289L80.4895 59.7746C80.6658 59.6508 80.803 59.4789 80.8845 59.2794Z" fill="#FF6D38"/>
<path d="M31.6306 40.8631L31.6902 40.7197L31.7794 40.8469C31.8508 40.9497 31.9504 41.0296 32.0663 41.0769L32.2097 41.1364L32.0825 41.2257C31.9797 41.2971 31.8998 41.3967 31.8525 41.5126L31.793 41.656L31.7037 41.5288C31.6323 41.426 31.5327 41.3461 31.4169 41.2988L31.2734 41.2393L31.4006 41.15C31.5034 41.0786 31.5833 40.979 31.6306 40.8631Z" fill="#FF6D38"/>
<path d="M75.4119 62.3807L75.4714 62.2373L75.5607 62.3645C75.6319 62.4674 75.7316 62.5473 75.8475 62.5945L75.9937 62.654L75.8638 62.7433C75.7624 62.8155 75.6836 62.915 75.6365 63.0302L75.5769 63.1736L75.4876 63.0464C75.415 62.9448 75.3157 62.8652 75.2008 62.8164L75.0547 62.7596L75.1819 62.6676C75.2853 62.5969 75.3654 62.4971 75.4119 62.3807Z" fill="#FF6D38"/>
<path d="M36.1901 33.2458L36.431 32.8696L36.6366 33.2728C36.8016 33.5943 37.0551 33.8619 37.3672 34.044L37.7569 34.2713L37.3564 34.477C37.0346 34.6425 36.7663 34.8958 36.5825 35.2076L36.3552 35.5972L36.1496 35.1967C35.985 34.8743 35.7314 34.6057 35.419 34.4228L35.0293 34.1955L35.4325 33.9899C35.7515 33.82 36.0146 33.5616 36.1901 33.2458Z" fill="#FF6D38"/>
</svg>
