<svg width="131" height="97" viewBox="0 0 131 97" fill="none" xmlns="http://www.w3.org/2000/svg">
<path d="M130.189 85.248H0V85.3131H130.189V85.248Z" fill="#EBEBEB"/>
<path d="M117.143 89.4375H108.52V89.5026H117.143V89.4375Z" fill="#EBEBEB"/>
<path d="M86.2432 90.1455H83.9805V90.2106H86.2432V90.1455Z" fill="#EBEBEB"/>
<path d="M108.26 87.021H103.264V87.0861H108.26V87.021Z" fill="#EBEBEB"/>
<path d="M24.9059 87.4585H13.6602V87.5236H24.9059V87.4585Z" fill="#EBEBEB"/>
<path d="M28.8728 87.4585H27.2246V87.5236H28.8728V87.4585Z" fill="#EBEBEB"/>
<path d="M58.6247 88.5576H34.2324V88.6227H58.6247V88.5576Z" fill="#EBEBEB"/>
<path d="M61.7099 73.6351H11.4334C11.0395 73.6344 10.662 73.4775 10.3838 73.1987C10.1055 72.92 9.94922 72.5422 9.94922 72.1483V1.47374C9.95265 1.08214 10.1104 0.707704 10.3883 0.431765C10.6662 0.155826 11.0418 0.000670836 11.4334 0H61.7099C62.1042 0 62.4824 0.156641 62.7612 0.435463C63.04 0.714285 63.1967 1.09245 63.1967 1.48676V72.1483C63.1967 72.5426 63.04 72.9208 62.7612 73.1996C62.4824 73.4785 62.1042 73.6351 61.7099 73.6351ZM11.4334 0.0520759C11.0568 0.0527657 10.6958 0.202852 10.4298 0.469392C10.1637 0.735931 10.0143 1.09714 10.0143 1.47374V72.1483C10.0143 72.5249 10.1637 72.8861 10.4298 73.1527C10.6958 73.4192 11.0568 73.5693 11.4334 73.57H61.7099C62.0867 73.5693 62.4479 73.4193 62.7144 73.1528C62.9809 72.8864 63.1309 72.5252 63.1316 72.1483V1.47374C63.1309 1.09691 62.9809 0.735698 62.7144 0.469233C62.4479 0.202767 62.0867 0.0527642 61.7099 0.0520759H11.4334Z" fill="#EBEBEB"/>
<path d="M118.032 73.6351H67.7524C67.3583 73.6344 66.9805 73.4775 66.7019 73.1989C66.4232 72.9202 66.2663 72.5424 66.2656 72.1483V1.47374C66.2697 1.0819 66.4281 0.707469 66.7064 0.431602C66.9847 0.155735 67.3605 0.00066352 67.7524 0H118.032C118.423 0.00135514 118.798 0.156813 119.075 0.432679C119.352 0.708544 119.51 1.08259 119.513 1.47374V72.1483C119.513 72.5417 119.357 72.9191 119.079 73.1978C118.802 73.4765 118.425 73.6337 118.032 73.6351ZM67.7524 0.0520759C67.3755 0.0527642 67.0143 0.202767 66.7479 0.469233C66.4814 0.735698 66.3314 1.09691 66.3307 1.47374V72.1483C66.3314 72.5252 66.4814 72.8864 66.7479 73.1528C67.0143 73.4193 67.3755 73.5693 67.7524 73.57H118.032C118.408 73.5693 118.77 73.4193 119.036 73.1528C119.302 72.8864 119.452 72.5252 119.453 72.1483V1.47374C119.452 1.09691 119.302 0.735698 119.036 0.469233C118.77 0.202767 118.408 0.0527642 118.032 0.0520759H67.7524Z" fill="#EBEBEB"/>
<path d="M56.8693 43.6421L107.383 43.6421V4.49154L56.8693 4.49154L56.8693 43.6421Z" fill="#E6E6E6"/>
<path d="M55.8166 43.6421L106.33 43.6421V4.49154L55.8166 4.49154L55.8166 43.6421Z" fill="#F5F5F5"/>
<path d="M53.3822 45.9072L107.385 45.9072V43.6419L53.3822 43.6419V45.9072Z" fill="#E6E6E6"/>
<path d="M52.1963 45.9072L103.871 45.9072V43.6419L52.1963 43.6419V45.9072Z" fill="#F5F5F5"/>
<path d="M104.445 41.6036V6.52539L57.7073 6.52539V41.6036H104.445Z" fill="#FAFAFA"/>
<path d="M75.071 41.6036L88.1602 6.52539H74.8132L61.7266 41.6036H75.071Z" fill="white"/>
<path d="M84.7203 41.6036L97.8069 6.52539H90.4538L77.3672 41.6036H84.7203Z" fill="white"/>
<path d="M82.1289 41.6036V6.52539H80.025V41.6036H82.1289Z" fill="#F5F5F5"/>
<path d="M58.5 41.6036V6.52539H57.7058V41.6036H58.5Z" fill="#E6E6E6"/>
<path d="M82.9199 41.6036V6.52539H82.1258V41.6036H82.9199Z" fill="#E6E6E6"/>
<path d="M23.497 45.1338H43.2676L43.2676 4.49128H23.497L23.497 45.1338Z" fill="#E6E6E6"/>
<path d="M20.7057 45.1338H42.5254L42.5254 4.49128H20.7057L20.7057 45.1338Z" fill="#F0F0F0"/>
<path d="M38.9883 41.598V8.02734L24.2404 8.02734V41.598H38.9883Z" fill="white"/>
<path d="M35.5645 32.3911V17.2319C35.5645 16.4539 34.9338 15.8232 34.1558 15.8232H29.0758C28.2978 15.8232 27.6672 16.4539 27.6672 17.2319V32.3911C27.6672 33.1691 28.2978 33.7998 29.0758 33.7998H34.1558C34.9338 33.7998 35.5645 33.1691 35.5645 32.3911Z" fill="#F5F5F5"/>
<path d="M20.9023 53.0889H19.2281C17.5024 53.0889 16.1035 54.4878 16.1035 56.2134V77.679C16.1035 79.4047 17.5024 80.8036 19.2281 80.8036H20.9023C22.6279 80.8036 24.0268 79.4047 24.0268 77.679V56.2134C24.0268 54.4878 22.6279 53.0889 20.9023 53.0889Z" fill="#F5F5F5"/>
<path d="M22.5953 54.0127H22.0771C20.7412 54.0127 19.6582 55.0957 19.6582 56.4316V77.4572C19.6582 78.7931 20.7412 79.8761 22.0771 79.8761H22.5953C23.9312 79.8761 25.0142 78.7931 25.0142 77.4572V56.4316C25.0142 55.0957 23.9312 54.0127 22.5953 54.0127Z" fill="#EBEBEB"/>
<path d="M26.6601 53.0889H24.9859C23.2602 53.0889 21.8613 54.4878 21.8613 56.2134V77.679C21.8613 79.4047 23.2602 80.8036 24.9859 80.8036H26.6601C28.3857 80.8036 29.7847 79.4047 29.7847 77.679V56.2134C29.7847 54.4878 28.3857 53.0889 26.6601 53.0889Z" fill="#F5F5F5"/>
<path d="M28.3492 54.0127H27.831C26.4951 54.0127 25.4121 55.0957 25.4121 56.4316V77.4572C25.4121 78.7931 26.4951 79.8761 27.831 79.8761H28.3492C29.6851 79.8761 30.7681 78.7931 30.7681 77.4572V56.4316C30.7681 55.0957 29.6851 54.0127 28.3492 54.0127Z" fill="#EBEBEB"/>
<path d="M32.414 53.0889H30.7398C29.0141 53.0889 27.6152 54.4878 27.6152 56.2134V77.679C27.6152 79.4047 29.0141 80.8036 30.7398 80.8036H32.414C34.1397 80.8036 35.5386 79.4047 35.5386 77.679V56.2134C35.5386 54.4878 34.1397 53.0889 32.414 53.0889Z" fill="#F5F5F5"/>
<path d="M34.105 54.0127H33.5869C32.251 54.0127 31.168 55.0957 31.168 56.4316V77.4572C31.168 78.7931 32.251 79.8761 33.5869 79.8761H34.105C35.441 79.8761 36.524 78.7931 36.524 77.4572V56.4316C36.524 55.0957 35.441 54.0127 34.105 54.0127Z" fill="#EBEBEB"/>
<path d="M38.1679 53.0889H36.4937C34.768 53.0889 33.3691 54.4878 33.3691 56.2134V77.679C33.3691 79.4047 34.768 80.8036 36.4937 80.8036H38.1679C39.8936 80.8036 41.2925 79.4047 41.2925 77.679V56.2134C41.2925 54.4878 39.8936 53.0889 38.1679 53.0889Z" fill="#F5F5F5"/>
<path d="M39.8589 54.0127H39.3408C38.0049 54.0127 36.9219 55.0957 36.9219 56.4316V77.4572C36.9219 78.7931 38.0049 79.8761 39.3408 79.8761H39.8589C41.1949 79.8761 42.2779 78.7931 42.2779 77.4572V56.4316C42.2779 55.0957 41.1949 54.0127 39.8589 54.0127Z" fill="#EBEBEB"/>
<path d="M43.9238 53.0889H42.2495C40.5239 53.0889 39.125 54.4878 39.125 56.2134V77.679C39.125 79.4047 40.5239 80.8036 42.2495 80.8036H43.9238C45.6494 80.8036 47.0483 79.4047 47.0483 77.679V56.2134C47.0483 54.4878 45.6494 53.0889 43.9238 53.0889Z" fill="#F5F5F5"/>
<path d="M45.6122 54.0127H45.0967C43.7607 54.0127 42.6777 55.0957 42.6777 56.4316V77.4572C42.6777 78.7931 43.7607 79.8761 45.0967 79.8761H45.6122C46.9481 79.8761 48.0311 78.7931 48.0311 77.4572V56.4316C48.0311 55.0957 46.9481 54.0127 45.6122 54.0127Z" fill="#EBEBEB"/>
<path d="M49.6796 53.0889H48.0054C46.2798 53.0889 44.8809 54.4878 44.8809 56.2134V77.679C44.8809 79.4047 46.2798 80.8036 48.0054 80.8036H49.6796C51.4053 80.8036 52.8042 79.4047 52.8042 77.679V56.2134C52.8042 54.4878 51.4053 53.0889 49.6796 53.0889Z" fill="#F5F5F5"/>
<path d="M51.3681 54.0127H50.8525C49.5166 54.0127 48.4336 55.0957 48.4336 56.4316V77.4572C48.4336 78.7931 49.5166 79.8761 50.8525 79.8761H51.3681C52.704 79.8761 53.787 78.7931 53.787 77.4572V56.4316C53.787 55.0957 52.704 54.0127 51.3681 54.0127Z" fill="#EBEBEB"/>
<path d="M55.4355 53.0889H53.7613C52.0356 53.0889 50.6367 54.4878 50.6367 56.2134V77.679C50.6367 79.4047 52.0356 80.8036 53.7613 80.8036H55.4355C57.1611 80.8036 58.56 79.4047 58.56 77.679V56.2134C58.56 54.4878 57.1611 53.0889 55.4355 53.0889Z" fill="#F5F5F5"/>
<path d="M59.0914 77.7232H52.1965C52.0584 77.7232 51.926 77.6683 51.8283 77.5706C51.7306 77.473 51.6758 77.3405 51.6758 77.2024C51.6758 77.0643 51.7306 76.9318 51.8283 76.8342C51.926 76.7365 52.0584 76.6816 52.1965 76.6816H59.0914C59.2295 76.6816 59.3619 76.7365 59.4596 76.8342C59.5573 76.9318 59.6121 77.0643 59.6121 77.2024C59.6121 77.3405 59.5573 77.473 59.4596 77.5706C59.3619 77.6683 59.2295 77.7232 59.0914 77.7232Z" fill="#F5F5F5"/>
<path d="M59.0914 57.8901H52.1965C52.0584 57.8901 51.926 57.8353 51.8283 57.7376C51.7306 57.64 51.6758 57.5075 51.6758 57.3694C51.6758 57.2313 51.7306 57.0988 51.8283 57.0012C51.926 56.9035 52.0584 56.8486 52.1965 56.8486H59.0914C59.2295 56.8486 59.3619 56.9035 59.4596 57.0012C59.5573 57.0988 59.6121 57.2313 59.6121 57.3694C59.6121 57.5075 59.5573 57.64 59.4596 57.7376C59.3619 57.8353 59.2295 57.8901 59.0914 57.8901Z" fill="#F5F5F5"/>
<path d="M77.9366 63.0274H97.2332C97.7321 63.0274 98.2105 62.8295 98.5635 62.477C98.9164 62.1245 99.1151 61.6463 99.1158 61.1475C99.1151 60.6487 98.9164 60.1705 98.5635 59.818C98.2105 59.4656 97.7321 59.2676 97.2332 59.2676H77.9366C77.438 59.2676 76.9598 59.4656 76.6073 59.8182C76.2547 60.1708 76.0566 60.6489 76.0566 61.1475C76.0566 61.3944 76.1053 61.6388 76.1997 61.8669C76.2942 62.095 76.4327 62.3023 76.6073 62.4768C76.7818 62.6514 76.9891 62.7899 77.2172 62.8843C77.4452 62.9788 77.6897 63.0274 77.9366 63.0274Z" fill="#EBEBEB"/>
<path d="M88.0083 52.8779C87.2964 52.7283 86.6729 52.3025 86.2746 51.6938C85.8763 51.0851 85.7357 50.3432 85.8836 49.631L88.6228 36.5287C88.6962 36.1759 88.8385 35.841 89.0415 35.5432C89.2445 35.2454 89.5042 34.9906 89.8057 34.7932C90.1073 34.5959 90.4448 34.46 90.799 34.3932C91.1531 34.3264 91.517 34.3301 91.8697 34.4041C92.2228 34.4772 92.5579 34.6193 92.856 34.8221C93.1541 35.025 93.4092 35.2847 93.6068 35.5863C93.8044 35.8879 93.9406 36.2255 94.0076 36.5798C94.0745 36.9341 94.0709 37.2981 93.997 37.651L91.2604 50.7532C91.1867 51.1064 91.044 51.4416 90.8406 51.7397C90.6372 52.0377 90.377 52.2926 90.0749 52.49C89.7729 52.6873 89.4349 52.8232 89.0802 52.8897C88.7256 52.9563 88.3613 52.9523 88.0083 52.8779Z" fill="#E0E0E0"/>
<path d="M86.3521 52.5964C86.0473 52.6429 85.7364 52.6289 85.4371 52.5552C85.1378 52.4814 84.856 52.3493 84.6079 52.1664C84.3597 51.9836 84.1501 51.7535 83.9909 51.4895C83.8318 51.2255 83.7263 50.9327 83.6806 50.6279L81.9699 39.3066C81.9237 39.0021 81.938 38.6915 82.0119 38.3925C82.0859 38.0935 82.218 37.812 82.4008 37.5641C82.5837 37.3162 82.8136 37.1068 83.0774 36.9479C83.3412 36.7889 83.6338 36.6835 83.9383 36.6377C84.2431 36.5912 84.554 36.6052 84.8533 36.6789C85.1525 36.7527 85.4344 36.8848 85.6825 37.0677C85.9307 37.2505 86.1403 37.4805 86.2994 37.7446C86.4586 38.0086 86.564 38.3014 86.6098 38.6062L88.3205 49.9249C88.3671 50.2296 88.3531 50.5405 88.2793 50.8398C88.2055 51.1391 88.0734 51.4209 87.8906 51.669C87.7077 51.9172 87.4777 52.1268 87.2137 52.286C86.9497 52.4451 86.6569 52.5506 86.3521 52.5964Z" fill="#E0E0E0"/>
<path d="M89.6824 40.0019C89.4947 40.084 89.2823 40.0891 89.0908 40.016C88.8994 39.943 88.7444 39.7976 88.6591 39.6114L87.1177 36.1692C87.0362 35.9821 87.0312 35.7705 87.1037 35.5798C87.1762 35.389 87.3205 35.2342 87.5057 35.1485C87.6934 35.0664 87.9058 35.0613 88.0972 35.1344C88.2886 35.2074 88.4437 35.3527 88.5289 35.539L90.0704 38.9812C90.1519 39.1683 90.1569 39.3799 90.0844 39.5706C90.0119 39.7614 89.8676 39.9162 89.6824 40.0019Z" fill="#E0E0E0"/>
<path d="M94.3452 40.3325C94.4737 40.4914 94.5347 40.6945 94.5153 40.8979C94.4958 41.1014 94.3973 41.2891 94.241 41.4209L91.3274 43.8189C91.1681 43.9471 90.9649 44.0078 90.7614 43.9878C90.5579 43.9678 90.3703 43.8689 90.239 43.7122C90.1108 43.5529 90.0502 43.3497 90.0701 43.1462C90.0901 42.9427 90.1891 42.7552 90.3458 42.6238L93.2568 40.2283C93.4158 40.0998 93.6188 40.0388 93.8222 40.0582C94.0257 40.0777 94.2134 40.1762 94.3452 40.3325Z" fill="#E0E0E0"/>
<path d="M85.9928 36.1929C86.0997 36.2408 86.1834 36.3289 86.2258 36.438C86.2682 36.5472 86.2659 36.6687 86.2194 36.7762L85.3523 38.7472C85.3044 38.8541 85.2163 38.9378 85.1072 38.9802C84.998 39.0226 84.8765 39.0203 84.769 38.9738C84.6622 38.9259 84.5785 38.8378 84.5361 38.7286C84.4937 38.6195 84.496 38.498 84.5425 38.3905L85.4096 36.4194C85.4575 36.3126 85.5455 36.2289 85.6547 36.1865C85.7639 36.1441 85.8854 36.1464 85.9928 36.1929Z" fill="#E0E0E0"/>
<path d="M81.3533 40.1632C81.4387 40.0829 81.5524 40.0397 81.6696 40.0432C81.7867 40.0466 81.8977 40.0963 81.9782 40.1815L83.4572 41.7437C83.5375 41.8291 83.5807 41.9428 83.5773 42.0599C83.5738 42.1771 83.5241 42.2881 83.439 42.3686C83.3536 42.4489 83.2399 42.4921 83.1227 42.4887C83.0056 42.4853 82.8946 42.4356 82.814 42.3504L81.3351 40.7881C81.2548 40.7028 81.2116 40.5891 81.215 40.4719C81.2184 40.3548 81.2682 40.2438 81.3533 40.1632Z" fill="#E0E0E0"/>
<path d="M92.685 59.2673H82.4886L80.3613 49.2114H94.8123L92.685 59.2673Z" fill="#E6E6E6"/>
<path d="M93.8547 50.9456H81.3201C80.8601 50.9456 80.4191 50.7629 80.0939 50.4377C79.7686 50.1125 79.5859 49.6714 79.5859 49.2115C79.5866 48.752 79.7696 48.3116 80.0948 47.987C80.4199 47.6623 80.8606 47.48 81.3201 47.48H93.8547C94.3142 47.48 94.7548 47.6623 95.08 47.987C95.4051 48.3116 95.5881 48.752 95.5888 49.2115C95.5888 49.6714 95.4061 50.1125 95.0809 50.4377C94.7557 50.7629 94.3146 50.9456 93.8547 50.9456Z" fill="#F5F5F5"/>
<path d="M75.6426 85.2481L79.8815 63.0273H83.4305L76.9887 85.2481H75.6426Z" fill="#E0E0E0"/>
<path d="M99.5301 85.2481L95.2938 63.0273H91.7422L98.184 85.2481H99.5301Z" fill="#E0E0E0"/>
<path d="M91.7425 85.2481L88.6622 63.0273H85.1133L90.3964 85.2481H91.7425Z" fill="#E0E0E0"/>
<path d="M65.0942 97.0068C92.9762 97.0068 115.579 95.6871 115.579 94.0593C115.579 92.4314 92.9762 91.1118 65.0942 91.1118C37.2122 91.1118 14.6094 92.4314 14.6094 94.0593C14.6094 95.6871 37.2122 97.0068 65.0942 97.0068Z" fill="#F5F5F5"/>
<path d="M36.0327 71.6902H24.1229C23.9158 71.6902 23.7171 71.6079 23.5706 71.4614C23.4241 71.3149 23.3418 71.1162 23.3418 70.9091C23.3418 70.7019 23.4241 70.5032 23.5706 70.3567C23.7171 70.2102 23.9158 70.1279 24.1229 70.1279H36.0327C36.2398 70.1279 36.4385 70.2102 36.585 70.3567C36.7315 70.5032 36.8138 70.7019 36.8138 70.9091C36.8138 71.1162 36.7315 71.3149 36.585 71.4614C36.4385 71.6079 36.2398 71.6902 36.0327 71.6902Z" fill="#FF6D38"/>
<path opacity="0.8" d="M36.0327 71.6902H24.1229C23.9158 71.6902 23.7171 71.6079 23.5706 71.4614C23.4241 71.3149 23.3418 71.1162 23.3418 70.9091C23.3418 70.7019 23.4241 70.5032 23.5706 70.3567C23.7171 70.2102 23.9158 70.1279 24.1229 70.1279H36.0327C36.2398 70.1279 36.4385 70.2102 36.585 70.3567C36.7315 70.5032 36.8138 70.7019 36.8138 70.9091C36.8138 71.1162 36.7315 71.3149 36.585 71.4614C36.4385 71.6079 36.2398 71.6902 36.0327 71.6902Z" fill="white"/>
<path d="M46.7596 91.7888L48.5146 90.9842L47.6684 86.4536L45.916 87.2608L46.7596 91.7888Z" fill="#7F3E3B"/>
<path d="M48.4298 90.5027L46.4587 91.4062C46.4249 91.42 46.398 91.4467 46.3838 91.4804C46.3697 91.5141 46.3694 91.552 46.3832 91.5858L47.0029 93.1898C47.0404 93.2718 47.1087 93.3358 47.1929 93.3679C47.2772 93.4001 47.3707 93.3978 47.4534 93.3616C48.1356 93.0336 48.4428 92.8409 49.3099 92.4451C49.8436 92.2003 52.1376 91.2161 52.8718 90.8828C53.6061 90.5495 53.2546 89.8257 52.9109 89.9038C51.3773 90.2501 49.4557 90.6381 48.7813 90.4766C48.6645 90.4455 48.5407 90.4546 48.4298 90.5027Z" fill="#263238"/>
<path opacity="0.2" d="M45.9121 87.2611L47.6671 86.4565L48.1045 88.7921L46.3469 89.5967L45.9121 87.2611Z" fill="black"/>
<path d="M34.384 62.6553C34.384 62.6553 49.4027 63.7306 48.796 69.2324C47.9263 77.1401 48.6424 87.1439 48.6424 87.1439L45.372 88.4926C45.372 88.4926 42.5079 77.3458 43.2708 71.1827C39.5239 69.6204 29.3639 71.1176 28.1688 67.8811C27.5845 66.2041 27.4306 64.4072 27.7209 62.6553H34.384Z" fill="#263238"/>
<path opacity="0.3" d="M41.7024 67.2354C41.7024 67.2354 41.3379 68.8705 41.0879 70.6463H41.1217L41.5071 70.7062L41.7024 70.7427L41.9237 70.7843C42.2254 70.844 42.5236 70.9205 42.8168 71.0134C42.8871 71.0343 42.9522 71.0577 43.0173 71.0811C43.0824 71.1046 43.1918 71.1436 43.2777 71.1775C43.1875 71.937 43.1431 72.7013 43.1449 73.4662C45.4232 70.1203 43.4651 67.2354 41.7024 67.2354Z" fill="black"/>
<path d="M45.0787 89.5678L49.3099 87.6254L49.0365 86.0684L44.6855 87.6593L45.0787 89.5678Z" fill="#FF6D38"/>
<path d="M49.2113 90.5233C49.0511 90.5905 48.8844 90.6411 48.7139 90.6743C48.7056 90.6762 48.6968 90.6754 48.6889 90.6722C48.681 90.6689 48.6743 90.6633 48.6697 90.6561C48.6647 90.6488 48.6621 90.6402 48.6621 90.6313C48.6621 90.6225 48.6647 90.6139 48.6697 90.6066C48.7061 90.5415 49.0472 89.9765 49.2998 89.9609C49.3288 89.9588 49.3578 89.9644 49.3838 89.9773C49.4099 89.9901 49.4321 90.0096 49.4482 90.0338C49.4781 90.0661 49.4987 90.1059 49.5079 90.149C49.517 90.1921 49.5144 90.2368 49.5003 90.2785C49.4381 90.3935 49.3349 90.4809 49.2113 90.5233ZM48.7999 90.5623C49.141 90.4816 49.3675 90.3671 49.4117 90.2473C49.4212 90.2201 49.4228 90.1907 49.4163 90.1626C49.4099 90.1346 49.3957 90.1088 49.3753 90.0885C49.3679 90.076 49.3571 90.066 49.3442 90.0595C49.3313 90.0531 49.3168 90.0505 49.3024 90.052C49.1592 90.0598 48.9353 90.3514 48.792 90.5623H48.7999Z" fill="#FF6D38"/>
<path d="M48.7156 90.6719H48.6895C48.6817 90.6724 48.674 90.6704 48.6674 90.6661C48.6609 90.6619 48.6558 90.6557 48.6531 90.6484C48.6531 90.6302 48.3693 90.1433 48.4682 89.8907C48.4799 89.8581 48.4992 89.8288 48.5246 89.8052C48.55 89.7817 48.5806 89.7646 48.614 89.7553C48.6495 89.74 48.689 89.7371 48.7264 89.747C48.7637 89.7569 48.7966 89.7791 48.8197 89.81C48.9473 89.9819 48.8562 90.4688 48.7286 90.6536L48.7156 90.6719ZM48.627 89.8491C48.6105 89.8565 48.5958 89.8673 48.5837 89.8807C48.5716 89.8942 48.5624 89.91 48.5567 89.9272C48.5371 90.1401 48.5864 90.3537 48.6973 90.5365C48.8016 90.3289 48.8212 90.089 48.752 89.8673C48.7364 89.8438 48.7104 89.823 48.6479 89.8412L48.627 89.8491Z" fill="#FF6D38"/>
<path d="M35.1174 47.001L36.9401 52.2867C37.2499 53.1667 37.5572 54.0442 37.8748 54.9113C38.1925 55.7783 38.518 56.6428 38.8669 57.4656L38.781 57.3094C38.6936 57.1831 38.5764 57.0802 38.4399 57.0099C38.28 56.9254 38.0993 56.8884 37.9191 56.9032C37.6822 56.9344 37.69 56.9839 37.716 56.9657C37.8673 56.8934 38.0061 56.7976 38.1274 56.6819C38.4895 56.3589 38.8329 56.0155 39.1559 55.6534C39.5022 55.2758 39.8433 54.8722 40.1974 54.4791L41.2233 53.2709L42.4679 54.0156C42.2518 54.5363 42.0071 55.0258 41.7571 55.5232C41.5071 56.0205 41.2363 56.4996 40.9265 56.9813C40.6161 57.4836 40.2679 57.9614 39.885 58.4108C39.6424 58.693 39.364 58.9425 39.057 59.1529C38.7753 59.3477 38.4478 59.4662 38.1066 59.4966C37.7937 59.5218 37.4801 59.4567 37.2031 59.3091C36.9477 59.1726 36.7309 58.9737 36.573 58.731L36.5417 58.6842L36.487 58.5774C36.0496 57.6921 35.6642 56.8173 35.2945 55.932C34.9248 55.0467 34.5732 54.1692 34.2374 53.2813C33.9015 52.3934 33.5734 51.5055 33.2609 50.6124C32.9485 49.7193 32.6412 48.8262 32.3574 47.9149L35.1174 47.001Z" fill="#803E3C"/>
<path d="M35.4444 47.2874C37.0067 49.0892 38.0482 51.6097 38.0482 51.6097L33.9446 54.0807C32.7599 52.6382 31.2836 48.8158 31.2211 47.527C31.1299 45.5455 33.7519 45.3476 35.4444 47.2874Z" fill="#FF6D38"/>
<path opacity="0.3" d="M33.9978 49.1259C34.8935 49.8784 35.5288 51.4433 35.8204 52.9613L33.9613 54.0809C33.3755 53.3675 32.7167 52.0734 32.1934 50.7871C32.5996 49.5113 33.2062 48.4593 33.9978 49.1259Z" fill="black"/>
<path d="M34.5781 91.638H36.5101L37.3928 87.1699H35.4634L34.5781 91.638Z" fill="#7F3E3B"/>
<path d="M36.5693 91.169H34.4004C34.3822 91.1684 34.3641 91.1712 34.3471 91.1775C34.3301 91.1838 34.3145 91.1934 34.3012 91.2058C34.2879 91.2181 34.2772 91.2329 34.2696 91.2494C34.2621 91.2659 34.2578 91.2837 34.2571 91.3018L34.1504 93.0177C34.1504 93.108 34.1859 93.1946 34.2492 93.2589C34.3125 93.3233 34.3986 93.3601 34.4889 93.3614C35.244 93.3484 35.6059 93.3041 36.5589 93.3041C37.1447 93.3041 39.1366 93.364 39.9438 93.364C40.751 93.364 40.725 92.5621 40.3865 92.4892C38.8476 92.1637 37.4442 91.708 36.8974 91.2888C36.8051 91.2123 36.6892 91.17 36.5693 91.169Z" fill="#263238"/>
<path opacity="0.2" d="M35.4622 87.1699H37.3916L36.9359 89.4743H35.0039L35.4622 87.1699Z" fill="black"/>
<path d="M30.6012 62.6553C30.6012 62.6553 43.3285 63.7306 43.016 69.2559C42.6723 75.3071 37.7746 88.9171 37.7746 88.9171H34.2386C34.2386 88.9171 35.8374 76.6038 36.6107 70.4432C33.0253 70.4432 25.5811 71.1176 24.3885 67.8811C23.8086 66.203 23.6591 64.4062 23.9537 62.6553H30.6012Z" fill="#263238"/>
<path d="M33.8594 88.9167H38.5149L38.7805 87.0811L33.9219 87.2998L33.8594 88.9167Z" fill="#FF6D38"/>
<path d="M37.252 91.5053C37.0765 91.5013 36.902 91.4786 36.7313 91.4376C36.7226 91.4359 36.7146 91.4317 36.7083 91.4255C36.7021 91.4192 36.6978 91.4112 36.6961 91.4025C36.6944 91.3938 36.6954 91.3848 36.6989 91.3767C36.7024 91.3686 36.7082 91.3617 36.7156 91.3569C36.7781 91.3126 37.3223 90.9403 37.5593 91.0314C37.5858 91.0424 37.6092 91.0599 37.6274 91.0821C37.6455 91.1044 37.6579 91.1308 37.6634 91.159C37.6757 91.2011 37.6771 91.2456 37.6675 91.2884C37.6579 91.3312 37.6377 91.3708 37.6087 91.4037C37.5063 91.4802 37.3794 91.5164 37.252 91.5053ZM36.8615 91.3725C37.2078 91.4402 37.4629 91.4298 37.5515 91.3412C37.5711 91.3199 37.5846 91.2936 37.5906 91.2652C37.5965 91.2368 37.5947 91.2073 37.5853 91.1798C37.5832 91.1656 37.5772 91.1523 37.5681 91.1413C37.5589 91.1302 37.5468 91.122 37.5332 91.1173C37.4083 91.0679 37.0854 91.2293 36.8615 91.3725Z" fill="#FF6D38"/>
<path d="M36.7484 91.4372C36.7417 91.4398 36.7343 91.4398 36.7276 91.4372C36.7208 91.4322 36.7157 91.4254 36.7129 91.4175C36.7102 91.4096 36.7098 91.401 36.712 91.3929C36.712 91.3695 36.6651 90.8149 36.8604 90.6274C36.8854 90.6034 36.9154 90.5854 36.9483 90.5746C36.9812 90.5638 37.0161 90.5605 37.0505 90.5649C37.0889 90.5662 37.1258 90.5802 37.1555 90.6047C37.1852 90.6292 37.2059 90.6628 37.2145 90.7003C37.2588 90.9112 36.9697 91.3148 36.7797 91.4294L36.7484 91.4372ZM37.0088 90.656C36.9728 90.656 36.9382 90.67 36.9125 90.6951C36.8053 90.8801 36.7605 91.0946 36.7849 91.307C36.9541 91.1664 37.1442 90.8591 37.1155 90.7211C37.1155 90.6951 37.0947 90.6639 37.0296 90.656H37.0088Z" fill="#FF6D38"/>
<path d="M40.9336 53.9274L41.5325 51.7871L43.4619 53.0604C43.4619 53.0604 42.4204 54.9143 41.7668 54.7632L40.9336 53.9274Z" fill="#7F3E3B"/>
<path d="M43.322 50.9175L44.3297 52.0762L43.4626 53.0604L41.5332 51.7845L43.322 50.9175Z" fill="#7F3E3B"/>
<path d="M34.3701 62.7513H24.0487C23.9757 61.8295 24.1893 58.83 24.0304 55.0102C23.9323 52.179 23.589 49.3615 23.0045 46.5896C22.9577 46.3813 22.9108 46.1756 22.8613 45.9673C22.8613 45.9673 23.3821 45.8605 24.1346 45.7511C24.7569 45.66 25.538 45.5663 26.3035 45.5298C27.7648 45.4464 29.2296 45.4464 30.6909 45.5298C31.3653 45.5923 32.0241 45.7043 32.55 45.8058C33.2218 45.9412 33.6176 46.0662 33.6176 46.0662C33.6176 46.0662 36.1615 51.8987 34.3701 62.7513Z" fill="#FF6D38"/>
<path opacity="0.3" d="M24.0298 55.013C23.9317 52.1818 23.5884 49.3644 23.0039 46.5924C23.6939 46.5325 24.8734 46.5924 25.0687 47.7146C25.2796 48.9123 25.014 51.7296 24.0298 55.013Z" fill="black"/>
<path d="M24.8622 48.5166C24.6357 49.1597 24.391 49.8524 24.1748 50.5267C23.9587 51.2011 23.7452 51.8885 23.5525 52.5707C23.1521 53.8892 22.8698 55.2407 22.7089 56.6092L22.6907 56.8487V56.9685C22.6907 56.9945 22.6907 57.0883 22.6907 57.0154C22.6714 56.8662 22.614 56.7245 22.524 56.604C22.4166 56.4522 22.2633 56.339 22.0866 56.2811C21.9877 56.2551 21.9616 56.2629 21.959 56.2655C21.9863 56.2728 22.015 56.2728 22.0423 56.2655C22.1645 56.2578 22.2857 56.2386 22.4043 56.2082C23.0473 56.0332 23.6759 55.8086 24.2842 55.5364C25.5861 54.9792 26.9062 54.3335 28.2081 53.6929L29.0049 54.9011C27.8332 55.876 26.5884 56.7595 25.2815 57.5439C24.5907 57.9678 23.8609 58.3244 23.1021 58.6089C22.8688 58.6909 22.6293 58.7545 22.386 58.799C22.2323 58.828 22.0764 58.8445 21.92 58.8484C21.6915 58.8527 21.4638 58.8202 21.2456 58.7521C20.8908 58.642 20.5817 58.4189 20.3655 58.1168C20.1728 57.8389 20.0626 57.5121 20.0478 57.1742C20.0439 57.0987 20.0439 57.0231 20.0478 56.9477V56.4764C20.0685 55.6766 20.1477 54.8795 20.2848 54.0913C20.4098 53.3102 20.5712 52.5655 20.7587 51.8234C20.9462 51.0813 21.1492 50.3471 21.3836 49.6232C21.6179 48.8994 21.8523 48.1937 22.1491 47.4595L24.8622 48.5166Z" fill="#803E3C"/>
<path d="M22.8609 45.9699C24.7408 45.3762 25.9438 46.8786 25.423 49.485C25.0684 51.1502 24.4663 52.7528 23.6368 54.2395L19.8379 52.4377C20.1998 49.8834 20.9367 46.5766 22.8609 45.9699Z" fill="#FF6D38"/>
<path d="M26.3977 40.6191L27.5721 41.593L29.1708 42.9209C29.1234 43.1338 29.0895 43.3495 29.0692 43.5666C28.9833 44.4337 29.2072 45.2226 30.4831 45.5247C30.4831 45.5247 31.7381 46.6964 29.2281 46.7328C26.718 46.7693 26.1348 45.5507 26.1348 45.5507C27.0799 44.6003 26.7232 42.0252 26.3977 40.6191Z" fill="#7F3E3B"/>
<path opacity="0.2" d="M29.1614 42.9134C29.114 43.1263 29.0801 43.3419 29.0598 43.5591C28.4636 43.4393 27.6668 42.804 27.5835 42.1947C27.5542 41.993 27.5472 41.7887 27.5627 41.5854L29.1614 42.9134Z" fill="black"/>
<path d="M31.0322 39.1481C31.4931 38.1066 31.2041 36.599 30.4229 36.0391C30.2521 35.9116 30.049 35.8345 29.8366 35.8166C29.6242 35.7986 29.4111 35.8405 29.2213 35.9376C29.0315 36.0346 28.8727 36.1829 28.763 36.3656C28.6532 36.5484 28.5968 36.7582 28.6003 36.9713C28.5586 38.2524 30.5062 40.3328 31.0322 39.1481Z" fill="#263238"/>
<path d="M25.9133 38.5778C26.3221 40.4551 26.4653 41.5695 27.5745 42.4262C27.9317 42.708 28.3592 42.887 28.8107 42.9436C29.2622 43.0002 29.7205 42.9323 30.1363 42.7474C30.552 42.5624 30.9093 42.2674 31.1696 41.8941C31.4299 41.5209 31.5832 41.0836 31.613 40.6296C31.7588 38.8824 31.0688 36.1042 29.0925 35.573C28.6678 35.4471 28.2174 35.435 27.7865 35.538C27.3556 35.6409 26.9593 35.8553 26.6373 36.1596C26.3154 36.4639 26.079 36.8474 25.9519 37.2718C25.8249 37.6963 25.8115 38.1466 25.9133 38.5778Z" fill="#7F3E3B"/>
<path d="M26.7086 40.0412C27.3049 39.0673 27.2112 37.5363 26.5133 36.8802C26.3608 36.7284 26.1686 36.6228 25.9587 36.5754C25.7489 36.528 25.5299 36.5409 25.327 36.6124C25.1241 36.6839 24.9455 36.8113 24.8118 36.9798C24.678 37.1483 24.5945 37.3511 24.5709 37.565C24.373 38.833 26.0369 41.14 26.7086 40.0412Z" fill="#263238"/>
<path d="M27.0085 37.718C27.4359 37.4957 27.6022 36.969 27.3799 36.5416C27.1576 36.1142 26.6309 35.948 26.2035 36.1703C25.7762 36.3925 25.6099 36.9192 25.8322 37.3466C26.0545 37.774 26.5812 37.9403 27.0085 37.718Z" fill="#263238"/>
<path d="M26.6985 36.5886C26.6534 36.7372 26.565 36.869 26.4447 36.9671C26.3243 37.0652 26.1774 37.1253 26.0228 37.1395C25.8681 37.1538 25.7128 37.1216 25.5765 37.0472C25.4402 36.9727 25.3292 36.8593 25.2577 36.7214C25.1862 36.5836 25.1574 36.4275 25.1749 36.2732C25.1925 36.1189 25.2557 35.9734 25.3564 35.8552C25.4571 35.7369 25.5908 35.6514 25.7403 35.6095C25.8899 35.5676 26.0485 35.5713 26.196 35.62C26.3896 35.6839 26.5505 35.821 26.6444 36.002C26.7383 36.1829 26.7577 36.3935 26.6985 36.5886Z" fill="#263238"/>
<path d="M28.0074 36.453C27.9613 36.6008 27.8724 36.7315 27.752 36.8286C27.6315 36.9258 27.4849 36.9849 27.3308 36.9987C27.1767 37.0124 27.0219 36.98 26.8862 36.9056C26.7505 36.8313 26.64 36.7183 26.5686 36.581C26.4972 36.4437 26.4682 36.2883 26.4852 36.1345C26.5023 35.9807 26.5646 35.8354 26.6644 35.7171C26.7641 35.5988 26.8968 35.5128 27.0455 35.47C27.1942 35.4271 27.3522 35.4294 27.4996 35.4766C27.696 35.5394 27.8595 35.6773 27.9546 35.8602C28.0498 36.0431 28.0687 36.2562 28.0074 36.453Z" fill="#263238"/>
<path d="M26.4627 35.5967C26.4021 35.79 26.2856 35.961 26.1278 36.088C25.97 36.215 25.778 36.2924 25.5762 36.3102C25.3745 36.328 25.1719 36.2855 24.9943 36.1882C24.8167 36.0908 24.6719 35.9429 24.5784 35.7632C24.4849 35.5835 24.4469 35.3801 24.4691 35.1787C24.4913 34.9774 24.5727 34.7872 24.7031 34.6321C24.8335 34.4771 25.007 34.3643 25.2016 34.308C25.3961 34.2516 25.6031 34.2543 25.7961 34.3156C25.9242 34.3556 26.0432 34.4206 26.1461 34.5067C26.249 34.5928 26.3339 34.6985 26.3959 34.8175C26.4578 34.9366 26.4956 35.0667 26.5071 35.2005C26.5185 35.3342 26.5035 35.4688 26.4627 35.5967Z" fill="#263238"/>
<path d="M27.9951 35.0601C27.9339 35.2571 27.8155 35.4314 27.6551 35.5611C27.4947 35.6907 27.2994 35.7698 27.094 35.7883C26.8885 35.8068 26.6823 35.7639 26.5012 35.665C26.3202 35.5662 26.1727 35.4158 26.0772 35.2329C25.9818 35.0501 25.9428 34.843 25.9651 34.638C25.9875 34.433 26.0703 34.2392 26.2029 34.0812C26.3355 33.9233 26.5121 33.8083 26.7101 33.7508C26.9082 33.6933 27.1189 33.6959 27.3155 33.7582C27.5778 33.8415 27.7965 34.0251 27.9238 34.269C28.0511 34.513 28.0768 34.7974 27.9951 35.0601Z" fill="#263238"/>
<path d="M29.3488 34.701C29.2878 34.8979 29.1696 35.0723 29.0094 35.202C28.8492 35.3318 28.654 35.411 28.4487 35.4298C28.2434 35.4485 28.0371 35.4059 27.856 35.3073C27.6749 35.2087 27.5272 35.0586 27.4315 34.876C27.3358 34.6934 27.2964 34.4865 27.3184 34.2814C27.3404 34.0764 27.4228 33.8826 27.5551 33.7244C27.6873 33.5663 27.8636 33.4509 28.0615 33.393C28.2593 33.3351 28.47 33.3372 28.6666 33.3991C28.9294 33.4818 29.1487 33.6652 29.2766 33.9092C29.4044 34.1532 29.4304 34.4379 29.3488 34.701Z" fill="#263238"/>
<path d="M30.9219 34.7061C30.858 34.901 30.738 35.0728 30.5769 35.1998C30.4158 35.3268 30.2208 35.4034 30.0164 35.4199C29.8119 35.4365 29.6071 35.3924 29.4277 35.293C29.2482 35.1937 29.1021 35.0435 29.0076 34.8614C28.9132 34.6793 28.8746 34.4734 28.8967 34.2695C28.9188 34.0656 29.0007 33.8727 29.132 33.7151C29.2633 33.5575 29.4383 33.4422 29.6349 33.3837C29.8315 33.3251 30.041 33.3259 30.2371 33.386C30.3695 33.4265 30.4925 33.4931 30.5989 33.5817C30.7053 33.6704 30.7929 33.7793 30.8567 33.9023C30.9204 34.0252 30.959 34.1596 30.9702 34.2976C30.9814 34.4356 30.965 34.5745 30.9219 34.7061Z" fill="#263238"/>
<path d="M25.717 36.6952C25.6609 36.8725 25.5535 37.0291 25.4084 37.1454C25.2632 37.2616 25.0869 37.3322 24.9016 37.3481C24.7164 37.3641 24.5305 37.3248 24.3676 37.2351C24.2047 37.1455 24.0721 37.0095 23.9865 36.8445C23.9008 36.6794 23.8661 36.4927 23.8866 36.3079C23.9071 36.1231 23.982 35.9485 24.1018 35.8063C24.2215 35.664 24.3807 35.5605 24.5593 35.5088C24.7379 35.4571 24.9279 35.4595 25.1051 35.5157C25.3426 35.5911 25.5405 35.7576 25.6552 35.9788C25.7699 36.2 25.7922 36.4577 25.717 36.6952Z" fill="#263238"/>
<path d="M28.9025 35.8414C28.852 36.0015 28.7552 36.1431 28.6243 36.2481C28.4934 36.3532 28.3342 36.4171 28.167 36.4317C27.9998 36.4464 27.832 36.4111 27.6848 36.3304C27.5376 36.2497 27.4177 36.1271 27.3401 35.9782C27.2626 35.8293 27.2309 35.6608 27.2492 35.4939C27.2674 35.327 27.3347 35.1693 27.4426 35.0407C27.5504 34.9121 27.694 34.8183 27.8552 34.7713C28.0163 34.7243 28.1878 34.7261 28.3479 34.7765C28.4543 34.81 28.553 34.8641 28.6384 34.9357C28.7238 35.0074 28.7943 35.0952 28.8458 35.1941C28.8973 35.293 28.9289 35.401 28.9386 35.5121C28.9483 35.6232 28.936 35.7351 28.9025 35.8414Z" fill="#263238"/>
<path d="M29.9427 35.7631C29.9 35.8993 29.8179 36.0197 29.7068 36.1092C29.5956 36.1987 29.4604 36.2532 29.3182 36.2658C29.1761 36.2785 29.0334 36.2486 28.9082 36.1801C28.783 36.1116 28.681 36.0075 28.615 35.881C28.549 35.7545 28.522 35.6112 28.5374 35.4693C28.5529 35.3275 28.6101 35.1934 28.7018 35.084C28.7935 34.9747 28.9155 34.895 29.0525 34.855C29.1895 34.8151 29.3353 34.8167 29.4714 34.8596C29.6536 34.9171 29.8056 35.0445 29.8939 35.2139C29.9823 35.3832 29.9998 35.5808 29.9427 35.7631Z" fill="#263238"/>
<path d="M31.5303 35.2034C31.4872 35.3387 31.405 35.4582 31.294 35.5469C31.183 35.6355 31.0482 35.6892 30.9067 35.7013C30.7651 35.7134 30.6232 35.6832 30.4988 35.6147C30.3744 35.5461 30.2731 35.4422 30.2077 35.3162C30.1423 35.1901 30.1157 35.0474 30.1313 34.9062C30.1469 34.7651 30.204 34.6317 30.2954 34.5229C30.3868 34.4142 30.5083 34.335 30.6447 34.2952C30.7811 34.2555 30.9262 34.2571 31.0617 34.2998C31.1518 34.3283 31.2355 34.3742 31.3079 34.4351C31.3803 34.4959 31.44 34.5704 31.4835 34.6543C31.5271 34.7383 31.5536 34.83 31.5616 34.9242C31.5697 35.0184 31.559 35.1133 31.5303 35.2034Z" fill="#263238"/>
<path d="M30.8894 35.7916C30.8485 35.9218 30.7699 36.037 30.6636 36.1226C30.5572 36.2082 30.4278 36.2603 30.2918 36.2723C30.1558 36.2844 30.0193 36.2558 29.8995 36.1902C29.7798 36.1246 29.6822 36.025 29.6191 35.9039C29.556 35.7828 29.5303 35.6457 29.5451 35.51C29.56 35.3743 29.6147 35.246 29.7025 35.1414C29.7903 35.0369 29.9071 34.9607 30.0382 34.9225C30.1693 34.8844 30.3088 34.886 30.4389 34.9271C30.5254 34.9541 30.6057 34.9979 30.6752 35.056C30.7447 35.1141 30.802 35.1853 30.8439 35.2657C30.8858 35.346 30.9113 35.4338 30.9191 35.5241C30.9269 35.6143 30.9168 35.7052 30.8894 35.7916Z" fill="#263238"/>
<path d="M32.1717 34.8674C32.1381 34.9746 32.0734 35.0694 31.9859 35.1398C31.8983 35.2102 31.7919 35.2531 31.6799 35.2629C31.568 35.2728 31.4557 35.2492 31.3572 35.1952C31.2587 35.1412 31.1784 35.0591 31.1265 34.9594C31.0747 34.8598 31.0536 34.7469 31.0659 34.6353C31.0782 34.5236 31.1234 34.4181 31.1958 34.3321C31.2681 34.2461 31.3643 34.1835 31.4722 34.1523C31.5802 34.121 31.6949 34.1225 31.802 34.1565C31.8731 34.1787 31.939 34.2148 31.9961 34.2626C32.0532 34.3104 32.1003 34.369 32.1347 34.4351C32.169 34.5011 32.19 34.5733 32.1963 34.6475C32.2027 34.7217 32.1943 34.7964 32.1717 34.8674Z" fill="#263238"/>
<path d="M32.4549 35.3906C32.435 35.4547 32.3966 35.5115 32.3444 35.5538C32.2922 35.596 32.2286 35.6218 32.1617 35.6278C32.0948 35.6338 32.0276 35.6197 31.9687 35.5874C31.9098 35.5552 31.8619 35.5061 31.831 35.4465C31.8 35.3868 31.7876 35.3194 31.7951 35.2526C31.8027 35.1859 31.8299 35.1229 31.8733 35.0717C31.9168 35.0205 31.9745 34.9833 32.0391 34.965C32.1037 34.9467 32.1723 34.948 32.2362 34.9687C32.2782 34.9821 32.3172 35.0036 32.351 35.032C32.3848 35.0604 32.4126 35.0952 32.4329 35.1343C32.4532 35.1735 32.4656 35.2163 32.4694 35.2603C32.4731 35.3042 32.4682 35.3485 32.4549 35.3906Z" fill="#263238"/>
<path d="M26.8372 35.8101C26.8171 35.874 26.7785 35.9305 26.7264 35.9724C26.6742 36.0144 26.6107 36.0399 26.544 36.0458C26.4773 36.0517 26.4104 36.0377 26.3517 36.0055C26.293 35.9733 26.2451 35.9245 26.2141 35.8651C26.1832 35.8058 26.1705 35.7385 26.1778 35.672C26.185 35.6054 26.2118 35.5425 26.2548 35.4912C26.2978 35.4399 26.3551 35.4025 26.4193 35.3837C26.4836 35.3649 26.552 35.3656 26.6159 35.3857C26.7011 35.4132 26.7721 35.4732 26.8135 35.5526C26.8549 35.632 26.8634 35.7245 26.8372 35.8101Z" fill="#263238"/>
<path d="M25.6083 40.3173C25.865 40.6511 26.2359 40.8782 26.6498 40.9552C27.1706 41.049 27.3424 40.5621 27.1081 40.0882C26.8946 39.6612 26.366 39.0987 25.8739 39.2185C25.3818 39.3383 25.2932 39.9033 25.6083 40.3173Z" fill="#7F3E3B"/>
<path d="M29.128 38.7496C29.1514 38.9033 29.2529 39.01 29.3545 39.01C29.456 39.01 29.5185 38.8642 29.4951 38.7106C29.4717 38.557 29.3701 38.4502 29.2686 38.4502C29.167 38.4502 29.1045 38.596 29.128 38.7496Z" fill="#263238"/>
<path d="M30.876 38.5364C30.8994 38.69 31.001 38.7968 31.1025 38.7968C31.2041 38.7968 31.2666 38.6484 31.2431 38.4948C31.2197 38.3411 31.1182 38.2344 31.0166 38.2344C30.9151 38.2344 30.8526 38.388 30.876 38.5364Z" fill="#263238"/>
<path d="M30.3438 38.604C30.5364 39.0005 30.7817 39.3692 31.0728 39.7002C30.9868 39.7699 30.8863 39.8196 30.7787 39.8457C30.671 39.8719 30.5589 39.8737 30.4505 39.8512L30.3438 38.604Z" fill="#630F0F"/>
<path d="M29.7345 40.6426C29.554 40.6446 29.3749 40.6101 29.208 40.5412C29.0411 40.4723 28.8898 40.3704 28.7633 40.2416C28.7554 40.2327 28.7513 40.2209 28.752 40.2089C28.7528 40.197 28.7582 40.1858 28.7672 40.1778C28.7762 40.1699 28.7879 40.1659 28.7999 40.1666C28.8119 40.1673 28.8231 40.1728 28.831 40.1818C28.9715 40.3189 29.1413 40.4224 29.3275 40.4846C29.5137 40.5468 29.7116 40.5661 29.9064 40.5411C29.918 40.5403 29.9295 40.5438 29.9386 40.551C29.9478 40.5583 29.9539 40.5686 29.9558 40.5801C29.9573 40.5922 29.9541 40.6043 29.9468 40.6141C29.9395 40.6238 29.9288 40.6303 29.9168 40.6322C29.8563 40.6395 29.7954 40.643 29.7345 40.6426Z" fill="#263238"/>
<path d="M28.4258 37.862C28.4115 37.8577 28.3983 37.8506 28.3867 37.8412C28.3781 37.8327 28.3712 37.8226 28.3665 37.8114C28.3618 37.8002 28.3594 37.7882 28.3594 37.7761C28.3594 37.7639 28.3618 37.7519 28.3665 37.7408C28.3712 37.7296 28.3781 37.7195 28.3867 37.711C28.4816 37.5997 28.6027 37.5138 28.7391 37.4611C28.8754 37.4083 29.0228 37.3904 29.1679 37.4089C29.1798 37.4108 29.1913 37.4151 29.2016 37.4215C29.2118 37.428 29.2206 37.4365 29.2275 37.4465C29.2343 37.4565 29.239 37.4678 29.2413 37.4797C29.2436 37.4916 29.2434 37.5039 29.2408 37.5157C29.2389 37.5274 29.2347 37.5386 29.2284 37.5487C29.2221 37.5587 29.2138 37.5674 29.2041 37.5742C29.1944 37.581 29.1834 37.5858 29.1718 37.5882C29.1602 37.5907 29.1483 37.5908 29.1366 37.5886C29.024 37.5774 28.9104 37.5938 28.8056 37.6364C28.7007 37.6791 28.6079 37.7467 28.5351 37.8334C28.5223 37.849 28.5047 37.8603 28.4851 37.8654C28.4655 37.8705 28.4447 37.8694 28.4258 37.862Z" fill="#263238"/>
<path d="M31.5045 37.7551C31.4902 37.7593 31.4751 37.7599 31.4605 37.7567C31.4459 37.7535 31.4324 37.7467 31.4212 37.7369C31.3325 37.6602 31.2277 37.6045 31.1146 37.5738C31.0015 37.5432 30.8829 37.5384 30.7676 37.5598C30.7562 37.5634 30.7441 37.5645 30.7322 37.5633C30.7203 37.5621 30.7087 37.5584 30.6983 37.5526C30.6878 37.5467 30.6786 37.5388 30.6713 37.5293C30.664 37.5198 30.6587 37.5089 30.6557 37.4973C30.6492 37.4742 30.6522 37.4494 30.6639 37.4285C30.6756 37.4075 30.6951 37.392 30.7182 37.3854C30.8615 37.3545 31.01 37.3575 31.1519 37.3941C31.2938 37.4307 31.4253 37.5 31.5358 37.5963C31.5545 37.612 31.5663 37.6344 31.5687 37.6587C31.5712 37.683 31.564 37.7073 31.5488 37.7264C31.5364 37.7392 31.5212 37.749 31.5045 37.7551Z" fill="#263238"/>
<path d="M27.8047 53.9117L28.4817 52.2661L29.9085 53.7841C29.9085 53.7841 29.2185 55.3985 28.4166 54.9714L27.8047 53.9117Z" fill="#7F3E3B"/>
<path d="M30.2608 51.1592L31.055 52.4715L29.9093 53.7838L28.4824 52.2632L30.2608 51.1592Z" fill="#7F3E3B"/>
<path d="M72.4476 37.0495C73.7044 37.0495 74.7233 36.0306 74.7233 34.7738C74.7233 33.5169 73.7044 32.498 72.4476 32.498C71.1907 32.498 70.1719 33.5169 70.1719 34.7738C70.1719 36.0306 71.1907 37.0495 72.4476 37.0495Z" fill="#263238"/>
<path d="M72.9762 37.1145C72.5127 37.1145 72.0597 36.9771 71.6743 36.7196C71.2889 36.4621 70.9886 36.0961 70.8112 35.6679C70.6338 35.2397 70.5874 34.7685 70.6778 34.314C70.7683 33.8594 70.9915 33.4418 71.3192 33.1141C71.6469 32.7864 72.0645 32.5632 72.519 32.4728C72.9736 32.3823 73.4448 32.4287 73.873 32.6061C74.3012 32.7835 74.6672 33.0838 74.9247 33.4692C75.1822 33.8546 75.3196 34.3077 75.3196 34.7711C75.3196 35.3927 75.0727 35.9887 74.6333 36.4282C74.1938 36.8677 73.5977 37.1145 72.9762 37.1145ZM72.9762 32.5657C72.5389 32.5657 72.1114 32.6955 71.7478 32.9385C71.3842 33.1815 71.1009 33.5269 70.9336 33.931C70.7664 34.3351 70.7228 34.7797 70.8083 35.2086C70.8938 35.6375 71.1046 36.0314 71.414 36.3404C71.7234 36.6495 72.1176 36.8598 72.5465 36.9448C72.9755 37.0298 73.4201 36.9857 73.824 36.8179C74.2279 36.6502 74.573 36.3665 74.8155 36.0026C75.0581 35.6387 75.1874 35.2111 75.1868 34.7737C75.1862 34.1879 74.9529 33.6263 74.5384 33.2123C74.1239 32.7983 73.5621 32.5657 72.9762 32.5657Z" fill="#263238"/>
<path d="M67.9333 38.4295C67.4698 38.4295 67.0167 38.2921 66.6313 38.0346C66.246 37.7771 65.9456 37.4111 65.7682 36.9829C65.5909 36.5547 65.5445 36.0835 65.6349 35.6289C65.7253 35.1743 65.9485 34.7568 66.2762 34.429C66.6039 34.1013 67.0215 33.8781 67.4761 33.7877C67.9307 33.6973 68.4018 33.7437 68.83 33.9211C69.2582 34.0984 69.6242 34.3988 69.8817 34.7842C70.1392 35.1695 70.2767 35.6226 70.2767 36.0861C70.2767 36.7076 70.0298 37.3037 69.5903 37.7431C69.1508 38.1826 68.5548 38.4295 67.9333 38.4295ZM67.9333 33.8781C67.496 33.8781 67.0686 34.0077 66.7051 34.2506C66.3416 34.4935 66.0582 34.8388 65.8909 35.2427C65.7236 35.6467 65.6798 36.0911 65.7651 36.52C65.8504 36.9488 66.061 37.3427 66.3701 37.6518C66.6793 37.961 67.0732 38.1715 67.502 38.2568C67.9308 38.3421 68.3753 38.2983 68.7792 38.131C69.1832 37.9637 69.5284 37.6804 69.7713 37.3168C70.0142 36.9533 70.1439 36.5259 70.1439 36.0887C70.1439 35.7984 70.0867 35.5109 69.9756 35.2427C69.8645 34.9745 69.7017 34.7308 69.4964 34.5255C69.2911 34.3203 69.0474 34.1574 68.7792 34.0463C68.511 33.9352 68.2236 33.8781 67.9333 33.8781Z" fill="#263238"/>
<path d="M68.1605 38.3693C69.4475 38.3693 70.4909 37.3259 70.4909 36.0389C70.4909 34.7518 69.4475 33.7085 68.1605 33.7085C66.8734 33.7085 65.8301 34.7518 65.8301 36.0389C65.8301 37.3259 66.8734 38.3693 68.1605 38.3693Z" fill="#263238"/>
<path d="M65.8996 32.5107C65.6158 33.849 66.587 36.1924 67.6077 36.32C68.6284 36.4476 68.8289 33.8985 67.9436 32.7867C67.0583 31.6749 66.1132 31.5369 65.8996 32.5107Z" fill="#263238"/>
<path d="M67.808 42.6553C67.9304 43.3921 67.9955 44.0821 68.0501 44.7982C68.1048 45.5142 68.1152 46.2225 68.1048 46.9411C68.1002 48.4007 67.9112 49.8538 67.5424 51.266C67.1388 52.646 66.6545 53.9349 66.152 55.2342L65.3708 57.1662C65.0974 57.8041 64.8345 58.442 64.5454 59.0774L63.6289 58.7441L64.1939 56.7522L64.7694 54.7681L65.3318 52.7892C65.5193 52.1331 65.6963 51.4691 65.8525 50.8312C66.1105 49.5505 66.2171 48.244 66.1702 46.9385C66.1702 46.2745 66.1285 45.608 66.0739 44.944C66.0192 44.28 65.9489 43.5978 65.8682 42.9703L67.808 42.6553Z" fill="#FF8B7B"/>
<path d="M65.9825 40.6661C65.2561 41.0384 65.4383 44.3426 65.4383 44.3426L68.8519 45.681C68.8519 45.681 69.2086 41.6347 68.4223 40.9187C67.6359 40.2026 67.0475 40.1219 65.9825 40.6661Z" fill="#FF6D38"/>
<path opacity="0.2" d="M66.2148 41.3613L66.3502 44.702L67.7329 45.241L66.2148 41.3613Z" fill="black"/>
<path d="M64.0114 58.2495L61.8398 59.1348L63.5115 60.0201C63.5115 60.0201 64.6259 59.4837 64.6597 58.687L64.0114 58.2495Z" fill="#FF8B7B"/>
<path d="M70.0446 91.4009H68.1204L67.7949 86.9458H69.7191L70.0446 91.4009Z" fill="#FF8B7B"/>
<path d="M80.7235 88.5287L78.8357 88.901L77.3672 84.6516L79.2523 84.2793L80.7235 88.5287Z" fill="#FF8B7B"/>
<path d="M78.5598 88.5755L80.5934 87.8465C80.6281 87.8335 80.6664 87.8337 80.701 87.8472C80.7356 87.8606 80.764 87.8863 80.7808 87.9194L81.5906 89.4452C81.6096 89.4844 81.6201 89.5271 81.6215 89.5706C81.6229 89.6141 81.6151 89.6574 81.5987 89.6976C81.5822 89.7379 81.5575 89.7743 81.526 89.8044C81.4946 89.8345 81.4571 89.8576 81.4162 89.8722C80.7027 90.1144 80.346 90.1951 79.4503 90.5154C78.9009 90.7106 77.8542 91.2965 77.0939 91.5569C76.3336 91.8173 76.0263 91.0908 76.3127 90.9111C77.1679 90.4141 77.8566 89.6748 78.2916 88.7864C78.3538 88.6872 78.4486 88.6126 78.5598 88.5755Z" fill="#263238"/>
<path d="M67.9764 91.1769H70.1375C70.1746 91.1766 70.2105 91.19 70.2383 91.2145C70.2662 91.239 70.2841 91.2729 70.2885 91.3097L70.5359 93.0178C70.5406 93.061 70.5362 93.1047 70.523 93.1461C70.5097 93.1875 70.4879 93.2257 70.4589 93.2581C70.4299 93.2905 70.3944 93.3165 70.3548 93.3343C70.3151 93.3521 70.2721 93.3613 70.2286 93.3615C69.4735 93.3484 69.1116 93.3042 68.1612 93.3042C67.5754 93.3042 66.3672 93.3641 65.5575 93.3641C64.7477 93.3641 64.7086 92.5647 65.0367 92.4944C66.5417 92.1689 67.1353 91.7133 67.6405 91.2967C67.7339 91.2168 67.8535 91.1742 67.9764 91.1769Z" fill="#263238"/>
<g opacity="0.2">
<path d="M67.7949 86.9487L67.972 89.3729H69.8962L69.7191 86.9487H67.7949Z" fill="black"/>
<path d="M79.2549 84.2798L77.3672 84.6547L78.1874 87.0216L80.0543 86.5919L79.2549 84.2798Z" fill="black"/>
</g>
<path d="M65.9827 40.6657C65.9827 40.6657 65.1625 41.1864 69.4535 51.7812L77.0722 50.0497C76.239 46.9799 75.8015 45.0687 75.838 38.3691C74.721 38.3913 73.6071 38.4949 72.5051 38.679C71.3354 38.8565 70.1798 39.1176 69.0473 39.4601C67.5892 39.9392 65.9827 40.6657 65.9827 40.6657Z" fill="#FF6D38"/>
<path opacity="0.2" d="M75.8329 39.4033C75.2202 39.8316 74.7828 40.4669 74.6013 41.1921C74.4008 42.1113 75.6767 43.6631 75.9761 44.0094C75.885 42.7778 75.8381 41.2989 75.8329 39.4033Z" fill="black"/>
<path d="M71.3696 35.2788C71.406 36.4427 71.5545 38.1143 72.5022 38.6794C72.0699 40.118 71.2523 41.411 70.138 42.4184C68.3153 41.5357 69.0444 39.4657 69.0444 39.4657C70.2187 38.8877 70.0729 38.3903 69.6589 37.5753L71.3696 35.2788Z" fill="#FF8B7B"/>
<path opacity="0.2" d="M70.673 36.2158L69.6602 37.575C69.7644 37.7629 69.8516 37.9599 69.9205 38.1635C70.3788 37.9864 71.0323 37.4136 71.0167 36.8746C70.9587 36.6298 70.8406 36.4034 70.673 36.2158Z" fill="black"/>
<path d="M71.2372 32.4717C71.8074 34.2944 72.086 35.0521 71.5366 36.3097C70.706 38.2001 68.3444 38.4995 67.243 36.8852C66.251 35.4322 65.4854 32.6957 66.9592 31.3235C67.2824 31.0194 67.678 30.803 68.1084 30.6948C68.5388 30.5866 68.9896 30.5902 69.4182 30.7052C69.8468 30.8203 70.2389 31.0429 70.5573 31.3521C70.8756 31.6613 71.1097 32.0467 71.2372 32.4717Z" fill="#FF8B7B"/>
<path d="M69.4532 51.7817C69.4532 51.7817 65.0788 62.9207 65.2038 68.7845C65.3366 74.8851 67.5706 88.7998 67.5706 88.7998H70.1744C70.1744 88.7998 69.7604 75.2497 69.9896 69.2609C70.2499 62.7306 75.0305 50.5137 75.0305 50.5137L69.4532 51.7817Z" fill="#FF6D38"/>
<path opacity="0.5" d="M69.4532 51.7817C69.4532 51.7817 65.0788 62.9207 65.2038 68.7845C65.3366 74.8851 67.5706 88.7998 67.5706 88.7998H70.1744C70.1744 88.7998 69.7604 75.2497 69.9896 69.2609C70.2499 62.7306 75.0305 50.5137 75.0305 50.5137L69.4532 51.7817Z" fill="black"/>
<path d="M70.3986 88.8908H67.347L67.123 87.9196L70.5392 87.7998L70.3986 88.8908Z" fill="#263238"/>
<path opacity="0.2" d="M71.4488 55.2004C69.9594 57.838 70.0922 62.1395 70.4932 65.3812C71.1527 62.2532 71.9987 59.1674 73.0267 56.1404C72.8184 54.3906 72.3627 53.5808 71.4488 55.2004Z" fill="black"/>
<path d="M71.465 51.3231C71.465 51.3231 70.4235 63.5062 71.767 68.4508C73.3527 74.3223 77.5943 86.4976 77.5943 86.4976L80.1668 85.9899C80.1668 85.9899 78.0838 71.9425 76.86 68.8492C74.2718 62.2486 80.0523 53.7914 77.0813 50.0498L71.465 51.3231Z" fill="#FF6D38"/>
<path opacity="0.5" d="M71.465 51.3231C71.465 51.3231 70.4235 63.5062 71.767 68.4508C73.3527 74.3223 77.5943 86.4976 77.5943 86.4976L80.1668 85.9899C80.1668 85.9899 78.0838 71.9425 76.86 68.8492C74.2718 62.2486 80.0523 53.7914 77.0813 50.0498L71.465 51.3231Z" fill="black"/>
<path d="M80.4786 86.0657L77.2864 86.6959L76.75 85.7611L80.4708 84.8472L80.4786 86.0657Z" fill="#263238"/>
<path d="M68.5782 34.0264C68.6329 34.1722 68.6017 34.318 68.5053 34.3545C68.409 34.3909 68.2892 34.3024 68.2449 34.1566C68.2007 34.0108 68.2215 33.8649 68.3152 33.8311C68.409 33.7972 68.5235 33.8832 68.5782 34.0264Z" fill="#263238"/>
<path d="M66.9415 34.6509C66.9962 34.7967 66.9649 34.9425 66.8686 34.979C66.7723 35.0154 66.6525 34.9269 66.6082 34.7811C66.564 34.6353 66.5848 34.4895 66.6785 34.453C66.7723 34.4166 66.8842 34.5051 66.9415 34.6509Z" fill="#263238"/>
<path d="M66.7141 34.4453L66.3262 34.4792C66.3262 34.4792 66.61 34.6823 66.7141 34.4453Z" fill="#263238"/>
<path d="M67.5449 34.7188C67.5421 35.0986 67.4869 35.4762 67.3809 35.841C67.4745 35.8659 67.5725 35.87 67.6679 35.8529C67.7633 35.8358 67.8537 35.798 67.9329 35.742L67.5449 34.7188Z" fill="#FF5652"/>
<path d="M68.9413 36.0079C68.8756 36.0466 68.8068 36.0797 68.7356 36.1069C68.7242 36.1112 68.7116 36.1109 68.7004 36.106C68.6892 36.1011 68.6803 36.0921 68.6757 36.0808C68.6732 36.0752 68.6719 36.0692 68.6719 36.063C68.6718 36.0569 68.6731 36.0508 68.6755 36.0452C68.678 36.0395 68.6816 36.0345 68.6861 36.0303C68.6906 36.0261 68.6959 36.0229 68.7018 36.0209C68.8835 35.9555 69.0474 35.8485 69.1804 35.7083C69.3133 35.5681 69.4116 35.3988 69.4673 35.2138C69.47 35.202 69.4773 35.1919 69.4876 35.1855C69.4978 35.1792 69.5102 35.1772 69.5219 35.1799C69.5337 35.1827 69.5438 35.19 69.5502 35.2003C69.5565 35.2105 69.5586 35.2229 69.5558 35.2346C69.5095 35.3977 69.4314 35.55 69.3259 35.6827C69.2204 35.8155 69.0897 35.926 68.9413 36.0079Z" fill="#263238"/>
<path d="M68.009 31.6151C68.5949 33.0941 71.118 34.3829 72.0241 33.9898C73.1073 33.5185 72.8052 31.1751 71.0659 30.4382C69.6104 29.8185 67.582 30.5372 68.009 31.6151Z" fill="#263238"/>
<path d="M69.3942 30.3393C68.8213 29.7717 65.3843 29.9123 65.0953 31.4199C64.6943 33.5029 66.694 33.0316 67.7876 32.5994C69.1859 32.05 70.1441 31.0814 69.3942 30.3393Z" fill="#263238"/>
<path d="M72.2158 34.1905C72.21 34.5597 72.0584 34.9117 71.794 35.1695C71.4425 35.508 71.0363 35.2476 70.94 34.7946C70.854 34.3858 70.9399 33.7192 71.3826 33.5525C71.4808 33.5174 71.5863 33.5075 71.6894 33.5236C71.7925 33.5397 71.8899 33.5814 71.9727 33.6448C72.0556 33.7083 72.1212 33.7914 72.1637 33.8867C72.2061 33.982 72.2241 34.0865 72.2158 34.1905Z" fill="#FF8B7B"/>
<path d="M68.7405 33.3283C68.7226 33.3352 68.703 33.3364 68.6844 33.3317C68.6657 33.3271 68.649 33.3168 68.6364 33.3023C68.5245 33.2047 68.3937 33.1312 68.2521 33.0864C68.1106 33.0416 67.9613 33.0265 67.8136 33.0419C67.8016 33.0431 67.7895 33.042 67.778 33.0385C67.7665 33.035 67.7558 33.0293 67.7465 33.0217C67.7372 33.0141 67.7295 33.0047 67.7238 32.9941C67.7181 32.9835 67.7145 32.9719 67.7133 32.9599C67.7121 32.9479 67.7133 32.9359 67.7168 32.9243C67.7203 32.9128 67.726 32.9021 67.7336 32.8928C67.7412 32.8835 67.7506 32.8758 67.7612 32.8701C67.7718 32.8644 67.7834 32.8609 67.7954 32.8597C67.9721 32.8413 68.1507 32.8611 68.3192 32.9177C68.4876 32.9743 68.642 33.0664 68.7718 33.1877C68.7804 33.1962 68.7873 33.2064 68.792 33.2175C68.7967 33.2287 68.7991 33.2407 68.7991 33.2528C68.7991 33.265 68.7967 33.277 68.792 33.2881C68.7873 33.2993 68.7804 33.3095 68.7718 33.3179L68.7405 33.3283Z" fill="#263238"/>
<path d="M65.9521 34.1094C65.9387 34.1172 65.9234 34.1213 65.9079 34.1213C65.8923 34.1213 65.8771 34.1172 65.8636 34.1094C65.8425 34.0974 65.827 34.0776 65.8202 34.0543C65.8134 34.031 65.8159 34.006 65.8272 33.9845C65.8956 33.8568 65.9939 33.7476 66.1135 33.666C66.2332 33.5844 66.3708 33.5329 66.5146 33.5158C66.5265 33.5151 66.5385 33.5167 66.5499 33.5207C66.5612 33.5246 66.5716 33.5308 66.5806 33.5387C66.5895 33.5467 66.5968 33.5564 66.602 33.5672C66.6072 33.578 66.6102 33.5897 66.6109 33.6017C66.6116 33.6137 66.6099 33.6257 66.606 33.637C66.6021 33.6483 66.5959 33.6588 66.5879 33.6677C66.58 33.6767 66.5703 33.6839 66.5595 33.6892C66.5487 33.6944 66.537 33.6974 66.525 33.698C66.4115 33.7133 66.3033 33.7555 66.2095 33.8212C66.1158 33.8869 66.0391 33.9742 65.986 34.0756C65.9781 34.0899 65.9664 34.1016 65.9521 34.1094Z" fill="#263238"/>
<path d="M77.6946 89.1511H77.6738C77.6329 89.1332 77.5973 89.1051 77.5704 89.0696C77.5435 89.034 77.5262 88.9921 77.5202 88.948C77.5137 88.9213 77.5141 88.8935 77.5214 88.8671C77.5287 88.8406 77.5426 88.8165 77.5618 88.7969C77.7389 88.6277 78.4159 88.7839 78.4914 88.7969C78.5001 88.7993 78.508 88.804 78.5144 88.8103C78.5208 88.8167 78.5254 88.8247 78.5278 88.8334C78.5293 88.8424 78.5281 88.8516 78.5244 88.8599C78.5207 88.8683 78.5146 88.8753 78.507 88.8803C78.2987 89.0131 77.9237 89.224 77.6946 89.1511ZM78.3638 88.8594C78.1034 88.8048 77.718 88.7657 77.6269 88.8594C77.6177 88.8678 77.6111 88.8786 77.6079 88.8906C77.6047 88.9026 77.6049 88.9153 77.6087 88.9271C77.6125 88.9565 77.6236 88.9845 77.6408 89.0086C77.6581 89.0326 77.681 89.0521 77.7076 89.0651C77.83 89.112 78.0696 89.0495 78.3742 88.8594H78.3638Z" fill="#FF6D38"/>
<path d="M78.4056 88.867C78.1765 88.7941 77.7937 88.5546 77.7651 88.3463C77.7603 88.3104 77.7677 88.2739 77.7861 88.2428C77.8045 88.2116 77.8329 88.1875 77.8666 88.1744C77.8988 88.1608 77.9333 88.1538 77.9682 88.1538C78.0031 88.1538 78.0376 88.1608 78.0697 88.1744C78.3301 88.2786 78.5176 88.7993 78.5254 88.8228C78.529 88.8296 78.531 88.8372 78.531 88.8449C78.531 88.8526 78.529 88.8602 78.5254 88.867C78.5196 88.8728 78.5127 88.8771 78.505 88.8798C78.4974 88.8825 78.4892 88.8835 78.4811 88.8827L78.4056 88.867ZM78.0229 88.2682C78.0048 88.2604 77.9853 88.2564 77.9656 88.2564C77.9459 88.2564 77.9264 88.2604 77.9083 88.2682C77.8562 88.2968 77.851 88.3254 77.8562 88.3463C77.8745 88.4791 78.1843 88.7004 78.4056 88.7759C78.3353 88.6041 78.1895 88.3281 78.0359 88.2551L78.0229 88.2682Z" fill="#FF6D38"/>
<path d="M67.2537 91.5127C67.0896 91.5276 66.9252 91.4863 66.7877 91.3955C66.7578 91.3676 66.7349 91.333 66.7208 91.2945C66.7068 91.2561 66.7021 91.2148 66.7069 91.1742C66.7084 91.1491 66.716 91.1248 66.7292 91.1035C66.7424 91.0821 66.7607 91.0643 66.7825 91.0518C67.0194 90.9216 67.7849 91.3122 67.8734 91.3591C67.8813 91.3639 67.8877 91.3709 67.8919 91.3791C67.896 91.3874 67.8977 91.3967 67.8969 91.4059C67.8959 91.4155 67.8918 91.4245 67.8852 91.4316C67.8786 91.4386 67.8699 91.4433 67.8604 91.445C67.6606 91.4858 67.4576 91.5084 67.2537 91.5127ZM66.9178 91.1169C66.8883 91.1143 66.8586 91.1197 66.8319 91.1325C66.8228 91.1371 66.8153 91.1442 66.8102 91.153C66.8051 91.1618 66.8027 91.1719 66.8033 91.182C66.7985 91.2087 66.8009 91.2363 66.81 91.2618C66.8191 91.2874 66.8348 91.3101 66.8554 91.3278C66.9699 91.432 67.2876 91.4502 67.7146 91.3799C67.466 91.2473 67.1965 91.1583 66.9178 91.1169Z" fill="#FF6D38"/>
<path d="M67.8496 91.4451H67.8314C67.6023 91.3409 67.1492 90.9243 67.1857 90.7082C67.1857 90.6561 67.2299 90.591 67.3549 90.5806C67.4014 90.5737 67.4488 90.5772 67.4938 90.5907C67.5388 90.6042 67.5803 90.6274 67.6153 90.6587C67.8574 90.8592 67.9017 91.3774 67.9043 91.3982C67.9051 91.4061 67.9038 91.4141 67.9006 91.4214C67.8974 91.4287 67.8924 91.435 67.8861 91.4398C67.875 91.446 67.862 91.4478 67.8496 91.4451ZM67.3914 90.6639H67.3653C67.282 90.6639 67.2768 90.7056 67.2742 90.7186C67.2534 90.8488 67.5606 91.1743 67.795 91.3175C67.7769 91.099 67.6914 90.8915 67.5502 90.7238C67.5065 90.6852 67.4497 90.6647 67.3914 90.6665V90.6639Z" fill="#FF6D38"/>
<path d="M68.3522 33.8208L67.959 33.8494C67.959 33.8494 68.248 34.0577 68.3522 33.8208Z" fill="#263238"/>
<path d="M77.072 49.5759L77.4209 50.2138C77.46 50.2607 77.4209 50.3284 77.322 50.3492L69.482 52.1302C69.4143 52.1458 69.3492 52.1302 69.3336 52.0833L69.1123 51.4167C69.0966 51.3725 69.1461 51.3178 69.2216 51.3022L76.934 49.5472C76.9576 49.5402 76.9826 49.5391 77.0067 49.5441C77.0307 49.5491 77.0532 49.56 77.072 49.5759Z" fill="white"/>
<path d="M76.2155 50.6802L76.4238 50.6333C76.4629 50.6333 76.4915 50.5968 76.4811 50.5708L76.1843 49.7063C76.1739 49.6928 76.1595 49.6828 76.1432 49.6777C76.1269 49.6725 76.1094 49.6726 76.0931 49.6777L75.8874 49.7246C75.8458 49.7246 75.8197 49.7636 75.8276 49.7871L76.127 50.6515C76.1348 50.6776 76.1765 50.6906 76.2155 50.6802Z" fill="#FF6D38"/>
<path opacity="0.5" d="M76.2155 50.6802L76.4238 50.6333C76.4629 50.6333 76.4915 50.5968 76.4811 50.5708L76.1843 49.7063C76.1739 49.6928 76.1595 49.6828 76.1432 49.6777C76.1269 49.6725 76.1094 49.6726 76.0931 49.6777L75.8874 49.7246C75.8458 49.7246 75.8197 49.7636 75.8276 49.7871L76.127 50.6515C76.1348 50.6776 76.1765 50.6906 76.2155 50.6802Z" fill="black"/>
<path d="M70.0886 52.0757L70.2969 52.0289C70.3385 52.0289 70.3646 51.9924 70.3542 51.9664L70.0573 51.1019C70.0478 51.0874 70.0335 51.0766 70.0169 51.0713C70.0002 51.0661 69.9823 51.0668 69.9662 51.0733L69.7605 51.1201C69.7188 51.1201 69.6928 51.1592 69.7006 51.1826L70 52.0471C70.0078 52.0757 70.0417 52.0757 70.0886 52.0757Z" fill="#FF6D38"/>
<path opacity="0.5" d="M70.0886 52.0757L70.2969 52.0289C70.3385 52.0289 70.3646 51.9924 70.3542 51.9664L70.0573 51.1019C70.0478 51.0874 70.0335 51.0766 70.0169 51.0713C70.0002 51.0661 69.9823 51.0668 69.9662 51.0733L69.7605 51.1201C69.7188 51.1201 69.6928 51.1592 69.7006 51.1826L70 52.0471C70.0078 52.0757 70.0417 52.0757 70.0886 52.0757Z" fill="black"/>
<path d="M73.1403 51.3806L73.346 51.3337C73.3876 51.3337 73.4137 51.2946 73.4058 51.2712L73.1064 50.4067C73.1064 50.3807 73.0569 50.3677 73.0179 50.3781L72.8096 50.425C72.7679 50.425 72.7419 50.4614 72.7523 50.4875L73.0491 51.3519C73.0595 51.3655 73.0739 51.3755 73.0902 51.3806C73.1065 51.3857 73.124 51.3857 73.1403 51.3806Z" fill="#FF6D38"/>
<path opacity="0.5" d="M73.1403 51.3806L73.346 51.3337C73.3876 51.3337 73.4137 51.2946 73.4058 51.2712L73.1064 50.4067C73.1064 50.3807 73.0569 50.3677 73.0179 50.3781L72.8096 50.425C72.7679 50.425 72.7419 50.4614 72.7523 50.4875L73.0491 51.3519C73.0595 51.3655 73.0739 51.3755 73.0902 51.3806C73.1065 51.3857 73.124 51.3857 73.1403 51.3806Z" fill="black"/>
<path d="M61.1035 60.3794L62.6371 60.7595L63.512 60.0201L61.8404 59.1348L61.1035 60.3794Z" fill="#FF8B7B"/>
<path d="M73.3442 47.7771L71.847 46.3477L71.7168 48.3005C71.7168 48.3005 72.7583 48.9645 73.4561 48.5765L73.3442 47.7771Z" fill="#FF8B7B"/>
<path d="M77.0736 40.1455C77.1413 40.2314 77.1751 40.2809 77.222 40.346L77.347 40.5257C77.4251 40.6454 77.5006 40.7652 77.5735 40.885C77.7159 41.1245 77.8513 41.3667 77.9797 41.6114C78.2245 42.101 78.4449 42.5983 78.6411 43.1034C78.8416 43.6059 79.0082 44.1215 79.1618 44.637C79.2373 44.8974 79.2998 45.1578 79.3649 45.4182L79.391 45.5171L79.4196 45.6421C79.445 45.7542 79.4607 45.8684 79.4665 45.9832C79.4778 46.2345 79.437 46.4853 79.3467 46.7201C79.1799 47.1161 78.8965 47.4521 78.5343 47.6835C78.2622 47.8603 77.9692 48.0029 77.6621 48.1079C77.1253 48.2872 76.5711 48.4094 76.0087 48.4724C74.9465 48.5981 73.8745 48.6172 72.8086 48.5297V47.5559C73.2981 47.496 73.8058 47.4335 74.2954 47.3476C74.7849 47.2617 75.2796 47.1757 75.7509 47.056C76.2041 46.9459 76.6467 46.796 77.0736 46.6081C77.2489 46.5312 77.4141 46.4333 77.5657 46.3165C77.6907 46.2149 77.735 46.1238 77.7245 46.1108C77.7141 46.0978 77.7245 46.1108 77.7245 46.0874L77.6621 45.8999C77.5839 45.6655 77.5058 45.4312 77.4173 45.2021C77.2585 44.736 77.0632 44.2829 76.8757 43.8351C76.6882 43.3872 76.4721 42.9472 76.243 42.5332C76.1336 42.3223 76.0165 42.1114 75.8967 41.9109C75.8368 41.8093 75.7743 41.713 75.7118 41.6166L75.6233 41.476L75.5452 41.3641L77.0736 40.1455Z" fill="#FF8B7B"/>
<path d="M75.8367 38.3694C76.6517 38.4293 78.1645 40.8482 78.1645 40.8482L75.8471 43.3582C75.8471 43.3582 74.1078 41.6892 74.2094 40.6191C74.3057 39.5281 74.9046 38.3017 75.8367 38.3694Z" fill="#FF6D38"/>
<path d="M70.237 46.168L70.2188 47.8084L71.7159 48.2875L71.8461 46.3346L70.237 46.168Z" fill="#FF8B7B"/>
<path d="M101.675 71.6902H89.7655C89.5583 71.6902 89.3597 71.6079 89.2132 71.4614C89.0667 71.3149 88.9844 71.1162 88.9844 70.9091C88.9844 70.7019 89.0667 70.5032 89.2132 70.3567C89.3597 70.2102 89.5583 70.1279 89.7655 70.1279H101.675C101.882 70.1279 102.081 70.2102 102.228 70.3567C102.374 70.5032 102.456 70.7019 102.456 70.9091C102.456 71.1162 102.374 71.3149 102.228 71.4614C102.081 71.6079 101.882 71.6902 101.675 71.6902Z" fill="#FF6D38"/>
<path opacity="0.8" d="M101.675 71.6902H89.7655C89.5583 71.6902 89.3597 71.6079 89.2132 71.4614C89.0667 71.3149 88.9844 71.1162 88.9844 70.9091C88.9844 70.7019 89.0667 70.5032 89.2132 70.3567C89.3597 70.2102 89.5583 70.1279 89.7655 70.1279H101.675C101.882 70.1279 102.081 70.2102 102.228 70.3567C102.374 70.5032 102.456 70.7019 102.456 70.9091C102.456 71.1162 102.374 71.3149 102.228 71.4614C102.081 71.6079 101.882 71.6902 101.675 71.6902Z" fill="white"/>
<path d="M86.2841 91.638H84.3547L83.2324 87.1699H85.1618L86.2841 91.638Z" fill="#FFB573"/>
<path d="M84.2197 91.169H86.3887C86.4068 91.1684 86.4249 91.1712 86.4419 91.1775C86.4589 91.1838 86.4745 91.1934 86.4878 91.2058C86.5011 91.2181 86.5119 91.2329 86.5194 91.2494C86.527 91.2659 86.5312 91.2837 86.5319 91.3018L86.6361 93.0177C86.6361 93.108 86.6006 93.1946 86.5372 93.2589C86.4739 93.3233 86.3878 93.3601 86.2976 93.3614C85.5425 93.3484 85.1831 93.3041 84.2302 93.3041C83.6417 93.3041 81.1473 93.364 80.3245 93.364C79.5017 93.364 79.5433 92.5621 79.8818 92.4892C81.4207 92.1637 83.3292 91.708 83.8734 91.2888C83.9715 91.2101 84.0939 91.1677 84.2197 91.169Z" fill="#263238"/>
<path opacity="0.2" d="M85.1644 87.1699H83.2324L83.8131 89.4743H85.7425L85.1644 87.1699Z" fill="black"/>
<path d="M91.4155 62.6548C91.4155 62.6548 75.7069 63.7301 76.0323 69.2606C76.376 75.3118 82.9818 88.9218 82.9818 88.9218H86.5178C86.5178 88.9218 83.3125 77.3506 82.5392 71.1874C86.286 69.6251 96.4486 71.1223 97.6412 67.8858C98.2254 66.2088 98.3794 64.412 98.089 62.66L91.4155 62.6548Z" fill="#FF6D38"/>
<path opacity="0.3" d="M82.7183 72.5336C82.674 72.2576 82.635 71.9868 82.5985 71.7264C82.5725 71.5415 82.5464 71.3593 82.5256 71.1822C83.2295 70.916 83.963 70.7359 84.7102 70.6458C84.4498 68.87 84.0957 67.2349 84.0957 67.2349C82.273 67.2349 80.2186 70.3594 82.9474 73.8693C82.9023 73.6298 82.8606 73.3928 82.8224 73.1585C82.786 72.9476 82.7521 72.7367 82.7183 72.5336Z" fill="black"/>
<path d="M86.8847 88.9166H82.2291L81.8281 87.3881L86.4446 87.021L86.8847 88.9166Z" fill="#263238"/>
<path d="M83.5331 91.5053C83.7086 91.5011 83.8831 91.4784 84.0538 91.4376C84.0621 91.4348 84.0695 91.43 84.0754 91.4237C84.0813 91.4173 84.0855 91.4096 84.0877 91.4011C84.0886 91.3928 84.0875 91.3844 84.0843 91.3767C84.0811 91.3689 84.076 91.3621 84.0695 91.3569C84.007 91.3126 83.4602 90.9403 83.2258 91.0314C83.1992 91.0427 83.1756 91.0601 83.1571 91.0823C83.1385 91.1045 83.1255 91.1308 83.1191 91.159C83.1072 91.2013 83.1062 91.2459 83.1162 91.2887C83.1262 91.3315 83.1469 91.3711 83.1764 91.4037C83.2788 91.4802 83.4057 91.5164 83.5331 91.5053ZM83.9236 91.3725C83.5799 91.4402 83.3248 91.4298 83.2336 91.3412C83.2149 91.3193 83.2022 91.2929 83.1967 91.2647C83.1913 91.2364 83.1932 91.2071 83.2024 91.1798C83.2043 91.1659 83.2099 91.1528 83.2186 91.1418C83.2273 91.1308 83.2388 91.1223 83.2519 91.1173C83.3795 91.0679 83.6997 91.2293 83.9236 91.3725Z" fill="#FF6D38"/>
<path d="M84.039 91.4372C84.0458 91.4394 84.0531 91.4394 84.0598 91.4372C84.0664 91.4335 84.072 91.4282 84.076 91.4218C84.0801 91.4155 84.0826 91.4083 84.0833 91.4007C84.0833 91.3773 84.1276 90.8227 83.9349 90.6352C83.9094 90.6112 83.8789 90.5932 83.8455 90.5824C83.8122 90.5716 83.7769 90.5683 83.7422 90.5727C83.7041 90.5742 83.6675 90.5883 83.6383 90.6128C83.6091 90.6373 83.5888 90.6709 83.5808 90.7081C83.5365 90.919 83.8229 91.3226 84.0156 91.4372H84.039ZM83.7786 90.6561C83.8155 90.6556 83.851 90.6696 83.8776 90.6951C83.9828 90.8808 84.0266 91.095 84.0026 91.307C83.8359 91.1664 83.6432 90.8592 83.6719 90.7212C83.6719 90.6951 83.6927 90.6639 83.7578 90.6561H83.7786Z" fill="#FF6D38"/>
<path d="M93.4363 47.9852C93.1421 48.795 92.8218 49.5865 92.5068 50.3833C92.1917 51.18 91.861 51.9716 91.5199 52.7579C90.8456 54.3384 90.1399 55.9033 89.3588 57.463L89.2468 57.6843L89.1323 57.8015C88.5773 58.3576 87.944 58.8296 87.2523 59.2023C86.5926 59.5579 85.8935 59.8349 85.1693 60.0277C84.4723 60.2166 83.7593 60.3404 83.0394 60.3974C82.6827 60.4287 82.3286 60.4365 81.9745 60.4365C81.6117 60.4366 81.2492 60.4166 80.8887 60.3766L80.9173 58.9263C81.1907 58.8846 81.5188 58.83 81.8182 58.7675C82.1177 58.705 82.4275 58.6269 82.7269 58.5462C83.3165 58.3897 83.8935 58.1896 84.4533 57.9473C84.9888 57.7188 85.4999 57.437 85.9791 57.1063C86.4275 56.7966 86.8328 56.4289 87.1846 56.0127L86.9581 56.3512C87.6038 54.8149 88.2157 53.2266 88.8354 51.6643L89.765 49.2975L90.705 46.9385L93.4363 47.9852Z" fill="#FFB573"/>
<path d="M90.3538 47.2874C88.7915 49.0892 87.75 51.6097 87.75 51.6097L91.8536 54.0807C93.0383 52.6382 94.5172 48.8158 94.5771 47.527C94.6683 45.5455 92.0462 45.3476 90.3538 47.2874Z" fill="#263238"/>
<path opacity="0.3" d="M91.7999 49.1259C90.9042 49.8784 90.2688 51.4433 89.9902 52.9613L91.8493 54.0809C92.4352 53.3675 93.094 52.0734 93.6173 50.7871C93.1981 49.5113 92.5914 48.4593 91.7999 49.1259Z" fill="black"/>
<path d="M93.9018 90.4271L92.0245 90.8698L90.1367 86.7219L92.0167 86.2793L93.9018 90.4271Z" fill="#FFB573"/>
<path d="M91.7013 90.3517L93.7348 89.6018C93.7691 89.5886 93.8071 89.5891 93.841 89.6032C93.875 89.6172 93.9022 89.6438 93.9171 89.6773L94.6071 91.2396C94.634 91.3245 94.6287 91.4162 94.5922 91.4974C94.5557 91.5786 94.4905 91.6435 94.4092 91.6796C93.7426 92.0338 93.3677 92.0572 92.4486 92.341C92.045 92.4634 91.0191 93.3148 89.8318 93.3148H88.7902C88.1757 93.3148 88.0924 92.6587 88.4335 92.5675C90.0817 92.1275 91.0581 91.1589 91.4227 90.5678C91.4876 90.4656 91.5861 90.3892 91.7013 90.3517Z" fill="#263238"/>
<path opacity="0.2" d="M92.0167 86.2793L90.1367 86.7219L91.1105 88.8597L92.9905 88.417L92.0167 86.2793Z" fill="black"/>
<path d="M95.1959 62.6548C95.1959 62.6548 82.4686 63.7302 82.7811 69.2554C83.1248 75.3066 90.168 88.5104 90.168 88.5104L93.6076 87.7006C93.6076 87.7006 89.9623 76.6033 89.1812 70.4427C92.7692 70.4427 100.211 71.1171 101.419 67.8806C102.003 66.2036 102.157 64.4067 101.867 62.6548H95.1959Z" fill="#FF6D38"/>
<path d="M93.9771 87.612L89.4465 88.6796L88.9648 87.1564L93.5527 85.8076L93.9771 87.612Z" fill="#263238"/>
<path d="M91.1755 90.9137C91.3362 90.8491 91.4897 90.7679 91.6337 90.6716C91.6409 90.6668 91.6467 90.6602 91.6504 90.6524C91.654 90.6446 91.6555 90.6359 91.6546 90.6273C91.6532 90.6186 91.6493 90.6104 91.6432 90.6039C91.6372 90.5974 91.6293 90.5929 91.6207 90.5909C91.5478 90.5726 90.9073 90.4086 90.7172 90.5778C90.6957 90.5972 90.6794 90.6216 90.6698 90.6489C90.6602 90.6763 90.6577 90.7055 90.6625 90.7341C90.6641 90.7781 90.6779 90.8209 90.7022 90.8576C90.7266 90.8944 90.7606 90.9237 90.8005 90.9424C90.9247 90.9799 91.0584 90.9697 91.1755 90.9137ZM91.4957 90.6534C91.1963 90.8356 90.9541 90.9137 90.837 90.8617C90.8115 90.8479 90.7902 90.8276 90.7751 90.8029C90.76 90.7782 90.7517 90.75 90.751 90.7211C90.7489 90.7073 90.7502 90.6932 90.7548 90.6801C90.7593 90.6669 90.7669 90.6551 90.7771 90.6455C90.8734 90.5544 91.2353 90.5961 91.4957 90.6534Z" fill="#FF6D38"/>
<path d="M91.6265 90.6772C91.6327 90.6743 91.6381 90.6698 91.6421 90.6642C91.6458 90.6579 91.6477 90.6507 91.6477 90.6434C91.6477 90.6361 91.6458 90.6289 91.6421 90.6225C91.6421 90.5991 91.4859 90.0627 91.2385 89.956C91.2075 89.94 91.1732 89.9316 91.1383 89.9316C91.1034 89.9316 91.069 89.94 91.038 89.956C91.0023 89.9706 90.9724 89.9967 90.9531 90.0302C90.9337 90.0636 90.9261 90.1026 90.9313 90.1408C90.9625 90.3543 91.3713 90.633 91.5926 90.6746L91.6265 90.6772ZM91.1057 90.0341C91.1222 90.0271 91.1399 90.0234 91.1578 90.0234C91.1757 90.0234 91.1934 90.0271 91.2099 90.0341C91.3583 90.0992 91.4703 90.3934 91.5406 90.5548C91.3349 90.4819 91.0484 90.2606 91.0198 90.12C91.0198 90.094 91.0198 90.0601 91.0771 90.0289L91.1057 90.0341Z" fill="#FF6D38"/>
<path d="M81.2614 58.8876L79.082 58.4424L79.3554 60.5619C79.3554 60.5619 81.4645 60.653 81.6233 60.0099L81.2614 58.8876Z" fill="#FFB573"/>
<path d="M77.4902 59.6401L78.0631 61.0644L79.3545 60.5619L79.0811 58.4424L77.4902 59.6401Z" fill="#FFB573"/>
<path d="M91.4265 62.7518H101.751C101.823 61.83 101.61 58.8305 101.769 55.0107C101.867 52.1795 102.21 49.362 102.795 46.5901C102.842 46.3817 102.745 46.2281 102.795 46.0198C102.429 45.8908 102.05 45.8035 101.665 45.7594C101.042 45.6683 100.261 45.5746 99.4957 45.5381C98.0344 45.4547 96.5695 45.4547 95.1083 45.5381C94.4339 45.6006 93.7751 45.7126 93.2492 45.8141C92.5774 45.9495 92.1816 46.0745 92.1816 46.0745C92.1816 46.0745 89.6377 51.8992 91.4265 62.7518Z" fill="#263238"/>
<path opacity="0.3" d="M101.767 55.013C101.865 52.1818 102.208 49.3644 102.793 46.5924C102.103 46.5325 100.923 46.5924 100.728 47.7146C100.507 48.9123 100.783 51.7296 101.767 55.013Z" fill="black"/>
<path d="M103.664 47.4595C103.969 48.212 104.203 48.9306 104.445 49.6779C104.688 50.4252 104.896 51.1673 105.081 51.9302C105.266 52.6931 105.435 53.4638 105.555 54.2606C105.62 54.6511 105.664 55.0599 105.711 55.4635C105.758 55.8671 105.771 56.2863 105.763 56.7211V57.0388C105.761 57.2719 105.721 57.503 105.646 57.7236C105.522 58.0713 105.326 58.389 105.07 58.6558C104.713 59.0148 104.303 59.3169 103.854 59.5515C103.118 59.9363 102.345 60.2469 101.547 60.4784C100.049 60.92 98.5131 61.2268 96.9596 61.3949L96.6602 59.9759C97.3502 59.7363 98.061 59.489 98.7432 59.2234C99.4254 58.9578 100.115 58.7026 100.769 58.3954C101.397 58.1261 102.002 57.8047 102.576 57.4346C102.787 57.3012 102.976 57.1351 103.136 56.9425C103.183 56.8826 103.177 56.8513 103.136 56.9112C103.127 56.9313 103.121 56.9523 103.118 56.9737V57.0154V57.0362L103.097 56.7914C103.042 56.1072 102.94 55.4277 102.789 54.7579C102.644 54.0653 102.467 53.3649 102.269 52.6749C102.071 51.9848 101.857 51.2792 101.631 50.5918C101.404 49.9044 101.162 49.191 100.928 48.5322L103.664 47.4595Z" fill="#FFB573"/>
<path d="M102.795 46.0218C100.915 45.4282 99.8557 46.8785 100.376 49.4849C100.733 51.1499 101.336 52.7525 102.165 54.2394L105.962 52.4376C105.602 49.8832 104.72 46.6285 102.795 46.0218Z" fill="#263238"/>
<path d="M99.4896 41.1401L98.3153 42.114L96.7165 43.4419C96.7639 43.6548 96.7979 43.8705 96.8181 44.0876C96.904 44.9547 96.201 45.3583 95.3157 45.5249C95.3157 45.5249 94.0607 46.6966 96.5707 46.7331C99.0808 46.7695 99.664 45.551 99.664 45.551C98.7084 44.6006 99.1641 42.5462 99.4896 41.1401Z" fill="#FFB573"/>
<path d="M99.4215 45.5353C98.6066 46.1035 97.6884 46.5068 96.7188 46.7227C97.2109 47.2122 97.5285 48.4151 97.5285 48.4151C97.5285 48.4151 100.247 47.7772 100.346 45.5666C100.201 45.5022 100.05 45.4542 99.8954 45.4234C99.8129 45.4094 99.7285 45.4121 99.6471 45.4313C99.5657 45.4505 99.489 45.4859 99.4215 45.5353Z" fill="#FF6D38"/>
<path d="M95.5145 45.5876C95.452 45.8948 95.5145 46.4572 96.7201 46.7228C95.978 47.1498 95.6603 48.2851 95.6603 48.2851C95.6603 48.2851 93.9783 46.8088 94.8427 45.5329C95.0002 45.4644 95.1655 45.4154 95.3348 45.3871C95.3614 45.3825 95.3886 45.3847 95.414 45.3936C95.4395 45.4024 95.4622 45.4176 95.4802 45.4376C95.4981 45.4576 95.5107 45.4819 95.5167 45.5082C95.5227 45.5344 95.522 45.5617 95.5145 45.5876Z" fill="#FF6D38"/>
<path opacity="0.2" d="M96.7168 43.4339C96.7642 43.6468 96.7981 43.8625 96.8183 44.0796C97.8078 43.9286 98.4483 43.3428 98.5316 42.7361C98.5629 42.5069 98.3311 42.2648 98.3155 42.106L96.7168 43.4339Z" fill="black"/>
<path d="M95.2127 40.4551C94.2962 39.7755 93.8067 38.3226 94.2076 37.4503C94.2932 37.2535 94.4323 37.0846 94.6091 36.963C94.7859 36.8414 94.9933 36.7719 95.2077 36.7624C95.4221 36.7529 95.6348 36.8038 95.8217 36.9093C96.0086 37.0148 96.162 37.1707 96.2646 37.3592C96.9234 38.4606 96.2542 41.2284 95.2127 40.4551Z" fill="#263238"/>
<path d="M99.5718 38.643C99.5874 40.5646 99.6968 41.6843 98.8037 42.7648C98.5177 43.1193 98.1403 43.3888 97.7122 43.5442C97.2841 43.6996 96.8217 43.735 96.375 43.6465C95.9282 43.558 95.5142 43.349 95.1777 43.0422C94.8412 42.7353 94.595 42.3423 94.4658 41.9056C93.945 40.2339 93.9971 37.375 95.8041 36.4194C96.1903 36.2022 96.6268 36.0903 97.0699 36.0949C97.513 36.0995 97.947 36.2204 98.3286 36.4457C98.7102 36.6709 99.0259 36.9924 99.2441 37.3781C99.4623 37.7637 99.5753 38.2 99.5718 38.643Z" fill="#FFB573"/>
<path d="M98.9062 40.1715C98.2136 39.2628 98.1485 37.7318 98.7786 37.0053C98.916 36.8425 99.0962 36.7214 99.2988 36.6556C99.5014 36.5897 99.7183 36.5818 99.9252 36.6327C100.132 36.6836 100.321 36.7913 100.469 36.9436C100.618 37.096 100.722 37.2869 100.768 37.4948C101.104 38.729 99.6899 41.2026 98.9062 40.1715Z" fill="#263238"/>
<path d="M94.6589 37.164C94.0782 36.8151 95.4192 35.6356 97.1585 35.12C99.1009 34.5446 101.556 36.0548 101.676 37.3645C101.801 38.7445 100.869 38.0727 100.723 38.5049C100.723 38.5049 95.8488 37.88 94.6589 37.164Z" fill="#FF6D38"/>
<path d="M94.0703 37.6456C94.0973 37.3648 94.2121 37.0997 94.3984 36.8879C94.4973 36.7967 100.257 37.958 100.856 38.4736C100.968 38.5699 100.564 39.3927 100.476 39.286C99.8455 38.5361 94.0937 37.8539 94.0703 37.6456Z" fill="#FF6D38"/>
<path opacity="0.3" d="M94.0703 37.6456C94.0973 37.3648 94.2121 37.0997 94.3984 36.8879C94.4973 36.7967 100.257 37.958 100.856 38.4736C100.968 38.5699 100.564 39.3927 100.476 39.286C99.8455 38.5361 94.0937 37.8539 94.0703 37.6456Z" fill="black"/>
<path d="M100.193 39.7365C100.203 39.7386 100.213 39.7386 100.222 39.7365C100.236 39.7274 100.247 39.713 100.25 39.6965C100.254 39.6799 100.252 39.6625 100.243 39.648C99.933 39.1402 97.8083 38.9684 97.5688 38.9501C96.881 38.9147 96.1915 38.9601 95.5144 39.0855C95.4295 39.054 95.3385 39.0421 95.2483 39.0507C95.1582 39.0593 95.0711 39.0881 94.9936 39.135C94.5458 39.13 94.0988 39.1736 93.6605 39.2652C93.6521 39.267 93.6441 39.2705 93.6371 39.2755C93.6301 39.2804 93.6241 39.2867 93.6195 39.2939C93.6149 39.3012 93.6118 39.3093 93.6103 39.3178C93.6089 39.3263 93.6091 39.3349 93.611 39.3433C93.6129 39.3517 93.6164 39.3597 93.6213 39.3667C93.6262 39.3737 93.6325 39.3797 93.6398 39.3843C93.647 39.3889 93.6551 39.392 93.6636 39.3935C93.6721 39.3949 93.6808 39.3947 93.6891 39.3928C94.1224 39.3024 94.5641 39.2596 95.0066 39.2652C95.0178 39.2676 95.0293 39.2676 95.0405 39.2652C95.1025 39.2243 95.1733 39.1988 95.2471 39.1906C95.3208 39.1825 95.3955 39.192 95.4649 39.2183C95.4792 39.2235 95.4949 39.2235 95.5092 39.2183C96.1807 39.0898 96.8653 39.0434 97.5479 39.0803C98.1859 39.1272 99.8914 39.3407 100.12 39.7157C100.129 39.726 100.141 39.7335 100.154 39.7372C100.167 39.7409 100.181 39.7407 100.193 39.7365Z" fill="#263238"/>
<path d="M96.7056 40.7337H96.7681C96.9003 40.7206 97.028 40.6783 97.1419 40.6098C97.2558 40.5414 97.3531 40.4485 97.4268 40.338C97.7549 39.8302 97.5336 39.0361 97.5257 39.01C97.5233 39.0014 97.5176 38.9941 97.5098 38.9897C97.502 38.9853 97.4927 38.9842 97.4841 38.9866C97.4759 38.9896 97.4692 38.9955 97.4654 39.0033C97.4615 39.011 97.4607 39.02 97.4633 39.0283C97.4633 39.0283 97.6846 39.8094 97.3721 40.3041C97.3037 40.4072 97.2129 40.4934 97.1065 40.5566C97.0001 40.6197 96.8809 40.658 96.7576 40.6686C96.6413 40.691 96.5215 40.6875 96.4067 40.6582C96.292 40.629 96.1851 40.5747 96.0937 40.4994C95.6146 40.0958 95.5729 39.1558 95.5729 39.148C95.5729 39.1391 95.5693 39.1304 95.563 39.1241C95.5567 39.1177 95.548 39.1142 95.5391 39.1142C95.5308 39.1154 95.5231 39.1194 95.5174 39.1255C95.5117 39.1317 95.5083 39.1397 95.5078 39.148C95.5078 39.1871 95.5391 40.1271 96.0416 40.5489C96.1335 40.6238 96.24 40.679 96.3542 40.7108C96.4685 40.7426 96.5881 40.7504 96.7056 40.7337Z" fill="#263238"/>
<path d="M94.4022 40.9003C94.5026 40.8969 94.6012 40.8719 94.691 40.827C94.7809 40.7821 94.86 40.7182 94.923 40.6399C95.2745 40.1712 95.0558 39.2807 95.0479 39.2443C95.0449 39.2368 95.0393 39.2306 95.0321 39.2269C95.0248 39.2232 95.0166 39.2222 95.0087 39.2241C95.0008 39.226 94.9939 39.2306 94.9891 39.2372C94.9844 39.2438 94.9821 39.2518 94.9828 39.2599C94.9828 39.2599 95.2042 40.1582 94.8709 40.6008C94.8107 40.6821 94.7321 40.7481 94.6417 40.7933C94.5512 40.8386 94.4513 40.8618 94.3501 40.8612C94.2825 40.8657 94.2147 40.8546 94.152 40.8289C94.0893 40.8032 94.0332 40.7635 93.9882 40.7128C93.6419 40.3301 93.7695 39.3458 93.7695 39.3354C93.7702 39.3313 93.7701 39.3271 93.7692 39.323C93.7683 39.3189 93.7666 39.3151 93.7642 39.3117C93.7617 39.3083 93.7586 39.3054 93.7551 39.3032C93.7515 39.301 93.7476 39.2996 93.7434 39.299C93.7393 39.2982 93.7351 39.2983 93.731 39.2992C93.727 39.3001 93.7231 39.3019 93.7197 39.3043C93.7163 39.3067 93.7134 39.3098 93.7113 39.3133C93.7091 39.3169 93.7076 39.3209 93.707 39.325C93.707 39.3667 93.5742 40.3665 93.9413 40.7571C93.9931 40.8139 94.0569 40.8586 94.128 40.8878C94.1992 40.9171 94.2759 40.9302 94.3527 40.9263L94.4022 40.9003Z" fill="#263238"/>
<path d="M100.247 40.2729C100.072 40.6526 99.7649 40.9554 99.3825 41.1243C98.8852 41.3326 98.6222 40.8926 98.7446 40.377C98.8566 39.9135 99.2498 39.2496 99.7549 39.2574C100.26 39.2652 100.468 39.799 100.247 40.2729Z" fill="#FFB573"/>
<path d="M96.4721 39.5229C96.4721 39.6765 96.4096 39.8119 96.3081 39.8223C96.2065 39.8328 96.118 39.7156 96.105 39.562C96.092 39.4083 96.1675 39.2703 96.269 39.2599C96.3706 39.2495 96.4617 39.3667 96.4721 39.5229Z" fill="#263238"/>
<path d="M94.7216 39.7078C94.7216 39.8614 94.6591 39.9968 94.5576 40.0072C94.4561 40.0177 94.3649 39.9005 94.3545 39.7469C94.3441 39.5932 94.417 39.4578 94.5185 39.4474C94.6201 39.437 94.7112 39.5516 94.7216 39.7078Z" fill="#263238"/>
<path d="M95.3 39.7861C95.1815 40.2904 94.9958 40.7764 94.748 41.2312C94.8649 41.2884 94.9928 41.3192 95.1228 41.3214C95.2529 41.3237 95.3818 41.2973 95.5005 41.2443L95.3 39.7861Z" fill="#ED893E"/>
<path d="M96.2998 41.5046C96.4765 41.4664 96.6436 41.393 96.7913 41.2888C96.9389 41.1846 97.064 41.0516 97.1591 40.8979C97.1641 40.887 97.165 40.8747 97.1617 40.8632C97.1583 40.8517 97.1509 40.8418 97.1408 40.8354C97.1298 40.8299 97.117 40.8291 97.1053 40.833C97.0936 40.8369 97.0839 40.8452 97.0783 40.8562C96.9723 41.0213 96.8298 41.1599 96.662 41.2614C96.4941 41.363 96.3052 41.4248 96.1097 41.4421C96.0977 41.444 96.087 41.4505 96.0797 41.4602C96.0724 41.4699 96.0692 41.4821 96.0707 41.4941C96.0713 41.5 96.0731 41.5056 96.076 41.5107C96.0788 41.5159 96.0826 41.5204 96.0872 41.524C96.0918 41.5277 96.0971 41.5303 96.1028 41.5319C96.1084 41.5335 96.1143 41.5339 96.1201 41.5332C96.1806 41.5279 96.2407 41.5183 96.2998 41.5046Z" fill="#263238"/>
<path d="M97.2629 38.7705C97.2779 38.7645 97.291 38.7545 97.3007 38.7416C97.3105 38.7286 97.3165 38.7133 97.3181 38.6972C97.3197 38.6811 97.3169 38.6648 97.3099 38.6502C97.3029 38.6356 97.2921 38.6232 97.2785 38.6143C97.1625 38.5289 97.0275 38.4729 96.8851 38.4511C96.7427 38.4294 96.5972 38.4425 96.4609 38.4893C96.4498 38.4939 96.4396 38.5006 96.4311 38.5091C96.4226 38.5176 96.4158 38.5278 96.4112 38.5389C96.4066 38.55 96.4043 38.562 96.4043 38.574C96.4043 38.5861 96.4068 38.598 96.4115 38.6091C96.4212 38.6312 96.4391 38.6487 96.4614 38.6579C96.4837 38.6671 96.5087 38.6673 96.5312 38.6586C96.6385 38.6234 96.7527 38.6145 96.8642 38.6326C96.9756 38.6508 97.0811 38.6954 97.1718 38.7627C97.1845 38.7728 97.2 38.7789 97.2162 38.7803C97.2324 38.7816 97.2486 38.7783 97.2629 38.7705Z" fill="#263238"/>
<path d="M93.9418 39.0831C93.9566 39.084 93.9714 39.0814 93.985 39.0755C93.9985 39.0697 94.0105 39.0606 94.02 39.0492C94.0884 38.9542 94.1778 38.8761 94.2811 38.8211C94.3845 38.766 94.4992 38.7354 94.6162 38.7316C94.6282 38.7323 94.6402 38.7306 94.6515 38.7267C94.6628 38.7227 94.6733 38.7166 94.6822 38.7086C94.6912 38.7006 94.6985 38.691 94.7037 38.6802C94.7089 38.6694 94.7119 38.6576 94.7126 38.6457C94.7133 38.6337 94.7116 38.6217 94.7077 38.6104C94.7037 38.599 94.6976 38.5886 94.6896 38.5797C94.6816 38.5707 94.6719 38.5634 94.6611 38.5582C94.6503 38.553 94.6386 38.55 94.6266 38.5493C94.48 38.551 94.3359 38.587 94.2057 38.6544C94.0755 38.7217 93.9628 38.8186 93.8767 38.9373C93.8692 38.9467 93.8637 38.9576 93.8605 38.9692C93.8574 38.9809 93.8566 38.9931 93.8583 39.005C93.86 39.017 93.8642 39.0284 93.8705 39.0387C93.8768 39.049 93.8851 39.0579 93.895 39.0649C93.9077 39.0767 93.9245 39.0833 93.9418 39.0831Z" fill="#263238"/>
<path d="M97.1443 59.8871L95.5482 59.106L95.4805 61.189C95.4805 61.189 97.0636 61.9415 97.3838 61.0926L97.1443 59.8871Z" fill="#FFB573"/>
<path d="M93.4805 59.4317L93.5091 61.2778L95.4802 61.1711L95.5479 59.0854L93.4805 59.4317Z" fill="#FFB573"/>
<path d="M102.954 94.0592H101.392V64.2719C101.392 63.6504 101.145 63.0543 100.705 62.6149C100.266 62.1754 99.6698 61.9285 99.0483 61.9285H36.7475C36.126 61.9285 35.5299 62.1754 35.0904 62.6149C34.651 63.0543 34.4041 63.6504 34.4041 64.2719V94.0592H32.8418V64.2719C32.8418 63.236 33.2533 62.2426 33.9857 61.5102C34.7182 60.7777 35.7116 60.3662 36.7475 60.3662H99.0483C100.084 60.3662 101.078 60.7777 101.81 61.5102C102.542 62.2426 102.954 63.236 102.954 64.2719V94.0592Z" fill="#FF6D38"/>
<path opacity="0.7" d="M102.954 94.0592H101.392V64.2719C101.392 63.6504 101.145 63.0543 100.705 62.6149C100.266 62.1754 99.6698 61.9285 99.0483 61.9285H36.7475C36.126 61.9285 35.5299 62.1754 35.0904 62.6149C34.651 63.0543 34.4041 63.6504 34.4041 64.2719V94.0592H32.8418V64.2719C32.8418 63.236 33.2533 62.2426 33.9857 61.5102C34.7182 60.7777 35.7116 60.3662 36.7475 60.3662H99.0483C100.084 60.3662 101.078 60.7777 101.81 61.5102C102.542 62.2426 102.954 63.236 102.954 64.2719V94.0592Z" fill="white"/>
<path d="M97.3485 94.0592H95.7862V64.2719C95.7862 63.6504 95.5393 63.0543 95.0999 62.6149C94.6604 62.1754 94.0643 61.9285 93.4428 61.9285H31.142C30.5205 61.9285 29.9244 62.1754 29.485 62.6149C29.0455 63.0543 28.7986 63.6504 28.7986 64.2719V94.0592H27.2363V64.2719C27.2363 63.236 27.6478 62.2426 28.3803 61.5102C29.1127 60.7777 30.1062 60.3662 31.142 60.3662H93.4428C94.4787 60.3662 95.4721 60.7777 96.2045 61.5102C96.937 62.2426 97.3485 63.236 97.3485 64.2719V94.0592Z" fill="#FF6D38"/>
<path opacity="0.8" d="M97.3485 94.0592H95.7862V64.2719C95.7862 63.6504 95.5393 63.0543 95.0999 62.6149C94.6604 62.1754 94.0643 61.9285 93.4428 61.9285H31.142C30.5205 61.9285 29.9244 62.1754 29.485 62.6149C29.0455 63.0543 28.7986 63.6504 28.7986 64.2719V94.0592H27.2363V64.2719C27.2363 63.236 27.6478 62.2426 28.3803 61.5102C29.1127 60.7777 30.1062 60.3662 31.142 60.3662H93.4428C94.4787 60.3662 95.4721 60.7777 96.2045 61.5102C96.937 62.2426 97.3485 63.236 97.3485 64.2719V94.0592Z" fill="white"/>
<path d="M63.2935 59.7337H49.8736C49.6812 59.7309 49.4963 59.6588 49.3528 59.5306C49.2093 59.4024 49.1169 59.2268 49.0924 59.0359L48.1968 50.584C48.1851 50.4962 48.1926 50.4068 48.2187 50.3221C48.2448 50.2374 48.2889 50.1594 48.348 50.0933C48.4072 50.0273 48.4799 49.9748 48.5612 49.9395C48.6425 49.9042 48.7304 49.8869 48.8191 49.8888H62.239C62.4311 49.891 62.616 49.9626 62.7595 50.0903C62.9031 50.2181 62.9956 50.3934 63.0201 50.584L63.9158 59.0359C63.9274 59.1239 63.9199 59.2134 63.8938 59.2982C63.8677 59.383 63.8237 59.4612 63.7646 59.5275C63.7055 59.5937 63.6329 59.6464 63.5516 59.682C63.4703 59.7176 63.3822 59.7352 63.2935 59.7337Z" fill="#FF6D38"/>
<path opacity="0.2" d="M63.2935 59.7337H49.8736C49.6812 59.7309 49.4963 59.6588 49.3528 59.5306C49.2093 59.4024 49.1169 59.2268 49.0924 59.0359L48.1968 50.584C48.1851 50.4962 48.1926 50.4068 48.2187 50.3221C48.2448 50.2374 48.2889 50.1594 48.348 50.0933C48.4072 50.0273 48.4799 49.9748 48.5612 49.9395C48.6425 49.9042 48.7304 49.8869 48.8191 49.8888H62.239C62.4311 49.891 62.616 49.9626 62.7595 50.0903C62.9031 50.2181 62.9956 50.3934 63.0201 50.584L63.9158 59.0359C63.9274 59.1239 63.9199 59.2134 63.8938 59.2982C63.8677 59.383 63.8237 59.4612 63.7646 59.5275C63.7055 59.5937 63.6329 59.6464 63.5516 59.682C63.4703 59.7176 63.3822 59.7352 63.2935 59.7337Z" fill="black"/>
<path d="M54.367 48.9775H53.2812V49.2379H54.367V48.9775Z" fill="#FF6D38"/>
<path d="M52.3499 48.9775H49.832V49.2379H52.3499V48.9775Z" fill="#FF6D38"/>
<path d="M62.922 59.7337H49.5047C49.312 59.7319 49.1265 59.6602 48.9828 59.5318C48.8391 59.4034 48.747 59.2272 48.7236 59.0359L47.8253 50.584C47.8141 50.4962 47.8219 50.407 47.8482 50.3225C47.8744 50.238 47.9186 50.1601 47.9776 50.0942C48.0366 50.0283 48.1092 49.9758 48.1902 49.9403C48.2713 49.9049 48.3591 49.8873 48.4476 49.8888H61.8675C62.0598 49.8904 62.245 49.9618 62.3887 50.0896C62.5323 50.2175 62.6247 50.3931 62.6486 50.584L63.547 59.0359C63.5582 59.124 63.5503 59.2135 63.5239 59.2983C63.4975 59.3831 63.4531 59.4613 63.3939 59.5275C63.3346 59.5937 63.2618 59.6463 63.1804 59.6819C63.099 59.7175 63.0109 59.7351 62.922 59.7337Z" fill="#FF6D38"/>
<path d="M63.5331 59.6714H50.1236C49.939 59.6714 49.7619 59.7446 49.6311 59.8749C49.5003 60.0052 49.4265 60.182 49.4258 60.3666H64.2387C64.2384 60.2746 64.2198 60.1835 64.1841 60.0986C64.1484 60.0137 64.0963 59.9367 64.0307 59.8721C63.9651 59.8075 63.8873 59.7565 63.8019 59.722C63.7165 59.6876 63.6252 59.6704 63.5331 59.6714Z" fill="#FF6D38"/>
<path d="M68.1353 59.6714H63.3417C63.1575 59.6721 62.9811 59.7455 62.8509 59.8758C62.7206 60.006 62.6472 60.1824 62.6465 60.3666H68.8331C68.8324 60.182 68.7586 60.0052 68.6278 59.8748C68.497 59.7445 68.3199 59.6714 68.1353 59.6714Z" fill="#FF6D38"/>
<path opacity="0.2" d="M68.1353 59.6714H63.3417C63.1575 59.6721 62.9811 59.7455 62.8509 59.8758C62.7206 60.006 62.6472 60.1824 62.6465 60.3666H68.8331C68.8324 60.182 68.7586 60.0052 68.6278 59.8748C68.497 59.7445 68.3199 59.6714 68.1353 59.6714Z" fill="black"/>
</svg>
