<svg width="131" height="98" viewBox="0 0 131 98" fill="none" xmlns="http://www.w3.org/2000/svg">
<path d="M130.932 85.7344H0V85.7998H130.932V85.7344Z" fill="#EBEBEB"/>
<path d="M94.796 87.8135H86.123V87.8789H94.796V87.8135Z" fill="#EBEBEB"/>
<path d="M115.459 87.8477H104.686V87.9131H115.459V87.8477Z" fill="#EBEBEB"/>
<path d="M98.447 89.5571H93.4219V89.6226H98.447V89.5571Z" fill="#EBEBEB"/>
<path d="M59.0949 89.0625H45.5645V89.128H59.0949V89.0625Z" fill="#EBEBEB"/>
<path d="M43.234 89.0625H34.2285V89.128H43.234V89.0625Z" fill="#EBEBEB"/>
<path d="M28.838 87.9575H16.5723V88.023H28.838V87.9575Z" fill="#EBEBEB"/>
<path d="M62.0617 74.055H11.4985C11.1024 74.0543 10.7227 73.8965 10.4429 73.6162C10.163 73.3358 10.0059 72.9559 10.0059 72.5598V1.48215C10.0093 1.08831 10.168 0.71174 10.4475 0.434227C10.727 0.156714 11.1046 0.000674662 11.4985 0H62.0617C62.4583 0 62.8386 0.157534 63.119 0.437946C63.3994 0.718358 63.557 1.09868 63.557 1.49524V72.5598C63.557 72.9563 63.3994 73.3367 63.119 73.6171C62.8386 73.8975 62.4583 74.055 62.0617 74.055ZM11.4985 0.0523729C11.1197 0.0530666 10.7567 0.204009 10.4892 0.472068C10.2216 0.740128 10.0713 1.1034 10.0713 1.48215V72.5598C10.0713 72.9385 10.2216 73.3018 10.4892 73.5699C10.7567 73.8379 11.1197 73.9889 11.4985 73.9896H62.0617C62.4407 73.9889 62.804 73.838 63.072 73.57C63.34 73.302 63.4908 72.9388 63.4915 72.5598V1.48215C63.4908 1.10316 63.34 0.739894 63.072 0.471909C62.804 0.203924 62.4407 0.0530651 62.0617 0.0523729H11.4985Z" fill="#EBEBEB"/>
<path d="M118.706 74.055H68.1398C67.7434 74.0543 67.3635 73.8966 67.0832 73.6163C66.803 73.3361 66.6452 72.9561 66.6445 72.5598V1.48215C66.6487 1.08807 66.8079 0.711504 67.0878 0.434063C67.3677 0.156623 67.7457 0.000667304 68.1398 0H118.706C119.099 0.00136287 119.476 0.157707 119.755 0.435146C120.034 0.712585 120.192 1.08876 120.196 1.48215V72.5598C120.196 72.9554 120.039 73.335 119.76 73.6152C119.48 73.8955 119.101 74.0536 118.706 74.055ZM68.1398 0.0523729C67.7608 0.0530651 67.3975 0.203924 67.1295 0.471909C66.8615 0.739894 66.7107 1.10316 66.71 1.48215V72.5598C66.7107 72.9388 66.8615 73.302 67.1295 73.57C67.3975 73.838 67.7608 73.9889 68.1398 73.9896H118.706C119.085 73.9889 119.448 73.838 119.716 73.57C119.984 73.302 120.135 72.9388 120.135 72.5598V1.48215C120.135 1.10316 119.984 0.739894 119.716 0.471909C119.448 0.203924 119.085 0.0530651 118.706 0.0523729H68.1398Z" fill="#EBEBEB"/>
<path d="M72.9463 21.1141C73.132 20.8301 73.3839 20.5954 73.6804 20.4302C73.9769 20.2651 74.3091 20.1745 74.6484 20.1662C74.8419 20.161 75.0298 20.2314 75.1721 20.3626C76.1855 19.6791 77.4006 19.2575 78.4533 19.3151C78.9122 19.3178 79.3602 19.4553 79.7416 19.7105C80.7891 18.6762 82.2032 17.9456 83.3004 17.9456C83.921 17.9456 84.3478 18.1812 84.5311 18.5767C85.6545 17.8853 86.8486 17.4585 87.8542 17.4585C89.462 17.4585 90.1272 18.54 89.6689 20.0588C89.97 20.3442 91.2898 20.7449 91.3029 21.2241H72.8887L72.9463 21.1141Z" fill="#FAFAFA"/>
<path d="M16.574 15.7746C16.8378 15.3728 17.195 15.0407 17.6149 14.8068C18.0349 14.5729 18.5052 14.444 18.9858 14.4312C19.2545 14.4281 19.5142 14.5284 19.7111 14.7114C21.1487 13.7425 22.8692 13.1403 24.3644 13.211C25.0169 13.2135 25.6542 13.4074 26.1975 13.7687C27.6718 12.3075 29.675 11.2601 31.2279 11.2601C32.1104 11.2601 32.7022 11.5953 32.9719 12.1557C34.564 11.1737 36.2557 10.5845 37.6854 10.5845C39.961 10.5845 40.9011 12.1164 40.2569 14.2689C40.6838 14.6722 42.5509 15.2404 42.5692 15.9186H16.498C16.519 15.8689 16.5426 15.8217 16.574 15.7746Z" fill="#FAFAFA"/>
<path d="M44.8043 9.19087C44.9492 8.97083 45.1451 8.78904 45.3753 8.66093C45.6056 8.53282 45.8633 8.46219 46.1267 8.45504C46.274 8.45268 46.4165 8.50706 46.5247 8.60692C47.2703 8.07737 48.1608 7.79027 49.0753 7.78467C49.4314 7.78745 49.779 7.89391 50.0756 8.09105C50.89 7.28974 51.9872 6.7215 52.8409 6.7215C53.3227 6.7215 53.6474 6.9048 53.7967 7.21118C54.6687 6.67436 55.5957 6.3418 56.3787 6.3418C57.6277 6.3418 58.1436 7.18238 57.7901 8.36338C58.0232 8.58597 59.0497 8.88711 59.0575 9.26943H44.7598C44.7781 9.24325 44.7781 9.21706 44.8043 9.19087Z" fill="#FAFAFA"/>
<path d="M98.0974 16.9039C98.1776 16.9033 98.2569 16.9213 98.3291 16.9562C98.4013 16.9912 98.4645 17.0422 98.5138 17.1055C99.3649 16.4037 100.373 15.9742 101.237 16.024C101.624 16.0278 101.996 16.171 102.285 16.4273C103.172 15.3798 104.351 14.6256 105.252 14.6256C105.465 14.6073 105.679 14.6606 105.859 14.7772C106.04 14.8939 106.176 15.0672 106.247 15.2698C107.187 14.5602 108.179 14.1255 109.007 14.1255C110.033 14.1255 110.578 14.7959 110.578 15.8224C110.961 15.5447 111.415 15.3805 111.887 15.3484C112.004 15.34 112.121 15.3565 112.23 15.397C112.34 15.4374 112.439 15.5008 112.522 15.5829C112.605 15.6649 112.67 15.7638 112.712 15.8728C112.753 15.9819 112.771 16.0986 112.764 16.2152H112.908C113.757 16.3042 114.168 17.0007 113.867 17.7863H96.7227C97.029 17.2626 97.6261 16.8777 98.0974 16.9039Z" fill="#FAFAFA"/>
<path d="M49.051 26.1864C49.2521 26.2336 49.4485 26.2994 49.6375 26.3828C49.8339 26.4699 50.0208 26.577 50.1953 26.7023C50.3378 26.8056 50.4687 26.9241 50.5855 27.0558C50.8103 26.7344 51.0655 26.4354 51.3475 26.1628C51.4999 26.0154 51.6617 25.878 51.832 25.7517C51.9859 25.6328 52.1518 25.5301 52.3269 25.4453L51.887 25.9978C51.7429 26.1838 51.5989 26.3645 51.4575 26.5504C51.3161 26.7363 51.1956 26.9248 51.049 27.1134C50.9023 27.3019 50.7871 27.5036 50.6667 27.7026L50.52 27.9409L50.3917 27.7838C50.2559 27.6223 50.1041 27.4749 49.9387 27.3438C49.7763 27.2077 49.6087 27.082 49.4411 26.951C49.0885 26.6902 48.7502 26.4104 48.4277 26.1131C48.6378 26.1094 48.8475 26.134 49.051 26.1864Z" fill="#EBEBEB"/>
<path d="M79.6792 8.76158C79.8811 8.80924 80.0783 8.87497 80.2684 8.95798C80.4642 9.04463 80.6503 9.15171 80.8236 9.27745C80.966 9.38089 81.0968 9.49942 81.2137 9.63097C81.4394 9.3095 81.6955 9.01047 81.9784 8.73802C82.1314 8.5913 82.2932 8.454 82.4628 8.32689C82.6173 8.20869 82.7831 8.10606 82.9577 8.02051L82.5152 8.57304C82.3712 8.75896 82.2271 8.93965 82.0884 9.12557C81.9496 9.3115 81.8108 9.50004 81.6772 9.68858C81.5437 9.87712 81.4154 10.0788 81.2949 10.2778L81.1509 10.5161L81.0226 10.3589C80.8854 10.1987 80.7338 10.0514 80.5696 9.91902C80.4072 9.78285 80.2396 9.65716 80.0694 9.52622C79.7342 9.26436 79.3885 9.0025 79.0586 8.69088C79.2678 8.68516 79.4767 8.70896 79.6792 8.76158Z" fill="#EBEBEB"/>
<path d="M35.3873 23.4397C35.686 23.5117 35.9777 23.6099 36.2593 23.733C36.5507 23.8619 36.8281 24.0208 37.0868 24.2069C37.2977 24.3605 37.4916 24.5361 37.6655 24.7307C38.0007 24.2541 38.3803 23.8105 38.7994 23.4056C39.0273 23.1866 39.2687 22.9819 39.5221 22.7929C39.7511 22.6183 39.9967 22.4666 40.2553 22.3398L39.6007 23.1621C39.3859 23.424 39.1712 23.7042 38.9643 23.9817C38.7575 24.2593 38.5532 24.5395 38.3542 24.8197C38.1552 25.0999 37.9692 25.401 37.7859 25.6943L37.5712 26.0478L37.3827 25.8148C37.1779 25.5764 36.9518 25.3573 36.7071 25.1601C36.4661 24.9585 36.2174 24.7673 35.966 24.5762C35.4439 24.1886 34.9422 23.7743 34.4629 23.3349C34.7744 23.3274 35.0854 23.3626 35.3873 23.4397Z" fill="#EBEBEB"/>
<path d="M52.8671 17.5843C53.0922 17.6383 53.3121 17.7119 53.5244 17.8043C53.7425 17.9021 53.9504 18.0214 54.145 18.1604C54.305 18.2756 54.4517 18.4082 54.5823 18.5558C54.8334 18.1968 55.1184 17.8627 55.4334 17.5581C55.6043 17.3942 55.7853 17.2411 55.9754 17.0999C56.1476 16.9673 56.3327 16.8523 56.528 16.7568L56.0383 17.3748C55.8759 17.5817 55.7162 17.7833 55.5591 17.9902C55.4019 18.1971 55.2501 18.4118 55.1008 18.6213C54.9515 18.8308 54.8101 19.056 54.674 19.2786L54.5116 19.5404L54.3702 19.3676C54.2167 19.1879 54.0466 19.0231 53.8622 18.8753C53.6815 18.7234 53.4956 18.5794 53.3044 18.4354C52.9114 18.1446 52.5347 17.8325 52.1758 17.5005C52.4089 17.4979 52.6414 17.5261 52.8671 17.5843Z" fill="#EBEBEB"/>
<path d="M98.9036 10.9774C99.1287 11.0313 99.3487 11.1049 99.5609 11.1974C99.7788 11.2958 99.9866 11.4151 100.182 11.5535C100.341 11.6687 100.486 11.8013 100.616 11.9489C100.867 11.5892 101.153 11.2551 101.47 10.9512C101.64 10.7858 101.821 10.6318 102.012 10.4903C102.184 10.3589 102.37 10.2448 102.564 10.1499L102.072 10.7679C101.91 10.9748 101.75 11.1764 101.593 11.3833C101.436 11.5902 101.284 11.8023 101.135 12.0144C100.985 12.2265 100.844 12.4491 100.708 12.6716L100.546 12.9335L100.404 12.7581C100.25 12.5799 100.08 12.416 99.8961 12.2684C99.7154 12.1165 99.5269 11.9725 99.3383 11.8284C98.9425 11.538 98.5622 11.2268 98.1992 10.8962C98.4366 10.8916 98.6735 10.9189 98.9036 10.9774Z" fill="#EBEBEB"/>
<path d="M109.215 85.543C108.953 84.5087 107.749 83.71 106.531 83.7597C106.12 83.7673 105.72 83.8957 105.382 84.129C103.786 82.7812 101.748 82.0714 99.6598 82.1362C98.6757 82.1627 97.7112 82.4173 96.8422 82.8799C95.5093 80.9342 93.2416 79.5568 91.0812 79.5568C90.5436 79.5348 90.0077 79.6297 89.5104 79.835C89.0131 80.0402 88.5662 80.351 88.2007 80.7457C86.475 79.4364 84.4272 78.6377 82.4397 78.6377C79.2738 78.6377 77.2024 80.675 77.0165 83.5372C76.2178 84.0766 73.3321 84.8308 72.9707 85.7342H109.257C109.244 85.6714 109.234 85.6085 109.215 85.543Z" fill="#F5F5F5"/>
<path d="M56.0947 84.1892C55.7629 84.201 55.4452 84.3258 55.1939 84.5427C54.6622 83.926 54.0002 83.4351 53.2557 83.1054C52.5112 82.7758 51.7028 82.6155 50.8888 82.6363C50.1056 82.671 49.3464 82.9171 48.6918 83.3486C47.7569 81.4893 46.0732 80.1722 44.413 80.1722C43.9726 80.1676 43.5377 80.2687 43.1445 80.4669C42.7513 80.665 42.4113 80.9546 42.1531 81.3113C40.8883 80.0596 39.3485 79.2949 37.8218 79.2949C35.9286 79.2949 34.4857 80.4707 33.8127 82.2854C33.2311 81.7742 32.4915 81.4784 31.7178 81.4474C31.2401 81.4483 30.774 81.5952 30.3822 81.8686C29.9904 82.1419 29.6917 82.5286 29.526 82.9767C29.4385 82.9772 29.3511 82.9824 29.2641 82.9924C27.6406 83.1469 26.4282 84.3541 26.4596 85.7341H58.0482C57.946 85.2933 57.697 84.9002 57.3421 84.6195C56.9871 84.3387 56.5472 84.187 56.0947 84.1892Z" fill="#FAFAFA"/>
<path d="M95.2216 75.7597L95.1299 71.9627L93.1816 66.8433H95.0068L94.868 61.1006H100.54L101.095 71.4599L102.467 71.6904L101.76 77.1816L101.404 77.2026L101.86 85.7341H95.4651L95.3656 81.6543L94.5695 75.6916L95.2216 75.7597Z" fill="#F0F0F0"/>
<path d="M113.983 51.5606C114.863 49.5364 114.302 48.0831 112.673 47.4311C112.04 44.9303 107.664 42.1414 101.937 40.7928C95.4324 39.2583 90.8838 40.6881 88.802 42.7961C87.4033 42.5874 85.9747 42.8402 84.7326 43.5162C82.4806 44.6841 81.0875 46.6245 81.0796 48.3345C79.4718 49.018 78.9533 50.5001 79.8934 52.5557C80.5045 53.7835 81.5005 54.7776 82.7294 55.3865C82.707 56.1072 82.8655 56.822 83.1903 57.4657C83.3851 57.8841 83.6343 58.2751 83.9313 58.6284C83.1955 59.4297 83.0986 60.629 83.7899 62.1373C84.4367 63.5488 85.932 64.9393 88.2861 65.6358C89.1817 67.3275 92.2507 68.5765 95.9011 68.5765C99.7269 68.5765 102.916 67.2044 103.631 65.3897C104.095 65.4316 104.569 65.4551 105.056 65.4551C109.408 65.4551 112.021 63.4938 112.935 61.4931C113.459 60.3645 113.53 59.3982 113.226 58.6624C114.333 58.0525 115.226 57.1186 115.787 55.9861C116.819 53.6817 116.054 52.1106 113.983 51.5606Z" fill="#E6E6E6"/>
<path d="M47.4073 59.5167H43.6574L42.1936 63.3137H40.9864L40.8869 66.697L39.918 69.2082L39.5043 69.1611L38.8522 71.5179L38.4411 69.2266L39.5278 63.0911H37.3387L36.1027 56.2041H29.3047L31.1692 68.6243L29.5796 68.8992L31.7662 75.4825L32.2009 75.5061L33.7354 85.7345H41.4028L40.5255 80.8428L40.2532 76.9856L43.6103 70.1588L43.8538 70.1457L45.81 66.5163L44.9641 66.3644L47.4073 59.5167Z" fill="#F0F0F0"/>
<path d="M20.6865 44.7788C19.639 42.3513 20.3042 40.6099 22.2577 39.8269C23.0197 36.8312 28.2622 33.4898 35.1361 31.8689C42.937 30.0359 48.3864 31.7458 50.8846 34.2728C52.5646 34.0158 54.2826 34.3156 55.7762 35.1265C58.476 36.5275 60.1467 38.8528 60.1546 40.9032C62.0845 41.7228 62.7077 43.4983 61.5765 45.965C61.003 47.2194 59.8718 48.458 58.1723 49.3562C58.1943 50.221 58.0008 51.0777 57.6093 51.8491C57.3753 52.3502 57.0769 52.8185 56.7215 53.2422C57.6014 54.2033 57.7166 55.6383 56.8891 57.4477C56.1035 59.1394 54.3229 60.8075 51.5 61.6376C50.4263 63.667 46.7472 65.1622 42.3714 65.1622C37.7836 65.1622 33.963 63.5177 33.1041 61.3417C32.5515 61.3914 31.9807 61.4202 31.3993 61.4202C26.1804 61.4202 23.0485 59.0634 21.9513 56.6726C21.3307 55.3162 21.2416 54.1718 21.603 53.2684C20.2792 52.5417 19.2099 51.4267 18.5392 50.0737C17.2823 47.3241 18.1988 45.4308 20.6865 44.7788Z" fill="#F5F5F5"/>
<path d="M65.468 97.5599C93.5091 97.5599 116.241 96.2328 116.241 94.5956C116.241 92.9585 93.5091 91.6313 65.468 91.6313C37.427 91.6313 14.6953 92.9585 14.6953 94.5956C14.6953 96.2328 37.427 97.5599 65.468 97.5599Z" fill="#F5F5F5"/>
<path d="M85.7727 33.8146C85.7308 34.5399 85.647 35.2051 85.5527 35.9095C85.4585 36.6139 85.3275 37.2712 85.1783 37.9468C85.029 38.6224 84.8666 39.3006 84.6545 39.9684C84.4501 40.6422 84.2079 41.304 83.9292 41.9507L83.7092 42.4404C83.6778 42.5137 83.6176 42.621 83.5704 42.7022C83.5233 42.7834 83.4683 42.8803 83.4159 42.9641C83.212 43.2835 82.9844 43.5873 82.7351 43.8727C82.2722 44.4054 81.7735 44.9059 81.2425 45.3706C80.2146 46.2756 79.1214 47.1036 77.9718 47.8478L77.3066 46.9889C77.7754 46.5359 78.252 46.0672 78.7128 45.601C79.1737 45.1349 79.6294 44.6583 80.0615 44.1765C80.4885 43.7085 80.8914 43.2191 81.2686 42.7101C81.4398 42.4752 81.5955 42.2294 81.7348 41.9742C81.7609 41.9166 81.795 41.8564 81.8186 41.8014C81.847 41.7425 81.8723 41.6822 81.8945 41.6207L82.0621 41.1834C82.487 39.981 82.8179 38.7474 83.0519 37.4937C83.1776 36.8627 83.2693 36.2211 83.3635 35.5821C83.4578 34.9432 83.5285 34.2728 83.5861 33.6758L85.7727 33.8146Z" fill="#FFB573"/>
<path d="M84.2798 31.2034C83.3973 31.426 82.7793 35.0632 82.7793 35.0632L85.2146 36.7182C85.2146 36.7182 87.5478 33.0521 86.8696 32.0806C86.1547 31.0672 85.5708 30.8734 84.2798 31.2034Z" fill="#FF6D38"/>
<path opacity="0.2" d="M84.3618 32.0156L83.6836 35.6791L85.0505 36.6087L84.3618 32.0156Z" fill="black"/>
<path d="M77.7094 46.6797L75.2793 46.8551L76.73 48.4813C76.73 48.4813 78.0734 48.1749 78.3012 47.316L77.7094 46.6797Z" fill="#FFB573"/>
<path d="M73.9395 47.7165L74.9345 49.2484L76.7309 48.4812L75.2802 46.855L73.9395 47.7165Z" fill="#FFB573"/>
<path d="M89.0615 92.4068H86.9168L86.7754 87.4419H88.9174L89.0615 92.4068Z" fill="#FFB573"/>
<path d="M103.889 86.0874L101.905 86.8966L99.3906 82.5628L101.376 81.751L103.889 86.0874Z" fill="#FFB573"/>
<path d="M101.529 86.6012L103.6 85.3704C103.636 85.3486 103.678 85.3406 103.719 85.3478C103.76 85.355 103.797 85.3771 103.823 85.4097L105.033 86.9076C105.061 86.9465 105.081 86.991 105.092 87.0382C105.102 87.0854 105.103 87.1343 105.093 87.1817C105.084 87.229 105.064 87.2739 105.036 87.3133C105.008 87.3527 104.972 87.3857 104.93 87.4104C104.202 87.8267 103.828 87.9917 102.917 88.5311C102.356 88.8637 101.039 90.0054 100.267 90.4663C99.4941 90.9272 98.9966 90.1835 99.2794 89.9242C100.192 89.0991 100.882 88.0583 101.288 86.8971C101.331 86.7734 101.417 86.6688 101.529 86.6012Z" fill="#263238"/>
<path d="M86.8449 92.1578H89.254C89.2957 92.1563 89.3364 92.1705 89.3679 92.1977C89.3995 92.2249 89.4196 92.2631 89.4242 92.3045L89.6861 94.2108C89.6913 94.2589 89.6862 94.3075 89.6713 94.3534C89.6564 94.3994 89.6319 94.4416 89.5996 94.4775C89.5672 94.5133 89.5276 94.5419 89.4834 94.5614C89.4392 94.5809 89.3914 94.5908 89.3431 94.5905C88.5025 94.5775 88.0992 94.5277 87.0386 94.5277C86.3866 94.5277 85.0406 94.5958 84.1398 94.5958C83.239 94.5958 83.1919 93.7054 83.5663 93.6243C85.2475 93.2629 85.9074 92.7654 86.473 92.2888C86.5775 92.2023 86.7093 92.1559 86.8449 92.1578Z" fill="#263238"/>
<g opacity="0.2">
<path d="M86.7754 87.4409L86.8487 90.0019H88.9934L88.9201 87.4409H86.7754Z" fill="black"/>
<path d="M101.376 81.751L99.3906 82.5628L100.687 84.7965L102.672 83.9873L101.376 81.751Z" fill="black"/>
</g>
<path d="M84.2801 31.2042C84.2801 31.2042 83.2588 31.5629 85.3066 44.1429H94.0109C93.8643 40.5999 93.859 38.4133 95.5533 31.1413C94.3343 30.8888 93.0985 30.726 91.8558 30.6543C90.5394 30.5599 89.218 30.5599 87.9016 30.6543C86.2074 30.8088 84.2801 31.2042 84.2801 31.2042Z" fill="#FF6D38"/>
<path d="M91.8582 30.6543C90.5419 30.5599 89.2204 30.5599 87.9041 30.6543C87.4301 30.6962 86.9378 30.759 86.4743 30.8245C86.2727 31.5891 86.3119 32.6575 87.0923 34.0559C87.2171 34.2788 87.4191 34.4484 87.6602 34.5328C87.9014 34.6172 88.165 34.6106 88.4016 34.5141C89.0353 34.2523 92.2431 32.9037 93.2749 31.233L93.5368 30.8009C93.0183 30.7381 92.4395 30.6831 91.8582 30.6543Z" fill="white"/>
<path d="M95.5563 23.2324C95.5563 26.3748 92.9691 28.4487 90.2274 29.7606C87.3914 31.1171 84.5371 27.2127 84.5371 24.0704C84.5368 23.3229 84.6837 22.5826 84.9695 21.892C85.2553 21.2013 85.6744 20.5737 86.2028 20.045C86.7313 19.5163 87.3587 19.097 88.0492 18.8108C88.7398 18.5247 89.4799 18.3774 90.2274 18.3774C93.3698 18.3774 95.5563 20.09 95.5563 23.2324Z" fill="#263238"/>
<path d="M96.279 19.6007C96.279 20.7921 95.4515 22.0753 94.2574 22.0753C93.6851 22.0753 93.1363 21.8479 92.7316 21.4433C92.3269 21.0386 92.0996 20.4898 92.0996 19.9175C92.0996 19.3452 92.3269 18.7964 92.7316 18.3918C93.1363 17.9871 93.6851 17.7598 94.2574 17.7598C95.4515 17.7598 96.279 18.4092 96.279 19.6007Z" fill="#263238"/>
<path d="M91.4684 26.2021C91.2065 27.4722 90.9682 29.8054 91.8586 30.6538C91.8586 30.6538 91.5103 31.9448 89.1483 31.9448C86.548 31.9448 87.9044 30.6538 87.9044 30.6538C89.3237 30.3134 89.2871 29.2607 89.0409 28.2735L91.4684 26.2021Z" fill="#FFB573"/>
<path d="M91.8579 30.6543C90.5415 30.5599 89.2201 30.5599 87.9038 30.6543L87.6419 30.6805C87.3742 31.2274 87.3328 31.8577 87.5267 32.4349C87.5669 32.5832 87.6392 32.7209 87.7386 32.8381C87.8379 32.9553 87.9618 33.0492 88.1015 33.1132C88.2412 33.1771 88.3932 33.2096 88.5469 33.2082C88.7005 33.2069 88.852 33.1717 88.9905 33.1053C90.0851 32.5816 91.782 31.6467 92.3738 30.6883C92.2062 30.6752 92.0307 30.6621 91.8579 30.6543Z" fill="#FFB573"/>
<path opacity="0.2" d="M90.478 27.0483L89.0352 28.2817C89.0962 28.5117 89.1374 28.7465 89.1582 28.9835C89.7003 28.905 90.444 28.3105 90.5016 27.7423C90.5356 27.5114 90.5276 27.2763 90.478 27.0483Z" fill="black"/>
<path d="M91.6766 22.9031C92.072 24.998 92.2841 25.87 91.5116 27.1898C90.3489 29.1747 87.6936 29.2035 86.6828 27.271C85.7715 25.5348 85.2792 22.4055 87.0887 21.0779C87.4859 20.7828 87.9519 20.5942 88.4425 20.5299C88.9331 20.4657 89.432 20.528 89.8917 20.7109C90.3515 20.8938 90.7568 21.1912 91.0692 21.5749C91.3816 21.9586 91.5907 22.4158 91.6766 22.9031Z" fill="#FFB573"/>
<path d="M85.3067 44.1424C85.3067 44.1424 83.615 60.6582 83.7564 67.1864C83.9005 73.9949 86.3934 89.4946 86.3934 89.4946H89.2975C89.2975 89.4946 88.8392 74.3824 89.0958 67.7049C89.3734 60.4225 91.6883 44.1372 91.6883 44.1372L85.3067 44.1424Z" fill="#263238"/>
<path d="M89.543 89.6098H86.1414L85.8926 88.5256L89.7001 88.3921L89.543 89.6098Z" fill="#FF6D38"/>
<path opacity="0.2" d="M89.0615 48.2511C86.922 52.5536 88.632 60.4016 89.3888 63.3214C89.7764 58.9378 90.4363 53.5748 90.939 49.639C90.6065 47.4132 90.0487 46.2688 89.0615 48.2511Z" fill="black"/>
<path d="M87.6055 44.1426C87.6055 44.1426 89.5773 61.313 91.0673 66.8252C92.8349 73.3718 100.02 84.535 100.02 84.535L102.725 83.43C102.725 83.43 98.0879 70.7165 96.734 67.2678C93.8535 59.9094 96.3203 48.9373 94.0133 44.1426H87.6055Z" fill="#263238"/>
<path d="M103.095 83.4429L99.7374 84.8151L98.9492 83.9038L102.827 82.1152L103.095 83.4429Z" fill="#FF6D38"/>
<path d="M88.5303 24.2802C88.5722 24.4478 88.5172 24.6049 88.4099 24.6337C88.3025 24.6625 88.1768 24.5473 88.1323 24.3719C88.0878 24.1964 88.1454 24.0472 88.2554 24.0184C88.3654 23.9895 88.4884 24.1126 88.5303 24.2802Z" fill="#263238"/>
<path d="M86.6358 24.7592C86.6803 24.9268 86.6358 25.0865 86.5154 25.1127C86.3949 25.1389 86.2823 25.0263 86.2404 24.8509C86.1985 24.6754 86.2404 24.5262 86.3609 24.4974C86.4813 24.4686 86.5939 24.5916 86.6358 24.7592Z" fill="#263238"/>
<path d="M86.4184 24.5024H85.9863C85.9863 24.5024 86.2665 24.7512 86.4184 24.5024Z" fill="#263238"/>
<path d="M87.2961 24.9141C87.2435 25.3339 87.1333 25.7445 86.9688 26.1343C87.0696 26.1741 87.1779 26.1912 87.2861 26.1844C87.3942 26.1776 87.4996 26.1471 87.5946 26.0951L87.2961 24.9141Z" fill="#ED893E"/>
<path d="M88.679 26.5216C88.5996 26.5537 88.5182 26.5808 88.4354 26.6028C88.4223 26.6054 88.4087 26.6031 88.3971 26.5963C88.3855 26.5896 88.3768 26.5788 88.3726 26.5661C88.3694 26.5529 88.3714 26.539 88.3782 26.5273C88.3851 26.5155 88.3962 26.5069 88.4093 26.5033C88.6182 26.4552 88.813 26.3592 88.9784 26.2228C89.1439 26.0865 89.2753 25.9135 89.3624 25.7177C89.3647 25.7115 89.3681 25.7058 89.3725 25.7009C89.377 25.6961 89.3823 25.6921 89.3883 25.6893C89.3942 25.6865 89.4007 25.6849 89.4073 25.6846C89.4138 25.6843 89.4204 25.6853 89.4266 25.6875C89.4328 25.6898 89.4385 25.6932 89.4433 25.6976C89.4482 25.7021 89.4521 25.7074 89.4549 25.7134C89.4577 25.7193 89.4593 25.7258 89.4596 25.7324C89.4599 25.7389 89.4589 25.7455 89.4567 25.7517C89.3845 25.9251 89.2785 26.0825 89.145 26.2146C89.0115 26.3468 88.8531 26.4511 88.679 26.5216Z" fill="#263238"/>
<path d="M86.3726 21.3419C86.3726 21.3419 89.1745 24.2224 91.9686 24.2224C94.2677 24.2224 94.1918 20.3678 91.1516 20.2081C88.1113 20.0483 85.0344 19.2261 86.3726 21.3419Z" fill="#263238"/>
<path d="M92.7147 24.6624C92.6615 25.0703 92.4487 25.4405 92.1229 25.6916C91.6882 26.0215 91.2718 25.6916 91.2247 25.1678C91.1828 24.7043 91.3583 23.9737 91.8741 23.8585C91.9864 23.8335 92.1032 23.8366 92.214 23.8675C92.3248 23.8984 92.4263 23.9562 92.5094 24.0357C92.5926 24.1152 92.6548 24.214 92.6906 24.3233C92.7264 24.4327 92.7347 24.5492 92.7147 24.6624Z" fill="#FFB573"/>
<path d="M88.9064 23.2564C88.8914 23.2718 88.8718 23.2819 88.8506 23.2852C88.8293 23.2885 88.8076 23.2849 88.7886 23.2748C88.3722 23.0601 87.8328 23.335 87.8276 23.3376C87.8159 23.3438 87.8031 23.3476 87.7899 23.3489C87.7767 23.3501 87.7634 23.3488 87.7508 23.3449C87.7382 23.341 87.7264 23.3346 87.7162 23.3262C87.706 23.3178 87.6976 23.3074 87.6914 23.2957C87.6852 23.284 87.6814 23.2712 87.6801 23.2581C87.6789 23.2449 87.6803 23.2316 87.6841 23.219C87.688 23.2063 87.6944 23.1946 87.7028 23.1844C87.7112 23.1742 87.7216 23.1658 87.7333 23.1596C87.7595 23.1438 88.3722 22.8322 88.8829 23.0941C88.8947 23.1002 88.9052 23.1085 88.9137 23.1187C88.9222 23.1289 88.9286 23.1407 88.9325 23.1533C88.9364 23.166 88.9378 23.1794 88.9364 23.1926C88.9351 23.2058 88.9311 23.2186 88.9248 23.2303C88.9202 23.24 88.914 23.2488 88.9064 23.2564Z" fill="#263238"/>
<path d="M85.6534 23.6911C85.6371 23.6979 85.6193 23.7003 85.6019 23.698C85.5844 23.6957 85.5678 23.6888 85.5539 23.678C85.5322 23.6622 85.5175 23.6386 85.5131 23.6121C85.5087 23.5856 85.5149 23.5585 85.5303 23.5366C85.623 23.4042 85.746 23.2959 85.889 23.2208C86.032 23.1456 86.191 23.1057 86.3526 23.1045C86.3792 23.1065 86.404 23.1189 86.4216 23.1389C86.4392 23.159 86.4483 23.1852 86.4468 23.2119C86.4465 23.2252 86.4435 23.2383 86.438 23.2504C86.4325 23.2625 86.4247 23.2734 86.4149 23.2824C86.4052 23.2915 86.3937 23.2984 86.3812 23.303C86.3687 23.3075 86.3554 23.3094 86.3421 23.3087C86.2144 23.3117 86.0893 23.3447 85.9769 23.4053C85.8645 23.4658 85.768 23.5521 85.6953 23.657C85.6845 23.6718 85.6701 23.6836 85.6534 23.6911Z" fill="#263238"/>
<path d="M100.706 87.4127H100.68C100.632 87.4014 100.588 87.3782 100.551 87.3452C100.514 87.3123 100.487 87.2706 100.47 87.2241C100.457 87.1962 100.451 87.1651 100.454 87.1342C100.457 87.1033 100.468 87.0737 100.486 87.0487C100.641 86.8235 101.416 86.8523 101.505 86.8575C101.515 86.8575 101.524 86.8605 101.532 86.8661C101.54 86.8718 101.546 86.8797 101.549 86.8889C101.553 86.8983 101.554 86.9087 101.552 86.9186C101.55 86.9285 101.544 86.9374 101.536 86.9439C101.342 87.1351 100.971 87.4441 100.706 87.4127ZM101.376 86.9518C101.067 86.9518 100.651 86.9858 100.567 87.1037C100.56 87.1156 100.557 87.1292 100.557 87.143C100.557 87.1567 100.56 87.1703 100.567 87.1822C100.577 87.2134 100.595 87.2415 100.619 87.2639C100.643 87.2864 100.672 87.3024 100.703 87.3106C100.847 87.342 101.094 87.2006 101.376 86.9518Z" fill="#FF6D38"/>
<path d="M101.427 86.9521C101.165 86.9207 100.691 86.74 100.617 86.5305C100.604 86.4924 100.604 86.451 100.617 86.4129C100.631 86.3749 100.657 86.3425 100.691 86.321C100.722 86.2972 100.757 86.2802 100.795 86.2711C100.833 86.2621 100.872 86.2613 100.911 86.2686C101.217 86.3289 101.534 86.8578 101.547 86.8788C101.552 86.8867 101.554 86.8958 101.554 86.9049C101.554 86.9141 101.552 86.9232 101.547 86.9311C101.542 86.9385 101.535 86.9447 101.528 86.9492C101.52 86.9538 101.511 86.9565 101.502 86.9573L101.427 86.9521ZM100.877 86.3681C100.855 86.3652 100.833 86.3667 100.812 86.3725C100.79 86.3784 100.771 86.3885 100.754 86.4022C100.701 86.4415 100.704 86.4729 100.714 86.4964C100.764 86.6378 101.149 86.8133 101.408 86.8473C101.293 86.6771 101.076 86.4048 100.884 86.3681H100.877Z" fill="#FF6D38"/>
<path d="M86.0394 92.5319C85.855 92.5487 85.6704 92.5025 85.5156 92.401C85.4817 92.3698 85.4557 92.3309 85.4398 92.2877C85.4239 92.2444 85.4184 92.198 85.424 92.1522C85.4257 92.1244 85.4346 92.0975 85.4497 92.0742C85.4649 92.0508 85.4858 92.0317 85.5104 92.0187C85.7723 91.872 86.6286 92.3094 86.7254 92.3617C86.7348 92.3666 86.7424 92.3742 86.7471 92.3837C86.7518 92.3931 86.7534 92.4037 86.7516 92.4141C86.7502 92.4243 86.7457 92.4338 86.7386 92.4413C86.7316 92.4488 86.7224 92.4539 86.7124 92.456C86.4909 92.5022 86.2656 92.5276 86.0394 92.5319ZM85.657 92.0894C85.6246 92.0875 85.5922 92.0938 85.5628 92.1077C85.5526 92.1129 85.5441 92.1208 85.5381 92.1305C85.5321 92.1402 85.5289 92.1513 85.5287 92.1627C85.5247 92.1924 85.5279 92.2226 85.5379 92.2509C85.5479 92.2791 85.5645 92.3045 85.5863 92.3251C85.7173 92.4429 86.0708 92.4612 86.5448 92.3827C86.2679 92.2346 85.9676 92.1354 85.657 92.0894Z" fill="#FF6D38"/>
<path d="M86.7062 92.4564H86.68C86.4181 92.3386 85.918 91.8777 85.9573 91.6342C85.9573 91.5765 86.007 91.5058 86.1484 91.4901C86.1991 91.4851 86.2503 91.4904 86.299 91.5057C86.3476 91.521 86.3926 91.546 86.4312 91.5792C86.6931 91.8044 86.7481 92.3805 86.7507 92.404C86.7522 92.4131 86.751 92.4224 86.7473 92.4307C86.7435 92.4391 86.7375 92.4462 86.7298 92.4512C86.7224 92.4547 86.7144 92.4565 86.7062 92.4564ZM86.1825 91.587H86.1563C86.0646 91.587 86.0568 91.6342 86.0568 91.6446C86.0306 91.7913 86.3762 92.1553 86.6355 92.3124C86.6174 92.0709 86.5261 91.8406 86.3736 91.6525C86.3245 91.6092 86.261 91.5858 86.1956 91.587H86.1825Z" fill="#FF6D38"/>
<path d="M88.3051 24.0233L87.873 24.0103C87.873 24.0103 88.1611 24.2721 88.3051 24.0233Z" fill="#263238"/>
<path d="M94.1467 43.6313L94.3693 44.4169C94.3981 44.4797 94.3274 44.54 94.2252 44.54H85.2643C85.1857 44.54 85.1202 44.5007 85.1176 44.4535L85.0391 43.6679C85.0391 43.613 85.0993 43.5684 85.1857 43.5684H94.0131C94.0388 43.5676 94.0642 43.5729 94.0875 43.5838C94.1107 43.5947 94.131 43.611 94.1467 43.6313Z" fill="#FF6D38"/>
<path opacity="0.2" d="M94.1467 43.6313L94.3693 44.4169C94.3981 44.4797 94.3274 44.54 94.2252 44.54H85.2643C85.1857 44.54 85.1202 44.5007 85.1176 44.4535L85.0391 43.6679C85.0391 43.613 85.0993 43.5684 85.1857 43.5684H94.0131C94.0388 43.5676 94.0642 43.5729 94.0875 43.5838C94.1107 43.5947 94.131 43.611 94.1467 43.6313Z" fill="#FAFAFA"/>
<path d="M92.9635 44.6169H93.2018C93.2489 44.6169 93.283 44.5933 93.2803 44.5645L93.1704 43.5511C93.1631 43.5332 93.1502 43.5182 93.1337 43.5083C93.1172 43.4984 93.0979 43.4941 93.0787 43.4961H92.843C92.7959 43.4961 92.7592 43.5223 92.7619 43.5511L92.8718 44.5645C92.8718 44.5933 92.9111 44.6169 92.9635 44.6169Z" fill="#263238"/>
<path d="M85.929 44.6169H86.1647C86.2118 44.6169 86.2458 44.5933 86.2432 44.5645L86.1332 43.5511C86.1332 43.5223 86.0887 43.4961 86.0416 43.4961H85.8059C85.7588 43.4961 85.7221 43.5223 85.7247 43.5511L85.8373 44.5645C85.84 44.5933 85.895 44.6169 85.929 44.6169Z" fill="#263238"/>
<path d="M89.4446 44.6169H89.6803C89.7274 44.6169 89.7615 44.5933 89.7589 44.5645L89.6489 43.5511C89.6489 43.5223 89.6044 43.4961 89.5572 43.4961H89.3215C89.2744 43.4961 89.2377 43.5223 89.2404 43.5511L89.353 44.5645C89.3556 44.5933 89.3975 44.6169 89.4446 44.6169Z" fill="#263238"/>
<path d="M90.4694 44.0584L88.584 42.7124L88.7594 44.8859C88.7594 44.8859 90.0164 45.4489 90.7208 44.9068L90.4694 44.0584Z" fill="#FFB573"/>
<path d="M96.5742 33.7227C96.7365 35.0032 96.8753 36.2889 97.0036 37.5747C97.1319 38.8604 97.2524 40.1462 97.3598 41.4319L97.3781 41.6728V41.8012C97.3781 41.8692 97.3781 41.9373 97.3781 42.0054C97.3801 42.2911 97.3277 42.5746 97.2236 42.8407C97.0286 43.3094 96.6998 43.7102 96.2783 43.9929C95.9481 44.2208 95.5887 44.4031 95.2099 44.535C94.8677 44.6562 94.5178 44.7542 94.1624 44.8283C92.8298 45.0827 91.4695 45.1602 90.1166 45.0587L90.1035 43.9746C90.7137 43.8934 91.3474 43.7965 91.9549 43.6735C92.5637 43.5597 93.1639 43.4039 93.7513 43.2074C94.2636 43.0583 94.7451 42.8188 95.1732 42.5003C95.2903 42.4168 95.3767 42.2972 95.4193 42.1599C95.426 42.1218 95.426 42.0828 95.4193 42.0447L95.3617 41.6545C95.1732 40.374 94.9977 39.0961 94.838 37.813C94.6783 36.5298 94.5159 35.2467 94.385 33.961L96.5742 33.7227Z" fill="#FFB573"/>
<path d="M95.5569 31.1405C96.4289 31.4024 97.479 34.4086 97.479 34.4086L94.0931 36.8282C94.0931 36.8282 92.8597 34.3222 93.2263 33.1936C93.606 32.0204 94.5618 30.8368 95.5569 31.1405Z" fill="#FF6D38"/>
<path d="M86.5487 39.1223C85.6618 38.2231 84.4741 37.683 83.2135 37.6058C81.9528 37.5286 80.7081 37.9196 79.718 38.7038C78.728 39.488 78.0624 40.6102 77.8491 41.8551C77.6357 43.1 77.8895 44.3798 78.5619 45.4489L78.3341 47.3291L80.2169 47.1039C81.2855 47.7759 82.5645 48.0298 83.8088 47.8169C85.0531 47.6041 86.175 46.9395 86.9595 45.9506C87.7441 44.9616 88.136 43.7179 88.0602 42.4579C87.9844 41.1978 87.4462 40.0101 86.5487 39.1223ZM81.4136 44.2548C81.1147 43.956 80.9112 43.5753 80.8288 43.1608C80.7463 42.7463 80.7887 42.3166 80.9504 41.9262C81.1121 41.5357 81.386 41.202 81.7374 40.9672C82.0888 40.7324 82.5019 40.6071 82.9245 40.6071C83.3472 40.6071 83.7603 40.7324 84.1117 40.9672C84.4631 41.202 84.737 41.5357 84.8987 41.9262C85.0604 42.3166 85.1027 42.7463 85.0203 43.1608C84.9378 43.5753 84.7343 43.956 84.4355 44.2548C84.2372 44.4536 84.0017 44.6112 83.7425 44.7188C83.4832 44.8264 83.2052 44.8818 82.9245 44.8818C82.6438 44.8818 82.3659 44.8264 82.1066 44.7188C81.8473 44.6112 81.6118 44.4536 81.4136 44.2548Z" fill="#FF6D38"/>
<path opacity="0.4" d="M86.5487 39.1223C85.6618 38.2231 84.4741 37.683 83.2135 37.6058C81.9528 37.5286 80.7081 37.9196 79.718 38.7038C78.728 39.488 78.0624 40.6102 77.8491 41.8551C77.6357 43.1 77.8895 44.3798 78.5619 45.4489L78.3341 47.3291L80.2169 47.1039C81.2855 47.7759 82.5645 48.0298 83.8088 47.8169C85.0531 47.6041 86.175 46.9395 86.9595 45.9506C87.7441 44.9616 88.136 43.7179 88.0602 42.4579C87.9844 41.1978 87.4462 40.0101 86.5487 39.1223ZM81.4136 44.2548C81.1147 43.956 80.9112 43.5753 80.8288 43.1608C80.7463 42.7463 80.7887 42.3166 80.9504 41.9262C81.1121 41.5357 81.386 41.202 81.7374 40.9672C82.0888 40.7324 82.5019 40.6071 82.9245 40.6071C83.3472 40.6071 83.7603 40.7324 84.1117 40.9672C84.4631 41.202 84.737 41.5357 84.8987 41.9262C85.0604 42.3166 85.1027 42.7463 85.0203 43.1608C84.9378 43.5753 84.7343 43.956 84.4355 44.2548C84.2372 44.4536 84.0017 44.6112 83.7425 44.7188C83.4832 44.8264 83.2052 44.8818 82.9245 44.8818C82.6438 44.8818 82.3659 44.8264 82.1066 44.7188C81.8473 44.6112 81.6118 44.4536 81.4136 44.2548Z" fill="black"/>
<path d="M86.7812 42.7936L87.0274 44.6057L88.7583 44.8859L88.5829 42.7124L86.7812 42.7936Z" fill="#FFB573"/>
<path d="M55.9157 90.5763C50.1045 90.5766 44.4237 88.8535 39.5917 85.6251C34.7598 82.3967 30.9937 77.8079 28.7698 72.439C26.5459 67.0702 25.9641 61.1624 27.0978 55.4628C28.2316 49.7633 31.0301 44.5279 35.1394 40.4189C35.1885 40.3702 35.2549 40.3428 35.324 40.3428C35.3932 40.3428 35.4596 40.3702 35.5087 40.4189L38.6196 43.5272C38.6689 43.5766 38.6966 43.6434 38.6966 43.7132C38.6966 43.7829 38.6689 43.8498 38.6196 43.8991C38.5703 43.9484 38.5034 43.9761 38.4337 43.9761C38.3639 43.9761 38.2971 43.9484 38.2477 43.8991L35.3253 40.9767C29.9941 46.4049 27.0224 53.7189 27.0567 61.3272C27.091 68.9355 30.1286 76.2224 35.5085 81.6024C40.8884 86.9823 48.1753 90.0199 55.7836 90.0542C63.3919 90.0885 70.7059 87.1167 76.1342 81.7855L73.2065 78.8579C73.1572 78.8086 73.1295 78.7417 73.1295 78.672C73.1295 78.6022 73.1572 78.5353 73.2065 78.486C73.2558 78.4367 73.3227 78.409 73.3925 78.409C73.4622 78.409 73.5291 78.4367 73.5784 78.486L76.6919 81.5996C76.7165 81.6239 76.736 81.6529 76.7493 81.6848C76.7626 81.7167 76.7694 81.7509 76.7694 81.7855C76.7694 81.8201 76.7626 81.8543 76.7493 81.8862C76.736 81.9181 76.7165 81.9471 76.6919 81.9714C73.9697 84.708 70.7317 86.8775 67.1655 88.3545C63.5993 89.8315 59.7756 90.5867 55.9157 90.5763Z" fill="#FF6D38"/>
<path d="M55.9161 86.1877C69.7189 86.1877 80.9084 74.9982 80.9084 61.1954C80.9084 47.3925 69.7189 36.2031 55.9161 36.2031C42.1132 36.2031 30.9238 47.3925 30.9238 61.1954C30.9238 74.9982 42.1132 86.1877 55.9161 86.1877Z" fill="#FF6D38"/>
<mask id="mask0_630_5021" style="mask-type:luminance" maskUnits="userSpaceOnUse" x="30" y="36" width="51" height="51">
<path d="M55.9141 86.1877C69.717 86.1877 80.9064 74.9982 80.9064 61.1954C80.9064 47.3925 69.717 36.2031 55.9141 36.2031C42.1113 36.2031 30.9219 47.3925 30.9219 61.1954C30.9219 74.9982 42.1113 86.1877 55.9141 86.1877Z" fill="white"/>
</mask>
<g mask="url(#mask0_630_5021)">
<g opacity="0.2">
<path d="M75.12 40.7061L77.3615 41.1355C77.1651 41.2848 77.029 41.5152 76.8247 41.6592C78.4273 41.6776 80.1216 41.4943 81.6666 41.9211C83.1095 42.3244 84.3481 41.8085 85.8224 41.9656C86.6865 42.0599 96.2262 42.7015 95.9512 43.9951C95.2783 43.8903 94.3984 43.5551 93.7647 43.9244L94.9012 44.4114C94.2989 44.744 92.6753 45.0268 92.6832 45.6003C92.6832 46.0114 93.2488 46.1947 93.4007 46.5613C93.5526 46.9279 93.4845 47.5093 93.5185 47.8942C93.0498 47.47 91.7719 46.7132 91.5938 46.145C91.4158 45.5767 92.4554 44.524 90.9287 44.7492C90.3709 44.8304 90.4285 45.3306 90.2845 45.3856C89.9284 45.5243 89.2659 45.4222 88.8783 45.4353C87.5926 45.4798 87.679 45.7234 87.1081 46.8337C87.8806 46.9725 88.8914 46.962 89.3968 47.47C89.9022 47.978 90.2924 49.6592 89.7267 50.175C89.4492 50.4369 89.0511 50.2327 88.8757 50.3714C88.7002 50.5102 88.3886 51.2461 88.4462 51.4477C88.6086 52.0159 90.3893 52.6523 88.7971 53.0713C88.5955 52.7387 88.1503 51.5629 87.7994 51.4241C87.3045 51.2277 86.7153 52.0055 86.6996 50.979L85.9873 51.5865C86.1566 51.7917 86.3802 51.9451 86.6327 52.0289C86.8851 52.1128 87.1561 52.1237 87.4145 52.0605C86.4063 52.3223 87.095 53.1079 87.3988 53.4667C87.8675 54.0166 87.8937 54.0323 87.9225 54.6477C87.9775 55.7789 87.2024 56.685 86.0397 56.9416C85.4557 57.0699 85.0315 56.8761 84.6544 57.2873C84.081 57.9079 84.6387 57.9576 84.9608 58.4735C85.186 58.8375 85.6443 59.5707 85.5684 60.0106C85.5029 60.3851 84.7828 60.846 84.4711 61.1393C84.0757 60.5606 83.7798 59.7907 83.0152 59.6047C82.9471 60.5606 82.8607 60.9272 83.5389 61.6682C83.7484 61.8961 84.0076 62.0113 84.1517 62.2574C84.2957 62.5036 84.259 63.0247 84.4135 63.3468C82.4129 62.2731 82.7245 60.2254 82.0384 58.3269C81.5828 59.4895 81.1402 57.9 80.9412 57.5413C80.4908 56.7557 80.0221 56.4938 79.1344 57.0175C78.7049 57.2663 77.5475 58.3661 77.3773 58.8165C76.9845 59.8483 77.6994 60.2646 76.8535 61.1733C76.2198 60.7255 76.0679 59.7435 75.8323 59.0784C75.5704 58.3504 75.1069 57.5413 75.1776 56.7478C74.7115 57.7455 74.0516 56.5095 73.6221 56.1455C72.9884 55.6218 72.5747 55.8522 71.7289 55.7737C71.3987 55.7118 71.0752 55.6189 70.7626 55.4961C70.9276 55.5406 70.3855 55.1766 70.4614 55.2081C70.3488 55.1583 70.1708 55.373 70.0137 55.3128C69.5187 55.119 68.5943 54.1187 68.157 54.3675C68.3456 54.7393 68.72 55.8025 69.1024 56.0146C69.6968 56.3446 70.1498 55.6716 70.6081 55.7527C70.9616 55.9916 71.2716 56.2891 71.5246 56.6326C71.6032 56.9756 71.5246 56.8526 71.2627 57.3004C70.9625 57.8791 70.4765 58.3402 69.8827 58.6097C69.4192 58.8715 68.343 59.5524 67.7878 59.5655C67.0651 59.5812 67.0782 59.2722 66.7692 58.6908C66.4602 58.1095 65.033 54.5927 64.3365 54.9907C64.8811 56.1691 65.3446 57.4391 66.0176 58.5573C66.2585 58.9579 66.942 60.262 67.3793 60.4401C67.903 60.6522 68.9033 60.1782 69.3616 60.0394C69.139 62.1344 67.4186 62.9199 66.413 64.533C65.5017 65.9837 67.1593 67.6754 66.0621 68.948C65.7688 69.2911 64.9544 69.4508 64.7528 69.841C64.5852 70.1631 64.9047 70.6554 64.8052 71.0141C64.6743 71.4829 64.3914 71.3127 64.1034 71.7264C63.8677 72.0616 63.9437 72.5434 63.6739 72.9258C63.4579 73.2799 63.1701 73.5849 62.8292 73.8212C62.4882 74.0575 62.1017 74.2199 61.6942 74.2979C60.4399 74.5807 60.3326 74.5415 59.9214 73.4442L58.6514 70.0767C58.3319 69.2256 58.4655 68.8878 58.7221 67.9818C58.9787 67.0757 59.073 66.8688 58.6933 66.0466C58.4114 65.5337 58.1638 65.0027 57.9522 64.4571C57.8134 63.991 57.9522 63.6453 57.892 63.1609C57.8396 62.7785 57.8553 62.5717 57.4992 62.26C57.4023 62.1736 57.0671 62.3517 56.9467 62.2889C56.8262 62.226 56.7136 61.8437 56.5643 61.8149C55.9385 61.697 55.0796 62.116 54.3568 62.1448C53.257 62.1867 52.5238 62.1684 51.801 61.4928C51.0783 60.8172 50.4472 60.0499 50.3896 59.0339C50.2639 56.8133 51.9163 56.0015 52.8328 54.2104C53.1365 53.6159 52.8328 53.3986 53.6053 52.9429C53.9955 52.7099 54.1028 52.7308 54.5925 52.6392C55.7552 52.4218 56.9781 52.3773 58.1539 52.2359C58.0517 53.121 57.9784 52.9875 58.6985 53.4222C59.272 53.7678 59.9371 54.0218 60.5316 54.3151C60.7332 53.0555 62.4196 53.9747 63.3466 54.0532C64.7659 54.1789 64.5171 53.5033 64.7554 52.3171C64.2003 52.3459 63.4697 52.5109 62.9407 52.3354C62.1551 52.0736 62.2756 51.741 62.1551 51.0104L61.2805 51.1701C61.3735 51.3454 61.4271 51.5388 61.4375 51.7369C61.4479 51.9351 61.4149 52.1331 61.3407 52.3171C61.0426 52.0461 60.7684 51.75 60.5211 51.432C60.4059 51.2434 60.3954 50.8768 60.2907 50.738C59.9136 50.2379 59.1934 49.8268 58.7038 49.4287C58.1172 50.2641 59.4894 50.9135 60.0864 51.2356C59.5182 51.906 59.3584 52.5763 58.544 51.8536C59.4605 51.9112 59.5627 51.6755 59.1123 51.0444C58.6331 50.3688 57.9994 49.997 57.3185 50.0363C57.2138 50.0363 57.1326 50.3217 57.0278 50.3322C56.9231 50.3426 56.6036 50.1201 56.5041 50.1698C56.4046 50.2196 56.2239 50.107 56.1349 50.1462C56.0458 50.1855 56.1794 50.505 56.1349 50.5469C55.7342 50.903 55.4409 51.4477 55.0874 51.8117C54.6187 52.3014 54.1159 52.7413 53.3984 52.3354C52.8747 52.029 52.6809 50.9868 53.0266 50.4395C53.4482 49.7718 54.3778 50.6045 54.9827 50.1541C55.5876 49.7037 54.7758 49.0124 54.459 48.6641C54.955 48.5169 55.4391 48.3321 55.9071 48.1116C56.4308 47.8104 56.2815 47.5721 56.7084 47.2579C57.0383 47.0117 57.2609 47.1636 57.4756 46.8834C57.7925 46.4723 57.0985 46.0376 58.0282 45.9957C57.5201 47.305 59.8114 47.1427 60.474 46.6739C60.6154 46.5744 60.4923 46.2419 60.5918 46.1004C60.7182 45.9749 60.8548 45.8601 61.0003 45.7574V45.4091H61.4455C61.744 45.1892 61.9483 45.5898 62.0949 45.0504C61.4507 45.1604 61.0815 45.396 60.6704 44.977C60.089 44.3852 60.5866 44.2438 61.1024 43.8301C60.1571 43.1545 58.7666 45.0661 59.924 45.2363C59.7067 45.4982 59.1227 46.5587 58.8007 46.6268C58.1591 46.7656 58.2769 45.8726 58.1905 45.4379C57.7611 45.6081 57.4704 45.8203 57.1797 45.6369C56.8445 45.4275 56.855 44.8671 56.9519 44.6942C57.1509 44.3407 58.0622 44.2203 58.4079 43.9453C58.7535 43.6704 58.9316 43.1021 59.3296 42.8481C60.6573 41.9787 63.2838 42.2982 64.4962 43.2278C63.9437 43.563 63.255 43.343 62.6474 43.2723C63.0036 43.7437 63.5011 44.3198 64.1479 44.1181C64.2291 44.092 64.381 43.6782 64.5328 43.5813C64.8811 43.3535 65.4808 43.2487 65.8788 43.1073C67.2117 42.6386 68.2356 42.6281 69.6392 42.8848C68.9557 41.0517 70.0608 42.0992 71.3308 41.8713C71.9384 41.764 72.4961 41.2848 73.0827 41.0989C73.7535 40.928 74.4338 40.7968 75.12 40.7061Z" fill="black"/>
<path d="M55.6269 47.8476L54.0977 48.1828C54.2652 47.9366 54.7209 47.4993 54.7471 47.227C54.7994 46.6482 54.4852 46.9494 54.3909 46.7346C53.9562 45.8391 54.1919 45.8103 55.0011 45.3599C55.1111 45.8024 55.1425 46.4256 55.3651 46.8368C55.5877 47.2479 56.258 47.4391 55.6269 47.8476Z" fill="black"/>
<path d="M54.2438 46.7796C53.7987 47.5442 54.1626 47.5364 53.123 47.704C53.3901 47.086 53.2383 46.3842 54.2438 46.7796Z" fill="black"/>
<path d="M67.4724 42.2832C65.6629 41.7359 68.5015 40.9398 68.8577 40.8508C68.1192 40.8508 67.0901 40.7015 66.5009 41.2802C65.8541 41.9218 66.6213 42.6445 67.4724 42.2832Z" fill="black"/>
<path d="M59.1374 40.8505L59.792 40.3268C59.2123 40.0877 58.5768 40.0178 57.959 40.1252L59.1374 40.8505Z" fill="black"/>
<path d="M59.5039 39.9316C59.9857 40.4554 60.6404 40.1935 61.282 40.1123C60.6875 40.0285 60.1036 39.9709 59.5039 39.9316Z" fill="black"/>
<path d="M68.8974 67.5947C68.3004 68.1342 67.5488 68.5846 67.3707 69.3466C67.2765 69.7446 66.9884 71.4101 67.3393 71.6667C68.1511 72.2638 68.4234 70.4176 68.5806 69.9829C68.9341 68.9957 69.1252 68.6081 68.8974 67.5947Z" fill="black"/>
<path d="M52.5146 43.3826C53.1168 43.5449 53.4049 43.3564 53.9496 43.1207C53.651 42.8562 51.7368 42.7384 52.5146 43.3826Z" fill="black"/>
<path d="M36.8473 62.0878C36.3419 62.9258 35.8679 63.6014 35.6951 64.5441C35.4647 65.801 35.7972 66.1153 36.4624 67.2491C36.641 67.641 36.867 68.0095 37.1354 68.3463C37.5229 68.7418 38.1828 68.8858 38.5887 69.2786C39.2015 69.8913 39.0601 70.4465 39.1124 71.3735C39.2381 73.3453 39.1569 75.325 39.8064 77.2078C40.1337 78.1584 40.3144 78.9466 40.969 79.6981C41.9065 80.777 42.2495 80.8084 43.661 80.8084C42.5114 79.8998 42.0322 79.761 42.006 78.3783C41.9798 77.1057 41.8725 76.7391 42.6581 75.7597C44.135 73.9267 46.1801 72.0936 46.9683 69.9071C47.2267 69.1895 47.4842 68.472 47.7408 67.7545C47.8901 67.3408 48.5657 66.2017 48.4557 65.7644C48.3012 65.1542 46.2273 64.696 45.4914 64.4184C45.1798 64.2979 44.5147 64.1775 44.2921 63.9392C43.8731 63.494 44.0145 62.5932 43.6217 62.1245C43.098 61.4934 40.9717 60.7628 40.1442 60.5219C39.5497 60.349 39.3324 60.3752 38.6515 60.4721C38.0519 60.5559 37.392 60.8701 36.8735 60.9408C36.4308 60.942 35.99 60.8812 35.5642 60.7602C34.8205 60.3726 35.1688 59.5975 35.2735 58.9926L33.8149 58.8224L34.6005 56.9893C33.9851 57.1648 33.8385 57.4109 33.3959 57.6387C33.1079 57.7854 32.4977 58.1337 32.1442 57.9504C31.3586 57.5419 31.4948 55.8554 31.9609 55.2427C32.3537 54.719 33.8097 54.3497 34.5612 54.2738C36.0539 54.1245 35.9936 54.7975 36.4074 55.955C36.9678 55.2453 36.3314 54.5016 36.6692 53.8339C36.9494 53.2944 38.0833 52.9409 38.5363 52.48C39.8168 51.1864 40.317 50.1494 42.1265 49.5131V49.8954L43.6793 49.2827H42.5716C42.6066 48.9781 42.7213 48.6881 42.9042 48.4421L41.7389 48.6149C42.7183 48.0912 44.224 48.2824 45.0567 47.7534C45.9418 47.1904 44.8394 45.7973 44.5147 45.0955L43.4463 45.7266C43.0456 45.1531 43.7893 45.0012 42.8545 44.6503C42.0689 44.3596 41.951 44.6503 41.5294 45.1321C41.1078 45.614 39.9582 47.8896 39.2512 47.8869C39.4581 47.0176 39.7147 46.9128 39.0286 46.5305C38.5782 46.2686 37.0751 46.3891 37.2925 45.483C37.4417 44.8624 40.0656 43.8333 40.7281 43.4562C40.6077 43.6762 40.5815 43.9407 40.4663 44.1632L41.7311 44.1449L40.9455 43.4562C41.9327 43.3331 42.1108 43.4038 42.5978 42.5763C41.9536 42.4507 41.5163 42.8382 41.0057 43.1498C41.1419 42.4428 40.351 42.6837 39.8326 42.6759L36.266 42.6209C35.3416 42.6209 34.3936 42.5318 33.4719 42.579C32.7832 42.6156 32.084 42.8775 31.4005 42.8723C29.6696 42.8723 28.4886 42.1259 26.7577 42.5292C24.9247 42.9534 23.8772 43.794 22.3401 44.8519C22.526 45.0693 22.7145 45.2866 22.9031 45.5014L21.5938 46.4205C22.9581 45.9622 24.8461 44.9174 26.2654 44.9881C27.0903 45.03 27.9701 45.2814 28.177 45.8889C28.3839 46.4964 28.2425 47.5727 28.067 48.1619C27.669 49.5026 25.6867 51.5164 26.6241 53.0352C26.7446 53.2316 27.1479 53.2551 27.2788 53.4646C27.5014 53.8182 27.3076 54.5907 27.4045 55.0018C27.525 55.5255 27.9282 56.6227 28.6065 56.5913C28.1639 55.591 27.8654 54.8892 27.7711 53.8208C28.5567 54.0381 29.3213 55.9157 29.4654 56.5599C29.5282 56.8427 29.3973 57.2407 29.5099 57.4659C29.6618 57.7697 30.7511 58.372 31.0444 58.495C31.4529 58.6652 31.9871 58.495 32.3747 58.6757C32.6627 58.804 33.1341 59.3382 33.4221 59.5425C33.6369 59.6918 33.9066 59.6603 34.0977 59.8279C34.2889 59.9955 34.3596 60.3778 34.5455 60.5847C34.8781 60.9408 35.4437 61.1608 35.8836 61.4096C36.1324 60.3228 36.7216 61.784 36.8473 62.0878Z" fill="black"/>
<path d="M35.2246 56.8242C36.2904 56.413 36.9189 57.6569 37.982 57.4553C36.8403 56.8634 36.4292 56.3659 35.2246 56.8242Z" fill="black"/>
<path d="M38.2272 57.5942C38.7509 57.6492 39.4737 57.5157 39.6255 58.0734C38.9944 58.186 38.4629 58.3694 37.8789 58.0158C38.0753 58.0158 38.2848 57.9373 38.4812 57.9294L38.2272 57.5942Z" fill="black"/>
<path d="M36.8203 57.9292C37.0101 57.9599 37.198 58.001 37.3833 58.0523C37.2062 58.1483 37.0168 58.2197 36.8203 58.2644V57.9292Z" fill="black"/>
<path d="M39.9062 57.9292C39.9717 58.0226 40.0675 58.0903 40.1774 58.1209C40.2872 58.1514 40.4043 58.1429 40.5085 58.0968C40.3226 58.0418 40.1105 57.9737 39.9062 57.9292Z" fill="black"/>
<path d="M44.9761 47.876L44.002 48.8082L45.691 49.2298C45.6674 48.9863 45.7224 48.5045 45.6019 48.2819C45.4579 48.0043 44.9211 48.5306 44.9761 47.876Z" fill="black"/>
<path d="M44.0005 43.1209L42.3324 43.8646C42.8169 44.0374 43.9036 44.6685 44.3933 44.5925C44.883 44.5166 45.6764 43.6341 46.0823 43.3304C45.5586 42.8407 44.8227 41.8482 44.1471 41.6099C43.6872 41.4706 43.2003 41.4455 42.7285 41.5367C42.2567 41.628 41.8142 41.8329 41.4395 42.1336C41.6228 42.2881 41.8899 42.6338 42.1203 42.7071C42.28 42.7595 42.5602 42.4662 42.7278 42.495C43.2018 42.5762 43.8434 42.6312 44.0005 43.1209Z" fill="black"/>
<path d="M43.4417 42.8906C42.698 43.1054 43.1484 43.3358 43.6564 43.053L43.4417 42.8906Z" fill="black"/>
<path d="M40.119 42.8906C38.9799 42.105 41.3131 41.2461 41.9835 41.2461C41.6404 41.4451 40.8758 41.7201 40.7004 42.0317C40.4725 42.4533 41.0277 43.1472 40.119 42.8906Z" fill="black"/>
<path d="M35.2663 42.8901C35.2663 42.5759 35.7115 42.0469 35.866 41.7615C35.4129 41.882 34.7452 42.3062 34.5566 41.7615C35.3789 41.4839 35.8241 41.264 36.6358 41.4158C37.5838 41.5939 37.8587 41.7746 38.8276 41.6096C38.6522 42.0548 38.4322 42.4109 38.5658 42.8901H35.2663Z" fill="black"/>
<path d="M36.5859 40.9207C37.7669 41.4811 38.419 41.3083 39.7283 41.159C39.2831 41.0595 38.6808 40.7243 38.2697 40.672C37.7774 40.6091 37.0861 40.85 36.5859 40.9207Z" fill="black"/>
<path d="M39.9664 41.4C39.7074 41.4464 39.4532 41.5165 39.207 41.6094C39.2841 41.7788 39.3894 41.9338 39.5186 42.0677L40.6054 41.4C40.3926 41.3882 40.1793 41.3882 39.9664 41.4Z" fill="black"/>
<path d="M40.3711 40.9603C40.8791 41.2902 42.3639 41.1357 42.974 41.1802C43.8146 41.2431 43.9796 41.1802 44.7337 40.8058C46.119 40.1092 47.5252 39.8788 49.0545 39.5436C47.465 39.5436 45.7472 39.3576 44.1734 39.5436C43.3197 39.6457 40.4261 39.9521 40.3711 40.9603Z" fill="black"/>
<path d="M46.5547 40.8112C47.919 40.3896 49.0476 40.0596 50.4826 39.9654C51.8812 39.8667 53.2865 39.9238 54.6725 40.1356C54.0257 40.7929 53.3029 41.8691 52.4702 42.2671C51.8679 42.5552 51.043 42.4295 50.4407 42.7176C49.9746 42.9428 49.5504 43.4691 49.1602 43.8043C48.1756 44.6606 47.7069 43.7074 47.8771 42.6914C47.9452 42.2724 48.4689 41.547 48.0028 41.1202C47.6702 40.8505 46.9265 41.128 46.5547 40.8112Z" fill="black"/>
</g>
</g>
<path d="M55.9142 94.0902C55.8448 94.0902 55.7782 94.0626 55.729 94.0135C55.6799 93.9644 55.6523 93.8978 55.6523 93.8283V90.3141C55.6523 90.2447 55.6799 90.178 55.729 90.1289C55.7782 90.0798 55.8448 90.0522 55.9142 90.0522C55.9837 90.0522 56.0503 90.0798 56.0994 90.1289C56.1485 90.178 56.1761 90.2447 56.1761 90.3141V93.8283C56.1761 93.8978 56.1485 93.9644 56.0994 94.0135C56.0503 94.0626 55.9837 94.0902 55.9142 94.0902Z" fill="#FF6D38"/>
<path d="M63.4208 93.8283C63.4208 94.2526 60.0611 94.5956 55.9158 94.5956C51.7705 94.5956 48.4082 94.2526 48.4082 93.8283C48.4082 93.4041 51.7705 92.3462 55.9158 92.3462C60.0611 92.3462 63.4208 93.4041 63.4208 93.8283Z" fill="#FF6D38"/>
</svg>
