<svg width="49" height="34" viewBox="0 0 49 34" fill="none" xmlns="http://www.w3.org/2000/svg">
<path opacity="0.3" d="M9.03867 29.1257C7.43867 29.1257 6.13867 27.8257 6.13867 26.2257C6.13867 24.6257 7.43867 23.3257 9.03867 23.3257C10.6387 23.3257 11.9387 24.6257 11.9387 26.2257C12.0387 27.8257 10.6387 29.1257 9.03867 29.1257ZM40.8387 29.1257C39.2387 29.1257 37.9387 27.8257 37.9387 26.2257C37.9387 24.6257 39.2387 23.3257 40.8387 23.3257C42.4387 23.3257 43.7387 24.6257 43.7387 26.2257C43.7387 27.8257 42.4387 29.1257 40.8387 29.1257Z" fill="#FE7A36"/>
<path opacity="0.3" d="M38.9387 14.8259C38.7387 15.6259 38.4387 16.1259 38.0387 16.5259H37.5387C37.1387 16.5259 36.8387 16.5259 36.5387 16.6259C36.2387 16.7259 35.9387 17.0259 35.6387 17.3259H34.8387C34.4387 17.3259 34.1387 17.3259 33.8387 17.4259C33.5387 17.5259 33.1387 17.8259 32.9387 18.1259L27.2387 26.3259H18.2387L19.9387 20.1259C20.2387 18.8259 19.4387 17.5259 18.1387 17.4259C14.3387 17.0259 11.2387 15.7259 8.63867 13.4259C7.63867 12.5259 6.73867 11.6259 5.93867 10.4259C5.83867 10.3259 5.73867 10.1259 5.63867 10.0259C5.43867 9.72588 5.23867 9.52588 5.13867 9.22588H13.1387C14.0387 9.22588 14.8387 9.82588 15.1387 10.6259C15.6387 11.9259 16.6387 13.0259 18.4387 13.2259C18.7387 13.2259 19.1387 13.3259 19.6387 13.3259H20.8387C21.5387 13.3259 22.1387 12.9259 22.5387 12.4259C23.1387 11.5259 23.8387 10.8259 24.7387 10.4259C25.7387 9.82588 26.9387 9.62588 28.0387 9.62588C29.6387 9.72588 31.2387 10.4259 32.5387 11.5259C30.3387 9.02588 29.6387 6.52588 30.1387 4.02588C32.0387 4.82588 33.8387 5.92588 35.2387 7.22588C35.7387 7.62588 36.1387 8.12588 36.5387 8.52588C36.4387 8.82588 36.4387 9.12588 36.4387 9.42588C36.4387 11.1259 37.5387 12.5259 39.1387 13.0259C39.1387 13.2259 39.2387 13.3259 39.2387 13.5259C39.0387 14.0259 38.9387 14.4259 38.9387 14.8259Z" fill="#FE7A36"/>
<path d="M18.9392 28.826C19.2392 28.826 19.4392 28.626 19.4392 28.326C19.4392 28.026 19.2392 27.826 18.9392 27.826H18.0392C17.7392 27.826 17.5392 28.026 17.5392 28.326C17.5392 28.626 17.7392 28.826 18.0392 28.826H18.9392ZM21.7392 28.826C22.0392 28.826 22.2392 28.626 22.2392 28.326C22.2392 28.026 22.0392 27.826 21.7392 27.826H20.8392C20.5392 27.826 20.3392 28.026 20.3392 28.326C20.3392 28.626 20.5392 28.826 20.8392 28.826H21.7392ZM24.5392 28.826C24.8392 28.826 25.0392 28.626 25.0392 28.326C25.0392 28.026 24.8392 27.826 24.5392 27.826H23.6392C23.3392 27.826 23.1392 28.026 23.1392 28.326C23.1392 28.626 23.3392 28.826 23.6392 28.826H24.5392ZM35.6392 1.92601C35.4392 1.82601 35.1392 1.82601 34.9392 2.12601C34.8392 2.32601 34.9392 2.62601 35.1392 2.82601C35.4392 3.02601 35.7392 3.12601 36.0392 3.32601C36.2392 3.42601 36.5392 3.42601 36.7392 3.12601C36.8392 2.92601 36.8392 2.62601 36.5392 2.42601C36.2392 2.22601 35.9392 2.02601 35.6392 1.92601ZM33.3392 0.726013C33.0392 0.626013 32.8392 0.726013 32.7392 1.02601C32.6392 1.32601 32.7392 1.52601 33.0392 1.62601C33.3392 1.72601 33.6392 1.92601 33.9392 2.02601C34.2392 2.12601 34.4392 2.02601 34.6392 1.82601C34.7392 1.52601 34.6392 1.32601 34.4392 1.12601C33.9392 1.02601 33.6392 0.926013 33.3392 0.726013ZM30.9392 0.026013C30.7392 -0.073987 30.4392 0.126013 30.3392 0.426013C30.2392 0.726013 30.4392 0.926013 30.7392 1.02601C31.0392 1.12601 31.4392 1.22601 31.7392 1.32601C32.0392 1.42601 32.2392 1.22601 32.3392 1.02601C32.4392 0.726013 32.2392 0.526013 32.0392 0.426013C31.7392 0.226013 31.3392 0.126013 30.9392 0.026013ZM2.73923 8.02601C2.63923 8.22601 2.73923 8.52601 2.93923 8.72601C3.13923 8.82601 3.43923 8.72601 3.63923 8.52601C3.93923 8.02601 4.43923 7.72601 5.03923 7.72601C5.33923 7.72601 5.53923 7.52601 5.53923 7.22601C5.53923 6.92601 5.33923 6.72601 5.03923 6.72601C4.03923 6.62601 3.23923 7.12601 2.73923 8.02601ZM12.3392 17.926C12.6392 18.026 12.8392 17.926 12.9392 17.626C13.0392 17.326 12.9392 17.126 12.6392 17.026C7.83923 15.126 2.23923 17.326 0.0392305 22.026C-0.0607695 22.326 0.0392305 22.526 0.23923 22.726C0.43923 22.826 0.73923 22.726 0.939231 22.526C2.93923 18.226 7.93923 16.226 12.3392 17.926Z" fill="#FE7A36"/>
<path d="M40.8395 18.6256C39.8395 18.6256 38.9395 18.8256 38.1395 19.1256L37.1395 16.9256C37.6395 16.9256 38.8395 17.1256 40.1395 16.6256C41.2395 16.6256 43.0395 17.4256 44.0395 17.8256C44.3395 17.9256 44.5395 17.8256 44.6395 17.5256C44.7395 17.2256 44.6395 17.0256 44.3395 16.9256C43.6395 16.6256 42.4395 16.1256 41.2395 15.8256C41.6395 15.4256 41.9395 14.8256 42.0395 14.1256C42.8395 10.6256 37.6395 3.82562 30.4395 2.02562C30.2395 1.92562 29.9395 2.12562 29.8395 2.32562C29.4395 3.22562 29.2395 4.02562 29.2395 4.92562L28.3395 4.12562C28.2395 4.02562 28.1395 4.02562 28.0395 4.02562L25.7395 3.62562C25.4395 3.62562 25.2395 3.82562 25.1395 4.02562C25.1395 4.32562 25.3395 4.52562 25.5395 4.62562L27.7395 4.92562L29.2395 6.22562C29.3395 7.42562 29.7395 8.62562 30.4395 9.72562C29.9395 9.52562 29.3395 9.32562 28.8395 9.22562V9.12562C28.8395 8.22562 28.0395 7.42562 27.1395 7.42562C26.2395 7.42562 25.4395 8.22562 25.4395 9.12562V9.42562C24.0395 9.82562 22.8395 10.8256 21.8395 12.1256C21.5395 12.5256 21.0395 12.8256 20.5395 12.8256H18.2395C16.7395 12.6256 15.8395 11.8256 15.3395 10.5256C14.9395 9.52562 14.0395 8.82562 12.9395 8.82562H4.93945C4.73945 8.82562 4.53945 8.92562 4.53945 9.12562C4.43945 9.32562 4.43945 9.52562 4.53945 9.62562C4.73945 9.92562 4.83945 10.1256 5.03945 10.4256H4.43945C3.53945 10.4256 2.93945 11.1256 2.93945 11.9256V13.4256C2.93945 14.3256 3.63945 14.9256 4.43945 14.9256H9.63945C12.0395 16.6256 14.8395 17.6256 17.9395 17.9256C18.4395 17.9256 18.8395 18.2256 19.0395 18.6256C19.3395 19.0256 19.4395 19.5256 19.2395 20.0256L17.7395 25.7256H16.6395C16.3395 21.7256 13.0395 18.6256 9.03945 18.6256C4.83945 18.6256 1.43945 22.0256 1.43945 26.2256C1.43945 30.4256 4.83945 33.8256 9.03945 33.8256C13.0395 33.8256 16.3395 30.7256 16.6395 26.7256H29.2395C29.4395 26.7256 29.5395 26.6256 29.6395 26.5256L35.8395 17.6256L36.1395 17.3256L37.1395 19.5256C34.7395 20.8256 33.1395 23.3256 33.1395 26.2256C33.1395 30.4256 36.5395 33.8256 40.7395 33.8256C44.9395 33.8256 48.3395 30.4256 48.3395 26.2256C48.3395 22.0256 45.0395 18.6256 40.8395 18.6256ZM37.7395 7.22562C39.2395 8.62562 40.7395 10.5256 41.1395 12.5256C40.7395 12.7256 40.3395 12.7256 39.9395 12.7256C38.1395 12.7256 36.7395 11.3256 36.7395 9.52562C36.7395 8.62562 37.0395 7.82562 37.7395 7.22562ZM26.4395 9.22562C26.4395 8.82562 26.7395 8.52562 27.1395 8.52562C27.5395 8.52562 27.8395 8.82562 27.8395 9.22562C27.4395 9.12562 26.7395 9.22562 26.4395 9.22562ZM8.33945 13.9256H4.43945C4.13945 13.9256 3.93945 13.7256 3.93945 13.4256V11.9256C3.93945 11.6256 4.13945 11.4256 4.43945 11.4256H5.83945C6.53945 12.2256 7.33945 13.0256 8.33945 13.9256ZM9.03945 32.8256C5.43945 32.8256 2.43945 29.8256 2.43945 26.2256C2.43945 22.6256 5.43945 19.6256 9.03945 19.6256C12.5395 19.6256 15.3395 22.3256 15.6395 25.7256H12.4395C12.2395 24.0256 10.7395 22.8256 9.03945 22.8256C7.13945 22.8256 5.63945 24.3256 5.63945 26.2256C5.63945 28.1256 7.13945 29.6256 9.03945 29.6256C10.7395 29.6256 12.1395 28.3256 12.4395 26.7256H15.6395C15.4395 30.1256 12.5395 32.8256 9.03945 32.8256ZM9.03945 26.7256H11.4395C11.2395 27.8256 10.2395 28.6256 9.03945 28.6256C7.73945 28.6256 6.63945 27.5256 6.63945 26.2256C6.63945 24.9256 7.73945 23.8256 9.03945 23.8256C10.2395 23.8256 11.1395 24.6256 11.4395 25.7256H9.03945C8.73945 25.7256 8.53945 25.9256 8.53945 26.2256C8.53945 26.5256 8.73945 26.7256 9.03945 26.7256ZM35.1395 17.0256L29.0395 25.7256H18.7395L20.2395 20.2256C20.4395 19.4256 20.3395 18.6256 19.8395 18.0256C19.4395 17.4256 18.7395 17.0256 17.9395 16.9256C12.7395 16.4256 8.83945 14.0256 5.83945 9.82562H12.8395C13.5395 9.82562 14.1395 10.2256 14.3395 10.9256C14.9395 12.6256 16.2395 13.6256 18.0395 13.9256C18.4395 14.0256 19.3395 14.0256 20.5395 13.9256C21.3395 13.9256 22.1395 13.5256 22.6395 12.8256C24.8395 9.62562 28.9395 9.42562 31.8395 12.0256C32.0395 12.2256 32.3395 12.2256 32.5395 12.0256C32.7395 11.8256 32.7395 11.5256 32.5395 11.3256C30.2395 8.62562 29.5395 5.92562 30.5395 3.22562C32.7395 3.82562 34.9395 5.02562 36.8395 6.62562C36.0395 7.42562 35.5395 8.52562 35.5395 9.62562C35.5395 11.9256 37.4395 13.8256 39.7395 13.8256C40.1395 13.8256 40.6395 13.7256 41.0395 13.6256C40.8395 17.7256 36.8395 14.5256 35.1395 17.0256ZM40.8395 32.8256C37.2395 32.8256 34.2395 29.8256 34.2395 26.2256C34.2395 23.7256 35.6395 21.6256 37.6395 20.4256L38.9395 23.3256C38.0395 23.9256 37.3395 25.0256 37.3395 26.2256C37.3395 28.1256 38.8395 29.6256 40.7395 29.6256C42.6395 29.6256 44.1395 28.1256 44.1395 26.2256C44.1395 24.3256 42.6395 22.8256 40.7395 22.8256C40.4395 22.8256 40.0395 22.9256 39.7395 23.0256L38.4395 20.1256C39.1395 19.8256 39.9395 19.7256 40.7395 19.7256C44.3395 19.7256 47.3395 22.7256 47.3395 26.3256C47.4395 29.9256 44.4395 32.8256 40.8395 32.8256ZM41.3395 26.0256L40.3395 23.8256C40.5395 23.8256 40.7395 23.7256 40.8395 23.7256C42.1395 23.7256 43.2395 24.8256 43.2395 26.1256C43.2395 27.4256 42.1395 28.5256 40.8395 28.5256C39.5395 28.5256 38.4395 27.4256 38.4395 26.1256C38.4395 25.3256 38.8395 24.6256 39.4395 24.2256L40.4395 26.3256C40.5395 26.6256 40.8395 26.7256 41.1395 26.5256C41.3395 26.6256 41.4395 26.3256 41.3395 26.0256Z" fill="black"/>
<path d="M22.9395 17.2256C22.6395 17.2256 22.4395 17.4256 22.4395 17.7256V21.8256C22.4395 22.1256 22.6395 22.3256 22.9395 22.3256C23.2395 22.3256 23.4395 22.1256 23.4395 21.8256V17.7256C23.4395 17.5256 23.2395 17.2256 22.9395 17.2256ZM25.6395 17.2256C25.3395 17.2256 25.1395 17.4256 25.1395 17.7256V21.8256C25.1395 22.1256 25.3395 22.3256 25.6395 22.3256C25.9395 22.3256 26.1395 22.1256 26.1395 21.8256V17.7256C26.1395 17.5256 25.8395 17.2256 25.6395 17.2256ZM28.2395 17.2256C27.9395 17.2256 27.7395 17.4256 27.7395 17.7256V21.8256C27.7395 22.1256 27.9395 22.3256 28.2395 22.3256C28.5395 22.3256 28.7395 22.1256 28.7395 21.8256V17.7256C28.7395 17.5256 28.5395 17.2256 28.2395 17.2256Z" fill="black"/>
</svg>
