<svg width="44" height="40" viewBox="0 0 44 40" fill="none" xmlns="http://www.w3.org/2000/svg">
<path opacity="0.3" d="M32.6698 9.41269C32.6698 11.1241 32.2031 12.7577 31.3474 14.1579C31.0362 14.6247 30.725 15.0914 30.4139 15.4804C29.636 16.4139 28.7025 17.114 27.6134 17.6585C27.1467 17.8919 26.6799 18.1253 26.1354 18.2809C25.2797 18.592 24.3462 18.7476 23.3349 18.7476C18.2007 18.7476 14 14.5469 14 9.41269C14 8.40141 14.1556 7.46792 14.4667 6.53443C14.6223 5.9899 14.8557 5.52315 15.0891 5.05641C16.6449 2.10035 19.7565 0 23.4127 0C28.4691 0.0777909 32.6698 4.2785 32.6698 9.41269Z" fill="#FE7A36"/>
<path d="M10.6575 39.1951H7.15694C5.75671 39.1951 4.58984 38.0282 4.58984 36.628V32.1939C4.58984 31.7272 4.90101 31.416 5.36775 31.416H12.3689C12.8357 31.416 13.1468 31.7272 13.1468 32.1939V36.628C13.2246 38.0282 12.0578 39.1951 10.6575 39.1951ZM6.22345 32.9718V36.628C6.22345 37.1725 6.6902 37.6393 7.23473 37.6393H10.7353C11.2799 37.6393 11.7466 37.1725 11.7466 36.628V32.9718H6.22345Z" fill="black"/>
<path d="M29.2496 32.972H27.2271C26.9937 32.972 26.8381 32.8942 26.6825 32.7386L26.138 32.1941H17.4254L16.8809 32.7386C16.7253 32.8942 16.5697 32.972 16.3363 32.972H5.44562C3.73422 32.972 2.33398 31.5718 2.33398 29.8604V22.3924C2.33398 21.5367 2.64515 20.681 3.18968 19.9809L5.52341 17.0249L8.32388 8.70125C9.10179 6.44531 11.1244 4.96729 13.4581 4.96729H30.1053C32.439 4.96729 34.5394 6.44531 35.2395 8.70125L38.04 17.0249L40.3737 19.9809C40.7627 20.4477 41.0738 21.07 41.1516 21.6923C41.2294 21.9257 41.0738 22.2369 40.9183 22.3924C40.6849 22.548 40.4515 22.6258 40.2181 22.548L35.7841 21.3034L29.5608 23.0926V29.1602C29.5608 30.0937 29.7164 31.0272 30.0275 31.8829C30.1053 32.1163 30.0275 32.3497 29.9497 32.583C29.872 32.8164 29.483 32.972 29.2496 32.972ZM27.5382 31.4162H28.2383C28.0828 30.7161 28.005 29.9382 28.005 29.1602V22.4702C28.005 22.1591 28.2383 21.8479 28.5495 21.6923L35.5507 19.6698C35.7063 19.592 35.8618 19.592 35.9396 19.6698L38.8179 20.5255L36.6398 17.8028C36.562 17.725 36.562 17.6472 36.4842 17.5694L33.6837 9.0902C33.1392 7.53438 31.6611 6.44531 30.0275 6.44531H13.4581C11.7467 6.44531 10.2687 7.53438 9.80191 9.0902L7.00144 17.5694C7.00144 17.6472 6.92365 17.725 6.84585 17.8028L4.43434 20.8366C4.04538 21.3812 3.8898 21.8479 3.8898 22.3924V29.8604C3.8898 30.7161 4.58992 31.4162 5.44562 31.4162H16.0252L16.5697 30.8716C16.7253 30.7161 16.8809 30.6383 17.1142 30.6383H26.4492C26.6825 30.6383 26.8381 30.7161 26.9937 30.8716L27.5382 31.4162Z" fill="black"/>
<path d="M12.4465 29.0826H7.77904C6.45659 29.0826 5.44531 28.0714 5.44531 26.7489V25.1931C5.44531 23.8707 6.45659 22.8594 7.77904 22.8594H8.55695H8.63474L12.6799 23.4817C13.8467 23.6373 14.7024 24.6486 14.7024 25.8154V26.7489C14.7802 28.0714 13.7689 29.0826 12.4465 29.0826ZM7.77904 24.4152C7.31229 24.4152 7.00113 24.7264 7.00113 25.1931V26.7489C7.00113 27.2157 7.31229 27.5268 7.77904 27.5268H12.4465C12.9132 27.5268 13.2244 27.2157 13.2244 26.7489V25.8154C13.2244 25.4265 12.9132 25.1153 12.5243 25.0375L8.47916 24.4152H7.77904ZM25.8265 29.0826H17.7363C16.9584 29.0826 16.336 28.5381 16.1805 27.838L15.7137 25.5043C15.6359 25.0375 15.7137 24.5708 16.0249 24.1818C16.336 23.7929 16.725 23.6373 17.1917 23.6373H26.2155C26.6822 23.6373 27.149 23.8707 27.3823 24.1818C27.6935 24.5708 27.7713 25.0375 27.6935 25.5043L27.2268 27.838C27.2268 28.5381 26.5266 29.0826 25.8265 29.0826ZM17.2695 25.1931L17.7363 27.5268H25.8265L26.2933 25.1931H17.2695Z" fill="#FE7A36"/>
<path d="M31.8943 20.5253H11.6686C10.6573 20.5253 9.80165 20.0586 9.17932 19.2807C8.557 18.5027 8.4792 17.4137 8.79037 16.4802L11.3575 9.55679C11.6686 8.6233 12.5243 8.00098 13.5356 8.00098H29.9495C30.9608 8.00098 31.8165 8.6233 32.1276 9.55679L34.6947 16.4024C35.0837 17.4915 34.8503 18.7361 34.0724 19.514C33.5279 20.2141 32.75 20.5253 31.8943 20.5253ZM13.5356 9.63458C13.2244 9.63458 12.9133 9.86796 12.8355 10.1791L10.2684 17.1025C10.1128 17.5693 10.1128 18.1138 10.424 18.425C10.7351 18.8139 11.2019 19.0473 11.6686 19.0473H31.8943C32.2832 19.0473 32.6722 18.8917 32.9833 18.5805C33.3723 18.1916 33.4501 17.647 33.2167 17.1025L30.6496 10.2569C30.5718 9.86796 30.3384 9.63458 30.0273 9.63458H13.5356ZM40.8402 18.1916H39.2844C37.8064 18.1916 36.5617 16.9469 36.5617 15.4689C36.5617 13.9909 37.8064 12.7462 39.2844 12.7462H40.8402C42.3182 12.7462 43.5629 13.9909 43.5629 15.4689C43.5629 16.9469 42.3182 18.1916 40.8402 18.1916ZM39.2844 14.302C38.6621 14.302 38.1175 14.8466 38.1175 15.4689C38.1175 16.0912 38.6621 16.6358 39.2844 16.6358H40.8402C41.4625 16.6358 42.0071 16.0912 42.0071 15.4689C42.0071 14.8466 41.4625 14.302 40.8402 14.302H39.2844ZM4.2785 18.1916H2.72268C1.24465 18.1916 0 16.9469 0 15.4689C0 13.9909 1.24465 12.7462 2.72268 12.7462H4.2785C5.75652 12.7462 7.00118 13.9909 7.00118 15.4689C7.00118 16.9469 5.75652 18.1916 4.2785 18.1916ZM2.72268 14.302C2.10035 14.302 1.55582 14.8466 1.55582 15.4689C1.55582 16.0912 2.10035 16.6358 2.72268 16.6358H4.2785C4.90082 16.6358 5.44536 16.0912 5.44536 15.4689C5.44536 14.8466 4.90082 14.302 4.2785 14.302H2.72268Z" fill="black"/>
<path d="M35.0059 32.1939C34.7725 32.1939 34.6169 32.1161 34.4613 31.9605L32.5166 30.0158C32.2054 29.7046 32.2054 29.2378 32.5166 28.9267C32.8277 28.6155 33.2945 28.6155 33.6056 28.9267L35.0059 30.3269L38.3509 26.9819C38.6621 26.6707 39.1288 26.6707 39.44 26.9819C39.7511 27.2931 39.7511 27.7598 39.44 28.071L35.5504 31.9605C35.3948 32.1161 35.2393 32.1939 35.0059 32.1939Z" fill="#FE7A36"/>
<path d="M35.784 39.1952C35.7062 39.1952 35.6284 39.1952 35.5506 39.1952C34.2282 38.8062 32.9835 38.1839 31.8944 37.3282C31.4277 36.9392 30.9609 36.4725 30.4942 36.0058C30.0274 35.4612 29.6385 34.9167 29.3273 34.2944C29.0162 33.672 28.705 33.1275 28.5494 32.5052C28.1605 31.4161 28.0049 30.327 28.0049 29.1602V22.4701C28.0049 22.159 28.2383 21.8478 28.5494 21.6922L35.5506 19.6697C35.7062 19.5919 35.8618 19.5919 35.9396 19.6697L42.9407 21.6922C43.2519 21.77 43.4853 22.0812 43.4853 22.4701V29.1602C43.4853 32.8941 41.4627 36.3947 38.1955 38.1839C37.4954 38.5729 36.7175 38.884 35.9396 39.1174C35.9396 39.1952 35.8618 39.1952 35.784 39.1952ZM29.5607 23.0925V29.1602C29.5607 30.0936 29.7163 31.0271 30.0274 31.8828C30.183 32.4274 30.4164 32.8941 30.7276 33.4387C31.0387 33.9832 31.3499 34.4499 31.7388 34.9167C32.1278 35.3834 32.5168 35.7724 32.9057 36.0835C33.7614 36.7837 34.7727 37.3282 35.784 37.6394C36.4063 37.4838 36.9508 37.1726 37.4954 36.9392C40.2958 35.3834 42.0072 32.4274 42.0072 29.2379V23.1703L35.784 21.3033L29.5607 23.0925Z" fill="black"/>
</svg>
