<svg width="49" height="49" viewBox="0 0 49 49" fill="none" xmlns="http://www.w3.org/2000/svg">
<path opacity="0.3" d="M42.3998 12.3999H10.7998V14.7999L13.3998 16.0999C14.1998 16.4999 14.6998 17.1999 14.8998 17.9999H36.7998C37.8998 17.9999 38.7998 18.8999 38.7998 19.9999V30.5999H42.4998C43.5998 30.5999 44.4998 29.6999 44.4998 28.5999V14.3999C44.2998 13.2999 43.4998 12.3999 42.3998 12.3999Z" fill="#FE7A36"/>
<path d="M40.0002 32V30.5H12.9002V21.9C12.9002 20.9 12.2002 20.1 11.2002 20H7.0002C6.3002 20 5.7002 20.4 5.3002 20.9L3.0002 24.8C2.8002 25.1 2.7002 25.5 2.7002 25.8V32H40.0002ZM4.7002 26.1C4.7002 25.9 4.7002 25.7 4.8002 25.6L6.7002 22.4C6.9002 22.1 7.2002 21.9 7.5002 21.9H10.0002C10.5002 21.9 11.0002 22.3 11.0002 22.9V25.2C11.0002 25.6 10.7002 26 10.3002 26.1L6.0002 27.5C5.4002 27.7 4.7002 27.2 4.7002 26.6V26.1Z" fill="#FE7A36"/>
<path d="M46.3002 14.9C46.6002 14.9 46.8002 14.7 46.8002 14.4C46.8002 12 44.8002 10 42.4002 10C42.1002 10 41.9002 10.2 41.9002 10.5C41.9002 10.8 42.1002 11 42.4002 11C44.3002 11 45.8002 12.5 45.8002 14.4C45.8002 14.7 46.0002 14.9 46.3002 14.9ZM40.5002 11C40.8002 11 41.0002 10.8 41.0002 10.5C41.0002 10.2 40.8002 10 40.5002 10H39.5002C39.2002 10 39.0002 10.2 39.0002 10.5C39.0002 10.8 39.2002 11 39.5002 11H40.5002ZM37.8002 11C38.1002 11 38.3002 10.8 38.3002 10.5C38.3002 10.2 38.1002 10 37.8002 10H36.8002C36.5002 10 36.3002 10.2 36.3002 10.5C36.3002 10.8 36.5002 11 36.8002 11H37.8002ZM35.2002 11C35.5002 11 35.7002 10.8 35.7002 10.5C35.7002 10.2 35.5002 10 35.2002 10H34.2002C33.9002 10 33.7002 10.2 33.7002 10.5C33.7002 10.8 33.9002 11 34.2002 11H35.2002Z" fill="#FF6D38"/>
<path d="M37.6996 35.6999H40.6996C41.4996 35.6999 42.1996 34.9999 42.1996 34.1999V30.9999H42.3996C43.7996 30.9999 44.8996 29.8999 44.8996 28.4999V14.3999C44.8996 12.9999 43.7996 11.8999 42.3996 11.8999H10.7996C10.4996 11.8999 10.2996 12.0999 10.2996 12.3999V14.7999C10.2996 14.9999 10.3996 15.1999 10.5996 15.1999C12.0996 16.1999 14.4996 16.4999 14.4996 18.6999V29.9999H13.3996V21.8999C13.3996 20.4999 12.2996 19.3999 10.8996 19.3999H6.99961C6.09961 19.3999 5.29961 19.8999 4.89961 20.5999L2.49961 24.4999C2.29961 24.8999 2.09961 25.2999 2.09961 25.7999V34.1999C2.09961 34.9999 2.79961 35.6999 3.59961 35.6999H5.59961C5.79961 37.5999 7.29961 38.9999 9.09961 38.9999C10.8996 38.9999 12.4996 37.4999 12.4996 35.6999H30.6996C30.7996 37.4999 32.2996 38.9999 34.0996 38.9999C35.8996 38.9999 37.5996 37.5999 37.6996 35.6999ZM15.4996 28.0999H18.0996C18.3996 28.0999 18.5996 27.8999 18.5996 27.5999C18.5996 27.2999 18.3996 27.0999 18.0996 27.0999H15.4996V18.7999C15.4996 15.8999 12.3996 15.2999 11.2996 14.5999V12.9999H42.3996C43.1996 12.9999 43.8996 13.6999 43.8996 14.4999V27.1999H24.8996C24.5996 27.1999 24.3996 27.3999 24.3996 27.6999C24.3996 27.9999 24.5996 28.1999 24.8996 28.1999H43.7996V28.6999C43.7996 29.4999 43.0996 30.1999 42.2996 30.1999H15.4996V28.0999ZM3.19961 34.1999V25.7999C3.19961 25.4999 3.29961 25.2999 3.39961 24.9999L5.79961 21.0999C5.99961 20.6999 6.49961 20.4999 6.99961 20.4999H10.8996C11.6996 20.4999 12.3996 21.1999 12.3996 21.9999V30.5999C12.3996 30.8999 12.5996 31.0999 12.8996 31.0999H41.1996V34.2999C41.1996 34.5999 40.9996 34.7999 40.6996 34.7999H37.5996C37.1996 33.1999 35.6996 32.0999 34.1996 32.0999C32.5996 32.0999 31.1996 33.1999 30.7996 34.7999H12.4996C11.6996 31.3999 6.69961 31.1999 5.79961 34.7999H3.69961C3.39961 34.6999 3.19961 34.4999 3.19961 34.1999ZM9.09961 37.9999C7.69961 37.9999 6.49961 36.7999 6.69961 35.1999C7.09961 32.2999 11.0996 32.3999 11.5996 35.0999C11.7996 36.6999 10.5996 37.9999 9.09961 37.9999ZM31.7996 35.5999C31.7996 34.2999 32.8996 33.0999 34.2996 33.0999C35.4996 33.0999 36.5996 33.9999 36.6996 35.1999C36.8996 36.7999 35.6996 37.9999 34.2996 37.9999C32.8996 37.9999 31.7996 36.8999 31.7996 35.5999Z" fill="black"/>
<path d="M11.4002 25.8999V21.8999C11.4002 21.5999 11.2002 21.3999 10.9002 21.3999H7.0002C6.8002 21.3999 6.7002 21.4999 6.6002 21.5999L4.4002 25.2999C4.3002 25.4999 4.2002 25.7999 4.2002 26.0999V27.9999C4.2002 28.1999 4.3002 28.2999 4.4002 28.3999C4.5002 28.4999 4.6002 28.4999 4.7002 28.4999H4.9002L11.2002 26.3999C11.3002 26.2999 11.4002 26.0999 11.4002 25.8999ZM10.4002 25.4999L5.1002 27.1999V25.9999C5.1002 25.8999 5.1002 25.7999 5.2002 25.7999L7.3002 22.3999H10.4002V25.4999ZM10.9002 27.9999H9.9002C9.60019 27.9999 9.4002 28.1999 9.4002 28.4999C9.4002 28.7999 9.60019 28.9999 9.9002 28.9999H10.9002C11.2002 28.9999 11.4002 28.7999 11.4002 28.4999C11.4002 28.1999 11.2002 27.9999 10.9002 27.9999ZM22.6002 27.0999H20.5002C20.2002 27.0999 20.0002 27.2999 20.0002 27.5999C20.0002 27.8999 20.2002 28.0999 20.5002 28.0999H22.6002C22.9002 28.0999 23.1002 27.8999 23.1002 27.5999C23.1002 27.2999 22.8002 27.0999 22.6002 27.0999ZM21.3002 36.6999C21.0002 36.6999 20.8002 36.8999 20.8002 37.1999C20.8002 37.4999 21.0002 37.6999 21.3002 37.6999H22.3002C22.6002 37.6999 22.8002 37.4999 22.8002 37.1999C22.8002 36.8999 22.6002 36.6999 22.3002 36.6999H21.3002ZM18.7002 36.6999C18.4002 36.6999 18.2002 36.8999 18.2002 37.1999C18.2002 37.4999 18.4002 37.6999 18.7002 37.6999H19.7002C20.0002 37.6999 20.2002 37.4999 20.2002 37.1999C20.2002 36.8999 20.0002 36.6999 19.7002 36.6999H18.7002ZM16.1002 36.6999C15.8002 36.6999 15.6002 36.8999 15.6002 37.1999C15.6002 37.4999 15.8002 37.6999 16.1002 37.6999H17.1002C17.4002 37.6999 17.6002 37.4999 17.6002 37.1999C17.6002 36.8999 17.4002 36.6999 17.1002 36.6999H16.1002Z" fill="black"/>
</svg>
