<svg width="235" height="235" viewBox="0 0 235 235" fill="none" xmlns="http://www.w3.org/2000/svg">
<path d="M211.453 187.291H195.887V187.408H211.453V187.291Z" fill="#EBEBEB"/>
<path d="M155.673 188.569H151.589V188.686H155.673V188.569Z" fill="#EBEBEB"/>
<path d="M195.417 182.929H186.397V183.046H195.417V182.929Z" fill="#EBEBEB"/>
<path d="M44.9556 183.719H24.6562V183.836H44.9556V183.719Z" fill="#EBEBEB"/>
<path d="M52.1184 183.719H49.1433V183.836H52.1184V183.719Z" fill="#EBEBEB"/>
<path d="M105.821 185.702H61.791V185.819H105.821V185.702Z" fill="#EBEBEB"/>
<path d="M112.048 158.766H21.2911C20.5794 158.766 19.8968 158.483 19.3935 157.98C18.8902 157.477 18.6074 156.794 18.6074 156.082V28.5103C18.6136 27.8026 18.8991 27.126 19.4017 26.6278C19.9043 26.1296 20.5834 25.8501 21.2911 25.8501H112.048C112.401 25.8501 112.75 25.9195 113.075 26.0544C113.401 26.1893 113.697 26.3869 113.946 26.6361C114.195 26.8853 114.393 27.1812 114.528 27.5068C114.662 27.8324 114.732 28.1814 114.732 28.5338V156.082C114.732 156.435 114.662 156.784 114.528 157.109C114.393 157.435 114.195 157.731 113.946 157.98C113.697 158.229 113.401 158.427 113.075 158.562C112.75 158.697 112.401 158.766 112.048 158.766ZM21.2911 25.9441C20.6109 25.9453 19.9589 26.2161 19.4779 26.6971C18.9969 27.1781 18.7262 27.8301 18.7249 28.5103V156.082C18.7262 156.763 18.9969 157.415 19.4779 157.896C19.9589 158.377 20.6109 158.647 21.2911 158.649H112.048C112.728 158.647 113.38 158.377 113.861 157.896C114.342 157.415 114.613 156.763 114.614 156.082V28.5103C114.613 27.8301 114.342 27.1781 113.861 26.6971C113.38 26.2161 112.728 25.9453 112.048 25.9441H21.2911Z" fill="#EBEBEB"/>
<path d="M213.709 158.766H122.952C122.24 158.766 121.558 158.483 121.054 157.98C120.551 157.477 120.268 156.794 120.268 156.082V28.5103C120.275 27.8026 120.56 27.126 121.063 26.6278C121.565 26.1296 122.244 25.8501 122.952 25.8501H213.709C214.421 25.8501 215.103 26.1328 215.607 26.6361C216.11 27.1394 216.393 27.822 216.393 28.5338V156.082C216.393 156.794 216.11 157.477 215.607 157.98C215.103 158.483 214.421 158.766 213.709 158.766ZM122.952 25.9441C122.272 25.9453 121.62 26.2161 121.139 26.6971C120.658 27.1781 120.387 27.8301 120.386 28.5103V156.082C120.387 156.763 120.658 157.415 121.139 157.896C121.62 158.377 122.272 158.647 122.952 158.649H213.709C214.389 158.647 215.041 158.377 215.522 157.896C216.003 157.415 216.274 156.763 216.275 156.082V28.5103C216.274 27.8301 216.003 27.1781 215.522 26.6971C215.041 26.2161 214.389 25.9453 213.709 25.9441H122.952Z" fill="#EBEBEB"/>
<path d="M235 179.728H0V179.846H235V179.728Z" fill="#EBEBEB"/>
<path d="M42.7137 120.851L35.5321 118.633C35.4282 118.595 35.3409 118.522 35.2856 118.426C35.2303 118.331 35.2104 118.219 35.2295 118.11C35.2485 118.001 35.3053 117.902 35.3899 117.831C35.4745 117.76 35.5814 117.721 35.6919 117.721L43.9733 118.158C42.0181 114.76 40.8619 112.636 39.5459 109.975C39.5021 109.875 39.4949 109.762 39.5256 109.656C39.5563 109.551 39.623 109.46 39.714 109.398C39.805 109.337 39.9146 109.309 40.0238 109.32C40.133 109.331 40.235 109.38 40.312 109.458C42.0792 111.446 43.5597 113.059 45.952 115.601C46.516 112.311 47.174 109.28 47.9918 106.239C48.013 106.114 48.0828 106.003 48.1859 105.93C48.289 105.857 48.417 105.828 48.5417 105.849C48.6663 105.87 48.7774 105.94 48.8506 106.043C48.9238 106.146 48.953 106.274 48.9318 106.399C48.7121 108.849 48.632 111.309 48.6921 113.768L48.9177 113.848C50.9042 111.58 52.9894 109.4 55.1734 107.31C55.2613 107.242 55.3708 107.206 55.4823 107.211C55.5939 107.215 55.7002 107.26 55.7822 107.335C55.8642 107.411 55.9165 107.514 55.9298 107.624C55.9432 107.735 55.9166 107.847 55.8549 107.94C53.7429 110.618 51.7921 113.42 50.0128 116.33C52.8516 115.258 55.706 114.219 58.5762 113.214C58.6844 113.183 58.8002 113.192 58.9024 113.239C59.0047 113.286 59.0866 113.368 59.1333 113.471C59.18 113.573 59.1883 113.689 59.1568 113.797C59.1253 113.905 59.056 113.998 58.9616 114.06C55.9865 115.747 53.0443 117.472 50.1068 119.258L57.6785 121.669C57.7831 121.707 57.871 121.781 57.9263 121.877C57.9816 121.974 58.0008 122.087 57.9805 122.197C57.9602 122.306 57.9016 122.405 57.8153 122.475C57.729 122.545 57.6206 122.583 57.5093 122.581L49.7308 122.111C51.2677 123.911 52.3346 125.147 53.5801 126.543C53.6503 126.629 53.6879 126.736 53.6864 126.847C53.6849 126.958 53.6443 127.065 53.5718 127.148C53.4993 127.232 53.3995 127.288 53.2901 127.305C53.1807 127.322 53.0686 127.3 52.9738 127.243C51.4087 126.204 50.0316 125.283 48.0294 123.953C48.2362 125.551 48.4101 126.773 48.6216 128.005C48.6333 128.115 48.6055 128.226 48.5431 128.318C48.4806 128.41 48.3876 128.477 48.2805 128.507C48.1734 128.537 48.0592 128.528 47.9581 128.481C47.857 128.435 47.7757 128.354 47.7286 128.254C47.2069 126.924 46.7322 125.603 46.1306 123.845C43.8699 134.655 44.4527 145.15 46.6382 155.904L43.931 155.434C42.3354 144.871 42.766 134.101 45.2 123.699C43.8417 125.109 42.85 126.157 41.91 127.22C41.8303 127.298 41.7254 127.345 41.6141 127.353C41.5028 127.361 41.3923 127.329 41.3025 127.263C41.2126 127.196 41.1492 127.1 41.1236 126.992C41.0979 126.883 41.1118 126.769 41.1627 126.67C41.8019 125.608 42.4928 124.531 43.4234 123.135C41.0029 123.666 39.3485 124.033 37.5202 124.447C37.4105 124.466 37.2973 124.447 37.2009 124.391C37.1045 124.335 37.0311 124.246 36.9938 124.141C36.9565 124.036 36.9578 123.921 36.9974 123.817C37.037 123.713 37.1123 123.626 37.21 123.572C38.8503 122.694 40.4201 121.942 42.7137 120.851Z" fill="#EBEBEB"/>
<path d="M38.8925 124.588L44.4103 121.664C44.5484 121.595 44.6557 121.476 44.7114 121.331C44.7671 121.187 44.7671 121.027 44.7115 120.882C44.6559 120.738 44.5487 120.619 44.4105 120.549C44.2724 120.479 44.1132 120.463 43.9638 120.504L37.1535 122.2C38.2627 119.004 38.963 116.852 39.6492 114.483C39.6912 114.337 39.6787 114.181 39.6139 114.043C39.5492 113.906 39.4366 113.797 39.2973 113.736C39.158 113.676 39.0014 113.668 38.8568 113.715C38.7123 113.761 38.5896 113.859 38.5118 113.989C37.3932 115.869 36.3263 117.561 34.7518 120.057C33.8118 117.51 32.8201 115.146 31.7485 112.824C31.6812 112.685 31.5651 112.576 31.4225 112.518C31.2799 112.46 31.1208 112.456 30.9758 112.508C30.8307 112.56 30.7099 112.664 30.6365 112.799C30.5632 112.934 30.5424 113.092 30.5782 113.242C31.0482 115.084 31.4383 116.941 31.7391 118.76L31.5323 118.882C29.7463 117.491 27.9195 116.158 26.0521 114.882C25.922 114.792 25.7627 114.755 25.6062 114.778C25.4496 114.801 25.3076 114.882 25.2086 115.005C25.1097 115.129 25.0612 115.285 25.0729 115.443C25.0847 115.6 25.1557 115.748 25.2719 115.855C27.2396 117.657 29.1196 119.546 30.9119 121.523C28.4961 121.107 26.0756 120.709 23.6504 120.33C23.4971 120.308 23.3414 120.345 23.2133 120.431C23.0853 120.518 22.994 120.65 22.9572 120.8C22.9203 120.95 22.9406 121.109 23.0139 121.245C23.0872 121.381 23.2085 121.486 23.3543 121.538C26.0333 122.478 28.6935 123.418 31.3443 124.419L25.474 127.596C25.33 127.664 25.2176 127.785 25.1599 127.934C25.1022 128.083 25.1035 128.248 25.1636 128.396C25.2237 128.543 25.3379 128.663 25.483 128.729C25.6281 128.795 25.793 128.803 25.944 128.752L32.2655 127.149C31.3255 128.752 30.6487 129.969 29.9155 131.182C29.8352 131.313 29.8059 131.468 29.8331 131.619C29.8602 131.77 29.942 131.906 30.0627 132.001C30.1835 132.095 30.3348 132.142 30.4879 132.133C30.6411 132.123 30.7852 132.057 30.8931 131.948L34.31 128.606C34.3664 129.546 34.4134 130.383 34.4416 131.154C34.4478 131.308 34.5109 131.455 34.6189 131.565C34.7268 131.676 34.8718 131.742 35.026 131.752C35.1801 131.762 35.3325 131.715 35.4537 131.619C35.5749 131.523 35.6564 131.386 35.6824 131.234C35.8375 130.294 35.9879 129.316 36.1524 128.146C40.3824 138.349 41.7924 148.76 41.6326 159.734L44.2035 158.747C43.7995 148.072 41.3654 137.572 37.0313 127.807C38.0089 128.494 38.8267 129.076 39.574 129.626C39.6986 129.736 39.8617 129.792 40.0274 129.781C40.1931 129.77 40.3479 129.694 40.4576 129.57C40.5672 129.445 40.6229 129.282 40.6124 129.116C40.6018 128.951 40.5258 128.796 40.4012 128.686C39.8936 128.146 39.3343 127.572 38.6904 126.914C40.5704 126.966 42.0086 127.008 43.3904 127.055C43.5425 127.059 43.6907 127.007 43.8071 126.908C43.9235 126.81 44.0002 126.673 44.0227 126.523C44.0452 126.372 44.012 126.219 43.9293 126.091C43.8466 125.963 43.7202 125.87 43.5737 125.829C42.2013 125.457 40.7772 125.077 38.8925 124.588Z" fill="#F0F0F0"/>
<path d="M48.6356 130.519L44.5184 128.334C44.424 128.283 44.3514 128.199 44.3142 128.098C44.277 127.997 44.2778 127.887 44.3164 127.786C44.355 127.686 44.4287 127.603 44.5239 127.554C44.619 127.504 44.729 127.49 44.8333 127.516L49.9046 128.78C49.0774 126.402 48.5651 124.823 48.0575 123.056C48.0064 122.946 48.0008 122.822 48.0417 122.708C48.0827 122.595 48.167 122.503 48.2761 122.452C48.3852 122.4 48.5101 122.395 48.6233 122.436C48.7366 122.477 48.8289 122.561 48.88 122.67C49.7166 124.052 50.5015 125.321 51.6718 127.177C52.3815 125.274 53.1147 123.511 53.9184 121.777C53.9659 121.679 54.048 121.602 54.1489 121.561C54.2498 121.519 54.3625 121.517 54.4651 121.553C54.5678 121.59 54.6532 121.664 54.705 121.76C54.7568 121.856 54.7713 121.967 54.7456 122.073C54.3837 123.483 54.0876 124.893 53.862 126.261L53.9936 126.336C55.3472 125.28 56.7353 124.27 58.1578 123.305C58.2035 123.269 58.2558 123.242 58.3117 123.227C58.3676 123.211 58.426 123.207 58.4836 123.214C58.5412 123.221 58.5969 123.239 58.6475 123.267C58.698 123.296 58.7424 123.334 58.7782 123.38C58.814 123.426 58.8405 123.478 58.8561 123.534C58.8717 123.59 58.8761 123.648 58.8691 123.706C58.8622 123.763 58.8439 123.819 58.8154 123.869C58.7869 123.92 58.7487 123.964 58.703 124C57.221 125.344 55.811 126.754 54.473 128.23C56.2778 127.917 58.0889 127.618 59.9062 127.333C60.0162 127.314 60.1291 127.337 60.2223 127.399C60.3156 127.46 60.3823 127.554 60.409 127.662C60.4358 127.77 60.4206 127.885 60.3666 127.982C60.3126 128.08 60.2237 128.153 60.1177 128.188C58.1218 128.88 56.1306 129.598 54.144 130.341L58.515 132.691C58.6111 132.741 58.6852 132.825 58.7231 132.927C58.761 133.029 58.7601 133.141 58.7206 133.242C58.6811 133.343 58.6057 133.426 58.5088 133.476C58.4119 133.525 58.3004 133.536 58.1954 133.508L53.4954 132.315C54.1863 133.522 54.708 134.425 55.2485 135.341C55.3007 135.433 55.3181 135.541 55.2978 135.644C55.2774 135.748 55.2206 135.841 55.1376 135.906C55.0546 135.972 54.951 136.005 54.8454 136.001C54.7399 135.996 54.6395 135.954 54.5623 135.882L52.0337 133.396C51.9867 134.143 51.9538 134.782 51.9303 135.379C51.9285 135.49 51.8849 135.596 51.8083 135.676C51.7317 135.757 51.6277 135.805 51.5169 135.812C51.4061 135.819 51.2968 135.785 51.2105 135.715C51.1243 135.645 51.0675 135.545 51.0514 135.435C50.9339 134.726 50.8164 133.964 50.6848 133.057C47.5922 140.497 46.5864 148.097 46.6898 156.087L44.8098 155.368C45.1047 147.585 46.8784 139.928 50.0362 132.808C49.2795 133.344 48.6262 133.795 48.0716 134.218C47.9833 134.288 47.8716 134.322 47.7593 134.312C47.6469 134.303 47.5425 134.25 47.4675 134.166C47.3924 134.082 47.3523 133.972 47.3554 133.86C47.3585 133.747 47.4045 133.64 47.4841 133.56C47.8836 133.137 48.316 132.686 48.8283 132.15L45.2751 132.253C45.1661 132.258 45.0593 132.222 44.9753 132.152C44.8914 132.082 44.8362 131.984 44.8205 131.876C44.8047 131.768 44.8295 131.658 44.89 131.567C44.9505 131.476 45.0425 131.411 45.1482 131.384C46.1493 131.168 47.2115 130.886 48.6356 130.519Z" fill="#F5F5F5"/>
<path d="M37.0314 179.648H51.0468C51.519 179.649 51.9737 179.469 52.3179 179.146C52.6621 178.823 52.8699 178.38 52.8986 177.909L54.3838 153.732C54.4496 152.665 33.6286 152.665 33.7038 153.732L35.189 177.909C35.2177 178.379 35.4241 178.82 35.7663 179.143C36.1085 179.466 36.5608 179.647 37.0314 179.648Z" fill="#F0F0F0"/>
<path d="M36.19 123.789C36.0078 123.638 35.8662 123.445 35.7784 123.225C35.6905 123.006 35.6591 122.768 35.6871 122.534L36.002 119.855L35.2829 121.1C35.1834 121.275 35.0476 121.427 34.8846 121.545C34.7216 121.663 34.5352 121.745 34.338 121.785C34.1408 121.825 33.9372 121.822 33.7411 121.777C33.5449 121.732 33.3607 121.645 33.2008 121.523L31.7908 120.461L33.0739 122.534C33.2539 122.821 33.3244 123.163 33.2726 123.498C33.2209 123.833 33.0502 124.138 32.7919 124.357L31.1328 125.767L32.759 125.396C33.1037 125.315 33.4662 125.367 33.7744 125.541C34.0827 125.715 34.3141 125.999 34.4228 126.336L34.9821 128.047L35.3393 126.228C35.3781 126.035 35.4566 125.853 35.57 125.692C35.6833 125.532 35.829 125.397 35.9976 125.296C36.1662 125.195 36.354 125.131 36.5491 125.107C36.7441 125.082 36.9419 125.099 37.13 125.156L38.2251 125.476L36.19 123.789Z" fill="#E6E6E6"/>
<path d="M45.529 119.173C45.6626 119.064 45.7664 118.923 45.8305 118.762C45.8946 118.602 45.917 118.428 45.8956 118.257L45.6653 116.297L46.1917 117.209C46.2642 117.336 46.3632 117.447 46.482 117.533C46.6007 117.619 46.7366 117.679 46.8803 117.708C47.0241 117.738 47.1725 117.736 47.3155 117.703C47.4586 117.671 47.593 117.608 47.7098 117.519L48.7391 116.743L47.7991 118.257C47.6691 118.467 47.6185 118.716 47.6564 118.96C47.6943 119.204 47.8183 119.426 48.0059 119.587L49.2185 120.63L48.0294 120.358C47.7781 120.3 47.5144 120.339 47.2901 120.466C47.0658 120.593 46.897 120.799 46.8168 121.044L46.4079 122.294L46.1447 120.964C46.1165 120.823 46.0594 120.689 45.9769 120.572C45.8945 120.454 45.7885 120.355 45.6657 120.28C45.5429 120.205 45.4059 120.157 45.2635 120.138C45.121 120.119 44.9761 120.13 44.8381 120.17L44.0391 120.405L45.529 119.173Z" fill="#F5F5F5"/>
<path d="M51.0701 130.392C51.1651 130.312 51.2388 130.209 51.2847 130.094C51.3306 129.978 51.3473 129.853 51.3333 129.73L51.1688 128.32L51.5448 128.973C51.5975 129.064 51.6689 129.143 51.7543 129.204C51.8397 129.266 51.9372 129.308 52.0403 129.329C52.1434 129.35 52.2497 129.349 52.3523 129.325C52.4548 129.302 52.5513 129.257 52.6352 129.194L53.3731 128.634L52.701 129.72C52.6115 129.869 52.577 130.045 52.6036 130.217C52.6302 130.388 52.7163 130.545 52.8467 130.66L53.7162 131.407L52.8655 131.21C52.6876 131.168 52.5003 131.192 52.3391 131.279C52.178 131.366 52.0543 131.508 51.9913 131.68L51.6999 132.578L51.5119 131.638C51.492 131.536 51.4511 131.44 51.3918 131.355C51.3325 131.271 51.2562 131.199 51.1677 131.146C51.0792 131.092 50.9805 131.058 50.8779 131.044C50.7753 131.031 50.6711 131.04 50.5719 131.069L49.9985 131.238L51.0701 130.392Z" fill="#E6E6E6"/>
<path d="M180.781 63.7603H168.481C168.138 63.7603 167.861 64.038 167.861 64.3807V66.773C167.861 67.1156 168.138 67.3934 168.481 67.3934H180.781C181.124 67.3934 181.401 67.1156 181.401 66.773V64.3807C181.401 64.038 181.124 63.7603 180.781 63.7603Z" fill="#F5F5F5"/>
<path d="M176.645 68.2629H164.345C164.002 68.2629 163.725 68.5407 163.725 68.8833V71.2756C163.725 71.6183 164.002 71.896 164.345 71.896H176.645C176.988 71.896 177.265 71.6183 177.265 71.2756V68.8833C177.265 68.5407 176.988 68.2629 176.645 68.2629Z" fill="#F5F5F5"/>
<path d="M190.815 68.2629H178.515C178.173 68.2629 177.895 68.5407 177.895 68.8833V71.2756C177.895 71.6183 178.173 71.896 178.515 71.896H190.815C191.158 71.896 191.436 71.6183 191.436 71.2756V68.8833C191.436 68.5407 191.158 68.2629 190.815 68.2629Z" fill="#F0F0F0"/>
<path d="M197.391 34.8413H184.268C183.925 34.8413 183.648 35.1191 183.648 35.4617V38.0749C183.648 38.4175 183.925 38.6953 184.268 38.6953H197.391C197.733 38.6953 198.011 38.4175 198.011 38.0749V35.4617C198.011 35.1191 197.733 34.8413 197.391 34.8413Z" fill="#F5F5F5"/>
<path d="M197.391 44.4009H184.268C183.925 44.4009 183.648 44.6786 183.648 45.0213V47.6345C183.648 47.9771 183.925 48.2549 184.268 48.2549H197.391C197.733 48.2549 198.011 47.9771 198.011 47.6345V45.0213C198.011 44.6786 197.733 44.4009 197.391 44.4009Z" fill="#F5F5F5"/>
<path d="M193.005 39.6165H179.883C179.54 39.6165 179.263 39.8942 179.263 40.2369V42.8501C179.263 43.1927 179.54 43.4705 179.883 43.4705H193.005C193.348 43.4705 193.626 43.1927 193.626 42.8501V40.2369C193.626 39.8942 193.348 39.6165 193.005 39.6165Z" fill="#F5F5F5"/>
<path d="M208.036 39.6165H194.914C194.571 39.6165 194.293 39.8942 194.293 40.2369V42.8501C194.293 43.1927 194.571 43.4705 194.914 43.4705H208.036C208.379 43.4705 208.656 43.1927 208.656 42.8501V40.2369C208.656 39.8942 208.379 39.6165 208.036 39.6165Z" fill="#F0F0F0"/>
<path d="M102.897 151.904H193.161V149.31H102.897V151.904Z" fill="#F5F5F5"/>
<path d="M192.489 151.904H212.708V149.31H192.489V151.904Z" fill="#EBEBEB"/>
<path d="M112.278 158.211V151.904H108.072L112.278 158.211Z" fill="#E0E0E0"/>
<path d="M110.177 158.211L105.971 151.904H108.072L112.278 158.211H110.177Z" fill="#FAFAFA"/>
<path d="M209.413 158.211V151.904H205.207L209.413 158.211Z" fill="#E0E0E0"/>
<path d="M207.307 158.211L203.106 151.904H205.207L209.413 158.211H207.307Z" fill="#FAFAFA"/>
<path d="M198.26 149.662H200.638C200.892 149.662 201.142 149.611 201.375 149.512C201.609 149.413 201.819 149.268 201.995 149.085C202.171 148.903 202.307 148.686 202.397 148.45C202.487 148.213 202.528 147.96 202.518 147.707L202.217 138.749H196.671L196.371 147.707C196.36 147.961 196.402 148.214 196.492 148.452C196.583 148.689 196.721 148.906 196.897 149.089C197.074 149.271 197.286 149.416 197.52 149.515C197.754 149.614 198.006 149.664 198.26 149.662Z" fill="#F0F0F0"/>
<path d="M188.175 143.989C190.234 141.929 190.234 138.59 188.175 136.531C186.116 134.472 182.777 134.472 180.717 136.531C178.658 138.59 178.658 141.929 180.717 143.989C182.777 146.048 186.116 146.048 188.175 143.989Z" fill="#F0F0F0"/>
<path d="M184.08 149.582H184.813V146.09H184.447C183.668 146.112 182.892 145.978 182.166 145.695C181.44 145.412 180.778 144.987 180.219 144.444C179.66 143.9 179.216 143.251 178.913 142.533C178.61 141.815 178.453 141.044 178.453 140.264C178.453 139.485 178.61 138.714 178.913 137.996C179.216 137.278 179.66 136.629 180.219 136.085C180.778 135.542 181.44 135.117 182.166 134.834C182.892 134.551 183.668 134.417 184.447 134.439V133.701C182.795 133.787 181.235 134.492 180.08 135.675C178.924 136.859 178.257 138.435 178.21 140.088C178.164 141.742 178.742 143.352 179.83 144.599C180.918 145.845 182.435 146.636 184.08 146.814V149.582Z" fill="#EBEBEB"/>
<path d="M181.349 149.662H187.619C187.619 149.288 187.471 148.93 187.206 148.665C186.942 148.401 186.583 148.252 186.209 148.252H182.75C182.376 148.252 182.017 148.401 181.753 148.665C181.489 148.93 181.34 149.288 181.34 149.662H181.349Z" fill="#EBEBEB"/>
<path d="M198.617 149.662L193.664 144.708L188.705 149.662H198.617Z" fill="#F5F5F5"/>
<path d="M193.664 144.708L198.617 149.662H193.664V144.708Z" fill="#E6E6E6"/>
<path d="M159.123 143.181C159.147 143.651 159.161 144.027 159.161 144.276C159.161 145.302 158.937 146.315 158.505 147.245C158.073 148.175 157.444 149 156.66 149.662H147.951C147.17 149.001 146.543 148.179 146.112 147.251C145.681 146.323 145.457 145.313 145.456 144.29C145.456 144.041 145.456 143.665 145.493 143.195L159.123 143.181Z" fill="#F5F5F5"/>
<path d="M157.92 147.04C157.92 147.539 158.029 148.032 158.239 148.485C158.449 148.938 158.756 149.34 159.137 149.662H163.367C163.853 149.248 164.216 148.708 164.415 148.102C164.499 148.117 164.584 148.125 164.669 148.125C165.52 148.125 166.469 147.448 166.469 146.546C166.469 145.644 165.924 144.967 165.111 144.967C164.923 144.969 164.736 144.999 164.556 145.056V144.995C164.554 144.776 164.465 144.568 164.309 144.414C164.153 144.261 163.943 144.176 163.724 144.177H158.766C158.657 144.175 158.548 144.194 158.446 144.234C158.344 144.274 158.251 144.333 158.172 144.409C158.093 144.486 158.031 144.576 157.987 144.677C157.944 144.777 157.921 144.886 157.92 144.995C157.92 145.94 157.92 146.711 157.92 147.04ZM164.547 147.589C164.581 147.408 164.598 147.224 164.599 147.04C164.599 146.786 164.599 146.273 164.599 145.63C164.77 145.55 164.955 145.507 165.144 145.503C165.915 145.503 165.976 146.306 165.976 146.555C165.976 147.138 165.28 147.608 164.702 147.608L164.547 147.589Z" fill="#EBEBEB"/>
<path d="M118.647 149.662L119.338 141.724H109.275L108.579 149.662H118.647Z" fill="#F0F0F0"/>
<path d="M118.647 149.662L119.338 141.724H119.883L119.187 149.662H118.647Z" fill="#E0E0E0"/>
<path d="M117.688 148.854L118.243 142.537H110.229L109.675 148.854H117.688Z" fill="#FAFAFA"/>
<path d="M117.077 148.332L117.537 143.054H110.845L110.379 148.332H117.077Z" fill="#EBEBEB"/>
<path d="M129.993 149.662H119.883L121.001 136.841H131.116L129.993 149.662Z" fill="#F0F0F0"/>
<path d="M129.993 149.662H130.477L131.6 136.841H131.116L129.993 149.662Z" fill="#E0E0E0"/>
<path d="M129.076 148.356H121.025L121.918 138.147H129.969L129.076 148.356Z" fill="#E0E0E0"/>
<path d="M128.489 147.514H121.763L122.51 138.989H129.236L128.489 147.514Z" fill="#FAFAFA"/>
<path d="M123.632 143.613L124.293 144.274C124.877 144.858 125.824 144.858 126.407 144.274L127.069 143.613C127.652 143.029 127.652 142.083 127.069 141.499L126.407 140.838C125.823 140.254 124.877 140.254 124.293 140.838L123.632 141.499C123.048 142.083 123.048 143.029 123.632 143.613Z" fill="#EBEBEB"/>
<path d="M123.308 146.066L123.633 146.392C124.217 146.976 125.163 146.976 125.747 146.392L126.073 146.066C126.656 145.483 126.656 144.536 126.073 143.953L125.747 143.627C125.163 143.043 124.217 143.043 123.633 143.627L123.308 143.953C122.724 144.536 122.724 145.483 123.308 146.066Z" fill="#E6E6E6"/>
<path d="M32.6133 58.158H46.9765C47.3192 58.158 47.5969 57.8802 47.5969 57.5376V54.5907C47.5969 54.248 47.3192 53.9703 46.9765 53.9703H32.6133C32.2707 53.9703 31.9929 54.248 31.9929 54.5907V57.5376C31.9929 57.8802 32.2707 58.158 32.6133 58.158Z" fill="#F5F5F5"/>
<path d="M39.8982 52.969H54.2614C54.6041 52.969 54.8818 52.6912 54.8818 52.3486V49.4017C54.8818 49.0591 54.6041 48.7813 54.2614 48.7813H39.8982C39.5556 48.7813 39.2778 49.0591 39.2778 49.4017V52.3486C39.2778 52.6912 39.5556 52.969 39.8982 52.969Z" fill="#F5F5F5"/>
<path d="M23.5706 52.969H37.9338C38.2764 52.969 38.5542 52.6912 38.5542 52.3486V49.4017C38.5542 49.0591 38.2764 48.7813 37.9338 48.7813H23.5706C23.228 48.7813 22.9502 49.0591 22.9502 49.4017V52.3486C22.9502 52.6912 23.228 52.969 23.5706 52.969Z" fill="#F0F0F0"/>
<path d="M117.5 199.144C167.829 199.144 208.628 196.762 208.628 193.823C208.628 190.885 167.829 188.503 117.5 188.503C67.1711 188.503 26.3716 190.885 26.3716 193.823C26.3716 196.762 67.1711 199.144 117.5 199.144Z" fill="#F5F5F5"/>
<path d="M184.588 38.3003H157.093C152.257 38.3003 148.337 42.2205 148.337 47.0564V121.683C148.337 126.519 152.257 130.439 157.093 130.439H184.588C189.424 130.439 193.344 126.519 193.344 121.683V47.0564C193.344 42.2205 189.424 38.3003 184.588 38.3003Z" fill="#FE7A36"/>
<path opacity="0.3" d="M184.686 38.3003H156.994C152.213 38.3003 148.337 42.1763 148.337 46.9577V121.782C148.337 126.563 152.213 130.439 156.994 130.439H184.686C189.468 130.439 193.344 126.563 193.344 121.782V46.9577C193.344 42.1763 189.468 38.3003 184.686 38.3003Z" fill="black"/>
<path d="M193.344 42.8217V61.1H148.337V42.8217C148.337 41.6225 148.813 40.4725 149.661 39.6246C150.509 38.7767 151.659 38.3003 152.858 38.3003H188.822C190.022 38.3003 191.172 38.7767 192.02 39.6246C192.868 40.4725 193.344 41.6225 193.344 42.8217Z" fill="#FE7A36"/>
<path d="M161.069 48.1373C161.069 49.0397 160.401 49.5943 159.325 49.5943H158.385V50.7599H157.624V46.6709H159.33C160.401 46.685 161.069 47.2349 161.069 48.1373ZM160.303 48.1373C160.303 47.625 159.96 47.3242 159.292 47.3242H158.39V48.9504H159.278C159.96 48.9504 160.303 48.6543 160.303 48.1373Z" fill="white"/>
<path d="M163.56 47.6204V48.316C163.504 48.3098 163.447 48.3098 163.391 48.316C163.266 48.307 163.142 48.3254 163.025 48.37C162.909 48.4145 162.804 48.4841 162.717 48.5737C162.631 48.6634 162.565 48.771 162.525 48.8889C162.484 49.0068 162.47 49.1321 162.484 49.256V50.76H161.755V47.6392H162.451V48.1092C162.577 47.9379 162.746 47.8027 162.94 47.7169C163.135 47.6311 163.348 47.5979 163.56 47.6204Z" fill="white"/>
<path d="M167.047 49.4486H164.599C164.645 49.6759 164.774 49.878 164.961 50.016C165.147 50.1539 165.378 50.218 165.609 50.1959C165.767 50.2015 165.924 50.1744 166.07 50.1161C166.216 50.0578 166.349 49.9698 166.46 49.8575L166.85 50.3275C166.613 50.5618 166.315 50.7239 165.989 50.7946C165.664 50.8654 165.325 50.8419 165.012 50.727C164.699 50.6121 164.426 50.4105 164.224 50.1458C164.021 49.8811 163.899 49.5643 163.87 49.2324C163.863 49.0198 163.901 48.8081 163.98 48.6105C164.059 48.4129 164.177 48.2338 164.329 48.0842C164.48 47.9347 164.661 47.8179 164.859 47.7414C165.058 47.6648 165.27 47.63 165.482 47.6391C165.695 47.6309 165.906 47.6672 166.104 47.7457C166.302 47.8243 166.48 47.9433 166.629 48.0952C166.778 48.247 166.893 48.4283 166.968 48.6274C167.042 48.8265 167.074 49.039 167.061 49.2512C167.061 49.2888 167.052 49.3781 167.047 49.4486ZM164.594 48.9786H166.38C166.357 48.763 166.253 48.5642 166.089 48.4227C165.925 48.2811 165.713 48.2077 165.496 48.2172C165.28 48.2058 165.066 48.2763 164.899 48.4148C164.732 48.5532 164.623 48.7494 164.594 48.9645V48.9786Z" fill="white"/>
<path d="M172.983 48.9882V50.7601H172.25V49.0634C172.25 48.5088 171.992 48.2409 171.55 48.2409C171.108 48.2409 170.737 48.5558 170.737 49.1809V50.7601H170.008V49.0634C170.008 48.5088 169.75 48.2409 169.303 48.2409C168.857 48.2409 168.49 48.5558 168.49 49.1809V50.7601H167.762V47.6393H168.457V48.0388C168.585 47.895 168.743 47.7815 168.921 47.7067C169.098 47.6319 169.29 47.5976 169.482 47.6064C169.687 47.5927 169.891 47.6332 170.075 47.724C170.259 47.8148 170.416 47.9526 170.53 48.1234C170.673 47.9544 170.853 47.82 171.056 47.7305C171.259 47.641 171.479 47.5985 171.7 47.6064C172.457 47.6205 172.983 48.0435 172.983 48.9882Z" fill="white"/>
<path d="M173.815 46.6991C173.824 46.5802 173.877 46.469 173.964 46.3878C174.051 46.3067 174.166 46.2617 174.285 46.262C174.344 46.2575 174.404 46.265 174.46 46.2841C174.515 46.3032 174.567 46.3334 174.611 46.3729C174.655 46.4125 174.69 46.4605 174.715 46.5142C174.74 46.5678 174.754 46.6259 174.755 46.685C174.755 46.8096 174.706 46.9292 174.618 47.0173C174.53 47.1055 174.41 47.155 174.285 47.155C174.161 47.155 174.041 47.1055 173.953 47.0173C173.865 46.9292 173.815 46.8096 173.815 46.685V46.6991ZM173.919 47.6391H174.647V50.7599H173.9L173.919 47.6391Z" fill="white"/>
<path d="M178.628 47.6533V50.76H177.933V50.3652C177.807 50.5076 177.652 50.6206 177.478 50.6961C177.305 50.7717 177.116 50.8079 176.927 50.8023C176.743 50.8198 176.557 50.7958 176.383 50.732C176.209 50.6682 176.052 50.5663 175.923 50.4337C175.794 50.301 175.697 50.1412 175.638 49.9658C175.579 49.7904 175.56 49.6041 175.583 49.4205V47.6392H176.311V49.35C176.311 49.9187 176.584 50.1866 177.044 50.1866C177.165 50.192 177.286 50.1706 177.398 50.124C177.509 50.0773 177.61 50.0066 177.691 49.9168C177.772 49.827 177.833 49.7204 177.868 49.6045C177.903 49.4886 177.912 49.3664 177.895 49.2466V47.6674L178.628 47.6533Z" fill="white"/>
<path d="M184.804 48.9882V50.7601H184.075V49.0634C184.075 48.5088 183.817 48.2409 183.375 48.2409C182.933 48.2409 182.562 48.5558 182.562 49.1809V50.7601H181.829V49.0634C181.829 48.5088 181.575 48.2409 181.129 48.2409C180.682 48.2409 180.315 48.5558 180.315 49.1809V50.7601H179.587V47.6393H180.283V48.0388C180.41 47.895 180.569 47.7815 180.746 47.7067C180.923 47.6319 181.115 47.5976 181.307 47.6064C181.512 47.5927 181.717 47.6332 181.901 47.724C182.085 47.8148 182.241 47.9526 182.355 48.1234C182.499 47.9544 182.678 47.82 182.881 47.7305C183.084 47.641 183.304 47.5985 183.526 47.6064C184.282 47.6205 184.804 48.0435 184.804 48.9882Z" fill="white"/>
<path d="M180.235 115.944H161.445C158.891 115.944 156.82 118.015 156.82 120.569V120.922C156.82 123.476 158.891 125.546 161.445 125.546H180.235C182.79 125.546 184.86 123.476 184.86 120.922V120.569C184.86 118.015 182.79 115.944 180.235 115.944Z" fill="#FE7A36"/>
<path d="M163.56 121.481C163.56 122.355 162.86 122.938 161.765 123.027L161.619 123.751H160.961L161.107 123.027C160.568 122.994 160.048 122.821 159.598 122.524L160.035 121.711C160.401 121.973 160.828 122.135 161.276 122.181L161.501 121.072C160.89 120.889 160.218 120.644 160.218 119.85C160.218 118.976 160.937 118.383 162.051 118.308L162.197 117.584H162.855L162.709 118.313C163.135 118.346 163.548 118.475 163.917 118.689L163.518 119.502C163.224 119.311 162.889 119.194 162.54 119.159L162.31 120.315C162.916 120.489 163.56 120.724 163.56 121.481ZM161.68 120.127L161.868 119.187C161.497 119.258 161.285 119.46 161.28 119.714C161.276 119.967 161.454 120.028 161.68 120.127ZM162.493 121.65C162.493 121.462 162.343 121.34 162.112 121.255L161.934 122.158C162.3 122.082 162.502 121.899 162.502 121.65H162.493Z" fill="white"/>
<path d="M181.97 96.2983H158.738V97.2383H181.97V96.2983Z" fill="#FE7A36"/>
<path d="M181.97 80.8635H158.738V81.8035H181.97V80.8635Z" fill="#FE7A36"/>
<path d="M181.97 65.988H158.738V66.928H181.97V65.988Z" fill="#FE7A36"/>
<path d="M173.026 76.7138C174.605 75.1353 174.605 72.5761 173.026 70.9976C171.448 69.4191 168.889 69.4191 167.31 70.9976C165.732 72.5761 165.732 75.1353 167.31 76.7138C168.889 78.2923 171.448 78.2923 173.026 76.7138Z" fill="#FE7A36"/>
<path d="M173.059 72.9817L170.737 75.3082L169.651 76.3939L168.565 75.3082L169.651 74.2225L171.973 71.896L173.059 72.9817Z" fill="white"/>
<path d="M170.737 75.3081L169.651 76.3938L167.348 74.0908L168.434 73.0051L169.651 74.2224L170.737 75.3081Z" fill="white"/>
<path d="M170.168 92.8108C172.401 92.8108 174.21 91.0011 174.21 88.7688C174.21 86.5365 172.401 84.7268 170.168 84.7268C167.936 84.7268 166.126 86.5365 166.126 88.7688C166.126 91.0011 167.936 92.8108 170.168 92.8108Z" fill="#FE7A36"/>
<path d="M173.059 87.8948L170.737 90.2213L169.651 91.307L168.565 90.2213L169.651 89.1356L171.973 86.8091L173.059 87.8948Z" fill="white"/>
<path d="M170.737 90.2212L169.651 91.3069L167.348 89.0039L168.434 87.9182L169.651 89.1355L170.737 90.2212Z" fill="white"/>
<path d="M170.168 108.805C172.401 108.805 174.21 106.995 174.21 104.763C174.21 102.531 172.401 100.721 170.168 100.721C167.936 100.721 166.126 102.531 166.126 104.763C166.126 106.995 167.936 108.805 170.168 108.805Z" fill="#FE7A36"/>
<path d="M173.059 103.889L170.737 106.215L169.651 107.301L168.565 106.215L169.651 105.129L171.973 102.803L173.059 103.889Z" fill="white"/>
<path d="M170.737 106.215L169.651 107.301L167.348 104.998L168.434 103.912L169.651 105.13L170.737 106.215Z" fill="white"/>
<path d="M164.871 54.6233L165.628 55.8312L167.01 56.1743L166.093 57.2694L166.192 58.6935L164.871 58.1577L163.546 58.6935L163.645 57.2694L162.728 56.1743L164.115 55.8312L164.871 54.6233Z" fill="white"/>
<path d="M170.168 54.6233L170.925 55.8312L172.311 56.1743L171.395 57.2694L171.494 58.6935L170.168 58.1577L168.848 58.6935L168.946 57.2694L168.03 56.1743L169.412 55.8312L170.168 54.6233Z" fill="white"/>
<path d="M175.47 54.6233L176.222 55.8312L177.608 56.1743L176.692 57.2694L176.791 58.6935L175.47 58.1577L174.144 58.6935L174.243 57.2694L173.327 56.1743L174.713 55.8312L175.47 54.6233Z" fill="white"/>
<path d="M131.708 33.0549H104.213C99.3773 33.0549 95.457 36.9752 95.457 41.811V116.438C95.457 121.273 99.3773 125.194 104.213 125.194H131.708C136.544 125.194 140.464 121.273 140.464 116.438V41.811C140.464 36.9752 136.544 33.0549 131.708 33.0549Z" fill="#FE7A36"/>
<path opacity="0.5" d="M131.417 33.0549H104.505C102.105 33.0549 99.8037 34.0081 98.107 35.7049C96.4102 37.4016 95.457 39.7029 95.457 42.1024V116.146C95.457 117.335 95.6912 118.512 96.1462 119.61C96.6011 120.708 97.268 121.705 98.1086 122.545C98.9493 123.386 99.9472 124.052 101.045 124.506C102.144 124.961 103.321 125.194 104.509 125.194H131.417C132.605 125.194 133.782 124.961 134.881 124.506C135.979 124.052 136.977 123.386 137.817 122.545C138.658 121.705 139.325 120.708 139.78 119.61C140.235 118.512 140.469 117.335 140.469 116.146V42.1024C140.469 40.9139 140.235 39.737 139.78 38.639C139.325 37.541 138.658 36.5434 137.817 35.7032C136.977 34.863 135.979 34.1967 134.881 33.7423C133.782 33.2879 132.605 33.0543 131.417 33.0549Z" fill="white"/>
<path d="M140.469 37.6V55.8736H95.457V37.6C95.457 36.4009 95.9334 35.2508 96.7813 34.4029C97.6292 33.555 98.7793 33.0786 99.9784 33.0786H135.943C137.142 33.0786 138.293 33.5548 139.142 34.4026C139.99 35.2504 140.468 36.4004 140.469 37.6Z" fill="#FE7A36"/>
<path d="M104.74 45.1199L105.003 44.5324C105.389 44.8314 105.863 44.9963 106.352 45.0024C106.986 45.0024 107.259 44.7768 107.259 44.4713C107.259 43.5924 104.824 44.1705 104.824 42.6477C104.824 41.9897 105.35 41.4257 106.474 41.4257C106.953 41.4201 107.424 41.5452 107.837 41.7876L107.597 42.3798C107.255 42.1768 106.867 42.0666 106.469 42.0602C105.835 42.0602 105.581 42.3046 105.581 42.6148C105.581 43.4843 108.006 42.9156 108.006 44.4196C108.006 45.0729 107.475 45.6369 106.352 45.6369C105.772 45.6468 105.205 45.4651 104.74 45.1199Z" fill="white"/>
<path d="M110.568 45.3595C110.362 45.5046 110.114 45.5789 109.863 45.571C109.718 45.5935 109.57 45.582 109.431 45.5374C109.292 45.4928 109.165 45.4164 109.061 45.3142C108.956 45.212 108.877 45.0868 108.829 44.9487C108.782 44.8105 108.767 44.6631 108.786 44.5182V43.0189H108.274V42.4314H108.786V41.717H109.51V42.4314H110.347V43.0189H109.51V44.4994C109.51 44.8049 109.66 44.9694 109.942 44.9694C110.089 44.9722 110.232 44.9277 110.351 44.8425L110.568 45.3595Z" fill="white"/>
<path d="M113.782 43.7099V45.5382H113.091V45.1575C112.977 45.3054 112.827 45.4218 112.655 45.4958C112.483 45.5698 112.295 45.5989 112.109 45.5805C111.395 45.5805 110.944 45.1904 110.944 44.6405C110.944 44.0906 111.296 43.7005 112.241 43.7005H113.049V43.6535C113.049 43.2305 112.791 42.9767 112.274 42.9767C111.935 42.9747 111.605 43.0836 111.334 43.2869L111.038 42.7699C111.425 42.5026 111.888 42.3674 112.358 42.3845C113.27 42.3751 113.782 42.8028 113.782 43.7099ZM113.049 44.5653V44.1799H112.297C111.799 44.1799 111.663 44.3632 111.663 44.5935C111.663 44.8238 111.888 45.0259 112.26 45.0259C112.424 45.0383 112.587 44.9999 112.729 44.9158C112.87 44.8316 112.982 44.706 113.049 44.5559V44.5653Z" fill="white"/>
<path d="M117.791 43.7429V45.5289H117.058V43.8369C117.058 43.2823 116.786 43.0097 116.316 43.0097C116.193 43.0031 116.071 43.0235 115.958 43.0694C115.845 43.1154 115.743 43.1857 115.66 43.2755C115.577 43.3652 115.515 43.4722 115.478 43.5887C115.441 43.7052 115.43 43.8285 115.446 43.9497V45.5242H114.718V42.4081H115.413V42.8123C115.548 42.6645 115.714 42.5486 115.9 42.473C116.085 42.3974 116.285 42.364 116.485 42.3752C116.665 42.3613 116.846 42.3877 117.015 42.4524C117.185 42.5171 117.337 42.6186 117.462 42.7495C117.587 42.8803 117.681 43.0373 117.738 43.2091C117.795 43.3809 117.813 43.5632 117.791 43.7429Z" fill="white"/>
<path d="M121.805 41.1954V45.5288H121.105V45.1199C120.977 45.267 120.818 45.3831 120.639 45.4596C120.46 45.5362 120.265 45.5711 120.071 45.5617C119.647 45.5617 119.241 45.3934 118.941 45.0937C118.641 44.794 118.473 44.3876 118.473 43.9637C118.473 43.5399 118.641 43.1335 118.941 42.8338C119.241 42.5341 119.647 42.3657 120.071 42.3657C120.259 42.3571 120.447 42.3901 120.621 42.4624C120.794 42.5347 120.95 42.6445 121.077 42.784V41.186L121.805 41.1954ZM121.086 43.9684C121.079 43.7843 121.017 43.6064 120.91 43.4568C120.802 43.3073 120.653 43.1927 120.481 43.1273C120.308 43.0618 120.121 43.0485 119.941 43.0889C119.761 43.1293 119.597 43.2217 119.469 43.3545C119.342 43.4873 119.256 43.6548 119.222 43.836C119.189 44.0173 119.21 44.2043 119.282 44.3739C119.354 44.5435 119.474 44.6881 119.628 44.7899C119.782 44.8916 119.962 44.9459 120.146 44.946C120.274 44.9503 120.401 44.9277 120.52 44.8796C120.638 44.8314 120.745 44.7589 120.834 44.6667C120.923 44.5745 120.991 44.4647 121.034 44.3444C121.078 44.2241 121.095 44.096 121.086 43.9684Z" fill="white"/>
<path d="M125.377 43.7099V45.5382H124.686V45.1575C124.572 45.3061 124.422 45.423 124.25 45.4971C124.078 45.5711 123.89 45.5998 123.704 45.5805C122.994 45.5805 122.543 45.1904 122.543 44.6405C122.543 44.0906 122.891 43.7005 123.84 43.7005H124.649V43.6535C124.649 43.2305 124.39 42.9767 123.869 42.9767C123.53 42.9736 123.199 43.0827 122.929 43.2869L122.637 42.7699C123.024 42.5026 123.488 42.3674 123.958 42.3845C124.856 42.3751 125.377 42.8028 125.377 43.7099ZM124.649 44.5653V44.1799H123.892C123.394 44.1799 123.262 44.3632 123.262 44.5935C123.262 44.8238 123.483 45.0259 123.859 45.0259C124.023 45.0383 124.187 44.9999 124.328 44.9158C124.47 44.8316 124.582 44.706 124.649 44.5559V44.5653Z" fill="white"/>
<path d="M128.117 42.3751V43.0707C128.061 43.0643 128.004 43.0643 127.948 43.0707C127.822 43.0611 127.695 43.0799 127.576 43.1258C127.458 43.1717 127.351 43.2434 127.264 43.3358C127.177 43.4282 127.112 43.5388 127.074 43.6597C127.035 43.7805 127.024 43.9085 127.041 44.0342V45.5476H126.312V42.408H127.008V42.878C127.134 42.7055 127.302 42.5686 127.496 42.4804C127.691 42.3923 127.905 42.356 128.117 42.3751Z" fill="white"/>
<path d="M131.764 41.1954V45.5288H131.064V45.1199C130.936 45.267 130.777 45.3831 130.598 45.4596C130.419 45.5362 130.225 45.5711 130.03 45.5617C129.606 45.5617 129.2 45.3934 128.9 45.0937C128.6 44.794 128.432 44.3876 128.432 43.9637C128.432 43.5399 128.6 43.1335 128.9 42.8338C129.2 42.5341 129.606 42.3657 130.03 42.3657C130.218 42.3567 130.406 42.3896 130.58 42.4619C130.754 42.5343 130.91 42.6443 131.036 42.784V41.186L131.764 41.1954ZM131.045 43.9684C131.038 43.7843 130.977 43.6064 130.869 43.4568C130.761 43.3073 130.612 43.1927 130.44 43.1273C130.267 43.0618 130.08 43.0485 129.9 43.0889C129.72 43.1293 129.556 43.2217 129.428 43.3545C129.301 43.4873 129.215 43.6548 129.182 43.836C129.148 44.0173 129.169 44.2043 129.241 44.3739C129.313 44.5435 129.434 44.6881 129.587 44.7899C129.741 44.8916 129.921 44.9459 130.105 44.946C130.233 44.9511 130.361 44.9289 130.48 44.8811C130.599 44.8332 130.706 44.7607 130.795 44.6684C130.884 44.576 130.952 44.4659 130.995 44.3452C131.038 44.2246 131.055 44.0962 131.045 43.9684Z" fill="white"/>
<path d="M127.737 110.699H108.946C106.392 110.699 104.321 112.77 104.321 115.324V115.676C104.321 118.23 106.392 120.301 108.946 120.301H127.737C130.291 120.301 132.361 118.23 132.361 115.676V115.324C132.361 112.77 130.291 110.699 127.737 110.699Z" fill="#FE7A36"/>
<path d="M129.476 91.053H106.243V91.993H129.476V91.053Z" fill="#FE7A36"/>
<path d="M129.476 75.6182H106.243V76.5582H129.476V75.6182Z" fill="#FE7A36"/>
<path d="M129.476 60.7427H106.243V61.6827H129.476V60.7427Z" fill="#FE7A36"/>
<path d="M121.437 84.4519C121.95 82.2792 120.605 80.1023 118.432 79.5895C116.259 79.0767 114.082 80.4223 113.57 82.5949C113.057 84.7675 114.402 86.9445 116.575 87.4573C118.748 87.9701 120.925 86.6245 121.437 84.4519Z" fill="#FE7A36"/>
<path d="M120.4 82.6541L118.073 84.9759L116.988 86.0616L115.902 84.9759L116.988 83.8949L119.314 81.5684L120.4 82.6541Z" fill="white"/>
<path d="M118.073 84.976L116.988 86.0617L114.689 83.7587L115.77 82.6777L116.988 83.895L118.073 84.976Z" fill="white"/>
<path d="M119.405 103.252C121.467 102.398 122.446 100.034 121.592 97.9713C120.738 95.9089 118.373 94.9295 116.311 95.7838C114.249 96.638 113.269 99.0025 114.123 101.065C114.978 103.127 117.342 104.107 119.405 103.252Z" fill="#FE7A36"/>
<path d="M120.753 98.6436L118.426 100.97L117.34 102.056L116.255 100.97L117.34 99.8844L119.667 97.5579L120.753 98.6436Z" fill="white"/>
<path d="M118.426 100.97L117.34 102.056L115.042 99.7527L116.123 98.667L117.34 99.8843L118.426 100.97Z" fill="white"/>
<path d="M117.505 72.6525C119.714 72.6525 121.505 70.8618 121.505 68.6528C121.505 66.4438 119.714 64.6531 117.505 64.6531C115.296 64.6531 113.505 66.4438 113.505 68.6528C113.505 70.8618 115.296 72.6525 117.505 72.6525Z" fill="#263238"/>
<path opacity="0.5" d="M117.505 72.6525C119.714 72.6525 121.505 70.8618 121.505 68.6528C121.505 66.4438 119.714 64.6531 117.505 64.6531C115.296 64.6531 113.505 66.4438 113.505 68.6528C113.505 70.8618 115.296 72.6525 117.505 72.6525Z" fill="white"/>
<path d="M118.691 66.391L115.245 69.8374L116.319 70.9109L119.765 67.4645L118.691 66.391Z" fill="white"/>
<path d="M115.248 67.466L118.694 70.9124L119.768 69.8389L116.321 66.3925L115.248 67.466Z" fill="white"/>
<path d="M135.971 38.1123V48.8377L138.236 46.577V38.1123H135.971Z" fill="#FE7A36"/>
<path d="M140.497 38.1123V48.8377L138.236 46.577V38.1123H140.497Z" fill="#FE7A36"/>
<g opacity="0.3">
<path d="M140.502 38.1074V48.8422L138.236 46.5721L135.971 48.8422V38.1074H140.502Z" fill="black"/>
</g>
<path d="M139.341 27.3868C139.495 27.6811 139.759 27.9034 140.075 28.0061C140.391 28.1089 140.735 28.084 141.033 27.9367C141.242 27.8344 141.476 27.7912 141.708 27.8116C141.94 27.832 142.163 27.9153 142.351 28.0525C142.539 28.1898 142.687 28.3758 142.778 28.5905C142.868 28.8053 142.899 29.0407 142.866 29.2715C142.822 29.6006 142.906 29.934 143.101 30.2027C143.296 30.4713 143.587 30.6546 143.914 30.7144C144.144 30.7536 144.358 30.8549 144.535 31.0073C144.711 31.1597 144.842 31.3574 144.915 31.5791C144.987 31.8007 144.997 32.0379 144.944 32.2649C144.891 32.4919 144.777 32.7001 144.614 32.867C144.384 33.1062 144.255 33.4254 144.255 33.7577C144.255 34.0899 144.384 34.4092 144.614 34.6483C144.777 34.8157 144.89 35.0243 144.943 35.2515C144.996 35.4787 144.986 35.716 144.914 35.9378C144.842 36.1597 144.71 36.3577 144.534 36.5106C144.358 36.6635 144.144 36.7655 143.914 36.8056C143.589 36.8676 143.301 37.0519 143.109 37.3204C142.916 37.589 142.834 37.9213 142.88 38.2485C142.912 38.4789 142.881 38.7137 142.79 38.9278C142.699 39.1418 142.551 39.3271 142.363 39.4637C142.174 39.6003 141.952 39.6832 141.721 39.7034C141.489 39.7237 141.256 39.6805 141.047 39.5786C140.749 39.4338 140.406 39.4102 140.09 39.5127C139.775 39.6152 139.511 39.8359 139.355 40.1285C139.246 40.334 139.082 40.5058 138.883 40.6257C138.683 40.7455 138.455 40.8088 138.222 40.8088C137.99 40.8088 137.761 40.7455 137.562 40.6257C137.362 40.5058 137.199 40.334 137.09 40.1285C136.931 39.828 136.661 39.6018 136.338 39.4989C136.014 39.396 135.663 39.4246 135.36 39.5786C135.151 39.6805 134.918 39.7237 134.686 39.7034C134.454 39.6832 134.233 39.6003 134.044 39.4637C133.856 39.3271 133.708 39.1418 133.617 38.9278C133.526 38.7137 133.495 38.4789 133.527 38.2485C133.573 37.919 133.49 37.5844 133.295 37.3152C133.099 37.046 132.807 36.8633 132.479 36.8056C132.249 36.7655 132.035 36.6635 131.858 36.5106C131.682 36.3577 131.551 36.1597 131.479 35.9378C131.407 35.716 131.397 35.4787 131.45 35.2515C131.502 35.0243 131.616 34.8157 131.779 34.6483C132.009 34.4092 132.138 34.0899 132.138 33.7577C132.138 33.4254 132.009 33.1062 131.779 32.867C131.617 32.6995 131.505 32.4913 131.453 32.2647C131.401 32.0382 131.411 31.8018 131.483 31.5807C131.555 31.3597 131.686 31.1624 131.861 31.0098C132.037 30.8572 132.25 30.7551 132.479 30.7144C132.806 30.6556 133.098 30.4727 133.293 30.2037C133.488 29.9348 133.572 29.6008 133.527 29.2715C133.494 29.0407 133.524 28.8053 133.615 28.5905C133.706 28.3758 133.853 28.1898 134.042 28.0525C134.23 27.9153 134.453 27.832 134.685 27.8116C134.917 27.7912 135.15 27.8344 135.36 27.9367C135.659 28.083 136.003 28.1074 136.319 28.0048C136.636 27.9022 136.9 27.6806 137.057 27.3868C137.164 27.1766 137.328 27.0001 137.529 26.8769C137.731 26.7537 137.963 26.6885 138.199 26.6885C138.435 26.6885 138.667 26.7537 138.868 26.8769C139.07 27.0001 139.233 27.1766 139.341 27.3868Z" fill="#FE7A36"/>
<path d="M139.341 27.3868C139.495 27.6811 139.759 27.9034 140.075 28.0061C140.391 28.1089 140.735 28.084 141.033 27.9367C141.242 27.8344 141.476 27.7912 141.708 27.8116C141.94 27.832 142.163 27.9153 142.351 28.0525C142.539 28.1898 142.687 28.3758 142.778 28.5905C142.868 28.8053 142.899 29.0407 142.866 29.2715C142.822 29.6006 142.906 29.934 143.101 30.2027C143.296 30.4713 143.587 30.6546 143.914 30.7144C144.144 30.7536 144.358 30.8549 144.535 31.0073C144.711 31.1597 144.842 31.3574 144.915 31.5791C144.987 31.8007 144.997 32.0379 144.944 32.2649C144.891 32.4919 144.777 32.7001 144.614 32.867C144.384 33.1062 144.255 33.4254 144.255 33.7577C144.255 34.0899 144.384 34.4092 144.614 34.6483C144.777 34.8157 144.89 35.0243 144.943 35.2515C144.996 35.4787 144.986 35.716 144.914 35.9378C144.842 36.1597 144.71 36.3577 144.534 36.5106C144.358 36.6635 144.144 36.7655 143.914 36.8056C143.589 36.8676 143.301 37.0519 143.109 37.3204C142.916 37.589 142.834 37.9213 142.88 38.2485C142.912 38.4789 142.881 38.7137 142.79 38.9278C142.699 39.1418 142.551 39.3271 142.363 39.4637C142.174 39.6003 141.952 39.6832 141.721 39.7034C141.489 39.7237 141.256 39.6805 141.047 39.5786C140.749 39.4338 140.406 39.4102 140.09 39.5127C139.775 39.6152 139.511 39.8359 139.355 40.1285C139.246 40.334 139.082 40.5058 138.883 40.6257C138.683 40.7455 138.455 40.8088 138.222 40.8088C137.99 40.8088 137.761 40.7455 137.562 40.6257C137.362 40.5058 137.199 40.334 137.09 40.1285C136.931 39.828 136.661 39.6018 136.338 39.4989C136.014 39.396 135.663 39.4246 135.36 39.5786C135.151 39.6805 134.918 39.7237 134.686 39.7034C134.454 39.6832 134.233 39.6003 134.044 39.4637C133.856 39.3271 133.708 39.1418 133.617 38.9278C133.526 38.7137 133.495 38.4789 133.527 38.2485C133.573 37.919 133.49 37.5844 133.295 37.3152C133.099 37.046 132.807 36.8633 132.479 36.8056C132.249 36.7655 132.035 36.6635 131.858 36.5106C131.682 36.3577 131.551 36.1597 131.479 35.9378C131.407 35.716 131.397 35.4787 131.45 35.2515C131.502 35.0243 131.616 34.8157 131.779 34.6483C132.009 34.4092 132.138 34.0899 132.138 33.7577C132.138 33.4254 132.009 33.1062 131.779 32.867C131.617 32.6995 131.505 32.4913 131.453 32.2647C131.401 32.0382 131.411 31.8018 131.483 31.5807C131.555 31.3597 131.686 31.1624 131.861 31.0098C132.037 30.8572 132.25 30.7551 132.479 30.7144C132.806 30.6556 133.098 30.4727 133.293 30.2037C133.488 29.9348 133.572 29.6008 133.527 29.2715C133.494 29.0407 133.524 28.8053 133.615 28.5905C133.706 28.3758 133.853 28.1898 134.042 28.0525C134.23 27.9153 134.453 27.832 134.685 27.8116C134.917 27.7912 135.15 27.8344 135.36 27.9367C135.659 28.083 136.003 28.1074 136.319 28.0048C136.636 27.9022 136.9 27.6806 137.057 27.3868C137.164 27.1766 137.328 27.0001 137.529 26.8769C137.731 26.7537 137.963 26.6885 138.199 26.6885C138.435 26.6885 138.667 26.7537 138.868 26.8769C139.07 27.0001 139.233 27.1766 139.341 27.3868Z" fill="#FE7A36"/>
<g opacity="0.5">
<path d="M139.341 27.3868C139.495 27.6811 139.759 27.9034 140.075 28.0061C140.391 28.1089 140.735 28.084 141.033 27.9367C141.242 27.8344 141.476 27.7912 141.708 27.8116C141.94 27.832 142.163 27.9153 142.351 28.0525C142.539 28.1898 142.687 28.3758 142.778 28.5905C142.868 28.8053 142.899 29.0407 142.866 29.2715C142.822 29.6006 142.906 29.934 143.101 30.2027C143.296 30.4713 143.587 30.6546 143.914 30.7144C144.144 30.7536 144.358 30.8549 144.535 31.0073C144.711 31.1597 144.842 31.3574 144.915 31.5791C144.987 31.8007 144.997 32.0379 144.944 32.2649C144.891 32.4919 144.777 32.7001 144.614 32.867C144.384 33.1062 144.255 33.4254 144.255 33.7577C144.255 34.0899 144.384 34.4092 144.614 34.6483C144.777 34.8157 144.89 35.0243 144.943 35.2515C144.996 35.4787 144.986 35.716 144.914 35.9378C144.842 36.1597 144.71 36.3577 144.534 36.5106C144.358 36.6635 144.144 36.7655 143.914 36.8056C143.589 36.8676 143.301 37.0519 143.109 37.3204C142.916 37.589 142.834 37.9213 142.88 38.2485C142.912 38.4789 142.881 38.7137 142.79 38.9278C142.699 39.1418 142.551 39.3271 142.363 39.4637C142.174 39.6003 141.952 39.6832 141.721 39.7034C141.489 39.7237 141.256 39.6805 141.047 39.5786C140.749 39.4338 140.406 39.4102 140.09 39.5127C139.775 39.6152 139.511 39.8359 139.355 40.1285C139.246 40.334 139.082 40.5058 138.883 40.6257C138.683 40.7455 138.455 40.8088 138.222 40.8088C137.99 40.8088 137.761 40.7455 137.562 40.6257C137.362 40.5058 137.199 40.334 137.09 40.1285C136.931 39.828 136.661 39.6018 136.338 39.4989C136.014 39.396 135.663 39.4246 135.36 39.5786C135.151 39.6805 134.918 39.7237 134.686 39.7034C134.454 39.6832 134.233 39.6003 134.044 39.4637C133.856 39.3271 133.708 39.1418 133.617 38.9278C133.526 38.7137 133.495 38.4789 133.527 38.2485C133.573 37.919 133.49 37.5844 133.295 37.3152C133.099 37.046 132.807 36.8633 132.479 36.8056C132.249 36.7655 132.035 36.6635 131.858 36.5106C131.682 36.3577 131.551 36.1597 131.479 35.9378C131.407 35.716 131.397 35.4787 131.45 35.2515C131.502 35.0243 131.616 34.8157 131.779 34.6483C132.009 34.4092 132.138 34.0899 132.138 33.7577C132.138 33.4254 132.009 33.1062 131.779 32.867C131.617 32.6995 131.505 32.4913 131.453 32.2647C131.401 32.0382 131.411 31.8018 131.483 31.5807C131.555 31.3597 131.686 31.1624 131.861 31.0098C132.037 30.8572 132.25 30.7551 132.479 30.7144C132.806 30.6556 133.098 30.4727 133.293 30.2037C133.488 29.9348 133.572 29.6008 133.527 29.2715C133.494 29.0407 133.524 28.8053 133.615 28.5905C133.706 28.3758 133.853 28.1898 134.042 28.0525C134.23 27.9153 134.453 27.832 134.685 27.8116C134.917 27.7912 135.15 27.8344 135.36 27.9367C135.659 28.083 136.003 28.1074 136.319 28.0048C136.636 27.9022 136.9 27.6806 137.057 27.3868C137.164 27.1766 137.328 27.0001 137.529 26.8769C137.731 26.7537 137.963 26.6885 138.199 26.6885C138.435 26.6885 138.667 26.7537 138.868 26.8769C139.07 27.0001 139.233 27.1766 139.341 27.3868Z" fill="white"/>
</g>
<path d="M136.173 32.4299H135.59C135.461 32.4303 135.336 32.4785 135.24 32.5652C135.143 32.652 135.082 32.7711 135.069 32.8999L134.928 35.5883C134.924 35.6524 134.933 35.7165 134.955 35.7769C134.977 35.8372 135.011 35.8924 135.055 35.9391C135.099 35.9857 135.152 36.0229 135.211 36.0483C135.27 36.0736 135.333 36.0866 135.398 36.0865H135.98C136.114 36.0844 136.242 36.0319 136.339 35.9396C136.436 35.8472 136.494 35.7218 136.502 35.5883L136.643 32.8999C136.643 32.7753 136.594 32.6557 136.505 32.5676C136.417 32.4794 136.298 32.4299 136.173 32.4299Z" fill="white"/>
<path d="M140.822 32.43H139.454L139.835 31.5323C139.878 31.4383 139.894 31.3342 139.882 31.2315L139.802 30.5265C139.787 30.3898 139.722 30.2634 139.619 30.1715C139.517 30.0796 139.385 30.0287 139.247 30.0283H138.566C138.523 30.7327 138.266 31.407 137.828 31.96L137.409 32.4864C137.302 32.621 137.238 32.7848 137.226 32.9564L137.094 35.4662C137.09 35.5455 137.102 35.6248 137.129 35.6994C137.156 35.7739 137.198 35.8421 137.253 35.8998C137.308 35.9574 137.373 36.0033 137.446 36.0346C137.519 36.066 137.598 36.082 137.677 36.0819H140.06C140.166 36.0808 140.27 36.0576 140.367 36.0139C140.463 35.9702 140.549 35.9069 140.619 35.8281L140.84 35.5837C140.918 35.4856 140.972 35.3717 141 35.25L141.47 33.2243C141.491 33.1314 141.491 33.0351 141.472 32.942C141.452 32.8488 141.413 32.7608 141.357 32.6838C141.294 32.6028 141.212 32.5377 141.119 32.4937C141.026 32.4496 140.924 32.4278 140.822 32.43Z" fill="white"/>
<path d="M117.505 48.8376L118.261 50.0502L119.648 50.3933L118.731 51.4884L118.83 52.9078L117.505 52.3767L116.184 52.9078L116.283 51.4884L115.366 50.3933L116.753 50.0502L117.505 48.8376Z" fill="white"/>
<path d="M111.211 116.25C111.211 117.124 110.511 117.707 109.416 117.801L109.27 118.52H108.612L108.758 117.801C108.22 117.764 107.7 117.589 107.249 117.293L107.686 116.48C108.052 116.742 108.48 116.904 108.927 116.95L109.153 115.841C108.542 115.658 107.87 115.413 107.87 114.619C107.87 113.745 108.589 113.157 109.703 113.077L109.848 112.354H110.506L110.361 113.082C110.786 113.116 111.199 113.244 111.569 113.458L111.169 114.271C110.874 114.081 110.537 113.965 110.187 113.933L109.961 115.084C110.563 115.258 111.211 115.493 111.211 116.25ZM109.331 114.896L109.519 113.956C109.148 114.027 108.937 114.234 108.932 114.483C108.927 114.732 109.101 114.798 109.336 114.896H109.331ZM110.144 116.419C110.144 116.231 109.994 116.114 109.764 116.029L109.585 116.927C109.947 116.856 110.149 116.668 110.149 116.419H110.144Z" fill="white"/>
<path d="M77.9071 38.3003H50.4121C45.5762 38.3003 41.656 42.2205 41.656 47.0564V121.683C41.656 126.519 45.5762 130.439 50.4121 130.439H77.9071C82.743 130.439 86.6632 126.519 86.6632 121.683V47.0564C86.6632 42.2205 82.743 38.3003 77.9071 38.3003Z" fill="#263238"/>
<path opacity="0.7" d="M77.7708 38.3003H50.5484C45.6373 38.3003 41.656 42.2816 41.656 47.1927V121.547C41.656 126.458 45.6373 130.439 50.5484 130.439H77.7708C82.6819 130.439 86.6632 126.458 86.6632 121.547V47.1927C86.6632 42.2816 82.6819 38.3003 77.7708 38.3003Z" fill="white"/>
<path d="M86.6632 42.8217V61.1H41.656V42.8217C41.656 41.6225 42.1324 40.4725 42.9803 39.6246C43.8282 38.7767 44.9783 38.3003 46.1774 38.3003H82.1418C83.341 38.3003 84.491 38.7767 85.3389 39.6246C86.1868 40.4725 86.6632 41.6225 86.6632 42.8217Z" fill="#FE7A36"/>
<path d="M86.6632 42.8217V61.1H41.656V42.8217C41.656 41.6225 42.1324 40.4725 42.9803 39.6246C43.8282 38.7767 44.9783 38.3003 46.1774 38.3003H82.1418C83.341 38.3003 84.491 38.7767 85.3389 39.6246C86.1868 40.4725 86.6632 41.6225 86.6632 42.8217Z" fill="#FE7A36"/>
<path d="M60.4607 49.6649C60.4607 50.3652 59.9155 50.7741 58.8627 50.7741H56.8276V46.6851H58.7499C59.7322 46.6851 60.2586 47.0987 60.2586 47.7473C60.2638 47.9312 60.2171 48.1128 60.1241 48.2715C60.031 48.4303 59.8952 48.5596 59.7322 48.645C59.9507 48.7082 60.1415 48.8432 60.2737 49.0283C60.4059 49.2134 60.4718 49.4377 60.4607 49.6649ZM57.589 47.2773V48.41H58.6606C59.187 48.41 59.4878 48.2267 59.4878 47.8507C59.4878 47.4747 59.187 47.282 58.6606 47.282L57.589 47.2773ZM59.6946 49.5897C59.6946 49.1808 59.3891 48.9975 58.8157 48.9975H57.589V50.1772H58.8157C59.3891 50.1772 59.6899 49.9986 59.6899 49.5897H59.6946Z" fill="white"/>
<path d="M63.8165 48.9459V50.7601H63.1303V50.3794C63.0149 50.5263 62.8646 50.642 62.693 50.7159C62.5214 50.7898 62.3341 50.8195 62.148 50.8024C61.4336 50.8024 60.9824 50.4123 60.9824 49.8624C60.9824 49.3125 61.3349 48.9224 62.2796 48.9224H63.088V48.8754C63.088 48.4477 62.8295 48.1986 62.3078 48.1986C61.969 48.1965 61.6389 48.3055 61.3678 48.5088L61.0811 47.9777C61.4684 47.7104 61.9316 47.5752 62.4018 47.5923C63.2995 47.6205 63.8165 48.0435 63.8165 48.9459ZM63.088 49.8201V49.4582H62.3313C61.8378 49.4582 61.7015 49.6462 61.7015 49.8765C61.7015 50.1068 61.9224 50.3089 62.2984 50.3089C62.4647 50.3205 62.6304 50.2796 62.7721 50.1919C62.9138 50.1041 63.0243 49.9741 63.088 49.8201Z" fill="white"/>
<path d="M64.3899 50.4638L64.6719 49.9092C64.9984 50.1104 65.3741 50.2177 65.7576 50.2194C66.2276 50.2194 66.4156 50.0925 66.4156 49.8763C66.4156 49.2794 64.4839 49.8387 64.4839 48.5932C64.4839 48.0057 65.015 47.6203 65.861 47.6203C66.2656 47.6127 66.6659 47.7047 67.0266 47.8882L66.7493 48.4428C66.477 48.2844 66.1666 48.2032 65.8516 48.2078C65.4098 48.2078 65.1983 48.3535 65.1983 48.5603C65.1983 49.1901 67.1253 48.6308 67.1253 49.8528C67.1253 50.4356 66.5895 50.8163 65.7153 50.8163C65.2493 50.8244 64.7903 50.7023 64.3899 50.4638Z" fill="white"/>
<path d="M67.6799 46.6992C67.6799 46.5746 67.7294 46.455 67.8176 46.3669C67.9057 46.2788 68.0253 46.2292 68.1499 46.2292C68.2746 46.2292 68.3941 46.2788 68.4823 46.3669C68.5704 46.455 68.6199 46.5746 68.6199 46.6992C68.6199 46.8239 68.5704 46.9434 68.4823 47.0316C68.3941 47.1197 68.2746 47.1692 68.1499 47.1692C68.0871 47.1734 68.0242 47.1641 67.9653 47.1419C67.9064 47.1198 67.8529 47.0853 67.8084 47.0408C67.7639 46.9963 67.7294 46.9428 67.7072 46.8839C67.6851 46.825 67.6758 46.762 67.6799 46.6992ZM67.7786 47.6392H68.5071V50.76H67.7786V47.6392Z" fill="white"/>
<path d="M69.1932 49.2138C69.1907 48.9954 69.2335 48.7788 69.319 48.5778C69.4044 48.3768 69.5307 48.1957 69.6897 48.046C69.8487 47.8962 70.0371 47.7811 70.2428 47.7079C70.4486 47.6346 70.6674 47.6049 70.8852 47.6205C71.1528 47.6021 71.4201 47.6605 71.6557 47.7887C71.8913 47.9169 72.0854 48.1096 72.2153 48.3443L71.656 48.6686C71.5764 48.5345 71.4627 48.4239 71.3265 48.3479C71.1903 48.272 71.0364 48.2334 70.8805 48.2362C70.6212 48.2362 70.3726 48.3392 70.1893 48.5225C70.0059 48.7059 69.9029 48.9545 69.9029 49.2138C69.9029 49.4731 70.0059 49.7217 70.1893 49.9051C70.3726 50.0884 70.6212 50.1914 70.8805 50.1914C71.0364 50.1942 71.1903 50.1556 71.3265 50.0797C71.4627 50.0037 71.5764 49.8931 71.656 49.759L72.2153 50.0833C72.0867 50.3197 71.8931 50.5144 71.6574 50.6443C71.4217 50.7742 71.1538 50.834 70.8852 50.8165C70.6669 50.8308 70.4479 50.7997 70.2421 50.7254C70.0363 50.6511 69.8481 50.5351 69.6893 50.3846C69.5304 50.2341 69.4043 50.0525 69.319 49.851C69.2336 49.6495 69.1908 49.4326 69.1932 49.2138Z" fill="white"/>
<path d="M66.3191 92.4388C67.8811 90.8768 67.8811 88.3444 66.3191 86.7824C64.7571 85.2204 62.2247 85.2204 60.6627 86.7824C59.1007 88.3444 59.1007 90.8768 60.6627 92.4388C62.2247 94.0008 64.7571 94.0008 66.3191 92.4388Z" fill="#263238"/>
<path opacity="0.5" d="M66.3191 92.4388C67.8811 90.8768 67.8811 88.3444 66.3191 86.7824C64.7571 85.2204 62.2247 85.2204 60.6627 86.7824C59.1007 88.3444 59.1007 90.8768 60.6627 92.4388C62.2247 94.0008 64.7571 94.0008 66.3191 92.4388Z" fill="white"/>
<path d="M64.6739 87.3507L61.2275 90.7971L62.301 91.8706L65.7474 88.4242L64.6739 87.3507Z" fill="white"/>
<path d="M61.2279 88.4284L64.6743 91.8748L65.7478 90.8013L62.3014 87.3549L61.2279 88.4284Z" fill="white"/>
<path d="M63.6755 108.434C65.9079 108.434 67.7175 106.624 67.7175 104.392C67.7175 102.159 65.9079 100.35 63.6755 100.35C61.4432 100.35 59.6335 102.159 59.6335 104.392C59.6335 106.624 61.4432 108.434 63.6755 108.434Z" fill="#FE7A36"/>
<path d="M66.5707 103.518L64.2442 105.844L63.1585 106.93L62.0728 105.844L63.1585 104.758L65.485 102.432L66.5707 103.518Z" fill="white"/>
<path d="M64.2441 105.844L63.1584 106.93L60.8601 104.627L61.9411 103.541L63.1584 104.758L64.2441 105.844Z" fill="white"/>
<path d="M73.5548 115.944H54.7642C52.21 115.944 50.1394 118.015 50.1394 120.569V120.922C50.1394 123.476 52.21 125.546 54.7642 125.546H73.5548C76.109 125.546 78.1796 123.476 78.1796 120.922V120.569C78.1796 118.015 76.109 115.944 73.5548 115.944Z" fill="#FE7A36"/>
<path d="M56.2166 121.655C56.2166 122.529 55.5163 123.112 54.4165 123.201L54.2755 123.925H53.6175L53.7632 123.201C53.2237 123.167 52.7022 122.994 52.2498 122.698L52.6916 121.885C53.0573 122.147 53.485 122.309 53.9324 122.355L54.1533 121.246C53.547 121.063 52.8749 120.818 52.8749 120.024C52.8749 119.15 53.5893 118.558 54.7079 118.482L54.8536 117.759H55.5069L55.3659 118.487C55.7915 118.521 56.2043 118.649 56.5738 118.863L56.1696 119.676C55.8761 119.485 55.5407 119.367 55.192 119.333L54.9617 120.489C55.568 120.663 56.2166 120.898 56.2166 121.655ZM54.3366 120.301L54.5246 119.361C54.1486 119.432 53.9418 119.634 53.9324 119.888C53.923 120.141 54.1016 120.203 54.3413 120.32L54.3366 120.301ZM55.1497 121.824C55.1497 121.636 54.9993 121.514 54.769 121.429L54.5904 122.332C54.9476 122.256 55.1544 122.073 55.1544 121.824H55.1497Z" fill="white"/>
<path d="M75.2939 96.2983H52.0618V97.2383H75.2939V96.2983Z" fill="#FE7A36"/>
<path d="M75.2939 80.8635H52.0618V81.8035H75.2939V80.8635Z" fill="#FE7A36"/>
<path d="M75.2939 65.988H52.0618V66.928H75.2939V65.988Z" fill="#FE7A36"/>
<path d="M66.3211 76.7242C67.883 75.1622 67.883 72.6298 66.3211 71.0678C64.7591 69.5058 62.2266 69.5058 60.6646 71.0678C59.1027 72.6298 59.1027 75.1622 60.6646 76.7242C62.2266 78.2862 64.7591 78.2862 66.3211 76.7242Z" fill="#263238"/>
<path opacity="0.5" d="M66.3211 76.7242C67.883 75.1622 67.883 72.6298 66.3211 71.0678C64.7591 69.5058 62.2266 69.5058 60.6646 71.0678C59.1027 72.6298 59.1027 75.1622 60.6646 76.7242C62.2266 78.2862 64.7591 78.2862 66.3211 76.7242Z" fill="white"/>
<path d="M64.6761 71.6359L61.2297 75.0823L62.3032 76.1557L65.7496 72.7094L64.6761 71.6359Z" fill="white"/>
<path d="M61.2301 72.7096L64.6765 76.156L65.75 75.0825L62.3036 71.6362L61.2301 72.7096Z" fill="white"/>
<path d="M122.242 192.286L125.847 192.944L128.573 186.294L124.634 184.719L122.242 192.286Z" fill="#FFC2BC"/>
<path opacity="0.1" d="M123.535 188.066L124.564 184.973L126.378 185.415L128.573 186.294L127.398 189.189L123.535 188.066Z" fill="black"/>
<path d="M121.537 191.036C121.537 191.036 121.396 190.909 121.213 190.764C121.03 190.618 120.917 190.538 120.743 190.416C120.407 190.161 120.01 189.999 119.591 189.946C119.461 189.948 119.335 189.995 119.234 190.077C119.175 190.12 119.132 190.181 119.111 190.25C119.089 190.32 119.092 190.395 119.117 190.463C119.407 190.769 119.794 190.966 120.212 191.022L120.545 191.093C120.856 191.149 121.17 191.188 121.485 191.21C121.504 191.21 121.522 191.205 121.538 191.195C121.554 191.185 121.567 191.171 121.575 191.154C121.585 191.133 121.587 191.109 121.58 191.087C121.573 191.066 121.557 191.047 121.537 191.036ZM120.785 190.942C120.108 190.829 119.375 190.618 119.295 190.378C119.295 190.345 119.267 190.284 119.37 190.19C119.4 190.164 119.434 190.143 119.471 190.13C119.508 190.118 119.547 190.112 119.587 190.115C119.652 190.116 119.716 190.124 119.779 190.138C120.215 190.307 120.621 190.543 120.983 190.839C121.053 190.89 121.119 190.947 121.185 191.003C121.058 190.989 120.921 190.966 120.79 190.942H120.785Z" fill="#FF6D38"/>
<path d="M121.354 189.556C121.237 189.409 121.069 189.312 120.884 189.283C120.616 189.241 120.503 189.344 120.461 189.443C120.358 189.654 120.517 190.049 120.752 190.416C120.844 190.557 120.944 190.692 121.053 190.82C121.163 190.951 121.286 191.071 121.42 191.177C121.433 191.183 121.449 191.183 121.462 191.177C121.477 191.182 121.494 191.182 121.509 191.177C121.524 191.172 121.537 191.164 121.548 191.152C121.559 191.141 121.566 191.127 121.57 191.111C121.591 190.973 121.604 190.833 121.608 190.693C121.65 190.296 121.561 189.897 121.354 189.556ZM121.396 190.905C121.349 190.858 121.298 190.811 121.251 190.754C120.879 190.345 120.532 189.716 120.621 189.499C120.621 189.499 120.658 189.415 120.837 189.443H120.889C121.006 189.471 121.11 189.537 121.185 189.631C121.363 189.962 121.443 190.337 121.415 190.712C121.41 190.787 121.406 190.844 121.396 190.905Z" fill="#FF6D38"/>
<path d="M122.012 190.773L126.369 191.816C126.446 191.832 126.515 191.873 126.565 191.934C126.615 191.995 126.642 192.071 126.641 192.15L126.51 195.619C126.499 195.772 126.428 195.914 126.313 196.015C126.198 196.117 126.047 196.168 125.894 196.159C125.852 196.164 125.809 196.164 125.767 196.159C124.202 195.76 122.83 195.346 120.87 194.881C118.562 194.331 119.079 194.726 116.358 194.115C114.718 193.743 114.896 191.953 115.615 192.033C118.905 192.423 119.465 191.619 120.983 190.862C121.305 190.716 121.669 190.684 122.012 190.773Z" fill="#263238"/>
<path d="M148.186 192.94H151.636L152.656 187.224L148.435 186.435L148.186 192.94Z" fill="#FFC2BC"/>
<path opacity="0.1" d="M148.435 186.435L152.656 187.224L151.97 191.074L148.294 190.923L148.435 186.435Z" fill="black"/>
<path d="M153.398 190.021L147.204 189.668L147.016 187.224L153.948 187.699L153.398 190.021Z" fill="#FF6D38"/>
<path opacity="0.5" d="M153.398 190.021L147.204 189.668L147.016 187.224L153.948 187.699L153.398 190.021Z" fill="white"/>
<path d="M147.683 193.029C147.683 193.029 147.524 192.94 147.317 192.836C147.11 192.733 147.007 192.691 146.819 192.62C146.451 192.441 146.04 192.371 145.634 192.418C145.515 192.448 145.412 192.524 145.347 192.63C145.307 192.688 145.285 192.758 145.285 192.829C145.285 192.901 145.307 192.97 145.347 193.029C145.677 193.26 146.08 193.362 146.48 193.316H146.795C147.08 193.298 147.364 193.263 147.646 193.212C147.663 193.207 147.679 193.197 147.691 193.184C147.703 193.171 147.712 193.155 147.716 193.137C147.723 193.118 147.723 193.097 147.717 193.078C147.711 193.059 147.699 193.041 147.683 193.029ZM146.974 193.118C146.334 193.165 145.644 193.118 145.493 192.921C145.465 192.888 145.441 192.836 145.493 192.724C145.511 192.689 145.536 192.66 145.567 192.637C145.598 192.614 145.634 192.599 145.672 192.592C145.73 192.585 145.788 192.585 145.846 192.592C146.288 192.654 146.717 192.789 147.115 192.991C147.193 193.02 147.269 193.056 147.34 193.1L146.974 193.118Z" fill="#FF6D38"/>
<path d="M147.74 193.113C147.726 192.973 147.704 192.833 147.674 192.695C147.605 192.292 147.417 191.919 147.134 191.624C147.065 191.565 146.984 191.522 146.898 191.496C146.811 191.47 146.72 191.462 146.631 191.473C146.372 191.497 146.297 191.624 146.288 191.732C146.245 191.967 146.499 192.319 146.819 192.62C146.93 192.732 147.049 192.836 147.176 192.93C147.308 193.034 147.451 193.123 147.604 193.193C147.616 193.198 147.629 193.198 147.641 193.193C147.656 193.198 147.673 193.198 147.688 193.193C147.703 193.186 147.716 193.175 147.726 193.161C147.735 193.147 147.74 193.13 147.74 193.113ZM146.457 191.76C146.457 191.736 146.457 191.671 146.64 191.652H146.687C146.805 191.65 146.919 191.692 147.007 191.769C147.249 192.054 147.411 192.398 147.477 192.766C147.491 192.824 147.5 192.884 147.505 192.944L147.336 192.831C146.908 192.507 146.438 191.976 146.457 191.76Z" fill="#FF6D38"/>
<path d="M148.05 192.658L152.252 192.634C152.328 192.634 152.403 192.66 152.462 192.708C152.522 192.756 152.564 192.823 152.581 192.897L153.361 196.309C153.378 196.381 153.38 196.455 153.368 196.528C153.356 196.6 153.33 196.67 153.291 196.732C153.252 196.795 153.202 196.849 153.142 196.892C153.082 196.934 153.014 196.965 152.943 196.982H152.825C151.312 196.982 149.963 196.888 148.078 196.902C145.855 196.902 146.419 197.174 143.806 197.226C142.231 197.259 141.926 195.468 142.603 195.379C145.658 194.975 145.968 194.049 147.143 192.949C147.4 192.745 147.722 192.642 148.05 192.658Z" fill="#263238"/>
<path d="M140.408 108.504L124.136 184.644L130.134 186.237C134.617 176.424 138.377 166.38 141.179 158.507C142.509 154.78 143.059 151.274 144.06 147.989C145.272 144.083 146.903 140.492 147.73 137.212C152.078 120.038 151.73 111.437 151.73 111.437L152.67 109.172L140.408 108.504Z" fill="#263238"/>
<path opacity="0.3" d="M150.4 124.846C149.812 128.31 148.962 132.446 147.744 137.249C147.35 138.81 144.704 146.325 144.074 148.027C143.341 137.029 145.855 118.417 145.855 118.417L150.4 124.846Z" fill="black"/>
<path d="M145.404 108.894L146.63 150.724L147.707 187.384L153.347 187.774C154.921 178.802 156.077 170.666 156.905 163.334C157.45 158.545 156.529 155.044 156.82 150.94C156.872 150.259 156.923 149.559 156.985 148.844C157.982 137.096 158.05 125.287 157.187 113.528C157.022 111.287 156.909 109.768 156.909 109.768L145.39 108.297L145.404 108.894Z" fill="#263238"/>
<path d="M129.339 188.381L123.408 186.552L123.812 184.136L130.43 186.261L129.339 188.381Z" fill="#FF6D38"/>
<path opacity="0.5" d="M129.339 188.381L123.408 186.552L123.812 184.136L130.43 186.261L129.339 188.381Z" fill="white"/>
<path d="M144.596 82.3627C143.49 83.9991 142.666 85.8083 142.156 87.716C141.905 88.5755 141.707 89.4498 141.564 90.3339L141.155 91.4572L137.527 90.0143L136.953 89.7887C137.837 85.8078 141.259 82.2076 143.797 82.2687C144.066 82.2602 144.335 82.2919 144.596 82.3627Z" fill="#FF6D38"/>
<path opacity="0.2" d="M144.596 82.3627C143.49 83.9991 142.666 85.8083 142.156 87.716C141.905 88.5755 141.707 89.4498 141.564 90.3339L141.155 91.4572L137.527 90.0143L136.953 89.7887C137.837 85.8078 141.259 82.2076 143.797 82.2687C144.066 82.2602 144.335 82.2919 144.596 82.3627Z" fill="white"/>
<path d="M140.06 108.147C140.497 107.169 140.441 105.266 141.884 104.904C143.801 104.434 145.38 104.293 152.929 104.932C156.491 105.238 157.281 108.081 157.159 109.543C157.144 109.737 157.078 109.924 156.966 110.083L156.815 110.299C156.463 110.436 140.309 108.645 140.149 108.744C140.081 108.662 140.037 108.563 140.021 108.458C140.006 108.353 140.019 108.245 140.06 108.147Z" fill="#FF6D38"/>
<path opacity="0.2" d="M140.06 108.147C140.497 107.169 140.441 105.266 141.884 104.904C143.801 104.434 145.38 104.293 152.929 104.932C156.491 105.238 157.281 108.081 157.159 109.543C157.144 109.737 157.078 109.924 156.966 110.083L156.815 110.299C156.463 110.436 140.309 108.645 140.149 108.744C140.081 108.662 140.037 108.563 140.021 108.458C140.006 108.353 140.019 108.245 140.06 108.147Z" fill="white"/>
<path d="M143.989 82.3345C143.886 82.5272 140.676 82.8609 140.929 96.9045C140.962 98.714 140.502 102.544 140.502 102.544L140.032 103.715C139.843 104.19 139.76 104.7 139.787 105.21C139.815 105.721 139.953 106.219 140.191 106.671L140.426 107.108L156.703 108.763H157.173C157.173 108.763 158.221 100.265 159.621 94.5827C160.091 92.7309 160.561 90.4561 160.561 90.4561C160.231 88.315 160.074 86.1506 160.091 83.9842C160.091 83.9842 160.091 83.9607 160.091 83.956C158.119 83.3715 156.107 82.9317 154.071 82.64C151.908 82.3103 149.725 82.1328 147.538 82.1089C145.503 82.217 143.994 82.3298 143.989 82.3345Z" fill="#FF6D38"/>
<path d="M154.052 75.2939C153.469 77.3666 152.74 81.1877 154.099 82.7105L153.069 83.7868C152.659 84.2077 152.142 84.5088 151.573 84.6579C151.004 84.8071 150.406 84.7986 149.841 84.6334C149.277 84.4682 148.769 84.1525 148.37 83.7202C147.972 83.2879 147.699 82.7552 147.58 82.1795C149.963 81.8035 149.46 79.4111 149.892 77.1034L154.052 75.2939Z" fill="#FFC2BC"/>
<path opacity="0.2" d="M148.628 74.73C149.098 76.3844 149.794 79.0446 149.295 80.8823C151.434 81.0703 152.853 79.1292 152.943 78.5088C152.679 77.7782 152.472 77.0288 152.322 76.2669L148.628 74.73Z" fill="black"/>
<path d="M154.682 72.0556C154.423 75.5806 154.395 77.0752 152.595 78.8612C149.888 81.5543 145.615 80.4686 144.812 76.9436C144.088 73.7664 144.628 68.5447 148.102 67.177C148.864 66.8754 149.691 66.7732 150.504 66.88C151.317 66.9868 152.089 67.2991 152.748 67.7874C153.406 68.2758 153.929 68.924 154.268 69.6708C154.606 70.4177 154.749 71.2384 154.682 72.0556Z" fill="#FFC2BC"/>
<path d="M156.717 70.42C156.358 71.7527 156.121 73.1149 156.007 74.4903H154.663C154.542 74.6105 154.457 74.7624 154.418 74.9286C154.379 75.0948 154.387 75.2686 154.442 75.4303C154.215 75.331 154.022 75.1677 153.887 74.9603C153.79 74.7564 153.742 74.5327 153.746 74.307C153.713 73.4415 153.62 72.5794 153.469 71.7266C152.778 71.4446 151.979 71.5198 151.335 71.1438C149.886 70.3181 148.625 69.1973 147.636 67.8538C147.101 68.1044 146.626 68.4657 146.241 68.9137C145.856 69.3618 145.571 69.8864 145.404 70.4529C145.247 70.4836 145.085 70.4675 144.938 70.4064C144.791 70.3454 144.665 70.2422 144.577 70.1098C144.406 69.8407 144.31 69.5308 144.299 69.2121C144.205 68.3816 144.419 67.5453 144.901 66.8621C145.256 66.3932 145.774 66.0745 146.353 65.9691C146.599 65.9734 146.844 65.9433 147.082 65.8798C147.326 65.767 147.552 65.4757 147.787 65.3253C148.333 65.0236 148.933 64.8327 149.554 64.7633C150.174 64.6939 150.802 64.7475 151.401 64.9211C152.889 65.406 154.236 66.2465 155.325 67.3697C155.941 67.976 156.947 69.6069 156.717 70.42Z" fill="#263238"/>
<path d="M155.908 75.4443C155.564 76.0344 154.999 76.4638 154.338 76.6381C153.464 76.859 153.046 76.0741 153.304 75.2563C153.539 74.5184 154.282 73.5314 155.147 73.6536C155.45 73.7075 155.719 73.8793 155.895 74.1313C156.071 74.3833 156.14 74.695 156.087 74.9978C156.06 75.1578 155.999 75.3101 155.908 75.4443Z" fill="#FFC2BC"/>
<path d="M149.225 72.9392C149.225 73.2494 149.051 73.4891 148.854 73.4938C148.656 73.4985 148.492 73.24 148.492 72.9345C148.492 72.629 148.666 72.3846 148.863 72.3799C149.06 72.3752 149.225 72.6337 149.225 72.9392Z" fill="#263238"/>
<path d="M145.737 72.9017C145.737 73.2119 145.564 73.4516 145.361 73.4563C145.159 73.461 145 73.2025 145.004 72.8923C145.009 72.5821 145.173 72.3424 145.376 72.3377C145.578 72.333 145.752 72.5868 145.737 72.9017Z" fill="#263238"/>
<path d="M147.11 73.5408C146.826 74.2418 146.448 74.9011 145.987 75.5007C146.143 75.6128 146.322 75.6898 146.511 75.7263C146.7 75.7628 146.895 75.758 147.082 75.7122L147.11 73.5408Z" fill="#EC837E"/>
<path d="M148.177 76.7557C148.003 76.8304 147.822 76.8871 147.636 76.9249C147.616 76.9291 147.594 76.925 147.577 76.9136C147.559 76.9021 147.547 76.8842 147.542 76.8638C147.541 76.8441 147.546 76.8244 147.557 76.8081C147.568 76.7918 147.584 76.7799 147.603 76.7745C147.983 76.7046 148.342 76.5461 148.649 76.3117C148.956 76.0773 149.203 75.7737 149.371 75.4256C149.375 75.4063 149.387 75.3896 149.404 75.379C149.42 75.3685 149.441 75.3649 149.46 75.3692C149.469 75.3703 149.477 75.3732 149.485 75.3776C149.492 75.382 149.499 75.3879 149.504 75.3949C149.509 75.4019 149.513 75.4099 149.515 75.4184C149.517 75.4269 149.518 75.4357 149.516 75.4444C149.259 76.0404 148.778 76.5114 148.177 76.7557Z" fill="#263238"/>
<path d="M150.447 71.1955C150.427 71.2025 150.405 71.2035 150.384 71.1985C150.363 71.1935 150.344 71.1827 150.329 71.1673C150.189 71.0235 150.017 70.9156 149.826 70.8526C149.635 70.7896 149.432 70.7734 149.234 70.8054C149.2 70.8113 149.164 70.8039 149.134 70.7848C149.105 70.7656 149.083 70.7361 149.074 70.702C149.068 70.6873 149.064 70.6713 149.064 70.6551C149.063 70.6389 149.066 70.6227 149.072 70.6077C149.079 70.5927 149.088 70.5791 149.099 70.5679C149.111 70.5566 149.125 70.5479 149.14 70.5422C149.379 70.5014 149.625 70.519 149.855 70.5934C150.086 70.6679 150.296 70.7971 150.466 70.9699C150.491 70.9932 150.508 71.0247 150.513 71.0589C150.518 71.0932 150.512 71.1281 150.494 71.1579C150.489 71.1673 150.483 71.1755 150.475 71.182C150.466 71.1885 150.457 71.1931 150.447 71.1955Z" fill="#263238"/>
<path d="M144.816 71.3601C144.792 71.37 144.765 71.3726 144.739 71.3676C144.713 71.3626 144.689 71.3502 144.67 71.3319C144.657 71.3184 144.646 71.3022 144.639 71.2845C144.631 71.2668 144.627 71.2477 144.627 71.2285C144.627 71.2093 144.631 71.1902 144.639 71.1725C144.646 71.1548 144.657 71.1386 144.67 71.1251C144.848 70.9053 145.077 70.7319 145.336 70.6198C145.596 70.5076 145.878 70.4601 146.16 70.4812C146.179 70.4824 146.198 70.4874 146.215 70.4959C146.232 70.5044 146.247 70.5162 146.259 70.5307C146.272 70.5452 146.281 70.562 146.286 70.5802C146.292 70.5983 146.294 70.6174 146.292 70.6363C146.286 70.6758 146.265 70.7115 146.234 70.736C146.202 70.7605 146.163 70.772 146.123 70.7679C145.89 70.7537 145.658 70.7959 145.445 70.8908C145.232 70.9857 145.046 71.1306 144.901 71.3131C144.877 71.3355 144.848 71.3517 144.816 71.3601Z" fill="#263238"/>
<path d="M153.525 81.5872L154.827 82.8139C154.827 82.8139 150.127 86.1039 150.047 85.8924C149.724 85.4388 149.37 85.007 148.99 84.5999L153.525 81.5872Z" fill="#FF6D38"/>
<path d="M148.774 81.4744L147.115 82.1324C147.115 82.1324 147.397 85.6856 147.542 85.5164C148.009 85.2067 148.496 84.9287 148.999 84.6845L148.774 81.4744Z" fill="#FF6D38"/>
<path opacity="0.2" d="M153.525 81.5872L154.827 82.8139C154.827 82.8139 150.127 86.1039 150.047 85.8924C149.724 85.4388 149.37 85.007 148.99 84.5999L153.525 81.5872Z" fill="white"/>
<path opacity="0.2" d="M148.774 81.4744L147.115 82.1324C147.115 82.1324 147.397 85.6856 147.542 85.5164C148.009 85.2067 148.496 84.9287 148.999 84.6845L148.774 81.4744Z" fill="white"/>
<path d="M147.89 96.1432C148.191 96.5897 150.64 96.1432 150.64 96.1432L152.741 96.2889C152.854 96.2902 152.964 96.2505 153.05 96.1771C153.137 96.1037 153.194 96.0015 153.211 95.8894L153.793 93.2339C153.802 93.1724 153.786 93.1101 153.749 93.0602C153.712 93.0102 153.657 92.9765 153.596 92.966L151.937 92.6699C151.269 92.5478 150.581 92.6929 150.019 93.0741L148.261 94.2679L147.89 96.1432Z" fill="#FFC2BC"/>
<path d="M148.351 94.1362L148.243 96.1807C148.243 96.1807 138.796 99.7292 136.088 98.1782C134.312 97.163 136.088 92.8578 137.527 90.0049L141.155 91.3632L139.957 94.4699L148.351 94.1362Z" fill="#FFC2BC"/>
<g opacity="0.1">
<path d="M147.89 96.143C148.191 96.5895 150.64 96.143 150.64 96.143L152.741 96.2887C152.854 96.29 152.964 96.2503 153.05 96.1768C153.137 96.1034 153.194 96.0013 153.211 95.8892L153.793 93.2337C153.802 93.1722 153.786 93.1099 153.749 93.0599C153.712 93.0099 153.657 92.9762 153.596 92.9658L151.937 92.6697C151.269 92.5475 150.581 92.6927 150.019 93.0739L148.261 94.2677L147.89 96.143Z" fill="black"/>
<path d="M148.351 94.1362L148.243 96.1807C148.243 96.1807 138.796 99.7292 136.088 98.1782C134.312 97.163 136.088 92.8578 137.527 90.0049L141.155 91.3632L139.957 94.4699L148.351 94.1362Z" fill="black"/>
</g>
<path d="M159.532 85.5071L152.567 95.0951L142.363 93.2151L141.893 95.2267C141.893 95.2267 151.763 100.603 154.475 99.029C157.187 97.4545 161.713 87.9229 161.713 87.9229L159.532 85.5071Z" fill="#FFC2BC"/>
<path d="M141.902 95.222C141.597 95.6638 139.153 95.1891 139.153 95.1891L137.052 95.3066C136.937 95.3076 136.826 95.2665 136.74 95.1912C136.653 95.1159 136.597 95.0115 136.582 94.8977L136.032 92.2422C136.024 92.1807 136.04 92.1184 136.077 92.0684C136.114 92.0184 136.168 91.9847 136.23 91.9743L137.898 91.697C138.568 91.5848 139.255 91.7401 139.811 92.1294L142.354 93.2809L141.902 95.222Z" fill="#FFC2BC"/>
<path d="M160.853 84.5998C162.493 86.5362 162.014 91.3302 159.65 94.3758L153.892 90.9918C153.892 90.9918 157.271 85.286 159.133 84.1627C159.932 83.6927 160.27 83.8995 160.853 84.5998Z" fill="#FF6D38"/>
<path opacity="0.2" d="M160.853 84.5998C162.493 86.5362 162.014 91.3302 159.65 94.3758L153.892 90.9918C153.892 90.9918 157.271 85.286 159.133 84.1627C159.932 83.6927 160.27 83.8995 160.853 84.5998Z" fill="white"/>
<path d="M109.017 193.56L112.669 194.063L116.4 186.778L112.358 186.106L109.017 193.56Z" fill="#FFC2BC"/>
<path opacity="0.2" d="M112.358 186.106L116.4 186.778L114.365 190.74L110.539 190.167L112.358 186.106Z" fill="black"/>
<path d="M113.74 192.7L109.223 192.456C109.149 192.449 109.075 192.47 109.014 192.514C108.954 192.558 108.911 192.623 108.894 192.695L107.978 195.985C107.959 196.054 107.953 196.126 107.962 196.197C107.971 196.268 107.994 196.336 108.029 196.399C108.064 196.461 108.112 196.515 108.168 196.559C108.225 196.602 108.29 196.634 108.359 196.653H108.486C109.947 196.709 111 196.676 112.852 196.775C113.985 196.836 117.387 197.142 118.962 197.245C120.536 197.348 120.809 195.793 120.179 195.619C117.359 194.839 115.244 193.838 114.365 192.982C114.202 192.81 113.977 192.708 113.74 192.7Z" fill="#263238"/>
<path d="M113.961 193.17C113.943 193.166 113.927 193.155 113.916 193.141C113.905 193.126 113.899 193.108 113.9 193.09C113.896 193.073 113.898 193.056 113.906 193.04C113.914 193.025 113.926 193.013 113.942 193.006C114.078 192.93 115.324 192.258 115.723 192.489C115.768 192.514 115.805 192.552 115.829 192.598C115.853 192.644 115.864 192.695 115.86 192.747C115.87 192.837 115.856 192.928 115.819 193.011C115.781 193.094 115.722 193.165 115.648 193.217C115.431 193.348 115.175 193.4 114.924 193.363C114.597 193.336 114.273 193.272 113.961 193.17ZM115.517 192.644C115.064 192.702 114.625 192.844 114.224 193.062C114.648 193.234 115.121 193.234 115.545 193.062C115.591 193.025 115.628 192.978 115.651 192.924C115.675 192.87 115.685 192.811 115.681 192.752C115.681 192.731 115.677 192.711 115.669 192.693C115.661 192.674 115.649 192.657 115.634 192.644C115.595 192.634 115.555 192.634 115.517 192.644Z" fill="#FE7A36"/>
<path d="M113.951 193.231C113.94 193.22 113.93 193.207 113.924 193.193C113.917 193.178 113.914 193.162 113.914 193.147C113.914 193.09 114.045 192.028 114.497 191.704C114.55 191.661 114.612 191.63 114.679 191.614C114.745 191.598 114.815 191.596 114.882 191.61C114.948 191.612 115.011 191.638 115.06 191.683C115.109 191.728 115.141 191.788 115.15 191.854C115.202 192.249 114.417 193.029 114.022 193.217H113.98L113.951 193.231ZM114.807 191.746C114.735 191.746 114.665 191.771 114.609 191.816C114.329 192.135 114.152 192.532 114.102 192.954C114.501 192.691 115.009 192.094 114.971 191.849C114.971 191.826 114.971 191.76 114.854 191.751H114.807V191.746Z" fill="#FE7A36"/>
<path d="M89.535 172.401L92.2093 172.499C96.6633 172.292 101.085 171.636 105.407 170.54C109.275 169.6 115.686 166.639 115.686 166.639C113.623 175.465 109.905 188.917 109.905 188.917L115.648 189.579C115.648 189.579 130.604 161.088 124.005 157.826C118.106 154.677 95.2878 156.745 95.2878 156.745L92.9378 154.278L76.9907 155.57C76.9907 155.57 73.9404 172.377 89.535 172.401Z" fill="#263238"/>
<path d="M116.015 190.74L109.444 188.747L110.234 186.007L117.354 188.719L116.015 190.74Z" fill="#FE7A36"/>
<path opacity="0.5" d="M116.015 190.74L109.444 188.747L110.234 186.007L117.354 188.719L116.015 190.74Z" fill="white"/>
<path opacity="0.4" d="M91.5137 166.169C93.1164 170.869 105.294 170.399 106.991 170.173C96.9657 172.105 95.0763 172.368 92.2093 172.5L89.535 172.401C88.6998 172.4 87.8657 172.339 87.0393 172.218C88.2801 164.138 89.5773 160.496 91.5137 166.169Z" fill="black"/>
<path d="M58.6841 185.443L58.2141 189.138L66.7352 190.529L67.2052 186.83L58.6841 185.443Z" fill="#FFC2BC"/>
<path d="M58.971 189.65L61.6218 185.96C61.6643 185.9 61.6852 185.827 61.6809 185.754C61.6766 185.681 61.6475 185.611 61.5983 185.556L59.3376 183.023C59.2396 182.915 59.103 182.851 58.9576 182.844C58.8123 182.837 58.67 182.887 58.5621 182.985C58.5357 183.016 58.515 183.051 58.501 183.089C57.6644 184.292 57.1239 185.194 56.0429 186.703C55.3849 187.619 53.2887 190.331 52.3816 191.596C51.4745 192.86 52.6072 193.946 53.0913 193.476C55.2768 191.511 57.2367 190.265 58.4446 189.998C58.6571 189.951 58.8446 189.827 58.971 189.65Z" fill="#263238"/>
<path d="M58.4022 189.556C58.4171 189.547 58.4341 189.542 58.4516 189.542C58.469 189.542 58.4861 189.547 58.5009 189.556C58.5166 189.563 58.5293 189.575 58.537 189.591C58.5447 189.606 58.5469 189.624 58.5432 189.64C58.5432 189.8 58.4351 191.21 58.0262 191.417C57.9826 191.445 57.9321 191.459 57.8805 191.459C57.8289 191.459 57.7784 191.445 57.7348 191.417C57.6553 191.376 57.5878 191.315 57.5392 191.24C57.4906 191.165 57.4624 191.079 57.4575 190.989C57.4625 190.735 57.5555 190.491 57.7207 190.298C57.9206 190.027 58.1491 189.778 58.4022 189.556ZM58.3552 189.838C57.9794 190.102 57.72 190.501 57.6314 190.952C57.6382 191.011 57.6587 191.068 57.6913 191.117C57.724 191.167 57.7678 191.209 57.8194 191.238C57.8805 191.271 57.9275 191.267 57.9369 191.238C57.9748 191.222 58.0062 191.194 58.0262 191.158C58.2162 190.742 58.3278 190.294 58.3552 189.838Z" fill="#FE7A36"/>
<path d="M58.407 189.528C58.4356 189.516 58.4677 189.516 58.4963 189.528C58.5386 189.565 59.3517 190.266 59.3846 190.82C59.3907 190.887 59.3826 190.954 59.3607 191.017C59.3388 191.08 59.3037 191.138 59.2577 191.187C59.2196 191.242 59.1636 191.282 59.0992 191.3C59.0349 191.318 58.9662 191.313 58.9052 191.285C58.5386 191.116 58.3083 190.035 58.3647 189.603V189.565C58.3685 189.556 58.3743 189.548 58.3816 189.542C58.3889 189.535 58.3976 189.53 58.407 189.528ZM59.2342 190.862C59.1133 190.455 58.8725 190.093 58.5433 189.824C58.5457 190.307 58.7113 190.776 59.0133 191.154C59.0264 191.161 59.0409 191.165 59.0558 191.166C59.0707 191.168 59.0857 191.166 59.0998 191.161C59.1139 191.156 59.1269 191.148 59.1379 191.138C59.1489 191.128 59.1577 191.116 59.1637 191.102V191.06C59.2034 191.002 59.2231 190.933 59.2201 190.862H59.2342Z" fill="#FE7A36"/>
<path opacity="0.2" d="M67.2007 186.825L66.7307 190.529L62.3362 189.809L62.8109 186.111L67.2007 186.825Z" fill="black"/>
<path d="M91.8522 162.672C93.1494 164.726 97.6332 189.504 89.2625 195.041C83.0961 199.106 63.6851 191.412 63.6851 191.412L64.3055 185.26C64.3055 185.26 80.074 188.212 82.0245 186.623C83.975 185.034 77.4655 167.823 77.1459 163.795C76.8263 159.767 91.8522 162.672 91.8522 162.672Z" fill="#263238"/>
<path d="M63.2527 191.859L63.4642 184.992L66.3124 185.044L65.551 192.625L63.2527 191.859Z" fill="#FE7A36"/>
<path opacity="0.5" d="M63.2527 191.859L63.4642 184.992L66.3124 185.044L65.551 192.625L63.2527 191.859Z" fill="white"/>
<path d="M93.6099 154.926C93.107 153.986 91.5748 152.139 90.099 151.881C88.1391 151.538 87.7208 151.462 80.1585 152.623C76.5912 153.168 76.3327 155.97 76.5301 157.422C76.557 157.617 76.6366 157.8 76.7604 157.953L76.9249 158.155C77.2915 158.268 93.3749 155.443 93.5394 155.533C93.6061 155.448 93.648 155.346 93.6604 155.239C93.6728 155.132 93.6554 155.024 93.6099 154.926Z" fill="#FE7A36"/>
<path opacity="0.2" d="M93.6099 154.926C93.107 153.986 91.5748 152.139 90.099 151.881C88.1391 151.538 87.7208 151.462 80.1585 152.623C76.5912 153.168 76.3327 155.97 76.5301 157.422C76.557 157.617 76.6366 157.8 76.7604 157.953L76.9249 158.155C77.2915 158.268 93.3749 155.443 93.5394 155.533C93.6061 155.448 93.648 155.346 93.6604 155.239C93.6728 155.132 93.6554 155.024 93.6099 154.926Z" fill="white"/>
<path d="M111.066 127.84C112.108 127.764 113.118 127.442 114.013 126.9C114.629 126.468 115.154 125.919 115.559 125.283C115.688 125.093 115.743 124.863 115.714 124.635C115.646 124.101 115.435 123.596 115.103 123.173C115.012 123.063 114.882 122.992 114.74 122.976C114.598 122.959 114.456 122.998 114.342 123.084C113.796 123.474 113.176 123.883 112.687 124.263C111.31 124.522 110.003 125.791 109.891 127.187C110.262 127.37 110.69 127.643 111.066 127.84Z" fill="#FFC2BC"/>
<path d="M111.667 125.993L112.043 127.812C112.043 127.812 102.996 134.218 101.271 134.312C100.086 134.378 98.7139 134.439 97.2945 134.486C95.6683 134.542 93.9716 134.575 92.43 134.566C89.6429 134.542 87.3634 134.359 86.8981 133.87C85.4881 132.38 86.9968 130.03 89.2011 130.054C92.0728 130.082 97.0924 130.763 101.858 130.58C103.489 130.519 111.667 125.993 111.667 125.993Z" fill="#FFC2BC"/>
<path opacity="0.2" d="M97.29 134.486C95.6638 134.542 93.9671 134.575 92.4255 134.566L90.71 132.112C92.9793 132.674 95.1843 133.47 97.29 134.486Z" fill="black"/>
<path d="M91.6498 129.527C91.6498 129.527 87.6595 128.771 86.9827 130.698C86.3059 132.625 88.0825 136.056 93.6285 135.454L94.1925 129.588L91.6498 129.527Z" fill="#FE7A36"/>
<path opacity="0.2" d="M91.6498 129.527C91.6498 129.527 87.6595 128.771 86.9827 130.698C86.3059 132.625 88.0825 136.056 93.6285 135.454L94.1925 129.588L91.6498 129.527Z" fill="white"/>
<path d="M88.5996 129.574C88.7077 129.762 91.7439 133.753 92.1669 136.864C92.4724 139.111 92.1669 141.564 92.1246 144.064C92.0917 145.869 92.7309 149.704 92.7309 149.704L93.2338 150.861C93.4371 151.33 93.5364 151.837 93.5251 152.348C93.5137 152.859 93.3919 153.362 93.168 153.822L92.9471 154.292L76.7274 156.463L76.6287 156.411C76.6287 156.411 75.1858 155.203 75.6652 153.667V152.477C76.3138 150.358 76.1352 147.627 74.5278 141.992C74.0155 140.154 73.4468 137.898 73.4468 137.898C73.8745 133.837 72.5538 131.788 72.5397 131.788C72.5256 131.788 72.5397 131.764 72.5397 131.76C74.4922 131.115 76.4886 130.613 78.5134 130.256C80.6644 129.854 82.8413 129.605 85.0276 129.513C87.0862 129.508 88.5949 129.57 88.5996 129.574Z" fill="#FE7A36"/>
<path d="M86.9969 115.282C88.0168 116.461 88.2377 118.102 88.6701 119.62C89.0226 120.842 89.7887 123.323 89.314 124.498C88.7735 125.838 86.1133 124.705 85.2297 125.843C81.7141 130.387 79.5897 128.432 78.2408 127.309C77.564 126.754 74.9931 126.204 74.3304 125.636C73.6677 125.067 72.535 124.78 73.0238 122.571C74.979 113.721 78.2267 113.2 82.5601 113.439C84.2192 113.529 85.8783 113.984 86.9969 115.282Z" fill="#263238"/>
<path d="M78.3159 122.858C78.9692 124.912 79.8199 128.705 78.5086 130.275L79.5708 131.318C79.9943 131.732 80.5229 132.021 81.0994 132.155C81.6758 132.289 82.2779 132.263 82.8404 132.079C83.4028 131.895 83.9041 131.56 84.2897 131.111C84.6753 130.662 84.9305 130.116 85.0275 129.532C82.6352 129.236 83.0629 126.83 82.5553 124.531L78.3159 122.858Z" fill="#FFC2BC"/>
<path opacity="0.2" d="M83.7209 122.106C83.2791 123.774 82.6963 126.458 83.2509 128.277C81.1171 128.536 79.6366 126.637 79.5332 126.021C79.7714 125.283 79.9521 124.527 80.0737 123.76L83.7209 122.106Z" fill="black"/>
<path d="M77.5875 119.639C77.9541 123.154 78.034 124.649 79.8905 126.378C82.6823 128.982 86.9405 127.76 87.6079 124.212C88.2283 121.016 87.5233 115.813 84.0171 114.553C83.245 114.273 82.414 114.195 81.6032 114.326C80.7923 114.457 80.0284 114.793 79.3841 115.303C78.7399 115.813 78.2366 116.478 77.9221 117.237C77.6077 117.996 77.4925 118.823 77.5875 119.639Z" fill="#FFC2BC"/>
<path d="M78.4336 121.486C78.7086 121.956 78.8546 122.491 78.8566 123.037C79.011 122.918 79.1212 122.752 79.1698 122.564C79.2184 122.375 79.2024 122.176 79.1245 121.998C79.0117 121.627 78.819 121.448 78.4336 121.486Z" fill="#263238"/>
<path d="M76.4642 123.065C76.8294 123.643 77.4065 124.054 78.0716 124.212C78.9552 124.404 79.35 123.605 79.0633 122.802C78.8095 122.073 78.034 121.11 77.1833 121.255C76.8821 121.32 76.6186 121.501 76.4504 121.759C76.2822 122.017 76.2229 122.331 76.2856 122.633C76.3147 122.788 76.3755 122.935 76.4642 123.065Z" fill="#FFC2BC"/>
<path d="M82.6166 120.461C82.6166 120.771 82.8046 121.006 83.002 121.006C83.1994 121.006 83.3592 120.738 83.3451 120.433C83.331 120.127 83.1524 119.888 82.955 119.892C82.7576 119.897 82.6025 120.156 82.6166 120.461Z" fill="#263238"/>
<path d="M86.0993 120.32C86.0993 120.626 86.2873 120.865 86.4894 120.861C86.6915 120.856 86.8466 120.597 86.8278 120.287C86.809 119.977 86.6445 119.742 86.4424 119.742C86.2403 119.742 86.0711 120 86.0993 120.32Z" fill="#263238"/>
<path d="M86.353 119.761L87.0768 119.535C87.0768 119.535 86.7337 120.094 86.353 119.761Z" fill="#263238"/>
<path d="M85.2014 120.884C85.5072 121.576 85.9057 122.222 86.3858 122.806C86.2329 122.924 86.0562 123.008 85.868 123.051C85.6797 123.094 85.4844 123.095 85.2954 123.055L85.2014 120.884Z" fill="#EC837E"/>
<path d="M84.2381 124.132C84.414 124.201 84.5967 124.252 84.7833 124.282C84.7932 124.284 84.8034 124.284 84.8133 124.282C84.8232 124.28 84.8326 124.276 84.8409 124.271C84.8492 124.265 84.8563 124.258 84.8618 124.249C84.8672 124.241 84.8709 124.231 84.8726 124.221C84.8744 124.202 84.8693 124.182 84.8582 124.165C84.847 124.149 84.8305 124.137 84.8115 124.132C84.4288 124.076 84.0649 123.93 83.7502 123.705C83.4355 123.48 83.179 123.183 83.002 122.839C82.9957 122.821 82.9834 122.806 82.9672 122.796C82.951 122.785 82.9318 122.781 82.9127 122.783C82.8948 122.786 82.8789 122.797 82.8684 122.812C82.8579 122.826 82.8535 122.845 82.8563 122.863C83.1339 123.45 83.6297 123.905 84.2381 124.132Z" fill="#263238"/>
<path d="M81.7799 118.177C81.8006 118.183 81.8225 118.183 81.8433 118.177C81.864 118.171 81.8827 118.16 81.8974 118.144C82.033 117.997 82.2019 117.884 82.39 117.815C82.578 117.747 82.7798 117.724 82.9784 117.749C83.0136 117.754 83.0493 117.745 83.0788 117.725C83.1082 117.705 83.1293 117.675 83.1382 117.641C83.1441 117.626 83.1469 117.609 83.1463 117.593C83.1457 117.576 83.1418 117.56 83.1347 117.545C83.1277 117.53 83.1177 117.517 83.1054 117.506C83.0931 117.495 83.0787 117.486 83.063 117.481C82.8227 117.448 82.5779 117.473 82.3495 117.555C82.1211 117.637 81.9159 117.773 81.7517 117.951C81.726 117.975 81.7095 118.006 81.7052 118.041C81.7009 118.075 81.7091 118.11 81.7282 118.139C81.7333 118.149 81.7406 118.158 81.7495 118.164C81.7585 118.171 81.7689 118.175 81.7799 118.177Z" fill="#263238"/>
<path d="M87.4199 118.163C87.445 118.171 87.4716 118.172 87.4972 118.166C87.5227 118.16 87.5463 118.148 87.5656 118.13C87.5935 118.102 87.6091 118.064 87.6091 118.024C87.6091 117.985 87.5935 117.947 87.5656 117.918C87.3811 117.704 87.1475 117.538 86.8847 117.434C86.622 117.33 86.3379 117.292 86.057 117.322C86.038 117.323 86.0195 117.329 86.0027 117.338C85.9859 117.347 85.9712 117.359 85.9593 117.374C85.9474 117.389 85.9387 117.406 85.9337 117.425C85.9287 117.443 85.9274 117.462 85.93 117.481C85.9369 117.521 85.9591 117.556 85.9917 117.578C86.0243 117.601 86.0647 117.61 86.1039 117.604C86.3361 117.585 86.5693 117.621 86.7849 117.709C87.0004 117.798 87.1922 117.935 87.3447 118.111C87.3628 118.137 87.3895 118.155 87.4199 118.163Z" fill="#263238"/>
<path d="M82.8704 119.911L83.5942 119.681C83.5942 119.681 83.2464 120.259 82.8704 119.911Z" fill="#263238"/>
<path d="M80.948 116.203C81.9867 117.472 78.2314 120.79 78.4335 121.486C77.4136 121.552 76.6569 119.413 76.6052 118.304C76.553 117.184 76.9031 116.082 77.5922 115.197C78.0293 114.638 78.8377 114.534 79.5474 114.44C79.7529 114.397 79.9666 114.413 80.1631 114.487C80.2813 114.551 80.3819 114.644 80.4557 114.756C80.5295 114.869 80.5743 114.997 80.5861 115.131C80.638 115.508 80.7608 115.872 80.948 116.203Z" fill="#263238"/>
<path d="M79.5474 114.44C80.2241 114.977 80.7229 115.706 80.9787 116.531C81.2345 117.356 81.2352 118.24 80.9809 119.065C81.4365 118.694 81.8136 118.235 82.0901 117.716C82.2353 117.446 82.3026 117.141 82.2843 116.834C82.2661 116.528 82.163 116.233 81.9867 115.982C82.4827 116.348 82.9014 116.808 83.2184 117.336C83.5355 117.865 83.7446 118.451 83.8338 119.06C84.0461 118.904 84.2214 118.703 84.3473 118.472C84.4732 118.24 84.5466 117.984 84.5623 117.721C84.5843 117.462 84.5494 117.202 84.4601 116.959C84.3708 116.715 84.2292 116.494 84.0453 116.311C84.4064 116.627 84.6818 117.03 84.8462 117.481C85.0105 117.932 85.0583 118.417 84.9853 118.891C85.2249 118.706 85.4163 118.466 85.5431 118.191C85.6699 117.916 85.7285 117.614 85.7138 117.312C85.6878 116.989 85.5899 116.675 85.4273 116.395C85.2646 116.114 85.0414 115.874 84.7738 115.691C85.2669 115.963 85.6801 116.359 85.9721 116.841C86.2641 117.322 86.4246 117.872 86.4376 118.435C87.5092 117.397 87.1473 115.907 85.8313 115.089C83.9029 114.056 81.6459 113.823 79.5474 114.44Z" fill="#263238"/>
<path d="M79.0306 129.133L77.771 130.397C77.771 130.397 82.5744 133.536 82.6449 133.325C82.9516 132.855 83.2892 132.406 83.6554 131.981L79.0306 129.133Z" fill="#FE7A36"/>
<path d="M83.7774 128.865L85.4553 129.476C85.4553 129.476 85.2908 133.034 85.1357 132.869C84.6624 132.57 84.1693 132.303 83.6599 132.07L83.7774 128.865Z" fill="#FE7A36"/>
<path opacity="0.2" d="M79.0306 129.133L77.771 130.397C77.771 130.397 82.5744 133.536 82.6449 133.325C82.9516 132.855 83.2892 132.406 83.6554 131.981L79.0306 129.133Z" fill="white"/>
<path opacity="0.2" d="M83.7774 128.865L85.4553 129.476C85.4553 129.476 85.2908 133.034 85.1357 132.869C84.6624 132.57 84.1693 132.303 83.6599 132.07L83.7774 128.865Z" fill="white"/>
<path d="M53.2039 143.956L49.1572 144.342L50.5672 147.519C51.6649 147.038 52.7145 146.454 53.7021 145.775L53.2039 143.956Z" fill="#FFC2BC"/>
<path d="M47.6627 146.772L47.7285 146.889C47.8524 147.104 48.0325 147.281 48.2495 147.401C48.4664 147.521 48.7121 147.58 48.9599 147.571L50.572 147.519L49.162 144.342L48.175 144.906C48.0184 144.994 47.8807 145.113 47.7701 145.255C47.6594 145.396 47.578 145.559 47.5303 145.732C47.4827 145.906 47.4699 146.087 47.4926 146.265C47.5153 146.444 47.5731 146.616 47.6627 146.772Z" fill="#FFC2BC"/>
<path d="M54.1111 145.658C54.1111 145.658 61.1847 146.306 67.807 143.181C67.807 143.181 72.2578 139.473 74.6642 136.356C78.2362 131.722 74.9133 130.326 72.2766 133.316C70.3214 135.534 65.7906 139.82 65.7906 139.82C60.0989 143.11 52.7058 144.135 52.7058 144.135C51.2723 146.203 54.1111 145.658 54.1111 145.658Z" fill="#FFC2BC"/>
<path d="M76.7133 131.553C78.3959 132.902 75.8861 136.427 72.6149 140.666L68.5588 135.402C68.5588 135.402 73.7053 129.142 76.7133 131.553Z" fill="#FE7A36"/>
<path opacity="0.2" d="M76.7133 131.553C78.3959 132.902 75.8861 136.427 72.6149 140.666L68.5588 135.402C68.5588 135.402 73.7053 129.142 76.7133 131.553Z" fill="white"/>
</svg>
