<svg width="42" height="39" viewBox="0 0 42 39" fill="none" xmlns="http://www.w3.org/2000/svg">
<path opacity="0.3" d="M31.5625 13.9372C31.5625 15.7247 31.075 17.431 30.1812 18.8935C29.8562 19.381 29.5312 19.8685 29.2062 20.2747C28.3937 21.2497 27.4187 21.981 26.2812 22.5497C25.7937 22.7935 25.3062 23.0372 24.7375 23.1997C23.8437 23.5247 22.8687 23.6872 21.8125 23.6872C16.45 23.6872 12.0625 19.2997 12.0625 13.9372C12.0625 12.881 12.225 11.906 12.55 10.931C12.7125 10.3622 12.9562 9.87471 13.2 9.38721C14.825 6.29971 18.075 4.10596 21.8937 4.10596C27.175 4.18721 31.5625 8.57471 31.5625 13.9372Z" fill="#FE7A36"/>
<path d="M32.375 31C32.1313 31 31.9688 30.9188 31.8063 30.7563L29.775 28.725C29.45 28.4 29.45 27.9125 29.775 27.5875C30.1 27.2625 30.5875 27.2625 30.9125 27.5875L32.375 29.05L35.8688 25.5563C36.1938 25.2313 36.6813 25.2313 37.0063 25.5563C37.3313 25.8813 37.3313 26.3688 37.0063 26.6938L32.9438 30.7563C32.7813 30.9188 32.6188 31 32.375 31Z" fill="#FE7A36"/>
<path d="M33.1871 38.3124C33.1059 38.3124 33.0246 38.3124 32.9434 38.3124C31.5621 37.9061 30.2621 37.2561 29.1246 36.3624C27.9871 35.4686 27.0934 34.4124 26.4434 33.1936C25.5496 31.5686 25.0621 29.7811 25.0621 27.9124V20.9249C25.0621 20.5999 25.3059 20.2749 25.6309 20.1124L32.9434 17.9999C33.1059 17.9186 33.2684 17.9186 33.3496 17.9999L40.6621 20.1124C40.9871 20.1936 41.2309 20.5186 41.2309 20.9249V27.9124C41.2309 32.7061 37.9809 37.0124 33.3496 38.3124C33.3496 38.3124 33.2684 38.3124 33.1871 38.3124ZM26.6871 21.4936V27.8311C26.6871 29.3749 27.0934 30.9186 27.8246 32.2999C28.3934 33.3561 29.2059 34.2499 30.0996 34.9811C30.9934 35.7124 32.0496 36.2811 33.1059 36.6061C36.9246 35.3874 39.6059 31.8124 39.6059 27.8311V21.4936L33.1871 19.6249L26.6871 21.4936ZM6.61836 27.7499C6.45586 27.7499 6.29336 27.6686 6.13086 27.5874L1.33711 23.9311C1.17461 23.7686 1.01211 23.6061 1.01211 23.3624C1.01211 23.1186 1.09336 22.8749 1.25586 22.7124L2.96211 21.0061C3.20586 20.7624 3.53086 20.6811 3.77461 20.8436L9.05586 22.6311C9.29961 22.7124 9.46211 22.8749 9.54336 23.1186C9.62461 23.3624 9.62461 23.6061 9.46211 23.8499L7.26836 27.4249C7.18711 27.5874 6.94336 27.7499 6.69961 27.8311C6.69961 27.7499 6.61836 27.7499 6.61836 27.7499ZM3.04336 23.1999L6.37461 25.7186L7.59336 23.7686L3.77461 22.4686L3.04336 23.1999ZM13.2809 35.5499C12.9559 35.5499 12.7934 35.3874 12.6309 35.2249L8.97461 30.4311C8.81211 30.2686 8.81211 30.0249 8.81211 29.7811C8.89336 29.5374 8.97461 29.3749 9.21836 29.2124L12.7934 27.0186C13.0371 26.8561 13.2809 26.8561 13.5246 26.9374C13.7684 27.0186 13.9309 27.1811 14.0121 27.4249L15.7996 32.7061C15.8809 33.0311 15.7996 33.3561 15.6371 33.5186L13.9309 35.2249C13.6871 35.4686 13.5246 35.5499 13.2809 35.5499ZM10.8434 30.1874L13.3621 33.5186L14.0934 32.7874L12.7934 28.9686L10.8434 30.1874ZM16.1246 15.4811C15.9621 15.4811 15.7996 15.3999 15.6371 15.3186L0.768359 4.99987C0.605859 4.83737 0.443359 4.67487 0.443359 4.43112C0.443359 4.18737 0.52461 3.94362 0.68711 3.78112L4.09961 0.368624C4.34336 0.124874 4.74961 0.0436242 4.99336 0.206124L22.2184 8.24987C22.4621 8.33112 22.6246 8.57487 22.7059 8.81862C22.7871 9.06237 22.7059 9.38737 22.4621 9.54987L16.6934 15.3186C16.6121 15.3999 16.3684 15.4811 16.1246 15.4811ZM2.47461 4.18737L16.0434 13.6124L20.5121 9.14362L4.83086 1.83112L2.47461 4.18737Z" fill="black"/>
<path d="M10.1934 4.26856C9.94961 4.26856 9.78711 4.18731 9.62461 4.02481C9.29961 3.69981 9.29961 3.2123 9.62461 2.8873L10.4371 2.0748C10.7621 1.7498 11.2496 1.7498 11.5746 2.0748C11.8996 2.3998 11.8996 2.88731 11.5746 3.21231L10.7621 4.02481C10.5996 4.18731 10.3559 4.26856 10.1934 4.26856ZM14.8246 6.4623C14.5809 6.4623 14.4184 6.38106 14.2559 6.21855C13.9309 5.89356 13.9309 5.40606 14.2559 5.08106L14.9871 4.3498C15.3121 4.0248 15.7996 4.0248 16.1246 4.3498C16.4496 4.6748 16.4496 5.16231 16.1246 5.48731L15.3934 6.21855C15.3121 6.38106 15.0684 6.4623 14.8246 6.4623ZM25.8746 26.9373C25.6309 26.9373 25.3871 26.7748 25.2246 26.6123L21.2434 20.9248C20.9996 20.5998 21.0809 20.1936 21.3246 19.8686L27.0934 14.0998C27.2559 13.9373 27.5809 13.8561 27.8246 13.8561C28.0684 13.9373 28.3121 14.0998 28.3934 14.3436L30.7496 19.3811C30.8309 19.6248 30.8309 19.8686 30.7496 20.0311C30.6684 20.2748 30.4246 20.4373 30.2621 20.4373L26.6871 21.4936V26.1248C26.6871 26.4498 26.4434 26.7748 26.1184 26.9373C26.0371 26.9373 25.9559 26.9373 25.8746 26.9373ZM22.9496 20.5186L25.0621 23.5248V20.9248C25.0621 20.5998 25.3059 20.2748 25.6309 20.1123L28.8809 19.2186L27.4184 16.0498L22.9496 20.5186Z" fill="black"/>
<path d="M6.26718 30.4305L6.25468 30.4159L6.2411 30.4023C5.51967 29.6809 5.37009 28.472 5.91131 27.5174L10.7815 19.6439L10.8563 19.523V19.5193C10.8616 19.5103 10.8668 19.5009 10.8718 19.4912L25.8224 4.5407C27.9705 2.39253 31.1213 1.54451 34.0437 2.23533C34.1029 2.25057 34.1385 2.27629 34.1667 2.30757C34.1977 2.34198 34.2275 2.39293 34.2523 2.46291C34.6272 3.90196 34.554 5.43128 34.1665 6.90365C33.7838 8.35797 33.018 9.66209 31.9402 10.7398L31.9393 10.7408L17.0551 25.7059H17.0392L16.9183 25.7807L9.03702 30.6557L9.02978 30.6602L9.0227 30.6649C8.60052 30.9463 8.2079 31.0684 7.83755 31.0684C7.20884 31.0684 6.63466 30.8592 6.26718 30.4305ZM17.1983 25.7058H17.1982C17.1986 25.7058 17.1986 25.7058 17.1983 25.7058ZM11.3047 20.0004L11.2619 20.0428L11.2303 20.0941L6.44103 27.8868C5.98056 28.5856 6.11173 29.4122 6.6715 29.972C7.23127 30.5317 8.05786 30.6629 8.75661 30.2024L16.5494 25.4131L16.5995 25.3823L16.6411 25.3407L31.5911 10.3907C32.5331 9.44868 33.3168 8.2387 33.6694 6.8401C34.0195 5.6925 34.0134 4.3982 33.8442 3.29862L33.7892 2.94094L33.4323 2.88145C30.85 2.45108 28.1623 3.22178 26.3309 5.13661L11.3047 20.0004Z" fill="#3CC451" stroke="black"/>
</svg>
