<svg width="42" height="35" viewBox="0 0 42 35" fill="none" xmlns="http://www.w3.org/2000/svg">
<path opacity="0.3" d="M30.1148 9.04179C30.1148 10.6858 29.6664 12.255 28.8445 13.6C28.5456 14.0484 28.2467 14.4968 27.9477 14.8704C27.2005 15.7671 26.3038 16.4396 25.2576 16.9627C24.8093 17.1869 24.3609 17.411 23.8378 17.5605C23.0159 17.8594 22.1192 18.0089 21.1477 18.0089C16.2158 18.0089 12.1807 13.9737 12.1807 9.04179C12.1807 8.07036 12.3301 7.17365 12.629 6.27694C12.7785 5.75386 13.0026 5.30551 13.2268 4.85716C14.7213 2.01759 17.7104 0 21.2225 0C26.0796 0.0747255 30.1148 4.1099 30.1148 9.04179Z" fill="#FE7A36"/>
<path d="M33.851 27.724C33.6268 27.724 33.4773 27.6492 33.3279 27.4998L31.4596 25.6315C31.1606 25.3325 31.1606 24.8841 31.4596 24.5852C31.7585 24.2863 32.2069 24.2863 32.5058 24.5852L33.851 25.9304L37.0645 22.7169C37.3635 22.4179 37.8119 22.4179 38.1108 22.7169C38.4097 23.0158 38.4097 23.4642 38.1108 23.7631L34.3741 27.4998C34.2247 27.6492 34.0752 27.724 33.851 27.724Z" fill="#FE7A36"/>
<path d="M34.5976 34.4484C34.5228 34.4484 34.4481 34.4484 34.3734 34.4484C33.103 34.0747 31.9074 33.4769 30.8613 32.6549C29.8151 31.833 28.9931 30.8615 28.3953 29.7407C27.5734 28.2461 27.125 26.6022 27.125 24.8835V18.4571C27.125 18.1582 27.3492 17.8593 27.6481 17.7098L34.3734 15.767C34.5228 15.6923 34.6723 15.6923 34.747 15.767L41.4723 17.7098C41.7712 17.7846 41.9954 18.0835 41.9954 18.4571V24.8835C41.9954 29.2923 39.0064 33.2528 34.747 34.4484C34.747 34.4484 34.6723 34.4484 34.5976 34.4484ZM28.6195 18.9802V24.8088C28.6195 26.2286 28.9931 27.6483 29.6657 28.9187C30.1887 29.8901 30.936 30.7121 31.758 31.3846C32.58 32.0571 33.5514 32.5802 34.5228 32.8791C38.0349 31.7582 40.5009 28.4703 40.5009 24.8088V18.9802L34.5976 17.2615L28.6195 18.9802Z" fill="black"/>
<path d="M21.0726 34.9717H20.9979C20.9231 34.9717 20.7737 34.9717 20.699 34.897C20.1012 34.5981 6.50112 26.9761 2.98902 21.6706C0.971432 18.7563 0 15.9167 0 13.2266C0 10.0134 1.41979 6.94967 4.18463 4.18482C6.12749 2.24196 8.59344 1.1958 11.2836 1.1958H11.3583C14.0484 1.1958 16.5891 2.24196 18.4572 4.18482L20.9979 6.72549L23.5385 4.18482C25.4814 2.24196 27.9473 1.1958 30.6375 1.1958H30.7122C33.4023 1.1958 35.943 2.24196 37.8111 4.18482C42.0705 8.44418 43.0419 13.2266 40.8001 18.4574C40.6507 18.831 40.2771 18.9805 39.9034 18.9057L34.5979 17.2618L28.6199 18.9805V24.8091C28.6199 26.2288 28.9935 27.6486 29.666 28.919C29.8902 29.2926 29.7408 29.6662 29.4419 29.8904C25.332 32.6552 21.4462 34.8223 21.3715 34.8223C21.2968 34.897 21.222 34.9717 21.0726 34.9717ZM11.2836 2.69031C8.96706 2.69031 6.80002 3.58702 5.23079 5.23098C2.76484 7.69692 1.49451 10.387 1.49451 13.2266C1.49451 15.6178 2.39122 18.1585 4.18463 20.8486C7.17365 25.4069 18.9056 32.1322 21.0726 33.4025C22.044 32.8794 24.9583 31.1607 28.0968 29.0684C27.4243 27.7234 27.1254 26.3036 27.1254 24.8091V18.3827C27.1254 18.0838 27.3495 17.7849 27.6484 17.6354L34.3737 15.6926C34.5232 15.6178 34.6726 15.6178 34.7474 15.6926L39.754 17.1123C41.3979 12.7035 40.4265 8.66835 36.8397 5.08153C35.1957 3.43757 33.0287 2.54086 30.7869 2.54086C30.7869 2.54086 30.7869 2.54086 30.7122 2.54086C28.3957 2.54086 26.2287 3.43757 24.6594 5.08153L21.5957 8.29472C21.2968 8.59363 20.8484 8.59363 20.5495 8.29472L17.4858 5.23098C15.8418 3.58702 13.6748 2.69031 11.2836 2.69031C11.3583 2.69031 11.3583 2.69031 11.2836 2.69031Z" fill="black"/>
<path d="M31.6084 5.75429H31.5337C31.2348 5.75429 31.0106 5.67957 30.7117 5.67957C30.2633 5.67957 29.9644 5.38067 29.9644 4.93231C29.9644 4.48396 30.2633 4.18506 30.7117 4.18506C31.0106 4.18506 31.3842 4.18506 31.6831 4.25978C32.0568 4.33451 32.3557 4.70814 32.3557 5.08176C32.2809 5.45539 31.982 5.75429 31.6084 5.75429ZM38.259 15.1697C38.1842 15.1697 38.1842 15.1697 38.1095 15.1697C37.7359 15.095 37.437 14.7214 37.5117 14.3477C37.8853 11.8818 36.9886 9.64002 34.7469 7.32353C34.3732 6.9499 33.9996 6.72573 33.626 6.42682L33.5513 6.3521C33.1776 6.12792 33.1029 5.67957 33.2524 5.30594C33.4765 4.93231 33.9249 4.85759 34.2985 5.00704L34.448 5.08176C34.9711 5.38067 35.4194 5.7543 35.8678 6.20265C38.4832 8.81804 39.5293 11.5082 39.081 14.4972C38.9315 14.9455 38.6326 15.1697 38.259 15.1697ZM13.6743 20.251H9.19075C8.74239 20.251 8.44349 19.9521 8.44349 19.5038V15.7675H4.70722C4.25886 15.7675 3.95996 15.4686 3.95996 15.0203V10.5367C3.95996 10.0884 4.25886 9.78947 4.70722 9.78947H8.44349V6.0532C8.44349 5.60484 8.74239 5.30594 9.19075 5.30594H13.6743C14.1226 5.30594 14.4215 5.60484 14.4215 6.0532V9.78947H18.1578C18.6062 9.78947 18.9051 10.0884 18.9051 10.5367V15.0203C18.9051 15.4686 18.6062 15.7675 18.1578 15.7675H14.4215V19.5038C14.4215 19.9521 14.1226 20.251 13.6743 20.251ZM9.938 18.7565H12.927V15.0203C12.927 14.5719 13.2259 14.273 13.6743 14.273H17.4106V11.284H13.6743C13.2259 11.284 12.927 10.9851 12.927 10.5367V6.80045H9.938V10.5367C9.938 10.9851 9.6391 11.284 9.19075 11.284H5.45447V14.273H9.19075C9.6391 14.273 9.938 14.5719 9.938 15.0203V18.7565Z" fill="#FE7A36"/>
</svg>
