<svg width="107" height="347" viewBox="0 0 107 347" fill="none" xmlns="http://www.w3.org/2000/svg">
<path d="M88.2608 185.092C88.2608 185.092 86.7897 187.136 86.3994 188.409C86.0091 189.682 85.9712 194.838 85.9712 194.838C85.9712 194.838 87.0599 195.456 88.1055 192.505C89.1511 189.557 89.3352 188.149 89.3352 188.149L88.2608 185.092Z" fill="#FFBF9D"/>
<path d="M87.9419 194.655L88.1821 185.219L92.5343 178.707L103.685 178.568L103.544 190.201C103.544 190.201 101.616 195.018 100.763 195.904C99.9109 196.791 98.3288 196.027 98.3288 196.027C97.3902 197.348 95.0262 196.732 95.0262 196.732C93.7835 198.069 92.0265 196.668 92.0265 196.668C92.0265 196.668 90.3569 198.057 89.6259 197.928C89.3674 197.882 89.1103 197.671 88.8766 197.398C88.2278 196.641 87.9158 195.651 87.9419 194.655Z" fill="#FFBF9D"/>
<path d="M99.3303 193.62C99.222 193.577 98.9283 194.068 98.6737 194.716C98.4179 195.364 98.2977 195.924 98.4061 195.966C98.5131 196.007 98.8082 195.518 99.0627 194.869C99.3186 194.222 99.4386 193.662 99.3303 193.62Z" fill="#FF9A6C"/>
<path d="M96.3488 193.339C96.2313 193.319 95.999 194.11 95.6661 195.061C95.3372 196.014 95.0278 196.779 95.1322 196.835C95.2301 196.89 95.7183 196.188 96.0603 195.2C96.4063 194.211 96.4598 193.358 96.3488 193.339Z" fill="#FF9A6C"/>
<path d="M92.9287 193.48C92.8099 193.474 92.6833 194.188 92.477 195.046C92.276 195.904 92.0697 196.599 92.1781 196.647C92.2799 196.694 92.6728 196.044 92.8843 195.142C93.0997 194.241 93.0409 193.484 92.9287 193.48Z" fill="#FF9A6C"/>
<path d="M88.1759 188.183C88.0598 188.182 87.9109 189.782 87.8418 191.759C87.7726 193.735 87.8104 195.34 87.9253 195.343C88.0402 195.346 88.1903 193.745 88.2595 191.768C88.33 189.79 88.2921 188.186 88.1759 188.183Z" fill="#FF9A6C"/>
<path d="M99.589 191.736C99.5537 191.778 99.6216 191.915 99.82 192.05C100.015 192.183 100.35 192.294 100.725 192.234C101.098 192.174 101.384 191.962 101.526 191.776C101.672 191.586 101.695 191.434 101.648 191.406C101.551 191.343 101.212 191.736 100.658 191.821C100.107 191.914 99.6621 191.646 99.589 191.736Z" fill="#FF9A6C"/>
<path d="M96.0812 192.137C96.0512 192.181 96.1438 192.316 96.3696 192.439C96.5929 192.561 96.9531 192.645 97.3434 192.586C97.7324 192.526 98.0523 192.338 98.2285 192.155C98.4073 191.971 98.4556 191.815 98.4139 191.782C98.3212 191.709 97.9165 192.087 97.2808 192.174C96.6464 192.281 96.1477 192.039 96.0812 192.137Z" fill="#FF9A6C"/>
<path d="M89.454 191.122C89.4162 191.068 89.1747 191.364 89.4254 191.78C89.6773 192.153 90.1864 192.434 90.8012 192.525C91.416 192.611 91.9773 192.449 92.3193 192.251C92.6666 192.05 92.8088 191.84 92.7736 191.802C92.7109 191.708 91.9304 192.269 90.8586 192.111C90.3469 192.043 89.877 191.817 89.6616 191.603C89.4423 191.376 89.5049 191.142 89.454 191.122Z" fill="#FF9A6C"/>
<path d="M100.637 133.342C100.637 133.342 95.1265 89.6772 94.56 79.4496C93.9935 69.222 88.3673 65.8333 88.3673 65.8333L86.8779 68.2169L78.8838 111.299L89.674 183.359L106.013 181.667L100.637 133.342Z" fill="#455A64"/>
<path d="M80.2727 316.029L79.7127 335.276C79.7127 335.276 99.0897 342.31 99.3325 345.876L61.9726 346.131L61.615 316.104L80.2727 316.029Z" fill="#263238"/>
<path d="M68.15 333.736C67.4281 333.938 66.9347 334.756 67.107 335.484C67.2793 336.214 68.1056 336.723 68.8301 336.532C69.5546 336.343 70.1785 335.381 69.9253 334.676C69.672 333.971 68.6695 333.425 68.0116 333.783" fill="#E0E0E0"/>
<path d="M61.9727 346.132L62.0549 343.104L97.843 343.991C97.843 343.991 99.5113 344.704 99.3312 345.876L61.9727 346.132Z" fill="#455A64"/>
<path d="M80.3175 335.082C80.3122 335.265 79.4011 335.354 78.5069 335.946C77.5984 336.515 77.1402 337.309 76.9718 337.239C76.8034 337.205 77.0684 336.112 78.1623 335.414C79.251 334.705 80.3553 334.915 80.3175 335.082Z" fill="white"/>
<path d="M84.2463 336.676C84.2894 336.852 83.5009 337.168 82.8874 337.943C82.2504 338.7 82.1003 339.537 81.9175 339.529C81.7465 339.559 81.6134 338.492 82.3953 337.543C83.1681 336.586 84.2411 336.502 84.2463 336.676Z" fill="white"/>
<path d="M86.5047 341.35C86.3389 341.391 86.0791 340.481 86.5412 339.479C86.9955 338.472 87.8531 338.073 87.9314 338.224C88.0358 338.374 87.485 338.913 87.1195 339.742C86.7318 340.562 86.6861 341.332 86.5047 341.35Z" fill="white"/>
<path d="M79.9583 330.682C79.8826 330.849 79.0445 330.602 78.0133 330.68C76.9807 330.736 76.1805 331.088 76.0852 330.932C75.9782 330.8 76.7575 330.12 77.9728 330.047C79.1868 329.962 80.0471 330.538 79.9583 330.682Z" fill="white"/>
<path d="M19.8055 316.076L19.8864 335.331C19.8864 335.331 0.341086 341.88 0.00952148 345.44L37.351 346.625L38.458 316.617L19.8055 316.076Z" fill="#263238"/>
<path d="M31.4845 334.079C32.2012 334.3 32.675 335.128 32.4844 335.853C32.2938 336.578 31.4558 337.067 30.7352 336.858C30.0147 336.651 29.4155 335.673 29.687 334.975C29.9573 334.276 30.9741 333.756 31.6229 334.13" fill="#E0E0E0"/>
<path d="M37.351 346.625L37.3445 343.595L1.54458 343.592C1.54458 343.592 -0.140653 344.262 0.0094651 345.439L37.351 346.625Z" fill="#455A64"/>
<path d="M19.2874 335.122C19.2874 335.305 20.1972 335.416 21.0757 336.031C21.9699 336.624 22.4072 337.428 22.5782 337.36C22.7466 337.33 22.5103 336.231 21.4334 335.506C20.363 334.771 19.2534 334.954 19.2874 335.122Z" fill="white"/>
<path d="M15.3187 336.617C15.2717 336.792 16.051 337.127 16.6462 337.918C17.2637 338.691 17.3942 339.531 17.5757 339.528C17.7454 339.562 17.9059 338.498 17.1475 337.529C16.3982 336.554 15.3291 336.443 15.3187 336.617Z" fill="white"/>
<path d="M12.9459 341.234C13.1104 341.278 13.3923 340.375 12.9563 339.362C12.5269 338.345 11.6797 337.924 11.5974 338.074C11.4891 338.22 12.0256 338.773 12.3715 339.611C12.7383 340.44 12.7657 341.211 12.9459 341.234Z" fill="white"/>
<path d="M19.7557 330.731C19.8275 330.899 20.6707 330.675 21.6994 330.778C22.7293 330.86 23.5204 331.231 23.6209 331.077C23.7305 330.948 22.9695 330.249 21.7555 330.145C20.5441 330.033 19.6708 330.586 19.7557 330.731Z" fill="white"/>
<path d="M92.538 153.352C92.538 153.352 97.8143 167.899 97.1303 181.282C96.8653 186.46 83.0949 329.893 83.0949 329.893L59.546 330.497L62.7155 195.942L60.7979 196.41C60.7979 196.41 49.4137 254.055 48.6031 263.362C47.8747 271.727 38.5896 332.603 38.5896 332.603L17.064 333.403L21.8834 253.073L27.9116 175.958L30.3474 153.493L92.538 153.352Z" fill="#263238"/>
<path d="M39.6107 54.7624L34.8591 60.9499L15.0605 69.7246L24.7999 106.622L32.3097 137.227L21.7362 183.241L60.8765 182.758L66.1032 167.271L72.5492 182.526L98.6775 181.855L97.1085 170.443L90.0725 132.245L88.3677 65.8333L68.7075 60.0805L62.8241 52.277L39.6107 54.7624Z" fill="#455A64"/>
<path d="M29.6938 186.063C29.6938 186.063 31.8281 188.145 32.5448 189.549C33.2614 190.952 34.3644 196.955 34.3644 196.955C34.3644 196.955 33.2209 197.898 31.3973 194.675C29.5737 191.451 29.0698 189.85 29.0698 189.85L29.6938 186.063Z" fill="#FFBF9D"/>
<path d="M32.0302 197.146L29.8123 186.194L23.4017 179.497L10.374 181.624L12.9273 195.156C12.9273 195.156 16.1634 200.377 17.3395 201.234C18.5156 202.093 20.2022 200.878 20.2022 200.878C21.5676 202.226 24.1966 201.023 24.1966 201.023C25.9197 202.327 27.6807 200.332 27.6807 200.332C27.6807 200.332 29.9129 201.608 30.7379 201.307C31.029 201.202 31.2861 200.903 31.5028 200.536C32.1033 199.52 32.2638 198.302 32.0302 197.146Z" fill="#FFBF9D"/>
<path d="M18.5406 198.277C18.658 198.206 19.1005 198.717 19.5313 199.42C19.9621 200.123 20.2166 200.75 20.1004 200.822C19.9843 200.893 19.5404 200.382 19.1097 199.678C18.6789 198.977 18.4244 198.349 18.5406 198.277Z" fill="#FF9A6C"/>
<path d="M21.9592 197.338C22.091 197.289 22.5257 198.164 23.1092 199.204C23.6888 200.247 24.2057 201.075 24.0948 201.162C23.9916 201.246 23.2789 200.528 22.6771 199.446C22.0714 198.366 21.8339 197.382 21.9592 197.338Z" fill="#FF9A6C"/>
<path d="M25.9745 196.801C26.1115 196.77 26.4053 197.575 26.8217 198.533C27.2316 199.494 27.6153 200.262 27.4991 200.339C27.3908 200.414 26.7995 199.737 26.3674 198.729C25.9314 197.723 25.8439 196.829 25.9745 196.801Z" fill="#FF9A6C"/>
<path d="M30.4273 189.65C30.5617 189.624 31.0643 191.46 31.5512 193.749C32.0381 196.04 32.3227 197.919 32.1896 197.945C32.0564 197.971 31.5525 196.137 31.0656 193.845C30.5787 191.555 30.2941 189.677 30.4273 189.65Z" fill="#FF9A6C"/>
<path d="M17.8528 196.134C17.9024 196.175 17.8515 196.35 17.6478 196.547C17.4494 196.741 17.0787 196.94 16.631 196.947C16.1832 196.954 15.8073 196.767 15.6023 196.578C15.3922 196.387 15.3361 196.214 15.3844 196.172C15.4836 196.078 15.96 196.468 16.6231 196.453C17.2862 196.449 17.7497 196.044 17.8528 196.134Z" fill="#FF9A6C"/>
<path d="M22.0246 195.882C22.069 195.927 21.9893 196.104 21.7505 196.293C21.5155 196.481 21.1121 196.654 20.6461 196.665C20.1801 196.676 19.7676 196.522 19.5248 196.344C19.2781 196.167 19.1906 195.993 19.2324 195.946C19.3251 195.842 19.8746 196.201 20.6344 196.169C21.3941 196.166 21.9267 195.782 22.0246 195.882Z" fill="#FF9A6C"/>
<path d="M29.5422 193.337C29.5748 193.266 29.9168 193.564 29.7106 194.098C29.4926 194.585 28.9574 195.017 28.2603 195.249C27.5606 195.476 26.874 195.403 26.4341 195.241C25.9877 195.079 25.7801 194.861 25.8114 194.81C25.865 194.688 26.891 195.182 28.1076 194.778C28.6911 194.592 29.1924 194.235 29.3986 193.94C29.6075 193.632 29.4861 193.372 29.5422 193.337Z" fill="#FF9A6C"/>
<path d="M29.0253 95.4299L15.3267 69.6057L15.0604 69.7232C11.5032 72.1669 10.5647 75.3846 10.3114 78.0959C9.30368 88.8769 2.27292 129.282 2.08887 135.887L7.76725 184.557L28.5919 180.617L22.9553 136.912L29.0253 95.4299Z" fill="#455A64"/>
<path d="M64.3511 111.82C64.3381 111.829 64.1971 111.662 63.9412 111.332C63.6606 110.96 63.2964 110.477 62.8447 109.878C61.8748 108.556 60.5303 106.723 58.8842 104.478C55.549 99.8474 50.9972 93.5307 45.9675 86.5508C42.4822 81.6583 39.2279 77.0895 36.4736 73.223L36.4122 73.1368L36.4448 73.0376C36.9748 71.4216 37.4669 69.9178 37.9199 68.5354L38.0374 68.7612C36.6328 68.3148 35.3784 67.9166 34.2584 67.5616L34.1448 67.525L34.1565 67.4101C34.3589 65.5069 34.5208 63.9822 34.6382 62.8753C34.6983 62.3871 34.7465 61.9915 34.7857 61.6756C34.8236 61.4041 34.8497 61.2645 34.8628 61.2658C34.8758 61.2671 34.8758 61.4093 34.864 61.6835C34.8444 62.002 34.821 62.4001 34.7909 62.8896C34.7061 64.0005 34.5886 65.5291 34.4424 67.4376L34.3406 67.2861C35.4658 67.6216 36.7281 67.9989 38.1392 68.4205L38.3115 68.4714L38.2567 68.645C37.8207 70.0326 37.3456 71.543 36.8352 73.1642L36.8064 72.9802C39.5777 76.8349 42.8529 81.3894 46.3591 86.2663C51.3431 93.2787 55.8531 99.6241 59.1596 104.275C60.7535 106.558 62.055 108.422 62.9948 109.767C63.4165 110.388 63.7559 110.888 64.0169 111.275C64.2519 111.623 64.3655 111.81 64.3511 111.82Z" fill="#263238"/>
<path d="M68.7154 60.3949C68.7258 60.3844 68.8329 60.4732 69.0313 60.6533C69.2597 60.8687 69.543 61.1337 69.8889 61.4588C70.6695 62.2172 71.7347 63.2536 73.0558 64.5381L73.1746 64.6543L73.0427 64.7613C72.5871 65.1282 72.1002 65.5224 71.5859 65.9375L71.6055 65.6934C72.1812 66.3173 72.8077 66.9988 73.4709 67.718L73.5335 67.7859L73.5179 67.8786C72.685 72.6523 71.6146 78.781 70.4502 85.4567C69.0522 93.1663 67.7873 100.141 66.8591 105.266C66.3853 107.75 65.9976 109.782 65.7156 111.259C65.5786 111.923 65.4676 112.461 65.3802 112.884C65.2979 113.255 65.247 113.448 65.2313 113.445C65.2144 113.443 65.234 113.243 65.2836 112.867C65.3475 112.44 65.4285 111.897 65.529 111.226C65.7731 109.743 66.1098 107.702 66.5197 105.206C67.4126 100.076 68.6279 93.0906 69.9712 85.3719C71.1773 78.7027 72.2843 72.5805 73.1458 67.8133L73.1915 67.9726C72.5401 67.2429 71.924 66.5523 71.3575 65.9192L71.2374 65.7848L71.3784 65.6764C71.9005 65.2717 72.3952 64.888 72.8573 64.5303L72.8443 64.7522C71.5637 63.4272 70.5312 62.3595 69.7754 61.5762C69.4516 61.229 69.1866 60.9457 68.9725 60.716C68.7937 60.5137 68.7062 60.4053 68.7154 60.3949Z" fill="#263238"/>
<g opacity="0.3">
<path d="M75.0738 68.0026C75.0738 68.0026 72.1916 65.7847 71.4814 65.8043L73.3311 67.8433C73.3311 67.8433 72.8716 70.3914 72.6863 71.4135C70.3131 84.4411 67.9243 98.6149 65.5498 111.641C68.8994 98.7428 71.9278 85.146 74.318 72.0362C74.5529 70.7478 75.0738 68.0026 75.0738 68.0026Z" fill="black"/>
</g>
<path d="M40.4996 54.4567L39.8025 62.2485L64.9779 112.688L67.9986 87.8573L66.4699 62.9547L62.9964 53.8798L40.4996 54.4567Z" fill="#F5F5F5"/>
<path d="M54.7972 65.7521C54.852 65.7795 54.4239 66.7664 53.6707 68.3733C52.9175 69.9802 51.8418 72.2059 50.6017 74.7122L50.4503 75.019L50.2128 74.7722C49.8708 74.4172 49.5104 74.0438 49.1462 73.664C46.9597 71.3874 45.0004 69.3066 43.5997 67.7846C42.1991 66.2625 41.3558 65.2978 41.4054 65.2508C41.4537 65.2052 42.3844 66.085 43.8478 67.5457C45.3124 69.0064 47.3109 71.0493 49.4974 73.3259C49.8616 73.7057 50.2193 74.0804 50.5613 74.4368L50.1723 74.4955C51.4267 71.997 52.5559 69.7961 53.3848 68.2284C54.2124 66.6606 54.7424 65.7247 54.7972 65.7521Z" fill="#263238"/>
<path d="M65.6031 61.8178C65.7323 61.8531 65.064 64.7249 64.1084 68.2311C64.0536 68.4309 63.9987 68.6293 63.9478 68.8159L63.8473 69.1854L63.5549 68.9347C62.3044 67.8643 61.0499 67.0315 60.2066 66.3644C59.3503 65.7091 58.8713 65.2523 58.9104 65.204C58.9509 65.1531 59.4952 65.5147 60.3959 66.0955C61.2888 66.6921 62.5655 67.4662 63.8735 68.5692L63.4806 68.688C63.5315 68.5013 63.5849 68.3029 63.6385 68.1019C64.594 64.597 65.4738 61.7826 65.6031 61.8178Z" fill="#263238"/>
<path d="M58.9105 65.2052L55.2307 65.6425L53.7373 68.6801L57.0151 72.7124L60.6401 72.6197L61.7327 67.1842L58.9105 65.2052Z" fill="#FF725E"/>
<path d="M57.0151 72.7125C57.0151 72.7125 55.3873 81.3449 55.775 85.7454C56.164 90.1458 56.429 95.9573 56.429 95.9573L64.9779 112.687L66.9908 96.2758C66.9908 96.2758 63.1687 78.9392 61.9651 76.2749C60.7616 73.6106 60.6389 72.6185 60.6389 72.6185L57.0151 72.7125Z" fill="#FF725E"/>
<path d="M60.63 72.4854C60.6548 72.6159 59.8494 72.8757 58.8181 72.954C57.7869 73.0362 56.9501 72.9031 56.9553 72.7712C56.9593 72.6355 57.7777 72.548 58.7803 72.4684C59.7828 72.3927 60.6052 72.3522 60.63 72.4854Z" fill="#263238"/>
<path d="M60.4014 66.3749C60.5019 66.465 59.5868 67.6451 58.3584 69.0118C57.1301 70.3785 56.0531 71.4137 55.9526 71.3236C55.8521 71.2335 56.7672 70.0535 57.9968 68.6868C59.2239 67.32 60.3008 66.2862 60.4014 66.3749Z" fill="#263238"/>
<g opacity="0.3">
<path d="M42.4447 67.5432C42.4447 67.5432 50.504 76.9575 50.7377 76.8727L53.3798 68.5966L50.3866 74.6065L41.0166 64.8489L42.4447 67.5432Z" fill="black"/>
</g>
<path d="M85.6431 100.828C85.6353 100.82 85.6248 100.713 85.6117 100.513C85.5961 100.238 85.5791 99.9543 85.5608 99.6515C85.5191 98.7273 85.4708 97.6869 85.4159 96.5016L85.5347 96.6139C81.8823 96.7248 77.1203 96.8684 71.7787 97.0303C71.8557 96.948 71.6038 97.213 71.9523 96.8475V96.8514V96.8554V96.8645V96.8828L71.9536 96.918L71.9549 96.9885L71.9589 97.1282L71.9654 97.4075L71.9797 97.9636C71.9889 98.333 71.998 98.6985 72.0071 99.0601C72.0241 99.782 72.0411 100.488 72.0581 101.177L71.8805 101.009C75.6283 100.944 78.953 100.885 81.6682 100.838C82.7464 100.829 83.7033 100.82 84.5648 100.813C84.8403 100.813 85.1013 100.815 85.3546 100.816C85.536 100.816 85.6353 100.821 85.6431 100.828C85.6588 100.842 85.3076 100.865 84.6471 100.898C83.7986 100.935 82.8561 100.975 81.7935 101.021C79.047 101.113 75.6818 101.227 71.891 101.355L71.7174 101.362L71.7122 101.187C71.6926 100.499 71.6743 99.7924 71.6534 99.0706C71.6443 98.709 71.6338 98.3435 71.6247 97.9741L71.6103 97.418L71.6025 97.1386L71.5986 96.9989L71.5973 96.9285L71.5959 96.8932V96.8762V96.8671V96.8632V96.8606C71.9445 96.4938 71.6925 96.7575 71.7709 96.6752C77.1125 96.563 81.8758 96.4624 85.5295 96.3854L85.647 96.3828V96.4977C85.6548 97.7117 85.66 98.7743 85.6666 99.7207C85.6639 100.014 85.6614 100.291 85.6601 100.559C85.6561 100.743 85.6509 100.835 85.6431 100.828Z" fill="#263238"/>
<path d="M66.1789 167.489C66.0797 167.492 65.6829 155.145 65.2925 139.917C64.9009 124.683 64.6646 112.336 64.7638 112.333C64.863 112.331 65.2599 124.674 65.6502 139.908C66.0405 155.136 66.2781 167.486 66.1789 167.489Z" fill="#263238"/>
<path d="M84.752 127.606C84.7664 127.704 80.9664 128.349 76.2645 129.047C71.5612 129.746 67.7378 130.232 67.7234 130.136C67.7091 130.039 71.509 129.393 76.2123 128.695C80.9129 127.995 84.7376 127.508 84.752 127.606Z" fill="#263238"/>
<path d="M62.252 131.261C62.2285 131.356 58.469 130.5 53.8571 129.349C49.2439 128.196 45.525 127.186 45.5485 127.089C45.5719 126.994 49.3301 127.849 53.9433 129.001C58.5552 130.154 62.2755 131.164 62.252 131.261Z" fill="#263238"/>
<path d="M81.8655 135.185C81.8603 135.232 81.0313 135.197 79.6946 135.069C78.3592 134.942 76.5187 134.716 74.4967 134.391C72.4746 134.065 70.6562 133.701 69.3483 133.402C68.0403 133.103 67.2414 132.877 67.2518 132.83C67.2636 132.781 68.0807 132.919 69.3992 133.154C71.1888 133.461 72.8114 133.739 74.5541 134.038C76.302 134.301 77.9285 134.545 79.7247 134.817C81.0509 135.009 81.8707 135.134 81.8655 135.185Z" fill="#263238"/>
<path d="M28.3088 183.134C28.3088 183.121 28.5046 183.106 28.8858 183.09C29.3035 183.075 29.8635 183.057 30.5789 183.033C32.1075 182.999 34.29 182.951 37.077 182.889C42.7541 182.796 50.8852 182.663 60.8727 182.499L60.6325 182.673C62.2185 178.069 63.9951 172.91 65.897 167.391L66.1503 166.657L66.4544 167.373C68.4477 172.058 70.6003 177.117 72.8482 182.399L72.5414 182.202C80.6856 181.988 89.5164 181.755 98.6697 181.515L98.3434 181.913C98.2572 181.416 98.1632 180.877 98.0693 180.336C95.0212 162.655 92.1768 146.151 89.788 132.296L89.7841 132.274V132.253C89.4943 119.028 89.2541 108.027 89.0844 100.288C89.0204 96.4689 88.9695 93.4574 88.9343 91.357C88.9264 90.3571 88.9212 89.5752 88.9173 89.0061C88.9186 88.4748 88.9421 88.1993 88.9421 88.1993C88.9421 88.1993 88.98 88.4722 89.0074 89.0034C89.0322 89.5726 89.0674 90.3532 89.1105 91.3518C89.1836 93.4509 89.2867 96.4623 89.4198 100.279C89.6483 108.016 89.972 119.015 90.361 132.237L90.3571 132.196C92.7747 146.046 95.6543 162.544 98.7389 180.219C98.8329 180.759 98.9256 181.299 99.013 181.796L99.0809 182.184L98.688 182.194C89.5334 182.424 80.7039 182.644 72.5597 182.849L72.339 182.855L72.2529 182.651C70.022 177.362 67.8851 172.297 65.9062 167.605L66.4636 167.587C64.5342 173.097 62.7315 178.247 61.122 182.843L61.0619 183.015L60.8818 183.016C50.8931 183.084 42.7619 183.139 37.0835 183.178C34.2953 183.181 32.1127 183.182 30.5828 183.185C29.8674 183.177 29.3061 183.172 28.8884 183.168C28.5046 183.157 28.3088 183.147 28.3088 183.134Z" fill="#263238"/>
<path d="M39.7558 35.5981C38.3747 31.8387 37.0067 28.0505 36.2927 24.1095C35.5786 20.1686 35.5421 16.0345 36.7939 12.2293C36.9832 11.6524 38.641 7.76888 39.2467 7.80543C39.6801 7.83154 38.705 11.4331 38.9373 11.7986C41.1552 15.2957 41.8849 19.5747 41.7086 23.7127C41.5337 27.852 40.8171 31.5959 39.7558 35.5981Z" fill="#263238"/>
<path d="M40.7032 56.3013L38.7816 20.3448C38.0754 10.326 43.3165 1.56305 53.3522 1.13489L54.2816 1.14925C63.6372 1.29545 71.3155 8.59901 71.9225 17.9363C72.4864 26.6236 72.9981 36.2298 72.8689 40.8835C72.5986 50.5185 62.9376 51.8656 62.9376 51.8656C62.9154 51.8656 62.931 52.718 63.0094 55.5454L57.566 65.3723L40.7032 56.3013Z" fill="#FFBF9D"/>
<path d="M62.9376 51.8656C62.9376 51.8656 56.8571 52.1267 50.4478 47.96C50.4478 47.96 53.3535 55.2518 62.9819 54.5351L62.9376 51.8656Z" fill="#FF9A6C"/>
<path d="M67.6892 26.0883C67.7036 26.8154 67.0992 27.4277 66.3408 27.4564C65.5836 27.4851 64.9558 26.9212 64.9414 26.1928C64.9271 25.4657 65.5301 24.8535 66.2885 24.8234C67.0483 24.7947 67.6749 25.3612 67.6892 26.0883Z" fill="#263238"/>
<path d="M69.8078 22.1593C69.6342 22.3368 68.6042 21.5484 67.1226 21.5288C65.6436 21.4883 64.5445 22.2337 64.3879 22.0496C64.3095 21.9687 64.4884 21.6463 64.9674 21.3095C65.4387 20.974 66.2389 20.6529 67.1605 20.6712C68.0834 20.6907 68.8535 21.0419 69.2934 21.3969C69.7438 21.7533 69.8926 22.0797 69.8078 22.1593Z" fill="#263238"/>
<path d="M54.4109 26.4292C54.4252 27.1563 53.8209 27.7685 53.0624 27.7972C52.3053 27.8259 51.6775 27.262 51.6631 26.5336C51.6487 25.8065 52.2531 25.1943 53.0102 25.1656C53.7686 25.1355 54.3965 25.7021 54.4109 26.4292Z" fill="#263238"/>
<path d="M55.2855 22.2755C55.1119 22.453 54.0793 21.6646 52.6003 21.645C51.1214 21.6045 50.0223 22.3499 49.8643 22.1658C49.7873 22.0836 49.9635 21.7638 50.4439 21.4257C50.9151 21.0902 51.7153 20.7691 52.6369 20.786C53.5598 20.8056 54.33 21.1581 54.7712 21.5118C55.2202 21.8695 55.3704 22.1972 55.2855 22.2755Z" fill="#263238"/>
<path d="M60.4206 33.7379C60.4154 33.653 61.3384 33.5094 62.833 33.341C63.2116 33.3084 63.5705 33.2379 63.6384 32.9808C63.7324 32.7092 63.5797 32.2994 63.4034 31.8555C63.0627 30.9352 62.7051 29.9706 62.3304 28.9589C60.841 24.8352 59.7693 21.4465 59.9364 21.3877C60.1034 21.329 61.4454 24.6238 62.9335 28.7487C63.2912 29.7656 63.6345 30.7342 63.9595 31.6623C64.0953 32.0944 64.3342 32.5852 64.1332 33.1491C64.0274 33.4298 63.7455 33.6308 63.5027 33.6922C63.2586 33.7627 63.0458 33.764 62.8591 33.7718C61.3553 33.8292 60.4246 33.8214 60.4206 33.7379Z" fill="#263238"/>
<path d="M55.8377 17.6505C55.6301 18.0251 54.1994 17.6048 52.4502 17.5408C50.7024 17.4403 49.239 17.7236 49.068 17.3307C48.9936 17.144 49.2939 16.8072 49.9139 16.5109C50.5287 16.2146 51.4725 15.9887 52.5207 16.037C53.5689 16.088 54.4866 16.3999 55.0714 16.7537C55.6615 17.1088 55.9304 17.4717 55.8377 17.6505Z" fill="#263238"/>
<path d="M69.9437 17.8058C69.6356 18.1413 68.4294 17.7914 66.9792 17.7744C65.5302 17.7144 64.3018 17.999 64.0186 17.6465C63.8946 17.4755 64.0878 17.1387 64.6256 16.8215C65.1543 16.5043 66.0393 16.2459 67.0353 16.272C68.0313 16.2994 68.8942 16.6048 69.3993 16.9494C69.911 17.2954 70.0794 17.6426 69.9437 17.8058Z" fill="#263238"/>
<path d="M39.4578 27.493C39.2946 27.4199 32.8669 25.4305 32.974 32.0227C33.081 38.6135 39.6771 37.1463 39.6849 36.957C39.6941 36.7677 39.4578 27.493 39.4578 27.493Z" fill="#FFBF9D"/>
<path d="M37.6316 34.4925C37.6028 34.4716 37.518 34.5747 37.3248 34.6661C37.1368 34.7562 36.8131 34.8214 36.4672 34.6974C35.7662 34.4533 35.1618 33.3568 35.1109 32.1702C35.0848 31.571 35.2009 30.998 35.4059 30.5215C35.5991 30.0359 35.9058 29.6939 36.2557 29.626C36.6029 29.5399 36.8549 29.7448 36.9384 29.9302C37.0298 30.1129 36.9893 30.2448 37.0245 30.2565C37.0428 30.2722 37.1642 30.1443 37.1068 29.8728C37.0768 29.7422 36.9971 29.5882 36.8405 29.4642C36.6799 29.3376 36.4463 29.2762 36.2022 29.3062C35.6944 29.3493 35.244 29.8245 35.0195 30.3479C34.7663 30.874 34.6213 31.5188 34.6514 32.1911C34.7153 33.5187 35.415 34.7509 36.3732 35.0107C36.8392 35.1243 37.223 34.9781 37.4214 34.8188C37.6224 34.6517 37.6551 34.5042 37.6316 34.4925Z" fill="#FF9A6C"/>
<path d="M67.3851 7.1253C68.4372 6.51047 65.1489 3.13608 62.4977 2.01346C58.4915 0.316472 52.415 -0.639063 48.7874 0.488779C44.4209 1.84637 40.822 4.12555 38.7165 8.18395C36.6096 12.2411 35.8968 16.926 36.1396 21.4922C36.2141 22.8851 36.3955 24.3353 37.1696 25.4945C38.1264 26.9278 39.9161 27.8024 39.8887 29.814C39.8782 30.5489 40.1067 31.2851 40.6236 31.8086C41.8624 33.0618 43.3061 31.819 43.9549 30.5933C45.3386 27.976 45.4221 24.8901 45.4756 21.9295C45.5135 19.8253 45.5449 17.6766 44.9013 15.6729C44.5515 14.5829 44.0071 13.5582 43.7186 12.4499C43.4302 11.3417 43.4314 10.0767 44.1037 9.14863C44.2121 8.99851 44.3948 8.80662 44.6259 8.59384C46.4508 6.91122 49.0511 6.35643 51.4112 7.1253C55.155 8.34452 61.5422 10.1459 63.1661 8.84578C65.5014 6.97387 66.0418 5.77815 66.0418 5.77815L67.3851 7.1253Z" fill="#263238"/>
<path d="M55.7971 34.773C56.023 34.7534 56.0726 36.2651 57.4001 37.3002C58.7251 38.3393 60.3333 38.12 60.3516 38.3315C60.3751 38.4254 60.0018 38.6356 59.3203 38.6748C58.6533 38.7179 57.6716 38.5325 56.8597 37.8994C56.0504 37.2637 55.6836 36.3956 55.6131 35.7768C55.5361 35.1477 55.6927 34.7678 55.7971 34.773Z" fill="#263238"/>
<path d="M29.0252 95.43C29.0448 95.4326 29.0239 95.7132 28.9652 96.2471C28.8934 96.8385 28.7981 97.6152 28.6793 98.589C28.396 100.693 27.9978 103.639 27.5044 107.297C26.4418 114.765 24.9681 125.118 23.2829 136.96L23.2841 136.87C23.7645 140.574 24.2684 144.456 24.784 148.44C26.3218 160.564 27.7381 171.737 28.8594 180.585L28.8921 180.839L28.6414 180.885C22.3247 182.031 17.1293 182.972 13.4403 183.642C11.6755 183.945 10.2735 184.185 9.24748 184.361C8.80365 184.429 8.44208 184.484 8.14707 184.529C7.89774 184.563 7.76852 184.574 7.76591 184.56C7.7633 184.546 7.88731 184.509 8.13141 184.449C8.42251 184.383 8.77888 184.302 9.21748 184.203C10.237 183.992 11.6298 183.703 13.3829 183.34C17.0614 182.616 22.2412 181.595 28.5396 180.354L28.3216 180.654C27.1624 171.811 25.6965 160.645 24.1079 148.527C23.5961 144.542 23.0988 140.66 22.6237 136.956L22.6171 136.911L22.6237 136.866C24.4016 125.038 25.9563 114.697 27.0789 107.237C27.6546 103.592 28.118 100.655 28.4482 98.5576C28.6127 97.5903 28.7445 96.8189 28.845 96.2328C28.9456 95.7015 29.0056 95.4273 29.0252 95.43Z" fill="#263238"/>
<path opacity="0.3" d="M26.5295 113.674L32.1257 136.477L28.6873 100.114L26.5295 113.674Z" fill="black"/>
</svg>
