<svg width="48" height="48" viewBox="0 0 48 48" fill="none" xmlns="http://www.w3.org/2000/svg">
<path d="M37.5 25.5H10.5C10.1022 25.5 9.72064 25.342 9.43934 25.0607C9.15804 24.7794 9 24.3978 9 24C9 23.6022 9.15804 23.2206 9.43934 22.9393C9.72064 22.658 10.1022 22.5 10.5 22.5H37.5C37.8978 22.5 38.2794 22.658 38.5607 22.9393C38.842 23.2206 39 23.6022 39 24C39 24.3978 38.842 24.7794 38.5607 25.0607C38.2794 25.342 37.8978 25.5 37.5 25.5Z" fill="#FE7A36"/>
<path opacity="0.3" d="M37.5 34.5H10.5C10.1022 34.5 9.72064 34.342 9.43934 34.0607C9.15804 33.7794 9 33.3978 9 33C9 32.6022 9.15804 32.2206 9.43934 31.9393C9.72064 31.658 10.1022 31.5 10.5 31.5H37.5C37.8978 31.5 38.2794 31.658 38.5607 31.9393C38.842 32.2206 39 32.6022 39 33C39 33.3978 38.842 33.7794 38.5607 34.0607C38.2794 34.342 37.8978 34.5 37.5 34.5ZM39 15C39 14.6022 38.842 14.2206 38.5607 13.9393C38.2794 13.658 37.8978 13.5 37.5 13.5H10.5C10.1022 13.5 9.72064 13.658 9.43934 13.9393C9.15804 14.2206 9 14.6022 9 15C9 15.3978 9.15804 15.7794 9.43934 16.0607C9.72064 16.342 10.1022 16.5 10.5 16.5H37.5C37.8978 16.5 38.2794 16.342 38.5607 16.0607C38.842 15.7794 39 15.3978 39 15Z" fill="#FE7A36"/>
</svg>
