<svg width="30" height="41" viewBox="0 0 30 41" fill="none" xmlns="http://www.w3.org/2000/svg">
<path d="M0 19.4302H25.1C25.5971 19.4302 26 19.8331 26 20.3302C26 20.8272 25.5971 21.2302 25.1 21.2302H0V19.4302Z" fill="#FE7A36"/>
<path fill-rule="evenodd" clip-rule="evenodd" d="M18.2936 27.0274C18.1061 26.8399 18.0008 26.5856 18.0008 26.3204C18.0008 26.0552 18.1061 25.8009 18.2936 25.6134L23.5866 20.3204L18.2936 15.0274C18.1981 14.9351 18.1219 14.8248 18.0695 14.7028C18.0171 14.5808 17.9895 14.4496 17.9883 14.3168C17.9872 14.184 18.0125 14.0523 18.0627 13.9294C18.113 13.8065 18.1873 13.6949 18.2812 13.601C18.3751 13.5071 18.4867 13.4329 18.6096 13.3826C18.7325 13.3323 18.8642 13.307 18.997 13.3081C19.1298 13.3093 19.261 13.3369 19.383 13.3893C19.505 13.4417 19.6153 13.5179 19.7076 13.6134L25.7076 19.6134C25.895 19.8009 26.0004 20.0552 26.0004 20.3204C26.0004 20.5856 25.895 20.8399 25.7076 21.0274L19.7076 27.0274C19.52 27.2149 19.2657 27.3202 19.0006 27.3202C18.7354 27.3202 18.4811 27.2149 18.2936 27.0274Z" fill="#FE7A36"/>
</svg>
