<svg width="30" height="41" viewBox="0 0 30 41" fill="none" xmlns="http://www.w3.org/2000/svg">
<path d="M4 20.4302C4 19.8779 4.44772 19.4302 5 19.4302H30V21.2302H4.8C4.35817 21.2302 4 20.872 4 20.4302Z" fill="#FE7A36"/>
<path fill-rule="evenodd" clip-rule="evenodd" d="M11.7068 13.6131C11.8943 13.8006 11.9996 14.0549 11.9996 14.3201C11.9996 14.5853 11.8943 14.8396 11.7068 15.0271L6.41379 20.3201L11.7068 25.6131C11.8889 25.8017 11.9897 26.0543 11.9875 26.3165C11.9852 26.5787 11.88 26.8295 11.6946 27.0149C11.5092 27.2003 11.2584 27.3055 10.9962 27.3078C10.734 27.3101 10.4814 27.2093 10.2928 27.0271L4.29279 21.0271C4.10532 20.8396 4 20.5853 4 20.3201C4 20.0549 4.10532 19.8006 4.29279 19.6131L10.2928 13.6131C10.4803 13.4256 10.7346 13.3203 10.9998 13.3203C11.265 13.3203 11.5193 13.4256 11.7068 13.6131Z" fill="#FE7A36"/>
</svg>
