<svg width="218" height="218" viewBox="0 0 218 218" fill="none" xmlns="http://www.w3.org/2000/svg">
<path d="M218 166.726H0V166.835H218V166.726Z" fill="#EBEBEB"/>
<path d="M103.332 147.281H19.1449C18.4854 147.28 17.8532 147.017 17.3873 146.55C16.9214 146.083 16.6597 145.451 16.6597 144.791V26.4477C16.6654 25.792 16.9296 25.165 17.395 24.703C17.8603 24.2409 18.4891 23.9811 19.1449 23.98H103.332C103.992 23.98 104.626 24.2423 105.092 24.7092C105.559 25.176 105.822 25.8093 105.822 26.4695V144.791C105.822 145.451 105.559 146.085 105.092 146.552C104.626 147.018 103.992 147.281 103.332 147.281ZM19.1449 24.0672C18.5143 24.0683 17.9099 24.3197 17.4644 24.766C17.0189 25.2123 16.7687 25.8171 16.7687 26.4477V144.791C16.7687 145.422 17.0189 146.027 17.4644 146.473C17.9099 146.919 18.5143 147.171 19.1449 147.172H103.332C103.963 147.171 104.568 146.919 105.014 146.473C105.46 146.027 105.712 145.422 105.713 144.791V26.4477C105.712 25.8167 105.46 25.2119 105.014 24.7657C104.568 24.3195 103.963 24.0683 103.332 24.0672H19.1449Z" fill="#EBEBEB"/>
<path d="M197.643 147.281H113.451C112.792 147.28 112.159 147.017 111.692 146.55C111.226 146.084 110.963 145.451 110.962 144.791V26.4477C110.969 25.7916 111.234 25.1646 111.7 24.7027C112.166 24.2408 112.795 23.9811 113.451 23.98H197.643C198.298 23.9822 198.926 24.2426 199.39 24.7045C199.855 25.1664 200.118 25.7928 200.124 26.4477V144.791C200.124 145.45 199.863 146.082 199.398 146.549C198.933 147.015 198.302 147.278 197.643 147.281ZM113.451 24.0672C112.82 24.0683 112.216 24.3195 111.769 24.7657C111.323 25.2119 111.072 25.8167 111.071 26.4477V144.791C111.072 145.422 111.323 146.027 111.769 146.473C112.216 146.919 112.82 147.171 113.451 147.172H197.643C198.274 147.171 198.879 146.919 199.325 146.473C199.771 146.027 200.022 145.422 200.024 144.791V26.4477C200.022 25.8167 199.771 25.2119 199.325 24.7657C198.879 24.3195 198.274 24.0683 197.643 24.0672H113.451Z" fill="#EBEBEB"/>
<path d="M87.3919 170.877H76.0559V170.986H87.3919V170.877Z" fill="#EBEBEB"/>
<path d="M46.4602 169.696H22.8726V169.805H46.4602V169.696Z" fill="#EBEBEB"/>
<path d="M75.6198 174.927H64.1443V175.036H75.6198V174.927Z" fill="#EBEBEB"/>
<path d="M129.518 174.195H112.588V174.304H129.518V174.195Z" fill="#EBEBEB"/>
<path d="M138.059 174.195H133.398V174.304H138.059V174.195Z" fill="#EBEBEB"/>
<path d="M196.161 172.355H172.373V172.464H196.161V172.355Z" fill="#EBEBEB"/>
<path d="M67.8373 35.342H28.7673V119.834H67.8373V35.342Z" fill="#E6E6E6"/>
<path d="M69.3327 35.342H30.2627V119.834H69.3327V35.342Z" fill="#F5F5F5"/>
<path d="M66.647 117.332V37.8491H32.9442L32.9442 117.332H66.647Z" fill="white"/>
<path d="M66.647 117.332V37.8491H65.5177V117.332H66.647Z" fill="#E6E6E6"/>
<path d="M68.2252 107.034H31.3745V110.395H68.2252V107.034Z" fill="#F5F5F5"/>
<path d="M68.2252 98.1653H31.3745V101.527H68.2252V98.1653Z" fill="#F5F5F5"/>
<path d="M121.583 35.342H82.5129V119.834H121.583V35.342Z" fill="#E6E6E6"/>
<path d="M123.079 35.342H84.0085V119.834H123.079V35.342Z" fill="#F5F5F5"/>
<path d="M120.393 117.332V37.8491H86.6898V117.332H120.393Z" fill="white"/>
<path d="M120.397 117.332V37.8491H119.268V117.332H120.397Z" fill="#E6E6E6"/>
<path d="M121.971 107.034H85.1204V110.395H121.971V107.034Z" fill="#F5F5F5"/>
<path d="M121.971 98.1653H85.1204V101.527H121.971V98.1653Z" fill="#F5F5F5"/>
<path d="M151.035 95.8066C156.829 97.3108 163.134 102.124 164.926 106.885C165.429 102.708 166.104 98.5534 166.953 94.4201C166.5 94.9701 165.989 95.4687 165.427 95.9069C157.348 102.774 152.718 87.3133 155.94 75.6198C161.499 77.8347 167.149 83.4111 168.331 88.3684C169.357 84.2729 170.552 80.2181 171.915 76.204C171.395 76.6998 170.824 77.1384 170.21 77.512C161.329 83.3544 158.665 67.3838 163.369 56.087C168.601 58.9864 173.506 65.243 174.047 70.3529C175.471 66.6673 177.045 63.0339 178.769 59.4529C172.665 59.3396 175.207 47.7812 180.683 41.3938C184.934 47.1534 187.572 57.6348 180.644 59.2436C179.978 60.604 179.334 61.9715 178.712 63.3464C182.767 60.0677 190.658 60.2944 196.074 62.797C191.19 70.7192 180.482 80.4986 176.759 71.1116C176.517 70.4456 176.354 69.7534 176.275 69.0493C174.705 72.9529 173.303 76.906 172.067 80.9085C175.669 77.1894 183.512 76.4526 189.198 78.262C185.387 86.6375 175.996 97.6073 171.117 88.8001C170.791 88.1744 170.544 87.5111 170.38 86.825C169.313 90.8653 168.42 94.9346 167.699 99.033C170.803 94.9128 178.49 93.2255 184.354 94.3111C181.629 103.031 173.676 115.065 167.738 106.955C167.337 106.377 167.009 105.752 166.761 105.093C166.206 109.221 165.825 113.367 165.619 117.532C168.187 113.059 175.603 110.443 181.559 110.792C179.946 119.765 173.537 132.705 166.639 125.385C166.48 125.198 166.282 125.048 166.059 124.946C165.835 124.844 165.592 124.793 165.347 124.795C165.101 124.798 164.86 124.854 164.638 124.961C164.417 125.067 164.222 125.221 164.067 125.411L163.853 125.677C163.833 121.465 163.99 117.261 164.324 113.063C163.938 113.662 163.49 114.218 162.99 114.725C155.813 122.516 149.299 107.753 151.035 95.8066Z" fill="#F5F5F5"/>
<path d="M173.027 105.386C169.207 106.602 165.126 110.086 164.054 113.39C163.615 110.562 163.061 107.753 162.392 104.963C162.706 105.32 163.059 105.642 163.443 105.922C168.994 110.338 171.697 99.6521 169.259 91.7867C165.615 93.4783 161.987 97.4547 161.324 100.882C160.539 98.1261 159.644 95.4011 158.639 92.7066C158.995 93.0238 159.385 93.3002 159.803 93.5307C165.863 97.2236 167.241 86.2538 163.823 78.7067C160.409 80.8518 157.304 85.2815 157.069 88.7739C156.031 86.309 154.893 83.8849 153.655 81.5014C157.705 81.2267 155.739 73.4311 151.933 69.2585C149.247 73.3221 147.752 80.5509 152.404 81.4186C152.877 82.3255 153.34 83.2382 153.79 84.1567C151.009 82.0508 145.759 82.465 142.219 84.3485C145.668 89.5805 153.036 95.9025 155.299 89.3843C155.442 88.9223 155.533 88.4454 155.569 87.9629C156.711 90.5789 157.743 93.2269 158.665 95.9069C156.175 93.4914 150.934 93.2429 147.194 94.6599C149.94 100.249 156.463 107.417 159.493 101.257C159.693 100.82 159.84 100.36 159.929 99.8875C160.74 102.602 161.436 105.349 162.018 108.128C159.838 105.42 154.693 104.522 150.812 105.455C152.844 111.315 158.438 119.25 162.188 113.53C162.442 113.12 162.646 112.681 162.794 112.222C163.264 115.015 163.621 117.829 163.862 120.663C162.044 117.698 157.038 116.155 153.084 116.591C154.392 122.651 158.97 131.266 163.378 126.048C163.476 125.916 163.603 125.808 163.748 125.732C163.894 125.655 164.055 125.612 164.219 125.606C164.383 125.6 164.547 125.63 164.698 125.695C164.849 125.76 164.983 125.858 165.091 125.982L165.244 126.157C165.148 123.288 164.939 120.428 164.616 117.576C164.886 117.97 165.197 118.334 165.545 118.662C170.506 123.745 174.474 113.473 173.027 105.386Z" fill="#EBEBEB"/>
<path d="M182.815 119.586C182.815 119.586 182.405 166.726 166.783 166.726C151.161 166.726 150.751 119.586 150.751 119.586H182.815Z" fill="#F0F0F0"/>
<path d="M42.5711 154.728H127.133V125.956L42.5711 125.956V154.728Z" fill="#F5F5F5"/>
<path d="M124.809 152.399V128.28H44.8992V152.399H124.809Z" fill="#EBEBEB"/>
<path d="M98.0391 152.404V128.284H44.895V152.404H98.0391Z" fill="#E6E6E6"/>
<path d="M98.0391 152.404V128.284H62.0385V152.404H98.0391Z" fill="#E0E0E0"/>
<path d="M122.062 144.39V136.293H121.33V144.39H122.062Z" fill="#E0E0E0"/>
<path d="M124.809 130.176V128.28H44.8992V130.176H124.809Z" fill="#E0E0E0"/>
<path d="M42.571 125.956H30.8557V154.728H42.571V125.956Z" fill="#E6E6E6"/>
<path d="M43.7046 166.726H42.571V154.728H44.5287L43.7046 166.726Z" fill="#F5F5F5"/>
<path d="M126 166.726H127.133V154.728H125.176L126 166.726Z" fill="#F5F5F5"/>
<path d="M31.9893 166.726H30.8557V154.728H32.8134L31.9893 166.726Z" fill="#E6E6E6"/>
<path d="M114.284 166.726H115.418V154.728H113.46L114.284 166.726Z" fill="#E6E6E6"/>
<path d="M109 186.416C155.688 186.416 193.536 184.206 193.536 181.481C193.536 178.755 155.688 176.545 109 176.545C62.3119 176.545 24.4639 178.755 24.4639 181.481C24.4639 184.206 62.3119 186.416 109 186.416Z" fill="#F5F5F5"/>
<path d="M124.818 58.2191C132.98 55.4331 138.648 50.018 139.127 43.4213C139.882 33.0358 127.491 23.6705 111.45 22.4933C95.4098 21.3161 81.8022 28.8109 81.0436 39.2008C80.4288 47.681 88.5733 55.4767 100.31 58.6857C97.2584 62.0865 92.2575 63.3378 92.2575 63.3378C92.2575 63.3378 101.81 62.7841 105.146 59.7321C106.314 59.9108 107.504 60.0503 108.721 60.1375C112.705 60.4398 116.711 60.183 120.624 59.3745C123.654 62.5791 131.484 64.7199 131.484 64.7199C131.484 64.7199 126.706 62.3481 124.818 58.2191Z" fill="white"/>
<path opacity="0.3" d="M124.818 58.2191C132.98 55.4331 138.648 50.018 139.127 43.4213C139.882 33.0358 127.491 23.6705 111.45 22.4933C95.4098 21.3161 81.8022 28.8109 81.0436 39.2008C80.4288 47.681 88.5733 55.4767 100.31 58.6857C97.2584 62.0865 92.2575 63.3378 92.2575 63.3378C92.2575 63.3378 101.81 62.7841 105.146 59.7321C106.314 59.9108 107.504 60.0503 108.721 60.1375C112.705 60.4398 116.711 60.183 120.624 59.3745C123.654 62.5791 131.484 64.7199 131.484 64.7199C131.484 64.7199 126.706 62.3481 124.818 58.2191Z" fill="#FE7A36"/>
<path d="M127.312 50.4715L123.867 50.7506C124.085 51.2565 124.19 51.8037 124.175 52.3543C124.16 52.9048 124.026 53.4456 123.782 53.9391C123.537 54.4327 123.189 54.8673 122.76 55.2128C122.331 55.5583 121.832 55.8065 121.298 55.9402C120.763 56.074 120.207 56.09 119.665 55.9873C119.124 55.8846 118.612 55.6655 118.164 55.3453C117.716 55.025 117.343 54.6113 117.07 54.1326C116.798 53.654 116.633 53.1218 116.586 52.573C116.552 52.1573 116.588 51.7389 116.691 51.3348L110.866 51.81L110.391 45.9807C111.312 46.2262 112.293 46.0977 113.12 45.6232C113.774 45.2596 114.31 44.7148 114.661 44.0542C115.013 43.3937 115.167 42.6455 115.104 41.8998C115.044 41.3031 114.844 40.7292 114.519 40.2248C114.195 39.7205 113.756 39.3002 113.238 38.9982C112.72 38.6962 112.138 38.5212 111.539 38.4875C110.94 38.4538 110.342 38.5623 109.793 38.8042L109.318 32.9792L115.147 32.504C114.915 31.9805 114.808 31.4104 114.834 30.8384C114.878 29.9172 115.253 29.0428 115.89 28.3751C116.526 27.7075 117.382 27.2911 118.3 27.2022C118.904 27.148 119.513 27.2395 120.075 27.469C120.637 27.6986 121.136 28.0595 121.529 28.5215C121.923 28.9836 122.2 29.5333 122.338 30.1245C122.475 30.7158 122.469 31.3314 122.32 31.9197L125.768 31.6407C126.398 31.59 127.023 31.7909 127.505 32.1995C127.987 32.6081 128.287 33.191 128.341 33.8207L129.492 47.9035C129.542 48.5329 129.341 49.1568 128.933 49.6382C128.524 50.1196 127.941 50.4193 127.312 50.4715Z" fill="#263238"/>
<path d="M111.442 38.4944C110.876 38.4736 110.312 38.5809 109.794 38.8084L109.318 32.9834L103.498 33.4543C103.679 33.8681 103.783 34.3112 103.807 34.7623C103.839 35.7482 103.486 36.7078 102.824 37.439C102.162 38.1702 101.242 38.6158 100.258 38.6819C99.274 38.7481 98.3025 38.4296 97.5486 37.7935C96.7947 37.1575 96.3171 36.2536 96.2165 35.2724C96.1813 34.8569 96.2152 34.4385 96.3168 34.0342L92.8723 34.3176C92.5605 34.3429 92.2567 34.4294 91.9784 34.5722C91.7 34.715 91.4525 34.9112 91.2501 35.1497C91.0476 35.3882 90.8941 35.6643 90.7984 35.9621C90.7027 36.26 90.6667 36.5738 90.6923 36.8856L91.8347 50.9597C91.888 51.5894 92.1886 52.1723 92.6707 52.5809C93.1528 52.9894 93.7772 53.1904 94.4071 53.1397L97.8558 52.8563C97.6633 53.6005 97.7044 54.386 97.9736 55.106C98.153 55.5785 98.4247 56.0105 98.7731 56.3767C99.1214 56.7429 99.5392 57.036 100.002 57.2388C100.465 57.4416 100.964 57.5501 101.469 57.558C101.974 57.5658 102.476 57.4728 102.945 57.2844C103.414 57.096 103.841 56.816 104.2 56.4607C104.56 56.1055 104.845 55.6821 105.039 55.2154C105.233 54.7487 105.332 54.248 105.33 53.7427C105.328 53.2373 105.225 52.7373 105.028 52.272L110.857 51.8012L110.382 45.9718C110.786 46.075 111.205 46.1104 111.62 46.0765C112.626 45.9953 113.559 45.518 114.213 44.7494C114.867 43.9809 115.189 42.984 115.108 41.9781C115.021 41.0526 114.601 40.19 113.927 39.5497C113.253 38.9093 112.37 38.5345 111.442 38.4944Z" fill="#FE7A36"/>
<path d="M104.147 26.7749C103.808 26.4527 103.448 26.1527 103.07 25.8768L103.349 25.4844C103.747 25.7713 104.125 26.086 104.479 26.4261L104.147 26.7749Z" fill="#263238"/>
<path d="M107.06 30.7817C106.645 29.8148 106.083 28.9177 105.394 28.1221L105.765 27.8169C106.486 28.655 107.075 29.5991 107.509 30.616L107.06 30.7817Z" fill="#FE7A36"/>
<path d="M110.273 29.7744H109.793C109.806 27.8471 110.491 25.9845 111.729 24.5076L112.1 24.8171C110.933 26.2071 110.288 27.9599 110.273 29.7744Z" fill="#263238"/>
<path d="M107.984 27.5248C107.984 27.503 107.474 25.1312 106.528 23.7186L106.925 23.4482C107.927 24.9394 108.433 27.3286 108.455 27.4289L107.984 27.5248Z" fill="#FE7A36"/>
<path d="M114.668 58.3239C114.304 57.9941 113.964 57.6401 113.648 57.2644L114.014 56.9548C114.317 57.3113 114.644 57.6477 114.991 57.962L114.668 58.3239Z" fill="#263238"/>
<path d="M112.981 56.5145C112.217 55.5072 111.64 54.3718 111.276 53.1616L111.742 53.0396C112.089 54.1944 112.637 55.2791 113.36 56.2441L112.981 56.5145Z" fill="#FE7A36"/>
<path d="M109.763 56.1352C109.569 55.1424 109.694 54.1139 110.12 53.1965L110.556 53.4102C110.188 54.2299 110.077 55.1421 110.238 56.0262L109.763 56.1352Z" fill="#FE7A36"/>
<path d="M79.823 141.355C77.0196 125.707 75.8511 106.842 75.8511 106.842L90.7928 106.606C90.7928 106.606 89.5153 132.034 88.8962 142.685C88.2553 153.755 87.8062 175.067 87.8062 175.067H82.6527C82.6527 175.067 78.2665 155.046 79.823 141.355Z" fill="#263238"/>
<path opacity="0.2" d="M82.8401 111.101C82.8401 111.101 80.8127 126.292 79.1472 137.427C77.6691 128.066 76.7317 118.243 76.2434 112.318L82.8401 111.101Z" fill="black"/>
<path d="M94.7297 180.299C94.7297 180.299 87.8104 178.673 87.5052 176.314L83.0928 176.885L82.6089 181.481H84.4314L84.7235 180.909L85.3339 181.481C91.5251 181.481 93.8184 181.415 94.9651 181.045C95.0014 180.911 94.9985 180.769 94.9567 180.637C94.915 180.505 94.8362 180.388 94.7297 180.299Z" fill="#263238"/>
<path d="M82.4651 177.718C84.1219 177.814 87.4311 177.57 88.0764 177.251C88.7217 176.933 88.338 174.365 88.338 174.365C88.338 174.365 82.5523 173.789 82.0422 174.108C81.532 174.426 82.4651 177.718 82.4651 177.718Z" fill="#FE7A36"/>
<path opacity="0.3" d="M82.4651 177.718C84.1219 177.814 87.4311 177.57 88.0764 177.251C88.7217 176.933 88.338 174.365 88.338 174.365C88.338 174.365 82.5523 173.789 82.0422 174.108C81.532 174.426 82.4651 177.718 82.4651 177.718Z" fill="white"/>
<path d="M65.9494 140.911C68.5 125.175 68.4172 114.664 70.9678 106.903L85.552 106.702C85.552 106.702 78.4801 131.672 75.2798 142.066C72.0796 152.46 66.2198 175.067 66.2198 175.067H61.4761C61.4761 175.067 61.6854 153.084 65.9494 140.911Z" fill="#263238"/>
<path d="M71.1902 180.299C71.1902 180.299 65.9582 178.673 65.6661 176.314L61.2538 176.885L60.7742 181.481H61.9121L62.2042 180.909L62.8147 181.481C69.0059 181.481 70.279 181.415 71.4257 181.045C71.4619 180.911 71.459 180.769 71.4173 180.637C71.3755 180.505 71.2967 180.388 71.1902 180.299Z" fill="#263238"/>
<path d="M60.7742 177.604C61.7901 177.814 65.64 177.57 66.3289 177.251C67.0177 176.933 66.8041 174.238 66.8041 174.238C66.8041 174.238 61.5721 173.615 61.0096 173.933C60.4472 174.252 60.7742 177.604 60.7742 177.604Z" fill="#FE7A36"/>
<path opacity="0.3" d="M60.7742 177.604C61.7901 177.814 65.64 177.57 66.3289 177.251C67.0177 176.933 66.8041 174.238 66.8041 174.238C66.8041 174.238 61.5721 173.615 61.0096 173.933C60.4472 174.252 60.7742 177.604 60.7742 177.604Z" fill="white"/>
<path d="M90.7142 79.1425L91.9656 80.2195L93.2736 81.3095C94.1456 82.0376 95.0176 82.7352 95.8896 83.4154C96.3256 83.7511 96.7616 84.0781 97.1976 84.3876C97.6336 84.6972 98.0696 85.0024 98.4838 85.2596C98.898 85.5169 99.3296 85.7741 99.7133 85.9834C100.011 86.1432 100.32 86.2816 100.638 86.3976L100.04 86.354C99.9574 86.3932 100.167 86.3976 100.433 86.354C100.762 86.2686 101.083 86.1549 101.392 86.0139C102.164 85.6638 102.912 85.2648 103.633 84.8193C104.409 84.3833 105.185 83.8601 105.966 83.3412L108.311 81.7716L108.368 81.7367C108.701 81.5238 109.096 81.4301 109.489 81.4711C109.882 81.5121 110.249 81.6854 110.531 81.9625C110.813 82.2396 110.992 82.6041 111.039 82.9964C111.087 83.3887 111 83.7854 110.792 84.1217C110.224 84.9853 109.609 85.8165 108.948 86.6112C108.283 87.4147 107.576 88.1817 106.829 88.9089C106.037 89.6833 105.181 90.3893 104.269 91.0192C103.746 91.3809 103.191 91.696 102.613 91.9609C101.847 92.3235 101.02 92.5394 100.175 92.5975C100.045 92.6107 99.9135 92.6107 99.783 92.5975L99.5781 92.567C98.7397 92.4382 97.9189 92.2129 97.1322 91.8956C96.4727 91.6359 95.8292 91.3375 95.205 91.0017C94.0524 90.389 92.9386 89.7061 91.8697 88.9569C90.8233 88.2375 89.8335 87.4745 88.87 86.6941C88.3904 86.2973 87.9108 85.9049 87.4486 85.4907C86.9865 85.0765 86.5417 84.6754 86.0534 84.2045C85.4044 83.5824 85.024 82.7315 84.9932 81.8331C84.9624 80.9346 85.2837 80.0596 85.8885 79.3946C86.4933 78.7295 87.3339 78.3268 88.2313 78.2724C89.1286 78.218 90.0117 78.5162 90.6924 79.1033L90.7142 79.1425Z" fill="#CF7A64"/>
<path d="M108.908 84.9109L112.771 84.8804L111.437 80.4419C111.437 80.4419 107.949 80.8779 107.884 82.7919L108.908 84.9109Z" fill="#CE7A63"/>
<path d="M115.61 82.0377L114.877 80.564C114.737 80.279 114.5 80.0533 114.208 79.927C113.917 79.8008 113.59 79.7824 113.286 79.8752L111.437 80.442L112.771 84.8804L114.978 83.8471C115.139 83.7711 115.284 83.6637 115.403 83.5311C115.523 83.3986 115.614 83.2435 115.673 83.0751C115.732 82.9066 115.757 82.7281 115.746 82.55C115.735 82.3719 115.689 82.1977 115.61 82.0377Z" fill="#CE7A63"/>
<path d="M87.1738 76.7707C85.7768 77.8211 84.8129 79.3468 84.4643 81.0595C84.1156 82.7722 84.4064 84.5533 85.2816 86.0663C85.5214 86.5009 85.8224 86.8988 86.1754 87.2478C87.7057 88.6997 91.4989 89.9815 93.9885 91.0628C97.1582 89.9336 98.7845 86.5764 98.3005 84.7147C95.8894 81.5188 91.4858 76.8361 89.2012 76.217C88.508 76.0252 87.8409 76.2999 87.1738 76.7707Z" fill="#263238"/>
<path d="M73.2133 75.5108C77.676 75.0186 82.1777 74.9894 86.6465 75.4236C88.4853 75.6179 90.1867 76.4874 91.4214 77.8638C92.6561 79.2403 93.3363 81.0258 93.3303 82.8748C93.3085 89.7462 92.2055 97.337 91.0631 107.893C87.8106 111.254 70.3619 107.757 70.3619 107.757C70.5451 103.927 71.0173 100.115 71.7745 96.356C71.1815 91.996 69.673 87.0256 68.8228 81.2486C68.7267 80.5825 68.7646 79.9039 68.9343 79.2526C69.104 78.6014 69.4021 77.9906 69.8111 77.4561C70.2201 76.9217 70.7317 76.4743 71.3159 76.1402C71.9002 75.8062 72.5452 75.5922 73.2133 75.5108Z" fill="#FE7A36"/>
<mask id="mask0_58_645" style="mask-type:luminance" maskUnits="userSpaceOnUse" x="68" y="75" width="26" height="35">
<path d="M73.2133 75.5108C77.676 75.0186 82.1777 74.9894 86.6465 75.4236C88.4853 75.6179 90.1867 76.4874 91.4214 77.8638C92.6561 79.2403 93.3363 81.0258 93.3303 82.8748C93.3085 89.7462 92.2055 97.337 91.0631 107.893C87.8106 111.254 70.3619 107.757 70.3619 107.757C70.5451 103.927 71.0173 100.115 71.7745 96.356C71.1815 91.996 69.673 87.0256 68.8228 81.2486C68.7267 80.5825 68.7646 79.9039 68.9343 79.2526C69.104 78.6014 69.4021 77.9906 69.8111 77.4561C70.2201 76.9217 70.7317 76.4743 71.3159 76.1402C71.9002 75.8062 72.5452 75.5922 73.2133 75.5108Z" fill="white"/>
</mask>
<g mask="url(#mask0_58_645)">
<g opacity="0.2">
<path d="M72.4721 82.84C72.4428 82.84 72.4146 82.8287 72.3934 82.8084C72.3723 82.788 72.3599 82.7603 72.3587 82.731C72.3576 82.7158 72.3595 82.7004 72.3644 82.686C72.3692 82.6715 72.377 82.6581 72.3872 82.6467C72.3974 82.6353 72.4098 82.6261 72.4236 82.6196C72.4374 82.6131 72.4525 82.6095 72.4677 82.6089C73.3353 82.5591 74.1632 82.2286 74.8265 81.6672C74.6995 81.6092 74.5876 81.5226 74.4995 81.4143C74.3903 81.2677 74.3131 81.0999 74.2728 80.9216C74.0155 79.9842 74.2466 78.7416 75.1753 78.2446C75.329 78.1393 75.5138 78.0889 75.6997 78.1015C75.8856 78.1142 76.0619 78.1892 76.1999 78.3143C76.2887 78.4332 76.3457 78.5728 76.3656 78.7198C76.4485 79.3178 76.345 79.9268 76.0691 80.4638C75.8703 80.8698 75.605 81.2396 75.2843 81.5582H75.3628C75.7053 81.5753 76.0473 81.5152 76.3635 81.3824C76.6797 81.2496 76.962 81.0474 77.1896 80.7908C77.648 80.2625 77.9179 79.5969 77.957 78.8986C77.9575 78.8835 77.9611 78.8686 77.9676 78.855C77.9742 78.8413 77.9835 78.8292 77.995 78.8194C78.0065 78.8095 78.0199 78.8022 78.0343 78.7978C78.0488 78.7934 78.064 78.7921 78.0791 78.7939C78.1095 78.7962 78.1379 78.8102 78.1582 78.8329C78.1786 78.8557 78.1893 78.8855 78.1881 78.916C78.1437 79.6661 77.8524 80.3805 77.3597 80.9478C77.1095 81.2313 76.7982 81.4544 76.4493 81.6002C76.1003 81.7459 75.7229 81.8106 75.3453 81.7892C75.2558 81.7804 75.167 81.7658 75.0794 81.7457C74.3549 82.3923 73.4329 82.775 72.4634 82.8313L72.4721 82.84ZM75.7029 78.3318C75.5573 78.337 75.4152 78.3774 75.2887 78.4495C74.469 78.8855 74.2684 80.0322 74.4951 80.8649C74.5277 81.0099 74.5901 81.1465 74.6783 81.266C74.7684 81.3747 74.888 81.4549 75.0227 81.4971C75.3679 81.1729 75.6515 80.7888 75.8598 80.3635C76.1147 79.8698 76.2121 79.3098 76.1389 78.759C76.1267 78.6522 76.0877 78.5502 76.0255 78.4626C75.9867 78.4145 75.9375 78.3757 75.8817 78.3493C75.8258 78.3229 75.7647 78.3094 75.7029 78.31V78.3318Z" fill="white"/>
<path d="M82.2385 87.152H82.1993C81.4924 86.9002 80.8885 86.422 80.4814 85.7917C80.2774 85.471 80.1491 85.108 80.106 84.7303C80.063 84.3527 80.1064 83.9701 80.2329 83.6117C80.2667 83.5278 80.3061 83.4463 80.3506 83.3676C79.9322 82.497 79.82 81.5107 80.0324 80.5684C80.0428 80.5423 80.0622 80.5208 80.0871 80.5078C80.112 80.4948 80.1408 80.4911 80.1681 80.4974C80.1955 80.5037 80.2198 80.5196 80.2364 80.5423C80.2531 80.5649 80.2611 80.5927 80.2591 80.6208C80.0662 81.4694 80.1518 82.3577 80.5032 83.1539C80.5945 83.0463 80.7094 82.9613 80.839 82.9054C81.0085 82.8411 81.19 82.8144 81.3709 82.8269C82.3475 82.8269 83.455 83.4024 83.6904 84.4401C83.7488 84.6166 83.7461 84.8075 83.6829 84.9823C83.6196 85.1571 83.4994 85.3055 83.3416 85.4037C83.2027 85.4565 83.0526 85.4731 82.9056 85.4516C82.3088 85.3628 81.7535 85.0935 81.3142 84.6799C80.9789 84.3762 80.6974 84.018 80.4814 83.6204C80.4814 83.6466 80.4596 83.6728 80.4509 83.6946C80.3398 84.0185 80.3024 84.3632 80.3417 84.7034C80.3809 85.0436 80.4957 85.3708 80.6776 85.6609C81.0549 86.2492 81.6182 86.6943 82.2778 86.9253C82.2923 86.9302 82.3057 86.9379 82.3171 86.9481C82.3285 86.9583 82.3378 86.9707 82.3443 86.9845C82.3508 86.9984 82.3545 87.0134 82.355 87.0287C82.3556 87.044 82.353 87.0593 82.3475 87.0736C82.3401 87.0965 82.3255 87.1166 82.3059 87.1307C82.2863 87.1448 82.2627 87.1523 82.2385 87.152ZM80.6122 83.3893C80.8323 83.8128 81.1278 84.1925 81.4842 84.5099C81.8862 84.895 82.3983 85.1449 82.9492 85.2249C83.0543 85.2442 83.1627 85.2352 83.2631 85.1988C83.4898 85.0985 83.5465 84.7628 83.4811 84.4968C83.2762 83.5856 82.2472 83.0754 81.384 83.058C81.2357 83.0497 81.0873 83.072 80.948 83.1234C80.8121 83.1766 80.6951 83.2692 80.6122 83.3893Z" fill="white"/>
<path d="M91.1633 84.305C91.0735 84.3089 90.984 84.293 90.9011 84.2583C90.8182 84.2236 90.744 84.1711 90.6837 84.1044C90.5899 83.9892 90.5296 83.8504 90.5093 83.7033C90.4091 83.1098 90.4976 82.4999 90.7622 81.9593C90.9508 81.5484 91.2056 81.1714 91.5165 80.8431H91.438C91.0958 80.8359 90.7563 80.9049 90.4441 81.0452C90.1319 81.1854 89.8548 81.3934 89.6329 81.6541C89.1874 82.1946 88.9343 82.868 88.9135 83.5681C88.9113 83.5986 88.8973 83.627 88.8745 83.6473C88.8518 83.6676 88.822 83.6783 88.7915 83.6771C88.761 83.6749 88.7326 83.6609 88.7123 83.6381C88.6919 83.6153 88.6813 83.5855 88.6825 83.555C88.7063 82.8047 88.9794 82.0837 89.4585 81.5058C89.703 81.2192 90.0094 80.9918 90.3545 80.8407C90.6997 80.6897 91.0746 80.6189 91.4511 80.6338C91.542 80.6377 91.6324 80.6494 91.7214 80.6687C92.424 80.0059 93.3311 79.6015 94.2938 79.522C94.3088 79.5202 94.324 79.5215 94.3385 79.5259C94.353 79.5303 94.3664 79.5376 94.3779 79.5475C94.3893 79.5573 94.3987 79.5694 94.4052 79.5831C94.4117 79.5967 94.4154 79.6116 94.4159 79.6267C94.4172 79.6565 94.4071 79.6857 94.3876 79.7084C94.3682 79.731 94.3409 79.7455 94.3112 79.7488C93.4436 79.8238 92.6229 80.1753 91.9699 80.7516C92.1014 80.8041 92.2181 80.8879 92.31 80.9957C92.4212 81.139 92.5013 81.3038 92.5454 81.4797C92.8245 82.4127 92.6239 83.6379 91.7083 84.1785C91.5399 84.2652 91.3526 84.3086 91.1633 84.305ZM91.7824 80.8954C91.4449 81.2271 91.1702 81.617 90.9715 82.0465C90.729 82.5472 90.6453 83.1101 90.7317 83.6597C90.7499 83.765 90.7916 83.8648 90.8538 83.9518C90.9601 84.0314 91.0893 84.0744 91.2222 84.0744C91.355 84.0744 91.4843 84.0314 91.5906 83.9518C92.3972 83.4809 92.5716 82.3473 92.3274 81.5189C92.2907 81.3738 92.2255 81.2375 92.1356 81.1178C92.0411 81.0119 91.9187 80.9349 91.7824 80.8954Z" fill="white"/>
<path d="M86.6812 82.0117H86.6594C86.6296 82.0053 86.6034 81.9877 86.5864 81.9625C86.5693 81.9373 86.5626 81.9065 86.5678 81.8765C86.7385 81.024 86.6315 80.1393 86.2626 79.3521C86.1717 79.4593 86.0587 79.5456 85.9313 79.6049C85.7628 79.6745 85.5814 79.7072 85.3993 79.7009C84.4271 79.7009 83.3153 79.1646 83.058 78.14C82.9946 77.9648 82.9924 77.7733 83.0518 77.5968C83.1112 77.4202 83.2286 77.2689 83.385 77.1677C83.5231 77.1119 83.6732 77.0924 83.821 77.111C84.4209 77.1833 84.9833 77.4408 85.4299 77.8479C85.7757 78.1416 86.0704 78.4908 86.3019 78.8812L86.328 78.8071C86.4324 78.4804 86.462 78.1344 86.4144 77.7947C86.3669 77.4551 86.2434 77.1305 86.0533 76.8451C85.6592 76.2676 85.0839 75.8381 84.4183 75.6243C84.3897 75.6134 84.3665 75.5919 84.3534 75.5643C84.3404 75.5366 84.3387 75.505 84.3486 75.476C84.3534 75.4615 84.3612 75.4481 84.3714 75.4367C84.3815 75.4252 84.3939 75.416 84.4078 75.4095C84.4216 75.403 84.4367 75.3993 84.452 75.3988C84.4673 75.3982 84.4825 75.4008 84.4968 75.4063C85.2075 75.6361 85.8212 76.0964 86.2408 76.7143C86.455 77.0301 86.5935 77.3911 86.6457 77.7691C86.6979 78.1472 86.6623 78.5322 86.5417 78.8943C86.5118 78.9784 86.4754 79.06 86.4327 79.1384C86.8723 80 87.0075 80.985 86.8163 81.9332C86.8065 81.96 86.7877 81.9825 86.763 81.9969C86.7383 82.0112 86.7093 82.0165 86.6812 82.0117ZM83.6859 77.3334C83.6112 77.3311 83.537 77.3445 83.4679 77.3726C83.2455 77.4773 83.1975 77.8086 83.2673 78.0789C83.494 78.9815 84.5273 79.4654 85.3863 79.4654C85.5352 79.4727 85.684 79.4475 85.8223 79.3913C85.951 79.3317 86.06 79.2363 86.1362 79.1166C85.9139 78.701 85.6185 78.3288 85.2642 78.0179C84.854 77.6433 84.3374 77.4056 83.7861 77.3377L83.6859 77.3334Z" fill="white"/>
<path d="M74.3598 94.6121C74.333 94.6069 74.3089 94.5925 74.2915 94.5714C74.2741 94.5504 74.2646 94.5239 74.2646 94.4966C74.2646 94.4693 74.2741 94.4428 74.2915 94.4217C74.3089 94.4007 74.333 94.3863 74.3598 94.3811C75.2285 94.3303 76.0575 93.9999 76.7229 93.4393C76.5947 93.3813 76.4813 93.2948 76.3916 93.1864C76.283 93.0411 76.2058 92.8748 76.1649 92.6981C75.9076 91.7563 76.1387 90.5181 77.0717 90.0211C77.2238 89.914 77.4078 89.8621 77.5934 89.874C77.7789 89.8859 77.9549 89.9608 78.092 90.0865C78.1808 90.2053 78.2378 90.3449 78.2577 90.4919C78.3406 91.0899 78.2371 91.6989 77.9612 92.2359C77.7601 92.6339 77.4933 92.995 77.172 93.3041H77.2505C77.593 93.3213 77.935 93.2612 78.2513 93.1284C78.5675 92.9955 78.8498 92.7934 79.0773 92.5368C79.5366 92.009 79.8066 91.3431 79.8447 90.6445C79.8452 90.6294 79.8488 90.6146 79.8554 90.6009C79.8619 90.5873 79.8712 90.5752 79.8827 90.5653C79.8942 90.5555 79.9076 90.5482 79.9221 90.5438C79.9365 90.5394 79.9518 90.5381 79.9668 90.5399C79.9972 90.5421 80.0256 90.5561 80.046 90.5789C80.0663 90.6017 80.077 90.6315 80.0758 90.662C80.0324 91.4123 79.741 92.127 79.2474 92.6937C78.9972 92.9773 78.6859 93.2004 78.337 93.3461C77.9881 93.4919 77.6106 93.5565 77.2331 93.5352C77.1436 93.526 77.0548 93.5115 76.9671 93.4916C76.2428 94.1386 75.3207 94.5213 74.3511 94.5773L74.3598 94.6121ZM77.608 90.0995C77.4554 90.0997 77.3054 90.1387 77.172 90.2129C76.3523 90.6489 76.1518 91.7956 76.3785 92.6283C76.4111 92.7733 76.4735 92.9099 76.5616 93.0294C76.6518 93.1381 76.7714 93.2183 76.9061 93.2605C77.2519 92.9369 77.5356 92.5527 77.7432 92.1269C77.9981 91.6332 78.0955 91.0732 78.0222 90.5225C78.0101 90.4156 77.9711 90.3136 77.9089 90.226C77.87 90.1854 77.8233 90.1533 77.7716 90.1315C77.7198 90.1098 77.6641 90.0989 77.608 90.0995Z" fill="white"/>
<path d="M84.3878 99.4081H84.3442C83.638 99.1552 83.0345 98.6772 82.6264 98.0478C82.4219 97.7272 82.2936 97.364 82.2513 96.9861C82.2089 96.6082 82.2537 96.2257 82.3822 95.8678C82.4145 95.7839 82.4523 95.7023 82.4956 95.6236C82.0783 94.7527 81.9676 93.7662 82.1817 92.8245C82.1852 92.8098 82.1917 92.796 82.2007 92.7838C82.2097 92.7716 82.221 92.7614 82.234 92.7537C82.247 92.746 82.2614 92.7409 82.2764 92.7389C82.2914 92.7368 82.3066 92.7377 82.3212 92.7417C82.3357 92.7447 82.3495 92.7507 82.3616 92.7592C82.3737 92.7678 82.384 92.7787 82.3918 92.7914C82.3995 92.804 82.4046 92.8181 82.4067 92.8328C82.4088 92.8475 82.4079 92.8625 82.404 92.8768C82.2128 93.726 82.3 94.6141 82.6526 95.41C82.744 95.3026 82.8589 95.2176 82.9883 95.1615C83.1582 95.0987 83.3394 95.072 83.5202 95.083C84.4925 95.083 85.6043 95.6585 85.8397 96.6962C85.8985 96.8731 85.8956 97.0646 85.8314 97.2396C85.7673 97.4146 85.6457 97.5627 85.4866 97.6597C85.3483 97.7152 85.1975 97.7318 85.0506 97.7077C84.4528 97.6219 83.8966 97.3522 83.4592 96.936C83.1251 96.6311 82.8438 96.2731 82.6264 95.8765C82.6264 95.9027 82.6264 95.9288 82.5959 95.9506C82.4847 96.2746 82.4474 96.6192 82.4866 96.9595C82.5259 97.2997 82.6407 97.6268 82.8226 97.917C83.2015 98.5055 83.7662 98.9506 84.4271 99.1814C84.4416 99.1861 84.4549 99.1939 84.4663 99.2042C84.4776 99.2144 84.4866 99.227 84.4928 99.2409C84.4989 99.2549 84.5021 99.27 84.5021 99.2853C84.502 99.3006 84.4987 99.3157 84.4925 99.3296C84.4859 99.3523 84.4721 99.3721 84.4532 99.3863C84.4344 99.4004 84.4114 99.4081 84.3878 99.4081ZM82.7616 95.6454C82.9787 96.0708 83.2746 96.451 83.6336 96.7659C84.0349 97.1501 84.5449 97.4013 85.0942 97.4853C85.2012 97.5011 85.3104 97.4906 85.4124 97.4548C85.6392 97.3545 85.6915 97.0188 85.6304 96.7529C85.4255 95.8416 84.3966 95.3315 83.5333 95.3141C83.3849 95.3045 83.2363 95.3268 83.0973 95.3795C82.9618 95.4334 82.845 95.5258 82.7616 95.6454Z" fill="white"/>
<path d="M76.1127 101.54C76.09 101.539 76.068 101.532 76.0494 101.518C76.0309 101.505 76.0165 101.487 76.0081 101.466C75.726 100.773 75.68 100.007 75.8773 99.2859C75.9819 98.922 76.1677 98.5866 76.4207 98.3049C76.6737 98.0232 76.9873 97.8026 77.3379 97.6596C77.4215 97.628 77.5075 97.6033 77.5951 97.5855C77.9681 96.6941 78.6299 95.9539 79.4743 95.484C79.4879 95.4735 79.5035 95.4662 79.5202 95.4624C79.537 95.4586 79.5543 95.4585 79.571 95.4621C79.5878 95.4657 79.6035 95.4729 79.6172 95.4833C79.6309 95.4936 79.6421 95.5068 79.6502 95.5219C79.6582 95.537 79.6628 95.5537 79.6638 95.5708C79.6647 95.5879 79.6619 95.605 79.6555 95.6209C79.6491 95.6368 79.6394 95.6512 79.6269 95.6629C79.6144 95.6747 79.5996 95.6835 79.5833 95.6889C78.8169 96.1078 78.2055 96.762 77.8393 97.555C77.9792 97.5542 78.1176 97.5839 78.2448 97.6422C78.4138 97.7234 78.5627 97.841 78.6808 97.9866C79.3173 98.7278 79.6356 99.9268 79.0165 100.794C78.9181 100.955 78.7687 101.077 78.5923 101.142C78.4159 101.207 78.2229 101.21 78.0442 101.152C77.9132 101.082 77.8021 100.98 77.7216 100.856C77.389 100.352 77.2213 99.758 77.242 99.1551C77.2463 98.7094 77.3243 98.2674 77.4731 97.8471L77.3989 97.8733C77.0846 98.0067 76.8041 98.2087 76.5778 98.4644C76.3515 98.7201 76.1852 99.0231 76.0909 99.3513C75.9062 100.025 75.9491 100.741 76.213 101.387C76.2186 101.401 76.2214 101.416 76.2211 101.432C76.2208 101.447 76.2176 101.462 76.2115 101.475C76.2054 101.489 76.1966 101.502 76.1856 101.512C76.1747 101.522 76.1617 101.53 76.1476 101.536L76.1127 101.54ZM77.7565 97.7817C77.5841 98.2238 77.494 98.6937 77.4905 99.1682C77.4696 99.7226 77.622 100.27 77.9265 100.733C77.9832 100.825 78.0629 100.9 78.1576 100.951C78.3843 101.056 78.6633 100.877 78.829 100.651C79.3697 99.8876 79.0688 98.7845 78.5064 98.1262C78.4137 98.0093 78.2979 97.9129 78.1663 97.8428C78.0377 97.7859 77.8961 97.7648 77.7565 97.7817Z" fill="white"/>
<path d="M75.572 109.201C74.8233 109.164 74.1081 108.879 73.5402 108.39C73.2515 108.143 73.0228 107.834 72.8717 107.486C72.7206 107.137 72.651 106.759 72.6682 106.38C72.6755 106.29 72.6886 106.201 72.7075 106.114C72.0572 105.39 71.6701 104.469 71.6087 103.498C71.6075 103.483 71.6095 103.468 71.6144 103.453C71.6193 103.439 71.6272 103.426 71.6374 103.415C71.6477 103.404 71.6601 103.395 71.6739 103.389C71.6877 103.383 71.7027 103.38 71.7177 103.38C71.7483 103.379 71.7781 103.389 71.8008 103.41C71.8236 103.43 71.8376 103.459 71.8398 103.489C71.8995 104.355 72.234 105.18 72.7947 105.843C72.8526 105.715 72.9391 105.602 73.0475 105.512C73.193 105.403 73.3591 105.324 73.5359 105.281C74.4733 105.024 75.6941 105.246 76.2173 106.153C76.3245 106.305 76.3768 106.49 76.3657 106.676C76.3547 106.862 76.2808 107.039 76.1562 107.178C76.0368 107.266 75.8977 107.325 75.7507 107.348C75.1532 107.432 74.5443 107.33 74.0067 107.055C73.6006 106.86 73.2294 106.6 72.908 106.284C72.9059 106.31 72.9059 106.336 72.908 106.362C72.8886 106.71 72.9484 107.057 73.0828 107.378C73.2173 107.699 73.4229 107.985 73.6841 108.215C74.2153 108.67 74.8821 108.937 75.5807 108.974C75.5958 108.974 75.6107 108.978 75.6243 108.985C75.6379 108.991 75.6501 109 75.6599 109.012C75.6697 109.023 75.6771 109.037 75.6815 109.051C75.6858 109.066 75.6872 109.081 75.6853 109.096C75.6848 109.11 75.6814 109.124 75.6754 109.137C75.6694 109.15 75.6609 109.162 75.6504 109.172C75.6398 109.181 75.6275 109.189 75.614 109.194C75.6006 109.199 75.5863 109.201 75.572 109.201ZM72.956 106.053C73.2832 106.397 73.6703 106.679 74.0983 106.885C74.5929 107.138 75.1529 107.232 75.7028 107.156C75.8097 107.141 75.9115 107.101 75.9993 107.038C76.1867 106.877 76.1431 106.545 75.9993 106.301C75.5415 105.486 74.4122 105.29 73.5795 105.521C73.4338 105.555 73.2961 105.617 73.174 105.704C73.0798 105.802 73.0109 105.922 72.9734 106.053H72.956Z" fill="white"/>
<path d="M71.9663 99.1813C71.2175 99.1416 70.503 98.8548 69.9345 98.366C69.6455 98.1196 69.4166 97.8105 69.2655 97.4621C69.1144 97.1137 69.0449 96.7354 69.0625 96.356C69.0704 96.2667 69.0835 96.1779 69.1017 96.0901C68.456 95.3724 68.0691 94.4591 68.003 93.4959C68.0018 93.4653 68.0125 93.4356 68.0328 93.4128C68.0532 93.39 68.0816 93.376 68.112 93.3738C68.1423 93.3736 68.1715 93.3847 68.194 93.4048C68.2166 93.4249 68.2309 93.4527 68.2341 93.4828C68.2928 94.3507 68.6274 95.1772 69.1889 95.8415C69.2479 95.7126 69.3342 95.598 69.4418 95.5058C69.5871 95.3972 69.7534 95.32 69.9301 95.2791C70.8675 95.0175 72.1101 95.2399 72.6115 96.1511C72.7188 96.3036 72.7711 96.488 72.76 96.6741C72.7489 96.8602 72.6751 97.037 72.5505 97.1757C72.4316 97.2645 72.2921 97.3215 72.145 97.3414C71.5479 97.429 70.9383 97.3284 70.401 97.0536C69.9938 96.8585 69.6224 96.5961 69.3023 96.2775C69.3006 96.3037 69.3006 96.3299 69.3023 96.356C69.2875 96.6984 69.3496 97.0398 69.4839 97.3552C69.6181 97.6705 69.8213 97.9518 70.0784 98.1785C70.6089 98.6342 71.2764 98.8996 71.975 98.9328C72.0054 98.935 72.0338 98.949 72.0542 98.9718C72.0745 98.9946 72.0852 99.0243 72.084 99.0549C72.0852 99.071 72.083 99.0873 72.0777 99.1026C72.0723 99.1179 72.0638 99.1319 72.0527 99.1438C72.0417 99.1557 72.0283 99.1651 72.0134 99.1716C71.9985 99.178 71.9825 99.1813 71.9663 99.1813ZM69.3503 96.029C69.6761 96.375 70.0635 96.6574 70.4926 96.8618C70.9865 97.1159 71.5471 97.2104 72.0971 97.1321C72.2045 97.1196 72.3068 97.079 72.3935 97.0144C72.581 96.8574 72.5374 96.5261 72.3935 96.2819C71.9575 95.4666 70.8065 95.2704 69.9737 95.5015C69.8288 95.5341 69.6922 95.5964 69.5726 95.6846C69.4758 95.7798 69.4052 95.8985 69.3677 96.029H69.3503Z" fill="white"/>
<path d="M93.0512 94.9914C92.9618 94.995 92.8728 94.9794 92.79 94.9455C92.7073 94.9116 92.6328 94.8604 92.5716 94.7952C92.4778 94.68 92.4175 94.5412 92.3972 94.3941C92.3002 93.8006 92.3885 93.1916 92.65 92.6501C92.8387 92.2406 93.0936 91.865 93.4043 91.5383H93.3258C92.9836 91.5311 92.6441 91.6001 92.3319 91.7404C92.0197 91.8806 91.7426 92.0886 91.5208 92.3493C91.0753 92.8881 90.8222 93.5601 90.8014 94.2589C90.8009 94.2742 90.7972 94.2892 90.7907 94.3031C90.7842 94.3169 90.775 94.3293 90.7636 94.3395C90.7522 94.3497 90.7389 94.3574 90.7244 94.3623C90.7099 94.3672 90.6946 94.3691 90.6793 94.3679C90.6496 94.3657 90.6219 94.3524 90.6017 94.3305C90.5814 94.3087 90.5702 94.28 90.5703 94.2502C90.5932 93.4997 90.8664 92.7784 91.3464 92.201C91.5896 91.9114 91.8952 91.6805 92.2402 91.5258C92.5853 91.371 92.9609 91.2963 93.3389 91.3072C93.4297 91.3148 93.52 91.3279 93.6092 91.3464C94.3126 90.6841 95.219 90.2785 96.1816 90.1954C96.1969 90.1942 96.2122 90.1961 96.2267 90.201C96.2412 90.2059 96.2545 90.2137 96.2659 90.2239C96.2773 90.2341 96.2866 90.2464 96.2931 90.2603C96.2995 90.2741 96.3032 90.2891 96.3037 90.3044C96.305 90.3342 96.2949 90.3634 96.2755 90.3861C96.2561 90.4088 96.2287 90.4232 96.1991 90.4265C95.3329 90.4991 94.5133 90.8492 93.8621 91.4249C93.9908 91.4822 94.1054 91.5671 94.1978 91.6734C94.3107 91.8156 94.3911 91.9808 94.4333 92.1574C94.7123 93.0904 94.5118 94.3156 93.5962 94.8519C93.4297 94.9449 93.2419 94.993 93.0512 94.9914ZM93.6746 91.5819C93.3377 91.9147 93.0643 92.3063 92.868 92.7373C92.628 93.2372 92.5445 93.7979 92.6282 94.3461C92.6452 94.4539 92.6886 94.5558 92.7547 94.6426C92.916 94.8257 93.2474 94.7778 93.4872 94.6426C94.2938 94.1674 94.4682 93.0338 94.224 92.2097C94.1873 92.0646 94.1221 91.9283 94.0322 91.8086C93.9352 91.7027 93.8118 91.6245 93.6746 91.5819Z" fill="white"/>
<path d="M92.4976 102.935C92.4686 102.934 92.441 102.923 92.42 102.903C92.3991 102.883 92.3864 102.855 92.3842 102.826C92.3153 101.96 91.9682 101.138 91.3945 100.485C91.3372 100.614 91.2524 100.728 91.146 100.821C91.0027 100.932 90.8379 101.012 90.662 101.056C89.729 101.331 88.5038 101.126 87.9675 100.206C87.8586 100.055 87.804 99.8715 87.8127 99.6854C87.8214 99.4993 87.8929 99.3217 88.0155 99.1815C88.1307 99.0877 88.2695 99.0274 88.4166 99.0071C89.011 98.9102 89.6208 99.0016 90.1606 99.2686C90.5703 99.4589 90.9459 99.7152 91.2724 100.027C91.2724 100.001 91.2724 99.975 91.2724 99.9532C91.2814 99.6103 91.2141 99.2697 91.0754 98.956C90.9366 98.6424 90.7299 98.3634 90.4702 98.1394C89.9305 97.6942 89.2596 97.4384 88.5605 97.4113C88.5304 97.4113 88.5016 97.3993 88.4803 97.3781C88.4591 97.3568 88.4471 97.328 88.4471 97.2979C88.4471 97.2679 88.4591 97.239 88.4803 97.2178C88.5016 97.1965 88.5304 97.1846 88.5605 97.1846C89.311 97.2085 90.0315 97.4851 90.6053 97.9694C90.8933 98.2137 91.1216 98.5206 91.2728 98.8668C91.4239 99.2129 91.4939 99.5889 91.4773 99.9663C91.4732 100.056 91.4615 100.145 91.4425 100.232C92.1007 100.939 92.5016 101.847 92.5804 102.809C92.5816 102.824 92.5797 102.84 92.5749 102.855C92.57 102.869 92.5623 102.883 92.5522 102.895C92.5421 102.907 92.5297 102.916 92.5159 102.923C92.502 102.93 92.4869 102.934 92.4714 102.935H92.4976ZM88.8657 99.1945C88.7295 99.1929 88.5936 99.206 88.4602 99.2338C88.3536 99.2472 88.2526 99.2894 88.1681 99.3559C87.9806 99.5172 88.0286 99.8485 88.1681 100.088C88.639 100.899 89.7726 101.078 90.5966 100.834C90.7415 100.799 90.8779 100.735 90.9977 100.646C91.1008 100.551 91.1774 100.431 91.2201 100.298C90.8906 99.9553 90.5003 99.6774 90.0691 99.4779C89.6923 99.3 89.2823 99.2034 88.8657 99.1945Z" fill="white"/>
<path d="M89.1228 109.218C89.0424 109.221 88.9623 109.207 88.8874 109.178C88.8124 109.149 88.7442 109.104 88.6868 109.048C88.5854 108.939 88.5147 108.805 88.4819 108.66C88.3497 108.078 88.3984 107.469 88.6214 106.916C88.7801 106.493 89.0086 106.099 89.2972 105.752H89.2188C88.8766 105.766 88.5421 105.857 88.2401 106.019C87.9381 106.18 87.6765 106.408 87.4748 106.685C87.0672 107.253 86.8601 107.94 86.8862 108.638C86.8874 108.653 86.8854 108.669 86.8802 108.684C86.875 108.698 86.8668 108.711 86.856 108.723C86.8453 108.734 86.8323 108.742 86.818 108.748C86.8036 108.754 86.7882 108.756 86.7728 108.756C86.7427 108.756 86.7139 108.744 86.6926 108.723C86.6714 108.701 86.6594 108.673 86.6594 108.642C86.6308 107.893 86.8533 107.154 87.2916 106.545C87.5144 106.24 87.8036 105.989 88.1374 105.811C88.4712 105.634 88.841 105.535 89.2188 105.521C89.3088 105.515 89.3991 105.515 89.4891 105.521C90.1486 104.818 91.0255 104.357 91.9786 104.213C91.9935 104.211 92.0087 104.212 92.0232 104.215C92.0377 104.219 92.0513 104.226 92.0633 104.235C92.0752 104.244 92.0852 104.256 92.0928 104.269C92.1003 104.282 92.1053 104.296 92.1073 104.311C92.1093 104.326 92.1083 104.341 92.1045 104.355C92.1006 104.37 92.094 104.383 92.0849 104.395C92.0757 104.407 92.0644 104.417 92.0514 104.425C92.0384 104.432 92.024 104.437 92.0092 104.439C91.1507 104.572 90.3575 104.977 89.7463 105.595C89.8786 105.643 89.999 105.719 90.0995 105.817C90.2199 105.955 90.3118 106.115 90.3698 106.288C90.7099 107.199 90.5965 108.433 89.7158 109.035C89.5397 109.151 89.3339 109.215 89.1228 109.218ZM89.5588 105.769C89.2441 106.125 88.996 106.534 88.8264 106.977C88.6167 107.491 88.571 108.058 88.6956 108.599C88.7183 108.705 88.7678 108.804 88.8394 108.887C88.9511 108.958 89.083 108.991 89.2152 108.981C89.3473 108.971 89.4725 108.918 89.5719 108.83C90.3436 108.302 90.4439 107.16 90.1387 106.353C90.0947 106.21 90.0204 106.078 89.9207 105.965C89.8218 105.871 89.7002 105.803 89.5676 105.769H89.5588Z" fill="white"/>
<path d="M80.0409 110.713C80.0175 110.713 79.9945 110.706 79.9751 110.693C79.9557 110.68 79.9406 110.661 79.9319 110.639C79.9263 110.625 79.9236 110.61 79.9238 110.595C79.9241 110.58 79.9274 110.565 79.9335 110.551C79.9396 110.538 79.9484 110.525 79.9593 110.515C79.9703 110.504 79.9832 110.496 79.9973 110.491C80.8025 110.163 81.4799 109.583 81.9288 108.839C81.7897 108.823 81.6558 108.777 81.5364 108.704C81.3858 108.602 81.2581 108.469 81.1615 108.315C80.6208 107.504 80.4464 106.275 81.1615 105.49C81.2257 105.373 81.3217 105.277 81.4382 105.212C81.5548 105.147 81.6874 105.116 81.8207 105.123C81.954 105.129 82.0827 105.174 82.1921 105.25C82.3014 105.327 82.387 105.433 82.4389 105.556C82.7101 106.094 82.8062 106.704 82.7136 107.3C82.6606 107.754 82.5309 108.196 82.3299 108.608H82.4041C82.7332 108.514 83.0372 108.348 83.2938 108.122C83.5503 107.896 83.7528 107.615 83.8865 107.3C84.1522 106.652 84.1937 105.933 84.0042 105.259C83.9975 105.23 84.0023 105.199 84.0177 105.173C84.0331 105.147 84.058 105.128 84.087 105.12C84.1016 105.116 84.1169 105.115 84.1318 105.117C84.1468 105.119 84.1612 105.124 84.1742 105.132C84.1872 105.139 84.1986 105.15 84.2075 105.162C84.2165 105.174 84.223 105.188 84.2265 105.202C84.4262 105.923 84.3817 106.69 84.1001 107.382C83.9537 107.731 83.7301 108.042 83.4462 108.292C83.1622 108.542 82.8253 108.725 82.4607 108.826C82.3737 108.849 82.2847 108.865 82.1948 108.874C81.7193 109.714 80.9743 110.37 80.0802 110.735L80.0409 110.713ZM81.8503 105.372C81.6486 105.391 81.4623 105.488 81.3315 105.643C80.7037 106.336 80.8955 107.47 81.3533 108.185C81.4324 108.313 81.5361 108.424 81.6585 108.512C81.7801 108.583 81.9188 108.619 82.0596 108.616C82.286 108.199 82.4338 107.744 82.4956 107.273C82.5792 106.724 82.4925 106.163 82.2471 105.665C82.199 105.568 82.1287 105.485 82.0422 105.42C81.9844 105.386 81.9176 105.369 81.8503 105.372Z" fill="white"/>
<path d="M88.569 92.698C88.554 92.695 88.5396 92.6889 88.527 92.6801C88.5143 92.6713 88.5036 92.6601 88.4955 92.647C88.4873 92.634 88.4819 92.6194 88.4795 92.6042C88.4772 92.5889 88.478 92.5734 88.4818 92.5585C88.6508 91.7056 88.5423 90.8209 88.1723 90.0341C88.0829 90.144 87.9695 90.232 87.8409 90.2913C87.6722 90.3596 87.4908 90.3908 87.309 90.3829C86.3367 90.3829 85.2249 89.8509 84.9677 88.8263C84.9043 88.6512 84.9021 88.4597 84.9614 88.2831C85.0208 88.1065 85.1383 87.9553 85.2947 87.8541C85.4328 87.7982 85.5829 87.7787 85.7307 87.7974C86.3306 87.8711 86.8935 88.1268 87.3439 88.5299C87.6899 88.8252 87.9846 89.1758 88.2159 89.5675L88.242 89.4934C88.3465 89.1667 88.376 88.8207 88.3284 88.4811C88.2809 88.1415 88.1575 87.8169 87.9674 87.5314C87.5575 86.9526 86.9646 86.5287 86.2844 86.3281C86.27 86.3236 86.2566 86.3163 86.2451 86.3066C86.2335 86.297 86.224 86.2851 86.2171 86.2717C86.2102 86.2583 86.2061 86.2436 86.2049 86.2286C86.2037 86.2136 86.2055 86.1985 86.2103 86.1842C86.2211 86.1554 86.2424 86.1319 86.2699 86.1181C86.2974 86.1044 86.329 86.1015 86.3585 86.1101C87.0672 86.3437 87.6798 86.8032 88.1025 87.4181C88.3157 87.7344 88.4532 88.0955 88.5046 88.4735C88.556 88.8515 88.5199 89.2363 88.399 89.5981C88.3692 89.6836 88.3327 89.7667 88.29 89.8466C88.7293 90.7067 88.8645 91.6902 88.6737 92.637C88.6642 92.6564 88.6492 92.6725 88.6306 92.6834C88.612 92.6942 88.5906 92.6993 88.569 92.698ZM85.5737 88.0197C85.4988 88.019 85.4246 88.0339 85.3557 88.0633C85.1334 88.168 85.0854 88.4993 85.1552 88.7697C85.3862 89.6722 86.4152 90.1561 87.2741 90.1561C87.4228 90.1585 87.5706 90.1334 87.7101 90.082C87.838 90.021 87.9466 89.926 88.024 89.8073C87.8017 89.3905 87.5063 89.0168 87.152 88.7043C86.7415 88.331 86.2249 88.0948 85.674 88.0285L85.5737 88.0197Z" fill="white"/>
<path d="M73.732 91.403H73.7059C73.676 91.3957 73.6501 91.3771 73.6338 91.351C73.6175 91.3249 73.6121 91.2935 73.6187 91.2635C73.7898 90.4106 73.6813 89.5253 73.3091 88.739C73.2197 88.8489 73.1064 88.9369 72.9777 88.9963C72.8102 89.0637 72.6307 89.0964 72.4502 89.0922C71.4823 89.0922 70.3705 88.5559 70.1089 87.5313C70.0462 87.3561 70.0444 87.1649 70.1038 86.9885C70.1631 86.8121 70.2801 86.6608 70.4359 86.559C70.574 86.5032 70.7241 86.4837 70.8719 86.5024C71.4705 86.5759 72.0322 86.8316 72.4807 87.2348C72.8279 87.529 73.1227 87.8799 73.3527 88.2725C73.3527 88.2464 73.3745 88.2202 73.3832 88.1984C73.4858 87.8714 73.5143 87.5258 73.4668 87.1865C73.4193 86.8471 73.2969 86.5226 73.1085 86.2364C72.7127 85.6597 72.1382 85.2291 71.4735 85.0112C71.4592 85.0069 71.4459 84.9996 71.4345 84.9898C71.4231 84.98 71.4138 84.968 71.4072 84.9545C71.4007 84.941 71.397 84.9263 71.3964 84.9113C71.3958 84.8963 71.3983 84.8813 71.4038 84.8674C71.4137 84.8389 71.4342 84.8154 71.461 84.8016C71.4877 84.7879 71.5187 84.7848 71.5477 84.7932C72.2563 85.0269 72.8689 85.4863 73.2917 86.1012C73.5048 86.4176 73.6424 86.7787 73.6938 87.1567C73.7452 87.5347 73.709 87.9194 73.5881 88.2812C73.5602 88.3675 73.5237 88.4508 73.4791 88.5298C73.9176 89.3901 74.0542 90.3728 73.8672 91.3202C73.859 91.3483 73.8406 91.3724 73.8156 91.3877C73.7906 91.4031 73.7608 91.4085 73.732 91.403ZM70.7323 86.7247C70.6588 86.724 70.586 86.7388 70.5187 86.7683C70.2963 86.873 70.2484 87.2043 70.3181 87.4746C70.5449 88.3772 71.5738 88.8611 72.4327 88.8611C72.5814 88.8637 72.7293 88.8385 72.8687 88.787C72.9946 88.7248 73.1015 88.6299 73.1783 88.5123C72.9564 88.0951 72.661 87.7214 72.3063 87.4092C71.8934 87.0369 71.3758 86.8009 70.8239 86.7334L70.7323 86.7247Z" fill="white"/>
</g>
</g>
<path d="M77.2592 67.1919C77.4053 69.937 76.9283 72.6797 75.864 75.2143C77.2723 76.5223 79.5613 78.1529 82.6089 78.1093C85.6566 78.0657 85.1508 76.5049 84.3529 75.441C82.1729 74.3423 82.0291 72.7247 82.5653 71.7437L77.2592 67.1919Z" fill="#CE7A63"/>
<path opacity="0.2" d="M82.548 71.7481L80.1325 70.2395C79.0207 70.4139 78.4844 71.8309 79.8665 72.8991C80.8083 73.6272 82.2951 73.915 82.4825 73.7188C82.3378 73.4083 82.2683 73.068 82.2797 72.7256C82.2911 72.3832 82.383 72.0483 82.548 71.7481Z" fill="black"/>
<path d="M83.4985 61.2057C86.6028 60.556 86.084 64.4103 85.2774 66.4115C83.2413 63.438 83.4985 61.2057 83.4985 61.2057Z" fill="#263238"/>
<path d="M75.5459 65.3039C76.1475 68.7221 76.335 70.4923 78.5325 71.6564C84.013 74.5514 85.2556 72.5589 85.6916 69.0404C86.0796 65.8576 85.0332 60.8 81.506 59.8408C80.7275 59.6331 79.9093 59.6249 79.1269 59.8168C78.3444 60.0088 77.6229 60.3948 77.029 60.9392C76.4351 61.4836 75.9878 62.1688 75.7286 62.9317C75.4694 63.6945 75.4066 64.5103 75.5459 65.3039Z" fill="#CE7A63"/>
<path d="M76.5704 68.1205C79.5483 68.7309 76.3611 65.5961 77.05 64.323C77.7389 63.0498 81.4841 63.996 80.4115 61.9162C83.3197 62.6531 86.0141 62.919 86.6027 60.957C87.4747 58.1056 84.6931 57.5606 83.0537 58.3846C81.6803 59.0779 81.6934 59.3046 79.6398 58.6157C77.5863 57.9268 72.4851 58.328 73.7887 60.6693C71.4692 60.7652 71.4692 63.7213 73.3876 64.5628C75.306 65.4042 74.325 67.6584 76.5704 68.1205Z" fill="#263238"/>
<path d="M75.947 66.5291C75.9225 66.5283 75.8988 66.52 75.8792 66.5051C75.8597 66.4903 75.8453 66.4697 75.838 66.4462C75.8333 66.4319 75.8314 66.4168 75.8326 66.4018C75.8338 66.3868 75.838 66.3721 75.8449 66.3587C75.8518 66.3453 75.8613 66.3334 75.8728 66.3238C75.8844 66.3141 75.8977 66.3068 75.9121 66.3023L80.5512 64.8635C80.5801 64.8552 80.6111 64.8582 80.6379 64.872C80.6646 64.8857 80.6851 64.9093 80.695 64.9377C80.6998 64.952 80.7016 64.9671 80.7004 64.9821C80.6992 64.9971 80.6951 65.0118 80.6882 65.0252C80.6813 65.0386 80.6718 65.0504 80.6602 65.0601C80.6487 65.0698 80.6353 65.0771 80.6209 65.0815L75.9819 66.5203L75.947 66.5291Z" fill="white"/>
<path d="M74.3162 60.8305C73.1957 59.928 71.7002 59.7056 71.7002 60.2376C71.7002 60.7695 73.793 60.6735 73.9936 61.0311C74.1941 61.3886 74.3162 60.8305 74.3162 60.8305Z" fill="#263238"/>
<path d="M83.9693 68.9924C82.6357 68.7916 81.2893 68.6881 79.9407 68.6829C80.2808 69.363 80.926 69.9298 82.4477 69.9691C83.9693 70.0083 83.9693 68.9924 83.9693 68.9924Z" fill="white"/>
<path d="M74.5124 67.9461C74.8595 68.669 75.4668 69.2343 76.2128 69.5287C77.1632 69.8732 77.6167 68.9358 77.3376 67.9112C77.0804 66.9912 76.2825 65.7007 75.3364 65.8053C74.3903 65.9099 74.0633 67.0217 74.5124 67.9461Z" fill="#CE7A63"/>
<path d="M81.3489 65.3606C81.3925 65.6528 81.5843 65.862 81.7849 65.8315C81.9854 65.801 82.0944 65.5394 82.0508 65.2473C82.0072 64.9551 81.8154 64.7459 81.6148 64.7764C81.4143 64.8069 81.3053 65.0685 81.3489 65.3606Z" fill="#263238"/>
<path d="M84.51 65.291C84.5536 65.5831 84.7411 65.7968 84.946 65.7662C85.1509 65.7357 85.2555 65.4741 85.2119 65.182C85.1683 64.8899 84.9765 64.6762 84.7759 64.7068C84.5754 64.7373 84.462 64.9989 84.51 65.291Z" fill="#263238"/>
<path d="M80.1629 64.6195C80.1333 64.6159 80.105 64.6054 80.0801 64.589C80.0423 64.5633 80.016 64.5237 80.007 64.4789C79.9981 64.434 80.0071 64.3874 80.0321 64.3492C80.1824 64.1158 80.3862 63.9216 80.6266 63.7828C80.867 63.6441 81.137 63.5647 81.4143 63.5513C81.4605 63.5513 81.5049 63.5696 81.5376 63.6023C81.5703 63.6351 81.5887 63.6794 81.5887 63.7257C81.5887 63.7719 81.5703 63.8163 81.5376 63.849C81.5049 63.8817 81.4605 63.9001 81.4143 63.9001C81.1957 63.9142 80.9835 63.9796 80.7949 64.0909C80.6063 64.2023 80.4466 64.3564 80.3286 64.541C80.3118 64.5689 80.2871 64.5913 80.2576 64.6052C80.2282 64.6192 80.1952 64.6242 80.1629 64.6195Z" fill="#263238"/>
<path d="M85.3907 63.656C85.3626 63.6615 85.3336 63.66 85.3062 63.6516C85.2788 63.6433 85.254 63.6283 85.2337 63.608C85.0872 63.4471 84.9043 63.3236 84.7002 63.2477C84.4962 63.1719 84.277 63.1459 84.0609 63.172C84.0383 63.1765 84.015 63.1763 83.9924 63.1717C83.9698 63.1671 83.9484 63.158 83.9293 63.145C83.9103 63.1321 83.894 63.1154 83.8814 63.0961C83.8688 63.0768 83.8602 63.0552 83.856 63.0325C83.8483 62.9875 83.8587 62.9412 83.8848 62.9037C83.9108 62.8662 83.9506 62.8405 83.9955 62.832C84.2679 62.793 84.5457 62.8211 84.8047 62.9138C85.0638 63.0065 85.2964 63.161 85.4823 63.3639C85.5142 63.3965 85.5321 63.4403 85.5321 63.486C85.5321 63.5316 85.5142 63.5754 85.4823 63.608C85.4578 63.6336 85.4257 63.6505 85.3907 63.656Z" fill="#263238"/>
<path d="M84.8632 67.3662C84.754 67.3632 84.6467 67.3372 84.5483 67.2899C84.4498 67.2425 84.3625 67.1749 84.292 67.0916C83.877 66.5011 83.7052 65.7735 83.8124 65.0598C83.9214 63.7779 84.5405 62.7751 85.2294 62.7751C85.3387 62.7773 85.4463 62.803 85.5449 62.8504C85.6434 62.8978 85.7306 62.9658 85.8006 63.0498C86.2153 63.6387 86.3871 64.3649 86.2802 65.0772C86.1712 66.3591 85.552 67.3662 84.8632 67.3662ZM85.2294 63.0062C84.68 63.0062 84.135 63.9567 84.0435 65.0816C83.9498 65.7335 84.1055 66.3968 84.4795 66.9389C84.5297 66.9984 84.5916 67.0469 84.6614 67.0814C84.7311 67.1159 84.8072 67.1357 84.885 67.1395C85.4343 67.1395 85.9793 66.189 86.0709 65.0641C86.1669 64.4135 86.011 63.7507 85.6349 63.2111C85.5866 63.1488 85.5254 63.0978 85.4553 63.0616C85.3853 63.0255 85.3082 63.0051 85.2294 63.0019V63.0062Z" fill="white"/>
<path d="M83.6074 65.304C84.0515 66.1628 84.6136 66.9553 85.2773 67.6584C85.0916 67.8259 84.8721 67.9515 84.6337 68.0267C84.3952 68.1019 84.1434 68.125 83.8952 68.0944L83.6074 65.304Z" fill="#BA4D3C"/>
<path d="M73.2481 83.1581L72.1057 84.3484L70.9416 85.5779C70.1743 86.3976 69.4243 87.2303 68.7006 88.0544C68.3431 88.4686 67.9943 88.8871 67.6629 89.3057C67.3315 89.7243 67.0002 90.1297 66.7037 90.5396C66.4072 90.9494 66.1456 91.3549 65.9189 91.7255C65.7418 92.0147 65.5859 92.3163 65.4524 92.628L65.5309 92.0351C65.4916 91.9522 65.4873 92.1964 65.5309 92.4711C65.6011 92.8297 65.7033 93.1814 65.8361 93.5218C66.1482 94.3534 66.5092 95.1658 66.9173 95.9547C67.3315 96.7962 67.7893 97.6377 68.2602 98.4922L69.6816 101.047L69.7077 101.095C69.8934 101.446 69.9538 101.85 69.879 102.24C69.8042 102.63 69.5985 102.982 69.2961 103.239C68.9937 103.497 68.6125 103.643 68.2157 103.654C67.8189 103.665 67.4301 103.541 67.1135 103.301C66.2854 102.638 65.495 101.929 64.7461 101.178C63.9961 100.432 63.2767 99.652 62.5661 98.8149C61.8484 97.9428 61.1983 97.0172 60.6215 96.0463C60.2977 95.4869 60.0164 94.9039 59.78 94.3023C59.4624 93.5071 59.2939 92.6602 59.283 91.804C59.28 91.6739 59.2902 91.5439 59.3135 91.4159L59.3571 91.211C59.5343 90.3815 59.8034 89.5743 60.1593 88.8043C60.4572 88.1606 60.792 87.5346 61.1621 86.9295C61.8343 85.8109 62.577 84.7361 63.3857 83.7118C64.1575 82.7047 64.9728 81.7585 65.8055 80.8386C66.2415 80.3808 66.6427 79.923 67.083 79.4826C67.5234 79.0423 67.955 78.6106 68.4433 78.1746C69.1027 77.5798 69.966 77.2623 70.8537 77.2881C71.7413 77.3139 72.5847 77.6811 73.2084 78.3132C73.8321 78.9453 74.1879 79.7936 74.2018 80.6814C74.2157 81.5693 73.8865 82.4283 73.2829 83.0796L73.2481 83.1581Z" fill="#CF7A64"/>
<path d="M67.4449 100.058L71.3079 100.114L69.9475 104.544C69.9475 104.544 66.4595 104.069 66.4072 102.172L67.4449 100.058Z" fill="#CE7A63"/>
<path d="M74.12 102.97L73.3788 104.439C73.2375 104.724 72.9991 104.949 72.7065 105.074C72.4139 105.199 72.0864 105.215 71.783 105.12L69.9387 104.544L71.299 100.114L73.479 101.161C73.6417 101.235 73.7876 101.342 73.9083 101.474C74.029 101.606 74.122 101.761 74.1818 101.93C74.2415 102.099 74.2668 102.278 74.2562 102.456C74.2456 102.635 74.1993 102.81 74.12 102.97Z" fill="#CE7A63"/>
<path d="M72.4371 75.6677C70.523 76.1299 68.2428 76.8885 66.1936 79.1557C64.2096 81.5009 62.4819 84.0515 61.04 86.7639C63.22 90.5397 66.7429 90.9757 67.689 90.7272C71.007 88.4948 73.0213 87.3569 73.9544 84.4008C74.8874 81.4447 73.8672 77.9567 72.4371 75.6677Z" fill="#263238"/>
<path d="M81.5321 67.3662C81.4223 67.3633 81.3143 67.3373 81.2152 67.29C81.116 67.2427 81.0279 67.1751 80.9566 67.0916C80.5415 66.5011 80.3698 65.7735 80.477 65.0598C80.586 63.7779 81.2051 62.7751 81.894 62.7751C82.0039 62.7773 82.1122 62.8029 82.2114 62.8503C82.3107 62.8976 82.3987 62.9657 82.4695 63.0498C82.8853 63.6382 83.0557 64.3653 82.9447 65.0772C82.8401 66.3591 82.1992 67.3662 81.5321 67.3662ZM81.894 63.0062C81.3446 63.0062 80.804 63.9567 80.708 65.0816C80.6144 65.7335 80.7701 66.3968 81.144 66.9389C81.1937 66.999 81.2555 67.048 81.3254 67.0825C81.3952 67.1171 81.4716 67.1365 81.5495 67.1395C82.0989 67.1395 82.6395 66.189 82.7354 65.0641C82.828 64.4136 82.6723 63.7521 82.2994 63.2111C82.2489 63.147 82.1847 63.095 82.1116 63.0588C82.0384 63.0226 81.9581 63.0031 81.8765 63.0019L81.894 63.0062Z" fill="white"/>
<path d="M83.9257 65.1862C83.9033 65.1862 83.8814 65.1795 83.8628 65.1671C83.8442 65.1547 83.8296 65.1371 83.821 65.1164C83.812 65.093 83.798 65.0719 83.7799 65.0545C83.7618 65.0372 83.7401 65.0241 83.7164 65.0161C83.4165 64.9794 83.1126 65.0341 82.8444 65.1731C82.8307 65.1796 82.8158 65.1833 82.8006 65.184C82.7855 65.1847 82.7703 65.1823 82.7561 65.177C82.7418 65.1718 82.7288 65.1637 82.7178 65.1532C82.7067 65.1428 82.6979 65.1303 82.6918 65.1164C82.6798 65.0886 82.6789 65.0571 82.6895 65.0287C82.7001 65.0003 82.7212 64.977 82.7485 64.9638C83.0669 64.8014 83.429 64.7448 83.7818 64.8025C83.8859 64.8436 83.9702 64.9232 84.0172 65.0248C84.0277 65.0527 84.0272 65.0834 84.0158 65.1109C84.0045 65.1384 83.9832 65.1606 83.9562 65.1731C83.9468 65.1791 83.9365 65.1835 83.9257 65.1862Z" fill="white"/>
<path d="M145.955 74.9441C149.369 71.0201 147.608 66.7343 143.775 64.3711C139.943 62.008 135.465 63.7346 133.747 67.7414C132.03 71.7483 132.64 72.7859 131.567 73.0039C131.079 75.1142 132.592 77.3291 134.345 76.1606C136.996 77.2811 141.643 79.8971 145.955 74.9441Z" fill="#263238"/>
<path d="M141.264 78.1225C139.389 78.1225 137.732 77.3071 136.52 76.7098L135.98 76.4439L136.154 76.0776C136.324 76.1561 136.507 76.2477 136.699 76.3436C139.01 77.4815 142.498 79.1994 146.221 75.3277C147.595 73.8976 148.231 72.2757 148.07 70.6887C147.896 68.9883 146.806 67.3315 145.079 66.1455L145.31 65.8098C147.137 67.0655 148.288 68.8269 148.475 70.6494C148.65 72.3934 147.974 74.0938 146.518 75.6067C144.695 77.5077 142.899 78.1225 141.264 78.1225Z" fill="#263238"/>
<path d="M133.372 69.324C132.636 66.7429 133.477 61.5022 139.912 61.4978C146.348 61.4934 149.068 66.0453 146.387 69.821C138.622 71.5781 133.372 69.324 133.372 69.324Z" fill="#263238"/>
<path d="M130.713 74.5125C126.706 75.5676 130.177 82.2471 134.114 79.1995C133.242 79.1384 131.323 77.2113 132.806 75.9643C131.236 74.5953 130.713 74.5125 130.713 74.5125Z" fill="#263238"/>
<path d="M130.765 80.4768C130.394 80.4765 130.029 80.39 129.697 80.2239C129.127 79.8958 128.664 79.4103 128.363 78.8257C128.063 78.2411 127.937 77.5821 128.001 76.9277C128.053 76.3801 128.278 75.8633 128.644 75.453C129.011 75.0427 129.499 74.7604 130.037 74.6475L130.137 75.0442C129.676 75.1296 129.255 75.3646 128.939 75.7128C128.624 76.0611 128.432 76.5033 128.393 76.9713C128.335 77.5428 128.442 78.119 128.703 78.631C128.963 79.1429 129.366 79.5688 129.863 79.8577C130.713 80.2937 131.698 80.0539 132.631 79.1993L132.906 79.5045C132.342 80.0888 131.576 80.4365 130.765 80.4768Z" fill="#263238"/>
<path d="M133.852 76.4133C132.823 76.1997 131.236 73.5313 131.89 72.8948C131.493 72.9102 131.111 73.0504 130.798 73.2954C130.485 73.5403 130.257 73.8776 130.146 74.2595C129.88 75.0835 130.408 76.6269 132.248 77.0891C133.141 77.3245 133.852 76.4133 133.852 76.4133Z" fill="#FF6D38"/>
<path d="M134.048 87.418C134.018 88.4165 133.944 89.4018 133.883 90.3915L133.63 93.3563C133.542 94.3504 133.42 95.3401 133.298 96.3429C133.233 96.84 133.159 97.3457 133.067 97.8689C132.977 98.4311 132.847 98.9862 132.679 99.5301C132.01 101.512 131.123 103.413 130.033 105.198C129.009 106.938 127.871 108.609 126.627 110.199C126.487 110.392 126.277 110.525 126.042 110.57C125.807 110.614 125.564 110.568 125.362 110.44C125.16 110.311 125.014 110.111 124.954 109.879C124.895 109.648 124.925 109.402 125.04 109.192V109.17C125.912 107.452 126.784 105.682 127.552 103.938C127.931 103.066 128.31 102.194 128.633 101.292C128.959 100.438 129.23 99.5639 129.444 98.6755C129.537 98.2675 129.604 97.8539 129.645 97.4373C129.684 97.0013 129.714 96.5043 129.741 96.0247L129.897 93.1078L130.05 90.1735C130.115 89.1925 130.159 88.2115 130.242 87.2349C130.27 86.7313 130.497 86.2596 130.874 85.9236C131.25 85.5875 131.744 85.4146 132.248 85.4429C132.751 85.4713 133.223 85.6985 133.559 86.0746C133.895 86.4507 134.068 86.945 134.039 87.4485L134.048 87.418Z" fill="#FFB573"/>
<path d="M133.756 105.172C133.756 105.172 133.756 128.001 135.143 140.366C135.286 151.972 137.937 178.202 137.937 178.202H140.863C141.36 165.187 144.983 153.04 142.572 141.578C148.205 119.041 145.594 105.202 145.594 105.202L133.756 105.172Z" fill="#FFB573"/>
<path d="M136.948 105.185C136.948 105.185 139.128 133.124 143.523 143.117C148.118 153.625 156.276 174.208 157.082 177.696L159.528 177.047C159.528 177.047 157.911 154.453 150.442 141.683C152.753 110.195 146.932 105.176 146.932 105.176L136.948 105.185Z" fill="#FFB573"/>
<path d="M132.823 81.737C130.368 83.8123 129.579 87.1913 129.61 89.4803C131.079 91.8914 135.67 92.637 135.67 92.637C135.67 92.637 136.398 87.9282 136.049 85.7089C135.701 83.4897 134.24 80.538 132.823 81.737Z" fill="#263238"/>
<path d="M131.062 86.0708C130.923 84.8159 131.271 83.5555 132.033 82.5491C132.795 81.5426 133.914 80.8666 135.16 80.6601C135.871 80.5336 136.621 80.4159 137.34 80.3244C139.583 80.084 141.84 80.0039 144.094 80.0846C144.739 80.0846 145.371 80.1194 145.968 80.1587C146.496 80.1934 147.01 80.3361 147.479 80.5779C147.949 80.8197 148.364 81.1554 148.698 81.5643C149.033 81.9731 149.28 82.4463 149.424 82.9546C149.568 83.4628 149.605 83.9952 149.535 84.5187C148.109 93.9799 147.263 100.821 148.196 104.967C148.196 104.967 151.144 108.891 152.482 117.925C153.651 125.804 153.354 139.088 154.641 146.226C150.045 149.509 135.457 149.308 133.307 147.39C133.913 132.958 130.961 114.049 133.207 105.316C132.309 100.476 132.797 96.779 132.291 93.8447C128.912 91.5819 131.441 89.4847 131.062 86.0708Z" fill="#263238"/>
<path d="M139.559 106.702C136.974 106.702 134.576 106.454 133.521 105.987C133.085 105.795 132.88 105.569 132.906 105.307C132.907 105.291 132.912 105.275 132.919 105.26C132.926 105.245 132.937 105.232 132.949 105.222C132.962 105.211 132.977 105.203 132.992 105.198C133.008 105.194 133.025 105.192 133.041 105.194C133.074 105.198 133.103 105.214 133.124 105.239C133.145 105.264 133.156 105.296 133.155 105.329C133.155 105.516 133.438 105.682 133.621 105.765C136.163 106.885 146.592 106.759 148.266 104.893C148.29 104.869 148.322 104.856 148.356 104.856C148.389 104.856 148.421 104.869 148.445 104.893C148.457 104.904 148.467 104.917 148.474 104.932C148.48 104.947 148.484 104.964 148.484 104.98C148.484 104.997 148.48 105.013 148.474 105.028C148.467 105.043 148.457 105.056 148.445 105.067C147.438 106.179 143.3 106.702 139.559 106.702Z" fill="white"/>
<path d="M139.433 105.813C136.847 105.813 134.449 105.564 133.394 105.102C132.958 104.91 132.753 104.666 132.78 104.418C132.784 104.384 132.801 104.354 132.827 104.333C132.853 104.312 132.886 104.302 132.919 104.304C132.952 104.309 132.982 104.326 133.002 104.352C133.022 104.378 133.032 104.411 133.028 104.444C133.028 104.631 133.311 104.793 133.495 104.88C136.041 106 146.466 105.874 148.144 104.008C148.168 103.985 148.199 103.973 148.231 103.973C148.264 103.973 148.295 103.985 148.319 104.008C148.341 104.031 148.353 104.063 148.353 104.095C148.353 104.127 148.341 104.159 148.319 104.182C147.311 105.29 143.178 105.813 139.433 105.813Z" fill="white"/>
<path opacity="0.2" d="M141.7 135.16C142.097 129.357 141.7 120.667 138.151 115.797C139.084 121.971 141.7 135.16 141.7 135.16Z" fill="black"/>
<path d="M142.982 72.5417C142.681 74.7217 142.485 78.7024 144.089 80.0933C140.7 81.6057 137.857 84.1251 135.949 87.3091C133.822 82.4564 137.336 80.3331 137.336 80.3331C139.725 79.6703 139.559 77.8827 139.041 76.2129L142.982 72.5417Z" fill="#FFB573"/>
<path opacity="0.2" d="M141.373 74.0415L139.041 76.2215C139.166 76.6083 139.26 77.005 139.32 77.4074C140.235 77.2417 141.452 76.1866 141.5 75.2274C141.531 74.8277 141.488 74.4256 141.373 74.0415Z" fill="black"/>
<path d="M143.88 67.7239C144.063 71.3252 144.216 72.8512 142.624 74.8525C140.231 77.8652 135.788 77.2069 134.537 73.7102C133.412 70.5579 133.303 65.1951 136.629 63.4511C139.956 61.7071 143.693 64.1182 143.88 67.7239Z" fill="#FFB573"/>
<path d="M140.497 64.8767C140.227 68.6743 144.334 71.9399 145.62 70.4968C146.906 69.0536 143.736 62.2869 140.497 64.8767Z" fill="#263238"/>
<path d="M134.781 64.5716C139.42 68.0989 144.831 68.0814 144.486 65.509C144.142 62.9366 137.532 60.6564 134.781 64.5716Z" fill="#263238"/>
<path d="M138.321 69.1669C138.356 69.4591 138.225 69.7119 138.033 69.7294C137.841 69.7468 137.654 69.5245 137.623 69.2323C137.593 68.9402 137.719 68.6917 137.916 68.6743C138.112 68.6568 138.291 68.8879 138.321 69.1669Z" fill="#263238"/>
<path d="M134.694 69.5508C134.728 69.8429 134.598 70.0958 134.401 70.1132C134.205 70.1307 134.027 69.9083 133.996 69.6162C133.965 69.3241 134.092 69.0755 134.284 69.0581C134.476 69.0407 134.663 69.2587 134.694 69.5508Z" fill="#263238"/>
<path d="M134.371 69.0624L133.638 68.9272C133.638 68.9272 134.066 69.4417 134.371 69.0624Z" fill="#263238"/>
<path d="M135.84 69.6902C135.652 70.3792 135.367 71.0383 134.994 71.6478C135.156 71.7404 135.336 71.7972 135.522 71.8145C135.708 71.8318 135.895 71.8092 136.071 71.7481L135.84 69.6902Z" fill="#ED893E"/>
<path d="M145.049 70.9894C144.933 71.2958 144.753 71.5734 144.519 71.803C144.286 72.0326 144.005 72.2088 143.697 72.3192C142.899 72.5764 142.441 71.7175 142.616 70.8194C142.768 70.0084 143.366 68.8966 144.19 69.0361C145.014 69.1756 145.371 70.1959 145.049 70.9894Z" fill="#FFB573"/>
<path d="M139.258 67.7108C139.21 67.7034 139.167 67.6786 139.136 67.641C139.006 67.4643 138.837 67.32 138.642 67.2195C138.447 67.1189 138.231 67.0647 138.011 67.0612C137.965 67.0649 137.92 67.0506 137.884 67.0213C137.848 66.9921 137.825 66.9501 137.82 66.9042C137.818 66.8815 137.821 66.8587 137.828 66.8371C137.835 66.8155 137.846 66.7956 137.862 66.7785C137.877 66.7614 137.895 66.7476 137.915 66.7377C137.936 66.7278 137.958 66.7222 137.981 66.7211C138.259 66.7176 138.534 66.7807 138.783 66.9051C139.032 67.0295 139.247 67.2115 139.411 67.4361C139.425 67.4536 139.436 67.4738 139.442 67.4956C139.449 67.5173 139.451 67.5402 139.448 67.5626C139.445 67.5851 139.437 67.6068 139.426 67.6262C139.414 67.6457 139.399 67.6626 139.38 67.6759C139.346 67.7025 139.302 67.7149 139.258 67.7108Z" fill="#263238"/>
<path d="M133.612 68.2993C133.57 68.3146 133.524 68.3146 133.482 68.2993C133.44 68.281 133.406 68.2473 133.388 68.2051C133.371 68.1629 133.37 68.1155 133.386 68.0726C133.487 67.819 133.648 67.5933 133.854 67.4143C134.06 67.2353 134.306 67.1082 134.572 67.0437C134.618 67.036 134.665 67.0468 134.703 67.0737C134.742 67.1006 134.768 67.1415 134.777 67.1875C134.784 67.2314 134.774 67.2766 134.749 67.3133C134.724 67.3499 134.685 67.3753 134.641 67.3837C134.431 67.4369 134.237 67.5394 134.075 67.6828C133.913 67.8261 133.787 68.0061 133.708 68.2078C133.7 68.229 133.687 68.2481 133.67 68.2639C133.654 68.2796 133.634 68.2917 133.612 68.2993Z" fill="#263238"/>
<path d="M138.003 68.683L137.27 68.5435C137.27 68.5435 137.693 69.0579 138.003 68.683Z" fill="#263238"/>
<path d="M143.444 99.4952L140.562 98.0259L139.895 101.666C139.895 101.666 142.223 102.225 143.863 101.54L144.12 101.104C144.185 100.311 144.089 99.9792 143.444 99.4952Z" fill="#FFB573"/>
<path d="M138.269 99.0069L138.199 100.607C138.189 100.838 138.266 101.064 138.415 101.241C138.565 101.417 138.776 101.53 139.006 101.557L139.904 101.666L140.571 98.0259L139.119 98.1262C138.894 98.1431 138.683 98.2422 138.526 98.4046C138.369 98.567 138.278 98.7813 138.269 99.0069Z" fill="#FFB573"/>
<path d="M149.548 83.4896C150.255 85.4821 150.891 87.4659 151.462 89.4977C152.079 91.5545 152.572 93.6467 152.936 95.763C153.031 96.3574 153.087 96.9575 153.102 97.5593C153.13 98.3805 152.936 99.1941 152.539 99.9137C152.108 100.644 151.467 101.228 150.699 101.588C150.074 101.877 149.405 102.058 148.72 102.124C147.553 102.224 146.378 102.152 145.232 101.911C144.688 101.813 144.151 101.683 143.623 101.523C143.09 101.374 142.566 101.196 142.053 100.991C141.839 100.906 141.664 100.746 141.559 100.54C141.455 100.335 141.429 100.099 141.486 99.8762C141.543 99.6532 141.68 99.4588 141.87 99.3292C142.061 99.1997 142.292 99.144 142.52 99.1725H142.572C143.039 99.2292 143.549 99.2902 144.037 99.3295C144.526 99.3687 145.027 99.3862 145.511 99.3992C146.426 99.435 147.341 99.3544 148.236 99.1594C148.581 99.083 148.911 98.9505 149.213 98.767C149.386 98.6711 149.519 98.5165 149.587 98.331C149.654 98.1183 149.672 97.8933 149.64 97.6727C149.599 97.2328 149.531 96.796 149.435 96.3647C149.243 95.4316 148.999 94.455 148.707 93.4871C148.415 92.5192 148.144 91.5382 147.835 90.5615C147.22 88.617 146.583 86.6375 145.951 84.7148C145.788 84.2372 145.822 83.7144 146.044 83.2614C146.266 82.8084 146.66 82.4624 147.137 82.2993C147.615 82.1363 148.138 82.1696 148.591 82.392C149.043 82.6144 149.39 83.0077 149.553 83.4852L149.548 83.4896Z" fill="#FFB573"/>
<path d="M125.337 108.516L122.115 108.259L122.887 111.878C122.887 111.878 124.997 111.542 126.288 110.448C126.432 110.321 126.525 110.146 126.549 109.955C126.571 109.82 126.558 109.682 126.51 109.554C126.441 109.283 126.292 109.04 126.083 108.855C125.874 108.67 125.614 108.552 125.337 108.516Z" fill="#FFB573"/>
<path d="M120.358 110.042L120.907 111.546C120.985 111.764 121.142 111.945 121.348 112.051C121.554 112.157 121.792 112.181 122.015 112.117L122.887 111.878L122.115 108.259L120.807 108.904C120.606 109.006 120.45 109.179 120.367 109.388C120.285 109.598 120.281 109.83 120.358 110.042Z" fill="#FFB573"/>
<path d="M147.368 80.5335C149.522 81.4404 150.547 82.9053 152.325 86.9776C151.889 89.768 147.176 92.1398 147.176 92.1398C147.176 92.1398 145.62 88.6082 145.105 86.4195C144.591 84.2308 145.188 79.6135 147.368 80.5335Z" fill="#263238"/>
<path d="M141.09 178.219C141.071 178.167 141.034 178.123 140.987 178.094C140.939 178.064 140.884 178.052 140.828 178.058L138.108 178.015C137.822 177.995 137.537 178.056 137.283 178.189C136.039 178.967 134.641 179.467 133.185 179.654C132.61 179.741 132.871 180.718 134.231 180.731C136.486 180.757 136.891 180.587 138.814 180.609C140.453 180.609 139.686 180.7 140.994 180.731C141.308 180.731 141.561 180.535 141.521 180.317L141.09 178.219Z" fill="#263238"/>
<path d="M160.012 176.58C159.979 176.535 159.933 176.501 159.879 176.485C159.826 176.468 159.768 176.469 159.716 176.489L157.069 177.138C156.79 177.19 156.532 177.32 156.324 177.513C155.683 178.254 154.798 179.392 152.966 179.667C152.387 179.754 152.648 180.731 154.008 180.744C156.263 180.77 156.546 179.933 158.412 179.466C160.003 179.07 159.284 179.34 160.535 179.03C160.841 178.961 161.037 178.699 160.941 178.499L160.012 176.58Z" fill="#263238"/>
<path d="M137.222 85.421C138.225 85.0461 141.046 84.8237 142.319 86.0096C144.403 84.9371 145.541 81.872 145.284 79.9972C144.795 79.6285 144.191 79.4433 143.579 79.474C143.579 79.474 138.936 82.4039 137.222 85.421Z" fill="#FAFAFA"/>
<path d="M135.37 85.4561C135.37 85.4561 134.794 83.0058 137.55 80.2633C137.218 80.0497 136.063 80.4595 136.063 80.4595C136.063 80.4595 132.714 82.3562 133.251 86.254C133.828 85.7262 134.587 85.4405 135.37 85.4561Z" fill="#FAFAFA"/>
<path d="M139.237 71.9401C139.377 71.8073 139.504 71.6613 139.616 71.5041C139.624 71.4938 139.63 71.4819 139.633 71.4692C139.636 71.4565 139.636 71.4434 139.634 71.4306C139.631 71.4178 139.626 71.4056 139.618 71.395C139.611 71.3844 139.601 71.3755 139.59 71.3689C139.57 71.3514 139.544 71.3418 139.518 71.3418C139.491 71.3418 139.466 71.3514 139.446 71.3689C139.19 71.7156 138.859 72 138.478 72.2008C138.097 72.4016 137.675 72.5137 137.244 72.5287C137.23 72.5256 137.214 72.5258 137.2 72.5293C137.185 72.5328 137.172 72.5395 137.16 72.5489C137.149 72.5583 137.139 72.5701 137.133 72.5836C137.126 72.5971 137.123 72.6118 137.123 72.6268C137.123 72.6417 137.126 72.6564 137.133 72.6699C137.139 72.6834 137.149 72.6953 137.16 72.7047C137.172 72.7141 137.185 72.7208 137.2 72.7243C137.214 72.7278 137.23 72.728 137.244 72.7249C137.981 72.7125 138.689 72.4337 139.237 71.9401Z" fill="#263238"/>
<path d="M100.816 181.481H100.049L96.7353 117.681C96.6872 116.752 96.2845 115.878 95.6103 115.238C94.9361 114.598 94.0418 114.241 93.1121 114.241H81.532C80.6018 114.241 79.7071 114.597 79.0321 115.237C78.3572 115.877 77.9536 116.752 77.9044 117.681L74.5908 181.481H73.8235L77.172 117.642C77.2298 116.522 77.7137 115.467 78.5243 114.693C79.335 113.919 80.411 113.484 81.532 113.478H93.099C94.2245 113.477 95.3071 113.909 96.1233 114.684C96.9396 115.459 97.4271 116.518 97.4852 117.642L100.816 181.481Z" fill="#FE7A36"/>
<path opacity="0.7" d="M100.816 181.481H100.049L96.7353 117.681C96.6872 116.752 96.2845 115.878 95.6103 115.238C94.9361 114.598 94.0418 114.241 93.1121 114.241H81.532C80.6018 114.241 79.7071 114.597 79.0321 115.237C78.3572 115.877 77.9536 116.752 77.9044 117.681L74.5908 181.481H73.8235L77.172 117.642C77.2298 116.522 77.7137 115.467 78.5243 114.693C79.335 113.919 80.411 113.484 81.532 113.478H93.099C94.2245 113.477 95.3071 113.909 96.1233 114.684C96.9396 115.459 97.4271 116.518 97.4852 117.642L100.816 181.481Z" fill="white"/>
<path d="M143.958 181.481H143.191L139.877 117.681C139.829 116.752 139.427 115.878 138.753 115.238C138.078 114.598 137.184 114.241 136.254 114.241H124.696C123.766 114.241 122.871 114.597 122.196 115.237C121.521 115.877 121.118 116.752 121.068 117.681L117.755 181.481H116.979L120.301 117.642C120.359 116.516 120.848 115.456 121.666 114.681C122.484 113.906 123.569 113.475 124.696 113.478H136.263C137.388 113.477 138.471 113.909 139.287 114.684C140.104 115.459 140.591 116.518 140.649 117.642L143.958 181.481Z" fill="#FE7A36"/>
<path opacity="0.7" d="M143.958 181.481H143.191L139.877 117.681C139.829 116.752 139.427 115.878 138.753 115.238C138.078 114.598 137.184 114.241 136.254 114.241H124.696C123.766 114.241 122.871 114.597 122.196 115.237C121.521 115.877 121.118 116.752 121.068 117.681L117.755 181.481H116.979L120.301 117.642C120.359 116.516 120.848 115.456 121.666 114.681C122.484 113.906 123.569 113.475 124.696 113.478H136.263C137.388 113.477 138.471 113.909 139.287 114.684C140.104 115.459 140.591 116.518 140.649 117.642L143.958 181.481Z" fill="white"/>
<path d="M142.476 111.049H75.0747V114.755H142.476V111.049Z" fill="#FE7A36"/>
<path opacity="0.3" d="M142.476 111.049H119.159V114.755H142.476V111.049Z" fill="black"/>
<path d="M124.556 110.156H92.8374C92.7217 110.156 92.6108 110.201 92.5291 110.283C92.4473 110.365 92.4014 110.476 92.4014 110.592C92.4014 110.707 92.4473 110.818 92.5291 110.9C92.6108 110.982 92.7217 111.028 92.8374 111.028H124.556C124.672 111.028 124.783 110.982 124.865 110.9C124.946 110.818 124.992 110.707 124.992 110.592C124.992 110.476 124.946 110.365 124.865 110.283C124.783 110.201 124.672 110.156 124.556 110.156Z" fill="#FE7A36"/>
<path opacity="0.1" d="M124.556 110.156H92.8374C92.7217 110.156 92.6108 110.201 92.5291 110.283C92.4473 110.365 92.4014 110.476 92.4014 110.592C92.4014 110.707 92.4473 110.818 92.5291 110.9C92.6108 110.982 92.7217 111.028 92.8374 111.028H124.556C124.672 111.028 124.783 110.982 124.865 110.9C124.946 110.818 124.992 110.707 124.992 110.592C124.992 110.476 124.946 110.365 124.865 110.283C124.783 110.201 124.672 110.156 124.556 110.156Z" fill="white"/>
<path d="M116.582 111.049H90.858C90.6167 111.037 90.3853 110.949 90.1967 110.798C90.0082 110.647 89.8719 110.441 89.8072 110.208L86.1884 95.471C86.1558 95.3725 86.1477 95.2675 86.1646 95.1651C86.1816 95.0627 86.2232 94.9659 86.2858 94.8832C86.3484 94.8004 86.4302 94.7341 86.5241 94.6899C86.618 94.6457 86.7213 94.625 86.825 94.6295H112.549C112.791 94.6415 113.023 94.7292 113.212 94.8802C113.401 95.0312 113.539 95.2379 113.604 95.471L117.223 110.208C117.256 110.307 117.264 110.412 117.247 110.515C117.229 110.618 117.187 110.715 117.124 110.798C117.061 110.88 116.979 110.947 116.884 110.991C116.79 111.034 116.686 111.055 116.582 111.049Z" fill="#FE7A36"/>
<path opacity="0.3" d="M116.582 111.049H90.858C90.6167 111.037 90.3853 110.949 90.1967 110.798C90.0082 110.647 89.8719 110.441 89.8072 110.208L86.1884 95.471C86.1558 95.3725 86.1477 95.2675 86.1646 95.1651C86.1816 95.0627 86.2232 94.9659 86.2858 94.8832C86.3484 94.8004 86.4302 94.7341 86.5241 94.6899C86.618 94.6457 86.7213 94.625 86.825 94.6295H112.549C112.791 94.6415 113.023 94.7292 113.212 94.8802C113.401 95.0312 113.539 95.2379 113.604 95.471L117.223 110.208C117.256 110.307 117.264 110.412 117.247 110.515C117.229 110.618 117.187 110.715 117.124 110.798C117.061 110.88 116.979 110.947 116.884 110.991C116.79 111.034 116.686 111.055 116.582 111.049Z" fill="white"/>
<path d="M109 106.567H108.961C108.945 106.562 108.93 106.553 108.918 106.542C108.905 106.531 108.895 106.518 108.888 106.503C108.881 106.488 108.876 106.472 108.875 106.455C108.874 106.438 108.877 106.422 108.882 106.406C109.33 105.186 109.309 103.843 108.821 102.639C108.786 102.7 108.747 102.757 108.708 102.813C108.38 103.211 107.912 103.467 107.4 103.528C106.968 103.606 106.522 103.562 106.114 103.402C105.905 103.32 105.715 103.198 105.554 103.042C105.393 102.886 105.265 102.701 105.176 102.495C105.088 102.282 105.056 102.049 105.084 101.82C105.112 101.59 105.2 101.372 105.338 101.187C105.961 100.385 107.239 100.572 107.919 101.013C108.283 101.267 108.582 101.605 108.791 101.998C108.806 101.929 108.816 101.859 108.821 101.789C108.853 101.519 108.823 101.246 108.734 100.99C108.645 100.734 108.499 100.502 108.307 100.311C107.973 100.003 107.58 99.7673 107.152 99.6173C106.724 99.4674 106.27 99.4065 105.817 99.4386C105.498 99.4564 105.182 99.518 104.88 99.6217C104.864 99.6272 104.848 99.6294 104.832 99.6284C104.815 99.6274 104.799 99.6231 104.785 99.6158C104.77 99.6084 104.757 99.5982 104.746 99.5858C104.736 99.5733 104.728 99.5589 104.723 99.5433C104.713 99.5126 104.715 99.4792 104.729 99.45C104.742 99.4209 104.767 99.3981 104.797 99.3863C105.122 99.2759 105.461 99.2099 105.804 99.1901C106.292 99.1555 106.782 99.2216 107.243 99.3844C107.704 99.5471 108.127 99.8031 108.485 100.136C108.702 100.355 108.866 100.619 108.967 100.909C109.068 101.2 109.103 101.509 109.07 101.815C109.054 101.988 109.019 102.159 108.965 102.325C109.561 103.631 109.617 105.119 109.122 106.467C109.117 106.495 109.102 106.521 109.079 106.539C109.057 106.558 109.029 106.568 109 106.567ZM106.593 100.899C106.394 100.885 106.194 100.917 106.008 100.993C105.823 101.069 105.658 101.186 105.525 101.335C105.415 101.484 105.345 101.66 105.323 101.844C105.301 102.028 105.327 102.215 105.399 102.386C105.474 102.561 105.583 102.72 105.72 102.854C105.857 102.987 106.019 103.092 106.196 103.162C106.564 103.304 106.964 103.341 107.352 103.271C107.804 103.222 108.218 102.998 108.507 102.648C108.581 102.552 108.639 102.446 108.682 102.334C108.48 101.889 108.166 101.504 107.77 101.217C107.416 101.002 107.008 100.889 106.593 100.89V100.899Z" fill="white"/>
<path d="M111.546 104.884H105.848L106.445 111.049H110.949L111.546 104.884Z" fill="#FE7A36"/>
<path d="M108.608 100.141C108.432 100.142 108.258 100.118 108.089 100.071C108.067 100.064 108.048 100.051 108.034 100.034C108.019 100.017 108.01 99.9969 108.006 99.9748C107.969 99.6635 108.009 99.3478 108.123 99.0558C108.237 98.7637 108.422 98.5043 108.66 98.3006C109.305 97.8466 110.055 97.5659 110.84 97.4853C110.86 97.4832 110.881 97.4861 110.9 97.4937C110.919 97.5013 110.936 97.5133 110.949 97.5289C110.962 97.5436 110.971 97.5612 110.975 97.5802C110.98 97.5992 110.98 97.6189 110.975 97.6379C110.774 98.4076 110.379 99.1131 109.828 99.6871C109.488 99.9789 109.056 100.14 108.608 100.141ZM108.241 99.8528C108.492 99.9097 108.753 99.907 109.003 99.8449C109.253 99.7828 109.485 99.6631 109.68 99.4952C110.158 99.0071 110.507 98.4078 110.696 97.7512C110.021 97.8355 109.376 98.0857 108.821 98.4794C108.626 98.647 108.472 98.8573 108.372 99.094C108.271 99.3307 108.227 99.5873 108.241 99.844V99.8528Z" fill="white"/>
<path d="M104.204 103.258C103.771 103.237 103.347 103.133 102.953 102.953C102.941 102.946 102.932 102.937 102.924 102.927C102.917 102.916 102.912 102.904 102.909 102.892C102.907 102.879 102.908 102.866 102.913 102.853C102.917 102.841 102.925 102.83 102.935 102.822C103.3 102.466 103.75 102.209 104.243 102.076C104.444 102.044 104.649 102.062 104.841 102.127C105.033 102.192 105.207 102.304 105.346 102.451C105.353 102.464 105.356 102.478 105.356 102.493C105.356 102.507 105.353 102.521 105.346 102.534C105.262 102.719 105.133 102.88 104.972 103.003C104.811 103.126 104.622 103.208 104.422 103.241C104.35 103.252 104.277 103.257 104.204 103.258ZM103.127 102.857C103.538 103.038 103.987 103.116 104.435 103.084C104.599 103.055 104.755 102.99 104.89 102.893C105.026 102.795 105.137 102.668 105.215 102.521C105.095 102.406 104.949 102.319 104.789 102.27C104.63 102.22 104.461 102.207 104.295 102.233C103.866 102.342 103.47 102.557 103.144 102.857H103.127Z" fill="white"/>
<path d="M45.2045 170.912C45.1736 170.912 45.1438 170.9 45.1211 170.879C45.0984 170.858 45.0846 170.829 45.0824 170.799C44.0665 160.16 45.9195 131.768 48.0821 124.766C48.093 124.735 48.1153 124.709 48.1444 124.694C48.1734 124.678 48.2072 124.674 48.239 124.683C48.2707 124.693 48.2971 124.715 48.3126 124.744C48.3281 124.774 48.3314 124.808 48.3219 124.84C46.1419 131.816 44.3194 160.156 45.3309 170.777C45.3327 170.793 45.3312 170.81 45.3264 170.826C45.3216 170.841 45.3137 170.856 45.3031 170.869C45.2925 170.881 45.2795 170.892 45.2648 170.899C45.2501 170.906 45.234 170.911 45.2176 170.912H45.2045Z" fill="#263238"/>
<path d="M49.9963 161.922H39.9683L41.2763 181.481H48.6883L49.9963 161.922Z" fill="#FE7A36"/>
<path d="M45.318 131.955C45.8132 132.494 46.1703 133.145 46.3586 133.852C46.547 134.559 46.5609 135.301 46.3992 136.014C45.6755 136.125 44.9358 136.058 44.2434 135.821C43.5509 135.583 42.9263 135.181 42.4229 134.65C40.7225 132.819 40.2429 129.387 40.2429 129.387C40.2429 129.387 43.6001 130.124 45.318 131.955Z" fill="#263238"/>
<path d="M51.2517 141.556C50.4397 142.042 49.522 142.323 48.5774 142.376C47.6327 142.429 46.6893 142.253 45.8279 141.861C45.8776 140.916 46.1558 139.997 46.6388 139.183C47.1218 138.369 47.795 137.684 48.6008 137.187C51.3651 135.509 55.8384 135.783 55.8384 135.783C55.8384 135.783 54.016 139.877 51.2517 141.556Z" fill="#263238"/>
<path d="M50.7199 124.286C50.719 124.616 50.6204 124.939 50.4363 125.213C50.2523 125.487 49.9912 125.7 49.686 125.826C49.3808 125.951 49.0452 125.984 48.7216 125.919C48.3979 125.854 48.1008 125.695 47.8677 125.461C47.6346 125.227 47.476 124.93 47.4119 124.606C47.3478 124.282 47.3811 123.947 47.5077 123.642C47.6342 123.337 47.8482 123.076 48.1227 122.893C48.3972 122.71 48.7199 122.612 49.05 122.612C49.2697 122.612 49.4872 122.655 49.69 122.739C49.8929 122.824 50.0772 122.947 50.2323 123.102C50.3875 123.258 50.5104 123.443 50.594 123.646C50.6777 123.849 50.7205 124.066 50.7199 124.286Z" fill="#FE7A36"/>
<path d="M38.6078 151.322C39.4308 152.205 40.4566 152.873 41.5963 153.269C42.736 153.664 43.9552 153.776 45.1478 153.594C45.4209 152.423 45.4048 151.202 45.101 150.039C44.7971 148.875 44.2147 147.803 43.4038 146.914C40.6134 143.897 35.0544 142.663 35.0544 142.663C35.0544 142.663 35.8174 148.305 38.6078 151.322Z" fill="#263238"/>
</svg>
