<svg width="141" height="54" viewBox="0 0 141 54" fill="none" xmlns="http://www.w3.org/2000/svg">
<circle cx="27" cy="27" r="27" fill="white"/>
<circle cx="27" cy="27" r="26.5" stroke="#FE7A36" stroke-opacity="0.5"/>
<mask id="mask0_508_2422" style="mask-type:alpha" maskUnits="userSpaceOnUse" x="0" y="0" width="54" height="54">
<circle cx="27" cy="27" r="27" fill="white"/>
<circle cx="27" cy="27" r="26.5" stroke="#FE7A36" stroke-opacity="0.5"/>
</mask>
<g mask="url(#mask0_508_2422)">
<path d="M10.2637 46.8553L20.5256 42.9524L23.2671 39.7497L36.1121 38.5024L41.459 43.2217C41.459 43.2217 51.9391 45.7254 52.4217 46.9316C52.9043 48.1383 47.5211 80.686 47.5211 80.686C47.5211 80.686 47.231 98.6295 45.6627 99.3531C44.0938 100.077 23.1503 107.783 14.2071 98.6972C14.038 98.525 11.4768 57.914 11.3558 57.5519C11.2347 57.1903 10.2637 46.8553 10.2637 46.8553Z" fill="white"/>
<path d="M26.5385 50.6987L19.7656 93.9387L23.6664 99.251L28.7376 94.1776L29.3733 50.6987H26.5385Z" fill="#FE7A36"/>
<path d="M25.4531 48.5877L26.5388 50.6989H29.3736L30.2972 48.6715L28.5785 46.459H27.1521L25.5678 48.5787" fill="#FE7A36"/>
<path d="M35.2488 46.2262C35.2578 46.2364 35.1608 46.3382 34.9726 46.5179C34.7486 46.7248 34.4745 46.9781 34.146 47.2816C33.3829 47.9615 32.3681 48.8653 31.1779 49.926L31.0723 50.0198L30.9923 49.9004C30.2746 48.828 29.3958 47.6388 28.3874 46.4465C28.1661 46.1921 27.948 45.9404 27.7336 45.6935L27.9448 45.6877C26.7951 47.1114 25.7398 48.419 24.8594 49.5095L24.7858 49.6007L24.6999 49.5239C23.7971 48.7176 23.1743 47.9396 22.7802 47.3786C22.5829 47.0976 22.4416 46.8699 22.3504 46.7126C22.2603 46.5542 22.2187 46.4673 22.2278 46.4614C22.2496 46.4475 22.4613 46.768 22.881 47.3034C23.3018 47.8367 23.9411 48.5827 24.8455 49.3564L24.6861 49.3708C25.5542 48.2707 26.5951 46.9515 27.7283 45.5149L27.8312 45.3848L27.9395 45.509C28.156 45.7575 28.3762 46.0103 28.5996 46.2668C29.616 47.4682 30.4932 48.6728 31.2003 49.7628L31.0147 49.7372C32.2316 48.7069 33.2688 47.8292 34.049 47.169C34.3956 46.8864 34.6846 46.6507 34.9208 46.4582C35.1256 46.2977 35.2397 46.2161 35.2488 46.2262Z" fill="#263238"/>
<path d="M36.9475 38.9136C36.9475 38.9136 31.536 67.0891 32.0501 72.1422C32.5647 77.1954 34.2076 90.4105 35.1381 96.633C35.9807 102.269 37.9036 110.87 38.8661 115.044C39.1626 116.33 40.6786 118.805 41.9153 118.437C48.1799 116.574 54.4185 112.947 55.6716 112.251C55.6716 112.251 54.2878 98.6844 50.5305 89.6708C50.0922 88.6198 47.876 82.9774 47.876 82.9774L50.0724 44.758L45.135 43.3806L41.2508 42.4368L36.9475 38.9136Z" fill="#FE7A36"/>
<path d="M32.4183 76.4875C32.4087 76.4864 32.43 76.3478 32.4796 76.0822C32.518 75.8129 32.638 75.4365 32.7686 74.9427C33.0544 73.9636 33.5024 72.558 34.0948 70.835C35.2712 67.3859 36.9888 62.6554 38.933 57.4487C39.9307 54.8091 40.8799 52.2975 41.7422 50.0152C41.9603 49.4467 42.1725 48.8927 42.3789 48.3546C42.4744 48.0848 42.6066 47.8187 42.6477 47.5755C42.6871 47.3228 42.6519 47.0631 42.549 46.8375C42.4488 46.6109 42.2835 46.4184 42.0846 46.2856C41.8905 46.1597 41.6356 46.0686 41.4143 45.9624C40.9599 45.7582 40.5243 45.5625 40.1089 45.3753L39.9201 45.2905L40.1051 45.1999C40.5035 45.0042 40.8837 44.8181 41.2442 44.6416C41.5838 44.4816 41.7971 44.1547 41.835 43.8284C41.8841 43.4929 41.7518 43.2028 41.5732 42.9624C41.4047 42.7181 41.2207 42.516 41.0463 42.3443C40.6949 42.0014 40.3829 41.7764 40.1792 41.6148C39.9686 41.4618 39.8822 41.3391 39.9025 41.3306C39.9094 41.3295 39.9211 41.3589 39.9729 41.3999C40.0241 41.4404 40.1041 41.498 40.2123 41.5706C40.4261 41.7177 40.7504 41.93 41.1204 42.2675C41.3044 42.4366 41.499 42.6387 41.6804 42.8872C41.8659 43.1191 42.0403 43.4684 41.988 43.8465C41.9534 44.2203 41.7113 44.6069 41.3231 44.7978C40.9653 44.9802 40.5882 45.1722 40.1931 45.3737L40.1888 45.1983C40.6069 45.3796 41.0447 45.57 41.5017 45.7683C41.7299 45.8755 41.963 45.9496 42.2083 46.1016C42.4424 46.2547 42.6386 46.4776 42.7591 46.7426C42.8823 47.0066 42.9271 47.3121 42.8828 47.6113C42.8295 47.92 42.701 48.1674 42.6082 48.4405C42.4056 48.9801 42.1971 49.5352 41.9827 50.1053C41.1268 52.3892 40.1851 54.9035 39.1949 57.5453C37.2506 62.7509 35.5047 67.4691 34.282 70.899C33.6661 72.6124 33.1904 74.0063 32.8737 74.9731C32.7275 75.4594 32.591 75.8327 32.5356 76.0929C32.4673 76.3526 32.4273 76.4886 32.4183 76.4875Z" fill="#263238"/>
<path d="M2.13477 110.635C2.13477 110.635 5.4852 114.54 7.96483 113.732C10.4439 112.925 11.4422 106.776 13.1091 102.014C14.7761 97.2514 17.7991 86.9303 19.2821 81.1152C20.7651 75.3 21.4124 71.1492 21.7356 66.4992C22.0582 61.8498 22.1115 45.666 22.4256 42.8638C22.5195 42.0292 22.7317 40.3682 22.7317 40.3682L20.1385 43.1L10.0168 45.666L11.9333 82.0452L2.13477 110.635Z" fill="#FE7A36"/>
<path d="M20.0485 43.222C20.056 43.2284 19.968 43.343 19.7995 43.5595C19.6315 43.7766 19.3804 44.0938 19.0748 44.5146C18.9218 44.7247 18.7565 44.962 18.5869 45.227C18.4307 45.4904 18.2232 45.7965 18.1694 46.1234C18.1512 46.4444 18.4163 46.7852 18.6765 47.0891C18.9479 47.3989 19.2732 47.7013 19.6267 47.9919L19.9659 48.2708L19.5356 48.1679C19.1409 48.0735 18.6925 48.0229 18.2616 48.1023C18.0478 48.1434 17.8377 48.2228 17.6718 48.3609C17.6281 48.3929 17.5961 48.4372 17.5567 48.474C17.5289 48.4974 17.5401 48.5044 17.5332 48.5097L17.5204 48.5812C17.5092 48.6905 17.5071 48.8115 17.5097 48.9331C17.5433 49.9127 17.6788 50.9664 17.8115 52.066C18.0894 54.2678 18.4419 56.6749 18.8205 59.1951C19.6331 64.414 20.369 69.1365 20.9071 72.592C21.1694 74.2835 21.3838 75.663 21.5374 76.6527C21.6035 77.1113 21.6568 77.4787 21.6968 77.7587C21.7304 78.012 21.7438 78.1458 21.7342 78.1474C21.7246 78.149 21.6931 78.0184 21.6414 77.7678C21.588 77.4899 21.5177 77.1252 21.4302 76.6703C21.2553 75.6843 21.0116 74.3096 20.7124 72.624C20.1248 69.2037 19.3361 64.4748 18.5453 59.2367C18.1667 56.7149 17.8211 54.3057 17.5556 52.0975C17.4292 50.9915 17.3012 49.9426 17.2756 48.9363C17.2746 48.8094 17.2767 48.6836 17.2922 48.5508C17.2991 48.5145 17.3039 48.482 17.314 48.4431C17.3327 48.3935 17.3625 48.3401 17.3844 48.3257C17.4324 48.2793 17.4751 48.2266 17.5284 48.1876C17.7353 48.0202 17.9827 47.9327 18.2216 47.8895C18.7053 47.8085 19.1623 47.8682 19.5905 47.9759L19.4993 48.1514C19.1372 47.8458 18.8146 47.5365 18.5378 47.2102C18.4003 47.0465 18.2717 46.8817 18.1715 46.7015C18.0744 46.5244 17.9827 46.3239 18.0094 46.1095C18.0894 45.7027 18.3048 45.4286 18.4717 45.155C18.6509 44.89 18.8242 44.6564 18.9847 44.4501C19.3057 44.0368 19.5718 43.7307 19.7547 43.5249C19.9387 43.318 20.0411 43.2156 20.0485 43.222Z" fill="#263238"/>
<path d="M44.337 57.9713C44.0741 58.5046 39.4375 75.3677 39.4375 75.3677L18.735 72.5158L14.791 80.5728C15.1126 80.7599 35.453 86.9334 43.5713 86.9713C49.8717 87.0011 53.0456 79.7745 54.5419 71.8306C56.0761 63.6873 56.3939 60.019 56.4856 57.2082C56.8616 45.6659 54.9339 46.1944 50.0738 44.7578" fill="#FF725E"/>
<path d="M50.0749 44.7583C50.0749 44.7583 50.1858 44.7802 50.398 44.8356C50.6198 44.8948 50.9323 44.978 51.3392 45.0868C51.752 45.2004 52.2676 45.3273 52.8616 45.5331C53.4509 45.7336 54.1527 46.0029 54.7616 46.5703C55.3797 47.127 55.8073 47.976 56.0665 48.9342C56.3454 49.8941 56.4537 50.9744 56.539 52.1279C56.6056 53.284 56.6275 54.5222 56.6046 55.8335C56.587 57.1442 56.5491 58.5323 56.4211 59.9843C56.1785 62.8884 55.6948 66.0437 55.1024 69.4133C54.519 72.7733 53.8418 76.4149 52.2809 79.9632C51.5056 81.7267 50.4785 83.4752 48.9945 84.8841L48.7193 85.1507C48.6234 85.235 48.5172 85.3075 48.4159 85.3869L47.8 85.853C47.3441 86.0951 46.9159 86.4022 46.4135 86.5606C46.1666 86.6454 45.932 86.7729 45.6734 86.8219L44.9023 86.9936C44.6458 87.0619 44.3776 87.0443 44.1147 87.0731C43.8507 87.0864 43.5841 87.1243 43.3223 87.0987C41.2127 87.0582 39.0994 86.7206 36.968 86.3532C34.8345 85.9852 32.6908 85.5117 30.5268 85.0163C27.772 84.3785 25.0764 83.6789 22.4422 82.9617C21.125 82.6028 19.8244 82.2359 18.5409 81.8643C17.2483 81.4792 16.0127 81.1385 14.7244 80.6911L14.6055 80.65L14.6711 80.5162C16.0314 77.7427 17.3507 75.0525 18.6214 72.4619L18.6619 72.3787L18.7531 72.3915C26.6096 73.4858 33.6346 74.4643 39.4508 75.2743L39.3447 75.3442C40.8458 69.938 42.0702 65.5883 42.9309 62.5935C43.3623 61.0961 43.7003 59.9374 43.9403 59.1551C44.0614 58.7717 44.1547 58.4773 44.2208 58.2683C44.2928 58.0705 44.337 57.9734 44.337 57.9734C44.337 57.9734 44.3099 58.0785 44.2469 58.2768C44.1872 58.488 44.1024 58.7845 43.9926 59.1711C43.7707 59.9688 43.4481 61.1297 43.0327 62.6228C42.2062 65.6373 41.0122 69.9924 39.5303 75.3959L39.5079 75.4775L39.4242 75.4663C33.6053 74.6739 26.577 73.7161 18.7179 72.6459L18.8496 72.5755C17.5832 75.1676 16.2676 77.8601 14.9116 80.6356L14.814 80.5375C14.8689 80.4453 14.8625 80.4591 14.862 80.4618L14.8652 80.4629L14.8716 80.465L14.8849 80.4693L14.911 80.4783L14.9638 80.4965L15.0689 80.5333L15.296 80.6074L15.7632 80.7551C16.0767 80.8505 16.3908 80.9465 16.7065 81.0425C17.3395 81.2286 17.9756 81.4163 18.6161 81.6051C19.8985 81.9752 21.1981 82.341 22.5142 82.6983C25.1458 83.4128 27.8387 84.1114 30.5892 84.7481C32.75 85.2424 34.8899 85.7154 37.0155 86.0834C39.1384 86.4502 41.2468 86.7873 43.326 86.8289C43.5873 86.8544 43.8406 86.8171 44.0966 86.8043C44.3499 86.7761 44.6101 86.7947 44.857 86.7286L45.6003 86.5638C45.8499 86.5174 46.0755 86.3932 46.3138 86.3127C46.7985 86.1623 47.2118 85.8637 47.6534 85.6322L48.2506 85.1806C48.3487 85.1038 48.4516 85.0339 48.5455 84.9523L48.8137 84.6932C50.2599 83.3243 51.2779 81.6056 52.0474 79.8619C53.5997 76.3509 54.2833 72.736 54.8758 69.376C55.4773 66.0117 55.9711 62.8639 56.2254 59.971C56.3587 58.5253 56.403 57.1431 56.4275 55.834C56.4574 54.5254 56.4425 53.2914 56.3838 52.1407C56.3059 50.9931 56.2062 49.9191 55.9385 48.9726C55.6906 48.0266 55.281 47.1985 54.688 46.6529C54.1036 46.0962 53.4173 45.8216 52.8345 45.6147C52.2479 45.4019 51.7343 45.267 51.3243 45.1444C50.9206 45.0244 50.6103 44.9321 50.39 44.8665C50.1805 44.7983 50.0749 44.7583 50.0749 44.7583Z" fill="#263238"/>
<path d="M47.4585 47.2032C47.5342 47.2416 46.7988 48.716 46.2037 50.647C45.5985 52.5752 45.3676 54.2064 45.2839 54.1952C45.2487 54.191 45.2604 53.7761 45.3548 53.1133C45.4486 52.451 45.6353 51.5418 45.9387 50.5643C46.2432 49.5879 46.6047 48.7331 46.9033 48.1343C47.2014 47.5349 47.4265 47.1867 47.4585 47.2032Z" fill="#263238"/>
<path d="M10.015 45.6665C8.76768 46.0563 8.03979 47.3473 6.24059 53.82C5.27806 57.2813 3.08906 63.0223 2.18946 65.8224C1.65833 67.4766 -1.99553 77.5962 -1.0634 80.3931C-0.13127 83.19 4.0953 86.645 12.4562 85.2105C20.7184 83.7926 31.536 79.8268 31.536 79.8268L30.7484 70.1071L11.1177 71.8306L11.3113 67.691L10.015 45.6665Z" fill="#FF725E"/>
<path d="M11.4886 71.8308C11.4118 71.834 11.1697 67.5754 10.9473 62.3207C10.7249 57.0639 10.6071 52.8011 10.6834 52.7979C10.7601 52.7947 11.0022 57.0522 11.2246 62.309C11.447 67.5642 11.5648 71.8276 11.4886 71.8308Z" fill="#263238"/>
<path d="M27.8576 9.91504L27.3217 9.9369C21.9321 10.1598 17.6143 14.4824 17.4031 19.8725C17.2064 24.8877 17.0533 30.4315 17.1973 33.1121C17.4954 38.6606 23.0834 39.2947 23.0834 39.2947C23.0956 39.2947 23.0967 40.8336 23.0967 40.8336L28.0373 45.2778L36.0979 39.0739L36.5379 20.771C36.7981 14.9857 33.6476 10.0137 27.8576 9.91504Z" fill="#FFBF9D"/>
<path d="M23.082 39.2943C23.082 39.2943 26.5898 39.355 30.2223 36.8589C30.2223 36.8589 28.6556 41.1041 23.0954 40.8332L23.082 39.2943Z" fill="#FF9A6C"/>
<path d="M36.2539 24.9001C36.3467 24.8553 40.0219 23.6144 40.0571 27.4149C40.0928 31.2149 36.2699 30.4672 36.2624 30.3579C36.255 30.2491 36.2539 24.9001 36.2539 24.9001Z" fill="#FFBF9D"/>
<path d="M37.4117 28.9071C37.4283 28.8949 37.4784 28.953 37.5909 29.0031C37.7002 29.0522 37.8885 29.0847 38.0858 29.0084C38.4857 28.8575 38.8179 28.2166 38.8302 27.5313C38.8366 27.1852 38.7609 26.8568 38.6361 26.5853C38.5172 26.3086 38.3359 26.1155 38.1332 26.0819C37.9316 26.0372 37.7898 26.1598 37.7445 26.267C37.6943 26.3736 37.7194 26.4494 37.6991 26.4558C37.6885 26.4654 37.617 26.3928 37.6464 26.2355C37.6613 26.1598 37.705 26.0697 37.7935 25.9961C37.8842 25.9209 38.0175 25.882 38.1588 25.8958C38.4521 25.9134 38.7182 26.1806 38.8563 26.4787C39.0099 26.7778 39.1032 27.1474 39.0957 27.5361C39.0787 28.3019 38.6931 29.0223 38.1455 29.186C37.8789 29.2585 37.6549 29.1796 37.5392 29.0911C37.4192 28.9988 37.3984 28.9141 37.4117 28.9071Z" fill="#FF9A6C"/>
<path d="M15.1256 18.1708C17.5082 18.5382 19.9532 18.3617 21.8563 16.8814C22.404 16.4553 22.9138 15.9695 23.3809 15.44C24.2251 14.4834 24.8842 13.2894 26.0211 12.7103C27.487 11.9643 29.251 12.4751 30.8107 12.9972L30.7441 12.9385C31.5568 13.3033 32.2985 13.8259 32.9155 14.4684C32.5417 18.1314 33.1149 21.8897 34.5894 25.2663C34.7104 25.5436 34.9307 25.7729 35.2122 25.8843C36.1022 26.2368 35.8265 25.0551 36.4883 24.8269C36.9954 24.652 37.2418 24.7592 38.2502 24.7298C38.6005 23.7743 38.8064 21.173 39.1028 19.7658C39.9347 18.8854 40.7058 17.251 40.7362 15.9743C40.7666 14.6977 40.0579 13.0713 40.0579 13.0713C39.0938 11.2428 38.5355 10.3091 37.0578 9.80139L37.0248 9.81633C35.6975 9.30014 34.0684 9.3108 32.9939 10.2403C32.7022 8.26136 30.9473 6.71172 29.0067 6.22593C27.0662 5.74067 23.967 6.07821 22.1198 6.84663C20.8597 7.37029 19.6412 8.36694 18.2275 9.80139L18.2281 9.80033C18.2281 9.80033 18.227 9.80139 18.227 9.80246C18.0393 9.99283 17.8484 10.1901 17.6532 10.396C17.6367 10.413 17.6223 10.4322 17.6063 10.4493C17.1968 10.7106 16.6902 10.8343 16.1665 10.893C15.3234 10.9879 14.7971 10.7223 14.2244 10.0963C14.05 9.90591 13.8314 9.66595 13.5856 9.74434C13.4304 9.79393 13.3424 9.95657 13.2917 10.1112C13.0198 10.9351 13.3835 11.8694 14.0047 12.4751C14.3055 12.7684 14.6585 12.9956 15.0355 13.1812C15.0355 13.1812 14.4729 13.8765 13.505 14.0344C12.9857 14.1192 12.5153 14.4194 12.221 14.8556C12.0775 15.0683 11.9746 15.3179 11.9746 15.5979C11.9746 17.2008 13.5728 17.9309 15.1256 18.1708Z" fill="#263238"/>
<path d="M14.1075 16.5067C14.1064 16.5083 14.1213 16.5211 14.1523 16.5446C14.1901 16.5712 14.2365 16.6043 14.2925 16.6443C14.3538 16.6891 14.4317 16.7413 14.5298 16.7925C14.6263 16.8464 14.7367 16.912 14.87 16.9669C15.3894 17.2063 16.2208 17.441 17.2558 17.3679C18.2813 17.2986 19.5083 16.921 20.5982 16.0902C21.7005 15.2786 22.6619 14.0905 23.4442 12.7334C23.8415 12.0556 24.1631 11.3613 24.5193 10.7193C24.8733 10.0773 25.2653 9.48268 25.7431 9.01182C26.215 8.53829 26.7653 8.18581 27.3343 8.0205C27.618 7.93251 27.9049 7.91012 28.1785 7.91331C28.4531 7.92451 28.7133 7.97731 28.9538 8.05303C29.4353 8.20874 29.8246 8.46897 30.1216 8.73826C30.4192 9.00969 30.6202 9.29765 30.7589 9.54508C31.0175 10.0533 31.0351 10.3812 31.0554 10.3759C31.058 10.3754 31.0559 10.3562 31.05 10.3178C31.0426 10.2719 31.033 10.2159 31.0218 10.1477C30.993 9.99887 30.9263 9.78397 30.8031 9.52161C30.6693 9.26618 30.4704 8.96756 30.1707 8.6844C29.8721 8.40391 29.4764 8.13142 28.9826 7.96557C28.7357 7.88452 28.4669 7.82746 28.1822 7.81307C27.8985 7.80667 27.5977 7.828 27.3044 7.91652C26.7131 8.08343 26.1436 8.4439 25.6583 8.92597C25.1666 9.40589 24.7656 10.0106 24.4078 10.6564C24.0473 11.3027 23.7252 11.9948 23.3317 12.6667C22.5553 14.0132 21.6077 15.1885 20.5268 15.9926C19.4566 16.816 18.2583 17.1941 17.2489 17.2746C16.2314 17.3578 15.4102 17.1413 14.8903 16.9189C14.3672 16.6944 14.1176 16.4912 14.1075 16.5067Z" fill="#455A64"/>
<path d="M13.5744 14.0682C13.5701 14.0762 13.6416 14.1242 13.7754 14.2047C13.9082 14.2879 14.1109 14.3897 14.3695 14.498C14.6276 14.6084 14.9465 14.7102 15.308 14.7945C15.6706 14.8723 16.077 14.9283 16.5057 14.9395C16.9344 14.9459 17.3429 14.9065 17.7087 14.8441C18.0735 14.7747 18.3966 14.6857 18.659 14.5865C18.9213 14.4889 19.1288 14.3956 19.2647 14.3177C19.4018 14.2426 19.4754 14.1978 19.4711 14.1898C19.4599 14.1674 19.1549 14.3289 18.6291 14.4991C18.3673 14.586 18.0473 14.6644 17.6885 14.7257C17.3285 14.7806 16.9286 14.8153 16.5084 14.8094C16.0882 14.7982 15.6903 14.747 15.3331 14.6772C14.9774 14.6009 14.6606 14.5097 14.4025 14.4121C13.8847 14.2207 13.5861 14.0469 13.5744 14.0682Z" fill="#455A64"/>
<path d="M34.8371 16.9609C34.8227 16.9604 34.7998 17.0863 34.7854 17.3188C34.7715 17.5513 34.7672 17.8904 34.8051 18.3117C34.8334 18.526 34.8339 18.7431 34.9208 19.0134C34.9613 19.1441 35.1107 19.3051 35.3016 19.2918C35.4834 19.2801 35.6114 19.1777 35.7239 19.0828C36.1441 18.6935 36.6006 18.2711 37.0821 17.8248L36.8821 17.7091C36.8192 17.9715 36.7531 18.2455 36.6859 18.525C36.5067 19.2913 36.3361 20.0197 36.1804 20.6873L36.0956 21.0494L36.3649 20.795C37.08 20.1194 37.5711 19.4384 37.8729 18.9382C38.1747 18.4365 38.3006 18.1186 38.2808 18.109C38.2243 18.069 37.6377 19.3275 36.2134 20.6313L36.3979 20.739C36.56 20.073 36.7376 19.3462 36.9237 18.5815C36.9898 18.3021 37.0549 18.0274 37.1173 17.7651L37.2111 17.3689L36.9173 17.6494C36.4438 18.1016 35.9959 18.5298 35.5826 18.9244C35.4877 19.0129 35.3805 19.0849 35.293 19.0902C35.2066 19.0966 35.1378 19.0401 35.0963 18.9414C35.0216 18.7415 34.9987 18.4914 34.9645 18.2935C34.8499 17.4707 34.8728 16.962 34.8371 16.9609Z" fill="#455A64"/>
<path d="M24.2651 28.8092C24.2666 28.7607 23.7329 28.6908 22.869 28.6162C22.6498 28.6028 22.4418 28.5682 22.3992 28.421C22.3416 28.2658 22.4227 28.0269 22.5181 27.7694C22.701 27.234 22.8925 26.6719 23.0935 26.0838C23.8907 23.6846 24.4581 21.7164 24.361 21.6849C24.264 21.654 23.5393 23.5727 22.7421 25.9712C22.5506 26.5626 22.3677 27.1263 22.1939 27.6654C22.1219 27.9165 21.9918 28.2029 22.116 28.525C22.1816 28.6855 22.3464 28.7969 22.4872 28.8289C22.6285 28.8657 22.7511 28.8631 22.8594 28.8652C23.727 28.8764 24.2635 28.8583 24.2651 28.8092Z" fill="#263238"/>
<path d="M20.1973 24.6619C20.1994 25.0906 20.5604 25.442 21.0025 25.4479C21.4435 25.4532 21.8002 25.1109 21.7976 24.6821C21.7949 24.2534 21.435 23.9014 20.9934 23.8956C20.5514 23.8902 20.1946 24.2331 20.1973 24.6619Z" fill="#263238"/>
<path d="M19.0535 22.2697C19.157 22.3715 19.7446 21.8911 20.6064 21.8575C21.4665 21.8111 22.1171 22.2334 22.2056 22.1225C22.2499 22.0734 22.1411 21.8868 21.8574 21.6948C21.578 21.5044 21.1082 21.3269 20.5717 21.3514C20.0352 21.377 19.5921 21.5956 19.341 21.8116C19.0845 22.0292 19.0023 22.2243 19.0535 22.2697Z" fill="#263238"/>
<path d="M27.9102 24.6619C27.9128 25.0906 28.2733 25.442 28.7154 25.4474C29.1564 25.4532 29.5131 25.1109 29.5105 24.6816C29.5078 24.2529 29.1473 23.9009 28.7063 23.8951C28.2642 23.8903 27.908 24.2332 27.9102 24.6619Z" fill="#263238"/>
<path d="M27.5064 22.1177C27.6099 22.219 28.1991 21.7396 29.0598 21.7055C29.9199 21.6597 30.5705 22.082 30.6595 21.9711C30.7033 21.922 30.5955 21.7354 30.3108 21.5439C30.0319 21.353 29.5616 21.176 29.0251 21.2005C28.4887 21.2261 28.0455 21.4453 27.7944 21.6607C27.5379 21.8778 27.4557 22.0729 27.5064 22.1177Z" fill="#263238"/>
<path d="M27.1151 19.4009C27.241 19.619 28.0675 19.3497 29.0839 19.2846C30.0998 19.1993 30.9556 19.3438 31.049 19.1103C31.0895 18.9988 30.9098 18.8052 30.544 18.6399C30.1814 18.4741 29.6294 18.3557 29.0199 18.4C28.411 18.4458 27.882 18.6442 27.5466 18.8612C27.209 19.0788 27.0586 19.2969 27.1151 19.4009Z" fill="#263238"/>
<path d="M18.9092 19.7058C19.0937 19.8993 19.7896 19.6743 20.6337 19.6423C21.4757 19.5847 22.1951 19.734 22.3545 19.5218C22.4239 19.4194 22.3065 19.2237 21.9892 19.0445C21.6768 18.8659 21.1579 18.7267 20.5788 18.7571C19.9991 18.788 19.5016 18.9816 19.2131 19.1923C18.9204 19.404 18.8276 19.6109 18.9092 19.7058Z" fill="#263238"/>
<path d="M27.3169 29.4495C27.1836 29.4489 27.2311 30.3363 26.5059 31.0082C25.7822 31.6822 24.8304 31.6353 24.8304 31.7595C24.8208 31.816 25.0506 31.92 25.4505 31.9088C25.843 31.9003 26.4083 31.743 26.8519 31.3319C27.2945 30.9202 27.4652 30.3939 27.4753 30.028C27.4886 29.6553 27.3777 29.4409 27.3169 29.4495Z" fill="#263238"/>
</g>
<circle cx="54" cy="27" r="27" fill="white"/>
<circle cx="54" cy="27" r="26.5" stroke="#FE7A36" stroke-opacity="0.49"/>
<mask id="mask1_508_2422" style="mask-type:alpha" maskUnits="userSpaceOnUse" x="27" y="0" width="54" height="54">
<circle cx="54" cy="27" r="27" fill="white"/>
<circle cx="54" cy="27" r="26.5" stroke="#FE7A36" stroke-opacity="0.49"/>
</mask>
<g mask="url(#mask1_508_2422)">
<path d="M43.9782 23.5882C43.8678 23.544 39.5534 22.4122 39.8141 26.7752C40.0751 31.1382 44.4016 29.9762 44.4016 29.8503C44.4023 29.725 43.9782 23.5882 43.9782 23.5882Z" fill="#B78876"/>
<path d="M42.9776 28.2736C42.9575 28.2609 42.9049 28.3311 42.7799 28.3979C42.6581 28.4625 42.445 28.5151 42.2124 28.4434C41.7413 28.302 41.3095 27.5934 41.2412 26.8081C41.2062 26.4116 41.2668 26.0287 41.3887 25.707C41.5028 25.3797 41.6958 25.1444 41.9256 25.0896C42.1533 25.0222 42.3259 25.1515 42.3868 25.2709C42.4527 25.3896 42.4301 25.4784 42.4536 25.4843C42.4663 25.4945 42.543 25.4057 42.4969 25.2276C42.4737 25.1419 42.4165 25.042 42.3089 24.9643C42.1991 24.8855 42.0426 24.8511 41.882 24.8784C41.5471 24.922 41.2628 25.2495 41.1286 25.6024C40.9761 25.9578 40.8988 26.3893 40.9377 26.8341C41.0182 27.7116 41.5174 28.5074 42.1592 28.6518C42.4706 28.7134 42.7215 28.6058 42.8474 28.4947C42.9763 28.3797 42.9933 28.2807 42.9776 28.2736Z" fill="#AA6550"/>
<path d="M54.8789 8C57.0957 8 59.3529 8 62.1283 9.44908C63.8786 10.3631 64.9699 11.8115 65.882 13.5625C66.5801 14.9027 66.9936 16.658 66.9135 18.167C66.8331 19.6758 66.8278 20.7312 66.225 22.1165" fill="#263238"/>
<path d="M53.983 8.34355C60.5439 7.88547 66.2103 12.8915 66.5536 19.4592C66.8394 24.9249 67.0908 30.8369 67.0302 33.8136C66.9003 40.2025 60.5015 41.1453 60.5015 41.1453C60.5015 41.1453 60.6425 43.0397 60.8003 45.3904C61.1182 50.124 57.4629 54.1873 52.7222 54.367C48.0747 54.543 44.1654 50.9158 43.9938 46.2676L43.0433 20.5161C42.8095 14.172 47.65 8.78585 53.983 8.34355Z" fill="#B78876"/>
<path d="M60.5021 41.1434C60.5021 41.1434 56.5755 41.3476 52.3047 38.6177C52.3047 38.6177 54.2372 43.2665 60.6178 42.7416L60.5021 41.1434Z" fill="#AA6550"/>
<path d="M64.1125 23.0159C64.1258 23.4978 63.7284 23.9067 63.2251 23.9296C62.7231 23.9525 62.3043 23.5813 62.2913 23.0994C62.278 22.6175 62.6752 22.208 63.1775 22.1851C63.6804 22.1619 64.0995 22.5337 64.1125 23.0159Z" fill="#263238"/>
<path d="M65.0047 21.7244C64.8906 21.8425 64.2033 21.325 63.2213 21.3198C62.2405 21.3006 61.5161 21.7998 61.4103 21.6789C61.3583 21.6254 61.4756 21.4113 61.7911 21.1852C62.1019 20.9601 62.6305 20.7433 63.242 20.7507C63.8538 20.759 64.3663 20.9882 64.6601 21.2211C64.9605 21.455 65.061 21.6712 65.0047 21.7244Z" fill="#263238"/>
<path d="M54.4797 23.012C54.4927 23.4939 54.0955 23.9025 53.5926 23.9257C53.0906 23.9486 52.6718 23.5777 52.6585 23.0955C52.6452 22.6136 53.0427 22.2044 53.545 22.1812C54.0479 22.158 54.4664 22.5301 54.4797 23.012Z" fill="#263238"/>
<path d="M55.3347 21.8271C55.2206 21.9452 54.5324 21.4281 53.5513 21.4228C52.5708 21.4037 51.8458 21.9032 51.7404 21.7816C51.6887 21.7281 51.8044 21.5141 52.1214 21.2883C52.4319 21.0631 52.9605 20.846 53.5723 20.8537C54.1838 20.8618 54.6963 21.0913 54.9905 21.3239C55.2893 21.5583 55.3907 21.7745 55.3347 21.8271Z" fill="#263238"/>
<path d="M58.8399 29.1369C58.8358 29.0809 59.447 28.9804 60.4371 28.862C60.6879 28.8381 60.9258 28.7902 60.9694 28.6195C61.03 28.4388 60.927 28.1676 60.808 27.875C60.5772 27.2663 60.3353 26.6285 60.0817 25.9598C59.0737 23.233 58.3462 20.9918 58.4563 20.9522C58.5668 20.9126 59.473 23.0907 60.481 25.8172C60.7235 26.4896 60.9555 27.1305 61.176 27.7438C61.2685 28.0293 61.4293 28.3538 61.2982 28.7286C61.2292 28.9155 61.0439 29.05 60.8828 29.0921C60.722 29.14 60.5806 29.1413 60.4566 29.1481C59.4606 29.1932 58.8433 29.1926 58.8399 29.1369Z" fill="#263238"/>
<path d="M55.9582 29.7946C56.1181 29.7868 56.1117 30.8524 57.0179 31.6163C57.9226 32.3825 59.0599 32.2717 59.067 32.4208C59.0813 32.488 58.8122 32.6259 58.3327 32.6349C57.862 32.6472 57.1766 32.4907 56.622 32.0234C56.0693 31.5551 55.8348 30.934 55.802 30.4967C55.7643 30.051 55.8852 29.7881 55.9582 29.7946Z" fill="#263238"/>
<path d="M55.6289 17.9818C55.5299 18.2478 54.5504 18.1136 53.3976 18.2432C52.2415 18.3496 51.3098 18.6793 51.1592 18.4387C51.0921 18.3236 51.256 18.0737 51.6337 17.8182C52.0079 17.563 52.604 17.3227 53.2962 17.2513C53.9884 17.1814 54.6206 17.2961 55.0388 17.4699C55.4604 17.6438 55.6716 17.8553 55.6289 17.9818Z" fill="#263238"/>
<path d="M64.8715 18.2252C64.697 18.4467 64.0225 18.2097 63.209 18.1927C62.3962 18.1467 61.7058 18.3304 61.549 18.0959C61.4803 17.9821 61.5904 17.7594 61.8932 17.5506C62.1914 17.3428 62.6888 17.1748 63.2477 17.1962C63.8063 17.2184 64.2891 17.4244 64.5702 17.6549C64.856 17.8865 64.9488 18.117 64.8715 18.2252Z" fill="#263238"/>
<path d="M43.1307 22.5085C43.1307 22.5085 43.4084 23.9857 43.483 24.6528C43.5102 24.8963 43.4783 27.6039 44.1359 27.7391C44.7016 27.8553 45.8259 27.3404 46.3264 26.2207C46.8268 25.101 47.7792 22.4144 47.6762 21.1924C47.5358 19.5259 47.4581 17.8327 47.7909 16.1938C48.124 14.5548 48.9075 12.9563 50.2248 11.926C51.5421 10.8957 53.4412 10.5348 54.9361 11.2848C55.8587 11.7479 56.5491 12.5675 57.4086 13.1388C58.1819 13.6525 59.1256 13.9609 60.0439 13.8245C60.9622 13.6884 61.8301 13.0485 62.0806 12.1546C62.3544 11.1794 61.8518 10.1114 61.0714 9.46553C60.291 8.81971 59.2824 8.5234 58.2889 8.32606C55.5333 7.7786 52.612 7.88747 49.9935 8.90539C47.3749 9.92299 45.0514 11.8775 43.9321 14.4546C42.6386 17.4334 42.7892 19.2605 43.1307 22.5085Z" fill="#263238"/>
<path d="M57.7351 23.0537C57.7103 23.0558 57.7379 22.6664 57.569 22.0011C57.402 21.3488 56.9668 20.3893 55.9857 19.6476C55.4997 19.2851 54.8876 18.9777 54.1821 18.8543C53.4816 18.7355 52.691 18.7587 51.9394 19.0454C51.5608 19.1772 51.1958 19.3764 50.8608 19.6275C50.5218 19.8737 50.2138 20.1796 49.9602 20.5338C49.4359 21.2319 49.1405 22.1285 49.1318 23.053C49.1402 23.9775 49.4356 24.8748 49.9598 25.5732C50.2135 25.9277 50.5215 26.2333 50.8605 26.4798C51.1958 26.731 51.5608 26.9301 51.9394 27.0622C52.6913 27.3492 53.4819 27.3721 54.1824 27.2534C54.8879 27.1299 55.5001 26.8222 55.986 26.46C56.9671 25.718 57.402 24.7588 57.569 24.1065C57.7379 23.4406 57.7103 23.0512 57.7351 23.0537C57.7379 23.0537 57.7394 23.0775 57.7397 23.1242C57.7391 23.1805 57.7382 23.2485 57.7372 23.3314C57.7375 23.423 57.7329 23.5356 57.7109 23.6676C57.6936 23.8 57.6769 23.9537 57.6296 24.1214C57.4787 24.7873 57.0527 25.7764 56.0549 26.5503C55.5607 26.9283 54.9334 27.2515 54.2069 27.3845C53.4853 27.5132 52.6687 27.4943 51.8886 27.2017C51.4961 27.0669 51.1173 26.8624 50.769 26.6035C50.4167 26.3493 50.0969 26.0335 49.8327 25.6666C49.2874 24.9441 48.9787 24.0122 48.9707 23.053C48.9791 22.0942 49.2877 21.1626 49.833 20.4404C50.0972 20.0739 50.417 19.7581 50.7693 19.5038C51.1176 19.2449 51.4965 19.0405 51.889 18.9056C52.669 18.613 53.4853 18.5942 54.2069 18.7228C54.9334 18.8558 55.5607 19.1791 56.0549 19.557C57.0531 20.3309 57.479 21.3197 57.6299 21.986C57.6772 22.1536 57.6936 22.3073 57.7113 22.4397C57.7332 22.5718 57.7378 22.6844 57.7375 22.7759C57.7385 22.8588 57.7394 22.9269 57.74 22.9831C57.7394 23.0299 57.7379 23.0537 57.7351 23.0537Z" fill="#263238"/>
<path d="M68.9837 23.0542C68.959 23.0563 68.9865 22.6669 68.8176 22.0016C68.6506 21.3493 68.2154 20.3898 67.2343 19.6481C66.7484 19.2856 66.1363 18.9782 65.4308 18.8548C64.7302 18.736 63.94 18.7592 63.188 19.0459C62.8095 19.1777 62.4445 19.3769 62.1095 19.628C61.7702 19.8742 61.4625 20.1801 61.2088 20.5343C60.6846 21.2324 60.3892 22.129 60.3805 23.0535C60.3889 23.978 60.6843 24.8753 61.2085 25.5737C61.4621 25.9282 61.7702 26.2338 62.1092 26.4803C62.4445 26.7314 62.8095 26.9306 63.188 27.0627C63.94 27.3497 64.7305 27.3726 65.4311 27.2538C66.1366 27.1304 66.7487 26.8227 67.2346 26.4605C68.2157 25.7185 68.6506 24.7593 68.8176 24.107C68.9865 23.4411 68.959 23.0517 68.9837 23.0542C68.9865 23.0542 68.9881 23.078 68.9884 23.1247C68.9878 23.181 68.9868 23.249 68.9859 23.3319C68.9862 23.4235 68.9816 23.5361 68.9596 23.6681C68.9423 23.8005 68.9256 23.9542 68.8783 24.1219C68.7273 24.7878 68.3014 25.7769 67.3033 26.5508C66.809 26.9288 66.1818 27.252 65.4552 27.385C64.7336 27.5137 63.9171 27.4948 63.137 27.2022C62.7445 27.0673 62.3656 26.8629 62.0173 26.604C61.665 26.3498 61.3449 26.034 61.0808 25.6671C60.5355 24.9446 60.2268 24.0127 60.2188 23.0535C60.2271 22.0947 60.5358 21.1631 61.0811 20.4409C61.3452 20.0743 61.665 19.7586 62.0173 19.5043C62.3656 19.2454 62.7445 19.041 63.137 18.9061C63.9171 18.6135 64.7333 18.5946 65.4549 18.7233C66.1815 18.8563 66.8087 19.1795 67.303 19.5575C68.3011 20.3314 68.727 21.3202 68.878 21.9864C68.9253 22.1541 68.9417 22.3078 68.9593 22.4402C68.9813 22.5723 68.9859 22.6848 68.9856 22.7764C68.9865 22.8593 68.9874 22.9273 68.9881 22.9836C68.9881 23.0303 68.9865 23.0542 68.9837 23.0542Z" fill="#263238"/>
<path d="M60.3985 22.5907C60.3846 22.6126 60.2414 22.5328 59.9973 22.4521C59.7542 22.3701 59.4026 22.3018 59.0131 22.3268C58.6237 22.3537 58.2844 22.4682 58.054 22.5817C57.8229 22.6943 57.6918 22.792 57.6748 22.7722C57.6624 22.7589 57.7694 22.6275 57.9989 22.4821C58.2266 22.3364 58.586 22.1948 59.0023 22.1663C59.4186 22.1394 59.7938 22.2322 60.0385 22.3463C60.2856 22.4595 60.4093 22.5758 60.3985 22.5907Z" fill="#263238"/>
<path d="M62.1434 11.8113C62.2062 11.4797 62.097 11.2939 62.2835 11.1584C62.4966 11.0034 62.899 11.4102 63.0466 11.5719C63.0936 11.6236 63.2439 11.4216 63.3021 11.3829C63.3491 11.3517 63.4211 11.0152 63.4143 10.9589C63.3868 10.7281 63.0237 10.6657 62.853 10.5082C62.6822 10.3508 62.47 10.2435 62.2507 10.1665C62.0593 10.0993 61.8224 10.0622 61.6739 10.2005C61.5604 10.3059 61.5409 10.4776 61.5455 10.6329C61.5499 10.7866 61.5709 10.9422 61.6328 11.0829C61.6943 11.2236 61.8001 11.3495 61.9402 11.4126" fill="#263238"/>
<path d="M42.8907 19.1132C42.8907 19.1132 46.023 20.262 47.6539 20.9526L47.5617 19.3505L43.0039 17.5479C43.0039 17.5479 42.8882 18.7383 42.8907 19.1132Z" fill="#EBEBEB"/>
<path d="M43.1838 16.6236C43.2011 16.5825 44.194 16.9636 45.4015 17.4739C46.6093 17.9846 47.574 18.4318 47.5567 18.4726C47.5394 18.5135 46.5466 18.133 45.3387 17.6221C44.1312 17.1117 43.1665 16.6648 43.1838 16.6236Z" fill="#EBEBEB"/>
<path d="M44.1267 50.3755L43.8845 42.793C43.8845 42.793 45.3908 49.7325 53.2808 49.6418C60.8213 49.5552 60.6833 43.5282 60.6833 43.5282L60.9524 46.5844V58.9301L56.0342 79.0697L49.7538 79.8664L42.8125 52.3361L44.1267 50.3755Z" fill="#FE7A36"/>
<path d="M59.9842 47.949C59.9888 47.9521 59.9576 48.0075 59.8933 48.1105C59.8243 48.2101 59.7423 48.3725 59.5945 48.5503C59.3226 48.924 58.8599 49.4204 58.1899 49.9097C57.5225 50.4021 56.6246 50.85 55.5665 51.1416C54.5083 51.4293 53.2863 51.5425 52.0271 51.3866C50.771 51.2177 49.6143 50.8333 48.6273 50.3634C47.6372 49.8955 46.8067 49.3585 46.1442 48.867C45.4808 48.3753 44.9766 47.9367 44.6404 47.6215C44.4697 47.4668 44.3456 47.3372 44.2593 47.2522C44.174 47.1659 44.1313 47.1186 44.135 47.1145C44.1387 47.1105 44.1891 47.1498 44.2816 47.2284C44.3865 47.319 44.5191 47.4334 44.6824 47.5745C45.0304 47.8745 45.5439 48.2979 46.2113 48.7749C46.8782 49.2515 47.7077 49.7739 48.6904 50.2292C49.6699 50.6867 50.8116 51.0609 52.0478 51.227C53.2841 51.3801 54.4854 51.2737 55.5281 50.9984C56.5708 50.7191 57.4588 50.2898 58.1241 49.8169C58.7918 49.3468 59.2611 48.8698 59.5453 48.5117C59.8323 48.1553 59.97 47.9398 59.9842 47.949Z" fill="#263238"/>
<path d="M54.506 112.675L54.3921 76.8864L44.2291 50.7671L43.8876 42.9062L37.6951 47.59C37.6951 47.59 28.6784 78.6213 28.5392 77.5455C28.4003 76.4698 28.5358 112.675 28.5358 112.675H54.506Z" fill="#EBEBEB"/>
<path d="M37.7871 52.7012L39.0438 53.6529L38.1604 59.4424L52.9958 74.9814L39.5214 57.2881L40.6698 52.7012H37.7871Z" fill="#E0E0E0"/>
<path d="M55.0621 94.3414L32.2954 87.666L31.5413 70.373L37.7855 47.5898C37.7855 47.5898 22.9007 55.0155 21.8883 59.7411C20.8757 64.4663 18.4337 75.954 18.1736 84.2569C17.941 91.6807 17.9073 96.6441 19.6023 99.0137C24.4571 105.8 56.4512 107.012 69.2334 99.0041" fill="#EBEBEB"/>
<path d="M53.2793 75.3579C53.2771 75.3594 53.2521 75.3313 53.2054 75.2744C53.1544 75.2103 53.0866 75.1262 53.0009 75.0192C52.8181 74.785 52.5586 74.4528 52.2277 74.0288C51.5559 73.1566 50.5936 71.9079 49.4075 70.3679C47.0336 67.2607 43.7634 62.9802 40.1513 58.2526C39.9175 57.9454 39.6852 57.6402 39.4548 57.338L39.4313 57.307L39.4406 57.2696C39.8383 55.6851 40.224 54.1488 40.5918 52.6836L40.6669 52.7798C39.6716 52.7786 38.7094 52.777 37.7846 52.7758H37.7109L37.7112 52.7022C37.7156 50.8293 37.7196 49.1118 37.7233 47.5903V47.5597L37.7474 47.5415C39.6249 46.1147 41.1541 44.9526 42.2221 44.141C42.7485 43.7457 43.1611 43.4361 43.4503 43.2193C43.5864 43.1194 43.6934 43.0411 43.7732 42.9827C43.8465 42.9301 43.8852 42.9044 43.8871 42.9069C43.8889 42.9094 43.854 42.94 43.7844 42.9972C43.7074 43.0591 43.6041 43.1423 43.4723 43.2477C43.188 43.4708 42.7822 43.7893 42.2642 44.1958C41.2039 45.0176 39.6861 46.1942 37.8223 47.6389L37.8464 47.59C37.8501 49.1115 37.8542 50.829 37.8585 52.7019L37.7849 52.6282C38.71 52.627 39.6722 52.6258 40.6672 52.6242H40.7665L40.7424 52.7207C40.3765 54.1865 39.9927 55.7231 39.5971 57.3083L39.5831 57.2402C39.8136 57.5424 40.0459 57.8477 40.2797 58.1548C43.8769 62.894 47.1338 67.1843 49.4981 70.2989C50.6673 71.8519 51.6153 73.1114 52.2775 73.9911C52.5982 74.4232 52.8497 74.7615 53.0266 75C53.107 75.111 53.1701 75.1986 53.2184 75.2648C53.2608 75.3245 53.2815 75.3563 53.2793 75.3579Z" fill="#263238"/>
<path d="M63.4304 46.2428C61.6141 43.0672 60.6726 43.3975 60.6726 43.3975L60.7673 44.5292L60.7691 46.9081L59.9087 57.1128L54.3926 79.2873L54.5064 112.674H75.3564L77.9518 71.9191L77.7158 54.3619L63.4304 46.2428Z" fill="#EBEBEB"/>
<path d="M54.3929 75.9537C54.3904 75.9528 54.4013 75.9191 54.4251 75.8544C54.4529 75.7824 54.4891 75.688 54.5349 75.5696C54.6385 75.3107 54.7845 74.9454 54.971 74.4799C55.3604 73.5266 55.9168 72.1635 56.6029 70.4834C57.2985 68.7956 58.1249 66.7901 59.0423 64.5643C59.2737 64.0101 59.5026 63.4313 59.789 62.8659C60.064 62.295 60.3884 61.7358 60.7231 61.17C61.4091 60.0485 62.1867 58.9298 63.0388 57.828C63.4595 57.2852 63.8835 56.7569 64.3218 56.2503L64.3076 56.3326C63.9983 55.546 63.6952 54.7746 63.3992 54.0221L63.3692 53.9454L63.4471 53.9188C64.7777 53.4666 66.0511 53.0336 67.2478 52.6268L67.2088 52.7332C65.4455 49.7893 63.9553 47.301 62.8996 45.5386C62.3782 44.6657 61.9328 43.9683 61.4601 43.6818C61.2282 43.538 61.0212 43.482 60.8836 43.4483C60.745 43.4149 60.6721 43.4022 60.6727 43.397C60.6727 43.397 60.7472 43.3988 60.8886 43.4251C61.0287 43.4514 61.2415 43.5006 61.484 43.6422C61.7283 43.7817 61.9745 44.0317 62.2148 44.3512C62.4552 44.6719 62.7113 45.052 62.9726 45.4913C64.041 47.2468 65.5491 49.7259 67.3338 52.659L67.3805 52.736L67.2945 52.7654C66.0987 53.1755 64.8269 53.612 63.4972 54.0679L63.5448 53.9649C63.8418 54.7171 64.1458 55.4879 64.4564 56.2741L64.474 56.3193L64.4418 56.3564C64.0082 56.8581 63.5844 57.3864 63.1659 57.9267C62.3169 59.0244 61.5418 60.1379 60.8576 61.252C60.5242 61.8137 60.2004 62.3692 59.9266 62.9343C59.6415 63.4938 59.4138 64.0645 59.1794 64.6206C58.2499 66.8417 57.4126 68.8426 56.708 70.527C56.0019 72.1991 55.4294 73.5554 55.0288 74.504C54.8306 74.9649 54.675 75.3262 54.5649 75.5823C54.5129 75.6986 54.4718 75.7904 54.4406 75.8612C54.4115 75.9234 54.3954 75.9546 54.3929 75.9537Z" fill="#263238"/>
<path d="M64.3383 46.7027C64.3408 46.6977 64.3758 46.7107 64.4401 46.7401C64.5044 46.7695 64.5991 46.814 64.7151 46.8821C64.9489 47.0142 65.2786 47.2266 65.6417 47.5449C66.372 48.1666 67.2244 49.2671 67.6327 50.6948C68.0602 52.0957 68.2912 53.4096 68.3908 54.3619C68.4443 54.8382 68.4734 55.2246 68.4913 55.4918C68.5071 55.759 68.5105 55.9075 68.4994 55.9084C68.4882 55.9094 68.4638 55.7631 68.4288 55.498C68.3889 55.2017 68.3382 54.8256 68.2779 54.3765C68.1492 53.43 67.9037 52.1349 67.4784 50.7406C67.0787 49.3444 66.2644 48.2631 65.5656 47.6297C64.8663 46.9848 64.3201 46.7318 64.3383 46.7027Z" fill="#263238"/>
</g>
<circle cx="81" cy="27" r="27" fill="white"/>
<circle cx="81" cy="27" r="26.5" stroke="#FE7A36" stroke-opacity="0.5"/>
<mask id="mask2_508_2422" style="mask-type:alpha" maskUnits="userSpaceOnUse" x="54" y="0" width="54" height="54">
<circle cx="81" cy="27" r="27" fill="white"/>
<circle cx="81" cy="27" r="26.5" stroke="#FE7A36" stroke-opacity="0.5"/>
</mask>
<g mask="url(#mask2_508_2422)">
<path d="M91.0134 17.5669C91.0407 16.6182 90.1631 15.8851 89.2799 15.5375C88.3968 15.1899 87.4149 15.059 86.6276 14.5288C85.9304 14.0595 85.4619 13.3276 84.8716 12.7293C83.4239 11.2618 81.1633 10.6533 79.1744 11.1958C77.1856 11.7383 75.5473 13.4104 75.0453 15.41C74.7061 16.7613 74.9377 18.3589 76.0027 19.2569C77.239 20.2991 79.0716 20.0675 80.6556 19.7434C82.2397 19.4194 84.0324 19.0996 85.3549 20.0296C86.1525 20.5907 86.6097 21.5031 87.0971 22.3477C87.5846 23.1921 88.1966 24.0544 89.1186 24.372C90.0405 24.6893 91.2924 24.1413 91.3284 23.1669" fill="#263238"/>
<path d="M90.9526 18.0876C90.8483 18.8828 91.4237 19.5948 91.9965 20.1563C92.5693 20.7178 93.2166 21.3133 93.3177 22.1089C93.4357 23.0382 92.7573 23.9537 92.9542 24.8695C93.0792 25.4511 93.5314 25.8989 93.8056 26.4266C94.1906 27.1676 94.2105 28.0638 93.9744 28.8647C93.7383 29.6655 93.3619 31.4541 92.8052 32.0766C91.2656 33.7977 88.8144 35.2831 86.5639 35.8001C84.3133 36.3172 81.9757 36.3203 79.6709 36.1785C77.784 36.0624 75.6141 36.1491 74.0418 33.5533C73.2274 32.2088 72.824 30.4213 72.3913 28.9102C72.0186 27.609 71.6963 26.2158 72.0837 24.919C72.3094 24.1634 72.7641 23.4917 72.9865 22.7353C73.2647 21.7902 73.1632 20.7796 73.2751 19.8008C73.5173 17.6821 74.8324 15.7138 76.697 14.679C78.5618 13.6442 80.9276 13.5695 82.8538 14.4849" fill="#263238"/>
<path d="M74.1777 21.3481C74.3544 18.6404 76.1558 15.3217 78.8537 15.6131L87.2746 17.7615C88.0942 17.85 88.7097 18.5509 88.6916 19.375L87.7451 39.6907C87.7651 39.6951 87.7834 39.6992 87.8034 39.7036C87.8034 39.7036 85.8842 45.4337 80.3156 43.6833C79.2114 43.3361 78.7074 42.1284 78.4885 40.886L78.4314 40.8932C78.4292 40.7456 78.4275 40.6083 78.4255 40.4676C78.2419 39.0338 78.3924 37.6778 78.3924 37.6778C78.3768 36.0375 78.3785 35.3648 78.3774 35.3802C78.3774 35.3802 74.9189 34.798 74.2122 30.2826C73.8606 28.037 73.9815 24.3564 74.1777 21.3481Z" fill="#FFBE9D"/>
<path d="M75.5297 24.0657C75.5181 24.3715 75.7675 24.6333 76.0866 24.6511C76.405 24.669 76.6729 24.4364 76.6845 24.1306C76.696 23.825 76.4466 23.5628 76.1282 23.5449C75.8091 23.5269 75.541 23.7599 75.5297 24.0657Z" fill="#263238"/>
<path d="M74.9799 23.2631C75.0515 23.3387 75.4908 23.0152 76.1137 23.0181C76.736 23.0122 77.1925 23.3337 77.2603 23.2574C77.2936 23.2237 77.2206 23.0873 77.022 22.9418C76.8264 22.797 76.4923 22.6561 76.1044 22.6567C75.7163 22.658 75.3895 22.8003 75.2016 22.946C75.0097 23.0928 74.9446 23.2291 74.9799 23.2631Z" fill="#263238"/>
<path d="M81.6547 24.0683C81.6431 24.3741 81.8925 24.6357 82.2116 24.6536C82.53 24.6712 82.7979 24.4386 82.8095 24.133C82.821 23.8274 82.5716 23.5652 82.253 23.5473C81.9339 23.5295 81.666 23.7628 81.6547 24.0683Z" fill="#263238"/>
<path d="M81.1047 23.3925C81.1766 23.4681 81.6164 23.1446 82.2388 23.1477C82.8611 23.1416 83.3176 23.4631 83.3853 23.3871C83.4185 23.3533 83.3466 23.217 83.1471 23.0715C82.9515 22.9266 82.6176 22.7855 82.2295 22.7861C81.8416 22.7874 81.5149 22.9297 81.3267 23.0754C81.1352 23.2222 81.0697 23.3585 81.1047 23.3925Z" fill="#263238"/>
<path d="M78.8266 28.0075C78.8297 27.9722 78.4424 27.9043 77.8152 27.8226C77.6562 27.8058 77.5057 27.7738 77.4791 27.6654C77.4418 27.5504 77.5087 27.3792 77.5862 27.194C77.7367 26.8094 77.894 26.4063 78.0593 25.9837C78.7164 24.2607 79.1925 22.8434 79.1228 22.8177C79.0531 22.7918 78.464 24.1677 77.8069 25.8907C77.6488 26.3156 77.4974 26.7208 77.3536 27.1082C77.2931 27.2888 77.189 27.4937 77.2698 27.7324C77.3125 27.8514 77.429 27.9378 77.5309 27.9657C77.6329 27.9971 77.7224 27.999 77.801 28.0038C78.4324 28.0393 78.8242 28.043 78.8266 28.0075Z" fill="#263238"/>
<path d="M78.3711 35.3799C78.3711 35.3799 81.4075 35.5824 84.4201 33.7808C84.4201 33.7808 82.8931 36.9021 78.3763 36.4697L78.3711 35.3799Z" fill="#EB996E"/>
<path d="M79.0919 29.508C79.3167 29.2122 79.7096 29.0503 80.0992 29.0933C80.3695 29.1229 80.6424 29.254 80.806 29.4744C80.9698 29.6948 81.0035 30.0074 80.8537 30.2171C80.6851 30.4532 80.3336 30.507 80.0365 30.4218C79.7392 30.3367 79.4839 30.1404 79.2413 29.9449C79.1742 29.8908 79.1056 29.8342 79.0638 29.7602C79.022 29.6863 79.0133 29.5894 79.0653 29.5282" fill="#EB996E"/>
<path d="M80.6571 28.4405C80.5558 28.4344 80.553 29.1107 79.9732 29.5892C79.3945 30.0694 78.6738 29.9919 78.6684 30.0864C78.6588 30.1289 78.8287 30.2182 79.1327 30.2271C79.4311 30.238 79.8671 30.143 80.2219 29.8503C80.5756 29.5567 80.7283 29.1645 80.7521 28.887C80.7784 28.6045 80.7033 28.4368 80.6571 28.4405Z" fill="#263238"/>
<path d="M80.8177 22.3017C80.8787 22.4712 81.5009 22.3923 82.2314 22.4821C82.9641 22.5572 83.5528 22.7724 83.6502 22.6206C83.6935 22.5481 83.5912 22.3884 83.3533 22.224C83.1175 22.0597 82.7409 21.9034 82.3022 21.8535C81.8636 21.8045 81.4617 21.8733 81.1954 21.9809C80.9268 22.0885 80.7913 22.2214 80.8177 22.3017Z" fill="#263238"/>
<path d="M75.2054 21.4608C75.3147 21.6024 75.7442 21.4567 76.2602 21.4508C76.7759 21.427 77.2131 21.5479 77.3139 21.4003C77.3581 21.3284 77.2895 21.1866 77.0989 21.0522C76.911 20.9185 76.5967 20.8085 76.2419 20.8185C75.8873 20.829 75.5798 20.9566 75.4001 21.101C75.2173 21.2461 75.1572 21.3918 75.2054 21.4608Z" fill="#263238"/>
<path d="M90.4269 32.6118C89.1854 32.8621 87.8335 32.4805 86.9059 31.6184C85.9783 30.7562 85.4994 29.4356 85.6583 28.1793C85.7986 27.0707 86.3965 25.9427 86.0121 24.8934C85.5039 23.506 83.5592 23.0793 83.0432 21.6947C82.7433 20.8902 83.0125 19.9488 82.6725 19.1604C82.3528 18.4188 81.5726 17.9919 80.8133 17.7172C80.0541 17.4426 79.2397 17.2531 78.6022 16.7576C77.9647 16.2621 77.567 15.3268 77.9782 14.6318C81.3456 15.0354 84.6647 15.8419 87.842 17.0285C88.5786 17.3036 89.3525 17.6345 89.7881 18.2892C90.249 18.982 90.227 19.8772 90.1882 20.7085C89.9991 24.7616 89.8099 28.8149 89.6208 32.8682" fill="#263238"/>
<path d="M90.1391 34.1646C90.1413 34.1672 90.1659 34.1513 90.2118 34.118C90.2665 34.0764 90.3325 34.026 90.4126 33.9651C90.5871 33.8283 90.8437 33.6251 91.1603 33.3456C91.4751 33.0651 91.8543 32.7086 92.2217 32.2287C92.5854 31.7528 92.9428 31.1325 93.0657 30.3707C93.2003 29.6293 93.1014 28.6962 92.4835 27.9953C92.1792 27.6518 91.7885 27.3948 91.4317 27.0986C91.0689 26.8085 90.7676 26.4398 90.6113 25.9798C90.2774 25.0596 90.4261 23.9941 90.2972 22.9051C90.1543 21.8215 89.7673 20.7029 89.0176 19.7946C88.6432 19.3453 88.1939 18.9567 87.679 18.7006C87.1667 18.4305 86.6118 18.319 86.0993 18.1674C85.5816 18.0246 85.1072 17.8105 84.7132 17.4844C84.3163 17.1653 83.9916 16.7757 83.7069 16.3749C83.14 15.5697 82.7207 14.7113 82.1806 13.9959C81.9116 13.6387 81.6195 13.3133 81.2911 13.0515C80.9626 12.7897 80.6022 12.5969 80.2365 12.4771C79.5081 12.2286 78.7389 12.3107 78.2316 12.6771C77.7307 13.058 77.5473 13.6071 77.5196 14.0283C77.4985 14.4624 77.6453 14.7878 77.7912 14.9581C77.8627 15.0461 77.9263 15.103 77.9753 15.1343C78.0212 15.1689 78.0452 15.1848 78.0471 15.182C78.0491 15.1792 78.0288 15.1576 77.9881 15.1186C77.9441 15.0827 77.8868 15.0226 77.823 14.9337C77.6921 14.7617 77.5651 14.4474 77.5965 14.0335C77.6335 13.6315 77.8245 13.1114 78.2961 12.7672C78.7724 12.436 79.4988 12.3641 80.1916 12.6102C80.5394 12.7287 80.8834 12.9175 81.1948 13.1708C81.5074 13.4246 81.7885 13.7428 82.0484 14.0941C82.5718 14.798 82.9827 15.654 83.5575 16.4806C83.8461 16.8909 84.1789 17.2954 84.594 17.6321C85.0042 17.9758 85.5193 18.209 86.0444 18.3541C86.5676 18.5094 87.1068 18.6202 87.5888 18.8764C88.0776 19.1199 88.5053 19.4904 88.8645 19.921C89.5841 20.7913 89.9635 21.8773 90.1044 22.9292C90.2358 23.9819 90.0835 25.0635 90.4396 26.0425C90.6063 26.5312 90.9456 26.9396 91.3204 27.2332C91.6903 27.5353 92.0734 27.7851 92.3607 28.1053C92.94 28.7502 93.0487 29.6308 92.9269 30.3482C92.8174 31.0835 92.4818 31.6879 92.1324 32.1625C91.7802 32.6395 91.4128 33.0013 91.1079 33.2888C90.801 33.5752 90.5527 33.7878 90.3865 33.9346C90.2207 34.0805 90.1347 34.1591 90.1391 34.1646Z" fill="#455A64"/>
<path d="M76.0467 40.0123L78.666 38.0277L88.5337 37.397L88.9307 38.7203L85.721 58.7501L88.2529 82.6469H74.4863L76.0467 40.0123Z" fill="#FE7A36"/>
<path d="M78.1828 40.4163L77.8776 37.5523C77.8238 37.0478 78.1937 36.5974 78.6987 36.5517L87.7831 35.7308C88.029 35.7086 88.2428 35.898 88.2502 36.145L88.3526 39.5525L85.7222 44.0164L83.0182 44.8769H79.7122L77.8105 42.8462L78.1828 40.4163Z" fill="#FE7A36"/>
<path d="M87.0104 38.4596C87.0086 38.469 86.8801 38.4461 86.6471 38.4224C86.414 38.3999 86.0749 38.381 85.6569 38.4056C85.2392 38.4295 84.7446 38.4988 84.2025 38.6149C83.6599 38.7288 83.0701 38.8887 82.4454 39.0405C81.8208 39.1921 81.2166 39.3158 80.6568 39.3589C80.098 39.404 79.5864 39.3637 79.1741 39.2587C78.76 39.1577 78.4486 39.0002 78.2488 38.8741C78.1491 38.8098 78.0755 38.7545 78.0278 38.7144C77.9803 38.6739 77.9568 38.6513 77.9592 38.6482C77.9652 38.6404 78.0678 38.7212 78.2713 38.8362C78.4751 38.9488 78.7848 39.0917 79.1923 39.1807C79.5983 39.2735 80.0984 39.3049 80.6481 39.2548C81.1985 39.2067 81.7962 39.0814 82.4187 38.9303C83.0413 38.7789 83.6336 38.6216 84.1813 38.5125C84.7284 38.401 85.23 38.3394 85.6532 38.3254C86.0764 38.3108 86.4192 38.3422 86.6525 38.3786C86.7692 38.3977 86.8592 38.4152 86.9195 38.4311C86.9799 38.4461 87.011 38.4559 87.0104 38.4596Z" fill="#263238"/>
<g opacity="0.3">
<path d="M78.3982 38.9098C78.1551 39.5785 78.1479 40.4068 78.6414 40.9193C79.0437 41.337 79.6895 41.4415 80.2582 41.3281C80.8269 41.2146 81.3389 40.9153 81.8372 40.6187C83.0879 39.8745 84.3585 39.1039 85.779 38.7883C85.8703 38.768 85.9672 38.7469 86.0343 38.6818C86.1014 38.6167 86.1181 38.491 86.0426 38.4359C86.0092 38.4117 85.9661 38.4063 85.925 38.4021C84.6685 38.2762 83.4211 38.6312 82.1892 38.9081C80.9571 39.1847 79.6416 39.3805 78.4539 38.9518" fill="black"/>
</g>
<path d="M80.1335 36.4593C80.1427 36.4756 79.9569 36.5194 79.8227 36.7563C79.6794 36.9866 79.687 37.3775 79.6986 37.8C79.7219 38.6477 79.8619 39.3255 79.8288 39.3323C79.8142 39.3356 79.7607 39.1698 79.7058 38.8943C79.6507 38.619 79.5982 38.2328 79.5853 37.8035C79.5805 37.5888 79.5784 37.3856 79.5977 37.1963C79.6173 37.0079 79.6709 36.8361 79.7548 36.7141C79.8369 36.5915 79.9364 36.5183 80.0111 36.486C80.0858 36.4527 80.1322 36.4532 80.1335 36.4593Z" fill="#263238"/>
<path d="M82.5356 38.9498C82.5001 38.9463 82.5814 38.3216 82.4705 37.5632C82.3662 36.8035 82.1144 36.2264 82.1475 36.2131C82.1604 36.2072 82.2401 36.3442 82.3333 36.582C82.4267 36.8194 82.5276 37.1603 82.5829 37.5473C82.6373 37.9344 82.6354 38.2898 82.6116 38.5438C82.5879 38.7982 82.5496 38.9517 82.5356 38.9498Z" fill="#263238"/>
<path d="M85.4597 35.9729C85.471 35.9668 85.5538 36.0879 85.6329 36.31C85.7121 36.5311 85.7751 36.8574 85.7518 37.2185C85.7272 37.5796 85.6215 37.8948 85.5135 38.1034C85.4059 38.3132 85.3077 38.4223 85.2972 38.4147C85.2641 38.399 85.598 37.9107 85.6385 37.2111C85.6912 36.5122 85.4251 35.984 85.4597 35.9729Z" fill="#263238"/>
<path d="M72.7221 41.3003C72.7221 41.3003 69.6254 43.3746 68.8116 47.1208C68.172 50.0657 66.4195 65.6201 66.4195 65.6201L63.3516 71.594L65.3549 76.3593C67.0712 76.4808 68.7753 75.9933 70.1677 74.9832L71.5159 74.005L73.9879 70.3375L72.7221 41.3003Z" fill="#EBEBEB"/>
<path d="M77.9717 38.5537L72.721 41.3006L71.4821 45.3724L70.3776 57.1749L72.4566 71.0117L68.8105 82.6046L75.0983 82.6515L75.2475 75.8554L75.8754 53.8578L76.4922 39.8451L77.9717 38.5537Z" fill="#EBEBEB"/>
<path d="M75.4287 56.8909C75.4252 56.8928 75.3919 56.8364 75.3312 56.7271C75.2667 56.6082 75.1798 56.4476 75.07 56.2455C74.9613 56.0338 74.8559 55.762 74.7196 55.4525C74.6549 55.2963 74.602 55.1232 74.537 54.9429C74.4743 54.7616 74.404 54.5713 74.3515 54.3648C73.8571 52.735 73.5302 50.3806 73.599 47.7839C73.6057 47.5829 73.6136 47.3838 73.6273 47.1858L73.6297 47.1514L73.6617 47.1379C73.974 47.0068 74.2807 46.8779 74.5806 46.7518L74.5673 46.8469C74.2517 46.5932 73.9451 46.3469 73.6497 46.1095L73.6306 46.094L73.6295 46.0713C73.5866 45.0928 73.8244 44.2126 74.0476 43.4459C74.2787 42.6778 74.5318 42.0159 74.7531 41.472C74.9755 40.9284 75.1685 40.5028 75.3065 40.214C75.3756 40.0696 75.43 39.9587 75.4688 39.8847C75.5071 39.8106 75.5291 39.7729 75.5318 39.7745C75.5346 39.776 75.5185 39.8161 75.4856 39.8927C75.4488 39.9777 75.4004 40.0892 75.3396 40.229C75.2122 40.5224 75.0293 40.9515 74.8161 41.4973C74.6041 42.0433 74.3595 42.7061 74.1363 43.4721C73.9202 44.2351 73.6915 45.1145 73.7375 46.0626L73.7175 46.0247C74.0137 46.2613 74.321 46.5069 74.6372 46.7596L74.7106 46.8182L74.624 46.8548C74.3243 46.9813 74.0176 47.1105 73.7055 47.2422L73.7399 47.1945C73.7266 47.3888 73.719 47.5877 73.7122 47.7874C73.6438 50.3721 73.9566 52.7165 74.4284 54.3426C74.4782 54.5486 74.5455 54.7388 74.6052 54.9198C74.6671 55.1001 74.717 55.2733 74.7786 55.4299C74.9086 55.7398 75.0075 56.0131 75.1097 56.2266C75.2109 56.4322 75.2913 56.5953 75.351 56.7162C75.4052 56.8288 75.4322 56.8891 75.4287 56.8909Z" fill="#263238"/>
<path d="M71.3091 65.1555C71.3051 65.1564 71.2879 65.0976 71.2583 64.9847C71.2274 64.8615 71.1862 64.6966 71.1344 64.4897C71.0802 64.2747 71.0176 64.0107 70.9571 63.7017C70.895 63.393 70.816 63.0428 70.7539 62.6512C70.6851 62.2607 70.6121 61.8325 70.5533 61.3699C70.4832 60.9088 70.4352 60.4126 70.3795 59.8912C70.2852 58.8469 70.2218 57.6945 70.2207 56.4837C70.2264 55.2727 70.2939 54.1203 70.3921 53.076C70.4498 52.5548 70.4997 52.0588 70.5716 51.5977C70.6321 51.1353 70.7068 50.7074 70.777 50.3171C70.8406 49.9257 70.9209 49.5759 70.9841 49.2675C71.0457 48.9586 71.1091 48.6949 71.1642 48.4801C71.2169 48.2734 71.2587 48.1088 71.2901 47.9855C71.3202 47.8727 71.3376 47.8141 71.3415 47.815C71.3452 47.8158 71.3352 47.8764 71.3123 47.9909C71.2862 48.1153 71.2511 48.2813 71.2073 48.4899C71.159 48.706 71.1019 48.9706 71.0462 49.2801C70.9891 49.5892 70.9144 49.9394 70.856 50.3308C70.7911 50.7211 70.7212 51.1486 70.6648 51.6106C70.5971 52.0708 70.5509 52.5659 70.4962 53.086C70.4041 54.1277 70.3396 55.2766 70.3342 56.4839C70.3353 57.6908 70.3954 58.8397 70.4836 59.8816C70.5363 60.4017 70.5807 60.8968 70.6467 61.3575C70.7014 61.8194 70.7698 62.2474 70.8332 62.6379C70.89 63.0295 70.9634 63.38 71.0194 63.6895C71.0738 63.9992 71.13 64.264 71.1775 64.4803C71.2206 64.6892 71.255 64.8554 71.2807 64.9797C71.3027 65.0939 71.3128 65.1544 71.3091 65.1555Z" fill="#263238"/>
<path d="M96.8559 40.9641C99.0988 41.8327 100.763 43.7582 101.295 46.104C103.012 53.6759 105.951 63.7475 105.997 66.9969C106.056 71.1353 104.247 73.9683 101.884 74.4906C100.016 74.9035 83.0829 73.9768 83.0829 73.9768L82.291 67.6677L96.0032 65.6491L94.1255 55.1576L95.9838 40.6265L96.8559 40.9641Z" fill="#EBEBEB"/>
<path d="M95.9863 40.6264L92.195 39.0772L88.1979 36.7354L88.1729 37.4203C88.662 38.2584 88.8311 39.2457 88.6483 40.1988L85.3223 57.5507L86.0769 70.2279L87.6247 82.6515H99.6499L94.128 69.6588L96.0771 52.151L95.9863 40.6264Z" fill="#EBEBEB"/>
<path d="M89.9396 37.9575C89.9413 37.9571 89.9463 37.9715 89.9548 37.9998C89.9644 38.0342 89.9757 38.0758 89.9899 38.1265C90.0175 38.2387 90.0665 38.4032 90.1114 38.6199C90.209 39.0515 90.3225 39.6867 90.4009 40.4873C90.4801 41.2875 90.5139 42.2537 90.473 43.3364C90.4359 44.4193 90.3211 45.6174 90.1578 46.8863L90.1526 46.9266L90.1125 46.934C89.7174 47.0072 89.2986 47.085 88.8732 47.1638L88.9155 47.0874C88.9858 47.2777 89.0594 47.4824 89.1158 47.6942C89.519 49.1661 89.3419 50.655 88.9743 51.9004C88.6003 53.1566 88.0297 54.1979 87.518 55.0371C87.0008 55.8765 86.5329 56.5221 86.2114 56.9686C86.0524 57.1844 85.9268 57.3548 85.8353 57.4787C85.7946 57.5316 85.7615 57.5748 85.7349 57.6094C85.7118 57.6386 85.6992 57.6527 85.6974 57.6516C85.6959 57.6505 85.7053 57.634 85.7253 57.6026C85.7495 57.5663 85.7795 57.5212 85.8166 57.4654C85.9037 57.3387 86.0235 57.1642 86.1751 56.9431C86.4852 56.489 86.9426 55.8371 87.4492 54.9955C87.9504 54.1544 88.5095 53.115 88.8736 51.8709C89.2321 50.6367 89.4018 49.168 89.0061 47.7242C88.9505 47.5164 88.8786 47.3156 88.8098 47.129L88.7861 47.0647L88.8521 47.0525C89.2777 46.9741 89.6965 46.897 90.0918 46.8243L90.0465 46.872C90.212 45.6054 90.331 44.4114 90.3745 43.3325C90.422 42.2539 90.3967 41.2919 90.3277 40.4938C90.2595 39.6956 90.1576 39.0611 90.0724 38.6279C90.0339 38.4103 89.9912 38.245 89.9701 38.1313C89.9598 38.0797 89.9515 38.0372 89.9448 38.0024C89.9398 37.973 89.9378 37.958 89.9396 37.9575Z" fill="#263238"/>
<path d="M89.9398 55.7556V52.9874C89.9398 52.9874 89.9757 52.3044 89.4005 52.4481C88.8253 52.5919 88.9331 53.6704 88.9331 53.6704C88.9331 53.6704 88.8253 57.8766 89.0769 57.8407C89.3284 57.8047 89.4251 57.4811 89.4251 57.4811V55.8632L89.9398 55.7556Z" fill="#FE7A36"/>
<path d="M97.8116 42.6056C97.8137 42.6139 97.702 42.6516 97.5014 42.7204C97.3023 42.7938 97.0155 42.9038 96.6788 43.0763C96.0082 43.4174 95.133 44.0368 94.4537 44.9723C94.2814 45.2031 94.1359 45.4449 94.0164 45.6847C93.9055 45.9304 93.8151 46.1761 93.7533 46.4178C93.6219 46.8992 93.5655 47.3489 93.5326 47.7259C93.5004 48.1036 93.4941 48.4111 93.4917 48.6235C93.4895 48.8359 93.4917 48.9537 93.4838 48.9541C93.476 48.9548 93.459 48.8376 93.4475 48.6244C93.4364 48.4114 93.4303 48.1019 93.4527 47.7201C93.4758 47.3389 93.5244 46.8833 93.6524 46.391C93.7125 46.144 93.8029 45.8914 93.916 45.6374C94.0392 45.3867 94.1869 45.1404 94.3622 44.9054C95.0546 43.9516 95.9548 43.3311 96.6433 43.0044C96.9889 42.8387 97.2834 42.7391 97.4879 42.6782C97.6942 42.6222 97.8098 42.5989 97.8116 42.6056Z" fill="#263238"/>
</g>
<circle cx="114" cy="27" r="27" fill="white"/>
<circle cx="114" cy="27" r="26.5" stroke="#FE7A36" stroke-opacity="0.5"/>
<mask id="mask3_508_2422" style="mask-type:alpha" maskUnits="userSpaceOnUse" x="87" y="0" width="54" height="54">
<circle cx="114" cy="27" r="27" fill="white"/>
<circle cx="114" cy="27" r="26.5" stroke="#FE7A36" stroke-opacity="0.5"/>
</mask>
<g mask="url(#mask3_508_2422)">
<path d="M135.001 75.522C135.001 75.522 143.713 73.4453 144 73.0786L136.835 54.6259C135.834 52.0477 134.146 49.762 131.87 48.1903C130.831 47.4726 129.693 46.8941 128.48 46.4816C123.824 44.8985 120.018 45.175 120.018 45.175L107.923 44.5332C104.168 44.7535 100.954 45.8558 98.3812 47.1743C94.3041 49.2634 91.1602 52.8095 89.422 57.0482L84 70.5977L97.6804 73.4581L98.2002 88.014L96.1372 108.099H133.916L133.652 76.2632L135.001 75.522Z" fill="#FE7A36"/>
<path d="M102.985 57.6951C102.976 57.7005 102.893 57.587 102.752 57.3781C102.614 57.1673 102.402 56.8699 102.129 56.513C101.858 56.1543 101.51 55.7459 101.103 55.313C100.691 54.8855 100.216 54.4363 99.6841 54.0035C99.1486 53.5748 98.6094 53.2051 98.1043 52.8919C97.5952 52.5856 97.1228 52.3323 96.715 52.1427C96.3083 51.951 95.9731 51.8063 95.738 51.7158C95.504 51.6223 95.3757 51.5655 95.379 51.5553C95.3822 51.5452 95.5171 51.5824 95.7585 51.6592C96.0008 51.7328 96.3447 51.8626 96.7602 52.043C97.1773 52.2213 97.6595 52.4669 98.1778 52.7696C98.6922 53.0789 99.2399 53.4495 99.7811 53.8829C100.319 54.3205 100.796 54.7778 101.207 55.2151C101.612 55.6577 101.954 56.0775 102.216 56.4475C102.481 56.8157 102.68 57.1244 102.803 57.3459C102.929 57.5659 102.994 57.6897 102.985 57.6951Z" fill="#263238"/>
<path d="M130.941 53.863C130.917 53.866 130.864 53.5171 130.747 52.9613C130.63 52.4055 130.437 51.6443 130.146 50.8293C129.853 50.0145 129.518 49.3045 129.254 48.8011C128.992 48.2975 128.811 47.9944 128.832 47.9813C128.841 47.9754 128.896 48.045 128.988 48.1757C129.081 48.3058 129.206 48.5014 129.35 48.7481C129.64 49.2417 129.995 49.9529 130.292 50.7769C130.587 51.6012 130.765 52.3757 130.854 52.9411C130.899 53.2236 130.927 53.4537 130.938 53.6135C130.951 53.7731 130.952 53.8618 130.941 53.863Z" fill="#263238"/>
<g opacity="0.3">
<path d="M122.89 46.2198C122.894 46.2192 122.906 46.2832 122.927 46.4077C122.947 46.5425 122.974 46.725 123.01 46.9569C123.07 47.4386 123.153 48.1438 123.222 49.0386C123.365 50.8277 123.489 53.3702 123.533 56.3724L123.534 56.487L123.432 56.437C121.532 55.5133 119.402 54.5065 117.185 53.3991C112.961 51.2849 109.138 49.3717 106.359 47.9809C104.984 47.2849 103.869 46.7199 103.086 46.3234C102.709 46.1287 102.413 45.9754 102.2 45.8659C102.106 45.8156 102.031 45.7751 101.972 45.7435C101.921 45.7153 101.895 45.6995 101.897 45.6971C101.898 45.6947 101.926 45.7057 101.979 45.7295C102.04 45.7578 102.118 45.7935 102.215 45.8385C102.431 45.9421 102.732 46.0865 103.115 46.2704C103.903 46.6565 105.026 47.2067 106.41 47.8842C109.194 49.2646 113.024 51.1632 117.256 53.2613C119.472 54.3687 121.597 55.3784 123.492 56.3093L123.391 56.3739C123.359 53.3756 123.255 50.8337 123.137 49.0452C123.081 48.1506 123.011 47.4451 122.965 46.9626C122.939 46.7298 122.919 46.5464 122.904 46.4112C122.891 46.2856 122.886 46.2204 122.89 46.2198Z" fill="white"/>
</g>
<path d="M121.225 43.9679C121.239 43.9238 122.043 44.354 122.834 45.5218C123.61 46.6866 124.338 48.4942 124.748 50.5738C124.951 51.6142 125.051 52.6204 125.095 53.5361C125.102 53.9945 125.115 54.43 125.101 54.8373C125.079 55.2442 125.075 55.6238 125.039 55.9682C125.002 56.309 124.968 56.6195 124.939 56.8967C124.9 57.1688 124.855 57.4012 124.821 57.5915C124.75 57.9716 124.701 58.1794 124.68 58.1758C124.659 58.1723 124.668 57.9582 124.701 57.5751C124.72 57.3765 124.742 57.144 124.766 56.8785C124.782 56.6026 124.8 56.2936 124.82 55.9542C124.842 55.6122 124.834 55.2362 124.844 54.834C124.847 54.4315 124.824 54.0017 124.81 53.5498C124.751 52.6472 124.643 51.6577 124.444 50.6337C124.041 48.5892 123.356 46.7992 122.649 45.6409C122.294 45.064 121.924 44.6472 121.657 44.3784C121.388 44.109 121.212 43.9884 121.225 43.9679Z" fill="#263238"/>
<path d="M107.694 44.053C107.723 44.0792 107.474 44.385 107.065 44.9586C106.656 45.5319 106.129 46.4104 105.664 47.5756C105.191 48.7383 104.844 50.2032 104.623 51.8536C104.406 53.5048 104.313 55.3499 104.192 57.2804C104.092 59.2076 104.087 61.0524 104.084 62.7301C104.084 64.407 104.083 65.918 104.082 67.1924C104.073 68.4635 104.05 69.4926 104.012 70.2035C103.975 70.9144 103.933 71.3064 103.902 71.3055C103.869 71.3047 103.85 70.9114 103.831 70.2017C103.812 69.4784 103.786 68.4549 103.753 67.1957C103.722 65.9264 103.679 64.4144 103.656 62.7331C103.635 61.0521 103.626 59.2011 103.728 57.2554C103.849 55.3183 103.954 53.4718 104.198 51.7943C104.446 50.1211 104.835 48.6261 105.359 47.4496C105.876 46.2702 106.46 45.3974 106.92 44.8491C107.381 44.3001 107.676 44.0358 107.694 44.053Z" fill="#263238"/>
<path d="M126.088 20.3137C125.659 14.8628 121.116 10.6553 115.649 10.6443L115.105 10.6431C109.246 10.9732 106.254 16.1336 106.746 21.9813L107.757 45.4243C107.774 45.8179 108.008 46.1694 108.364 46.3367L121.513 52.5075L121.107 40.2041C121.107 40.2041 126.741 39.3399 126.822 33.7095C126.861 30.9902 126.486 25.3839 126.088 20.3137Z" fill="#FFBE9D"/>
<path d="M121.143 40.1951C121.143 40.1951 117.547 40.4041 113.77 38.0205C113.77 38.0205 115.496 42.0765 121.116 41.5808L121.143 40.1951Z" fill="#EB996E"/>
<path d="M124.099 23.8104C124.113 24.2349 123.765 24.5972 123.322 24.6201C122.879 24.6427 122.509 24.318 122.495 23.8935C122.481 23.469 122.828 23.1061 123.271 23.0832C123.714 23.0602 124.085 23.3856 124.099 23.8104Z" fill="#263238"/>
<path d="M124.875 23.0657C124.775 23.1702 124.167 22.7183 123.302 22.7189C122.437 22.707 121.801 23.1509 121.708 23.0446C121.662 22.9976 121.764 22.8085 122.041 22.6079C122.313 22.4081 122.778 22.2141 123.317 22.2173C123.856 22.2215 124.309 22.4206 124.569 22.6243C124.835 22.8291 124.924 23.0187 124.875 23.0657Z" fill="#263238"/>
<path d="M115.589 24.0758C115.603 24.5006 115.255 24.8626 114.812 24.8855C114.37 24.9084 113.999 24.5836 113.985 24.1588C113.971 23.7343 114.319 23.3717 114.761 23.3488C115.204 23.3256 115.575 23.6513 115.589 24.0758Z" fill="#263238"/>
<path d="M116.37 23.2086C116.27 23.3131 115.661 22.8612 114.796 22.8618C113.932 22.8499 113.296 23.2937 113.202 23.1875C113.156 23.1404 113.257 22.9514 113.535 22.7508C113.808 22.5507 114.272 22.3569 114.811 22.3599C115.35 22.3641 115.803 22.5635 116.064 22.7671C116.329 22.9719 116.419 23.1619 116.37 23.2086Z" fill="#263238"/>
<path d="M119.496 29.636C119.492 29.5869 120.03 29.4949 120.902 29.3854C121.123 29.363 121.332 29.3196 121.37 29.1687C121.422 29.0091 121.33 28.7706 121.223 28.5134C121.017 27.9785 120.8 27.4174 120.574 26.8297C119.671 24.4325 119.018 22.4612 119.115 22.4258C119.212 22.3904 120.022 24.3048 120.925 26.702C121.142 27.2932 121.349 27.8567 121.547 28.3959C121.63 28.6471 121.773 28.9323 121.66 29.2633C121.6 29.4282 121.438 29.5479 121.296 29.5857C121.154 29.6286 121.03 29.631 120.921 29.6372C120.043 29.6822 119.499 29.6851 119.496 29.636Z" fill="#263238"/>
<path d="M116.94 30.2262C117.081 30.2184 117.081 31.1576 117.883 31.8259C118.685 32.4963 119.686 32.393 119.693 32.5243C119.706 32.5832 119.47 32.7062 119.047 32.7169C118.633 32.7303 118.028 32.5958 117.536 32.187C117.047 31.7771 116.837 31.2312 116.806 30.846C116.771 30.453 116.876 30.2205 116.94 30.2262Z" fill="#263238"/>
<path d="M116.598 19.8223C116.513 20.0575 115.649 19.9441 114.633 20.0643C113.615 20.1641 112.796 20.4597 112.662 20.2486C112.602 20.1474 112.745 19.9265 113.076 19.6994C113.405 19.4725 113.929 19.2576 114.538 19.1909C115.148 19.1257 115.706 19.2237 116.075 19.3746C116.448 19.5252 116.636 19.7107 116.598 19.8223Z" fill="#263238"/>
<path d="M124.542 20.5633C124.389 20.7595 123.793 20.5544 123.077 20.5434C122.36 20.5071 121.752 20.6726 121.613 20.4669C121.552 20.3671 121.648 20.1704 121.914 19.9849C122.175 19.8001 122.613 19.6494 123.105 19.6652C123.598 19.6819 124.024 19.8608 124.273 20.0626C124.527 20.265 124.609 20.4678 124.542 20.5633Z" fill="#263238"/>
<path d="M107.592 26.1521C107.496 26.1104 103.725 24.9997 103.84 28.8497C103.956 32.6994 107.797 31.7899 107.8 31.6792C107.804 31.5685 107.592 26.1521 107.592 26.1521Z" fill="#FFBE9D"/>
<path d="M106.912 30.2567C106.894 30.2448 106.846 30.3055 106.734 30.3609C106.625 30.4148 106.436 30.4553 106.233 30.3862C105.822 30.249 105.46 29.6137 105.421 28.9204C105.4 28.5703 105.464 28.2345 105.58 27.9547C105.689 27.6695 105.865 27.4674 106.069 27.4248C106.271 27.3716 106.42 27.4897 106.47 27.5969C106.525 27.7029 106.503 27.7806 106.523 27.7865C106.534 27.7958 106.604 27.7195 106.568 27.5615C106.55 27.4856 106.502 27.396 106.409 27.3248C106.315 27.2525 106.178 27.2182 106.036 27.2379C105.739 27.2674 105.48 27.5484 105.353 27.8556C105.209 28.1646 105.129 28.5424 105.152 28.9356C105.2 29.7108 105.619 30.4246 106.18 30.5687C106.453 30.6312 106.676 30.5428 106.791 30.4484C106.907 30.3499 106.925 30.2633 106.912 30.2567Z" fill="#EB996E"/>
<path d="M110.107 14.709L126.161 15.0626C125.662 13.9549 124.77 13.0684 123.803 12.3343C121.716 10.7521 119.152 9.76411 116.533 9.71826C113.915 9.67242 108.586 12.8615 106.689 14.6667C105.171 16.1114 105.181 17.3613 105.181 17.3613C104.94 19.4428 106.105 21.8091 106.568 23.8524C106.807 24.9065 107.268 28.095 107.268 28.095H107.269C108.153 28.092 108.482 27.388 108.347 26.5137L108.182 23.0829C108.182 23.0829 111.19 20.9449 109.765 17.0321C109.536 16.7207 109.048 15.2912 110.107 14.709Z" fill="#263238"/>
<path d="M113.477 26.8837C113.426 26.8938 113.375 26.8563 113.363 26.7998C113.352 26.7432 113.385 26.689 113.437 26.6789C113.488 26.6688 113.539 26.7063 113.55 26.7628C113.562 26.8194 113.529 26.8733 113.477 26.8837Z" fill="#EB996E"/>
<path d="M115.131 26.5132C115.079 26.5233 115.027 26.4792 115.015 26.4143C115.002 26.3494 115.033 26.2887 115.085 26.2783C115.137 26.2682 115.189 26.3122 115.202 26.3771C115.214 26.4423 115.183 26.5031 115.131 26.5132Z" fill="#EB996E"/>
<path d="M116.247 26.4886C116.194 26.4951 116.143 26.4308 116.133 26.3454C116.122 26.2599 116.156 26.1852 116.208 26.1787C116.261 26.1721 116.312 26.2364 116.322 26.3219C116.333 26.4073 116.299 26.482 116.247 26.4886Z" fill="#EB996E"/>
<path d="M114.287 27.9233C114.234 27.9233 114.191 27.8959 114.191 27.862C114.191 27.8284 114.234 27.801 114.287 27.8013C114.34 27.8013 114.382 27.8287 114.382 27.8623C114.382 27.8962 114.339 27.9236 114.287 27.9233Z" fill="#EB996E"/>
<path d="M115.808 27.575C115.755 27.5795 115.709 27.5348 115.704 27.4753C115.699 27.4158 115.737 27.3637 115.79 27.3592C115.842 27.3547 115.889 27.3994 115.894 27.4592C115.899 27.5185 115.86 27.5705 115.808 27.575Z" fill="#EB996E"/>
<path d="M123.703 26.65C123.651 26.6601 123.6 26.6211 123.588 26.5627C123.577 26.5044 123.609 26.4487 123.661 26.4386C123.713 26.4285 123.764 26.4675 123.776 26.5258C123.787 26.5842 123.755 26.6398 123.703 26.65Z" fill="#EB996E"/>
<path d="M124.826 26.5486C124.774 26.5536 124.726 26.5042 124.719 26.4378C124.713 26.3718 124.75 26.314 124.803 26.3089C124.855 26.3039 124.903 26.3536 124.909 26.4197C124.916 26.4861 124.878 26.5438 124.826 26.5486Z" fill="#EB996E"/>
<path d="M122.699 26.6757C122.648 26.6858 122.598 26.6572 122.589 26.6119C122.58 26.5667 122.615 26.5215 122.667 26.5113C122.718 26.5012 122.768 26.5295 122.777 26.575C122.785 26.6203 122.751 26.6655 122.699 26.6757Z" fill="#EB996E"/>
<path d="M123.537 27.8046C123.489 27.8257 123.43 27.7977 123.405 27.7421C123.381 27.6864 123.4 27.6239 123.448 27.6028C123.496 27.5816 123.555 27.6096 123.58 27.6656C123.604 27.7209 123.585 27.7834 123.537 27.8046Z" fill="#EB996E"/>
<path d="M124.501 27.6134C124.45 27.5994 124.418 27.5533 124.43 27.5107C124.442 27.4682 124.493 27.4446 124.544 27.4586C124.595 27.4726 124.626 27.5185 124.614 27.5613C124.602 27.6042 124.552 27.6274 124.501 27.6134Z" fill="#EB996E"/>
<path d="M106.581 14.8872C106.171 13.4812 106.58 11.9151 107.482 10.7616C108.385 9.60805 109.86 8.92664 111.324 8.98648C112.073 9.01714 112.818 9.22969 113.564 9.14812C114.953 8.9963 116.025 7.88296 117.313 7.34206C119.32 6.49932 121.873 7.26526 123.085 9.074C123.574 9.80303 123.894 10.7041 124.642 11.1632C125.289 11.5603 126.104 11.5272 126.831 11.746C128.301 12.1887 129.308 13.7491 129.231 15.2822C129.155 16.8153 128.081 18.2189 126.668 18.8196C125.255 19.4204 123.573 19.2528 122.232 18.5065C121.02 17.8325 119.936 16.6828 118.55 16.7233C117.115 16.7653 115.861 18.1189 114.453 17.8382C113.715 17.6911 113.146 17.1225 112.605 16.5986C112.065 16.0747 111.443 15.5412 110.692 15.4969C109.94 15.4525 109.549 16.4849 109.818 17.188L106.581 14.8872Z" fill="#263238"/>
<path d="M125.847 13.0255C125.849 13.027 125.84 13.0457 125.821 13.0818C125.801 13.1175 125.773 13.1717 125.728 13.2368C125.64 13.3696 125.496 13.5583 125.268 13.7596C125.041 13.9599 124.724 14.1704 124.313 14.3124C123.905 14.4541 123.394 14.5148 122.856 14.3993C122.322 14.2877 121.758 14.0073 121.32 13.5253C120.882 13.0433 120.621 12.3995 120.213 11.8336C120.009 11.5508 119.754 11.2956 119.436 11.1304C119.115 10.9685 118.746 10.8896 118.371 10.8961C117.996 10.9051 117.617 11.0063 117.279 11.1906C116.94 11.3802 116.662 11.6648 116.473 12.019C116.28 12.3715 116.141 12.7588 115.908 13.102C115.685 13.4497 115.295 13.7114 114.88 13.7274C114.466 13.7507 114.084 13.5968 113.759 13.4039C113.429 13.2109 113.155 12.9505 112.907 12.6983C112.411 12.1982 111.923 11.6996 111.315 11.5645C110.714 11.4213 110.125 11.6424 109.703 11.9431C109.272 12.2512 108.995 12.6593 108.817 13.0401C108.639 13.4229 108.545 13.7795 108.486 14.0722C108.426 14.3654 108.398 14.597 108.379 14.7539C108.361 14.9107 108.351 14.9935 108.345 14.9932C108.343 14.9929 108.342 14.9721 108.342 14.9316C108.342 14.8908 108.343 14.8304 108.348 14.7512C108.357 14.5928 108.375 14.3591 108.426 14.0611C108.478 13.7637 108.563 13.4 108.738 13.0041C108.912 12.6117 109.193 12.1819 109.638 11.8547C110.074 11.5362 110.691 11.2915 111.344 11.4394C112.002 11.5817 112.513 12.1042 113.007 12.5971C113.258 12.8487 113.519 13.094 113.835 13.277C114.145 13.4598 114.504 13.5985 114.87 13.5762C115.237 13.5583 115.571 13.3378 115.781 13.0151C115.999 12.6951 116.137 12.3116 116.338 11.9449C116.534 11.5734 116.843 11.2558 117.204 11.0566C117.567 10.8595 117.97 10.7536 118.368 10.7449C118.766 10.739 119.161 10.8238 119.504 10.9994C119.848 11.1792 120.121 11.4567 120.329 11.7502C120.748 12.3405 121 12.9773 121.417 13.4402C121.829 13.9025 122.368 14.1784 122.88 14.2924C123.396 14.4103 123.888 14.36 124.286 14.2305C124.687 14.1007 125.001 13.9031 125.229 13.714C125.686 13.3279 125.829 13.0115 125.847 13.0255Z" fill="#455A64"/>
<path d="M128.755 13.083C128.762 13.0815 128.8 13.1887 128.82 13.3923C128.841 13.595 128.834 13.8963 128.739 14.2523C128.642 14.606 128.453 15.0126 128.137 15.3856C127.823 15.7598 127.38 16.0837 126.868 16.3096C125.83 16.7648 124.776 16.7237 124.067 16.6264C123.708 16.5752 123.422 16.5106 123.226 16.4588C123.031 16.407 122.925 16.3689 122.928 16.3593C122.933 16.3334 123.368 16.4418 124.08 16.5177C124.785 16.5865 125.807 16.6064 126.805 16.1679C127.299 15.9503 127.724 15.644 128.029 15.2924C128.336 14.9418 128.528 14.5581 128.634 14.222C128.844 13.5385 128.72 13.083 128.755 13.083Z" fill="#455A64"/>
</g>
</svg>
