<svg width="202" height="202" viewBox="0 0 202 202" fill="none" xmlns="http://www.w3.org/2000/svg">
<path d="M179.344 133.401H106.321C105.693 133.4 105.091 133.15 104.648 132.706C104.204 132.262 103.954 131.661 103.953 131.033V24.6682C103.954 24.0407 104.204 23.4391 104.648 22.9954C105.091 22.5516 105.693 22.3018 106.321 22.3008H179.344C179.971 22.3018 180.573 22.5516 181.016 22.9954C181.46 23.4391 181.71 24.0407 181.711 24.6682V131.033C181.71 131.661 181.46 132.262 181.016 132.706C180.573 133.15 179.971 133.4 179.344 133.401ZM106.321 22.4018C105.72 22.4028 105.144 22.642 104.719 23.0668C104.294 23.4916 104.055 24.0675 104.054 24.6682V131.033C104.055 131.634 104.294 132.21 104.719 132.635C105.144 133.06 105.72 133.299 106.321 133.3H179.344C179.945 133.3 180.521 133.061 180.946 132.636C181.371 132.211 181.61 131.634 181.61 131.033V24.6682C181.61 24.0671 181.371 23.4906 180.946 23.0656C180.521 22.6406 179.945 22.4018 179.344 22.4018H106.321Z" fill="#E0E0E0"/>
<path d="M95.138 133.401H22.119C21.4908 133.401 20.8882 133.151 20.4436 132.708C19.999 132.264 19.7486 131.662 19.7476 131.033V24.6682C19.7486 24.04 19.999 23.4378 20.4436 22.9939C20.8882 22.5501 21.4908 22.3008 22.119 22.3008H95.138C95.7659 22.3008 96.3681 22.5502 96.812 22.9942C97.256 23.4382 97.5054 24.0403 97.5054 24.6682V131.033C97.5054 131.661 97.256 132.263 96.812 132.707C96.3681 133.151 95.7659 133.401 95.138 133.401ZM22.119 22.4018C21.5176 22.4018 20.9407 22.6404 20.515 23.0654C20.0893 23.4903 19.8496 24.0668 19.8486 24.6682V131.033C19.8464 131.333 19.9036 131.63 20.0167 131.907C20.1299 132.185 20.2968 132.437 20.5078 132.649C20.7189 132.862 20.9699 133.031 21.2464 133.146C21.5229 133.261 21.8195 133.32 22.119 133.32H95.138C95.4356 133.32 95.7304 133.261 96.0053 133.147C96.2803 133.034 96.5302 132.867 96.7406 132.656C96.9511 132.446 97.118 132.196 97.2319 131.921C97.3458 131.646 97.4044 131.351 97.4044 131.054V24.6682C97.4044 24.3706 97.3458 24.0759 97.2319 23.8009C97.118 23.5259 96.9511 23.2761 96.7406 23.0656C96.5302 22.8551 96.2803 22.6882 96.0053 22.5743C95.7304 22.4604 95.4356 22.4018 95.138 22.4018H22.119Z" fill="#E0E0E0"/>
<path d="M202 158.073H0V158.174H202V158.073Z" fill="#E0E0E0"/>
<path d="M27.363 163.834H20.8748V163.935H27.363V163.834Z" fill="#E0E0E0"/>
<path d="M90.4474 162.739H68.8213V162.84H90.4474V162.739Z" fill="#E0E0E0"/>
<path d="M42.4118 167.587H27.7668V167.688H42.4118V167.587Z" fill="#E0E0E0"/>
<path d="M170.302 162.687H152.854V162.788H170.302V162.687Z" fill="#E0E0E0"/>
<path d="M176.459 162.687H173.902V162.788H176.459V162.687Z" fill="#E0E0E0"/>
<path d="M149.52 165.204H127.749V165.305H149.52V165.204Z" fill="#E0E0E0"/>
<path d="M183.489 150.551C183.598 149.286 183.424 147.65 181.949 147.165C179.449 146.357 177.97 144.406 178.051 142.216C178.132 140.027 175.506 137.897 173.53 139.95C171.555 142.002 171.821 138.37 169.187 137.485C166.553 136.601 164.339 138.746 165.05 140.717C165.761 142.689 163.176 143.897 160.065 142.232C156.954 140.568 153.536 143.594 154.195 145.961C154.853 148.329 154.312 148.616 152.344 147.804C150.757 147.165 148.159 148.502 147.864 150.567L183.489 150.551Z" fill="#EBEBEB"/>
<path d="M42.0727 150.551C42.1898 149.549 42.1373 148.09 40.9011 147.682C38.9578 147.04 37.8064 145.537 37.8711 143.84C37.9357 142.143 35.8955 140.483 34.3643 142.071C32.8332 143.658 33.0392 140.859 30.995 140.16C28.9507 139.461 27.2176 141.137 27.763 142.656C28.3084 144.176 26.3045 145.121 23.8927 143.832C21.4808 142.543 18.8265 144.895 19.3355 146.737C19.8446 148.579 19.4285 148.757 17.9013 148.163C16.6045 147.646 14.4593 148.813 14.4067 150.551H42.0727Z" fill="#EBEBEB"/>
<path d="M35.1479 150.551H80.5616C81.2039 148.422 79.5516 145.864 77.7336 145.501C75.5237 145.06 73.3098 141.17 73.1967 138.693C73.0835 136.217 69.1122 128.593 62.9189 133.3C56.7256 138.007 58.6123 133.995 54.1319 132.674C49.6516 131.353 46.8276 135.154 48.7951 138.007C48.7951 138.007 44.2945 136.879 42.4402 141.081C40.5858 145.283 42.4402 147.888 42.4402 147.888C42.4402 147.888 36.7639 147.727 35.1479 150.551Z" fill="#EBEBEB"/>
<path d="M95.8733 34.3643C95.8738 34.0831 95.9298 33.8048 96.0378 33.5452C96.1459 33.2856 96.3041 33.0499 96.5033 32.8514C96.7025 32.653 96.9389 32.4957 97.1988 32.3886C97.4588 32.2815 97.7374 32.2266 98.0185 32.2271C98.2237 32.2283 98.4277 32.2583 98.6245 32.316C98.4487 31.1316 98.7503 29.9257 99.4632 28.9636C100.176 28.0015 101.242 27.3618 102.426 27.1852C102.648 27.153 102.872 27.1368 103.097 27.1367C103.377 27.1379 103.657 27.1636 103.933 27.2135C104.381 26.4815 105.055 25.915 105.853 25.5996C106.651 25.2841 107.53 25.2369 108.358 25.4649C109.185 25.693 109.916 26.184 110.44 26.8638C110.964 27.5436 111.252 28.3753 111.262 29.2335H111.326C112.291 29.2335 113.215 29.6166 113.897 30.2985C114.579 30.9803 114.962 31.9052 114.962 32.8695C114.962 33.8338 114.579 34.7587 113.897 35.4405C113.215 36.1224 112.291 36.5055 111.326 36.5055H97.9499C97.3926 36.4907 96.8632 36.2584 96.4751 35.8582C96.087 35.458 95.871 34.9218 95.8733 34.3643Z" fill="#F0F0F0"/>
<path d="M62.7856 19.2951C62.7856 18.7279 63.0107 18.1839 63.4114 17.7825C63.812 17.3811 64.3556 17.155 64.9228 17.1539C65.1308 17.1568 65.3374 17.1881 65.5369 17.2469C65.5004 17.0307 65.4841 16.8116 65.4884 16.5924C65.4884 15.3934 65.9647 14.2435 66.8125 13.3957C67.6603 12.5479 68.8102 12.0716 70.0092 12.0716C70.2882 12.0716 70.5666 12.0959 70.8414 12.1443C71.2874 11.412 71.9594 10.8445 72.756 10.5273C73.5526 10.21 74.4307 10.1602 75.258 10.3854C76.0854 10.6106 76.8172 11.0986 77.3431 11.7758C77.869 12.453 78.1606 13.2827 78.174 14.1401H78.2386C78.7161 14.1401 79.1889 14.2341 79.6301 14.4169C80.0712 14.5996 80.472 14.8674 80.8097 15.2051C81.1473 15.5427 81.4151 15.9435 81.5979 16.3847C81.7806 16.8258 81.8746 17.2986 81.8746 17.7761C81.8746 18.2536 81.7806 18.7264 81.5979 19.1675C81.4151 19.6087 81.1473 20.0095 80.8097 20.3471C80.472 20.6848 80.0712 20.9526 79.6301 21.1353C79.1889 21.318 78.7161 21.4121 78.2386 21.4121H64.8541C64.3021 21.3964 63.7778 21.1668 63.3919 20.7718C63.0059 20.3768 62.7886 19.8474 62.7856 19.2951Z" fill="#F5F5F5"/>
<path d="M162.683 34.7117C162.682 34.536 162.717 34.3619 162.784 34.1996C162.851 34.0373 162.95 33.89 163.075 33.7663C163.2 33.6426 163.348 33.545 163.511 33.4791C163.674 33.4132 163.848 33.3804 164.024 33.3826C164.161 33.3813 164.297 33.4003 164.428 33.4391C164.407 33.3054 164.397 33.1704 164.396 33.0351C164.396 32.2851 164.694 31.5658 165.224 31.0354C165.754 30.5051 166.474 30.2071 167.224 30.2071C167.397 30.207 167.57 30.2233 167.741 30.2556C168.028 29.8225 168.445 29.4914 168.932 29.3099C169.419 29.1284 169.951 29.1058 170.452 29.2453C170.952 29.3849 171.396 29.6793 171.719 30.0865C172.042 30.4938 172.228 30.9928 172.249 31.512H172.286C172.872 31.5092 173.437 31.7335 173.862 32.1379C174.287 32.5423 174.539 33.0954 174.565 33.6814C174.591 34.2674 174.389 34.8407 174.002 35.2813C173.615 35.7219 173.072 35.9956 172.488 36.0449C172.42 36.049 172.353 36.049 172.286 36.0449H163.971C163.625 36.0354 163.296 35.8905 163.055 35.6413C162.814 35.3921 162.68 35.0584 162.683 34.7117Z" fill="#F0F0F0"/>
<path d="M24.7168 31.3141C24.7163 31.1398 24.7502 30.967 24.8165 30.8058C24.8829 30.6445 24.9804 30.498 25.1035 30.3745C25.2266 30.251 25.3729 30.1531 25.5339 30.0862C25.6949 30.0194 25.8676 29.985 26.0419 29.985C26.1789 29.9798 26.3157 29.9989 26.4459 30.0415C26.4273 29.9076 26.4165 29.7727 26.4136 29.6375C26.4136 28.8875 26.7116 28.1682 27.2419 27.6378C27.7723 27.1075 28.4916 26.8095 29.2416 26.8095C29.4151 26.8094 29.5883 26.8257 29.7587 26.858C30.0362 26.4026 30.454 26.0497 30.9494 25.8524C31.4448 25.6551 31.9909 25.624 32.5054 25.7639C33.02 25.9039 33.4751 26.2072 33.8024 26.6282C34.1296 27.0492 34.3113 27.5651 34.3199 28.0983H34.3401C34.9241 28.123 35.476 28.3723 35.8805 28.7943C36.285 29.2162 36.5109 29.7782 36.5109 30.3627C36.5109 30.9472 36.285 31.5092 35.8805 31.9311C35.476 32.3531 34.9241 32.6024 34.3401 32.6271H26.0217C25.6759 32.6219 25.3458 32.4816 25.102 32.2363C24.8582 31.9909 24.7199 31.66 24.7168 31.3141Z" fill="#F0F0F0"/>
<path d="M39.1477 91.0416C39.1472 90.8675 39.1809 90.6951 39.247 90.5341C39.3131 90.3732 39.4103 90.2268 39.533 90.1034C39.6556 89.9799 39.8014 89.8819 39.962 89.8148C40.1226 89.7477 40.2948 89.7129 40.4688 89.7124C40.6056 89.709 40.7421 89.7281 40.8728 89.769C40.8555 89.635 40.846 89.5001 40.8445 89.365C40.8445 88.6149 41.1425 87.8956 41.6728 87.3653C42.2032 86.8349 42.9225 86.537 43.6725 86.537C43.846 86.5369 44.0192 86.5531 44.1896 86.5854C44.4673 86.1298 44.8855 85.7767 45.3813 85.5795C45.877 85.3823 46.4235 85.3516 46.9382 85.492C47.453 85.6324 47.9081 85.9364 48.2351 86.3581C48.562 86.7797 48.743 87.2962 48.7508 87.8298H48.7872C49.0843 87.8298 49.3784 87.8883 49.6529 88.002C49.9274 88.1157 50.1768 88.2823 50.3869 88.4924C50.597 88.7025 50.7636 88.9519 50.8773 89.2264C50.991 89.5009 51.0496 89.7951 51.0496 90.0922C51.0496 90.3893 50.991 90.6834 50.8773 90.9579C50.7636 91.2324 50.597 91.4818 50.3869 91.6919C50.1768 91.902 49.9274 92.0686 49.6529 92.1823C49.3784 92.296 49.0843 92.3546 48.7872 92.3546H40.4526C40.1068 92.3493 39.7767 92.209 39.5329 91.9637C39.2891 91.7184 39.1508 91.3874 39.1477 91.0416Z" fill="#F0F0F0"/>
<path d="M130.452 24.2806C130.451 24.05 130.496 23.8215 130.584 23.6083C130.672 23.3951 130.801 23.2014 130.964 23.0381C131.127 22.8749 131.32 22.7454 131.533 22.657C131.746 22.5686 131.974 22.5232 132.205 22.5232C132.376 22.5239 132.545 22.547 132.71 22.5918C132.686 22.4138 132.674 22.2342 132.674 22.0545C132.674 21.0677 133.066 20.1213 133.763 19.4235C134.461 18.7257 135.408 18.3337 136.395 18.3337C136.625 18.333 136.855 18.3546 137.081 18.3983C137.44 17.7837 137.991 17.3046 138.65 17.0353C139.309 16.766 140.038 16.7216 140.724 16.909C141.411 17.0964 142.016 17.5051 142.446 18.0716C142.877 18.6382 143.108 19.331 143.105 20.0426H143.166C143.941 20.0711 144.675 20.3992 145.214 20.9578C145.752 21.5165 146.053 22.2623 146.053 23.0383C146.053 23.8142 145.752 24.56 145.214 25.1187C144.675 25.6774 143.941 26.0054 143.166 26.0339H132.157C131.7 26.0223 131.265 25.8323 130.947 25.5047C130.628 25.177 130.45 24.7376 130.452 24.2806Z" fill="#F5F5F5"/>
<path d="M97.3397 55.037C96.9074 54.6653 96.362 54.1724 96.5519 53.6513C96.7014 53.2271 97.2427 53.0857 97.5457 52.7544C98.1679 52.0716 97.5861 50.9647 96.8549 50.4072C96.1237 49.8496 95.1823 49.4174 94.8793 48.5447C94.8283 48.3084 94.7454 48.0801 94.6329 47.866C94.1925 47.2115 93.1745 47.6438 92.5402 48.1124C92.3117 48.2776 92.0633 48.4134 91.8009 48.5164C91.7284 48.1769 91.5552 47.8671 91.3039 47.6276C90.8757 47.256 90.3263 46.7631 90.4959 46.2419C90.6495 45.8137 91.1868 45.6763 91.4979 45.341C92.1119 44.6623 91.5342 43.5553 90.7989 42.9978C90.0637 42.4403 89.1264 42.008 88.8315 41.1354C88.779 40.8989 88.6947 40.6705 88.581 40.4566C88.1406 39.8022 87.1225 40.2264 86.4883 40.695C85.854 41.1636 84.8319 41.5798 84.3955 40.9172C84.1451 40.5132 84.2945 39.992 84.0521 39.6042C83.6481 38.9538 82.626 39.2648 82.0321 39.7537C81.4383 40.2425 80.8201 40.9051 80.0687 40.7314C80.2586 40.6506 80.4727 40.5819 80.6464 40.493C81.5958 39.992 81.4544 38.1619 80.7434 37.5478C80.3111 37.1762 79.7657 36.6914 79.9556 36.1702C80.1091 35.742 80.6464 35.6046 80.9494 35.2652C81.5716 34.5865 80.9898 33.4715 80.2586 32.918C79.5273 32.3645 78.586 31.9282 78.283 31.0556C78.2312 30.8194 78.1484 30.5912 78.0366 30.3768C77.5962 29.7224 76.5741 30.1546 75.9479 30.6233C75.3217 31.0919 74.2875 31.5 73.8552 30.8374C73.6087 30.4576 73.7501 29.9163 73.5118 29.5244C73.1078 28.878 72.0897 29.181 71.4918 29.6779C70.8939 30.1748 70.2798 30.8253 69.5284 30.6556C68.8779 30.5021 68.5224 29.7708 67.8315 29.686C67.1407 29.6012 66.5953 30.3082 66.4256 30.9828C66.2559 31.6575 66.2721 32.4009 65.9045 33.0028H65.8035C65.3296 32.7196 64.9554 32.2961 64.7329 31.7908C64.6829 31.5542 64.6 31.3257 64.4864 31.1121C64.0501 30.4617 63.0239 30.8818 62.3977 31.3545C61.7715 31.8272 60.7414 32.2352 60.305 31.5727C60.0626 31.1929 60.2 30.6475 59.9616 30.2597C59.5576 29.6133 58.5395 29.9203 57.9416 30.4132C57.3437 30.9061 56.7296 31.5646 55.9782 31.3868C55.3318 31.2333 54.9763 30.5021 54.2854 30.4172C53.5946 30.3324 53.0451 31.0394 52.8795 31.7141C52.7139 32.3888 52.7219 33.1321 52.3543 33.7341C51.3524 33.5402 49.9788 33.5765 49.7404 34.5421C49.7102 34.7519 49.7237 34.9657 49.78 35.1701C49.8363 35.3745 49.9343 35.5651 50.0677 35.7298C49.9469 35.7962 49.8331 35.8747 49.7283 35.9642C49.1425 36.453 48.5163 37.1115 47.7568 36.9378C47.1144 36.7883 46.7629 36.0571 46.0681 35.9722C45.3732 35.8874 44.8238 36.5944 44.6622 37.2691C44.5006 37.9438 44.5046 38.6871 44.137 39.2891C43.131 39.0992 41.7614 39.1356 41.5231 40.1213C41.3696 40.7677 41.8705 41.3697 42.2826 41.8949C42.6947 42.4201 43.0421 43.1917 42.6139 43.7169C41.9204 43.6807 41.2321 43.8538 40.6383 44.2138C40.3469 44.3994 40.1304 44.682 40.0269 45.0116C39.9234 45.3412 39.9396 45.6968 40.0727 46.0157C40.3779 46.4422 40.8199 46.7516 41.3251 46.8924C42.8118 47.4943 42.3391 48.8114 41.8947 49.8739C41.845 49.8778 41.795 49.8778 41.7453 49.8739C41.0948 49.7204 40.7393 48.9891 40.0525 48.9083C39.3657 48.8275 38.8122 49.5305 38.6466 50.2011C38.481 50.8718 38.489 51.6192 38.1214 52.2211C37.1114 52.0353 35.7418 52.0716 35.5075 53.0534C35.35 53.6998 35.859 54.3017 36.267 54.831C36.6751 55.3602 37.0185 56.1278 36.5943 56.649C35.8983 56.6247 35.2108 56.8075 34.6187 57.1742C34.329 57.3613 34.1136 57.6437 34.0096 57.9726C33.9057 58.3014 33.9196 58.6563 34.0491 58.976C34.3798 59.3909 34.8436 59.6792 35.3621 59.7921C37.9638 60.8425 34.5541 64.1108 35.8388 64.325C37.4912 64.6037 39.4344 64.2765 39.5556 66.3126C39.5698 66.644 39.6185 66.9731 39.701 67.2944C40.0161 68.4215 40.8201 68.9104 42.4765 68.1024C43.5269 67.6054 43.7814 66.9914 44.9813 67.1408C45.8378 67.2418 46.4599 67.8398 47.4053 67.763C47.5362 67.7629 47.6652 67.731 47.781 67.6701C47.9002 67.5943 47.9987 67.4902 48.0679 67.3671C48.9122 66.1551 49.5707 66.656 50.9443 66.5954C51.0527 66.6028 51.1601 66.5713 51.2473 66.5066C51.288 66.4649 51.32 66.4156 51.3415 66.3615C51.363 66.3074 51.3736 66.2496 51.3726 66.1914C51.4086 65.8399 51.3771 65.4847 51.2797 65.1451C51.2099 64.9792 51.1916 64.7962 51.2272 64.6199C51.2958 64.3856 51.5907 64.2967 51.817 64.1876C51.903 64.1399 51.9854 64.0859 52.0634 64.026C52.2647 63.8706 52.4323 63.6758 52.5559 63.4535C52.6795 63.2313 52.7566 62.9862 52.7825 62.7332C54.0753 62.8544 55.2833 63.012 55.3762 64.5916C55.3911 64.9235 55.4426 65.2527 55.5297 65.5733C55.8368 66.7005 56.6407 67.1893 58.2931 66.3813C59.3435 65.8844 59.6021 65.2663 60.7979 65.4198C61.6544 65.5208 62.2766 66.1187 63.2219 66.042C63.3528 66.0419 63.4818 66.01 63.5976 65.949C63.717 65.8722 63.8167 65.7685 63.8885 65.646C64.7288 64.434 65.3873 64.935 66.7609 64.8744C66.7904 64.8784 66.8203 64.8784 66.8498 64.8744C66.9481 64.8652 67.0388 64.8176 67.1024 64.742C67.1659 64.6664 67.1971 64.5688 67.1892 64.4704C67.221 64.1282 67.1895 63.7831 67.0963 63.4523C67.0268 63.2878 67.0085 63.1062 67.0437 62.9312C67.1124 62.6968 67.4114 62.5999 67.6336 62.4948C67.7236 62.4458 67.81 62.3905 67.8922 62.3292C68.1178 62.1494 68.2989 61.9199 68.4214 61.6586C68.8617 61.7919 69.4516 61.707 70.2313 61.3313C71.2898 60.8384 71.5443 60.2163 72.7402 60.3738C73.6007 60.4748 74.2188 61.0687 75.1642 60.996C75.2953 60.9906 75.4237 60.9561 75.5399 60.895C75.657 60.8168 75.7551 60.7133 75.8267 60.592L75.8954 60.5031C75.9094 60.5991 75.9038 60.697 75.8788 60.7908C75.8538 60.8845 75.8099 60.9722 75.7499 61.0485C75.1976 61.0239 74.6504 61.1645 74.1784 61.4525C73.949 61.5996 73.7788 61.8227 73.6975 62.0827C73.6163 62.3428 73.6292 62.6231 73.734 62.8746C73.9765 63.21 74.3254 63.4534 74.7238 63.5654C76.7721 64.3734 74.0814 66.9631 75.0995 67.1287C76.4004 67.3509 77.9275 67.0924 78.0285 68.6962C78.0378 68.9581 78.0758 69.2183 78.1416 69.4719C78.3881 70.3607 79.0223 70.7162 80.3434 70.1102C81.1757 69.7062 81.3736 69.2295 82.319 69.3507C82.9977 69.4396 83.4825 69.9042 84.2259 69.8436C84.3295 69.8401 84.4312 69.8154 84.5248 69.7709C84.6142 69.7044 84.6909 69.6222 84.7511 69.5285C85.4096 68.5872 85.9307 68.971 87.0135 68.9225C87.0982 68.9251 87.1815 68.9011 87.2518 68.8538C87.3153 68.786 87.35 68.6962 87.3488 68.6033C87.375 68.332 87.3517 68.0583 87.2801 67.7953C87.2235 67.6686 87.2066 67.5278 87.2316 67.3913C87.3003 67.2055 87.5185 67.1368 87.7043 67.0479C87.77 67.01 87.8334 66.9681 87.8942 66.9227C88.1056 66.7573 88.2683 66.5378 88.3651 66.2874C88.4618 66.037 88.4889 65.7652 88.4436 65.5006C88.7263 65.4227 89.0222 65.4048 89.3122 65.4481C90.1687 65.5491 90.7909 66.147 91.7362 66.0702C91.8679 66.0663 91.9973 66.0346 92.116 65.9773C92.2304 65.8959 92.3278 65.793 92.4028 65.6743C93.2391 64.4623 93.9017 64.9633 95.2753 64.9027C95.3837 64.9108 95.4914 64.8792 95.5783 64.8138C95.6187 64.7713 95.6502 64.7212 95.6711 64.6664C95.6919 64.6116 95.7015 64.5532 95.6995 64.4946C95.7366 64.1527 95.7064 63.8069 95.6106 63.4766C95.5419 63.3119 95.5222 63.1309 95.554 62.9554C95.6267 62.7211 95.9217 62.6241 96.1479 62.5191C96.2317 62.475 96.3115 62.4236 96.3863 62.3656C96.7838 62.0573 97.0431 61.6042 97.1074 61.1052C97.1718 60.6063 97.036 60.1022 96.7297 59.7032C96.463 59.4002 96.0509 59.1376 96.1479 58.7013C96.2449 58.265 96.8347 58.1922 97.2306 57.9822C98.1719 57.4772 98.0548 55.647 97.3397 55.037ZM51.8695 60.7738C51.8336 60.707 51.8116 60.6337 51.8048 60.5582C51.798 60.4827 51.8066 60.4066 51.83 60.3345C51.8534 60.2624 51.8912 60.1958 51.941 60.1387C51.9908 60.0815 52.0517 60.0351 52.12 60.0022C52.0561 60.2653 51.9723 60.5233 51.8695 60.7738Z" fill="#E6E6E6"/>
<path d="M48.2174 61.3595C48.2174 61.3595 51.6514 66.2075 52.8352 67.7629C54.0189 69.3183 59.9496 78.9092 60.7576 85.2601C60.8384 85.9348 60.9273 86.5206 61.0121 87.0256C58.4629 103.856 58.8588 134.645 58.9517 139.913H67.0317C67.1044 133.97 67.7912 79.6405 68.0458 77.9841C68.3124 76.2267 71.706 69.5405 76.9055 66.7973C82.105 64.0542 86.6298 54.9642 86.6298 54.9642H84.9612C84.9612 54.9642 81.8787 60.5313 77.4913 63.6138C76.8641 64.0506 76.2066 64.4421 75.5238 64.7854C75.5346 61.4336 74.9435 58.1071 73.7785 54.9642L72.8776 55.7722C74.0896 60.7373 73.924 63.9168 73.5604 65.7429C71.9049 66.5174 70.3776 67.5406 69.0315 68.7769C64.4784 62.8624 61.9211 49.3284 61.9211 49.3284L60.7576 49.9667C61.0862 52.7612 61.5881 55.5326 62.2605 58.2649C63.1129 61.7675 65.6218 68.3649 66.7893 71.3343C65.3918 73.3448 64.239 75.5148 63.3553 77.7983C63.2299 77.6064 63.082 77.43 62.915 77.2731C59.9496 74.5905 54.3784 61.9211 54.3784 61.9211C53.0291 58.9799 55.0895 51.2514 55.0895 51.2514H53.522L52.8271 58.0063L48.9164 53.7401L48.2053 54.3299L52.3504 59.6667L54.4835 66.4256L48.9164 60.2606L48.2174 61.3595Z" fill="#EBEBEB"/>
<path d="M193.767 74.4695C193.175 74.1141 192.492 73.9412 191.803 73.9726C191.399 73.4676 191.722 72.6878 192.134 72.1667C192.546 71.6455 193.039 71.0476 192.886 70.4012C192.656 69.4235 191.27 69.3912 190.304 69.5932C190.029 68.9567 189.849 68.2827 189.771 67.5934C189.593 66.9187 189.06 66.24 188.369 66.3006C187.678 66.3612 187.327 67.1086 186.688 67.2621C186.64 67.2661 186.591 67.2661 186.543 67.2621C186.099 66.1996 185.618 64.8785 187.105 64.2806C187.607 64.141 188.046 63.8329 188.349 63.408C188.479 63.0904 188.495 62.7373 188.392 62.4097C188.29 62.082 188.076 61.8006 187.787 61.6142C187.201 61.2623 186.523 61.0922 185.84 61.1254C185.412 60.6082 185.759 59.8366 186.163 59.3154C186.567 58.7943 187.08 58.1923 186.923 57.55C186.684 56.5763 185.327 56.54 184.337 56.742C184.065 56.1055 183.886 55.4334 183.804 54.7462C183.626 54.0675 183.125 53.3928 182.406 53.4534C181.687 53.514 181.364 54.2614 180.729 54.4149C180.095 54.5684 179.376 53.9342 178.77 53.4453C178.668 53.3625 178.558 53.2895 178.443 53.2272C178.573 53.0635 178.668 52.8743 178.721 52.6719C178.774 52.4694 178.784 52.2581 178.75 52.0515C178.52 51.0779 177.134 51.0415 176.172 51.2435C175.893 50.601 175.714 49.9199 175.639 49.2235C175.461 48.5488 174.928 47.8701 174.237 47.9307C173.546 47.9913 173.195 48.7387 172.557 48.8922C171.817 49.07 171.203 48.4115 170.601 47.9267C169.999 47.4419 169.009 47.1187 168.618 47.7772C168.371 48.1812 168.517 48.6983 168.27 49.0821C167.838 49.7608 166.824 49.3286 166.185 48.8599C165.547 48.3913 164.549 47.9711 164.101 48.6216C163.988 48.835 163.906 49.0636 163.858 49.3003C163.618 49.8323 163.218 50.2769 162.715 50.5729C162.443 49.9383 162.264 49.2673 162.186 48.5812C162.008 47.9065 161.507 47.2278 160.792 47.2964C160.077 47.3651 159.75 48.1044 159.111 48.2499C158.473 48.3953 157.758 47.7772 157.156 47.2803C156.554 46.7834 155.564 46.4723 155.164 47.1348C154.926 47.5388 155.071 48.06 154.821 48.4398C154.393 49.1185 153.371 48.6902 152.74 48.2216C152.11 47.753 151.096 47.3288 150.648 47.9792C150.538 48.1942 150.457 48.4223 150.405 48.6579C150.106 49.5225 149.173 49.9507 148.45 50.5042C147.727 51.0577 147.141 52.1646 147.771 52.8393C148.078 53.1706 148.611 53.308 148.761 53.7322C148.951 54.2614 148.409 54.7422 147.973 55.0896C147.262 55.6916 147.129 57.5136 148.078 58.0146C148.24 58.0994 148.438 58.16 148.615 58.2327C147.892 58.3782 147.282 57.7439 146.688 57.2631C146.095 56.7824 145.097 56.4551 144.697 57.1056C144.462 57.5096 144.604 58.0348 144.353 58.4105C143.925 59.0892 142.903 58.661 142.269 58.1964C141.634 57.7318 140.628 57.3035 140.184 57.9499C140.076 58.1661 139.994 58.3938 139.938 58.6286C139.643 59.4972 138.726 59.9214 137.974 60.4749C137.223 61.0284 136.677 62.1354 137.299 62.8141C137.594 63.1454 138.132 63.2787 138.285 63.7069C138.439 64.1352 137.93 64.7169 137.501 65.0603C137.244 65.3072 137.069 65.6274 137 65.9774C136.741 65.8726 136.496 65.737 136.269 65.5734C135.639 65.1048 134.625 64.6806 134.185 65.331C134.067 65.5419 133.983 65.7694 133.934 66.0057C133.635 66.8743 132.702 67.2985 131.979 67.856C131.256 68.4135 130.67 69.5124 131.3 70.1911C131.603 70.5224 132.14 70.6557 132.29 71.084C132.48 71.6132 131.934 72.0859 131.482 72.4374C130.807 73.0474 130.637 74.8614 131.583 75.3704C131.987 75.5724 132.565 75.6411 132.662 76.0814C132.758 76.5218 132.35 76.7561 132.084 77.0753C131.779 77.471 131.644 77.9712 131.708 78.4665C131.771 78.9617 132.028 79.4116 132.423 79.7174C132.499 79.7747 132.578 79.826 132.662 79.871C132.892 79.98 133.171 80.0689 133.251 80.3113C133.289 80.4892 133.27 80.6747 133.195 80.8406C133.107 81.1695 133.077 81.5113 133.106 81.8506C133.106 81.9678 133.151 82.0806 133.231 82.1657C133.317 82.2269 133.421 82.2581 133.526 82.2546C134.879 82.3152 135.546 81.8506 136.39 83.0181C136.458 83.141 136.557 83.244 136.677 83.3171C136.791 83.3811 136.919 83.4145 137.049 83.414C137.99 83.4948 138.596 82.905 139.473 82.7959C139.759 82.7526 140.051 82.7705 140.329 82.8484C140.291 83.1058 140.321 83.3686 140.417 83.6105C140.513 83.8524 140.671 84.0647 140.875 84.2261C140.938 84.2729 141.004 84.3161 141.073 84.3554C141.247 84.4402 141.477 84.5089 141.537 84.6988C141.566 84.8347 141.55 84.9762 141.493 85.1028C141.42 85.3654 141.396 85.6395 141.424 85.9108C141.415 85.9851 141.435 86.0601 141.481 86.1197C141.526 86.1793 141.593 86.2189 141.667 86.2299C141.696 86.234 141.726 86.234 141.756 86.2299C142.83 86.2744 143.347 85.8986 144.002 86.8319C144.062 86.9244 144.139 87.0052 144.228 87.0702C144.32 87.1161 144.42 87.1409 144.523 87.143C145.262 87.2036 145.735 86.739 146.422 86.6541C147.363 86.541 147.557 87.0218 148.385 87.4056C149.702 88.0722 150.332 87.6924 150.579 86.8036C150.641 86.5533 150.679 86.2976 150.692 86.04C150.785 84.4483 152.308 84.6866 153.605 84.4806C154.611 84.3109 151.936 81.7738 153.977 80.9335C154.372 80.8291 154.719 80.5906 154.958 80.2588C155.059 80.0071 155.07 79.7281 154.988 79.4695C154.906 79.2109 154.737 78.9887 154.51 78.8408C154.044 78.5639 153.508 78.4304 152.967 78.457C152.906 78.3782 152.862 78.2876 152.837 78.191C152.813 78.0943 152.809 77.9937 152.825 77.8954L152.874 77.956C152.946 78.0754 153.042 78.1786 153.156 78.259C153.274 78.3194 153.404 78.3526 153.536 78.356C154.478 78.4287 155.088 77.8469 155.96 77.7378C157.152 77.5843 157.402 78.1984 158.453 78.6953C159.233 79.0993 159.818 79.1801 160.259 79.0508C160.381 79.3076 160.561 79.5328 160.784 79.7094C160.863 79.7702 160.947 79.8242 161.034 79.871C161.265 79.98 161.539 80.0689 161.62 80.3113C161.658 80.4889 161.639 80.6738 161.568 80.8406C161.478 81.1691 161.447 81.5113 161.479 81.8506C161.477 81.9085 161.487 81.9662 161.508 82.0203C161.529 82.0744 161.56 82.1238 161.6 82.1657C161.688 82.2264 161.792 82.2575 161.899 82.2546C163.252 82.3152 163.919 81.8506 164.755 83.0181C164.827 83.1383 164.925 83.2405 165.042 83.3171C165.159 83.3769 165.287 83.4101 165.418 83.414C166.355 83.4948 166.969 82.905 167.842 82.7959C169.034 82.6464 169.284 83.2565 170.335 83.7494C171.971 84.5574 172.759 84.0604 173.082 82.9414C173.166 82.623 173.216 82.2966 173.231 81.9677C173.324 80.38 174.512 80.2305 175.821 80.1134C175.849 80.3604 175.926 80.5994 176.048 80.8165C176.169 81.0336 176.332 81.2244 176.528 81.3779C176.606 81.4392 176.69 81.4933 176.778 81.5395C177.001 81.6486 177.279 81.7374 177.368 81.9758C177.404 82.1552 177.384 82.3412 177.312 82.5091C177.222 82.8378 177.191 83.1796 177.219 83.5191C177.219 83.6366 177.262 83.7499 177.34 83.8382C177.431 83.8967 177.538 83.9262 177.647 83.9231C179 83.9837 179.667 83.5191 180.503 84.6907C180.574 84.8094 180.67 84.9104 180.786 84.9856C180.899 85.0496 181.027 85.083 181.158 85.0826C182.099 85.1634 182.717 84.5735 183.582 84.4644C184.794 84.315 185.024 84.925 186.07 85.4219C187.711 86.2299 188.494 85.7653 188.822 84.6422C188.899 84.3228 188.946 83.9968 188.963 83.6686C189.084 81.6486 190.983 81.9596 192.66 81.689C193.944 81.4748 190.547 78.2307 193.132 77.1884C193.636 77.0499 194.077 76.7417 194.381 76.3158C194.52 75.9859 194.534 75.6167 194.421 75.277C194.308 74.9372 194.076 74.6502 193.767 74.4695ZM176.427 77.346C176.5 77.3787 176.565 77.4271 176.618 77.4879C176.67 77.5486 176.708 77.6202 176.73 77.6974C176.764 77.8348 176.742 77.98 176.669 78.1014C176.569 77.8562 176.488 77.6036 176.427 77.346Z" fill="#E6E6E6"/>
<path d="M180.313 78.6911C180.313 78.6911 176.895 83.5391 175.716 85.0581C174.536 86.5772 168.646 96.1237 167.85 102.43C167.761 103.105 167.672 103.683 167.591 104.192C170.124 120.913 169.732 151.508 169.611 156.748H161.6C161.523 150.837 160.84 96.8428 160.59 95.1985C160.327 93.4532 156.954 86.8115 151.791 84.0845C146.628 81.3575 142.135 72.316 142.135 72.316H143.788C143.788 72.316 146.854 77.8508 151.233 80.9171C151.862 81.3451 152.516 81.7337 153.193 82.0806C153.174 78.7494 153.754 75.4418 154.906 72.316L155.799 73.124C154.587 78.0608 154.756 81.2484 155.12 83.0301C156.767 83.8028 158.288 84.8218 159.628 86.052C164.153 80.1697 166.69 66.7246 166.69 66.7246L167.854 67.3589C167.513 70.1413 167.003 72.9003 166.327 75.6207C165.478 79.0991 162.982 85.652 161.822 88.6254C163.199 90.6218 164.336 92.7739 165.208 95.0369C165.33 94.8522 165.475 94.6838 165.64 94.536C168.585 91.8696 174.124 79.289 174.124 79.289C175.477 76.364 173.413 68.688 173.413 68.688H174.964L175.639 75.4025L179.525 71.1646L180.236 71.7544L176.196 77.067L174.071 83.7855L179.61 77.6568L180.313 78.6911Z" fill="#EBEBEB"/>
<path d="M10.8473 149.694H193.455C194.408 149.67 195.332 150.026 196.023 150.683C196.714 151.34 197.115 152.244 197.14 153.197V158.469H7.16284V153.193C7.18929 152.241 7.59187 151.338 8.28245 150.683C8.97302 150.027 9.89529 149.671 10.8473 149.694Z" fill="#F0F0F0"/>
<path d="M30.2193 54.3662L28.9386 66.672H22.5231L21.2424 54.3662H30.2193Z" fill="#E0E0E0"/>
<path d="M26.9267 64.0259H24.5391V147.642H26.9267V64.0259Z" fill="#E0E0E0"/>
<path d="M28.264 65.9208H23.1978L22.0747 55.1138H29.3871L28.264 65.9208Z" fill="#F0F0F0"/>
<path d="M25.0643 66.0903H24.7209L24.3452 54.7419H24.6886L25.0643 66.0903Z" fill="#E0E0E0"/>
<path d="M25.7308 50.4111C25.7308 50.4111 21.9292 54.1562 19.0164 54.1562L19.9173 54.7501H31.5121L32.417 54.1562C29.5325 54.1643 25.7308 50.4111 25.7308 50.4111Z" fill="#E0E0E0"/>
<path d="M151.266 157.92H153.427L149.003 132.96H146.842L151.266 157.92Z" fill="#E0E0E0"/>
<path d="M84.0481 157.92H86.2095L81.7897 132.96H79.6243L84.0481 157.92Z" fill="#E0E0E0"/>
<path d="M150.139 145.44H65.2339V147.63H150.139V145.44Z" fill="#E0E0E0"/>
<path d="M131.316 157.92H129.155L133.575 132.96H135.74L131.316 157.92Z" fill="#E0E0E0"/>
<path d="M64.0987 157.92H61.9373L66.3611 132.96H68.5225L64.0987 157.92Z" fill="#E0E0E0"/>
<path d="M83.7168 131.987H85.8701L89.4698 111.96H87.3205L83.7168 131.987Z" fill="#E0E0E0"/>
<path d="M146.127 131.987H148.28L151.884 111.96H149.73L146.127 131.987Z" fill="#E0E0E0"/>
<path d="M114.922 131.987H117.071L120.675 111.96H118.522L114.922 131.987Z" fill="#E0E0E0"/>
<path d="M79.9961 113.326H156.195L156.869 109.577H80.6748L79.9961 113.326Z" fill="#E0E0E0"/>
<path d="M78.7759 120.109H154.974L155.649 116.36H79.4546L78.7759 120.109Z" fill="#E0E0E0"/>
<path d="M77.5559 126.888H153.754L154.429 123.139H78.2346L77.5559 126.888Z" fill="#E0E0E0"/>
<path d="M153.189 131.401H61.4807V133.991H153.189V131.401Z" fill="#E0E0E0"/>
<path d="M185.388 183.711C185.388 185.077 147.606 186.188 101 186.188C54.3946 186.188 16.6125 185.077 16.6125 183.711C16.6125 182.346 54.3946 181.23 101 181.23C147.606 181.23 185.388 182.341 185.388 183.711Z" fill="#F5F5F5"/>
<path d="M94.1846 70.0212L91.2192 77.9114L73.3301 85.8015L74.1381 89.1951C74.1381 89.1951 93.6917 86.5044 95.1461 84.9329C96.6005 83.3613 101.416 72.4089 101.416 72.4089L94.1846 70.0212Z" fill="#E9B376"/>
<path opacity="0.3" d="M93.4574 71.9563L92.9888 73.1966L98.6367 75.463L99.3194 77.1033L99.7921 76.0811L99.574 73.3865L93.4574 71.9563Z" fill="black"/>
<path d="M77.3743 84.9408C77.3743 84.9408 76.6915 83.4662 75.4229 83.0178C74.1544 82.5694 73.2656 81.8785 72.3 81.6119C71.3345 81.3452 72.0859 82.4684 72.6071 82.9855C73.1282 83.5026 73.71 84.0924 73.2575 84.4237C72.805 84.755 68.0338 85.2438 67.4682 85.7852C66.9026 86.3266 67.6904 86.468 67.6904 86.468C67.6904 86.468 66.5349 86.6255 66.4784 87.0982C66.4784 87.2234 66.6238 87.5345 67.1611 87.5466C68.3731 87.5749 70.9103 87.4982 70.9103 87.4982C70.7648 87.4982 67.6338 87.8173 67.1733 87.9264C66.5673 88.0678 66.3653 88.4435 66.4501 88.791C66.5834 89.2879 70.4901 89.0253 70.6477 89.1303C70.6477 89.1303 68.4014 89.203 68.1025 89.7929C67.8035 90.3827 69.2215 90.415 70.478 90.1969C71.6253 90.003 73.9322 89.9262 75.0836 89.6151C76.5016 89.2111 77.3662 88.6576 77.5884 87.3002C77.7202 86.5084 77.6465 85.696 77.3743 84.9408Z" fill="#E9B376"/>
<path opacity="0.3" d="M67.8318 86.4559C67.8208 86.4528 67.8112 86.4462 67.8043 86.4371C67.7974 86.4279 67.7937 86.4168 67.7937 86.4054C67.7937 86.394 67.7974 86.3829 67.8043 86.3738C67.8112 86.3647 67.8208 86.3581 67.8318 86.3549C68.761 86.2539 69.7064 86.1933 70.6356 86.1772C70.6423 86.1766 70.649 86.1775 70.6553 86.1796C70.6617 86.1818 70.6675 86.1853 70.6725 86.1899C70.6774 86.1944 70.6814 86.2 70.684 86.2061C70.6867 86.2123 70.6881 86.2189 70.6881 86.2256C70.6881 86.2396 70.6825 86.2529 70.6727 86.2628C70.6628 86.2726 70.6495 86.2782 70.6356 86.2782C69.7104 86.2782 68.7691 86.3549 67.8439 86.4559H67.8318Z" fill="black"/>
<path opacity="0.3" d="M71.508 89.1789C71.4987 89.179 71.4895 89.1764 71.4816 89.1714C71.4737 89.1663 71.4675 89.1591 71.4636 89.1507C71.0191 88.0073 70.918 86.7591 71.1727 85.5591C71.1743 85.5527 71.1771 85.5467 71.181 85.5415C71.1849 85.5362 71.1898 85.5317 71.1955 85.5284C71.2011 85.525 71.2073 85.5227 71.2138 85.5218C71.2203 85.5208 71.2269 85.5211 71.2333 85.5227C71.2396 85.5243 71.2456 85.5272 71.2509 85.5311C71.2562 85.535 71.2606 85.5399 71.264 85.5455C71.2674 85.5511 71.2696 85.5574 71.2706 85.5639C71.2716 85.5703 71.2712 85.577 71.2696 85.5833C71.0197 86.7618 71.1194 87.9876 71.5565 89.1103C71.5618 89.1231 71.5619 89.1376 71.5566 89.1504C71.5539 89.1568 71.5501 89.1626 71.5452 89.1675C71.5403 89.1724 71.5346 89.1763 71.5282 89.1789H71.508Z" fill="black"/>
<path opacity="0.3" d="M75.7338 86.5085C75.2514 86.5116 74.7815 86.3546 74.3977 86.0622C74.0139 85.7698 73.7379 85.3584 73.6128 84.8925C73.6103 84.8797 73.6126 84.8663 73.6193 84.8551C73.626 84.8439 73.6367 84.8356 73.6492 84.8319C73.6621 84.828 73.6759 84.8291 73.688 84.8351C73.7 84.8411 73.7092 84.8515 73.7138 84.8642C73.8362 85.3334 74.1189 85.745 74.5129 86.0276C74.907 86.3103 75.3875 86.4461 75.8712 86.4115C75.8849 86.4114 75.8982 86.4162 75.9086 86.4251C75.919 86.434 75.9258 86.4464 75.9278 86.46C75.9283 86.4667 75.9275 86.4734 75.9253 86.4798C75.9231 86.4861 75.9196 86.492 75.9151 86.4969C75.9105 86.5018 75.905 86.5058 75.8988 86.5085C75.8927 86.5111 75.886 86.5125 75.8793 86.5125L75.7338 86.5085Z" fill="black"/>
<path d="M81.2686 63.3633C81.2686 63.3633 84.6703 63.3633 85.7328 67.476C86.7954 71.5887 86.5812 87.1831 87.1226 89.49C87.664 91.7968 92.1968 108.975 93.227 117.277C93.227 117.277 88.4194 117.681 87.975 117.604C87.5306 117.528 80.3516 83.7208 80.3516 83.7208L81.2686 63.3633Z" fill="#FE7A36"/>
<g opacity="0.3">
<path d="M81.2686 63.3633C81.2686 63.3633 84.6703 63.3633 85.7328 67.476C86.7954 71.5887 86.5812 87.1831 87.1226 89.49C87.664 91.7968 92.1968 108.975 93.227 117.277C93.227 117.277 88.4194 117.681 87.975 117.604C87.5306 117.528 80.3516 83.7208 80.3516 83.7208L81.2686 63.3633Z" fill="black"/>
</g>
<path d="M88.0317 70.8372C90.4274 75.6852 94.2412 80.8119 94.2412 80.8119C95.4532 80.6261 103.574 77.3093 103.574 77.3093L104.466 80.7756C102.805 82.4115 101.003 83.8985 99.0811 85.2196C94.1846 88.4516 92.3788 88.2294 89.882 85.6236C87.3853 83.0178 82.2949 73.4147 82.2949 73.4147L84.0725 64.7045L83.6281 64.1995C86.3228 65.3711 86.8601 68.5061 88.0317 70.8372Z" fill="#FE7A36"/>
<g opacity="0.3">
<path d="M88.0317 70.8372C90.4274 75.6852 94.2412 80.8119 94.2412 80.8119C95.4532 80.6261 103.574 77.3093 103.574 77.3093L104.466 80.7756C102.805 82.4115 101.003 83.8985 99.0811 85.2196C94.1846 88.4516 92.3788 88.2294 89.882 85.6236C87.3853 83.0178 82.2949 73.4147 82.2949 73.4147L84.0725 64.7045L83.6281 64.1995C86.3228 65.3711 86.8601 68.5061 88.0317 70.8372Z" fill="black"/>
</g>
<path opacity="0.3" d="M86.6822 81.0747C86.6822 81.0747 87.0862 76.8812 86.6822 74.5501C86.2782 72.219 85.8379 70.0212 85.8379 70.0212C85.8379 70.0212 87.3812 73.5482 87.5549 76.1216C87.7286 78.6951 87.6195 82.5856 87.6195 82.5856L86.6822 81.0747Z" fill="black"/>
<path opacity="0.3" d="M99.0004 79.1355C98.968 79.1355 99.667 84.8198 99.667 84.8198L100.818 83.9673L100.079 78.7153L99.0004 79.1355Z" fill="black"/>
<path d="M59.7437 179.34L64.0988 179.764L66.4783 168.642L59.7437 168.011V179.34Z" fill="#E9B376"/>
<path d="M64.7329 177.99H63.1775C63.0034 177.993 62.8323 178.036 62.678 178.117C62.5236 178.198 62.3903 178.313 62.2887 178.455C61.3919 179.667 60.7212 179.214 59.7435 178.051C59.1214 177.978 58.9557 178.693 58.9073 178.883L57.7437 183.113C57.6989 183.281 57.7215 183.459 57.8069 183.61C57.8923 183.761 58.0335 183.873 58.2003 183.921C58.263 183.94 58.3285 183.95 58.3942 183.949H70.7C72.6594 183.949 73.0675 181.974 72.2595 181.792C68.6235 180.984 66.0581 179.921 64.9349 178.863C64.7451 178.701 64.9551 178.568 64.7329 177.99Z" fill="#FE7A36"/>
<path opacity="0.3" d="M64.7329 177.99H63.1775C63.0034 177.993 62.8323 178.036 62.678 178.117C62.5236 178.198 62.3903 178.313 62.2887 178.455C61.3919 179.667 60.7212 179.214 59.7435 178.051C59.1214 177.978 58.9557 178.693 58.9073 178.883L57.7437 183.113C57.6989 183.281 57.7215 183.459 57.8069 183.61C57.8923 183.761 58.0335 183.873 58.2003 183.921C58.263 183.94 58.3285 183.95 58.3942 183.949H70.7C72.6594 183.949 73.0675 181.974 72.2595 181.792C68.6235 180.984 66.0581 179.921 64.9349 178.863C64.7451 178.701 64.9551 178.568 64.7329 177.99Z" fill="black"/>
<path d="M68.1065 179.194C68.1871 179.136 68.2529 179.059 68.2985 178.971C68.3441 178.883 68.3683 178.785 68.3691 178.685C68.377 178.633 68.3694 178.579 68.3471 178.531C68.3248 178.483 68.2889 178.442 68.2438 178.414C67.755 178.067 65.8198 178.976 65.5936 179.081C65.5818 179.086 65.5711 179.093 65.5621 179.102C65.5531 179.111 65.5459 179.122 65.5411 179.134C65.5332 179.156 65.5343 179.18 65.5442 179.201C65.554 179.222 65.5717 179.238 65.5936 179.247C66.0719 179.359 66.5607 179.421 67.052 179.433C67.4199 179.468 67.7895 179.384 68.1065 179.194ZM68.1065 178.56C68.1262 178.571 68.1416 178.589 68.1504 178.61C68.1591 178.631 68.1607 178.655 68.1549 178.677C68.1509 178.749 68.1319 178.819 68.0992 178.883C68.0665 178.947 68.0208 179.003 67.9651 179.049C67.5207 179.376 66.4541 179.235 65.8804 179.13C66.7046 178.774 67.8721 178.374 68.1226 178.568L68.1065 178.56Z" fill="#263238"/>
<path d="M65.6583 179.267C66.2441 179.02 67.4682 178.055 67.3995 177.554C67.3995 177.449 67.3147 177.319 67.0521 177.287C65.9855 177.162 65.525 179.077 65.525 179.158C65.5207 179.174 65.521 179.192 65.526 179.208C65.531 179.225 65.5404 179.239 65.5532 179.251H65.6138L65.6583 179.267ZM67.0157 177.445C67.2137 177.445 67.2137 177.534 67.2137 177.558C67.2702 177.869 66.3814 178.665 65.7472 179C65.8764 178.556 66.2683 177.437 66.9592 177.437L67.0157 177.445Z" fill="#263238"/>
<path d="M64.1594 180.144C64.1423 180.149 64.124 180.149 64.1069 180.144C64.0846 180.129 64.0688 180.107 64.0627 180.081C64.0567 180.056 64.0609 180.029 64.0746 180.006C64.2287 179.765 64.433 179.56 64.6735 179.406C64.9141 179.251 65.1852 179.15 65.4684 179.109C65.4946 179.106 65.5211 179.113 65.5422 179.129C65.5634 179.144 65.5775 179.168 65.5815 179.194C65.5838 179.207 65.5833 179.221 65.5803 179.233C65.5772 179.246 65.5715 179.258 65.5635 179.269C65.5556 179.28 65.5455 179.289 65.534 179.295C65.5225 179.302 65.5098 179.306 65.4966 179.307C65.2425 179.344 64.9992 179.435 64.7837 179.574C64.5681 179.714 64.3855 179.898 64.2483 180.115C64.2368 180.127 64.2228 180.135 64.2073 180.14C64.1918 180.145 64.1754 180.146 64.1594 180.144Z" fill="#263238"/>
<path d="M65.0845 180.79C65.0675 180.796 65.049 180.796 65.032 180.79C65.0206 180.783 65.0106 180.774 65.0027 180.764C64.9949 180.753 64.9892 180.741 64.9862 180.728C64.9832 180.715 64.9828 180.702 64.9851 180.689C64.9875 180.676 64.9924 180.664 64.9997 180.653C65.153 180.411 65.3571 180.206 65.5978 180.051C65.8385 179.896 66.11 179.795 66.3935 179.756C66.4197 179.752 66.4462 179.759 66.4674 179.775C66.4885 179.791 66.5026 179.814 66.5066 179.841C66.5101 179.868 66.5027 179.895 66.4861 179.917C66.4695 179.939 66.4449 179.954 66.4177 179.958C66.1636 179.994 65.9203 180.085 65.7048 180.225C65.4893 180.364 65.3066 180.549 65.1694 180.766C65.1578 180.776 65.1443 180.783 65.1296 180.787C65.115 180.791 65.0996 180.792 65.0845 180.79Z" fill="#263238"/>
<path d="M66.4056 181.44C66.3883 181.444 66.3703 181.444 66.3531 181.44C66.3415 181.433 66.3315 181.424 66.3235 181.413C66.3156 181.402 66.31 181.39 66.307 181.376C66.304 181.363 66.3036 181.35 66.306 181.336C66.3084 181.323 66.3134 181.31 66.3208 181.299C66.4741 181.057 66.6781 180.852 66.9188 180.697C67.1595 180.542 67.4311 180.441 67.7146 180.402C67.7408 180.399 67.7673 180.405 67.7884 180.421C67.8096 180.437 67.8237 180.461 67.8277 180.487C67.83 180.5 67.8294 180.514 67.8261 180.527C67.8228 180.54 67.8167 180.552 67.8083 180.563C67.8 180.574 67.7895 180.583 67.7775 180.589C67.7655 180.595 67.7523 180.599 67.7388 180.6C67.485 180.638 67.2423 180.729 67.0269 180.869C66.8116 181.008 66.6286 181.192 66.4904 181.408C66.4796 181.419 66.4664 181.428 66.4517 181.434C66.437 181.439 66.4213 181.442 66.4056 181.44Z" fill="#263238"/>
<path d="M80.8567 179L85.2118 179.429L87.2318 168.266L81.0425 167.591L80.8567 179Z" fill="#E9B376"/>
<path d="M85.846 177.655H84.2906C84.1167 177.657 83.9457 177.699 83.7914 177.779C83.637 177.859 83.5036 177.974 83.4018 178.115C82.5049 179.327 81.8343 178.879 80.8566 177.711C80.2385 177.639 80.0688 178.35 80.0203 178.54L78.8568 182.769C78.8119 182.937 78.8346 183.116 78.9199 183.267C79.0053 183.418 79.1465 183.529 79.3133 183.577C79.3763 183.596 79.4417 183.604 79.5072 183.602H91.8292C93.7886 183.602 94.1967 181.626 93.3887 181.444C89.7527 180.636 87.1873 179.574 86.0641 178.519C85.8581 178.366 86.0722 178.228 85.846 177.655Z" fill="#FE7A36"/>
<path d="M89.2196 178.859C89.3 178.8 89.3656 178.724 89.4112 178.635C89.4568 178.547 89.4811 178.449 89.4822 178.35C89.4899 178.297 89.4822 178.243 89.4599 178.194C89.4377 178.145 89.402 178.104 89.3569 178.075C88.8681 177.732 86.9329 178.641 86.7067 178.746C86.6896 178.751 86.6746 178.762 86.664 178.777C86.6534 178.791 86.6477 178.809 86.6477 178.827C86.6477 178.845 86.6534 178.862 86.664 178.877C86.6746 178.891 86.6896 178.902 86.7067 178.907C87.1849 179.021 87.6737 179.085 88.1651 179.097C88.5329 179.131 88.9019 179.047 89.2196 178.859ZM89.2196 178.225C89.239 178.235 89.2542 178.252 89.263 178.273C89.2718 178.293 89.2736 178.316 89.268 178.338C89.2645 178.41 89.2457 178.48 89.2129 178.544C89.1802 178.608 89.1343 178.664 89.0782 178.709C88.6338 179.041 87.5672 178.899 86.9935 178.79C87.8177 178.435 88.965 178.035 89.2357 178.225H89.2196Z" fill="#263238"/>
<path d="M86.7712 178.928C87.357 178.685 88.5811 177.716 88.5124 177.219C88.5124 177.11 88.4276 176.984 88.165 176.948C87.0984 176.827 86.6419 178.742 86.6419 178.822C86.6358 178.838 86.6348 178.855 86.6392 178.871C86.6435 178.887 86.653 178.901 86.6661 178.911C86.6757 178.915 86.686 178.918 86.6964 178.918C86.7068 178.918 86.7171 178.915 86.7267 178.911L86.7712 178.928ZM88.1286 177.105C88.3266 177.126 88.3266 177.198 88.3266 177.223C88.3831 177.534 87.4943 178.33 86.86 178.665C86.9893 178.216 87.3812 177.101 88.072 177.101L88.1286 177.105Z" fill="#263238"/>
<path d="M85.6036 179.808C85.5863 179.812 85.5683 179.812 85.5511 179.808C85.5395 179.801 85.5295 179.792 85.5215 179.781C85.5136 179.77 85.508 179.758 85.505 179.744C85.502 179.731 85.5016 179.718 85.504 179.704C85.5064 179.691 85.5114 179.678 85.5188 179.667C85.6716 179.426 85.8751 179.22 86.115 179.066C86.355 178.911 86.6257 178.81 86.9085 178.77C86.9356 178.768 86.9626 178.775 86.9843 178.792C87.006 178.808 87.0207 178.832 87.0257 178.859C87.028 178.885 87.0202 178.912 87.0036 178.933C86.9871 178.954 86.9632 178.968 86.9368 178.972C86.6828 179.009 86.4397 179.1 86.2243 179.24C86.0088 179.379 85.826 179.563 85.6884 179.78C85.6774 179.791 85.664 179.799 85.6493 179.804C85.6346 179.809 85.619 179.81 85.6036 179.808Z" fill="#263238"/>
<path d="M86.5691 180.535C86.5518 180.539 86.5339 180.539 86.5166 180.535C86.4941 180.52 86.4781 180.497 86.4721 180.471C86.4661 180.445 86.4705 180.417 86.4843 180.394C86.6388 180.153 86.8432 179.949 87.0837 179.794C87.3242 179.639 87.5951 179.538 87.8781 179.497C87.9047 179.495 87.9312 179.503 87.9522 179.519C87.9733 179.536 87.9872 179.559 87.9912 179.586C87.9929 179.599 87.9919 179.613 87.9884 179.626C87.9848 179.638 87.9787 179.651 87.9704 179.661C87.9622 179.672 87.9519 179.68 87.9402 179.687C87.9285 179.693 87.9156 179.697 87.9023 179.699C87.6482 179.735 87.4049 179.826 87.1894 179.966C86.9738 180.105 86.7912 180.29 86.654 180.507C86.6431 180.518 86.6298 180.527 86.615 180.532C86.6002 180.536 86.5845 180.538 86.5691 180.535Z" fill="#263238"/>
<path d="M87.7732 181.145C87.7547 181.151 87.7351 181.151 87.7167 181.145C87.7055 181.138 87.696 181.129 87.6885 181.118C87.681 181.108 87.6758 181.096 87.6731 181.083C87.6705 181.07 87.6705 181.057 87.6731 181.044C87.6757 181.031 87.6809 181.019 87.6884 181.008C87.8412 180.767 88.0447 180.562 88.2846 180.407C88.5246 180.252 88.7953 180.151 89.0781 180.111C89.0914 180.109 89.105 180.109 89.1182 180.112C89.1313 180.115 89.1437 180.121 89.1546 180.129C89.1655 180.137 89.1747 180.147 89.1817 180.158C89.1887 180.17 89.1933 180.183 89.1953 180.196C89.1976 180.223 89.1898 180.249 89.1733 180.27C89.1567 180.291 89.1328 180.305 89.1064 180.309C88.8527 180.347 88.6099 180.438 88.3946 180.578C88.1792 180.717 87.9963 180.901 87.8581 181.117C87.847 181.128 87.8336 181.136 87.8189 181.141C87.8042 181.146 87.7886 181.147 87.7732 181.145Z" fill="#263238"/>
<path d="M87.8621 96.5881C88.1772 97.5214 91.696 127.316 91.6556 133.756C91.6233 138.96 87.7732 174.964 87.7732 174.964H79.2892C79.2892 174.964 80.3962 156.465 80.174 150.449C79.9518 144.434 81.386 133.134 81.386 133.134L72.3162 106.001L72.6555 96.8992L87.8621 96.5881Z" fill="#263238"/>
<path d="M60.7658 136.621C60.9678 135.752 61.2829 133.991 61.6748 131.664H61.6384C61.9253 128.585 60.9395 112.651 61.9091 103.553C62.6606 97.7559 64.0422 94.6653 65.5451 92.7543L65.7552 92.4837C66.0057 92.1766 66.1592 92.0069 66.1592 92.0069C66.442 92.0756 66.7248 92.1443 67.0036 92.2049L67.3187 92.2695C77.851 94.4754 86.2703 91.5908 86.2703 91.5908C87.2399 93.9825 88.2661 99.6506 88.9731 104.947C87.8702 106.159 83.5837 107.278 78.0368 108.316L76.4572 115.471C75.6249 119.915 74.5543 124.254 73.6292 128.173L72.6838 132.463C72.6232 132.742 72.5666 133.021 72.5141 133.296C72.0334 135.744 66.6602 175.138 66.6602 175.138L58.9195 174.96C58.9195 174.96 58.0671 148.377 60.7658 136.621Z" fill="#263238"/>
<path opacity="0.3" d="M85.846 177.655H84.2906C84.1167 177.657 83.9457 177.699 83.7914 177.779C83.637 177.859 83.5036 177.974 83.4018 178.115C82.5049 179.327 81.8343 178.879 80.8566 177.711C80.2385 177.639 80.0688 178.35 80.0203 178.54L78.8568 182.769C78.8119 182.937 78.8346 183.116 78.9199 183.267C79.0053 183.418 79.1465 183.529 79.3133 183.577C79.3763 183.596 79.4417 183.604 79.5072 183.602H91.8292C93.7886 183.602 94.1967 181.626 93.3887 181.444C89.7527 180.636 87.1873 179.574 86.0641 178.519C85.8581 178.366 86.0722 178.228 85.846 177.655Z" fill="black"/>
<path d="M62.9593 75.8589L61.8201 65.7589C63.5775 63.137 70.6353 61.7432 70.6353 61.7432L76.3641 62.0583C76.3641 62.0583 79.3941 62.7734 81.2807 63.3874C82.1635 64.6245 82.9022 65.9583 83.4825 67.3628C83.4825 67.3628 86.254 73.2895 85.8217 77.4628C85.6399 79.2162 85.244 85.8983 85.7328 88.9081L88.3305 96.8831C77.8629 105.036 64.9551 96.5154 64.9551 96.5154C65.4237 95.0732 66.458 91.8856 66.6721 90.4797C66.5186 88.6819 66.0136 87.5062 65.2541 84.3591C65.1086 83.741 63.2139 76.4488 62.9593 75.8589Z" fill="#FE7A36"/>
<path d="M75.3906 84.7227L77.4995 84.5369L78.3398 87.5143L76.2229 88.2415L75.3906 84.7227Z" fill="#E9B376"/>
<path d="M76.8772 84.3794C76.8772 84.3794 77.1924 82.9169 78.2347 82.2584C79.277 81.5999 79.9396 80.7959 80.7476 80.3596C81.5556 79.9233 81.6889 80.8323 81.3293 81.4019C80.9698 81.9715 79.9921 82.8725 80.4648 83.0745C80.9374 83.2765 85.3128 82.7593 85.943 83.1149C86.5732 83.4704 85.8824 83.7734 85.8824 83.7734C85.8824 83.7734 86.8682 83.6643 87.0944 84.0885C87.3206 84.5127 86.7348 84.7672 86.7348 84.7672C86.7348 84.7672 87.3974 84.7147 87.3812 85.1712C87.3651 85.6277 83.4503 86.4681 83.317 86.5933C83.317 86.5933 85.5915 85.7853 85.9794 86.258C86.3672 86.7307 85.1269 87.2397 84.1452 87.672C83.0704 88.0912 81.912 88.2517 80.7637 88.1406C79.4022 88.0194 77.5075 88.181 77.0308 87.0054C76.7534 86.158 76.7005 85.2533 76.8772 84.3794Z" fill="#E9B376"/>
<path d="M68.7811 76.1216C68.3205 70.7807 67.2701 62.3856 65.0521 63.3916C63.6341 64.0259 62.7413 64.4581 62.01 65.0843C61.5293 65.4883 61.4485 66.4701 61.1253 67.5083C60.2284 70.4091 61.8201 91.0454 61.8201 91.0454L56.7297 119.762L67.0641 121.115C67.0641 121.115 69.2457 81.4665 68.7811 76.1216Z" fill="#FE7A36"/>
<path opacity="0.3" d="M68.7811 76.1216C68.3205 70.7807 67.2701 62.3856 65.0522 63.3916C63.6341 64.0259 62.7413 64.4581 62.01 65.0843C61.5293 65.4883 61.4485 66.4701 61.1253 67.5083C60.2284 70.4091 61.901 90.6535 61.901 90.6535L56.7217 119.806L67.0641 121.115C67.0641 121.115 69.2457 81.4665 68.7811 76.1216Z" fill="black"/>
<path opacity="0.3" d="M63.9573 87.0659C63.9573 87.0659 65.6783 77.0426 65.5733 72.3926L62.313 84.9166L63.9573 87.0659Z" fill="black"/>
<path opacity="0.3" d="M61.2061 90.8595C61.669 91.436 62.2577 91.8989 62.9271 92.2129C64.333 92.7987 68.4983 91.5261 68.4983 91.5261L68.5548 89.7485L61.2061 90.8595Z" fill="black"/>
<path d="M65.5652 72.3926C65.3067 72.3926 63.4927 84.052 63.4927 84.052L76.3238 83.7652L77.0429 88.9323C77.0429 88.9323 71.4273 90.2978 65.2138 91.3119C58.8063 92.3542 56.4066 89.5181 56.3783 85.1711C56.35 81.1836 57.9943 71.4997 57.9943 71.4997C58.8265 67.686 60.4627 66.28 62.4746 64.7166L65.5652 72.3926Z" fill="#FE7A36"/>
<path opacity="0.3" d="M65.5652 72.3926C65.3067 72.3926 63.4927 84.052 63.4927 84.052L76.3238 83.7652L77.0429 88.9323C77.0429 88.9323 71.4273 90.2978 65.2138 91.3119C58.8063 92.3542 56.4066 89.5181 56.3783 85.1711C56.35 81.1836 57.9943 71.4997 57.9943 71.4997C58.8265 67.686 60.4627 66.28 62.4746 64.7166L65.5652 72.3926Z" fill="black"/>
<path d="M69.0559 42.1572C69.0559 42.1572 70.583 39.8786 74.6392 39.5797C78.6953 39.2807 83.2403 40.4564 85.4381 46.0194L83.6645 46.4638C84.8476 50.6515 85.3657 54.999 85.1997 59.3474C85.1997 59.3474 72.7646 61.0119 64.721 59.6261C64.6872 55.8494 64.9683 52.0765 65.5613 48.3465C66.5592 41.7896 69.0559 42.1572 69.0559 42.1572Z" fill="#263238"/>
<path d="M69.3589 62.3088C69.3589 62.3088 71.185 63.6016 73.5484 65.4802C74.042 65.8716 74.5772 66.2075 75.1442 66.4821C76.6753 67.2174 78.057 67.6174 78.3964 66.8861C78.4736 66.7208 78.5318 66.5474 78.5701 66.369C78.8367 65.157 78.6388 63.4521 77.6328 62.7128C76.4976 61.8806 75.936 61.1493 76.0895 59.9535C76.1881 59.2456 76.3726 58.5523 76.639 57.889L75.3381 57.174L70.6234 52.7744C71.2536 55.558 71.6819 60.5554 69.3589 62.3088Z" fill="#E9B376"/>
<path opacity="0.2" d="M76.0612 60.1958C74.7846 59.505 73.3665 58.2768 73.4716 56.8022C73.5061 56.2618 73.6051 55.7274 73.7665 55.2104L76.4288 58.4627C76.2471 59.0262 76.1239 59.607 76.0612 60.1958Z" fill="black"/>
<path d="M69.5406 47.6477C70.1506 52.2896 70.3122 54.2611 72.813 56.6084C76.5742 60.1434 82.105 58.689 82.8645 54.0309C83.5634 49.8414 82.4605 42.9532 77.7983 41.1756C73.217 39.4222 68.9305 43.0057 69.5406 47.6477Z" fill="#E9B376"/>
<path d="M75.8794 48.9284C75.9238 49.4172 76.2066 49.8131 76.5137 49.8091C76.8207 49.8051 77.0348 49.4051 76.9904 48.9082C76.946 48.4113 76.6672 48.0194 76.3602 48.0275C76.0531 48.0355 75.839 48.4355 75.8794 48.9284Z" fill="#263238"/>
<path d="M80.6142 48.7183C80.6546 49.195 80.9374 49.5747 81.2445 49.5707C81.5515 49.5667 81.7616 49.1667 81.7212 48.694C81.6808 48.2213 81.398 47.8375 81.091 47.8416C80.7839 47.8456 80.5698 48.2415 80.6142 48.7183Z" fill="#263238"/>
<path d="M74.5986 47.268C74.6283 47.2699 74.658 47.2655 74.6859 47.255C74.7138 47.2446 74.7391 47.2283 74.7602 47.2074C74.9539 47.0076 75.1938 46.8585 75.4587 46.7732C75.7236 46.688 76.0054 46.6692 76.2792 46.7185C76.3074 46.7263 76.3369 46.7281 76.3658 46.7238C76.3947 46.7195 76.4224 46.7093 76.4471 46.6937C76.4718 46.6781 76.493 46.6575 76.5093 46.6333C76.5256 46.609 76.5367 46.5817 76.5418 46.5529C76.5509 46.4922 76.5374 46.4303 76.5039 46.379C76.4704 46.3276 76.4192 46.2903 76.36 46.2741C76.0148 46.2024 75.657 46.2193 75.3201 46.3231C74.9831 46.4269 74.6779 46.6144 74.4329 46.868C74.3912 46.9123 74.3679 46.9708 74.3679 47.0316C74.3679 47.0925 74.3912 47.151 74.4329 47.1952C74.4769 47.2396 74.5361 47.2656 74.5986 47.268Z" fill="#263238"/>
<path d="M81.6849 46.3346C81.7084 46.3245 81.7296 46.3096 81.747 46.2908C81.7644 46.272 81.7777 46.2498 81.7859 46.2255C81.8027 46.1695 81.7994 46.1093 81.7766 46.0554C81.7537 46.0015 81.7127 45.9574 81.6606 45.9306C81.3753 45.7611 81.0513 45.6676 80.7196 45.6591C80.3878 45.6506 80.0594 45.7274 79.7659 45.8821C79.7233 45.9188 79.6956 45.9699 79.6881 46.0256C79.6806 46.0814 79.6937 46.1379 79.725 46.1846C79.7563 46.2314 79.8037 46.265 79.8581 46.2792C79.9125 46.2935 79.9702 46.2873 80.0204 46.2619C80.2548 46.1445 80.5151 46.0882 80.777 46.0981C81.039 46.108 81.2943 46.1838 81.5192 46.3184C81.5701 46.3455 81.6297 46.3513 81.6849 46.3346Z" fill="#263238"/>
<path d="M78.97 48.5525C79.4292 49.5305 79.9869 50.4591 80.6344 51.3239C80.6684 51.3682 80.6918 51.4197 80.7027 51.4744C80.7136 51.5292 80.7117 51.5857 80.6973 51.6396C80.6828 51.6935 80.6562 51.7433 80.6194 51.7853C80.5825 51.8272 80.5366 51.8601 80.485 51.8814C80.0845 52.0189 79.6538 52.0427 79.2406 51.9501L78.97 48.5525Z" fill="#D58745"/>
<path d="M76.1865 48.0518L77.245 47.7568C77.245 47.7568 76.6915 48.577 76.1865 48.0518Z" fill="#263238"/>
<path d="M80.9294 47.8657L81.9879 47.5708C81.9879 47.5708 81.4385 48.3909 80.9294 47.8657Z" fill="#263238"/>
<path d="M72.3564 50.2332C72.3564 50.2332 73.4714 46.8679 72.8331 44.1732C72.8331 44.1732 81.4222 40.2665 82.9089 48.8556C82.9089 48.8556 81.7575 39.2929 74.3521 40.0322C66.9468 40.7715 66.4176 52.0431 70.6273 54.7903C70.6273 54.8146 71.3868 52.6047 72.3564 50.2332Z" fill="#263238"/>
<path d="M68.2761 51.4977C68.8029 52.3419 69.6424 52.9432 70.6112 53.1703C71.8555 53.4329 72.4171 51.425 71.9444 50.2049C71.7259 49.6561 71.3182 49.2037 70.795 48.9295C70.2718 48.6553 69.6678 48.5775 69.0922 48.7101C67.9246 48.9929 67.6095 50.4311 68.2761 51.4977Z" fill="#E9B376"/>
<path opacity="0.2" d="M70.878 51.2472C70.8531 51.2473 70.8291 51.2384 70.8105 51.222C70.7919 51.2056 70.7799 51.1829 70.777 51.1583C70.7311 50.7401 70.5221 50.357 70.1952 50.0922C69.8684 49.8274 69.4502 49.7024 69.0317 49.7443C69.0047 49.7456 68.9781 49.7368 68.9572 49.7196C68.9363 49.7024 68.9225 49.6781 68.9186 49.6514C68.9175 49.6381 68.919 49.6247 68.9231 49.6121C68.9271 49.5994 68.9337 49.5876 68.9423 49.5775C68.951 49.5674 68.9615 49.559 68.9734 49.553C68.9853 49.5469 68.9982 49.5433 69.0115 49.5423C69.2468 49.5189 69.4845 49.5421 69.7109 49.6107C69.9372 49.6793 70.1478 49.7919 70.3306 49.942C70.5133 50.0921 70.6647 50.2768 70.776 50.4855C70.8872 50.6942 70.9562 50.9229 70.979 51.1583C70.9812 51.1845 70.9732 51.2105 70.9566 51.2308C70.94 51.2512 70.9162 51.2643 70.8901 51.2674L70.878 51.2472Z" fill="black"/>
<path d="M77.7377 53.5177C77.4202 53.5098 77.1114 53.4123 76.8469 53.2364C76.5824 53.0606 76.373 52.8135 76.2429 52.5238C76.2375 52.5116 76.2346 52.4985 76.2344 52.4852C76.2341 52.4719 76.2365 52.4586 76.2414 52.4462C76.2463 52.4338 76.2536 52.4225 76.2628 52.413C76.2721 52.4034 76.2832 52.3958 76.2954 52.3905C76.3206 52.381 76.3486 52.3816 76.3734 52.3921C76.3982 52.4027 76.418 52.4223 76.4287 52.4471C76.5716 52.7729 76.8289 53.035 77.152 53.1839C77.4751 53.3328 77.8416 53.3581 78.1821 53.2551C78.1948 53.2515 78.2082 53.2505 78.2213 53.2522C78.2344 53.254 78.2471 53.2584 78.2584 53.2652C78.2698 53.272 78.2796 53.2811 78.2873 53.2918C78.295 53.3026 78.3005 53.3148 78.3033 53.3278C78.3094 53.3535 78.3052 53.3806 78.2917 53.4032C78.2781 53.4259 78.2561 53.4423 78.2306 53.449C78.0697 53.4921 77.9042 53.5152 77.7377 53.5177Z" fill="#263238"/>
<path d="M101.634 78.5374C101.634 78.5374 101.444 76.9214 102.293 75.8791C103.141 74.8368 103.537 73.7783 104.22 73.0511C104.903 72.3239 104.85 73.6692 104.676 74.3802C104.503 75.0913 104.317 75.9033 104.87 75.9478C105.424 75.9922 109.763 73.9278 110.526 74.0772C111.29 74.2267 110.696 74.7802 110.696 74.7802C110.696 74.7802 111.763 74.3075 112.062 74.6792C112.142 74.7762 112.167 75.1276 111.714 75.4185C110.696 76.073 108.482 77.3375 108.482 77.3375C108.607 77.2608 111.443 75.8952 111.896 75.7458C112.486 75.5518 112.862 75.7458 112.963 76.1053C113.108 76.5982 109.654 78.4122 109.561 78.5899C109.561 78.5899 111.516 77.4789 112.078 77.8264C112.639 78.1738 111.448 78.9414 110.268 79.4181C109.185 79.8504 107.177 80.9897 106.038 81.329C104.628 81.733 103.59 81.7048 102.689 80.6624C102.16 80.0566 101.797 79.3246 101.634 78.5374Z" fill="#E9B376"/>
<path opacity="0.3" d="M108.066 76.1699C108.057 76.1696 108.049 76.1673 108.041 76.1631C108.033 76.1588 108.027 76.1529 108.022 76.1457C108.016 76.1338 108.014 76.1201 108.018 76.1074C108.022 76.0946 108.03 76.0838 108.042 76.077C108.85 75.6043 109.678 75.1599 110.522 74.764C110.528 74.7613 110.535 74.7598 110.541 74.7596C110.547 74.7593 110.554 74.7604 110.56 74.7626C110.566 74.7649 110.571 74.7683 110.576 74.7727C110.581 74.7771 110.584 74.7824 110.587 74.7882C110.59 74.794 110.592 74.8003 110.593 74.8069C110.594 74.8135 110.593 74.8201 110.59 74.8263C110.588 74.8325 110.584 74.8381 110.58 74.8427C110.575 74.8473 110.569 74.8508 110.563 74.8529C109.727 75.2569 108.894 75.6932 108.09 76.1659L108.066 76.1699Z" fill="black"/>
<path opacity="0.3" d="M108.822 79.0951C108.81 79.0943 108.798 79.0895 108.789 79.0814C108.781 79.0734 108.775 79.0625 108.773 79.0507C108.553 77.863 107.991 76.7652 107.157 75.8914C107.153 75.8869 107.149 75.8815 107.147 75.8757C107.144 75.8698 107.143 75.8634 107.143 75.8571C107.143 75.8507 107.144 75.8444 107.147 75.8385C107.149 75.8326 107.153 75.8272 107.157 75.8227C107.167 75.8133 107.18 75.8081 107.193 75.8081C107.207 75.8081 107.22 75.8133 107.23 75.8227C108.069 76.714 108.63 77.8299 108.846 79.0345C108.847 79.0409 108.847 79.0474 108.845 79.0538C108.844 79.0601 108.841 79.0661 108.838 79.0713C108.834 79.0766 108.829 79.0811 108.823 79.0845C108.818 79.0879 108.812 79.0901 108.805 79.0911L108.822 79.0951Z" fill="black"/>
<path opacity="0.3" d="M103.699 79.0909C103.687 79.0923 103.676 79.0894 103.666 79.0828C103.656 79.0762 103.649 79.0663 103.646 79.055C103.643 79.0437 103.645 79.0317 103.65 79.0212C103.655 79.0107 103.664 79.0025 103.675 78.998C104.101 78.7737 104.44 78.4122 104.636 77.9718C104.821 77.5241 104.847 77.0263 104.709 76.5619C104.705 76.5485 104.707 76.5342 104.714 76.522C104.721 76.5099 104.732 76.501 104.745 76.4972C104.751 76.4954 104.758 76.4947 104.764 76.4953C104.77 76.496 104.777 76.4978 104.782 76.5008C104.788 76.5038 104.793 76.5079 104.797 76.5128C104.801 76.5178 104.804 76.5235 104.806 76.5296C104.954 77.0169 104.926 77.5405 104.729 78.0098C104.531 78.4791 104.175 78.8644 103.723 79.099L103.699 79.0909Z" fill="black"/>
<path d="M114.171 33.5318C115.185 32.9824 111.662 36.1336 112.045 39.2403C112.429 42.3471 113.165 49.7726 113.165 49.7726L120.275 47.8819L114.171 33.5318Z" fill="#263238"/>
<path d="M155.904 74.8328L145.214 81.8988C144.89 81.5747 144.593 81.2247 144.325 80.8524C142.891 78.998 140.823 75.661 140.156 74.5662L134.767 82.6462C136.342 84.2904 142.766 88.6496 143.849 88.8274C146.656 89.292 157.892 77.1316 157.892 77.1316L155.904 74.8328Z" fill="#E9B376"/>
<path d="M116.138 49.7566C113.714 50.7989 109.88 57.5659 109.88 57.5659L110.874 59.1577L112.668 59.998C112.668 59.998 115.577 55.2712 117.496 54.4228C119.415 53.5744 116.138 49.7566 116.138 49.7566Z" fill="#FE7A36"/>
<path opacity="0.3" d="M116.138 49.7566C113.714 50.7989 109.88 57.5659 109.88 57.5659L110.874 59.1577L112.668 59.998C112.668 59.998 115.577 55.2712 117.496 54.4228C119.415 53.5744 116.138 49.7566 116.138 49.7566Z" fill="white"/>
<path d="M116.138 49.7566C120.009 47.6575 124.506 47.0195 128.808 47.9588C130.08 48.5809 131.034 49.6232 132.464 57.2508C132.937 59.7879 135.502 59.8323 136.597 62.2644C136.909 62.6903 137.039 63.2229 136.959 63.7448C136.879 64.2668 136.594 64.7356 136.168 65.048C136.032 65.1495 135.883 65.2324 135.724 65.2944C131.914 66.8134 124.756 69.2859 120.659 68.183C120.663 68.187 116.401 58.0184 116.138 49.7566Z" fill="#FE7A36"/>
<path opacity="0.3" d="M116.138 49.7566C120.009 47.6575 124.506 47.0195 128.808 47.9588C130.08 48.5809 131.034 49.6232 132.464 57.2508C132.937 59.7879 135.502 59.8323 136.597 62.2644C136.909 62.6903 137.039 63.2229 136.959 63.7448C136.879 64.2668 136.594 64.7356 136.168 65.048C136.032 65.1495 135.883 65.2324 135.724 65.2944C131.914 66.8134 124.756 69.2859 120.659 68.183C120.663 68.187 116.401 58.0184 116.138 49.7566Z" fill="white"/>
<path d="M136.08 87.2638C140.079 97.7112 143.069 104.515 143.069 104.515L140.495 105.848C140.495 105.848 134.589 99.5575 129.224 88.5929C127.931 85.9609 126.776 83.264 125.761 80.5129L132.464 74.8569C133.399 79.0665 134.607 83.2109 136.08 87.2638Z" fill="#E9B376"/>
<path opacity="0.2" d="M125.761 80.5292L130.581 77.9719C131.236 81.2241 134.181 80.6302 135.332 85.155C133.817 85.6075 129.854 86.7024 128.234 86.5125C127.273 84.5772 126.447 82.5781 125.761 80.5292Z" fill="black"/>
<path d="M139.012 104.208L142.41 103.101C142.465 103.08 142.526 103.081 142.579 103.104C142.633 103.128 142.675 103.171 142.697 103.226L143.739 105.864C143.784 106.004 143.772 106.157 143.705 106.288C143.639 106.42 143.523 106.52 143.384 106.567C142.192 106.935 141.602 107.036 140.107 107.525C138.79 108.01 137.44 108.403 136.067 108.7C134.746 108.91 134.581 107.597 135.122 107.383C136.399 106.894 137.897 105.48 138.532 104.531C138.65 104.372 138.82 104.258 139.012 104.208Z" fill="#263238"/>
<path d="M137.469 105.113C137.403 105.077 137.348 105.024 137.31 104.959C137.272 104.894 137.253 104.82 137.255 104.745C137.249 104.698 137.255 104.651 137.272 104.608C137.289 104.564 137.316 104.525 137.352 104.495C137.675 104.228 138.726 104.527 138.847 104.567C138.86 104.574 138.871 104.583 138.88 104.594C138.889 104.605 138.896 104.618 138.899 104.632C138.901 104.646 138.898 104.661 138.891 104.673C138.884 104.686 138.872 104.695 138.859 104.701C138.616 104.854 138.358 104.98 138.087 105.076C137.893 105.165 137.673 105.178 137.469 105.113ZM137.469 104.62C137.45 104.634 137.436 104.654 137.428 104.676C137.419 104.698 137.417 104.722 137.421 104.745C137.421 104.792 137.432 104.838 137.455 104.879C137.478 104.92 137.51 104.955 137.55 104.979C137.74 105.072 138.144 104.959 138.649 104.693C138.245 104.579 137.639 104.49 137.461 104.636L137.469 104.62Z" fill="#FE7A36"/>
<path d="M138.807 104.725C138.447 104.644 137.789 104.155 137.752 103.804C137.744 103.74 137.758 103.677 137.792 103.623C137.826 103.569 137.878 103.529 137.938 103.509C137.991 103.485 138.048 103.472 138.106 103.472C138.163 103.472 138.221 103.485 138.273 103.509C138.677 103.707 138.887 104.612 138.9 104.636C138.9 104.661 138.891 104.685 138.875 104.704C138.87 104.707 138.865 104.709 138.859 104.709C138.853 104.709 138.848 104.707 138.843 104.704C138.834 104.716 138.821 104.723 138.807 104.725ZM137.999 103.642C137.982 103.644 137.967 103.65 137.953 103.659C137.939 103.668 137.927 103.679 137.918 103.693C137.908 103.707 137.902 103.722 137.899 103.738C137.897 103.755 137.897 103.771 137.902 103.787C138.066 104.134 138.354 104.407 138.71 104.551C138.633 104.264 138.439 103.775 138.197 103.662C138.17 103.649 138.141 103.643 138.112 103.643C138.082 103.643 138.053 103.649 138.027 103.662L137.999 103.642Z" fill="#FE7A36"/>
<path d="M156.986 78.0648L154.676 75.3459C154.634 75.303 154.611 75.2458 154.611 75.1863C154.611 75.1268 154.634 75.0696 154.676 75.0267L156.72 73.0592C156.833 72.9645 156.979 72.9178 157.126 72.9292C157.273 72.9405 157.41 73.0089 157.508 73.1198C158.316 74.0813 158.643 74.5823 159.637 75.7741C160.588 76.8025 161.464 77.8974 162.259 79.0505C162.95 80.1979 161.802 80.8443 161.406 80.4241C160.469 79.4263 158.578 78.5819 157.467 78.3557C157.28 78.3114 157.112 78.2097 156.986 78.0648Z" fill="#263238"/>
<path d="M158.401 79.1353C158.393 79.2097 158.364 79.2804 158.319 79.3396C158.273 79.3988 158.212 79.4441 158.142 79.4706C158.102 79.4944 158.056 79.507 158.009 79.507C157.962 79.507 157.916 79.4944 157.875 79.4706C157.496 79.2727 157.391 78.1859 157.378 78.0607C157.379 78.0472 157.382 78.034 157.389 78.0221C157.395 78.0103 157.404 77.9999 157.415 77.992C157.427 77.984 157.441 77.9797 157.455 77.9797C157.47 77.9797 157.484 77.984 157.496 77.992C157.73 78.1581 157.944 78.3506 158.134 78.5657C158.214 78.638 158.279 78.7256 158.325 78.8235C158.371 78.9213 158.396 79.0274 158.401 79.1353ZM157.956 79.3373C157.976 79.3491 157.998 79.3553 158.021 79.3553C158.044 79.3553 158.066 79.3491 158.085 79.3373C158.13 79.3206 158.169 79.2923 158.199 79.2553C158.229 79.2184 158.248 79.1742 158.255 79.1272C158.255 78.9172 158.013 78.5859 157.556 78.2263C157.617 78.6586 157.758 79.2323 157.96 79.3414L157.956 79.3373Z" fill="#FE7A36"/>
<path d="M157.536 78.0444C157.597 78.4242 157.399 79.1999 157.087 79.3696C157.031 79.3989 156.966 79.4089 156.904 79.3979C156.841 79.387 156.783 79.3557 156.74 79.309C156.697 79.2706 156.664 79.223 156.642 79.1698C156.62 79.1167 156.611 79.0593 156.615 79.0019C156.647 78.5535 157.403 78.0121 157.423 77.996C157.434 77.99 157.446 77.9868 157.459 77.9868C157.472 77.9868 157.484 77.99 157.496 77.996C157.498 77.9997 157.499 78.0038 157.499 78.0081C157.499 78.0123 157.498 78.0165 157.496 78.0202C157.511 78.0248 157.525 78.0332 157.536 78.0444ZM156.853 79.1837C156.872 79.2107 156.9 79.2298 156.932 79.2373C156.964 79.2447 156.998 79.24 157.027 79.2241C157.274 78.9349 157.409 78.5663 157.407 78.1859C157.172 78.3717 156.789 78.7313 156.772 78.9939C156.768 79.024 156.77 79.0546 156.779 79.0838C156.787 79.113 156.801 79.1402 156.821 79.1635L156.853 79.1837Z" fill="#FE7A36"/>
<path d="M124.933 48.1283C124.933 48.1283 122.804 50.5806 120.639 50.8715C118.95 51.0937 119.023 49.6312 119.023 49.6312C119.189 49.3823 119.317 49.1099 119.402 48.8232C119.992 46.9284 118.057 45.5548 118.057 45.5548L119.79 44.6539L123.58 42.6743C122.533 46.3103 124.933 48.1283 124.933 48.1283Z" fill="#E9B376"/>
<path opacity="0.2" d="M123.248 44.2258C123.248 44.2258 122.109 48.1729 119.427 48.8153C120.012 46.9205 118.081 45.5469 118.081 45.5469L119.814 44.646L123.248 44.2258Z" fill="black"/>
<path d="M125.818 37.8627C126.266 41.329 125.111 45.5104 122.384 46.6053C117.366 48.6253 115.132 48.0233 113.767 44.2782C112.522 40.9129 112.631 35.1842 116.732 33.2854C120.833 31.3866 125.188 33.047 125.818 37.8627Z" fill="#E9B376"/>
<path d="M118.206 40.4403C118.279 40.8806 118.101 41.2765 117.827 41.321C117.552 41.3654 117.249 41.0463 117.176 40.6059C117.104 40.1655 117.281 39.7979 117.556 39.7333C117.831 39.6686 118.134 39.9959 118.206 40.4403Z" fill="#263238"/>
<path d="M114.672 40.8403C114.74 41.2443 114.575 41.6483 114.292 41.6847C114.009 41.721 113.742 41.418 113.674 41.0019C113.605 40.5858 113.775 40.1939 114.053 40.1616C114.332 40.1293 114.623 40.4242 114.672 40.8403Z" fill="#263238"/>
<path d="M116.582 38.4444C116.547 38.4243 116.518 38.3931 116.502 38.3555C116.492 38.3312 116.487 38.3051 116.488 38.279C116.489 38.2528 116.495 38.227 116.506 38.2033C116.517 38.1795 116.532 38.1582 116.552 38.1406C116.571 38.123 116.594 38.1096 116.619 38.101C116.914 37.9838 117.234 37.9402 117.55 37.974C117.866 38.0078 118.169 38.1179 118.433 38.2949C118.453 38.3108 118.471 38.3306 118.484 38.3532C118.497 38.3758 118.506 38.4008 118.509 38.4267C118.512 38.4527 118.511 38.479 118.504 38.5042C118.497 38.5294 118.485 38.553 118.469 38.5737C118.436 38.6146 118.389 38.6415 118.338 38.649C118.286 38.6565 118.233 38.644 118.19 38.6141C117.977 38.4775 117.735 38.3947 117.483 38.3729C117.231 38.3511 116.977 38.3909 116.744 38.4889C116.686 38.4957 116.628 38.4798 116.582 38.4444Z" fill="#263238"/>
<path d="M113.213 39.1879C113.171 39.1877 113.131 39.175 113.096 39.1515C113.059 39.1138 113.038 39.063 113.038 39.0101C113.038 38.9573 113.059 38.9065 113.096 38.8687C113.299 38.6238 113.558 38.4321 113.852 38.3103C114.145 38.1885 114.464 38.1403 114.781 38.1698C114.833 38.1768 114.88 38.2042 114.912 38.2458C114.943 38.2875 114.957 38.3401 114.95 38.392C114.941 38.4442 114.911 38.4906 114.869 38.5221C114.826 38.5536 114.773 38.5677 114.72 38.5617C114.468 38.5444 114.216 38.5882 113.984 38.6895C113.753 38.7908 113.549 38.9466 113.391 39.1435C113.367 39.1636 113.338 39.178 113.307 39.1857C113.276 39.1933 113.244 39.1941 113.213 39.1879Z" fill="#263238"/>
<path d="M115.443 41.2402L116.199 43.0219C115.755 43.2125 115.264 43.2659 114.789 43.1754C115.123 42.5754 115.344 41.9197 115.443 41.2402Z" fill="#D58745"/>
<path d="M122.384 40.723C122.384 40.723 122.897 38.4485 124.113 38.905C125.329 39.3616 125.765 42.945 124.145 43.2319C122.525 43.5187 121.863 42.0158 122.384 40.723Z" fill="#E9B376"/>
<path d="M116.397 44.5328C116.796 44.8949 117.168 45.2851 117.512 45.7004L117.758 45.559C118.861 44.8924 119.156 44.2218 119.144 43.6804C119.118 43.2597 118.952 42.8598 118.671 42.5452C118.291 43.2441 117.31 43.939 116.776 44.2864C116.656 44.3769 116.529 44.4592 116.397 44.5328Z" fill="#263238"/>
<path d="M116.756 44.3026L117.095 44.6419C118.134 44.0157 118.78 43.4299 118.918 42.9249C118.849 42.7864 118.76 42.6585 118.655 42.5452C118.291 43.2602 117.31 43.9551 116.756 44.3026Z" fill="white"/>
<path d="M117.758 45.559C118.861 44.8924 119.156 44.2218 119.144 43.6804C118.73 43.9399 118.365 44.2693 118.065 44.6541C117.87 44.916 117.763 45.2326 117.758 45.559Z" fill="#C15854"/>
<path d="M122.008 56.2407C122.008 56.2407 124.105 53.6551 125.361 55.5377C126.921 57.8688 121.972 61.5008 121.972 61.5008C121.972 61.5008 118.409 58.5879 119.354 56.378C120.55 53.5904 122.008 56.2407 122.008 56.2407Z" fill="white"/>
<path d="M119.73 66.6599C118.562 69.5889 119.132 79.5475 121.447 86.1449C121.447 86.1449 124.509 87.0943 133.086 84.6662C140.148 82.6705 144.378 79.9071 144.378 79.9071C141.877 74.7319 137.603 62.5028 136.584 62.1311L119.73 66.6599Z" fill="#FE7A36"/>
<path opacity="0.2" d="M144.378 79.891C144.378 79.891 143.751 80.295 142.588 80.9131C142.034 81.204 141.376 81.5433 140.568 81.9069C139.865 82.2301 139.069 82.5776 138.184 82.921C137.581 83.1687 136.936 83.4125 136.249 83.6522C135.276 83.9956 134.229 84.3349 133.086 84.6541C132.779 84.743 132.484 84.8238 132.193 84.9005C131.652 85.046 131.13 85.1793 130.634 85.2803C129.422 85.5672 128.355 85.7853 127.402 85.9307C126.642 86.056 125.996 86.1408 125.406 86.1934C124.687 86.2708 123.964 86.3058 123.24 86.2984C122.971 86.306 122.701 86.2952 122.432 86.2661C122.087 86.2506 121.745 86.2005 121.41 86.1166C119.099 79.5031 118.53 69.5526 119.697 66.6357L136.552 62.0867C137.603 62.4907 141.877 74.74 144.378 79.891Z" fill="black"/>
<path opacity="0.2" d="M121.168 76.0811L123.261 86.3144C122.991 86.3219 122.721 86.3111 122.453 86.2821L121.168 76.0811Z" fill="black"/>
<path opacity="0.2" d="M125.426 86.2093L123.911 70.7725L127.406 85.9346C126.679 86.0517 126.016 86.1568 125.426 86.2093Z" fill="black"/>
<path opacity="0.2" d="M130.638 85.3085L127.745 69.7302L132.189 84.9166C131.656 85.0459 131.135 85.1792 130.638 85.3085Z" fill="black"/>
<path opacity="0.2" d="M136.253 83.6521L132.464 68.2031L138.204 82.9208C137.586 83.1673 136.956 83.4137 136.253 83.6521Z" fill="black"/>
<path opacity="0.2" d="M142.588 80.913C142.034 81.2038 141.376 81.5432 140.568 81.9068L136.075 67.2295L142.588 80.913Z" fill="black"/>
<path opacity="0.2" d="M145.214 81.8988C145.281 82.5907 145.281 83.2875 145.214 83.9794C145.757 83.2462 146.01 82.3385 145.925 81.4302L145.214 81.8988Z" fill="black"/>
<path opacity="0.2" d="M116.041 55.5416L116.251 52.4106L116.683 54.9195L116.041 55.5416Z" fill="black"/>
<path d="M131.3 44.6176C131.038 44.0479 127.963 33.7783 124.456 31.9441C122.558 30.7725 119.907 30.6594 117.362 31.2331C113.666 32.0411 112.753 34.9297 114.938 36.0811C114.975 36.2588 119.136 37.1072 120.651 39.5029C122.267 42.0643 120.917 43.2359 121.863 45.1185C122.808 47.0012 123.224 47.3082 123.224 47.3082L130.092 45.4296C130.092 45.4296 131.579 45.2478 131.3 44.6176Z" fill="#263238"/>
<path d="M100.063 169.098L96.3419 179.449L92.8716 178.362L93.9583 167.466L100.063 169.098Z" fill="#E9B376"/>
<path d="M96.8955 182.499C96.8147 183.254 96.7582 183.775 96.7582 183.775H93.6191C93.3095 183.605 92.9659 183.506 92.6132 183.485C92.2415 183.533 90.9487 183.783 90.9487 183.783H82.6101C82.6673 183.465 82.7483 183.152 82.8525 182.846C82.9531 182.545 83.0887 182.256 83.2565 181.986C83.4531 181.629 83.7396 181.329 84.0874 181.116C84.4353 180.904 84.8326 180.786 85.2402 180.774C86.4077 180.697 90.0882 178.237 90.0882 178.237C90.4773 178.087 90.8159 177.83 91.0641 177.495C91.3124 177.16 91.4601 176.762 91.49 176.346C91.5143 175.817 92.298 175.166 92.6737 175.11C93.4333 174.996 93.8615 175.481 93.9706 176.241L94.1039 177.126L95.8613 176.851C95.8613 176.851 97.651 175.942 97.5662 176.819" fill="#263238"/>
<g opacity="0.2">
<path d="M82.6101 183.82H90.9487C90.9487 183.82 92.2415 183.569 92.6132 183.521C92.9659 183.542 93.3095 183.641 93.6191 183.812H96.7582C96.7582 183.812 96.8147 183.291 96.8955 182.535L82.8525 182.907C82.7495 183.205 82.6684 183.51 82.6101 183.82Z" fill="white"/>
</g>
<path d="M88.2376 179.194C88.258 179.179 88.2828 179.17 88.3083 179.17C88.3339 179.17 88.3587 179.179 88.379 179.194C88.5932 179.338 88.766 179.536 88.88 179.768C88.9406 179.897 88.7547 180.018 88.6901 179.889C88.5922 179.685 88.4416 179.511 88.2538 179.384C88.2411 179.373 88.2308 179.36 88.2238 179.345C88.2168 179.33 88.2131 179.314 88.2131 179.297C88.2131 179.281 88.2168 179.264 88.2238 179.249C88.2308 179.234 88.2411 179.221 88.2538 179.21L88.2376 179.194Z" fill="#FE7A36"/>
<path d="M88.9003 178.802C88.9207 178.787 88.9455 178.779 88.971 178.779C88.9965 178.779 89.0214 178.787 89.0417 178.802C89.2559 178.947 89.4287 179.144 89.5427 179.376C89.6033 179.501 89.4174 179.626 89.3528 179.497C89.2561 179.292 89.1052 179.118 88.9165 178.992C88.9017 178.983 88.8892 178.971 88.8799 178.956C88.8706 178.942 88.8647 178.925 88.8628 178.908C88.8608 178.891 88.8628 178.874 88.8686 178.857C88.8744 178.841 88.8839 178.826 88.8963 178.814L88.9003 178.802Z" fill="#FE7A36"/>
<path d="M89.5831 178.435C89.6035 178.419 89.6283 178.411 89.6538 178.411C89.6794 178.411 89.7042 178.419 89.7245 178.435C89.9398 178.578 90.1128 178.776 90.2255 179.008C90.2861 179.138 90.1003 179.263 90.0397 179.134C89.9402 178.928 89.7883 178.752 89.5993 178.625C89.5852 178.615 89.5734 178.603 89.5645 178.589C89.5556 178.575 89.5501 178.559 89.5481 178.542C89.5462 178.526 89.548 178.509 89.5533 178.493C89.5587 178.477 89.5675 178.463 89.5791 178.451L89.5831 178.435Z" fill="#FE7A36"/>
<path d="M124.056 167.951L125.697 179.154L129.353 179.303L130.432 168.476L124.056 167.951Z" fill="#E9B376"/>
<path d="M132.512 184.297L124.335 184.377C124.335 184.377 124.153 184.038 124.335 183.121C124.362 182.981 124.403 182.823 124.456 182.648C124.456 182.648 124.456 182.648 124.456 182.624C124.533 182.37 124.618 182.058 124.707 181.719C125.066 180.35 125.491 178.556 125.491 178.556C125.491 178.556 126.824 175.627 128.424 176.338C129.826 176.964 129.514 178.794 129.514 178.794C129.679 179.585 130.106 180.297 130.726 180.814C131.389 181.392 132.044 181.84 132.367 182.563C132.426 182.705 132.474 182.851 132.508 183C132.51 183.019 132.51 183.038 132.508 183.056C132.586 183.466 132.587 183.886 132.512 184.297Z" fill="#263238"/>
<g opacity="0.2">
<path d="M124.351 183.121C124.157 184.038 124.351 184.378 124.351 184.378L132.528 184.297C132.613 183.883 132.62 183.457 132.548 183.04L124.351 183.121Z" fill="white"/>
</g>
<path d="M129.207 179.255C128.993 179.086 128.722 179.003 128.45 179.022C128.177 179.042 127.921 179.162 127.733 179.36C127.62 179.473 127.45 179.303 127.559 179.194C127.793 178.952 128.11 178.806 128.446 178.785C128.783 178.764 129.115 178.869 129.377 179.081C129.502 179.178 129.329 179.348 129.207 179.255Z" fill="#FE7A36"/>
<path d="M129.446 180.018C129.231 179.848 128.961 179.765 128.688 179.784C128.415 179.804 128.159 179.925 127.971 180.123C127.858 180.232 127.688 180.063 127.797 179.954C128.031 179.711 128.348 179.565 128.685 179.545C129.022 179.524 129.354 179.631 129.615 179.845C129.741 179.937 129.567 180.111 129.446 180.018Z" fill="#FE7A36"/>
<path d="M129.684 180.717C129.47 180.547 129.199 180.464 128.926 180.483C128.653 180.503 128.398 180.624 128.21 180.822C128.198 180.834 128.185 180.843 128.17 180.849C128.156 180.855 128.14 180.859 128.124 180.859C128.092 180.859 128.061 180.847 128.038 180.824C128.015 180.802 128.002 180.771 128.001 180.739C128.001 180.707 128.013 180.676 128.036 180.653C128.27 180.411 128.587 180.265 128.924 180.245C129.26 180.225 129.592 180.331 129.854 180.544C129.979 180.64 129.805 180.81 129.684 180.717Z" fill="#FE7A36"/>
<path d="M132.197 97.0852L115.071 97.3963L104.321 97.1781C104.321 97.1781 97.0934 129.789 96.5117 135.922C95.9299 142.054 90.7466 174.374 90.7466 174.374L99.1215 176.144C99.1215 176.144 108.284 141.553 108.935 138.229C109.504 135.336 115.924 116.748 117.564 112.021C117.742 112.983 117.928 113.948 118.114 114.91C118.582 119.249 120.085 133.09 120.731 138.229C120.731 138.229 122.315 167.648 123.903 176.18L131.765 176.116C132.686 163.971 132.932 121.345 132.932 121.345C133.421 112.066 132.197 97.0852 132.197 97.0852Z" fill="#263238"/>
<g opacity="0.5">
<path d="M108.777 101.998C108.287 103.634 107.401 105.123 106.198 106.335C104.995 107.547 103.513 108.444 101.881 108.947C101.707 108.999 101.784 109.278 101.962 109.221C103.641 108.705 105.166 107.783 106.404 106.537C107.641 105.29 108.552 103.757 109.056 102.075C109.062 102.039 109.054 102.003 109.035 101.973C109.015 101.943 108.985 101.921 108.951 101.911C108.916 101.902 108.879 101.906 108.847 101.921C108.815 101.937 108.79 101.965 108.777 101.998Z" fill="black"/>
<path d="M117.746 101.909C117.582 104.785 117.417 107.661 117.253 110.534C117.253 110.72 116.958 110.724 116.966 110.534C117.052 109.058 117.136 107.577 117.217 106.09C116.514 106.644 115.677 105.989 115.439 105.262C115.035 104.078 115.18 102.669 115.463 101.481C115.477 101.448 115.501 101.422 115.533 101.406C115.564 101.391 115.6 101.387 115.634 101.396C115.668 101.405 115.698 101.426 115.718 101.454C115.737 101.483 115.746 101.519 115.742 101.553C115.539 102.386 115.468 103.245 115.532 104.099C115.537 104.556 115.635 105.008 115.819 105.428C116.049 105.872 116.627 106.236 117.083 105.832C117.103 105.814 117.128 105.802 117.154 105.798C117.181 105.794 117.208 105.797 117.233 105.808C117.309 104.507 117.386 103.198 117.459 101.897C117.467 101.727 117.754 101.727 117.746 101.909Z" fill="black"/>
<path d="M126.198 102.317C126.204 104.151 126.903 105.915 128.155 107.255C129.407 108.595 131.119 109.413 132.948 109.545C133.13 109.545 133.126 109.274 132.948 109.262C131.192 109.135 129.549 108.348 128.35 107.059C127.15 105.77 126.484 104.074 126.484 102.313C126.484 102.276 126.469 102.24 126.443 102.213C126.416 102.187 126.38 102.172 126.343 102.172C126.305 102.172 126.269 102.187 126.243 102.213C126.216 102.24 126.202 102.276 126.202 102.313L126.198 102.317Z" fill="black"/>
</g>
<path d="M97.8449 57.4285C94.4594 59.4161 91.9263 71.4553 91.9263 71.4553L101.404 74.55L104.693 67.6537L97.8449 57.4285Z" fill="#FE7A36"/>
<path opacity="0.2" d="M100.099 67.286L99.5578 73.9924L97.1782 73.1844C98.1397 70.6149 97.663 61.1331 97.663 61.1331C97.663 61.1331 99.2265 65.5851 100.099 67.286Z" fill="black"/>
<path d="M99.7195 56.5598C102.144 55.8649 110.199 53.0571 120.663 52.843L125.483 63.1046L130.682 88.4112C130.682 88.4112 131.704 91.3119 132.561 96.8427C122.986 103.218 109.876 103.08 102.261 100.402C101.962 97.1376 102.471 97.7719 101.76 91.4816C100.507 80.4039 98.1237 67.69 97.7197 57.5456C97.7682 57.3072 99.4771 56.6366 99.7195 56.5598Z" fill="#FE7A36"/>
<path d="M114.304 53.0733C112.425 49.9181 109.565 47.4173 109.601 42.739L103.788 51.4654C104.065 51.762 104.322 52.078 104.555 52.4108C104.995 53.0029 105.273 53.6989 105.363 54.4308C105.42 55.0368 104.341 56.3579 104.341 56.3579C104.341 56.3579 107.088 57.8284 111.722 56.269C114.481 55.3479 114.304 53.0733 114.304 53.0733Z" fill="#E9B376"/>
<path opacity="0.2" d="M108.531 46.8921C110.082 50.3705 107.02 53.2632 105.371 54.4186C105.278 53.6938 105 53.0051 104.563 52.4188L108.531 46.8921Z" fill="black"/>
<path d="M109.419 40.4523C109.743 45.0983 110.017 47.7243 107.989 50.3665C104.943 54.3539 99.1013 53.0248 97.3964 48.5525C95.8612 44.5125 95.5946 37.6001 99.881 35.2205C100.831 34.6926 101.899 34.4142 102.986 34.4112C104.072 34.4081 105.142 34.6806 106.095 35.2032C107.047 35.7258 107.852 36.4813 108.433 37.3993C109.015 38.3172 109.354 39.3676 109.419 40.4523Z" fill="#E9B376"/>
<path d="M108.034 33.8551C106.05 31.2291 101.941 33.1805 100.334 34.7116C100.091 34.9379 104.111 36.3276 103.873 36.2872L105.085 37.4346C105.254 37.374 105.489 38.9779 105.715 40.3717C105.905 41.6479 106.44 42.8479 107.262 43.842C108.062 44.8233 108.961 45.7195 109.945 46.5165C111.452 45.5186 111.177 42.7027 111.468 40.9696C111.908 38.3799 112.147 33.5077 108.034 33.8551Z" fill="#263238"/>
<path d="M111.746 44.056C111.642 44.625 111.427 45.1678 111.112 45.6531C110.797 46.1385 110.389 46.5568 109.912 46.884C108.623 47.7485 107.912 46.3103 107.856 44.8397C107.799 43.5186 107.973 41.8744 109.472 41.6077C110.971 41.3411 111.989 42.642 111.746 44.056Z" fill="#E9B376"/>
<path d="M104.204 42.4885C104.268 42.9612 104.066 43.3733 103.755 43.4137C103.444 43.4541 103.145 43.0986 103.085 42.6259C103.024 42.1532 103.222 41.7411 103.533 41.7048C103.844 41.6684 104.143 42.0158 104.204 42.4885Z" fill="#263238"/>
<path d="M98.8709 43.2884C98.9315 43.7611 98.7336 44.1732 98.4225 44.2095C98.1114 44.2459 97.8125 43.8944 97.7519 43.4258C97.6913 42.9571 97.8892 42.541 98.2003 42.5006C98.5114 42.4602 98.8103 42.8238 98.8709 43.2884Z" fill="#263238"/>
<path d="M99.8529 42.8884C99.8529 42.8884 98.6651 45.4296 98.3096 46.4477C99.0449 46.9527 100.14 46.5325 100.14 46.5325L99.8529 42.8884Z" fill="#D58745"/>
<path d="M103.856 40.2706C103.822 40.2913 103.783 40.3022 103.743 40.3022C103.703 40.3022 103.664 40.2913 103.63 40.2706C103.391 40.1216 103.121 40.0301 102.84 40.0035C102.56 39.9768 102.277 40.0157 102.014 40.1171C101.988 40.1302 101.959 40.138 101.93 40.14C101.901 40.1421 101.871 40.1383 101.844 40.1289C101.816 40.1195 101.79 40.1047 101.768 40.0853C101.746 40.066 101.728 40.0424 101.715 40.0161C101.702 39.9902 101.694 39.9619 101.692 39.9329C101.69 39.9039 101.694 39.8749 101.704 39.8474C101.713 39.8199 101.728 39.7946 101.747 39.7729C101.766 39.7513 101.79 39.7337 101.816 39.7212C102.142 39.5869 102.495 39.5322 102.847 39.5617C103.198 39.5912 103.537 39.7041 103.836 39.8908C103.862 39.9051 103.884 39.9243 103.902 39.9474C103.92 39.9705 103.933 39.997 103.941 40.0252C103.948 40.0535 103.95 40.083 103.946 40.112C103.942 40.1409 103.932 40.1688 103.917 40.1938C103.903 40.2238 103.882 40.2501 103.856 40.2706Z" fill="#263238"/>
<path opacity="0.2" d="M108.603 44.6783C108.577 44.6783 108.551 44.6677 108.532 44.6487C108.513 44.6298 108.502 44.6041 108.502 44.5773C108.493 44.154 108.596 43.7357 108.801 43.3653C108.964 43.0429 109.234 42.7872 109.565 42.6421C109.739 42.5684 109.931 42.5486 110.116 42.5854C110.301 42.6221 110.471 42.7137 110.603 42.8482C110.622 42.8671 110.632 42.8924 110.632 42.9189C110.632 42.9453 110.622 42.9707 110.603 42.9896C110.594 42.9994 110.582 43.0071 110.57 43.0124C110.557 43.0177 110.544 43.0205 110.53 43.0205C110.517 43.0205 110.503 43.0177 110.491 43.0124C110.478 43.0071 110.467 42.9994 110.458 42.9896C110.353 42.8878 110.22 42.819 110.077 42.7917C109.933 42.7644 109.785 42.7798 109.65 42.8361C109.363 42.9664 109.13 43.19 108.987 43.4703C108.802 43.8094 108.709 44.191 108.716 44.5773C108.716 44.6045 108.706 44.6306 108.687 44.6502C108.668 44.6698 108.643 44.6813 108.615 44.6823L108.603 44.6783Z" fill="black"/>
<path d="M96.0754 41.612C96.0323 41.608 95.9915 41.5911 95.9582 41.5635C95.9114 41.5268 95.881 41.4732 95.8734 41.4142C95.8659 41.3552 95.8818 41.2957 95.9178 41.2484C96.1287 40.9666 96.4044 40.7397 96.7216 40.5871C97.0388 40.4345 97.3881 40.3606 97.7399 40.3717C97.7691 40.3741 97.7975 40.3822 97.8235 40.3956C97.8496 40.4089 97.8727 40.4273 97.8917 40.4496C97.9106 40.4719 97.925 40.4978 97.9339 40.5257C97.9429 40.5535 97.9463 40.5829 97.9439 40.6121C97.9415 40.6412 97.9334 40.6697 97.92 40.6957C97.9067 40.7218 97.8883 40.7449 97.866 40.7639C97.8436 40.7828 97.8178 40.7972 97.7899 40.8061C97.7621 40.8151 97.7327 40.8185 97.7035 40.8161C97.4244 40.8071 97.1473 40.8673 96.8971 40.9914C96.6468 41.1154 96.4312 41.2995 96.2693 41.5271C96.2461 41.5557 96.2164 41.5784 96.1827 41.5931C96.1489 41.6079 96.1121 41.6144 96.0754 41.612Z" fill="#263238"/>
<path d="M108.034 33.8551C107.14 32.7381 105.96 31.885 104.62 31.3868C103.279 30.8887 101.828 30.7644 100.422 31.0271C96.4187 31.722 94.1846 34.4894 93.9584 37.2487C93.8552 38.1751 93.9857 39.1127 94.3381 39.9757C94.3828 40.0828 94.4592 40.1738 94.557 40.2363C94.6548 40.2989 94.7694 40.33 94.8854 40.3256C95.0015 40.3212 95.1134 40.2815 95.2062 40.2117C95.299 40.142 95.3682 40.0455 95.4047 39.9353C95.4573 39.7972 95.518 39.6622 95.5865 39.5313C95.5996 39.5643 95.6145 39.5967 95.6309 39.6282C95.6883 39.7362 95.7785 39.8232 95.8885 39.8767C95.9985 39.9302 96.1226 39.9474 96.243 39.9258C96.3633 39.9043 96.4738 39.8451 96.5584 39.7567C96.643 39.6684 96.6973 39.5555 96.7137 39.4343C96.7272 39.2569 96.7569 39.0811 96.8025 38.9091C96.8584 39.0064 96.9417 39.085 97.0421 39.1351C97.1424 39.1852 97.2553 39.2046 97.3666 39.1908C97.478 39.177 97.5827 39.1306 97.6678 39.0575C97.7529 38.9844 97.8145 38.8878 97.8449 38.7798C98.0256 38.2301 98.3198 37.7244 98.7085 37.2957C99.0972 36.867 99.5717 36.5248 100.101 36.2913C100.631 36.0577 101.203 35.9381 101.782 35.9402C102.361 35.9423 102.933 36.066 103.46 36.3033L105.109 37.4184C107.125 36.4084 108.034 33.8551 108.034 33.8551Z" fill="#263238"/>
<path d="M102.212 47.8982C102.772 48.1752 103.312 48.4911 103.828 48.8436C103.901 48.7628 103.982 48.686 104.054 48.6012C105.077 47.4982 105.19 46.6498 105 46.0438C104.9 45.7483 104.732 45.4801 104.511 45.2601C104.392 45.1356 104.256 45.0282 104.107 44.9409C103.913 45.8499 103.044 46.9609 102.552 47.5184C102.321 47.7528 102.212 47.8982 102.212 47.8982Z" fill="#263238"/>
<path d="M102.527 47.5184L103.016 47.781C103.973 46.7428 104.515 45.8863 104.499 45.2601C104.38 45.1353 104.244 45.0279 104.095 44.9409C103.893 45.858 103.02 46.9488 102.527 47.5184Z" fill="white"/>
<path d="M104.042 48.601C105.068 47.4981 105.181 46.6497 104.988 46.0437C104.606 46.469 104.304 46.9588 104.095 47.49C103.962 47.8459 103.944 48.2342 104.042 48.601Z" fill="#C15854"/>
<path d="M103.626 55.9053L105.133 53.4732L108.636 56.0022L112.603 50.4109L115.677 53.2187L111.666 59.4241L107.112 59.0484L103.626 55.9053Z" fill="#FE7A36"/>
<path d="M142.382 61.9412C140.665 59.9212 129.183 56.6084 126.755 55.7236L123.26 62.9674L126.286 63.6744L138.188 66.7448L140.891 70.4898C141.596 69.6693 142.208 68.7722 142.713 67.8154C143.638 66.1388 143.19 62.8866 142.382 61.9412Z" fill="#E9B376"/>
<path opacity="0.2" d="M132.863 57.4728L131.009 64.8983L127.078 63.961L128.444 56.1558C128.444 56.1558 130.492 56.8183 132.863 57.4728Z" fill="black"/>
<path d="M117.512 54.1358C116.813 56.4427 117.144 60.5998 120.667 62.4623C123.172 63.7914 129.009 65.6539 129.009 65.6539L133.247 56.2326C133.247 56.2326 118.675 50.2938 117.512 54.1358Z" fill="#FE7A36"/>
<path opacity="0.3" d="M125.777 64.5551L122.081 62.8018L126.218 66.6842L125.777 64.5551Z" fill="black"/>
<g opacity="0.2">
<path d="M118.34 95.465C120.521 94.9721 122.323 92.6693 123.26 90.6413C124.044 88.8044 124.729 86.9272 125.313 85.0176L121.467 89.9787C120.722 91.0297 119.845 91.9803 118.857 92.8067C117.439 93.8894 115.685 94.4227 113.956 94.855C111.717 95.41 109.443 95.8149 107.149 96.067C110.887 96.4873 114.669 96.2839 118.34 95.465Z" fill="black"/>
</g>
<path d="M112.971 58.079C112.971 58.079 112.312 56.9841 111.46 56.7336C110.607 56.4832 109.941 56.0105 109.302 55.8731C108.664 55.7358 108.87 56.5074 109.274 56.871C109.678 57.2346 110.567 57.679 110.337 57.986C110.106 58.2931 107.234 59.0364 106.963 59.4889C106.692 59.9414 107.206 60.002 107.206 60.002C107.206 60.002 106.563 60.1798 106.551 60.5838C106.539 60.9878 106.987 61.0362 106.987 61.0362C106.987 61.0362 106.563 61.1736 106.725 61.5453C106.886 61.917 109.553 61.5453 109.69 61.6059C109.69 61.6059 108.026 61.5655 107.937 62.0462C107.848 62.527 108.773 62.6078 109.52 62.6967C110.303 62.7499 111.084 62.5639 111.759 62.1634C112.567 61.7028 113.779 61.3231 113.71 60.2484C113.612 59.483 113.36 58.7451 112.971 58.079Z" fill="#E9B376"/>
<path d="M125.959 48.8192C124.137 50.4352 121.333 55.2832 120.081 55.5902C118.829 55.8973 113.12 58.3738 113.12 58.3738L113.379 61.3634C113.379 61.3634 120.897 60.7332 122.707 59.7474C124.517 58.7616 129.038 55.0691 129.939 53.3602C131.652 50.0958 127.579 47.2436 125.959 48.8192Z" fill="#FE7A36"/>
<g opacity="0.3">
<path d="M125.959 48.8192C124.137 50.4352 121.333 55.2832 120.081 55.5902C118.829 55.8973 113.12 58.3738 113.12 58.3738L113.379 61.3634C113.379 61.3634 120.897 60.7332 122.707 59.7474C124.517 58.7616 129.038 55.0691 129.939 53.3602C131.652 50.0958 127.579 47.2436 125.959 48.8192Z" fill="white"/>
</g>
</svg>
