<svg width="110" height="115" viewBox="0 0 110 115" fill="none" xmlns="http://www.w3.org/2000/svg">
<path d="M26.2545 8.83116C26.2606 9.94552 25.9356 11.0366 25.3209 11.9661C24.7061 12.8955 23.8292 13.6215 22.8014 14.0521C21.7735 14.4826 20.641 14.5983 19.5473 14.3844C18.4536 14.1705 17.4481 13.6367 16.6581 12.8507C15.8682 12.0647 15.3294 11.0618 15.1101 9.96923C14.8907 8.87665 15.0007 7.74354 15.4261 6.71355C15.8515 5.68356 16.5732 4.80306 17.4996 4.18367C18.426 3.56428 19.5154 3.23389 20.6298 3.23438C22.1169 3.23369 23.5438 3.82224 24.598 4.87118C25.6521 5.92013 26.2478 7.34402 26.2545 8.83116Z" fill="#F5F5F5"/>
<path d="M24.913 8.83073C24.9171 9.67951 24.669 10.5104 24.2004 11.218C23.7317 11.9257 23.0635 12.4783 22.2804 12.8058C21.4973 13.1333 20.6347 13.2209 19.8018 13.0576C18.9688 12.8943 18.2031 12.4874 17.6017 11.8885C17.0003 11.2896 16.5902 10.5256 16.4234 9.69331C16.2566 8.86107 16.3407 7.99805 16.6649 7.21363C16.9891 6.42921 17.5389 5.7587 18.2447 5.28708C18.9504 4.81546 19.7802 4.56396 20.629 4.56446C21.7625 4.5631 22.8503 5.01158 23.6535 5.81145C24.4567 6.61131 24.9097 7.69719 24.913 8.83073Z" fill="#EBEBEB"/>
<path d="M24.9128 8.70635C24.858 8.54094 24.8196 8.37051 24.7984 8.19755C24.7033 7.73613 24.5367 7.29238 24.3048 6.88231C24.1436 6.60294 23.9526 6.34192 23.735 6.10385C23.4862 5.83247 23.2032 5.59472 22.8929 5.39662C22.725 5.28963 22.5499 5.19442 22.3688 5.11169C21.9848 4.93537 21.5767 4.81706 21.1579 4.76062C20.9385 4.73378 20.7174 4.72358 20.4965 4.73009C20.2754 4.73831 20.0552 4.76211 19.8376 4.80132C19.6274 4.8419 19.4207 4.8989 19.2194 4.97177C19.0235 5.04045 18.8337 5.12556 18.6521 5.22617C18.4745 5.3179 18.3044 5.42337 18.1433 5.54162C17.5825 5.95089 17.1309 6.49165 16.828 7.11635C16.6217 7.53888 16.4835 7.99135 16.4184 8.45704C16.4088 8.62898 16.3815 8.79947 16.337 8.96584C16.2843 8.79384 16.2687 8.61262 16.2912 8.43414C16.3097 7.94225 16.4201 7.45818 16.6169 7.00696C16.7494 6.69207 16.9203 6.39473 17.1257 6.12165C17.3631 5.8073 17.6421 5.5266 17.955 5.28722C18.1254 5.15769 18.3048 5.04038 18.4918 4.93615C18.6881 4.83208 18.8922 4.74361 19.1024 4.67158C19.3202 4.59245 19.5439 4.53036 19.7714 4.48587C20.0054 4.43937 20.2428 4.41215 20.4812 4.40446C20.7192 4.39709 20.9574 4.409 21.1935 4.44008C21.4232 4.47012 21.6503 4.51774 21.8728 4.58254C22.0862 4.64654 22.2946 4.72648 22.496 4.82167C22.6895 4.9134 22.8758 5.01971 23.0532 5.13967C23.3815 5.35772 23.6785 5.61963 23.9359 5.91813C24.1573 6.17844 24.3477 6.46358 24.5032 6.76783C24.7291 7.20564 24.8706 7.68201 24.9205 8.17211C24.9578 8.34853 24.9552 8.53107 24.9128 8.70635Z" fill="#E0E0E0"/>
<path d="M21.114 11.4004L21.1395 12.1382H20.473V11.4131C19.8809 11.4027 19.3036 11.2264 18.8066 10.9043L19.1348 10.103C19.5212 10.3648 19.9694 10.5209 20.4348 10.5558L20.4195 9.44409C19.6767 9.27365 18.8448 9.0396 18.8321 8.0856C18.8321 7.38092 19.3256 6.76527 20.3763 6.63044V5.89014H21.0428V6.61772C21.5223 6.63181 21.9915 6.76001 22.4115 6.99169L22.0808 7.81339C21.767 7.63603 21.4211 7.52275 21.0632 7.48013L21.081 8.61475C21.8238 8.77757 22.6404 9.01162 22.6557 9.95289C22.6659 10.6499 22.1571 11.258 21.114 11.4004ZM20.4043 8.46211L20.389 7.51575C20.0379 7.60224 19.9006 7.79813 19.9031 8.02455C19.9056 8.25096 20.1219 8.37562 20.4043 8.46211ZM21.5745 10.0521C21.5745 9.8206 21.3761 9.69595 21.0886 9.59928V10.5202C21.4346 10.4413 21.577 10.2658 21.5745 10.0521Z" fill="#E0E0E0"/>
<path d="M11.7256 36.3318C11.8262 37.0105 11.7231 37.7038 11.4294 38.3239C11.1358 38.944 10.6647 39.4631 10.076 39.8154C9.48719 40.1677 8.80713 40.3374 8.12186 40.303C7.43659 40.2686 6.77693 40.0317 6.22636 39.6223C5.6758 39.2128 5.25908 38.6492 5.02896 38.0028C4.79884 37.3564 4.76566 36.6563 4.93363 35.9911C5.10159 35.3258 5.46314 34.7253 5.97252 34.2657C6.4819 33.806 7.1162 33.5078 7.79515 33.4087C8.70393 33.2755 9.62842 33.5086 10.3654 34.0567C11.1025 34.6048 11.5917 35.4231 11.7256 36.3318Z" fill="#F5F5F5"/>
<path d="M10.9064 36.451C10.9829 36.9683 10.9043 37.4968 10.6804 37.9694C10.4565 38.442 10.0975 38.8376 9.64867 39.1061C9.19987 39.3747 8.68151 39.504 8.15918 39.4778C7.63686 39.4516 7.13404 39.271 6.71438 38.9589C6.29471 38.6468 5.97705 38.2173 5.80161 37.7246C5.62616 37.2319 5.60082 36.6983 5.72877 36.1912C5.85673 35.6841 6.13224 35.2264 6.52044 34.8759C6.90863 34.5255 7.39207 34.298 7.90956 34.2224C8.25266 34.172 8.60235 34.1896 8.93864 34.2743C9.27494 34.359 9.59126 34.5091 9.86954 34.716C10.1478 34.923 10.3826 35.1827 10.5605 35.4804C10.7384 35.7781 10.8559 36.1079 10.9064 36.451Z" fill="#EBEBEB"/>
<path d="M10.8947 36.3691C10.8469 36.2712 10.8085 36.169 10.7803 36.0638C10.6803 35.7894 10.5387 35.532 10.3605 35.3006C10.2374 35.1465 10.0984 35.0058 9.94583 34.8808C9.76947 34.7378 9.57537 34.6181 9.36835 34.5247C9.25712 34.474 9.14234 34.4315 9.02491 34.3975C8.77698 34.3258 8.51975 34.2916 8.26171 34.2957C8.12612 34.2985 7.99093 34.3112 7.85722 34.3339C7.72375 34.3594 7.59204 34.3934 7.4629 34.4357C7.338 34.4794 7.21642 34.5321 7.09911 34.5934C6.98618 34.6525 6.87815 34.7206 6.77602 34.7969C6.67662 34.8692 6.58305 34.9491 6.49618 35.036C6.33348 35.195 6.19235 35.3746 6.07642 35.5703C5.97142 35.7407 5.88607 35.9225 5.82203 36.1121C5.73473 36.3887 5.69012 36.6769 5.68974 36.9669C5.70216 37.0751 5.70216 37.1844 5.68974 37.2926C5.64296 37.1921 5.61783 37.0828 5.61596 36.972C5.58283 36.67 5.607 36.3645 5.68719 36.0714C5.74325 35.8679 5.82265 35.6716 5.92378 35.4863C6.04062 35.2733 6.18613 35.0772 6.35626 34.9037C6.44707 34.8106 6.54581 34.7254 6.65137 34.6493C6.76039 34.5654 6.87611 34.4905 6.99735 34.4255C7.12291 34.357 7.25396 34.2992 7.38912 34.2525C7.52725 34.203 7.66939 34.1655 7.81397 34.1406C7.95857 34.1158 8.10485 34.1022 8.25154 34.0998C8.39455 34.0963 8.53759 34.1057 8.67893 34.1278C8.81503 34.147 8.94943 34.1767 9.08088 34.2169C9.2067 34.2552 9.32921 34.3037 9.44721 34.3619C9.85517 34.5579 10.2057 34.8558 10.4648 35.2268C10.6449 35.4748 10.7769 35.7544 10.854 36.0511C10.8888 36.1533 10.9026 36.2614 10.8947 36.3691Z" fill="#E0E0E0"/>
<path d="M8.81187 38.341L8.88564 38.7938L8.4786 38.8599L8.41755 38.4249C8.05567 38.4709 7.68815 38.4145 7.3567 38.2621L7.49917 37.7304C7.75837 37.8565 8.04602 37.9126 8.3336 37.8932L8.2242 37.2165C7.75611 37.1783 7.22951 37.1097 7.13792 36.5271C7.06923 36.0972 7.32109 35.6774 7.952 35.5095L7.87822 35.0592L8.28526 34.9956L8.35649 35.4383C8.64898 35.4068 8.94475 35.4461 9.21891 35.5527L9.09679 36.0844C8.88748 36.0044 8.66445 35.9664 8.44044 35.9725L8.55238 36.6619C9.01793 36.6975 9.53691 36.7662 9.62849 37.3386C9.68954 37.7533 9.43515 38.168 8.81187 38.341ZM8.1199 36.611L8.02832 36.0514C7.81971 36.1328 7.75357 36.2651 7.77392 36.3999C7.79427 36.5347 7.93165 36.5907 8.1199 36.6187V36.611ZM8.97468 37.4785C8.95179 37.3361 8.82204 37.2776 8.63633 37.2445L8.72537 37.8042C8.92635 37.7355 8.99504 37.6159 8.97468 37.4862V37.4785Z" fill="#E0E0E0"/>
<path d="M100.452 69.7924L99.2617 75.9209L108.355 77.6867L109.545 71.5583L100.452 69.7924Z" fill="#EBEBEB"/>
<path d="M109.562 71.642C109.53 71.667 109.496 71.6891 109.461 71.7081L109.165 71.8786L108.066 72.5019L104.421 74.5371L104.39 74.5523L104.368 74.5269L104.327 74.4658C103.263 73.1938 102.292 72.0694 101.595 71.2375L100.765 70.2453L100.544 69.9731C100.517 69.9434 100.493 69.911 100.473 69.8765C100.503 69.9025 100.532 69.9314 100.557 69.963L100.788 70.2174L101.63 71.1866L104.38 74.3971L104.434 74.4607H104.383L108.041 72.4535L109.153 71.8532L109.455 71.6954C109.489 71.6739 109.525 71.656 109.562 71.642Z" fill="#E0E0E0"/>
<path d="M99.2815 76.0048C99.2662 75.987 100.113 75.2798 101.172 74.425C102.23 73.5702 103.103 72.8986 103.118 72.9113C103.133 72.924 102.286 73.6363 101.225 74.4911C100.164 75.3459 99.2967 76.0226 99.2815 76.0048Z" fill="#E0E0E0"/>
<path d="M106.153 73.4204C106.176 73.4204 106.687 74.3769 107.3 75.5777C107.913 76.7785 108.399 77.7732 108.374 77.7732C108.348 77.7732 107.84 76.8192 107.227 75.6184C106.613 74.4177 106.133 73.4306 106.153 73.4204Z" fill="#E0E0E0"/>
<path d="M81.0719 6.85156C81.0389 6.71583 81.0227 6.57657 81.0236 6.43689C81.0187 6.26606 80.9999 6.0959 80.9676 5.92809C80.9393 5.70242 80.896 5.4789 80.8378 5.25902C80.6934 4.65354 80.4593 4.07303 80.1433 3.53674C79.7308 2.82597 79.1869 2.20007 78.5406 1.69235C77.7624 1.07546 76.85 0.65019 75.8771 0.450879C74.7624 0.221435 73.6067 0.293446 72.5292 0.659486C71.9473 0.851245 71.3982 1.13093 70.901 1.48883C70.6443 1.67135 70.3996 1.87019 70.1683 2.08412C69.939 2.30983 69.7256 2.55125 69.5298 2.80661C68.7035 3.87424 68.24 5.17803 68.2071 6.52767C68.1741 7.87732 68.5734 9.20217 69.3466 10.3088C69.5301 10.5766 69.7315 10.8316 69.9496 11.072C70.1709 11.297 70.4063 11.5077 70.6543 11.703C71.1328 12.0853 71.6673 12.3917 72.2392 12.6112C73.6212 13.1499 75.147 13.1944 76.5582 12.7373C77.9694 12.2802 79.1793 11.3495 79.9831 10.1028C80.3248 9.58231 80.5872 9.01385 80.7615 8.41612C80.8306 8.19954 80.885 7.97856 80.9243 7.75468C80.9623 7.59224 80.9886 7.42731 81.0032 7.26114C81.0104 7.12161 81.0335 6.98335 81.0719 6.84902C81.0864 6.98771 81.0864 7.12754 81.0719 7.26623C81.0719 7.43686 81.0565 7.60714 81.0261 7.77503C80.9992 8.0053 80.955 8.23321 80.8938 8.45682C80.7384 9.0768 80.4878 9.66894 80.151 10.2122C79.6565 11.0147 78.9962 11.7022 78.2143 12.2287C77.4325 12.7552 76.5471 13.1085 75.6176 13.265C74.4391 13.462 73.2292 13.339 72.1145 12.9088C71.5117 12.6803 70.9472 12.3611 70.4405 11.9624C70.1784 11.7578 69.9295 11.5369 69.6952 11.301C69.4645 11.0522 69.2511 10.7878 69.0566 10.5098C68.2358 9.34397 67.8113 7.94527 67.8457 6.51989C67.88 5.09451 68.3714 3.71787 69.2474 2.59292C69.4559 2.32389 69.682 2.06894 69.9241 1.82972C70.1694 1.60401 70.4294 1.39494 70.7026 1.2039C71.2271 0.829707 71.8064 0.538805 72.4198 0.341487C73.4781 -0.0124518 74.6088 -0.0928596 75.7066 0.107749C76.8044 0.308357 77.8336 0.783459 78.6983 1.48883C79.3573 2.0263 79.9059 2.68632 80.3138 3.43244C80.6234 3.98847 80.8449 4.58923 80.9701 5.21323C81.0214 5.43928 81.0554 5.6689 81.0719 5.90011C81.0941 6.06874 81.1009 6.23904 81.0922 6.40891C81.1023 6.55675 81.0954 6.70526 81.0719 6.85156Z" fill="#EBEBEB"/>
<path d="M79.768 2.77616C79.7807 2.79397 79.6637 2.89827 79.4373 3.06618L79.0176 3.36891C78.9336 3.42488 78.8471 3.48848 78.7504 3.54954L78.4273 3.71744C77.2612 4.38249 75.9356 4.71673 74.5935 4.68416L74.0135 4.65872L73.4564 4.56968C73.3648 4.55441 73.2732 4.54424 73.1842 4.52388L72.9298 4.4552C72.7593 4.40941 72.5889 4.3687 72.421 4.31528C71.8531 4.12496 71.3072 3.87421 70.7928 3.56734C69.9177 3.03819 69.4928 2.54975 69.5208 2.52685C69.5488 2.50396 70.0296 2.8881 70.9124 3.34602C71.4308 3.60982 71.9714 3.82773 72.5278 3.99728C72.683 4.04053 72.8458 4.07614 73.0112 4.11685L73.2656 4.18045L73.52 4.21861L74.0517 4.29747L74.6063 4.32037C75.8917 4.34648 77.1643 4.06106 78.3154 3.48848L78.6385 3.34856C78.7377 3.29514 78.8293 3.23917 78.9158 3.19338L79.361 2.93898C79.6078 2.81941 79.7528 2.75581 79.768 2.77616Z" fill="#EBEBEB"/>
<path d="M69.3294 10.7056C69.3142 10.6852 69.4337 10.5834 69.6601 10.4155L70.0799 10.1026C70.1639 10.0467 70.2504 9.98306 70.347 9.92201L70.6676 9.75411C71.8345 9.08861 73.161 8.75435 74.5039 8.78739L75.0839 8.81283L75.6411 8.90187C75.7327 8.91713 75.8242 8.92731 75.9133 8.94512L76.1677 9.01635C76.3381 9.06214 76.5086 9.10284 76.6765 9.15372C77.2446 9.34994 77.7904 9.60577 78.3046 9.91692C79.1772 10.4461 79.6021 10.9345 79.5766 10.9574C79.5512 10.9803 79.0678 10.5962 78.1876 10.1382C77.6734 9.87339 77.1372 9.65378 76.5849 9.4819C76.4297 9.43865 76.2643 9.40303 76.1015 9.35979L75.8471 9.29873L75.5927 9.26057L75.0585 9.18171L74.5064 9.15881C73.2191 9.13266 71.9447 9.41898 70.7922 9.99324L70.4666 10.1332C70.3674 10.1866 70.2783 10.2426 70.1918 10.2883L69.7466 10.5427C69.4897 10.6623 69.3447 10.7259 69.3294 10.7056Z" fill="#EBEBEB"/>
<path d="M81.0684 7.0018C81.0684 7.10102 78.1428 7.11119 74.5431 7.02215C70.9434 6.93311 68.0228 6.79574 68.0254 6.68635C68.0279 6.57695 70.9484 6.57695 74.5507 6.66599C78.153 6.75503 81.071 6.90259 81.0684 7.0018Z" fill="#EBEBEB"/>
<path d="M74.2443 13.209C74.1451 13.209 74.1374 10.2859 74.2239 6.68365C74.3104 3.08136 74.4631 0.165948 74.5623 0.181212C74.6615 0.196476 74.6691 3.10426 74.5826 6.70655C74.4961 10.3088 74.3435 13.2115 74.2443 13.209Z" fill="#EBEBEB"/>
<path d="M74.2428 13.1988C74.2199 13.237 73.5 12.7485 72.6706 11.647C72.1878 10.9972 71.7966 10.2842 71.508 9.52785C71.1546 8.59546 70.9819 7.60432 70.9992 6.60735C71.0245 5.60815 71.2485 4.62399 71.6581 3.71229C71.9878 2.97463 72.4157 2.28491 72.9301 1.66183C73.8078 0.598442 74.5328 0.135436 74.5583 0.165964C74.5837 0.196492 73.935 0.740906 73.1285 1.81701C72.66 2.44715 72.2672 3.13025 71.9583 3.85221C71.5838 4.7283 71.3792 5.66758 71.3554 6.62007C71.339 7.57278 71.4941 8.52067 71.8133 9.41846C72.0793 10.1542 72.4357 10.8541 72.8741 11.502C73.6323 12.6112 74.2784 13.1556 74.2428 13.1988Z" fill="#EBEBEB"/>
<path d="M74.7069 0.18079C74.7323 0.142631 75.4497 0.628532 76.279 1.73262C76.7637 2.38117 77.1566 3.0934 77.4467 3.84923C77.8003 4.78244 77.973 5.77446 77.9555 6.77227C77.9315 7.7708 77.7075 8.75437 77.2966 9.66479C76.9663 10.4029 76.5385 11.0934 76.0246 11.7178C75.147 12.7786 74.4219 13.2442 74.399 13.2111C74.3761 13.178 75.0198 12.6362 75.8262 11.5601C76.2974 10.9316 76.6903 10.2482 76.9965 9.52487C77.3712 8.64797 77.5758 7.7078 77.5994 6.75446C77.6156 5.80198 77.4614 4.85427 77.144 3.95607C76.8772 3.22021 76.52 2.52034 76.0806 1.87254C75.325 0.758277 74.6712 0.208774 74.7069 0.18079Z" fill="#EBEBEB"/>
<path d="M11.38 80.0927L11.7031 79.3753C11.976 78.7485 11.9888 78.0389 11.7385 77.4027C11.6146 77.0877 11.4299 76.8002 11.1949 76.5566C10.9598 76.3129 10.6791 76.118 10.3688 75.9829C10.0584 75.8477 9.72447 75.775 9.38602 75.769C9.04756 75.7629 8.71123 75.8235 8.39621 75.9474C7.76001 76.1977 7.24928 76.6904 6.97636 77.3172L6.63801 78.0448C6.30425 77.9556 5.94959 77.9889 5.63829 78.1387C5.327 78.2885 5.07968 78.5449 4.94116 78.8614L3.10186 83.1149C2.95024 83.4643 2.94269 83.8594 3.08084 84.2144C3.219 84.5693 3.49169 84.8553 3.83962 85.0102L8.26362 86.9309C8.61415 87.0836 9.01094 87.0908 9.3668 86.951C9.72265 86.8113 10.0085 86.5359 10.1614 86.1855L12.0084 81.9345C12.1524 81.6045 12.1679 81.2325 12.0516 80.8917C11.9353 80.5509 11.6958 80.2658 11.38 80.0927ZM7.69631 83.8527L6.54133 83.3439L7.0832 82.5807C6.98965 82.445 6.94254 82.2827 6.94892 82.118C6.9553 81.9533 7.01482 81.7951 7.11859 81.667C7.22235 81.539 7.36478 81.448 7.52458 81.4076C7.68437 81.3672 7.85295 81.3796 8.00509 81.443C8.15723 81.5064 8.28476 81.6174 8.3686 81.7593C8.45245 81.9012 8.48811 82.0664 8.47025 82.2302C8.45239 82.3941 8.38197 82.5477 8.26952 82.6682C8.15706 82.7887 8.00863 82.8696 7.8464 82.8987C7.79298 83.2727 7.69631 83.8527 7.69631 83.8527ZM10.8738 79.8637L7.16461 78.2508L7.48516 77.5411C7.70749 77.0628 8.10789 76.6902 8.60096 76.5029C9.09404 76.3156 9.64078 76.3284 10.1246 76.5384C10.6084 76.7485 10.991 77.1392 11.1909 77.6274C11.3907 78.1155 11.3919 78.6624 11.1943 79.1514L10.8738 79.8637Z" fill="#EBEBEB"/>
<path d="M101.62 33.7156C101.62 34.0744 101.515 34.4252 101.316 34.7238C101.117 35.0223 100.834 35.2552 100.503 35.393C100.171 35.5307 99.8066 35.5672 99.4547 35.4977C99.1027 35.4282 98.7793 35.2559 98.5253 35.0026C98.2712 34.7492 98.098 34.4263 98.0275 34.0745C97.9571 33.7228 97.9925 33.358 98.1293 33.0264C98.2661 32.6947 98.4982 32.4111 98.7962 32.2114C99.0942 32.0117 99.4448 31.9048 99.8035 31.9043C100.042 31.904 100.278 31.9506 100.498 32.0414C100.718 32.1322 100.918 32.2656 101.087 32.4338C101.256 32.602 101.389 32.8017 101.481 33.0217C101.572 33.2416 101.62 33.4774 101.62 33.7156Z" fill="#EBEBEB"/>
<path d="M106.493 30.8966C106.946 30.0029 106.588 28.9115 105.694 28.4591C104.801 28.0066 103.709 28.3644 103.257 29.2581C102.804 30.1519 103.162 31.2433 104.056 31.6957C104.95 32.1482 106.041 31.7904 106.493 30.8966Z" fill="#EBEBEB"/>
<path d="M104.894 39.7441C105.895 39.7427 106.706 38.8577 106.705 37.7674C106.703 36.6771 105.89 35.7944 104.888 35.7958C103.886 35.7972 103.075 36.6822 103.077 37.7725C103.078 38.8628 103.892 39.7455 104.894 39.7441Z" fill="#EBEBEB"/>
<path d="M104.358 37.5376C104.279 37.6521 103.074 36.9678 101.664 36.0113C100.255 35.0547 99.1736 34.1821 99.2499 34.0676C99.3262 33.9532 100.522 34.64 101.944 35.594C103.366 36.548 104.435 37.4232 104.358 37.5376Z" fill="#EBEBEB"/>
<path d="M104.501 29.9462C104.585 30.0556 103.654 30.918 102.42 31.8745C101.187 32.8311 100.131 33.5154 100.034 33.4009C99.9375 33.2865 100.881 32.4291 102.115 31.4751C103.349 30.5211 104.417 29.847 104.501 29.9462Z" fill="#EBEBEB"/>
<path d="M105.416 114.332C105.416 114.368 82.6013 114.398 54.4673 114.398C26.3333 114.398 3.51367 114.368 3.51367 114.332C3.51367 114.297 26.3231 114.266 54.4673 114.266C82.6114 114.266 105.416 114.294 105.416 114.332Z" fill="#263238"/>
<path d="M91.4576 17.4197C91.4805 17.4476 88.3107 20.0654 84.3802 23.2708C80.4497 26.4763 77.2418 29.0381 77.2189 29.0101C77.196 28.9821 80.3632 26.3669 84.2963 23.1589C88.2293 19.9509 91.4322 17.3917 91.4576 17.4197Z" fill="#263238"/>
<path d="M96.6753 60.1309C96.6626 60.1665 92.5617 58.6961 87.517 56.8517C82.4722 55.0073 78.3815 53.4809 78.4044 53.4478C78.4273 53.4147 82.518 54.8801 87.5628 56.727C92.6075 58.574 96.6982 60.0978 96.6753 60.1309Z" fill="#263238"/>
<path d="M11.7696 24.8988C11.7874 24.8657 16.2063 27.1884 21.6352 30.1038C27.0641 33.0192 31.4575 35.3978 31.4397 35.4284C31.4219 35.4589 27.0055 33.1388 21.5741 30.2208C16.1427 27.3029 11.7518 24.9293 11.7696 24.8988Z" fill="#263238"/>
<path d="M13.3613 62.6642C13.3613 62.6286 16.9789 61.2345 21.4665 59.5503C25.9541 57.8662 29.6073 56.5281 29.62 56.5611C29.6327 56.5942 26.005 57.9883 21.5148 59.675C17.0247 61.3617 13.374 62.6973 13.3613 62.6642Z" fill="#263238"/>
<path d="M56.4157 70.3096C52.0472 70.3101 47.7766 69.0152 44.1441 66.5885C40.5116 64.1619 37.6803 60.7126 36.0082 56.6768C34.3361 52.6409 33.8983 48.1999 34.7503 43.9153C35.6022 39.6307 37.7056 35.6949 40.7944 32.6058C43.8832 29.5166 47.8187 27.4128 52.1032 26.5603C56.3877 25.7079 60.8288 26.1451 64.8648 27.8168C68.9008 29.4884 72.3505 32.3193 74.7775 35.9516C77.2046 39.5838 78.5 43.8542 78.5 48.2227C78.4933 54.078 76.1645 59.6916 72.0244 63.8322C67.8843 67.9727 62.271 70.3022 56.4157 70.3096ZM56.4157 26.3927C52.0974 26.3922 47.8759 27.6723 44.2852 30.0711C40.6945 32.4699 37.8957 35.8796 36.243 39.8691C34.5902 43.8586 34.1576 48.2486 35 52.4839C35.8423 56.7193 37.9217 60.6097 40.9752 63.6632C44.0287 66.7166 47.9191 68.796 52.1544 69.6384C56.3898 70.4807 60.7798 70.0481 64.7692 68.3954C68.7587 66.7426 72.1685 63.9439 74.5673 60.3531C76.9661 56.7624 78.2461 52.541 78.2456 48.2227C78.2409 42.4338 75.9397 36.8832 71.847 32.7891C67.7544 28.695 62.2046 26.3918 56.4157 26.3851V26.3927Z" fill="#FF6D38"/>
<path d="M84.3372 47.9065C84.3372 47.9065 84.3372 47.7539 84.3194 47.4537C84.3194 47.3036 84.3194 47.1179 84.3016 46.8965C84.2838 46.6752 84.3016 46.4183 84.2634 46.1333C84.2253 45.8484 84.2126 45.5177 84.1846 45.159C84.1566 44.8003 84.0904 44.4111 84.037 43.9862C83.9175 43.1416 83.7343 42.1723 83.4697 41.0962C83.1664 39.8994 82.784 38.724 82.3249 37.5779C81.7857 36.218 81.1365 34.9044 80.3839 33.65C78.5428 30.5854 76.1368 27.898 73.2937 25.7305C71.6449 24.4718 69.8586 23.4042 67.9692 22.548C65.9248 21.6066 63.7713 20.923 61.5583 20.5128C57.9451 19.8459 54.2366 19.8882 50.6395 20.6375C49.3764 20.9111 48.1323 21.2663 46.9151 21.7008C41.7338 23.5891 37.2274 26.9687 33.9636 31.4138C33.1125 32.5715 32.3529 33.7937 31.6919 35.0695C31.5316 35.3951 31.351 35.7106 31.2085 36.0439L30.7582 37.0386C30.4886 37.7178 30.2113 38.3971 29.995 39.0967C29.5228 40.5091 29.168 41.9582 28.9342 43.4291C28.6996 44.9119 28.5771 46.4103 28.5678 47.9116C28.5775 49.4136 28.6991 50.9127 28.9316 52.3966C29.1664 53.8598 29.5212 55.3012 29.9925 56.7062C30.2138 57.4083 30.5013 58.0876 30.7557 58.7668L31.206 59.7615C31.3484 60.0973 31.5316 60.4128 31.6919 60.7358C32.3505 62.0133 33.1093 63.2365 33.9611 64.3941C37.2256 68.8401 41.7329 72.2206 46.9151 74.1096C48.1366 74.5415 49.385 74.8933 50.6522 75.1628C54.2493 75.9123 57.9578 75.9546 61.571 75.2875C65.8304 74.4868 69.8443 72.7037 73.2937 70.0799C76.1355 67.9111 78.539 65.2219 80.3762 62.1554C81.1289 60.901 81.778 59.5873 82.3173 58.2275C82.7758 57.0855 83.1583 55.9144 83.4621 54.7218C83.7165 53.6457 83.9098 52.6867 84.0294 51.8344C84.0828 51.4096 84.1413 51.0203 84.1769 50.6616C84.2126 50.3029 84.2304 49.9773 84.2558 49.6847C84.2812 49.3922 84.2889 49.1378 84.294 48.9215C84.299 48.7053 84.3067 48.5145 84.3118 48.3644C84.3118 48.0642 84.3296 47.9116 84.3296 47.9116C84.3296 47.9116 84.3296 48.0642 84.3296 48.3644C84.3296 48.5145 84.3296 48.7002 84.3296 48.9215C84.3296 49.1429 84.3296 49.4024 84.2965 49.6847C84.2634 49.9671 84.2507 50.3029 84.2253 50.6616C84.1998 51.0203 84.1362 51.4121 84.0854 51.837C83.9683 52.6841 83.7877 53.6534 83.5282 54.732C83.2273 55.9278 82.8474 57.1023 82.3911 58.2478C81.855 59.6131 81.2074 60.9319 80.4551 62.191C78.6181 65.2702 76.2119 67.9716 73.365 70.1512C69.9044 72.7954 65.8719 74.5912 61.5914 75.3943C59.2144 75.8433 56.7889 75.9793 54.3766 75.7988C53.1161 75.7118 51.8632 75.5376 50.6268 75.2773C49.3553 75.0058 48.1035 74.6497 46.8795 74.2114C41.672 72.3188 37.1422 68.9256 33.8619 64.4603C33.0041 63.2973 32.2386 62.069 31.5723 60.7867C31.412 60.4611 31.2289 60.1431 31.0839 59.8073C30.9388 59.4715 30.7837 59.1408 30.631 58.8075C30.3614 58.1257 30.0815 57.4439 29.8678 56.7392C29.394 55.3294 29.0375 53.8829 28.8019 52.4145C28.3134 49.4316 28.3134 46.3891 28.8019 43.4062C29.0397 41.9379 29.3971 40.4915 29.8704 39.0814C30.0917 38.3767 30.3792 37.6949 30.6336 37.0131C30.7862 36.6799 30.9363 36.3466 31.0864 36.0133C31.2365 35.6801 31.412 35.3621 31.5748 35.0339C32.2408 33.7522 33.0064 32.5248 33.8644 31.3629C37.1442 26.8982 41.6731 23.5051 46.8795 21.6118C48.1019 21.1706 49.352 20.8102 50.6217 20.5332C54.2338 19.7864 57.9565 19.7466 61.5838 20.4161C63.8037 20.8246 65.9641 21.5083 68.015 22.4513C69.9113 23.3122 71.7036 24.3859 73.3573 25.6517C76.205 27.8312 78.612 30.5326 80.45 33.6118C81.2014 34.8714 81.8488 36.1902 82.386 37.555C82.8424 38.7005 83.2222 39.875 83.5231 41.0708C83.7775 42.1494 83.9632 43.1212 84.0803 43.9684C84.1311 44.3932 84.1846 44.7825 84.2202 45.1412C84.2558 45.4999 84.2711 45.8281 84.2914 46.1206C84.3118 46.4132 84.3219 46.6676 84.3245 46.8838C84.327 47.1001 84.3245 47.2909 84.3245 47.4409C84.3398 47.7539 84.3372 47.9065 84.3372 47.9065Z" fill="#263238"/>
<path d="M56.7583 79.6579V79.4035C63.1148 79.402 69.3281 77.5157 74.6127 73.9831C79.8972 70.4505 84.0156 65.4303 86.4471 59.5572C88.8785 53.6841 89.514 47.2219 88.2729 40.9877C87.0319 34.7535 83.9702 29.0273 79.4749 24.5331C74.9796 20.0389 69.2527 16.9785 63.0182 15.739C56.7837 14.4995 50.3217 15.1364 44.4491 17.5693C38.5766 20.0022 33.5574 24.1217 30.026 29.4071C26.4947 34.6924 24.6099 40.9062 24.6099 47.2628H24.3555C24.3555 29.4014 38.8893 14.8701 56.7507 14.8701C65.2923 14.9458 73.4584 18.3921 79.4717 24.4589C85.485 30.5257 88.8588 38.722 88.8588 47.264C88.8588 55.806 85.485 64.0023 79.4717 70.0692C73.4584 76.136 65.2923 79.5822 56.7507 79.6579H56.7583Z" fill="#FF6D38"/>
<path d="M56.4199 76.4605V75.1885C63.6555 75.1885 70.5947 72.3142 75.711 67.1979C80.8274 62.0816 83.7017 55.1424 83.7017 47.9068C83.7017 40.6712 80.8274 33.732 75.711 28.6157C70.5947 23.4993 63.6555 20.625 56.4199 20.625V19.353C63.9928 19.353 71.2556 22.3614 76.6105 27.7162C81.9653 33.0711 84.9737 40.3339 84.9737 47.9068C84.9737 55.4797 81.9653 62.7425 76.6105 68.0973C71.2556 73.4522 63.9928 76.4605 56.4199 76.4605Z" fill="#FF6D38"/>
<path d="M89.6531 47.2633H88.3811C88.3063 38.9234 84.9408 30.9506 79.017 25.0797C73.0933 19.2088 65.0905 15.9149 56.7504 15.9149C48.4102 15.9149 40.4075 19.2088 34.4837 25.0797C28.5599 30.9506 25.1944 38.9234 25.1197 47.2633H23.8477C23.8477 29.1221 38.6028 14.3618 56.7516 14.3618C65.4745 14.3719 73.8373 17.8416 80.0053 24.0096C86.1733 30.1776 89.643 38.5404 89.6531 47.2633Z" fill="#FF6D38"/>
<path d="M56.9943 84.5458C36.7822 84.5458 20.3379 68.0989 20.3379 47.8869C20.3379 27.6749 36.7822 11.228 56.9943 11.228V12.5C37.4844 12.5 21.6099 28.3745 21.6099 47.8869C21.6099 67.3993 37.4844 83.2738 56.9943 83.2738C76.5041 83.2738 92.3736 67.3993 92.3736 47.8869H93.6455C93.6455 68.1066 77.2088 84.5458 56.9943 84.5458Z" fill="#FF6D38"/>
<path d="M56.4178 88.8472H55.7793V88.5928H56.4153L56.4178 88.8472Z" fill="#FF6D38"/>
<path d="M53.1955 88.7126C52.7707 88.6795 52.3382 88.6388 51.9235 88.5904L51.9515 88.336C52.3738 88.3818 52.8037 88.4225 53.2235 88.4556L53.1955 88.7126ZM49.3795 88.2368C48.9547 88.1631 48.5273 88.0816 48.1075 87.9952L48.1609 87.7408C48.5731 87.8272 48.9954 87.9087 49.4177 87.9824L49.3795 88.2368ZM45.6068 87.3897C45.1972 87.2777 44.78 87.1556 44.3704 87.0284L44.4467 86.774C44.8538 86.9012 45.2659 87.0284 45.6755 87.1353L45.6068 87.3897ZM41.9307 86.1838C41.5288 86.0312 41.1268 85.8684 40.7299 85.703L40.8292 85.469C41.2209 85.6343 41.6229 85.7946 42.0223 85.9472L41.9307 86.1838ZM38.3717 84.6422C37.9875 84.4514 37.6085 84.253 37.2243 84.0494L37.3439 83.8256C37.7204 84.0265 38.1071 84.225 38.4836 84.4158L38.3717 84.6422ZM34.9907 82.7571C34.6269 82.5307 34.2606 82.2966 33.907 82.06L34.0469 81.8463C34.4005 82.0829 34.7643 82.317 35.1255 82.5408L34.9907 82.7571ZM31.8082 80.5616C31.4673 80.3072 31.1264 80.035 30.7906 79.7628L30.9534 79.5669C31.2816 79.834 31.6199 80.1012 31.9583 80.3581L31.8082 80.5616ZM28.847 78.0736C28.529 77.781 28.216 77.4808 27.9133 77.1832L28.0914 77.0026C28.3916 77.2977 28.7045 77.5953 29.02 77.8879L28.847 78.0736ZM26.1351 75.3057C25.8501 74.9852 25.5652 74.6596 25.2905 74.3314L25.4863 74.1686C25.7586 74.4942 26.0409 74.8198 26.3259 75.1378L26.1351 75.3057ZM23.6979 72.3089C23.4435 71.9604 23.1891 71.6093 22.95 71.2582L23.1586 71.1158C23.3977 71.4618 23.647 71.8128 23.9014 72.1563L23.6979 72.3089ZM21.5559 69.0933C21.3371 68.7295 21.1183 68.353 20.9097 67.979L21.1412 67.8518C21.3473 68.2233 21.5635 68.5947 21.7798 68.9585L21.5559 69.0933ZM19.7293 65.692C19.5436 65.3053 19.363 64.911 19.1925 64.5218L19.4266 64.42C19.5945 64.8067 19.7751 65.1985 19.9583 65.5826L19.7293 65.692ZM18.236 62.1304C18.0884 61.7285 17.946 61.3189 17.8137 60.9144L18.0681 60.833C18.2004 61.2375 18.3403 61.6445 18.4878 62.0439L18.236 62.1304ZM17.0861 58.4391C16.9792 58.0244 16.8775 57.6046 16.7834 57.1874L17.0378 57.1315C17.1293 57.5461 17.2311 57.9633 17.3379 58.3755L17.0861 58.4391ZM16.3076 54.6587C16.2415 54.2389 16.1804 53.809 16.1245 53.3867L16.3789 53.3562C16.4323 53.7785 16.4933 54.2059 16.5595 54.6282L16.3076 54.6587ZM15.8726 50.8071C15.8446 50.3823 15.8243 49.9472 15.8115 49.5198H16.0659C16.0659 49.9447 16.099 50.3746 16.127 50.7918L15.8726 50.8071ZM16.0532 46.9606H15.7988C15.8141 46.5307 15.8344 46.0982 15.8599 45.6708L16.1143 45.6886C16.0965 46.1033 16.0787 46.5332 16.0532 46.9606ZM16.3534 43.1293L16.099 43.0988C16.1524 42.674 16.2135 42.244 16.2796 41.8268L16.534 41.8675C16.4781 42.2822 16.417 42.707 16.3636 43.1293H16.3534ZM17.0149 39.3464L16.7605 39.2904C16.8546 38.8732 16.9563 38.4509 17.0632 38.0388L17.3176 38.1024C17.2184 38.512 17.1166 38.9317 17.025 39.3591L17.0149 39.3464ZM18.0325 35.6424L17.7908 35.5635C17.9256 35.1565 18.0681 34.7469 18.2131 34.3424L18.4522 34.4289C18.3174 34.8308 18.1749 35.2404 18.0426 35.6424H18.0325ZM19.4062 32.0477L19.1722 31.9459C19.3452 31.5542 19.5258 31.1599 19.7089 30.7706L19.9404 30.88C19.7649 31.2667 19.5868 31.6585 19.4164 32.0477H19.4062ZM21.1158 28.6006L20.8944 28.4785C21.103 28.102 21.3184 27.7289 21.5406 27.3591L21.7569 27.4914C21.5482 27.8552 21.332 28.2292 21.1259 28.6006H21.1158ZM23.151 25.3367L22.9398 25.1917C23.1942 24.8406 23.4359 24.487 23.6903 24.141L23.8938 24.2911C23.647 24.6345 23.3952 24.9856 23.1561 25.3367H23.151ZM25.4787 22.2839L25.2854 22.1185C25.5601 21.7929 25.845 21.4647 26.13 21.1442L26.3182 21.3146C26.0409 21.6275 25.7586 21.9532 25.4838 22.2788L25.4787 22.2839ZM28.0863 19.46L27.9082 19.2794C28.211 18.9818 28.5264 18.6816 28.8393 18.389L29.0123 18.5773C28.7045 18.8622 28.3941 19.1598 28.0914 19.455L28.0863 19.46ZM30.9483 16.8982L30.788 16.6998C31.1187 16.4301 31.4596 16.163 31.8056 15.9035L31.9608 16.1071C31.6199 16.3589 31.2816 16.626 30.9534 16.8932L30.9483 16.8982ZM34.0367 14.6086L33.8968 14.3975C34.2479 14.1609 34.6142 13.9269 34.978 13.7004L35.1128 13.9167C34.7541 14.1456 34.3929 14.3797 34.0418 14.6137L34.0367 14.6086ZM37.3312 12.6472L37.2116 12.4208C37.5881 12.2198 37.9748 12.0214 38.3539 11.8306L38.4683 12.0596C38.0893 12.2402 37.7077 12.4361 37.3312 12.6472ZM40.7935 10.9936L40.6943 10.7596C41.0886 10.5942 41.4906 10.4314 41.8875 10.2813L41.979 10.5179C41.5847 10.6604 41.1853 10.8206 40.7935 10.986V10.9936ZM44.3984 9.67839L44.3221 9.43672C44.7316 9.30952 45.1489 9.18232 45.5584 9.07292L45.6271 9.32732C45.2175 9.424 44.8003 9.54356 44.3984 9.67076V9.67839ZM48.1075 8.70659L48.0566 8.45219C48.4764 8.36315 48.9012 8.28174 49.3286 8.19779L49.3744 8.45219C48.9572 8.53869 48.5324 8.62009 48.1075 8.70659ZM51.9006 8.10112L51.8726 7.84672C52.2975 7.79838 52.7299 7.75768 53.1446 7.72461L53.165 7.97901C52.7605 8.01208 52.3305 8.06805 51.9082 8.10112H51.9006Z" fill="#FF6D38"/>
<path d="M55.7793 7.85645V7.60205H56.4178V7.85645H55.7793Z" fill="#FF6D38"/>
<path d="M109.762 56.3353L95.9102 56.6255L96.1057 65.9624L109.957 65.6723L109.762 56.3353Z" fill="#FF6D38"/>
<path d="M109.803 56.4526C109.766 56.4995 109.724 56.5422 109.678 56.5798L109.299 56.9258L107.89 58.1851L103.198 62.3038L103.16 62.3369L103.12 62.3064L103.02 62.23L98.0061 58.3734C97.3778 57.8798 96.8639 57.4804 96.495 57.1929C96.3271 57.0556 96.1923 56.9385 96.088 56.8673C96.0386 56.8318 95.9934 56.7908 95.9531 56.7452C96.0061 56.7746 96.0563 56.8086 96.1032 56.847L96.5255 57.1522L98.0519 58.3021L103.089 62.1308L103.188 62.2071H103.109L107.823 58.1164L109.258 56.8902L109.653 56.562C109.7 56.522 109.75 56.4855 109.803 56.4526Z" fill="#263238"/>
<path d="M96.147 66.0714C96.1215 66.0485 97.1366 64.7485 98.4136 63.1636C99.6907 61.5787 100.752 60.3143 100.78 60.3372C100.808 60.3601 99.7925 61.6601 98.5129 63.245C97.2332 64.8299 96.1877 66.1019 96.147 66.0714Z" fill="#263238"/>
<path d="M105.384 60.1311C105.409 60.1108 106.465 61.3573 107.739 62.9295C109.014 64.5017 110.029 65.7762 110.001 65.7966C109.973 65.8169 108.917 64.5704 107.643 62.9982C106.368 61.426 105.348 60.154 105.384 60.1311Z" fill="#263238"/>
<path d="M97.0232 18.3029C97.0217 18.5297 96.953 18.751 96.8257 18.9388C96.6985 19.1266 96.5185 19.2724 96.3085 19.358C96.0984 19.4435 95.8677 19.4648 95.6455 19.4193C95.4233 19.3737 95.2196 19.2633 95.0601 19.1021C94.9006 18.9408 94.7925 18.7359 94.7494 18.5132C94.7063 18.2905 94.7302 18.0601 94.818 17.851C94.9059 17.6418 95.0537 17.4635 95.2429 17.3383C95.4321 17.2132 95.6541 17.147 95.8809 17.148C96.0318 17.1486 96.1811 17.179 96.3202 17.2375C96.4593 17.2959 96.5855 17.3812 96.6916 17.4885C96.7977 17.5958 96.8816 17.7229 96.9385 17.8627C96.9954 18.0024 97.0242 18.152 97.0232 18.3029Z" fill="#455A64"/>
<path d="M93.582 16.8272C93.8746 16.5116 94.2283 16.2587 94.6216 16.0839C95.0149 15.9091 95.4396 15.8161 95.8699 15.8103C96.3003 15.8046 96.7273 15.8864 97.1251 16.0507C97.5229 16.215 97.8832 16.4584 98.184 16.7662C98.7717 17.3564 99.6875 16.4482 99.1024 15.8554C98.6807 15.4297 98.1781 15.0928 97.6241 14.8644C97.0701 14.6361 96.476 14.5211 95.8768 14.526C95.2776 14.531 94.6855 14.6559 94.1354 14.8934C93.5853 15.1309 93.0883 15.4762 92.6738 15.9089C92.0988 16.5092 93.007 17.4353 93.582 16.8272Z" fill="#455A64"/>
<path d="M89.6815 11.4822C91.4267 9.97107 93.5102 9.02216 95.8456 9.01707C98.1717 8.99006 100.421 9.85069 102.134 11.4237C102.74 11.991 103.661 11.0853 103.05 10.5129C101.093 8.69895 98.519 7.69834 95.8507 7.71455C93.1642 7.71455 90.778 8.81864 88.7733 10.5536C88.1424 11.0981 89.0557 12.0139 89.6815 11.472V11.4822Z" fill="#455A64"/>
<path d="M91.2217 14.4437C91.8042 13.7935 92.5152 13.2711 93.3097 12.9094C94.1043 12.5477 94.9651 12.3546 95.838 12.3421C96.7109 12.3297 97.5769 12.4983 98.3814 12.8372C99.1859 13.1761 99.9115 13.6781 100.512 14.3114C101.092 14.9067 102.008 13.9985 101.428 13.4032C100.709 12.6504 99.8419 12.0535 98.882 11.6494C97.9222 11.2453 96.8895 11.0427 95.8481 11.0542C94.8067 11.0656 93.7788 11.2909 92.8281 11.7159C91.8773 12.141 91.024 12.7569 90.3211 13.5253C89.7563 14.1359 90.662 15.0517 91.2293 14.4437H91.2217Z" fill="#455A64"/>
<path d="M10.6848 60.9182C10.6849 60.0973 10.4959 59.2874 10.1324 58.5513C9.76886 57.8153 9.24059 57.1729 8.5886 56.6741C7.93661 56.1753 7.17844 55.8334 6.37293 55.675C5.56742 55.5167 4.73626 55.5461 3.94396 55.761C3.15166 55.9759 2.41954 56.3705 1.80443 56.9141C1.18932 57.4578 0.707769 58.1358 0.397163 58.8957C0.0865575 59.6556 -0.0447487 60.4769 0.0134371 61.2957C0.071623 62.1146 0.317736 62.909 0.73267 63.6174L0.747934 63.6377C0.953997 63.9837 1.21094 64.2305 1.47043 64.5943L4.5741 68.7054C4.66397 68.8244 4.78025 68.921 4.91379 68.9875C5.04732 69.0541 5.19447 69.0887 5.34365 69.0887C5.49284 69.0887 5.63998 69.0541 5.77352 68.9875C5.90706 68.921 6.02334 68.8244 6.11321 68.7054L9.166 64.6604C9.43819 64.3349 9.69295 63.9953 9.9292 63.6428V63.6276C10.4203 62.8089 10.6813 61.8729 10.6848 60.9182ZM5.34238 63.246C4.87697 63.246 4.422 63.1079 4.03502 62.8494C3.64804 62.5908 3.34642 62.2233 3.16832 61.7933C2.99021 61.3633 2.94361 60.8902 3.03441 60.4337C3.1252 59.9772 3.34932 59.5579 3.67842 59.2288C4.00752 58.8997 4.42682 58.6756 4.8833 58.5848C5.33977 58.494 5.81292 58.5406 6.24291 58.7187C6.6729 58.8968 7.04042 59.1984 7.29899 59.5854C7.55756 59.9724 7.69557 60.4274 7.69557 60.8928C7.69557 61.202 7.63462 61.5082 7.5162 61.7939C7.39779 62.0796 7.22422 62.3391 7.00544 62.5576C6.78666 62.7762 6.52694 62.9495 6.24115 63.0676C5.95535 63.1857 5.64908 63.2463 5.33984 63.246H5.34238Z" fill="#455A64"/>
<path d="M14.6908 20.7622C14.7865 22.1544 14.4669 23.5438 13.7725 24.7543C13.0781 25.9648 12.0401 26.9421 10.79 27.5625C9.53993 28.1828 8.13388 28.4182 6.74988 28.239C5.36588 28.0598 4.06617 27.474 3.01529 26.5557C1.96442 25.6375 1.20962 24.428 0.846466 23.0805C0.483311 21.7331 0.528125 20.3081 0.975236 18.9862C1.42235 17.6642 2.25165 16.5046 3.35815 15.6541C4.46466 14.8037 5.79861 14.3007 7.19113 14.2088C8.11389 14.1466 9.03986 14.2668 9.91617 14.5624C10.7925 14.8581 11.602 15.3235 12.2984 15.9321C12.9948 16.5406 13.5646 17.2804 13.975 18.1091C14.3855 18.9379 14.6288 19.8394 14.6908 20.7622Z" fill="#FF6D38"/>
<g opacity="0.3">
<path d="M12.9987 20.7064C12.9152 20.5016 12.8538 20.2884 12.8156 20.0704C12.6561 19.5023 12.4107 18.9618 12.088 18.4677C11.8677 18.1317 11.6118 17.8204 11.3248 17.5392C10.987 17.2179 10.609 16.9417 10.2003 16.7175C9.98177 16.5969 9.75477 16.4923 9.5211 16.4046C9.27881 16.3114 9.02958 16.2374 8.77571 16.1832C8.51337 16.1271 8.24721 16.0905 7.97944 16.0738C7.703 16.0586 7.4258 16.0637 7.1501 16.0891C6.87491 16.1188 6.60207 16.1673 6.33348 16.2341C6.07344 16.3009 5.81841 16.3859 5.57028 16.4885C5.33309 16.5926 5.10356 16.7133 4.88341 16.8498C4.67014 16.98 4.46767 17.1272 4.27794 17.2899C3.92401 17.5872 3.61017 17.9293 3.34429 18.3075C3.11263 18.6378 2.91811 18.9927 2.76426 19.3658C2.54152 19.9128 2.40589 20.4914 2.36231 21.0804C2.36603 21.3015 2.34642 21.5223 2.3038 21.7393C2.22328 21.5277 2.1886 21.3014 2.20204 21.0753C2.18461 20.4587 2.28298 19.8443 2.49206 19.264C2.64052 18.8635 2.83699 18.4826 3.07717 18.1294C3.34759 17.716 3.67376 17.3419 4.04643 17.0177C4.24724 16.8401 4.46158 16.6785 4.68752 16.5343C4.92186 16.3815 5.16865 16.2488 5.42528 16.1374C5.69007 16.0188 5.96401 15.9219 6.24444 15.8474C6.82492 15.6946 7.4262 15.6362 8.02524 15.6744C8.31463 15.6938 8.60211 15.7355 8.88511 15.7991C9.15757 15.8631 9.42464 15.9481 9.68392 16.0535C9.93326 16.1511 10.1748 16.2676 10.4064 16.402C10.8338 16.6502 11.2265 16.9539 11.5741 17.3051C11.8733 17.6126 12.1355 17.9541 12.3551 18.3227C12.6709 18.853 12.8865 19.4368 12.9911 20.045C13.0414 20.2624 13.044 20.488 12.9987 20.7064Z" fill="black"/>
</g>
<g opacity="0.3">
<path d="M8.47319 24.3849L8.54951 25.3185L7.71508 25.3846L7.65657 24.479C6.91311 24.5127 6.17518 24.3363 5.52725 23.9702L5.90376 22.917C6.40878 23.2131 6.98216 23.3726 7.56753 23.38L7.4556 21.9884C6.51177 21.8383 5.45347 21.6119 5.35935 20.4213C5.28812 19.5386 5.86814 18.7296 7.17067 18.4726L7.09689 17.5492L7.91097 17.4805L7.98475 18.3887C8.58347 18.3738 9.1772 18.5011 9.7172 18.7601L9.38394 19.8184C8.97302 19.6236 8.52792 19.5113 8.07379 19.4877L8.18826 20.9047C9.12954 21.0471 10.17 21.2736 10.2667 22.4463C10.3405 23.3316 9.76808 24.1228 8.47319 24.3849ZM7.34366 20.7724L7.24699 19.5894C6.81451 19.7243 6.65933 19.9787 6.68222 20.256C6.70512 20.5333 6.96715 20.6834 7.34366 20.7724ZM8.92857 22.6626C8.90567 22.3726 8.65127 22.2326 8.28239 22.136L8.37398 23.2859C8.79374 23.1612 8.9591 22.9297 8.92857 22.6626Z" fill="black"/>
</g>
<path d="M2.29492 21.5838C2.31019 21.5838 2.32799 21.8178 2.4094 22.2351C2.53116 22.8208 2.74954 23.3822 3.05558 23.8963C3.26617 24.2508 3.51529 24.581 3.79842 24.8808C4.12963 25.218 4.50134 25.5128 4.90506 25.7585C5.35266 26.0264 5.83685 26.2278 6.34241 26.3563C6.88638 26.4895 7.44698 26.5417 8.00618 26.5115C8.56402 26.4672 9.11246 26.3421 9.63434 26.1401C10.1177 25.9482 10.571 25.6878 10.9801 25.3667C11.6775 24.8155 12.2244 24.0971 12.5701 23.2781C12.809 22.7242 12.9543 22.1344 13 21.5329C13.0255 21.1106 13.0128 20.874 13.028 20.874C13.0399 20.93 13.045 20.9873 13.0433 21.0445C13.0535 21.208 13.0535 21.372 13.0433 21.5355C13.02 22.1472 12.8891 22.75 12.6566 23.3163C12.4962 23.7047 12.2931 24.0742 12.0511 24.4178C11.7647 24.8058 11.4314 25.157 11.059 25.4634C10.6439 25.7926 10.1839 26.0607 9.69285 26.2597C8.62179 26.6953 7.43876 26.7738 6.31952 26.4835C5.79989 26.3538 5.30196 26.149 4.84146 25.8755C4.43057 25.6225 4.05358 25.3181 3.71956 24.9699C3.43354 24.6598 3.18349 24.3185 2.97417 23.9523C2.67124 23.4252 2.46288 22.8492 2.35852 22.2503C2.334 22.086 2.31955 21.9203 2.31527 21.7542C2.30172 21.6984 2.29488 21.6412 2.29492 21.5838Z" fill="#263238"/>
<path d="M11.0273 98.6511C11.0273 98.6511 12.7344 99.7552 13.523 99.717C14.3116 99.6789 17.4128 95.8349 17.4128 95.8349L15.7973 94.6138L11.8185 95.2727L11.0324 98.6155" fill="#263238"/>
<path d="M44.8687 42.2739C45.2062 43.5522 45.2184 44.8945 44.9043 46.1787C44.5901 47.4629 43.9596 48.648 43.0701 49.6261C42.2535 50.5063 41.213 51.2262 40.6966 52.31C40.1242 53.5107 40.3099 54.9227 40.0555 56.2303C39.8011 57.5379 38.6919 58.9269 37.4199 58.6114C38.6258 60.3922 40.4574 61.6922 42.4214 62.5851C44.3854 63.4781 46.4918 64.0022 48.5855 64.5237C49.7506 64.8111 51.0074 65.0961 52.1216 64.6483C53.5641 64.0708 54.2815 62.4859 54.859 61.0435L59.891 48.4736" fill="#263238"/>
<path d="M62.098 37.262C62.0971 36.7906 61.9194 36.3368 61.6001 35.9901C61.2807 35.6434 60.8429 35.4291 60.3732 35.3896L51.5023 31.3192C48.2994 31.0496 45.1016 36.7812 44.9693 39.9917C44.8218 43.5533 45.2848 47.8476 45.763 50.4959C46.7247 55.823 50.3193 55.9247 50.3193 55.9247L50.6246 64.5438L61.7571 64.5234L62.098 37.262Z" fill="#B5715A"/>
<path d="M47.3047 44.2529C47.3073 44.4316 47.3795 44.6022 47.5058 44.7285C47.6321 44.8548 47.8027 44.927 47.9814 44.9296C48.0686 44.9344 48.156 44.9217 48.2382 44.8923C48.3205 44.8629 48.3961 44.8174 48.4606 44.7584C48.525 44.6994 48.577 44.6281 48.6136 44.5487C48.6501 44.4693 48.6704 44.3835 48.6734 44.2962C48.6714 44.1177 48.5998 43.9471 48.4739 43.8207C48.3479 43.6943 48.1776 43.6221 47.9992 43.6194C47.9117 43.614 47.8239 43.6261 47.7412 43.6552C47.6585 43.6843 47.5824 43.7298 47.5176 43.7889C47.4528 43.848 47.4006 43.9196 47.364 43.9993C47.3274 44.079 47.3072 44.1652 47.3047 44.2529Z" fill="#263238"/>
<path d="M46.4247 42.4316C46.4985 42.4952 47.0378 42.4087 47.7578 42.569C48.4777 42.7292 48.9738 43.0345 49.0603 43.0065C49.101 42.9938 49.0298 42.8921 48.8059 42.7521C48.486 42.5595 48.136 42.4219 47.7705 42.3451C47.4204 42.2633 47.0583 42.2461 46.702 42.2942C46.4731 42.3349 46.3866 42.4112 46.4247 42.4316Z" fill="#263238"/>
<path d="M54.2598 43.8966C54.2617 44.0757 54.3336 44.247 54.46 44.3739C54.5864 44.5008 54.7574 44.5732 54.9365 44.5759C55.0237 44.5807 55.111 44.568 55.1933 44.5386C55.2756 44.5092 55.3512 44.4637 55.4156 44.4047C55.4801 44.3457 55.5321 44.2744 55.5687 44.195C55.6052 44.1156 55.6255 44.0298 55.6284 43.9424C55.6265 43.7638 55.555 43.5929 55.4291 43.4661C55.3032 43.3393 55.1329 43.2665 54.9543 43.2632C54.8669 43.2584 54.7794 43.2711 54.697 43.3004C54.6146 43.3298 54.5388 43.3753 54.4742 43.4343C54.4095 43.4933 54.3573 43.5645 54.3205 43.6439C54.2836 43.7233 54.263 43.8092 54.2598 43.8966Z" fill="#263238"/>
<path d="M53.2494 42.8333C53.3562 42.8587 53.8218 42.4848 54.5901 42.2609C55.3584 42.037 55.9969 42.0803 56.063 42.0065C56.0961 41.9709 55.974 41.9073 55.6942 41.8844C55.2886 41.8604 54.8821 41.9087 54.4934 42.0269C54.1155 42.1279 53.7605 42.3006 53.4478 42.5357C53.2468 42.7112 53.1934 42.8257 53.2494 42.8333Z" fill="#263238"/>
<path d="M50.6505 47.7535C50.6505 47.7102 50.1926 47.6415 49.4472 47.5627C49.2589 47.5474 49.0808 47.5143 49.0452 47.3846C49.0263 47.1908 49.0662 46.9957 49.1597 46.8249C49.3276 46.3644 49.5031 45.8836 49.6863 45.3774C50.4164 43.3193 50.9405 41.6301 50.8565 41.5995C50.7726 41.569 50.1137 43.2175 49.3836 45.2756C49.2106 45.7844 49.0427 46.2678 48.8748 46.7282C48.7606 46.9584 48.7318 47.2216 48.7934 47.4711C48.8219 47.5412 48.8668 47.6034 48.9244 47.6525C48.9819 47.7016 49.0504 47.7363 49.1241 47.7535C49.229 47.7789 49.3367 47.7908 49.4446 47.7891C50.19 47.8069 50.6505 47.7992 50.6505 47.7535Z" fill="#263238"/>
<path d="M50.3184 55.9859C52.8377 55.9718 55.3037 55.2585 57.4415 53.9253C57.4415 53.9253 55.8719 57.8583 50.5142 57.4716L50.3184 55.9859Z" fill="#884C3B"/>
<path d="M50.8157 49.5471C50.9617 49.2918 51.1629 49.0723 51.4045 48.9046C51.6461 48.7369 51.9221 48.6253 52.2123 48.5778C52.3812 48.5583 52.552 48.5904 52.7023 48.6699C52.8526 48.7494 52.9754 48.8725 53.0544 49.023C53.1391 49.2201 53.175 49.4347 53.1591 49.6486C53.1431 49.8625 53.0758 50.0694 52.9628 50.2518C52.8542 50.4436 52.6917 50.5993 52.4954 50.6997C52.2992 50.8 52.0778 50.8407 51.8587 50.8165C51.4962 50.7212 51.1703 50.5202 50.9225 50.239C50.838 50.1715 50.7716 50.0841 50.7292 49.9846C50.7072 49.9208 50.7001 49.8527 50.7085 49.7857C50.7169 49.7187 50.7405 49.6544 50.7775 49.5979" fill="#884C3B"/>
<path d="M52.8381 48.2218C52.716 48.2218 52.7312 49.018 52.0596 49.6006C51.388 50.1832 50.5332 50.1094 50.5332 50.2264C50.5332 50.2773 50.7265 50.3765 51.0878 50.3791C51.5544 50.3742 52.0045 50.2058 52.3598 49.9034C52.7014 49.6102 52.9165 49.1964 52.9602 48.7484C52.9856 48.4126 52.8915 48.2167 52.8381 48.2218Z" fill="#263238"/>
<path d="M52.6846 39.3302C52.7813 39.521 53.5013 39.3302 54.3713 39.3302C55.2414 39.3302 55.9664 39.4777 56.0605 39.2844C56.0987 39.1928 55.9562 39.03 55.6535 38.8621C55.2507 38.671 54.8097 38.5745 54.364 38.5798C53.9182 38.5851 53.4796 38.6921 53.0815 38.8926C52.7839 39.063 52.6439 39.2386 52.6846 39.3302Z" fill="#263238"/>
<path d="M45.7567 41.5388C45.9221 41.7042 46.5504 41.5134 47.3085 41.4854C48.0666 41.4574 48.7128 41.5643 48.8578 41.3836C48.9189 41.2972 48.8146 41.1292 48.5297 40.9817C48.1348 40.7884 47.6965 40.7008 47.2577 40.7273C46.823 40.7417 46.3996 40.8688 46.0289 41.0962C45.7694 41.2844 45.6855 41.46 45.7567 41.5388Z" fill="#263238"/>
<path d="M67.5653 50.4628C67.1049 48.0918 65.665 40.4954 63.5433 36.5344C61.4216 32.5734 58.9972 31.0089 56.6414 30.4288C55.7471 30.1858 54.8053 30.1775 53.9069 30.4048C53.0085 30.6321 52.1839 31.0872 51.5127 31.7263C50.4773 32.6981 50.1797 35.4608 50.1797 35.4608C50.1797 35.4608 55.8604 36.5827 57.8371 39.7602C60.1114 43.4083 60.6838 45.2578 60.6838 45.2578L61.447 47.265C61.447 47.265 62.0474 57.0364 61.849 58.9673L70.3815 62.0481C68.5498 58.2804 68.0283 52.8414 67.5653 50.4628Z" fill="#263238"/>
<path d="M50.5274 35.4175C50.5274 35.4175 46.7826 35.2242 45.6735 38.9002C45.1647 40.564 45.1138 45.4001 45.1138 45.4001C45.1138 45.4001 44.3124 41.5663 44.4345 39.4014C44.5566 37.2365 45.5717 34.4813 47.1922 32.9295C48.767 31.4209 50.1102 30.6984 52.9925 30.8053C52.9925 30.8053 52.5804 31.6244 51.8706 32.7336C51.5145 33.2907 50.9548 33.3518 50.5274 35.4175Z" fill="#263238"/>
<path d="M60.6517 45.5401C60.6848 44.3546 61.9542 43.5354 62.9922 44.1053C63.5621 44.4156 64.0098 45.0593 63.9869 46.3185C63.9284 49.669 60.5754 48.9185 60.5703 48.8218C60.5729 48.771 60.6161 46.9266 60.6517 45.5401Z" fill="#B5715A"/>
<path d="M61.616 47.5704C61.6312 47.5704 61.6745 47.6137 61.7737 47.6595C61.911 47.7211 62.0668 47.7275 62.2087 47.6773C62.5649 47.5526 62.8727 46.9955 62.9007 46.4053C62.9136 46.1178 62.8623 45.831 62.7506 45.5658C62.7217 45.4604 62.6674 45.3638 62.5924 45.2844C62.5175 45.205 62.4241 45.1453 62.3206 45.1104C62.2539 45.0906 62.1823 45.0951 62.1185 45.123C62.0547 45.151 62.0029 45.2005 61.9721 45.263C61.9263 45.3571 61.9467 45.4233 61.9289 45.4284C61.9111 45.4335 61.8576 45.3724 61.8882 45.235C61.9066 45.1516 61.9545 45.0775 62.023 45.0264C62.1163 44.9591 62.2322 44.9309 62.3461 44.9476C62.4835 44.9767 62.6112 45.0406 62.7167 45.1333C62.8223 45.226 62.9023 45.3442 62.949 45.4767C63.0859 45.77 63.1496 46.0921 63.1347 46.4154C63.1016 47.0896 62.7429 47.7154 62.257 47.8477C62.1666 47.872 62.0719 47.8757 61.9799 47.8585C61.8879 47.8413 61.8009 47.8037 61.7253 47.7485C61.621 47.6518 61.6058 47.5755 61.616 47.5704Z" fill="#884C3B"/>
<path d="M54.3225 30.3242C54.3225 30.3497 53.9409 30.4311 53.3609 30.688C52.6046 31.0232 51.9539 31.5579 51.4783 32.2348C51.0109 32.9165 50.6458 33.663 50.3946 34.4506C50.1911 35.0535 50.0893 35.4376 50.0664 35.43C50.0711 35.337 50.0865 35.2448 50.1122 35.1553C50.1478 34.9797 50.2165 34.7304 50.3055 34.4226C50.5339 33.6136 50.8941 32.8478 51.3715 32.1559C51.6411 31.7763 51.9671 31.44 52.3382 31.1586C52.6416 30.9322 52.9724 30.745 53.3227 30.6015C53.4561 30.5448 53.5929 30.4963 53.7323 30.4565C53.8353 30.4204 53.9407 30.3914 54.0478 30.37C54.1369 30.3426 54.2293 30.3273 54.3225 30.3242Z" fill="#455A64"/>
<path d="M66.0794 56.2703C66.0663 56.2479 66.056 56.224 66.0489 56.1991C66.0286 56.1456 66.0057 56.0744 65.9726 55.9879C65.8781 55.7141 65.8049 55.4335 65.7538 55.1484C65.6044 54.0954 65.6044 53.0265 65.7538 51.9735C65.8225 51.3044 65.9192 50.5743 65.9828 49.7908C66.0651 48.959 66.0489 48.1205 65.9344 47.2926C65.7815 46.3831 65.4624 45.5095 64.9931 44.7155C64.4887 43.862 63.868 43.0828 63.1488 42.4005C61.6758 40.9835 59.956 40.0193 58.4042 39.1747C56.8524 38.3301 55.4176 37.6025 54.2829 36.8851C53.3849 36.3207 52.5178 35.7084 51.6855 35.0509C51.3904 34.8168 51.1767 34.6286 51.019 34.5014L50.8486 34.3538C50.8129 34.3182 50.7926 34.3004 50.7951 34.2979L50.8587 34.3436C50.9045 34.3793 50.963 34.4225 51.0343 34.481L51.7186 35.0102C52.3139 35.463 53.1916 36.1015 54.3338 36.8062C55.4761 37.5109 56.8931 38.241 58.4627 39.0729C60.0324 39.9048 61.7496 40.8766 63.2403 42.3114C63.9678 43.0026 64.5962 43.7911 65.1076 44.6544C65.5823 45.4639 65.904 46.3539 66.0565 47.2798C66.1683 48.1175 66.1802 48.9655 66.0922 49.806C66.0235 50.5947 65.9217 51.3324 65.8378 51.9862C65.6834 53.033 65.6706 54.0957 65.7996 55.1459C65.8465 55.4294 65.9111 55.7098 65.9929 55.9854C66.0209 56.0744 66.0413 56.1431 66.0565 56.1991C66.0661 56.2222 66.0737 56.246 66.0794 56.2703Z" fill="#455A64"/>
<path d="M12.2637 94.4028C12.3224 94.3497 12.3894 94.3067 12.4621 94.2756C12.6532 94.1727 12.8533 94.0876 13.0599 94.0212C13.7464 93.8009 14.478 93.7615 15.1842 93.9067C15.8889 94.055 16.5446 94.3798 17.0896 94.8505C17.2527 94.9918 17.4025 95.1476 17.5374 95.3161C17.634 95.4382 17.6773 95.5094 17.6697 95.5145C17.662 95.5196 17.4483 95.2601 17.0286 94.9243C16.485 94.4828 15.8433 94.1785 15.1575 94.0368C14.4717 93.8951 13.7619 93.9203 13.0879 94.1102C12.569 94.2578 12.2738 94.4257 12.2637 94.4028Z" fill="#263238"/>
<path d="M15.9375 92.5073C16.1105 92.5954 16.2678 92.7115 16.4031 92.8508C17.0952 93.485 17.5838 94.31 17.8073 95.2218C17.864 95.4071 17.8906 95.6004 17.8862 95.7942C17.7173 95.1742 17.4757 94.5765 17.1662 94.0134C16.8178 93.4644 16.4053 92.9589 15.9375 92.5073Z" fill="#263238"/>
<path d="M35.3652 114.332C35.3652 114.332 38.067 101.177 43.7935 98.6333L66.4986 97.9668C66.4986 97.9668 74.0008 102.991 75.2016 114.406L35.3652 114.332Z" fill="#263238"/>
<path d="M50.4311 58.2983C50.4311 58.2983 51.1002 62.5086 55.5928 61.9998C60.0855 61.491 61.8434 58.9801 61.8434 58.9801L68.0864 60.9823L69.0684 73.0586C65.5085 79.9912 63.5113 87.6199 63.2172 95.4075C63.1663 96.7126 63.1205 98.1449 62.2505 99.1192C61.7162 99.7196 60.9429 100.048 60.1797 100.307C57.7495 101.12 55.1795 101.431 52.6256 101.221C50.0717 101.01 47.5871 100.283 45.3228 99.0836C45.3228 99.0836 43.4148 78.4213 43.6488 77.8362C43.8829 77.2511 47.0069 59.868 47.0069 59.868L50.4311 58.2983Z" fill="#E0E0E0"/>
<path d="M43.7939 59.2524C43.7939 59.2524 39.8253 59.5323 38.7619 60.064C37.6985 60.5957 23.7854 78.05 23.2436 78.3171C22.8009 78.5384 14.5202 86.234 11.1037 93.6828C10.4295 95.1507 9.90797 97.2444 11.0172 98.6334C11.0172 98.6334 15.0061 93.6243 17.4026 95.8223L28.1179 84.962L39.3114 78.4341L43.7939 59.2524Z" fill="#455A64"/>
<g opacity="0.3">
<path d="M47.8496 93.3641C52.5611 84.2668 52.5611 71.0838 50.3147 58.9795L48.2999 76.1794L47.8496 93.3641Z" fill="black"/>
</g>
<path d="M37.6894 62.442L38.043 77.1972C38.043 77.1972 39.4549 93.5448 39.7271 93.5448C39.9993 93.5448 40.7905 99.3044 39.7271 101.874C38.6637 104.443 35.209 107.901 35.209 107.901L39.5516 112.597C39.5516 112.597 43.622 106.127 44.8685 101.963C46.1151 97.7984 49.5647 91.5097 50.0964 79.8073C50.6281 68.1049 50.4093 56.6875 50.4093 56.6875L46.9953 59.1603L43.7135 59.2289L37.6894 62.442Z" fill="#455A64"/>
<path d="M45.5625 101.177C45.5625 101.177 45.5625 101.129 45.5981 101.037C45.6337 100.946 45.6617 100.806 45.7126 100.63L46.1425 99.0604C46.5038 97.6943 47.0151 95.7126 47.4883 93.2322C47.7249 91.9932 47.9513 90.6271 48.1065 89.1618C48.1803 88.424 48.2362 87.6583 48.2541 86.8722C48.2788 86.0618 48.2346 85.2507 48.1218 84.4478C48.059 84.0332 47.9611 83.6247 47.8292 83.2266C47.6944 82.8222 47.5748 82.41 47.3942 82.0081L47.1398 81.3975L46.865 80.792C46.687 80.385 46.4834 79.9831 46.2825 79.576C45.4684 77.9555 44.5169 76.3299 43.4841 74.7017C42.5937 73.2949 41.6804 71.939 40.7544 70.6568L40.7188 70.6059L40.7671 70.5677L47.4094 65.116L47.4527 65.2177L41.6015 65.8919L41.4845 65.9046L41.5583 65.813C43.2297 63.7778 44.5856 62.109 45.5243 60.9565L46.6055 59.6413L46.8905 59.3004C46.9566 59.2241 46.9922 59.1885 46.9922 59.1885L46.9006 59.3106L46.6284 59.6591L45.5625 60.9642L41.632 65.8486L41.5888 65.7723L47.44 65.0778L47.6359 65.0549L47.4832 65.1796L40.8485 70.6492L40.8612 70.5601C41.7898 71.8448 42.7031 73.2008 43.596 74.6102C44.6136 76.2408 45.5803 77.869 46.3944 79.4997C46.5979 79.9067 46.8014 80.3087 46.9795 80.7208L47.2543 81.3288L47.5087 81.9419C47.6817 82.3464 47.8089 82.7611 47.9462 83.1681C48.0779 83.5732 48.1757 83.9884 48.2388 84.4096C48.3511 85.2194 48.3937 86.0373 48.366 86.8544C48.3482 87.6481 48.2897 88.4164 48.2133 89.1567C48.0531 90.6373 47.8216 92.0034 47.5799 93.2449C47.0914 95.7278 46.5623 97.707 46.1909 99.0706C46.0001 99.7499 45.8449 100.276 45.7355 100.633C45.6795 100.806 45.6388 100.94 45.6083 101.037C45.5778 101.134 45.5625 101.177 45.5625 101.177Z" fill="#263238"/>
<path d="M61.8437 55.3574C61.8437 55.3574 64.0418 58.746 64.2707 58.9801C64.2707 58.9801 73.5563 61.608 74.1058 62.7146C76.3648 67.2786 74.5408 68.9194 74.1058 75.1929C73.5639 82.9903 70.9538 93.8429 70.9538 93.8429C70.9538 93.8429 74.6273 108 75.0242 108.781C75.421 109.562 62.5204 114.307 61.1518 112.521C59.7831 110.735 58.7121 104.584 58.7121 104.584C58.7121 104.584 57.4401 92.085 57.9311 87.1064C58.4221 82.1278 60.7295 77.0093 61.5436 70.9953C62.3729 64.6404 61.8437 55.3574 61.8437 55.3574Z" fill="#455A64"/>
<path d="M58.3965 90.2379C58.3993 90.176 58.4087 90.1146 58.4245 90.0547C58.4524 89.925 58.4881 89.752 58.5313 89.5459C58.5746 89.3399 58.6432 89.0371 58.7119 88.7293C58.7806 88.4215 58.9231 88.0628 59.0477 87.6736C59.761 85.6567 60.7287 83.7392 61.9275 81.9674C63.1249 80.1967 64.475 78.5342 65.9623 76.999C66.5347 76.4113 67.0181 75.9559 67.3615 75.6507C67.532 75.498 67.6719 75.3963 67.766 75.3098C67.8131 75.2705 67.8642 75.2363 67.9186 75.208C67.9186 75.208 67.1554 75.8745 66.031 77.0626C64.5687 78.612 63.2339 80.277 62.0395 82.0412C60.8486 83.8025 59.8733 85.7003 59.1342 87.6939C59.007 88.0806 58.8798 88.4291 58.7832 88.7395C58.6865 89.0499 58.6382 89.3221 58.5822 89.5485C58.5262 89.7749 58.483 89.9301 58.4499 90.0573C58.4365 90.1187 58.4187 90.1791 58.3965 90.2379Z" fill="#263238"/>
<path d="M64.2617 59.1377C64.2994 59.1917 64.331 59.2497 64.3558 59.3107C64.4169 59.4379 64.4983 59.6083 64.6102 59.8195C64.8214 60.2774 65.119 60.9185 65.4879 61.7046C65.6728 62.1048 65.8729 62.539 66.0883 63.0071L66.4241 63.7321C66.536 63.9865 66.6632 64.2409 66.7574 64.5106C67.1644 65.5994 67.6122 66.8002 68.0828 68.0442L69.136 70.8731L69.1614 70.9418L69.0902 70.9571L66.6098 71.4939L66.6454 71.4175L67.892 74.1549C68.0319 74.4754 68.1464 74.7324 68.2303 74.9181L68.3143 75.1216C68.3257 75.144 68.3334 75.168 68.3372 75.1928C68.3218 75.1733 68.309 75.1519 68.299 75.1292L68.1998 74.9333L67.836 74.1829L66.5488 71.4633L66.5182 71.4023L66.5869 71.387L69.0622 70.835L69.019 70.9189L67.9505 68.1053C67.485 66.8511 67.0423 65.6579 66.6378 64.5717C66.5437 64.2944 66.419 64.0425 66.3071 63.7907L65.9815 63.0631L65.4065 61.7453C65.058 60.9541 64.7705 60.3079 64.567 59.8475L64.3457 59.3387C64.312 59.2742 64.2839 59.207 64.2617 59.1377Z" fill="#263238"/>
<path d="M70.373 92.2581C70.373 92.2581 75.1227 97.0077 77.5649 96.7355C80.0071 96.4633 83.1973 91.1718 83.1973 89.3402C83.1973 87.5085 80.9077 75.6993 80.9077 75.6993L81.8566 71.2549L72.9527 71.0845L71.1719 84.7737L70.373 92.2581Z" fill="#455A64"/>
<path d="M76.1531 60.5293C76.1469 60.5635 76.1367 60.5968 76.1226 60.6285L76.0158 60.9109L75.8377 61.3688C75.7588 61.5469 75.6723 61.753 75.5706 61.9819C75.3645 62.4424 75.0948 62.9995 74.7565 63.6304C74.4181 64.2613 73.9933 64.9609 73.4845 65.7038C72.2882 67.4493 70.8713 69.0329 69.2691 70.4152C68.3272 71.2362 67.314 71.9718 66.2418 72.6133C65.0905 73.3118 63.8323 73.8163 62.5174 74.1066C61.194 74.3939 59.8211 74.3608 58.5131 74.0099C57.8931 73.8378 57.2999 73.581 56.7501 73.2467C56.2262 72.9218 55.7523 72.5225 55.3433 72.0612C54.6133 71.1951 53.9858 70.2476 53.4735 69.2374C52.9647 68.3088 52.5017 67.4362 52.115 66.6222C51.7623 65.8907 51.4556 65.1379 51.1966 64.3682C51.0044 63.7862 50.8547 63.1911 50.7489 62.5874C50.6567 62.0729 50.6158 61.5505 50.6267 61.0279C50.6294 61.0626 50.6294 61.0975 50.6267 61.1322C50.6267 61.206 50.6267 61.3052 50.6445 61.4324C50.673 61.8171 50.7214 62.2001 50.7896 62.5798C50.9035 63.1794 51.06 63.7703 51.2577 64.3478C51.5232 65.1111 51.8341 65.8578 52.1887 66.584C52.5805 67.393 53.0486 68.2605 53.56 69.1865C54.0709 70.1879 54.6958 71.1269 55.4222 71.9849C55.8256 72.4351 56.2917 72.8249 56.8061 73.1424C57.3468 73.4682 57.9298 73.7182 58.5386 73.8853C59.8262 74.2281 61.177 74.2595 62.4792 73.9768C63.7799 73.6885 65.025 73.1902 66.1654 72.5013C67.232 71.8648 68.2407 71.1362 69.1801 70.3237C70.778 68.9513 72.1946 67.3809 73.3955 65.6504C73.9043 64.9126 74.3266 64.213 74.6827 63.5948C75.0389 62.9766 75.3009 62.4169 75.5146 61.9616C75.6189 61.7326 75.7105 61.5291 75.7919 61.3535L75.9802 60.9007L76.0997 60.6234C76.1139 60.5901 76.1318 60.5585 76.1531 60.5293Z" fill="#263238"/>
<path d="M74.2717 60.8555C74.2269 60.9151 74.1767 60.9705 74.1216 61.0209L73.679 61.4737L72.0203 63.1196L69.5704 65.5619C69.0791 66.0394 68.5404 66.4656 67.9626 66.8339C67.3384 67.2402 66.6273 67.4939 65.8867 67.5742C65.1413 67.6618 64.3869 67.5169 63.7269 67.1595C63.4227 66.987 63.1563 66.7551 62.9434 66.4776C62.7306 66.2 62.5757 65.8826 62.488 65.5441C62.3378 64.9394 62.2677 64.3176 62.2794 63.6946C62.2794 63.1146 62.2997 62.5752 62.3099 62.0817C62.3572 61.3079 62.3025 60.5313 62.1471 59.7718C62.0933 59.5688 62.0209 59.3712 61.9308 59.1816C61.8974 59.1154 61.8677 59.0475 61.8418 58.978C61.8851 59.0379 61.9226 59.1018 61.9537 59.1688C62.0558 59.356 62.1369 59.554 62.1954 59.759C62.3725 60.5207 62.4428 61.3032 62.404 62.0842C62.404 62.5778 62.3811 63.1171 62.3888 63.6946C62.3827 64.306 62.4554 64.9156 62.605 65.5085C62.6895 65.8313 62.838 66.1339 63.0417 66.3982C63.2453 66.6626 63.4999 66.8834 63.7905 67.0476C64.4283 67.3891 65.1555 67.5267 65.874 67.4419C66.594 67.3633 67.2857 67.1176 67.894 66.7245C68.4658 66.3603 68.9994 65.9393 69.4865 65.4678C69.9597 65.0251 70.382 64.5697 70.8017 64.1729C71.2215 63.776 71.6056 63.3944 71.9593 63.051L73.6434 61.433L74.1038 60.998C74.1569 60.9471 74.2129 60.8995 74.2717 60.8555Z" fill="#263238"/>
<path d="M40.5783 95.4357C40.57 95.4136 40.5649 95.3905 40.563 95.367L40.5325 95.161C40.5096 94.9702 40.4765 94.703 40.4333 94.3672C40.3468 93.6651 40.2247 92.6704 40.0746 91.4442C39.7744 88.9765 39.3495 85.565 38.9501 81.7923C38.7491 79.9046 38.5812 78.106 38.4413 76.4652C38.3014 74.8243 38.2124 73.3488 38.1589 72.1048C38.1233 71.484 38.1055 70.9218 38.0903 70.4283C38.075 69.9347 38.0623 69.5099 38.0623 69.1563C38.0623 68.8027 38.0623 68.5483 38.0623 68.3549V68.1489C38.06 68.1252 38.06 68.1013 38.0623 68.0776C38.0656 68.1004 38.0656 68.1235 38.0623 68.1463C38.0623 68.2023 38.0623 68.271 38.075 68.3549C38.075 68.5483 38.0852 68.8154 38.1055 69.1563C38.1055 69.5023 38.131 69.9195 38.1564 70.4283C38.1818 70.9371 38.2047 71.484 38.2429 72.1022C38.309 73.3437 38.4235 74.8192 38.5558 76.4575C38.6881 78.0959 38.8687 79.8945 39.0646 81.7821C39.4666 85.5523 39.8761 88.9638 40.1509 91.434C40.2832 92.6628 40.4053 93.6625 40.4689 94.3621C40.502 94.7005 40.5274 94.9676 40.5452 95.161C40.5452 95.2458 40.5503 95.3145 40.5605 95.367C40.5702 95.3888 40.5762 95.412 40.5783 95.4357Z" fill="#263238"/>
<path d="M81.8653 71.2551H81.214L79.3874 71.2373L72.9511 71.1407L73.0122 71.0923C72.651 73.0029 72.3584 75.1805 72.132 77.4828C71.73 81.7084 71.5621 85.5498 71.3561 88.3253C71.2568 89.7143 71.1627 90.8362 71.1017 91.6096C71.0635 91.9912 71.0304 92.2889 71.0101 92.5026C70.9974 92.5967 70.9897 92.673 70.9821 92.7341C70.9804 92.7599 70.9761 92.7854 70.9694 92.8104C70.9659 92.7842 70.9659 92.7577 70.9694 92.7315C70.9694 92.673 70.9694 92.5941 70.9821 92.5C70.9999 92.2863 71.0228 91.9912 71.0508 91.6071C71.1093 90.8439 71.1882 89.7067 71.2747 88.3202C71.4578 85.5447 71.6105 81.7059 72.015 77.4701C72.2388 75.1627 72.5365 72.9825 72.9079 71.0694V71.0186H72.9588L79.3925 71.1636L81.2217 71.2144L81.705 71.2322H81.8297C81.8526 71.2501 81.8653 71.2526 81.8653 71.2551Z" fill="#263238"/>
<path d="M79.6912 74.4805C80.0762 74.4805 80.3882 74.1685 80.3882 73.7835C80.3882 73.3985 80.0762 73.0864 79.6912 73.0864C79.3062 73.0864 78.9941 73.3985 78.9941 73.7835C78.9941 74.1685 79.3062 74.4805 79.6912 74.4805Z" fill="#E0E0E0"/>
<path d="M80.3889 73.7832C80.3706 73.729 80.3553 73.6738 80.3431 73.6179C80.2976 73.4762 80.2086 73.3524 80.0887 73.2642C80.0013 73.202 79.8998 73.1622 79.7933 73.1484C79.6868 73.1347 79.5786 73.1474 79.4782 73.1854C79.3565 73.231 79.2516 73.3127 79.1776 73.4196C79.1036 73.5264 79.064 73.6532 79.064 73.7832C79.064 73.9132 79.1036 74.04 79.1776 74.1469C79.2516 74.2537 79.3565 74.3354 79.4782 74.381C79.5788 74.4187 79.6871 74.4309 79.7936 74.4167C79.9001 74.4025 80.0015 74.3623 80.0887 74.2996C80.2091 74.212 80.2983 74.088 80.3431 73.946C80.355 73.8909 80.3703 73.8365 80.3889 73.7832C80.3889 73.7832 80.4118 73.8443 80.3889 73.9587C80.3554 74.1232 80.2654 74.2708 80.1345 74.376C80.0362 74.4546 79.9193 74.5069 79.7951 74.5278C79.6709 74.5487 79.5435 74.5376 79.4247 74.4955C79.2808 74.4401 79.157 74.3424 79.0696 74.2153C78.9823 74.0881 78.9355 73.9375 78.9355 73.7832C78.9355 73.6289 78.9823 73.4783 79.0696 73.3511C79.157 73.224 79.2808 73.1263 79.4247 73.0709C79.5435 73.0288 79.6709 73.0177 79.7951 73.0386C79.9193 73.0595 80.0362 73.1118 80.1345 73.1905C80.2657 73.2942 80.3558 73.4412 80.3889 73.6051C80.4144 73.7196 80.3965 73.7832 80.3889 73.7832Z" fill="#263238"/>
<path d="M59.8787 95.9366C60.2637 95.9366 60.5757 95.6245 60.5757 95.2395C60.5757 94.8546 60.2637 94.5425 59.8787 94.5425C59.4937 94.5425 59.1816 94.8546 59.1816 95.2395C59.1816 95.6245 59.4937 95.9366 59.8787 95.9366Z" fill="#E0E0E0"/>
<path d="M60.5713 95.2397C60.5713 95.2397 60.5561 95.1786 60.523 95.0768C60.4775 94.9351 60.3885 94.8114 60.2686 94.7232C60.173 94.6534 60.06 94.6114 59.942 94.6019C59.824 94.5924 59.7057 94.6157 59.6002 94.6694C59.4946 94.723 59.406 94.8047 59.3441 94.9056C59.2822 95.0065 59.2494 95.1226 59.2494 95.2409C59.2494 95.3593 59.2822 95.4753 59.3441 95.5762C59.406 95.6771 59.4946 95.7589 59.6002 95.8125C59.7057 95.8661 59.824 95.8894 59.942 95.8799C60.06 95.8704 60.173 95.8284 60.2686 95.7586C60.3885 95.6705 60.4775 95.5467 60.523 95.405C60.5561 95.3033 60.5586 95.2397 60.5713 95.2397C60.5873 95.298 60.5873 95.3594 60.5713 95.4177C60.5393 95.5821 60.449 95.7294 60.317 95.8324C60.2192 95.9113 60.1029 95.9639 59.9792 95.9853C59.8554 96.0066 59.7283 95.996 59.6097 95.9545C59.4649 95.8996 59.3402 95.8019 59.2523 95.6745C59.1643 95.547 59.1172 95.3958 59.1172 95.2409C59.1172 95.0861 59.1643 94.9349 59.2523 94.8074C59.3402 94.6799 59.4649 94.5823 59.6097 94.5273C59.7283 94.4858 59.8554 94.4752 59.9792 94.4966C60.1029 94.518 60.2192 94.5706 60.317 94.6494C60.449 94.7525 60.5393 94.8997 60.5713 95.0641C60.5877 95.1215 60.5877 95.1823 60.5713 95.2397Z" fill="#263238"/>
<path d="M62.0183 105.861C62.0183 105.999 61.9773 106.134 61.9004 106.249C61.8236 106.364 61.7143 106.454 61.5865 106.507C61.4586 106.56 61.318 106.574 61.1823 106.547C61.0465 106.52 60.9219 106.453 60.8241 106.355C60.7262 106.258 60.6596 106.133 60.6326 105.997C60.6056 105.862 60.6194 105.721 60.6724 105.593C60.7253 105.465 60.815 105.356 60.9301 105.279C61.0451 105.202 61.1804 105.161 61.3187 105.161C61.5043 105.161 61.6822 105.235 61.8134 105.366C61.9446 105.497 62.0183 105.675 62.0183 105.861Z" fill="#E0E0E0"/>
<path d="M62.0173 105.861C62.0045 105.861 62.002 105.797 61.9689 105.695C61.9244 105.553 61.8352 105.429 61.7145 105.342C61.6408 105.286 61.5558 105.246 61.4654 105.226C61.375 105.206 61.2812 105.205 61.1906 105.225C61.1 105.244 61.0146 105.283 60.9403 105.338C60.866 105.393 60.8046 105.464 60.7601 105.545C60.7157 105.627 60.6893 105.717 60.6828 105.809C60.6763 105.901 60.6899 105.994 60.7225 106.081C60.7552 106.168 60.8061 106.246 60.872 106.311C60.9378 106.377 61.0169 106.427 61.104 106.459C61.2046 106.496 61.3129 106.509 61.4194 106.494C61.5259 106.48 61.6273 106.44 61.7145 106.377C61.8357 106.29 61.9251 106.166 61.9689 106.024C62.002 105.922 62.0045 105.858 62.0173 105.861C62.0336 105.918 62.0336 105.979 62.0173 106.036C61.9859 106.201 61.8954 106.348 61.7629 106.451C61.6646 106.53 61.5479 106.582 61.4238 106.604C61.2996 106.625 61.172 106.615 61.0531 106.573C60.9083 106.518 60.7836 106.421 60.6956 106.293C60.6077 106.166 60.5605 106.014 60.5605 105.86C60.5605 105.705 60.6077 105.553 60.6956 105.426C60.7836 105.299 60.9083 105.201 61.0531 105.146C61.172 105.104 61.2996 105.094 61.4238 105.115C61.5479 105.137 61.6646 105.189 61.7629 105.268C61.8954 105.371 61.9859 105.518 62.0173 105.683C62.0332 105.741 62.0332 105.803 62.0173 105.861Z" fill="#263238"/>
<path d="M80.924 75.699C80.924 75.7371 79.0974 75.6812 76.8536 75.5794C74.6098 75.4776 72.7832 75.3632 72.7832 75.325C72.7832 75.2868 74.6098 75.3428 76.8536 75.4471C79.0974 75.5514 80.924 75.6634 80.924 75.699Z" fill="#263238"/>
<path d="M40.6692 89.3247L38.0438 90.3728L32.3325 76.0807C32.0123 75.2789 31.5373 74.548 30.9346 73.9298C30.3319 73.3116 29.6134 72.8181 28.82 72.4776C28.0266 72.1371 27.1739 71.9561 26.3106 71.9451C25.4473 71.9342 24.5903 72.0933 23.7885 72.4135C22.9867 72.7337 22.2558 73.2087 21.6376 73.8114C21.0194 74.4141 20.5259 75.1326 20.1854 75.926C19.8449 76.7194 19.664 77.5721 19.653 78.4354C19.642 79.2987 19.8011 80.1557 20.1214 80.9575L25.8326 95.2497L23.2072 96.3003L17.4934 82.0082C17.0354 80.8621 16.8076 79.6371 16.823 78.403C16.8384 77.1688 17.0968 75.9499 17.5833 74.8156C18.0698 73.6813 18.775 72.654 19.6585 71.7923C20.5421 70.9305 21.5867 70.2512 22.7328 69.7932C23.8788 69.3352 25.1039 69.1074 26.338 69.1228C27.5721 69.1382 28.7911 69.3966 29.9254 69.8831C32.2161 70.8657 34.0227 72.718 34.9477 75.0326L40.6692 89.3247Z" fill="#E0E0E0"/>
<path d="M40.6699 89.3249L40.5529 89.0399L40.2196 88.203L38.9476 85.0281C38.393 83.6492 37.7138 81.9753 36.9277 80.0113C36.5342 79.0344 36.1153 77.9914 35.6709 76.8822C35.2054 75.7857 34.8289 74.5646 34.1064 73.4554C33.3571 72.2879 32.3524 71.3058 31.1681 70.5833C31.0129 70.4892 30.8603 70.3925 30.7025 70.3034L30.209 70.0618C29.8784 69.9033 29.5386 69.7648 29.1914 69.6471C29.0159 69.5809 28.8302 69.5453 28.6495 69.4919C28.4689 69.4385 28.2857 69.3825 28.0975 69.3571C27.7196 69.2817 27.3372 69.2307 26.9527 69.2044C26.1658 69.1455 25.3747 69.1831 24.597 69.3164L24.0093 69.4537L23.7142 69.5224L23.4242 69.6191L22.8441 69.8201C22.6533 69.8939 22.4702 69.988 22.2819 70.0745C20.7302 70.7969 19.4092 71.9355 18.4659 73.3639C17.7145 74.4964 17.2201 75.7797 17.0175 77.1237C16.8149 78.4676 16.909 79.8397 17.2932 81.1434C17.573 82.0287 17.9546 82.9013 18.3108 83.7891L22.6991 94.769L23.2995 96.2674L23.213 96.2318L25.8384 95.1811L25.8028 95.2676C24.6656 92.426 23.5565 89.6429 22.4753 86.9411L20.8827 82.9471L20.1043 81.0009C19.8524 80.3536 19.6955 79.6733 19.6387 78.981C19.5494 77.6271 19.8751 76.2781 20.5724 75.1141C20.6495 74.9705 20.7344 74.8312 20.8268 74.6969L21.1193 74.3051C21.5362 73.8119 22.0171 73.3764 22.549 73.0103C22.6813 72.9187 22.8212 72.8449 22.9586 72.7559L23.1621 72.6363L23.3784 72.5371C23.9424 72.266 24.542 72.0758 25.1592 71.9723C25.7591 71.8776 26.3689 71.8614 26.973 71.924C28.1354 72.0595 29.2417 72.4981 30.181 73.196C31.0705 73.8407 31.7778 74.7049 32.234 75.7043C32.2874 75.8239 32.3434 75.9435 32.3968 76.0605C32.4503 76.1775 32.4935 76.3022 32.5393 76.4217L32.8242 77.1315C33.0091 77.603 33.1923 78.0635 33.3737 78.5129L35.3479 83.4711C36.5334 86.4629 37.4619 88.8135 38.0801 90.3603L38.0547 90.3475L40.039 89.5665L40.5249 89.3783L40.6877 89.3172L40.5351 89.3834C40.4282 89.4266 40.2807 89.4902 40.0568 89.5793L38.0699 90.3832H38.0521V90.3654C37.4263 88.8135 36.4876 86.4781 35.2868 83.4966C34.6864 82.0033 34.0148 80.3471 33.2974 78.5434L32.7454 77.1646C32.6512 76.9305 32.5546 76.694 32.4604 76.4548L32.3154 76.0936C32.262 75.9765 32.2086 75.8595 32.1526 75.7425C31.9291 75.2622 31.649 74.8104 31.3182 74.3967C30.9676 73.9765 30.5679 73.5998 30.1276 73.2748C29.2001 72.5941 28.111 72.167 26.968 72.0359C26.3746 71.9767 25.7761 71.9938 25.1872 72.0868C24.5832 72.1907 23.9967 72.3782 23.4445 72.6439L23.2334 72.7406L23.0324 72.8602C22.9001 72.9416 22.7602 73.0153 22.6304 73.1018C22.3709 73.281 22.1235 73.4773 21.8901 73.6895C21.6538 73.9026 21.4328 74.1321 21.2287 74.3764L20.9412 74.7631C20.8395 74.8903 20.7682 75.0353 20.6868 75.1701C20.0041 76.3142 19.6856 77.6389 19.7735 78.9683C19.8312 79.6473 19.9854 80.3146 20.2315 80.95C20.4859 81.5937 20.7403 82.2449 21.0125 82.8987L22.6076 86.8903L25.9376 95.2168L25.9631 95.2778L25.902 95.3032C25.0472 95.6416 24.1696 95.9952 23.2766 96.3514L23.213 96.3768L23.1901 96.3158L22.5897 94.8148C21.0862 91.0548 19.6209 87.3813 18.2039 83.8349C17.8554 82.9445 17.4763 82.0821 17.1863 81.1765C16.9312 80.2769 16.8028 79.3462 16.8047 78.4111C16.8262 77.4954 16.9708 76.5866 17.2346 75.7094C17.5076 74.8571 17.8935 74.0451 18.382 73.2952C19.3349 71.8509 20.6688 70.6984 22.2361 69.9651C22.4295 69.8811 22.6152 69.787 22.8085 69.7107L23.3936 69.5097C23.4929 69.4792 23.5895 69.441 23.6862 69.4131L23.9864 69.3444L24.5817 69.207C25.3694 69.0712 26.171 69.0336 26.968 69.0951C27.356 69.1219 27.7419 69.1746 28.1229 69.2528C28.3118 69.2875 28.4986 69.3325 28.6826 69.3876C28.8658 69.4436 29.054 69.4792 29.2296 69.5453C29.5848 69.6667 29.933 69.8077 30.2726 69.9676L30.7814 70.222C30.9391 70.3111 31.0943 70.4128 31.2495 70.5044C32.4449 71.2377 33.4583 72.2328 34.2132 73.4147C34.9408 74.5417 35.3148 75.7679 35.7778 76.8695L37.0294 80.0139C37.8079 81.9753 38.477 83.6645 39.0265 85.0459L40.2807 88.2208L40.6063 89.045C40.6368 89.2206 40.6699 89.3249 40.6699 89.3249Z" fill="#263238"/>
<path d="M39.2515 79.526L19.3001 87.502C17.9942 88.024 17.3588 89.5059 17.8808 90.8118L24.0313 106.197C24.5534 107.503 26.0353 108.138 27.3412 107.616L47.2926 99.6404C48.5985 99.1183 49.2339 97.6364 48.7119 96.3305L42.5614 80.9453C42.0393 79.6394 40.5574 79.004 39.2515 79.526Z" fill="#FF6D38"/>
<g opacity="0.3">
<path d="M39.1637 79.5619L19.3919 87.4661C18.0364 88.008 17.3768 89.5461 17.9187 90.9016L23.9974 106.107C24.5393 107.463 26.0774 108.122 27.4329 107.58L47.2048 99.6763C48.5603 99.1344 49.2198 97.5962 48.6779 96.2407L42.5992 81.0351C42.0573 79.6796 40.5192 79.02 39.1637 79.5619Z" fill="black"/>
</g>
<path d="M36.352 80.6844L18.17 87.9531C16.868 88.4736 16.2345 89.951 16.755 91.253L22.9111 106.652C23.4316 107.954 24.9091 108.588 26.2111 108.067L44.3931 100.799C45.6951 100.278 46.3287 98.8008 45.8082 97.4988L39.652 82.0995C39.1315 80.7975 37.6541 80.1639 36.352 80.6844Z" fill="#FF6D38"/>
<g opacity="0.3">
<path d="M33.7506 91.3346C33.5439 90.8106 33.195 90.3548 32.7432 90.0185C32.2914 89.6821 31.7547 89.4786 31.1935 89.4308C30.6323 89.383 30.0689 89.4929 29.5668 89.748C29.0646 90.0032 28.6437 90.3934 28.3514 90.8749C28.0591 91.3563 27.907 91.9098 27.9122 92.473C27.9175 93.0362 28.0799 93.5868 28.3812 94.0627C28.6825 94.5386 29.1107 94.9209 29.6175 95.1666C30.1243 95.4123 30.6897 95.5116 31.2499 95.4533L32.6211 98.8877C32.7031 99.0905 32.8621 99.2526 33.0633 99.3384C33.2645 99.4242 33.4915 99.4268 33.6947 99.3456C33.7952 99.3055 33.8869 99.246 33.9645 99.1705C34.0421 99.095 34.104 99.0049 34.1467 98.9055C34.1895 98.806 34.2123 98.6991 34.2137 98.5909C34.2151 98.4826 34.1952 98.3751 34.1551 98.2746L32.7814 94.8402C33.3023 94.4408 33.6787 93.8825 33.8536 93.2499C34.0285 92.6172 33.9924 91.9448 33.7506 91.3346Z" fill="black"/>
</g>
<path d="M46.0041 97.967C45.9685 97.9797 44.5565 94.4818 42.8495 90.1544C41.1425 85.8271 39.7815 82.3062 39.8171 82.2935C39.8527 82.2808 41.2621 85.7788 42.9716 90.1061C44.6812 94.4334 46.0371 97.9543 46.0041 97.967Z" fill="#263238"/>
<path d="M33.5345 95.1304C33.8114 94.8426 34.0523 94.5223 34.2519 94.1764C34.4579 93.7972 34.5956 93.3847 34.6589 92.9579C34.7457 92.4374 34.7067 91.9037 34.5452 91.4014C34.3837 90.8991 34.1043 90.4427 33.7304 90.0704C33.4322 89.7568 33.0808 89.4984 32.6924 89.3072C32.3278 89.1437 31.9453 89.0233 31.5527 88.9485C31.6617 88.9423 31.771 88.9491 31.8784 88.9689C32.1731 89.0126 32.4601 89.0982 32.7306 89.2233C33.1365 89.4089 33.5047 89.6676 33.8169 89.9865C34.2089 90.3696 34.5013 90.8426 34.6689 91.3644C34.8365 91.8862 34.8741 92.4411 34.7785 92.9808C34.709 93.4196 34.558 93.8415 34.3333 94.2248C34.1859 94.4841 34.0017 94.7206 33.7864 94.9269C33.7114 95.0052 33.6268 95.0736 33.5345 95.1304Z" fill="#263238"/>
<path d="M33.656 82.4713C33.6687 82.5044 30.6159 83.8044 26.8356 85.374C23.0552 86.9437 19.9668 88.1902 19.9668 88.1572C19.9668 88.1241 23.0069 86.8241 26.7898 85.2519C30.5727 83.6797 33.6407 82.4383 33.656 82.4713Z" fill="white"/>
<path d="M28.646 95.1303C28.5771 95.0968 28.5136 95.053 28.4577 95.0006C28.3 94.8677 28.1567 94.7184 28.0303 94.5554C27.6005 94.0163 27.3458 93.3587 27.3003 92.6707C27.2549 91.9827 27.4208 91.2973 27.7759 90.7063C27.8812 90.5285 28.0049 90.3623 28.1448 90.2103C28.1919 90.1504 28.2486 90.0988 28.3127 90.0576C28.3331 90.0754 28.1016 90.312 27.8573 90.7521C27.5354 91.3346 27.387 91.997 27.4299 92.6611C27.4727 93.3252 27.7049 93.9632 28.099 94.4994C28.4043 94.9141 28.6612 95.11 28.646 95.1303Z" fill="white"/>
<path d="M30.2987 96.0157C30.2987 96.0538 30.1003 96.0513 29.8688 96.0157C29.6373 95.9801 29.4516 95.9165 29.4592 95.8783C29.4668 95.8401 29.6576 95.8452 29.8891 95.8783C30.1206 95.9114 30.2987 95.9801 30.2987 96.0157Z" fill="white"/>
<path d="M22.0812 70.6494C21.9374 70.742 21.7888 70.827 21.636 70.9038C21.233 71.1355 20.8493 71.3992 20.4887 71.6925C19.119 72.8183 18.1466 74.3537 17.7143 76.0732C17.2821 77.7927 17.4127 79.6054 18.0871 81.2451C18.2118 81.5504 18.2907 81.7158 18.2805 81.7209C18.2532 81.6855 18.2302 81.6471 18.2118 81.6064C18.1711 81.5301 18.1049 81.4181 18.0388 81.2655C17.8432 80.8383 17.6881 80.3937 17.5758 79.9375C17.1884 78.4221 17.253 76.8265 17.7616 75.3474C18.2702 73.8683 19.2004 72.5704 20.4378 71.6136C20.8065 71.3228 21.2017 71.0673 21.6182 70.8504C21.7657 70.7715 21.8853 70.7232 21.9642 70.6876C22.0019 70.6711 22.0411 70.6584 22.0812 70.6494Z" fill="white"/>
<path d="M19.0562 84.2674C18.9035 84.0509 18.7867 83.8113 18.7102 83.5576C18.5939 83.3174 18.5182 83.0595 18.4863 82.7944C18.6413 83.0095 18.7583 83.2496 18.8323 83.5042C18.9484 83.7446 19.024 84.0024 19.0562 84.2674Z" fill="white"/>
<g opacity="0.3">
<path d="M38.0903 69.2354C36.948 72.5044 37.5128 76.1804 38.7848 79.4113C38.7848 79.4011 38.1208 72.657 38.0903 69.2354Z" fill="black"/>
</g>
<g opacity="0.3">
<path d="M58.0914 93.1C59.3507 90.2558 60.6125 87.4015 62.2356 84.7481C63.8587 82.0947 65.7972 79.5736 68.2776 77.7089C68.9492 77.2001 70.2034 76.2537 70.2034 76.2537C70.2034 76.2537 69.8676 75.6177 69.5368 75.0911C69.1552 74.4805 68.5193 73.4222 68.1834 72.9007L69.6717 73.1984C69.6717 73.1984 68.6541 70.8528 68.6821 71.0105C68.0173 71.1837 67.3439 71.3221 66.6647 71.4252C67.1862 72.6718 67.7408 73.7988 68.2623 75.0453C65.4639 77.2713 63.1743 80.0722 61.2562 83.0334C59.338 85.9946 58.01 89.4316 58.0787 92.955" fill="black"/>
</g>
<path d="M63.4117 48.4552C63.4448 48.4272 63.5237 48.4552 63.6127 48.5544C63.7323 48.7081 63.7935 48.8992 63.7857 49.0938C63.7859 49.234 63.7564 49.3727 63.6992 49.5008C63.6287 49.6559 63.5213 49.7913 63.3863 49.8951C63.2327 50.0165 63.0503 50.0959 62.8569 50.1258C62.6635 50.1556 62.4656 50.1348 62.2826 50.0653C62.0997 49.9959 61.9378 49.8802 61.8129 49.7295C61.688 49.5788 61.6042 49.3984 61.5699 49.2057C61.54 49.0534 61.5453 48.8963 61.5854 48.7464C61.6255 48.5965 61.6994 48.4577 61.8014 48.3407C61.9249 48.1912 62.0968 48.0895 62.2873 48.0533C62.4221 48.0355 62.4959 48.0685 62.5061 48.1118C62.5264 48.2034 62.3076 48.3204 62.1881 48.6053C62.121 48.7499 62.1119 48.9147 62.1626 49.0658C62.1879 49.1526 62.2331 49.2324 62.2946 49.2987C62.3561 49.3651 62.4322 49.4162 62.5169 49.4481C62.6015 49.4799 62.6924 49.4916 62.7824 49.4822C62.8724 49.4728 62.9589 49.4426 63.0352 49.3939C63.1738 49.316 63.2768 49.1874 63.3227 49.0352C63.4194 48.7427 63.3329 48.5163 63.4117 48.4552Z" fill="#E0E0E0"/>
<path d="M17.4688 102.826C17.4688 102.826 18.3363 105.624 18.784 106.186C19.2317 106.749 22.226 107.051 22.226 107.051L17.4688 102.826Z" fill="#B5715A"/>
<path d="M21.055 98.379L22.7162 99.7121L27.6465 103.513C27.6465 103.513 27.6159 104.429 26.5068 104.22C25.6062 104.05 23.6092 102.948 23.6092 102.948C23.6092 102.948 25.9547 105.151 26.0361 106.181V106.37C26.0341 106.598 25.9427 106.816 25.7817 106.978L23.0418 105.149C23.0418 105.149 23.6295 106.181 24.207 107.252C24.2937 107.468 24.322 107.702 24.289 107.932C24.2559 108.161 24.1627 108.378 24.0187 108.56L17.9132 103.439L17.875 99.623L21.0423 98.3765" fill="#B5715A"/>
<path d="M20.4082 100.77C20.4867 100.775 20.5639 100.792 20.6372 100.821C20.7084 100.846 20.7923 100.884 20.8916 100.928C20.9908 100.971 21.0925 101.035 21.2096 101.101C21.6726 101.375 22.2602 101.821 22.9115 102.309C23.4567 102.733 24.0304 103.119 24.6287 103.464C25.0942 103.719 25.4097 103.815 25.3919 103.838C25.3143 103.833 25.2379 103.816 25.1655 103.787C25.0788 103.762 24.9939 103.731 24.9111 103.696C24.7981 103.653 24.6877 103.603 24.5803 103.548C23.9616 103.224 23.3732 102.845 22.8225 102.416C22.1712 101.925 21.5962 101.47 21.151 101.18L20.8483 100.994L20.6092 100.869C20.5383 100.845 20.4708 100.811 20.4082 100.77Z" fill="#884C3B"/>
<path d="M19.8477 102.63C20.0355 102.72 20.213 102.83 20.3768 102.958C20.6897 103.174 21.112 103.49 21.5623 103.856C22.0126 104.222 22.4069 104.571 22.6842 104.833C22.8427 104.964 22.9853 105.114 23.1091 105.278C22.9336 105.171 22.7699 105.046 22.6206 104.904L21.4784 103.958L20.3208 103.032C20.15 102.914 19.9914 102.779 19.8477 102.63Z" fill="#884C3B"/>
<path d="M11.6121 97.9667C11.5689 98.015 11.6325 98.1066 11.6732 98.1931C12.3372 99.5796 18.0332 103.518 18.0332 103.518L21.1394 98.2236C21.1394 98.2236 23.3959 99.315 24.3219 99.0631C25.0851 98.8545 26.5199 98.6993 25.8483 97.3612C25.8483 97.3612 22.6658 96.7761 21.5846 96.3105C20.5034 95.845 19.8267 95.6033 19.8267 95.6033C18.5919 95.6326 17.3582 95.5105 16.1532 95.2395C16.1532 95.2395 14.2502 94.9724 11.6121 97.9667Z" fill="#B5715A"/>
<path d="M23.8731 108.435C23.6207 108.265 23.3802 108.078 23.1532 107.876C22.6851 107.497 22.0949 107.016 21.4385 106.487C20.7822 105.957 20.1665 105.441 19.7493 105.065C19.5382 104.879 19.3703 104.724 19.2558 104.614C19.1922 104.562 19.1357 104.501 19.0879 104.434C19.3415 104.603 19.5829 104.79 19.8104 104.993L21.5225 106.382C22.1916 106.927 22.7945 107.428 23.2117 107.804C23.4229 107.99 23.5933 108.145 23.7052 108.255C23.8172 108.364 23.8808 108.43 23.8731 108.435Z" fill="#884C3B"/>
<path d="M77.2636 51.9965L79.225 52.3044L79.4616 50.806L78.6984 50.6864L78.8053 50.0046L78.098 49.8927L78.1922 49.2948L79.0088 49.422L79.0902 48.9132L77.7826 48.7072L77.8131 48.5113C77.8237 48.3876 77.785 48.2647 77.7054 48.1694C77.6259 48.0741 77.5119 48.0141 77.3883 48.0025C77.2651 47.9945 77.1437 48.0341 77.0489 48.1132C76.9542 48.1923 76.8936 48.3047 76.8795 48.4273C76.4996 50.8526 76.1188 53.2753 75.7372 55.6955L75.4319 57.634C74.7979 57.6513 74.1931 57.9047 73.7362 58.3447C73.2794 58.7848 73.0034 59.3796 72.9624 60.0125C72.9213 60.6455 73.1183 61.271 73.5145 61.7663C73.9107 62.2616 74.4777 62.591 75.1043 62.6899C75.7308 62.7889 76.3717 62.6502 76.9013 62.301C77.4308 61.9519 77.8109 61.4176 77.9669 60.8027C78.1229 60.1879 78.0436 59.537 77.7445 58.9776C77.4455 58.4183 76.9482 57.9908 76.3503 57.779C76.6454 55.9134 76.9397 54.0478 77.2331 52.1823L77.2636 51.9965ZM77.373 60.4655C77.3147 60.8346 77.1482 61.1782 76.8947 61.4528C76.6412 61.7274 76.3119 61.9207 75.9486 62.0082C75.5853 62.0957 75.2041 62.0735 74.8534 61.9445C74.5026 61.8155 74.198 61.5854 73.978 61.2833C73.758 60.9811 73.6325 60.6206 73.6173 60.2472C73.6022 59.8738 73.6981 59.5042 73.8929 59.1853C74.0877 58.8663 74.3727 58.6123 74.7118 58.4553C75.0509 58.2983 75.429 58.2453 75.7983 58.3031C76.0443 58.3418 76.2803 58.4287 76.4928 58.5588C76.7052 58.6889 76.8898 58.8596 77.0361 59.0612C77.1824 59.2628 77.2875 59.4913 77.3453 59.7336C77.4031 59.9759 77.4125 60.2272 77.373 60.4731V60.4655Z" fill="#E0E0E0"/>
<path d="M77.3751 60.4734C77.3902 60.2043 77.3618 59.9346 77.2911 59.6746C77.2043 59.3799 77.0441 59.1121 76.8256 58.8961C76.5472 58.6137 76.1848 58.4289 75.7927 58.3695L75.8258 58.2601L76.2201 58.4331L75.7927 58.3695C75.459 58.3181 75.1176 58.3601 74.8063 58.4908C74.4951 58.6215 74.226 58.8358 74.029 59.11C73.832 59.3842 73.7147 59.7075 73.6901 60.0443C73.6656 60.381 73.7347 60.7179 73.8898 61.0178C74.0524 61.3413 74.3098 61.6075 74.6276 61.781C74.8951 61.9308 75.1958 62.0114 75.5023 62.0154C75.8089 62.0194 76.1116 61.9467 76.3829 61.8039C76.7531 61.6075 77.0481 61.2945 77.2225 60.9135C77.2811 60.7705 77.3321 60.6244 77.3751 60.4759C77.3807 60.5156 77.3807 60.5558 77.3751 60.5955C77.356 60.7113 77.3244 60.8248 77.281 60.9339C77.1183 61.3386 76.8208 61.6747 76.4389 61.8853C76.2122 62.0097 75.963 62.0875 75.7058 62.1142C75.4486 62.1409 75.1887 62.116 74.9413 62.0409C74.6938 61.9658 74.4639 61.842 74.265 61.6768C74.0661 61.5116 73.9022 61.3083 73.783 61.0789C73.6171 60.7588 73.5433 60.3989 73.5697 60.0393C73.5961 59.6798 73.7218 59.3346 73.9327 59.0422C74.1437 58.7498 74.4316 58.5216 74.7644 58.3831C75.0973 58.2446 75.4621 58.2011 75.8182 58.2576L75.7851 58.367L75.373 58.1787L75.8182 58.2576C76.2324 58.3261 76.6129 58.528 76.9019 58.8325C77.1241 59.0642 77.2835 59.3488 77.3649 59.6593C77.4155 59.8569 77.4344 60.0613 77.4209 60.2648C77.4135 60.3358 77.3981 60.4058 77.3751 60.4734Z" fill="#263238"/>
<path d="M77.2651 51.9971C77.2651 51.9971 77.2651 52.0581 77.2448 52.1802C77.1735 52.7323 76.8657 54.7649 76.4002 57.777L76.3722 57.7261C76.957 57.9454 77.4414 58.3711 77.7338 58.923C78.0263 59.4749 78.1066 60.1147 77.9596 60.7217C77.8126 61.3288 77.4486 61.861 76.9361 62.218C76.4236 62.575 75.7981 62.7321 75.1778 62.6596C74.5575 62.587 73.9851 62.2899 73.5688 61.8244C73.1525 61.3588 72.921 60.7569 72.918 60.1323C72.915 59.5078 73.1408 58.9037 73.5526 58.4342C73.9645 57.9646 74.534 57.6621 75.1536 57.5837C75.2477 57.5684 75.3419 57.5659 75.4334 57.5582L75.3699 57.6142C75.6955 55.5587 76.0084 53.5769 76.3009 51.7198C76.4485 50.7912 76.591 49.8932 76.7283 49.0333C76.7614 48.8171 76.797 48.6059 76.8301 48.3948C76.8473 48.2776 76.9028 48.1694 76.9879 48.087C77.0731 48.0046 77.183 47.9527 77.3007 47.9394C77.416 47.9284 77.5317 47.9558 77.6298 48.0175C77.7278 48.0792 77.8027 48.1716 77.8426 48.2803C77.8754 48.3864 77.8754 48.4999 77.8426 48.6059V48.6797V48.7001L77.7332 48.6848V48.6695V48.6339L77.7587 48.4864L77.8655 48.5042L77.835 48.7001L77.7892 48.639L79.0968 48.8476H79.1477V48.8985C79.1171 49.0817 79.0917 49.2496 79.0637 49.4073V49.4556H79.0154L78.1988 49.3233L78.2522 49.2852C78.2166 49.5014 78.186 49.6948 78.1555 49.883L78.1174 49.8321L78.8271 49.9466H78.8678V49.9899C78.8271 50.2443 78.7915 50.458 78.7559 50.6691L78.7228 50.6233L79.486 50.748H79.5216V50.7836C79.4267 51.3534 79.3419 51.8529 79.2672 52.282V52.31H79.2393L77.7917 52.0556L77.4127 51.9894L77.2829 51.964H77.405L77.779 52.0174L79.2494 52.2311L79.2164 52.254C79.2825 51.8241 79.3563 51.3255 79.4428 50.7556L79.4733 50.7963L78.7101 50.6818H78.6719V50.6437L78.7763 49.9619L78.8119 50.0102L78.1046 49.9008H78.0588V49.8576C78.0868 49.6668 78.1174 49.4734 78.1504 49.2572V49.2114H78.1962L79.0154 49.3361L78.9569 49.3768C78.9849 49.2114 79.0103 49.0435 79.0383 48.868L79.0815 48.9265L77.7714 48.723H77.7179V48.6695L77.7485 48.4711L77.8553 48.4889L77.8324 48.6365V48.6721V48.6873C77.6136 48.6517 77.7739 48.6873 77.723 48.667V48.6492V48.5754C77.75 48.4875 77.75 48.3936 77.723 48.3057C77.6919 48.2204 77.6332 48.1478 77.5563 48.0995C77.4794 48.0511 77.3886 48.0297 77.2982 48.0386C77.2052 48.0491 77.1185 48.0904 77.0516 48.1558C76.9848 48.2213 76.9418 48.3072 76.9293 48.3999L76.8301 49.0359L76.4103 51.7249C76.1203 53.582 75.8074 55.5637 75.4869 57.6193V57.6702H75.4309C75.3444 57.6702 75.2528 57.6702 75.1638 57.6931C74.658 57.7624 74.1861 57.9862 73.8124 58.3339C73.4386 58.6817 73.1815 59.1364 73.0759 59.6358C72.9704 60.1352 73.0217 60.6551 73.2229 61.1243C73.424 61.5934 73.7651 61.989 74.1996 62.257C74.7369 62.5902 75.3815 62.7049 76.0008 62.5775C76.5316 62.4657 77.0115 62.1838 77.3676 61.7745C77.7237 61.3653 77.9366 60.8511 77.974 60.3098C78.0114 59.7686 77.8713 59.23 77.5749 58.7757C77.2784 58.3213 76.8419 57.9761 76.3315 57.7923L76.2959 57.7796V57.7414C76.7792 54.7293 77.1125 52.6992 77.2117 52.1446C77.2524 52.0454 77.2651 51.9971 77.2651 51.9971Z" fill="#263238"/>
<path d="M72.9451 59.3693L76.0894 58.5425L77.7227 58.7511C77.8712 58.7708 78.0123 58.8278 78.1328 58.9168C78.2534 59.0058 78.3495 59.1238 78.4121 59.2599L79.4704 61.5647C79.4704 61.5647 80.9968 62.8367 80.8213 63.5999C80.6457 64.3631 79.2287 71.2116 79.2287 71.2116L75.0133 71.0844C74.276 70.1705 73.8325 69.0548 73.7413 67.884C73.6955 66.9224 74.0619 66.3347 73.9703 65.8259C73.9092 65.4774 74.1255 64.8567 74.2247 64.3784L74.3519 63.9154L74.0721 64.0502C73.9519 64.1088 73.8196 64.1383 73.6859 64.1363C73.5522 64.1343 73.4208 64.1008 73.3025 64.0387C73.1841 63.9765 73.082 63.8874 73.0044 63.7784C72.9269 63.6695 72.876 63.5439 72.856 63.4117C72.8548 63.3871 72.8548 63.3625 72.856 63.3379C72.8421 63.067 72.886 62.7963 72.9846 62.5437C73.0833 62.291 73.2346 62.0623 73.4284 61.8726L75.0184 60.3105C75.0184 60.3105 73.2605 61.3129 72.9451 59.3693Z" fill="#B5715A"/>
<path d="M78.2956 63.1928C78.1971 63.1946 78.0987 63.1834 78.0031 63.1597L77.2221 63.0198L76.0646 62.7959C75.8483 62.7552 75.6194 62.6967 75.3879 62.6764C75.2747 62.6578 75.1587 62.6663 75.0495 62.7013C74.9403 62.7362 74.8409 62.7965 74.7595 62.8774C74.6224 63.0702 74.535 63.2939 74.5051 63.5286C74.4542 63.7652 74.4059 63.9916 74.3601 64.2104C74.2614 64.586 74.1925 64.9688 74.154 65.3552C74.1475 65.482 74.1716 65.6086 74.2243 65.7242C74.277 65.8397 74.3567 65.9409 74.4568 66.0192C74.5348 66.0696 74.6208 66.1066 74.7112 66.1286C74.6862 66.1358 74.6598 66.1358 74.6348 66.1286C74.5597 66.1223 74.4873 66.0978 74.4237 66.0573C74.3083 65.9812 74.214 65.8771 74.1495 65.7548C74.0851 65.6326 74.0525 65.496 74.0548 65.3577C74.0779 64.9622 74.1375 64.5696 74.2329 64.185C74.2761 63.9662 74.3219 63.7372 74.3703 63.5032C74.4056 63.2435 74.5073 62.9973 74.6654 62.7883C74.7604 62.6926 74.8769 62.621 75.0053 62.5794C75.1336 62.5378 75.27 62.5274 75.4031 62.5492C75.636 62.5785 75.867 62.621 76.0951 62.6764L77.245 62.9308L78.0082 63.1114C78.1069 63.1269 78.2034 63.1543 78.2956 63.1928Z" fill="#884C3B"/>
<path d="M76.6575 66.6727C76.6575 66.6727 76.6575 66.8025 76.4973 66.9271C76.3949 66.9971 76.2726 67.0319 76.1487 67.0263C75.9918 67.0183 75.8369 66.9883 75.6883 66.9373C75.2838 66.8348 74.9281 66.5935 74.6834 66.2555C74.5614 66.0299 74.4959 65.778 74.4923 65.5215C74.4888 65.265 74.5474 65.0115 74.663 64.7825C74.7617 64.5407 74.8936 64.3139 75.0548 64.1084C75.1394 64.0066 75.249 63.9286 75.3728 63.882C75.493 63.8447 75.6201 63.836 75.7442 63.8565C76.1413 63.9379 76.5285 64.0615 76.8992 64.2254C77.1489 64.3311 77.3911 64.4534 77.6242 64.5917C77.7172 64.6354 77.8029 64.6929 77.8786 64.7622C77.8786 64.7825 77.5072 64.5587 76.8738 64.3119C76.5069 64.1646 76.127 64.0522 75.7391 63.9761C75.6334 63.9602 75.5255 63.9689 75.4237 64.0015C75.3238 64.0433 75.2363 64.1098 75.1693 64.1949C75.019 64.3902 74.8957 64.605 74.803 64.8334C74.6954 65.0432 74.6392 65.2756 74.6392 65.5114C74.6392 65.7472 74.6954 65.9796 74.803 66.1894C75.0288 66.5079 75.3562 66.7403 75.7315 66.8483C75.8716 66.9012 76.0177 66.9362 76.1665 66.9526C76.277 66.9625 76.388 66.9385 76.4845 66.8839C76.5603 66.8306 76.6202 66.7576 76.6575 66.6727Z" fill="#884C3B"/>
<path d="M76.6161 66.2157C76.6161 66.231 76.5424 66.2742 76.3999 66.2895C76.2142 66.3083 76.027 66.2725 75.8612 66.1867C75.6954 66.1009 75.5582 65.9686 75.4663 65.8061C75.3976 65.684 75.3874 65.595 75.4027 65.5899C75.4179 65.5848 75.5731 65.8901 75.9242 66.0682C76.1444 66.1574 76.3786 66.2073 76.6161 66.2157Z" fill="#884C3B"/>
<path d="M76.9216 67.0678C76.9013 67.0958 76.7028 66.9787 76.5604 66.7421C76.4179 66.5056 76.4001 66.2741 76.4357 66.2715C76.4713 66.269 76.5426 66.4598 76.6723 66.6735C76.802 66.8872 76.9471 67.0373 76.9216 67.0678Z" fill="#884C3B"/>
<path d="M76.8387 69.4004C76.6632 69.0417 76.5783 68.6456 76.5911 68.2465C76.604 67.8474 76.7143 67.4575 76.9124 67.1108C76.8223 67.4848 76.7593 67.8649 76.7242 68.248C76.7343 68.6344 76.7726 69.0196 76.8387 69.4004Z" fill="#884C3B"/>
<path d="M76.7592 67.317C76.39 67.4627 76.0536 67.6807 75.7697 67.9581C75.4857 68.2354 75.26 68.5667 75.1057 68.9324C75.1029 68.8104 75.1309 68.6897 75.1871 68.5813C75.3003 68.3112 75.4663 68.0664 75.6755 67.8614C75.8846 67.6568 76.133 67.4967 76.4056 67.3907C76.515 67.3357 76.637 67.3103 76.7592 67.317Z" fill="#884C3B"/>
<path d="M75.4673 62.0786C75.5055 62.0786 75.5258 62.2084 75.4826 62.3559C75.4393 62.5035 75.3554 62.6103 75.3223 62.5849C75.2892 62.5595 75.3223 62.4526 75.3554 62.3305C75.3884 62.2084 75.4317 62.0761 75.4673 62.0786Z" fill="#884C3B"/>
<path d="M79.2058 62.1243C78.9864 62.032 78.7761 61.9196 78.5775 61.7885C78.1959 61.5697 77.6769 61.2568 77.1096 60.9031C76.8489 60.7343 76.573 60.5903 76.2853 60.4732C76.0521 60.3822 75.8029 60.3389 75.5527 60.346C75.3213 60.3621 75.0956 60.4244 74.8887 60.5292C74.8887 60.5292 74.9294 60.4707 75.0388 60.4071C75.195 60.3187 75.3687 60.2658 75.5476 60.2519C75.8117 60.232 76.077 60.2684 76.326 60.3587C76.6249 60.4716 76.9107 60.6166 77.1783 60.7912C77.7481 61.1423 78.2595 61.4679 78.6258 61.7096C78.831 61.8304 79.0251 61.9692 79.2058 62.1243Z" fill="#884C3B"/>
<path d="M77.2637 52.0783C77.283 51.5011 77.3459 50.9262 77.4519 50.3586C77.5134 49.7845 77.6205 49.2162 77.7725 48.6592C77.753 49.2363 77.6901 49.8112 77.5842 50.3789C77.521 50.9527 77.4138 51.5209 77.2637 52.0783Z" fill="#263238"/>
<g opacity="0.3">
<path d="M77.7703 48.7456C77.9042 49.2791 77.9297 49.8341 77.8454 50.3777C77.7611 50.9213 77.5686 51.4424 77.2793 51.9103C77.4625 50.9818 77.6456 49.725 77.7703 48.7456Z" fill="black"/>
</g>
<path d="M105.945 94.1079C105.353 93.5378 104.627 93.1259 103.834 92.9103C103.041 92.6946 102.206 92.6821 101.407 92.874C100.608 93.0659 99.8698 93.4559 99.2611 94.0081C98.6523 94.5604 98.1924 95.257 97.9238 96.0337L98.5039 98.2775C98.7252 97.5143 99.1984 96.774 99.9285 96.4586C100.659 96.1431 101.569 96.3187 102.348 96.601C103.126 96.8834 103.889 97.2599 104.716 97.3108C105.543 97.3617 106.474 96.9699 106.721 96.1813C106.952 95.4384 106.505 94.6472 105.945 94.1079Z" fill="#FF6D38"/>
<g opacity="0.3">
<path d="M105.941 94.1079C105.349 93.5378 104.623 93.1259 103.83 92.9103C103.037 92.6946 102.202 92.6821 101.403 92.874C100.604 93.0659 99.8659 93.4559 99.2572 94.0081C98.6484 94.5604 98.1885 95.257 97.9199 96.0337L98.5 98.2775C98.7213 97.5143 99.1945 96.774 99.9246 96.4586C100.655 96.1431 101.565 96.3187 102.344 96.601C103.122 96.8834 103.886 97.2599 104.712 97.3108C105.539 97.3617 106.47 96.9699 106.717 96.1813C106.949 95.4384 106.501 94.6472 105.941 94.1079Z" fill="black"/>
</g>
<path d="M91.9583 101.595C90.7474 100.445 90.8084 98.4402 91.4113 96.8807C92.0143 95.3213 93.3371 94.1256 94.8101 93.3369C96.2491 92.5812 97.8405 92.1611 99.4649 92.1082C101.089 92.0554 102.705 92.3711 104.19 93.0317C103.463 93.0632 102.754 93.2724 102.127 93.6409C101.499 94.0094 100.972 94.5261 100.59 95.1457C99.9261 96.2498 99.7785 97.588 99.229 98.7531C98.6111 100.067 97.5128 101.095 96.1601 101.623C94.8075 102.152 93.3036 102.142 91.9583 101.595Z" fill="#FF6D38"/>
<path d="M91.3749 94.6778C90.0342 93.0929 89.8485 90.5515 90.052 88.4832C90.2555 86.415 90.7287 84.3391 90.4031 82.2886C90.2097 81.0726 89.7391 79.9125 89.5814 78.6939C89.4236 77.4754 89.6475 76.094 90.599 75.3079C91.6852 74.4022 93.3974 74.6159 94.5243 75.4656C95.6513 76.3153 96.3051 77.6509 96.7885 78.9814C97.8392 81.9019 98.2258 85.143 97.3609 88.1271C96.4959 91.1112 94.4735 93.7773 91.5097 94.6778" fill="#FF6D38"/>
<path d="M90.7297 107.675C90.7259 107.614 90.7259 107.553 90.7297 107.492C90.7297 107.372 90.7297 107.197 90.7297 106.968C90.7475 106.515 90.7908 105.856 90.8925 105.05C91.0096 104.108 91.1794 103.174 91.4013 102.251C91.6761 101.114 92.104 100.019 92.6733 98.9974C93.2482 97.9787 93.9519 97.0381 94.767 96.199C95.4324 95.5135 96.1693 94.9012 96.965 94.3725C97.2983 94.141 97.6239 93.9654 97.9038 93.8026C98.1836 93.6398 98.438 93.5304 98.6441 93.4312L99.1274 93.2277C99.1817 93.2002 99.2389 93.1789 99.2979 93.1641C99.2454 93.1955 99.191 93.2235 99.135 93.248L98.6619 93.4693C98.4609 93.5736 98.2141 93.7034 97.9317 93.856C97.6494 94.0087 97.339 94.2046 97.0083 94.4386C95.2589 95.6309 93.8085 97.2111 92.77 99.0559C91.5361 101.213 91.1978 103.482 90.9536 105.072C90.8416 105.876 90.7857 106.53 90.7551 106.983C90.7424 107.202 90.7322 107.377 90.7246 107.505C90.7314 107.561 90.7331 107.618 90.7297 107.675Z" fill="#263238"/>
<path d="M79.1457 88.4297C76.6627 89.9281 76.6729 91.2917 77.085 92.5764C77.4972 93.8611 79.0236 94.7591 80.2879 94.2758C81.0028 94.0036 81.5192 93.3828 81.9619 92.7494C82.4045 92.1159 82.8192 91.457 83.4374 91.0093C83.8635 90.6938 84.3896 90.5437 84.918 90.587L79.1457 88.4297Z" fill="#FF6D38"/>
<g opacity="0.3">
<path d="M79.1457 88.4302C76.6627 89.9286 76.6729 91.2922 77.085 92.5769C77.4972 93.8616 79.0236 94.7596 80.2879 94.2763C81.0028 94.0041 81.5192 93.3833 81.9619 92.7499C82.4045 92.1164 82.8192 91.4575 83.4374 91.0098C83.8635 90.6943 84.3896 90.5442 84.918 90.5875L79.1457 88.4302Z" fill="black"/>
</g>
<path d="M77.2578 90.1393C77.9065 89.2438 79.5118 88.9818 80.5243 89.4295C81.5368 89.8773 82.2797 90.7651 82.9436 91.653C83.6076 92.5408 84.2538 93.4745 85.1722 94.0901C86.0906 94.7058 87.3778 94.9297 88.2936 94.3089C88.5862 94.0911 88.8312 93.8158 89.0136 93.5C89.196 93.1842 89.312 92.8344 89.3545 92.4722C89.435 91.7475 89.385 91.0143 89.2069 90.3072C88.9882 89.2667 88.632 88.1804 87.7976 87.5088C86.869 86.7736 85.5818 86.7456 84.3963 86.7762C83.0352 86.822 81.6564 86.9237 80.3793 87.3944C79.1022 87.865 77.7997 88.8826 77.2578 90.1317" fill="#FF6D38"/>
<path d="M88.6677 105.685C88.6677 105.685 88.6677 105.668 88.6677 105.632V105.472C88.6677 105.322 88.655 105.116 88.6474 104.856C88.6321 104.312 88.6092 103.538 88.5812 102.589C88.5532 101.641 88.5125 100.493 88.4439 99.2314C88.3752 97.9695 88.2785 96.578 88.0877 95.133C88.0073 94.4292 87.8695 93.7333 87.6756 93.052C87.2905 91.8538 86.7038 90.7302 85.9406 89.7295C85.6217 89.3196 85.2712 88.9351 84.8924 88.5797C84.3385 88.0666 83.7118 87.6379 83.0328 87.3077C82.9132 87.2517 82.8064 87.1983 82.7122 87.1601L82.4578 87.066L82.3103 87.0049C82.2772 86.9897 82.2594 86.982 82.262 86.9795L82.3128 86.9948L82.4655 87.0431L82.7199 87.1296C82.8165 87.1652 82.9234 87.2161 83.0481 87.2695C83.7382 87.5872 84.3763 88.0075 84.9408 88.5161C85.3261 88.8713 85.6826 89.2567 86.0067 89.6685C86.3777 90.1473 86.7055 90.6581 86.9862 91.1949C87.296 91.7826 87.5514 92.3974 87.7493 93.0316C87.9466 93.7175 88.0862 94.4187 88.1666 95.1279C88.3599 96.5805 88.4489 97.9695 88.5151 99.2339C88.5812 100.498 88.6092 101.641 88.6296 102.597C88.6499 103.554 88.6575 104.33 88.6601 104.864V105.482C88.6601 105.546 88.6601 105.599 88.6601 105.642C88.6641 105.656 88.6667 105.671 88.6677 105.685Z" fill="#263238"/>
<path d="M89.5614 106.808C89.4444 106.459 89.3534 106.103 89.2892 105.742C89.1182 104.753 89.0805 103.746 89.1773 102.747C89.3283 101.267 89.6458 99.8087 90.1236 98.3997C90.6324 96.802 91.3244 95.0925 91.9044 93.2583C92.1957 92.3667 92.4335 91.4586 92.6167 90.5387C92.7837 89.6825 92.9052 88.818 92.9805 87.9489C93.0926 86.4728 93.119 84.9914 93.0594 83.5122C93.0161 82.2402 92.95 81.2226 92.9067 80.518C92.8864 80.1694 92.8711 79.8972 92.8584 79.7039C92.8584 79.6148 92.8584 79.5461 92.8584 79.4927V79.4189C92.866 79.442 92.8703 79.4659 92.8711 79.4902C92.8711 79.5436 92.8711 79.6148 92.8915 79.7013C92.9067 79.8947 92.9296 80.1669 92.9602 80.5154C93.0161 81.2201 93.095 82.2428 93.1484 83.5071C93.2205 84.9909 93.2018 86.4777 93.0925 87.9591C93.0235 88.834 92.9071 89.7044 92.7439 90.5667C92.5611 91.4908 92.3232 92.4032 92.0316 93.299C91.4389 95.1408 90.7444 96.8478 90.2305 98.4404C89.7519 99.8425 89.4278 101.293 89.2638 102.765C89.1617 103.758 89.1883 104.76 89.3426 105.747C89.4037 106.095 89.4596 106.365 89.508 106.543C89.5309 106.629 89.5461 106.698 89.5589 106.749C89.5615 106.768 89.5623 106.788 89.5614 106.808Z" fill="#263238"/>
<path d="M97.3149 106.182H82.5063L82.168 103.33H97.3149V106.182Z" fill="#455A64"/>
<path d="M84.0957 105.856L85.9452 114.406H93.9918L95.7243 105.856H84.0957Z" fill="#455A64"/>
<path d="M97.3129 106.182C97.3129 106.22 94.0592 106.243 90.0448 106.23C86.0303 106.217 82.7715 106.179 82.7715 106.141C82.7715 106.103 86.0278 106.078 90.0448 106.09C94.0617 106.103 97.3155 106.141 97.3129 106.182Z" fill="#455A64"/>
<path d="M94.9186 109.828C94.5033 109.515 94.0545 109.25 93.5805 109.036C93.0645 108.816 92.5148 108.684 91.9549 108.647C91.2674 108.632 90.5837 108.752 89.9426 109.001C89.2935 109.256 88.6301 109.472 87.9557 109.65C87.3892 109.748 86.8101 109.748 86.2436 109.65C85.8612 109.59 85.4899 109.473 85.142 109.304C85.0492 109.254 84.9599 109.198 84.8749 109.136C84.819 109.092 84.7884 109.069 84.7935 109.064C84.7986 109.059 84.9233 109.141 85.1675 109.253C85.5186 109.408 85.8891 109.516 86.269 109.573C86.8243 109.653 87.3888 109.642 87.9404 109.54C88.6065 109.355 89.2628 109.137 89.9069 108.886C90.5646 108.631 91.2674 108.511 91.9727 108.535C92.9342 108.612 93.8529 108.966 94.6184 109.553C94.7012 109.617 94.7802 109.686 94.855 109.759C94.8957 109.802 94.9186 109.828 94.9186 109.828Z" fill="white"/>
<path d="M97.4437 106.192C97.4437 106.232 94.1136 106.263 90.005 106.263C85.8965 106.263 82.5664 106.232 82.5664 106.192C82.5664 106.151 85.8965 106.123 90.005 106.123C94.1136 106.123 97.4437 106.154 97.4437 106.192Z" fill="#263238"/>
</svg>
