<svg width="292" height="292" viewBox="0 0 292 292" fill="none" xmlns="http://www.w3.org/2000/svg">
<path d="M20.6387 247.558V262.216H24.02C23.8427 260.673 23.8427 259.116 24.02 257.573C24.3412 255.85 28.0146 251.4 27.9036 247.581L20.6387 247.558Z" fill="#EBEBEB"/>
<path d="M47.6895 247.558V262.216H51.0708C50.8935 260.673 50.8935 259.116 51.0708 257.573C51.392 255.85 55.0654 251.4 54.9544 247.581L47.6895 247.558Z" fill="#E0E0E0"/>
<path d="M74.1675 247.558V262.216H70.7803C70.9545 260.673 70.9545 259.116 70.7803 257.573C70.4533 255.85 66.7858 251.4 66.8909 247.581L74.1675 247.558Z" fill="#EBEBEB"/>
<path d="M97.5741 247.558V262.216H94.1927C94.3668 260.673 94.3668 259.116 94.1927 257.573C93.8715 255.85 90.1981 251.4 90.3091 247.581L97.5741 247.558Z" fill="#E0E0E0"/>
<path d="M99.3504 175.276H18.3379V248.025H99.3504V175.276Z" fill="#F5F5F5"/>
<path d="M77.5254 175.276L78.1269 248.025H99.3495V175.276H77.5254Z" fill="#E0E0E0"/>
<path d="M73.9935 180.631H21.9824V199.144H73.9935V180.631Z" fill="#EBEBEB"/>
<path d="M73.9935 202.829H21.9824V221.342H73.9935V202.829Z" fill="#EBEBEB"/>
<path d="M73.9935 225.033H21.9824V243.546H73.9935V225.033Z" fill="#EBEBEB"/>
<path d="M41.9203 154.375L39.6777 175.194H68.4222L70.8049 154.375H41.9203Z" fill="#E0E0E0"/>
<path d="M43.106 155.87L40.9219 174.085H66.8632L68.9597 155.87H43.106Z" fill="white"/>
<path d="M47.4682 158.936L46.125 171.025H62.4945L63.3355 158.936H47.4682Z" fill="#EBEBEB"/>
<path d="M69.7768 163.339L75.716 175.276L68.4219 175.194L69.7768 163.339Z" fill="#EBEBEB"/>
<path d="M49.8917 190.851C49.8928 191.228 49.7821 191.597 49.5736 191.911C49.3652 192.225 49.0682 192.469 48.7204 192.614C48.3727 192.759 47.9897 192.798 47.62 192.725C47.2503 192.652 46.9105 192.472 46.6437 192.206C46.3768 191.939 46.1949 191.6 46.121 191.231C46.0471 190.861 46.0844 190.478 46.2283 190.13C46.3723 189.782 46.6163 189.484 46.9295 189.275C47.2427 189.065 47.611 188.953 47.9878 188.953C48.4917 188.953 48.9751 189.153 49.332 189.509C49.6888 189.865 49.8901 190.347 49.8917 190.851Z" fill="#E0E0E0"/>
<path d="M49.8917 213.277C49.8917 213.653 49.78 214.022 49.5708 214.335C49.3616 214.648 49.0643 214.892 48.7164 215.036C48.3685 215.18 47.9857 215.218 47.6164 215.144C47.2471 215.071 46.9079 214.889 46.6416 214.623C46.3753 214.357 46.194 214.018 46.1206 213.648C46.0471 213.279 46.0848 212.896 46.2289 212.548C46.373 212.2 46.617 211.903 46.9301 211.694C47.2432 211.485 47.6113 211.373 47.9878 211.373C48.2381 211.372 48.486 211.421 48.7173 211.516C48.9486 211.612 49.1588 211.752 49.3358 211.929C49.5127 212.106 49.6529 212.316 49.7483 212.547C49.8437 212.779 49.8924 213.027 49.8917 213.277Z" fill="#E0E0E0"/>
<path d="M49.8917 235.697C49.8917 236.073 49.78 236.441 49.5708 236.754C49.3616 237.067 49.0643 237.311 48.7164 237.455C48.3685 237.6 47.9857 237.637 47.6164 237.564C47.2471 237.49 46.9079 237.309 46.6416 237.043C46.3753 236.777 46.194 236.437 46.1206 236.068C46.0471 235.699 46.0848 235.316 46.2289 234.968C46.373 234.62 46.617 234.323 46.9301 234.114C47.2432 233.904 47.6113 233.793 47.9878 233.793C48.4928 233.793 48.977 233.993 49.334 234.35C49.6911 234.707 49.8917 235.192 49.8917 235.697Z" fill="#E0E0E0"/>
<path d="M73.9121 57.0161L27.9805 56.5723L29.2594 116.432L75.191 116.602L73.9121 57.0161Z" fill="#E0E0E0"/>
<path d="M70.9506 59.685L30.7422 58.6455L31.9043 112.934L72.1011 113.431L70.9506 59.685Z" fill="#FAFAFA"/>
<path d="M64.0892 67.7966L37.4062 67.3528L38.2238 105.301L64.8776 104.729L64.0892 67.7966Z" fill="#EBEBEB"/>
<path d="M38.2238 105.301L64.463 85.2349L37.4062 67.3528L38.2238 105.301Z" fill="#F5F5F5"/>
<path d="M271.566 25.8129L231.264 25.4216L232.391 77.9408L272.681 78.0868L271.566 25.8129Z" fill="#E0E0E0"/>
<path d="M268.961 28.1605L233.688 27.2437L234.709 74.8689L269.971 75.301L268.961 28.1605Z" fill="#FAFAFA"/>
<path d="M262.94 35.2736L239.539 34.8823L240.252 68.1703L263.635 67.6739L262.94 35.2736Z" fill="#EBEBEB"/>
<path d="M240.252 68.1703L263.273 50.5686L239.539 34.8823L240.252 68.1703Z" fill="#F5F5F5"/>
<path d="M226.423 223.263C226.254 223.777 232.263 246.623 232.263 246.623L236.386 245.765L230.716 223.263H226.423Z" fill="#EBEBEB"/>
<path d="M258.373 219.999L250.127 246.623H254.939L262.841 221.891L258.373 219.999Z" fill="#F5F5F5"/>
<path d="M265.93 215.876L256.48 246.623H261.293L270.397 217.768L265.93 215.876Z" fill="#EBEBEB"/>
<path d="M229.344 244.737L234.156 261.399H258.374L262.842 244.737H229.344Z" fill="#E0E0E0"/>
<path d="M241.835 244.737C241.814 244.68 241.796 244.621 241.782 244.562L241.654 244.054C241.543 243.587 241.391 242.927 241.193 242.086L239.528 234.809L234.091 210.544L234.237 210.666H229.997L230.143 210.48C232.298 220.028 234.231 228.584 235.615 234.762C236.293 237.84 236.842 240.322 237.227 242.062C237.402 242.909 237.548 243.569 237.648 244.042C237.689 244.258 237.724 244.428 237.747 244.556C237.756 244.616 237.756 244.677 237.747 244.737C237.726 244.68 237.708 244.621 237.694 244.562C237.659 244.433 237.619 244.264 237.566 244.054C237.449 243.587 237.291 242.927 237.087 242.086C236.684 240.334 236.106 237.875 235.388 234.809C233.969 228.63 232.012 220.086 229.828 210.544L229.781 210.363H234.336L234.366 210.48C236.462 220.028 238.349 228.584 239.709 234.762C240.369 237.84 240.906 240.322 241.28 242.062C241.455 242.909 241.59 243.569 241.689 244.042L241.788 244.556C241.813 244.613 241.829 244.675 241.835 244.737Z" fill="#E0E0E0"/>
<path d="M265.505 262.093C265.505 262.175 210.06 262.245 141.697 262.245C73.3336 262.245 17.8887 262.175 17.8887 262.093C17.8887 262.011 73.3219 261.941 141.726 261.941C210.13 261.941 265.505 262.011 265.505 262.093Z" fill="#263238"/>
<path d="M249.562 102.696C249.428 102.64 249.289 102.597 249.147 102.568C248.73 102.474 248.297 102.474 247.88 102.568C247.204 102.742 246.575 103.065 246.04 103.514C245.313 104.144 244.683 104.878 244.172 105.692C242.974 107.526 242.034 110.061 240.936 113.016C239.666 116.39 238.567 119.826 237.643 123.312C237.471 123.633 237.241 123.92 236.965 124.158C236.823 124.288 236.654 124.385 236.471 124.444C236.287 124.502 236.093 124.52 235.902 124.497C235.527 124.402 235.188 124.199 234.927 123.913C234.652 123.662 234.395 123.393 234.139 123.119C233.631 122.561 233.091 122.035 232.521 121.542C231.97 121.012 231.236 120.713 230.471 120.707C230.088 120.772 229.724 120.917 229.401 121.132C229.078 121.348 228.804 121.629 228.596 121.957C228.182 122.666 227.958 123.471 227.948 124.293C227.849 125.963 228.334 127.651 228.626 129.397C228.918 131.143 229.285 132.936 229.624 134.764C229.799 135.681 229.969 136.603 230.144 137.538L230.407 138.951C230.487 139.198 230.513 139.459 230.484 139.717C230.455 139.975 230.371 140.223 230.237 140.446C230.15 140.563 230.028 140.651 229.89 140.698C229.751 140.745 229.602 140.749 229.461 140.709C229.208 140.636 228.973 140.515 228.766 140.353L227.598 139.465C226.803 138.864 225.976 138.307 225.122 137.795C224.266 137.262 223.332 136.868 222.353 136.627C221.869 136.513 221.366 136.513 220.882 136.627C220.4 136.749 219.975 137.033 219.679 137.433C219.117 138.299 218.841 139.321 218.89 140.353C218.892 141.415 218.996 142.475 219.2 143.518C219.621 145.661 220.217 147.767 220.981 149.813C221.203 150.337 221.374 150.88 221.489 151.437C221.517 151.595 221.512 151.756 221.475 151.912C221.438 152.068 221.369 152.214 221.273 152.342C221.221 152.403 221.164 152.46 221.104 152.512C221.037 152.571 220.96 152.617 220.876 152.646C220.698 152.673 220.516 152.631 220.368 152.529C219.883 152.218 219.431 151.858 219.019 151.454L217.769 150.286C216.951 149.494 216.061 148.779 215.112 148.149C214.639 147.838 214.121 147.602 213.576 147.448C213.317 147.368 213.044 147.344 212.776 147.377C212.507 147.41 212.248 147.5 212.017 147.641C211.566 147.968 211.252 148.451 211.135 148.996C210.994 149.553 210.924 150.126 210.925 150.701C210.93 151.882 211.077 153.059 211.363 154.205C211.94 156.535 212.792 158.788 213.903 160.915C215.008 163.097 216.271 165.195 217.681 167.193C218.387 168.207 219.147 169.182 219.959 170.113C220.742 171.083 221.536 172.046 222.33 173.033V173.068L222.19 173.01L225.904 172.473C227.135 172.326 228.357 172.116 229.566 171.842C231.949 171.306 234.291 170.601 236.574 169.734C238.826 168.901 240.973 167.805 242.969 166.469C243.949 165.82 244.845 165.053 245.637 164.186C246.028 163.76 246.364 163.288 246.636 162.778C246.915 162.296 247.006 161.729 246.893 161.184C246.818 160.923 246.688 160.681 246.512 160.475C246.335 160.268 246.117 160.102 245.871 159.987C245.363 159.739 244.822 159.566 244.265 159.473C243.139 159.302 241.999 159.234 240.86 159.268H239.155C238.569 159.291 237.982 159.254 237.403 159.157C237.224 159.134 237.06 159.042 236.948 158.901C236.905 158.821 236.879 158.734 236.872 158.644C236.863 158.564 236.863 158.484 236.872 158.404C236.889 158.246 236.938 158.093 237.015 157.953C237.093 157.814 237.197 157.691 237.321 157.592C237.781 157.26 238.272 156.972 238.787 156.734C240.731 155.735 242.588 154.576 244.341 153.271C245.189 152.638 245.972 151.922 246.677 151.133C247.406 150.404 247.888 149.464 248.055 148.447C248.104 147.951 247.98 147.454 247.705 147.039C247.426 146.628 247.054 146.288 246.619 146.047C245.738 145.562 244.786 145.221 243.798 145.036C242.822 144.84 241.835 144.697 240.843 144.61L239.371 144.47C239.109 144.455 238.852 144.385 238.618 144.265C238.487 144.198 238.38 144.093 238.31 143.964C238.241 143.835 238.211 143.687 238.227 143.541C238.28 143.288 238.386 143.049 238.538 142.84C238.69 142.631 238.884 142.456 239.108 142.327L240.276 141.462L242.525 139.751L246.87 136.452C248.265 135.359 249.755 134.437 250.806 133.129C251.344 132.517 251.714 131.777 251.88 130.979C251.948 130.596 251.935 130.203 251.84 129.826C251.745 129.448 251.572 129.095 251.331 128.789C251.077 128.508 250.746 128.305 250.38 128.205C250.013 128.097 249.634 128.034 249.252 128.019C248.5 127.999 247.747 128.026 246.998 128.1C246.624 128.1 246.251 128.153 245.883 128.159C245.499 128.187 245.116 128.104 244.779 127.919C244.618 127.81 244.482 127.668 244.382 127.501C244.281 127.335 244.217 127.149 244.195 126.956C244.152 126.593 244.174 126.225 244.259 125.869C245.931 122.703 247.441 119.453 248.785 116.134C249.953 113.214 250.964 110.703 251.326 108.542C251.503 107.599 251.542 106.635 251.442 105.681C251.367 104.987 251.133 104.319 250.759 103.73C250.533 103.369 250.225 103.067 249.86 102.848C249.736 102.772 249.605 102.708 249.469 102.655C249.61 102.693 249.745 102.75 249.871 102.825C250.247 103.04 250.567 103.34 250.806 103.701C251.187 104.295 251.429 104.968 251.513 105.669C251.626 106.632 251.597 107.606 251.425 108.56C251.075 110.726 250.082 113.232 248.92 116.152C247.604 119.509 246.119 122.797 244.469 126.004C244.389 126.332 244.369 126.673 244.411 127.008C244.427 127.173 244.478 127.333 244.56 127.477C244.643 127.621 244.755 127.746 244.89 127.843C245.195 128.005 245.539 128.076 245.883 128.048C246.245 128.048 246.613 128.013 246.987 127.984C247.745 127.907 248.508 127.878 249.27 127.896C249.666 127.912 250.058 127.976 250.438 128.089C250.839 128.196 251.203 128.412 251.489 128.714C251.744 129.041 251.927 129.418 252.028 129.82C252.128 130.222 252.144 130.641 252.073 131.05C251.903 131.886 251.517 132.664 250.952 133.304C249.871 134.647 248.371 135.581 246.987 136.679L242.647 139.985L240.405 141.69L239.266 142.56C239.074 142.689 238.899 142.842 238.746 143.016C238.606 143.183 238.513 143.384 238.478 143.6C238.467 143.697 238.487 143.795 238.534 143.88C238.581 143.966 238.653 144.035 238.74 144.079C238.947 144.179 239.171 144.236 239.4 144.248L240.872 144.388C241.872 144.473 242.867 144.616 243.85 144.814C244.872 145.003 245.858 145.352 246.77 145.848C247.236 146.116 247.635 146.485 247.938 146.929C248.243 147.393 248.383 147.946 248.336 148.499C248.162 149.576 247.658 150.572 246.893 151.349C246.168 152.152 245.366 152.881 244.499 153.528C242.734 154.846 240.865 156.018 238.91 157.032C238.413 157.257 237.94 157.531 237.497 157.849C237.4 157.924 237.319 158.017 237.258 158.123C237.198 158.23 237.16 158.347 237.146 158.468C237.14 158.527 237.14 158.585 237.146 158.644C237.146 158.69 237.146 158.801 237.187 158.795C237.262 158.863 237.356 158.905 237.456 158.918C238.004 159.007 238.559 159.042 239.114 159.023H240.819C241.976 158.981 243.133 159.05 244.277 159.228C244.866 159.319 245.438 159.503 245.97 159.771C246.252 159.905 246.502 160.098 246.703 160.337C246.905 160.576 247.053 160.854 247.138 161.155C247.271 161.768 247.171 162.409 246.858 162.953C246.576 163.485 246.227 163.977 245.819 164.419C245.011 165.307 244.097 166.091 243.097 166.755C241.084 168.11 238.915 169.217 236.638 170.055C234.337 170.933 231.975 171.643 229.572 172.181C228.359 172.456 227.133 172.666 225.898 172.811L222.178 173.354H222.091L222.038 173.284H222.009L219.638 170.364C218.827 169.431 218.064 168.457 217.354 167.444C215.933 165.431 214.661 163.318 213.547 161.12C212.431 158.969 211.574 156.693 210.995 154.339C210.699 153.177 210.548 151.982 210.545 150.783C210.546 150.18 210.62 149.58 210.767 148.996C210.905 148.384 211.262 147.844 211.771 147.477C212.037 147.313 212.335 147.207 212.646 147.167C212.956 147.127 213.271 147.153 213.57 147.244C214.142 147.406 214.685 147.654 215.182 147.98C216.147 148.618 217.05 149.345 217.88 150.152L219.13 151.32C219.527 151.706 219.961 152.052 220.426 152.354C220.51 152.414 220.61 152.447 220.712 152.447C220.712 152.447 220.8 152.395 220.841 152.366L220.969 152.237C221.04 152.139 221.09 152.027 221.116 151.908C221.142 151.79 221.144 151.667 221.121 151.548C221.01 151.013 220.846 150.491 220.631 149.989C219.863 147.927 219.265 145.806 218.844 143.646C218.636 142.586 218.533 141.509 218.534 140.429C218.488 139.337 218.786 138.258 219.387 137.345C219.72 136.902 220.193 136.585 220.73 136.446C221.254 136.323 221.8 136.323 222.324 136.446C223.328 136.683 224.288 137.077 225.168 137.614C226.033 138.127 226.868 138.691 227.668 139.301L228.836 140.189C229.01 140.33 229.208 140.439 229.42 140.51C229.514 140.538 229.614 140.536 229.707 140.505C229.8 140.473 229.881 140.414 229.94 140.335C230.055 140.161 230.121 139.96 230.132 139.751C230.138 139.519 230.113 139.287 230.056 139.062C229.969 138.589 229.887 138.122 229.799 137.655C229.624 136.72 229.455 135.792 229.285 134.881C228.953 133.047 228.62 131.26 228.299 129.514C227.977 127.767 227.528 126.074 227.627 124.351C227.644 123.497 227.881 122.663 228.316 121.927C228.541 121.572 228.839 121.268 229.191 121.037C229.542 120.805 229.939 120.651 230.354 120.584C230.768 120.55 231.183 120.633 231.551 120.824C231.91 120.998 232.245 121.215 232.55 121.472C233.128 121.971 233.674 122.505 234.185 123.072C234.434 123.345 234.691 123.607 234.956 123.861C235.194 124.112 235.497 124.292 235.832 124.38C235.997 124.399 236.165 124.382 236.323 124.33C236.481 124.279 236.626 124.194 236.749 124.082C237.005 123.862 237.218 123.597 237.38 123.3C238.315 119.809 239.43 116.368 240.72 112.992C241.83 110.043 242.788 107.503 244.008 105.669C244.53 104.85 245.172 104.114 245.912 103.485C246.457 103.033 247.098 102.714 247.787 102.55C248.209 102.451 248.649 102.451 249.071 102.55C249.242 102.571 249.408 102.62 249.562 102.696Z" fill="#263238"/>
<path d="M246.496 110.639C246.486 110.705 246.466 110.77 246.437 110.831L246.239 111.38C246.046 111.877 245.778 112.583 245.439 113.477C244.726 115.317 243.716 117.95 242.466 121.192L232.766 146.677C228.993 156.605 225.536 165.64 222.978 172.134C221.705 175.381 220.642 178.003 219.918 179.813C219.556 180.701 219.27 181.396 219.065 181.887C218.966 182.114 218.896 182.29 218.838 182.43L218.75 182.605C218.761 182.54 218.78 182.477 218.808 182.418C218.855 182.278 218.925 182.097 219.007 181.869C219.2 181.367 219.468 180.666 219.807 179.767C220.52 177.927 221.53 175.299 222.78 172.058L232.48 146.584C236.252 136.627 239.704 127.627 242.268 121.133C243.541 117.886 244.604 115.258 245.328 113.454C245.69 112.566 245.976 111.865 246.18 111.375C246.28 111.153 246.35 110.972 246.408 110.837L246.496 110.639Z" fill="#263238"/>
<path d="M246.81 130.816C246.349 131.146 245.86 131.438 245.35 131.686L241.776 133.672C240.374 134.448 239.101 135.143 238.161 135.616C237.667 135.897 237.144 136.124 236.602 136.294C237.067 135.969 237.555 135.678 238.062 135.424L241.624 133.409C243.026 132.632 244.305 131.955 245.251 131.493C245.748 131.218 246.27 130.991 246.81 130.816Z" fill="#263238"/>
<path d="M236.129 135.92C236.053 135.955 234.663 133.304 233.028 129.998C231.393 126.693 230.108 123.983 230.196 123.942C230.283 123.901 231.661 126.559 233.303 129.864C234.944 133.17 236.205 135.879 236.129 135.92Z" fill="#263238"/>
<path d="M231.025 151.472C230.559 151.127 230.128 150.736 229.741 150.304C228.981 149.545 227.989 148.464 226.908 147.215C225.828 145.965 224.952 144.785 224.333 143.909C223.969 143.457 223.654 142.968 223.393 142.449C223.794 142.866 224.164 143.311 224.502 143.781C225.168 144.622 226.085 145.772 227.142 147.016C228.199 148.26 229.18 149.352 229.893 150.152C230.303 150.563 230.681 151.004 231.025 151.472Z" fill="#263238"/>
<path d="M241.707 148.961C241.208 149.16 240.692 149.313 240.165 149.416C239.207 149.656 237.876 149.965 236.404 150.292C234.932 150.619 233.589 150.876 232.62 151.087C232.099 151.218 231.567 151.298 231.031 151.326C231.53 151.128 232.046 150.978 232.573 150.876C233.531 150.637 234.862 150.292 236.34 149.995C237.817 149.697 239.149 149.411 240.118 149.206C240.639 149.076 241.171 148.994 241.707 148.961Z" fill="#263238"/>
<path d="M238.945 163.269C238.296 163.493 237.633 163.671 236.959 163.8C235.721 164.086 234.039 164.466 232.124 164.863C230.208 165.26 228.509 165.611 227.265 165.844C226.599 166.003 225.921 166.111 225.238 166.165C225.886 165.939 226.55 165.761 227.224 165.634C228.456 165.348 230.144 164.968 232.059 164.571C233.975 164.174 235.669 163.824 236.912 163.59C237.581 163.431 238.26 163.323 238.945 163.269Z" fill="#263238"/>
<path d="M225.541 166.002C225.379 165.889 225.231 165.756 225.103 165.605C224.835 165.336 224.461 164.939 223.999 164.437C223.083 163.432 221.85 162.013 220.554 160.396C219.257 158.778 218.142 157.259 217.365 156.144C216.974 155.589 216.67 155.134 216.466 154.812C216.344 154.654 216.246 154.479 216.174 154.293C216.32 154.426 216.45 154.577 216.559 154.742L217.54 156.021C218.358 157.102 219.497 158.591 220.793 160.203C222.09 161.815 223.287 163.257 224.163 164.291C224.659 164.83 225.12 165.402 225.541 166.002Z" fill="#263238"/>
<path d="M219.701 205.124C209.563 196.948 208.091 182.973 209.364 170.586C209.58 168.519 209.499 166.317 210.608 164.565C211.718 162.813 214.112 161.733 215.905 162.732C217.394 163.561 217.938 165.401 218.697 166.936C219.713 168.99 221.288 170.714 223.24 171.912C224.513 172.689 226.119 173.22 227.468 172.59C229.326 171.725 229.705 169.272 229.834 167.211L230.552 155.683C230.68 153.615 230.821 151.513 231.597 149.603C232.374 147.694 233.933 145.971 235.913 145.55C237.893 145.13 240.258 146.438 240.532 148.47C240.552 149.329 240.513 150.187 240.416 151.04C240.416 151.898 240.749 152.874 241.543 153.166C242.337 153.458 243.213 152.938 243.879 152.377C246.151 150.444 247.774 147.863 249.31 145.288C250.846 142.712 252.335 140.072 254.426 137.935C256.517 135.798 259.302 134.18 262.269 134.215C265.236 134.25 268.249 136.288 268.798 139.237C269.347 142.187 267.449 145.031 265.44 147.256C262.457 150.564 259.011 153.422 255.208 155.741C254.466 156.076 253.852 156.641 253.456 157.353C252.913 158.696 254.122 160.15 255.448 160.699C256.949 161.313 258.631 161.283 260.225 161.569C261.819 161.856 263.513 162.697 264.015 164.256C264.716 166.423 262.8 168.507 260.967 169.839C257.312 172.495 253.229 174.506 248.895 175.784C247.336 176.234 245.707 176.607 244.41 177.589C243.114 178.57 242.249 180.374 242.892 181.875C243.534 183.376 245.397 183.978 246.98 183.791C248.562 183.604 250.069 182.839 251.623 182.372C254.543 181.496 258.175 181.945 259.799 184.515C260.879 186.208 260.832 188.457 260.096 190.355C259.276 192.198 258.094 193.858 256.622 195.237C251.763 200.323 245.64 204.027 238.88 205.971C232.152 207.799 226.032 207.997 219.654 205.159" fill="#FF6D38"/>
<g opacity="0.1">
<path d="M219.701 205.124C209.563 196.948 208.091 182.973 209.364 170.586C209.58 168.519 209.499 166.317 210.608 164.565C211.718 162.813 214.112 161.733 215.905 162.732C217.394 163.561 217.938 165.401 218.697 166.936C219.713 168.99 221.288 170.714 223.24 171.912C224.513 172.689 226.119 173.22 227.468 172.59C229.326 171.725 229.705 169.272 229.834 167.211L230.552 155.683C230.68 153.615 230.821 151.513 231.597 149.603C232.374 147.694 233.933 145.971 235.913 145.55C237.893 145.13 240.258 146.438 240.532 148.47C240.552 149.329 240.513 150.187 240.416 151.04C240.416 151.898 240.749 152.874 241.543 153.166C242.337 153.458 243.213 152.938 243.879 152.377C246.151 150.444 247.774 147.863 249.31 145.288C250.846 142.712 252.335 140.072 254.426 137.935C256.517 135.798 259.302 134.18 262.269 134.215C265.236 134.25 268.249 136.288 268.798 139.237C269.347 142.187 267.449 145.031 265.44 147.256C262.457 150.564 259.011 153.422 255.208 155.741C254.466 156.076 253.852 156.641 253.456 157.353C252.913 158.696 254.122 160.15 255.448 160.699C256.949 161.313 258.631 161.283 260.225 161.569C261.819 161.856 263.513 162.697 264.015 164.256C264.716 166.423 262.8 168.507 260.967 169.839C257.312 172.495 253.229 174.506 248.895 175.784C247.336 176.234 245.707 176.607 244.41 177.589C243.114 178.57 242.249 180.374 242.892 181.875C243.534 183.376 245.397 183.978 246.98 183.791C248.562 183.604 250.069 182.839 251.623 182.372C254.543 181.496 258.175 181.945 259.799 184.515C260.879 186.208 260.832 188.457 260.096 190.355C259.276 192.198 258.094 193.858 256.622 195.237C251.763 200.323 245.64 204.027 238.88 205.971C232.152 207.799 226.032 207.997 219.654 205.159" fill="black"/>
</g>
<path d="M218.906 214.328C219.879 208.611 221.397 203.001 223.438 197.573C225.964 190.951 228.868 184.48 232.134 178.19L234.674 173.226C235.515 171.597 236.344 169.985 237.256 168.455C239.009 165.526 240.922 162.695 242.985 159.975C244.941 157.365 246.886 154.959 248.725 152.722C250.565 150.485 252.329 148.441 254.01 146.642C256.652 143.791 259.515 141.153 262.572 138.753C263.652 137.906 264.511 137.275 265.101 136.855L265.772 136.382C265.846 136.325 265.924 136.274 266.006 136.23C265.945 136.3 265.874 136.361 265.796 136.411L265.147 136.919C264.563 137.357 263.728 138.005 262.665 138.875C259.651 141.311 256.825 143.97 254.209 146.829C252.545 148.634 250.798 150.69 248.953 152.926C247.108 155.163 245.186 157.598 243.247 160.191C241.196 162.902 239.297 165.725 237.559 168.648C236.654 170.172 235.807 171.772 234.995 173.401L232.455 178.365C229.197 184.643 226.29 191.096 223.748 197.696C221.7 203.1 220.161 208.684 219.152 214.375" fill="#263238"/>
<path d="M237.367 168.437C237.285 168.146 237.236 167.846 237.221 167.544C237.157 166.96 237.081 166.13 237.005 165.091C236.859 163.024 236.748 160.15 236.637 156.991C236.526 153.831 236.374 150.964 236.193 148.897C236.106 147.869 236.03 147.034 235.965 146.455C235.913 146.157 235.895 145.853 235.913 145.55C236.008 145.837 236.074 146.132 236.111 146.432C236.217 147.016 236.339 147.84 236.462 148.873C236.713 150.935 236.906 153.802 237.046 156.973C237.186 160.144 237.239 162.918 237.303 165.079C237.344 166.055 237.373 166.872 237.402 167.532C237.419 167.834 237.408 168.137 237.367 168.437Z" fill="#263238"/>
<path d="M264.208 165.301C263.854 165.356 263.496 165.376 263.139 165.36C262.456 165.36 261.469 165.36 260.219 165.441C257.778 165.541 254.379 165.786 250.694 166.23C247.009 166.674 243.645 167.217 241.239 167.684C240.036 167.906 239.067 168.116 238.395 168.268C238.051 168.359 237.699 168.42 237.344 168.449C237.672 168.31 238.012 168.201 238.36 168.122C239.02 167.935 239.983 167.69 241.186 167.427C243.581 166.895 246.927 166.306 250.647 165.856C253.822 165.468 257.015 165.244 260.213 165.184C261.44 165.184 262.432 165.184 263.133 165.219C263.493 165.215 263.853 165.242 264.208 165.301Z" fill="#263238"/>
<path d="M223.801 197.094C223.732 196.992 223.679 196.88 223.644 196.761L223.252 195.768C222.919 194.91 222.47 193.649 221.938 192.089C220.87 188.965 219.526 184.602 218.107 179.773C216.688 174.943 215.392 170.569 214.387 167.427C213.897 165.897 213.488 164.641 213.19 163.707L212.869 162.697C212.823 162.58 212.794 162.459 212.781 162.334C212.848 162.438 212.901 162.55 212.939 162.667C213.044 162.936 213.173 163.251 213.324 163.66C213.657 164.519 214.107 165.78 214.644 167.339C215.713 170.464 217.056 174.826 218.469 179.662C219.883 184.497 221.191 188.86 222.195 192.002C222.686 193.532 223.089 194.787 223.363 195.722L223.685 196.732C223.74 196.847 223.779 196.969 223.801 197.094Z" fill="#263238"/>
<path d="M259.799 188.159C259.685 188.219 259.563 188.261 259.436 188.282L258.391 188.556L254.537 189.52C251.278 190.331 246.799 191.505 241.846 192.813C236.894 194.122 232.397 195.255 229.121 196.002C227.486 196.376 226.16 196.668 225.237 196.849L224.175 197.053C224.052 197.084 223.927 197.098 223.801 197.094C223.914 197.04 224.034 197.001 224.157 196.977L225.208 196.703L229.063 195.739C232.316 194.928 236.801 193.748 241.753 192.44C246.705 191.131 251.202 189.999 254.472 189.251C256.108 188.877 257.439 188.591 258.356 188.41L259.419 188.206C259.543 188.175 259.671 188.16 259.799 188.159Z" fill="#263238"/>
<path d="M222.059 43.9111H80.4336V237.974H222.059V43.9111Z" fill="#455A64"/>
<path d="M216.459 226.434H190.232H92.2305V51.7542H216.459V204.704V226.434Z" fill="#E0E0E0"/>
<path d="M214.496 223.193H188.502H91.3828V49.4473H214.496V201.579V223.193Z" fill="#EBEBEB"/>
<path d="M201.268 209.674L187.089 221.219H89.0879V49.8855H213.316V199.903L201.268 209.674Z" fill="#FAFAFA"/>
<path d="M201.27 209.656C201.27 209.656 201.521 209.44 202.029 209.025L204.301 207.168L213.289 199.851V199.886C213.289 175.241 213.242 120.462 213.201 49.8679L213.335 50.0081H90.1873H89.1069L89.2587 49.8563C89.2587 114.271 89.2587 173.693 89.2237 221.19L89.1069 221.068L187.108 221.138H187.073L197.725 212.5L200.394 210.345C200.978 209.866 201.287 209.633 201.287 209.633L200.411 210.363L197.743 212.576L187.125 221.254L89.0893 221.336H88.9667V221.214C88.9667 173.717 88.9667 114.295 88.9375 49.8796V49.7278H90.1697H213.318H213.458V49.8621C213.417 120.479 213.382 175.235 213.37 199.88L204.348 207.163L202.064 209.072L201.27 209.656Z" fill="#263238"/>
<path d="M134.442 37.9133H168.402C170.593 37.9133 172.695 38.784 174.245 40.3337C175.795 41.8834 176.665 43.9853 176.665 46.1769V55.3399H125.822V46.5273C125.824 44.2422 126.733 42.0512 128.349 40.436C129.965 38.8207 132.157 37.9133 134.442 37.9133Z" fill="#FF6D38"/>
<path d="M138.279 37.9134L136.422 28.511H165.698L164.068 37.9134H138.279Z" fill="#FF6D38"/>
<path d="M123.007 98.1122H102.082V77.1816H123.007V98.1122ZM102.666 97.5282H122.423V77.7656H102.666V97.5282Z" fill="#FF6D38"/>
<path d="M196.972 82.239C196.972 82.3208 182.401 82.3908 164.437 82.3908C146.473 82.3908 131.896 82.3208 131.896 82.239C131.896 82.1572 146.461 82.0872 164.437 82.0872C182.412 82.0872 196.972 82.1514 196.972 82.239Z" fill="#263238"/>
<path d="M196.972 86.584C196.972 86.6716 182.401 86.7358 164.437 86.7358C146.473 86.7358 131.896 86.6716 131.896 86.584C131.896 86.4964 146.461 86.4321 164.437 86.4321C182.412 86.4321 196.972 86.5022 196.972 86.584Z" fill="#263238"/>
<path d="M196.972 90.9348C196.972 91.0166 182.401 91.0866 164.437 91.0866C146.473 91.0866 131.896 91.0166 131.896 90.9348C131.896 90.853 146.461 90.783 164.437 90.783C182.412 90.783 196.972 90.853 196.972 90.9348Z" fill="#263238"/>
<path d="M196.972 95.2856C196.972 95.3674 182.401 95.4375 164.437 95.4375C146.473 95.4375 131.896 95.3674 131.896 95.2856C131.896 95.2039 146.461 95.1338 164.437 95.1338C182.412 95.1338 196.972 95.1922 196.972 95.2856Z" fill="#263238"/>
<path d="M123.007 130.366H102.082V109.436H123.007V130.366ZM102.666 129.782H122.423V110.02H102.666V129.782Z" fill="#FF6D38"/>
<path d="M106.24 120.333L109.02 117.349L113.651 121.052L124.251 110.761L126.791 113.757L113.447 126.921L106.24 120.333Z" fill="#FF6D38"/>
<path d="M196.972 114.493C196.972 114.575 182.401 114.645 164.437 114.645C146.473 114.645 131.896 114.575 131.896 114.493C131.896 114.412 146.461 114.342 164.437 114.342C182.412 114.342 196.972 114.412 196.972 114.493Z" fill="#263238"/>
<path d="M196.972 118.844C196.972 118.926 182.401 118.996 164.437 118.996C146.473 118.996 131.896 118.926 131.896 118.844C131.896 118.762 146.461 118.692 164.437 118.692C182.412 118.692 196.972 118.757 196.972 118.844Z" fill="#263238"/>
<path d="M196.972 123.189C196.972 123.277 182.401 123.341 164.437 123.341C146.473 123.341 131.896 123.277 131.896 123.189C131.896 123.101 146.461 123.037 164.437 123.037C182.412 123.037 196.972 123.107 196.972 123.189Z" fill="#263238"/>
<path d="M196.972 127.54C196.972 127.622 182.401 127.692 164.437 127.692C146.473 127.692 131.896 127.622 131.896 127.54C131.896 127.458 146.461 127.388 164.437 127.388C182.412 127.388 196.972 127.458 196.972 127.54Z" fill="#263238"/>
<path d="M123.007 161.581H102.082V140.651H123.007V161.581ZM102.666 160.997H122.423V141.235H102.666V160.997Z" fill="#FF6D38"/>
<path d="M106.24 151.548L109.02 148.564L113.651 152.266L124.251 141.976L126.791 144.972L113.447 158.136L106.24 151.548Z" fill="#FF6D38"/>
<path d="M196.972 145.708C196.972 145.79 182.401 145.86 164.437 145.86C146.473 145.86 131.896 145.79 131.896 145.708C131.896 145.626 146.461 145.556 164.437 145.556C182.412 145.556 196.972 145.62 196.972 145.708Z" fill="#263238"/>
<path d="M196.972 150.053C196.972 150.141 182.401 150.205 164.437 150.205C146.473 150.205 131.896 150.141 131.896 150.053C131.896 149.965 146.461 149.901 164.437 149.901C182.412 149.901 196.972 149.971 196.972 150.053Z" fill="#263238"/>
<path d="M196.972 154.404C196.972 154.491 182.401 154.556 164.437 154.556C146.473 154.556 131.896 154.491 131.896 154.404C131.896 154.316 146.461 154.252 164.437 154.252C182.412 154.252 196.972 154.322 196.972 154.404Z" fill="#263238"/>
<path d="M196.972 158.755C196.972 158.836 182.401 158.906 164.437 158.906C146.473 158.906 131.896 158.836 131.896 158.755C131.896 158.673 146.461 158.603 164.437 158.603C182.412 158.603 196.972 158.673 196.972 158.755Z" fill="#263238"/>
<path d="M123.007 191.722H102.082V170.791H123.007V191.722ZM102.666 191.138H122.423V171.375H102.666V191.138Z" fill="#FF6D38"/>
<path d="M106.24 181.688L109.02 178.704L113.651 182.407L124.251 172.117L126.791 175.107L113.447 188.27L106.24 181.688Z" fill="#FF6D38"/>
<path d="M196.972 175.843C196.972 175.93 182.401 175.994 164.437 175.994C146.473 175.994 131.896 175.93 131.896 175.843C131.896 175.755 146.461 175.691 164.437 175.691C182.412 175.691 196.972 175.784 196.972 175.843Z" fill="#263238"/>
<path d="M196.972 180.193C196.972 180.275 182.401 180.345 164.437 180.345C146.473 180.345 131.896 180.275 131.896 180.193C131.896 180.112 146.461 180.042 164.437 180.042C182.412 180.042 196.972 180.112 196.972 180.193Z" fill="#263238"/>
<path d="M196.972 184.544C196.972 184.626 182.401 184.696 164.437 184.696C146.473 184.696 131.896 184.626 131.896 184.544C131.896 184.462 146.461 184.392 164.437 184.392C182.412 184.392 196.972 184.457 196.972 184.544Z" fill="#263238"/>
<path d="M196.972 188.889C196.972 188.977 182.401 189.041 164.437 189.041C146.473 189.041 131.896 188.977 131.896 188.889C131.896 188.802 146.461 188.737 164.437 188.737C182.412 188.737 196.972 188.807 196.972 188.889Z" fill="#263238"/>
<path d="M190.984 192.854L177.365 221.062H187.089L190.984 192.854Z" fill="#E0E0E0"/>
<path d="M187.09 221.219L190.985 193.012L213.317 199.903L187.09 221.219Z" fill="#FAFAFA"/>
<path d="M187.09 221.219L194.6 215.035L213.224 199.786L213.276 200.043L204.651 197.392L190.968 193.146L191.149 193.03C189.981 201.206 188.982 208.243 188.275 213.23C187.569 218.083 187.207 220.588 187.107 221.219C187.105 221.176 187.105 221.133 187.107 221.091L187.16 220.705C187.207 220.337 187.271 219.823 187.358 219.169C187.54 217.797 187.796 215.829 188.124 213.329C188.801 208.301 189.747 201.229 190.851 192.965V192.802L191.008 192.848L204.727 197.077L213.346 199.74L213.615 199.821L213.399 199.997C205.86 206.076 199.266 211.39 194.548 215.181L189.04 219.602L187.569 220.77L187.195 221.067L187.09 221.219Z" fill="#263238"/>
<g opacity="0.3">
<path d="M163.67 28.511L162.059 37.9134H164.068L165.697 28.511H163.133" fill="black"/>
</g>
<path d="M77.9229 127.674C78.627 127.727 79.3346 127.638 80.0034 127.411C80.6722 127.185 81.2886 126.826 81.8157 126.356C82.3428 125.887 82.7698 125.315 83.0712 124.677C83.3727 124.038 83.5424 123.345 83.5702 122.64C83.6811 119.778 83.7804 116.888 83.7804 116.888C83.7804 116.888 88.1137 116.485 88.4524 112.216C88.7911 107.946 88.6218 98.0302 88.6218 98.0302C86.2464 96.8317 83.5939 96.2897 80.9388 96.4601C78.2836 96.6306 75.7222 97.5073 73.5195 98.9996L73.7823 114.09V122.214C73.7882 124.912 75.2073 127.47 77.9229 127.674Z" fill="#FFBE9D"/>
<path d="M84.1543 106.96C83.8378 106.505 83.3613 106.186 82.8201 106.067C82.2788 105.948 81.7125 106.037 81.2343 106.317C80.7489 106.655 80.3991 107.153 80.2472 107.724C80.0954 108.296 80.1513 108.902 80.405 109.436C80.6261 109.832 80.9272 110.178 81.2892 110.451C81.6511 110.725 82.066 110.92 82.5074 111.024C82.8988 111.109 83.2458 111.334 83.4833 111.657C83.7209 111.979 83.8328 112.377 83.7981 112.776C83.6183 113.904 83.0916 114.947 82.2914 115.761C80.9685 117.107 79.2078 117.935 77.3274 118.097C75.4994 118.313 73.4087 117.933 72.3458 116.432C71.5691 115.34 71.5166 113.909 71.4874 112.572C71.4212 109.411 71.355 106.249 71.2888 103.088C71.22 101.948 71.2926 100.805 71.5049 99.683C71.7285 98.5517 72.3709 97.5464 73.3036 96.8682C74.3489 96.179 75.6688 96.1206 76.8543 95.741C78.3435 95.2563 79.605 94.2752 80.9949 93.5627C82.3848 92.8502 84.0842 92.4239 85.48 93.1247C86.4845 93.627 87.1561 94.6256 88.1255 95.1804C89.5154 95.9688 91.4018 95.7644 92.0734 97.8318C92.3098 98.5386 92.3098 99.3032 92.0734 100.01C91.1331 102.784 87.6992 103.905 85.223 102.708C85.1763 103.175 85.6377 104.221 85.1413 105.704C84.9836 106.183 84.931 106.901 84.1894 106.919" fill="#263238"/>
<path d="M72.3167 98.1121C72.9973 96.7558 73.4623 95.3017 73.6949 93.8021C73.805 93.0511 73.7406 92.2848 73.5066 91.5626C73.2727 90.8405 72.8755 90.182 72.3458 89.6382C71.5641 88.9594 70.5539 88.6025 69.5193 88.6396C68.5364 88.6956 67.5949 89.0538 66.8234 89.6654C66.0519 90.2769 65.4882 91.1118 65.2094 92.056C64.9688 93.0079 65.006 94.0088 65.3165 94.9403C65.6269 95.8718 66.1978 96.6948 66.9614 97.312C67.7422 97.9117 68.6675 98.2945 69.6438 98.4217C70.6201 98.5488 71.6127 98.4158 72.5211 98.0361" fill="#263238"/>
<path d="M73.1573 96.5644C73.1258 97.0886 72.9002 97.5824 72.5245 97.9495C72.1488 98.3165 71.6499 98.5306 71.125 98.5499C71.125 98.4623 71.7557 98.293 72.293 97.7324C72.8303 97.1717 73.0756 96.541 73.1573 96.5644Z" fill="#FF6D38"/>
<path d="M71.7515 97.6155C71.4167 97.9663 71.021 98.2532 70.5835 98.4623C70.1159 98.7288 69.5911 98.879 69.0534 98.9003C68.7119 98.9187 68.371 98.8552 68.0591 98.715C67.7472 98.5748 67.4734 98.362 67.2605 98.0944C67.0721 97.8126 66.9464 97.4937 66.892 97.1592C66.8376 96.8247 66.8557 96.4824 66.9451 96.1555C67.0807 95.6366 67.3256 95.1528 67.6635 94.7364C67.9431 94.3416 68.2865 93.9962 68.6796 93.7144C68.4197 94.118 68.139 94.5079 67.8387 94.8824C67.5455 95.2891 67.3352 95.7494 67.2196 96.2372C67.1467 96.5248 67.1346 96.8245 67.1838 97.1171C67.2331 97.4097 67.3427 97.6888 67.5058 97.9367C67.6925 98.1646 67.9292 98.3465 68.1976 98.468C68.466 98.5896 68.7589 98.6476 69.0534 98.6375C69.5524 98.6295 70.0433 98.5097 70.49 98.2871C71.2492 97.8958 71.7223 97.5688 71.7515 97.6155Z" fill="#263238"/>
<path d="M64.4617 102.457C64.5498 102.605 64.6185 102.764 64.6661 102.93C64.8175 103.368 65.032 103.781 65.3027 104.157C65.4827 104.428 65.7349 104.644 66.031 104.78C66.3271 104.917 66.6553 104.967 66.9788 104.927C67.3659 104.818 67.7182 104.611 68.0016 104.325C68.285 104.04 68.4899 103.686 68.5964 103.298C68.8062 102.481 68.9527 101.649 69.0344 100.81C69.1169 100.09 69.4002 99.4084 69.852 98.8421C70.1756 98.4696 70.6164 98.2183 71.1018 98.1296C71.2773 98.0867 71.4622 98.1031 71.6274 98.1763C71.6274 98.1763 71.4347 98.1763 71.1252 98.2464C70.6866 98.3677 70.2979 98.6254 70.0156 98.9823C69.6176 99.5311 69.3736 100.176 69.3089 100.851C69.2415 101.711 69.0989 102.563 68.8826 103.397C68.7621 103.835 68.5271 104.234 68.2017 104.551C67.8763 104.868 67.4724 105.093 67.0313 105.202C66.628 105.266 66.2149 105.188 65.8633 104.98C65.5716 104.803 65.3208 104.566 65.1275 104.285C64.8597 103.883 64.6622 103.439 64.5435 102.971C64.4836 102.806 64.4558 102.632 64.4617 102.457Z" fill="#263238"/>
<path d="M62.3542 138.484C62.3542 138.484 60.1642 154.497 62.3542 156.529C64.5442 158.562 66.6408 157.884 66.6408 157.884L70.8047 154.38L71.6223 138.46L62.3542 138.484Z" fill="#FFBE9D"/>
<path d="M107.584 93.5334L110.364 90.5492L114.995 94.2517L125.595 83.9617L128.135 86.9576L114.791 100.121L107.584 93.5334Z" fill="#FF6D38"/>
<path d="M120.644 94.3452L116.614 96.9323C116.433 95.338 115.219 93.7612 115.277 94.5613C115.335 95.3614 115.277 99.5136 115.277 99.5136L108.1 114.633C107.124 117.028 105.145 118.534 103.667 118.891L96.9453 120.888L99.5675 129.759L108.911 126.664C110.104 126.269 111.188 125.599 112.075 124.71C112.962 123.821 113.629 122.736 114.021 121.542L120.445 101.966C120.872 100.705 121.215 99.4179 121.473 98.112C121.754 96.471 120.644 94.3452 120.644 94.3452Z" fill="#FFBE9D"/>
<path d="M87.63 259.716L87.5249 255.237L79.127 255.371L79.2029 261.93L79.7285 261.959C82.0645 262.047 91.5311 262.257 93.0729 261.766C94.7898 261.211 87.63 259.716 87.63 259.716Z" fill="#FF6D38"/>
<g opacity="0.5">
<path d="M82.2515 261.819C82.11 261.12 81.7173 260.496 81.1477 260.067C80.5868 259.63 79.8819 259.422 79.1738 259.483L79.2089 261.819H82.2515Z" fill="white"/>
</g>
<g opacity="0.4">
<path d="M91.105 260.575C91.105 260.575 93.6162 261.252 93.3125 261.673C93.0088 262.093 83.4195 262.257 79.1797 261.93V261.743L90.3691 261.667C90.3691 261.667 90.6436 260.604 91.105 260.575Z" fill="white"/>
</g>
<path d="M79.08 261.737H79.226H79.6407L81.1707 261.778C82.4614 261.807 84.2426 261.819 86.2107 261.778C88.1787 261.737 89.9658 261.684 91.2506 261.62L92.7807 261.533L93.1953 261.503H93.3355H93.1895H92.7748L91.2506 261.562C89.9599 261.603 88.1787 261.661 86.2107 261.69C84.2426 261.72 82.4614 261.69 81.1707 261.69H79.6465H79.0625L79.08 261.737Z" fill="#263238"/>
<path d="M90.4033 261.795C90.464 261.542 90.5563 261.296 90.6778 261.065C90.8248 260.852 90.9952 260.657 91.1858 260.481C90.9373 260.598 90.7297 260.787 90.5901 261.024C90.4505 261.26 90.3854 261.533 90.4033 261.807V261.795Z" fill="#263238"/>
<path d="M87.9044 260.575C87.9044 260.575 88.0445 260.447 88.1672 260.254C88.2898 260.061 88.3599 259.886 88.3365 259.874C88.3132 259.863 88.1964 260.003 88.0796 260.195C87.9628 260.388 87.881 260.563 87.9044 260.575Z" fill="#263238"/>
<path d="M87.2201 260.23C87.2201 260.23 87.3661 260.16 87.5121 260.026C87.6581 259.892 87.7515 259.769 87.734 259.751C87.7165 259.734 87.5821 259.822 87.442 259.95C87.3018 260.079 87.1967 260.207 87.2201 260.23Z" fill="#263238"/>
<path d="M86.7773 259.442C86.9174 259.493 87.0677 259.509 87.2153 259.489C87.3634 259.506 87.5135 259.488 87.6533 259.436C87.512 259.391 87.363 259.376 87.2153 259.39C87.0672 259.373 86.9173 259.391 86.7773 259.442Z" fill="#263238"/>
<path d="M86.6191 258.887C86.7666 258.978 86.9367 259.024 87.1097 259.022C87.2828 259.047 87.4595 259.02 87.6178 258.946C87.4508 258.929 87.2826 258.929 87.1155 258.946C86.9522 258.911 86.786 258.891 86.6191 258.887Z" fill="#263238"/>
<path d="M88.1836 259.839C88.3612 259.872 88.5433 259.872 88.7209 259.839C88.9193 259.813 89.1149 259.768 89.3049 259.705C89.4184 259.669 89.5279 259.622 89.6319 259.565C89.6648 259.547 89.6937 259.523 89.7169 259.494C89.74 259.465 89.7568 259.431 89.7662 259.395C89.7731 259.355 89.7686 259.313 89.7531 259.275C89.7376 259.237 89.7118 259.204 89.6786 259.179C89.4706 259.083 89.2357 259.061 89.0134 259.117C88.7912 259.174 88.5951 259.305 88.4581 259.489C88.3795 259.598 88.322 259.721 88.2887 259.851C88.2785 259.899 88.2785 259.949 88.2887 259.997C88.3446 259.832 88.4253 259.676 88.5282 259.535C88.6486 259.392 88.8062 259.285 88.9837 259.226C89.196 259.152 89.4287 259.165 89.6319 259.261C89.7137 259.325 89.6845 259.424 89.591 259.483C89.4943 259.537 89.3926 259.582 89.2874 259.617C89.097 259.683 88.9017 259.734 88.7034 259.769C88.3822 259.822 88.1836 259.822 88.1836 259.839Z" fill="#263238"/>
<path d="M88.3189 259.88C88.3847 259.767 88.4055 259.634 88.3773 259.506C88.3553 259.365 88.3014 259.232 88.2197 259.115C88.1734 259.036 88.108 258.97 88.0293 258.923C87.9507 258.876 87.8615 258.849 87.77 258.846C87.7426 258.852 87.7167 258.863 87.6936 258.878C87.6706 258.894 87.6508 258.914 87.6356 258.937C87.6204 258.961 87.61 258.987 87.605 259.014C87.6 259.042 87.6005 259.07 87.6065 259.097C87.6194 259.183 87.6514 259.265 87.6999 259.337C87.7709 259.456 87.8594 259.565 87.9627 259.658C88.046 259.755 88.1525 259.829 88.2722 259.874C88.2722 259.874 88.1671 259.781 88.0153 259.611C87.9278 259.511 87.8496 259.404 87.7817 259.29C87.7057 259.179 87.6532 258.975 87.7817 258.945C87.9101 258.916 88.0561 259.062 88.1379 259.167C88.2161 259.272 88.2718 259.391 88.3014 259.518C88.3175 259.638 88.3234 259.759 88.3189 259.88Z" fill="#263238"/>
<path d="M79.2207 259.436C79.2207 259.436 79.4602 259.436 79.8398 259.436C80.3349 259.483 80.8067 259.669 81.2004 259.973C81.5942 260.277 81.8939 260.686 82.0648 261.153C82.1991 261.509 82.2166 261.737 82.2341 261.737C82.2456 261.681 82.2456 261.624 82.2341 261.568C82.2151 261.415 82.1819 261.265 82.1349 261.118C81.9729 260.63 81.668 260.202 81.2598 259.89C80.8516 259.577 80.3588 259.395 79.8456 259.366C79.6923 259.349 79.5375 259.349 79.3842 259.366C79.3256 259.378 79.27 259.402 79.2207 259.436Z" fill="#263238"/>
<path d="M80.0383 255.932C79.986 256.505 79.9704 257.08 79.9915 257.655C79.9729 258.239 79.9904 258.825 80.0441 259.407C80.0972 258.825 80.1128 258.239 80.0908 257.655C80.1049 257.08 80.0873 256.505 80.0383 255.932Z" fill="#263238"/>
<path d="M83.291 260.984C83.6962 261.067 84.11 261.1 84.5233 261.083C84.9355 261.1 85.3482 261.061 85.7497 260.966C85.7497 260.937 85.1657 260.966 84.5233 260.966C83.8809 260.966 83.2969 260.954 83.291 260.984Z" fill="#263238"/>
<path d="M81.6504 261.001C81.6504 261.001 81.6971 261.118 81.7497 261.246C81.8022 261.375 81.8431 261.48 81.8723 261.48C81.9015 261.48 81.9132 261.346 81.8431 261.2C81.773 261.054 81.6679 260.984 81.6504 261.001Z" fill="#263238"/>
<path d="M81.0137 260.242C81.0137 260.242 81.0487 260.347 81.1422 260.435C81.2356 260.522 81.3174 260.575 81.3349 260.558C81.3524 260.54 81.2998 260.447 81.2122 260.365C81.1246 260.283 81.037 260.219 81.0137 260.242Z" fill="#263238"/>
<path d="M80.1193 259.88C80.1193 259.88 80.242 259.88 80.3646 259.944C80.4873 260.009 80.5749 260.049 80.5982 260.032C80.6216 260.014 80.5515 259.898 80.3938 259.851C80.2361 259.804 80.1135 259.88 80.1193 259.88Z" fill="#263238"/>
<path d="M79.4883 259.746C79.4883 259.746 79.5233 259.816 79.5934 259.839C79.6635 259.862 79.7277 259.868 79.7394 259.839C79.7511 259.81 79.6985 259.769 79.6284 259.746C79.5584 259.722 79.4941 259.716 79.4883 259.746Z" fill="#263238"/>
<path d="M57.9858 258.286L60.8357 254.822L54.3766 249.444L50.1602 254.466L50.5339 254.828C52.2334 256.411 59.2939 262.753 60.7773 263.384C62.4417 264.091 57.9858 258.286 57.9858 258.286Z" fill="#FF6D38"/>
<g opacity="0.5">
<path d="M52.5606 256.376C52.9179 255.752 53.0323 255.018 52.8818 254.315C52.7386 253.62 52.3381 253.004 51.7605 252.592L50.2246 254.385L52.5606 256.376Z" fill="white"/>
</g>
<g opacity="0.4">
<path d="M60.0823 261.217C60.0823 261.217 61.5423 263.372 61.0401 263.489C60.5378 263.606 53.1444 257.462 50.1602 254.466L50.2886 254.332L58.8209 261.574C58.8209 261.574 59.691 260.92 60.0823 261.217Z" fill="white"/>
</g>
<path d="M50.1895 254.244L50.2887 254.35L50.5924 254.636L51.7254 255.664C52.6831 256.522 54.0263 257.696 55.5389 258.957C57.0515 260.219 58.4589 261.334 59.4634 262.128L60.6781 263.057L61.011 263.302L61.1336 263.384L61.0227 263.285L60.7015 263.022L59.5335 262.07C58.5231 261.264 57.1391 260.143 55.6265 258.881C54.1139 257.62 52.7649 256.458 51.7955 255.611L50.6275 254.606L50.3121 254.332L50.1895 254.244Z" fill="#263238"/>
<path d="M58.7324 261.673C58.9452 261.518 59.1768 261.39 59.4215 261.293C59.6741 261.229 59.9323 261.19 60.1924 261.176C59.9323 261.081 59.6466 261.081 59.3865 261.176C59.1156 261.257 58.8832 261.434 58.7324 261.673Z" fill="#263238"/>
<path d="M57.6348 259.115C57.6348 259.144 57.8275 259.115 58.0436 259.039C58.2596 258.963 58.4348 258.893 58.4232 258.864C58.4115 258.835 58.2304 258.864 58.0144 258.94C57.8767 258.97 57.7472 259.03 57.6348 259.115Z" fill="#263238"/>
<path d="M57.3438 258.403C57.3438 258.403 57.5014 258.449 57.7 258.443C57.8986 258.438 58.0504 258.408 58.0504 258.379C58.0504 258.35 57.8869 258.332 57.6941 258.338C57.574 258.332 57.4541 258.354 57.3438 258.403Z" fill="#263238"/>
<path d="M57.5195 257.544C57.5195 257.544 57.6363 257.708 57.8232 257.865C57.9286 257.972 58.0535 258.057 58.1911 258.116C58.1911 258.116 58.0743 257.947 57.8875 257.789C57.7006 257.632 57.5429 257.497 57.5195 257.544Z" fill="#263238"/>
<path d="M57.7637 256.995C57.8273 257.155 57.9242 257.3 58.048 257.42C58.1719 257.54 58.3198 257.632 58.482 257.69C58.3689 257.567 58.2479 257.452 58.1199 257.345C57.9272 257.159 57.8162 256.96 57.7637 256.995Z" fill="#263238"/>
<path d="M58.3241 258.712C58.4399 258.851 58.5805 258.968 58.7387 259.057C58.9044 259.164 59.0805 259.254 59.2643 259.325C59.3729 259.374 59.4865 259.412 59.6031 259.436C59.6766 259.449 59.752 259.432 59.8133 259.389C59.8455 259.365 59.8698 259.331 59.8833 259.293C59.8967 259.254 59.8988 259.213 59.8892 259.173C59.7991 258.96 59.6371 258.784 59.4312 258.678C59.2253 258.571 58.9886 258.54 58.7621 258.589C58.6287 258.616 58.503 258.671 58.3942 258.753C58.3533 258.779 58.3176 258.813 58.2891 258.852C58.4387 258.761 58.6025 258.696 58.7738 258.659C58.9591 258.627 59.1498 258.65 59.3227 258.724C59.5309 258.804 59.6988 258.964 59.7899 259.168C59.7899 259.273 59.7257 259.331 59.6147 259.314C59.507 259.289 59.4015 259.256 59.2994 259.214C59.1194 259.147 58.9456 259.065 58.7796 258.969C58.4935 258.858 58.3358 258.712 58.3241 258.712Z" fill="#263238"/>
<path d="M58.4011 258.846C58.4011 258.846 58.5529 258.8 58.6931 258.601C58.7683 258.48 58.8162 258.345 58.8332 258.204C58.8466 258.113 58.8383 258.02 58.8088 257.932C58.7794 257.845 58.7297 257.766 58.6639 257.702C58.6135 257.675 58.5545 257.669 58.4998 257.685C58.4451 257.702 58.3991 257.739 58.3719 257.789C58.3275 257.862 58.2996 257.944 58.2901 258.029C58.2731 258.166 58.2731 258.306 58.2901 258.443C58.2901 258.572 58.3222 258.698 58.3836 258.811C58.3836 258.811 58.3836 258.665 58.3836 258.443C58.382 258.31 58.3937 258.177 58.4186 258.046C58.4186 257.912 58.5237 257.725 58.6464 257.789C58.769 257.853 58.7748 258.058 58.7748 258.192C58.7644 258.321 58.7266 258.447 58.6639 258.56C58.5872 258.665 58.499 258.761 58.4011 258.846Z" fill="#263238"/>
<path d="M51.7949 252.592C51.7949 252.592 51.9935 252.726 52.2563 253.001C52.5983 253.362 52.8346 253.811 52.9396 254.297C53.0363 254.785 52.9959 255.291 52.8228 255.757C52.6884 256.119 52.5424 256.312 52.56 256.341C52.6039 256.303 52.6413 256.257 52.6709 256.207C52.758 256.081 52.8305 255.946 52.887 255.804C53.0889 255.328 53.1418 254.803 53.0388 254.297C52.9334 253.792 52.6792 253.33 52.3088 252.971C52.1985 252.864 52.0771 252.768 51.9468 252.685C51.9026 252.645 51.8511 252.613 51.7949 252.592Z" fill="#263238"/>
<path d="M54.7035 250.46C54.2886 250.862 53.8986 251.289 53.5355 251.739C53.15 252.167 52.7874 252.616 52.4492 253.082C52.8667 252.684 53.2569 252.259 53.6172 251.809C54.0021 251.378 54.3646 250.928 54.7035 250.46Z" fill="#263238"/>
<path d="M53.875 256.417C54.1246 256.745 54.415 257.039 54.7393 257.293C55.0425 257.575 55.3824 257.814 55.7496 258.005C55.7496 258.005 55.3233 257.655 54.8094 257.217C54.2955 256.779 53.8984 256.376 53.875 256.417Z" fill="#263238"/>
<path d="M52.6127 255.36C52.6127 255.36 52.5719 255.477 52.5368 255.611C52.5018 255.745 52.4492 255.845 52.4726 255.862C52.4959 255.88 52.5894 255.792 52.6361 255.634C52.6828 255.477 52.6419 255.354 52.6127 255.36Z" fill="#263238"/>
<path d="M52.6313 254.367C52.6021 254.367 52.5905 254.472 52.6021 254.595C52.6138 254.717 52.643 254.817 52.6722 254.817C52.7014 254.817 52.7131 254.712 52.6722 254.589C52.6313 254.466 52.6605 254.367 52.6313 254.367Z" fill="#263238"/>
<path d="M52.1758 253.526C52.1758 253.555 52.2517 253.625 52.3159 253.736C52.3802 253.847 52.4094 253.958 52.4386 253.958C52.4678 253.958 52.4853 253.824 52.4035 253.684C52.3218 253.543 52.1875 253.503 52.1758 253.526Z" fill="#263238"/>
<path d="M51.7949 252.995C51.7949 252.995 51.7949 253.076 51.7949 253.141C51.7949 253.205 51.8825 253.246 51.9059 253.234C51.9292 253.222 51.9059 253.152 51.9059 253.088C51.9059 253.024 51.8183 252.983 51.7949 252.995Z" fill="#263238"/>
<path d="M75.4653 164.449C75.4653 164.449 72.6679 176.28 73.4621 178.622C74.2564 180.964 79.3781 182.313 79.3781 182.313L79.2029 214.719L50.8672 249.759L61.3208 258.309C61.3208 258.309 92.0041 223.217 94.7081 216.845C97.412 210.474 92.9561 163.906 92.9561 163.906L75.4653 164.449Z" fill="#263238"/>
<path d="M89.9357 159.625L91.3198 258.04L76.9125 258.128L69.6768 177.957C68.1467 176.497 65.9917 173.997 66.2896 168.42L66.64 161.943L89.9357 159.625Z" fill="#263238"/>
<path d="M74.752 220.197C74.773 220.145 74.8005 220.096 74.8337 220.051C74.9096 219.946 74.9972 219.812 75.1082 219.648L76.1769 218.136L80.0897 212.716V212.792C79.7744 209.376 79.3948 205.235 78.986 200.767C78.4604 194.927 78.0399 189.613 77.7888 185.765C77.6603 183.843 77.5785 182.29 77.5318 181.215C77.5318 180.701 77.4968 180.287 77.4909 179.971C77.4731 179.828 77.4731 179.683 77.4909 179.539C77.5192 179.682 77.5367 179.826 77.5435 179.971C77.5435 180.281 77.6019 180.695 77.6428 181.209C77.7304 182.313 77.8472 183.855 77.999 185.753C78.3027 189.59 78.7582 194.887 79.2838 200.738C79.6751 205.223 80.0722 209.358 80.335 212.792V212.833V212.868L76.3346 218.217L75.2075 219.695L74.9038 220.075C74.7811 220.168 74.752 220.203 74.752 220.197Z" fill="#455A64"/>
<path d="M79.1683 179.539C77.8791 179.471 76.5998 179.275 75.349 178.955C74.0766 178.74 72.8285 178.4 71.623 177.939C72.8996 178.103 74.1653 178.342 75.4132 178.657C76.6807 178.879 77.9344 179.174 79.1683 179.539Z" fill="#455A64"/>
<path d="M89.0363 213.16C87.7927 212.644 86.4839 212.302 85.1469 212.144C83.7998 212.09 82.4517 212.221 81.1406 212.535C81.4831 212.319 81.8636 212.17 82.2619 212.097C83.214 211.849 84.201 211.762 85.1819 211.84C86.1566 211.919 87.1116 212.157 88.0085 212.547C88.385 212.688 88.7332 212.896 89.0363 213.16Z" fill="#455A64"/>
<path d="M94.1234 217.704C94.1877 217.756 90.1347 223.199 85.0656 229.857C79.9965 236.514 75.8326 241.881 75.7683 241.834C75.7041 241.788 79.757 236.339 84.8262 229.676C89.8953 223.012 94.0592 217.651 94.1234 217.704Z" fill="#455A64"/>
<path d="M92.1731 166.931C92.007 167.357 91.726 167.729 91.3614 168.005C90.9441 168.371 90.4556 168.646 89.9268 168.814C89.398 168.981 88.8403 169.038 88.2885 168.98C87.7368 168.922 87.2031 168.75 86.7208 168.476C86.2386 168.202 85.8183 167.831 85.4863 167.386C85.1773 167.045 84.9743 166.62 84.9023 166.166C85.1271 166.539 85.3728 166.9 85.6382 167.246C86.3057 168.055 87.2642 168.57 88.3073 168.679C89.3505 168.788 90.3948 168.483 91.2154 167.83C91.5501 167.547 91.8698 167.247 92.1731 166.931Z" fill="#455A64"/>
<path d="M72.4755 116.292C70.1015 114.036 68.7016 110.943 68.574 107.671C68.4464 104.399 69.6011 101.206 71.7922 98.772" fill="#263238"/>
<path d="M64.3742 125.472C64.3742 125.472 61.2439 129.011 60.5957 142.543C60.5957 142.543 69.5134 144.236 69.6769 143.752C69.8404 143.267 64.3742 125.472 64.3742 125.472Z" fill="#FF6D38"/>
<g opacity="0.3">
<path d="M64.3742 125.472C64.3742 125.472 61.2439 129.011 60.5957 142.543C60.5957 142.543 69.5134 144.236 69.6769 143.752C69.8404 143.267 64.3742 125.472 64.3742 125.472Z" fill="black"/>
</g>
<path d="M65.8229 164.886H93.2067L92.7629 160.606C92.7629 160.606 89.6326 144.336 89.656 144.119L90.1465 143.086C90.7864 141.744 91.1286 140.279 91.1498 138.792C91.1709 137.305 90.8706 135.832 90.2692 134.472L103.701 129.887L100.419 118.826C94.3338 119.848 85.1358 120.999 85.1358 120.999L83.7693 121.11C83.7693 121.11 74.2734 121.606 74.069 121.63C70.0978 122.114 65.4784 122.418 63.7906 126.67C62.8854 128.941 63.7439 132.352 65.2214 135.868L68.7254 146.672C70.127 152.611 67.8903 152.325 66.6581 158.305C66.4595 159.204 65.8054 164.057 65.8229 164.886Z" fill="#FF6D38"/>
<g opacity="0.3">
<path d="M65.8229 164.886H93.2067L92.7629 160.606C92.7629 160.606 89.6326 144.336 89.656 144.119L90.1465 143.086C90.7864 141.744 91.1286 140.279 91.1498 138.792C91.1709 137.305 90.8706 135.832 90.2692 134.472L103.701 129.887L100.419 118.826C94.3338 119.848 85.1358 120.999 85.1358 120.999L83.7693 121.11C83.7693 121.11 74.2734 121.606 74.069 121.63C70.0978 122.114 65.4784 122.418 63.7906 126.67C62.8854 128.941 63.7439 132.352 65.2214 135.868L68.7254 146.672C70.127 152.611 67.8903 152.325 66.6581 158.305C66.4595 159.204 65.8054 164.057 65.8229 164.886Z" fill="black"/>
</g>
<path d="M103.549 130.068C103.363 130.173 103.168 130.257 102.965 130.319C102.579 130.46 102.013 130.652 101.312 130.903C99.9103 131.377 97.9598 132.001 95.8106 132.691C93.6615 133.38 91.7226 134.063 90.3794 134.624C89.6903 134.904 89.1472 135.149 88.7676 135.313C88.5835 135.415 88.3873 135.493 88.1836 135.546C88.3532 135.411 88.5373 135.296 88.7326 135.202C89.1005 135.009 89.6319 134.729 90.3094 134.425C92.0798 133.653 93.8909 132.979 95.7347 132.404C97.8897 131.715 99.8227 131.12 101.265 130.699C101.972 130.489 102.55 130.325 102.947 130.214C103.141 130.141 103.343 130.092 103.549 130.068Z" fill="#263238"/>
<path d="M101.962 124.176C101.962 124.258 93.8618 124.328 83.8579 124.328C73.854 124.328 65.7539 124.258 65.7539 124.176C65.7539 124.094 73.8481 124.024 83.8579 124.024C93.8677 124.024 101.962 124.094 101.962 124.176Z" fill="#FAFAFA"/>
<path d="M102.784 129.554C102.784 129.636 93.7733 129.706 82.6598 129.706C71.5463 129.706 62.541 129.636 62.541 129.554C62.541 129.473 71.5463 129.403 82.6598 129.403C93.7733 129.403 102.784 129.473 102.784 129.554Z" fill="#FAFAFA"/>
<path d="M64.8248 135.675C64.2773 135.823 63.7081 135.875 63.1429 135.827C62.5796 135.875 62.0123 135.823 61.4668 135.675C62.0123 135.527 62.5796 135.475 63.1429 135.523C63.7081 135.475 64.2773 135.526 64.8248 135.675Z" fill="#FAFAFA"/>
<path d="M91.1041 135.862C91.1041 135.944 85.2115 136.014 77.9466 136.014C70.6816 136.014 64.7891 135.944 64.7891 135.862C64.7891 135.78 70.6758 135.71 77.9466 135.71C85.2174 135.71 91.1041 135.774 91.1041 135.862Z" fill="#FAFAFA"/>
<path d="M90.5212 142.163C90.5212 142.251 85.2302 142.315 78.7128 142.315C72.1953 142.315 66.8984 142.251 66.8984 142.163C66.8984 142.075 72.1836 142.011 78.7128 142.011C85.2419 142.011 90.5212 142.081 90.5212 142.163Z" fill="#FAFAFA"/>
<path d="M90.3567 148.009C90.3567 148.091 85.5679 148.161 79.6578 148.161C73.7477 148.161 68.9473 148.091 68.9473 148.009C68.9473 147.927 73.7419 147.857 79.6578 147.857C85.5737 147.857 90.3567 147.921 90.3567 148.009Z" fill="#FAFAFA"/>
<path d="M91.2971 152.733C91.2971 152.821 86.1695 152.885 79.8448 152.885C73.5201 152.885 68.3926 152.821 68.3926 152.733C68.3926 152.646 73.5201 152.582 79.8448 152.582C86.1695 152.582 91.2971 152.652 91.2971 152.733Z" fill="#FAFAFA"/>
<path d="M92.7807 158.76C92.7807 158.848 86.9407 158.912 79.7517 158.912C72.5627 158.912 66.7227 158.848 66.7227 158.76C66.7227 158.673 72.5627 158.609 79.7517 158.609C86.9407 158.609 92.7807 158.679 92.7807 158.76Z" fill="#FAFAFA"/>
<path d="M68.5444 146.164C68.4342 145.999 68.3514 145.817 68.2992 145.626L67.7152 144.131C67.2304 142.87 66.5472 141.129 65.8464 139.185C65.1456 137.24 64.5557 135.465 64.1878 134.162C64.0068 133.508 63.8666 132.994 63.7907 132.609C63.7345 132.419 63.7012 132.223 63.6914 132.025C63.9616 132.703 64.1956 133.395 64.3922 134.098C64.8127 135.383 65.4259 137.147 66.1442 139.085C66.8625 141.024 67.4932 142.776 67.8962 144.061C68.1123 144.704 68.2758 145.229 68.3809 145.591C68.4596 145.774 68.5146 145.967 68.5444 146.164Z" fill="#263238"/>
</svg>
