<svg width="207" height="207" viewBox="0 0 207 207" fill="none" xmlns="http://www.w3.org/2000/svg">
<path d="M207 158.314H0V158.417H207V158.314Z" fill="#EBEBEB"/>
<path d="M35.4304 162.255H21.7188V162.358H35.4304V162.255Z" fill="#EBEBEB"/>
<path d="M90.2061 161.133H70.8516V161.237H90.2061V161.133Z" fill="#EBEBEB"/>
<path d="M54.6439 165.455H46.6992V165.559H54.6439V165.455Z" fill="#EBEBEB"/>
<path d="M141.812 163.658H129.305V163.762H141.812V163.658Z" fill="#EBEBEB"/>
<path d="M153.495 163.658H145.496V163.762H153.495V163.658Z" fill="#EBEBEB"/>
<path d="M186.263 165.406H162.02V165.509H186.263V165.406Z" fill="#EBEBEB"/>
<path d="M98.1174 139.849H18.1782C17.5519 139.848 16.9517 139.599 16.5093 139.155C16.0668 138.712 15.8184 138.112 15.8184 137.485V25.1133C15.8238 24.4906 16.0747 23.8953 16.5165 23.4565C16.9584 23.0178 17.5555 22.7711 18.1782 22.77H98.1174C98.7444 22.77 99.3457 23.0191 99.789 23.4624C100.232 23.9057 100.481 24.507 100.481 25.134V137.485C100.481 138.112 100.232 138.714 99.789 139.157C99.3457 139.6 98.7444 139.849 98.1174 139.849ZM18.1782 22.8528C17.5794 22.8539 17.0055 23.0926 16.5825 23.5163C16.1594 23.9401 15.9219 24.5145 15.9219 25.1133V137.485C15.9219 138.084 16.1594 138.658 16.5825 139.082C17.0055 139.506 17.5794 139.745 18.1782 139.746H98.1174C98.7166 139.745 99.2909 139.506 99.7146 139.082C100.138 138.659 100.377 138.084 100.378 137.485V25.1133C100.377 24.5141 100.138 23.9398 99.7146 23.5161C99.2909 23.0924 98.7166 22.8539 98.1174 22.8528H18.1782Z" fill="#EBEBEB"/>
<path d="M187.671 139.849H107.727C107.101 139.848 106.5 139.599 106.057 139.156C105.614 138.713 105.364 138.112 105.363 137.485V25.1133C105.37 24.4902 105.622 23.8949 106.064 23.4563C106.507 23.0176 107.104 22.7711 107.727 22.77H187.671C188.293 22.7722 188.889 23.0194 189.33 23.458C189.771 23.8966 190.021 24.4913 190.026 25.1133V137.485C190.026 138.111 189.778 138.711 189.337 139.154C188.895 139.597 188.296 139.847 187.671 139.849ZM107.727 22.8528C107.128 22.8539 106.554 23.0924 106.13 23.5161C105.706 23.9398 105.468 24.5141 105.467 25.1133V137.485C105.468 138.084 105.706 138.659 106.13 139.082C106.554 139.506 107.128 139.745 107.727 139.746H187.671C188.27 139.745 188.844 139.506 189.268 139.082C189.691 138.659 189.93 138.084 189.931 137.485V25.1133C189.93 24.5141 189.691 23.9398 189.268 23.5161C188.844 23.0924 188.27 22.8539 187.671 22.8528H107.727Z" fill="#EBEBEB"/>
<path d="M121.241 38.5393H28.4219V96.6235H121.241V38.5393Z" fill="#F0F0F0"/>
<path d="M119.426 93.8953V41.2717L30.2378 41.2717V93.8953H119.426Z" fill="#FAFAFA"/>
<path d="M41.9746 93.8911L51.124 41.2676H57.8722L48.7228 93.8911H41.9746Z" fill="white"/>
<path d="M50.2812 93.8911L59.4307 41.2676H62.4487L53.2993 93.8911H50.2812Z" fill="white"/>
<path d="M65.043 93.8911L74.1924 41.2676H80.9364L71.787 93.8911H65.043Z" fill="white"/>
<path d="M82.0508 93.8911L91.2002 41.2676H94.2182L85.0688 93.8911H82.0508Z" fill="white"/>
<path d="M54.1309 93.8911V41.2676H53.6713V93.8911H54.1309Z" fill="#E0E0E0"/>
<path d="M30.6973 93.8911L30.6973 41.2676H30.2377L30.2377 93.8911H30.6973Z" fill="#E0E0E0"/>
<path d="M53.6719 93.8911V41.2676H51.8544V93.8911H53.6719Z" fill="#F0F0F0"/>
<path d="M76.6484 93.8953V41.2717H76.1889V93.8953H76.6484Z" fill="#E0E0E0"/>
<path d="M76.1836 93.8953V41.2717H74.3661V93.8953H76.1836Z" fill="#F0F0F0"/>
<path d="M99.1738 93.8911V41.2676H98.7143V93.8911H99.1738Z" fill="#E0E0E0"/>
<path d="M98.7148 93.8911V41.2676H96.8974V93.8911H98.7148Z" fill="#F0F0F0"/>
<path d="M121.699 96.6235V38.5393H121.24V96.6235H121.699Z" fill="#E0E0E0"/>
<path d="M130.671 34.5482H24.2978C24.1385 34.5472 23.986 34.4837 23.873 34.3715C23.76 34.2592 23.6955 34.1072 23.6934 33.9479C23.6934 33.7872 23.7569 33.6331 23.8701 33.5191C23.9834 33.405 24.1371 33.3404 24.2978 33.3394H130.671C130.751 33.3394 130.83 33.3551 130.904 33.3857C130.978 33.4163 131.045 33.4611 131.101 33.5176C131.158 33.5741 131.203 33.6412 131.233 33.715C131.264 33.7889 131.28 33.868 131.28 33.9479C131.277 34.1079 131.212 34.2606 131.098 34.3729C130.984 34.4853 130.831 34.5482 130.671 34.5482Z" fill="#E0E0E0"/>
<g opacity="0.8">
<path d="M66.148 32.1677H25.7871V110.592H66.148V32.1677Z" fill="#F5F5F5"/>
<path d="M41.6011 111.457H38.2188L39.171 33.033H40.682L41.6011 111.457Z" fill="#E6E6E6"/>
<path d="M34.1412 111.457H32.5059L32.9654 33.033H33.694L34.1412 111.457Z" fill="#E6E6E6"/>
<path d="M51.4146 111.457H49.7793L50.2388 33.033H50.9675L51.4146 111.457Z" fill="#E6E6E6"/>
<path d="M59.723 111.457H58.0918L58.5472 33.033H59.28L59.723 111.457Z" fill="#E6E6E6"/>
</g>
<g opacity="0.8">
<path d="M128.589 32.1636H108.41V110.588H128.589V32.1636Z" fill="#F5F5F5"/>
<path d="M116.318 111.453H114.629L115.101 33.033H115.858L116.318 111.453Z" fill="#E6E6E6"/>
<path d="M112.587 111.453H111.771L111.999 33.033H112.364L112.587 111.453Z" fill="#E6E6E6"/>
<path d="M121.224 111.453H120.408L120.636 33.033H121L121.224 111.453Z" fill="#E6E6E6"/>
<path d="M125.376 111.453H124.561L124.792 33.033H125.157L125.376 111.453Z" fill="#E6E6E6"/>
</g>
<path d="M107.345 157.606H111.229V118.019H107.345V157.606Z" fill="#F0F0F0"/>
<path d="M26.5918 118.023L112.174 118.023V115.655L26.5918 115.655V118.023Z" fill="#F0F0F0"/>
<path d="M29.1213 158.314H109.648V157.606H29.1213V158.314Z" fill="#F0F0F0"/>
<path d="M107.346 118.019H27.5391V157.606H107.346V118.019Z" fill="#FAFAFA"/>
<path d="M104.113 122.428H30.7812V134.575H104.113V122.428Z" fill="#F0F0F0"/>
<path d="M104.113 140.296H30.7812V152.443H104.113V140.296Z" fill="#F0F0F0"/>
<path d="M42.0046 123.604H92.8852C93.3013 123.604 93.6387 123.266 93.6387 122.85V122.469C93.6387 122.053 93.3013 121.716 92.8852 121.716H42.0046C41.5885 121.716 41.2511 122.053 41.2511 122.469V122.85C41.2511 123.266 41.5885 123.604 42.0046 123.604Z" fill="#FAFAFA"/>
<path d="M42.0046 141.464H92.8852C93.3013 141.464 93.6387 141.127 93.6387 140.71V140.329C93.6387 139.913 93.3013 139.576 92.8852 139.576H42.0046C41.5885 139.576 41.2511 139.913 41.2511 140.329V140.71C41.2511 141.127 41.5885 141.464 42.0046 141.464Z" fill="#FAFAFA"/>
<path d="M172.057 156.471C174.513 154.015 174.513 150.033 172.057 147.577C169.601 145.121 165.619 145.121 163.164 147.577C160.708 150.033 160.708 154.015 163.164 156.471C165.619 158.927 169.601 158.927 172.057 156.471Z" fill="#EBEBEB"/>
<path d="M177.267 158.31C181.6 158.31 185.112 154.797 185.112 150.464C185.112 146.131 181.6 142.619 177.267 142.619C172.934 142.619 169.422 146.131 169.422 150.464C169.422 154.797 172.934 158.31 177.267 158.31Z" fill="#F5F5F5"/>
<path d="M137.82 91.8293H182.031V36.6514L137.82 36.6514V91.8293Z" fill="#E6E6E6"/>
<path d="M135.879 91.8293H181.369V36.6514L135.879 36.6514V91.8293Z" fill="#F5F5F5"/>
<path d="M179.982 90.2892V38.1914H137.262V90.2892H179.982Z" fill="#FAFAFA"/>
<path d="M158.625 73.4851C166.687 73.4851 173.223 66.9495 173.223 58.8874C173.223 50.8254 166.687 44.2898 158.625 44.2898C150.563 44.2898 144.027 50.8254 144.027 58.8874C144.027 66.9495 150.563 73.4851 158.625 73.4851Z" fill="white"/>
<path d="M137.664 90.2892V38.1914H137.267V90.2892H137.664Z" fill="#E6E6E6"/>
<path d="M174.108 55.7699C171.992 54.6148 169.102 55.5794 167.972 55.9603C166.842 56.3412 163.969 57.401 163.058 55.5463C162.643 54.7261 162.009 54.0369 161.227 53.5555C160.444 53.074 159.543 52.8191 158.624 52.8191C157.705 52.8191 156.804 53.074 156.021 53.5555C155.238 54.0369 154.605 54.7261 154.19 55.5463C153.279 57.3969 150.406 56.3412 149.276 55.9603C148.146 55.5794 145.252 54.6148 143.14 55.7699C141.029 56.9249 142.726 60.0465 144.718 61.4002C146.709 62.754 149.139 60.1582 146.887 59.5704C144.635 58.9825 143.575 58.585 143.873 57.2023C144.171 55.8195 147.094 56.1466 149.367 56.6434L149.889 56.7635C151.348 57.117 152.662 57.9173 153.645 59.0528C154.628 60.1882 155.233 61.6023 155.374 63.0977V63.1349C155.494 64.4307 155.316 67.1052 155.25 68.55C155.184 69.9949 156.438 73.2945 156.546 74.4495C156.653 75.6046 158.616 75.6253 158.616 75.6253C158.616 75.6253 160.582 75.5756 160.686 74.4495C160.789 73.3235 162.048 69.9494 161.986 68.55C161.924 67.1507 161.741 64.41 161.861 63.1349V63.0935C162.004 61.5978 162.61 60.1839 163.595 59.0491C164.58 57.9143 165.894 57.1153 167.355 56.7635L167.869 56.6434C170.141 56.1466 173.081 55.8154 173.362 57.2023C173.644 58.5892 172.601 58.9783 170.348 59.5704C168.096 60.1624 170.518 62.7499 172.518 61.4002C174.517 60.0506 176.219 56.9208 174.108 55.7699Z" fill="#F0F0F0"/>
<path opacity="0.9" d="M174.911 57.3018C174.904 57.0118 174.818 56.7292 174.661 56.4848C174.505 56.2403 174.285 56.0432 174.025 55.9149C173.308 55.5488 172.511 55.368 171.707 55.3891C170.449 55.4351 169.206 55.6825 168.026 56.1219L167.898 56.1633H167.873C166.537 56.6894 165.093 56.8799 163.667 56.7181C162.466 56.5193 160.607 56.0763 158.624 56.0763C156.641 56.0763 154.782 56.5193 153.594 56.7181C152.17 56.8823 150.727 56.6947 149.392 56.1716H149.367L149.239 56.1302C148.059 55.6913 146.816 55.4439 145.558 55.3974C144.754 55.3763 143.957 55.5571 143.24 55.9232C142.98 56.0515 142.76 56.2486 142.604 56.4931C142.447 56.7375 142.361 57.0201 142.354 57.3101C142.288 58.697 143.563 60.4109 144.838 61.2679C145.169 61.4982 145.561 61.6224 145.964 61.624C146.842 61.624 147.575 61.0361 147.641 60.5103C147.686 60.1584 147.413 59.8852 146.867 59.7403C144.714 59.1772 143.41 58.7508 143.733 57.1776C143.886 56.4324 144.685 56.0556 146.109 56.0556C147.224 56.084 148.333 56.2227 149.421 56.4696L149.947 56.5938C153.006 57.3349 157.813 59.939 158.09 63.073V63.1102C158.194 64.1949 158.426 63.429 158.347 64.9111C158.347 65.2216 158.318 65.5073 158.305 65.7391C158.268 66.5381 156.649 68.0327 157.034 69.3533C157.299 70.3055 157.531 73.9073 157.577 74.4124C157.594 74.6815 157.712 74.9341 157.909 75.1187C158.105 75.3033 158.365 75.406 158.635 75.406C158.904 75.406 159.164 75.3033 159.36 75.1187C159.557 74.9341 159.676 74.6815 159.692 74.4124C159.738 73.9239 159.97 70.3055 160.239 69.3533C160.607 68.0327 158.997 66.5381 158.964 65.7391C158.964 65.4907 158.939 65.205 158.922 64.9111C158.844 63.429 159.08 64.1949 159.179 63.1102V63.0688C159.477 59.9348 164.271 57.3308 167.335 56.5897L167.852 56.4696C168.94 56.2222 170.049 56.0835 171.164 56.0556C172.588 56.0556 173.387 56.4324 173.541 57.1776C173.859 58.7508 172.555 59.1772 170.403 59.7403C169.86 59.8852 169.575 60.1543 169.628 60.5103C169.699 61.0361 170.427 61.624 171.284 61.624C171.688 61.6225 172.083 61.4983 172.415 61.2679C173.702 60.4027 174.973 58.6887 174.911 57.3018Z" fill="#E0E0E0"/>
<path d="M154.236 59.6616C154.198 59.9846 154.169 60.6221 153.101 61.4667C152.352 62.0587 150.282 62.2243 149.454 61.6861C149.44 61.6252 149.418 61.5666 149.388 61.5122C149.412 61.4431 149.425 61.3703 149.425 61.2969C149.425 61.205 149.404 61.1143 149.365 61.0312C149.326 60.9482 149.268 60.8749 149.197 60.8167C149.224 60.7436 149.238 60.6667 149.239 60.589C149.239 60.4321 149.179 60.281 149.071 60.167C148.963 60.053 148.816 59.9848 148.659 59.9763C148.661 59.939 148.661 59.9017 148.659 59.8645C148.659 59.7833 148.644 59.7029 148.613 59.6278C148.582 59.5527 148.537 59.4845 148.479 59.4271C148.422 59.3697 148.354 59.3243 148.279 59.2935C148.204 59.2627 148.123 59.2471 148.042 59.2476C147.971 59.2476 147.901 59.2602 147.835 59.2849C147.79 59.169 147.711 59.0694 147.608 58.9992C147.506 58.929 147.384 58.8915 147.26 58.8916C147.154 58.8928 147.05 58.9207 146.958 58.9729C146.866 59.025 146.789 59.0996 146.734 59.1897C146.677 59.1184 146.604 59.061 146.522 59.0215C146.439 58.9821 146.349 58.9618 146.258 58.962C146.094 58.962 145.937 59.027 145.822 59.1427C145.706 59.2583 145.641 59.4152 145.641 59.5788C145.641 59.6363 145.649 59.6936 145.666 59.7486C145.536 59.7906 145.423 59.8746 145.346 59.9874C145.269 60.1002 145.231 60.2355 145.239 60.372C145.247 60.5085 145.301 60.6384 145.39 60.7414C145.48 60.8443 145.602 60.9145 145.736 60.9409C145.711 61.0056 145.698 61.0744 145.699 61.1438C145.699 61.3074 145.764 61.4643 145.88 61.5799C145.995 61.6956 146.152 61.7606 146.316 61.7606C146.443 61.7605 146.567 61.7215 146.672 61.6488C146.653 61.705 146.644 61.7636 146.643 61.8227C146.643 61.9863 146.708 62.1432 146.823 62.2589C146.939 62.3746 147.096 62.4396 147.26 62.4396C147.412 62.4421 147.56 62.3875 147.674 62.2864C147.723 62.395 147.803 62.487 147.904 62.5516C148.004 62.6161 148.121 62.6505 148.241 62.6507C148.332 62.6509 148.422 62.6306 148.505 62.5912C148.587 62.5517 148.66 62.4943 148.717 62.423C148.764 62.4293 148.811 62.4293 148.858 62.423H148.903L149.044 62.5017C149.251 62.6124 149.47 62.6973 149.698 62.7542C150.31 62.9045 150.949 62.9144 151.565 62.7832C152.187 62.6552 152.757 62.3437 153.201 61.889C153.566 61.4826 153.997 61.1398 154.476 60.8747C154.599 60.82 154.728 60.7811 154.861 60.7587C154.873 60.3696 154.687 59.7941 154.236 59.6616Z" fill="#FAFAFA"/>
<path d="M171.984 60.3323C171.985 60.2035 171.945 60.0777 171.871 59.9724C171.797 59.867 171.692 59.7874 171.57 59.7444C171.587 59.6894 171.595 59.6322 171.595 59.5747C171.018 59.4422 170.469 59.2096 169.972 58.8875C169.849 58.8876 169.728 58.9253 169.626 58.9955C169.524 59.0657 169.445 59.1651 169.401 59.2807C169.333 59.2557 169.262 59.243 169.19 59.2435C169.026 59.2435 168.869 59.3085 168.754 59.4242C168.638 59.5398 168.573 59.6967 168.573 59.8603C168.569 59.8975 168.569 59.935 168.573 59.9721C168.416 59.9806 168.269 60.0489 168.161 60.1629C168.053 60.2769 167.993 60.4279 167.993 60.5848C167.992 60.6627 168.006 60.7401 168.035 60.8125C167.963 60.87 167.904 60.943 167.864 61.0261C167.824 61.1093 167.803 61.2004 167.803 61.2928C167.836 61.3536 167.851 61.4226 167.846 61.4916C167.841 61.5606 167.816 61.6267 167.774 61.682C166.946 62.2243 164.897 62.0587 164.143 61.4667C163.071 60.6387 163.046 59.9845 163.009 59.6616C162.558 59.7941 162.371 60.3696 162.367 60.767C162.501 60.7892 162.632 60.8282 162.756 60.8829C163.233 61.1482 163.663 61.4909 164.027 61.8972C164.477 62.355 165.054 62.6666 165.683 62.7915C166.3 62.9227 166.938 62.9128 167.55 62.7625C167.778 62.7055 167.998 62.6207 168.205 62.51L168.341 62.4313H168.391C168.436 62.4379 168.482 62.4379 168.528 62.4313C168.75 62.3121 168.999 62.2497 169.252 62.2497C169.505 62.2497 169.754 62.3121 169.977 62.4313C170.14 62.4313 170.297 62.3663 170.413 62.2506C170.528 62.1349 170.593 61.978 170.593 61.8144C170.594 61.7556 170.585 61.6969 170.569 61.6405C170.661 61.7047 170.769 61.7424 170.881 61.7495C170.994 61.7566 171.106 61.7329 171.206 61.6809C171.305 61.6289 171.389 61.5506 171.447 61.4544C171.506 61.3583 171.537 61.248 171.537 61.1355C171.537 61.0665 171.526 60.998 171.504 60.9326C171.64 60.9017 171.762 60.8255 171.849 60.7164C171.936 60.6074 171.984 60.472 171.984 60.3323Z" fill="#FAFAFA"/>
<path d="M170.588 83.9095H146.655C146.285 83.9084 145.931 83.7611 145.67 83.4997C145.408 83.2382 145.261 82.884 145.26 82.5143C145.261 82.1446 145.408 81.7904 145.67 81.529C145.931 81.2676 146.285 81.1202 146.655 81.1191H170.588C170.958 81.1202 171.312 81.2676 171.574 81.529C171.835 81.7904 171.982 82.1446 171.983 82.5143C171.982 82.884 171.835 83.2382 171.574 83.4997C171.312 83.7611 170.958 83.9084 170.588 83.9095Z" fill="white"/>
<path d="M103.501 177.01C147.833 177.01 183.771 174.912 183.771 172.323C183.771 169.735 147.833 167.637 103.501 167.637C59.1688 167.637 23.2305 169.735 23.2305 172.323C23.2305 174.912 59.1688 177.01 103.501 177.01Z" fill="#F5F5F5"/>
<path d="M81.0944 114.09H79.4219V166.093H81.0944V114.09Z" fill="#FF6D38"/>
<path opacity="0.8" d="M81.0944 114.09H79.4219V166.093H81.0944V114.09Z" fill="white"/>
<path d="M77.7493 166.097H79.4219V114.094H77.7493V166.097Z" fill="#FF6D38"/>
<path opacity="0.7" d="M77.7493 166.097H79.4219V114.094H77.7493V166.097Z" fill="white"/>
<path d="M79.4213 169.065C80.1415 169.065 80.7254 168.481 80.7254 167.761C80.7254 167.041 80.1415 166.457 79.4213 166.457C78.7011 166.457 78.1172 167.041 78.1172 167.761C78.1172 168.481 78.7011 169.065 79.4213 169.065Z" fill="#263238"/>
<path d="M80.8838 166.097H77.9609V166.66H80.8838V166.097Z" fill="#263238"/>
<path d="M112.062 114.09V110.161H79.9651V114.09H112.062Z" fill="#FF6D38"/>
<path opacity="0.8" d="M112.062 114.09V110.161H79.9651V114.09H112.062Z" fill="white"/>
<path d="M79.9648 114.09V110.161H70.2151V114.09H79.9648Z" fill="#FF6D38"/>
<path opacity="0.7" d="M79.9648 114.09V110.161H70.2151V114.09H79.9648Z" fill="white"/>
<path d="M74.3757 114.09H72.7031V166.093H74.3757V114.09Z" fill="#FF6D38"/>
<path opacity="0.8" d="M74.3757 114.09H72.7031V166.093H74.3757V114.09Z" fill="white"/>
<path d="M71.0267 166.097H72.6992V114.094H71.0267V166.097Z" fill="#FF6D38"/>
<path opacity="0.7" d="M71.0267 166.097H72.6992V114.094H71.0267V166.097Z" fill="white"/>
<path d="M72.7025 169.065C73.4228 169.065 74.0066 168.481 74.0066 167.761C74.0066 167.041 73.4228 166.457 72.7025 166.457C71.9823 166.457 71.3984 167.041 71.3984 167.761C71.3984 168.481 71.9823 169.065 72.7025 169.065Z" fill="#263238"/>
<path d="M74.165 166.097H71.2422V166.66H74.165V166.097Z" fill="#263238"/>
<path d="M111.126 114.09H109.453V166.093H111.126V114.09Z" fill="#FF6D38"/>
<path opacity="0.8" d="M111.126 114.09H109.453V166.093H111.126V114.09Z" fill="white"/>
<path d="M107.781 166.097H109.453V114.094H107.781V166.097Z" fill="#FF6D38"/>
<path opacity="0.7" d="M107.781 166.097H109.453V114.094H107.781V166.097Z" fill="white"/>
<path d="M110.759 167.761C110.759 168.019 110.682 168.271 110.539 168.486C110.396 168.7 110.192 168.867 109.954 168.966C109.715 169.065 109.453 169.09 109.2 169.04C108.947 168.99 108.715 168.866 108.532 168.683C108.35 168.501 108.226 168.269 108.175 168.016C108.125 167.763 108.151 167.5 108.25 167.262C108.348 167.024 108.516 166.82 108.73 166.677C108.944 166.534 109.197 166.457 109.454 166.457C109.8 166.458 110.131 166.596 110.375 166.84C110.62 167.085 110.757 167.416 110.759 167.761Z" fill="#263238"/>
<path d="M110.915 166.097H107.992V166.66H110.915V166.097Z" fill="#263238"/>
<path d="M104.407 114.09H102.734V166.093H104.407V114.09Z" fill="#FF6D38"/>
<path opacity="0.8" d="M104.407 114.09H102.734V166.093H104.407V114.09Z" fill="white"/>
<path d="M101.062 166.097H102.734V114.094H101.062V166.097Z" fill="#FF6D38"/>
<path opacity="0.7" d="M101.062 166.097H102.734V114.094H101.062V166.097Z" fill="white"/>
<path d="M104.038 167.761C104.039 168.02 103.963 168.274 103.82 168.49C103.676 168.705 103.472 168.874 103.233 168.973C102.993 169.073 102.73 169.099 102.476 169.049C102.222 168.998 101.988 168.874 101.805 168.69C101.622 168.507 101.497 168.274 101.447 168.019C101.396 167.765 101.423 167.502 101.522 167.263C101.622 167.023 101.79 166.819 102.006 166.676C102.222 166.532 102.475 166.456 102.734 166.457C103.08 166.458 103.411 166.596 103.655 166.84C103.9 167.085 104.037 167.416 104.038 167.761Z" fill="#263238"/>
<path d="M104.196 166.097H101.273V166.66H104.196V166.097Z" fill="#263238"/>
<path d="M78.834 139.059V136.707H71.3985V139.059H78.834Z" fill="#FF6D38"/>
<path opacity="0.7" d="M78.834 139.059V136.707H71.3985V139.059H78.834Z" fill="white"/>
<path d="M110.617 139.05V136.699H80.2586V139.05H110.617Z" fill="#FF6D38"/>
<path opacity="0.8" d="M110.617 139.05V136.699H80.2586V139.05H110.617Z" fill="white"/>
<path d="M91.9712 130.017H88.6136C88.2089 130.017 87.8809 130.345 87.8809 130.749V135.97C87.8809 136.375 88.2089 136.703 88.6136 136.703H91.9712C92.3759 136.703 92.704 136.375 92.704 135.97V130.749C92.704 130.345 92.3759 130.017 91.9712 130.017Z" fill="#FF6D38"/>
<path opacity="0.3" d="M91.9712 130.017H88.6136C88.2089 130.017 87.8809 130.345 87.8809 130.749V135.97C87.8809 136.375 88.2089 136.703 88.6136 136.703H91.9712C92.3759 136.703 92.704 136.375 92.704 135.97V130.749C92.704 130.345 92.3759 130.017 91.9712 130.017Z" fill="white"/>
<path d="M92.7033 131.929H91.0391V135.287H92.7033V131.929Z" fill="white"/>
<path d="M90.5744 131.929H88.9102V135.287H90.5744V131.929Z" fill="white"/>
<path d="M91.8289 129.11H88.7487C88.6275 129.11 88.5293 129.208 88.5293 129.33V129.793C88.5293 129.914 88.6275 130.013 88.7487 130.013H91.8289C91.9501 130.013 92.0483 129.914 92.0483 129.793V129.33C92.0483 129.208 91.9501 129.11 91.8289 129.11Z" fill="#FF6D38"/>
<path d="M87.5164 129.441H83.8691C83.4301 129.441 83.0742 129.797 83.0742 130.236V135.908C83.0742 136.347 83.4301 136.703 83.8691 136.703H87.5164C87.9554 136.703 88.3113 136.347 88.3113 135.908V130.236C88.3113 129.797 87.9554 129.441 87.5164 129.441Z" fill="#FF6D38"/>
<path opacity="0.5" d="M87.5164 129.441H83.8691C83.4301 129.441 83.0742 129.797 83.0742 130.236V135.908C83.0742 136.347 83.4301 136.703 83.8691 136.703H87.5164C87.9554 136.703 88.3113 136.347 88.3113 135.908V130.236C88.3113 129.797 87.9554 129.441 87.5164 129.441Z" fill="white"/>
<path d="M87.7599 131.52H84.7832V135.167H87.7599V131.52Z" fill="white"/>
<path d="M87.3665 128.456H84.0214C83.8888 128.456 83.7812 128.564 83.7812 128.696V129.197C83.7812 129.33 83.8888 129.437 84.0214 129.437H87.3665C87.4991 129.437 87.6066 129.33 87.6066 129.197V128.696C87.6066 128.564 87.4991 128.456 87.3665 128.456Z" fill="#FF6D38"/>
<path d="M86.0218 103.289H74.8438V110.161H86.0218V103.289Z" fill="#FF6D38"/>
<path opacity="0.2" d="M78.586 110.161H86.0215V103.289H78.586V110.161Z" fill="white"/>
<path opacity="0.5" d="M74.8435 106.125H86.0215V103.285H74.8435V106.125Z" fill="white"/>
<path opacity="0.5" d="M74.8435 107.321H86.0215V106.725H74.8435V107.321Z" fill="white"/>
<path d="M85.4248 107.95H79.1816V109.532H85.4248V107.95Z" fill="white"/>
<path d="M100.407 107.479C100.344 107.425 100.304 107.348 100.296 107.265C100.289 107.183 100.313 107.1 100.366 107.036L103.678 103.069C103.732 103.005 103.809 102.964 103.893 102.957C103.976 102.949 104.06 102.975 104.125 103.028C104.188 103.082 104.228 103.158 104.236 103.241C104.243 103.324 104.218 103.406 104.166 103.471L100.854 107.437C100.8 107.502 100.723 107.542 100.639 107.55C100.555 107.558 100.472 107.532 100.407 107.479Z" fill="#FF6D38"/>
<path d="M101.485 107.503C101.421 107.449 101.38 107.372 101.372 107.288C101.365 107.205 101.39 107.121 101.444 107.056L104.756 103.094C104.782 103.062 104.814 103.035 104.851 103.016C104.887 102.996 104.927 102.984 104.969 102.98C105.01 102.976 105.052 102.981 105.091 102.993C105.131 103.006 105.167 103.026 105.199 103.053C105.231 103.079 105.258 103.111 105.277 103.148C105.297 103.184 105.309 103.224 105.313 103.266C105.317 103.307 105.312 103.349 105.3 103.388C105.287 103.428 105.267 103.464 105.24 103.496L101.928 107.462C101.874 107.525 101.798 107.565 101.715 107.573C101.632 107.58 101.55 107.556 101.485 107.503Z" fill="#FF6D38"/>
<path d="M102.391 107.731C102.359 107.705 102.332 107.672 102.312 107.635C102.293 107.598 102.281 107.558 102.277 107.516C102.273 107.475 102.277 107.433 102.29 107.393C102.302 107.353 102.323 107.316 102.35 107.284L105.662 103.322C105.688 103.29 105.72 103.263 105.757 103.243C105.793 103.224 105.833 103.212 105.875 103.208C105.916 103.204 105.958 103.208 105.997 103.221C106.037 103.233 106.073 103.254 106.105 103.281C106.169 103.334 106.209 103.411 106.217 103.494C106.225 103.577 106.199 103.659 106.146 103.724L102.834 107.69C102.781 107.754 102.704 107.794 102.621 107.802C102.538 107.81 102.455 107.784 102.391 107.731Z" fill="#FF6D38"/>
<path d="M98.3133 106.783C96.7815 106.783 95.051 106.34 93.5233 105.955C92.4179 105.669 90.7495 105.243 90.5136 105.487C90.5136 105.487 90.468 105.599 90.6253 105.976C90.6511 106.026 90.6661 106.082 90.6695 106.139C90.6728 106.196 90.6644 106.253 90.6447 106.306C90.6251 106.359 90.5946 106.408 90.5553 106.449C90.5159 106.49 90.4685 106.523 90.416 106.545C90.3635 106.567 90.307 106.578 90.2501 106.577C90.1932 106.576 90.137 106.564 90.0852 106.54C90.0333 106.517 89.9869 106.483 89.9488 106.44C89.9106 106.398 89.8816 106.348 89.8636 106.295C89.7725 106.075 89.491 105.409 89.8884 104.945C90.439 104.307 91.7473 104.643 93.7303 105.152C95.2083 105.533 96.885 105.98 98.3133 105.98C99.7416 105.98 101.414 105.566 102.896 105.152C104.879 104.643 106.208 104.324 106.738 104.945C107.152 105.409 106.854 106.075 106.759 106.295C106.718 106.397 106.637 106.479 106.536 106.523C106.434 106.566 106.319 106.568 106.217 106.526C106.114 106.485 106.032 106.405 105.988 106.303C105.945 106.201 105.944 106.087 105.985 105.984C106.146 105.607 106.097 105.491 106.097 105.491C105.861 105.251 104.192 105.678 103.091 105.963C101.576 106.34 99.841 106.783 98.3133 106.783Z" fill="#FF6D38"/>
<path opacity="0.5" d="M98.3133 106.783C96.7815 106.783 95.051 106.34 93.5233 105.955C92.4179 105.669 90.7495 105.243 90.5136 105.487C90.5136 105.487 90.468 105.599 90.6253 105.976C90.6511 106.026 90.6661 106.082 90.6695 106.139C90.6728 106.196 90.6644 106.253 90.6447 106.306C90.6251 106.359 90.5946 106.408 90.5553 106.449C90.5159 106.49 90.4685 106.523 90.416 106.545C90.3635 106.567 90.307 106.578 90.2501 106.577C90.1932 106.576 90.137 106.564 90.0852 106.54C90.0333 106.517 89.9869 106.483 89.9488 106.44C89.9106 106.398 89.8816 106.348 89.8636 106.295C89.7725 106.075 89.491 105.409 89.8884 104.945C90.439 104.307 91.7473 104.643 93.7303 105.152C95.2083 105.533 96.885 105.98 98.3133 105.98C99.7416 105.98 101.414 105.566 102.896 105.152C104.879 104.643 106.208 104.324 106.738 104.945C107.152 105.409 106.854 106.075 106.759 106.295C106.718 106.397 106.637 106.479 106.536 106.523C106.434 106.566 106.319 106.568 106.217 106.526C106.114 106.485 106.032 106.405 105.988 106.303C105.945 106.201 105.944 106.087 105.985 105.984C106.146 105.607 106.097 105.491 106.097 105.491C105.861 105.251 104.192 105.678 103.091 105.963C101.576 106.34 99.841 106.783 98.3133 106.783Z" fill="white"/>
<path d="M98.3129 106.369C94.5248 106.369 89.1221 103.471 90.2441 106.129C91.366 108.787 94.4545 110.161 98.3129 110.161C102.171 110.161 105.256 108.795 106.378 106.129C107.5 103.463 102.101 106.369 98.3129 106.369Z" fill="#FF6D38"/>
<path d="M76.0733 74.396C76.1064 74.5792 76.2032 74.7449 76.3465 74.8638L77.5885 75.9154C77.7064 76.0139 77.8494 76.0777 78.0014 76.0997C78.1535 76.1216 78.3087 76.1008 78.4496 76.0396L79.6916 75.4807C80.906 74.9386 81.988 74.139 82.8629 73.1374L83.1568 72.8062C83.2749 72.6707 83.3648 72.513 83.4213 72.3424C83.4777 72.1718 83.4997 71.9916 83.4858 71.8124C83.4719 71.6332 83.4225 71.4586 83.3405 71.2987C83.2584 71.1388 83.1453 70.9969 83.0078 70.8811L81.7326 69.8089C81.4887 69.6017 81.1791 69.488 80.8591 69.488C80.5391 69.488 80.2295 69.6017 79.9856 69.8089L78.4993 71.084C78.4993 71.084 75.7917 72.7193 76.0733 74.396Z" fill="#FFB573"/>
<path d="M75.2695 75.0501C75.314 74.4146 75.4536 73.7894 75.6835 73.1953C76.7351 73.0008 79.3681 75.1784 79.7159 76.0933C79.4923 76.5984 78.2255 77.6086 78.2255 77.6086C77.4182 76.7309 75.8988 75.6752 75.2695 75.0501Z" fill="#E0E0E0"/>
<path d="M64.4594 68.2397C64.8238 69.4817 65.2212 70.7237 65.6228 71.9657C66.0244 73.2077 66.4508 74.4497 66.8648 75.6917C67.2788 76.9337 67.7425 78.1178 68.2144 79.2563C68.4504 79.8276 68.6947 80.3782 68.9389 80.8667C69.0548 81.111 69.1749 81.3221 69.2743 81.5043L69.3364 81.6078L69.3653 81.6575C69.335 81.6184 69.297 81.586 69.2536 81.5623L68.9969 81.3511C68.8917 81.2938 68.7787 81.2519 68.6615 81.2269C68.5441 81.2032 68.423 81.2032 68.3055 81.2269C68.1813 81.2766 68.3966 81.2518 68.6781 81.082C69.4531 80.5723 70.1503 79.9532 70.7481 79.2439C71.4905 78.3986 72.1818 77.5096 72.8181 76.5818C73.1493 76.1099 73.4764 75.6214 73.7869 75.1287L74.2505 74.3876L74.6645 73.6673L79.9389 76.3997C79.765 76.7516 79.6243 77.0248 79.4628 77.3312L79.0364 78.2461C78.7135 78.8285 78.3767 79.4067 78.0262 79.9808C77.313 81.1604 76.5305 82.2968 75.683 83.3839C75.2261 83.9618 74.7382 84.5146 74.2216 85.0399C73.6387 85.6422 72.9981 86.1858 72.3089 86.6627C71.3931 87.3113 70.3433 87.7457 69.237 87.9337C68.4983 88.0447 67.7451 88.0138 67.018 87.8426C66.291 87.6651 65.6042 87.3519 64.9935 86.9194H64.9728C64.8941 86.8615 64.8072 86.7911 64.7327 86.7248C64.5754 86.5799 64.4222 86.4268 64.2731 86.2694C64.1241 86.1121 64.062 86.0252 63.9585 85.8968L63.8136 85.7147L63.7018 85.5615L63.4824 85.2469C63.2299 84.8618 63.0104 84.4975 62.8159 84.1539C62.4267 83.4625 62.0996 82.8043 61.7891 82.1543C61.1681 80.8543 60.6217 79.5792 60.0917 78.3041C59.5618 77.029 59.065 75.758 58.5765 74.4829C58.088 73.2077 57.6202 71.945 57.1523 70.6244L64.4594 68.2397Z" fill="#FF6D38"/>
<path opacity="0.6" d="M64.4594 68.2397C64.8238 69.4817 65.2212 70.7237 65.6228 71.9657C66.0244 73.2077 66.4508 74.4497 66.8648 75.6917C67.2788 76.9337 67.7425 78.1178 68.2144 79.2563C68.4504 79.8276 68.6947 80.3782 68.9389 80.8667C69.0548 81.111 69.1749 81.3221 69.2743 81.5043L69.3364 81.6078L69.3653 81.6575C69.335 81.6184 69.297 81.586 69.2536 81.5623L68.9969 81.3511C68.8917 81.2938 68.7787 81.2519 68.6615 81.2269C68.5441 81.2032 68.423 81.2032 68.3055 81.2269C68.1813 81.2766 68.3966 81.2518 68.6781 81.082C69.4531 80.5723 70.1503 79.9532 70.7481 79.2439C71.4905 78.3986 72.1818 77.5096 72.8181 76.5818C73.1493 76.1099 73.4764 75.6214 73.7869 75.1287L74.2505 74.3876L74.6645 73.6673L79.9389 76.3997C79.765 76.7516 79.6243 77.0248 79.4628 77.3312L79.0364 78.2461C78.7135 78.8285 78.3767 79.4067 78.0262 79.9808C77.313 81.1604 76.5305 82.2968 75.683 83.3839C75.2261 83.9618 74.7382 84.5146 74.2216 85.0399C73.6387 85.6422 72.9981 86.1858 72.3089 86.6627C71.3931 87.3113 70.3433 87.7457 69.237 87.9337C68.4983 88.0447 67.7451 88.0138 67.018 87.8426C66.291 87.6651 65.6042 87.3519 64.9935 86.9194H64.9728C64.8941 86.8615 64.8072 86.7911 64.7327 86.7248C64.5754 86.5799 64.4222 86.4268 64.2731 86.2694C64.1241 86.1121 64.062 86.0252 63.9585 85.8968L63.8136 85.7147L63.7018 85.5615L63.4824 85.2469C63.2299 84.8618 63.0104 84.4975 62.8159 84.1539C62.4267 83.4625 62.0996 82.8043 61.7891 82.1543C61.1681 80.8543 60.6217 79.5792 60.0917 78.3041C59.5618 77.029 59.065 75.758 58.5765 74.4829C58.088 73.2077 57.6202 71.945 57.1523 70.6244L64.4594 68.2397Z" fill="white"/>
<path d="M56.5701 131.801C51.6932 116.342 47.9258 97.5301 47.9258 97.5301L62.5855 96.0894C62.5855 96.0894 63.546 120.292 64.4609 131.01C65.4131 142.155 69.1391 168.038 69.1391 168.038L64.6804 168.403C64.6804 168.403 57.0214 145.637 56.5701 131.801Z" fill="#FF6D38"/>
<path opacity="0.2" d="M53.6426 110.161L51.6016 113.796C52.6448 118.04 53.8661 122.706 55.1992 127.272C55.0129 120.106 54.2636 111.826 53.6426 110.161Z" fill="black"/>
<path d="M75.105 169.074C75.105 169.074 68.7998 168.552 68.1953 167.658L64.8047 168.171L65.3677 171.744L67.4377 171.429L67.711 171.053L68.2864 171.301C69.9797 171.048 74.4592 170.307 75.4652 169.765C75.4696 169.628 75.4388 169.493 75.3757 169.372C75.3126 169.251 75.2194 169.148 75.105 169.074Z" fill="#263238"/>
<path d="M42.3148 130.77C42.5797 114.877 41.5572 104.253 42.9192 96.4082L56.3163 96.2053C56.3163 96.2053 53.0291 121.422 51.3897 131.921C49.7502 142.42 47.6637 168.353 47.6637 168.353H43.5237C43.5237 168.353 39.9219 143.062 42.3148 130.77Z" fill="#FF6D38"/>
<path d="M51.7506 170.568C51.7506 170.568 47.7762 169.115 47.2504 168.142H43.8184L44.0792 171.76H46.8778L47.18 171.425L47.7389 171.76C49.4488 171.76 51.0178 171.694 52.0694 171.309C52.0819 171.169 52.0593 171.028 52.0037 170.898C51.948 170.769 51.861 170.655 51.7506 170.568Z" fill="#263238"/>
<path d="M43.5209 64.7082C48.257 64.1203 55.0301 64.1741 59.5675 64.9566C60.7012 65.1638 61.7412 65.7216 62.5411 66.5512C63.3411 67.3808 63.8605 68.4405 64.0263 69.581C64.9826 76.4368 64.1588 88.418 63.5502 100.478C53.2002 104.026 42.2416 100.428 42.2416 100.428C41.8649 97.9979 42.7136 90.0243 43.2849 85.7684C42.4279 81.3758 40.6146 76.3416 39.414 70.5042C39.268 69.8508 39.2607 69.1741 39.3926 68.5178C39.5245 67.8614 39.7927 67.24 40.1797 66.6938C40.5668 66.1476 41.0642 65.6886 41.6397 65.3466C42.2152 65.0045 42.856 64.7871 43.5209 64.7082Z" fill="white"/>
<path d="M47.7461 55.6582L53.6001 60.0797C52.9045 61.9386 52.681 63.872 55.728 64.613C56.4898 65.619 55.1484 66.7741 53.8857 67.2999C51.853 67.0473 48.984 66.3725 47.7461 64.6668C48.1353 63.342 48.2677 58.403 47.7461 55.6582Z" fill="#FFB573"/>
<path d="M55.1735 66.182C54.9484 66.8299 54.564 67.4107 54.0557 67.8712C53.2277 67.8712 52.0312 66.9438 52.0312 66.9438C52.0312 66.9438 52.4949 65.6397 53.1491 65.3706C54.8175 65.7805 55.1735 66.182 55.1735 66.182Z" fill="#263238"/>
<path d="M53.2988 67.3786C53.4107 67.2539 53.5531 67.1604 53.7121 67.1074C53.8711 67.0544 54.0411 67.0437 54.2055 67.0764C55.286 69.0967 56.9793 81.5374 57.6417 85.1558C57.356 87.35 56.9296 88.1035 56.3583 90.6123C55.8366 88.6707 55.0914 87.5197 54.2634 85.3545C54.4994 82.767 53.6383 70.7031 53.2988 67.3786Z" fill="#263238"/>
<path opacity="0.2" d="M53.606 60.0799L53.5563 60.0426L50.2857 57.5586C49.9586 57.5586 49.3294 57.5379 49.5985 59.8315C49.7641 61.2929 51.979 62.8702 53.4362 63.1642C52.9601 62.2865 53.192 61.1852 53.5977 60.1047L53.606 60.0799Z" fill="black"/>
<path d="M57.5461 50.2803C58.7219 52.1102 57.898 54.9295 56.9955 55.832C55.3519 52.7933 55.7452 49.4481 57.5461 50.2803Z" fill="#263238"/>
<path d="M48.2192 52.164C48.1281 55.5795 47.9004 57.5792 49.4612 59.4587C51.821 62.2905 56.1639 61.065 57.2775 57.7323C58.2794 54.735 58.2587 49.6469 55.0378 48.0323C54.3257 47.676 53.5349 47.5061 52.7393 47.5383C51.9437 47.5705 51.1693 47.8038 50.4883 48.2164C49.8073 48.6291 49.242 49.2076 48.8452 49.8979C48.4484 50.5883 48.233 51.3679 48.2192 52.164Z" fill="#FFB573"/>
<path d="M49.0641 54.8551C50.7532 54.6977 51.2376 51.7666 50.2274 49.4151C52.3513 48.8728 54.4088 49.7629 55.8289 50.2886C57.2489 50.8144 59.3561 50.8931 59.3561 49.1336C58.6275 49.5476 57.1992 48.8935 57.0502 48.1648C58.5902 48.3635 58.7476 45.9541 57.8782 45.5649C57.8782 46.8069 53.7671 46.0327 51.6061 45.2627C47.5157 43.8013 45.1477 46.1611 46.3938 48.3263C43.1894 49.8995 45.1518 52.9631 47.6938 55.3643C48.1272 55.1374 48.5877 54.9663 49.0641 54.8551Z" fill="#263238"/>
<path d="M50.0935 53.4434C49.8327 55.7493 56.4277 56.9582 57.5455 56.863C57.8933 58.8626 59.2636 60.175 57.8809 61.417C56.4981 62.659 51.5798 62.9778 49.841 60.4524C48.1022 57.927 49.4477 53.6214 49.4477 53.6214L50.0935 53.4434Z" fill="#263238"/>
<path d="M54.8769 57.6744C55.0533 57.6885 55.2305 57.6885 55.4068 57.6744C55.4209 57.6724 55.4344 57.6672 55.4461 57.6592C55.4578 57.6511 55.4675 57.6404 55.4744 57.6279C55.4812 57.6154 55.485 57.6015 55.4855 57.5873C55.486 57.5731 55.4832 57.559 55.4772 57.546C55.4722 57.5211 55.4578 57.4991 55.437 57.4844C55.4162 57.4698 55.3906 57.4637 55.3654 57.4674C54.9679 57.5178 54.564 57.4786 54.1836 57.3525C53.8032 57.2264 53.4558 57.0167 53.1671 56.7387C53.1493 56.7215 53.1256 56.7119 53.1009 56.7119C53.0761 56.7119 53.0524 56.7215 53.0346 56.7387C53.0174 56.7565 53.0078 56.7802 53.0078 56.805C53.0078 56.8297 53.0174 56.8534 53.0346 56.8712C53.5305 57.3542 54.1855 57.6398 54.8769 57.6744Z" fill="#FFB573"/>
<path d="M47.3943 48.2726C45.8335 48.5293 45.3242 46.9809 45.908 45.7886C43.7138 46.7822 45.4443 49.4152 47.3943 48.2726Z" fill="#263238"/>
<path d="M46.6413 54.5486C46.7355 54.9255 46.9037 55.2799 47.1361 55.5912C47.3685 55.9025 47.6605 56.1645 47.9951 56.3619C48.8976 56.8877 49.6138 56.1467 49.5931 55.1613C49.5683 54.2754 49.0756 52.934 48.0613 52.814C47.8402 52.7908 47.6169 52.8229 47.4113 52.9075C47.2057 52.992 47.0243 53.1263 46.8835 53.2983C46.7427 53.4703 46.6468 53.6747 46.6046 53.8929C46.5623 54.1111 46.5749 54.3365 46.6413 54.5486Z" fill="#FFB573"/>
<path d="M53.5265 53.195C53.5017 53.4724 53.63 53.7084 53.8122 53.7208C53.9943 53.7332 54.1599 53.5221 54.1848 53.2488C54.2096 52.9756 54.0813 52.7355 53.8991 52.7189C53.717 52.7024 53.5514 52.9176 53.5265 53.195Z" fill="#263238"/>
<path d="M56.8058 53.6793C56.781 53.9566 56.9093 54.1926 57.0915 54.205C57.2736 54.2174 57.4392 54.0063 57.4641 53.7289C57.4889 53.4516 57.3606 53.2156 57.1784 53.2031C56.9962 53.1907 56.8307 53.406 56.8058 53.6793Z" fill="#263238"/>
<path d="M55.89 53.8987C56.1442 54.775 56.5205 55.6112 57.0078 56.3827C56.8068 56.5031 56.582 56.5784 56.3489 56.6034C56.1159 56.6284 55.8802 56.6026 55.6582 56.5276L55.89 53.8987Z" fill="#ED893E"/>
<path d="M52.2217 52.1267C52.1936 52.1262 52.1663 52.1176 52.143 52.1019C52.1069 52.0788 52.081 52.0426 52.071 52.0009C52.061 51.9592 52.0675 51.9153 52.0892 51.8783C52.219 51.6501 52.4012 51.456 52.6207 51.312C52.8403 51.168 53.0909 51.0783 53.3519 51.0503C53.3908 51.0565 53.4262 51.0764 53.4518 51.1064C53.4774 51.1363 53.4914 51.1744 53.4914 51.2138C53.4914 51.2532 53.4774 51.2913 53.4518 51.3213C53.4262 51.3513 53.3908 51.3711 53.3519 51.3774C53.1468 51.3997 52.9498 51.4702 52.7771 51.5831C52.6045 51.6961 52.4609 51.8483 52.3583 52.0273C52.3478 52.0555 52.3292 52.0799 52.3049 52.0975C52.2807 52.1152 52.2517 52.1254 52.2217 52.1267Z" fill="#263238"/>
<path d="M57.9596 52.665C57.9327 52.6656 57.9062 52.6594 57.8823 52.6471C57.8585 52.6348 57.8381 52.6168 57.8229 52.5946C57.7145 52.4209 57.5647 52.2767 57.387 52.1749C57.2093 52.073 57.0092 52.0167 56.8045 52.0109C56.7829 52.0115 56.7615 52.0077 56.7414 51.9998C56.7214 51.992 56.7031 51.9801 56.6876 51.9651C56.6722 51.9501 56.6599 51.9321 56.6516 51.9122C56.6432 51.8923 56.6389 51.871 56.6389 51.8494C56.6378 51.8281 56.641 51.8067 56.6484 51.7867C56.6558 51.7666 56.6672 51.7483 56.6819 51.7328C56.6967 51.7173 56.7144 51.705 56.734 51.6966C56.7537 51.6881 56.7748 51.6838 56.7962 51.6838C57.0546 51.6911 57.3075 51.7608 57.5331 51.8869C57.7587 52.0131 57.9505 52.192 58.092 52.4083C58.1046 52.4259 58.1134 52.4458 58.1181 52.4669C58.1228 52.4879 58.1233 52.5097 58.1194 52.5309C58.1155 52.5522 58.1075 52.5724 58.0957 52.5904C58.0838 52.6085 58.0685 52.624 58.0506 52.636C58.0243 52.6554 57.9923 52.6656 57.9596 52.665Z" fill="#263238"/>
<path d="M47.8708 63.7561C47.8708 63.7561 46.2148 64.2032 46.2148 64.2074C46.2148 64.6214 46.6744 65.408 47.8336 66.4223C48.9183 67.3662 51.2656 68.9973 52.3131 68.9973C52.1847 67.7553 52.5656 65.9751 53.1411 65.3707C51.779 65.4411 49.1915 64.6503 47.8708 63.7561Z" fill="#E0E0E0"/>
<path d="M53.1504 65.3707C54.3137 65.8261 55.5971 67.5525 55.9532 68.7282C56.5659 68.4012 57.22 66.0455 56.8598 64.5261C56.2933 64.2189 55.6441 64.0986 55.0051 64.1825C54.9264 64.6876 54.5621 65.2962 53.1504 65.3707Z" fill="#E0E0E0"/>
<path d="M47.9135 168.473L43.3181 168.602L42.8379 165.993L48.2199 166.316L47.9135 168.473Z" fill="#FF6D38"/>
<path opacity="0.2" d="M47.9135 168.473L43.3181 168.602L42.8379 165.993L48.2199 166.316L47.9135 168.473Z" fill="black"/>
<path d="M69.3462 168.005L64.4278 168.767L63.5957 166.594L69.0481 165.36L69.3462 168.005Z" fill="#FF6D38"/>
<path opacity="0.2" d="M69.3462 168.005L64.4278 168.767L63.5957 166.594L69.0481 165.36L69.3462 168.005Z" fill="black"/>
<path d="M45.3825 63.7561C49.5225 69.3037 51.2323 101.674 48.9057 129.582C42.8364 130.638 36.7051 121.981 36.7051 121.981C36.7051 121.981 40.7333 93.9119 39.6776 84.9405C38.6219 75.9691 37.4461 70.7237 37.7359 68.0576C38.0257 65.3914 42.3852 64.2032 45.3825 63.7561Z" fill="#FF6D38"/>
<path opacity="0.7" d="M45.3825 63.7561C49.5225 69.3037 51.2323 101.674 48.9057 129.582C42.8364 130.638 36.7051 121.981 36.7051 121.981C36.7051 121.981 40.7333 93.9119 39.6776 84.9405C38.6219 75.9691 37.4461 70.7237 37.7359 68.0576C38.0257 65.3914 42.3852 64.2032 45.3825 63.7561Z" fill="white"/>
<path d="M56.9629 64.17C59.6953 73.8121 63.0818 107.702 61.844 127.98C64.1458 126.084 66.783 121.724 66.725 120.147C66.6712 118.677 65.6693 92.2765 65.2884 88.3435C65.069 81.9431 65.2305 72.2306 64.4604 68.4922C63.6904 64.7538 59.7905 63.9216 56.9629 64.17Z" fill="#FF6D38"/>
<path opacity="0.7" d="M56.9629 64.17C59.6953 73.8121 63.0818 107.702 61.844 127.98C64.1458 126.084 66.783 121.724 66.725 120.147C66.6712 118.677 65.6693 92.2765 65.2884 88.3435C65.069 81.9431 65.2305 72.2306 64.4604 68.4922C63.6904 64.7538 59.7905 63.9216 56.9629 64.17Z" fill="white"/>
<path d="M55.2113 95.6341L43.4703 95.3939C43.3613 95.3942 43.2536 95.3699 43.1554 95.3227C43.0571 95.2756 42.9707 95.2069 42.9026 95.1217C42.8346 95.0366 42.7866 94.9372 42.7624 94.8309C42.7381 94.7246 42.7381 94.6143 42.7624 94.508L45.8508 77.8983C45.9047 77.6646 46.0357 77.4558 46.2227 77.3056C46.4097 77.1554 46.6418 77.0725 46.8817 77.0703L58.6186 77.3229C58.7276 77.3226 58.8352 77.347 58.9335 77.3941C59.0318 77.4412 59.1182 77.5099 59.1862 77.5951C59.2543 77.6802 59.3022 77.7796 59.3265 77.8859C59.3508 77.9922 59.3508 78.1026 59.3265 78.2088L56.2422 94.8061C56.187 95.0391 56.0556 95.247 55.8689 95.397C55.6822 95.547 55.4508 95.6304 55.2113 95.6341Z" fill="#FF6D38"/>
<path d="M51.4943 88.0536C51.4045 87.8894 51.3766 87.6984 51.4156 87.5154L51.722 85.9257C51.7528 85.7752 51.8249 85.6362 51.9302 85.5244C52.0355 85.4125 52.1698 85.3321 52.3181 85.2922L53.6429 84.9528C54.9304 84.6181 56.2752 84.5672 57.5842 84.8037L57.9982 84.8824C58.1753 84.9141 58.3444 84.9809 58.4953 85.0789C58.6462 85.1769 58.7761 85.304 58.8771 85.4529C58.9782 85.6018 59.0485 85.7694 59.0838 85.9459C59.1191 86.1223 59.1188 86.3041 59.0829 86.4804L58.7558 88.1116C58.6923 88.4259 58.5193 88.7074 58.2675 88.906C58.0158 89.1047 57.7018 89.2075 57.3813 89.1963L55.4273 89.1259C55.4273 89.1259 52.3181 89.5399 51.4943 88.0536Z" fill="#FFB573"/>
<path d="M51.7504 84.8327C52.3439 84.601 52.9694 84.4614 53.6051 84.4187C54.2178 85.2922 53.3319 88.5918 52.6322 89.2998C52.0816 89.2998 50.6367 88.5711 50.6367 88.5711C51.1294 87.4699 51.4606 85.6648 51.7504 84.8327Z" fill="#E0E0E0"/>
<path d="M44.8076 70.3054C44.3439 71.4936 43.8802 72.7439 43.4331 73.9693C42.986 75.1948 42.5554 76.4533 42.1456 77.6581C41.7357 78.8628 41.3507 80.1131 41.0236 81.3054C40.8622 81.8974 40.7131 82.4853 40.6096 83.0152C40.5558 83.2843 40.5144 83.5245 40.4854 83.7273V83.8474V83.9053V83.926C40.4822 83.8767 40.4724 83.8279 40.4565 83.7811L40.3778 83.4582C40.351 83.3814 40.3088 83.3109 40.2536 83.2512C40.2122 83.214 40.2081 83.2512 40.2536 83.2843C40.5153 83.4816 40.8096 83.6315 41.123 83.7273C42.1774 84.0527 43.2672 84.2501 44.3688 84.3152C45.6238 84.4062 46.8828 84.4283 48.1403 84.3814C48.782 84.3814 49.4278 84.3235 50.0737 84.2738L51.0383 84.191L51.9574 84.0958L52.9054 89.958C52.4914 90.0325 52.1561 90.0864 51.7835 90.1402L50.703 90.2934C49.9826 90.3886 49.2581 90.4714 48.5295 90.5376C47.0447 90.6762 45.5534 90.7329 44.0624 90.7074C42.4164 90.6938 40.7783 90.4769 39.1855 90.0615C38.17 89.7909 37.2062 89.3545 36.333 88.7698C35.7754 88.3853 35.2774 87.9208 34.855 87.3912C34.3781 86.7872 34.0187 86.0991 33.7952 85.3626V85.3378C33.7659 85.2385 33.7424 85.1376 33.7248 85.0355C33.6917 84.8244 33.6627 84.6216 33.642 84.3939C33.6213 84.1662 33.642 84.0709 33.642 83.9053V83.4913L33.6627 83.1105C33.7 82.6509 33.7497 82.2286 33.8076 81.8395C33.9277 81.0529 34.0684 80.3325 34.2216 79.6287C34.528 78.2211 34.8799 76.8798 35.2442 75.5467C35.6085 74.2136 35.9977 72.9054 36.3951 71.6013C36.7926 70.2972 37.1983 69.0096 37.6371 67.6848L44.8076 70.3054Z" fill="#FF6D38"/>
<path opacity="0.7" d="M44.8076 70.3054C44.3439 71.4936 43.8802 72.7439 43.4331 73.9693C42.986 75.1948 42.5554 76.4533 42.1456 77.6581C41.7357 78.8628 41.3507 80.1131 41.0236 81.3054C40.8622 81.8974 40.7131 82.4853 40.6096 83.0152C40.5558 83.2843 40.5144 83.5245 40.4854 83.7273V83.8474V83.9053V83.926C40.4822 83.8767 40.4724 83.8279 40.4565 83.7811L40.3778 83.4582C40.351 83.3814 40.3088 83.3109 40.2536 83.2512C40.2122 83.214 40.2081 83.2512 40.2536 83.2843C40.5153 83.4816 40.8096 83.6315 41.123 83.7273C42.1774 84.0527 43.2672 84.2501 44.3688 84.3152C45.6238 84.4062 46.8828 84.4283 48.1403 84.3814C48.782 84.3814 49.4278 84.3235 50.0737 84.2738L51.0383 84.191L51.9574 84.0958L52.9054 89.958C52.4914 90.0325 52.1561 90.0864 51.7835 90.1402L50.703 90.2934C49.9826 90.3886 49.2581 90.4714 48.5295 90.5376C47.0447 90.6762 45.5534 90.7329 44.0624 90.7074C42.4164 90.6938 40.7783 90.4769 39.1855 90.0615C38.17 89.7909 37.2062 89.3545 36.333 88.7698C35.7754 88.3853 35.2774 87.9208 34.855 87.3912C34.3781 86.7872 34.0187 86.0991 33.7952 85.3626V85.3378C33.7659 85.2385 33.7424 85.1376 33.7248 85.0355C33.6917 84.8244 33.6627 84.6216 33.642 84.3939C33.6213 84.1662 33.642 84.0709 33.642 83.9053V83.4913L33.6627 83.1105C33.7 82.6509 33.7497 82.2286 33.8076 81.8395C33.9277 81.0529 34.0684 80.3325 34.2216 79.6287C34.528 78.2211 34.8799 76.8798 35.2442 75.5467C35.6085 74.2136 35.9977 72.9054 36.3951 71.6013C36.7926 70.2972 37.1983 69.0096 37.6371 67.6848L44.8076 70.3054Z" fill="white"/>
<path d="M133.87 163.919C127.397 167.404 120.161 169.227 112.81 169.227H111.365C110.954 169.227 110.56 169.39 110.27 169.68C109.98 169.971 109.816 170.364 109.816 170.775C109.816 171.186 109.98 171.58 110.27 171.87C110.56 172.16 110.954 172.323 111.365 172.323H157.811C158.106 172.323 158.397 172.266 158.669 172.153C158.94 172.04 159.187 171.875 159.395 171.667C159.603 171.459 159.768 171.213 159.881 170.941C159.993 170.669 160.051 170.378 160.051 170.084V165.894C160.051 165.6 159.993 165.309 159.881 165.037C159.768 164.765 159.603 164.518 159.395 164.31C159.187 164.102 158.94 163.937 158.669 163.825C158.397 163.712 158.106 163.654 157.811 163.654H134.934C134.563 163.654 134.197 163.745 133.87 163.919Z" fill="#263238"/>
<path d="M150.695 165.894H141.235C140.643 165.894 140.065 165.718 139.573 165.389C139.081 165.061 138.697 164.594 138.469 164.048L133.402 151.847C133.215 151.392 133.142 150.898 133.19 150.408C133.239 149.919 133.407 149.449 133.681 149.039C133.954 148.63 134.324 148.295 134.758 148.062C135.191 147.83 135.676 147.708 136.168 147.707H145.619C146.212 147.707 146.791 147.883 147.284 148.211C147.776 148.54 148.161 149.007 148.389 149.553L153.452 161.758C153.64 162.212 153.713 162.705 153.664 163.194C153.616 163.683 153.449 164.152 153.176 164.561C152.904 164.97 152.535 165.305 152.102 165.538C151.669 165.77 151.186 165.893 150.695 165.894Z" fill="#E0E0E0"/>
<path opacity="0.2" d="M149.523 165.48H141.173C140.801 165.481 140.437 165.371 140.127 165.165C139.818 164.959 139.576 164.665 139.434 164.321L134.003 151.238C133.884 150.952 133.838 150.641 133.868 150.333C133.899 150.025 134.005 149.729 134.177 149.472C134.348 149.214 134.581 149.003 134.854 148.857C135.127 148.711 135.432 148.635 135.741 148.634H144.075C144.448 148.634 144.812 148.745 145.121 148.952C145.431 149.159 145.672 149.453 145.814 149.798L151.246 162.876C151.364 163.161 151.41 163.47 151.38 163.777C151.351 164.084 151.246 164.378 151.076 164.635C150.906 164.893 150.676 165.104 150.405 165.251C150.134 165.398 149.832 165.477 149.523 165.48Z" fill="black"/>
<path d="M148.145 141.104H131.684C130.074 141.104 128.77 142.409 128.77 144.018V146.374C128.77 147.984 130.074 149.289 131.684 149.289H148.145C149.754 149.289 151.059 147.984 151.059 146.374V144.018C151.059 142.409 149.754 141.104 148.145 141.104Z" fill="#263238"/>
<path d="M127.221 122.254H158.954V136.272C158.955 137.188 158.775 138.095 158.426 138.941C158.076 139.787 157.563 140.556 156.916 141.203C156.269 141.851 155.5 142.364 154.654 142.715C153.808 143.065 152.902 143.245 151.986 143.244H127.221V122.254Z" fill="#E0E0E0"/>
<path opacity="0.2" d="M127.871 125.173H153.179V136.351C153.179 137.825 152.594 139.238 151.552 140.28C150.51 141.322 149.097 141.907 147.623 141.907H127.871V125.173Z" fill="black"/>
<path opacity="0.6" d="M130.894 172.017H111.573C111.251 172.012 110.943 171.881 110.715 171.653C110.487 171.426 110.357 171.118 110.352 170.796C110.357 170.474 110.487 170.166 110.715 169.938C110.943 169.71 111.251 169.58 111.573 169.574H130.894C131.216 169.58 131.524 169.71 131.752 169.938C131.98 170.166 132.11 170.474 132.116 170.796C132.11 171.118 131.98 171.426 131.752 171.653C131.524 171.881 131.216 172.012 130.894 172.017Z" fill="black"/>
<path d="M105.677 124.614C105.678 124.784 105.628 124.95 105.534 125.091C105.441 125.233 105.307 125.343 105.151 125.409C104.994 125.474 104.822 125.492 104.655 125.459C104.489 125.427 104.336 125.345 104.215 125.226C104.095 125.106 104.013 124.953 103.98 124.787C103.946 124.621 103.963 124.448 104.028 124.291C104.092 124.134 104.202 124 104.343 123.906C104.484 123.812 104.65 123.761 104.82 123.761C104.932 123.761 105.044 123.782 105.148 123.825C105.251 123.868 105.346 123.93 105.426 124.01C105.505 124.089 105.568 124.183 105.612 124.287C105.655 124.39 105.677 124.502 105.677 124.614Z" fill="#263238"/>
<path d="M116.598 151.06C117.577 151.06 118.37 150.267 118.37 149.289C118.37 148.31 117.577 147.517 116.598 147.517C115.619 147.517 114.826 148.31 114.826 149.289C114.826 150.267 115.619 151.06 116.598 151.06Z" fill="#263238"/>
<path d="M120.023 161.257C119.937 161.278 119.846 161.265 119.769 161.221C119.692 161.178 119.635 161.106 119.609 161.021L109.234 124.734C109.214 124.648 109.226 124.557 109.27 124.48C109.314 124.404 109.386 124.346 109.47 124.32C109.556 124.299 109.647 124.312 109.724 124.356C109.801 124.4 109.858 124.472 109.884 124.556L120.263 160.843C120.285 160.93 120.272 161.022 120.227 161.099C120.182 161.176 120.109 161.233 120.023 161.257Z" fill="#E0E0E0"/>
<path d="M104.68 124.614C104.681 124.522 104.718 124.434 104.783 124.369C104.848 124.304 104.936 124.267 105.027 124.266H109.548C109.64 124.267 109.728 124.304 109.793 124.369C109.858 124.434 109.895 124.522 109.896 124.614C109.896 124.707 109.86 124.796 109.794 124.861C109.729 124.927 109.641 124.965 109.548 124.966H105.027C104.935 124.965 104.846 124.927 104.781 124.861C104.716 124.796 104.68 124.707 104.68 124.614Z" fill="#E0E0E0"/>
<path d="M104.803 127.264H104.845C105.025 127.264 105.172 127.117 105.172 126.937V123.024C105.172 122.844 105.025 122.697 104.845 122.697H104.803C104.623 122.697 104.476 122.844 104.476 123.024V126.937C104.476 127.117 104.623 127.264 104.803 127.264Z" fill="#E0E0E0"/>
<path d="M97.5176 124.382C97.1227 124.237 96.7568 124.022 96.4371 123.749C96.325 123.646 96.2436 123.513 96.2018 123.367C96.1599 123.221 96.1593 123.065 96.2 122.919C96.2406 122.772 96.321 122.639 96.4322 122.535C96.5434 122.431 96.6812 122.36 96.8304 122.329C99.3144 121.795 104.576 120.59 106.791 119.745C106.071 121.704 101.467 124.167 99.9685 124.461C99.1588 124.65 98.3135 124.623 97.5176 124.382Z" fill="black"/>
<path d="M97.5176 124.382C99.2854 124.879 101.024 123.418 101.049 121.406C101.053 121.181 101.124 120.962 101.252 120.777C101.38 120.592 101.56 120.45 101.769 120.366C103.57 119.642 107.42 118.537 109.288 118.015C109.427 117.976 109.573 117.969 109.715 117.995C109.857 118.021 109.992 118.079 110.108 118.165C110.224 118.251 110.319 118.362 110.386 118.491C110.452 118.619 110.489 118.761 110.492 118.905C110.513 120.147 110.161 121.952 108.008 122.552C100.95 124.523 99.1032 124.987 97.5176 124.382Z" fill="#263238"/>
<path d="M189.834 102.726L189.42 102.664C189.487 102.148 189.444 101.624 189.292 101.126C189.141 100.628 188.886 100.168 188.543 99.7765C188.201 99.3849 187.779 99.0707 187.305 98.8548C186.832 98.6388 186.318 98.526 185.798 98.5239H178.76V98.1099H185.798C186.379 98.1122 186.954 98.2388 187.483 98.481C188.012 98.7233 188.483 99.0757 188.865 99.5146C189.246 99.9536 189.53 100.469 189.696 101.026C189.863 101.584 189.909 102.17 189.83 102.747L189.834 102.726Z" fill="#FF6D38"/>
<path d="M187.319 106.291L187.033 105.988L188.569 104.535L188.88 104.804L188.842 104.85L187.319 106.291Z" fill="#FF6D38"/>
<path d="M142.651 131.834H111.551C108.6 131.834 107.867 127.732 110.636 126.709L122.46 122.345C128.317 120.184 133.747 117.005 138.499 112.956L152.032 101.43C153.513 100.169 155.395 99.4768 157.34 99.4761H185.802C186.316 99.4757 186.818 99.6229 187.25 99.9001C187.682 100.177 188.026 100.573 188.239 101.039C188.453 101.506 188.528 102.024 188.456 102.533C188.383 103.041 188.166 103.517 187.831 103.906L176.4 114.67C172.965 117.597 169.201 120.116 165.185 122.176L150.885 129.512C147.354 131.325 146.625 131.834 142.651 131.834Z" fill="#FF6D38"/>
<path opacity="0.2" d="M170.903 117.804C170.866 117.804 170.829 117.795 170.797 117.776C170.764 117.757 170.738 117.729 170.721 117.696L170.307 116.922C169.9 116.187 169.303 115.575 168.58 115.148C167.856 114.722 167.032 114.496 166.192 114.496H138.342C138.287 114.496 138.234 114.474 138.195 114.435C138.157 114.397 138.135 114.344 138.135 114.289C138.135 114.234 138.157 114.181 138.195 114.143C138.234 114.104 138.287 114.082 138.342 114.082H166.179C167.093 114.081 167.991 114.326 168.778 114.791C169.565 115.255 170.213 115.923 170.654 116.723L171.068 117.498C171.094 117.546 171.099 117.603 171.084 117.655C171.069 117.708 171.033 117.752 170.986 117.779C170.96 117.793 170.932 117.801 170.903 117.804Z" fill="black"/>
<path opacity="0.2" d="M141.017 127.152H111.449C108.841 127.98 109.532 131.387 112.31 131.387H141.017C142.52 131.387 143.654 130.195 143.389 128.903C143.254 128.384 142.945 127.926 142.513 127.608C142.081 127.289 141.553 127.128 141.017 127.152Z" fill="black"/>
<path d="M121.542 150.58H92.6409C91.9456 150.58 91.2666 150.37 90.6938 149.976C90.121 149.581 89.6814 149.023 89.4332 148.373C89.185 147.724 89.1399 147.014 89.3039 146.339C89.4679 145.663 89.8332 145.053 90.3515 144.589L105.036 131.453C106.605 130.047 108.638 129.27 110.745 129.271H139.646C140.342 129.271 141.021 129.482 141.594 129.876C142.166 130.27 142.606 130.829 142.854 131.478C143.102 132.128 143.148 132.837 142.984 133.513C142.82 134.189 142.454 134.799 141.936 135.262L127.251 148.398C125.682 149.805 123.649 150.582 121.542 150.58Z" fill="#FF6D38"/>
<path opacity="0.2" d="M118.858 150.071H92.3625C91.734 150.069 91.1319 149.818 90.6875 149.374C90.2431 148.929 89.9924 148.327 89.9902 147.699C89.9924 147.07 90.2431 146.468 90.6875 146.024C91.1319 145.579 91.734 145.329 92.3625 145.326H118.858C119.488 145.328 120.091 145.578 120.536 146.022C120.981 146.467 121.233 147.069 121.235 147.699C121.233 148.328 120.981 148.931 120.536 149.375C120.091 149.82 119.488 150.07 118.858 150.071Z" fill="black"/>
<path d="M143.413 80.9248L142.15 81.8604C142.54 85.9342 146.597 87.3252 147.694 84.5349C148.625 82.2082 146.22 80.9662 143.413 80.9248Z" fill="#263238"/>
<path d="M144.568 80.962C144.477 82.1626 143.819 83.7606 141.828 83.1231C141.759 83.1 141.698 83.0604 141.648 83.0079C141.599 82.9554 141.563 82.8915 141.545 82.822C141.526 82.7524 141.524 82.6793 141.54 82.609C141.557 82.5388 141.59 82.4736 141.637 82.4193C142.285 81.6806 143.047 81.0503 143.893 80.5521C143.963 80.5091 144.043 80.4862 144.125 80.4858C144.206 80.4855 144.287 80.5078 144.356 80.5502C144.426 80.5926 144.483 80.6535 144.52 80.7262C144.558 80.7989 144.574 80.8805 144.568 80.962Z" fill="#FF6D38"/>
<path d="M133.618 69.4734C133.838 67.8174 139.965 66.6624 142.726 71.8457C144.25 74.694 144.337 77.799 144.175 79.7696C144.125 80.3855 143.898 80.9738 143.522 81.4642C143.146 81.9547 142.637 82.3265 142.056 82.5351C139.874 83.33 136.26 84.3154 134.434 83.0361C130.791 80.5066 133.618 69.4734 133.618 69.4734Z" fill="#263238"/>
<path d="M133.618 69.4734C127.545 73.8701 128.116 79.9434 131.813 81.6201C136.773 78.7677 133.618 69.4734 133.618 69.4734Z" fill="#263238"/>
<path d="M111.564 97.7415L110.62 95.2202L107.664 98.4453C107.664 98.4453 109.349 100.168 111.109 100.461L111.365 100.047C111.569 99.7026 111.693 99.3163 111.727 98.9171C111.762 98.5179 111.706 98.1161 111.564 97.7415Z" fill="#7F3E3B"/>
<path d="M107.706 95.2864L106.912 96.4456C106.744 96.687 106.673 96.983 106.715 97.2741C106.756 97.5652 106.906 97.8298 107.135 98.0147L107.665 98.4494L110.621 95.2202L108.965 94.8062C108.731 94.7482 108.485 94.7632 108.26 94.849C108.035 94.9349 107.842 95.0875 107.706 95.2864Z" fill="#7F3E3B"/>
<path d="M130.769 92.6036C130.653 92.9307 130.558 93.175 130.45 93.4316C130.342 93.6883 130.231 93.9616 130.115 94.2182C129.887 94.7399 129.647 95.2491 129.394 95.7542C128.893 96.7687 128.341 97.7567 127.738 98.7143C127.127 99.6792 126.462 100.609 125.747 101.501C125.022 102.408 124.233 103.263 123.387 104.059L122.729 104.647L122.567 104.792L122.526 104.829L122.451 104.891L122.228 105.065C121.939 105.26 121.622 105.41 121.288 105.512C120.787 105.657 120.262 105.7 119.744 105.641C119.359 105.602 118.979 105.525 118.61 105.413C117.438 105.033 116.324 104.495 115.298 103.815C113.434 102.612 111.7 101.221 110.123 99.6623C109.924 99.4675 109.803 99.2073 109.783 98.93C109.762 98.6527 109.842 98.3773 110.009 98.1551C110.176 97.9328 110.419 97.7788 110.691 97.7217C110.963 97.6647 111.246 97.7084 111.489 97.8449H111.526C113.323 98.8633 115.178 99.89 116.987 100.706C117.806 101.095 118.667 101.391 119.554 101.587C119.698 101.614 119.845 101.625 119.992 101.621C120.1 101.621 120.125 101.579 120.03 101.621C119.948 101.636 119.871 101.669 119.802 101.716C119.777 101.73 119.753 101.746 119.732 101.765L119.76 101.732L119.885 101.604L120.382 101.087C121.688 99.632 122.838 98.0446 123.814 96.3503C124.323 95.4975 124.778 94.6115 125.229 93.7214C125.453 93.2743 125.668 92.8231 125.867 92.3718L126.161 91.6928L126.426 91.0553L126.467 90.9559C126.687 90.3872 127.123 89.9289 127.681 89.682C128.238 89.4351 128.871 89.4198 129.44 89.6394C130.009 89.859 130.467 90.2955 130.714 90.853C130.961 91.4105 130.976 92.0432 130.756 92.6119L130.769 92.6036Z" fill="#7F3E3B"/>
<path d="M128.837 88.4844C124.912 90.8028 124.486 94.9759 122.701 96.6153C124.622 101.169 127.81 101.202 127.81 101.202C127.81 101.202 133.192 85.9176 128.837 88.4844Z" fill="#FF6D38"/>
<path opacity="0.3" d="M128.837 88.4844C124.912 90.8028 124.486 94.9759 122.701 96.6153C124.622 101.169 127.81 101.202 127.81 101.202C127.81 101.202 133.192 85.9176 128.837 88.4844Z" fill="white"/>
<path d="M144.197 108.642C144.693 103.231 144.865 97.7951 144.71 92.3635C144.615 90.1196 143.621 88.0538 141.398 87.8095C140.802 87.7516 140.156 87.7019 139.523 87.6688C137.262 87.5092 134.993 87.5092 132.733 87.6688C131.996 87.7391 131.238 87.8302 130.518 87.9337C129.255 88.1106 128.104 88.7513 127.288 89.731C126.472 90.7107 126.05 91.9591 126.105 93.2329C126.171 94.7026 123.849 98.1057 126.713 100.076C126.958 102.2 126.635 105.827 126.738 109.52C124.801 112.852 118.317 115.419 117.754 118.653C116.96 123.24 121.915 124.966 126.626 125.277C141.058 126.295 148.279 124.308 144.197 108.642Z" fill="#FF6D38"/>
<path opacity="0.4" d="M144.197 108.642C144.693 103.231 144.865 97.7951 144.71 92.3635C144.615 90.1196 143.621 88.0538 141.398 87.8095C140.802 87.7516 140.156 87.7019 139.523 87.6688C137.262 87.5092 134.993 87.5092 132.733 87.6688C131.996 87.7391 131.238 87.8302 130.518 87.9337C129.255 88.1106 128.104 88.7513 127.288 89.731C126.472 90.7107 126.05 91.9591 126.105 93.2329C126.171 94.7026 123.849 98.1057 126.713 100.076C126.958 102.2 126.635 105.827 126.738 109.52C124.801 112.852 118.317 115.419 117.754 118.653C116.96 123.24 121.915 124.966 126.626 125.277C141.058 126.295 148.279 124.308 144.197 108.642Z" fill="white"/>
<path opacity="0.6" d="M129.214 116.425C127.479 116.802 123.066 115.444 120.487 115.982C119.864 116.098 119.285 116.383 118.813 116.805C118.341 117.226 117.993 117.77 117.808 118.375C117.78 118.472 117.758 118.57 117.742 118.669C116.943 123.256 121.882 124.983 126.61 125.293C130.75 125.575 134.132 125.707 136.836 125.372C137.506 125.297 138.133 125.005 138.623 124.541C139.112 124.077 139.437 123.466 139.547 122.801C140.081 119.232 134.161 115.353 129.214 116.425Z" fill="#FF6D38"/>
<path opacity="0.3" d="M132.418 101.335C134.488 103.306 138.537 106.833 139.924 107.396C136.835 106.961 133.407 102.958 132.418 101.335Z" fill="#FF6D38"/>
<path opacity="0.3" d="M128.969 97.6338C131.117 101.339 134.649 106.837 136.081 108.278C132.33 105.661 129.358 99.563 128.969 97.6338Z" fill="#FF6D38"/>
<path d="M128.219 119.033C125.992 115.783 120.941 115.651 119.31 117.187C116.59 119.737 111.37 124.299 108.273 127.852C104.394 132.302 99.2311 146.117 97.4344 150.804C96.6602 152.932 93.1039 155.076 89.7919 154.687C88.3181 154.513 89.3241 156.343 90.3757 156.604C93.0087 157.299 92.8597 156.368 94.3832 156.678C95.6666 156.943 95.5755 157.27 97.099 157.639C97.956 157.846 98.4363 157.001 98.6019 155.983C98.7675 154.964 99.1442 154.215 101.309 150.932C105.638 145.506 109.447 139.684 112.686 133.544C121.637 129.073 123.45 127.661 126.712 124.763C128.402 123.248 129.635 121.095 128.219 119.033Z" fill="#7F3E3B"/>
<path opacity="0.2" d="M128.22 119.033C127.982 118.687 127.713 118.363 127.417 118.065C126.48 118.474 125.615 119.033 124.858 119.721C122.113 122.246 116.963 126.966 115.262 128.692C113.99 129.928 113.204 131.579 113.047 133.345C121.687 129.015 123.513 127.603 126.709 124.738C128.402 123.252 129.636 121.095 128.22 119.033Z" fill="black"/>
<path d="M138.839 80.0388C138.425 82.2247 137.982 86.2281 139.51 87.6854C136.685 88.3688 134.095 89.7986 132.012 91.8254C130.476 88.9729 132.72 87.6854 132.72 87.6854C135.154 87.1058 135.092 85.2966 134.666 83.5992L138.839 80.0388Z" fill="#7F3E3B"/>
<path opacity="0.2" d="M137.136 81.4919L134.652 83.5992C134.758 83.9937 134.829 84.3969 134.863 84.8039C135.791 84.6673 137.07 83.6447 137.169 82.6718C137.23 82.2798 137.219 81.88 137.136 81.4919Z" fill="black"/>
<path d="M141.141 76.0312C140.288 79.5833 140.002 81.1069 137.899 82.6345C134.728 84.9364 130.637 83.1189 130.447 79.3846C130.265 76.0229 131.689 70.7775 135.39 69.9578C139.091 69.1381 142.002 72.4749 141.141 76.0312Z" fill="#7F3E3B"/>
<path d="M134.107 69.8377C135.904 73.1497 138.997 73.8452 139.055 76.1429C139.113 78.4406 142.955 79.3555 142.532 76.2878C142.11 73.22 139.626 67.3371 134.107 69.8377Z" fill="#263238"/>
<path d="M134.549 69.7012C134.297 72.4377 136.267 72.4543 136.781 72.268C134.57 73.125 133.183 71.8209 133.469 70.3305C133.595 70.1558 133.756 70.0096 133.942 69.9012C134.128 69.7928 134.335 69.7247 134.549 69.7012Z" fill="#263238"/>
<path d="M135.592 76.0684C135.538 76.3623 135.34 76.5735 135.149 76.5362C134.959 76.499 134.847 76.2381 134.897 75.9483C134.946 75.6585 135.145 75.4433 135.34 75.4805C135.534 75.5178 135.642 75.762 135.592 76.0684Z" fill="#263238"/>
<path d="M131.982 75.4847C131.933 75.7745 131.734 75.9856 131.544 75.9525C131.353 75.9194 131.241 75.6544 131.291 75.3605C131.341 75.0665 131.539 74.8595 131.734 74.8926C131.929 74.9258 132.036 75.1907 131.982 75.4847Z" fill="#263238"/>
<path d="M131.813 74.934L131.146 74.6069C131.146 74.6069 131.411 75.2114 131.813 74.934Z" fill="#263238"/>
<path d="M132.894 76.1431C132.518 76.7662 132.058 77.3346 131.527 77.8322C131.658 77.9648 131.816 78.0675 131.991 78.1332C132.165 78.199 132.352 78.2262 132.538 78.2131L132.894 76.1431Z" fill="#630F0F"/>
<path d="M134.028 79.5834C133.861 79.584 133.695 79.5687 133.531 79.5379C133.52 79.5364 133.509 79.5326 133.499 79.5267C133.489 79.5208 133.481 79.513 133.474 79.5036C133.468 79.4943 133.463 79.4837 133.461 79.4725C133.458 79.4613 133.458 79.4497 133.461 79.4385C133.462 79.4272 133.466 79.4163 133.472 79.4065C133.478 79.3967 133.486 79.3882 133.495 79.3816C133.504 79.375 133.515 79.3704 133.526 79.3681C133.537 79.3657 133.549 79.3658 133.56 79.3682C133.923 79.441 134.297 79.4273 134.653 79.328C135.009 79.2287 135.337 79.0467 135.609 78.7968C135.618 78.7886 135.627 78.782 135.638 78.7775C135.649 78.7731 135.66 78.7708 135.672 78.7708C135.683 78.7708 135.695 78.7731 135.705 78.7775C135.716 78.782 135.726 78.7886 135.734 78.7968C135.749 78.813 135.758 78.8345 135.758 78.8569C135.758 78.8792 135.749 78.9007 135.734 78.9169C135.274 79.3534 134.662 79.5926 134.028 79.5834Z" fill="#263238"/>
<path d="M141.588 78.8341C141.389 79.101 141.137 79.3227 140.846 79.4847C140.556 79.6467 140.234 79.7453 139.903 79.7739C139.075 79.8194 138.864 78.8631 139.286 78.0309C139.663 77.2857 140.557 76.3749 141.31 76.7103C142.064 77.0456 142.109 78.1386 141.588 78.8341Z" fill="#7F3E3B"/>
<path d="M137.256 74.9961C137.21 74.9829 137.17 74.9535 137.144 74.9133C137.04 74.721 136.891 74.5563 136.71 74.4325C136.53 74.3087 136.322 74.2295 136.105 74.2012C136.082 74.2002 136.06 74.1946 136.039 74.1849C136.019 74.1752 136 74.1614 135.985 74.1445C135.969 74.1276 135.957 74.1078 135.95 74.0863C135.942 74.0648 135.939 74.0419 135.94 74.0191C135.943 73.9726 135.964 73.9292 135.999 73.8982C136.034 73.8673 136.079 73.8512 136.126 73.8535C136.401 73.8835 136.665 73.9797 136.895 74.134C137.125 74.2883 137.314 74.4961 137.447 74.7394C137.458 74.7589 137.466 74.7806 137.469 74.8031C137.473 74.8256 137.471 74.8486 137.466 74.8706C137.46 74.8926 137.45 74.9132 137.436 74.9313C137.422 74.9493 137.404 74.9643 137.385 74.9754C137.346 74.9983 137.3 75.0056 137.256 74.9961Z" fill="#263238"/>
<path d="M131.005 73.7501C130.96 73.7464 130.918 73.7257 130.889 73.6921C130.857 73.6584 130.84 73.614 130.84 73.5679C130.84 73.5218 130.857 73.4774 130.889 73.4437C131.095 73.2571 131.342 73.1222 131.611 73.0502C131.879 72.9782 132.161 72.9712 132.433 73.0297C132.455 73.0363 132.476 73.0473 132.494 73.0619C132.511 73.0766 132.526 73.0947 132.537 73.1151C132.548 73.1355 132.554 73.1579 132.556 73.1809C132.558 73.2039 132.556 73.2271 132.549 73.2491C132.543 73.2711 132.532 73.2916 132.518 73.3095C132.504 73.3273 132.486 73.342 132.466 73.3529C132.446 73.3637 132.424 73.3704 132.401 73.3724C132.378 73.3745 132.355 73.372 132.334 73.3651C132.119 73.3208 131.897 73.3277 131.685 73.3852C131.474 73.4428 131.279 73.5493 131.116 73.6963C131.088 73.728 131.047 73.7473 131.005 73.7501Z" fill="#263238"/>
<path d="M135.418 75.5097L134.752 75.1826C134.752 75.1826 135.017 75.7953 135.418 75.5097Z" fill="#263238"/>
<path d="M138.346 110.877L135.684 110.505L137.099 114.645C137.099 114.645 139.418 113.987 140.519 112.575L140.267 112.161C140.062 111.817 139.784 111.524 139.452 111.301C139.119 111.079 138.741 110.935 138.346 110.877Z" fill="#7F3E3B"/>
<path d="M134.347 113.097L134.98 114.339C135.114 114.601 135.34 114.803 135.615 114.906C135.891 115.009 136.195 115.004 136.467 114.893L137.1 114.633L135.684 110.493L134.525 111.768C134.363 111.944 134.259 112.167 134.227 112.404C134.195 112.642 134.237 112.884 134.347 113.097Z" fill="#7F3E3B"/>
<path d="M144.145 90.1362C144.675 91.1257 145.093 92.0654 145.524 93.0342C145.955 94.003 146.323 95.0007 146.675 96.015C147.421 98.0946 147.916 100.256 148.149 102.453C148.149 102.747 148.19 103.036 148.198 103.339V103.566C148.207 103.704 148.207 103.842 148.198 103.98C148.18 104.218 148.138 104.454 148.074 104.684C147.88 105.372 147.575 106.023 147.172 106.613C146.533 107.558 145.796 108.432 144.973 109.222C143.45 110.708 141.786 112.043 140.005 113.208C139.774 113.363 139.495 113.428 139.219 113.391C138.943 113.355 138.69 113.219 138.507 113.01C138.324 112.801 138.223 112.532 138.223 112.254C138.223 111.976 138.324 111.708 138.507 111.499L138.532 111.47C139.836 109.975 141.156 108.435 142.303 106.916C142.851 106.197 143.34 105.436 143.765 104.639C143.911 104.366 144.014 104.073 144.071 103.769C144.071 103.736 144.071 103.711 144.071 103.724C144.069 103.733 144.069 103.743 144.071 103.753V103.599C144.05 103.392 144.017 103.185 143.984 102.962C143.633 101.121 143.105 99.3188 142.407 97.5799C142.063 96.6733 141.682 95.7749 141.301 94.8765C140.92 93.9781 140.473 93.0715 140.096 92.2476L140.072 92.2021C139.829 91.6614 139.804 91.048 140.002 90.4895C140.2 89.9309 140.606 89.4704 141.135 89.2036C141.665 88.9369 142.276 88.8845 142.843 89.0575C143.41 89.2304 143.888 89.6153 144.179 90.1321L144.145 90.1362Z" fill="#7F3E3B"/>
<path d="M137.567 119.042C135.764 117.484 133.428 116.687 131.049 116.819C128.671 116.95 126.436 117.999 124.816 119.745C122.278 122.478 119.202 125.852 116.122 129.404C111.518 134.687 105.097 153.176 104.662 153.904L106.732 155.37C112.08 149.15 116.706 142.345 120.522 135.084C129.473 130.613 134.375 127.574 137.617 124.676C138.015 124.321 138.333 123.885 138.549 123.397C138.765 122.909 138.875 122.38 138.871 121.846C138.866 121.313 138.748 120.786 138.524 120.302C138.3 119.817 137.975 119.386 137.571 119.037L137.567 119.042Z" fill="#7F3E3B"/>
<path d="M107.458 157.949C107.417 156.923 106.978 155.764 109.143 152.481C109.143 152.481 105.699 151.181 105.268 152.352C104.49 154.48 101.455 158.421 98.1224 158.471C96.6403 158.492 98.4371 160.127 99.5259 160.206C102.246 160.359 102.01 159.721 103.55 159.726C104.476 159.672 105.405 159.722 106.32 159.875C107.189 160.036 107.504 158.976 107.458 157.949Z" fill="#7F3E3B"/>
<path d="M141.663 87.8675C144.308 88.2153 146.084 91.1795 147.695 95.8205C146.334 98.3013 144.222 100.287 141.663 101.492C140.292 98.8013 138.93 95.1912 138.678 93.2123C138.425 91.2334 138.785 87.4867 141.663 87.8675Z" fill="#FF6D38"/>
<path opacity="0.4" d="M141.663 87.8675C144.308 88.2153 146.084 91.1795 147.695 95.8205C146.334 98.3013 144.222 100.287 141.663 101.492C140.292 98.8013 138.93 95.1912 138.678 93.2123C138.425 91.2334 138.785 87.4867 141.663 87.8675Z" fill="white"/>
<path d="M143.789 161.555C143.743 161.548 143.698 161.531 143.658 161.506C143.619 161.481 143.584 161.448 143.558 161.409C143.531 161.371 143.512 161.327 143.503 161.281C143.494 161.235 143.494 161.187 143.503 161.141L149.966 123.956C149.973 123.909 149.99 123.865 150.015 123.825C150.04 123.785 150.073 123.751 150.112 123.724C150.15 123.698 150.194 123.679 150.24 123.67C150.286 123.66 150.334 123.661 150.38 123.67C150.426 123.678 150.47 123.695 150.51 123.72C150.549 123.746 150.583 123.778 150.61 123.817C150.636 123.856 150.655 123.899 150.665 123.945C150.674 123.991 150.674 124.038 150.666 124.084L144.203 161.265C144.196 161.312 144.18 161.357 144.155 161.397C144.13 161.438 144.097 161.472 144.058 161.499C144.02 161.527 143.976 161.546 143.929 161.555C143.883 161.565 143.835 161.565 143.789 161.555Z" fill="#E0E0E0"/>
<path d="M145.459 124.001C145.46 123.909 145.497 123.822 145.562 123.757C145.627 123.692 145.715 123.655 145.807 123.654H150.328C150.42 123.654 150.508 123.69 150.574 123.755C150.639 123.821 150.675 123.909 150.675 124.001C150.676 124.047 150.667 124.093 150.65 124.135C150.633 124.178 150.607 124.216 150.575 124.248C150.542 124.281 150.504 124.306 150.461 124.324C150.419 124.341 150.373 124.35 150.328 124.349H145.807C145.715 124.349 145.626 124.312 145.561 124.247C145.496 124.182 145.459 124.094 145.459 124.001Z" fill="#E0E0E0"/>
<path d="M145.579 126.639H145.62C145.801 126.639 145.947 126.492 145.947 126.312V122.399C145.947 122.219 145.801 122.072 145.62 122.072H145.579C145.398 122.072 145.252 122.219 145.252 122.399V126.312C145.252 126.492 145.398 126.639 145.579 126.639Z" fill="#E0E0E0"/>
<path d="M147.695 149.289C147.696 149.64 147.592 149.984 147.397 150.277C147.202 150.57 146.925 150.798 146.6 150.933C146.276 151.068 145.918 151.103 145.573 151.035C145.228 150.966 144.911 150.797 144.663 150.549C144.414 150.3 144.245 149.983 144.177 149.638C144.108 149.293 144.144 148.936 144.279 148.611C144.414 148.286 144.642 148.009 144.934 147.814C145.227 147.619 145.571 147.516 145.923 147.517C146.393 147.517 146.843 147.703 147.176 148.036C147.508 148.368 147.695 148.819 147.695 149.289Z" fill="white"/>
<path d="M146.46 124.002C146.46 124.171 146.41 124.337 146.316 124.478C146.221 124.619 146.088 124.728 145.931 124.793C145.774 124.858 145.602 124.875 145.436 124.842C145.27 124.809 145.117 124.727 144.997 124.607C144.877 124.488 144.796 124.335 144.763 124.169C144.729 124.002 144.746 123.83 144.811 123.674C144.876 123.517 144.986 123.383 145.127 123.289C145.268 123.195 145.434 123.145 145.603 123.145C145.83 123.145 146.048 123.235 146.209 123.396C146.37 123.556 146.46 123.774 146.46 124.002Z" fill="white"/>
<path d="M138.296 123.753C138.086 123.673 137.882 123.576 137.687 123.463C137.513 123.362 137.374 123.21 137.288 123.028C137.201 122.846 137.172 122.642 137.204 122.443C137.236 122.244 137.327 122.06 137.466 121.914C137.604 121.768 137.784 121.667 137.981 121.625C140.577 121.058 145.462 119.924 147.569 119.141C146.853 121.099 142.25 123.563 140.747 123.857C139.935 124.039 139.089 124.004 138.296 123.753Z" fill="black"/>
<path d="M138.297 123.753C140.065 124.254 141.803 122.793 141.832 120.78C141.836 120.555 141.906 120.336 142.033 120.151C142.16 119.965 142.34 119.821 142.549 119.737C144.354 119.017 148.2 117.911 150.067 117.39C150.206 117.35 150.353 117.342 150.495 117.368C150.638 117.394 150.772 117.452 150.889 117.538C151.005 117.624 151.1 117.736 151.167 117.864C151.233 117.993 151.269 118.135 151.272 118.28C151.296 119.522 150.94 121.327 148.788 121.927C141.733 123.898 139.882 124.357 138.297 123.753Z" fill="#263238"/>
<path d="M115.452 43.9589C117.881 33.6646 111.506 23.3498 101.212 20.9201C90.9173 18.4904 80.6024 24.866 78.1728 35.1603C75.7431 45.4546 82.1186 55.7694 92.4129 58.1991C102.707 60.6288 113.022 54.2533 115.452 43.9589Z" fill="#FF6D38"/>
<path d="M80.2092 42.468L72.1113 51.0999L83.8772 51.663L80.2092 42.468Z" fill="#FF6D38"/>
<path d="M113.223 43.4329C115.363 34.3692 109.749 25.2874 100.685 23.1482C91.6218 21.009 82.54 26.6224 80.4008 35.6861C78.2615 44.7498 83.8749 53.8316 92.9387 55.9708C102.002 58.1101 111.084 52.4967 113.223 43.4329Z" fill="white"/>
<path d="M85.2852 36.5437C86.4009 36.9058 87.4862 37.3557 88.5309 37.8892C89.5683 38.4075 90.5771 38.981 91.5531 39.6073C92.0375 39.9261 92.526 40.2407 92.9938 40.5885C93.4617 40.9363 93.9295 41.2882 94.3849 41.6525C95.3182 42.4046 96.1954 43.2237 97.0096 44.1034L93.7639 44.3228C94.6515 42.8886 95.6524 41.5277 96.7571 40.2532C97.8391 39.0105 98.9919 37.8314 100.21 36.7217C101.428 35.6229 102.71 34.5958 104.048 33.6457C105.392 32.6712 106.822 31.8204 108.32 31.1038C107.492 32.5735 106.577 33.919 105.646 35.2438C104.714 36.5686 103.754 37.8437 102.797 39.1064L99.8994 42.8324C98.9472 44.0744 98.0198 45.2874 97.1587 46.5087L95.5606 48.7691L93.9046 46.7281C93.2588 45.925 92.555 45.1177 91.8346 44.3021L89.628 41.8181C88.887 40.9901 88.1376 40.1621 87.4048 39.2637C86.6721 38.3653 85.9931 37.5125 85.2852 36.5437Z" fill="#FF6D38"/>
</svg>
