<svg width="333" height="333" viewBox="0 0 333 333" fill="none" xmlns="http://www.w3.org/2000/svg">
<path d="M333 254.678H0V254.845H333V254.678Z" fill="#EBEBEB"/>
<path d="M299.634 265.394H277.576V265.561H299.634V265.394Z" fill="#EBEBEB"/>
<path d="M220.592 267.206H214.805V267.372H220.592V267.206Z" fill="#EBEBEB"/>
<path d="M276.909 259.214H264.129V259.38H276.909V259.214Z" fill="#EBEBEB"/>
<path d="M63.702 260.333H34.9375V260.499H63.702V260.333Z" fill="#EBEBEB"/>
<path d="M73.8525 260.333H69.6367V260.499H73.8525V260.333Z" fill="#EBEBEB"/>
<path d="M149.949 263.143H87.5586V263.31H149.949V263.143Z" fill="#EBEBEB"/>
<path d="M157.841 224.975H29.2435C28.236 224.973 27.2705 224.571 26.5587 223.859C25.847 223.146 25.4473 222.179 25.4473 221.172V40.3994C25.456 39.3978 25.8596 38.4401 26.5704 37.7343C27.2812 37.0285 28.2418 36.6316 29.2435 36.6299H157.841C158.85 36.6299 159.817 37.0305 160.53 37.7437C161.244 38.4569 161.644 39.4242 161.644 40.4327V221.172C161.644 222.18 161.244 223.148 160.53 223.861C159.817 224.574 158.85 224.975 157.841 224.975ZM29.2435 36.7631C28.2802 36.7648 27.357 37.1487 26.6765 37.8305C25.996 38.5123 25.6138 39.4362 25.6138 40.3994V221.172C25.6138 222.135 25.996 223.059 26.6765 223.741C27.357 224.423 28.2802 224.806 29.2435 224.808H157.841C158.805 224.806 159.729 224.423 160.411 223.741C161.092 223.06 161.476 222.136 161.478 221.172V40.3994C161.476 39.4356 161.092 38.5117 160.411 37.8301C159.729 37.1485 158.805 36.7648 157.841 36.7631H29.2435Z" fill="#EBEBEB"/>
<path d="M301.904 224.975H173.299C172.291 224.973 171.325 224.572 170.612 223.859C169.899 223.146 169.498 222.18 169.496 221.172V40.3994C169.507 39.3972 169.912 38.4395 170.624 37.7338C171.335 37.0282 172.297 36.6316 173.299 36.6299H301.904C302.904 36.6333 303.863 37.031 304.572 37.7366C305.282 38.4422 305.684 39.3989 305.693 40.3994V221.172C305.693 222.178 305.294 223.143 304.584 223.856C303.874 224.569 302.91 224.971 301.904 224.975ZM173.299 36.7631C172.335 36.7648 171.411 37.1485 170.73 37.8301C170.048 38.5117 169.664 39.4356 169.663 40.3994V221.172C169.664 222.136 170.048 223.06 170.73 223.741C171.411 224.423 172.335 224.806 173.299 224.808H301.904C302.867 224.806 303.791 224.423 304.473 223.741C305.154 223.06 305.538 222.136 305.54 221.172V40.3994C305.538 39.4356 305.154 38.5117 304.473 37.8301C303.791 37.1485 302.867 36.7648 301.904 36.7631H173.299Z" fill="#EBEBEB"/>
<path d="M248.525 86.5864H239.088V115.964H248.525V86.5864Z" fill="#E6E6E6"/>
<path d="M274.106 115.964H242.791L238.062 81.5781H269.378L274.106 115.964Z" fill="#F0F0F0"/>
<path d="M277.495 115.964H245.154L240.426 81.5781H272.767L277.495 115.964Z" fill="#F5F5F5"/>
<path d="M247.492 113.253L243.51 84.2888H270.429L274.419 113.253H247.492Z" fill="white"/>
<path d="M252.813 104.482L251.315 93.6128C251.27 93.326 251.289 93.0329 251.369 92.7539C251.449 92.4749 251.589 92.2168 251.779 91.9975C251.97 91.7781 252.205 91.6029 252.47 91.4839C252.735 91.3649 253.022 91.3051 253.313 91.3085H263.096C263.586 91.3048 264.06 91.4811 264.429 91.804C264.797 92.1269 265.034 92.5739 265.094 93.0601L266.586 103.936C266.63 104.222 266.61 104.515 266.529 104.793C266.449 105.071 266.308 105.328 266.118 105.547C265.928 105.765 265.693 105.94 265.429 106.059C265.165 106.177 264.878 106.237 264.588 106.234H254.818C254.327 106.239 253.851 106.063 253.481 105.74C253.112 105.417 252.874 104.969 252.813 104.482Z" fill="#F5F5F5"/>
<path d="M189.777 54.3987H48.7246V141.412H189.777V54.3987Z" fill="#E6E6E6"/>
<path d="M193.4 54.3987H50.416V141.412H193.4V54.3987Z" fill="#F0F0F0"/>
<path d="M189.777 141.418H48.7246V148.151H189.777V141.418Z" fill="#E6E6E6"/>
<path d="M199.433 141.418H56.4492V148.151H199.433V141.418Z" fill="#F0F0F0"/>
<path d="M188.324 136.343V59.4736L55.4905 59.4736V136.343H188.324Z" fill="#FAFAFA"/>
<path d="M65.2422 136.343L95.019 59.4736H109.072L79.2948 136.343H65.2422Z" fill="white"/>
<path d="M82.3184 136.343L112.095 59.4736H117.57L87.7929 136.343H82.3184Z" fill="white"/>
<path d="M134.412 136.343L164.189 59.4736H169.663L139.893 136.343H134.412Z" fill="white"/>
<path d="M188.318 136.343V59.4736H187.672V136.343H188.318Z" fill="#E6E6E6"/>
<path d="M296.703 115.964H266.84V254.678H296.703V115.964Z" fill="#E6E6E6"/>
<path d="M293.699 254.678H296.703V246.134H290.549L293.699 254.678Z" fill="#F0F0F0"/>
<path d="M244.375 115.964H214.512V254.678H244.375V115.964Z" fill="#E6E6E6"/>
<path d="M296.704 115.964H241.752V249.437H296.704V115.964Z" fill="#F0F0F0"/>
<path d="M244.756 254.678H241.752V246.134H247.906L244.756 254.678Z" fill="#F0F0F0"/>
<path d="M294.372 118.408H244.082V181.372H294.372V118.408Z" fill="#E6E6E6"/>
<path d="M274.672 123.31H263.783C261.442 123.31 259.125 122.832 256.975 121.907C254.825 120.982 252.885 119.628 251.275 117.928H287.179C285.57 119.629 283.631 120.983 281.481 121.909C279.33 122.834 277.013 123.311 274.672 123.31Z" fill="#F0F0F0"/>
<path d="M294.372 183.922H244.082V246.886H294.372V183.922Z" fill="#E6E6E6"/>
<path d="M274.672 188.824H263.783C261.442 188.824 259.125 188.347 256.975 187.421C254.825 186.496 252.885 185.143 251.275 183.443H287.179C285.57 185.143 283.631 186.498 281.481 187.423C279.33 188.348 277.013 188.825 274.672 188.824Z" fill="#F0F0F0"/>
<path d="M86.2461 159.767H135.943L143.149 189.117H93.4456L86.2461 159.767Z" fill="#E6E6E6"/>
<path d="M93.4473 189.117L93.6537 190.736H143.351L143.151 189.117H93.4473Z" fill="#E6E6E6"/>
<path d="M87.7793 159.767H137.476L144.682 189.117H94.9788L87.7793 159.767Z" fill="#F0F0F0"/>
<path d="M96.0312 187.772L89.4844 161.105H136.424L142.971 187.772H96.0312Z" fill="white"/>
<path d="M107.932 189.117L108.131 190.736H162.857L162.657 189.117H107.932Z" fill="#F0F0F0"/>
<path d="M175.345 190.736H169.391V254.672H175.345V190.736Z" fill="#E6E6E6"/>
<path d="M177.23 190.736H173.094V254.672H177.23V190.736Z" fill="#F0F0F0"/>
<path d="M101.784 198.055H178.514V190.736H101.784V198.055Z" fill="#F0F0F0"/>
<path d="M99.1142 198.055H93.1602V254.672H99.1142V198.055Z" fill="#E6E6E6"/>
<path d="M100.991 198.055H96.8555V254.672H100.991V198.055Z" fill="#F0F0F0"/>
<path d="M61.4247 198.055H55.4707V254.672H61.4247V198.055Z" fill="#E6E6E6"/>
<path d="M63.3097 198.055H59.1738V254.672H63.3097V198.055Z" fill="#F0F0F0"/>
<path d="M137.663 198.055H131.709V254.672H137.663V198.055Z" fill="#E6E6E6"/>
<path d="M139.54 198.055H135.404V254.672H139.54V198.055Z" fill="#F0F0F0"/>
<path d="M101.778 190.736H55.4707V198.055H101.778V190.736Z" fill="#E6E6E6"/>
<path d="M194.699 254.678H193.253L189.144 234.272L188.418 230.696L183.863 208.458H166.547L157.176 254.678H155.711L165.275 207.605C165.305 207.449 165.387 207.308 165.508 207.206C165.629 207.103 165.782 207.044 165.941 207.039H184.482C184.643 207.038 184.799 207.094 184.921 207.198C185.043 207.302 185.124 207.447 185.148 207.605L189.144 227.133L189.81 230.702L194.699 254.678Z" fill="#F0F0F0"/>
<path d="M222.503 254.678H221.051L211.661 208.458H194.345L189.809 230.702L189.143 234.272L184.994 254.678H183.549L188.417 230.702L189.137 227.139L193.133 207.612C193.164 207.457 193.247 207.316 193.367 207.213C193.488 207.111 193.64 207.052 193.799 207.046H212.28C212.439 207.051 212.591 207.109 212.712 207.212C212.833 207.315 212.916 207.456 212.946 207.612L222.503 254.678Z" fill="#F0F0F0"/>
<path d="M179.82 207.745H211.642C217.716 207.745 221.086 203.616 222.804 196.81L223.643 192.92C223.926 191.744 223.939 190.518 223.68 189.336C223.421 188.154 222.896 187.047 222.147 186.097C221.397 185.147 220.441 184.38 219.352 183.853C218.262 183.327 217.068 183.054 215.858 183.057H195.878C191.748 183.057 190.656 184.042 187.799 190.263C184.942 196.483 179.82 207.745 179.82 207.745Z" fill="#F0F0F0"/>
<path d="M197.17 207.745H163.257C162.835 207.745 162.43 207.578 162.132 207.279C161.833 206.981 161.665 206.576 161.665 206.154V206.007C161.665 205.435 161.778 204.869 161.997 204.34C162.216 203.812 162.537 203.332 162.941 202.927C163.346 202.523 163.826 202.202 164.354 201.983C164.883 201.764 165.449 201.651 166.021 201.651H197.17V207.752V207.745Z" fill="#F0F0F0"/>
<path d="M166.5 284.755C237.817 284.755 295.631 281.38 295.631 277.216C295.631 273.052 237.817 269.677 166.5 269.677C95.1829 269.677 37.3691 273.052 37.3691 277.216C37.3691 281.38 95.1829 284.755 166.5 284.755Z" fill="#F5F5F5"/>
<path d="M135.218 255.911L130.956 258.655L123.23 249.67L127.493 246.926L135.218 255.911Z" fill="#FF8B7B"/>
<path opacity="0.2" d="M127.5 246.926L123.23 249.67L127.22 254.306L131.482 251.555L127.5 246.926Z" fill="black"/>
<path d="M102.643 270.562L97.7414 271.042L92.6465 259.387L97.5482 258.907L102.643 270.562Z" fill="#FF8B7B"/>
<path opacity="0.2" d="M92.6543 259.394L95.2783 265.401H100.387L97.5494 258.914L92.6543 259.394Z" fill="black"/>
<path d="M65.4206 113.22C62.9564 113.44 62.8898 109.257 58.5608 111.222C53.0596 113.726 54.9177 117.609 50.622 117.449C46.3263 117.289 43.4492 120.639 44.4083 123.137C45.3673 125.634 46.8525 127.999 43.8155 129.004C40.7786 130.01 38.714 130.896 39.1535 133.413C39.5931 135.931 41.7443 136.943 38.1212 138.548C34.4982 140.153 34.8645 147.093 38.4143 147.099C41.964 147.106 38.5608 150.563 41.7443 154.079C44.9277 157.596 49.7696 158.075 51.7875 156.344C53.8055 154.612 56.0566 153.18 59.8528 155.844C63.649 158.508 70.0759 159.174 69.7829 154.952C69.4898 150.729 65.7869 147.959 69.2767 145.761C72.7665 143.563 77.2687 142.477 75.8568 138.202C74.9577 135.538 72.2404 133.22 74.4315 131.229C77.9946 127.992 78.0146 120.666 73.6457 118.808C71.1082 117.736 73.5524 112.487 65.4206 113.22Z" fill="#263238"/>
<path d="M60.6787 146.134C60.5588 148.132 60.3058 149.91 60.0127 151.781C59.7197 153.653 59.2934 155.478 58.8073 157.309C58.3333 159.161 57.7302 160.977 57.0024 162.744C56.6427 163.636 56.2298 164.522 55.7903 165.408C55.5705 165.847 55.3307 166.28 55.0843 166.707C54.9711 166.926 54.8312 167.139 54.7047 167.373L54.5115 167.686C54.3804 167.894 54.2335 168.092 54.072 168.278C53.7026 168.696 53.2485 169.029 52.74 169.257C52.2857 169.463 51.7988 169.587 51.3014 169.624C50.57 169.666 49.8373 169.566 49.1436 169.331C48.1105 168.976 47.126 168.492 46.2132 167.892C44.6057 166.84 43.0846 165.662 41.6644 164.369C38.9264 161.878 36.3733 159.192 34.0254 156.33L35.9168 154.512C37.2488 155.684 38.5808 156.876 39.9728 158.009C41.3647 159.141 42.7233 160.28 44.1419 161.339C45.4925 162.378 46.9171 163.317 48.4043 164.149C49.0331 164.505 49.7044 164.781 50.4023 164.968C50.5703 165.02 50.7473 165.036 50.9218 165.015H50.7886C50.7006 165.058 50.6197 165.114 50.5489 165.181L50.5156 165.215L50.6621 164.942C50.7553 164.762 50.8619 164.589 50.9485 164.402C51.1349 164.034 51.3147 163.661 51.4879 163.283C51.8209 162.524 52.1539 161.752 52.4203 160.946C52.9797 159.347 53.446 157.696 53.8589 156.017C54.2718 154.339 54.5848 152.627 54.8645 150.902C55.1442 149.177 55.3574 147.413 55.5305 145.774L60.6787 146.134Z" fill="#FF8B7B"/>
<path d="M64.5492 146.76C64.2828 148.372 62.9441 151.422 61.8852 153.686C61.0993 155.325 60.4599 156.557 60.4599 156.557L59.5275 156.144L51.8086 152.707C52.3947 148.545 53.3471 144.049 57.9358 142.005C60.7996 140.739 65.022 143.856 64.5492 146.76Z" fill="#FF6D38"/>
<path opacity="0.6" d="M64.5492 146.76C64.2828 148.372 62.9441 151.422 61.8852 153.686C61.0993 155.325 60.4599 156.557 60.4599 156.557L59.5275 156.144L51.8086 152.707C52.3947 148.545 53.3471 144.049 57.9358 142.005C60.7996 140.739 65.022 143.856 64.5492 146.76Z" fill="black"/>
<path opacity="0.3" d="M61.8635 153.686C61.0776 155.325 60.4383 156.557 60.4383 156.557L59.5059 156.144C59.6324 154.499 59.9587 151.908 60.8379 150.742C61.387 151.639 61.7368 152.643 61.8635 153.686Z" fill="black"/>
<path d="M36.2105 156.037L36.8232 151.555L31.7949 153.18C31.7949 153.18 32.5941 155.891 34.3857 157.003L36.2105 156.037Z" fill="#FF8B7B"/>
<path d="M34.545 147.726L31.0352 149.65L31.7944 153.207L36.8227 151.555L34.545 147.726Z" fill="#FF8B7B"/>
<path d="M129.384 257.309L134.012 253.979C134.092 253.921 134.19 253.894 134.288 253.902C134.385 253.911 134.477 253.955 134.545 254.026L137.695 257.309C137.772 257.394 137.83 257.495 137.865 257.604C137.9 257.713 137.911 257.828 137.899 257.942C137.886 258.056 137.85 258.165 137.792 258.264C137.734 258.363 137.655 258.448 137.562 258.515C135.93 259.647 135.085 260.106 133.047 261.565C131.795 262.464 129.157 264.635 127.426 265.874C125.694 267.113 124.382 265.474 124.988 264.802C127.719 261.791 128.445 259.74 128.877 258.048C128.956 257.751 129.135 257.49 129.384 257.309Z" fill="#263238"/>
<path d="M97.0962 269.53H103.09C103.198 269.532 103.302 269.569 103.387 269.635C103.473 269.701 103.534 269.793 103.563 269.897L104.895 274.652C104.927 274.764 104.933 274.883 104.911 274.997C104.889 275.112 104.841 275.22 104.77 275.313C104.698 275.406 104.606 275.481 104.501 275.531C104.395 275.582 104.279 275.607 104.162 275.604C102.045 275.604 101.039 275.604 98.3949 275.604H90.3096C88.1118 275.604 87.6456 273.38 88.558 273.18C92.634 272.281 94.9849 271.035 96.2437 269.85C96.477 269.639 96.7817 269.525 97.0962 269.53Z" fill="#263238"/>
<path d="M87.9451 164.808L68.318 171.015C54.7316 144.122 56.6697 142.697 56.6697 142.697C56.6697 142.697 59.8066 140.906 63.07 139.414C63.5628 139.187 64.0623 138.968 64.5551 138.748C67.4545 137.596 70.4324 136.652 73.4662 135.924C73.9124 135.804 74.3587 135.698 74.7982 135.591C77.2142 135.045 79.6605 134.642 82.1242 134.385C82.4173 138.108 82.7103 141.259 83.03 143.996C83.4429 147.566 83.8891 150.423 84.362 152.894C85.236 156.955 86.4342 160.939 87.9451 164.808Z" fill="#FF6D38"/>
<path opacity="0.6" d="M87.9451 164.808L68.318 171.015C54.7316 144.122 56.6697 142.697 56.6697 142.697C56.6697 142.697 59.8066 140.906 63.07 139.414C63.5628 139.187 64.0623 138.968 64.5551 138.748C67.4545 137.596 70.4324 136.652 73.4662 135.924C73.9124 135.804 74.3587 135.698 74.7982 135.591C77.2142 135.045 79.6605 134.642 82.1242 134.385C82.4173 138.108 82.7103 141.259 83.03 143.996C83.4429 147.566 83.8891 150.423 84.362 152.894C85.236 156.955 86.4342 160.939 87.9451 164.808Z" fill="black"/>
<path opacity="0.3" d="M84.415 152.907C82.5302 150.243 80.7253 144.043 81.1915 141.718L83.0563 144.009C83.4692 147.579 83.9155 150.436 84.415 152.907Z" fill="black"/>
<path d="M69.0176 147.719C69.0176 147.719 73.966 146.647 75.5577 148.798C77.7422 146.647 76.9696 138.242 75.9173 135.245C75.0828 135.386 74.2642 135.609 73.4731 135.911L69.9766 141.319L69.0176 147.719Z" fill="white"/>
<path d="M69.0164 147.719C69.0164 147.719 65.6864 148.465 65.3334 151.189C60.6714 147.719 60.9978 142.637 62.0501 139.64C62.8489 139.254 63.689 138.959 64.5542 138.761L68.0507 142.611L69.0164 147.719Z" fill="white"/>
<path d="M70.1567 130.263C70.8227 132.714 71.835 135.138 73.4867 135.937C73.4867 135.937 75.0251 140.346 69.0311 147.719C62.7574 143.25 64.5689 138.761 64.5689 138.761C67.526 136.983 66.6935 134.639 65.4347 132.587L67.173 129.797C67.3462 129.528 67.5936 129.315 67.8854 129.184C68.1771 129.053 68.5006 129.01 68.8165 129.059C69.1324 129.109 69.4272 129.249 69.6651 129.462C69.903 129.676 70.0738 129.954 70.1567 130.263Z" fill="#FF8B7B"/>
<path opacity="0.2" d="M70.1568 130.263C70.0772 129.949 69.907 129.665 69.6674 129.447C69.4278 129.229 69.1293 129.087 68.8092 129.037C68.489 128.987 68.1613 129.033 67.8669 129.168C67.5725 129.303 67.3243 129.522 67.1532 129.797L66.5938 130.689C66.6404 131.282 66.667 131.768 66.6603 132.021C66.6071 133.753 69.038 133.673 71.016 132.84C70.6634 132.005 70.3762 131.143 70.1568 130.263Z" fill="black"/>
<path d="M58.1074 123.57C59.839 128.292 60.4651 130.33 63.6352 132.075C68.3971 134.705 73.8184 131.548 73.5386 126.4C73.2856 121.772 70.5017 114.819 65.2203 114.306C64.0562 114.188 62.8812 114.369 61.807 114.833C60.7328 115.297 59.7948 116.028 59.0823 116.956C58.3697 117.884 57.9061 118.978 57.7355 120.136C57.5649 121.294 57.6929 122.476 58.1074 123.57Z" fill="#FF8B7B"/>
<path d="M70.355 116.47C68.7299 114.905 67.025 113.087 63.7616 113.44C60.1518 113.833 58.7266 116.017 58.7266 116.017L55.623 122.804C55.623 122.804 57.5478 131.542 60.7246 127.466C62.5561 125.108 62.6027 121.545 61.9367 118.881C63.1848 118.705 64.4149 118.42 65.613 118.029C67.0782 118.575 68.7233 118.575 69.942 117.456C70.2084 117.21 70.4016 117.016 70.5414 116.863L70.6547 116.737C71.0143 116.277 70.7146 116.324 70.355 116.47ZM66.1592 117.882C67.2969 117.514 68.4528 117.205 69.6224 116.956C69.1875 117.416 68.6334 117.747 68.0219 117.91C67.4104 118.073 66.7655 118.064 66.1592 117.882Z" fill="#263238"/>
<path d="M58.3479 128.372C58.848 129.21 59.6598 129.816 60.6057 130.057C61.8577 130.37 62.4505 129.244 62.0709 128.059C61.7312 127.013 60.6723 125.588 59.4069 125.787C59.1333 125.838 58.8767 125.956 58.6607 126.131C58.4447 126.306 58.2762 126.533 58.1707 126.79C58.0653 127.047 58.0262 127.327 58.0572 127.603C58.0881 127.88 58.1881 128.144 58.3479 128.372Z" fill="#FF8B7B"/>
<path d="M68.3183 171.022C68.3183 171.022 67.6523 211.242 72.907 225.774C77.9686 239.707 93.0668 263.656 93.0668 263.656L101.818 263.436C101.818 263.436 87.912 233.1 85.6409 221.112C81.858 201.219 82.6905 166.5 82.6905 166.5L68.3183 171.022Z" fill="#FF6D38"/>
<path opacity="0.3" d="M76.1758 174.492L78.5268 167.832L82.6893 166.5C82.6893 166.5 82.3096 182.304 83.2221 198.694C79.4458 191.422 76.1758 178.102 76.1758 174.492Z" fill="black"/>
<path d="M91.8352 264.109L102.644 263.836L102.018 260.513L90.2168 261.072L91.8352 264.109Z" fill="#263238"/>
<path d="M72.5938 169.723C72.5938 169.723 86.2467 200.952 95.0713 218.728C102.197 233.087 124.375 252.347 124.375 252.347L130.456 248.132C130.456 248.132 113.766 225.314 108.844 215.578C93.0932 184.422 96.976 171.582 87.9184 164.808L72.5938 169.723Z" fill="#FF6D38"/>
<path d="M124.734 254.359L131.874 249.277L130.256 246.16L122.41 252.094L124.734 254.359Z" fill="#263238"/>
<path d="M87.9114 163.563L89.35 165.042C89.4632 165.155 89.35 165.348 89.1169 165.421L68.5308 171.928C68.3576 171.988 68.1845 171.928 68.1379 171.841L67.4053 170.137C67.352 170.023 67.4719 169.87 67.665 169.81L87.5451 163.516C87.605 163.492 87.6702 163.483 87.7344 163.491C87.7987 163.499 87.8596 163.524 87.9114 163.563Z" fill="#263238"/>
<path d="M85.9141 166.633L86.4469 166.467C86.5535 166.467 86.6201 166.347 86.5868 166.287L85.6211 164.083C85.5925 164.047 85.5528 164.021 85.5081 164.01C85.4635 163.999 85.4165 164.004 85.3746 164.023L84.8418 164.196C84.7353 164.229 84.6687 164.309 84.702 164.376L85.6743 166.573C85.6943 166.64 85.8009 166.667 85.9141 166.633Z" fill="#FF6D38"/>
<path d="M70.0567 171.648L70.5895 171.482C70.6961 171.448 70.756 171.368 70.7294 171.302L69.757 169.097C69.757 169.031 69.6171 169.011 69.5106 169.044L68.9778 169.211C68.8779 169.244 68.8113 169.324 68.8379 169.39L69.8103 171.595C69.8404 171.629 69.8805 171.652 69.9248 171.662C69.9691 171.671 70.0153 171.667 70.0567 171.648Z" fill="#FF6D38"/>
<path d="M77.9825 169.164L78.5153 168.997C78.6218 168.964 78.6884 168.884 78.6551 168.818L77.6828 166.613C77.6828 166.553 77.5496 166.527 77.443 166.56L76.9102 166.726C76.8036 166.726 76.737 166.84 76.7703 166.906L77.736 169.111C77.7693 169.164 77.8759 169.164 77.9825 169.164Z" fill="#FF6D38"/>
<path d="M66.3927 122.544C66.5126 122.937 66.8123 123.21 67.0587 123.117C67.3052 123.024 67.425 122.657 67.3052 122.271C67.1853 121.885 66.8922 121.605 66.6392 121.698C66.3861 121.791 66.2795 122.138 66.3927 122.544Z" fill="#263238"/>
<path d="M70.8222 121.212C70.9421 121.605 71.2418 121.878 71.4882 121.785C71.7346 121.692 71.8545 121.332 71.7413 120.939C71.6281 120.546 71.3217 120.273 71.0753 120.366C70.8289 120.459 70.709 120.819 70.8222 121.212Z" fill="#263238"/>
<path d="M70.9688 120.419L71.8279 119.867C71.8279 119.867 71.5681 120.746 70.9688 120.419Z" fill="#263238"/>
<path d="M69.7168 122.231C70.3347 123.019 71.056 123.72 71.8613 124.316C71.7006 124.516 71.4984 124.68 71.2684 124.795C71.0384 124.91 70.7863 124.973 70.5293 124.982L69.7168 122.231Z" fill="#FF5652"/>
<path d="M69.2095 127.139C69.2279 127.125 69.2415 127.105 69.2486 127.082C69.2557 127.06 69.256 127.036 69.2495 127.013C69.2402 126.983 69.22 126.957 69.1929 126.941C69.1658 126.925 69.1337 126.92 69.1029 126.926C68.6192 127.084 68.1049 127.125 67.6023 127.045C67.0997 126.965 66.6234 126.767 66.2125 126.467C66.2002 126.456 66.1861 126.448 66.1707 126.443C66.1554 126.438 66.1392 126.436 66.1232 126.438C66.1071 126.439 66.0914 126.443 66.077 126.451C66.0626 126.458 66.0498 126.468 66.0393 126.48C66.0288 126.492 66.0209 126.507 66.0158 126.522C66.0108 126.537 66.0089 126.553 66.0101 126.569C66.0114 126.586 66.0158 126.601 66.0231 126.616C66.0303 126.63 66.0404 126.643 66.0527 126.653C66.4944 126.98 67.0077 127.196 67.5498 127.284C68.0919 127.372 68.6472 127.329 69.1695 127.159L69.2095 127.139Z" fill="#263238"/>
<path d="M64.7206 121.458C64.7517 121.429 64.7746 121.393 64.7872 121.352C64.8861 121.068 65.0503 120.81 65.2666 120.601C65.4829 120.392 65.7452 120.236 66.0326 120.146C66.0661 120.143 66.0985 120.132 66.1276 120.116C66.1567 120.099 66.182 120.076 66.2018 120.049C66.2215 120.022 66.2353 119.99 66.2423 119.958C66.2492 119.925 66.2492 119.891 66.2421 119.858C66.2351 119.825 66.2212 119.794 66.2014 119.767C66.1815 119.739 66.1562 119.717 66.127 119.7C66.0978 119.683 66.0655 119.673 66.032 119.669C65.9985 119.666 65.9647 119.67 65.9327 119.68C65.5625 119.786 65.2238 119.981 64.9464 120.248C64.6689 120.515 64.461 120.846 64.341 121.212C64.3293 121.242 64.3236 121.273 64.3243 121.305C64.325 121.337 64.3321 121.369 64.3451 121.398C64.3581 121.427 64.3768 121.453 64.4001 121.475C64.4235 121.497 64.4509 121.514 64.4809 121.525C64.5232 121.534 64.5671 121.532 64.6088 121.521C64.6505 121.509 64.6888 121.488 64.7206 121.458Z" fill="#263238"/>
<path d="M72.175 118.701C72.1728 118.686 72.1728 118.67 72.175 118.655C72.1832 118.592 72.168 118.529 72.1323 118.478C72.0966 118.426 72.043 118.389 71.9818 118.375C71.6087 118.296 71.222 118.306 70.8537 118.406C70.4855 118.505 70.1462 118.691 69.8639 118.948C69.8198 118.994 69.7957 119.055 69.7969 119.119C69.7982 119.183 69.8247 119.243 69.8706 119.287C69.9165 119.331 69.9781 119.356 70.0418 119.354C70.1055 119.353 70.1661 119.327 70.2103 119.281C70.4358 119.081 70.7056 118.938 70.9973 118.862C71.2891 118.787 71.5945 118.782 71.8886 118.848C71.9459 118.862 72.0064 118.855 72.059 118.828C72.1115 118.801 72.1527 118.756 72.175 118.701Z" fill="#263238"/>
<path d="M85.1335 139.101C85.926 139.694 86.592 140.246 87.2847 140.846C87.9773 141.445 88.6167 142.045 89.2827 142.671C90.5814 143.923 91.8335 145.228 93.0189 146.6C94.2176 147.98 95.3297 149.432 96.3489 150.949C96.6153 151.322 96.8484 151.728 97.0949 152.114C97.3413 152.501 97.5877 152.894 97.8075 153.307C98.0273 153.72 98.2604 154.086 98.4735 154.545L98.8265 155.285L99.1128 156.031C99.7267 157.922 100.015 159.904 99.9653 161.891C99.9249 163.739 99.7266 165.579 99.3726 167.393C99.0263 169.171 98.5734 170.909 98.0406 172.614C97.5034 174.322 96.8764 176 96.1625 177.642L93.7515 176.75C94.1645 175.151 94.5574 173.473 94.8504 171.815C95.1759 170.172 95.4138 168.514 95.5631 166.846C95.7231 165.231 95.761 163.606 95.6763 161.985C95.6286 161.216 95.5352 160.451 95.3966 159.694C95.2505 158.994 95.0478 158.308 94.7905 157.642L94.584 157.183L94.3576 156.763C94.1778 156.457 93.9314 156.097 93.6916 155.757C93.4518 155.418 93.252 155.091 93.0256 154.752C92.7992 154.412 92.5661 154.086 92.313 153.766C91.3406 152.434 90.2417 151.222 89.1495 149.99C88.0572 148.758 86.8584 147.599 85.6397 146.467C85.0403 145.894 84.4209 145.335 83.8015 144.788C83.1821 144.242 82.5161 143.696 81.9434 143.23L85.1335 139.101Z" fill="#FF8B7B"/>
<path d="M94.5188 175.158L90.8691 177.822L95.5311 180.286C95.5311 180.286 96.9231 177.822 96.4769 175.764L94.5188 175.158Z" fill="#FF8B7B"/>
<path d="M89.7168 182.144L93.533 183.323L95.5643 180.3L90.869 177.835L89.7168 182.144Z" fill="#FF8B7B"/>
<path d="M82.1504 134.399C84.7012 134.286 89.7161 140.553 89.7161 140.553L84.508 147.919C84.508 147.919 78.6605 143.257 78.2077 140.013C77.828 137.249 78.9003 134.532 82.1504 134.399Z" fill="#FF6D38"/>
<path opacity="0.6" d="M82.1504 134.399C84.7012 134.286 89.7161 140.553 89.7161 140.553L84.508 147.919C84.508 147.919 78.6605 143.257 78.2077 140.013C77.828 137.249 78.9003 134.532 82.1504 134.399Z" fill="black"/>
<path d="M127.631 259.394H127.551C127.434 259.379 127.323 259.334 127.23 259.262C127.136 259.191 127.063 259.096 127.018 258.987C126.983 258.924 126.965 258.853 126.965 258.781C126.965 258.709 126.983 258.638 127.018 258.574C127.345 258.015 129.176 257.908 129.382 257.908C129.406 257.908 129.428 257.914 129.448 257.926C129.468 257.938 129.485 257.955 129.496 257.975C129.509 257.995 129.516 258.018 129.516 258.042C129.516 258.065 129.509 258.089 129.496 258.108C129.049 258.601 128.257 259.394 127.631 259.394ZM129.096 258.175C128.364 258.228 127.391 258.401 127.225 258.694C127.207 258.721 127.197 258.752 127.197 258.784C127.197 258.816 127.207 258.848 127.225 258.874C127.253 258.947 127.3 259.011 127.36 259.06C127.421 259.109 127.494 259.142 127.571 259.154C127.924 259.194 128.483 258.828 129.096 258.175Z" fill="#FF6D38"/>
<path d="M129.257 258.162C128.644 258.162 127.439 257.822 127.212 257.329C127.176 257.242 127.17 257.145 127.194 257.054C127.218 256.962 127.271 256.881 127.346 256.823C127.415 256.761 127.496 256.714 127.585 256.686C127.673 256.657 127.766 256.647 127.859 256.657C128.584 256.737 129.444 257.915 129.477 257.989C129.488 258.007 129.494 258.027 129.494 258.049C129.494 258.07 129.488 258.09 129.477 258.108C129.468 258.126 129.454 258.141 129.438 258.153C129.422 258.165 129.403 258.172 129.384 258.175L129.257 258.162ZM127.779 256.896C127.679 256.896 127.584 256.934 127.512 257.003C127.399 257.103 127.412 257.183 127.432 257.236C127.579 257.556 128.525 257.902 129.144 257.902C128.838 257.522 128.265 256.923 127.812 256.876L127.779 256.896Z" fill="#FF6D38"/>
<path d="M94.4252 270.523C94.015 270.552 93.6056 270.455 93.253 270.243C93.1616 270.176 93.0865 270.089 93.0334 269.988C92.9804 269.888 92.9507 269.777 92.9466 269.663C92.9412 269.6 92.9525 269.537 92.9794 269.48C93.0063 269.422 93.0478 269.373 93.0998 269.337C93.6459 268.971 95.6906 269.897 96.0968 270.09C96.1195 270.1 96.1383 270.117 96.1503 270.138C96.1624 270.16 96.167 270.185 96.1634 270.21C96.1612 270.235 96.151 270.259 96.1342 270.278C96.1175 270.297 96.095 270.311 96.0702 270.316C95.5302 270.44 94.979 270.509 94.4252 270.523ZM93.4728 269.484C93.3895 269.479 93.3066 269.498 93.233 269.537C93.2158 269.55 93.2024 269.567 93.1942 269.587C93.186 269.607 93.1833 269.629 93.1864 269.65C93.189 269.729 93.2095 269.805 93.2465 269.875C93.2834 269.944 93.3358 270.004 93.3995 270.05C93.7525 270.316 94.585 270.356 95.6573 270.156C94.9688 269.819 94.2317 269.592 93.4728 269.484Z" fill="#FF6D38"/>
<path d="M96.0434 270.316H96.0034C95.3374 270.036 93.9521 268.938 94.0054 268.371C94.0054 268.252 94.1053 268.092 94.4117 268.058C95.6105 267.912 96.1166 270.056 96.1366 270.176C96.141 270.198 96.1397 270.221 96.1327 270.242C96.1256 270.263 96.1132 270.281 96.0966 270.296C96.081 270.308 96.0626 270.314 96.0434 270.316ZM94.5715 268.285H94.4916C94.365 268.285 94.2984 268.338 94.2851 268.398C94.2452 268.724 95.1909 269.597 95.8835 269.977C95.7037 269.45 95.2708 268.285 94.5715 268.285Z" fill="#FF6D38"/>
<path d="M66.5391 121.738L67.3982 121.186C67.3982 121.186 67.1385 122.065 66.5391 121.738Z" fill="#263238"/>
<path d="M192.228 73.0402H95.4385C94.4044 73.0332 93.3798 73.238 92.4279 73.6421C91.476 74.0462 90.617 74.641 89.9037 75.3898C89.1905 76.1386 88.6382 77.0255 88.2809 77.9959C87.9235 78.9664 87.7688 79.9997 87.8261 81.0322L96.9037 269.224C97.033 271.368 97.9687 273.383 99.5228 274.866C101.077 276.348 103.134 277.188 105.282 277.216H202.072C203.106 277.223 204.13 277.018 205.081 276.614C206.033 276.21 206.892 275.615 207.604 274.866C208.317 274.117 208.869 273.23 209.225 272.26C209.582 271.289 209.736 270.256 209.677 269.224L200.607 81.0322C200.477 78.8883 199.542 76.8728 197.987 75.3903C196.433 73.9078 194.376 73.0683 192.228 73.0402Z" fill="black"/>
<path d="M195.805 73.0402H98.9888C97.955 73.0331 96.9307 73.238 95.9792 73.6421C95.0276 74.0463 94.169 74.6412 93.4562 75.3901C92.7435 76.139 92.1919 77.026 91.8353 77.9964C91.4787 78.9668 91.3249 80 91.3831 81.0322L100.454 269.224C100.583 271.368 101.519 273.383 103.073 274.866C104.627 276.348 106.685 277.188 108.832 277.216H205.622C206.656 277.223 207.68 277.018 208.632 276.614C209.583 276.21 210.442 275.615 211.155 274.866C211.867 274.117 212.419 273.23 212.776 272.26C213.132 271.289 213.286 270.256 213.228 269.224L204.157 81.0322C204.028 78.8929 203.096 76.8811 201.548 75.3993C199.999 73.9175 197.948 73.0749 195.805 73.0402Z" fill="#263238"/>
<path d="M108.558 271.888C107.845 271.87 107.164 271.587 106.648 271.094C106.133 270.602 105.819 269.935 105.767 269.224L96.7099 81.0322C96.6937 80.6887 96.7472 80.3455 96.8674 80.0233C96.9876 79.7011 97.1718 79.4066 97.409 79.1576C97.6461 78.9086 97.9313 78.7103 98.2473 78.5746C98.5632 78.4389 98.9034 78.3687 99.2473 78.3682H196.037C196.751 78.3832 197.433 78.665 197.95 79.1581C198.466 79.6511 198.78 80.3197 198.828 81.0322L207.899 269.224C207.915 269.567 207.861 269.909 207.742 270.231C207.622 270.553 207.438 270.847 207.202 271.096C206.965 271.345 206.681 271.543 206.366 271.679C206.051 271.816 205.711 271.886 205.368 271.888H108.558Z" fill="#FF6D38"/>
<path opacity="0.1" d="M108.511 270.556C108.155 270.544 107.816 270.402 107.558 270.156C107.301 269.911 107.142 269.579 107.113 269.224L98.0419 81.0322C98.0356 80.8612 98.0636 80.6906 98.1242 80.5306C98.1847 80.3705 98.2766 80.2242 98.3945 80.1001C98.5124 79.9761 98.6538 79.8768 98.8105 79.8081C98.9673 79.7394 99.1362 79.7027 99.3073 79.7002H196.097C196.453 79.7106 196.793 79.8524 197.052 80.0983C197.31 80.3441 197.468 80.6768 197.496 81.0322L206.567 269.224C206.573 269.395 206.545 269.565 206.484 269.725C206.424 269.885 206.332 270.032 206.214 270.156C206.096 270.28 205.955 270.379 205.798 270.448C205.641 270.517 205.472 270.553 205.301 270.556H108.511Z" fill="black"/>
<g opacity="0.3">
<path d="M137.722 259.74H118.548C118.022 259.734 117.517 259.529 117.136 259.165C116.756 258.802 116.527 258.308 116.497 257.782L115.098 228.671C115.081 228.414 115.117 228.156 115.204 227.913C115.291 227.67 115.427 227.448 115.604 227.26C115.781 227.073 115.995 226.924 116.232 226.823C116.469 226.722 116.725 226.671 116.983 226.673H136.19C136.715 226.677 137.219 226.882 137.599 227.244C137.979 227.607 138.206 228.1 138.235 228.625L139.613 257.742C139.63 258 139.593 258.258 139.505 258.501C139.418 258.744 139.281 258.966 139.103 259.153C138.926 259.341 138.711 259.49 138.474 259.591C138.236 259.692 137.98 259.742 137.722 259.74ZM116.956 227.352C116.79 227.352 116.625 227.384 116.472 227.448C116.319 227.512 116.18 227.607 116.064 227.725C115.951 227.848 115.863 227.992 115.806 228.148C115.749 228.305 115.723 228.471 115.731 228.638L117.136 257.742C117.155 258.099 117.308 258.435 117.565 258.682C117.823 258.929 118.164 259.069 118.521 259.074H137.722C137.889 259.075 138.054 259.042 138.208 258.977C138.362 258.911 138.5 258.815 138.615 258.694C138.73 258.573 138.819 258.429 138.876 258.273C138.933 258.116 138.958 257.949 138.947 257.782L137.542 228.671C137.525 228.315 137.373 227.979 137.117 227.732C136.861 227.484 136.52 227.344 136.164 227.339L116.956 227.352Z" fill="#FAFAFA"/>
<path d="M135.91 234.112H117.882C117.794 234.112 117.709 234.077 117.646 234.015C117.584 233.952 117.549 233.868 117.549 233.779C117.549 233.691 117.584 233.606 117.646 233.544C117.709 233.481 117.794 233.446 117.882 233.446H135.93C136.019 233.446 136.103 233.481 136.166 233.544C136.228 233.606 136.263 233.691 136.263 233.779C136.263 233.868 136.228 233.952 136.166 234.015C136.103 234.077 136.019 234.112 135.93 234.112H135.91Z" fill="#FAFAFA"/>
<path d="M136.097 237.875H118.042C117.954 237.874 117.87 237.838 117.808 237.776C117.746 237.714 117.711 237.63 117.709 237.542C117.709 237.454 117.744 237.369 117.807 237.307C117.869 237.244 117.954 237.209 118.042 237.209H136.097C136.186 237.209 136.27 237.244 136.333 237.307C136.395 237.369 136.43 237.454 136.43 237.542C136.429 237.63 136.393 237.714 136.331 237.776C136.269 237.838 136.185 237.874 136.097 237.875Z" fill="#FAFAFA"/>
<path d="M136.277 241.638H118.222C118.134 241.636 118.05 241.601 117.988 241.539C117.926 241.477 117.89 241.393 117.889 241.305C117.889 241.217 117.924 241.132 117.986 241.07C118.049 241.007 118.133 240.972 118.222 240.972H136.277C136.365 240.972 136.45 241.007 136.512 241.07C136.575 241.132 136.61 241.217 136.61 241.305C136.61 241.393 136.575 241.478 136.512 241.541C136.45 241.603 136.365 241.638 136.277 241.638Z" fill="#FAFAFA"/>
<path d="M136.456 245.401H118.407C118.319 245.401 118.234 245.366 118.172 245.304C118.109 245.241 118.074 245.156 118.074 245.068C118.074 244.98 118.109 244.895 118.172 244.833C118.234 244.77 118.319 244.735 118.407 244.735H136.456C136.544 244.735 136.629 244.77 136.691 244.833C136.754 244.895 136.789 244.98 136.789 245.068C136.789 245.156 136.754 245.241 136.691 245.304C136.629 245.366 136.544 245.401 136.456 245.401Z" fill="#FAFAFA"/>
<path d="M136.636 249.164H118.587C118.499 249.164 118.414 249.129 118.351 249.067C118.289 249.004 118.254 248.919 118.254 248.831C118.254 248.743 118.289 248.658 118.351 248.596C118.414 248.533 118.499 248.498 118.587 248.498H136.636C136.724 248.498 136.809 248.533 136.871 248.596C136.933 248.658 136.969 248.743 136.969 248.831C136.969 248.919 136.933 249.004 136.871 249.067C136.809 249.129 136.724 249.164 136.636 249.164Z" fill="#FAFAFA"/>
<path d="M133.121 252.927H118.769C118.68 252.927 118.596 252.892 118.533 252.829C118.471 252.767 118.436 252.682 118.436 252.594C118.436 252.506 118.471 252.421 118.533 252.359C118.596 252.296 118.68 252.261 118.769 252.261H133.121C133.209 252.261 133.294 252.296 133.356 252.359C133.419 252.421 133.454 252.506 133.454 252.594C133.452 252.682 133.417 252.765 133.354 252.828C133.292 252.89 133.209 252.925 133.121 252.927Z" fill="#FAFAFA"/>
</g>
<g opacity="0.3">
<path d="M149.812 152.934L136.645 155.038C136.137 153.785 135.465 152.605 134.647 151.528C133.859 150.701 132.927 150.024 131.896 149.53L132.389 159.853C139.711 161.78 144.637 163.814 147.168 165.954C148.781 167.298 150.09 168.97 151.009 170.859C151.928 172.748 152.434 174.81 152.496 176.91C152.672 179.367 152.22 181.828 151.184 184.062C150.197 186.147 148.778 187.997 147.021 189.49C145.384 190.893 143.491 191.965 141.447 192.647C139.047 193.369 136.56 193.759 134.054 193.806L134.141 195.624C134.161 195.961 134.111 196.298 133.996 196.614C133.88 196.931 133.7 197.221 133.468 197.465C133.236 197.709 132.955 197.903 132.645 198.034C132.334 198.166 132 198.232 131.663 198.228C130.963 198.221 130.291 197.948 129.784 197.465C129.277 196.981 128.973 196.323 128.933 195.624L128.846 193.806C125.923 193.618 123.037 193.05 120.261 192.114C118.135 191.346 116.168 190.192 114.46 188.711C112.901 187.38 111.581 185.792 110.558 184.016C109.531 182.106 108.784 180.058 108.34 177.935L122.666 176.264C123.207 178.612 123.873 180.311 124.663 181.358C125.656 182.576 126.932 183.532 128.38 184.142L127.774 171.542C124.226 170.658 120.752 169.501 117.384 168.078C115.205 166.992 113.332 165.378 111.936 163.383C110.304 161.078 109.402 158.335 109.346 155.511C109.191 153.562 109.462 151.603 110.141 149.77C110.819 147.937 111.889 146.273 113.275 144.895C116.099 142.049 120.428 140.473 126.262 140.166L126.215 139.241C126.195 138.904 126.245 138.567 126.36 138.25C126.476 137.934 126.656 137.644 126.888 137.4C127.12 137.156 127.401 136.962 127.711 136.831C128.021 136.699 128.356 136.633 128.693 136.637C129.393 136.644 130.065 136.917 130.572 137.4C131.078 137.884 131.383 138.541 131.423 139.241L131.47 140.166C136.798 140.499 140.929 141.76 143.864 143.949C146.816 146.175 148.916 149.347 149.812 152.934ZM126.701 149.371C125.514 149.675 124.442 150.321 123.618 151.229C123.057 151.981 122.785 152.91 122.852 153.846C122.887 154.85 123.252 155.814 123.891 156.59C124.78 157.523 125.906 158.197 127.148 158.541L126.701 149.371ZM133.608 184.482C135.606 184.038 137.049 183.292 137.937 182.244C138.363 181.773 138.692 181.222 138.905 180.623C139.117 180.024 139.209 179.389 139.176 178.754C139.108 177.598 138.636 176.502 137.844 175.658C137.004 174.718 135.406 173.839 133.062 173.033L133.608 184.482Z" fill="#FAFAFA"/>
</g>
<path opacity="0.2" d="M184.616 97.6089H118.682L125.109 230.882C125.422 236.342 127.797 241.479 131.753 245.255C135.71 249.031 140.952 251.163 146.421 251.222H212.355L205.934 117.949C205.624 112.486 203.249 107.347 199.29 103.57C195.332 99.7935 190.086 97.6626 184.616 97.6089Z" fill="black"/>
<path d="M200.766 97.6089H118.701C124.17 97.6658 129.413 99.798 133.37 103.574C137.327 107.35 139.701 112.488 140.013 117.949L145.255 226.44C145.568 231.9 147.943 237.037 151.9 240.813C155.856 244.588 161.098 246.721 166.567 246.78H207.945C210.58 246.807 213.192 246.292 215.619 245.267C218.046 244.242 220.236 242.728 222.053 240.821C223.87 238.913 225.275 236.652 226.181 234.178C227.087 231.704 227.475 229.07 227.319 226.44L222.084 117.949C221.774 112.486 219.399 107.347 215.44 103.57C211.482 99.7935 206.236 97.6626 200.766 97.6089Z" fill="#FAFAFA"/>
<path d="M185.934 226.44C186.09 229.069 185.704 231.701 184.8 234.174C183.896 236.647 182.492 238.908 180.677 240.815C178.862 242.723 176.674 244.237 174.249 245.263C171.823 246.289 169.213 246.805 166.58 246.78H248.638C251.271 246.805 253.882 246.289 256.307 245.263C258.733 244.237 260.921 242.723 262.737 240.816C264.553 238.908 265.957 236.648 266.862 234.175C267.767 231.702 268.154 229.069 267.999 226.44H185.934Z" fill="#E6E6E6"/>
<path d="M212.321 164.948H154.326C153.919 164.944 153.529 164.785 153.235 164.505C152.941 164.224 152.764 163.842 152.741 163.436C152.73 163.241 152.759 163.046 152.826 162.862C152.894 162.679 152.998 162.511 153.133 162.369C153.268 162.228 153.43 162.115 153.61 162.039C153.79 161.962 153.984 161.923 154.179 161.925H212.174C212.586 161.922 212.982 162.078 213.282 162.359C213.582 162.64 213.762 163.026 213.786 163.436C213.797 163.634 213.767 163.832 213.698 164.017C213.629 164.202 213.522 164.371 213.385 164.513C213.247 164.655 213.081 164.767 212.898 164.842C212.715 164.917 212.519 164.953 212.321 164.948Z" fill="#FF6D38"/>
<path d="M212.774 174.385H154.779C154.372 174.381 153.982 174.223 153.688 173.942C153.394 173.661 153.217 173.28 153.194 172.874C153.183 172.678 153.212 172.483 153.279 172.3C153.347 172.116 153.451 171.948 153.586 171.807C153.721 171.665 153.883 171.552 154.063 171.476C154.243 171.399 154.437 171.361 154.632 171.362H212.634C213.04 171.368 213.428 171.527 213.72 171.808C214.013 172.088 214.189 172.469 214.213 172.874C214.223 173.069 214.194 173.264 214.127 173.448C214.059 173.631 213.955 173.799 213.82 173.941C213.685 174.082 213.523 174.195 213.343 174.271C213.163 174.348 212.97 174.387 212.774 174.385Z" fill="#FF6D38"/>
<path d="M213.234 183.816H155.232C154.825 183.812 154.436 183.653 154.141 183.372C153.847 183.092 153.67 182.71 153.647 182.304C153.636 182.109 153.665 181.913 153.733 181.73C153.8 181.546 153.904 181.379 154.039 181.237C154.174 181.095 154.336 180.983 154.516 180.906C154.696 180.83 154.89 180.791 155.085 180.792H213.121C213.527 180.797 213.917 180.955 214.211 181.236C214.505 181.516 214.682 181.898 214.706 182.304C214.717 182.502 214.687 182.7 214.617 182.886C214.548 183.072 214.44 183.241 214.302 183.383C214.164 183.526 213.997 183.637 213.813 183.712C213.629 183.786 213.432 183.822 213.234 183.816Z" fill="#FF6D38"/>
<path d="M213.686 193.267H155.691C155.285 193.261 154.896 193.102 154.602 192.821C154.308 192.541 154.131 192.16 154.106 191.755C154.095 191.56 154.124 191.364 154.191 191.181C154.259 190.997 154.363 190.829 154.498 190.688C154.633 190.546 154.795 190.434 154.975 190.357C155.155 190.281 155.349 190.242 155.544 190.243H213.54C213.946 190.247 214.336 190.406 214.63 190.686C214.924 190.967 215.101 191.349 215.125 191.755C215.136 191.95 215.106 192.145 215.039 192.329C214.971 192.512 214.867 192.68 214.732 192.822C214.598 192.963 214.435 193.076 214.255 193.152C214.075 193.229 213.882 193.268 213.686 193.267Z" fill="#FF6D38"/>
<path d="M191.082 202.704H156.144C155.737 202.699 155.348 202.541 155.053 202.26C154.759 201.98 154.582 201.598 154.559 201.192C154.548 200.997 154.577 200.801 154.645 200.618C154.712 200.434 154.816 200.267 154.951 200.125C155.086 199.983 155.248 199.871 155.428 199.794C155.608 199.718 155.802 199.679 155.997 199.68H190.936C191.342 199.685 191.732 199.843 192.026 200.124C192.321 200.404 192.497 200.786 192.521 201.192C192.532 201.387 192.503 201.583 192.435 201.766C192.368 201.95 192.263 202.117 192.129 202.259C191.994 202.401 191.831 202.513 191.651 202.59C191.472 202.666 191.278 202.705 191.082 202.704Z" fill="#FF6D38"/>
<path d="M195.112 145.386C201.974 138.356 201.557 126.819 194.179 119.617C186.802 112.415 175.258 112.276 168.395 119.306C161.532 126.336 161.949 137.873 169.327 145.075C176.705 152.277 188.249 152.417 195.112 145.386Z" fill="#FF6D38"/>
<path d="M196.79 132.334C196.916 134.809 196.409 137.275 195.318 139.5C194.135 141.886 192.304 143.89 190.034 145.282C187.764 146.675 185.147 147.399 182.484 147.372C179.73 147.352 177.028 146.615 174.643 145.235C172.259 143.855 170.275 141.879 168.885 139.5C167.588 137.325 166.844 134.864 166.72 132.334C166.605 130.391 166.891 128.444 167.56 126.616C168.229 124.787 169.267 123.116 170.609 121.705C171.951 120.295 173.569 119.176 175.362 118.417C177.156 117.659 179.086 117.277 181.033 117.296C185.074 117.346 188.946 118.925 191.869 121.715C194.793 124.506 196.551 128.3 196.79 132.334Z" fill="white"/>
<path opacity="0.4" d="M195.318 139.5C194.135 141.886 192.304 143.89 190.034 145.283C187.764 146.675 185.147 147.399 182.484 147.372C179.73 147.352 177.028 146.615 174.643 145.235C172.259 143.855 170.275 141.879 168.885 139.5C172.718 136.87 177.263 135.476 181.912 135.504C186.673 135.513 191.329 136.901 195.318 139.5Z" fill="#FF6D38"/>
<path opacity="0.4" d="M186.409 131.973C188.932 129.388 188.78 125.148 186.069 122.501C183.358 119.855 179.115 119.805 176.592 122.389C174.069 124.974 174.221 129.215 176.932 131.861C179.643 134.508 183.886 134.558 186.409 131.973Z" fill="#FF6D38"/>
<path d="M237.602 272.221H232.714L232.221 260.885H237.116L237.602 272.221Z" fill="#B55B52"/>
<path opacity="0.2" d="M232.227 260.892L232.473 266.733H237.368L237.115 260.892H232.227Z" fill="black"/>
<path d="M279.247 258.941L274.598 260.459L268.744 250.449L273.399 248.931L279.247 258.941Z" fill="#B55B52"/>
<path opacity="0.2" d="M273.399 248.931L268.744 250.449L271.768 255.611L276.416 254.092L273.399 248.931Z" fill="black"/>
<path d="M254.145 108.505C254.751 109.244 255.264 109.903 255.79 110.629C256.316 111.355 256.816 112.048 257.315 112.767C258.301 114.213 259.247 115.691 260.133 117.216C261.976 120.31 263.479 123.595 264.615 127.013L264.728 127.346L264.781 127.519L264.855 127.792L264.988 128.338L265.061 128.838C265.14 129.436 265.164 130.04 265.134 130.643C265.072 131.659 264.925 132.668 264.695 133.66C264.273 135.436 263.714 137.178 263.023 138.868C261.706 142.108 260.111 145.228 258.255 148.192L254.925 146.6C255.924 143.477 256.923 140.28 257.655 137.17C258.037 135.67 258.326 134.149 258.521 132.614C258.603 131.951 258.628 131.283 258.594 130.616C258.584 130.378 258.553 130.142 258.501 129.91L258.468 129.79C258.455 129.769 258.444 129.746 258.434 129.724L258.381 129.597L258.275 129.337L257.828 128.292L257.329 127.253C256.996 126.587 256.629 125.868 256.263 125.175C255.504 123.803 254.685 122.438 253.832 121.079C252.98 119.72 252.074 118.415 251.168 117.083C250.263 115.751 249.27 114.419 248.371 113.214L254.145 108.505Z" fill="#B55B52"/>
<path d="M255.23 145.774L253.318 150.003H258.786C258.786 150.003 259.659 146.793 257.674 145.494L255.23 145.774Z" fill="#B55B52"/>
<path d="M253.958 154.758L259.033 153.779L258.786 150.003H253.318L253.958 154.758Z" fill="#B55B52"/>
<path d="M229.917 87.0395C229.917 87.4391 229.71 87.7588 229.451 87.7588C229.191 87.7588 228.984 87.4391 228.984 87.0395C228.984 86.6399 229.197 86.3269 229.451 86.3269C229.704 86.3269 229.917 86.6466 229.917 87.0395Z" fill="#263238"/>
<path d="M229.77 87.7588C229.3 88.9638 228.666 90.098 227.885 91.1287C228.154 91.3218 228.462 91.454 228.788 91.5161C229.113 91.5782 229.448 91.5687 229.77 91.4884V87.7588Z" fill="#A02724"/>
<path d="M231.315 84.855C231.266 84.8556 231.219 84.8391 231.182 84.8084C230.95 84.6339 230.68 84.5159 230.395 84.4638C230.109 84.4118 229.815 84.4272 229.537 84.5087C229.481 84.5239 229.421 84.5178 229.37 84.4918C229.318 84.4657 229.278 84.4214 229.258 84.3675C229.237 84.3136 229.237 84.2539 229.258 84.2C229.279 84.1461 229.319 84.1019 229.37 84.0758C229.721 83.9644 230.093 83.9389 230.456 84.0015C230.819 84.0641 231.161 84.2129 231.455 84.4354C231.504 84.4726 231.537 84.5272 231.547 84.588C231.556 84.6487 231.543 84.7109 231.508 84.7618C231.485 84.7909 231.455 84.8144 231.422 84.8305C231.389 84.8467 231.352 84.855 231.315 84.855Z" fill="#263238"/>
<path d="M242.657 91.5884C241.951 95.1715 241.251 101.732 243.755 104.116C243.755 104.116 242.776 107.746 236.13 107.746C228.804 107.746 232.633 104.116 232.633 104.116C236.629 103.163 236.523 100.206 235.823 97.4225L242.657 91.5884Z" fill="#B55B52"/>
<path d="M244.714 105.361C245.24 104.216 245.819 102.897 244.621 102.484C243.289 102.031 236.123 101.572 233.638 102.424C233.312 102.515 233.006 102.669 232.74 102.879C232.473 103.089 232.251 103.349 232.086 103.645C231.922 103.942 231.817 104.268 231.78 104.605C231.742 104.941 231.771 105.282 231.867 105.608L244.714 105.361Z" fill="#263238"/>
<path d="M273.593 261.625C273.233 261.971 272.827 262.251 272.521 262.204C272.424 262.185 272.336 262.136 272.268 262.065C272.2 261.993 272.156 261.902 272.141 261.805C272.121 261.729 272.118 261.65 272.131 261.573C272.145 261.496 272.176 261.422 272.221 261.359C272.621 260.739 274.219 260.473 274.306 260.466C274.327 260.463 274.349 260.466 274.369 260.474C274.389 260.482 274.406 260.496 274.419 260.513C274.432 260.531 274.438 260.553 274.438 260.576C274.438 260.599 274.432 260.621 274.419 260.639C274.179 260.996 273.902 261.326 273.593 261.625ZM272.508 261.372C272.473 261.404 272.442 261.44 272.414 261.478C272.388 261.517 272.37 261.56 272.361 261.606C272.353 261.652 272.356 261.7 272.368 261.745C272.421 261.951 272.521 261.971 272.554 261.971C272.894 262.025 273.62 261.305 274.066 260.746C273.507 260.837 272.975 261.051 272.508 261.372Z" fill="#FF6D38"/>
<path d="M274.392 260.659L274.339 260.692C273.786 260.839 272.341 260.746 272.035 260.28C271.989 260.205 271.969 260.117 271.979 260.031C271.989 259.944 272.027 259.863 272.088 259.8C272.145 259.733 272.215 259.677 272.294 259.637C272.373 259.597 272.459 259.573 272.547 259.567C273.28 259.514 274.339 260.453 274.386 260.493C274.402 260.506 274.413 260.524 274.419 260.544C274.425 260.564 274.425 260.586 274.419 260.606C274.417 260.626 274.408 260.645 274.392 260.659ZM272.308 259.913L272.268 259.953C272.174 260.066 272.214 260.126 272.228 260.153C272.408 260.426 273.42 260.579 274.046 260.506C273.632 260.132 273.118 259.887 272.567 259.8C272.474 259.807 272.387 259.847 272.321 259.913H272.308Z" fill="#FF6D38"/>
<path d="M230.742 272.467C230.116 272.467 229.51 272.381 229.31 272.101C229.256 272.028 229.227 271.939 229.227 271.848C229.227 271.757 229.256 271.668 229.31 271.595C229.349 271.527 229.402 271.468 229.465 271.421C229.528 271.374 229.6 271.34 229.676 271.322C230.489 271.102 232.2 272.074 232.274 272.121C232.295 272.132 232.311 272.15 232.321 272.172C232.33 272.194 232.333 272.218 232.327 272.241C232.323 272.263 232.313 272.284 232.298 272.301C232.282 272.317 232.262 272.329 232.24 272.334C231.745 272.421 231.244 272.465 230.742 272.467ZM229.969 271.522C229.894 271.511 229.818 271.511 229.743 271.522C229.696 271.531 229.651 271.55 229.612 271.577C229.573 271.605 229.541 271.64 229.516 271.681C229.436 271.828 229.463 271.901 229.516 271.941C229.743 272.254 230.981 272.261 231.887 272.134C231.294 271.807 230.642 271.599 229.969 271.522Z" fill="#FF6D38"/>
<path d="M232.221 272.334H232.174C231.588 272.068 230.416 271.002 230.503 270.456C230.503 270.323 230.616 270.163 230.935 270.13C231.054 270.116 231.174 270.127 231.289 270.161C231.403 270.196 231.51 270.253 231.601 270.329C232.221 270.842 232.354 272.161 232.361 272.214C232.36 272.235 232.355 272.255 232.346 272.273C232.337 272.292 232.324 272.308 232.307 272.321C232.295 272.329 232.28 272.334 232.265 272.336C232.251 272.338 232.235 272.338 232.221 272.334ZM231.029 270.336H230.962C230.749 270.336 230.736 270.436 230.736 270.463C230.682 270.796 231.475 271.628 232.068 271.988C232.01 271.428 231.777 270.901 231.402 270.483C231.296 270.398 231.164 270.351 231.029 270.349V270.336Z" fill="#FF6D38"/>
<path d="M274.191 259.92L278.187 256.117C278.256 256.049 278.348 256.006 278.445 255.998C278.542 255.989 278.639 256.015 278.72 256.071L282.423 258.548C282.512 258.608 282.587 258.689 282.641 258.782C282.695 258.876 282.727 258.98 282.735 259.088C282.743 259.196 282.726 259.304 282.685 259.404C282.645 259.505 282.583 259.594 282.503 259.667C281.097 260.999 280.345 261.538 278.6 263.203C277.521 264.236 274.311 267.732 272.826 269.157C271.34 270.583 269.742 269.291 270.221 268.578C272.379 265.375 273.725 262.304 273.845 260.686C273.866 260.398 273.989 260.126 274.191 259.92Z" fill="#263238"/>
<path d="M232.74 271.655H238.068C238.165 271.654 238.259 271.687 238.334 271.748C238.409 271.808 238.461 271.893 238.481 271.988L239.447 276.337C239.471 276.441 239.472 276.55 239.448 276.655C239.424 276.759 239.376 276.857 239.309 276.94C239.241 277.024 239.156 277.091 239.059 277.136C238.961 277.182 238.855 277.204 238.748 277.203C236.816 277.203 234.033 277.063 231.608 277.063C228.778 277.063 226.334 277.216 223.01 277.216C221.012 277.216 220.446 275.185 221.285 274.998C225.108 274.166 228.238 274.072 231.542 272.034C231.898 271.799 232.313 271.667 232.74 271.655Z" fill="#263238"/>
<path d="M225.773 115.218C223.828 118.082 221.824 120.759 219.666 123.403C217.5 126.079 215.185 128.632 212.733 131.049L211.787 131.968L211.547 132.194L211.374 132.354L211.121 132.534C210.807 132.787 210.471 133.01 210.115 133.2C208.991 133.793 207.754 134.14 206.486 134.219C204.55 134.333 202.608 134.172 200.718 133.739C197.293 132.984 193.972 131.817 190.828 130.263L192.054 126.8C195.172 127.423 198.326 127.855 201.497 128.092C202.891 128.202 204.293 128.144 205.673 127.919C206.07 127.859 206.448 127.711 206.779 127.486C206.812 127.486 206.779 127.446 206.779 127.446L206.832 127.392L207.025 127.173L207.818 126.307C209.896 123.936 211.914 121.405 213.872 118.821C215.83 116.237 217.794 113.586 219.666 111.002L225.773 115.218Z" fill="#B55B52"/>
<path d="M252.52 105.228C257.102 106.28 262.364 118.781 262.364 118.781L253.153 125.095C250.865 121.808 248.837 118.347 247.086 114.745C244.355 109.024 247.832 104.149 252.52 105.228Z" fill="#FF6D38"/>
<path opacity="0.3" d="M249.23 113.22L253.586 124.815L253.153 125.115C253.153 125.115 251.268 122.451 249.23 118.901V113.22Z" fill="black"/>
<path d="M225.107 105.474C225.107 105.474 219.899 111.355 224.821 147.765H250.988C251.168 143.769 248.643 124.149 252.52 105.221C249.625 104.665 246.697 104.295 243.755 104.116C240.051 103.902 236.337 103.902 232.633 104.116C230.093 104.372 227.576 104.826 225.107 105.474Z" fill="#FF6D38"/>
<path opacity="0.3" d="M228.012 116.004C227.331 120.136 225.545 124.006 222.844 127.206C222.737 124.862 222.697 122.757 222.704 120.872L228.012 116.004Z" fill="black"/>
<path d="M230.269 109.444C230.935 114.073 221.784 125.907 221.784 125.907L212.613 119.594C212.613 119.594 215.157 113.074 219.44 108.798C224.335 103.896 229.57 104.402 230.269 109.444Z" fill="#FF6D38"/>
<path d="M192.687 127.206L189.097 123.497L185.268 128.432C185.268 128.432 188.185 131.249 191.655 130.43L192.687 127.206Z" fill="#B55B52"/>
<path d="M184.168 121.432L182.523 126.613L185.267 128.412L189.097 123.476L184.168 121.432Z" fill="#B55B52"/>
<path d="M243.09 86.2072C242.791 91.049 242.864 93.9062 240.426 96.3903C236.743 100.133 230.763 97.9155 229.611 93.0603C228.565 88.7047 229.231 81.5119 233.973 79.5872C235.017 79.158 236.154 79.0031 237.275 79.1372C238.397 79.2713 239.465 79.69 240.379 80.3535C241.292 81.0169 242.021 81.9031 242.496 82.9276C242.97 83.9522 243.175 85.0812 243.09 86.2072Z" fill="#B55B52"/>
<path d="M247.305 76.0906C248.797 77.4625 248.164 78.9943 247.385 79.2807C249.803 79.7802 250.156 81.705 248.883 85.7676C247.671 89.657 244.734 94.8718 241.065 95.1915C235.55 95.671 233.938 89.9234 233.898 84.2224C230.782 84.4156 232.127 81.6517 228.297 82.291C224.967 82.8438 226.219 80.2464 223.389 79.1142C220.106 77.7822 220.765 72.7539 223.829 74.1991C223.829 74.1991 222.41 75.1315 224.062 76.0107C225.713 76.8898 225.553 74.8585 228.824 74.6121C232.094 74.3656 232.473 77.1628 236.296 75.4779C241.091 73.36 244.241 73.2601 247.305 76.0906Z" fill="#263238"/>
<path d="M245.467 79.2541C245.684 78.9053 246.008 78.636 246.391 78.486C246.774 78.336 247.195 78.3134 247.591 78.4216C249.09 78.7412 249.21 79.4006 250.149 79.314C251.088 79.2274 250.748 80.2264 250.748 80.2264C250.748 80.2264 250.495 79.4738 249.363 79.8934C248.231 80.313 247.491 79.2874 247.005 79.7469C246.519 80.2064 245.467 79.2541 245.467 79.2541Z" fill="#263238"/>
<path d="M236.51 87.5258C236.297 88.7132 235.695 89.7958 234.798 90.6028C233.612 91.655 232.587 90.8092 232.547 89.3707C232.547 88.072 233.1 85.9541 234.465 85.4479C235.83 84.9418 236.756 86.0873 236.51 87.5258Z" fill="#B55B52"/>
<path d="M234.098 147.765C234.098 147.765 239.652 185.148 242.702 199.134C246.032 214.452 269.242 255.211 269.242 255.211L277.767 252.441C277.767 252.441 259.286 215.717 257.381 200.526C255.31 184.042 250.987 147.739 250.987 147.739L234.098 147.765Z" fill="#263238"/>
<path d="M266.86 252.547C266.826 252.547 268.811 255.531 268.811 255.531L278.388 252.414L277.263 249.55L266.86 252.547Z" fill="#FF6D38"/>
<path opacity="0.3" d="M237.609 161.085C244.03 162.344 243.35 186.287 242.578 198.601C240.726 189.897 238.016 173.147 236.164 161.259C236.612 161.038 237.122 160.977 237.609 161.085Z" fill="black"/>
<path d="M224.821 147.766C224.821 147.766 224.155 184.349 224.675 199.267C225.228 214.785 230.669 265.601 230.669 265.601H238.96C238.96 265.601 239.26 215.691 239.626 200.453C240.026 183.803 242.031 147.766 242.031 147.766H224.821Z" fill="#263238"/>
<path d="M229.057 262.298C229.017 262.298 229.523 265.741 229.523 265.741H239.606L239.879 262.671L229.057 262.298Z" fill="#FF6D38"/>
</svg>
