<svg width="274" height="274" viewBox="0 0 274 274" fill="none" xmlns="http://www.w3.org/2000/svg">
<path d="M274 209.555H0V209.692H274V209.555Z" fill="#EBEBEB"/>
<path d="M46.8978 214.772H28.748V214.909H46.8978V214.772Z" fill="#EBEBEB"/>
<path d="M123.3 214.843H93.7852V214.98H123.3V214.843Z" fill="#EBEBEB"/>
<path d="M68.479 217.6H57.9629V217.737H68.479V217.6Z" fill="#EBEBEB"/>
<path d="M244.407 217.534H233.869V217.671H244.407V217.534Z" fill="#EBEBEB"/>
<path d="M228.988 217.534H212.389V217.671H228.988V217.534Z" fill="#EBEBEB"/>
<path d="M203.249 216.63H179.926V216.767H203.249V216.63Z" fill="#EBEBEB"/>
<path d="M129.876 185.114H24.0631C23.2341 185.113 22.4396 184.783 21.854 184.196C21.2684 183.609 20.9395 182.814 20.9395 181.985V33.2416C20.9467 32.4174 21.2788 31.6293 21.8636 31.0486C22.4485 30.4678 23.2388 30.1413 24.0631 30.1399H129.876C130.706 30.1399 131.502 30.4696 132.089 31.0564C132.676 31.6432 133.005 32.4391 133.005 33.269V181.985C133.005 182.815 132.676 183.611 132.089 184.198C131.502 184.785 130.706 185.114 129.876 185.114ZM24.0631 30.2495C23.2705 30.2509 22.5108 30.5668 21.9509 31.1278C21.3909 31.6888 21.0765 32.449 21.0765 33.2416V181.985C21.0765 182.778 21.3909 183.538 21.9509 184.099C22.5108 184.66 23.2705 184.976 24.0631 184.977H129.876C130.669 184.976 131.43 184.66 131.99 184.099C132.551 183.539 132.867 182.778 132.868 181.985V33.2416C132.867 32.4485 132.551 31.6883 131.99 31.1275C131.43 30.5666 130.669 30.2509 129.876 30.2495H24.0631Z" fill="#EBEBEB"/>
<path d="M248.415 185.114H142.596C141.766 185.113 140.971 184.783 140.385 184.196C139.798 183.61 139.468 182.815 139.467 181.985V33.2416C139.475 32.4169 139.809 31.6289 140.394 31.0483C140.98 30.4677 141.771 30.1413 142.596 30.1399H248.415C249.238 30.1427 250.027 30.4699 250.611 31.0505C251.194 31.6311 251.526 32.4183 251.533 33.2416V181.985C251.533 182.813 251.205 183.607 250.62 184.194C250.036 184.78 249.243 185.111 248.415 185.114ZM142.596 30.2495C141.803 30.2509 141.043 30.5666 140.482 31.1275C139.921 31.6883 139.605 32.4485 139.604 33.2416V181.985C139.605 182.778 139.921 183.539 140.482 184.099C141.043 184.66 141.803 184.976 142.596 184.977H248.415C249.208 184.976 249.968 184.66 250.529 184.099C251.09 183.539 251.405 182.778 251.407 181.985V33.2416C251.405 32.4485 251.09 31.6883 250.529 31.1275C249.968 30.5666 249.208 30.2509 248.415 30.2495H142.596Z" fill="#EBEBEB"/>
<path d="M230.094 49.8789H166.471V125.843H230.094V49.8789Z" fill="#E6E6E6"/>
<path d="M231.683 49.8789H168.061V125.843H231.683V49.8789Z" fill="#F5F5F5"/>
<path d="M228.834 122.637V53.0791H170.916V122.637H228.834Z" fill="white"/>
<path d="M228.828 122.637V53.0791H227.628V122.637H228.828Z" fill="#E6E6E6"/>
<path d="M230.499 106.158H169.238V110.46H230.499V106.158Z" fill="#F5F5F5"/>
<path d="M234.791 44.5796H163.364C163.248 44.5796 163.136 44.6258 163.054 44.708C162.972 44.7902 162.926 44.9017 162.926 45.018C162.926 45.1343 162.972 45.2458 163.054 45.328C163.136 45.4102 163.248 45.4564 163.364 45.4564H234.791C234.907 45.4564 235.018 45.4102 235.101 45.328C235.183 45.2458 235.229 45.1343 235.229 45.018C235.229 44.9017 235.183 44.7902 235.101 44.708C235.018 44.6258 234.907 44.5796 234.791 44.5796Z" fill="#E6E6E6"/>
<path d="M235.229 47.2102C236.44 47.2102 237.421 46.2288 237.421 45.0182C237.421 43.8076 236.44 42.8262 235.229 42.8262C234.019 42.8262 233.037 43.8076 233.037 45.0182C233.037 46.2288 234.019 47.2102 235.229 47.2102Z" fill="#E6E6E6"/>
<path d="M167.063 47.4731C166.906 47.4731 166.755 47.4108 166.644 47.2998C166.533 47.1888 166.471 47.0382 166.471 46.8813V45.6099C166.472 45.4534 166.535 45.3037 166.646 45.193C166.756 45.0823 166.906 45.0195 167.063 45.0181C167.22 45.0181 167.37 45.0804 167.481 45.1914C167.592 45.3024 167.654 45.4529 167.654 45.6099V46.8813C167.654 47.0382 167.592 47.1888 167.481 47.2998C167.37 47.4108 167.22 47.4731 167.063 47.4731Z" fill="#E6E6E6"/>
<path d="M228.17 47.4731C228.013 47.4731 227.862 47.4108 227.751 47.2998C227.64 47.1888 227.578 47.0382 227.578 46.8813V45.6099C227.58 45.4534 227.642 45.3037 227.753 45.193C227.864 45.0823 228.013 45.0195 228.17 45.0181C228.327 45.0181 228.477 45.0804 228.588 45.1914C228.699 45.3024 228.762 45.4529 228.762 45.6099V46.8813C228.762 47.0382 228.699 47.1888 228.588 47.2998C228.477 47.4108 228.327 47.4731 228.17 47.4731Z" fill="#E6E6E6"/>
<path opacity="0.5" d="M234.648 45.0181H169.238V76.9226H234.648V45.0181Z" fill="#E0E0E0"/>
<path d="M174.122 47.2102C175.332 47.2102 176.314 46.2288 176.314 45.0182C176.314 43.8076 175.332 42.8262 174.122 42.8262C172.911 42.8262 171.93 43.8076 171.93 45.0182C171.93 46.2288 172.911 47.2102 174.122 47.2102Z" fill="#E6E6E6"/>
<path d="M49.1609 134.002H25.9531L28.0081 106.838H47.1059L49.1609 134.002Z" fill="#EBEBEB"/>
<path d="M44.0693 134.002H40.0799L39.2305 106.838H42.913L44.0693 134.002Z" fill="#F5F5F5"/>
<path d="M38.722 134.002H36.3984V209.555H38.722V134.002Z" fill="#F0F0F0"/>
<path d="M38.4376 145.132H36.684C35.8306 145.132 35.1387 145.824 35.1387 146.678V152.382C35.1387 153.236 35.8306 153.928 36.684 153.928H38.4376C39.2911 153.928 39.983 153.236 39.983 152.382V146.678C39.983 145.824 39.2911 145.132 38.4376 145.132Z" fill="#F0F0F0"/>
<path d="M38.4376 159.227H36.684C35.8306 159.227 35.1387 159.919 35.1387 160.772V166.477C35.1387 167.33 35.8306 168.022 36.684 168.022H38.4376C39.2911 168.022 39.983 167.33 39.983 166.477V160.772C39.983 159.919 39.2911 159.227 38.4376 159.227Z" fill="#F0F0F0"/>
<path d="M41.2315 209.555H33.8828C33.8828 209.139 34.0479 208.741 34.3419 208.447C34.6358 208.153 35.0344 207.988 35.4501 207.988H39.6642C40.0799 207.988 40.4785 208.153 40.7724 208.447C41.0664 208.741 41.2315 209.139 41.2315 209.555Z" fill="#F0F0F0"/>
<path d="M38.722 134.002H36.3984V135.422H38.722V134.002Z" fill="#E0E0E0"/>
<path d="M52.7781 111.463L116.916 111.463L116.916 47.1499L52.7781 47.1499L52.7781 111.463Z" fill="#F0F0F0"/>
<path d="M52.7788 47.1499H51.6719V111.463H52.7788V47.1499Z" fill="#E0E0E0"/>
<path d="M58.4451 107.397H111.256V51.2105L58.4451 51.2105L58.4451 107.397Z" fill="#FAFAFA"/>
<path d="M81.8104 94.9463H87.8932C94.3337 94.9463 99.5547 89.7253 99.5547 83.2848V75.3224C99.5547 68.882 94.3337 63.661 87.8932 63.661H81.8104C75.37 63.661 70.149 68.882 70.149 75.3224V83.2848C70.149 89.7253 75.37 94.9463 81.8104 94.9463Z" fill="#F5F5F5"/>
<path d="M223.322 135.597H198.908V209.55H223.322V135.597Z" fill="#E6E6E6"/>
<path d="M211.403 209.555H223.322V199.346H198.908L211.403 209.555Z" fill="#FAFAFA"/>
<path d="M125.958 135.597H101.545V209.55H125.958V135.597Z" fill="#E6E6E6"/>
<path d="M223.315 135.597H115.557V206.037H223.315V135.597Z" fill="#FAFAFA"/>
<path d="M127.476 209.555H115.562V199.346H139.976L127.476 209.555Z" fill="#FAFAFA"/>
<path d="M214.076 161.846H124.807V179.475H214.076V161.846Z" fill="#F0F0F0"/>
<path d="M214.076 183.246H124.807V200.875H214.076V183.246Z" fill="#F0F0F0"/>
<path d="M192.815 163.731H146.065C145.161 163.731 144.294 163.372 143.655 162.733C143.015 162.094 142.656 161.227 142.656 160.323H196.223C196.224 160.771 196.136 161.214 195.965 161.628C195.794 162.042 195.543 162.418 195.227 162.735C194.91 163.051 194.534 163.302 194.12 163.473C193.706 163.644 193.263 163.732 192.815 163.731Z" fill="#FAFAFA"/>
<path d="M214.076 140.452H124.807V158.082H214.076V140.452Z" fill="#F0F0F0"/>
<path d="M192.815 142.337H146.065C145.16 142.336 144.293 141.976 143.654 141.335C143.015 140.695 142.656 139.828 142.656 138.923H196.223C196.224 139.371 196.136 139.815 195.965 140.229C195.794 140.644 195.543 141.02 195.227 141.337C194.91 141.654 194.534 141.906 194.12 142.077C193.706 142.249 193.263 142.337 192.815 142.337Z" fill="#FAFAFA"/>
<path d="M192.815 185.131H146.065C145.16 185.129 144.293 184.769 143.654 184.129C143.015 183.489 142.656 182.621 142.656 181.717H196.223C196.224 182.165 196.136 182.609 195.965 183.023C195.794 183.437 195.543 183.813 195.227 184.131C194.91 184.448 194.534 184.699 194.12 184.871C193.706 185.042 193.263 185.131 192.815 185.131Z" fill="#FAFAFA"/>
<path d="M137 234.303C195.681 234.303 243.251 231.526 243.251 228.1C243.251 224.674 195.681 221.896 137 221.896C78.3186 221.896 30.748 224.674 30.748 228.1C30.748 231.526 78.3186 234.303 137 234.303Z" fill="#F5F5F5"/>
<path d="M41.401 119.184H123.185C120.757 119.155 118.43 118.212 116.665 116.545C114.901 114.878 113.828 112.608 113.66 110.186L112.214 85.8113H30.4355L31.8768 110.186C32.0445 112.608 33.1172 114.878 34.8818 116.545C36.6464 118.212 38.9737 119.155 41.401 119.184Z" fill="#FF6D38"/>
<path opacity="0.6" d="M41.401 119.184H123.185C120.757 119.155 118.43 118.212 116.665 116.545C114.901 114.878 113.828 112.608 113.66 110.186L112.214 85.8113H30.4355L31.8768 110.186C32.0445 112.608 33.1172 114.878 34.8818 116.545C36.6464 118.212 38.9737 119.155 41.401 119.184Z" fill="white"/>
<path d="M129.245 69.596H56.4434C55.2828 69.5823 54.132 69.8097 53.0638 70.2639C51.9957 70.718 51.0335 71.389 50.2381 72.2343C49.4428 73.0797 48.8316 74.0809 48.4433 75.1747C48.0549 76.2685 47.898 77.431 47.9822 78.5886L49.8674 110.192C49.9533 111.35 49.7975 112.513 49.4098 113.608C49.0221 114.702 48.411 115.704 47.6153 116.55C46.8196 117.395 45.8567 118.066 44.7878 118.52C43.7189 118.974 42.5673 119.2 41.4062 119.184H123.184C124.345 119.2 125.497 118.974 126.566 118.52C127.635 118.066 128.598 117.395 129.393 116.55C130.189 115.704 130.8 114.702 131.188 113.608C131.576 112.513 131.731 111.35 131.645 110.192L131.848 113.611L129.777 78.6106C129.688 77.4508 129.841 76.2852 130.227 75.1881C130.614 74.0909 131.224 73.0862 132.02 72.2381C132.816 71.39 133.78 70.7171 134.851 70.2622C135.921 69.8073 137.075 69.5804 138.238 69.596H129.245Z" fill="#FF6D38"/>
<path d="M138.238 69.5959H56.4434C58.8706 69.6233 61.1985 70.5639 62.9635 72.2303C64.7285 73.8968 65.8011 76.1669 65.9676 78.5886L73.0094 197.335H154.787L147.762 78.6105C147.598 76.1859 146.527 73.9118 144.762 72.2413C142.997 70.5707 140.668 69.6262 138.238 69.5959Z" fill="#FF6D38"/>
<path opacity="0.8" d="M138.238 69.5959H56.4434C58.8706 69.6233 61.1985 70.5639 62.9635 72.2303C64.7285 73.8968 65.8011 76.1669 65.9676 78.5886L73.0094 197.335H154.787L147.762 78.6105C147.598 76.1859 146.527 73.9118 144.762 72.2413C142.997 70.5707 140.668 69.6262 138.238 69.5959Z" fill="white"/>
<path d="M93.5221 103.397H78.3644L77.4492 88.228H92.6124L93.5221 103.397ZM80.0084 101.61H91.6095L90.9684 90.009H79.3453L80.0084 101.61Z" fill="white"/>
<path d="M95.6373 139.077H80.4632L79.5645 123.903H94.7386L95.6373 139.077ZM82.1401 137.29H93.7412L93.0562 125.689H81.4551L82.1401 137.29Z" fill="white"/>
<path d="M97.7471 174.757H82.573L81.6523 159.583H96.8265L97.7471 174.757ZM84.2553 172.971H95.8565L95.166 161.369H83.5649L84.2553 172.971Z" fill="white"/>
<path d="M135.815 88.2224H100.93V90.0089H135.815V88.2224Z" fill="white"/>
<path d="M132.111 94.9189H101.324V96.7054H132.111V94.9189Z" fill="white"/>
<path d="M136.604 101.61H101.719V103.397H136.604V101.61Z" fill="white"/>
<path d="M137.927 123.903H103.041V125.689H137.927V123.903Z" fill="white"/>
<path d="M123.914 130.599H103.436V132.386H123.914V130.599Z" fill="white"/>
<path d="M114.405 137.291H103.834V139.077H114.405V137.291Z" fill="white"/>
<path d="M138.72 137.291H121.277V139.077H138.72V137.291Z" fill="white"/>
<path d="M140.036 159.583H105.15V161.369H140.036V159.583Z" fill="white"/>
<path d="M140.436 166.28H105.551V168.066H140.436V166.28Z" fill="white"/>
<path d="M125.24 172.971H105.945V174.757H125.24V172.971Z" fill="white"/>
<path d="M86.9282 99.8238C86.549 99.8242 86.1842 99.679 85.9089 99.4182L82.199 95.9001C82.0572 95.7659 81.9432 95.605 81.8636 95.4268C81.784 95.2485 81.7403 95.0564 81.7349 94.8612C81.7241 94.4671 81.8704 94.0848 82.1414 93.7985C82.4125 93.5122 82.7862 93.3453 83.1803 93.3345C83.5744 93.3237 83.9567 93.4699 84.243 93.741L86.8844 96.2344L92.8302 89.9159C93.1005 89.6289 93.4738 89.461 93.8679 89.4492C94.262 89.4373 94.6447 89.5826 94.9317 89.8529C95.2188 90.1232 95.3867 90.4965 95.3985 90.8906C95.4103 91.2848 95.2651 91.6674 94.9948 91.9545L88.0297 99.358C87.8962 99.5014 87.7352 99.6165 87.5563 99.6965C87.3775 99.7765 87.1844 99.8198 86.9885 99.8238H86.9282Z" fill="#FF6D38"/>
<path d="M89.044 135.504C88.6646 135.505 88.2993 135.36 88.0247 135.098L84.2983 131.58C84.1515 131.448 84.0327 131.287 83.9488 131.108C83.8649 130.929 83.8176 130.735 83.8098 130.537C83.8019 130.34 83.8336 130.142 83.903 129.957C83.9724 129.772 84.0781 129.602 84.2138 129.459C84.3496 129.315 84.5128 129.2 84.6937 129.12C84.8746 129.04 85.0697 128.997 85.2675 128.993C85.4652 128.99 85.6617 129.026 85.8453 129.099C86.029 129.173 86.1961 129.282 86.3369 129.421L88.9837 131.915L94.924 125.596C95.1943 125.309 95.5676 125.141 95.9618 125.129C96.3559 125.118 96.7386 125.263 97.0256 125.533C97.3126 125.803 97.4805 126.177 97.4924 126.571C97.5042 126.965 97.3589 127.348 97.0886 127.635L90.1235 135.038C89.9909 135.181 89.8308 135.296 89.6529 135.376C89.475 135.456 89.2828 135.5 89.0878 135.504H89.044Z" fill="#FF6D38"/>
<path d="M91.1534 171.19C90.7733 171.189 90.4082 171.042 90.1341 170.779L86.4077 167.26C86.2609 167.128 86.1421 166.967 86.0582 166.788C85.9743 166.609 85.927 166.415 85.9191 166.217C85.9113 166.02 85.943 165.823 86.0124 165.637C86.0818 165.452 86.1874 165.283 86.3232 165.139C86.459 164.995 86.6222 164.88 86.8031 164.8C86.984 164.72 87.1791 164.677 87.3769 164.673C87.5746 164.67 87.7711 164.706 87.9547 164.78C88.1384 164.853 88.3055 164.962 88.4462 165.101L91.0931 167.595L97.0389 161.276C97.3173 161.037 97.6744 160.91 98.0413 160.918C98.4083 160.927 98.759 161.071 99.0259 161.323C99.2928 161.575 99.457 161.917 99.4868 162.282C99.5165 162.648 99.4097 163.012 99.187 163.304L92.222 170.707C92.0879 170.85 91.9268 170.965 91.748 171.045C91.5693 171.125 91.3765 171.168 91.1808 171.173L91.1534 171.19Z" fill="#FF6D38"/>
<path d="M169.747 87.1997L159.104 89.8159L190.865 219.029L201.508 216.413L169.747 87.1997Z" fill="#FF6D38"/>
<path opacity="0.2" d="M169.741 87.1987L166.5 87.9954L198.262 217.209L201.503 216.412L169.741 87.1987Z" fill="black"/>
<path d="M200.704 218.335L192.455 220.363C191.794 220.525 191.39 221.193 191.552 221.855L192.933 227.474C193.096 228.135 193.764 228.54 194.425 228.377L202.674 226.35C203.335 226.187 203.739 225.519 203.577 224.858L202.195 219.238C202.033 218.577 201.365 218.173 200.704 218.335Z" fill="#FF6D38"/>
<path opacity="0.7" d="M200.704 218.335L192.455 220.363C191.794 220.525 191.39 221.193 191.552 221.855L192.933 227.474C193.096 228.135 193.764 228.54 194.425 228.377L202.674 226.35C203.335 226.187 203.739 225.519 203.577 224.858L202.195 219.238C202.033 218.577 201.365 218.173 200.704 218.335Z" fill="white"/>
<path d="M200.768 214.554L190.652 217.041C190.041 217.191 189.667 217.808 189.817 218.42L190.722 222.102C190.872 222.713 191.49 223.087 192.101 222.937L202.218 220.45C202.829 220.3 203.203 219.683 203.052 219.071L202.147 215.389C201.997 214.777 201.379 214.404 200.768 214.554Z" fill="#E0E0E0"/>
<path d="M169.748 87.1869L159.105 89.8063L160.355 80.9013L161.155 75.1912L164.514 79.8766L169.748 87.1869Z" fill="#E0E0E0"/>
<path d="M164.515 79.8766L160.355 80.9013L161.156 75.1912L164.515 79.8766Z" fill="#FF6D38"/>
<path d="M197.237 78.7366C197.182 82.0246 196.546 88.2225 198.278 90.2446C194.298 91.5536 190.729 93.8811 187.926 96.9959C185.553 93.1161 188.65 91.0282 188.65 91.0282C192.064 89.9322 191.855 87.3621 191.138 85.0002L197.237 78.7366Z" fill="#FFB573"/>
<path d="M186.918 93.6477C187.822 90.2885 185.274 89.8117 189.521 88.1677C192.842 86.8525 199.116 86.6662 200.591 87.7238C201.407 88.3157 200.284 90.3871 200.284 90.3871L186.918 93.6477Z" fill="#263238"/>
<path d="M205.324 92.9243C205.571 93.3188 205.746 93.6202 205.944 93.9655C206.141 94.3107 206.305 94.6286 206.492 94.9628C206.842 95.6314 207.171 96.3 207.489 96.9795C208.125 98.333 208.678 99.7195 209.188 101.122C210.211 103.964 210.946 106.901 211.38 109.89L211.522 111.019C211.55 111.178 211.571 111.463 211.588 111.71C211.604 111.956 211.588 112.181 211.588 112.4C211.575 113.209 211.515 114.016 211.407 114.817C211.215 116.329 210.925 117.76 210.607 119.201C209.96 122.012 209.142 124.781 208.157 127.492C208.027 127.86 207.767 128.167 207.426 128.357C207.085 128.547 206.686 128.606 206.305 128.523C205.924 128.441 205.585 128.222 205.353 127.908C205.122 127.594 205.012 127.207 205.045 126.818C205.264 124.034 205.522 121.228 205.724 118.488C205.823 117.118 205.9 115.748 205.922 114.455C205.922 113.814 205.922 113.178 205.861 112.647L205.812 112.28L205.741 111.923L205.538 110.97C204.953 108.402 204.165 105.884 203.182 103.44C202.688 102.213 202.157 100.996 201.598 99.7962C201.32 99.1934 201.03 98.6016 200.727 98.0207L200.266 97.1548L199.833 96.3602L199.757 96.2178C199.357 95.4819 199.261 94.6194 199.487 93.8134C199.714 93.0075 200.245 92.3215 200.969 91.9013C201.694 91.4811 202.553 91.3598 203.365 91.5631C204.177 91.7664 204.878 92.2783 205.319 92.99L205.324 92.9243Z" fill="#FFB573"/>
<path d="M203.855 128.599L204.31 127.843L205.593 125.684L207.944 127.015C208.431 129.207 206.941 131.147 206.941 131.147L206.278 131.695C206.052 131.892 205.759 131.995 205.46 131.984C205.161 131.973 204.877 131.848 204.667 131.635L204.157 131.164C203.836 130.826 203.634 130.394 203.579 129.932C203.525 129.469 203.622 129.002 203.855 128.599Z" fill="#FFB573"/>
<path d="M172.62 127.481L172.242 126.111C172.153 125.789 171.942 125.514 171.653 125.346C171.364 125.178 171.02 125.13 170.696 125.213L169.052 125.635L168.039 125.887C167.505 126.026 167.032 126.335 166.69 126.767C166.348 127.199 166.156 127.73 166.143 128.281V129.098C166.14 129.454 166.273 129.797 166.514 130.058C166.755 130.32 167.087 130.48 167.441 130.506L168.455 130.605C169.976 130.363 171.37 129.613 172.412 128.479C172.525 128.342 172.603 128.179 172.639 128.006C172.675 127.832 172.669 127.652 172.62 127.481Z" fill="#FFB573"/>
<path d="M202.585 90.5131C205.462 91.7899 208.098 94.8313 210.257 100.459C209.566 102.777 202.437 106.575 202.437 106.575C202.437 106.575 193.543 87.7183 202.585 90.5131Z" fill="#FF6D38"/>
<path d="M178.785 97.7195C178.813 99.8073 175.355 104.646 179.333 107.452C179.679 111.677 180.144 115.836 181.049 122.769H202.327C200.305 115.097 202.053 109.945 205.298 96.4645C205.483 95.7401 205.509 94.9842 205.375 94.2486C205.241 93.513 204.95 92.8151 204.521 92.2025C204.092 91.59 203.536 91.0774 202.891 90.6997C202.245 90.3221 201.526 90.0884 200.782 90.0146C199.933 89.9324 199.034 89.8611 198.119 89.8118C194.901 89.5813 191.67 89.5813 188.452 89.8118C187.405 89.905 186.326 90.0365 185.29 90.179C183.48 90.4427 181.826 91.3505 180.631 92.7356C179.436 94.1207 178.781 95.8902 178.785 97.7195Z" fill="#FF6D38"/>
<path d="M185.832 95.6862C185.881 97.2535 185.832 98.755 185.832 100.289C185.832 101.824 185.733 103.342 185.635 104.876C185.465 107.987 185.099 111.084 184.539 114.148C184.473 114.537 184.369 114.943 184.276 115.338C184.182 115.732 184.1 116.127 183.974 116.543L183.799 117.151L183.706 117.458C183.67 117.596 183.626 117.732 183.574 117.864C183.345 118.454 183.031 119.008 182.643 119.508C182.108 120.201 181.524 120.855 180.894 121.464C180.319 122.04 179.733 122.56 179.141 123.108C176.81 125.116 174.334 126.948 171.732 128.588C171.405 128.793 171.016 128.875 170.634 128.817C170.253 128.759 169.904 128.567 169.653 128.274C169.401 127.981 169.263 127.608 169.264 127.222C169.264 126.837 169.403 126.464 169.655 126.171C171.611 123.941 173.628 121.727 175.508 119.535C175.968 118.987 176.417 118.439 176.845 117.891C177.246 117.404 177.612 116.89 177.941 116.351C178.072 116.149 178.154 115.902 178.083 116.039C178.012 116.176 178.083 115.968 178.083 115.907L178.132 115.666L178.237 115.19C178.313 114.883 178.357 114.537 178.412 114.203C178.467 113.869 178.533 113.535 178.565 113.184C178.938 110.416 179.113 107.501 179.218 104.586C179.322 101.67 179.387 98.7003 179.404 95.8178C179.399 95.3953 179.478 94.9761 179.635 94.5841C179.792 94.192 180.025 93.8348 180.321 93.5327C180.917 92.9228 181.732 92.5748 182.585 92.5654C183.438 92.5559 184.26 92.8858 184.87 93.4824C185.48 94.0789 185.828 94.8934 185.837 95.7465L185.832 95.6862Z" fill="#FFB573"/>
<path d="M183.487 90.6667C180.862 91.9709 178.259 94.5027 177.18 100.301C177.865 102.597 187.246 107.019 187.246 107.019C187.246 107.019 192.469 87.3129 183.487 90.6667Z" fill="#FF6D38"/>
<path d="M184.061 76.6433C184.133 77.0543 183.968 77.4379 183.694 77.4872C183.42 77.5365 183.146 77.2515 183.075 76.8351C183.004 76.4186 183.174 76.0405 183.442 75.9911C183.711 75.9418 183.996 76.2268 184.061 76.6433Z" fill="#263238"/>
<path d="M183.58 75.9856L182.533 75.8979C182.533 75.8979 183.163 76.572 183.58 75.9856Z" fill="#263238"/>
<path d="M183.963 77.1035C183.748 78.1252 183.395 79.1132 182.916 80.0408C183.156 80.1529 183.418 80.211 183.683 80.211C183.948 80.211 184.21 80.1529 184.45 80.0408L183.963 77.1035Z" fill="#ED893E"/>
<path d="M182.977 73.8157C182.915 73.8152 182.854 73.7918 182.808 73.75C182.784 73.727 182.766 73.6997 182.753 73.6696C182.741 73.6395 182.734 73.6072 182.734 73.5746C182.734 73.542 182.741 73.5097 182.753 73.4796C182.766 73.4495 182.784 73.4222 182.808 73.3992C183.075 73.1044 183.409 72.8772 183.781 72.7362C184.154 72.5953 184.554 72.5445 184.95 72.5882C184.982 72.5941 185.012 72.6062 185.038 72.6237C185.065 72.6413 185.088 72.664 185.106 72.6905C185.124 72.7171 185.136 72.7469 185.142 72.7782C185.149 72.8096 185.148 72.8418 185.142 72.8732C185.129 72.9388 185.09 72.9967 185.035 73.0345C184.98 73.0724 184.912 73.0872 184.846 73.0759C184.533 73.0474 184.217 73.0925 183.924 73.2076C183.631 73.3228 183.369 73.5047 183.158 73.739C183.111 73.7875 183.046 73.815 182.977 73.8157Z" fill="#263238"/>
<path d="M197.625 72.5608C198.173 77.712 198.502 79.8821 196.403 82.9728C193.241 87.6582 186.885 87.3568 184.841 82.5179C182.999 78.1339 182.424 70.4619 187.005 67.4699C187.991 66.7978 189.135 66.3965 190.325 66.3062C191.514 66.2159 192.706 66.4397 193.782 66.9553C194.858 67.471 195.779 68.2602 196.454 69.244C197.128 70.2278 197.532 71.3716 197.625 72.5608Z" fill="#FFB573"/>
<path d="M188.255 76.3254C184.967 75.7446 184.173 71.9688 185.389 70.3248C179.849 70.5714 176.117 64.3736 182.101 60.839C188.085 57.3044 193.368 62.7789 192.941 64.8448C200.311 64.1763 204.629 70.2426 200.613 74.7527C205.912 75.613 213.847 81.5862 208.022 87.8608C215.896 89.0171 216.751 113.677 195.313 109.293C172.714 104.668 192.349 85.0003 192.349 85.0003C192.349 85.0003 186.622 83.3892 188.255 76.3254Z" fill="#263238"/>
<path d="M209.249 89.4664L208.783 89.1814C210.772 85.9482 211.101 83.0055 209.758 80.4134C208.032 77.1254 203.845 75.1855 200.596 74.9992L200.629 74.4512C204.026 74.643 208.427 76.6432 210.246 80.1559C211.66 82.8959 211.315 86.1071 209.249 89.4664Z" fill="#263238"/>
<path d="M203.018 75.3061C204.908 74.9938 204.015 71.9085 202.623 71.092C201.231 70.2755 194.562 71.6016 195.297 73.7279C196.031 75.8541 200.481 75.7281 203.018 75.3061Z" fill="white"/>
<path d="M203.356 74.528C205.241 74.1663 204.485 71.6674 203.071 70.8838C201.657 70.1001 195.832 70.681 196.627 72.7799C197.421 74.8787 200.835 75.0267 203.356 74.528Z" fill="#FF6D38"/>
<path d="M183.607 70.9496C182.344 70.9326 181.123 70.4949 180.138 69.7057C178.565 68.4836 177.699 66.6533 177.946 65.0422C178.094 64.0174 178.735 62.6091 180.971 61.7158L181.174 62.2255C179.595 62.8557 178.669 63.8695 178.488 65.1189C178.291 66.5437 179.075 68.1713 180.494 69.2727C181.153 69.8217 181.945 70.1853 182.791 70.3259C183.637 70.4666 184.505 70.3792 185.306 70.0728L185.514 70.5825C184.909 70.83 184.26 70.9548 183.607 70.9496Z" fill="#263238"/>
<path d="M189.553 76.9283C189.307 78.2763 189.23 78.8517 188.529 79.4819C188.329 79.7049 188.067 79.8625 187.777 79.934C187.486 80.0056 187.181 79.9878 186.901 79.883C186.621 79.7782 186.379 79.5912 186.207 79.3466C186.035 79.1019 185.941 78.811 185.937 78.512C185.827 77.2735 186.249 75.2788 187.504 74.8623C188.759 74.4458 189.8 75.5857 189.553 76.9283Z" fill="#FFB573"/>
<path d="M186.527 81.2191L186.083 80.4245C186.065 80.392 186.055 80.3552 186.055 80.3177C186.055 80.2801 186.065 80.2433 186.083 80.2108L186.527 79.4217C186.546 79.3874 186.574 79.3589 186.608 79.339C186.641 79.3191 186.68 79.3086 186.719 79.3086C186.758 79.3086 186.797 79.3191 186.83 79.339C186.864 79.3589 186.892 79.3874 186.911 79.4217L187.355 80.2108C187.373 80.2433 187.383 80.2801 187.383 80.3177C187.383 80.3552 187.373 80.392 187.355 80.4245L186.911 81.2191C186.892 81.2534 186.864 81.2819 186.83 81.3018C186.797 81.3217 186.758 81.3322 186.719 81.3322C186.68 81.3322 186.641 81.3217 186.608 81.3018C186.574 81.2819 186.546 81.2534 186.527 81.2191Z" fill="white"/>
<path d="M181.058 122.752C181.058 122.752 180.307 150.229 179.305 168.302C178.241 184.89 176.877 223.683 176.877 223.683L181.069 223.902C181.069 223.902 190.341 191.257 189.952 171.535C200.836 143.949 196.923 123.579 196.923 123.579L181.058 122.752Z" fill="#FFB573"/>
<path d="M177.19 221.94C177.097 221.873 176.985 221.836 176.87 221.836C176.755 221.836 176.642 221.873 176.549 221.94C174.537 223.433 172.1 224.244 169.595 224.253C166.811 224.373 167.496 225.897 171.48 226.406C176.165 226.987 177.168 227.952 178.681 228.33C180.193 228.708 181.393 227.557 181.366 224.379C181.363 224.27 181.329 224.165 181.266 224.076C181.204 223.987 181.117 223.919 181.015 223.88C179.668 223.386 178.385 222.735 177.19 221.94Z" fill="#263238"/>
<path d="M186.621 122.752C186.621 122.752 194.293 155.27 198.737 170.428C203.412 186.32 207.116 222.587 207.089 223.787H210.717C210.717 223.787 215.402 194.392 209.621 170.412C209.073 131.504 202.365 122.779 202.365 122.779L186.621 122.752Z" fill="#FFB573"/>
<path d="M206.996 222.488C206.901 222.449 206.797 222.442 206.698 222.468C206.599 222.493 206.511 222.551 206.448 222.631C205.511 223.847 204.831 225.195 202.064 226.379C199.773 227.354 201.039 228.691 204.623 228.204C208.837 227.623 208.897 228.308 210.317 228.308C211.736 228.308 212.405 226.894 211.369 223.82C211.336 223.718 211.276 223.627 211.194 223.558C211.113 223.488 211.014 223.442 210.909 223.425C209.571 223.272 208.257 222.957 206.996 222.488Z" fill="#263238"/>
<path d="M181.059 122.752C181.059 122.752 177.442 146.831 177.952 179.744C189.393 179.679 200.763 177.925 211.692 174.538C211.692 174.538 211.856 131.893 202.338 122.768C196.841 121.289 181.185 122.27 181.059 122.752Z" fill="#263238"/>
<path opacity="0.2" d="M181.48 175.07C181.445 175.07 181.411 175.056 181.385 175.031C181.36 175.007 181.345 174.973 181.343 174.938C180.318 153.922 182.806 124.253 182.828 123.974C182.829 123.956 182.833 123.938 182.841 123.921C182.849 123.905 182.86 123.89 182.874 123.878C182.888 123.866 182.905 123.858 182.922 123.852C182.94 123.847 182.958 123.846 182.976 123.848C182.994 123.849 183.012 123.854 183.028 123.862C183.044 123.871 183.058 123.882 183.07 123.896C183.082 123.909 183.091 123.925 183.096 123.943C183.102 123.96 183.104 123.978 183.102 123.996C183.075 124.297 180.592 153.944 181.617 174.96C181.619 174.978 181.616 174.996 181.61 175.014C181.605 175.031 181.595 175.047 181.583 175.06C181.57 175.073 181.555 175.084 181.539 175.091C181.522 175.099 181.504 175.102 181.486 175.102L181.48 175.07Z" fill="white"/>
<path opacity="0.2" d="M195.801 154.054L198.919 137.537L200.174 141.488L195.801 154.054Z" fill="black"/>
</svg>
