<svg width="229" height="229" viewBox="0 0 229 229" fill="none" xmlns="http://www.w3.org/2000/svg">
<path d="M168.819 11.3126L155.423 18.0314C154.932 18.24 154.514 18.5883 154.22 19.033C153.926 19.4777 153.769 19.999 153.77 20.5321V26.7976C153.758 32.4934 155.419 38.0674 158.547 42.8276C160.96 46.4916 164.162 51.2044 169.488 53.8928H171.888C177.819 52.0608 182.243 47.2656 184.946 43.1436C188.073 38.3832 189.734 32.8094 189.723 27.1136V20.5321C189.723 19.9997 189.566 19.4789 189.273 19.0344C188.98 18.5899 188.563 18.2412 188.074 18.0314L172.813 11.5278C172.131 11.2393 169.497 11.024 168.819 11.3126Z" fill="#E0E0E0"/>
<path d="M168.279 11.5278L153.019 18.0314C152.528 18.24 152.11 18.5883 151.816 19.033C151.522 19.4776 151.365 19.999 151.365 20.5321V26.7975C151.366 32.6021 153.088 38.2761 156.314 43.1017C159.54 47.9273 164.125 51.6875 169.488 53.9066C175.415 52.0746 179.839 47.2793 182.546 43.1573C185.674 38.3921 187.335 32.8137 187.323 27.1136V20.5321C187.323 19.999 187.166 19.4776 186.872 19.033C186.578 18.5883 186.16 18.24 185.669 18.0314L170.409 11.5278C170.072 11.3861 169.71 11.3131 169.344 11.3131C168.978 11.3131 168.616 11.3861 168.279 11.5278Z" fill="#F5F5F5"/>
<path d="M187.271 25.4143C187.292 25.509 187.301 25.6059 187.298 25.7028C187.298 25.9181 187.321 26.1929 187.335 26.5318C187.349 26.8707 187.372 27.3333 187.335 27.8463C187.298 28.3592 187.335 28.9455 187.253 29.5867C187.17 30.2279 187.147 30.9607 187.014 31.6889C186.955 32.0645 186.909 32.4538 186.831 32.8522C186.753 33.2507 186.657 33.6537 186.57 34.0705C186.148 35.8788 185.558 37.6437 184.807 39.3421C184.035 41.0322 183.116 42.6507 182.059 44.1786C181.55 44.8656 181.079 45.5526 180.575 46.0976C180.328 46.3861 180.117 46.6792 179.865 46.9357L179.169 47.6731C178.734 48.1311 178.29 48.5341 177.919 48.8914C177.548 49.2486 177.209 49.528 176.929 49.7524L176.329 50.2745C176.258 50.3397 176.18 50.3966 176.096 50.444C176.157 50.368 176.226 50.2989 176.302 50.2379L176.92 49.6837C177.19 49.4501 177.52 49.157 177.877 48.7677C178.235 48.3784 178.674 48.0212 179.096 47.5357L179.778 46.7892C180.012 46.5327 180.236 46.2396 180.474 45.951C180.969 45.3785 181.427 44.7144 181.926 44.0274C182.963 42.5065 183.867 40.8991 184.628 39.223C185.37 37.537 185.96 35.7882 186.392 33.9972L186.662 32.7881C186.744 32.3942 186.795 32.0049 186.859 31.6339C186.996 30.892 187.051 30.1912 187.12 29.55C187.188 28.9088 187.198 28.3318 187.234 27.8188C187.271 27.3058 187.266 26.8707 187.266 26.5089C187.266 26.1471 187.266 25.8952 187.266 25.6799C187.259 25.5915 187.26 25.5025 187.271 25.4143Z" fill="#E0E0E0"/>
<path d="M168.206 39.0354L159.453 32.0784L161.881 29.0235L167.752 33.6906L176.326 24.0955L179.234 26.6969L168.206 39.0354Z" fill="white"/>
<path d="M209.553 45.5985H207.895V36.5805C207.895 35.5601 207.49 34.5816 206.769 33.8601C206.047 33.1386 205.068 32.7333 204.048 32.7333C203.028 32.7333 202.049 33.1386 201.328 33.8601C200.606 34.5816 200.201 35.5601 200.201 36.5805V45.5985H198.543V36.5805C198.543 35.1228 199.122 33.7249 200.153 32.6942C201.183 31.6635 202.581 31.0845 204.039 31.0845C205.497 31.0845 206.895 31.6635 207.925 32.6942C208.956 33.7249 209.535 35.1228 209.535 36.5805L209.553 45.5985Z" fill="#EBEBEB"/>
<path d="M210.053 39.4795H198.04C197.26 39.4795 196.629 40.1111 196.629 40.8901V49.6975C196.629 50.4765 197.26 51.1081 198.04 51.1081H210.053C210.832 51.1081 211.464 50.4765 211.464 49.6975V40.8901C211.464 40.1111 210.832 39.4795 210.053 39.4795Z" fill="#EBEBEB"/>
<path d="M205.183 45.5939C205.331 45.4442 205.447 45.2667 205.526 45.0718C205.604 44.8768 205.643 44.6683 205.641 44.4581C205.643 44.1534 205.56 43.8541 205.401 43.594C205.243 43.3339 205.014 43.1234 204.742 42.9863C204.47 42.8491 204.165 42.7907 203.861 42.8177C203.558 42.8447 203.268 42.956 203.024 43.139C202.781 43.322 202.593 43.5695 202.482 43.8535C202.372 44.1375 202.343 44.4467 202.399 44.7463C202.455 45.0459 202.593 45.3239 202.799 45.5489C203.004 45.7739 203.269 45.9371 203.562 46.0199L203.214 47.5679H204.766L204.455 46.0199C204.726 45.9424 204.972 45.7956 205.169 45.5939" fill="#FAFAFA"/>
<path d="M21.2652 177.219C19.4864 176.105 17.4763 175.414 15.389 175.199C14.4272 175.098 13.3784 175.125 12.609 175.707C12.5196 175.758 12.4457 175.832 12.3949 175.922C12.3441 176.011 12.3184 176.113 12.3204 176.216C12.3673 176.361 12.4649 176.484 12.5952 176.564C13.8429 177.454 15.3105 177.985 16.8388 178.101C18.3671 178.216 19.8979 177.911 21.2652 177.219Z" fill="#E0E0E0"/>
<path d="M21.1137 177.054C19.7532 176.053 18.4827 174.936 17.3168 173.715C16.1486 172.484 15.3282 170.965 14.9398 169.313C14.8625 169.069 14.8392 168.81 14.8716 168.555C14.904 168.301 14.9914 168.056 15.1276 167.839C18.1504 170.202 20.5274 173.261 21.1137 177.054Z" fill="#E0E0E0"/>
<path d="M21.2331 177.196C20.9543 175.542 20.9792 173.852 21.3064 172.208C21.6427 170.55 22.5891 169.079 23.9582 168.086C24.4803 169.309 24.2559 170.719 23.8895 171.993C23.32 173.971 22.4304 175.843 21.256 177.534" fill="#E0E0E0"/>
<path d="M24.2015 182.513C22.4212 182.801 20.7744 183.635 19.4886 184.899C18.1363 186.128 17.1945 187.743 16.791 189.525C18.5589 189.415 20.0566 188.151 21.142 186.777C22.2275 185.403 22.974 183.85 24.1786 182.545" fill="#E0E0E0"/>
<path d="M24.846 183.36C24.137 181.561 23.8884 179.613 24.1227 177.694C24.3571 175.774 25.0669 173.944 26.188 172.368C27.2139 176.032 26.8337 180.154 24.846 183.36Z" fill="#E0E0E0"/>
<path d="M28.7616 188.027C27.1157 187.928 25.4767 188.313 24.0478 189.136C22.619 189.959 21.4632 191.184 20.7237 192.658C20.6276 192.855 20.536 193.116 20.6734 193.285C20.7422 193.353 20.8268 193.403 20.9195 193.43C21.0121 193.457 21.1101 193.461 21.2046 193.441C22.7893 193.34 24.1908 192.388 25.3495 191.302C26.5083 190.217 27.5205 188.962 28.7983 188.023" fill="#E0E0E0"/>
<path d="M28.6387 187.78C27.7949 185.063 27.7424 182.162 28.4876 179.417C28.7853 178.34 29.2799 177.209 30.2738 176.705C30.3136 176.679 30.3586 176.66 30.4059 176.651C30.4532 176.643 30.5018 176.644 30.5486 176.655C30.629 176.698 30.6897 176.77 30.7181 176.857C31.054 177.608 31.1988 178.431 31.1394 179.252C31.0807 180.071 30.9551 180.885 30.7639 181.684C30.4524 183.168 30.3059 184.762 29.4677 186.044C29.2764 186.353 29.1036 186.672 28.9502 187.001C28.799 187.326 28.799 187.459 28.6571 187.697" fill="#E0E0E0"/>
<path d="M39.0125 189.319C38.6637 187.792 38.6523 186.208 38.979 184.676C39.3057 183.145 39.9627 181.703 40.904 180.452C41.0368 180.273 41.2154 180.085 41.4399 180.104C41.7788 180.136 41.8658 180.589 41.8521 180.928C41.7116 183.935 40.7275 186.841 39.0125 189.314" fill="#E0E0E0"/>
<path d="M39.9473 189.96C41.7622 190.388 43.6485 190.418 45.4758 190.046C47.3032 189.674 49.0282 188.911 50.5316 187.807C48.7607 186.917 46.7354 186.669 44.8021 187.107C42.8876 187.565 41.1381 188.398 39.9473 189.96Z" fill="#E0E0E0"/>
<path d="M40.7344 188.014C42.7267 184.771 46.5418 182.655 50.3524 182.458C49.8944 184.006 48.644 185.206 47.2105 185.934C45.741 186.593 44.1874 187.047 42.5939 187.281C41.9801 187.4 41.1374 187.533 40.7619 188.014" fill="#E0E0E0"/>
<path d="M39.2089 178.565C39.813 176.738 40.2244 174.853 40.4363 172.941C40.6492 171.016 40.2587 169.073 39.3188 167.381C37.4593 170.976 37.2716 175.167 39.1539 178.762" fill="#E0E0E0"/>
<path d="M45.4648 175.414C47.6403 171.466 52.0738 168.31 56.5576 167.866C54.8264 172.176 50.109 175.506 45.4648 175.414Z" fill="#E0E0E0"/>
<path d="M44.1016 176.179C47.3396 176.673 50.1014 178.744 53.1287 179.998C53.7645 180.303 54.4683 180.437 55.1714 180.388C55.4981 180.383 55.8156 180.279 56.0812 180.089C56.3468 179.899 56.5478 179.632 56.6571 179.324C56.7663 179.016 56.7787 178.682 56.6924 178.367C56.6061 178.052 56.4253 177.771 56.1744 177.562C55.7459 177.161 55.2414 176.849 54.6905 176.646C51.3929 175.272 47.8526 175.24 44.3809 176.073" fill="#E0E0E0"/>
<path d="M42.2227 178.451C42.9555 178.661 43.2074 179.041 43.789 179.536C45.776 181.224 48.1277 182.428 50.659 183.053C50.9201 183.118 51.2636 183.145 51.3964 182.911C51.5292 182.678 51.3643 182.453 51.2178 182.27C50.1215 180.98 48.6974 180.01 47.0958 179.463C45.5157 178.872 44.1463 178.162 42.2593 178.318" fill="#E0E0E0"/>
<path d="M40.1074 164.724C41.4367 165.95 43.0076 166.883 44.7192 167.465C46.4308 168.048 48.2453 168.265 50.046 168.104C50.2133 168.11 50.3766 168.052 50.504 167.944C50.7559 167.669 50.4536 167.248 50.1651 167.028C47.2431 164.738 43.7027 163.822 40.1166 164.738" fill="#E0E0E0"/>
<path d="M42.6172 163.804C44.3764 162.51 46.4166 161.651 48.5712 161.296C50.7259 160.941 52.934 161.1 55.0152 161.761C53.3924 163.264 51.3115 164.177 49.107 164.353C46.9283 164.554 44.7313 164.368 42.6172 163.804Z" fill="#E0E0E0"/>
<path d="M41.6175 157.497C41.3336 154.58 41.5168 152.28 41.3152 149.349C41.3152 149.116 41.2511 148.836 41.0313 148.749C40.7244 148.635 40.4725 149.006 40.3718 149.317C39.9467 150.675 39.8375 152.112 40.0526 153.519C40.2678 154.925 40.8014 156.264 41.6129 157.433" fill="#E0E0E0"/>
<path d="M41.4082 157.818C43.321 156.591 44.9699 154.995 46.2584 153.123C47.2111 151.818 48.0171 150.256 47.8019 148.653C47.13 148.671 46.47 148.835 45.8681 149.134C45.2661 149.433 44.7366 149.86 44.3165 150.384C43.4847 151.44 42.8797 152.656 42.5395 153.957C42.1547 155.239 41.8845 156.558 41.4265 157.818" fill="#E0E0E0"/>
<path d="M46.1565 156.499C50.5119 154.892 54.5447 152.518 58.0645 149.491C56.6447 148.919 55.0188 149.262 53.599 149.835C50.3757 151.056 47.7127 153.417 46.1152 156.471" fill="#E0E0E0"/>
<path d="M42.7441 159.416C44.9324 159.727 47.1528 159.737 49.3439 159.448C51.4828 159.091 53.5071 158.239 55.504 157.401C55.6787 157.349 55.8285 157.235 55.9254 157.08C55.9555 156.987 55.9572 156.888 55.9303 156.794C55.9034 156.7 55.849 156.616 55.7742 156.554C55.6196 156.432 55.4395 156.348 55.2475 156.306C53.072 155.702 50.7271 155.986 48.5882 156.705C46.5511 157.402 44.5924 158.311 42.7441 159.416Z" fill="#E0E0E0"/>
<path d="M30.2287 164.825C28.7311 161.802 28.8547 158.276 30.1234 155.161C31.0394 156.535 31.1447 158.312 30.9798 159.966C30.815 161.619 30.3112 163.314 30.2745 164.971" fill="#E0E0E0"/>
<path d="M24.2326 161.807C22.3585 161.782 20.4999 162.149 18.7758 162.884C17.0517 163.619 15.5002 164.706 14.2207 166.075C16.1135 166.303 18.0305 165.948 19.7167 165.059C21.386 164.172 22.9606 163.118 24.4158 161.912" fill="#E0E0E0"/>
<path d="M20.2114 160.46C18.3794 160.314 16.6253 160.089 14.8665 160.625C13.9792 160.875 13.1561 161.313 12.4535 161.91C11.7508 162.507 11.1851 163.248 10.7949 164.083C12.5199 164.221 14.2503 163.894 15.8054 163.135C17.3514 162.378 18.826 161.482 20.2114 160.46Z" fill="#E0E0E0"/>
<path d="M26.1645 160.524C24.5202 159.448 22.8302 158.349 20.9158 157.9C19.0013 157.451 16.7938 157.785 15.4473 159.228C16.9953 160.144 18.8777 160.245 20.6776 160.245C22.4776 160.245 24.676 160.222 26.3706 160.822" fill="#E0E0E0"/>
<path d="M26.1751 160.612C23.3629 157.864 22.3004 152.89 23.4271 149.116C25.6461 152.514 26.6173 156.577 26.1751 160.612Z" fill="#E0E0E0"/>
<path d="M33.8926 152.789C34.4239 151.552 34.8086 150.261 35.2666 149.006C35.7002 147.732 36.3664 146.55 37.2314 145.52C38.1077 144.476 39.3596 143.818 40.7168 143.688C40.2833 145.591 39.4583 147.382 38.2944 148.948C37.1305 150.514 35.6533 151.82 33.9567 152.784" fill="#E0E0E0"/>
<path d="M32.5172 154.419C31.6424 153.21 30.6256 151.571 29.4348 150.668C28.244 149.766 26.6868 149.221 25.2441 149.565C25.9965 150.883 27.0454 152.008 28.3077 152.85C29.5701 153.693 31.0113 154.23 32.5172 154.419Z" fill="#E0E0E0"/>
<path d="M32.7875 152.89C32.1641 151.448 31.7032 149.941 31.4135 148.397C31.1257 146.834 31.3742 145.22 32.1188 143.817C33.6623 146.734 34.1615 149.867 32.8837 152.913" fill="#E0E0E0"/>
<path d="M33.9238 143.812C34.7986 140.922 37.4458 138.774 40.3083 137.812C40.6619 137.667 41.0455 137.61 41.4259 137.647C41.616 137.667 41.796 137.743 41.9428 137.865C42.0896 137.987 42.1967 138.151 42.2503 138.334C42.3556 138.824 41.948 139.25 41.5633 139.594C39.329 141.503 36.7299 142.938 33.9238 143.812Z" fill="#E0E0E0"/>
<path d="M33.956 141.462C34.0659 139.594 34.1804 137.702 34.7895 135.934C35.3987 134.166 36.5666 132.513 38.2657 131.739C38.5543 133.621 37.7253 135.495 36.7223 137.116C35.7193 138.737 34.5101 140.267 33.9102 142.076" fill="#E0E0E0"/>
<path d="M33.892 142.745C33.1684 140.638 33.0951 137.959 31.831 136.122C30.9471 134.84 29.541 133.965 28.7761 132.605C28.3168 133.909 28.3809 135.34 28.9548 136.598C29.529 137.843 30.3199 138.975 31.2906 139.942C32.2066 140.94 33.0218 141.691 33.892 142.745Z" fill="#E0E0E0"/>
<path d="M33.9247 204.827C33.8697 204.827 33.8193 190.766 33.8148 173.422C33.8102 156.077 33.856 142.012 33.9109 142.012C33.9659 142.012 34.0163 156.068 34.0209 173.422C34.0254 190.775 33.9796 204.827 33.9247 204.827Z" fill="#E0E0E0"/>
<path d="M46.2124 162.7C46.0444 162.785 45.8678 162.853 45.6857 162.901L44.2293 163.392C43.0019 163.808 41.3164 164.413 39.489 165.164C37.6616 165.915 35.967 166.57 34.996 167.413C34.6026 167.735 34.2891 168.144 34.08 168.608C33.938 168.938 33.9151 169.139 33.8968 169.139C33.8785 169.139 33.8968 169.084 33.8968 168.988C33.9201 168.85 33.9553 168.713 34.0022 168.581C34.1856 168.09 34.4877 167.653 34.8815 167.307C35.469 166.811 36.1264 166.403 36.8326 166.098C37.6112 165.732 38.4768 165.352 39.3928 164.976C41.2248 164.225 42.924 163.639 44.1652 163.254C44.7881 163.062 45.2919 162.92 45.6445 162.824C45.8295 162.765 46.0197 162.723 46.2124 162.7Z" fill="#E0E0E0"/>
<path d="M50.2429 152.807C50.1999 152.866 50.1491 152.918 50.0918 152.963L49.6338 153.389L47.9483 154.919L42.3424 159.911C40.1532 161.862 38.2616 163.721 36.9518 165.123C36.2922 165.823 35.7747 166.405 35.422 166.808L35.0144 167.266C34.9718 167.324 34.9209 167.375 34.8633 167.417C34.8975 167.353 34.9389 167.293 34.9869 167.239C35.0694 167.124 35.193 166.955 35.3625 166.749C35.6968 166.327 36.2006 165.732 36.8464 165.017C38.5381 163.168 40.3268 161.41 42.205 159.75C44.4034 157.808 46.4003 156.059 47.8522 154.804C48.5666 154.19 49.1529 153.691 49.5788 153.32L50.0368 152.926C50.0997 152.877 50.1691 152.837 50.2429 152.807Z" fill="#E0E0E0"/>
<path d="M39.9877 161.894C39.9281 161.866 40.3861 160.813 40.8441 159.476C41.3021 158.138 41.5174 157.016 41.5769 157.025C41.5294 157.886 41.3471 158.735 41.0365 159.54C40.8398 160.11 40.612 160.67 40.3541 161.216C40.262 161.457 40.1389 161.685 39.9877 161.894Z" fill="#E0E0E0"/>
<path d="M33.9375 170.403C33.8091 170.288 33.6953 170.157 33.5986 170.014L32.7329 168.906C32.0093 167.967 31.0063 166.671 29.8796 165.242C28.7529 163.813 27.7224 162.553 26.9713 161.633L26.1057 160.552C25.9898 160.423 25.887 160.284 25.7988 160.135C25.9325 160.245 26.0552 160.368 26.1652 160.501C26.3896 160.744 26.7102 161.106 27.0812 161.555C27.8598 162.471 28.9132 163.707 30.0399 165.127C31.1666 166.547 32.1513 167.875 32.8474 168.819C33.2001 169.277 33.4749 169.693 33.6627 169.968C33.7688 170.104 33.8609 170.249 33.9375 170.403Z" fill="#E0E0E0"/>
<path d="M31.2403 166.945C30.6972 166.345 30.3103 165.62 30.1136 164.834C29.8993 164.144 29.8124 163.421 29.8571 162.7H29.9487C29.9362 162.787 29.9066 162.871 29.8617 162.947C29.8617 162.947 29.8617 162.851 29.8617 162.686H29.9533C29.9961 163.389 30.1159 164.084 30.3105 164.761C30.5674 165.51 30.8781 166.241 31.2403 166.945Z" fill="#E0E0E0"/>
<path d="M27.7639 162.59C27.5203 162.407 27.2559 162.253 26.9762 162.132C26.2673 161.918 25.5207 161.859 24.7869 161.958C24.0439 162.012 23.3068 162.13 22.584 162.311C22.2836 162.403 21.9776 162.477 21.668 162.53C21.9354 162.365 22.2277 162.245 22.5336 162.173C23.2587 161.949 24.007 161.807 24.764 161.752C25.5238 161.651 26.2966 161.734 27.0174 161.995C27.3277 162.101 27.5916 162.311 27.7639 162.59Z" fill="#E0E0E0"/>
<path d="M26.9402 161.509C26.9402 161.541 26.4822 161.326 25.7311 161.051C23.7738 160.385 21.6792 160.227 19.6443 160.593C18.8657 160.731 18.3985 160.877 18.3848 160.845C18.4833 160.782 18.5916 160.735 18.7054 160.708C19.0049 160.603 19.3109 160.517 19.6214 160.451C20.6448 160.227 21.6955 160.153 22.7403 160.231C23.7833 160.313 24.8091 160.544 25.786 160.918C26.0811 161.031 26.3686 161.163 26.6471 161.312C26.7543 161.362 26.8532 161.429 26.9402 161.509Z" fill="#E0E0E0"/>
<path d="M33.8925 157.025C33.5339 156.025 33.2402 155.003 33.0132 153.966C32.7173 152.945 32.4878 151.906 32.3262 150.856C32.6851 151.856 32.9804 152.878 33.2101 153.915C33.5033 154.936 33.7312 155.975 33.8925 157.025Z" fill="#E0E0E0"/>
<path d="M33.9644 157.025C33.6829 156.392 33.3569 155.78 32.9889 155.193C32.5765 154.638 32.093 154.139 31.5508 153.709C31.7552 153.762 31.9448 153.861 32.105 153.998C32.5132 154.295 32.8678 154.659 33.1538 155.074C33.5914 155.642 33.871 156.315 33.9644 157.025Z" fill="#E0E0E0"/>
<path d="M33.9231 197.329C33.9231 197.329 33.859 196.99 33.6987 196.413C33.4742 195.573 33.1674 194.757 32.7827 193.977C31.4286 191.433 29.7539 189.074 27.7997 186.956C26.6867 185.682 25.6059 184.482 24.6899 183.333C23.8653 182.324 23.1211 181.252 22.464 180.127C22.022 179.367 21.6466 178.57 21.3419 177.745C21.2365 177.452 21.1633 177.223 21.122 177.067C21.0953 176.988 21.0753 176.907 21.0625 176.825C21.0625 176.825 21.1816 177.145 21.4152 177.718C21.7479 178.524 22.1398 179.305 22.5876 180.054C23.2587 181.161 24.0087 182.219 24.8318 183.218C25.7478 184.354 26.8379 185.545 27.9508 186.818C29.9193 188.949 31.5894 191.337 32.9155 193.917C33.2983 194.709 33.5947 195.54 33.7995 196.395C33.8537 196.628 33.895 196.863 33.9231 197.1C33.9302 197.177 33.9302 197.253 33.9231 197.329Z" fill="#E0E0E0"/>
<path d="M45.0304 184.789C44.8422 184.907 44.6481 185.016 44.4487 185.114C43.921 185.409 43.4158 185.743 42.9373 186.113C42.2285 186.661 41.5653 187.266 40.9542 187.922C40.258 188.655 39.5436 189.507 38.8108 190.423C37.3497 192.255 35.9803 193.885 35.1468 195.181C34.73 195.822 34.4277 196.363 34.2308 196.743C34.1366 196.945 34.0295 197.141 33.9102 197.329C33.9102 197.329 33.9102 197.27 33.9651 197.164C34.0201 197.059 34.0659 196.903 34.1575 196.706C34.4174 196.156 34.7111 195.622 35.0368 195.108C36.1493 193.438 37.3558 191.832 38.6505 190.299C39.3833 189.383 40.1115 188.531 40.8214 187.794C41.446 187.141 42.1247 186.541 42.8503 186.003C43.3452 185.632 43.8725 185.307 44.4258 185.032C44.5744 184.956 44.7273 184.888 44.8838 184.83C44.9785 184.794 45.0273 184.78 45.0304 184.789Z" fill="#E0E0E0"/>
<path d="M45.2458 188.856C44.8399 188.945 44.4282 189.005 44.0138 189.035C43.0254 189.136 42.0487 189.329 41.0963 189.612C40.1542 189.918 39.2714 190.383 38.4857 190.986C37.8857 191.444 37.6018 191.833 37.5697 191.815C37.5376 191.797 37.6155 191.701 37.7483 191.531C37.9396 191.292 38.1544 191.072 38.3895 190.876C39.1687 190.225 40.0659 189.731 41.0322 189.42C41.9965 189.132 42.9909 188.957 43.9954 188.898C44.4101 188.845 44.8286 188.832 45.2458 188.856Z" fill="#E0E0E0"/>
<path d="M37.9309 191.362C37.8668 191.325 38.4209 190.478 38.8469 189.337C39.2728 188.197 39.3461 187.18 39.4148 187.194C39.4539 187.412 39.4539 187.635 39.4148 187.853C39.3523 188.384 39.2325 188.906 39.0576 189.41C38.8692 189.909 38.6298 190.386 38.3431 190.835C38.2366 191.033 38.0972 191.211 37.9309 191.362Z" fill="#E0E0E0"/>
<path d="M48.6255 173.861C48.5658 173.907 48.4993 173.942 48.4286 173.967L47.8515 174.228C47.595 174.338 47.2881 174.475 46.9355 174.658C46.5828 174.841 46.1798 175.025 45.7584 175.277L45.0897 175.657C44.8562 175.794 44.6317 175.95 44.3798 176.115C43.8852 176.412 43.3906 176.783 42.8593 177.159C41.7367 178.011 40.6775 178.943 39.6899 179.948C38.7208 180.965 37.8283 182.052 37.0198 183.2C36.658 183.745 36.3053 184.253 36.0213 184.757C35.8794 185.004 35.7282 185.243 35.6 185.481L35.2656 186.168C35.0275 186.598 34.858 187.011 34.6886 187.363C34.5191 187.716 34.3909 188.027 34.2901 188.279C34.1893 188.531 34.1115 188.71 34.0474 188.865C34.0222 188.936 33.99 189.003 33.9512 189.067C33.9599 188.993 33.98 188.92 34.0107 188.852L34.2168 188.252C34.3084 187.991 34.4229 187.67 34.5832 187.313C34.7435 186.956 34.9038 186.534 35.1374 186.099C35.2473 185.875 35.3664 185.641 35.4855 185.403C35.6046 185.165 35.7557 184.945 35.9023 184.67C36.1816 184.157 36.5297 183.644 36.887 183.095C38.4946 180.744 40.4874 178.681 42.7814 176.994C43.3173 176.619 43.8211 176.252 44.3203 175.959C44.5722 175.808 44.8058 175.648 45.0394 175.501L45.7218 175.125C46.1523 174.883 46.5645 174.704 46.9172 174.535C47.2153 174.386 47.5211 174.253 47.8332 174.136L48.4286 173.907C48.4925 173.885 48.5585 173.87 48.6255 173.861Z" fill="#E0E0E0"/>
<path d="M39.8457 179.751C39.9183 179.469 40.0787 179.217 40.3037 179.032C40.8455 178.561 41.5367 178.296 42.2548 178.286C42.9568 178.282 43.6525 178.418 44.302 178.684C44.5763 178.773 44.8369 178.899 45.0761 179.06C44.7957 179.007 44.5212 178.927 44.2562 178.822C43.6139 178.6 42.939 178.486 42.2594 178.487C41.5856 178.502 40.934 178.731 40.3999 179.142C40.1993 179.33 40.014 179.534 39.8457 179.751Z" fill="#E0E0E0"/>
<path d="M38.5215 181.107C38.7822 180.533 38.9684 179.928 39.0757 179.307C39.1127 178.678 39.0712 178.048 38.952 177.429C39.0698 177.584 39.1484 177.764 39.181 177.956C39.4179 178.861 39.305 179.823 38.865 180.649C38.6909 180.96 38.5398 181.121 38.5215 181.107Z" fill="#E0E0E0"/>
<path d="M24.209 199.344C24.5113 204.721 26.1326 210.185 28.6241 215.713H39.4558C41.8328 210.24 43.3396 204.786 43.6053 199.344H24.209Z" fill="#E0E0E0"/>
<path d="M41.8511 208.042C41.8511 208.097 38.2833 208.143 33.8865 208.143C29.4897 208.143 25.9219 208.097 25.9219 208.042C25.9219 207.987 29.4851 207.932 33.8911 207.932C38.297 207.932 41.8511 207.987 41.8511 208.042Z" fill="#FAFAFA"/>
<path d="M41.6092 209.988C41.6092 210.043 38.2658 210.089 34.1438 210.089C30.0218 210.089 26.6738 210.043 26.6738 209.988C26.6738 209.933 30.0172 209.888 34.1438 209.888C38.2704 209.888 41.6092 209.933 41.6092 209.988Z" fill="#FAFAFA"/>
<path d="M28.798 202.894C28.9324 204.554 28.9324 206.222 28.798 207.882C28.6637 206.222 28.6637 204.554 28.798 202.894Z" fill="#FAFAFA"/>
<path d="M34.6027 202.894C34.7371 204.614 34.7371 206.341 34.6027 208.06C34.4684 206.341 34.4684 204.614 34.6027 202.894Z" fill="#FAFAFA"/>
<path d="M40.0519 202.83C40.1863 204.584 40.1863 206.347 40.0519 208.101C39.9176 206.347 39.9176 204.584 40.0519 202.83Z" fill="#FAFAFA"/>
<path d="M43.2626 202.894C43.2626 202.949 39.081 202.995 33.924 202.995C28.7669 202.995 24.5762 202.949 24.5762 202.894C24.5762 202.839 28.7623 202.793 33.924 202.793C39.0856 202.793 43.2626 202.816 43.2626 202.894Z" fill="#FAFAFA"/>
<path d="M211.316 152.757C212.307 152.319 213.148 151.6 213.735 150.689C214.322 149.778 214.629 148.715 214.618 147.632C214.618 144.572 212.328 142.081 209.447 142.072C206.566 142.062 204.239 144.526 204.23 147.568C204.21 148.66 204.512 149.733 205.101 150.654C205.689 151.574 206.537 152.299 207.537 152.738C199.545 153.943 199.907 162.627 199.907 162.627L218.808 162.714C218.808 162.714 219.239 153.952 211.316 152.757Z" fill="#EBEBEB"/>
<path d="M126.348 26.4769C127.044 26.3402 127.686 26.0043 128.195 25.5099C128.704 25.0156 129.058 24.3842 129.215 23.6923C129.345 23.2483 129.384 22.7823 129.328 22.323C129.273 21.8636 129.124 21.4203 128.891 21.0203C128.659 20.6202 128.347 20.2717 127.976 19.996C127.604 19.7203 127.18 19.5232 126.73 19.4167C126.279 19.3102 125.812 19.2965 125.356 19.3765C124.901 19.4565 124.466 19.6285 124.079 19.882C123.692 20.1355 123.36 20.4652 123.105 20.851C122.849 21.2368 122.675 21.6706 122.592 22.1259C122.416 22.8203 122.45 23.5514 122.69 24.2265C122.93 24.9016 123.364 25.4904 123.939 25.9182C118.658 25.5014 117.609 31.0981 117.609 31.0981L129.655 33.9515C129.655 33.9515 131.23 28.3959 126.348 26.4769Z" fill="#EBEBEB"/>
<path d="M211.834 73.1013C212.411 72.74 212.87 72.2172 213.154 71.5977C213.437 70.9781 213.532 70.2891 213.428 69.6159C213.393 69.1702 213.268 68.7364 213.059 68.3411C212.85 67.9458 212.563 67.5975 212.214 67.3177C211.866 67.0379 211.464 66.8325 211.033 66.7142C210.602 66.596 210.151 66.5673 209.708 66.63C209.266 66.6927 208.841 66.8455 208.46 67.0789C208.078 67.3124 207.749 67.6214 207.492 67.9871C207.235 68.3527 207.056 68.7672 206.965 69.2049C206.874 69.6426 206.875 70.0942 206.965 70.5319C207.05 71.2134 207.335 71.8546 207.784 72.374C208.233 72.8934 208.827 73.2677 209.489 73.4493C204.629 74.9195 205.633 80.2873 205.633 80.2873L217.394 78.6431C217.394 78.6431 216.867 73.1333 211.834 73.1013Z" fill="#F5F5F5"/>
<path d="M23.12 74.764L16.7676 69.7122L18.5263 67.4955L22.7903 70.8801L29.0099 63.9231L31.1213 65.8101L23.12 74.764Z" fill="#F5F5F5"/>
<path d="M215.562 215.874C215.562 215.942 169.693 215.993 113.13 215.993C56.5673 215.993 10.6895 215.942 10.6895 215.874C10.6895 215.805 56.5444 215.755 113.13 215.755C169.716 215.755 215.562 215.81 215.562 215.874Z" fill="#263238"/>
<path d="M31.7866 82.0782L17.7397 89.1268C17.2301 89.3488 16.7967 89.7152 16.4931 90.1808C16.1895 90.6464 16.029 91.1907 16.0314 91.7466V98.3189C16.0152 104.297 17.756 110.148 21.0373 115.146C23.57 119.002 26.9272 123.93 32.5102 126.747H35.0292C41.2488 124.851 45.8884 119.799 48.7234 115.476C52.0061 110.479 53.7484 104.627 53.7339 98.6486V91.7466C53.7332 91.1884 53.5688 90.6428 53.2611 90.1771C52.9534 89.7115 52.5159 89.3463 52.0027 89.1268L35.9773 82.3072C35.2674 82.0049 32.5194 81.7759 31.7866 82.0782Z" fill="#FF6D38"/>
<path opacity="0.3" d="M31.7866 82.0782L17.7397 89.1268C17.2301 89.3488 16.7967 89.7152 16.4931 90.1808C16.1895 90.6464 16.029 91.1907 16.0314 91.7466V98.3189C16.0152 104.297 17.756 110.148 21.0373 115.146C23.57 119.002 26.9272 123.93 32.5102 126.747H35.0292C41.2488 124.851 45.8884 119.799 48.7234 115.476C52.0061 110.479 53.7484 104.627 53.7339 98.6486V91.7466C53.7332 91.1884 53.5688 90.6428 53.2611 90.1771C52.9534 89.7115 52.5159 89.3463 52.0027 89.1268L35.9773 82.3072C35.2674 82.0049 32.5194 81.7759 31.7866 82.0782Z" fill="black"/>
<path d="M31.2227 82.3072L15.2156 89.1268C14.7024 89.3463 14.2649 89.7115 13.9572 90.1771C13.6495 90.6428 13.4851 91.1884 13.4844 91.7466V98.3189C13.4847 104.406 15.2904 110.355 18.6729 115.416C22.0554 120.476 26.8627 124.419 32.4868 126.747C38.7019 124.851 43.3414 119.799 46.181 115.476C49.4637 110.479 51.206 104.627 51.1915 98.6486V91.7466C51.1912 91.1889 51.0275 90.6436 50.7206 90.1781C50.4137 89.7125 49.9772 89.347 49.4649 89.1268L33.4349 82.3072C33.0846 82.1602 32.7086 82.0845 32.3288 82.0845C31.949 82.0845 31.5729 82.1602 31.2227 82.3072Z" fill="#FF6D38"/>
<path opacity="0.3" d="M36.1372 112.117C41.54 110.021 44.221 103.943 42.1254 98.54C40.0298 93.1371 33.9511 90.4561 28.5483 92.5517C23.1455 94.6474 20.4645 100.726 22.5601 106.129C24.6557 111.532 30.7344 114.213 36.1372 112.117Z" fill="black"/>
<path d="M32.336 102.917C34.7416 102.917 36.6916 100.967 36.6916 98.5616C36.6916 96.1561 34.7416 94.2061 32.336 94.2061C29.9305 94.2061 27.9805 96.1561 27.9805 98.5616C27.9805 100.967 29.9305 102.917 32.336 102.917Z" fill="white"/>
<path d="M24.3848 109.173C25.0852 107.708 26.1907 106.474 27.5705 105.617C28.9503 104.76 30.5466 104.315 32.1708 104.337C33.8362 104.337 35.4707 104.787 36.9022 105.638C38.3337 106.489 39.5092 107.71 40.3048 109.173C40.3048 109.173 37.7355 112.975 32.0608 112.837C30.5902 112.831 29.1391 112.5 27.8119 111.866C26.4846 111.233 25.3142 110.313 24.3848 109.173Z" fill="white"/>
<path d="M42.8291 102.336C42.8239 102.279 42.8239 102.222 42.8291 102.166C42.8291 102.042 42.8291 101.878 42.7879 101.671C42.7879 101.562 42.7879 101.438 42.7879 101.305C42.7879 101.172 42.7421 101.026 42.7192 100.847C42.6714 100.484 42.598 100.124 42.4994 99.7708C42.2504 98.7927 41.8567 97.8572 41.3315 96.9953C40.6425 95.8515 39.7408 94.8502 38.6751 94.0458C37.3876 93.0667 35.8876 92.4046 34.2966 92.113C32.47 91.7768 30.5867 91.9349 28.8418 92.571C28.3696 92.7349 27.9103 92.934 27.4678 93.1664C27.0253 93.4089 26.5999 93.6813 26.1946 93.9817C25.7823 94.2919 25.3892 94.6268 25.0175 94.9847C24.6532 95.3624 24.3135 95.7632 24.0007 96.1846C23.3596 97.053 22.8602 98.0177 22.5214 99.0426C21.8068 101.167 21.8068 103.467 22.5214 105.592C22.8582 106.618 23.3577 107.583 24.0007 108.45C24.3135 108.873 24.6531 109.275 25.0175 109.654C25.388 110.012 25.7812 110.346 26.1946 110.653C26.9897 111.259 27.8753 111.737 28.8189 112.068C30.5638 112.704 32.4471 112.862 34.2737 112.526C35.7243 112.253 37.1009 111.676 38.3132 110.834C39.5256 109.992 40.5463 108.903 41.3086 107.639C41.828 106.783 42.2155 105.854 42.4581 104.882C42.5564 104.527 42.6298 104.166 42.678 103.801C42.678 103.645 42.7329 103.499 42.7467 103.343C42.7604 103.187 42.7467 103.087 42.7467 102.977L42.7879 102.478C42.7832 102.421 42.7832 102.364 42.7879 102.308C42.7928 102.364 42.7928 102.421 42.7879 102.478C42.7879 102.606 42.7879 102.771 42.7879 102.981C42.7879 103.091 42.7879 103.215 42.7879 103.348C42.7879 103.481 42.7513 103.632 42.7284 103.806C42.6917 104.176 42.6243 104.542 42.5268 104.9C42.2944 105.893 41.9097 106.843 41.3864 107.717C40.1418 109.842 38.1921 111.464 35.8761 112.3C33.5602 113.137 31.0242 113.136 28.709 112.297C28.2375 112.128 27.7784 111.926 27.335 111.693C26.8841 111.439 26.4525 111.153 26.0434 110.836C25.6174 110.524 25.2134 110.183 24.8343 109.815C24.4697 109.434 24.1301 109.03 23.8175 108.606C23.1582 107.719 22.6449 106.732 22.297 105.684C21.9491 104.601 21.7654 103.473 21.752 102.336C21.7647 101.198 21.95 100.069 22.3016 98.9876C22.646 97.9382 23.1579 96.9515 23.8175 96.0656C24.1395 95.6349 24.4883 95.225 24.8618 94.8381C25.2395 94.4706 25.642 94.1294 26.0663 93.8168C26.4724 93.5069 26.8994 93.2253 27.3441 92.9741C27.7875 92.7395 28.2466 92.536 28.7181 92.3649C30.4992 91.7196 32.4202 91.5615 34.2828 91.9069C35.7603 92.191 37.16 92.7874 38.3883 93.6562C39.6165 94.5251 40.645 95.6464 41.4047 96.9449C41.9282 97.8209 42.3129 98.7726 42.5452 99.7662C42.6426 100.123 42.71 100.488 42.7467 100.856C42.7467 101.017 42.7971 101.163 42.8062 101.314V101.685C42.8062 101.896 42.8062 102.061 42.8062 102.184C42.818 102.234 42.8257 102.285 42.8291 102.336Z" fill="#263238"/>
<path d="M51.1368 96.8669C51.1582 96.9678 51.1689 97.0707 51.1689 97.1738C51.1689 97.3936 51.1689 97.6822 51.2055 98.044C51.2422 98.4058 51.2422 98.8821 51.2055 99.418C51.2055 99.6882 51.2055 99.9722 51.2055 100.279C51.2055 100.586 51.2055 100.907 51.146 101.241C51.0819 101.914 51.0361 102.656 50.8941 103.444C50.8346 103.838 50.7842 104.245 50.7017 104.662C50.6193 105.079 50.5185 105.505 50.4269 105.945C49.9865 107.838 49.3733 109.687 48.5949 111.468C47.7906 113.24 46.8296 114.937 45.7233 116.538C45.192 117.257 44.7019 117.953 44.1707 118.553C43.9142 118.856 43.676 119.162 43.4241 119.433L42.6959 120.202C42.2379 120.71 41.7799 121.118 41.386 121.48C41.0565 121.804 40.7094 122.11 40.3464 122.396L39.6685 122.945C39.5942 123.012 39.5128 123.07 39.4258 123.12C39.4909 123.043 39.563 122.972 39.641 122.909L40.2868 122.327C40.5754 122.08 40.9189 121.773 41.2944 121.411C41.67 121.049 42.128 120.623 42.5722 120.115L43.2867 119.336C43.534 119.066 43.7447 118.759 44.0195 118.457C44.5371 117.857 45.018 117.161 45.5447 116.437C46.6318 114.843 47.5788 113.157 48.3751 111.399C49.1491 109.626 49.7622 107.786 50.2071 105.903L50.4911 104.63C50.5735 104.218 50.6285 103.81 50.6972 103.421C50.8437 102.642 50.8987 101.905 50.972 101.236C51.0132 100.902 51.0407 100.581 51.0498 100.279L51.091 99.4226C51.1323 98.8867 51.1231 98.4241 51.1231 98.0486C51.1231 97.673 51.1231 97.4028 51.1231 97.1784C51.1198 97.0744 51.1244 96.9703 51.1368 96.8669Z" fill="#263238"/>
<path d="M162.502 215.874H54.2036C53.4941 215.862 52.7939 215.71 52.143 215.427C51.4921 215.145 50.9033 214.736 50.4103 214.226C49.9173 213.716 49.5298 213.113 49.2698 212.453C49.0099 211.792 48.8827 211.087 48.8954 210.378V44.8473C48.8827 44.1378 49.0099 43.4327 49.2698 42.7724C49.5298 42.1121 49.9173 41.5095 50.4103 40.9991C50.9033 40.4886 51.4921 40.0804 52.143 39.7976C52.7939 39.5149 53.4941 39.3632 54.2036 39.3513H162.502C163.212 39.3632 163.912 39.5149 164.562 39.7977C165.213 40.0805 165.801 40.4888 166.294 40.9993C166.787 41.5098 167.174 42.1125 167.433 42.7728C167.693 43.433 167.819 44.138 167.806 44.8473V210.387C167.818 211.095 167.691 211.799 167.431 212.459C167.171 213.118 166.783 213.719 166.291 214.229C165.798 214.738 165.21 215.146 164.56 215.428C163.91 215.71 163.211 215.862 162.502 215.874Z" fill="#263238"/>
<path d="M110.427 207.845C110.444 208.845 110.163 209.827 109.62 210.667C109.077 211.507 108.297 212.166 107.378 212.561C106.459 212.956 105.443 213.068 104.46 212.884C103.477 212.699 102.572 212.226 101.858 211.525C101.145 210.824 100.656 209.927 100.455 208.947C100.253 207.968 100.348 206.95 100.727 206.025C101.105 205.099 101.751 204.307 102.581 203.749C103.411 203.192 104.389 202.894 105.389 202.894C106.713 202.883 107.988 203.398 108.933 204.327C109.877 205.255 110.415 206.521 110.427 207.845Z" fill="#455A64"/>
<path d="M120.535 48.6853H96.2612C96.0351 48.6818 95.8118 48.6337 95.6043 48.5438C95.3967 48.4539 95.2089 48.3241 95.0515 48.1616C94.8942 47.9991 94.7703 47.8072 94.6871 47.5969C94.6039 47.3866 94.563 47.1619 94.5666 46.9358C94.5593 46.4786 94.7336 46.0372 95.0512 45.7083C95.3689 45.3795 95.8041 45.1901 96.2612 45.1816H120.535C120.992 45.1901 121.428 45.3795 121.745 45.7083C122.063 46.0372 122.237 46.4786 122.23 46.9358C122.233 47.1619 122.193 47.3866 122.109 47.5969C122.026 47.8072 121.902 47.9991 121.745 48.1616C121.588 48.3241 121.4 48.4539 121.192 48.5438C120.985 48.6337 120.761 48.6818 120.535 48.6853Z" fill="#455A64"/>
<path d="M163.958 51.9509H52.5449V199.363H163.958V51.9509Z" fill="white"/>
<path d="M163.959 51.9509H159.205V199.363H163.959V51.9509Z" fill="#F5F5F5"/>
<path d="M161.577 104.914C161.184 104.913 160.808 104.756 160.531 104.478C160.253 104.2 160.098 103.823 160.098 103.43V70.825C160.098 70.4322 160.253 70.0555 160.531 69.7773C160.808 69.4992 161.184 69.3423 161.577 69.3411C161.971 69.3411 162.348 69.4974 162.626 69.7757C162.905 70.054 163.061 70.4314 163.061 70.825V103.43C163.061 103.824 162.905 104.201 162.626 104.479C162.348 104.758 161.971 104.914 161.577 104.914Z" fill="#E0E0E0"/>
<path d="M149.426 85.4995H67.2793C66.6525 85.4995 66.0514 85.2505 65.6082 84.8073C65.165 84.3641 64.916 83.763 64.916 83.1362C64.916 82.5095 65.165 81.9083 65.6082 81.4651C66.0514 81.0219 66.6525 80.7729 67.2793 80.7729H149.426C150.053 80.7729 150.654 81.0219 151.097 81.4651C151.54 81.9083 151.789 82.5095 151.789 83.1362C151.789 83.763 151.54 84.3641 151.097 84.8073C150.654 85.2505 150.053 85.4995 149.426 85.4995Z" fill="#E0E0E0"/>
<path d="M136.789 68.2419H85.1133C84.4865 68.2419 83.8854 67.993 83.4422 67.5498C82.999 67.1066 82.75 66.5054 82.75 65.8787C82.75 65.2519 82.999 64.6508 83.4422 64.2076C83.8854 63.7644 84.4865 63.5154 85.1133 63.5154H136.789C137.416 63.5154 138.017 63.7644 138.461 64.2076C138.904 64.6508 139.153 65.2519 139.153 65.8787C139.153 66.5054 138.904 67.1066 138.461 67.5498C138.017 67.993 137.416 68.2419 136.789 68.2419Z" fill="#FF6D38"/>
<path d="M137.762 95.012H78.9453C78.3185 95.012 77.7174 94.763 77.2742 94.3198C76.831 93.8766 76.582 93.2755 76.582 92.6487C76.582 92.0219 76.831 91.4208 77.2742 90.9776C77.7174 90.5344 78.3185 90.2854 78.9453 90.2854H137.762C138.072 90.2854 138.379 90.3465 138.666 90.4653C138.953 90.5841 139.213 90.7581 139.433 90.9776C139.652 91.197 139.826 91.4576 139.945 91.7443C140.064 92.031 140.125 92.3383 140.125 92.6487C140.125 92.959 140.064 93.2663 139.945 93.5531C139.826 93.8398 139.652 94.1003 139.433 94.3198C139.213 94.5392 138.953 94.7133 138.666 94.8321C138.379 94.9508 138.072 95.012 137.762 95.012Z" fill="#E0E0E0"/>
<path d="M111.206 136.484H65.9512C65.3244 136.484 64.7233 136.235 64.2801 135.792C63.8369 135.349 63.5879 134.747 63.5879 134.121C63.5879 133.81 63.649 133.503 63.7678 133.216C63.8866 132.929 64.0606 132.669 64.2801 132.45C64.4995 132.23 64.7601 132.056 65.0468 131.937C65.3335 131.818 65.6408 131.757 65.9512 131.757H111.206C111.517 131.757 111.824 131.818 112.111 131.937C112.397 132.056 112.658 132.23 112.877 132.45C113.097 132.669 113.271 132.929 113.39 133.216C113.508 133.503 113.569 133.81 113.569 134.121C113.569 134.747 113.32 135.349 112.877 135.792C112.434 136.235 111.833 136.484 111.206 136.484Z" fill="#E0E0E0"/>
<path d="M148.098 126.577H65.9512C65.3244 126.577 64.7233 126.328 64.2801 125.885C63.8369 125.442 63.5879 124.841 63.5879 124.214C63.5879 123.904 63.6491 123.597 63.7679 123.31C63.8867 123.024 64.0608 122.764 64.2804 122.545C64.4999 122.326 64.7604 122.152 65.0471 122.034C65.3338 121.915 65.641 121.855 65.9512 121.855H148.098C148.408 121.855 148.715 121.915 149.002 122.034C149.289 122.152 149.549 122.326 149.769 122.545C149.988 122.764 150.163 123.024 150.281 123.31C150.4 123.597 150.461 123.904 150.461 124.214C150.461 124.525 150.4 124.832 150.281 125.119C150.163 125.405 149.989 125.666 149.769 125.885C149.55 126.105 149.289 126.279 149.002 126.398C148.716 126.516 148.408 126.577 148.098 126.577Z" fill="#E0E0E0"/>
<path d="M148.099 153.728H76.1973C74.8921 153.728 73.834 154.786 73.834 156.091C73.834 157.396 74.8921 158.454 76.1973 158.454H148.099C149.404 158.454 150.462 157.396 150.462 156.091C150.462 154.786 149.404 153.728 148.099 153.728Z" fill="#E0E0E0"/>
<path d="M148.098 168.544H65.9512C65.3244 168.544 64.7233 168.295 64.2801 167.852C63.8369 167.409 63.5879 166.808 63.5879 166.181C63.5903 165.556 63.8404 164.957 64.2833 164.516C64.7263 164.074 65.326 163.827 65.9512 163.827H148.098C148.408 163.827 148.716 163.888 149.002 164.007C149.289 164.125 149.55 164.299 149.769 164.519C149.989 164.738 150.163 164.999 150.281 165.286C150.4 165.572 150.461 165.88 150.461 166.19C150.459 166.815 150.209 167.414 149.766 167.855C149.323 168.296 148.723 168.544 148.098 168.544Z" fill="#E0E0E0"/>
<path d="M148.098 178.812H65.9512C65.3244 178.812 64.7233 178.563 64.2801 178.12C63.8369 177.677 63.5879 177.076 63.5879 176.449C63.5879 175.822 63.8369 175.221 64.2801 174.778C64.7233 174.335 65.3244 174.086 65.9512 174.086H148.098C148.408 174.086 148.716 174.147 149.002 174.266C149.289 174.384 149.55 174.558 149.769 174.778C149.989 174.997 150.163 175.258 150.281 175.545C150.4 175.831 150.461 176.139 150.461 176.449C150.461 177.076 150.212 177.677 149.769 178.12C149.326 178.563 148.725 178.812 148.098 178.812Z" fill="#E0E0E0"/>
<path d="M69.648 156.091C69.648 156.577 69.504 157.051 69.234 157.455C68.9641 157.859 68.5804 158.174 68.1315 158.359C67.6827 158.545 67.1889 158.593 66.7126 158.498C66.2362 158.403 65.7988 158.169 65.4557 157.825C65.1125 157.481 64.8791 157.043 64.7849 156.567C64.6907 156.09 64.74 155.597 64.9265 155.148C65.113 154.7 65.4283 154.317 65.8326 154.047C66.2369 153.778 66.712 153.635 67.1977 153.636C67.848 153.637 68.4713 153.896 68.9306 154.357C69.39 154.817 69.648 155.441 69.648 156.091Z" fill="#FF6D38"/>
<path d="M148.097 117.349H76.1914C75.5646 117.349 74.9635 117.1 74.5203 116.656C74.0771 116.213 73.8281 115.612 73.8281 114.985C73.8281 114.359 74.0771 113.757 74.5203 113.314C74.9635 112.871 75.5646 112.622 76.1914 112.622H148.097C148.408 112.622 148.715 112.683 149.002 112.802C149.289 112.921 149.549 113.095 149.769 113.314C149.988 113.534 150.162 113.794 150.281 114.081C150.4 114.368 150.461 114.675 150.461 114.985C150.461 115.296 150.4 115.603 150.281 115.89C150.162 116.176 149.988 116.437 149.769 116.656C149.549 116.876 149.289 117.05 149.002 117.169C148.715 117.288 148.408 117.349 148.097 117.349Z" fill="#E0E0E0"/>
<path d="M67.1971 117.44C68.5529 117.44 69.6519 116.341 69.6519 114.985C69.6519 113.63 68.5529 112.531 67.1971 112.531C65.8413 112.531 64.7422 113.63 64.7422 114.985C64.7422 116.341 65.8413 117.44 67.1971 117.44Z" fill="#FF6D38"/>
<path d="M145.803 193.839H127.368C126.37 193.839 125.412 193.443 124.706 192.737C124 192.031 123.604 191.073 123.604 190.075C123.604 189.076 124 188.119 124.706 187.412C125.412 186.706 126.37 186.31 127.368 186.31H145.803C146.801 186.31 147.759 186.706 148.465 187.412C149.171 188.119 149.568 189.076 149.568 190.075C149.568 191.073 149.171 192.031 148.465 192.737C147.759 193.443 146.801 193.839 145.803 193.839Z" fill="#FF6D38"/>
<path d="M50.8377 16.1904L31.73 25.7764C31.0308 26.0736 30.4344 26.5699 30.015 27.2034C29.5956 27.837 29.3718 28.5798 29.3713 29.3396V38.2798C29.3487 46.4162 31.7186 54.3797 36.1863 61.1798C39.6305 66.4101 44.1921 73.1152 51.7904 76.9441H55.2162C63.6709 74.3656 69.9821 67.491 73.8431 61.6149C78.3108 54.8148 80.6807 46.8513 80.6581 38.7149V29.3396C80.6591 28.5819 80.438 27.8405 80.022 27.2072C79.606 26.5739 79.0135 26.0764 78.3177 25.7764L56.5352 16.4881C55.5643 16.0897 51.8087 15.7782 50.8377 16.1904Z" fill="#FF6D38"/>
<path opacity="0.3" d="M50.8377 16.1904L31.73 25.7764C31.0308 26.0736 30.4344 26.5699 30.015 27.2034C29.5956 27.837 29.3718 28.5798 29.3713 29.3396V38.2798C29.3487 46.4162 31.7186 54.3797 36.1863 61.1798C39.6305 66.4101 44.1921 73.1152 51.7904 76.9441H55.2162C63.6709 74.3656 69.9821 67.491 73.8431 61.6149C78.3108 54.8148 80.6807 46.8513 80.6581 38.7149V29.3396C80.6591 28.5819 80.438 27.8405 80.022 27.2072C79.606 26.5739 79.0135 26.0764 78.3177 25.7764L56.5352 16.4881C55.5643 16.0897 51.8087 15.7782 50.8377 16.1904Z" fill="black"/>
<path d="M50.0682 16.488L28.2994 25.7763C27.6007 26.0737 27.005 26.5702 26.5864 27.2038C26.1678 27.8374 25.9448 28.5801 25.9453 29.3395V38.2797C25.9464 46.5579 28.4025 54.6499 33.0029 61.5322C37.6033 68.4144 44.1414 73.7778 51.7903 76.944C60.2449 74.3655 66.5562 67.4909 70.4125 61.6148C74.8822 54.8156 77.2523 46.8515 77.2276 38.7148V29.3395C77.228 28.5801 77.0051 27.8374 76.5865 27.2038C76.1679 26.5702 75.5722 26.0737 74.8735 25.7763L53.1276 16.488C52.6442 16.2809 52.1238 16.1741 51.5979 16.1741C51.072 16.1741 50.5516 16.2809 50.0682 16.488Z" fill="#FF6D38"/>
<path d="M77.158 36.3057C77.1636 36.3406 77.1636 36.3761 77.158 36.411C77.158 36.4934 77.158 36.5942 77.158 36.7179C77.158 37.011 77.1809 37.4049 77.1992 37.9041C77.2175 38.4033 77.245 39.0445 77.1992 39.7773C77.1992 40.1437 77.1992 40.533 77.1625 40.9452C77.1625 41.1559 77.1625 41.3666 77.1625 41.5864C77.1625 41.8062 77.1213 42.0444 77.0984 42.2597C77.0068 43.1757 76.9473 44.1833 76.7549 45.2504C76.6679 45.7817 76.5992 46.3404 76.4893 46.9038C76.3794 47.4671 76.242 48.0488 76.1137 48.6442C75.5088 51.2186 74.6671 53.7315 73.5993 56.1508C72.5082 58.5591 71.2054 60.8658 69.7063 63.0437C68.9827 64.0238 68.3323 64.9719 67.5995 65.7917C67.2468 66.2039 66.9262 66.6207 66.5827 66.9871L65.5935 68.0405C64.9797 68.7275 64.3477 69.2725 63.821 69.7809C63.5508 70.0282 63.308 70.2664 63.0745 70.4725L62.4333 70.99L61.5173 71.7411L61.2745 71.9335C61.2196 71.9747 61.1875 71.993 61.1875 71.9884C61.1875 71.9839 61.1875 71.961 61.2562 71.9106L61.4852 71.7045L62.3691 70.9213L63.0149 70.358C63.2485 70.1519 63.4729 69.9 63.7477 69.6526C64.2653 69.1397 64.8836 68.5901 65.4881 67.8985L66.4637 66.8359C66.8026 66.4695 67.1186 66.0528 67.4621 65.6406C68.172 64.8253 68.8361 63.8773 69.5414 62.8926C71.0259 60.7193 72.3177 58.4205 73.4024 56.0226C74.4609 53.6154 75.3023 51.1186 75.9168 48.5617C76.0496 47.9709 76.1733 47.3938 76.3015 46.8351C76.4297 46.2763 76.4847 45.7176 76.5763 45.1863C76.7778 44.1237 76.8465 43.1207 76.9473 42.2093C76.9748 41.9849 76.9977 41.7513 77.0206 41.5452C77.0435 41.3391 77.0206 41.1147 77.048 40.9086C77.0664 40.4964 77.0847 40.1071 77.103 39.7407C77.1534 39.0124 77.1396 38.3667 77.1396 37.872V36.7224V36.411C77.1388 36.375 77.145 36.3392 77.158 36.3057Z" fill="#263238"/>
<path d="M60.2074 48.3191H57.8853V35.6829C57.8444 34.2798 57.2583 32.9479 56.2514 31.9699C55.2445 30.9919 53.896 30.4448 52.4924 30.4448C51.0887 30.4448 49.7402 30.9919 48.7333 31.9699C47.7264 32.9479 47.1403 34.2798 47.0994 35.6829V48.3191H44.7773V35.6829C44.8264 33.6693 45.6608 31.7546 47.1023 30.3478C48.5438 28.941 50.4782 28.1536 52.4924 28.1536C54.5066 28.1536 56.4409 28.941 57.8824 30.3478C59.3239 31.7546 60.1583 33.6693 60.2074 35.6829V48.3191Z" fill="#F5F5F5"/>
<path d="M60.2318 39.7454H44.7606C43.291 39.7454 42.0996 40.9367 42.0996 42.4063V53.38C42.0996 54.8496 43.291 56.041 44.7606 56.041H60.2318C61.7014 56.041 62.8928 54.8496 62.8928 53.38V42.4063C62.8928 40.9367 61.7014 39.7454 60.2318 39.7454Z" fill="white"/>
<path d="M60.232 56.0411C60.4649 56.0164 60.6959 55.9767 60.9236 55.922C61.4785 55.7619 61.9656 55.4244 62.3105 54.9613C62.6554 54.4981 62.8391 53.9347 62.8335 53.3572C62.8335 52.8213 62.8335 52.2397 62.8335 51.6122C62.8335 50.3619 62.8335 48.9375 62.8335 47.362C62.8335 45.7865 62.8335 44.069 62.8335 42.2186C62.799 41.7575 62.6403 41.3143 62.3742 40.936C62.1081 40.5578 61.7445 40.2588 61.3221 40.0706C60.8715 39.8851 60.3832 39.8098 59.8977 39.8508H58.3588L44.7608 39.8462C44.1892 39.846 43.6343 40.0384 43.1855 40.3924C42.7368 40.7464 42.4204 41.2414 42.2876 41.7973C42.2282 42.074 42.2035 42.3571 42.2143 42.64V45.2185C42.2143 47.5085 42.2143 49.6703 42.2143 51.7542C42.2555 52.7893 42.0403 53.8564 42.5715 54.6717C42.8068 55.0721 43.1459 55.4015 43.5531 55.6248C43.9603 55.8482 44.4203 55.9572 44.8844 55.9403H50.0369L57.4978 55.9815H59.5221H60.0488C60.1098 55.9758 60.1711 55.9758 60.232 55.9815C60.1712 55.9884 60.1097 55.9884 60.0488 55.9815H59.5221H57.4978L50.0369 56.0182H44.8844C44.506 56.0352 44.1281 55.9744 43.7741 55.8395C43.4201 55.7047 43.0975 55.4987 42.8262 55.2343C42.555 54.9699 42.3408 54.6527 42.1969 54.3023C42.0531 53.9518 41.9826 53.5756 41.9899 53.1969V51.7542C41.9899 49.6703 41.9899 47.4856 41.9899 45.2185V42.6583C41.9761 42.3509 42.0023 42.043 42.0677 41.7423C42.2166 41.1421 42.5635 40.6096 43.0524 40.2309C43.5454 39.841 44.1551 39.6281 44.7837 39.6264H58.3313H59.8702C60.3865 39.5869 60.9048 39.6717 61.3816 39.8737C61.8372 40.0771 62.2288 40.4007 62.5144 40.8098C62.8001 41.2188 62.9689 41.698 63.0029 42.1957C63.0029 44.0644 63.0029 45.7773 63.0029 47.3528C63.0029 48.9283 63.0029 50.3527 63.0029 51.6031C63.0029 52.2305 63.0029 52.8122 63.0029 53.348C63.0034 53.8496 62.8638 54.3413 62.5999 54.7678C62.2408 55.3601 61.6635 55.7877 60.9923 55.9586C60.7462 56.0333 60.4884 56.0613 60.232 56.0411Z" fill="#263238"/>
<path d="M54.0904 48.3145C54.3 48.1055 54.4662 47.857 54.5794 47.5835C54.6926 47.3099 54.7505 47.0167 54.7499 46.7207C54.7526 46.294 54.636 45.875 54.4133 45.511C54.1906 45.1471 53.8706 44.8526 53.4895 44.6607C53.1083 44.4689 52.6811 44.3874 52.2561 44.4253C51.8311 44.4633 51.4252 44.6193 51.0841 44.8756C50.743 45.132 50.4803 45.4786 50.3256 45.8763C50.171 46.2739 50.1305 46.7069 50.2088 47.1264C50.2871 47.5458 50.481 47.9351 50.7687 48.2502C51.0564 48.5654 51.4264 48.7938 51.837 48.9099L51.3469 51.0808H53.5224L53.0644 48.9099C53.4446 48.8013 53.7901 48.5962 54.0675 48.3145" fill="#FF6D38"/>
<path d="M195.943 64.6559V83.2141C195.984 86.4201 196.456 91.4581 191.363 91.2932C186.971 90.8352 185.803 86.6536 185.771 83.6583C185.771 82.2385 185.739 81.0523 185.725 80.9103C185.725 80.9103 180.916 80.5164 180.508 75.7624C180.311 73.4724 180.293 68.7046 180.325 64.3948C180.345 62.1628 181.204 60.0198 182.731 58.3921C184.259 56.7645 186.343 55.7714 188.569 55.6104L189.027 55.5783C194.006 55.5051 196.025 59.6866 195.943 64.6559Z" fill="#FFBF9D"/>
<path d="M185.738 80.9104C187.935 80.7416 190.038 79.9469 191.798 78.6204C191.798 78.6204 190.543 82.2065 185.766 82.1241L185.738 80.9104Z" fill="#FF9A6C"/>
<path d="M188.464 66.346C188.56 66.4422 189.109 65.9979 189.902 65.9796C190.694 65.9613 191.276 66.346 191.377 66.2452C191.477 66.1445 191.322 66.0208 191.061 65.8422C190.712 65.6081 190.299 65.4895 189.879 65.5033C189.463 65.5164 189.061 65.6624 188.734 65.9201C188.496 66.1216 188.418 66.3002 188.464 66.346Z" fill="#263238"/>
<path d="M188.449 68.5948C188.459 68.7633 188.534 68.9213 188.659 69.0344C188.785 69.1476 188.949 69.2069 189.118 69.1994C189.2 69.2 189.282 69.1841 189.357 69.1527C189.433 69.1213 189.502 69.0749 189.56 69.0164C189.617 68.9579 189.663 68.8884 189.693 68.8121C189.723 68.7357 189.738 68.654 189.736 68.5719C189.726 68.4047 189.65 68.2481 189.526 68.1353C189.403 68.0225 189.24 67.9622 189.072 67.9673C188.99 67.9673 188.909 67.9836 188.833 68.0152C188.757 68.0468 188.688 68.0931 188.63 68.1514C188.572 68.2097 188.526 68.2789 188.495 68.355C188.464 68.4311 188.449 68.5126 188.449 68.5948Z" fill="#263238"/>
<path d="M186.471 71.906C186.076 71.8142 185.672 71.7711 185.266 71.7778C185.079 71.7778 184.9 71.7457 184.859 71.6221C184.828 71.4303 184.857 71.2337 184.941 71.0587C185.088 70.6007 185.234 70.1107 185.399 69.5977C186.017 67.5184 186.453 65.8146 186.37 65.7917C186.288 65.7688 185.715 67.4314 185.097 69.5107C184.95 70.0237 184.808 70.5137 184.671 70.9809C184.571 71.2143 184.557 71.4752 184.63 71.7183C184.661 71.7827 184.706 71.839 184.762 71.8828C184.819 71.9265 184.885 71.9564 184.955 71.9702C185.061 71.9827 185.169 71.9827 185.275 71.9702C185.675 71.9964 186.076 71.9748 186.471 71.906Z" fill="#263238"/>
<path d="M188.802 62.9567C188.88 63.1353 189.516 63.0025 190.281 63.0392C191.046 63.0758 191.655 63.2453 191.76 63.0758C191.797 62.9979 191.678 62.8331 191.421 62.6773C191.08 62.4856 190.697 62.3773 190.306 62.3614C189.914 62.3455 189.524 62.4224 189.168 62.5857C188.898 62.7186 188.77 62.8743 188.802 62.9567Z" fill="#263238"/>
<path d="M181.241 64.1475C181.328 64.2941 181.946 64.1475 182.702 64.1109C183.457 64.0742 184.076 64.1841 184.158 64.033C184.19 63.9597 184.067 63.8315 183.806 63.717C183.452 63.576 183.072 63.5135 182.693 63.5338C182.308 63.5444 181.93 63.6381 181.584 63.8086C181.328 63.9414 181.204 64.0788 181.241 64.1475Z" fill="#263238"/>
<path d="M174.04 60.1309C174.067 60.0343 174.113 59.944 174.175 59.8653C174.237 59.7867 174.314 59.7212 174.402 59.6729C174.782 59.5 175.201 59.432 175.616 59.476C176.884 59.4526 178.121 59.0767 179.188 58.3905C179.686 57.6746 180.242 57.0006 180.851 56.3753C182.293 54.8914 183.475 53.8792 184.702 53.3846C186.287 52.748 188.939 52.4686 190.592 52.9266C192.246 53.3846 193.73 54.7036 193.963 56.3936C194.879 55.6105 196.281 55.6196 197.412 56.073H197.439C198.694 56.531 199.409 57.8501 199.78 59.1325C200.151 60.4149 200.311 61.7889 200.989 62.9385C201.131 63.1766 201.3 63.4652 201.177 63.7171C201.119 63.8083 201.036 63.8799 200.937 63.9224C200.838 63.9649 200.728 63.9764 200.622 63.9552C200.41 63.9098 200.21 63.8192 200.036 63.6896C200.178 64.0285 200.316 64.3628 200.458 64.6972C199.999 64.777 199.528 64.7471 199.084 64.6102C198.853 65.7535 198.555 66.8821 198.19 67.9902C197.722 67.9349 197.248 68.0504 196.858 68.3154C196.4 68.7138 196.221 69.4604 195.484 69.1764C195.113 69.0299 194.774 68.2604 194.646 67.8711C193.817 65.3346 193.544 62.6495 193.844 59.9981C193.323 59.4433 192.701 58.9926 192.012 58.6699L192.067 58.7203C190.739 58.2623 189.237 57.8043 187.977 58.4272C187.002 58.9126 186.429 59.9248 185.687 60.7172C185.015 61.4703 184.198 62.0791 183.284 62.5067C182.37 62.9342 181.378 63.1714 180.37 63.2041C180.301 64.5415 180.411 66.433 180.342 67.7841L179.216 65.6407C179.127 65.4921 179.046 65.3393 178.973 65.1827V65.1369C178.86 64.8752 178.733 64.6199 178.593 64.372C178.437 64.4973 178.241 64.5627 178.041 64.5564C177.841 64.55 177.65 64.4723 177.502 64.3373C177.355 64.2024 177.26 64.019 177.236 63.8204C177.211 63.6218 177.259 63.4211 177.37 63.2545C177.483 63.0989 177.619 62.9615 177.773 62.8469C177.609 63.0061 177.407 63.1198 177.186 63.1768C176.965 63.2339 176.733 63.2322 176.513 63.172C176.295 63.1056 176.105 62.969 175.973 62.7835C175.84 62.598 175.773 62.3739 175.781 62.1461C175.799 61.9929 175.858 61.8473 175.95 61.7236C176.043 61.6 176.166 61.5025 176.307 61.4408C175.718 61.4881 175.127 61.3573 174.613 61.0652C174.246 60.8683 173.916 60.5523 174.04 60.1309Z" fill="#263238"/>
<path d="M192.457 56.9478C192.623 57.0868 192.776 57.2401 192.915 57.4058C193.291 57.8582 193.542 58.4015 193.643 58.9813C193.726 59.3789 193.768 59.7842 193.767 60.1904C193.767 60.6484 193.735 61.1064 193.698 61.5919C193.655 62.1098 193.644 62.6299 193.666 63.1491C193.679 63.4263 193.714 63.702 193.771 63.9735C193.814 64.263 193.929 64.5371 194.106 64.7704C194.189 64.8628 194.295 64.9321 194.413 64.9714C194.531 65.0108 194.657 65.0188 194.779 64.9948C195.011 64.9523 195.223 64.8329 195.379 64.6559C195.638 64.3016 195.796 63.8838 195.837 63.4468H195.741C195.883 63.8064 196.077 64.1429 196.318 64.4452C196.548 64.7232 196.876 64.9032 197.234 64.949C197.402 64.9658 197.572 64.9357 197.724 64.862C197.866 64.7879 197.982 64.6731 198.058 64.5322C198.127 64.4026 198.162 64.2576 198.159 64.1109C198.152 63.9742 198.097 63.8445 198.003 63.7445L197.953 63.7903C198.236 64.1138 198.584 64.3743 198.974 64.5551C199.112 64.6162 199.217 64.6574 199.29 64.6788L199.405 64.7063L199.3 64.6605C199.226 64.6284 199.121 64.5872 198.993 64.5231C198.615 64.3315 198.278 64.0668 198.003 63.7445L197.953 63.7903C198.031 63.89 198.076 64.0114 198.082 64.1378C198.087 64.2642 198.054 64.3893 197.985 64.4956C197.917 64.6198 197.814 64.7204 197.687 64.7841C197.545 64.8526 197.386 64.8781 197.229 64.8574C196.895 64.819 196.587 64.6554 196.368 64.3994C196.138 64.1023 195.952 63.7738 195.814 63.4239L195.745 63.2727L195.713 63.4376C195.664 63.8558 195.507 64.2538 195.255 64.5918C195.112 64.7473 194.923 64.8531 194.715 64.8941C194.611 64.9151 194.504 64.9088 194.404 64.8759C194.304 64.843 194.213 64.7845 194.142 64.7063C193.978 64.488 193.872 64.2308 193.836 63.9597C193.779 63.6941 193.742 63.4247 193.726 63.1537C193.704 62.6375 193.715 62.1204 193.758 61.6056C193.785 61.111 193.817 60.6438 193.813 60.1996C193.81 59.7882 193.764 59.3784 193.675 58.9767C193.564 58.386 193.297 57.8357 192.901 57.3829C192.779 57.2136 192.629 57.0664 192.457 56.9478Z" fill="#455A64"/>
<path d="M177.75 61.5691L177.791 61.6011C177.829 61.633 177.869 61.6621 177.91 61.6882C177.973 61.7392 178.04 61.7837 178.112 61.821C178.205 61.8761 178.302 61.9266 178.4 61.9721C179.037 62.261 179.736 62.3869 180.434 62.3385C181.472 62.2685 182.468 61.8994 183.301 61.276C184.309 60.509 185.148 59.5423 185.765 58.4364C186.113 57.8639 186.392 57.273 186.681 56.728C186.977 56.1959 187.347 55.7085 187.78 55.2807C188.161 54.8923 188.634 54.6057 189.154 54.4472C189.39 54.382 189.634 54.3541 189.878 54.3647C190.1 54.3816 190.318 54.4278 190.528 54.5021C190.898 54.6277 191.237 54.8307 191.522 55.0975C191.737 55.2989 191.918 55.534 192.058 55.7937C192.169 56.0206 192.25 56.2607 192.301 56.5082C192.301 56.5082 192.301 56.5082 192.301 56.4578C192.301 56.4074 192.301 56.3708 192.278 56.3112C192.24 56.1256 192.178 55.9455 192.095 55.7754C191.774 55.1453 191.223 54.663 190.556 54.4289C190.335 54.3522 190.106 54.3044 189.873 54.2869C189.62 54.2762 189.367 54.304 189.122 54.3693C188.586 54.5275 188.099 54.819 187.707 55.2166C187.275 55.6491 186.909 56.143 186.621 56.6822C186.305 57.2318 186.021 57.8181 185.683 58.3906C185.069 59.482 184.242 60.4385 183.251 61.2027C182.435 61.8207 181.459 62.1911 180.438 62.2698C179.751 62.324 179.062 62.2108 178.428 61.9401C178.194 61.8306 177.968 61.7067 177.75 61.5691Z" fill="#455A64"/>
<path d="M177.32 59.4805C177.32 59.4805 177.375 59.5309 177.49 59.5996C177.651 59.6974 177.82 59.7831 177.994 59.8561C178.253 59.9662 178.521 60.0535 178.795 60.1171C179.13 60.196 179.472 60.2421 179.816 60.2545C180.161 60.263 180.506 60.24 180.847 60.1858C181.123 60.1393 181.394 60.0688 181.658 59.9752C181.837 59.9138 182.012 59.8388 182.18 59.7507C182.243 59.7223 182.303 59.687 182.358 59.6454C182.358 59.6454 182.088 59.7599 181.635 59.9019C181.37 59.9806 181.101 60.0418 180.829 60.0851C180.495 60.1315 180.158 60.1514 179.821 60.1446C179.484 60.1297 179.149 60.0883 178.818 60.021C178.548 59.9616 178.283 59.882 178.026 59.7828C177.586 59.6133 177.329 59.4622 177.32 59.4805Z" fill="#455A64"/>
<path d="M181.208 66.346C181.3 66.4421 181.849 65.9979 182.646 65.9796C183.443 65.9612 184.02 66.346 184.121 66.2452C184.222 66.1444 184.061 66.0208 183.805 65.8422C183.454 65.6082 183.04 65.4897 182.619 65.5032C182.204 65.516 181.804 65.6622 181.478 65.92C181.235 66.1215 181.158 66.3002 181.208 66.346Z" fill="#263238"/>
<path d="M182.02 68.5948C182.03 68.7621 182.105 68.9186 182.229 69.0314C182.353 69.1442 182.516 69.2045 182.684 69.1994C182.766 69.2 182.848 69.1841 182.924 69.1528C183 69.1214 183.069 69.0751 183.127 69.0167C183.185 68.9582 183.231 68.8888 183.262 68.8124C183.293 68.736 183.308 68.6543 183.307 68.5719C183.295 68.4043 183.219 68.2477 183.094 68.135C182.969 68.0223 182.806 67.9622 182.638 67.9673C182.556 67.9673 182.475 67.9836 182.399 68.0153C182.324 68.0469 182.255 68.0933 182.197 68.1517C182.14 68.2101 182.095 68.2793 182.064 68.3554C182.033 68.4315 182.018 68.5128 182.02 68.5948Z" fill="#263238"/>
<path d="M195.818 68.2054C195.896 68.1642 199.024 67.0009 199.148 70.2572C199.272 73.5136 195.983 72.9732 195.974 72.8816C195.965 72.79 195.818 68.2054 195.818 68.2054Z" fill="#FFBF9D"/>
<path d="M196.94 71.6084C196.94 71.6084 196.999 71.645 197.095 71.6862C197.232 71.7392 197.384 71.7392 197.521 71.6862C197.726 71.544 197.889 71.3498 197.994 71.1236C198.098 70.8974 198.141 70.6473 198.117 70.3992C198.116 70.1197 198.052 69.844 197.929 69.5932C197.893 69.4911 197.833 69.3995 197.753 69.3268C197.673 69.254 197.576 69.2023 197.471 69.1764C197.406 69.1634 197.338 69.1732 197.279 69.204C197.219 69.2348 197.173 69.2848 197.146 69.3458C197.105 69.4374 197.146 69.5016 197.109 69.5107C197.072 69.5199 197.04 69.4603 197.059 69.3229C197.076 69.2421 197.117 69.1684 197.178 69.1123C197.266 69.0431 197.377 69.0089 197.489 69.0161C197.624 69.0378 197.751 69.0933 197.858 69.1774C197.965 69.2615 198.05 69.3715 198.103 69.497C198.256 69.7779 198.337 70.0929 198.337 70.413C198.337 71.0679 198.034 71.6954 197.567 71.8511C197.481 71.8801 197.389 71.8894 197.299 71.8783C197.208 71.8672 197.122 71.836 197.045 71.787C196.94 71.6862 196.908 71.6129 196.94 71.6084Z" fill="#FF9A6C"/>
<path d="M188.788 72.5565C188.815 72.5565 188.815 72.7489 188.705 73.0145C188.546 73.3719 188.285 73.6745 187.954 73.8847C187.633 74.1012 187.251 74.2102 186.864 74.1961C186.567 74.1687 186.406 74.0679 186.406 74.045C186.406 74.0221 186.589 74.045 186.864 74.045C187.213 74.0192 187.551 73.9058 187.844 73.7152C188.141 73.525 188.39 73.2697 188.573 72.9687C188.696 72.7168 188.751 72.5473 188.788 72.5565Z" fill="#263238"/>
<path d="M205.185 201.332L206.156 212.324L209.6 220.825C209.657 220.973 209.681 221.131 209.672 221.289C209.662 221.448 209.62 221.602 209.546 221.742C209.472 221.883 209.37 222.006 209.245 222.103C209.12 222.201 208.976 222.271 208.822 222.309C208.64 222.363 208.447 222.375 208.26 222.343C208.073 222.311 207.895 222.237 207.741 222.125C205.776 220.697 198.691 215.439 198.613 214.756C198.512 213.868 196.703 203.045 196.703 203.045L205.185 201.332Z" fill="#455A64"/>
<path d="M208.849 222.322L198.443 213.515L198.549 214.33C198.617 214.788 198.627 215.017 198.938 215.297C201.703 217.802 204.609 220.147 207.64 222.322C207.826 222.41 208.03 222.455 208.235 222.455C208.441 222.455 208.644 222.41 208.831 222.322H208.849Z" fill="#263238"/>
<path d="M200.467 210.08C200.62 210.159 200.736 210.293 200.792 210.455C200.848 210.617 200.84 210.794 200.77 210.95C200.678 211.101 200.534 211.214 200.366 211.267C200.197 211.32 200.015 211.31 199.854 211.239C199.695 211.155 199.574 211.013 199.516 210.843C199.458 210.672 199.468 210.486 199.542 210.323C199.653 210.174 199.815 210.072 199.997 210.036C200.179 209.999 200.367 210.031 200.527 210.126" fill="white"/>
<path d="M205.615 217.788C205.683 217.816 205.88 217.211 206.531 216.836C206.944 216.634 207.388 216.505 207.845 216.455C207.845 216.428 207.694 216.359 207.419 216.35C207.057 216.347 206.7 216.444 206.389 216.63C206.085 216.805 205.84 217.067 205.683 217.381C205.583 217.619 205.583 217.784 205.615 217.788Z" fill="#263238"/>
<path d="M206.614 219.176C206.674 219.222 207.008 218.823 207.594 218.604C207.964 218.496 208.341 218.412 208.721 218.352C208.528 218.264 208.318 218.22 208.107 218.225C207.895 218.23 207.687 218.282 207.498 218.379C206.83 218.636 206.559 219.153 206.614 219.176Z" fill="#263238"/>
<path d="M203.852 216.062C204.311 215.697 204.796 215.368 205.304 215.077C205.854 214.852 206.418 214.667 206.994 214.523C206.37 214.429 205.733 214.548 205.185 214.862C204.242 215.315 203.811 216.034 203.852 216.062Z" fill="#263238"/>
<path d="M203.262 212.736C203.298 212.801 203.917 212.48 204.75 212.37C205.584 212.26 206.275 212.37 206.294 212.31C205.802 212.075 205.246 212.01 204.714 212.127C204.174 212.159 203.662 212.374 203.262 212.736Z" fill="#263238"/>
<path d="M202.894 209.512C203.376 209.27 203.902 209.127 204.439 209.091C204.977 209.055 205.517 209.126 206.027 209.301C206.027 209.274 205.903 209.15 205.615 209.031C205.235 208.882 204.827 208.82 204.42 208.848C204.013 208.871 203.618 208.989 203.265 209.191C202.991 209.347 202.867 209.489 202.894 209.512Z" fill="#263238"/>
<path d="M204.337 208.477C204.337 208.477 204.364 208.326 204.309 208.06C204.229 207.682 204.073 207.324 203.851 207.007C203.7 206.756 203.472 206.562 203.201 206.453C203.107 206.425 203.006 206.424 202.912 206.452C202.818 206.48 202.734 206.534 202.67 206.608C202.615 206.682 202.576 206.766 202.553 206.854C202.531 206.943 202.527 207.036 202.541 207.126C202.621 207.503 202.828 207.841 203.129 208.083C203.43 208.324 203.805 208.454 204.19 208.45C204.575 208.456 204.953 208.349 205.279 208.143C205.604 207.938 205.863 207.641 206.022 207.291C206.058 207.205 206.075 207.113 206.07 207.02C206.065 206.927 206.039 206.836 205.995 206.755C205.936 206.676 205.855 206.615 205.762 206.582C205.669 206.548 205.568 206.543 205.472 206.567C205.195 206.657 204.945 206.814 204.744 207.025C204.459 207.287 204.222 207.597 204.044 207.941C203.97 208.063 203.923 208.199 203.906 208.34C204.168 207.893 204.493 207.487 204.872 207.135C205.052 206.958 205.272 206.826 205.514 206.75C205.566 206.736 205.621 206.738 205.672 206.756C205.723 206.774 205.767 206.807 205.798 206.851C205.823 206.907 205.836 206.967 205.836 207.028C205.836 207.088 205.823 207.148 205.798 207.204C205.652 207.501 205.426 207.751 205.145 207.926C204.864 208.101 204.539 208.194 204.208 208.193C203.882 208.194 203.564 208.086 203.307 207.885C203.049 207.684 202.867 207.402 202.789 207.085C202.766 206.959 202.793 206.83 202.862 206.723C202.896 206.681 202.943 206.65 202.995 206.634C203.047 206.618 203.103 206.619 203.155 206.636C203.385 206.728 203.581 206.888 203.718 207.094C204.008 207.513 204.218 207.982 204.337 208.477Z" fill="#263238"/>
<path d="M177.457 201.9L177.888 211.22C177.888 211.22 167.954 214.765 167.857 216.497L187.116 216.355L187.075 201.804L177.457 201.9Z" fill="#455A64"/>
<path d="M183.837 210.392C184.018 210.436 184.176 210.548 184.278 210.705C184.38 210.861 184.419 211.05 184.387 211.234C184.331 211.415 184.21 211.568 184.047 211.664C183.885 211.76 183.692 211.791 183.507 211.752C183.316 211.705 183.15 211.587 183.043 211.422C182.936 211.257 182.895 211.057 182.93 210.863C183.006 210.678 183.149 210.528 183.331 210.443C183.512 210.358 183.719 210.344 183.91 210.405" fill="#E0E0E0"/>
<path d="M187.117 216.355L187.053 214.889L168.609 215.572C168.609 215.572 167.757 215.929 167.858 216.488L187.117 216.355Z" fill="#263238"/>
<path d="M177.577 211.138C177.577 211.225 178.035 211.262 178.493 211.541C178.951 211.821 179.207 212.192 179.294 212.155C179.381 212.118 179.235 211.61 178.667 211.28C178.099 210.95 177.554 211.051 177.577 211.138Z" fill="#263238"/>
<path d="M175.561 211.93C175.561 212.017 175.95 212.164 176.27 212.535C176.591 212.906 176.692 213.304 176.783 213.3C176.875 213.295 176.935 212.791 176.522 212.338C176.11 211.885 175.565 211.848 175.561 211.93Z" fill="#263238"/>
<path d="M174.434 214.211C174.521 214.211 174.645 213.79 174.402 213.295C174.159 212.801 173.715 212.627 173.674 212.7C173.633 212.773 173.912 213.03 174.105 213.428C174.297 213.827 174.343 214.207 174.434 214.211Z" fill="#263238"/>
<path d="M177.727 208.995C177.769 209.077 178.185 208.953 178.73 208.995C179.276 209.036 179.679 209.178 179.724 209.105C179.77 209.031 179.376 208.715 178.749 208.688C178.121 208.66 177.705 208.926 177.727 208.995Z" fill="#263238"/>
<path d="M174.105 134.964C174.105 135.499 176.34 210.007 176.34 210.007H188.248L190.662 146.272C190.662 146.272 193.479 179.596 193.479 180.315C193.479 181.034 195.961 210.364 195.961 210.364L206.999 209.517L206.271 142.438L204.924 132.6L174.105 134.964Z" fill="#263238"/>
<path d="M191.903 143.913C191.752 143.998 191.59 144.063 191.422 144.105C191.106 144.215 190.644 144.366 190.076 144.563L189.97 144.595V144.49C189.906 143.597 189.828 142.397 189.76 141.082C189.682 139.658 189.627 138.371 189.599 137.418C189.599 136.96 189.576 136.571 189.576 136.31C189.563 136.174 189.572 136.036 189.604 135.902C189.642 136.033 189.664 136.169 189.668 136.305C189.7 136.566 189.732 136.947 189.764 137.409C189.837 138.325 189.92 139.63 189.993 141.073C190.066 142.388 190.117 143.588 190.144 144.485L190.03 144.412C190.607 144.252 191.074 144.123 191.404 144.041C191.566 143.982 191.733 143.939 191.903 143.913Z" fill="#455A64"/>
<path d="M190.986 136.168C190.986 136.168 191.022 136.109 191.146 136.067C191.32 136.021 191.505 136.038 191.668 136.113C191.791 136.158 191.897 136.242 191.968 136.352C192.04 136.461 192.075 136.591 192.067 136.722C192.051 136.888 191.982 137.044 191.869 137.166C191.757 137.289 191.607 137.371 191.444 137.4C191.277 137.425 191.107 137.404 190.952 137.338C190.797 137.273 190.663 137.166 190.564 137.029C190.496 136.924 190.459 136.8 190.459 136.674C190.459 136.548 190.496 136.425 190.564 136.319C190.659 136.177 190.797 136.07 190.958 136.012C191.077 135.971 191.146 135.98 191.151 135.99C191.155 135.999 190.88 136.077 190.716 136.388C190.667 136.471 190.644 136.566 190.649 136.662C190.654 136.758 190.686 136.851 190.743 136.928C190.817 137.026 190.916 137.103 191.03 137.149C191.143 137.196 191.267 137.212 191.389 137.194C191.502 137.172 191.606 137.117 191.688 137.035C191.77 136.954 191.825 136.849 191.847 136.736C191.856 136.642 191.835 136.548 191.789 136.466C191.742 136.384 191.671 136.318 191.586 136.278C191.402 136.179 191.192 136.14 190.986 136.168Z" fill="#455A64"/>
<path d="M196.455 136.942C196.391 136.942 196.299 136.622 196.254 136.219C196.208 135.816 196.221 135.481 196.286 135.477C196.35 135.472 196.441 135.793 196.487 136.196C196.533 136.599 196.519 136.942 196.455 136.942Z" fill="#455A64"/>
<path d="M197.279 136.855C197.215 136.855 197.16 136.512 197.16 136.086C197.16 135.66 197.206 135.316 197.275 135.316C197.343 135.316 197.394 135.66 197.394 136.086C197.394 136.512 197.348 136.855 197.279 136.855Z" fill="#455A64"/>
<path d="M182.929 137.368C182.865 137.368 182.765 136.988 182.705 136.507C182.646 136.026 182.65 135.623 182.705 135.618C182.76 135.614 182.87 135.999 182.929 136.484C182.989 136.97 182.994 137.363 182.929 137.368Z" fill="#455A64"/>
<path d="M183.933 137.441C183.722 137.185 183.617 136.857 183.64 136.525C183.591 136.205 183.664 135.878 183.846 135.609C183.915 135.609 183.846 136.031 183.878 136.525C183.91 137.02 183.997 137.423 183.933 137.441Z" fill="#455A64"/>
<path d="M180.168 136.447C180.173 136.557 180.159 136.667 180.127 136.773C180.069 137.07 179.99 137.362 179.889 137.647C179.549 138.609 179.05 139.507 178.414 140.304C177.753 141.125 176.968 141.839 176.087 142.42C175.816 142.598 175.535 142.761 175.245 142.905C175.139 142.965 175.026 143.012 174.91 143.047C174.91 143.02 175.341 142.782 175.996 142.31C176.838 141.712 177.593 141 178.24 140.194C178.864 139.408 179.371 138.537 179.747 137.606C180.026 136.896 180.131 136.438 180.168 136.447Z" fill="#455A64"/>
<path d="M205.907 141.467C205.79 141.502 205.668 141.521 205.545 141.522C205.213 141.548 204.879 141.548 204.547 141.522C203.46 141.418 202.414 141.053 201.497 140.46C200.628 139.891 199.928 139.1 199.468 138.17C199.334 137.899 199.23 137.615 199.156 137.322C199.119 137.22 199.102 137.111 199.106 137.002C199.143 137.002 199.243 137.46 199.605 138.115C200.088 139 200.782 139.754 201.625 140.308C202.513 140.882 203.517 141.251 204.565 141.389C205.385 141.481 205.903 141.431 205.907 141.467Z" fill="#455A64"/>
<path d="M186.511 179.197C186.511 179.248 184.523 178.817 182.105 178.245C179.687 177.672 177.736 177.159 177.754 177.109C177.772 177.058 179.742 177.484 182.16 178.061C184.578 178.638 186.525 179.147 186.511 179.197Z" fill="#455A64"/>
<path d="M205.692 176.486C205.72 176.532 204.002 177.425 201.859 178.487C199.716 179.55 197.948 180.37 197.92 180.319C197.893 180.269 199.61 179.376 201.754 178.318C203.897 177.26 205.665 176.44 205.692 176.486Z" fill="#455A64"/>
<path d="M168.325 109.732L169.951 111.77V108.267H175.081C175.081 108.267 175.648 116.286 175.539 117.995C175.417 118.885 175.207 119.761 174.911 120.61C174.758 121.104 174.48 121.55 174.104 121.905C173.728 122.26 173.267 122.513 172.766 122.638C172.264 122.763 171.738 122.757 171.24 122.62C170.741 122.483 170.286 122.22 169.919 121.856C169.345 121.297 168.809 120.7 168.316 120.069C166.026 117.138 162.252 109.993 162.252 109.993L166.209 107.63L168.325 109.732Z" fill="#FFBF9D"/>
<path d="M168 109.357C168.194 109.682 168.418 109.989 168.669 110.273C169.127 110.809 169.704 111.546 170.386 112.343C171.069 113.14 171.719 113.845 172.218 114.326C172.471 114.603 172.765 114.841 173.088 115.031C172.856 114.741 172.605 114.465 172.337 114.207C171.879 113.703 171.247 112.984 170.565 112.187C169.214 110.566 168.06 109.302 168 109.357Z" fill="#FF9A6C"/>
<path d="M180.021 85.0964L185.43 82.9713L195.392 82.408L200.073 84.1896L193.656 87.7528L188.124 87.5513L180.021 85.0964Z" fill="#FFBF9D"/>
<path d="M173.641 135.98C174.132 136.063 206.769 137.45 206.769 137.45L205.642 108.088L205.546 102.326L203.714 84.872C203.714 84.872 198.831 83.1911 196.345 82.3896C196.345 82.3896 193.725 85.1376 188.742 85.046C183.873 84.9773 182.856 83.8781 182.856 83.8781L176.051 86.4887C176.051 86.4887 171.209 88.2246 170.376 90.368C169.542 92.5114 168.086 104.36 168.086 104.36H175.144L174.956 125.414L173.641 135.98Z" fill="#455A64"/>
<g opacity="0.2">
<path d="M194.166 96.8122L195.178 104.213L200.074 106.398L203.692 103.316V96.4458L194.166 96.8122Z" fill="black"/>
</g>
<path d="M203.564 98.9281C203.564 98.9877 201.53 99.0381 199.021 99.0381C196.511 99.0381 194.473 98.9877 194.473 98.9281C195.986 98.8133 197.504 98.7751 199.021 98.8136C200.536 98.775 202.052 98.8132 203.564 98.9281Z" fill="#263238"/>
<path d="M171.443 93.4321C171.467 93.4963 171.485 93.5621 171.498 93.6291C171.53 93.7756 171.572 93.9588 171.627 94.1924C171.802 94.8992 172.02 95.595 172.277 96.2763C172.602 97.1511 173.06 98.1816 173.623 99.3357C174.187 100.49 174.636 101.868 175.135 103.334C175.135 105.093 175.135 106.998 175.098 109.027C175.052 113.515 175.007 117.578 174.979 120.541C174.952 121.998 174.933 123.184 174.915 124.031C174.915 124.425 174.906 124.741 174.888 124.979C174.89 125.09 174.882 125.2 174.865 125.309C174.857 125.198 174.857 125.086 174.865 124.975C174.865 124.743 174.865 124.427 174.865 124.027C174.865 123.184 174.865 121.993 174.865 120.537C174.865 117.573 174.901 113.511 174.924 109.027C174.924 107.016 174.961 105.093 174.975 103.334V103.366C174.484 101.901 174.013 100.54 173.5 99.3724C173.01 98.3668 172.573 97.3364 172.19 96.2855C171.942 95.5976 171.742 94.8937 171.59 94.1787C171.544 93.9268 171.507 93.7207 171.489 93.6016C171.469 93.5466 171.453 93.4899 171.443 93.4321Z" fill="#263238"/>
<path d="M206.046 90.0063C206.062 90.2152 206.062 90.425 206.046 90.6338C206.046 91.0918 206.009 91.6506 205.982 92.3376C205.922 93.8123 205.844 95.7817 205.757 97.9572C205.67 100.133 205.57 102.107 205.505 103.581C205.464 104.268 205.432 104.841 205.405 105.285C205.404 105.494 205.382 105.703 205.341 105.908C205.324 105.699 205.324 105.489 205.341 105.281C205.341 104.823 205.341 104.264 205.373 103.577C205.409 102.134 205.473 100.146 205.565 97.9526C205.657 95.7588 205.757 93.7665 205.849 92.333C205.895 91.6139 205.941 91.0323 205.982 90.6292C205.985 90.4201 206.006 90.2117 206.046 90.0063Z" fill="#263238"/>
<g opacity="0.3">
<path d="M171.462 94.5083C171.338 97.7312 172.49 100.873 174.668 103.252C174.004 100.224 172.346 97.4074 171.462 94.5083Z" fill="black"/>
</g>
<g opacity="0.3">
<path d="M185.797 123.559C187.331 123.355 188.731 122.576 189.713 121.379C190.746 120.225 191.631 118.947 192.346 117.573C193.27 115.705 193.794 113.665 193.885 111.583C191.984 116.68 189.2 120.71 185.797 123.559Z" fill="black"/>
</g>
<path d="M194.491 109.361C194.488 109.425 194.479 109.488 194.464 109.549C194.431 109.696 194.39 109.87 194.344 110.08C194.299 110.291 194.225 110.589 194.125 110.909C194.024 111.23 193.928 111.596 193.781 111.995C193.46 112.932 193.084 113.85 192.654 114.743C191.604 116.929 190.255 118.959 188.647 120.775C187.991 121.516 187.287 122.213 186.54 122.863C186.233 123.152 185.926 123.381 185.665 123.591C185.404 123.802 185.175 123.972 184.978 124.104L184.52 124.411C184.415 124.475 184.36 124.512 184.355 124.503C184.396 124.455 184.442 124.411 184.493 124.375L184.919 124.036C185.107 123.898 185.331 123.72 185.583 123.5C185.835 123.28 186.133 123.042 186.435 122.753C187.158 122.089 187.845 121.386 188.491 120.646C189.274 119.734 190.004 118.777 190.676 117.779C191.333 116.775 191.932 115.733 192.471 114.66C192.904 113.779 193.291 112.876 193.63 111.954C193.786 111.564 193.896 111.198 194.001 110.882C194.106 110.566 194.193 110.291 194.257 110.067C194.322 109.842 194.367 109.691 194.413 109.549C194.459 109.407 194.482 109.357 194.491 109.361Z" fill="#263238"/>
<path d="M193.547 100.174C193.54 100.275 193.526 100.376 193.506 100.476C193.469 100.691 193.419 100.975 193.359 101.328C193.3 101.681 193.208 102.148 193.075 102.665C192.942 103.183 192.823 103.783 192.617 104.424C192.526 104.745 192.425 105.084 192.32 105.436C192.214 105.789 192.077 106.146 191.949 106.517C191.706 107.273 191.376 108.051 191.033 108.876C189.528 112.434 187.506 115.751 185.033 118.718C184.451 119.387 183.906 120.037 183.347 120.596C183.073 120.88 182.816 121.164 182.55 121.416C182.285 121.668 182.033 121.915 181.786 122.144C181.328 122.602 180.833 123.001 180.412 123.349C179.99 123.697 179.651 123.985 179.349 124.21L178.657 124.732C178.582 124.798 178.499 124.855 178.41 124.901C178.477 124.827 178.551 124.76 178.63 124.7L179.294 124.146C179.587 123.912 179.944 123.623 180.334 123.262C180.723 122.9 181.195 122.515 181.667 122.034L182.418 121.301C182.679 121.045 182.931 120.761 183.201 120.477C183.755 119.914 184.291 119.263 184.868 118.59C187.32 115.627 189.337 112.33 190.859 108.798C191.198 107.978 191.527 107.209 191.775 106.462C191.907 106.087 192.045 105.734 192.155 105.386C192.265 105.038 192.365 104.703 192.466 104.383C192.677 103.746 192.81 103.155 192.952 102.638C193.094 102.12 193.194 101.676 193.268 101.31C193.341 100.943 193.41 100.682 193.455 100.467C193.475 100.366 193.506 100.268 193.547 100.174Z" fill="#263238"/>
<path d="M167.757 91.046L180.325 110.154C180.385 110.244 180.417 110.35 180.419 110.458C180.42 110.566 180.39 110.673 180.333 110.765C180.275 110.857 180.193 110.93 180.094 110.976C179.996 111.022 179.887 111.039 179.78 111.024L165.307 109.192C165.231 109.181 165.157 109.156 165.091 109.116C165.025 109.077 164.968 109.025 164.922 108.963L151.1 90.0842C151.031 89.9969 150.99 89.8914 150.98 89.7808C150.971 89.6702 150.995 89.5594 151.048 89.4619C151.101 89.3645 151.181 89.2847 151.279 89.2325C151.377 89.1803 151.488 89.158 151.599 89.1682L166.488 90.2674C166.746 90.2907 166.994 90.3731 167.214 90.5081C167.434 90.6432 167.62 90.8273 167.757 91.046Z" fill="#E0E0E0"/>
<path d="M167.757 91.046C167.726 90.9836 167.687 90.9252 167.642 90.8719C167.515 90.7139 167.36 90.5804 167.184 90.4781C166.886 90.3223 166.554 90.2421 166.218 90.2445L164.881 90.1346L156.298 89.4613L153.453 89.2415L151.942 89.127C151.809 89.127 151.695 89.127 151.544 89.127C151.389 89.1321 151.241 89.1921 151.127 89.2964C151.011 89.4024 150.936 89.5462 150.916 89.7022C150.895 89.8582 150.931 90.0163 151.017 90.1483L155.038 95.6672C157.878 99.5465 160.992 103.81 164.267 108.29C164.478 108.569 164.665 108.839 164.894 109.132C164.965 109.21 165.053 109.27 165.151 109.306C165.241 109.338 165.335 109.357 165.43 109.361L165.943 109.426L167.967 109.682L171.925 110.177L179.408 111.093C179.564 111.093 179.692 111.134 179.866 111.143C179.956 111.144 180.044 111.127 180.127 111.093C180.209 111.059 180.284 111.009 180.347 110.946C180.467 110.823 180.537 110.66 180.544 110.488C180.537 110.321 180.476 110.16 180.37 110.03L179.399 108.546L177.567 105.798L174.288 100.838C172.282 97.8198 170.661 95.3695 169.529 93.6703L168.224 91.7238C168.077 91.5131 167.963 91.3437 167.876 91.2246C167.839 91.165 167.798 91.1084 167.752 91.0551C167.784 91.1182 167.819 91.1794 167.858 91.2383L168.183 91.7513C168.476 92.2093 168.902 92.8734 169.447 93.7207L174.146 100.934L177.402 105.908L179.234 108.679L180.187 110.131C180.269 110.227 180.317 110.348 180.324 110.474C180.32 110.595 180.271 110.709 180.187 110.795C180.102 110.88 179.986 110.927 179.866 110.928C179.743 110.928 179.573 110.891 179.431 110.877L171.934 109.92L167.977 109.421L165.952 109.164L165.444 109.1C165.368 109.094 165.293 109.08 165.219 109.059C165.155 109.034 165.097 108.995 165.05 108.945C164.849 108.67 164.647 108.4 164.445 108.12C161.166 103.65 158.033 99.3907 155.203 95.5115C153.779 93.5787 152.432 91.7375 151.168 90.0155C151.121 89.9475 151.093 89.8679 151.087 89.7853C151.082 89.7027 151.099 89.6201 151.136 89.5464C151.174 89.4726 151.231 89.4104 151.301 89.3664C151.371 89.3224 151.452 89.2982 151.534 89.2964C151.64 89.2964 151.786 89.2964 151.91 89.3193L153.421 89.4292L156.27 89.6307L164.881 90.2262L166.227 90.3177C166.555 90.3067 166.881 90.3775 167.175 90.5238C167.404 90.654 167.603 90.8321 167.757 91.046Z" fill="#263238"/>
<path d="M151.1 90.0979C151.199 90.1234 151.3 90.1387 151.402 90.1437L152.281 90.2353L155.551 90.5238L166.672 91.4398L166.585 91.3894C167.281 92.4245 168 93.4962 168.719 94.5954C171.655 99.1067 174.215 103.256 176.152 106.206C177.114 107.685 177.916 108.867 178.474 109.682L179.125 110.598C179.195 110.71 179.276 110.814 179.367 110.909C179.307 110.792 179.24 110.679 179.166 110.57L178.552 109.613L176.294 106.1C174.398 103.128 171.856 98.9693 168.92 94.4535C168.201 93.3405 167.478 92.2688 166.777 91.2475L166.745 91.2017H166.713L155.588 90.3773L152.313 90.1574L151.429 90.107C151.32 90.0958 151.21 90.0927 151.1 90.0979Z" fill="#263238"/>
<path d="M159.713 93.0154C159.722 92.9774 159.738 92.9415 159.761 92.9098C159.784 92.8782 159.813 92.8516 159.846 92.8314C159.879 92.8113 159.917 92.7982 159.955 92.7928C159.994 92.7874 160.033 92.7899 160.071 92.8001C160.218 92.8337 160.353 92.9084 160.46 93.0154C160.528 93.0775 160.572 93.1614 160.585 93.2526C160.597 93.3438 160.577 93.4365 160.529 93.5146C160.387 93.6932 160.071 93.6245 159.915 93.478C159.845 93.4245 159.789 93.3539 159.754 93.2729C159.719 93.1919 159.705 93.1033 159.713 93.0154Z" fill="white"/>
<path d="M166.475 103.723C166.475 103.723 167.043 102.349 165.596 102.184C163.846 102.093 162.092 102.093 160.342 102.184C160.342 102.184 158.258 102.404 158.698 103.897C158.698 103.897 157.471 104.997 158.13 106.187C158.79 107.378 159.046 107.021 159.046 107.021C159.046 107.021 158.872 108.473 159.962 108.688C159.962 108.688 161.153 110.094 162.252 110.007C163.351 109.92 168 107.68 168.307 107.259C168.614 106.838 169.054 106.572 168.792 106.082C168.792 106.082 169.36 104.795 168.133 104.598C168.142 104.575 168.055 103.508 166.475 103.723Z" fill="#FFBF9D"/>
<path d="M159.869 104.213C160.191 104.281 160.521 104.305 160.849 104.287C161.454 104.287 162.287 104.287 163.208 104.287C164.001 104.31 164.795 104.264 165.58 104.149C166.203 104.003 166.451 103.636 166.423 103.627C166.154 103.798 165.856 103.917 165.544 103.98C164.971 104.076 164.124 104.016 163.203 104.049C162.283 104.081 161.449 104.09 160.845 104.117C160.517 104.11 160.189 104.142 159.869 104.213Z" fill="#FF9A6C"/>
<path d="M160.904 106.412C161.001 106.469 161.109 106.504 161.22 106.517C161.522 106.578 161.83 106.598 162.136 106.577C162.583 106.543 163.025 106.461 163.455 106.334C163.941 106.201 164.458 106.013 165.003 105.849C165.51 105.681 166.034 105.572 166.565 105.523C167.024 105.566 167.486 105.474 167.893 105.258C168.052 105.15 168.165 104.987 168.209 104.8C168.239 104.66 168.219 104.515 168.154 104.388C168.04 104.181 167.884 104.168 167.889 104.177C167.893 104.186 167.999 104.241 168.067 104.429C168.111 104.556 168.108 104.695 168.059 104.82C168.009 104.945 167.916 105.048 167.797 105.111C167.406 105.283 166.976 105.348 166.551 105.299C166.001 105.333 165.458 105.438 164.935 105.61L163.396 106.119C162.98 106.248 162.554 106.343 162.123 106.403C161.717 106.43 161.31 106.433 160.904 106.412Z" fill="#FF9A6C"/>
<path d="M162.463 108.267C162.797 108.248 163.126 108.184 163.443 108.079C164.039 107.928 164.854 107.694 165.733 107.406C166.613 107.117 167.419 106.819 167.987 106.586C168.309 106.484 168.617 106.341 168.903 106.16C168.875 106.096 167.446 106.618 165.697 107.172C163.947 107.726 162.445 108.203 162.463 108.267Z" fill="#FF9A6C"/>
<path d="M162.092 109.989C162.365 110.013 162.641 109.982 162.903 109.897C163.541 109.742 164.163 109.523 164.757 109.242C165.454 108.926 166.063 108.601 166.502 108.367C166.754 108.261 166.988 108.119 167.199 107.946C166.321 108.229 165.471 108.59 164.657 109.022C163.287 109.682 162.083 109.92 162.092 109.989Z" fill="#FF9A6C"/>
<path d="M208.359 96.8946C208.359 96.8946 205.4 108.748 201.704 113.126C198.123 117.367 192.512 115.416 190.57 109.92C188.628 104.424 185.166 91.9161 185.166 91.9161L189.416 88.6643L196.744 102.904L200.056 93.1985L208.359 96.8946Z" fill="#FFBF9D"/>
<path d="M185.361 92.255L182.242 87.7345C181.788 87.6365 181.344 87.4986 180.914 87.3223C180.562 87.1162 180.213 85.3209 180.223 84.9728C180.232 84.6247 179.618 83.8049 179.865 83.5713C180.113 83.3377 180.946 83.324 180.901 82.9896C180.901 82.9164 180.282 82.1652 180.768 81.6156C181.035 81.4387 181.334 81.3129 181.647 81.2447L181.597 79.518C181.597 79.518 182.513 77.4845 183.479 78.2219C183.479 78.2219 187.065 80.9699 187.427 81.4279C187.789 81.8859 189.172 87.6063 189.415 88.6826" fill="#FFBF9D"/>
<path d="M189.416 88.6735C189.411 88.5714 189.396 88.4701 189.37 88.3712C189.32 88.1514 189.26 87.8674 189.182 87.5102C189.017 86.759 188.766 85.6782 188.427 84.3454C188.253 83.6767 188.065 82.9714 187.822 82.1699C187.763 81.9775 187.698 81.7806 187.616 81.5791C187.521 81.3738 187.376 81.1958 187.195 81.0615C186.865 80.773 186.521 80.489 186.169 80.2005C185.459 79.628 184.703 79.0326 183.92 78.4234C183.722 78.2474 183.5 78.1008 183.26 77.9883C183.12 77.9548 182.974 77.9547 182.834 77.9882C182.694 78.0216 182.564 78.0875 182.454 78.1807C182.045 78.5366 181.719 78.9773 181.497 79.4723V79.4997C181.497 79.6692 181.497 79.8478 181.497 80.0264C181.497 80.4295 181.497 80.8325 181.534 81.2264L181.616 81.1165C181.4 81.1687 181.189 81.2392 180.984 81.3272C180.87 81.3745 180.766 81.4429 180.677 81.5287C180.598 81.621 180.539 81.7286 180.503 81.8447C180.445 82.0734 180.464 82.3152 180.558 82.5317C180.596 82.6351 180.644 82.7348 180.7 82.8294L180.778 82.9622V82.9943C180.78 83.0049 180.78 83.0158 180.778 83.0263C180.778 83.063 180.686 83.1179 180.599 83.15C180.512 83.1821 180.416 83.2141 180.32 83.2462C180.221 83.2727 180.123 83.3048 180.027 83.3424C179.907 83.377 179.802 83.4512 179.729 83.553C179.681 83.6705 179.681 83.802 179.729 83.9194C179.757 84.0182 179.792 84.1147 179.835 84.208C179.912 84.3912 179.999 84.5652 180.064 84.7347C180.096 84.8117 180.115 84.8939 180.119 84.9774C180.12 85.0757 180.13 85.1736 180.146 85.2705C180.173 85.4583 180.206 85.6415 180.247 85.8247C180.318 86.1777 180.414 86.5252 180.535 86.8644C180.593 87.0417 180.687 87.2053 180.81 87.3453C180.96 87.442 181.123 87.5147 181.296 87.5605C181.612 87.6567 181.923 87.7346 182.212 87.8033L182.161 87.7712L184.451 91.0505L185.092 91.939C185.163 92.0461 185.243 92.1472 185.331 92.2413C185.272 92.1274 185.206 92.0172 185.134 91.9115L184.529 90.9955C183.984 90.1849 183.219 89.0536 182.28 87.6705V87.643H182.285C181.992 87.5697 181.685 87.4873 181.369 87.3911C181.222 87.3493 181.082 87.2876 180.952 87.2079C180.854 87.0873 180.779 86.9489 180.732 86.8003C180.615 86.4687 180.524 86.1288 180.457 85.7835C180.421 85.6049 180.389 85.4263 180.361 85.2431C180.361 85.156 180.361 85.0599 180.361 84.9774C180.357 84.8708 180.336 84.7655 180.297 84.666C180.228 84.4782 180.141 84.3042 180.068 84.1255C180.028 84.0417 179.996 83.9543 179.972 83.8645C179.947 83.7965 179.947 83.7218 179.972 83.6538C180.025 83.599 180.091 83.5594 180.164 83.5393C180.256 83.5033 180.349 83.4727 180.444 83.4477C180.54 83.4156 180.641 83.3882 180.741 83.3469C180.867 83.3079 180.973 83.2206 181.035 83.1042C181.051 83.0668 181.059 83.0261 181.057 82.9851C181.056 82.9562 181.048 82.928 181.035 82.9027V82.866L180.957 82.7332C180.907 82.6464 180.865 82.556 180.828 82.463C180.755 82.2911 180.739 82.0998 180.783 81.918C180.807 81.8299 180.851 81.7485 180.911 81.6798C180.98 81.6192 181.059 81.5712 181.144 81.5378C181.337 81.455 181.536 81.3876 181.74 81.3363L181.822 81.3134V81.2264C181.822 80.8325 181.799 80.4341 181.786 80.031C181.786 79.8524 181.786 79.6692 181.786 79.5043V79.5547C181.989 79.0924 182.291 78.6799 182.67 78.3456C182.751 78.2705 182.849 78.2166 182.956 78.1886C183.063 78.1607 183.176 78.1595 183.283 78.1853C183.497 78.2901 183.695 78.4225 183.874 78.5792C184.662 79.1883 185.418 79.7791 186.128 80.347C186.485 80.631 186.828 80.9104 187.153 81.1898C187.318 81.3066 187.449 81.4645 187.534 81.6478C187.611 81.8355 187.676 82.0325 187.74 82.2203C187.982 82.9897 188.198 83.7179 188.363 84.3774C188.706 85.6919 188.99 86.759 189.187 87.5239C189.283 87.8766 189.356 88.1605 189.411 88.3758C189.403 88.4749 189.404 88.5747 189.416 88.6735Z" fill="#FF9A6C"/>
<path d="M181.648 81.2448C181.648 81.2815 182.01 81.2448 182.564 81.309C182.896 81.3601 183.224 81.4351 183.545 81.5334C183.965 81.5931 184.392 81.5931 184.813 81.5334C185.174 81.4826 185.542 81.5148 185.889 81.6275C186.236 81.7402 186.552 81.9304 186.815 82.1837C187.018 82.4092 187.18 82.6679 187.296 82.9486C187.298 82.7855 187.266 82.6236 187.203 82.4732C187.14 82.3227 187.047 82.1867 186.929 82.0738C186.691 81.8117 186.397 81.6066 186.068 81.4738C185.665 81.3173 185.229 81.2623 184.799 81.3135C184.396 81.3637 183.989 81.3637 183.586 81.3135C183.255 81.2214 182.916 81.1616 182.574 81.1349C182.261 81.11 181.947 81.1474 181.648 81.2448Z" fill="#FF9A6C"/>
<path d="M182.917 81.1486C182.967 81.1761 183.114 80.9654 183.096 80.6677C183.077 80.37 182.908 80.1822 182.862 80.2097C182.816 80.2372 182.862 80.4387 182.862 80.6677C182.862 80.8967 182.858 81.1257 182.917 81.1486Z" fill="#FF9A6C"/>
<path d="M180.791 83.0538C181.697 83.1403 182.611 83.069 183.493 82.8431C183.813 82.738 184.151 82.6945 184.487 82.7149C184.748 82.7723 184.978 82.924 185.133 83.1408C185.268 83.3565 185.387 83.5814 185.49 83.8141C185.506 83.5366 185.427 83.262 185.266 83.0355C185.101 82.7688 184.838 82.5779 184.533 82.5042C184.169 82.4616 183.801 82.4975 183.452 82.6095C182 82.9393 180.791 82.9897 180.791 83.0538Z" fill="#FF9A6C"/>
<path d="M180.314 84.6844C180.533 84.7353 180.76 84.7353 180.979 84.6844C181.386 84.6386 181.936 84.4966 182.531 84.3775C182.806 84.3162 183.088 84.2885 183.369 84.2951C183.588 84.2989 183.8 84.3763 183.969 84.5149C184.121 84.6551 184.225 84.8393 184.267 85.0416C184.267 85.0416 184.308 84.9821 184.304 84.8584C184.285 84.6841 184.205 84.522 184.079 84.4004C183.894 84.2174 183.648 84.1083 183.388 84.0935C183.081 84.0724 182.772 84.0955 182.472 84.1622C181.858 84.2813 181.327 84.4462 180.933 84.5286C180.722 84.5594 180.515 84.6116 180.314 84.6844Z" fill="#FF9A6C"/>
<path d="M181.368 85.9758C181.332 86.0033 181.638 86.3239 182.197 86.3239L182.087 86.2277C182.087 86.3239 182.087 86.4201 182.119 86.5163C182.134 86.9089 182.221 87.2955 182.376 87.6567C182.437 87.2701 182.424 86.8754 182.339 86.4934L182.298 86.2048V86.1041H182.202C181.92 86.0924 181.64 86.0494 181.368 85.9758Z" fill="#FF9A6C"/>
<path d="M203.678 84.8904C203.678 84.8904 209.737 86.356 209.723 94.3939C209.71 102.432 207.891 106.398 207.891 106.398L196.721 100.302L199.231 94.0595L203.678 84.8904Z" fill="#455A64"/>
<path d="M207.891 106.398C207.811 106.375 207.734 106.341 207.662 106.297L207.012 105.968L204.63 104.713L196.666 100.421L196.574 100.375L196.611 100.279L197.211 98.7128C197.925 96.8579 198.585 95.09 199.226 93.4825C199.537 92.681 199.831 91.9161 200.11 91.1925C200.354 90.5202 200.649 89.8679 200.994 89.2414C201.454 88.304 202.148 87.501 203.009 86.9102C203.251 86.7588 203.518 86.6518 203.797 86.5941C203.868 86.579 203.94 86.5698 204.012 86.5667H204.09C203.724 86.6429 203.374 86.7857 203.059 86.988C202.233 87.5924 201.573 88.3959 201.14 89.3238C200.811 89.9482 200.528 90.5956 200.293 91.2612C200.023 91.9802 199.734 92.7451 199.428 93.5512L197.431 98.7907L196.831 100.357L196.776 100.21L204.727 104.575L207.072 105.894L207.699 106.261C207.768 106.299 207.832 106.345 207.891 106.398Z" fill="#263238"/>
</svg>
