<svg width="225" height="225" viewBox="0 0 225 225" fill="none" xmlns="http://www.w3.org/2000/svg">
<path d="M225 172.08H0V172.193H225V172.08Z" fill="#EBEBEB"/>
<path d="M58.6669 176.364H23.6074V176.477H58.6669V176.364Z" fill="#EBEBEB"/>
<path d="M202.455 179.789H185.4V179.901H202.455V179.789Z" fill="#EBEBEB"/>
<path d="M67.7527 180.544H59.1172V180.657H67.7527V180.544Z" fill="#EBEBEB"/>
<path d="M110.412 175.145H90.9766V175.257H110.412V175.145Z" fill="#EBEBEB"/>
<path d="M117.266 175.145H114.418V175.257H117.266V175.145Z" fill="#EBEBEB"/>
<path d="M166.9 177.889H147.451V178.002H166.9V177.889Z" fill="#EBEBEB"/>
<path d="M106.651 152.01H19.7603C19.0796 152.009 18.4272 151.738 17.9463 151.256C17.4654 150.774 17.1953 150.121 17.1953 149.44V27.297C17.2012 26.6202 17.4739 25.9731 17.9542 25.4962C18.4345 25.0193 19.0835 24.7512 19.7603 24.75H106.651C107.332 24.75 107.986 25.0207 108.468 25.5026C108.95 25.9845 109.22 26.638 109.22 27.3195V149.44C109.22 150.122 108.95 150.776 108.468 151.257C107.986 151.739 107.332 152.01 106.651 152.01ZM19.7603 24.84C19.1095 24.8412 18.4857 25.1006 18.0259 25.5612C17.5661 26.0219 17.3078 26.6461 17.3078 27.297V149.44C17.3078 150.091 17.5661 150.716 18.0259 151.176C18.4857 151.637 19.1095 151.896 19.7603 151.897H106.651C107.302 151.896 107.926 151.637 108.387 151.177C108.847 150.716 109.107 150.092 109.108 149.44V27.297C109.107 26.6457 108.847 26.0215 108.387 25.561C107.926 25.1004 107.302 24.8412 106.651 24.84H19.7603Z" fill="#EBEBEB"/>
<path d="M203.99 152.01H117.095C116.414 152.009 115.761 151.738 115.279 151.256C114.798 150.774 114.527 150.122 114.525 149.44V27.297C114.532 26.6198 114.806 25.9727 115.287 25.4959C115.768 25.0191 116.418 24.7511 117.095 24.75H203.99C204.666 24.7523 205.314 25.021 205.793 25.4978C206.272 25.9745 206.544 26.621 206.55 27.297V149.44C206.55 150.12 206.281 150.773 205.801 151.254C205.321 151.736 204.67 152.008 203.99 152.01ZM117.095 24.84C116.444 24.8412 115.819 25.1004 115.359 25.561C114.898 26.0215 114.639 26.6457 114.638 27.297V149.44C114.639 150.092 114.898 150.716 115.359 151.177C115.819 151.637 116.444 151.896 117.095 151.897H203.99C204.641 151.896 205.265 151.637 205.726 151.177C206.186 150.716 206.446 150.092 206.447 149.44V27.297C206.446 26.6457 206.186 26.0215 205.726 25.561C205.265 25.1004 204.641 24.8412 203.99 24.84H117.095Z" fill="#EBEBEB"/>
<path d="M59.7912 161.793H37.6782C37.2013 161.793 36.7406 161.62 36.3803 161.308C36.0201 160.996 35.7843 160.564 35.7162 160.092L30.1812 122.261C30.1398 121.978 30.1597 121.691 30.2396 121.417C30.3194 121.143 30.4574 120.89 30.644 120.674C30.8306 120.458 31.0616 120.285 31.321 120.167C31.5805 120.049 31.8625 119.988 32.1477 119.988H54.2562C54.7326 119.987 55.1932 120.159 55.5536 120.47C55.914 120.782 56.15 121.213 56.2182 121.685L61.7532 159.521C61.7945 159.802 61.7747 160.09 61.6951 160.363C61.6155 160.637 61.4779 160.89 61.2918 161.105C61.1057 161.321 60.8753 161.494 60.6164 161.613C60.3574 161.731 60.076 161.793 59.7912 161.793Z" fill="#F0F0F0"/>
<path d="M40.3117 161.793H29.8852C29.4081 161.793 28.9469 161.622 28.5864 161.309C28.2259 160.997 27.9904 160.564 27.9232 160.092L22.3882 122.261C22.3469 121.979 22.3667 121.691 22.4463 121.418C22.5259 121.144 22.6634 120.891 22.8496 120.676C23.0357 120.46 23.2661 120.287 23.525 120.168C23.7839 120.05 24.0654 119.988 24.3502 119.988H34.7767C35.2534 119.988 35.7141 120.16 36.0751 120.471C36.436 120.782 36.6731 121.213 36.7432 121.685L42.2737 159.521C42.315 159.802 42.2952 160.09 42.2156 160.363C42.136 160.637 41.9985 160.89 41.8123 161.105C41.6262 161.321 41.3958 161.494 41.1369 161.613C40.878 161.731 40.5965 161.793 40.3117 161.793Z" fill="#FAFAFA"/>
<path d="M172.268 110.398H64.7991C62.0676 110.398 59.6691 112.446 59.4351 114.97L56.7351 144.18C56.5011 146.704 58.5351 148.752 61.2351 148.752H168.695C171.427 148.752 173.825 146.704 174.059 144.18L176.759 114.97C177.02 112.446 175 110.398 172.268 110.398Z" fill="#E0E0E0"/>
<path d="M164.974 110.398H57.514C54.7825 110.398 52.384 112.446 52.15 114.97L49.45 144.18C49.216 146.704 51.25 148.752 53.95 148.752H161.41C164.141 148.752 166.544 146.704 166.774 144.18L169.474 114.97C169.726 112.446 167.705 110.398 164.974 110.398Z" fill="#E6E6E6"/>
<path d="M90.9004 158.557V148.153C90.9004 146.367 89.4518 144.918 87.6649 144.918H47.1874C45.4005 144.918 43.9519 146.367 43.9519 148.153V158.557C43.9519 160.344 45.4005 161.793 47.1874 161.793H87.6649C89.4518 161.793 90.9004 160.344 90.9004 158.557Z" fill="#EBEBEB"/>
<path d="M155.637 158.832V147.879C155.637 146.244 154.311 144.918 152.676 144.918H105.435C103.799 144.918 102.474 146.244 102.474 147.879V158.832C102.474 160.467 103.799 161.793 105.435 161.793H152.676C154.311 161.793 155.637 160.467 155.637 158.832Z" fill="#E0E0E0"/>
<path d="M144.059 158.828V147.875C144.059 146.239 142.733 144.914 141.098 144.914H93.8566C92.2213 144.914 90.8956 146.239 90.8956 147.875V158.828C90.8956 160.463 92.2213 161.789 93.8566 161.789H141.098C142.733 161.789 144.059 160.463 144.059 158.828Z" fill="#EBEBEB"/>
<path d="M171.976 161.793H155.528C155.252 161.799 154.977 161.739 154.729 161.617C154.48 161.495 154.264 161.315 154.1 161.092C153.935 160.869 153.827 160.61 153.783 160.337C153.74 160.063 153.763 159.783 153.85 159.52L164.2 121.684C164.336 121.206 164.621 120.784 165.013 120.479C165.406 120.173 165.885 120.002 166.382 119.988H182.83C183.106 119.982 183.38 120.043 183.628 120.166C183.876 120.288 184.091 120.468 184.255 120.691C184.419 120.913 184.528 121.172 184.571 121.445C184.614 121.718 184.591 121.998 184.504 122.26L174.154 160.092C174.02 160.571 173.737 160.995 173.345 161.301C172.953 161.607 172.473 161.779 171.976 161.793Z" fill="#F0F0F0"/>
<path d="M158.157 161.793H147.731C147.454 161.798 147.181 161.737 146.933 161.615C146.685 161.493 146.469 161.313 146.305 161.09C146.141 160.868 146.033 160.609 145.99 160.336C145.947 160.062 145.97 159.783 146.057 159.52L156.407 121.684C156.542 121.206 156.827 120.783 157.22 120.478C157.612 120.173 158.092 120.001 158.589 119.988H169.02C169.297 119.982 169.572 120.042 169.82 120.164C170.069 120.286 170.284 120.466 170.449 120.689C170.614 120.912 170.722 121.171 170.766 121.444C170.809 121.718 170.786 121.998 170.699 122.26L160.349 160.092C160.213 160.573 159.927 160.997 159.533 161.303C159.139 161.609 158.657 161.781 158.157 161.793Z" fill="#FAFAFA"/>
<path d="M149.436 172.08H147.852L144.059 161.793H147.983L149.436 172.08Z" fill="#E0E0E0"/>
<path d="M169.514 172.08H167.93L164.137 161.793H168.056L169.514 172.08Z" fill="#E0E0E0"/>
<path d="M55.3809 172.08H56.9649L60.7539 161.793H56.8344L55.3809 172.08Z" fill="#E0E0E0"/>
<path d="M35.3027 172.08H36.8867L40.6757 161.793H36.7607L35.3027 172.08Z" fill="#E0E0E0"/>
<path d="M172.499 43.9514H52.502V86.7509H172.499V43.9514Z" fill="#E0E0E0"/>
<path d="M171.395 43.9514H51.3984V86.7509H171.395V43.9514Z" fill="#F0F0F0"/>
<path d="M167.801 83.151V47.5515L55.0038 47.5515V83.151H167.801Z" fill="#FAFAFA"/>
<path d="M111.403 76.0231C117.298 76.0231 122.077 71.2441 122.077 65.349C122.077 59.454 117.298 54.675 111.403 54.675C105.507 54.675 100.729 59.454 100.729 65.349C100.729 71.2441 105.507 76.0231 111.403 76.0231Z" fill="#F0F0F0"/>
<path d="M73.3086 83.151L80.7876 47.5515H97.2846L89.8101 83.151H73.3086Z" fill="white"/>
<path d="M96.7734 83.151L104.252 47.5515H112.501L105.026 83.151H96.7734Z" fill="white"/>
<path d="M147.145 83.151L154.624 47.5515H162.872L155.398 83.151H147.145Z" fill="white"/>
<path d="M199.026 113.292C196.227 125.442 203.076 137.961 200.273 150.093L197.501 149.976L194.729 149.863C199.377 137.803 194.4 125.347 199.026 113.292Z" fill="#F0F0F0"/>
<path d="M191.848 118.552C194.143 130.153 186.781 141.754 189.076 153.355H194.625C190.48 141.75 195.993 130.153 191.848 118.552Z" fill="#F0F0F0"/>
<path d="M196.974 108.9C193.302 121.27 200.124 134.622 196.452 146.992L193.437 146.709L190.422 146.43C196.105 134.253 191.29 121.09 196.974 108.9Z" fill="#E6E6E6"/>
<path d="M202.379 126.725C203.563 133.412 196.979 138.672 198.145 145.364L200.395 145.773L202.645 146.183C199.945 139.221 205.052 133.686 202.379 126.725Z" fill="#E6E6E6"/>
<path d="M195.76 175.455C204.123 175.455 210.902 167.864 210.902 158.499C210.902 149.134 204.123 141.543 195.76 141.543C187.397 141.543 180.617 149.134 180.617 158.499C180.617 167.864 187.397 175.455 195.76 175.455Z" fill="#E0E0E0"/>
<path d="M112.5 192.402C160.688 192.402 199.751 190.121 199.751 187.308C199.751 184.495 160.688 182.214 112.5 182.214C64.3134 182.214 25.25 184.495 25.25 187.308C25.25 190.121 64.3134 192.402 112.5 192.402Z" fill="#F5F5F5"/>
<path d="M172.71 123.566H75.4651C75.2197 123.566 74.9769 123.516 74.7515 123.419C74.5261 123.323 74.3228 123.181 74.1543 123.002C73.9857 122.824 73.8553 122.613 73.7712 122.383C73.6871 122.152 73.651 121.907 73.6651 121.662L76.9501 62.0417C76.9851 61.5298 77.2114 61.0498 77.5841 60.6971C77.9568 60.3444 78.4485 60.1449 78.9616 60.1382H176.207C176.452 60.1378 176.695 60.1875 176.92 60.2844C177.146 60.3813 177.349 60.5232 177.517 60.7014C177.686 60.8797 177.816 61.0906 177.9 61.321C177.985 61.5515 178.021 61.7967 178.007 62.0417L174.731 121.662C174.698 122.176 174.471 122.659 174.096 123.012C173.72 123.366 173.225 123.563 172.71 123.566Z" fill="#263238"/>
<path d="M131.8 70.2766H122.4C121.663 70.2856 120.932 70.1422 120.254 69.8554C119.575 69.5687 118.963 69.1447 118.456 68.6102C117.949 68.0757 117.558 67.4421 117.307 66.7493C117.056 66.0564 116.952 65.3193 117 64.5841L117.094 62.8471C117.195 61.3647 117.849 59.9745 118.928 58.953C120.007 57.9316 121.431 57.3538 122.917 57.3346H132.313C133.05 57.3262 133.78 57.4701 134.458 57.7571C135.137 58.0441 135.748 58.468 136.255 59.0024C136.762 59.5368 137.153 60.1701 137.404 60.8626C137.655 61.5551 137.76 62.292 137.713 63.0271L137.619 64.7641C137.516 66.2449 136.861 67.6333 135.784 68.6542C134.706 69.6752 133.284 70.2542 131.8 70.2766Z" fill="#263238"/>
<path d="M140.359 185.427H137.348L129.055 58.6621H132.07L140.359 185.427Z" fill="#263238"/>
<path d="M117.752 185.427H120.767L129.056 58.6621H126.045L117.752 185.427Z" fill="#263238"/>
<path d="M172.193 123.566H74.9475C74.7022 123.566 74.4593 123.516 74.2339 123.419C74.0085 123.323 73.8052 123.181 73.6367 123.002C73.4681 122.824 73.3378 122.613 73.2536 122.383C73.1695 122.152 73.1334 121.907 73.1475 121.662L76.419 62.0417C76.454 61.5298 76.6803 61.0498 77.053 60.6971C77.4257 60.3444 77.9174 60.1449 78.4305 60.1382H175.676C175.921 60.1378 176.164 60.1875 176.389 60.2844C176.615 60.3813 176.818 60.5232 176.986 60.7014C177.155 60.8797 177.285 61.0906 177.369 61.321C177.454 61.5515 177.49 61.7967 177.476 62.0417L174.2 121.662C174.167 122.174 173.942 122.655 173.569 123.008C173.197 123.361 172.705 123.56 172.193 123.566Z" fill="#FF6D38"/>
<path opacity="0.4" d="M76.4998 121.739C76.3031 121.741 76.1081 121.703 75.9269 121.626C75.7458 121.549 75.5825 121.436 75.4472 121.293C75.312 121.15 75.2078 120.981 75.1411 120.796C75.0744 120.611 75.0467 120.414 75.0598 120.218L78.1783 63.4862C78.2043 63.0774 78.3839 62.6935 78.681 62.4115C78.978 62.1294 79.3707 61.97 79.7803 61.9652H174.15C174.346 61.9629 174.541 62.0013 174.723 62.078C174.904 62.1547 175.067 62.268 175.202 62.4109C175.338 62.5537 175.442 62.723 175.508 62.908C175.575 63.0931 175.603 63.2899 175.59 63.4862L172.471 120.218C172.445 120.627 172.265 121.012 171.967 121.294C171.669 121.576 171.275 121.735 170.865 121.739H76.4998Z" fill="#263238"/>
<path opacity="0.1" d="M171.45 91.6697H143.032C142.865 91.6719 142.699 91.6395 142.545 91.5745C142.391 91.5095 142.252 91.4133 142.137 91.292C142.022 91.1706 141.934 91.0268 141.877 90.8695C141.82 90.7123 141.797 90.545 141.808 90.3782L143.226 64.5527C143.227 64.5292 143.223 64.5058 143.215 64.4838C143.207 64.4617 143.195 64.4415 143.179 64.4243C143.163 64.4071 143.144 64.3933 143.122 64.3836C143.101 64.374 143.078 64.3687 143.055 64.3682C143.005 64.3692 142.958 64.3887 142.922 64.4228C142.886 64.457 142.864 64.5033 142.861 64.5527L141.444 90.3782C141.42 90.723 141.269 91.0466 141.019 91.2856C140.769 91.5245 140.439 91.6615 140.094 91.6697H110.565C110.397 91.6719 110.232 91.6395 110.078 91.5745C109.924 91.5095 109.785 91.4133 109.67 91.292C109.555 91.1706 109.466 91.0268 109.41 90.8695C109.353 90.7123 109.329 90.545 109.341 90.3782L110.758 64.5527C110.759 64.5292 110.756 64.5058 110.748 64.4838C110.74 64.4617 110.727 64.4415 110.712 64.4243C110.696 64.4071 110.676 64.3933 110.655 64.3836C110.634 64.374 110.611 64.3687 110.587 64.3682C110.538 64.3692 110.49 64.3887 110.455 64.4228C110.419 64.457 110.397 64.5033 110.394 64.5527L108.976 90.3782C108.953 90.723 108.801 91.0466 108.551 91.2856C108.302 91.5245 107.972 91.6615 107.626 91.6697H79.1996C79.1498 91.6696 79.1019 91.6888 79.0659 91.7231C79.0298 91.7575 79.0084 91.8044 79.0061 91.8542C79.0049 91.8774 79.0084 91.9006 79.0164 91.9224C79.0245 91.9442 79.0369 91.9641 79.0529 91.9809C79.0689 91.9978 79.0881 92.0112 79.1095 92.0203C79.1309 92.0295 79.1539 92.0342 79.1771 92.0342H107.581C107.748 92.0326 107.914 92.0655 108.068 92.131C108.222 92.1966 108.361 92.2932 108.476 92.4149C108.591 92.5365 108.68 92.6807 108.736 92.8382C108.793 92.9957 108.816 93.1632 108.805 93.3302L107.388 119.151C107.385 119.175 107.388 119.199 107.395 119.222C107.403 119.244 107.415 119.265 107.431 119.282C107.447 119.3 107.467 119.314 107.489 119.323C107.511 119.332 107.535 119.336 107.559 119.336C107.608 119.335 107.655 119.315 107.691 119.281C107.727 119.247 107.749 119.201 107.752 119.151L109.17 93.3302C109.191 92.9842 109.342 92.6588 109.592 92.4188C109.842 92.1787 110.173 92.0414 110.52 92.0342H140.035C140.206 92.0268 140.376 92.0556 140.535 92.1185C140.694 92.1815 140.838 92.2772 140.957 92.3995C141.076 92.5218 141.169 92.668 141.228 92.8283C141.287 92.9887 141.311 93.1597 141.3 93.3302L139.882 119.151C139.88 119.175 139.882 119.199 139.89 119.222C139.897 119.244 139.909 119.265 139.925 119.282C139.942 119.3 139.961 119.314 139.984 119.323C140.006 119.332 140.029 119.336 140.053 119.336C140.103 119.335 140.15 119.315 140.186 119.281C140.222 119.247 140.243 119.201 140.247 119.151L141.664 93.3302C141.685 92.9842 141.836 92.6588 142.086 92.4188C142.336 92.1787 142.668 92.0414 143.014 92.0342H171.418C171.467 92.0333 171.514 92.0144 171.549 91.9812C171.585 91.948 171.607 91.9027 171.612 91.8542C171.613 91.8313 171.611 91.8084 171.603 91.7866C171.596 91.7649 171.585 91.7448 171.57 91.7276C171.555 91.7104 171.536 91.6964 171.515 91.6865C171.495 91.6765 171.472 91.6708 171.45 91.6697Z" fill="white"/>
<path opacity="0.4" d="M125.123 69.0481H113.715L113.076 80.6536L124.47 80.9596L125.123 69.0481Z" fill="#263238"/>
<path d="M123.89 80.46L112.438 79.902C113.068 75.9825 113.467 72.0291 113.63 68.0625L125.146 68.6205C124.961 72.5883 124.542 76.5417 123.89 80.46Z" fill="white"/>
<path opacity="0.4" d="M138.879 76.8015L127.453 77.6745L127.705 89.2395L139.135 88.6725L138.879 76.8015Z" fill="#263238"/>
<path d="M138.515 88.2226L127.004 88.5421C127.335 84.6034 127.432 80.6483 127.292 76.6981L138.866 76.3696C138.985 80.3241 138.867 84.2821 138.515 88.2226Z" fill="#FF6D38"/>
<path opacity="0.4" d="M105.515 97.9021L84.455 97.1011L82.5605 115.835L103.576 117.131L105.515 97.9021Z" fill="#263238"/>
<path d="M102.527 116.284L81.4492 114.57C82.8501 108.283 83.8273 101.908 84.3742 95.49L105.578 97.2C104.993 103.623 103.974 109.999 102.527 116.284Z" fill="white"/>
<g style="mix-blend-mode:multiply" opacity="0.3">
<path d="M83.8399 71.6716C83.6865 71.6725 83.5346 71.6419 83.3935 71.5816C83.2525 71.5214 83.1253 71.4329 83.0198 71.3215C82.9143 71.2102 82.8329 71.0783 82.7804 70.9342C82.728 70.79 82.7057 70.6367 82.7149 70.4836C82.7385 70.1651 82.8805 69.867 83.1128 69.648C83.3452 69.4289 83.6511 69.3048 83.9704 69.3001C84.1236 69.2991 84.2754 69.3297 84.4162 69.39C84.5571 69.4503 84.684 69.5389 84.7891 69.6503C84.8942 69.7618 84.9753 69.8937 85.0272 70.0378C85.0791 70.1819 85.1008 70.3352 85.0909 70.4881C85.0684 70.8061 84.9274 71.1042 84.6958 71.3233C84.4642 71.5425 84.1588 71.6667 83.8399 71.6716Z" fill="#263238"/>
<path opacity="0.8" d="M102.447 71.6717H87.8357C87.6825 71.6726 87.5308 71.642 87.3899 71.5817C87.2491 71.5215 87.1221 71.4329 87.017 71.3214C86.9119 71.21 86.8309 71.0781 86.779 70.934C86.727 70.7898 86.7053 70.6366 86.7152 70.4837C86.7356 70.1644 86.8758 69.8647 87.1078 69.6444C87.3397 69.4241 87.6463 69.2996 87.9662 69.2957H102.6C102.754 69.2948 102.906 69.3254 103.047 69.3856C103.188 69.4458 103.315 69.5343 103.42 69.6457C103.526 69.7571 103.607 69.8889 103.66 70.0331C103.712 70.1772 103.734 70.3306 103.725 70.4837C103.702 70.8068 103.558 71.1092 103.321 71.3297C103.083 71.5503 102.771 71.6725 102.447 71.6717Z" fill="#263238"/>
<path d="M83.5551 76.8511C83.4015 76.8527 83.2493 76.8225 83.1079 76.7625C82.9665 76.7026 82.839 76.614 82.7334 76.5025C82.6278 76.391 82.5464 76.2589 82.4942 76.1145C82.442 75.97 82.4201 75.8164 82.4301 75.6631C82.4517 75.3412 82.5948 75.0395 82.8303 74.8189C83.0659 74.5984 83.3764 74.4755 83.6991 74.4751C83.8523 74.4742 84.004 74.5048 84.1449 74.5651C84.2857 74.6253 84.4126 74.7139 84.5178 74.8254C84.6229 74.9368 84.7039 75.0687 84.7558 75.2128C84.8078 75.357 84.8295 75.5102 84.8196 75.6631C84.798 75.9843 84.6555 76.2854 84.4209 76.5058C84.1863 76.7262 83.877 76.8496 83.5551 76.8511Z" fill="#263238"/>
<path opacity="0.8" d="M104.75 76.8511H87.5509C87.3975 76.852 87.2456 76.8214 87.1045 76.7612C86.9634 76.701 86.8362 76.6125 86.7307 76.5011C86.6253 76.3897 86.5438 76.2579 86.4914 76.1137C86.4389 75.9696 86.4166 75.8162 86.4259 75.6631C86.4484 75.3439 86.5898 75.0447 86.8223 74.8247C87.0548 74.6047 87.3613 74.48 87.6814 74.4751H104.88C105.034 74.4742 105.186 74.5048 105.327 74.565C105.468 74.6252 105.595 74.7138 105.7 74.8251C105.806 74.9365 105.887 75.0684 105.94 75.2125C105.992 75.3566 106.015 75.51 106.005 75.6631C105.983 75.9824 105.841 76.2816 105.609 76.5016C105.376 76.7215 105.07 76.8463 104.75 76.8511Z" fill="#263238"/>
<path d="M83.2498 82.0261C83.0968 82.0277 82.9452 81.9976 82.8043 81.9379C82.6635 81.8781 82.5365 81.7899 82.4313 81.6788C82.3261 81.5677 82.245 81.4361 82.1931 81.2922C82.1411 81.1483 82.1194 80.9953 82.1293 80.8426C82.1497 80.5234 82.2899 80.2236 82.5219 80.0033C82.7538 79.783 83.0604 79.6585 83.3803 79.6546C83.5339 79.653 83.6861 79.6832 83.8275 79.7432C83.9689 79.8032 84.0963 79.8917 84.2019 80.0032C84.3075 80.1147 84.389 80.2468 84.4412 80.3913C84.4934 80.5357 84.5152 80.6893 84.5053 80.8426C84.4827 81.1614 84.3411 81.4601 84.1085 81.6794C83.8759 81.8986 83.5694 82.0224 83.2498 82.0261Z" fill="#263238"/>
<path opacity="0.8" d="M95.638 82.0261H87.2635C87.1105 82.0277 86.9588 81.9976 86.818 81.9379C86.6772 81.8781 86.5502 81.7899 86.445 81.6788C86.3398 81.5677 86.2587 81.4361 86.2067 81.2922C86.1548 81.1483 86.133 80.9953 86.143 80.8426C86.1634 80.5234 86.3036 80.2236 86.5355 80.0033C86.7675 79.783 87.0741 79.6585 87.394 79.6546H95.7685C95.9219 79.653 96.0739 79.6832 96.2151 79.7432C96.3562 79.8032 96.4834 79.8918 96.5887 80.0034C96.6939 80.115 96.775 80.2472 96.8266 80.3916C96.8783 80.536 96.8995 80.6896 96.889 80.8426C96.8675 81.161 96.7268 81.4597 96.4949 81.679C96.2631 81.8984 95.9571 82.0223 95.638 82.0261Z" fill="#263238"/>
<path opacity="0.8" d="M103.392 87.2056H95.0174C94.8642 87.2065 94.7124 87.1759 94.5716 87.1157C94.4307 87.0554 94.3038 86.9668 94.1987 86.8554C94.0936 86.7439 94.0125 86.612 93.9606 86.4679C93.9087 86.3238 93.887 86.1705 93.8969 86.0176C93.9183 85.6987 94.0588 85.3996 94.2905 85.1795C94.5223 84.9594 94.8283 84.8345 95.1479 84.8296H103.522C103.676 84.8287 103.827 84.8593 103.968 84.9195C104.109 84.9798 104.236 85.0684 104.341 85.1799C104.446 85.2913 104.527 85.4232 104.579 85.5673C104.631 85.7115 104.653 85.8647 104.643 86.0176C104.621 86.3365 104.481 86.6356 104.249 86.8557C104.017 87.0758 103.711 87.2007 103.392 87.2056Z" fill="#263238"/>
<path d="M82.9842 87.2056C82.831 87.2065 82.6792 87.1759 82.5384 87.1157C82.3975 87.0554 82.2706 86.9668 82.1655 86.8554C82.0604 86.7439 81.9793 86.612 81.9274 86.4679C81.8755 86.3238 81.8538 86.1705 81.8637 86.0176C81.8851 85.6987 82.0256 85.3996 82.2573 85.1795C82.4891 84.9594 82.7951 84.8345 83.1147 84.8296C83.2678 84.8287 83.4196 84.8593 83.5604 84.9195C83.7013 84.9798 83.8282 85.0684 83.9333 85.1799C84.0385 85.2913 84.1195 85.4232 84.1714 85.5673C84.2233 85.7115 84.245 85.8647 84.2352 86.0176C84.2137 86.3365 84.0732 86.6356 83.8415 86.8557C83.6097 87.0758 83.3037 87.2007 82.9842 87.2056Z" fill="#263238"/>
<path opacity="0.8" d="M90.8457 87.2056H86.9802C86.8271 87.2066 86.6753 87.176 86.5345 87.1157C86.3936 87.0555 86.2667 86.9668 86.1616 86.8554C86.0564 86.744 85.9754 86.6121 85.9235 86.4679C85.8716 86.3238 85.8499 86.1705 85.8597 86.0176C85.8812 85.6988 86.0217 85.3996 86.2534 85.1795C86.4852 84.9595 86.7912 84.8346 87.1107 84.8296H90.9762C91.1298 84.8281 91.2821 84.8582 91.4234 84.9182C91.5648 84.9782 91.6923 85.0667 91.7979 85.1782C91.9035 85.2897 91.9849 85.4219 92.0371 85.5663C92.0893 85.7107 92.1112 85.8644 92.1012 86.0176C92.0798 86.3373 91.9386 86.6371 91.7059 86.8573C91.4732 87.0774 91.1661 87.2018 90.8457 87.2056Z" fill="#263238"/>
</g>
<path d="M119.313 102.614H113.648L112.869 116.793H118.535L119.313 102.614Z" fill="#FF6D38"/>
<path d="M127.913 105.539H122.243L121.627 116.793H127.292L127.913 105.539Z" fill="#FF6D38"/>
<path d="M137.079 97.9875H131.413L130.383 116.793H136.048L137.079 97.9875Z" fill="#FF6D38"/>
<path d="M114.913 110.615C114.35 110.615 113.783 110.615 113.212 110.57C112.036 110.55 110.874 110.315 109.783 109.877C109.694 109.836 109.625 109.763 109.59 109.672C109.556 109.581 109.559 109.479 109.598 109.391C109.618 109.347 109.647 109.307 109.682 109.274C109.717 109.241 109.759 109.216 109.804 109.199C109.849 109.182 109.897 109.175 109.945 109.177C109.993 109.179 110.041 109.19 110.084 109.211C111.088 109.608 112.155 109.821 113.234 109.841C120.034 110.192 125.987 108.419 131.981 104.27C133.852 102.97 135.498 101.374 136.855 99.5445C136.881 99.5021 136.915 99.4654 136.955 99.4366C136.996 99.4079 137.042 99.3877 137.09 99.3774C137.139 99.367 137.189 99.3667 137.238 99.3765C137.287 99.3862 137.333 99.4059 137.374 99.4341C137.414 99.4624 137.449 99.4987 137.475 99.5408C137.502 99.583 137.519 99.63 137.527 99.6791C137.534 99.7282 137.531 99.7784 137.519 99.8264C137.506 99.8745 137.484 99.9194 137.453 99.9585C136.056 101.859 134.351 103.512 132.409 104.85C126.784 108.77 121.181 110.615 114.913 110.615Z" fill="white"/>
<path d="M138.311 102.344C138.251 102.344 138.192 102.329 138.139 102.301C138.086 102.273 138.041 102.232 138.008 102.182C137.974 102.132 137.954 102.075 137.948 102.015C137.942 101.955 137.951 101.895 137.974 101.84C138.489 100.592 138.599 99.2151 138.289 97.902C136.868 98.8589 135.351 99.6643 133.762 100.305C133.717 100.325 133.669 100.335 133.62 100.336C133.571 100.337 133.523 100.328 133.478 100.309C133.433 100.291 133.392 100.264 133.357 100.23C133.322 100.195 133.295 100.154 133.277 100.109C133.258 100.064 133.249 100.015 133.25 99.9665C133.251 99.9178 133.261 99.8696 133.281 99.825C133.3 99.7803 133.329 99.74 133.364 99.7066C133.4 99.6731 133.442 99.647 133.487 99.63C135.183 98.9451 136.794 98.0679 138.289 97.0155C138.336 96.9842 138.389 96.964 138.445 96.9564C138.501 96.9489 138.557 96.9543 138.611 96.9721C138.664 96.9899 138.713 97.0197 138.753 97.0592C138.793 97.0987 138.824 97.1469 138.842 97.2C139.366 98.8102 139.297 100.554 138.649 102.119C138.621 102.185 138.574 102.242 138.514 102.282C138.454 102.322 138.383 102.344 138.311 102.344Z" fill="white"/>
<path d="M168.151 88.3666H147.073C146.899 88.3682 146.726 88.3338 146.566 88.2655C146.406 88.1972 146.261 88.0966 146.142 87.9698C146.022 87.843 145.93 87.6929 145.871 87.5289C145.812 87.3648 145.788 87.1904 145.8 87.0166L146.781 69.1966C146.804 68.8411 146.961 68.5076 147.22 68.2624C147.478 68.0173 147.82 67.8784 148.176 67.8736H169.258C169.432 67.8725 169.604 67.9074 169.764 67.9759C169.924 68.0445 170.068 68.1453 170.187 68.272C170.306 68.3987 170.398 68.5486 170.456 68.7123C170.515 68.876 170.539 69.0501 170.527 69.2236L169.546 87.0436C169.523 87.399 169.366 87.7325 169.107 87.9777C168.849 88.2229 168.508 88.3617 168.151 88.3666ZM148.176 68.2426C147.912 68.2455 147.659 68.3483 147.468 68.5303C147.276 68.7124 147.161 68.96 147.145 69.2236L146.164 87.0436C146.156 87.1666 146.174 87.2899 146.215 87.406C146.257 87.522 146.322 87.6283 146.406 87.7181C146.491 87.808 146.593 87.8796 146.706 87.9284C146.819 87.9772 146.941 88.0023 147.064 88.0021H168.142C168.406 87.9991 168.659 87.8963 168.851 87.7143C169.042 87.5323 169.157 87.2846 169.173 87.0211L170.154 69.2011C170.162 69.0772 170.145 68.9528 170.103 68.8359C170.062 68.7189 169.996 68.6119 169.911 68.5216C169.826 68.4322 169.723 68.3612 169.609 68.3132C169.495 68.2652 169.373 68.2412 169.249 68.2426H148.176Z" fill="#FF6D38"/>
<path d="M170.146 72.99H146.746C146.702 72.9832 146.663 72.9611 146.634 72.9277C146.606 72.8943 146.59 72.8517 146.59 72.8078C146.59 72.7638 146.606 72.7213 146.634 72.6879C146.663 72.6545 146.702 72.6324 146.746 72.6255H170.146C170.172 72.6214 170.199 72.623 170.225 72.6302C170.25 72.6375 170.274 72.6502 170.294 72.6675C170.314 72.6849 170.331 72.7064 170.342 72.7306C170.353 72.7548 170.359 72.7811 170.359 72.8078C170.359 72.8344 170.353 72.8608 170.342 72.885C170.331 72.9092 170.314 72.9307 170.294 72.948C170.274 72.9654 170.25 72.9781 170.225 72.9853C170.199 72.9926 170.172 72.9942 170.146 72.99Z" fill="#FF6D38"/>
<path d="M151.443 88.3665C151.395 88.3631 151.35 88.3408 151.318 88.3047C151.286 88.2685 151.269 88.2212 151.272 88.173L152.1 72.7965C152.101 72.7725 152.107 72.7489 152.117 72.7272C152.128 72.7055 152.142 72.6861 152.16 72.6701C152.178 72.6542 152.199 72.642 152.222 72.6344C152.245 72.6267 152.269 72.6237 152.293 72.6255C152.341 72.629 152.386 72.6512 152.418 72.6874C152.45 72.7235 152.467 72.7708 152.464 72.819L151.623 88.2C151.618 88.245 151.598 88.2868 151.564 88.3175C151.531 88.3482 151.488 88.3656 151.443 88.3665Z" fill="#FF6D38"/>
<path d="M167.467 74.8169H154.773C154.73 74.8101 154.69 74.788 154.661 74.7546C154.633 74.7212 154.617 74.6786 154.617 74.6347C154.617 74.5907 154.633 74.5482 154.661 74.5148C154.69 74.4814 154.73 74.4593 154.773 74.4524H167.467C167.494 74.4483 167.521 74.4499 167.546 74.4571C167.572 74.4644 167.596 74.4771 167.616 74.4944C167.636 74.5118 167.653 74.5333 167.664 74.5575C167.675 74.5817 167.681 74.608 167.681 74.6347C167.681 74.6614 167.675 74.6877 167.664 74.7119C167.653 74.7361 167.636 74.7576 167.616 74.7749C167.596 74.7923 167.572 74.805 167.546 74.8122C167.521 74.8195 167.494 74.8211 167.467 74.8169Z" fill="#FF6D38"/>
<path d="M165.554 77.0582H154.651C154.624 77.0623 154.597 77.0607 154.572 77.0535C154.546 77.0462 154.522 77.0335 154.502 77.0162C154.482 76.9988 154.466 76.9773 154.454 76.9531C154.443 76.9289 154.438 76.9026 154.438 76.8759C154.438 76.8493 154.443 76.8229 154.454 76.7987C154.466 76.7745 154.482 76.753 154.502 76.7357C154.522 76.7183 154.546 76.7056 154.572 76.6984C154.597 76.6911 154.624 76.6895 154.651 76.6937H165.554C165.581 76.6895 165.607 76.6911 165.633 76.6984C165.659 76.7056 165.683 76.7183 165.703 76.7357C165.723 76.753 165.739 76.7745 165.751 76.7987C165.762 76.8229 165.767 76.8493 165.767 76.8759C165.767 76.9026 165.762 76.9289 165.751 76.9531C165.739 76.9773 165.723 76.9988 165.703 77.0162C165.683 77.0335 165.659 77.0462 165.633 77.0535C165.607 77.0607 165.581 77.0623 165.554 77.0582Z" fill="#FF6D38"/>
<path d="M160.871 79.3711H154.526C154.499 79.3753 154.472 79.3737 154.447 79.3664C154.421 79.3592 154.397 79.3465 154.377 79.3291C154.357 79.3118 154.341 79.2903 154.329 79.2661C154.318 79.2419 154.312 79.2156 154.312 79.1889C154.312 79.1622 154.318 79.1359 154.329 79.1117C154.341 79.0875 154.357 79.066 154.377 79.0486C154.397 79.0313 154.421 79.0186 154.447 79.0113C154.472 79.0041 154.499 79.0025 154.526 79.0066H160.871C160.897 79.0025 160.924 79.0041 160.95 79.0113C160.975 79.0186 160.999 79.0313 161.019 79.0486C161.04 79.066 161.056 79.0875 161.067 79.1117C161.078 79.1359 161.084 79.1622 161.084 79.1889C161.084 79.2156 161.078 79.2419 161.067 79.2661C161.056 79.2903 161.04 79.3118 161.019 79.3291C160.999 79.3465 160.975 79.3592 160.95 79.3664C160.924 79.3737 160.897 79.3753 160.871 79.3711Z" fill="#FF6D38"/>
<path d="M162.022 83.889H154.278C154.251 83.8931 154.224 83.8915 154.199 83.8843C154.173 83.877 154.149 83.8643 154.129 83.847C154.109 83.8296 154.093 83.8081 154.081 83.7839C154.07 83.7597 154.064 83.7334 154.064 83.7067C154.064 83.6801 154.07 83.6537 154.081 83.6295C154.093 83.6053 154.109 83.5838 154.129 83.5665C154.149 83.5491 154.173 83.5364 154.199 83.5292C154.224 83.5219 154.251 83.5203 154.278 83.5245H162.022C162.049 83.5203 162.075 83.5219 162.101 83.5292C162.127 83.5364 162.151 83.5491 162.171 83.5665C162.191 83.5838 162.207 83.6053 162.218 83.6295C162.23 83.6537 162.235 83.6801 162.235 83.7067C162.235 83.7334 162.23 83.7597 162.218 83.7839C162.207 83.8081 162.191 83.8296 162.171 83.847C162.151 83.8643 162.127 83.877 162.101 83.8843C162.075 83.8915 162.049 83.8931 162.022 83.889Z" fill="#FF6D38"/>
<path d="M160.497 86.2021H154.148C154.105 86.1953 154.065 86.1732 154.036 86.1398C154.008 86.1064 153.992 86.0638 153.992 86.0199C153.992 85.9759 154.008 85.9334 154.036 85.9C154.065 85.8666 154.105 85.8445 154.148 85.8376H160.497C160.541 85.8445 160.58 85.8666 160.609 85.9C160.638 85.9334 160.653 85.9759 160.653 86.0199C160.653 86.0638 160.638 86.1064 160.609 86.1398C160.58 86.1732 160.541 86.1953 160.497 86.2021Z" fill="#FF6D38"/>
<path d="M164.21 86.202H162.18C162.154 86.2061 162.127 86.2045 162.101 86.1973C162.075 86.19 162.052 86.1773 162.031 86.16C162.011 86.1426 161.995 86.1211 161.984 86.0969C161.973 86.0727 161.967 86.0464 161.967 86.0197C161.967 85.993 161.973 85.9667 161.984 85.9425C161.995 85.9183 162.011 85.8968 162.031 85.8795C162.052 85.8621 162.075 85.8494 162.101 85.8422C162.127 85.8349 162.154 85.8333 162.18 85.8375H164.21C164.236 85.8333 164.263 85.8349 164.288 85.8422C164.314 85.8494 164.338 85.8621 164.358 85.8795C164.378 85.8968 164.395 85.9183 164.406 85.9425C164.417 85.9667 164.423 85.993 164.423 86.0197C164.423 86.0464 164.417 86.0727 164.406 86.0969C164.395 86.1211 164.378 86.1426 164.358 86.16C164.338 86.1773 164.314 86.19 164.288 86.1973C164.263 86.2045 164.236 86.2061 164.21 86.202Z" fill="#FF6D38"/>
<path d="M166.288 81.6166H154.399C154.35 81.6166 154.303 81.5971 154.269 81.5625C154.234 81.5279 154.215 81.481 154.215 81.4321C154.215 81.3831 154.234 81.3362 154.269 81.3016C154.303 81.267 154.35 81.2476 154.399 81.2476H166.288C166.337 81.2476 166.384 81.267 166.419 81.3016C166.453 81.3362 166.473 81.3831 166.473 81.4321C166.473 81.481 166.453 81.5279 166.419 81.5625C166.384 81.5971 166.337 81.6166 166.288 81.6166Z" fill="#FF6D38"/>
<path d="M155.206 114.3C152.452 114.3 150.197 113.485 148.798 111.973C147.299 110.358 146.678 107.815 147.092 104.998C147.24 103.435 147.822 101.944 148.772 100.694C149.722 99.4442 151.003 98.4848 152.47 97.9245C154.187 97.1494 156.054 96.7607 157.938 96.7855C159.821 96.8104 161.677 97.2484 163.373 98.0685C164.854 98.811 165.781 99.7515 166.132 100.863C166.161 100.955 166.152 101.056 166.108 101.142C166.085 101.184 166.055 101.222 166.018 101.253C165.982 101.284 165.939 101.307 165.893 101.322C165.801 101.351 165.7 101.342 165.614 101.298C165.528 101.253 165.464 101.176 165.434 101.083C165.146 100.183 164.341 99.3735 163.045 98.721C161.445 97.9494 159.696 97.5378 157.92 97.5153C156.145 97.4927 154.385 97.8597 152.767 98.5905C151.413 99.102 150.231 99.9845 149.355 101.137C148.48 102.289 147.947 103.665 147.817 105.106C147.434 107.703 147.988 110.025 149.333 111.474C151.201 113.494 154.283 113.638 155.975 113.548C159.098 113.373 161.78 112.284 163.535 110.479C165.587 108.364 166.163 105.205 164.885 103.126C164.725 102.827 164.5 102.567 164.227 102.365C163.953 102.162 163.639 102.023 163.306 101.956C163.213 101.943 163.13 101.894 163.072 101.82C163.015 101.746 162.988 101.653 162.997 101.56C163.007 101.467 163.051 101.381 163.122 101.32C163.193 101.259 163.284 101.227 163.378 101.232C163.825 101.301 164.25 101.474 164.619 101.735C164.989 101.997 165.292 102.341 165.506 102.739C166.964 105.097 166.348 108.639 164.071 110.988C162.185 112.927 159.332 114.093 156.025 114.277C155.741 114.3 155.471 114.3 155.206 114.3Z" fill="white"/>
<path d="M61.7939 76.2031L60.4934 78.4531L59.2244 80.7616C58.3874 82.3051 57.5864 83.8621 56.8574 85.4236C56.4929 86.2111 56.1464 86.9896 55.8314 87.7726L55.7729 87.9166V87.9481C55.7573 87.9676 55.7437 87.9887 55.7324 88.0111C55.7088 88.0532 55.6878 88.0968 55.6694 88.1416C55.641 88.3113 55.6597 88.4857 55.7234 88.6456C55.9727 89.2594 56.3414 89.8177 56.8079 90.2881C57.3591 90.8793 57.9467 91.4353 58.5674 91.9531L57.5099 94.2031C57.0141 94.0662 56.5284 93.8948 56.0564 93.6901C55.592 93.4849 55.1411 93.2504 54.7064 92.9881C53.6958 92.4022 52.8287 91.5982 52.1684 90.6346C51.7624 90.0142 51.4925 89.3148 51.3764 88.5826C51.3224 88.1763 51.3224 87.7648 51.3764 87.3586C51.3945 87.1566 51.4291 86.9564 51.4799 86.7601L51.5519 86.4676L51.6059 86.2876C51.8984 85.3876 52.1954 84.4561 52.5464 83.5876C53.2304 81.8236 54.0044 80.1136 54.8414 78.4531C55.2644 77.6251 55.6964 76.8016 56.1554 75.9916C56.6144 75.1816 57.0554 74.3896 57.5954 73.5706L61.7939 76.2031Z" fill="#FFC3BD"/>
<path d="M57.419 91.71L59.7815 91.0935L59.9165 94.9095C59.9165 94.9095 58.067 95.184 56.9375 94.0545L57.419 91.71Z" fill="#FFC3BD"/>
<path d="M63.1357 90.45L62.6002 93.8024L59.9182 94.9095L59.7832 91.0934L63.1357 90.45Z" fill="#FFC3BD"/>
<path d="M72.899 58.2119C72.953 58.4729 73.133 58.6619 73.304 58.6214C73.475 58.5809 73.574 58.3469 73.52 58.0859C73.466 57.8249 73.286 57.6359 73.115 57.6764C72.944 57.7169 72.863 57.9509 72.899 58.2119Z" fill="#263238"/>
<path d="M73.125 58.6619C73.5986 59.3967 74.171 60.0629 74.826 60.6419C74.6744 60.8058 74.4885 60.9343 74.2817 61.0183C74.0748 61.1023 73.852 61.1397 73.629 61.1279L73.125 58.6619Z" fill="#ED847E"/>
<path d="M71.6621 56.9564C71.6232 56.9552 71.5861 56.9391 71.5586 56.9114C71.5438 56.8972 71.532 56.88 71.5239 56.8611C71.5159 56.8422 71.5117 56.8218 71.5117 56.8012C71.5117 56.7806 71.5159 56.7602 71.5239 56.7413C71.532 56.7223 71.5438 56.7052 71.5586 56.6909C71.725 56.5019 71.9348 56.3561 72.1699 56.266C72.4051 56.1759 72.6585 56.1441 72.9086 56.1734C72.9289 56.1767 72.9482 56.184 72.9656 56.1948C72.983 56.2057 72.998 56.22 73.0097 56.2368C73.0215 56.2536 73.0297 56.2725 73.034 56.2926C73.0383 56.3126 73.0385 56.3333 73.0346 56.3534C73.028 56.3946 73.0053 56.4314 72.9716 56.4559C72.9379 56.4803 72.8958 56.4904 72.8546 56.4839C72.6592 56.4659 72.4623 56.4944 72.2801 56.5672C72.0978 56.6399 71.9354 56.7548 71.8061 56.9024C71.789 56.9234 71.7667 56.9394 71.7414 56.9489C71.7161 56.9583 71.6888 56.961 71.6621 56.9564Z" fill="#263238"/>
<path d="M65.471 61.884C65.948 64.305 66.4205 68.7375 64.7285 70.3485C64.7285 70.3485 65.39 72.801 69.881 72.801C74.831 72.801 72.2435 70.3485 72.2435 70.3485C69.5435 69.705 69.6155 67.707 70.088 65.826L65.471 61.884Z" fill="#FFC3BD"/>
<path d="M63.751 70.7984C63.391 70.1279 62.9905 69.3584 63.814 69.1154C64.714 68.8499 70.537 68.3594 72.247 68.8589C71.7205 69.7904 72.607 70.9379 72.607 70.9379L63.751 70.7984Z" fill="#263238"/>
<path d="M49.1126 183.546C49.2461 183.593 49.3875 183.614 49.5289 183.606C49.6702 183.598 49.8087 183.563 49.9361 183.501C49.9854 183.456 50.0193 183.396 50.033 183.331C50.0467 183.266 50.0396 183.198 50.0126 183.136C49.9975 183.086 49.9716 183.039 49.9366 182.999C49.9017 182.96 49.8585 182.928 49.8101 182.907C49.3601 182.695 48.3386 183.114 48.2936 183.132C48.2794 183.137 48.2669 183.146 48.2581 183.158C48.2492 183.17 48.2443 183.184 48.2441 183.199C48.2442 183.214 48.2485 183.229 48.2565 183.242C48.2644 183.255 48.2757 183.265 48.2891 183.271C48.5532 183.392 48.8293 183.484 49.1126 183.546ZM49.6481 183.019C49.6805 183.025 49.7122 183.034 49.7426 183.046C49.7706 183.059 49.7956 183.078 49.8158 183.101C49.8359 183.125 49.8509 183.152 49.8596 183.181C49.9046 183.325 49.8596 183.366 49.8326 183.384C49.6571 183.532 48.9956 183.384 48.5321 183.208C48.8853 183.063 49.2667 182.998 49.6481 183.019Z" fill="#FF6D38"/>
<path d="M48.3064 183.28H48.3424C48.7159 183.172 49.5169 182.605 49.5259 182.232C49.5274 182.173 49.5086 182.115 49.4725 182.068C49.4364 182.022 49.3854 181.989 49.3279 181.975C49.2715 181.955 49.2115 181.947 49.1517 181.952C49.092 181.956 49.0339 181.974 48.9814 182.002C48.5314 182.232 48.2569 183.145 48.2479 183.186C48.2416 183.198 48.2383 183.211 48.2383 183.224C48.2383 183.238 48.2416 183.251 48.2479 183.262L48.3064 183.28ZM49.2424 182.11H49.2739C49.3729 182.146 49.3729 182.191 49.3729 182.214C49.3729 182.434 48.8374 182.88 48.4729 183.06C48.5779 182.697 48.7876 182.373 49.0759 182.128C49.1282 182.106 49.1863 182.099 49.2424 182.11Z" fill="#FF6D38"/>
<path d="M73.5198 184.1C73.9428 184.1 74.3523 184.041 74.4918 183.852C74.5265 183.802 74.545 183.742 74.545 183.681C74.545 183.62 74.5265 183.56 74.4918 183.51C74.4652 183.464 74.4296 183.424 74.387 183.392C74.3445 183.361 74.2959 183.338 74.2443 183.326C73.6953 183.177 72.5388 183.834 72.4893 183.866C72.4751 183.873 72.4639 183.885 72.4574 183.9C72.4509 183.915 72.4494 183.931 72.4533 183.947C72.4556 183.962 72.4625 183.976 72.4729 183.987C72.4833 183.998 72.4969 184.006 72.5118 184.01C72.8447 184.068 73.1819 184.098 73.5198 184.1ZM74.0418 183.461C74.0926 183.453 74.1441 183.453 74.1948 183.461C74.2265 183.467 74.2565 183.48 74.2828 183.498C74.3092 183.517 74.3313 183.541 74.3478 183.569C74.4018 183.668 74.3838 183.717 74.3478 183.744C74.1948 183.956 73.3578 183.96 72.7458 183.875C73.1468 183.654 73.587 183.513 74.0418 183.461Z" fill="#FF6D38"/>
<path d="M72.5222 184.009H72.5537C72.9542 183.829 73.7417 183.109 73.6832 182.74C73.6832 182.65 73.6067 182.542 73.3907 182.52C73.3105 182.511 73.2293 182.518 73.1519 182.541C73.0746 182.565 73.0028 182.603 72.9407 182.655C72.5222 183.001 72.4322 183.892 72.4277 183.928C72.4281 183.942 72.4315 183.956 72.4377 183.968C72.4439 183.981 72.4528 183.992 72.4637 184C72.4724 184.006 72.482 184.009 72.4921 184.011C72.5021 184.012 72.5124 184.012 72.5222 184.009ZM73.3277 182.659H73.3727C73.5167 182.659 73.5257 182.727 73.5257 182.745C73.5617 182.97 73.0262 183.532 72.6257 183.775C72.6646 183.397 72.8221 183.041 73.0757 182.758C73.1535 182.696 73.2509 182.664 73.3502 182.668L73.3277 182.659Z" fill="#FF6D38"/>
<path d="M68.8867 183.933H72.1942L72.5227 176.274H69.2152L68.8867 183.933Z" fill="#FFC3BD"/>
<path d="M44.6211 182.403L47.8521 183.101L51.0966 175.973L47.8656 175.271L44.6211 182.403Z" fill="#FFC3BD"/>
<path d="M48.1497 182.777L44.5497 181.989C44.486 181.976 44.4198 181.985 44.3617 182.014C44.3037 182.044 44.2574 182.092 44.2302 182.151L42.9702 184.887C42.9395 184.953 42.9244 185.026 42.9259 185.099C42.9274 185.172 42.9455 185.244 42.9789 185.309C43.0123 185.374 43.0601 185.431 43.1186 185.474C43.1772 185.518 43.2449 185.548 43.3167 185.562C44.5902 185.814 45.2202 185.873 46.8177 186.219C47.7987 186.431 50.0172 186.97 51.3717 187.267C52.7262 187.564 53.1717 186.255 52.6677 186.017C50.2962 184.932 49.3062 183.978 48.6627 183.087C48.5378 182.922 48.3542 182.811 48.1497 182.777Z" fill="#263238"/>
<path d="M72.1709 183.551H68.5709C68.5056 183.55 68.4421 183.572 68.3913 183.613C68.3405 183.654 68.3053 183.712 68.2919 183.776L67.6394 186.714C67.6229 186.785 67.6228 186.858 67.639 186.929C67.6552 186.999 67.6873 187.065 67.7329 187.122C67.7784 187.178 67.8362 187.223 67.9019 187.254C67.9676 187.285 68.0394 187.3 68.1119 187.299C69.4169 187.299 71.2979 187.205 72.9359 187.205C74.8484 187.205 76.4999 187.308 78.7454 187.308C80.0954 187.308 80.4824 185.936 79.9109 185.81C77.3279 185.247 75.2129 185.184 72.9809 183.807C72.7401 183.648 72.4595 183.559 72.1709 183.551Z" fill="#263238"/>
<path d="M58.8063 71.0999C55.7103 71.8109 53.1543 79.7219 53.1543 79.7219L59.4003 84.4604C61.0098 82.743 62.1463 80.6374 62.6988 78.3494C63.7428 74.2049 61.9743 70.3709 58.8063 71.0999Z" fill="#FF6D38"/>
<path opacity="0.2" d="M58.8063 71.0999C55.7103 71.8109 53.1543 79.7219 53.1543 79.7219L59.4003 84.4604C61.0098 82.743 62.1463 80.6374 62.6988 78.3494C63.7428 74.2049 61.9743 70.3709 58.8063 71.0999Z" fill="#FAFAFA"/>
<path opacity="0.2" d="M61.4602 76.9141C59.7772 78.5791 59.2102 81.6121 59.0977 84.2491L59.3722 84.4606C60.984 82.7441 62.1221 80.6383 62.6752 78.3496C62.7382 78.1021 62.7922 77.8546 62.8372 77.6116L61.4602 76.9141Z" fill="black"/>
<path d="M77.3275 71.2666C77.3275 71.2666 80.8465 75.2401 77.521 99.8416H59.8495C59.728 97.1416 61.4335 83.8846 58.8145 71.0956C60.7703 70.7194 62.7484 70.4699 64.7365 70.3486C67.2394 70.2045 69.7485 70.2045 72.2515 70.3486C73.9648 70.5219 75.6619 70.8289 77.3275 71.2666Z" fill="#FF6D38"/>
<path opacity="0.2" d="M77.3275 71.2666C77.3275 71.2666 80.8465 75.2401 77.521 99.8416H59.8495C59.728 97.1416 61.4335 83.8846 58.8145 71.0956C60.7703 70.7194 62.7484 70.4699 64.7365 70.3486C67.2394 70.2045 69.7485 70.2045 72.2515 70.3486C73.9648 70.5219 75.6619 70.8289 77.3275 71.2666Z" fill="#FAFAFA"/>
<path opacity="0.2" d="M78.8708 78.786L78.8033 78.7275L74.7848 79.6905C74.5553 82.3905 77.3498 85.6575 78.7898 87.1425C78.9677 84.3605 78.9948 81.571 78.8708 78.786Z" fill="black"/>
<path opacity="0.2" d="M72.5215 176.279L72.3505 180.225H69.043L69.214 176.279H72.5215Z" fill="black"/>
<path opacity="0.2" d="M47.8615 175.271L51.097 175.973L49.423 179.649L46.1875 178.947L47.8615 175.271Z" fill="black"/>
<path d="M64.0892 59.4271C64.9352 62.5996 65.2727 64.4941 67.2392 65.8126C70.1777 67.7971 73.8407 65.5201 73.9577 62.1631C74.0612 59.1391 72.6527 54.4636 69.2507 53.8246C68.5012 53.6785 67.7266 53.7267 67.001 53.9647C66.2753 54.2027 65.6226 54.6225 65.1052 55.1842C64.5877 55.7459 64.2227 56.4307 64.0448 57.1734C63.867 57.9161 63.8823 58.692 64.0892 59.4271Z" fill="#FFC3BD"/>
<path d="M65.5428 64.5975C66.8928 65.367 71.8023 62.7975 70.7943 58.8825C70.7943 58.8825 72.6663 56.6325 72.4548 54.1485C72.2433 51.6645 70.5378 50.7195 68.7243 51.255C67.1268 51.705 67.1718 52.605 67.1718 52.605C67.1718 52.605 59.6163 53.505 61.2318 56.5695C58.1538 59.913 63.8598 63.6345 65.5428 64.5975Z" fill="#263238"/>
<path d="M61.4425 56.8126C61.4425 56.8126 60.5425 55.2556 59.2285 56.1286C59.8495 56.1376 60.8575 56.2501 61.4425 56.8126Z" fill="#263238"/>
<path d="M72.2105 55.8C72.2105 55.8 73.8575 52.083 71.3105 50.886C71.7848 51.6018 72.1091 52.4062 72.2637 53.2508C72.4184 54.0954 72.4003 54.9626 72.2105 55.8Z" fill="#263238"/>
<path d="M69.4796 59.5621C69.6989 60.3504 70.1737 61.0437 70.8296 61.5331C71.6891 62.1721 72.3326 61.5331 72.2741 60.5701C72.2156 59.6926 71.7026 58.3201 70.7531 58.0456C69.8036 57.7711 69.2321 58.6081 69.4796 59.5621Z" fill="#FFC3BD"/>
<path d="M71.2519 99.8415C71.2519 99.8415 67.4989 125.1 65.4379 134.55C63.1879 144.9 51.0874 179.208 51.0874 179.208L45.1699 177.925C45.1699 177.925 53.6299 149.98 55.5199 135.49C56.9734 124.362 59.8399 99.8235 59.8399 99.8235L71.2519 99.8415Z" fill="#263238"/>
<path d="M52.506 177.25C52.533 177.25 51.4035 179.392 51.4035 179.392L44.748 177.948L45.306 175.95L52.506 177.25Z" fill="#FF6D38"/>
<path opacity="0.3" d="M68.8809 108.841C64.5429 109.692 65.0019 125.869 65.5239 134.19C66.7749 128.308 68.6064 116.991 69.8574 108.958C69.5548 108.809 69.2102 108.768 68.8809 108.841Z" fill="black"/>
<path d="M77.5207 99.8416C77.5207 99.8416 77.9707 124.56 77.6197 134.64C77.2462 145.125 73.5697 179.46 73.5697 179.46H67.9808C67.9808 179.46 67.7783 145.737 67.5308 135.441C67.2608 124.191 65.9062 99.8416 65.9062 99.8416H77.5207Z" fill="#263238"/>
<path opacity="0.4" d="M108.611 82.4175H97.2035L96.5645 94.0185L107.958 94.3245L108.611 82.4175Z" fill="#263238"/>
<path d="M102.599 89.883L91.1738 88.47C92.0927 84.6253 92.7795 80.7287 93.2303 76.8015L104.723 78.2145C104.25 82.1431 103.541 86.0396 102.599 89.883Z" fill="#FF6D38"/>
<path d="M74.6602 177.228C74.6872 177.228 74.3452 179.555 74.3452 179.555H67.5322L67.3477 177.48L74.6602 177.228Z" fill="#FF6D38"/>
<path d="M78.9569 74.2815C79.4654 75.0735 80.0459 75.9645 80.6264 76.7835C81.2069 77.6025 81.8054 78.4395 82.4264 79.236C83.6088 80.8144 84.9279 82.2856 86.3684 83.6325C86.7071 83.9501 87.0615 84.2505 87.4304 84.5325L87.7004 84.735C87.6494 84.7128 87.5967 84.6948 87.5429 84.681C87.4259 84.681 87.3674 84.681 87.3989 84.681C87.6571 84.6904 87.9133 84.6314 88.1414 84.51C88.5354 84.3428 88.916 84.1457 89.2799 83.9205C90.9609 82.8195 92.5556 81.592 94.0499 80.2485L95.9804 81.8055C94.8104 83.7723 93.3511 85.5517 91.6514 87.084C91.1737 87.511 90.6569 87.8922 90.1079 88.2225C89.4151 88.6547 88.6421 88.9424 87.8354 89.0685C87.2584 89.1442 86.6719 89.0935 86.1164 88.92C85.8084 88.8233 85.5137 88.6888 85.2389 88.5195L84.8519 88.272C84.3344 87.939 83.8439 87.5835 83.3804 87.219C81.5899 85.7726 79.9578 84.1405 78.5114 82.35C77.8049 81.477 77.1209 80.595 76.4864 79.677C75.8519 78.759 75.2444 77.877 74.6504 76.833L78.9569 74.2815Z" fill="#FFC3BD"/>
<path d="M72.4496 76.2659C71.3921 80.6984 79.4111 85.0409 79.4111 85.0409L84.6221 78.9389C83.0594 76.6299 81.2766 74.4778 79.2986 72.5129C75.6716 69.0164 73.2686 72.8999 72.4496 76.2659Z" fill="#FF6D38"/>
<path opacity="0.2" d="M72.4496 76.2659C71.3921 80.6984 79.4111 85.0409 79.4111 85.0409L84.6221 78.9389C83.0594 76.6299 81.2766 74.4778 79.2986 72.5129C75.6716 69.0164 73.2686 72.8999 72.4496 76.2659Z" fill="#FAFAFA"/>
<path d="M93.5 81.171L94.733 77.22L97.9685 78.8355C97.9685 78.8355 97.496 81.7155 95.138 82.215L93.5 81.171Z" fill="#FFC3BD"/>
<path d="M96.029 76.1265L98.945 76.932L97.9685 78.8355L94.7285 77.22L96.029 76.1265Z" fill="#FFC3BD"/>
</svg>
