<svg width="306" height="306" viewBox="0 0 306 306" fill="none" xmlns="http://www.w3.org/2000/svg">
<path d="M306 234.029H0V234.182H306V234.029Z" fill="#EBEBEB"/>
<path d="M275.34 243.876H255.07V244.029H275.34V243.876Z" fill="#EBEBEB"/>
<path d="M202.707 245.541H197.389V245.694H202.707V245.541Z" fill="#EBEBEB"/>
<path d="M254.457 238.197H242.713V238.35H254.457V238.197Z" fill="#EBEBEB"/>
<path d="M58.5378 239.225H32.1055V239.378H58.5378V239.225Z" fill="#EBEBEB"/>
<path d="M67.8642 239.225H63.9902V239.378H67.8642V239.225Z" fill="#EBEBEB"/>
<path d="M137.791 241.807H80.459V241.96H137.791V241.807Z" fill="#EBEBEB"/>
<path d="M145.044 206.734H26.8732C25.9474 206.732 25.0601 206.363 24.4061 205.708C23.7521 205.053 23.3848 204.165 23.3848 203.239V37.1238C23.3928 36.2034 23.7637 35.3233 24.4169 34.6747C25.07 34.0262 25.9527 33.6615 26.8732 33.6599H145.044C145.971 33.6599 146.86 34.0281 147.515 34.6834C148.171 35.3388 148.539 36.2276 148.539 37.1544V203.239C148.539 204.166 148.171 205.055 147.515 205.71C146.86 206.365 145.971 206.734 145.044 206.734ZM26.8732 33.7823C25.988 33.7839 25.1396 34.1367 24.5143 34.7632C23.889 35.3897 23.5378 36.2387 23.5378 37.1238V203.239C23.5378 204.124 23.889 204.973 24.5143 205.6C25.1396 206.226 25.988 206.579 26.8732 206.581H145.044C145.93 206.579 146.779 206.226 147.405 205.6C148.032 204.974 148.384 204.125 148.386 203.239V37.1238C148.384 36.2381 148.032 35.3891 147.405 34.7628C146.779 34.1365 145.93 33.7839 145.044 33.7823H26.8732Z" fill="#EBEBEB"/>
<path d="M277.426 206.734H159.248C158.322 206.732 157.434 206.363 156.779 205.708C156.124 205.053 155.756 204.165 155.754 203.239V37.1238C155.764 36.2028 156.136 35.3228 156.79 34.6744C157.444 34.026 158.327 33.6615 159.248 33.6599H277.426C278.345 33.6631 279.226 34.0285 279.878 34.6769C280.53 35.3253 280.9 36.2045 280.908 37.1238V203.239C280.908 204.164 280.541 205.051 279.889 205.706C279.236 206.361 278.35 206.73 277.426 206.734ZM159.248 33.7823C158.363 33.7839 157.514 34.1365 156.887 34.7628C156.261 35.3891 155.909 36.2381 155.907 37.1238V203.239C155.909 204.125 156.261 204.974 156.887 205.6C157.514 206.226 158.363 206.579 159.248 206.581H277.426C278.311 206.579 279.16 206.226 279.787 205.6C280.413 204.974 280.766 204.125 280.767 203.239V37.1238C280.766 36.2381 280.413 35.3891 279.787 34.7628C279.16 34.1365 278.311 33.7839 277.426 33.7823H159.248Z" fill="#EBEBEB"/>
<path d="M116.072 200.497L123.765 219.708H149.328C151.429 221.841 153.933 223.534 156.694 224.69C159.455 225.845 162.418 226.44 165.412 226.44H197.676L201.348 220.932H208.692L209.672 221.856C212.371 224.408 215.945 225.829 219.659 225.828C221.61 225.826 223.541 225.433 225.336 224.671C227.132 223.908 228.756 222.793 230.112 221.391L230.553 220.932H252.144L260.1 206.697L116.072 200.497Z" fill="#E0E0E0"/>
<path d="M251.428 187.884H259.794C269.09 187.884 276.624 198.288 276.624 211.14C276.624 223.992 269.09 234.396 259.794 234.396H251.428C242.137 234.396 234.598 223.992 234.598 211.14C234.598 198.288 242.137 187.884 251.428 187.884Z" fill="#E0E0E0"/>
<path d="M103.324 187.884H111.69C120.986 187.884 128.52 198.288 128.52 211.14C128.52 223.992 120.986 234.396 111.69 234.396H103.324C94.034 234.396 86.4941 223.992 86.4941 211.14C86.4941 198.288 94.034 187.884 103.324 187.884Z" fill="#E0E0E0"/>
<path d="M177.377 187.884H185.743C195.039 187.884 202.573 198.288 202.573 211.14C202.573 223.992 195.039 234.396 185.743 234.396H177.377C168.087 234.396 160.547 223.992 160.547 211.14C160.547 198.288 168.087 187.884 177.377 187.884Z" fill="#E0E0E0"/>
<path d="M288.864 202.113V208.539C288.864 209.229 288.59 209.89 288.103 210.378C287.615 210.866 286.953 211.14 286.263 211.14H83.9975C83.3077 211.14 82.6461 210.866 82.1583 210.378C81.6705 209.89 81.3965 209.229 81.3965 208.539V198.508C81.397 198.088 81.4998 197.673 81.696 197.301C81.8921 196.929 82.1758 196.61 82.5226 196.372L85.0685 194.616V182.131C85.0677 178.151 86.3125 174.271 88.6283 171.035C90.9441 167.798 94.2148 165.367 97.9817 164.083C98.5141 163.9 99.0588 163.741 99.6096 163.606L114.053 160.075L121.507 146.097C123.255 142.82 125.862 140.079 129.047 138.169C132.233 136.259 135.877 135.251 139.592 135.252H207.738C211.738 135.249 215.666 136.321 219.111 138.354C222.555 140.388 225.391 143.309 227.322 146.813L236.434 163.404L244.941 166.464L268.197 174.824C270.94 175.808 273.421 177.408 275.449 179.502C277.476 181.595 278.997 184.126 279.893 186.899L283.968 199.512H286.263C286.953 199.512 287.615 199.786 288.103 200.274C288.59 200.762 288.864 201.423 288.864 202.113Z" fill="#E6E6E6"/>
<path d="M168.301 137.7L175.847 164.016C175.847 164.016 207.61 166.874 219.005 166.874C234.103 166.874 236.435 163.404 236.435 163.404L227.298 146.813C225.139 142.9 221.856 139.726 217.873 137.7H168.301Z" fill="#F0F0F0"/>
<path d="M172.786 163.783L165.852 137.7H144.432L140.148 161.978L172.786 163.783Z" fill="#F0F0F0"/>
<path d="M137.192 160.956L141.984 137.7H138.465C134.952 137.702 131.514 138.711 128.558 140.609C125.602 142.506 123.253 145.211 121.788 148.404L116.494 159.934L137.192 160.956Z" fill="#F0F0F0"/>
<path d="M211.752 199.512V211.14H286.263C286.953 211.14 287.614 210.866 288.102 210.378C288.59 209.89 288.864 209.229 288.864 208.539V202.113C288.864 201.423 288.59 200.762 288.102 200.274C287.614 199.786 286.953 199.512 286.263 199.512H211.752Z" fill="#F0F0F0"/>
<path d="M217.363 196.654C220.912 196.654 223.789 193.503 223.789 189.616C223.789 185.729 220.912 182.578 217.363 182.578C213.815 182.578 210.938 185.729 210.938 189.616C210.938 193.503 213.815 196.654 217.363 196.654Z" fill="#FAFAFA"/>
<path d="M271.832 196.654C275.381 196.654 278.258 193.503 278.258 189.616C278.258 185.729 275.381 182.578 271.832 182.578C268.283 182.578 265.406 185.729 265.406 189.616C265.406 193.503 268.283 196.654 271.832 196.654Z" fill="#FAFAFA"/>
<path d="M174.133 231.948C181.559 231.948 187.579 223.865 187.579 213.894C187.579 203.923 181.559 195.84 174.133 195.84C166.707 195.84 160.688 203.923 160.688 213.894C160.688 223.865 166.707 231.948 174.133 231.948Z" fill="#E0E0E0"/>
<path d="M172.97 224.524C176.985 224.524 180.24 220.157 180.24 214.769C180.24 209.381 176.985 205.014 172.97 205.014C168.954 205.014 165.699 209.381 165.699 214.769C165.699 220.157 168.954 224.524 172.97 224.524Z" fill="#E6E6E6"/>
<path d="M100.692 232.56C108.118 232.56 114.137 224.477 114.137 214.506C114.137 204.535 108.118 196.452 100.692 196.452C93.2659 196.452 87.2461 204.535 87.2461 214.506C87.2461 224.477 93.2659 232.56 100.692 232.56Z" fill="#E0E0E0"/>
<path d="M99.5303 225.136C103.546 225.136 106.801 220.769 106.801 215.381C106.801 209.993 103.546 205.626 99.5303 205.626C95.5149 205.626 92.2598 209.993 92.2598 215.381C92.2598 220.769 95.5149 225.136 99.5303 225.136Z" fill="#E6E6E6"/>
<path d="M227.346 191.789C226.171 184.212 247.248 184.365 247.248 184.365C247.248 184.365 249.084 187.578 249.543 195.84C249.543 195.84 228.276 197.951 227.346 191.789Z" fill="#EBEBEB"/>
<path d="M249.543 184.365C249.543 184.365 251.685 191.948 251.226 196.189C251.226 196.189 263.821 197.266 262.903 191.097C261.985 184.928 249.543 184.365 249.543 184.365Z" fill="#EBEBEB"/>
<path d="M199.921 199.512H211.751V211.14H199.921C199.097 211.14 198.306 210.812 197.723 210.229C197.14 209.646 196.812 208.856 196.812 208.031V202.615C196.814 201.791 197.142 201.002 197.725 200.42C198.308 199.839 199.098 199.512 199.921 199.512Z" fill="#EBEBEB"/>
<path d="M175.949 164.548C175.949 164.548 201.959 168.3 220.852 179.316H260.099C260.099 179.316 251.99 171.77 237.302 164.524C237.302 164.524 232.406 173.196 175.949 164.548Z" fill="#EBEBEB"/>
<path d="M209.457 180.148L206.856 183.6V196.452L196.82 196.262L190.088 201.348C186.238 188.294 178.092 184.414 168.3 186.048C158.508 187.682 157.284 201.348 157.284 201.348H116.482C116.482 201.348 111.69 187.792 102.816 186.733C93.9424 185.674 91.1884 194.616 91.1884 194.616H85.0684V182.131C85.0676 178.151 86.3124 174.271 88.6282 171.034C90.944 167.798 94.2146 165.367 97.9816 164.083L114.138 160.956L140.148 163.104C140.148 163.104 170.546 164.854 174.133 165.742C177.719 166.629 209.457 180.148 209.457 180.148Z" fill="#E0E0E0"/>
<path d="M266.227 55.7041H159.127V89.1377H266.227V55.7041Z" fill="#F5F5F5"/>
<path d="M180.155 75.0432C180.176 75.5761 180.063 76.1057 179.828 76.5844C179.593 77.063 179.243 77.4756 178.808 77.785C178.366 78.1058 177.871 78.3461 177.346 78.4949C176.77 78.6576 176.175 78.7379 175.577 78.7336H168.723V64.4189H176.318C176.784 64.413 177.245 64.5245 177.658 64.7433C178.05 64.9531 178.397 65.238 178.68 65.5817C179.246 66.2887 179.554 67.167 179.555 68.0726C179.558 68.7619 179.379 69.4398 179.035 70.0371C178.694 70.6464 178.16 71.1245 177.517 71.3957C178.286 71.6064 178.963 72.0646 179.445 72.6993C179.938 73.379 180.188 74.2044 180.155 75.0432ZM171.483 66.7996V70.4104H175.155C175.375 70.4137 175.594 70.3725 175.798 70.2895C176.002 70.2064 176.187 70.0831 176.342 69.9269C176.508 69.7482 176.637 69.5382 176.721 69.3091C176.805 69.0801 176.843 68.8365 176.832 68.5928C176.859 68.1146 176.699 67.6447 176.385 67.2831C176.245 67.1271 176.073 67.0032 175.881 66.9197C175.689 66.8363 175.481 66.7953 175.271 66.7996H171.483ZM177.376 74.523C177.377 74.2706 177.333 74.02 177.248 73.7825C177.167 73.5601 177.049 73.3531 176.899 73.1705C176.756 72.9974 176.579 72.8557 176.379 72.7544C176.173 72.6554 175.946 72.6052 175.718 72.6075H171.483V76.3774H175.577C175.821 76.3781 176.062 76.3302 176.287 76.2366C176.716 76.0522 177.057 75.7074 177.236 75.2758C177.335 75.0376 177.383 74.7811 177.376 74.523Z" fill="#EBEBEB"/>
<path d="M182.314 78.7336V64.4189H185.075V78.7336H182.314Z" fill="#EBEBEB"/>
<path d="M197.883 77.1119C197.377 77.6531 196.765 78.0845 196.084 78.3792C195.404 78.674 194.671 78.8259 193.93 78.8255C193.021 78.8314 192.123 78.6371 191.298 78.2563C190.49 77.8885 189.763 77.362 189.162 76.7079C188.542 76.0257 188.053 75.2353 187.718 74.3762C187.363 73.4549 187.184 72.475 187.192 71.4876C187.178 69.6091 187.89 67.7979 189.181 66.4325C189.802 65.7737 190.546 65.2435 191.372 64.8719C192.231 64.483 193.164 64.2867 194.107 64.2966C195.305 64.2628 196.489 64.5547 197.534 65.1411C198.458 65.676 199.205 66.4695 199.683 67.4239L197.626 68.9539C197.295 68.2718 196.769 67.7032 196.115 67.3199C195.476 66.9468 194.749 66.7524 194.009 66.7568C193.436 66.7527 192.871 66.8826 192.357 67.1363C191.86 67.3921 191.424 67.751 191.078 68.1889C190.719 68.6483 190.442 69.1658 190.258 69.7189C190.064 70.3116 189.967 70.9314 189.97 71.5549C189.964 72.1971 190.072 72.8352 190.288 73.4399C190.487 73.9954 190.786 74.5098 191.17 74.9576C191.537 75.3863 191.989 75.7343 192.498 75.9797C193.019 76.2283 193.59 76.3559 194.168 76.353C194.895 76.3282 195.607 76.1391 196.251 75.8C196.894 75.4608 197.452 74.9803 197.883 74.3946V73.4399H195.025V71.4019H200.166V78.7459H197.883V77.1119Z" fill="#EBEBEB"/>
<path d="M215.773 68.1705C215.616 68.0287 215.446 67.9017 215.265 67.7911C214.981 67.6045 214.679 67.4447 214.365 67.3137C213.993 67.1521 213.608 67.0211 213.215 66.9221C212.806 66.8143 212.384 66.7608 211.96 66.7629C211.363 66.7195 210.767 66.8674 210.259 67.1852C210.076 67.3227 209.93 67.5028 209.833 67.7097C209.736 67.9166 209.691 68.1442 209.702 68.3725C209.691 68.6332 209.764 68.8905 209.91 69.1069C210.074 69.3211 210.283 69.4966 210.522 69.621C210.844 69.7893 211.183 69.9246 211.532 70.0249C211.94 70.1473 212.411 70.2758 212.946 70.4105C213.585 70.5788 214.214 70.7832 214.831 71.0225C215.35 71.2103 215.836 71.4811 216.269 71.8242C216.657 72.1377 216.969 72.5353 217.181 72.987C217.409 73.5093 217.517 74.0759 217.499 74.6455C217.52 75.3276 217.373 76.0042 217.071 76.6161C216.797 77.1416 216.4 77.5931 215.914 77.9319C215.402 78.2783 214.832 78.5292 214.231 78.6725C213.579 78.827 212.912 78.903 212.242 78.8989C211.171 78.899 210.106 78.7359 209.084 78.4154C208.083 78.115 207.138 77.6518 206.287 77.0445L207.511 74.6455C207.71 74.8264 207.928 74.9864 208.16 75.1229C208.517 75.352 208.889 75.5565 209.274 75.7349C209.731 75.9423 210.206 76.1082 210.693 76.2306C211.215 76.3654 211.752 76.4333 212.291 76.4325C213.809 76.4325 214.567 75.9429 214.567 74.9637C214.576 74.6787 214.485 74.3994 214.31 74.1743C214.105 73.9371 213.853 73.7453 213.57 73.6112C213.196 73.4292 212.807 73.2797 212.407 73.1645L210.889 72.7238C210.285 72.5642 209.694 72.3597 209.121 72.1118C208.674 71.916 208.261 71.6517 207.897 71.3285C207.573 71.0396 207.318 70.682 207.15 70.2819C206.971 69.8307 206.885 69.3475 206.899 68.8621C206.888 68.1941 207.024 67.5318 207.297 66.9221C207.553 66.3737 207.932 65.892 208.405 65.5145C208.897 65.1277 209.457 64.8371 210.057 64.6577C210.711 64.4577 211.392 64.3586 212.077 64.3639C213.015 64.3547 213.948 64.5143 214.831 64.8351C215.607 65.12 216.346 65.4959 217.034 65.9551L215.773 68.1705Z" fill="#EBEBEB"/>
<path d="M223.38 64.4189H225.828L231.225 78.7336H228.386L227.052 75.1657H222.094L220.791 78.7336H217.951L223.38 64.4189ZM226.556 73.2134L224.597 67.5891L222.56 73.2134H226.556Z" fill="#EBEBEB"/>
<path d="M232.768 78.7336V64.4189H235.522V76.2979H242.762V78.7459L232.768 78.7336Z" fill="#EBEBEB"/>
<path d="M254.293 76.2979V78.7459H244.439V64.4189H254.115V66.8669H247.2V70.3125H253.173V72.5708H247.2V76.304L254.293 76.2979Z" fill="#EBEBEB"/>
<path d="M153.001 261.667C218.535 261.667 271.661 258.565 271.661 254.739C271.661 250.913 218.535 247.811 153.001 247.811C87.466 247.811 34.3398 250.913 34.3398 254.739C34.3398 258.565 87.466 261.667 153.001 261.667Z" fill="#F5F5F5"/>
<path d="M69.2543 234.396L56.2738 134.64H53.9543H51.543H51.4023H49.8356H48.7523L26.3164 234.396H28.7644L48.991 145.815L42.3018 234.396H45.0987L52.9935 145.454L66.0964 234.396H69.2543Z" fill="#E0E0E0"/>
<path d="M93.2931 217.131H37.9438L25.0918 101.824H80.4411L93.2931 217.131Z" fill="#FF6D38"/>
<path opacity="0.8" d="M93.2931 217.131H37.9438L25.0918 101.824H80.4411L93.2931 217.131Z" fill="white"/>
<path d="M78.8746 111.996H29.3577L28.6172 105.356H78.1341L78.8746 111.996Z" fill="#FF6D38"/>
<path d="M61.322 139.432H32.4172L32.1602 137.131H61.0649L61.322 139.432Z" fill="#FF6D38"/>
<path d="M61.8981 144.609H32.9934L32.7363 142.308H61.6411L61.8981 144.609Z" fill="#FF6D38"/>
<path d="M46.8846 133.477H31.7498L30.1035 118.703H45.2383L46.8846 133.477Z" fill="#FF6D38"/>
<path d="M65.1227 173.563H36.218L35.9609 171.262H64.8718L65.1227 173.563Z" fill="#FF6D38"/>
<path d="M65.7048 178.741H36.8L36.543 176.439H65.4477L65.7048 178.741Z" fill="#FF6D38"/>
<path d="M50.6912 167.614H35.5564L33.9102 152.841H49.0449L50.6912 167.614Z" fill="#FF6D38"/>
<path opacity="0.6" d="M78.8746 111.996H29.3577L28.6172 105.356H78.1341L78.8746 111.996Z" fill="white"/>
<path opacity="0.6" d="M61.322 139.432H32.4172L32.1602 137.131H61.0649L61.322 139.432Z" fill="white"/>
<path opacity="0.6" d="M61.8981 144.609H32.9934L32.7363 142.308H61.6411L61.8981 144.609Z" fill="white"/>
<path opacity="0.6" d="M46.8846 133.477H31.7498L30.1035 118.703H45.2383L46.8846 133.477Z" fill="white"/>
<path opacity="0.6" d="M65.1227 173.563H36.218L35.9609 171.262H64.8718L65.1227 173.563Z" fill="white"/>
<path opacity="0.6" d="M65.7048 178.741H36.8L36.543 176.439H65.4477L65.7048 178.741Z" fill="white"/>
<path opacity="0.6" d="M50.6912 167.614H35.5564L33.9102 152.841H49.0449L50.6912 167.614Z" fill="white"/>
<path d="M204.089 249.102L199.126 249.623L198.195 238.919L203.159 238.392L204.089 249.102Z" fill="#E4897B"/>
<path d="M228.862 248.741H224.052L223.654 237.597H228.471L228.862 248.741Z" fill="#E4897B"/>
<path d="M223.379 248.184H229.223C229.319 248.184 229.412 248.216 229.487 248.276C229.562 248.337 229.614 248.421 229.633 248.515L230.582 252.799C230.602 252.903 230.598 253.01 230.572 253.112C230.546 253.215 230.498 253.31 230.43 253.392C230.363 253.474 230.279 253.54 230.184 253.585C230.088 253.631 229.984 253.655 229.878 253.656C227.987 253.625 226.61 253.509 224.235 253.509C222.773 253.509 218.36 253.662 216.341 253.662C214.321 253.662 214.058 251.667 214.884 251.483C218.593 250.675 221.384 249.555 222.571 248.49C222.79 248.288 223.08 248.178 223.379 248.184Z" fill="#2E353A"/>
<path d="M221.793 249.029C221.467 249.054 221.141 248.967 220.869 248.784C220.781 248.71 220.714 248.615 220.672 248.509C220.63 248.402 220.616 248.286 220.631 248.172C220.628 248.106 220.645 248.04 220.68 247.983C220.715 247.927 220.766 247.882 220.826 247.854C221.359 247.578 222.913 248.533 223.085 248.643C223.105 248.653 223.122 248.669 223.132 248.689C223.142 248.709 223.145 248.732 223.14 248.754C223.137 248.777 223.127 248.798 223.112 248.816C223.097 248.833 223.077 248.846 223.054 248.851C222.642 248.957 222.219 249.016 221.793 249.029ZM221.077 248.031C221.026 248.026 220.975 248.037 220.93 248.062C220.9 248.062 220.863 248.105 220.857 248.197C220.847 248.272 220.856 248.349 220.883 248.42C220.91 248.492 220.953 248.556 221.01 248.607C221.55 248.851 222.162 248.882 222.724 248.692C222.223 248.367 221.664 248.143 221.077 248.031Z" fill="#FF6D38"/>
<path d="M223.024 248.858H222.969C222.473 248.588 221.513 247.53 221.61 247.022C221.627 246.937 221.673 246.861 221.74 246.806C221.807 246.751 221.891 246.721 221.978 246.722C222.064 246.71 222.152 246.718 222.235 246.743C222.319 246.768 222.396 246.811 222.461 246.869C223.018 247.322 223.134 248.705 223.14 248.772C223.141 248.793 223.136 248.813 223.126 248.831C223.117 248.849 223.103 248.865 223.085 248.876C223.064 248.876 223.042 248.87 223.024 248.858ZM222.057 246.905H222.002C221.855 246.905 221.843 246.991 221.837 247.022C221.776 247.334 222.388 248.135 222.883 248.509C222.852 247.961 222.654 247.435 222.314 247.003C222.244 246.939 222.152 246.904 222.057 246.905Z" fill="#FF6D38"/>
<path d="M198.599 248.031H204.444C204.54 248.031 204.633 248.063 204.708 248.124C204.783 248.184 204.834 248.268 204.854 248.362L205.803 252.646C205.822 252.75 205.819 252.857 205.793 252.959C205.767 253.062 205.718 253.157 205.651 253.239C205.584 253.321 205.5 253.387 205.404 253.432C205.309 253.478 205.205 253.502 205.099 253.503C203.208 253.472 201.831 253.356 199.456 253.356C197.993 253.356 193.581 253.509 191.561 253.509C189.542 253.509 189.279 251.514 190.105 251.33C193.813 250.522 196.604 249.402 197.791 248.337C198.011 248.135 198.301 248.025 198.599 248.031Z" fill="#2E353A"/>
<path d="M197.008 248.876C196.681 248.901 196.356 248.815 196.084 248.631C195.996 248.557 195.928 248.463 195.887 248.356C195.845 248.249 195.831 248.133 195.845 248.019C195.843 247.953 195.86 247.887 195.895 247.83C195.93 247.774 195.981 247.729 196.041 247.701C196.574 247.426 198.128 248.38 198.3 248.491C198.32 248.5 198.337 248.516 198.347 248.536C198.357 248.556 198.359 248.579 198.355 248.601C198.352 248.624 198.342 248.645 198.327 248.663C198.312 248.68 198.291 248.693 198.269 248.699C197.857 248.804 197.434 248.863 197.008 248.876ZM196.292 247.86C196.241 247.855 196.19 247.865 196.145 247.891C196.115 247.891 196.078 247.934 196.072 248.025C196.062 248.101 196.071 248.178 196.098 248.249C196.125 248.321 196.168 248.385 196.225 248.435C196.765 248.68 197.377 248.711 197.938 248.521C197.438 248.196 196.879 247.971 196.292 247.86Z" fill="#FF6D38"/>
<path d="M198.239 248.705H198.184C197.688 248.435 196.727 247.377 196.825 246.869C196.842 246.784 196.888 246.708 196.955 246.653C197.022 246.598 197.106 246.568 197.193 246.569C197.279 246.557 197.367 246.565 197.45 246.59C197.534 246.615 197.611 246.658 197.676 246.716C198.233 247.168 198.349 248.552 198.355 248.619C198.356 248.639 198.351 248.66 198.341 248.678C198.331 248.696 198.317 248.712 198.3 248.723C198.278 248.723 198.257 248.717 198.239 248.705ZM197.272 246.752H197.217C197.07 246.752 197.058 246.838 197.052 246.869C196.991 247.181 197.603 247.982 198.098 248.356C198.067 247.807 197.869 247.282 197.529 246.85C197.459 246.786 197.367 246.751 197.272 246.752Z" fill="#FF6D38"/>
<path opacity="0.2" d="M203.159 238.392L198.195 238.919L198.679 244.439L203.642 243.919L203.159 238.392Z" fill="black"/>
<path opacity="0.2" d="M228.471 237.603H223.654L223.862 243.35H228.679L228.471 237.603Z" fill="black"/>
<path d="M226.482 139.842H200.95C198.502 153.098 190.925 200.014 196.378 241.82L205.02 240.749C205.02 240.749 204.218 185.252 211.849 164.738C212.731 175.717 213.771 187.382 214.677 193.612C216.898 208.912 221.654 242.352 221.654 242.352H230.454C230.454 242.352 228.655 210.344 227.823 195.308C226.911 178.986 226.519 143.208 226.482 139.842Z" fill="#FF6D38"/>
<path opacity="0.6" d="M230.454 242.352H221.653C221.653 242.352 216.898 208.913 214.676 193.613C213.77 187.401 212.73 175.718 211.849 164.738C210.592 168.335 209.638 172.03 208.997 175.785C204.437 200.393 205.019 240.749 205.019 240.749L196.377 241.973C190.943 200.167 198.519 153 200.949 140.148H226.482C226.518 143.208 226.91 179.139 227.822 195.461C228.654 210.528 230.454 242.352 230.454 242.352Z" fill="white"/>
<path d="M195.386 243.833L206.084 242.242L205.759 239.28L194.627 240.736L195.386 243.833Z" fill="#FF6D38"/>
<path d="M220.595 242.425H230.974V239.323L220.203 239.121L220.595 242.425Z" fill="#FF6D38"/>
<path d="M230.907 97.9201C229.493 103.114 228.471 108.406 227.847 113.753C227.645 115.393 227.48 117.002 227.345 118.563C227.168 120.546 227.046 122.455 226.948 124.267C226.825 126.562 226.789 129.273 226.795 131.941C226.795 138.061 227.052 143.967 227.052 143.967C222.156 145.191 208.006 144.377 200.277 143.814C199.366 136.423 199.128 128.965 199.567 121.531C199.824 116.622 200.366 111.732 201.189 106.886C201.604 104.298 202.18 101.739 202.914 99.2236C203.199 98.332 203.732 97.5404 204.453 96.9428C205.173 96.3451 206.049 95.9664 206.978 95.8515C207.914 95.7352 208.998 95.619 210.136 95.5516C210.577 95.5516 211.017 95.5088 211.464 95.5027C215.115 95.5442 218.761 95.7976 222.382 96.2616C223.068 96.3411 223.765 96.4452 224.438 96.5553C226.617 96.8962 228.777 97.3517 230.907 97.9201Z" fill="#FF6D38"/>
<path opacity="0.2" d="M206.066 103.838C203.54 109.6 201.37 115.51 199.566 121.537C199.824 116.628 200.365 111.738 201.188 106.892L206.066 103.838Z" fill="black"/>
<path d="M205.301 96.384C199.512 96.8492 188.129 115.778 190.271 119.891C192.413 124.004 195.999 125.919 202.192 114.291C208.386 102.663 205.301 96.384 205.301 96.384Z" fill="#FF6D38"/>
<path opacity="0.2" d="M205.301 96.384C199.512 96.8492 188.129 115.778 190.271 119.891C192.413 124.004 195.999 125.919 202.192 114.291C208.386 102.663 205.301 96.384 205.301 96.384Z" fill="black"/>
<path d="M208.079 74.9211C208.079 74.9211 207.266 80.374 210.785 82.926C214.304 85.4781 214.304 73.134 214.304 73.134L208.079 74.9211Z" fill="#2E353A"/>
<path d="M222.387 96.237C220.043 98.3668 214.303 97.5773 214.303 97.5773C214.303 97.5773 210.716 96.5981 211.469 95.4781C213.58 95.1293 214.603 94.144 215.025 92.8832C215.256 92.1018 215.329 91.282 215.239 90.472C215.204 90.0203 215.145 89.5709 215.062 89.1256L222.155 83.844C221.23 87.3385 220.092 93.7217 222.387 96.237Z" fill="#E4897B"/>
<path opacity="0.2" d="M220.522 87.21C220.24 91.494 216.74 92.6445 215.014 92.8832C215.245 92.1017 215.318 91.2819 215.228 90.4719L220.522 87.21Z" fill="black"/>
<path d="M220.998 88.1954C220.26 89.287 219.185 90.1063 217.937 90.5275C216.689 90.9488 215.337 90.9486 214.088 90.5272C212.465 90.0102 211.098 88.897 210.263 87.4121C210.147 87.2135 210.041 87.0093 209.945 86.8001C208.213 82.7486 207.662 75.6617 211.946 73.0056C212.889 72.414 213.966 72.073 215.077 72.0152C216.188 71.9573 217.295 72.1845 218.294 72.6751C219.292 73.1657 220.148 73.9034 220.781 74.8182C221.414 75.733 221.803 76.7944 221.91 77.9016C222.436 82.6201 222.969 85.3925 220.998 88.1954Z" fill="#E4897B"/>
<path d="M215.007 80.4291C215.099 80.8024 214.922 81.1512 214.671 81.1941C214.42 81.2369 214.163 80.9615 214.096 80.5821C214.028 80.2026 214.187 79.8599 214.432 79.8171C214.677 79.7742 214.934 80.0374 215.007 80.4291Z" fill="#2E353A"/>
<path d="M210.679 81.1635C210.771 81.5368 210.594 81.8918 210.343 81.9346C210.092 81.9775 209.841 81.696 209.774 81.3226C209.706 80.9493 209.859 80.5944 210.11 80.5515C210.361 80.5087 210.618 80.7841 210.679 81.1635Z" fill="#2E353A"/>
<path d="M212.087 81.1206C211.829 82.366 211.403 83.5704 210.82 84.7008C211.117 84.84 211.441 84.9122 211.769 84.9122C212.097 84.9122 212.421 84.84 212.717 84.7008L212.087 81.1206Z" fill="#DE5753"/>
<path d="M216.109 78.795C216.069 78.8085 216.027 78.8111 215.986 78.8024C215.945 78.7938 215.907 78.7743 215.876 78.746C215.673 78.5452 215.425 78.3947 215.153 78.3065C214.881 78.2183 214.592 78.1949 214.31 78.238C214.251 78.2527 214.189 78.2435 214.138 78.2125C214.086 78.1815 214.049 78.1312 214.034 78.0728C214.02 78.0144 214.029 77.9525 214.06 77.9009C214.091 77.8492 214.141 77.812 214.199 77.7974C214.555 77.7335 214.92 77.7557 215.265 77.8622C215.61 77.9686 215.925 78.1563 216.182 78.4094C216.204 78.43 216.221 78.4547 216.232 78.482C216.244 78.5094 216.25 78.5388 216.25 78.5685C216.25 78.5983 216.244 78.6277 216.232 78.655C216.221 78.6824 216.204 78.7071 216.182 78.7276C216.162 78.7545 216.137 78.7773 216.109 78.795Z" fill="#2E353A"/>
<path d="M213.673 86.6041C214.235 86.5957 214.787 86.451 215.28 86.1823C215.774 85.9137 216.195 85.5292 216.507 85.0619C216.515 85.0484 216.521 85.0333 216.524 85.0174C216.526 85.0016 216.525 84.9854 216.521 84.9699C216.517 84.9544 216.51 84.9399 216.5 84.9273C216.49 84.9146 216.478 84.9042 216.464 84.8966C216.438 84.8806 216.407 84.8755 216.377 84.8824C216.347 84.8892 216.321 84.9076 216.305 84.9334C216.006 85.3593 215.612 85.7095 215.154 85.9561C214.696 86.2026 214.187 86.3386 213.667 86.3532C213.637 86.3547 213.608 86.3674 213.586 86.3889C213.565 86.4104 213.552 86.4391 213.551 86.4695C213.551 86.5003 213.563 86.5299 213.585 86.5517C213.607 86.5735 213.636 86.5858 213.667 86.5858L213.673 86.6041Z" fill="#2E353A"/>
<path d="M208.568 79.9884C208.53 80.0126 208.485 80.0254 208.439 80.0251C208.41 80.0173 208.383 80.0038 208.359 79.9854C208.336 79.967 208.316 79.944 208.301 79.9178C208.286 79.8915 208.277 79.8626 208.273 79.8327C208.27 79.8028 208.272 79.7725 208.28 79.7436C208.374 79.394 208.55 79.072 208.794 78.8046C209.038 78.5373 209.342 78.3325 209.682 78.2075C209.71 78.1981 209.74 78.1947 209.77 78.1974C209.8 78.2002 209.829 78.2089 209.856 78.2233C209.882 78.2376 209.905 78.2572 209.924 78.2807C209.942 78.3043 209.956 78.3315 209.963 78.3605C209.972 78.389 209.975 78.4189 209.971 78.4485C209.968 78.4781 209.959 78.5068 209.945 78.5329C209.931 78.5591 209.912 78.5822 209.889 78.6009C209.866 78.6196 209.839 78.6336 209.81 78.642C209.546 78.7477 209.311 78.9133 209.122 79.1257C208.933 79.3381 208.795 79.5915 208.721 79.866C208.707 79.8971 208.686 79.9244 208.659 79.9457C208.633 79.967 208.601 79.9816 208.568 79.9884Z" fill="#2E353A"/>
<path d="M215.931 74.8171C217.259 74.1561 218.832 75.1965 218.483 76.6041C218.024 78.4401 219.352 81.035 220.827 81.9591C220.827 81.9591 220.778 81.1941 221.439 81.292C222.1 81.39 222.412 85.3741 221.39 87.412C221.39 87.412 223.073 85.4781 223.636 81.1941C224.199 76.9101 223.838 73.489 222.663 72.3201C221.488 71.1512 221.188 72.3691 220.319 70.735C219.45 69.101 217.718 67.2711 216.237 68.3421C214.756 69.4131 213.232 69.6151 212.057 68.8011C210.882 67.9872 209.56 69.3091 209.713 70.7901C209.866 72.2712 207.418 71.194 206.904 72.724C206.39 74.254 207.553 79.0032 215.931 74.8171Z" fill="#2E353A"/>
<path opacity="0.2" d="M214.089 90.5272C212.465 90.0102 211.099 88.897 210.264 87.4121C211.42 87.4121 213.103 87.4794 213.544 87.7487C213.985 88.018 214.083 89.4929 214.089 90.5272Z" fill="black"/>
<path d="M224.604 81.3961C224.261 82.5476 223.478 83.5175 222.425 84.095C221.023 84.8478 219.977 83.6727 220.075 82.1733C220.173 80.8331 220.999 78.789 222.553 78.6727C224.108 78.5564 225.02 79.9763 224.604 81.3961Z" fill="#E4897B"/>
<path d="M221.341 93.532L214.554 96.592L214.157 94.144L211.666 95.0191C211.229 95.1703 210.857 95.4652 210.611 95.8554C210.364 96.2457 210.257 96.7082 210.307 97.1673L210.582 99.8601L214.028 97.9751L215.742 100.423L223.893 96.5002L221.341 93.532Z" fill="#FF6D38"/>
<path opacity="0.6" d="M221.341 93.532L214.554 96.592L214.157 94.144L211.666 95.0191C211.229 95.1703 210.857 95.4652 210.611 95.8554C210.364 96.2457 210.257 96.7082 210.307 97.1673L210.582 99.8601L214.028 97.9751L215.742 100.423L223.893 96.5002L221.341 93.532Z" fill="white"/>
<path d="M204.309 105.209L210.068 95.8331C211.016 95.623 211.857 95.0829 212.443 94.3092C213.33 93.0852 213.881 88.1892 213.465 87.9812C213.049 87.7731 208.569 88.2872 208.263 88.8869C207.957 89.4867 207.07 94.4561 207.07 94.4561L200.436 102.235L204.309 105.209Z" fill="#E4897B"/>
<path d="M191.334 113.422C194.156 108.789 204.058 96.7205 204.058 96.7205L208.654 99.8172C208.654 99.8172 200.373 116.623 197.264 119.891C194.156 123.159 187.356 119.952 191.334 113.422Z" fill="#FF6D38"/>
<path opacity="0.1" d="M191.334 113.422C194.156 108.789 204.058 96.7205 204.058 96.7205L208.654 99.8172C208.654 99.8172 200.373 116.623 197.264 119.891C194.156 123.159 187.356 119.952 191.334 113.422Z" fill="black"/>
<path opacity="0.2" d="M226.947 124.273C226.825 126.568 226.788 129.279 226.794 131.947C217.773 130.968 215.527 126.072 215.527 126.072L227.345 118.594C227.168 120.564 227.051 122.461 226.947 124.273Z" fill="black"/>
<path d="M209.456 120.344L198.476 119.579C197.852 118.838 196.984 118.343 196.028 118.183C194.511 117.975 189.951 119.732 189.951 120.203C189.951 120.674 192.479 124.395 193.158 124.395C193.837 124.395 198.666 122.871 198.666 122.871L208.629 125.154L209.456 120.344Z" fill="#E4897B"/>
<path d="M230.834 97.9751C230.834 97.9751 233.141 99.2909 233.478 105.723C233.778 111.525 231.911 123.869 228.276 126.568C222.468 130.852 201.348 124.934 201.348 124.934L202.162 118.728C202.162 118.728 218.147 120.846 221.954 118.728C225.76 116.61 226.899 105.747 226.899 105.747C226.899 105.747 228.49 98.6422 230.834 97.9751Z" fill="#FF6D38"/>
<path opacity="0.1" d="M230.834 97.9751C230.834 97.9751 233.141 99.2909 233.478 105.723C233.778 111.525 231.911 123.869 228.276 126.568C222.468 130.852 201.348 124.934 201.348 124.934L202.162 118.728C202.162 118.728 218.147 120.846 221.954 118.728C225.76 116.61 226.899 105.747 226.899 105.747C226.899 105.747 228.49 98.6422 230.834 97.9751Z" fill="black"/>
<path d="M203.69 118.226L202.631 126.048L200.691 125.301L201.187 118.349L203.69 118.226Z" fill="#FF6D38"/>
<path opacity="0.6" d="M203.69 118.226L202.631 126.048L200.691 125.301L201.187 118.349L203.69 118.226Z" fill="white"/>
<path d="M202.699 97.4979L204.18 96.0107L209.119 99.6827L208.654 101.592L202.699 97.4979Z" fill="#FF6D38"/>
<path opacity="0.6" d="M202.699 97.4979L204.18 96.0107L209.119 99.6827L208.654 101.592L202.699 97.4979Z" fill="white"/>
<path opacity="0.2" d="M211.85 164.738C210.593 168.335 209.639 172.03 208.998 175.785C208.282 165.993 211.14 155.65 211.14 155.65L211.85 164.738Z" fill="black"/>
<path d="M149.537 243.019L145.682 243.704L144.097 238.441L142.652 233.606L147.102 232.052L148.393 237.86L149.537 243.019Z" fill="#E4897B"/>
<path opacity="0.2" d="M148.417 237.976L144.115 238.545L142.658 233.662L147.107 232.083L148.417 237.976Z" fill="black"/>
<path d="M123.766 244.8H119.849L119.207 239.28L118.619 234.237L123.276 233.466L123.54 239.463L123.766 244.8Z" fill="#E4897B"/>
<path opacity="0.2" d="M123.54 239.512L119.207 239.323L118.619 234.261L123.276 233.478L123.54 239.512Z" fill="black"/>
<path d="M154.377 123.012L160.705 116.757C160.705 116.757 160.925 115.081 161.537 114.615C162.149 114.15 166.495 112.571 167.045 112.926C167.596 113.281 168.318 116.782 167.578 117.424C166.837 118.067 162.884 118.887 162.48 118.82L155.632 126.953L154.377 123.012Z" fill="#EEC1BB"/>
<path d="M131.703 111.598C134.439 113.042 144.127 126.592 145.553 127.265C146.979 127.939 157.897 119.089 157.897 119.089L159.733 122.222C159.733 122.222 150.779 134.873 145.718 134.261C140.657 133.649 130.969 122.939 130.969 122.939L131.703 111.598Z" fill="#FF6D38"/>
<path opacity="0.3" d="M131.703 111.598C134.439 113.042 144.127 126.592 145.553 127.265C146.979 127.939 157.897 119.089 157.897 119.089L159.733 122.222C159.733 122.222 150.779 134.873 145.718 134.261C140.657 133.649 130.969 122.939 130.969 122.939L131.703 111.598Z" fill="black"/>
<path d="M157.291 119.42L158.05 118.704L160.039 122.07L159.323 123.447L157.291 119.42Z" fill="#FF6D38"/>
<path opacity="0.2" d="M134.861 126.892C132.597 124.732 130.969 122.939 130.969 122.939L131.14 120.246L131.991 117.633C133.162 118.843 134.031 120.312 134.53 121.92C135.029 123.529 135.142 125.232 134.861 126.892Z" fill="black"/>
<path d="M148.778 234.916L142.431 236.036C136.03 220.081 131.477 206.764 128.257 195.712C126.525 189.745 125.081 184.445 124.041 179.738L124.237 197.107V236.232H117.982C102.309 161.568 113.416 144.555 113.416 144.555L132.193 141.427C132.937 144.904 133.462 148.424 133.765 151.966L134.61 158.19L141.954 196.054L148.778 234.916Z" fill="#2E353A"/>
<path d="M113.221 144.714C113.221 144.714 110.412 151.17 109.598 153.894L123.716 155.558L125.956 147.143L129.188 154.946L134.488 152.951L132.805 143.251L113.221 144.714Z" fill="#FF6D38"/>
<path opacity="0.3" d="M113.221 144.714C113.221 144.714 110.412 151.17 109.598 153.894L123.716 155.558L125.956 147.143L129.188 154.946L134.488 152.951L132.805 143.251L113.221 144.714Z" fill="black"/>
<path d="M113.221 141.917V144.714L132.805 143.245V139.94L113.221 141.917Z" fill="#2E353A"/>
<path d="M128.127 140.618L123.945 140.993L124.229 144.162L128.411 143.788L128.127 140.618Z" fill="white"/>
<path d="M119.85 140.73L118.902 140.778L119.15 145.613L120.097 145.564L119.85 140.73Z" fill="#FF6D38"/>
<path opacity="0.3" d="M119.85 140.73L118.902 140.778L119.15 145.613L120.097 145.564L119.85 140.73Z" fill="black"/>
<path d="M131.514 139.46L130.566 139.509L130.813 144.343L131.76 144.295L131.514 139.46Z" fill="#FF6D38"/>
<path opacity="0.3" d="M131.514 139.46L130.566 139.509L130.813 144.343L131.76 144.295L131.514 139.46Z" fill="black"/>
<path opacity="0.2" d="M128.257 195.711C126.525 189.744 125.197 184.445 124.139 179.738C124.231 174.167 124.639 168.605 125.363 163.08C125.363 163.08 128.098 184.567 128.257 195.711Z" fill="black"/>
<path d="M110.259 96.8612C110.809 98.9788 107.811 104.817 109.035 115.429C110.259 126.041 121.887 125.399 127.131 121.861C132.376 118.324 131.458 99.1134 129.659 95.3312C127.86 91.5491 110.259 96.8612 110.259 96.8612Z" fill="#2E353A"/>
<path d="M132.622 140.271L113.491 141.923C113.308 137.173 112.627 132.455 111.459 127.847C111 126.011 110.425 123.967 109.69 121.605C109.299 120.338 108.864 118.985 108.374 117.522C108.007 116.415 107.616 115.24 107.15 113.997C109.753 113.17 112.412 112.53 115.106 112.082C117.938 111.579 120.801 111.276 123.674 111.176C127.395 111.176 131.667 111.568 131.667 111.568C131.667 111.568 132.279 111.708 132.659 115.656C133.044 119.389 133.417 126.8 132.622 140.271Z" fill="#FF6D38"/>
<path opacity="0.3" d="M132.622 140.271L113.491 141.923C113.308 137.173 112.627 132.455 111.459 127.847C111 126.011 110.425 123.967 109.69 121.605C109.299 120.338 108.864 118.985 108.374 117.522C108.007 116.415 107.616 115.24 107.15 113.997C109.753 113.17 112.412 112.53 115.106 112.082C117.938 111.579 120.801 111.276 123.674 111.176C127.395 111.176 131.667 111.568 131.667 111.568C131.667 111.568 132.279 111.708 132.659 115.656C133.044 119.389 133.417 126.8 132.622 140.271Z" fill="black"/>
<path d="M120.271 110.656C117.976 110.796 114.304 110.772 111.93 114.444H116.281L113.913 117.339C113.913 117.339 121.532 119.175 123.919 124.156C123.919 124.156 127.334 118.232 129.188 116.855C128.049 115.723 126.745 114.77 125.32 114.028C126.561 113.499 127.859 113.117 129.188 112.89C129.188 112.89 123.374 110.472 120.271 110.656Z" fill="white"/>
<path d="M116 112.816C116 112.816 121.9 119.469 123.717 122.682C124.548 119.167 124.464 115.499 123.473 112.027L116 112.816Z" fill="#FF6D38"/>
<path opacity="0.6" d="M116 112.816C116 112.816 121.9 119.469 123.717 122.682C124.548 119.167 124.464 115.499 123.473 112.027L116 112.816Z" fill="white"/>
<path d="M122.132 115.429C117.413 114.817 116.012 112.816 116.012 112.816C119.004 109.995 116.52 105.105 116.52 105.105L122.193 106.164C122.059 106.953 121.985 107.75 121.973 108.551C121.93 111.996 123.484 112.027 123.484 112.027C124.47 113.893 122.132 115.429 122.132 115.429Z" fill="#EEC1BB"/>
<path opacity="0.2" d="M122.181 106.164C122.047 106.953 121.973 107.75 121.961 108.551C118.123 108.551 116.508 105.105 116.508 105.105L122.181 106.164Z" fill="black"/>
<path d="M119.041 90.2945C123.974 90.0252 125.706 92.5772 126.348 97.6385C127.15 103.967 125.987 108.557 119.745 107.535C111.269 106.158 110.853 90.7412 119.041 90.2945Z" fill="#EEC1BB"/>
<path d="M123.141 97.5405C123.577 98.2562 124.097 98.9177 124.689 99.5112C124.554 99.7196 124.365 99.8869 124.141 99.9948C123.918 100.103 123.669 100.147 123.422 100.123L123.141 97.5405Z" fill="#D4827D"/>
<path d="M120.099 97.3081C120.136 97.712 119.94 98.0608 119.671 98.0792C119.402 98.0976 119.157 97.7916 119.126 97.3876C119.096 96.9837 119.285 96.6349 119.555 96.6165C119.824 96.5982 120.069 96.898 120.099 97.3081Z" fill="#2E353A"/>
<path d="M119.445 96.6349L120.302 96.2249C120.302 96.2249 119.917 96.996 119.445 96.6349Z" fill="#2E353A"/>
<path d="M125.125 96.8247C125.161 97.2286 124.966 97.5774 124.696 97.5958C124.427 97.6141 124.182 97.3081 124.152 96.9042C124.121 96.5003 124.311 96.1515 124.58 96.1331C124.849 96.1147 125.094 96.4208 125.125 96.8247Z" fill="#2E353A"/>
<path d="M124.469 96.1576L125.319 95.7476C125.319 95.7476 124.94 96.5187 124.469 96.1576Z" fill="#2E353A"/>
<path d="M119.867 93.8992C119.474 93.8732 119.081 93.9375 118.717 94.0871C118.353 94.2366 118.028 94.4675 117.768 94.7621" stroke="#2E353A" stroke-width="0.686238" stroke-linecap="round" stroke-linejoin="round"/>
<path d="M123.441 93.4952C123.774 93.3905 124.126 93.363 124.471 93.415C124.815 93.467 125.144 93.597 125.43 93.7951" stroke="#2E353A" stroke-width="0.686238" stroke-linecap="round" stroke-linejoin="round"/>
<path d="M122.812 102.118C122.607 102.687 122.445 103.27 122.328 103.863H122.01C120.566 103.795 119.917 103.287 119.636 102.743C119.504 102.477 119.439 102.183 119.446 101.886C119.444 101.716 119.467 101.547 119.513 101.384C120.386 101.818 121.342 102.062 122.316 102.1L122.812 102.118Z" fill="#2E353A"/>
<path d="M122.316 102.088L122.163 102.596C120.804 102.535 119.855 102.302 119.445 101.874C119.444 101.704 119.467 101.535 119.513 101.372C120.386 101.806 121.341 102.05 122.316 102.088Z" fill="white"/>
<path d="M122.009 103.85C120.565 103.783 119.916 103.275 119.635 102.73C120.184 102.768 120.722 102.9 121.226 103.122C121.556 103.278 121.83 103.532 122.009 103.85Z" fill="#DE5753"/>
<path d="M114.107 98.9054C114.107 98.9054 116.188 94.7255 115.668 91.6165C115.668 91.6165 125.227 87.0877 126.25 96.9837C126.25 96.9837 126.727 88.122 118.232 88.3851C109.738 88.6483 110.46 101.06 115.044 104.517C115.056 104.517 112.816 101.519 114.107 98.9054Z" fill="#2E353A"/>
<path d="M114.972 99.9031C114.89 99.3353 114.586 98.8231 114.127 98.479C113.668 98.1348 113.091 97.9866 112.524 98.0671C111.006 98.3119 110.449 101.494 114.292 102.039C114.849 102.106 115.131 101.555 114.972 99.9031Z" fill="#EEC1BB"/>
<path d="M116.984 91.1207C117.325 95.2072 116.314 99.2925 114.108 102.749C111.335 106.941 114.524 110.613 114.524 110.613C114.524 110.613 107.939 108.342 110.809 98.9849C110.809 98.9849 107.712 90.6373 113.802 88.3851C113.802 88.3851 113.832 85.8453 119.34 86.3288C124.848 86.8123 129.285 91.5308 130.13 97.5467C130.974 103.563 127.835 110.276 127.835 110.276C127.835 110.276 131.164 88.9481 116.984 91.1207Z" fill="#2E353A"/>
<path d="M117.279 91.0352L117.334 91.2432C117.365 91.3779 117.408 91.5798 117.444 91.8552C117.55 92.5439 117.608 93.2393 117.616 93.936C117.616 94.3644 117.616 94.8296 117.579 95.3253C117.542 95.821 117.493 96.329 117.414 96.8614C117.334 97.3938 117.236 97.9324 117.114 98.4832C116.991 99.034 116.838 99.5787 116.673 100.123C116.508 100.668 116.33 101.2 116.11 101.721C115.911 102.232 115.687 102.732 115.437 103.22C115.002 104.082 114.488 104.902 113.901 105.668C113.487 106.213 113.028 106.723 112.53 107.192C112.336 107.367 112.132 107.531 111.918 107.682C112.133 107.524 112.338 107.352 112.53 107.167C113.013 106.687 113.454 106.165 113.846 105.607C114.399 104.821 114.88 103.988 115.284 103.116C115.514 102.625 115.718 102.123 115.896 101.611C116.086 101.103 116.245 100.546 116.398 100.013C116.551 99.4808 116.673 98.9238 116.771 98.3792C116.869 97.8345 116.961 97.302 117.016 96.7818C117.071 96.2616 117.114 95.7537 117.126 95.2763C117.138 94.799 117.126 94.34 117.126 93.9238C117.094 93.2562 117.017 92.5917 116.894 91.9348C116.845 91.6961 116.802 91.5125 116.771 91.3901L116.716 91.2126L117.279 91.0352Z" fill="#2E353A"/>
<path opacity="0.2" d="M112.21 131.17C112.002 130.142 111.758 129.046 111.458 127.871C111.268 127.125 111.06 126.341 110.846 125.509C111.458 123.422 112.07 125.056 112.07 125.056C112.449 127.073 112.497 129.138 112.21 131.17Z" fill="black"/>
<path d="M89.4998 145.044L82.6209 150.699C82.6209 150.699 80.9318 150.748 80.4055 151.311C79.8792 151.874 77.884 156.042 78.1778 156.605C78.4716 157.168 81.8926 158.251 82.6087 157.572C83.3247 156.892 84.5304 153.049 84.4998 152.639L93.2697 146.629L89.4998 145.044Z" fill="#EEC1BB"/>
<path d="M107.18 114.028C107.18 114.028 100.571 133.545 98.6123 135.895C96.6539 138.245 86.5742 146.703 86.5742 146.703L87.9023 150.681C87.9023 150.681 99.1202 144.255 101.77 141.709C103.814 139.738 111.972 125.185 111.972 125.185C111.972 125.185 111.746 115.833 107.18 114.028Z" fill="#FF6D38"/>
<path opacity="0.3" d="M107.18 114.028C107.18 114.028 100.571 133.545 98.6123 135.895C96.6539 138.245 86.5742 146.703 86.5742 146.703L87.9023 150.681C87.9023 150.681 99.1202 144.255 101.77 141.709C103.814 139.738 111.972 125.185 111.972 125.185C111.972 125.185 111.746 115.833 107.18 114.028Z" fill="black"/>
<path d="M85.5762 146.702L86.9042 145.583L88.8442 151.091L87.3142 151.703L85.5762 146.702Z" fill="#FF6D38"/>
<path d="M129.084 252.566C128.463 252.06 127.753 251.674 126.99 251.428C126.99 251.428 124.714 249.17 123.618 242.37L120.638 241.593C120.132 241.47 119.6 241.505 119.115 241.694C118.63 241.884 118.215 242.218 117.927 242.652C117.842 242.771 117.778 242.903 117.737 243.044C117.579 243.772 117.472 244.51 117.419 245.253C117.119 247.554 117.376 252.719 117.376 252.719H117.915L118.129 248.031C118.208 246.44 119.426 248.307 119.775 250.02C120.124 251.734 120.864 253.558 124.353 253.643C128.423 253.723 130.112 253.564 129.084 252.566Z" fill="#2E353A"/>
<path d="M155.093 252.107C154.472 251.601 153.763 251.215 153 250.969C153 250.969 150.724 248.711 149.628 241.911L146.648 241.128C146.142 241.004 145.61 241.04 145.125 241.229C144.64 241.419 144.225 241.753 143.937 242.187C143.852 242.306 143.787 242.438 143.747 242.578C143.589 243.306 143.482 244.045 143.429 244.788C143.129 247.089 143.386 252.254 143.386 252.254H143.924L144.138 247.566C144.218 245.975 145.436 247.842 145.785 249.555C146.134 251.269 146.874 253.093 150.363 253.178C154.432 253.264 156.121 253.105 155.093 252.107Z" fill="#2E353A"/>
<path d="M83.5371 231.709L86.5298 238.588C87.0941 239.889 88.0262 240.996 89.2114 241.773C90.3966 242.55 91.7832 242.964 93.2006 242.964H105.728C107.39 242.963 108.984 242.303 110.159 241.128H133.556C134.46 241.128 135.35 240.913 136.155 240.502C136.959 240.09 137.654 239.493 138.183 238.76L141.273 234.476L83.5371 231.709Z" fill="#2E353A"/>
<path d="M102.602 204.439C102.602 207.737 115.748 231.165 117.064 232.095C118.379 233.025 135.54 231.985 135.54 231.985L134.261 236.844H87.1367L67.5527 198.833L80.5027 180.148L104.095 180.803C104.095 180.803 102.602 201.146 102.602 204.439Z" fill="#FF6D38"/>
<path opacity="0.2" d="M102.602 204.439C102.602 207.737 115.748 231.165 117.064 232.095C118.379 233.025 135.54 231.985 135.54 231.985L134.261 236.844H87.1367L67.5527 198.833L80.5027 180.148L104.095 180.803C104.095 180.803 102.602 201.146 102.602 204.439Z" fill="black"/>
<path d="M64.3206 254.947C74.9371 254.947 83.5435 244.565 83.5435 231.758C83.5435 218.952 74.9371 208.57 64.3206 208.57C53.704 208.57 45.0977 218.952 45.0977 231.758C45.0977 244.565 53.704 254.947 64.3206 254.947Z" fill="#2E353A"/>
<path d="M61.1022 246.385C67.798 246.385 73.226 239.837 73.226 231.758C73.226 223.68 67.798 217.132 61.1022 217.132C54.4065 217.132 48.9785 223.68 48.9785 231.758C48.9785 239.837 54.4065 246.385 61.1022 246.385Z" fill="white"/>
<path d="M58.3166 237.652C61.1051 237.652 63.3656 234.926 63.3656 231.563C63.3656 228.199 61.1051 225.473 58.3166 225.473C55.5281 225.473 53.2676 228.199 53.2676 231.563C53.2676 234.926 55.5281 237.652 58.3166 237.652Z" fill="#FF6D38"/>
<path opacity="0.4" d="M58.3166 237.652C61.1051 237.652 63.3656 234.926 63.3656 231.563C63.3656 228.199 61.1051 225.473 58.3166 225.473C55.5281 225.473 53.2676 228.199 53.2676 231.563C53.2676 234.926 55.5281 237.652 58.3166 237.652Z" fill="black"/>
<path d="M171.403 196.728C171.403 196.728 154.053 210.032 147.437 237.456H119.652L145.968 194.616L159.849 188.845L171.403 196.728Z" fill="#FF6D38"/>
<path opacity="0.4" d="M173.196 195.375C173.196 195.375 156.972 207.78 149.224 231.122C148.626 232.956 147.465 234.556 145.906 235.693C144.347 236.83 142.469 237.447 140.54 237.456H119.652L145.968 194.616L159.849 188.845L173.196 195.375Z" fill="black"/>
<path d="M171.525 196.452H160.809C158.775 196.427 156.78 197.011 155.08 198.129C148.722 202.364 133.66 214.175 132.094 232.89C131.996 234.126 131.439 235.279 130.533 236.124C129.626 236.969 128.437 237.445 127.198 237.456H80.6183C72.7912 237.457 65.1041 235.381 58.3415 231.44L45.0244 223.68C43.5897 222.842 42.4535 221.575 41.7751 220.058C41.0968 218.541 40.9105 216.85 41.2422 215.222C42.8273 207.578 47.2949 194.463 60.0796 189.334C60.2815 189.243 59.9755 189.163 60.5875 189.09V181.152H93.9783C93.9783 181.152 87.283 197.119 87.283 203.704C87.283 209.916 93.8681 233.784 102.387 236.232H114.015C115.561 236.194 117.069 235.75 118.388 234.945C119.708 234.139 120.791 233 121.531 231.642C127.198 221.526 139.786 195.295 135.864 170.503C135.405 167.608 137.632 164.628 140.57 164.628H155.564C155.564 164.628 169.028 180.246 173.398 193.447C173.844 194.732 172.883 196.452 171.525 196.452Z" fill="#FF6D38"/>
<path d="M147.491 159.659H143.207C142.083 159.658 140.992 159.274 140.116 158.569L131.31 151.439C130.963 151.158 130.532 151.002 130.086 150.999H113.158C112.833 150.999 112.522 150.87 112.292 150.64C112.063 150.411 111.934 150.099 111.934 149.775C111.934 149.45 112.063 149.139 112.292 148.909C112.522 148.68 112.833 148.551 113.158 148.551H130.073C131.081 148.551 132.058 148.899 132.84 149.536L141.652 156.672C142.09 157.026 142.637 157.219 143.201 157.217H147.485C148.078 157.214 148.652 157 149.101 156.611C149.55 156.223 149.845 155.686 149.933 155.099L150.318 152.345C150.473 151.297 150.998 150.338 151.799 149.643C152.599 148.948 153.622 148.563 154.682 148.557H157.895C158.219 148.557 158.531 148.686 158.76 148.915C158.99 149.145 159.119 149.456 159.119 149.781C159.119 150.106 158.99 150.417 158.76 150.646C158.531 150.876 158.219 151.005 157.895 151.005H154.67C154.199 151.008 153.745 151.18 153.389 151.488C153.033 151.797 152.799 152.222 152.73 152.688L152.344 155.442C152.172 156.608 151.588 157.675 150.697 158.448C149.807 159.221 148.67 159.651 147.491 159.659Z" fill="#2E353A"/>
<path d="M139.932 154.469C139.932 154.469 139.988 157.357 137.276 157.174L136.395 160.307C136.269 160.749 136.238 161.211 136.302 161.666C136.366 162.12 136.525 162.556 136.768 162.945L138.684 166.005H156.432L157.827 163.373C158.051 162.955 158.135 162.476 158.068 162.006C158.001 161.536 157.786 161.1 157.454 160.76L152.166 155.356C151.89 155.071 151.558 154.845 151.193 154.69C150.827 154.536 150.434 154.456 150.037 154.457L139.932 154.469Z" fill="#FF6D38"/>
<path opacity="0.4" d="M139.932 154.469C139.932 154.469 139.988 157.357 137.276 157.174L136.395 160.307C136.269 160.749 136.238 161.211 136.302 161.666C136.366 162.12 136.525 162.556 136.768 162.945L138.684 166.005H156.432L157.827 163.373C158.051 162.955 158.135 162.476 158.068 162.006C158.001 161.536 157.786 161.1 157.454 160.76L152.166 155.356C151.89 155.071 151.558 154.845 151.193 154.69C150.827 154.536 150.434 154.456 150.037 154.457L139.932 154.469Z" fill="black"/>
<path d="M170.41 254.947C181.027 254.947 189.633 244.565 189.633 231.758C189.633 218.952 181.027 208.57 170.41 208.57C159.794 208.57 151.188 218.952 151.188 231.758C151.188 244.565 159.794 254.947 170.41 254.947Z" fill="#2E353A"/>
<path d="M167.198 246.385C173.894 246.385 179.322 239.837 179.322 231.758C179.322 223.68 173.894 217.132 167.198 217.132C160.502 217.132 155.074 223.68 155.074 231.758C155.074 239.837 160.502 246.385 167.198 246.385Z" fill="white"/>
<path d="M189.327 216.801C187.302 213.355 181.885 205.907 172.148 203.729C169.653 203.144 167.066 203.069 164.541 203.508L164.498 203.404L164.541 203.312H164.462L162.791 199.512H160.888C159.342 199.512 157.838 200.014 156.604 200.944L153.262 203.453L154.835 208.906C154.38 209.394 153.955 209.909 153.562 210.448C150.743 213.952 148.821 218.09 147.962 222.505C147.934 222.689 147.946 222.877 147.997 223.056C148.049 223.235 148.138 223.401 148.26 223.543C148.381 223.684 148.532 223.797 148.701 223.875C148.871 223.952 149.055 223.992 149.241 223.992H150.245C150.508 223.996 150.767 223.92 150.985 223.774C151.204 223.627 151.373 223.417 151.469 223.172C152.366 220.803 153.786 218.667 155.624 216.923L161.2 231.44L165.686 229.555L164.113 211.464C164.113 211.464 174.431 208.563 181.188 216.911C181.581 217.4 182.078 217.795 182.644 218.067C183.209 218.34 183.828 218.482 184.456 218.484H188.379C188.574 218.481 188.765 218.426 188.933 218.326C189.1 218.226 189.239 218.084 189.335 217.914C189.431 217.744 189.481 217.552 189.479 217.357C189.478 217.161 189.425 216.97 189.327 216.801Z" fill="#FF6D38"/>
<path opacity="0.2" d="M189.327 216.801C187.302 213.355 181.885 205.907 172.148 203.729C169.653 203.144 167.066 203.069 164.541 203.508L164.498 203.404L164.541 203.312H164.462L162.791 199.512H160.888C159.342 199.512 157.838 200.014 156.604 200.944L153.262 203.453L154.835 208.906C154.38 209.394 153.955 209.909 153.562 210.448C150.743 213.952 148.821 218.09 147.962 222.505C147.934 222.689 147.946 222.877 147.997 223.056C148.049 223.235 148.138 223.401 148.26 223.543C148.381 223.684 148.532 223.797 148.701 223.875C148.871 223.952 149.055 223.992 149.241 223.992H150.245C150.508 223.996 150.767 223.92 150.985 223.774C151.204 223.627 151.373 223.417 151.469 223.172C152.366 220.803 153.786 218.667 155.624 216.923L161.2 231.44L165.686 229.555L164.113 211.464C164.113 211.464 174.431 208.563 181.188 216.911C181.581 217.4 182.078 217.795 182.644 218.067C183.209 218.34 183.828 218.482 184.456 218.484H188.379C188.574 218.481 188.765 218.426 188.933 218.326C189.1 218.226 189.239 218.084 189.335 217.914C189.431 217.744 189.481 217.552 189.479 217.357C189.478 217.161 189.425 216.97 189.327 216.801Z" fill="black"/>
<path d="M164.414 237.652C167.203 237.652 169.463 234.926 169.463 231.563C169.463 228.199 167.203 225.473 164.414 225.473C161.626 225.473 159.365 228.199 159.365 231.563C159.365 234.926 161.626 237.652 164.414 237.652Z" fill="#FF6D38"/>
<path opacity="0.4" d="M164.414 237.652C167.203 237.652 169.463 234.926 169.463 231.563C169.463 228.199 167.203 225.473 164.414 225.473C161.626 225.473 159.365 228.199 159.365 231.563C159.365 234.926 161.626 237.652 164.414 237.652Z" fill="black"/>
<path d="M146.23 166.684C146.23 166.684 149.407 186.685 159.896 186.819C169.731 186.954 170.649 168.178 161.267 165.295C153.691 162.963 146.23 166.684 146.23 166.684Z" fill="#FF6D38"/>
<path opacity="0.2" d="M146.23 166.684C146.23 166.684 149.407 186.685 159.896 186.819C169.731 186.954 170.649 168.178 161.267 165.295C153.691 162.963 146.23 166.684 146.23 166.684Z" fill="black"/>
<path d="M167.156 175.883C167.388 180.956 164.328 185.063 160.32 185.063C156.311 185.063 152.878 180.944 152.645 175.883C152.413 170.821 155.473 166.703 159.475 166.703C163.478 166.703 166.923 170.803 167.156 175.883Z" fill="white"/>
<path d="M157.173 162.768H148.066L148.789 161.593H157.173V162.768Z" fill="#FF6D38"/>
<path d="M107.099 180.308V182.609C107.099 184.696 105.391 186.048 103.298 186.048H61.9147C59.8156 186.048 58.1387 184.696 58.1387 182.609V180.308C58.1387 178.221 59.8156 176.868 61.9147 176.868H103.298C105.391 176.868 107.099 178.221 107.099 180.308Z" fill="#2E353A"/>
<path opacity="0.2" d="M93.6347 180.308V182.609C93.6576 183.074 93.5815 183.538 93.4113 183.972C93.241 184.405 92.9806 184.798 92.6473 185.123C92.314 185.448 91.9154 185.699 91.4779 185.858C91.0404 186.018 90.574 186.082 90.1096 186.048H61.9147C59.8156 186.048 58.1387 184.696 58.1387 182.609V180.308C58.1387 178.221 59.8156 176.868 61.9147 176.868H90.1096C90.574 176.834 91.0404 176.898 91.4779 177.058C91.9154 177.217 92.314 177.468 92.6473 177.793C92.9806 178.119 93.241 178.511 93.4113 178.944C93.5815 179.378 93.6576 179.842 93.6347 180.308Z" fill="white"/>
<path opacity="0.2" d="M88.4274 222.695V237.456H80.6183C72.7912 237.457 65.1041 235.381 58.3415 231.44L45.0244 223.68C43.5897 222.842 42.4535 221.575 41.7751 220.058C41.0968 218.541 40.9105 216.85 41.2422 215.222C42.8273 207.578 47.3622 194.463 60.1714 189.334L60.7834 189.365H65.9548C68.9394 189.365 71.8622 190.215 74.3803 191.818C76.8984 193.42 78.9074 195.707 80.1715 198.41L85.6795 210.222C87.4961 214.129 88.4341 218.386 88.4274 222.695Z" fill="black"/>
<path d="M122.988 140.278L122.016 141.021L128.645 149.689L129.617 148.945L122.988 140.278Z" fill="#2E353A"/>
<path d="M119.002 139.23H122.123C122.448 139.23 122.765 139.325 123.036 139.503C123.307 139.682 123.519 139.936 123.647 140.234L124.063 141.207C124.171 141.459 124.214 141.733 124.189 142.006C124.164 142.279 124.072 142.541 123.921 142.77C123.77 142.998 123.565 143.186 123.324 143.315C123.083 143.445 122.813 143.514 122.54 143.514H119.143C118.744 143.515 118.359 143.372 118.057 143.111C117.756 142.85 117.559 142.489 117.503 142.094L117.362 141.121C117.329 140.886 117.346 140.647 117.413 140.419C117.481 140.192 117.596 139.981 117.751 139.802C117.907 139.623 118.099 139.479 118.315 139.38C118.531 139.281 118.765 139.23 119.002 139.23Z" fill="#FF6D38"/>
<path d="M154.13 141.65L152.498 149.4L153.696 149.652L155.327 141.902L154.13 141.65Z" fill="#2E353A"/>
<path d="M158.397 139.23H155.037C154.708 139.23 154.39 139.349 154.141 139.565C153.893 139.78 153.731 140.079 153.685 140.405L153.459 141.953C153.431 142.149 153.446 142.349 153.503 142.538C153.56 142.727 153.657 142.902 153.788 143.05C153.919 143.199 154.08 143.317 154.261 143.397C154.442 143.477 154.638 143.517 154.836 143.514H158.189C158.519 143.514 158.837 143.395 159.085 143.18C159.334 142.964 159.496 142.665 159.542 142.339L159.768 140.791C159.796 140.595 159.78 140.397 159.724 140.208C159.667 140.019 159.571 139.844 159.441 139.696C159.31 139.548 159.15 139.43 158.97 139.349C158.79 139.269 158.595 139.228 158.397 139.23Z" fill="#FF6D38"/>
<path d="M129.603 179.09L124.297 167.908C123.97 167.219 123.386 166.685 122.67 166.42C121.954 166.156 121.163 166.183 120.466 166.495L106.617 172.615C106.05 172.869 105.58 173.298 105.276 173.839L90.9861 198.429C90.7677 198.806 90.6362 199.228 90.6012 199.663C90.5663 200.097 90.6288 200.534 90.7842 200.942C90.9395 201.349 91.1839 201.717 91.4994 202.018C91.8149 202.319 92.1936 202.546 92.6079 202.682L112.804 209.286C113.469 209.505 114.19 209.478 114.837 209.211C115.483 208.944 116.013 208.454 116.329 207.829L129.567 181.654C129.77 181.258 129.879 180.821 129.885 180.376C129.892 179.931 129.795 179.491 129.603 179.09ZM121.072 170.473C120.756 170.369 120.477 170.174 120.272 169.912C120.066 169.651 119.943 169.334 119.918 169.002C119.892 168.67 119.966 168.338 120.129 168.048C120.292 167.758 120.538 167.523 120.834 167.372C121.131 167.222 121.466 167.163 121.797 167.202C122.127 167.242 122.438 167.379 122.691 167.595C122.944 167.812 123.126 168.099 123.216 168.419C123.306 168.739 123.299 169.079 123.196 169.396C123.056 169.819 122.754 170.17 122.356 170.372C121.958 170.574 121.497 170.61 121.072 170.473Z" fill="#FF6D38"/>
<path opacity="0.6" d="M129.603 179.09L124.297 167.908C123.97 167.219 123.386 166.685 122.67 166.42C121.954 166.156 121.163 166.183 120.466 166.495L106.617 172.615C106.05 172.869 105.58 173.298 105.276 173.839L90.9861 198.429C90.7677 198.806 90.6362 199.228 90.6012 199.663C90.5663 200.097 90.6288 200.534 90.7842 200.942C90.9395 201.349 91.1839 201.717 91.4994 202.018C91.8149 202.319 92.1936 202.546 92.6079 202.682L112.804 209.286C113.469 209.505 114.19 209.478 114.837 209.211C115.483 208.944 116.013 208.454 116.329 207.829L129.567 181.654C129.77 181.258 129.879 180.821 129.885 180.376C129.892 179.931 129.795 179.491 129.603 179.09ZM121.072 170.473C120.756 170.369 120.477 170.174 120.272 169.912C120.066 169.651 119.943 169.334 119.918 169.002C119.892 168.67 119.966 168.338 120.129 168.048C120.292 167.758 120.538 167.523 120.834 167.372C121.131 167.222 121.466 167.163 121.797 167.202C122.127 167.242 122.438 167.379 122.691 167.595C122.944 167.812 123.126 168.099 123.216 168.419C123.306 168.739 123.299 169.079 123.196 169.396C123.056 169.819 122.754 170.17 122.356 170.372C121.958 170.574 121.497 170.61 121.072 170.473Z" fill="white"/>
<path d="M119.089 185.069C118.814 184.301 118.354 183.614 117.748 183.068C117.003 182.394 116.129 181.88 115.178 181.556L111.641 188.245C111.673 188.255 111.704 188.269 111.732 188.288C111.758 188.308 111.787 188.323 111.818 188.331C112.643 188.807 113.438 189.332 114.199 189.904C114.809 190.351 115.34 190.897 115.772 191.519C116.138 192.049 116.35 192.67 116.384 193.313C116.369 194.07 116.158 194.81 115.772 195.461C115.386 196.219 114.839 196.884 114.168 197.407C113.523 197.896 112.786 198.25 112.002 198.447C111.163 198.65 110.297 198.718 109.437 198.649C108.477 198.576 107.529 198.393 106.61 198.105L105.325 200.553L104.333 200.228L105.637 197.78C103.249 196.957 101.274 195.239 100.129 192.988L101.818 191.868C102.167 192.801 102.729 193.639 103.458 194.316C104.341 195.158 105.381 195.817 106.518 196.256L110.056 189.567L109.921 189.463C109.142 188.992 108.389 188.482 107.663 187.933C107.101 187.521 106.616 187.014 106.231 186.434C105.909 185.947 105.737 185.377 105.735 184.794C105.77 184.108 105.967 183.442 106.31 182.847C106.694 182.102 107.225 181.442 107.871 180.907C108.485 180.4 109.189 180.012 109.945 179.763C110.736 179.508 111.563 179.384 112.393 179.396C113.316 179.405 114.233 179.533 115.123 179.775L116.457 177.241L117.449 177.566L116.12 180.069C117.168 180.425 118.138 180.978 118.979 181.697C119.704 182.339 120.296 183.116 120.723 183.986L119.089 185.069ZM113.679 194.989C113.925 194.572 114.054 194.097 114.052 193.612C114.026 193.173 113.88 192.75 113.63 192.388C113.322 191.935 112.944 191.535 112.51 191.201C111.943 190.751 111.353 190.332 110.741 189.947L107.271 196.507C108.524 196.979 109.879 197.114 111.2 196.899C111.732 196.793 112.233 196.566 112.663 196.235C113.093 195.904 113.441 195.477 113.679 194.989ZM108.36 183.202C108.13 183.598 107.996 184.043 107.969 184.5C107.97 184.892 108.082 185.276 108.293 185.608C108.562 186.017 108.902 186.376 109.297 186.666C109.832 187.078 110.387 187.462 110.961 187.817L114.395 181.33C113.169 180.902 111.84 180.868 110.594 181.232C109.623 181.576 108.823 182.282 108.36 183.202Z" fill="#2E353A"/>
<path d="M122.785 167.841C122.785 167.841 129.285 168.147 128.599 162.18C127.718 154.561 136.629 154.304 135.558 151.397" stroke="#FF6D38" stroke-linecap="round" stroke-linejoin="round"/>
</svg>
