<svg width="500" height="500" viewBox="0 0 500 500" fill="none" xmlns="http://www.w3.org/2000/svg">
<path d="M500 382.398H0V382.648H500V382.398Z" fill="#EBEBEB"/>
<path d="M449.901 398.494H416.779V398.744H449.901V398.494Z" fill="#EBEBEB"/>
<path d="M331.22 401.208H322.527V401.458H331.22V401.208Z" fill="#EBEBEB"/>
<path d="M415.778 389.208H396.586V389.458H415.778V389.208Z" fill="#EBEBEB"/>
<path d="M95.652 390.888H52.459V391.138H95.652V390.888Z" fill="#EBEBEB"/>
<path d="M110.89 390.888H104.557V391.138H110.89V390.888Z" fill="#EBEBEB"/>
<path d="M225.147 395.111H131.471V395.361H225.147V395.111Z" fill="#EBEBEB"/>
<path d="M237.014 337.8H43.915C40.768 337.8 38.207 335.239 38.207 332.092V60.6601C38.207 57.5131 40.768 54.9521 43.915 54.9521H237.014C240.16 54.9521 242.721 57.5131 242.721 60.6601V332.092C242.721 335.239 240.16 337.8 237.014 337.8ZM43.915 55.2031C40.905 55.2031 38.457 57.6511 38.457 60.6611V332.093C38.457 335.103 40.905 337.551 43.915 337.551H237.014C240.023 337.551 242.471 335.103 242.471 332.093V60.6601C242.471 57.6511 240.023 55.2021 237.014 55.2021L43.915 55.2031Z" fill="#EBEBEB"/>
<path d="M453.311 337.8H260.213C257.066 337.8 254.506 335.239 254.506 332.092V60.6601C254.506 57.5131 257.067 54.9521 260.213 54.9521H453.311C456.459 54.9521 459.019 57.5131 459.019 60.6601V332.092C459.02 335.239 456.459 337.8 453.311 337.8ZM260.213 55.2031C257.204 55.2031 254.756 57.6511 254.756 60.6611V332.093C254.756 335.103 257.204 337.551 260.213 337.551H453.311C456.321 337.551 458.769 335.103 458.769 332.093V60.6601C458.769 57.6511 456.321 55.2021 453.311 55.2021L260.213 55.2031Z" fill="#EBEBEB"/>
<path d="M267.782 382.398H302.883V251.666H267.782V382.398Z" fill="#E6E6E6"/>
<path d="M273.623 382.398H267.781V370.635H279.748L273.623 382.398Z" fill="#F0F0F0"/>
<path d="M410.641 382.398H445.742V251.666H410.641V382.398Z" fill="#E6E6E6"/>
<path d="M267.782 377.881H415.74V251.667H267.782V377.881Z" fill="#F0F0F0"/>
<path d="M272.312 291.874H411.207V257.261H272.312V291.874Z" fill="#E6E6E6"/>
<path d="M335.199 268.017H348.32C354.019 268.017 359.468 263.747 363.388 256.208H320.131C324.051 263.747 329.5 268.017 335.199 268.017Z" fill="#F0F0F0"/>
<path d="M409.898 382.398H415.739V370.635H403.773L409.898 382.398Z" fill="#F0F0F0"/>
<path d="M272.312 332.081H411.207V297.468H272.312V332.081Z" fill="#E6E6E6"/>
<path d="M335.199 308.225H348.32C354.019 308.225 359.468 303.955 363.388 296.416H320.131C324.051 303.955 329.5 308.225 335.199 308.225Z" fill="#F0F0F0"/>
<path d="M272.312 372.288H411.207V337.675H272.312V372.288Z" fill="#E6E6E6"/>
<path d="M335.199 348.432H348.32C354.019 348.432 359.468 344.162 363.388 336.623H320.131C324.051 344.161 329.5 348.432 335.199 348.432Z" fill="#F0F0F0"/>
<path d="M77.9991 222.019L212.039 222.019L212.039 86.3836L77.9991 86.3836L77.9991 222.019Z" fill="#E6E6E6"/>
<path d="M68.6864 222.019L209.564 222.019L209.564 86.3836L68.6864 86.3836L68.6864 222.019Z" fill="#F0F0F0"/>
<path d="M197.762 210.218L197.762 98.1865L80.4887 98.1865L80.4887 210.218L197.762 210.218Z" fill="white"/>
<path d="M138.323 113.038L116.798 134.563C105.969 145.392 105.968 163.013 116.797 173.842L138.321 195.366C138.763 195.808 139.482 195.808 139.924 195.365L161.449 173.84C172.278 163.011 172.279 145.39 161.45 134.561L139.926 113.037C139.484 112.596 138.766 112.596 138.323 113.038ZM118.401 172.239C108.456 162.294 108.456 146.111 118.401 136.166V172.239ZM159.847 172.239V136.166C169.793 146.111 169.793 162.293 159.847 172.239Z" fill="#F0F0F0"/>
<path d="M406.855 204.999H331.965L327.691 249.223H402.581L406.855 204.999Z" fill="#E6E6E6"/>
<path d="M402.582 249.223L402.279 251.668H327.385L327.688 249.223H402.582Z" fill="#E6E6E6"/>
<path d="M404.551 204.999H329.661L325.387 249.223H400.277L404.551 204.999Z" fill="#F0F0F0"/>
<path d="M398.761 246.342L401.89 208.033C401.935 207.487 401.504 207.02 400.956 207.02H332.106C331.618 207.02 331.212 207.394 331.172 207.88L328.042 246.189C327.997 246.735 328.428 247.202 328.976 247.202H397.827C398.315 247.203 398.721 246.828 398.761 246.342Z" fill="white"/>
<path d="M380.762 249.223L380.46 251.668H297.99L298.293 249.223H380.762Z" fill="#F0F0F0"/>
<path d="M280.09 181.363L420.721 181.363V87.8773L280.09 87.8773V181.363Z" fill="#E6E6E6"/>
<path d="M276.965 181.363L417.596 181.363V87.8773L276.965 87.8773V181.363Z" fill="#F5F5F5"/>
<path d="M411.986 175.062V94.1782L282.574 94.1782V175.062L411.986 175.062Z" fill="white"/>
<path d="M284.938 175.062V94.1777H282.575V175.062H284.938Z" fill="#E6E6E6"/>
<path d="M279.284 164.329L415.275 164.329V155.87L279.284 155.87V164.329Z" fill="#F5F5F5"/>
<path d="M270.848 77.4473H426.835C427.31 77.4473 427.699 77.8363 427.699 78.3113C427.699 78.7863 427.31 79.1753 426.835 79.1753H270.848C270.373 79.1753 269.984 78.7863 269.984 78.3113C269.985 77.8353 270.373 77.4473 270.848 77.4473Z" fill="#E6E6E6"/>
<path d="M267.826 78.3104C267.826 79.5024 268.793 80.4694 269.985 80.4694C271.177 80.4694 272.144 79.5024 272.144 78.3104C272.144 77.1184 271.177 76.1514 269.985 76.1514C268.792 76.1514 267.826 77.1184 267.826 78.3104Z" fill="#E6E6E6"/>
<path d="M419.555 83.1475C420.196 83.1475 420.721 82.6225 420.721 81.9815V79.4775C420.721 78.8365 420.196 78.3115 419.555 78.3115C418.914 78.3115 418.389 78.8365 418.389 79.4775V81.9815C418.389 82.6225 418.913 83.1475 419.555 83.1475Z" fill="#E6E6E6"/>
<path d="M283.873 83.1475C284.514 83.1475 285.039 82.6225 285.039 81.9815V79.4775C285.039 78.8365 284.514 78.3115 283.873 78.3115C283.232 78.3115 282.707 78.8365 282.707 79.4775V81.9815C282.707 82.6225 283.232 83.1475 283.873 83.1475Z" fill="#E6E6E6"/>
<path opacity="0.4" d="M271.124 169.146L415.275 169.146V78.3105L271.124 78.3105V169.146Z" fill="#E0E0E0"/>
<path d="M403.508 78.3104C403.508 79.5024 404.475 80.4694 405.667 80.4694C406.859 80.4694 407.826 79.5024 407.826 78.3104C407.826 77.1184 406.859 76.1514 405.667 76.1514C404.474 76.1514 403.508 77.1184 403.508 78.3104Z" fill="#E6E6E6"/>
<path d="M199.501 375.92H211.061V275.653H199.501V375.92Z" fill="#F0F0F0"/>
<path d="M74.1021 382.274H206.621V375.921H74.1021V382.274Z" fill="#F0F0F0"/>
<path d="M199.5 275.653H69.6621V375.92H199.5V275.653Z" fill="#F5F5F5"/>
<path d="M183.288 320.878H85.875C81.941 320.878 78.752 317.689 78.752 313.756V295.117C78.752 291.183 81.941 287.994 85.875 287.994H183.289C187.223 287.994 190.412 291.183 190.412 295.117V313.756C190.411 317.69 187.222 320.878 183.288 320.878Z" fill="#F0F0F0"/>
<path d="M183.288 363.578H85.875C81.941 363.578 78.752 360.389 78.752 356.456V337.817C78.752 333.883 81.941 330.694 85.875 330.694H183.289C187.223 330.694 190.412 333.883 190.412 337.817V356.456C190.411 360.389 187.222 363.578 183.288 363.578Z" fill="#F0F0F0"/>
<path d="M110.39 306.691H158.774C160.014 306.691 161.029 305.676 161.029 304.436C161.029 303.196 160.014 302.181 158.774 302.181H110.39C109.15 302.181 108.135 303.196 108.135 304.436C108.135 305.677 109.15 306.691 110.39 306.691Z" fill="#F5F5F5"/>
<path d="M110.39 349.391H158.774C160.014 349.391 161.029 348.376 161.029 347.136C161.029 345.896 160.014 344.881 158.774 344.881H110.39C109.15 344.881 108.135 345.896 108.135 347.136C108.135 348.376 109.15 349.391 110.39 349.391Z" fill="#F5F5F5"/>
<path d="M250 427.561C357.082 427.561 443.889 422.492 443.889 416.238C443.889 409.985 357.082 404.915 250 404.915C142.918 404.915 56.1113 409.985 56.1113 416.238C56.1113 422.492 142.918 427.561 250 427.561Z" fill="#F5F5F5"/>
<path d="M292.847 101.448H108.051L122.408 353.122H307.204L292.847 101.448Z" fill="#263238"/>
<path d="M296.443 101.448H111.646L126.003 353.122H310.798L296.443 101.448Z" fill="#FF6D38"/>
<path opacity="0.5" d="M283.705 109.912C227.75 109.912 176.046 109.912 120.09 109.912L131.818 337.723C187.774 337.723 243.729 337.723 299.685 337.723L283.705 109.912Z" fill="black"/>
<path d="M120.092 109.912C132.253 185.849 123.911 261.786 136.072 337.723C192.028 337.723 247.983 337.723 303.939 337.723C291.778 261.786 300.12 185.849 287.959 109.912C232.003 109.912 176.048 109.912 120.092 109.912Z" fill="white"/>
<g opacity="0.3">
<path d="M154.416 178.174C162.009 178.175 168.483 184.351 168.752 191.947C168.882 195.609 167.568 199.049 165.06 201.636C162.553 204.221 159.153 205.642 155.491 205.644C147.894 205.645 141.551 199.467 141.28 191.872C141.15 188.208 142.437 184.772 144.909 182.184C147.383 179.599 150.755 178.175 154.416 178.174ZM154.314 175.278C145.129 175.278 138.06 182.725 138.384 191.91C138.709 201.093 146.347 208.543 155.534 208.542C164.718 208.541 171.973 201.098 171.647 191.91C171.326 182.723 163.499 175.279 154.314 175.278Z" fill="#FF6D38"/>
</g>
<path d="M247.227 302.92C229.552 302.92 211.877 302.92 194.203 302.92C192.488 302.922 191.223 304.311 191.387 306.024C191.55 307.737 193.083 309.126 194.795 309.128C212.47 309.128 230.145 309.128 247.82 309.128C249.534 309.127 250.782 307.739 250.619 306.024C250.456 304.31 248.94 302.921 247.227 302.92Z" fill="#E0E0E0"/>
<path d="M275.576 289.868C248.103 289.868 220.63 289.868 193.156 289.868C191.444 289.867 190.149 291.253 190.278 292.972C190.405 294.686 191.909 296.076 193.621 296.076C221.094 296.076 248.567 296.076 276.041 296.076C277.756 296.076 279.034 294.689 278.905 292.972C278.778 291.26 277.29 289.867 275.576 289.868Z" fill="#E0E0E0"/>
<g opacity="0.3">
<path d="M156.098 231.969C163.695 231.971 170.023 238.144 170.251 245.741C170.362 249.399 169.053 252.846 166.558 255.43C164.066 258.017 160.681 259.438 157.019 259.438C149.427 259.439 143.003 253.259 142.78 245.666C142.67 242.003 144.001 238.563 146.516 235.978C149.034 233.389 152.436 231.967 156.098 231.969ZM156.062 229.071C146.881 229.069 139.611 236.521 139.884 245.704C140.154 254.889 147.909 262.336 157.096 262.336C166.279 262.335 173.42 254.891 173.147 245.704C172.873 236.516 165.251 229.072 156.062 229.071Z" fill="#FF6D38"/>
</g>
<path d="M217.796 188.488C208.348 188.488 198.901 188.488 189.453 188.488C187.74 188.488 186.295 187.099 186.227 185.384C186.155 183.668 187.488 182.281 189.201 182.28C198.649 182.28 208.096 182.28 217.544 182.28C219.259 182.282 220.709 183.669 220.777 185.384C220.846 187.1 219.51 188.486 217.796 188.488Z" fill="#E0E0E0"/>
<path d="M250.522 188.488C244.12 188.488 237.717 188.488 231.315 188.488C229.603 188.488 228.159 187.099 228.089 185.384C228.02 183.668 229.349 182.281 231.063 182.28C237.465 182.28 243.868 182.28 250.27 182.28C251.985 182.282 253.433 183.669 253.503 185.384C253.573 187.1 252.236 188.486 250.522 188.488Z" fill="#E0E0E0"/>
<path d="M265.987 201.539C240.623 201.539 215.259 201.539 189.895 201.539C188.18 201.538 186.75 200.15 186.695 198.435C186.639 196.721 187.984 195.329 189.697 195.331C215.061 195.331 240.425 195.331 265.789 195.331C267.504 195.332 268.94 196.722 268.994 198.435C269.048 200.149 267.703 201.539 265.987 201.539Z" fill="#E0E0E0"/>
<g opacity="0.3">
<path d="M158.274 285.763C165.872 285.764 172.43 291.941 173.074 299.536C173.384 303.196 172.286 306.638 169.963 309.224C167.64 311.811 164.359 313.233 160.696 313.233C153.104 313.23 146.238 307.056 145.599 299.461C145.289 295.798 146.454 292.357 148.859 289.773C151.262 287.184 154.614 285.764 158.274 285.763ZM158.129 282.866C148.948 282.865 141.927 290.312 142.705 299.499C143.476 308.682 151.798 316.131 160.98 316.131C170.166 316.132 176.74 308.685 175.969 299.499C175.191 290.313 167.319 282.862 158.129 282.866Z" fill="#FF6D38"/>
</g>
<path d="M279.029 249.126C249.748 249.125 220.468 249.125 191.187 249.126C189.473 249.128 188.126 250.516 188.185 252.23C188.243 253.943 189.682 255.332 191.396 255.334C220.677 255.334 249.957 255.334 279.238 255.334C280.951 255.334 282.292 253.948 282.235 252.23C282.177 250.516 280.742 249.124 279.029 249.126Z" fill="#E0E0E0"/>
<path d="M258.196 236.074C235.734 236.074 213.272 236.074 190.81 236.074C189.098 236.075 187.743 237.464 187.79 239.179C187.836 240.892 189.267 242.282 190.981 242.283C213.443 242.283 235.905 242.283 258.368 242.283C260.082 242.283 261.431 240.894 261.384 239.179C261.337 237.461 259.91 236.072 258.196 236.074Z" fill="#E0E0E0"/>
<path d="M155.933 201.724C155.539 201.078 155.144 200.43 154.748 199.784C152.163 195.55 146.756 191.772 144.891 190.669C145.36 189.842 145.828 189.015 146.295 188.187C148.505 189.494 152.986 192.718 155.966 196.547C160.221 190.842 166.426 184.966 174.836 178.628C175.441 179.409 176.044 180.189 176.648 180.97C167.649 187.742 161.267 193.931 157.182 199.9C156.767 200.508 156.35 201.116 155.933 201.724Z" fill="#FF6D38"/>
<path d="M157.433 255.518C157.035 254.87 156.637 254.225 156.24 253.578C153.64 249.346 148.257 245.564 146.4 244.462C146.875 243.636 147.349 242.808 147.825 241.982C150.022 243.284 154.474 246.51 157.454 250.342C161.712 244.641 167.973 238.76 176.512 232.423C177.101 233.203 177.69 233.984 178.279 234.765C169.158 241.536 162.741 247.73 158.676 253.695C158.261 254.302 157.846 254.911 157.433 255.518Z" fill="#FF6D38"/>
<path d="M160.856 309.442C160.416 308.795 159.976 308.149 159.537 307.502C156.665 303.269 151.079 299.488 149.164 298.386C149.594 297.559 150.026 296.733 150.46 295.906C152.723 297.208 157.342 300.432 160.551 304.265C164.468 298.566 170.428 292.684 178.713 286.347C179.333 287.128 179.954 287.908 180.576 288.688C171.744 295.46 165.665 301.654 161.979 307.62C161.604 308.226 161.229 308.834 160.856 309.442Z" fill="#FF6D38"/>
<path d="M224.096 129.02C222.336 132.857 220.533 136.693 218.691 140.529C226.214 144.374 231.758 151.921 232.331 160.606C236.761 160.606 241.192 160.606 245.622 160.606C244.735 147.007 235.959 135.165 224.096 129.02Z" fill="#FF6D38"/>
<path d="M173.474 160.607C177.905 160.607 182.335 160.607 186.765 160.607C186.224 152.423 189.903 145.258 195.987 141.238C193.402 137.4 190.779 133.562 188.113 129.724C178.419 136.044 172.616 147.508 173.474 160.607Z" fill="#263238"/>
<path d="M206.125 124.537C199.302 124.536 193.169 126.433 188.115 129.724C190.781 133.562 193.404 137.401 195.989 141.238C199.265 139.077 203.242 137.821 207.648 137.823C211.544 137.822 215.316 138.805 218.694 140.531C220.536 136.695 222.339 132.858 224.099 129.022C218.593 126.166 212.443 124.538 206.125 124.537Z" fill="#FF6D38"/>
<path opacity="0.5" d="M206.125 124.537C199.302 124.536 193.169 126.433 188.115 129.724C190.781 133.562 193.404 137.401 195.989 141.238C199.265 139.077 203.242 137.821 207.648 137.823C211.544 137.822 215.316 138.805 218.694 140.531C220.536 136.695 222.339 132.858 224.099 129.022C218.593 126.166 212.443 124.538 206.125 124.537Z" fill="#263238"/>
<path d="M222.358 151.514C222.365 151.516 208.944 156.948 207.521 157.955C206.101 158.966 205.852 160.987 206.954 162.476C208.059 163.966 210.106 164.357 211.531 163.347C212.981 162.339 222.383 151.512 222.358 151.514ZM208.263 161.549C207.721 160.818 207.844 159.82 208.542 159.323C209.238 158.829 210.252 159.022 210.796 159.751C211.341 160.483 211.215 161.481 210.515 161.977C209.818 162.47 208.806 162.28 208.263 161.549Z" fill="#263238"/>
<path d="M238.268 145.165C238.502 147.773 236.559 149.881 233.955 149.883C231.349 149.882 229.064 147.773 228.832 145.165C228.598 142.558 230.505 140.446 233.109 140.447C235.715 140.446 238.038 142.562 238.268 145.165Z" fill="white"/>
<path d="M232.42 144.078C232.458 144.494 232.153 144.833 231.737 144.829C231.323 144.829 230.954 144.492 230.917 144.078C230.879 143.664 231.185 143.328 231.599 143.327C232.012 143.325 232.381 143.662 232.42 144.078Z" fill="#263238"/>
<path d="M235.987 144.078C236.023 144.494 235.719 144.833 235.304 144.829C234.89 144.829 234.523 144.492 234.484 144.078C234.445 143.664 234.753 143.328 235.167 143.327C235.582 143.325 235.949 143.662 235.987 144.078Z" fill="#263238"/>
<path d="M233.771 148.023C233.768 148.023 233.765 148.023 233.762 148.023C232.786 148.023 231.837 147.65 231.092 146.972C230.94 146.834 230.929 146.598 231.067 146.446C231.205 146.294 231.441 146.283 231.593 146.421C232.201 146.974 232.971 147.278 233.762 147.278C233.767 147.277 233.767 147.278 233.769 147.278C234.546 147.278 235.248 146.982 235.748 146.443C235.888 146.292 236.123 146.283 236.274 146.423C236.425 146.563 236.434 146.799 236.294 146.949C235.652 147.642 234.756 148.023 233.771 148.023Z" fill="#263238"/>
<path d="M211.617 131.104C211.915 133.709 210.025 135.823 207.418 135.822C204.81 135.821 202.48 133.712 202.18 131.104C201.882 128.499 203.731 126.385 206.335 126.386C208.942 126.389 211.32 128.498 211.617 131.104Z" fill="white"/>
<path d="M205.742 130.018C205.79 130.433 205.492 130.769 205.078 130.769C204.662 130.767 204.29 130.434 204.239 130.018C204.191 129.603 204.487 129.267 204.902 129.267C205.317 129.267 205.692 129.604 205.742 130.018Z" fill="#263238"/>
<path d="M209.308 130.018C209.358 130.433 209.058 130.769 208.644 130.769C208.228 130.767 207.856 130.434 207.806 130.018C207.758 129.603 208.057 129.267 208.469 129.267C208.882 129.267 209.259 129.604 209.308 130.018Z" fill="#263238"/>
<path d="M209.408 133.008H204.73C204.524 133.008 204.357 132.841 204.357 132.636C204.357 132.43 204.524 132.264 204.73 132.264H209.408C209.614 132.264 209.78 132.431 209.78 132.636C209.781 132.841 209.614 133.008 209.408 133.008Z" fill="#263238"/>
<path d="M187.867 145.165C188.102 147.773 186.158 149.881 183.554 149.883C180.949 149.882 178.664 147.773 178.431 145.165C178.201 142.558 180.101 140.446 182.708 140.447C185.313 140.446 187.634 142.562 187.867 145.165Z" fill="white"/>
<path d="M182.018 144.078C182.058 144.494 181.751 144.833 181.335 144.829C180.92 144.829 180.554 144.492 180.515 144.078C180.476 143.664 180.781 143.328 181.197 143.327C181.611 143.325 181.983 143.662 182.018 144.078Z" fill="#263238"/>
<path d="M185.585 144.078C185.622 144.494 185.317 144.833 184.902 144.829C184.486 144.829 184.12 144.492 184.083 144.078C184.045 143.664 184.351 143.328 184.765 143.327C185.18 143.325 185.546 143.662 185.585 144.078Z" fill="#263238"/>
<path d="M181.023 148.023C180.932 148.023 180.841 147.99 180.769 147.923C180.618 147.783 180.61 147.547 180.751 147.396C181.399 146.701 182.292 146.33 183.282 146.324C184.262 146.324 185.212 146.698 185.953 147.375C186.105 147.514 186.116 147.749 185.977 147.901C185.838 148.053 185.603 148.063 185.451 147.925C184.844 147.371 184.041 147.056 183.271 147.069C182.499 147.069 181.799 147.365 181.296 147.904C181.222 147.983 181.123 148.023 181.023 148.023Z" fill="#263238"/>
<path d="M256.744 110.555C253.623 103.992 246.337 99.6431 238.486 99.6431H222.495C220.104 99.6431 217.877 98.4981 216.946 96.7431C214.715 92.5631 209.398 89.5781 203.361 89.5781C197.333 89.5781 192.356 92.5621 190.602 96.7431C189.871 98.4981 187.774 99.6431 185.383 99.6431H169.392C161.541 99.6431 154.752 103.992 152.379 110.555C152.291 110.792 152.262 111.038 152.277 111.284C152.334 112.285 153.19 113.175 154.276 113.175H255.146C256.495 113.175 257.333 111.802 256.744 110.555ZM204.039 101.449C201.589 101.449 199.474 99.4561 199.334 96.9981C199.194 94.5391 201.081 92.5471 203.531 92.5471C205.99 92.5471 208.096 94.5401 208.236 96.9981C208.376 99.4571 206.497 101.449 204.039 101.449Z" fill="#263238"/>
<path d="M360.423 409.114C359.481 409.114 358.556 408.984 358.203 408.561C358.079 408.413 357.967 408.16 358.132 407.8C358.225 407.598 358.395 407.461 358.638 407.393C359.823 407.06 362.554 408.524 362.67 408.586C362.737 408.622 362.779 408.694 362.775 408.765C362.771 408.837 362.723 408.893 362.653 408.908C362.196 409.001 361.302 409.114 360.423 409.114ZM359.099 407.689C358.977 407.689 358.865 407.701 358.767 407.729C358.612 407.773 358.509 407.852 358.454 407.973C358.355 408.189 358.411 408.296 358.463 408.358C358.858 408.833 360.717 408.843 362.061 408.651C361.34 408.3 359.958 407.689 359.099 407.689Z" fill="#FF6D38"/>
<path d="M362.62 408.911C362.596 408.911 362.571 408.906 362.547 408.896C361.616 408.498 359.682 406.91 359.723 406.079C359.733 405.884 359.844 405.641 360.317 405.593C360.668 405.557 361.004 405.657 361.315 405.891C362.335 406.658 362.754 408.637 362.772 408.721C362.785 408.783 362.764 408.843 362.718 408.879C362.69 408.9 362.656 408.911 362.62 408.911ZM360.495 405.933C360.461 405.933 360.426 405.935 360.391 405.938C360.081 405.97 360.075 406.093 360.073 406.134C360.048 406.632 361.382 407.881 362.347 408.425C362.188 407.847 361.794 406.663 361.124 406.16C360.923 406.008 360.716 405.933 360.495 405.933Z" fill="#FF6D38"/>
<path d="M370.679 408.737H363.333L360.699 391.724H368.046L370.679 408.737Z" fill="#FFC3BD"/>
<path d="M363.286 407.886H371.309C371.609 407.886 371.893 408.095 371.991 408.388L374.172 414.918C374.398 415.595 373.956 416.237 373.261 416.225C370.361 416.176 366.161 416.006 362.523 416.006C358.27 416.006 358.65 416.238 353.663 416.238C350.647 416.238 349.469 413.189 350.701 412.913C356.308 411.656 356.957 411.521 361.581 408.459C362.083 408.126 362.652 407.886 363.286 407.886Z" fill="#263238"/>
<path opacity="0.2" d="M360.701 391.729L362.056 400.498H369.406L368.05 391.729H360.701Z" fill="black"/>
<path d="M369.841 225.452L364.855 230.504L372.516 233.21C372.516 233.21 375.485 229.089 373.413 226.27L369.841 225.452Z" fill="#FFC3BD"/>
<path d="M363.162 237.563L370.806 238.682L372.518 233.211L364.856 230.505L363.162 237.563Z" fill="#FFC3BD"/>
<path d="M373.178 163.272C373.828 164.665 374.346 165.859 374.87 167.156C375.392 168.428 375.888 169.705 376.371 170.989C377.322 173.561 378.173 176.176 378.958 178.829C379.756 181.476 380.403 184.203 380.944 186.981L381.323 189.081L381.629 191.223C381.74 191.93 381.804 192.666 381.871 193.399C381.931 194.158 382.026 194.788 382.034 195.715L382.061 197.011L382.015 198.158L381.956 199.294L381.852 200.364C381.724 201.804 381.529 203.155 381.346 204.523C380.947 207.225 380.492 209.861 379.983 212.48C378.923 217.708 377.764 222.823 376.362 227.967L367.251 226.173C367.826 221.086 368.431 215.928 368.907 210.85C369.143 208.312 369.384 205.784 369.527 203.304C369.585 202.078 369.656 200.837 369.656 199.674L369.667 198.794L369.645 197.977L369.628 197.171L369.562 196.515C369.554 196.137 369.419 195.48 369.34 194.945C369.251 194.384 369.168 193.826 369.035 193.253L368.673 191.545L368.239 189.823C367.615 187.524 366.915 185.213 366.116 182.9C365.318 180.589 364.428 178.291 363.491 176.007C363.025 174.864 362.546 173.725 362.048 172.601C361.56 171.496 361.019 170.309 360.562 169.346L373.178 163.272Z" fill="#263238"/>
<path d="M338.652 221.87C338.652 221.87 339.871 278.107 343.173 300.51C346.609 323.812 359.129 398.8 359.129 398.8H371.574C371.574 398.8 367.106 327.429 365.688 304.5C364.142 279.503 364.481 221.87 364.481 221.87H338.652Z" fill="#FF6D38"/>
<path d="M356.18 393.843C356.123 393.843 357.46 399.01 357.46 399.01H372.598L372.492 394.399L356.18 393.843Z" fill="#263238"/>
<path d="M335.849 130.652C335.827 131.274 335.48 131.779 335.073 131.779C334.666 131.779 334.354 131.275 334.376 130.652C334.398 130.03 334.746 129.526 335.152 129.526C335.559 129.525 335.871 130.029 335.849 130.652Z" fill="#263238"/>
<path d="M335.537 131.778C335.537 131.778 333.996 135.367 332.377 137.099C333.441 138.126 335.329 137.657 335.329 137.657L335.537 131.778Z" fill="#ED847E"/>
<path d="M338.176 127.204C338.102 127.204 338.028 127.182 337.965 127.135C336.677 126.183 335.399 126.653 335.386 126.658C335.196 126.731 334.987 126.637 334.921 126.449C334.855 126.261 334.956 126.049 335.147 125.976C335.214 125.95 336.815 125.36 338.414 126.542C338.574 126.66 338.603 126.888 338.479 127.052C338.403 127.151 338.29 127.204 338.176 127.204Z" fill="#263238"/>
<path d="M355.301 137.525C354.058 142.899 352.658 152.747 356.292 156.333C356.292 156.333 354.63 161.785 344.644 161.785C333.663 161.785 339.589 156.334 339.589 156.334C345.633 154.903 345.635 150.456 344.738 146.281L355.301 137.525Z" fill="#FFC3BD"/>
<path d="M360.174 158.855C361.253 156.658 362.445 154.145 360.191 153.357C357.711 152.491 344.002 151.607 339.208 153.233C334.413 154.859 335.599 159.314 335.599 159.314L360.174 158.855Z" fill="#FF6D38"/>
<path d="M370.686 158.443C377.016 161.361 380.236 183.5 380.236 183.5L367.486 187.5C367.486 187.5 363.829 178.299 361.955 169.488C359.992 160.256 364.214 155.46 370.686 158.443Z" fill="#263238"/>
<path d="M292.324 192.886L286.447 187.831L281.156 195.53C281.156 195.53 285.909 199.339 291.114 197.776L292.324 192.886Z" fill="#FFC3BD"/>
<path d="M278.705 185.384L277.889 192.992L281.157 195.531L286.448 187.831L278.705 185.384Z" fill="#FFC3BD"/>
<path d="M356.646 129.333C355.907 136.974 355.862 141.47 351.864 145.391C345.851 151.29 336.543 147.791 334.989 140.164C333.59 133.299 335.034 121.957 342.62 118.916C350.095 115.921 357.385 121.692 356.646 129.333Z" fill="#FFC3BD"/>
<path d="M340.95 131.778C340.277 126.5 340.388 124.5 343.211 123.333C340.284 122.75 337.742 122.666 336.534 120.958C335.326 119.25 335.034 114.875 340.909 112.875C340.367 113.917 342.076 115.958 347.492 114.083C352.909 112.208 360.781 112 361.47 117.5C364.325 116.5 369.117 125.334 363.506 131.778C358.801 137.182 355.658 140.906 354.733 143.769C354.545 144.351 353.917 144.631 353.363 144.373C351.405 143.459 347.921 144.24 346.378 144.661C345.921 144.786 345.445 144.572 345.239 144.146C344.238 142.08 341.506 136.137 340.95 131.778Z" fill="#263238"/>
<path d="M360.48 118.168C360.48 118.168 362.796 114.896 367.245 117.329C367.245 117.329 363.444 117.108 360.48 118.168Z" fill="#263238"/>
<path d="M360.863 118.875C360.863 118.875 364.089 116.895 361.572 113.102C361.572 113.102 361.865 116.344 360.863 118.875Z" fill="#263238"/>
<path d="M344.74 132.001C344.41 133.979 343.295 135.795 342.064 136.955C340.213 138.7 338.609 137.462 338.556 135.21C338.508 133.182 339.414 129.831 341.545 128.929C343.644 128.041 345.118 129.74 344.74 132.001Z" fill="#FFC3BD"/>
<path opacity="0.3" d="M339.68 253.12C340.4 269.9 341.53 289.38 343.17 300.51C343.8 304.75 344.72 310.69 345.82 317.58C350.24 293.46 352.88 262.38 339.68 253.12Z" fill="black"/>
<path d="M334.171 409.114C333.229 409.114 332.323 408.984 332.033 408.561C331.931 408.413 331.856 408.16 332.074 407.8C332.196 407.598 332.387 407.461 332.64 407.393C333.873 407.06 336.39 408.524 336.497 408.586C336.559 408.622 336.59 408.694 336.576 408.765C336.562 408.837 336.505 408.893 336.433 408.908C335.96 409.001 335.05 409.114 334.171 409.114ZM333.057 407.689C332.935 407.689 332.821 407.701 332.719 407.729C332.557 407.773 332.443 407.852 332.37 407.973C332.239 408.189 332.28 408.296 332.322 408.358C332.647 408.833 334.504 408.843 335.877 408.651C335.208 408.3 333.915 407.689 333.057 407.689Z" fill="#FF6D38"/>
<path d="M336.397 408.911C336.373 408.911 336.349 408.906 336.326 408.896C335.454 408.498 333.753 406.91 333.917 406.079C333.955 405.884 334.102 405.641 334.582 405.593C334.938 405.557 335.259 405.657 335.536 405.891C336.444 406.658 336.572 408.637 336.576 408.721C336.58 408.783 336.55 408.843 336.499 408.879C336.469 408.9 336.433 408.911 336.397 408.911ZM334.71 405.933C334.676 405.933 334.641 405.935 334.605 405.938C334.291 405.97 334.267 406.093 334.259 406.134C334.161 406.632 335.311 407.881 336.196 408.425C336.122 407.847 335.902 406.663 335.306 406.16C335.127 406.008 334.931 405.933 334.71 405.933Z" fill="#FF6D38"/>
<path d="M344.483 408.737H337.137L337.006 391.724H344.352L344.483 408.737Z" fill="#FFC3BD"/>
<path d="M337.215 407.886H345.238C345.538 407.886 345.791 408.095 345.846 408.388L347.067 414.918C347.193 415.595 346.657 416.237 345.964 416.225C343.072 416.176 338.896 416.006 335.258 416.006C331.005 416.006 327.323 416.238 322.336 416.238C319.32 416.238 318.591 413.189 319.863 412.913C325.654 411.656 330.352 411.521 335.426 408.459C335.976 408.126 336.58 407.886 337.215 407.886Z" fill="#263238"/>
<path opacity="0.2" d="M337.008 391.729L337.074 400.498H344.423L344.357 391.729H337.008Z" fill="black"/>
<path d="M325.541 221.87C325.541 221.87 322.59 276.797 322.598 299.2C322.606 322.502 334.395 398.801 334.395 398.801H346.84C346.84 398.801 343.599 323.864 344.961 300.979C346.445 276.03 353.667 221.871 353.667 221.871H325.541V221.87Z" fill="#FF6D38"/>
<path d="M332.176 393.843C332.119 393.843 332.696 399.01 332.696 399.01H347.834L348.406 394.399L332.176 393.843Z" fill="#263238"/>
<path d="M328.217 158.372C328.217 158.372 315.695 190.001 321.149 244.666C332.988 244.666 361.109 244.666 366.87 244.666C367.354 238.634 362.566 186.413 369.387 157.993C369.387 157.993 362.7 156.641 356.292 156.332C351.28 156.09 344.017 155.93 339.589 156.333C333.751 156.864 328.217 158.372 328.217 158.372Z" fill="#263238"/>
<path opacity="0.2" d="M321.75 186.96C321.07 192 320.51 197.67 320.15 203.93C329.03 195.77 332.07 175.44 332.07 175.44L321.75 186.96Z" fill="black"/>
<path d="M332.924 173.432C331.131 178.112 329.308 182.617 327.309 187.148C325.341 191.673 323.235 196.156 320.913 200.625L320.025 202.302L319.573 203.14C319.383 203.476 319.402 203.503 318.878 204.368C318.034 205.737 316.665 206.994 315.265 207.729C313.867 208.472 312.499 208.788 311.356 208.911C309.045 209.137 307.32 208.813 305.754 208.458C304.199 208.082 302.82 207.602 301.514 207.08C298.907 206.032 296.593 204.779 294.345 203.477C293.222 202.828 292.137 202.135 291.066 201.429C289.98 200.709 288.976 200.019 287.846 199.199L293.252 190.924C297.136 192.987 301.49 195.025 305.397 196.191C306.368 196.483 307.312 196.702 308.126 196.813C308.924 196.934 309.637 196.892 309.732 196.812C309.788 196.785 309.599 196.752 309.266 196.919C308.92 197.065 308.466 197.471 308.248 197.804C308.041 198.153 308.313 197.63 308.398 197.428L308.763 196.646L309.484 195.071C311.381 190.834 313.136 186.44 314.85 182.019C316.534 177.604 318.221 173.09 319.754 168.685L332.924 173.432Z" fill="#263238"/>
<path d="M337.905 161.688C340.239 168.227 323.682 194.556 323.682 194.556L313.859 184.834C313.859 184.834 316.373 176.556 319.686 166.603C322.943 156.81 335.673 155.437 337.905 161.688Z" fill="#263238"/>
</svg>
