<svg width="500" height="500" viewBox="0 0 500 500" fill="none" xmlns="http://www.w3.org/2000/svg">
<path d="M288.932 278.318H240.279V291.189H288.932V278.318Z" fill="#EBEBEB"/>
<path d="M268.36 304.746C268.355 304.741 268.35 304.662 268.345 304.512C268.341 304.34 268.336 304.123 268.329 303.852C268.32 303.246 268.308 302.402 268.292 301.319C268.272 299.097 268.244 295.903 268.209 291.875L268.36 292.026C257.251 292.048 239.584 292.083 219.71 292.123C219.82 292.013 219.46 292.37 219.955 291.876V291.879V291.886V291.899V291.925V291.977V292.081V292.288V292.702V293.527C219.955 294.076 219.955 294.623 219.955 295.169C219.955 296.26 219.954 297.343 219.954 298.417C219.953 300.565 219.951 302.678 219.95 304.748L219.708 304.506C233.562 304.55 245.685 304.588 254.379 304.616C258.71 304.645 262.185 304.669 264.613 304.685C265.794 304.699 266.718 304.709 267.38 304.717C267.678 304.724 267.916 304.729 268.104 304.733C268.268 304.735 268.355 304.74 268.36 304.746C268.365 304.751 268.289 304.756 268.135 304.762C267.955 304.766 267.727 304.771 267.441 304.778C266.792 304.786 265.885 304.796 264.726 304.81C262.312 304.826 258.855 304.85 254.548 304.879C245.811 304.907 233.629 304.945 219.708 304.989L219.466 304.99V304.747C219.465 302.677 219.463 300.564 219.462 298.416C219.462 297.342 219.461 296.259 219.461 295.168C219.461 294.623 219.461 294.075 219.461 293.526V292.701V292.287V292.08V291.976V291.924V291.898V291.885V291.878V291.875C219.957 291.379 219.6 291.737 219.712 291.627C239.586 291.667 257.253 291.702 268.362 291.724H268.514L268.513 291.875C268.477 295.941 268.449 299.165 268.43 301.409C268.414 302.477 268.402 303.311 268.393 303.908C268.387 304.168 268.381 304.376 268.377 304.542C268.37 304.682 268.365 304.751 268.36 304.746Z" fill="#E0E0E0"/>
<path d="M465.163 61.2588H416.51V74.1298H465.163V61.2588Z" fill="#EBEBEB"/>
<path d="M444.59 87.6868C444.585 87.6818 444.58 87.6028 444.575 87.4528C444.571 87.2808 444.566 87.0638 444.559 86.7928C444.55 86.1868 444.538 85.3428 444.523 84.2598C444.503 82.0378 444.475 78.8438 444.44 74.8158L444.591 74.9668C433.482 74.9888 415.815 75.0248 395.941 75.0638C396.051 74.9538 395.691 75.3108 396.186 74.8168V74.8198V74.8268V74.8398V74.8658V74.9178V75.0218V75.2288V75.6428V76.4678C396.186 77.0168 396.186 77.5648 396.186 78.1098C396.186 79.2008 396.185 80.2838 396.185 81.3578C396.184 83.5058 396.182 85.6188 396.181 87.6888L395.939 87.4468C409.793 87.4908 421.916 87.5298 430.61 87.5568C434.941 87.5858 438.416 87.6098 440.844 87.6258C442.025 87.6398 442.949 87.6498 443.611 87.6578C443.909 87.6648 444.147 87.6698 444.335 87.6738C444.498 87.6758 444.584 87.6808 444.59 87.6868C444.595 87.6918 444.519 87.6968 444.365 87.7028C444.185 87.7068 443.957 87.7118 443.671 87.7188C443.022 87.7268 442.114 87.7368 440.956 87.7508C438.542 87.7668 435.085 87.7908 430.778 87.8198C422.041 87.8478 409.859 87.8858 395.938 87.9298L395.696 87.9308V87.6878C395.695 85.6178 395.693 83.5048 395.692 81.3568C395.692 80.2828 395.691 79.1998 395.691 78.1088C395.691 77.5638 395.691 77.0158 395.691 76.4668V75.6418V75.2278V75.0198V74.9158V74.8638V74.8378V74.8248V74.8178V74.8148C396.187 74.3188 395.83 74.6768 395.942 74.5668C415.816 74.6068 433.483 74.6418 444.592 74.6638H444.744L444.743 74.8148C444.707 78.8808 444.679 82.1048 444.66 84.3488C444.644 85.4168 444.632 86.2508 444.623 86.8478C444.617 87.1078 444.611 87.3158 444.607 87.4818C444.6 87.6228 444.595 87.6918 444.59 87.6868Z" fill="#E0E0E0"/>
<path d="M93.9557 123.55H45.3027V136.421H93.9557V123.55Z" fill="#EBEBEB"/>
<path d="M73.3834 149.978C73.3784 149.973 73.3734 149.894 73.3684 149.744C73.3644 149.572 73.3594 149.355 73.3524 149.084C73.3434 148.478 73.3314 147.634 73.3164 146.551C73.2964 144.329 73.2684 141.135 73.2334 137.107L73.3844 137.258C62.2754 137.28 44.6084 137.316 24.7344 137.355C24.8444 137.245 24.4844 137.602 24.9794 137.108V137.111V137.118V137.131V137.157V137.209V137.313V137.52V137.934V138.759C24.9794 139.308 24.9794 139.855 24.9794 140.401C24.9794 141.492 24.9784 142.575 24.9784 143.649C24.9774 145.797 24.9754 147.91 24.9744 149.98L24.7324 149.738C38.5864 149.782 50.7084 149.821 59.4034 149.848C63.7344 149.877 67.2094 149.901 69.6374 149.917C70.8184 149.931 71.7424 149.941 72.4044 149.949C72.7024 149.956 72.9404 149.961 73.1284 149.965C73.2914 149.968 73.3784 149.973 73.3834 149.978C73.3884 149.983 73.3124 149.988 73.1584 149.994C72.9784 149.998 72.7504 150.003 72.4644 150.01C71.8154 150.018 70.9074 150.028 69.7494 150.042C67.3354 150.058 63.8784 150.082 59.5714 150.111C50.8344 150.139 38.6524 150.177 24.7314 150.221L24.4894 150.222V149.979C24.4884 147.909 24.4864 145.796 24.4854 143.648C24.4854 142.574 24.4844 141.491 24.4844 140.4C24.4844 139.855 24.4844 139.307 24.4844 138.758V137.933V137.519V137.312V137.208V137.156V137.13V137.117V137.11V137.107C24.9804 136.611 24.6234 136.969 24.7354 136.859C44.6094 136.899 62.2764 136.934 73.3854 136.956H73.5374L73.5364 137.107C73.5004 141.173 73.4724 144.397 73.4534 146.64C73.4374 147.708 73.4254 148.542 73.4164 149.139C73.4104 149.399 73.4044 149.607 73.4004 149.773C73.3934 149.914 73.3884 149.983 73.3834 149.978Z" fill="#E0E0E0"/>
<path d="M453.663 268.493C453.658 268.488 453.653 268.409 453.648 268.259C453.644 268.087 453.639 267.87 453.632 267.599C453.623 266.993 453.611 266.149 453.595 265.066C453.575 262.844 453.547 259.65 453.512 255.622L453.663 255.773C442.554 255.795 424.887 255.83 405.013 255.87C405.123 255.76 404.763 256.117 405.258 255.622V255.625V255.632V255.645V255.671V255.723V255.827V256.034V256.448V257.273C405.258 257.822 405.258 258.37 405.258 258.915C405.258 260.006 405.257 261.089 405.257 262.163C405.256 264.311 405.254 266.424 405.253 268.494L405.011 268.252C418.865 268.296 430.988 268.335 439.682 268.362C444.013 268.391 447.488 268.415 449.916 268.431C451.097 268.445 452.021 268.455 452.683 268.463C452.981 268.469 453.219 268.475 453.407 268.479C453.571 268.483 453.658 268.488 453.663 268.493C453.668 268.498 453.592 268.503 453.438 268.509C453.258 268.513 453.03 268.518 452.744 268.525C452.095 268.533 451.188 268.543 450.029 268.557C447.615 268.573 444.158 268.597 439.851 268.626C431.114 268.654 418.932 268.692 405.011 268.736L404.769 268.737V268.494C404.768 266.424 404.766 264.311 404.765 262.163C404.765 261.089 404.764 260.006 404.764 258.915C404.764 258.37 404.764 257.822 404.764 257.273V256.448V256.034V255.827V255.723V255.671V255.645V255.632V255.625V255.622C405.26 255.126 404.903 255.485 405.015 255.374C424.889 255.414 442.556 255.449 453.665 255.471H453.817L453.816 255.622C453.78 259.688 453.752 262.912 453.733 265.156C453.717 266.224 453.705 267.057 453.696 267.655C453.689 267.915 453.684 268.123 453.68 268.289C453.673 268.43 453.668 268.498 453.663 268.493Z" fill="#E0E0E0"/>
<path d="M460.26 255.622C460.254 255.616 460.248 255.533 460.241 255.377C460.236 255.192 460.229 254.968 460.222 254.695C460.211 254.062 460.196 253.201 460.178 252.114C460.155 249.857 460.122 246.67 460.082 242.751L460.26 242.929C452.687 242.947 442.385 242.972 431.03 242.999C430.807 243.22 431.329 242.697 431.276 242.752V242.755V242.762V242.775V242.802V242.855V242.961V243.173V243.595V244.437C431.276 244.996 431.276 245.553 431.275 246.106C431.274 247.212 431.274 248.305 431.273 249.382C431.27 251.535 431.267 253.623 431.264 255.623L431.028 255.387C439.467 255.432 446.732 255.471 451.939 255.499C454.507 255.526 456.565 255.548 458.03 255.564C458.714 255.576 459.259 255.586 459.673 255.594C460.049 255.603 460.25 255.613 460.26 255.622C460.27 255.632 460.088 255.641 459.729 255.651C459.328 255.658 458.799 255.668 458.135 255.681C456.683 255.697 454.643 255.719 452.097 255.746C446.85 255.774 439.53 255.813 431.027 255.858L430.791 255.859V255.622C430.788 253.622 430.785 251.534 430.782 249.381C430.781 248.304 430.781 247.211 430.78 246.105C430.78 245.552 430.78 244.995 430.779 244.436V243.594V243.172V242.96V242.854V242.801V242.774V242.761V242.754V242.751C430.725 242.803 431.249 242.28 431.029 242.502C442.384 242.529 452.686 242.554 460.259 242.572L460.439 242.573L460.437 242.751C460.397 246.716 460.364 249.94 460.341 252.223C460.322 253.293 460.307 254.14 460.297 254.764C460.284 255.339 460.272 255.635 460.26 255.622Z" fill="#E0E0E0"/>
<path d="M253.915 40.9368C253.91 40.9318 253.905 40.8528 253.9 40.7028C253.896 40.5308 253.891 40.3138 253.884 40.0428C253.875 39.4368 253.863 38.5928 253.847 37.5098C253.827 35.2878 253.799 32.0938 253.764 28.0658L253.915 28.2168C242.806 28.2388 225.139 28.2738 205.265 28.3138C205.375 28.2038 205.015 28.5608 205.51 28.0658V28.0688V28.0758V28.0888V28.1148V28.1668V28.2708V28.4778V28.8918V29.7168C205.51 30.2658 205.51 30.8138 205.51 31.3588C205.509 32.4498 205.509 33.5328 205.509 34.6068C205.508 36.7548 205.506 38.8678 205.505 40.9378L205.263 40.6958C219.117 40.7398 231.24 40.7788 239.934 40.8058C244.265 40.8348 247.74 40.8588 250.168 40.8748C251.349 40.8888 252.273 40.8988 252.935 40.9068C253.233 40.9128 253.471 40.9188 253.659 40.9218C253.823 40.9258 253.909 40.9308 253.915 40.9368C253.92 40.9418 253.844 40.9478 253.69 40.9528C253.51 40.9568 253.282 40.9618 252.996 40.9688C252.347 40.9768 251.439 40.9868 250.281 41.0008C247.867 41.0168 244.41 41.0408 240.103 41.0698C231.366 41.0978 219.184 41.1358 205.263 41.1798L205.021 41.1808V40.9378C205.02 38.8678 205.018 36.7548 205.017 34.6068C205.017 33.5328 205.016 32.4498 205.016 31.3588C205.016 30.8138 205.016 30.2658 205.016 29.7168V28.8918V28.4778V28.2698V28.1658V28.1138V28.0878V28.0748V28.0678V28.0648C205.512 27.5688 205.155 27.9268 205.267 27.8168C225.141 27.8568 242.808 27.8918 253.917 27.9138H254.069L254.068 28.0648C254.032 32.1308 254.004 35.3558 253.985 37.5988C253.969 38.6668 253.957 39.5008 253.949 40.0978C253.942 40.3578 253.937 40.5658 253.933 40.7318C253.925 40.8728 253.92 40.9418 253.915 40.9368Z" fill="#E0E0E0"/>
<path d="M260.511 28.0658C260.505 28.0598 260.499 27.9768 260.492 27.8208C260.487 27.6358 260.48 27.4118 260.473 27.1388C260.462 26.5058 260.447 25.6448 260.429 24.5578C260.406 22.3008 260.373 19.1138 260.333 15.1948L260.511 15.3728C252.938 15.3908 242.636 15.4158 231.281 15.4428C231.058 15.6638 231.58 15.1408 231.527 15.1958V15.1988V15.2058V15.2188V15.2448V15.2978V15.4038V15.6158V16.0378V16.8798C231.527 17.4388 231.527 17.9958 231.526 18.5488C231.525 19.6548 231.525 20.7478 231.524 21.8248C231.521 23.9778 231.518 26.0658 231.515 28.0658L231.279 27.8298C239.718 27.8748 246.983 27.9138 252.19 27.9418C254.758 27.9698 256.816 27.9908 258.281 28.0068C258.965 28.0188 259.51 28.0288 259.924 28.0368C260.301 28.0458 260.502 28.0558 260.511 28.0658C260.521 28.0758 260.339 28.0848 259.98 28.0948C259.579 28.1018 259.05 28.1118 258.386 28.1248C256.934 28.1408 254.894 28.1628 252.349 28.1898C247.102 28.2178 239.782 28.2568 231.279 28.3018L231.043 28.3028V28.0658C231.04 26.0658 231.037 23.9778 231.034 21.8248C231.033 20.7478 231.033 19.6548 231.032 18.5488C231.032 17.9958 231.032 17.4388 231.031 16.8798V16.0378V15.6158V15.4038V15.2978V15.2448V15.2188V15.2058V15.1988V15.1958C230.977 15.2478 231.501 14.7248 231.281 14.9468C242.636 14.9738 252.938 14.9988 260.511 15.0168H260.691L260.689 15.1948C260.649 19.1598 260.616 22.3838 260.593 24.6668C260.574 25.7368 260.559 26.5838 260.548 27.2078C260.536 27.7828 260.524 28.0778 260.511 28.0658Z" fill="#E0E0E0"/>
<path d="M389.561 348.798C389.561 349.231 389.561 372.739 389.561 372.739H385.564V375.337H389.561V391.36H464.28V376.78H458.745V373.604H464.28V368.84H466.74V366.675H463.819V348.797H389.561V348.798Z" fill="#F5F5F5"/>
<path d="M444.439 348.868V391.095H464.281V376.514H458.746V373.605L464.281 373.704V368.94L466.789 368.943L466.741 366.482L463.82 366.41V348.798L444.439 348.868Z" fill="#E0E0E0"/>
<path d="M445.852 374.994C445.852 375.141 432.331 375.259 415.657 375.259C398.976 375.259 385.459 375.14 385.459 374.994C385.459 374.848 398.977 374.729 415.657 374.729C432.332 374.728 445.852 374.847 445.852 374.994Z" fill="#E0E0E0"/>
<path d="M445.852 372.562C445.852 372.709 432.331 372.828 415.657 372.828C398.976 372.828 385.459 372.709 385.459 372.562C385.459 372.416 398.977 372.297 415.657 372.297C432.332 372.297 445.852 372.416 445.852 372.562Z" fill="#E0E0E0"/>
<path d="M449.731 366.017C449.731 366.164 436.21 366.282 419.536 366.282C402.855 366.282 389.338 366.163 389.338 366.017C389.338 365.871 402.856 365.752 419.536 365.752C436.21 365.752 449.731 365.871 449.731 366.017Z" fill="#E0E0E0"/>
<path d="M450.104 383.852C450.104 383.999 436.583 384.117 419.909 384.117C403.228 384.117 389.711 383.998 389.711 383.852C389.711 383.706 403.229 383.587 419.909 383.587C436.583 383.587 450.104 383.706 450.104 383.852Z" fill="#E0E0E0"/>
<path d="M395.198 390.178C395.198 390.611 395.198 414.119 395.198 414.119H391.201V416.717H395.198V432.74H469.917V418.16H464.382V414.984H469.917V410.22H472.377V408.055H469.456V390.177H395.198V390.178Z" fill="#F5F5F5"/>
<path d="M450.074 390.248V432.474H469.916V417.895H464.382V414.985L469.916 415.084V410.32L472.424 410.323L472.376 407.862L469.455 407.79V390.178L450.074 390.248Z" fill="#E0E0E0"/>
<path d="M451.489 416.374C451.489 416.521 437.968 416.639 421.294 416.639C404.613 416.639 391.096 416.52 391.096 416.374C391.096 416.227 404.614 416.109 421.294 416.109C437.968 416.109 451.489 416.227 451.489 416.374Z" fill="#E0E0E0"/>
<path d="M451.489 413.942C451.489 414.089 437.968 414.208 421.294 414.208C404.613 414.208 391.096 414.089 391.096 413.942C391.096 413.796 404.614 413.677 421.294 413.677C437.968 413.677 451.489 413.796 451.489 413.942Z" fill="#E0E0E0"/>
<path d="M455.368 407.397C455.368 407.544 441.847 407.662 425.173 407.662C408.492 407.662 394.975 407.543 394.975 407.397C394.975 407.251 408.493 407.132 425.173 407.132C441.847 407.132 455.368 407.25 455.368 407.397Z" fill="#E0E0E0"/>
<path d="M455.741 425.232C455.741 425.379 442.22 425.497 425.546 425.497C408.865 425.497 395.348 425.378 395.348 425.232C395.348 425.086 408.866 424.967 425.546 424.967C442.22 424.967 455.741 425.086 455.741 425.232Z" fill="#E0E0E0"/>
<path d="M388.649 431C388.649 431.433 388.649 454.941 388.649 454.941H384.652V457.539H388.649V473.562H463.368V458.982H457.833V455.806H463.368V451.042H465.828V448.877H462.907V431H388.649Z" fill="#F5F5F5"/>
<path d="M443.527 431.069V473.296H463.369V458.716H457.834V455.807L463.369 455.906V451.142L465.877 451.145L465.829 448.683L462.908 448.611V431L443.527 431.069Z" fill="#E0E0E0"/>
<path d="M444.941 457.196C444.941 457.343 431.42 457.461 414.746 457.461C398.065 457.461 384.547 457.342 384.547 457.196C384.547 457.05 398.065 456.931 414.746 456.931C431.42 456.93 444.941 457.049 444.941 457.196Z" fill="#E0E0E0"/>
<path d="M444.941 454.764C444.941 454.911 431.42 455.029 414.746 455.029C398.065 455.029 384.547 454.91 384.547 454.764C384.547 454.618 398.065 454.499 414.746 454.499C431.42 454.499 444.941 454.617 444.941 454.764Z" fill="#E0E0E0"/>
<path d="M448.821 448.219C448.821 448.366 435.3 448.484 418.626 448.484C401.945 448.484 388.428 448.365 388.428 448.219C388.428 448.073 401.946 447.954 418.626 447.954C435.3 447.953 448.821 448.072 448.821 448.219Z" fill="#E0E0E0"/>
<path d="M449.194 466.054C449.194 466.201 435.673 466.319 418.999 466.319C402.318 466.319 388.801 466.2 388.801 466.054C388.801 465.908 402.319 465.789 418.999 465.789C435.673 465.789 449.194 465.908 449.194 466.054Z" fill="#E0E0E0"/>
<path d="M402.255 312.077C402.255 312.51 402.255 336.018 402.255 336.018H398.258V338.616H402.255V354.639H476.974V340.059H471.439V336.883H476.974V332.119H479.434V329.954H476.513V312.076H402.255V312.077Z" fill="#F5F5F5"/>
<path d="M457.133 312.146V354.373H476.975V339.793H471.44V336.884L476.975 336.982V332.219L479.482 332.222L479.435 329.76L476.513 329.688V312.077L457.133 312.146Z" fill="#E0E0E0"/>
<path d="M458.545 338.272C458.545 338.419 445.024 338.537 428.35 338.537C411.669 338.537 398.152 338.418 398.152 338.272C398.152 338.126 411.67 338.007 428.35 338.007C445.025 338.007 458.545 338.126 458.545 338.272Z" fill="#E0E0E0"/>
<path d="M458.545 335.84C458.545 335.987 445.024 336.105 428.35 336.105C411.669 336.105 398.152 335.986 398.152 335.84C398.152 335.694 411.67 335.575 428.35 335.575C445.025 335.575 458.545 335.694 458.545 335.84Z" fill="#E0E0E0"/>
<path d="M462.424 329.295C462.424 329.442 448.903 329.56 432.229 329.56C415.548 329.56 402.031 329.441 402.031 329.295C402.031 329.149 415.549 329.03 432.229 329.03C448.903 329.03 462.424 329.149 462.424 329.295Z" fill="#E0E0E0"/>
<path d="M462.797 347.131C462.797 347.278 449.276 347.397 432.602 347.397C415.921 347.397 402.404 347.278 402.404 347.131C402.404 346.985 415.922 346.866 432.602 346.866C449.276 346.866 462.797 346.984 462.797 347.131Z" fill="#E0E0E0"/>
<path d="M154.108 390.436C154.108 390.869 154.108 414.377 154.108 414.377H150.111V416.975H154.108V432.998H228.827V418.418H223.292V415.242H228.827V410.478H231.287V408.313H228.366V390.435H154.108V390.436Z" fill="#F5F5F5"/>
<path d="M208.986 390.506V432.733H228.828V418.152H223.293V415.243L228.828 415.342V410.578L231.336 410.581L231.288 408.12L228.367 408.048V390.436L208.986 390.506Z" fill="#E0E0E0"/>
<path d="M210.399 416.632C210.399 416.779 196.878 416.897 180.204 416.897C163.523 416.897 150.006 416.778 150.006 416.632C150.006 416.486 163.524 416.367 180.204 416.367C196.879 416.366 210.399 416.485 210.399 416.632Z" fill="#E0E0E0"/>
<path d="M210.399 414.2C210.399 414.347 196.878 414.466 180.204 414.466C163.523 414.466 150.006 414.347 150.006 414.2C150.006 414.054 163.524 413.935 180.204 413.935C196.879 413.935 210.399 414.054 210.399 414.2Z" fill="#E0E0E0"/>
<path d="M214.278 407.655C214.278 407.802 200.757 407.92 184.083 407.92C167.402 407.92 153.885 407.801 153.885 407.655C153.885 407.509 167.403 407.39 184.083 407.39C200.758 407.39 214.278 407.509 214.278 407.655Z" fill="#E0E0E0"/>
<path d="M214.651 425.49C214.651 425.637 201.13 425.755 184.456 425.755C167.775 425.755 154.258 425.636 154.258 425.49C154.258 425.344 167.776 425.225 184.456 425.225C201.13 425.225 214.651 425.344 214.651 425.49Z" fill="#E0E0E0"/>
<path d="M159.745 431.816C159.745 432.249 159.745 455.757 159.745 455.757H155.748V458.355H159.745V474.378H234.464V459.798H228.929V456.622H234.464V451.858H236.924V449.693H234.003V431.815H159.745V431.816Z" fill="#F5F5F5"/>
<path d="M214.621 431.886V474.112H234.464V459.533H228.929V456.623L234.464 456.722V451.958L236.971 451.961L236.923 449.5L234.002 449.428V431.816L214.621 431.886Z" fill="#E0E0E0"/>
<path d="M216.036 458.012C216.036 458.159 202.515 458.277 185.841 458.277C169.16 458.277 155.643 458.158 155.643 458.012C155.643 457.865 169.161 457.747 185.841 457.747C202.516 457.747 216.036 457.865 216.036 458.012Z" fill="#E0E0E0"/>
<path d="M216.036 455.58C216.036 455.727 202.515 455.846 185.841 455.846C169.16 455.846 155.643 455.727 155.643 455.58C155.643 455.434 169.161 455.315 185.841 455.315C202.516 455.315 216.036 455.434 216.036 455.58Z" fill="#E0E0E0"/>
<path d="M219.914 449.035C219.914 449.182 206.393 449.3 189.719 449.3C173.038 449.3 159.521 449.181 159.521 449.035C159.521 448.889 173.039 448.77 189.719 448.77C206.393 448.77 219.914 448.888 219.914 449.035Z" fill="#E0E0E0"/>
<path d="M220.288 466.87C220.288 467.017 206.767 467.135 190.093 467.135C173.412 467.135 159.895 467.016 159.895 466.87C159.895 466.724 173.413 466.605 190.093 466.605C206.767 466.605 220.288 466.724 220.288 466.87Z" fill="#E0E0E0"/>
<path d="M166.802 353.715C166.802 354.148 166.802 377.656 166.802 377.656H162.805V380.254H166.802V396.277H241.521V381.697H235.986V378.521H241.521V373.757H243.981V371.592H241.06V353.714H166.802V353.715Z" fill="#F5F5F5"/>
<path d="M221.68 353.784V396.011H241.522V381.431H235.987V378.522L241.522 378.62V373.857L244.03 373.86L243.982 371.398L241.061 371.326V353.715L221.68 353.784Z" fill="#E0E0E0"/>
<path d="M223.092 379.91C223.092 380.057 209.571 380.175 192.897 380.175C176.216 380.175 162.699 380.056 162.699 379.91C162.699 379.764 176.217 379.645 192.897 379.645C209.572 379.645 223.092 379.764 223.092 379.91Z" fill="#E0E0E0"/>
<path d="M223.092 377.478C223.092 377.625 209.571 377.743 192.897 377.743C176.216 377.743 162.699 377.624 162.699 377.478C162.699 377.332 176.217 377.213 192.897 377.213C209.572 377.213 223.092 377.332 223.092 377.478Z" fill="#E0E0E0"/>
<path d="M226.971 370.933C226.971 371.08 213.45 371.198 196.776 371.198C180.095 371.198 166.578 371.079 166.578 370.933C166.578 370.787 180.096 370.668 196.776 370.668C213.451 370.668 226.971 370.787 226.971 370.933Z" fill="#E0E0E0"/>
<path d="M227.344 388.769C227.344 388.916 213.823 389.035 197.149 389.035C180.468 389.035 166.951 388.916 166.951 388.769C166.951 388.623 180.469 388.504 197.149 388.504C213.823 388.504 227.344 388.622 227.344 388.769Z" fill="#E0E0E0"/>
<path d="M276.899 431.889C276.899 432.309 276.899 455.092 276.899 455.092H273.025V457.61H276.899V473.139H349.314V459.009H343.95V455.931H349.314V451.314H351.698V449.215H348.867V431.888H276.899V431.889Z" fill="#F5F5F5"/>
<path d="M330.084 431.956V472.881H349.314V458.75H343.95V455.931L349.314 456.026V451.41L351.745 451.413L351.698 449.027L348.867 448.957V431.889L330.084 431.956Z" fill="#E0E0E0"/>
<path d="M331.455 457.277C331.455 457.419 318.351 457.534 302.191 457.534C286.025 457.534 272.924 457.419 272.924 457.277C272.924 457.135 286.025 457.02 302.191 457.02C318.352 457.02 331.455 457.135 331.455 457.277Z" fill="#E0E0E0"/>
<path d="M331.455 454.92C331.455 455.062 318.351 455.177 302.191 455.177C286.025 455.177 272.924 455.062 272.924 454.92C272.924 454.778 286.025 454.663 302.191 454.663C318.352 454.663 331.455 454.778 331.455 454.92Z" fill="#E0E0E0"/>
<path d="M335.215 448.576C335.215 448.718 322.111 448.833 305.951 448.833C289.785 448.833 276.684 448.718 276.684 448.576C276.684 448.434 289.785 448.319 305.951 448.319C322.112 448.319 335.215 448.435 335.215 448.576Z" fill="#E0E0E0"/>
<path d="M335.576 465.861C335.576 466.003 322.472 466.118 306.312 466.118C290.146 466.118 277.045 466.003 277.045 465.861C277.045 465.719 290.146 465.604 306.312 465.604C322.472 465.604 335.576 465.719 335.576 465.861Z" fill="#E0E0E0"/>
<path d="M41.0752 431.889C41.0752 432.309 41.0752 455.092 41.0752 455.092H37.2012V457.61H41.0752V473.139H113.49V459.009H108.126V455.931H113.49V451.314H115.874V449.215H113.043V431.888H41.0752V431.889Z" fill="#F5F5F5"/>
<path d="M94.2598 431.956V472.881H113.49V458.75H108.126V455.931L113.49 456.026V451.41L115.921 451.413L115.874 449.027L113.043 448.957V431.889L94.2598 431.956Z" fill="#E0E0E0"/>
<path d="M95.6306 457.277C95.6306 457.419 82.5266 457.534 66.3666 457.534C50.2006 457.534 37.0996 457.419 37.0996 457.277C37.0996 457.135 50.2006 457.02 66.3666 457.02C82.5266 457.02 95.6306 457.135 95.6306 457.277Z" fill="#E0E0E0"/>
<path d="M95.6306 454.92C95.6306 455.062 82.5266 455.177 66.3666 455.177C50.2006 455.177 37.0996 455.062 37.0996 454.92C37.0996 454.778 50.2006 454.663 66.3666 454.663C82.5266 454.663 95.6306 454.778 95.6306 454.92Z" fill="#E0E0E0"/>
<path d="M99.3904 448.576C99.3904 448.718 86.2864 448.833 70.1264 448.833C53.9604 448.833 40.8594 448.718 40.8594 448.576C40.8594 448.434 53.9604 448.319 70.1264 448.319C86.2864 448.319 99.3904 448.435 99.3904 448.576Z" fill="#E0E0E0"/>
<path d="M99.7497 465.861C99.7497 466.003 86.6457 466.118 70.4857 466.118C54.3197 466.118 41.2188 466.003 41.2188 465.861C41.2188 465.719 54.3197 465.604 70.4857 465.604C86.6467 465.604 99.7497 465.719 99.7497 465.861Z" fill="#E0E0E0"/>
<path d="M472.624 473.453C472.624 473.597 372.944 473.713 250.01 473.713C127.034 473.713 27.375 473.596 27.375 473.453C27.375 473.309 127.034 473.193 250.01 473.193C372.944 473.192 472.624 473.309 472.624 473.453Z" fill="#263238"/>
<path d="M408.516 280.916C398.484 286.113 390.791 295.06 385.259 304.912C379.727 314.764 376.162 325.574 372.631 336.306L369.541 391.656C381.214 371.797 390.584 348.452 393.115 325.555C390.526 325.324 387.936 325.094 385.347 324.863C390.555 324.068 394.927 320.294 397.709 315.819C400.491 311.344 401.922 306.184 403.32 301.104C400.161 301.574 397.002 302.043 393.842 302.513C401.264 297.561 406.645 289.641 408.516 280.916Z" fill="#455A64"/>
<g opacity="0.3">
<path d="M408.516 280.916C398.484 286.113 390.791 295.06 385.259 304.912C379.727 314.764 376.162 325.574 372.631 336.306L369.541 391.656C381.214 371.797 390.584 348.452 393.115 325.555C390.526 325.324 387.936 325.094 385.347 324.863C390.555 324.068 394.927 320.294 397.709 315.819C400.491 311.344 401.922 306.184 403.32 301.104C400.161 301.574 397.002 302.043 393.842 302.513C401.264 297.561 406.645 289.641 408.516 280.916Z" fill="black"/>
</g>
<path d="M367.812 404.625C367.812 404.625 342.475 374.298 342.767 345.348H353.002C353.002 345.348 341.885 338.037 342.764 333.943C343.644 329.849 343.936 314.35 343.936 314.35L353.294 316.689C353.294 316.689 346.276 313.18 345.398 307.624C344.521 302.068 347.445 276.334 347.445 276.334C347.445 276.334 358.85 288.324 362.359 300.606C365.868 312.888 375.079 327.217 372.375 364.649C369.671 402.08 367.812 404.625 367.812 404.625Z" fill="#455A64"/>
<path d="M380.658 407.488C380.658 407.488 408.108 389.201 414.207 365.862L405.978 363.623C405.978 363.623 416.515 360.178 416.704 356.694C416.893 353.21 420.048 340.685 420.048 340.685L412.013 340.518C412.013 340.518 418.423 339.232 420.344 334.957C422.265 330.682 425.544 309.353 425.544 309.353C425.544 309.353 413.752 316.497 408.243 325.604C402.735 334.711 392.194 344.216 386.179 374.901C380.165 405.586 380.658 407.488 380.658 407.488Z" fill="#455A64"/>
<path d="M354.367 302.776C354.376 302.774 354.407 302.88 354.46 303.09C354.517 303.327 354.59 303.635 354.683 304.023C354.875 304.879 355.146 306.084 355.491 307.621C355.844 309.183 356.253 311.099 356.698 313.33C357.15 315.559 357.677 318.096 358.192 320.912C359.279 326.535 360.426 333.257 361.606 340.736C362.75 348.221 363.891 356.468 364.905 365.147C365.898 373.831 366.669 382.123 367.263 389.673C367.821 397.225 368.238 404.032 368.462 409.755C368.603 412.615 368.669 415.204 368.738 417.478C368.814 419.751 368.853 421.71 368.866 423.311C368.881 424.885 368.892 426.121 368.9 426.998C368.898 427.397 368.897 427.713 368.896 427.957C368.892 428.173 368.886 428.284 368.877 428.284C368.868 428.284 368.857 428.174 368.843 427.958C368.831 427.714 368.815 427.398 368.796 427C368.765 426.124 368.72 424.889 368.664 423.316C368.62 421.716 368.552 419.759 368.448 417.488C368.352 415.217 368.26 412.63 368.096 409.773C367.825 404.056 367.369 397.256 366.786 389.712C366.166 382.17 365.382 373.886 364.389 365.209C363.376 356.537 362.25 348.294 361.133 340.811C359.98 333.334 358.872 326.609 357.832 320.981C357.34 318.162 356.839 315.622 356.415 313.389C355.998 311.154 355.617 309.233 355.296 307.665C354.992 306.12 354.753 304.908 354.584 304.048C354.512 303.656 354.455 303.344 354.412 303.104C354.373 302.888 354.359 302.777 354.367 302.776Z" fill="#263238"/>
<path d="M364.298 423.196C364.298 423.196 341.111 396.887 333.912 380.984L339.347 378.662C335.407 379.312 331.371 377.619 328.316 375.048C325.261 372.477 323.018 369.095 320.819 365.763L327.979 364.553C321.468 362.726 315.732 358.283 312.336 352.435C320.785 353.824 328.428 358.465 334.727 364.265C339.828 368.962 344.147 374.415 348.295 379.986C350.318 382.704 352.089 385.599 353.564 388.65C357.46 396.705 364.312 413.535 364.298 423.196Z" fill="#455A64"/>
<path d="M414.572 324.666C414.58 324.67 414.544 324.761 414.467 324.935C414.375 325.134 414.258 325.386 414.113 325.701C413.775 326.403 413.304 327.38 412.705 328.622C411.464 331.149 409.706 334.824 407.577 339.384C403.314 348.502 397.698 361.228 392.154 375.549C386.62 389.88 382.213 403.075 379.234 412.689C377.741 417.495 376.57 421.397 375.789 424.101C375.396 425.422 375.087 426.462 374.866 427.208C374.762 427.538 374.679 427.803 374.613 428.013C374.553 428.194 374.518 428.285 374.51 428.283C374.501 428.281 374.519 428.185 374.562 427.999C374.615 427.786 374.682 427.516 374.765 427.18C374.964 426.427 375.242 425.378 375.595 424.045C376.317 421.323 377.435 417.404 378.883 412.581C381.774 402.933 386.13 389.706 391.669 375.361C397.219 361.026 402.894 348.31 407.245 339.227C409.418 334.684 411.228 331.032 412.525 328.532C413.161 327.309 413.661 326.346 414.02 325.654C414.184 325.349 414.316 325.105 414.42 324.912C414.512 324.745 414.564 324.662 414.572 324.666Z" fill="#263238"/>
<path d="M366.266 434.47C366.248 434.472 366.209 434.306 366.15 433.987C366.087 433.608 366.011 433.148 365.919 432.591C365.74 431.377 365.435 429.626 365.009 427.476C364.591 425.323 363.993 422.781 363.233 419.985C362.448 417.196 361.486 414.158 360.314 411.026C359.124 407.9 357.837 404.983 356.583 402.371C355.306 399.77 354.074 397.467 352.965 395.575C351.864 393.679 350.936 392.164 350.268 391.135C349.969 390.657 349.722 390.261 349.519 389.935C349.352 389.657 349.272 389.507 349.287 389.496C349.302 389.486 349.411 389.617 349.606 389.875C349.831 390.186 350.106 390.565 350.437 391.022C351.158 392.019 352.137 393.508 353.282 395.387C354.435 397.262 355.707 399.557 357.014 402.159C358.298 404.772 359.605 407.699 360.802 410.841C361.98 413.989 362.934 417.048 363.697 419.858C364.436 422.674 364.999 425.237 365.372 427.406C365.754 429.573 366.004 431.338 366.121 432.562C366.175 433.124 366.219 433.59 366.255 433.972C366.28 434.297 366.284 434.468 366.266 434.47Z" fill="#263238"/>
<path d="M396.861 428.282H346.113V438.634H396.861V428.282Z" fill="#FF6D38"/>
<path d="M350.949 438.633L356.438 473.453H387.103L392.219 438.633H350.949Z" fill="#FF6D38"/>
<path d="M393.747 438.633C393.747 438.777 384.147 438.893 372.308 438.893C360.464 438.893 350.867 438.776 350.867 438.633C350.867 438.49 360.465 438.373 372.308 438.373C384.147 438.373 393.747 438.49 393.747 438.633Z" fill="#263238"/>
<path d="M422.222 223.354H336.814C336.814 180.364 301.623 144.346 258.633 144.346C215.643 144.346 180.53 180.364 180.53 223.354H95.0449C95.0449 133.151 168.43 58.7231 258.633 58.7231C348.836 58.7231 422.222 133.151 422.222 223.354Z" fill="#E0E0E0"/>
<path d="M258.679 69.3711C241.824 69.3711 225.597 72.1021 210.406 77.1301L231.381 142.34C239.957 139.443 249.138 137.871 258.679 137.871C269.068 137.871 279.029 139.736 288.247 143.145L310.066 78.2011C293.987 72.4901 276.691 69.3711 258.679 69.3711Z" fill="#FF6D38"/>
<path d="M412.663 223.354C412.663 191.799 403.116 162.435 386.767 137.985L331.787 179.089C339.638 192.008 344.164 207.163 344.164 223.354H412.663Z" fill="#FF6D38"/>
<path d="M104.695 223.354H173.194C173.194 207.045 177.787 191.789 185.745 178.809L131.292 136.943C114.514 161.597 104.695 191.35 104.695 223.354Z" fill="#FF6D38"/>
<path d="M131.291 136.943L185.744 178.809C196.13 161.867 212.248 148.803 231.38 142.339L210.405 77.1289C177.918 87.8819 150.188 109.174 131.291 136.943Z" fill="#FF6D38"/>
<path d="M310.067 78.1992L288.248 143.143C306.489 149.888 321.82 162.687 331.788 179.089L386.768 137.985C368.459 110.605 341.613 89.4002 310.067 78.1992Z" fill="#FF6D38"/>
<g opacity="0.5">
<path d="M104.695 223.354H173.194C173.194 207.045 177.787 191.789 185.745 178.809L131.292 136.943C114.514 161.597 104.695 191.35 104.695 223.354Z" fill="white"/>
</g>
<g opacity="0.3">
<path d="M131.291 136.943L185.744 178.809C196.13 161.867 212.248 148.803 231.38 142.339L210.405 77.1289C177.918 87.8819 150.188 109.174 131.291 136.943Z" fill="white"/>
</g>
<g opacity="0.3">
<path d="M310.065 78.1992L288.246 143.143C306.487 149.888 321.818 162.687 331.786 179.089L386.766 137.985C368.457 110.605 341.611 89.4002 310.065 78.1992Z" fill="black"/>
</g>
<g opacity="0.5">
<path d="M412.661 223.354C412.661 191.799 403.114 162.435 386.765 137.985L331.785 179.089C339.636 192.008 344.162 207.163 344.162 223.354H412.661Z" fill="black"/>
</g>
<path d="M386.767 137.986C386.767 137.986 387.94 139.716 390.094 143.119C392.185 146.558 395.219 151.709 398.501 158.734C399.305 160.497 400.185 162.349 400.982 164.356C401.395 165.353 401.818 166.376 402.251 167.424C402.646 168.487 403.051 169.574 403.465 170.687C404.333 172.899 405.042 175.279 405.873 177.728C406.236 178.969 406.607 180.235 406.984 181.526C407.17 182.172 407.358 182.825 407.548 183.483C407.714 184.148 407.882 184.819 408.052 185.496C409.464 190.899 410.616 196.794 411.452 203.12C412.291 209.446 412.8 216.212 412.819 223.355V223.512H412.661C392.721 223.524 369.687 223.538 344.163 223.554H343.965L343.964 223.355C343.931 214.374 342.552 205.023 339.406 195.905C336.308 186.784 331.504 177.892 325.066 169.93C318.635 161.969 310.577 154.935 301.245 149.514C296.573 146.815 291.578 144.561 286.37 142.728C281.147 140.937 275.69 139.632 270.097 138.875C258.913 137.384 247.172 138.063 235.859 141.226C230.2 142.789 224.67 145 219.375 147.762C214.078 150.521 209.019 153.853 204.362 157.749C195.004 165.482 187.189 175.387 181.774 186.649C176.374 197.916 173.447 210.55 173.453 223.355V223.615H173.193C167.802 223.615 161.992 223.615 156.157 223.615C138.528 223.614 121.139 223.614 104.695 223.613H104.436L104.437 223.354C104.474 209.474 106.333 195.808 109.847 182.819C113.421 169.844 118.624 157.571 125.099 146.33C131.636 135.124 139.4 124.937 148.069 116.029C152.354 111.523 156.981 107.461 161.656 103.597C166.349 99.7453 171.278 96.3203 176.234 93.0943C186.253 86.8083 196.657 81.7153 207.204 78.0323C217.716 74.2543 228.327 71.8053 238.687 70.4663C259.436 67.7723 279.106 69.5013 296.21 73.8343C313.363 78.1463 327.943 85.0403 339.781 92.3853C345.725 96.0443 350.958 99.9003 355.579 103.664C360.238 107.388 364.186 111.143 367.669 114.569C371.096 118.055 374.006 121.272 376.42 124.147C377.607 125.6 378.703 126.942 379.704 128.168C380.657 129.431 381.52 130.575 382.292 131.598C383.077 132.611 383.723 133.535 384.27 134.339C384.821 135.137 385.284 135.808 385.658 136.348C386.397 137.427 386.767 137.986 386.767 137.986C386.767 137.986 386.37 137.446 385.613 136.377C385.234 135.84 384.765 135.175 384.206 134.382C383.654 133.583 383.001 132.664 382.21 131.657C379.174 127.539 374.404 121.641 367.531 114.704C364.042 111.293 360.09 107.553 355.429 103.845C350.806 100.098 345.574 96.2583 339.634 92.6183C327.803 85.3083 313.242 78.4533 296.122 74.1723C279.052 69.8713 259.429 68.1693 238.737 70.8753C228.406 72.2203 217.827 74.6713 207.348 78.4463C196.834 82.1273 186.464 87.2123 176.478 93.4853C171.539 96.7043 166.627 100.121 161.95 103.965C157.292 107.82 152.681 111.872 148.412 116.366C139.775 125.25 132.039 135.409 125.527 146.581C119.078 157.788 113.895 170.022 110.337 182.955C106.838 195.902 104.988 209.523 104.953 223.356L104.694 223.098C121.138 223.097 138.527 223.097 156.156 223.096C161.992 223.096 167.801 223.096 173.192 223.096L172.932 223.356C172.927 210.474 175.873 197.762 181.307 186.427C186.757 175.097 194.621 165.134 204.036 157.358C208.722 153.44 213.812 150.089 219.141 147.316C224.468 144.54 230.032 142.317 235.724 140.747C247.105 137.57 258.914 136.892 270.16 138.397C275.785 139.16 281.272 140.476 286.524 142.279C291.761 144.125 296.783 146.395 301.478 149.111C310.858 154.568 318.954 161.645 325.413 169.651C331.879 177.659 336.701 186.6 339.806 195.77C342.96 204.936 344.337 214.334 344.361 223.357L344.162 223.158C369.686 223.174 392.72 223.188 412.66 223.2L412.503 223.357C412.495 216.228 411.997 209.474 411.172 203.158C410.349 196.841 409.211 190.955 407.813 185.557C407.645 184.88 407.479 184.21 407.314 183.546C407.126 182.888 406.94 182.236 406.755 181.591C406.381 180.301 406.014 179.036 405.654 177.796C404.83 175.349 404.128 172.97 403.267 170.759C402.857 169.646 402.456 168.559 402.064 167.497C401.634 166.45 401.215 165.427 400.805 164.43C400.015 162.423 399.142 160.571 398.345 158.807C395.091 151.778 392.083 146.619 390.017 143.166C388.971 141.447 388.123 140.174 387.583 139.302C387.037 138.433 386.767 137.986 386.767 137.986Z" fill="#263238"/>
<path d="M114.59 205.613L115.214 203.079L124.099 205.265L125.451 199.774L127.515 200.282L125.54 208.307L114.59 205.613Z" fill="white"/>
<path d="M127.943 196.853C127.181 197.599 126.297 198.094 125.293 198.336C124.289 198.579 123.259 198.536 122.203 198.206C121.147 197.876 120.276 197.325 119.589 196.553C118.902 195.782 118.458 194.872 118.257 193.824C118.056 192.777 118.129 191.694 118.479 190.577C118.828 189.46 119.383 188.531 120.144 187.789C120.905 187.048 121.788 186.553 122.793 186.305C123.799 186.057 124.83 186.098 125.886 186.428C126.942 186.758 127.812 187.312 128.498 188.089C129.184 188.866 129.628 189.775 129.83 190.818C130.033 191.86 129.959 192.94 129.61 194.058C129.261 195.175 128.706 196.107 127.943 196.853ZM127.589 191.535C127.457 190.931 127.175 190.402 126.744 189.946C126.313 189.49 125.764 189.158 125.098 188.95C124.432 188.742 123.792 188.702 123.178 188.83C122.564 188.959 122.03 189.234 121.578 189.655C121.125 190.076 120.8 190.604 120.601 191.24C120.402 191.876 120.369 192.495 120.501 193.099C120.633 193.703 120.915 194.233 121.346 194.688C121.778 195.144 122.326 195.476 122.993 195.684C123.659 195.892 124.299 195.933 124.913 195.804C125.527 195.676 126.06 195.401 126.513 194.979C126.966 194.558 127.291 194.03 127.49 193.394C127.688 192.759 127.721 192.139 127.589 191.535Z" fill="white"/>
<path d="M127.593 166.771L136.663 174.42L135.612 177.019L127.603 176.455L133.721 181.694L132.675 184.278L120.832 183.483L121.847 180.974L130.149 181.587L123.798 176.15L124.704 173.91L133.078 174.518L126.656 169.087L127.593 166.771Z" fill="white"/>
<path d="M232.994 93.1311L231.558 86.5191L229.483 92.6651L228.333 92.9121L223.964 88.2971L225.354 94.7711L222.959 95.2851L220.592 84.2601L222.702 83.8071L228.3 89.7721L230.893 82.0481L232.988 81.5981L235.387 92.6171L232.994 93.1311Z" fill="white"/>
<path d="M246.195 89.2209L246.443 91.3009L237.773 92.3359L236.438 81.1379L244.899 80.1289L245.147 82.2089L239.26 82.9109L239.55 85.3419L244.749 84.7219L244.99 86.7379L239.791 87.3579L240.1 89.9499L246.195 89.2209Z" fill="white"/>
<path d="M247.846 79.8667L252.965 79.6587C254.188 79.6087 255.279 79.7987 256.236 80.2277C257.194 80.6567 257.95 81.2847 258.505 82.1107C259.061 82.9377 259.36 83.9137 259.406 85.0407C259.452 86.1677 259.231 87.1657 258.745 88.0347C258.259 88.9037 257.556 89.5907 256.637 90.0957C255.716 90.6007 254.645 90.8777 253.421 90.9277L248.303 91.1357L247.846 79.8667ZM253.207 88.7907C254.333 88.7457 255.22 88.3947 255.864 87.7397C256.51 87.0847 256.81 86.2207 256.767 85.1477C256.723 84.0747 256.353 83.2377 255.658 82.6377C254.962 82.0367 254.05 81.7597 252.924 81.8057L250.542 81.9027L250.825 88.8887L253.207 88.7907Z" fill="white"/>
<path d="M261.671 79.5029L264.28 79.5589L264.036 90.8329L261.428 90.7759L261.671 79.5029Z" fill="white"/>
<path d="M267.917 89.7767C267.087 88.8227 266.731 87.5217 266.851 85.8717L267.308 79.5737L269.91 79.7617L269.461 85.9637C269.314 87.9777 270.077 89.0447 271.748 89.1657C272.562 89.2247 273.201 89.0267 273.665 88.5697C274.129 88.1127 274.398 87.3657 274.474 86.3267L274.923 80.1247L277.494 80.3107L277.038 86.6097C276.918 88.2587 276.379 89.4967 275.42 90.3207C274.461 91.1447 273.179 91.4987 271.572 91.3827C269.965 91.2657 268.746 90.7307 267.917 89.7767Z" fill="white"/>
<path d="M289.096 93.4989L290.224 86.8279L286.01 91.7609L284.852 91.5619L282.514 85.6529L281.395 92.1789L278.982 91.7649L280.888 80.6499L283.015 81.0149L285.991 88.6359L291.272 82.4309L293.384 82.7929L291.509 93.9129L289.096 93.4989Z" fill="white"/>
<path d="M394.214 177.771L383.723 181.907L382.766 179.479L387.068 177.783L385.189 173.017L380.887 174.713L379.93 172.285L390.421 168.149L391.378 170.577L387.241 172.208L389.12 176.974L393.257 175.343L394.214 177.771Z" fill="white"/>
<path d="M395.182 180.688L396.022 183.159L385.344 186.788L384.504 184.317L395.182 180.688Z" fill="white"/>
<path d="M393.897 194.904L394.561 197.194L390.167 198.468C389.553 198.009 389.015 197.427 388.554 196.722C388.092 196.017 387.747 195.273 387.52 194.489C387.195 193.364 387.141 192.284 387.361 191.248C387.58 190.211 388.042 189.314 388.744 188.557C389.447 187.8 390.335 187.265 391.408 186.954C392.48 186.643 393.516 186.619 394.515 186.883C395.514 187.147 396.385 187.663 397.128 188.432C397.87 189.2 398.406 190.152 398.735 191.287C399.01 192.236 399.1 193.144 399.005 194.01C398.909 194.877 398.634 195.661 398.178 196.364L396.226 195.186C396.817 194.176 396.954 193.124 396.636 192.031C396.436 191.34 396.114 190.768 395.669 190.316C395.225 189.863 394.696 189.563 394.083 189.417C393.471 189.271 392.823 189.296 392.143 189.493C391.473 189.688 390.917 190.011 390.479 190.462C390.04 190.914 389.75 191.448 389.61 192.064C389.47 192.68 389.499 193.329 389.696 194.01C389.906 194.732 390.249 195.337 390.725 195.825L393.897 194.904Z" fill="white"/>
<path d="M402.757 208.667L391.739 211.074L391.182 208.524L395.699 207.537L394.605 202.532L390.088 203.519L389.531 200.969L400.548 198.562L401.105 201.112L396.761 202.061L397.855 207.066L402.199 206.117L402.757 208.667Z" fill="white"/>
<path d="M114.59 205.613L115.214 203.079L124.099 205.265L125.451 199.774L127.515 200.282L125.54 208.307L114.59 205.613Z" fill="white"/>
<path d="M127.943 196.853C127.181 197.599 126.297 198.094 125.293 198.336C124.289 198.579 123.259 198.536 122.203 198.206C121.147 197.876 120.276 197.325 119.589 196.553C118.902 195.782 118.458 194.872 118.257 193.824C118.056 192.777 118.129 191.694 118.479 190.577C118.828 189.46 119.383 188.531 120.144 187.789C120.905 187.048 121.788 186.553 122.793 186.305C123.799 186.057 124.83 186.098 125.886 186.428C126.942 186.758 127.812 187.312 128.498 188.089C129.184 188.866 129.628 189.775 129.83 190.818C130.033 191.86 129.959 192.94 129.61 194.058C129.261 195.175 128.706 196.107 127.943 196.853ZM127.589 191.535C127.457 190.931 127.175 190.402 126.744 189.946C126.313 189.49 125.764 189.158 125.098 188.95C124.432 188.742 123.792 188.702 123.178 188.83C122.564 188.959 122.03 189.234 121.578 189.655C121.125 190.076 120.8 190.604 120.601 191.24C120.402 191.876 120.369 192.495 120.501 193.099C120.633 193.703 120.915 194.233 121.346 194.688C121.778 195.144 122.326 195.476 122.993 195.684C123.659 195.892 124.299 195.933 124.913 195.804C125.527 195.676 126.06 195.401 126.513 194.979C126.966 194.558 127.291 194.03 127.49 193.394C127.688 192.759 127.721 192.139 127.589 191.535Z" fill="white"/>
<path d="M127.593 166.771L136.663 174.42L135.612 177.019L127.603 176.455L133.721 181.694L132.675 184.278L120.832 183.483L121.847 180.974L130.149 181.587L123.798 176.15L124.704 173.91L133.078 174.518L126.656 169.087L127.593 166.771Z" fill="white"/>
<path d="M232.994 93.1311L231.558 86.5191L229.483 92.6651L228.333 92.9121L223.964 88.2971L225.354 94.7711L222.959 95.2851L220.592 84.2601L222.702 83.8071L228.3 89.7721L230.893 82.0481L232.988 81.5981L235.387 92.6171L232.994 93.1311Z" fill="white"/>
<path d="M246.195 89.2209L246.443 91.3009L237.773 92.3359L236.438 81.1379L244.899 80.1289L245.147 82.2089L239.26 82.9109L239.55 85.3419L244.749 84.7219L244.99 86.7379L239.791 87.3579L240.1 89.9499L246.195 89.2209Z" fill="white"/>
<path d="M247.846 79.8667L252.965 79.6587C254.188 79.6087 255.279 79.7987 256.236 80.2277C257.194 80.6567 257.95 81.2847 258.505 82.1107C259.061 82.9377 259.36 83.9137 259.406 85.0407C259.452 86.1677 259.231 87.1657 258.745 88.0347C258.259 88.9037 257.556 89.5907 256.637 90.0957C255.716 90.6007 254.645 90.8777 253.421 90.9277L248.303 91.1357L247.846 79.8667ZM253.207 88.7907C254.333 88.7457 255.22 88.3947 255.864 87.7397C256.51 87.0847 256.81 86.2207 256.767 85.1477C256.723 84.0747 256.353 83.2377 255.658 82.6377C254.962 82.0367 254.05 81.7597 252.924 81.8057L250.542 81.9027L250.825 88.8887L253.207 88.7907Z" fill="white"/>
<path d="M261.671 79.5029L264.28 79.5589L264.036 90.8329L261.428 90.7759L261.671 79.5029Z" fill="white"/>
<path d="M267.917 89.7767C267.087 88.8227 266.731 87.5217 266.851 85.8717L267.308 79.5737L269.91 79.7617L269.461 85.9637C269.314 87.9777 270.077 89.0447 271.748 89.1657C272.562 89.2247 273.201 89.0267 273.665 88.5697C274.129 88.1127 274.398 87.3657 274.474 86.3267L274.923 80.1247L277.494 80.3107L277.038 86.6097C276.918 88.2587 276.379 89.4967 275.42 90.3207C274.461 91.1447 273.179 91.4987 271.572 91.3827C269.965 91.2657 268.746 90.7307 267.917 89.7767Z" fill="white"/>
<path d="M289.096 93.4989L290.224 86.8279L286.01 91.7609L284.852 91.5619L282.514 85.6529L281.395 92.1789L278.982 91.7649L280.888 80.6499L283.015 81.0149L285.991 88.6359L291.272 82.4309L293.384 82.7929L291.509 93.9129L289.096 93.4989Z" fill="white"/>
<path d="M394.214 177.771L383.723 181.907L382.766 179.479L387.068 177.783L385.189 173.017L380.887 174.713L379.93 172.285L390.421 168.149L391.378 170.577L387.241 172.208L389.12 176.974L393.257 175.343L394.214 177.771Z" fill="white"/>
<path d="M395.182 180.688L396.022 183.159L385.344 186.788L384.504 184.317L395.182 180.688Z" fill="white"/>
<path d="M393.897 194.904L394.561 197.194L390.167 198.468C389.553 198.009 389.015 197.427 388.554 196.722C388.092 196.017 387.747 195.273 387.52 194.489C387.195 193.364 387.141 192.284 387.361 191.248C387.58 190.211 388.042 189.314 388.744 188.557C389.447 187.8 390.335 187.265 391.408 186.954C392.48 186.643 393.516 186.619 394.515 186.883C395.514 187.147 396.385 187.663 397.128 188.432C397.87 189.2 398.406 190.152 398.735 191.287C399.01 192.236 399.1 193.144 399.005 194.01C398.909 194.877 398.634 195.661 398.178 196.364L396.226 195.186C396.817 194.176 396.954 193.124 396.636 192.031C396.436 191.34 396.114 190.768 395.669 190.316C395.225 189.863 394.696 189.563 394.083 189.417C393.471 189.271 392.823 189.296 392.143 189.493C391.473 189.688 390.917 190.011 390.479 190.462C390.04 190.914 389.75 191.448 389.61 192.064C389.47 192.68 389.499 193.329 389.696 194.01C389.906 194.732 390.249 195.337 390.725 195.825L393.897 194.904Z" fill="white"/>
<path d="M402.757 208.667L391.739 211.074L391.182 208.524L395.699 207.537L394.605 202.532L390.088 203.519L389.531 200.969L400.548 198.562L401.105 201.112L396.761 202.061L397.855 207.066L402.199 206.117L402.757 208.667Z" fill="white"/>
<path d="M290.709 207.363C292.684 199.055 287.551 190.72 279.243 188.745C270.936 186.77 262.6 191.903 260.625 200.21C258.65 208.518 263.783 216.854 272.091 218.829C280.398 220.804 288.734 215.67 290.709 207.363Z" fill="#263238"/>
<path d="M154.209 163.032C153.447 165.081 154.527 167.354 156.598 168.056L275.659 212.531L282.225 196.914L159.005 160.685C157.036 160.067 154.929 161.098 154.209 163.032Z" fill="#263238"/>
<path d="M290.709 207.363C292.684 199.055 287.551 190.72 279.243 188.745C270.936 186.77 262.6 191.903 260.625 200.21C258.65 208.518 263.783 216.854 272.091 218.829C280.398 220.804 288.734 215.67 290.709 207.363Z" fill="#263238"/>
<path d="M154.209 163.032C153.447 165.081 154.527 167.354 156.598 168.056L275.659 212.531L282.225 196.914L159.005 160.685C157.036 160.067 154.929 161.098 154.209 163.032Z" fill="#263238"/>
<path d="M248.777 200.827C248.752 200.233 248.753 199.639 248.792 199.045C248.812 198.731 248.845 198.419 248.88 198.106C248.819 198.649 248.919 197.917 248.953 197.735C249.064 197.151 249.206 196.573 249.379 196.005C249.47 195.704 249.57 195.405 249.678 195.109C249.726 194.978 249.778 194.847 249.827 194.717C249.995 194.271 249.729 194.905 249.859 194.637C250.381 193.56 250.933 192.524 251.641 191.555C251.671 191.514 251.945 191.163 251.762 191.39C251.578 191.618 251.863 191.273 251.895 191.234C252.096 190.992 252.304 190.756 252.519 190.527C252.95 190.068 253.41 189.638 253.889 189.23C254.89 188.38 254.829 186.557 253.889 185.694C252.824 184.716 251.421 184.788 250.353 185.694C246.021 189.373 243.536 195.156 243.776 200.826C243.831 202.131 244.886 203.388 246.276 203.326C247.584 203.269 248.837 202.227 248.777 200.827Z" fill="#B56F57"/>
<path d="M248.793 198.4C248.726 198.537 247.695 198.123 246.363 197.963C245.033 197.787 243.932 197.929 243.901 197.78C243.861 197.65 244.994 197.259 246.428 197.446C247.865 197.623 248.864 198.285 248.793 198.4Z" fill="#263238"/>
<path d="M250.028 194.354C249.922 194.463 249.068 193.753 247.851 193.19C246.64 192.613 245.548 192.41 245.565 192.259C245.567 192.123 246.765 192.099 248.073 192.719C249.384 193.328 250.132 194.266 250.028 194.354Z" fill="#263238"/>
<path d="M251.842 191.444C251.707 191.514 251.124 190.568 250.151 189.646C249.188 188.713 248.218 188.171 248.282 188.033C248.327 187.905 249.47 188.265 250.511 189.27C251.559 190.266 251.968 191.393 251.842 191.444Z" fill="#263238"/>
<path d="M232.597 195.058C232.572 194.464 232.573 193.87 232.612 193.276C232.632 192.962 232.665 192.65 232.7 192.337C232.639 192.88 232.739 192.148 232.773 191.966C232.884 191.382 233.026 190.804 233.199 190.236C233.29 189.935 233.39 189.636 233.498 189.34C233.546 189.209 233.598 189.079 233.647 188.948C233.815 188.502 233.549 189.136 233.679 188.868C234.201 187.791 234.753 186.755 235.46 185.786C235.49 185.745 235.764 185.394 235.581 185.621C235.398 185.849 235.682 185.504 235.714 185.465C235.915 185.223 236.123 184.988 236.338 184.758C236.769 184.298 237.228 183.869 237.708 183.461C238.709 182.611 238.648 180.788 237.708 179.925C236.643 178.947 235.24 179.019 234.173 179.925C229.84 183.604 227.356 189.387 227.596 195.057C227.651 196.362 228.706 197.619 230.096 197.557C231.404 197.499 232.656 196.458 232.597 195.058Z" fill="#B56F57"/>
<path d="M232.614 192.631C232.547 192.768 231.516 192.354 230.184 192.194C228.854 192.018 227.753 192.16 227.722 192.011C227.682 191.881 228.815 191.49 230.25 191.677C231.685 191.854 232.685 192.516 232.614 192.631Z" fill="#263238"/>
<path d="M233.848 188.585C233.742 188.694 232.888 187.984 231.671 187.421C230.46 186.844 229.368 186.641 229.385 186.49C229.387 186.355 230.585 186.33 231.893 186.95C233.204 187.559 233.952 188.497 233.848 188.585Z" fill="#263238"/>
<path d="M235.663 185.674C235.528 185.744 234.945 184.798 233.972 183.876C233.009 182.942 232.039 182.401 232.103 182.263C232.148 182.135 233.291 182.495 234.332 183.5C235.38 184.497 235.789 185.624 235.663 185.674Z" fill="#263238"/>
<path d="M255.177 203.109C255.152 202.515 255.153 201.921 255.192 201.327C255.212 201.013 255.245 200.701 255.28 200.388C255.219 200.931 255.319 200.199 255.353 200.017C255.463 199.433 255.606 198.855 255.779 198.287C255.87 197.986 255.97 197.687 256.078 197.391C256.126 197.259 256.178 197.13 256.227 196.998C256.395 196.552 256.129 197.186 256.259 196.918C256.781 195.841 257.333 194.805 258.04 193.836C258.07 193.795 258.344 193.444 258.161 193.671C257.978 193.899 258.262 193.554 258.294 193.515C258.495 193.273 258.703 193.037 258.918 192.808C259.349 192.349 259.808 191.919 260.289 191.511C261.29 190.661 261.229 188.838 260.289 187.975C259.224 186.997 257.821 187.069 256.753 187.975C252.421 191.654 249.936 197.437 250.176 203.107C250.231 204.412 251.286 205.669 252.676 205.607C253.984 205.55 255.237 204.508 255.177 203.109Z" fill="#B56F57"/>
<path d="M255.195 200.682C255.128 200.819 254.097 200.406 252.766 200.245C251.436 200.069 250.335 200.212 250.304 200.062C250.264 199.933 251.397 199.541 252.831 199.728C254.267 199.904 255.266 200.566 255.195 200.682Z" fill="#263238"/>
<path d="M256.428 196.635C256.322 196.745 255.468 196.034 254.251 195.471C253.04 194.894 251.948 194.691 251.965 194.54C251.967 194.405 253.165 194.38 254.473 195C255.783 195.61 256.531 196.547 256.428 196.635Z" fill="#263238"/>
<path d="M258.243 193.725C258.108 193.795 257.525 192.849 256.552 191.927C255.589 190.993 254.619 190.452 254.683 190.314C254.728 190.186 255.871 190.546 256.912 191.551C257.96 192.548 258.369 193.675 258.243 193.725Z" fill="#263238"/>
<path d="M109.211 457.081L119.496 471.314C119.496 471.314 97.5977 482.001 97.7587 486.224L141.704 481.858L141.279 477.343C141.149 475.969 140.754 474.633 140.114 473.41L126.768 447.886L109.211 457.081Z" fill="#263238"/>
<path d="M141.703 481.858L141.228 478.309L99.2724 483.822C99.2724 483.822 97.4004 484.868 97.7584 486.224L141.703 481.858Z" fill="#455A64"/>
<path d="M119.262 471.328C119.29 471.542 120.373 471.533 121.497 472.118C122.637 472.674 123.273 473.549 123.462 473.445C123.656 473.384 123.208 472.133 121.834 471.448C120.468 470.75 119.196 471.135 119.262 471.328Z" fill="white"/>
<path d="M114.631 473.83C114.603 474.043 115.568 474.315 116.387 475.151C117.23 475.962 117.512 476.925 117.725 476.894C117.93 476.908 117.953 475.636 116.915 474.618C115.887 473.589 114.615 473.625 114.631 473.83Z" fill="white"/>
<path d="M112.585 479.802C112.784 479.828 112.976 478.726 112.309 477.606C111.649 476.48 110.591 476.117 110.518 476.305C110.414 476.494 111.128 477.059 111.663 477.988C112.219 478.903 112.37 479.802 112.585 479.802Z" fill="white"/>
<path d="M117.499 468.286C117.668 468.422 118.421 467.714 119.549 467.246C120.668 466.754 121.699 466.697 121.717 466.482C121.759 466.287 120.574 465.985 119.253 466.556C117.929 467.117 117.329 468.182 117.499 468.286Z" fill="white"/>
<path d="M243.265 433.651L261.091 455.25L280.116 468.268C281.487 469.206 281.777 471.11 280.748 472.414C280.171 473.144 279.287 473.55 278.357 473.502C272.443 473.196 250.695 471.964 249.479 470.31C248.071 468.395 229.164 448.776 229.164 448.776L243.265 433.651Z" fill="#263238"/>
<path d="M280.748 472.414L248.244 468.881L249.02 469.779C249.691 470.555 250.612 471.072 251.626 471.228C254.338 471.646 261.851 472.636 278.294 473.559C279.25 473.612 280.174 473.182 280.748 472.414Z" fill="#455A64"/>
<path d="M267.903 467.344C268.074 467.299 267.592 465.776 268.336 464.09C269.029 462.382 270.458 461.669 270.372 461.515C270.346 461.447 269.935 461.514 269.379 461.873C268.825 462.225 268.168 462.915 267.77 463.85C267.375 464.787 267.337 465.738 267.469 466.381C267.598 467.03 267.836 467.372 267.903 467.344Z" fill="white"/>
<path d="M271.865 468.876C272.045 468.881 272.129 467.604 272.954 466.343C273.75 465.063 274.872 464.449 274.792 464.288C274.76 464.127 273.351 464.559 272.435 466.012C271.503 467.455 271.705 468.914 271.865 468.876Z" fill="white"/>
<path d="M261.951 466.136C262.137 466.15 262.257 464.186 263.368 462.113C264.446 460.022 265.995 458.809 265.877 458.664C265.814 458.521 263.985 459.588 262.824 461.827C261.639 464.054 261.797 466.165 261.951 466.136Z" fill="white"/>
<path d="M255.984 460.023C256.15 460.101 256.898 458.6 258.373 457.229C259.83 455.837 261.372 455.18 261.304 455.009C261.272 454.855 259.52 455.289 257.951 456.781C256.37 458.259 255.832 459.983 255.984 460.023Z" fill="white"/>
<path d="M250.591 453.815C250.763 453.881 251.329 452.157 253.001 450.84C254.644 449.486 256.448 449.299 256.42 449.117C256.416 449.042 255.955 448.977 255.223 449.117C254.494 449.253 253.509 449.644 252.615 450.361C251.724 451.082 251.133 451.962 250.845 452.645C250.553 453.331 250.519 453.796 250.591 453.815Z" fill="white"/>
<path d="M251.938 449.689C251.965 449.666 251.767 449.34 251.274 448.863C250.784 448.39 249.982 447.764 248.823 447.315C248.254 447.119 247.578 446.819 246.745 447.051C246.329 447.164 245.938 447.598 245.93 448.095C245.917 448.583 246.139 448.999 246.422 449.341C247.606 450.666 249.885 450.969 251.565 449.855C253.228 448.709 253.854 446.652 253.452 444.971C253.324 444.556 253.096 444.109 252.622 443.893C252.148 443.672 251.593 443.9 251.335 444.214C250.787 444.852 250.703 445.558 250.566 446.146C250.343 447.364 250.425 448.372 250.543 449.042C250.663 449.716 250.816 450.065 250.85 450.055C250.972 450.046 250.486 448.552 250.991 446.234C251.139 445.674 251.286 445 251.702 444.566C251.904 444.353 252.17 444.277 252.402 444.387C252.631 444.488 252.816 444.792 252.906 445.127C253.219 446.517 252.642 448.395 251.222 449.342C249.816 450.295 247.813 450.026 246.85 448.968C246.622 448.71 246.464 448.388 246.47 448.113C246.476 447.842 246.648 447.62 246.912 447.531C247.468 447.34 248.129 447.547 248.675 447.721C250.913 448.507 251.863 449.792 251.938 449.689Z" fill="white"/>
<path d="M97.0564 348.568C97.0564 348.568 58.1334 390.355 61.7354 400.5C67.5724 416.941 111.523 467.086 111.523 467.086L134.303 456.045L105.914 409.274L98.0924 397.831L129.354 368.425L132.004 368.146C132.004 368.146 192.003 406.812 192.585 406.491C193.167 406.17 238.868 461.411 238.868 461.411L260.333 448.035C260.333 448.035 214.115 387.46 213.163 386.012C212.211 384.564 159.398 344.489 159.398 344.489L143.546 323.031L98.8684 330.927L97.0564 348.568Z" fill="#455A64"/>
<path d="M128.553 367.112C128.466 367.16 127.74 365.769 126.227 363.765C125.478 362.758 124.495 361.63 123.327 360.456C122.139 359.303 120.753 358.116 119.188 357.018C117.61 355.937 116.012 355.058 114.514 354.35C113.004 353.669 111.603 353.144 110.396 352.798C107.988 352.087 106.431 351.896 106.445 351.797C106.449 351.761 106.84 351.789 107.545 351.87C107.899 351.905 108.329 351.962 108.822 352.069C109.316 352.171 109.885 352.262 110.495 352.443C111.729 352.749 113.166 353.244 114.711 353.913C116.244 354.607 117.879 355.49 119.484 356.59C121.077 357.706 122.478 358.926 123.666 360.117C124.835 361.329 125.803 362.499 126.524 363.547C126.908 364.054 127.193 364.555 127.462 364.982C127.735 365.406 127.941 365.789 128.098 366.108C128.422 366.739 128.585 367.095 128.553 367.112Z" fill="#263238"/>
<path d="M153.268 345.963C153.303 346.066 151.68 346.529 149.333 347.843C148.144 348.471 146.836 349.402 145.427 350.479C144.05 351.602 142.617 352.933 141.229 354.444C138.471 357.491 136.453 360.645 135.179 363.017C133.898 365.389 133.297 366.955 133.209 366.92C133.175 366.907 133.302 366.508 133.56 365.793C133.682 365.433 133.855 365.001 134.078 364.509C134.293 364.014 134.536 363.448 134.852 362.846C136.053 360.41 138.047 357.182 140.843 354.093C142.25 352.561 143.715 351.22 145.129 350.101C146.577 349.028 147.928 348.115 149.157 347.518C149.753 347.185 150.322 346.946 150.823 346.741C151.318 346.521 151.754 346.359 152.123 346.258C152.853 346.035 153.258 345.928 153.268 345.963Z" fill="#263238"/>
<path d="M106.738 250.545C106.738 250.545 111.294 251.195 118.387 255.593C125.48 259.99 145.798 272.627 145.798 272.627L169.067 251.162L179.822 260.94C179.822 260.94 156.513 288.765 154.958 290.158C149.228 295.29 143.866 292.442 143.866 292.442L120.403 281.071L106.738 250.545Z" fill="#455A64"/>
<path d="M136.366 309.275L107.249 250.506L86.7114 253.007L80.3914 250.904L58.4345 256.847L57.6834 268.202C57.6834 268.202 42.2525 283.688 42.6705 284.656L91.7845 335.436C91.7845 335.436 92.0905 354.51 92.3455 354.019C97.2915 344.458 108.213 349.618 123.382 354.95L124.819 332.198L135.426 352.098L162.131 338.139L136.366 309.275Z" fill="#455A64"/>
<path d="M59.8293 261.634L96.8773 289.653L83.0033 252.794L79.3853 249.242L58.1973 257.23L59.8293 261.634Z" fill="#E0E0E0"/>
<path d="M41.0392 208.477C40.9802 206.716 42.1732 204.985 43.8402 204.414C44.8242 202.013 47.6232 200.509 50.1692 201.014C51.0622 199.469 52.7982 198.449 54.5812 198.422C56.3652 198.394 58.1322 199.361 59.0722 200.877C60.4882 199.755 62.6302 199.659 64.1412 200.65C65.6522 201.641 66.4172 203.644 65.9532 205.39C67.9552 204.988 70.1542 206.298 70.7552 208.249C71.3562 210.201 70.2742 212.521 68.3932 213.315L44.1052 212.345C42.4042 211.885 41.0982 210.238 41.0392 208.477Z" fill="#263238"/>
<path d="M69.2057 213.527C64.0597 205.883 53.9077 203.474 45.8747 207.988L45.0767 208.437C36.7527 213.777 36.6377 223.829 42.2057 232.003L59.1257 259.737L79.8877 263.075L79.3837 249.243L78.3797 246.842C78.3797 246.842 85.9307 240.905 81.3837 232.576C79.1887 228.552 73.9927 220.636 69.2057 213.527Z" fill="#FFBF9D"/>
<path d="M78.4423 246.792C78.4423 246.792 73.3383 250.079 65.8203 249.711C65.8203 249.711 71.5483 254.627 79.3843 249.242L78.4423 246.792Z" fill="#FF9A6C"/>
<path d="M70.9209 222.21C71.2939 222.821 71.0829 223.641 70.4519 224.042C69.8219 224.442 69.0079 224.273 68.6359 223.661C68.2629 223.049 68.4729 222.229 69.1029 221.829C69.7349 221.428 70.5489 221.599 70.9209 222.21Z" fill="#263238"/>
<path d="M70.031 218.942C69.971 219.178 68.704 219.019 67.435 219.737C66.157 220.436 65.591 221.614 65.366 221.536C65.259 221.505 65.252 221.143 65.492 220.619C65.726 220.1 66.247 219.43 67.041 218.988C67.835 218.547 68.665 218.465 69.216 218.548C69.776 218.628 70.065 218.832 70.031 218.942Z" fill="#263238"/>
<path d="M60.1702 228.62C60.5432 229.231 60.3322 230.051 59.7012 230.452C59.0712 230.852 58.2582 230.683 57.8852 230.071C57.5132 229.46 57.7232 228.639 58.3532 228.239C58.9842 227.837 59.7982 228.008 60.1702 228.62Z" fill="#263238"/>
<path d="M57.772 225.6C57.712 225.837 56.444 225.678 55.175 226.396C53.897 227.095 53.332 228.273 53.106 228.195C53 228.164 52.991 227.803 53.233 227.278C53.467 226.759 53.988 226.089 54.782 225.647C55.576 225.206 56.406 225.124 56.957 225.207C57.515 225.287 57.805 225.491 57.772 225.6Z" fill="#263238"/>
<path d="M67.2523 232.668C67.2053 232.599 67.9193 232.018 69.1073 231.135C69.4133 230.919 69.6843 230.682 69.6143 230.43C69.5593 230.153 69.2263 229.879 68.8573 229.59C68.1113 228.976 67.3283 228.332 66.5083 227.658C63.1973 224.888 60.6063 222.537 60.7183 222.404C60.8313 222.272 63.6063 224.409 66.9173 227.18C67.7263 227.867 68.4983 228.522 69.2343 229.15C69.5643 229.45 70.0113 229.75 70.1183 230.329C70.1673 230.621 70.0283 230.931 69.8513 231.104C69.6793 231.285 69.4983 231.391 69.3433 231.491C68.0933 232.283 67.2973 232.737 67.2523 232.668Z" fill="#263238"/>
<path d="M64.0057 235.65C64.2057 235.522 64.9837 236.9 66.7147 237.216C68.4457 237.536 69.8297 236.554 69.9487 236.741C70.0167 236.817 69.7717 237.193 69.1597 237.559C68.5627 237.922 67.5637 238.226 66.5037 238.033C65.4457 237.837 64.6857 237.21 64.3197 236.67C63.9447 236.123 63.9067 235.695 64.0057 235.65Z" fill="#263238"/>
<path d="M57.0126 222.712C56.8896 223.11 55.6006 222.937 54.0906 223.16C52.5766 223.349 51.3626 223.864 51.1576 223.511C51.0666 223.342 51.2746 222.966 51.7636 222.577C52.2476 222.188 53.0236 221.815 53.9306 221.691C54.8376 221.568 55.6706 221.722 56.2246 221.969C56.7826 222.215 57.0656 222.523 57.0126 222.712Z" fill="#263238"/>
<path d="M67.7833 215.617C67.7563 216.035 66.7313 216.312 65.7213 216.975C64.6883 217.603 63.9973 218.408 63.6083 218.253C63.4283 218.171 63.3763 217.806 63.5713 217.296C63.7613 216.791 64.2293 216.167 64.9313 215.723C65.6333 215.28 66.3983 215.126 66.9363 215.172C67.4793 215.216 67.7863 215.42 67.7833 215.617Z" fill="#263238"/>
<path d="M66.2792 210.18C66.2792 210.18 61.1862 206.226 58.0082 206.421C54.1612 206.657 54.7252 210.708 51.3902 211.522C48.0552 212.336 44.3792 212.555 42.6862 216.438C40.8332 220.688 43.3052 221.55 45.1682 225.333C52.7242 240.668 52.3722 246.403 47.6592 239.828C47.1432 239.108 44.6682 239.695 42.5292 236.628C39.7552 232.651 36.7222 227.633 35.9832 224.12C35.3602 221.159 35.8182 218.613 37.3132 215.251C39.6742 209.942 45.2162 206.742 49.2202 204.994C53.2232 203.245 62.9782 203.5 66.2792 210.18Z" fill="#263238"/>
<path d="M48.0597 239.307C47.2897 238.06 45.6237 237.67 44.4187 238.506C42.9587 239.52 41.7337 241.361 43.6277 244.492C46.9867 250.046 51.8697 245.528 51.7837 245.363C51.7247 245.249 49.4867 241.618 48.0597 239.307Z" fill="#FFBF9D"/>
<path d="M49.3124 244.003C49.2774 244 49.2564 244.129 49.1384 244.303C49.0234 244.472 48.7794 244.688 48.4244 244.755C47.7074 244.895 46.6494 244.262 46.0174 243.277C45.6974 242.78 45.5124 242.235 45.4504 241.728C45.3744 241.219 45.4654 240.777 45.7284 240.545C45.9814 240.299 46.2974 240.349 46.4594 240.465C46.6274 240.575 46.6594 240.707 46.6954 240.699C46.7194 240.704 46.7584 240.534 46.5744 240.331C46.4844 240.235 46.3404 240.143 46.1454 240.116C45.9464 240.088 45.7174 240.151 45.5254 240.298C45.1154 240.586 44.9674 241.214 45.0354 241.77C45.0804 242.343 45.2774 242.963 45.6364 243.521C46.3494 244.619 47.5554 245.32 48.4984 245.066C48.9504 244.932 49.2054 244.617 49.2944 244.384C49.3834 244.143 49.3374 244.001 49.3124 244.003Z" fill="#FF9A6C"/>
<path d="M42.0138 228.287C43.0298 228.376 44.0968 228.457 45.0308 228.047C45.9648 227.637 46.6918 226.56 46.3478 225.599C46.1938 225.168 45.8408 224.765 45.9288 224.315C46.0338 223.779 46.6678 223.572 47.1698 223.356C48.9118 222.606 49.9418 220.497 49.4618 218.662C50.2338 219.054 51.1978 218.477 51.6018 217.711C52.0068 216.945 52.0388 216.046 52.2158 215.198C52.3928 214.35 52.8038 213.45 53.6118 213.136C54.0638 212.96 54.5948 212.989 54.9938 212.715C55.6998 212.232 55.5728 211.158 55.2718 210.358C54.9698 209.558 54.5738 208.649 54.9778 207.894C55.3518 207.195 56.2278 206.985 56.9688 206.701C57.7088 206.418 58.5018 205.761 58.3008 204.994C58.1958 204.592 57.8378 204.307 57.4708 204.11C55.8108 203.219 53.5448 203.682 52.3678 205.153C50.7638 203.595 48.1988 203.123 46.1458 204.008C44.0928 204.893 42.6738 207.082 42.7058 209.317C40.9008 208.904 38.9088 209.425 37.5368 210.669C36.1648 211.912 35.4508 213.844 35.6848 215.681C34.1058 216.092 32.8368 217.506 32.5968 219.12C32.3568 220.734 33.1608 222.455 34.5528 223.308C33.8628 224.46 33.5598 225.959 34.1968 227.142C34.8338 228.324 36.6298 228.85 37.5858 227.907C37.6418 229.075 38.7088 230.103 39.8778 230.116C41.0468 230.129 42.1358 229.124 42.2178 227.958" fill="#263238"/>
<path d="M37.1627 228.129C37.1347 228.125 37.3257 228.663 38.1257 229.018C38.5147 229.181 39.0707 229.266 39.6387 229.057C40.1957 228.856 40.7507 228.38 40.9877 227.682L40.7287 227.781C41.2827 228.111 41.9297 228.399 42.6507 228.557C43.1127 228.656 43.5857 228.695 44.0417 228.618C44.4957 228.557 44.9258 228.334 45.2398 228.084C45.9118 227.602 46.3208 226.866 46.3457 226.231C46.3877 225.6 46.2417 225.117 46.1417 224.797C46.0367 224.475 45.9497 224.309 45.9288 224.316C45.9008 224.324 45.9407 224.507 46.0007 224.833C46.0577 225.157 46.1537 225.636 46.0827 226.202C46.0027 227.314 44.4887 228.71 42.7287 228.192C42.0597 228.046 41.4397 227.778 40.9097 227.475L40.7167 227.364L40.6507 227.573C40.4667 228.154 40.0047 228.583 39.5307 228.774C39.0527 228.973 38.5677 228.93 38.2037 228.81C37.4597 228.55 37.2037 228.087 37.1627 228.129Z" fill="#455A64"/>
<path d="M40.5901 209.206C40.5981 209.227 40.7601 209.163 41.0721 209.128C41.3791 209.097 41.8631 209.106 42.3701 209.381L42.4981 209.451L42.5171 209.302C42.6471 208.296 43.0211 206.886 44.0071 205.551C44.5001 204.892 45.1491 204.264 45.9591 203.811C46.7621 203.354 47.7361 203.113 48.7381 203.149C49.5171 203.176 50.2701 203.373 50.9241 203.699C51.5741 204.035 52.1201 204.506 52.5041 205.054L52.6231 205.223L52.7681 205.08C53.4871 204.368 54.4451 204.048 55.2791 204.045C56.1231 204.037 56.8361 204.347 57.3391 204.7C58.3541 205.439 58.5801 206.218 58.6331 206.177C58.6471 206.172 58.6041 205.987 58.4421 205.676C58.2771 205.37 57.9821 204.933 57.4631 204.531C56.9521 204.135 56.1961 203.771 55.2801 203.756C54.3781 203.736 53.3311 204.059 52.5251 204.834L52.7881 204.859C52.3781 204.256 51.7881 203.738 51.0901 203.372C50.3871 203.016 49.5821 202.804 48.7511 202.774C47.6831 202.734 46.6351 202.999 45.7801 203.495C44.9211 203.985 44.2451 204.658 43.7421 205.356C42.7361 206.772 42.3961 208.241 42.3141 209.279L42.4611 209.2C41.8871 208.924 41.3701 208.955 41.0531 209.02C40.7321 209.094 40.5831 209.194 40.5901 209.206Z" fill="#455A64"/>
<path d="M97.8676 292.365C97.8616 292.382 97.6736 292.335 97.3206 292.23C96.9146 292.102 96.4076 291.942 95.7866 291.747C94.3926 291.283 92.4926 290.65 90.1756 289.879C85.3916 288.232 78.9016 285.998 71.7296 283.53C69.9276 282.9 68.1686 282.285 66.4746 281.693L66.2586 281.617L66.3106 281.395C66.8706 278.991 67.4016 276.711 67.8936 274.598L68.1296 274.881C65.2096 274.992 62.6056 275.091 60.4086 275.174L60.2816 275.179L60.2376 275.064C59.4406 272.981 58.7926 271.288 58.3176 270.045C58.1186 269.497 57.9556 269.048 57.8246 268.686C57.7176 268.375 57.6686 268.209 57.6846 268.203C57.7006 268.197 57.7796 268.35 57.9166 268.65C58.0706 269.003 58.2626 269.44 58.4956 269.974C59.0086 271.203 59.7056 272.875 60.5646 274.934L60.3936 274.824C62.5896 274.709 65.1916 274.572 68.1096 274.419L68.4136 274.403L68.3456 274.702C67.8676 276.818 67.3516 279.102 66.8086 281.51L66.6436 281.212C68.3386 281.801 70.0986 282.413 71.9016 283.039C79.0536 285.564 85.5266 287.848 90.2976 289.532C92.5916 290.368 94.4726 291.053 95.8536 291.556C96.4616 291.789 96.9576 291.979 97.3556 292.131C97.6966 292.268 97.8736 292.348 97.8676 292.365Z" fill="#263238"/>
<path d="M124.819 332.198C124.802 332.205 124.716 332.047 124.568 331.741C124.399 331.378 124.192 330.932 123.94 330.389C123.397 329.216 122.669 327.487 121.693 325.399C120.702 323.317 119.429 320.879 117.827 318.286C117.027 316.989 116.146 315.654 115.185 314.303C114.225 312.954 113.165 311.597 112.103 310.186C107.841 304.558 104.006 299.447 101.251 295.731C99.9173 293.913 98.8213 292.42 98.0103 291.315C97.6653 290.827 97.3813 290.425 97.1503 290.098C96.9583 289.816 96.8643 289.663 96.8783 289.652C96.8923 289.641 97.0143 289.773 97.2333 290.034C97.4853 290.345 97.7953 290.727 98.1713 291.192C99.0153 292.272 100.156 293.732 101.544 295.508C104.374 299.167 108.256 304.243 112.518 309.871C113.578 311.28 114.636 312.64 115.601 314.007C116.563 315.372 117.441 316.723 118.236 318.035C119.826 320.66 121.073 323.13 122.027 325.243C122.967 327.365 123.64 329.109 124.127 330.308C124.343 330.866 124.52 331.325 124.665 331.698C124.781 332.019 124.835 332.191 124.819 332.198Z" fill="#263238"/>
<path d="M158.251 340.1C158.256 340.11 158.121 340.191 157.853 340.341C157.558 340.502 157.163 340.717 156.662 340.991C155.58 341.566 154.041 342.384 152.084 343.424C150.091 344.475 147.676 345.75 144.894 347.218C143.499 347.957 142.012 348.744 140.441 349.576C139.656 349.996 138.851 350.426 138.025 350.868C137.614 351.091 137.198 351.318 136.776 351.546L136.145 351.896L135.831 352.076L135.678 352.168L135.607 352.213L135.582 352.23L135.578 352.233C135.585 352.225 135.559 352.252 135.593 352.215C135.71 352.164 135.551 351.838 135.486 351.899L135.239 352.197C132.147 346.422 128.523 339.656 124.594 332.317L125.069 332.179C125.428 336.98 125.809 342.079 126.202 347.328C126.395 349.939 126.586 352.513 126.772 355.024L126.807 355.498L126.38 355.264C125.61 354.842 124.845 354.422 124.085 354.005C123.319 353.602 122.59 353.134 121.792 352.825C120.226 352.147 118.705 351.418 117.112 350.967C115.56 350.387 113.963 350.086 112.411 349.74C111.631 349.59 110.843 349.54 110.072 349.436C109.301 349.314 108.531 349.306 107.769 349.302C101.679 349.139 96.1462 351.16 92.4702 354.154L92.1652 354.402L92.1562 354.022C92.0112 348.062 91.8942 343.229 91.8122 339.848C91.7842 338.201 91.7612 336.909 91.7462 335.994C91.7442 335.576 91.7432 335.245 91.7422 334.991C91.7442 334.765 91.7502 334.649 91.7592 334.649C91.7682 334.649 91.7812 334.764 91.7962 334.989C91.8102 335.243 91.8292 335.573 91.8532 335.99C91.8922 336.905 91.9482 338.196 92.0192 339.842C92.1412 343.222 92.3152 348.054 92.5302 354.011L92.2162 353.879C95.9802 350.762 101.571 348.699 107.776 348.832C108.551 348.833 109.334 348.84 110.117 348.96C110.901 349.062 111.702 349.111 112.494 349.261C114.07 349.606 115.692 349.908 117.265 350.491C118.882 350.945 120.421 351.678 122.007 352.362C122.815 352.674 123.552 353.144 124.327 353.55C125.095 353.97 125.868 354.394 126.647 354.82L126.256 355.06C126.069 352.549 125.877 349.975 125.682 347.364C125.295 342.115 124.918 337.014 124.564 332.214L124.475 331.013L125.039 332.076C128.94 339.43 132.537 346.21 135.607 351.997L135.637 352.054L135.36 352.295C135.298 352.349 135.141 352.016 135.26 351.957C135.297 351.913 135.279 351.937 135.291 351.924L135.323 351.898L135.373 351.863L135.458 351.809L135.62 351.713L135.941 351.532L136.578 351.183C137.002 350.956 137.421 350.733 137.834 350.511C138.664 350.075 139.473 349.65 140.261 349.235C141.84 348.416 143.334 347.641 144.735 346.914C147.535 345.48 149.966 344.235 151.972 343.208C153.951 342.211 155.508 341.427 156.602 340.876C157.115 340.625 157.519 340.428 157.821 340.28C158.102 340.153 158.246 340.09 158.251 340.1Z" fill="#263238"/>
<path d="M99.8197 291.653C99.8017 291.656 99.7597 291.489 99.6957 291.168C99.6267 290.787 99.5427 290.323 99.4417 289.762C99.2307 288.459 98.9477 286.707 98.6027 284.579C97.9167 280.199 97.0047 274.143 96.0287 267.45C95.7827 265.751 95.5437 264.093 95.3117 262.495L95.5417 262.712C93.2017 262.499 90.9857 262.297 88.9377 262.111L88.5967 262.08L88.7537 261.778C89.6937 259.972 90.5557 258.318 91.3197 256.85L91.3757 257.084C89.6207 255.762 88.1777 254.675 87.1057 253.867C86.6477 253.509 86.2697 253.213 85.9607 252.971C85.7027 252.761 85.5717 252.644 85.5827 252.63C85.5937 252.615 85.7447 252.704 86.0237 252.886C86.3487 253.107 86.7457 253.376 87.2267 253.702C88.3237 254.476 89.7997 255.518 91.5947 256.784L91.7227 256.874L91.6507 257.018C90.9097 258.498 90.0737 260.166 89.1627 261.986L88.9787 261.654C91.0287 261.825 93.2457 262.009 95.5867 262.204L95.7877 262.221L95.8167 262.422C96.0517 264.02 96.2947 265.677 96.5447 267.375C97.5207 274.068 98.3747 280.133 98.9677 284.526C99.2447 286.664 99.4737 288.424 99.6427 289.733C99.7057 290.3 99.7577 290.768 99.8007 291.153C99.8297 291.478 99.8367 291.651 99.8197 291.653Z" fill="#263238"/>
<path d="M109.227 257.654C109.354 257.587 115.164 268.366 122.202 281.727C129.242 295.093 134.844 305.978 134.717 306.045C134.59 306.112 128.781 295.335 121.741 281.969C114.703 268.609 109.1 257.721 109.227 257.654Z" fill="#263238"/>
<path d="M79.805 263.828C79.802 263.759 79.819 267.367 79.819 267.367L82.713 268.576L84.537 267.62L84.009 264.44L80.411 263.265L79.805 263.828Z" fill="#FF6D38"/>
<path d="M82.7148 268.577L85.9888 281.417L96.8778 289.653L91.2808 274.783L84.4939 267.355L82.7148 268.577Z" fill="#FF6D38"/>
<path d="M79.9064 263.494C79.9784 263.495 80.0134 264.733 80.0124 266.734C80.0104 267.249 80.0074 267.795 80.0054 268.371C80.0024 268.668 79.9994 268.972 79.9964 269.283L79.9934 269.52L79.9894 269.665C79.9584 269.918 79.6244 269.892 79.6454 269.87L79.5874 269.854L79.1154 269.724C77.8274 269.359 76.4384 268.965 74.9804 268.552C72.0504 267.704 69.4084 266.903 67.5054 266.287C65.6034 265.673 64.4374 265.24 64.4714 265.146C64.4944 265.122 64.7734 265.192 65.3234 265.328C65.9824 265.502 66.7414 265.703 67.6104 265.934C69.5384 266.459 72.1964 267.203 75.1254 268.052C76.5784 268.479 77.9644 268.886 79.2484 269.263L79.7164 269.403L79.7744 269.42L79.7814 269.422C79.8294 269.258 79.7204 269.647 79.7314 269.607V269.609V269.618C79.7324 269.626 79.7394 269.627 79.7314 269.624L79.5264 269.613V269.609V269.601V269.586L79.5274 269.556L79.5294 269.497L79.5384 269.261C79.5504 268.951 79.5614 268.648 79.5734 268.352C79.5984 267.779 79.6224 267.235 79.6444 266.721C79.7394 264.727 79.8344 263.493 79.9064 263.494Z" fill="#263238"/>
<path d="M86.0452 260.719C86.1682 260.719 86.2682 262.428 86.2892 264.726L86.2922 265.055L85.9692 264.97C85.5982 264.873 85.2202 264.773 84.8292 264.671C82.0632 263.928 79.8512 263.213 79.8892 263.074C79.9262 262.935 82.1982 263.425 84.9642 264.168C85.3542 264.275 85.7312 264.379 86.1002 264.48L85.7812 264.724C85.8152 262.427 85.9222 260.719 86.0452 260.719Z" fill="#263238"/>
<path d="M133.309 315.552C133.324 315.585 132.935 315.804 132.218 316.174C131.501 316.545 130.454 317.058 129.15 317.674C126.544 318.908 122.906 320.535 118.834 322.203C114.76 323.87 111.025 325.26 108.301 326.208C106.939 326.682 105.832 327.051 105.062 327.289C104.292 327.528 103.86 327.645 103.848 327.611C103.836 327.577 104.245 327.396 104.994 327.098C105.844 326.768 106.909 326.354 108.174 325.862C110.862 324.827 114.569 323.385 118.636 321.721C122.701 320.056 126.355 318.485 128.997 317.338C130.244 316.801 131.293 316.35 132.131 315.989C132.876 315.678 133.294 315.52 133.309 315.552Z" fill="#263238"/>
<path d="M170.801 253.212L182.431 244.102L187.244 249.246L178.103 259.375L170.801 253.212Z" fill="#FFBF9D"/>
<path d="M195.291 234.484C195.291 234.484 194.768 232.483 192.648 233.652C191.879 234.076 187.171 237.831 187.171 237.831C187.171 237.831 183.984 240.151 183.872 240.314C183.76 240.477 184.263 242.29 184.263 242.29L188.202 240.657L195.291 234.484Z" fill="#FF9A6C"/>
<path d="M99.2218 409.75C99.1698 409.451 93.8018 379.478 77.8938 347.764C73.4558 338.918 75.8808 328.017 83.6598 321.845L258.058 183.961L261.779 188.668L87.3848 326.548C81.8238 330.96 80.0858 338.753 83.2568 345.073C99.5788 377.613 104.913 407.463 105.132 408.718L99.2218 409.75Z" fill="#B56F57"/>
<path d="M86.6165 352.108C86.5875 352.255 85.1235 351.833 83.5465 352.605C81.9465 353.33 81.3395 354.727 81.2075 354.656C81.1505 354.636 81.2035 354.25 81.5225 353.715C81.8355 353.183 82.4595 352.543 83.3245 352.134C84.1905 351.728 85.0815 351.655 85.6905 351.752C86.3055 351.845 86.6385 352.051 86.6165 352.108Z" fill="#263238"/>
<path d="M83.0563 344.65C83.0273 344.797 81.5633 344.375 79.9863 345.147C78.3863 345.872 77.7794 347.269 77.6474 347.198C77.5894 347.179 77.6433 346.792 77.9623 346.257C78.2753 345.725 78.8993 345.085 79.7643 344.676C80.6303 344.27 81.5213 344.197 82.1303 344.294C82.7463 344.388 83.0783 344.594 83.0563 344.65Z" fill="#263238"/>
<path d="M105.541 312.325C105.391 312.33 105.469 310.809 104.358 309.448C103.288 308.055 101.789 307.782 101.829 307.637C101.835 307.577 102.224 307.54 102.817 307.73C103.406 307.914 104.172 308.376 104.767 309.125C105.359 309.876 105.633 310.727 105.677 311.342C105.726 311.963 105.601 312.333 105.541 312.325Z" fill="#263238"/>
<path d="M110.705 308.12C110.555 308.125 110.633 306.604 109.522 305.243C108.452 303.85 106.953 303.577 106.993 303.432C106.999 303.372 107.388 303.335 107.981 303.525C108.57 303.709 109.336 304.171 109.931 304.92C110.523 305.671 110.797 306.522 110.841 307.137C110.89 307.758 110.765 308.129 110.705 308.12Z" fill="#263238"/>
<path d="M122.098 299.295C121.948 299.3 122.026 297.779 120.915 296.418C119.845 295.025 118.346 294.752 118.386 294.607C118.392 294.547 118.781 294.51 119.374 294.7C119.963 294.884 120.729 295.346 121.324 296.095C121.916 296.846 122.19 297.697 122.234 298.312C122.283 298.932 122.158 299.303 122.098 299.295Z" fill="#263238"/>
<path d="M127.576 295.007C127.426 295.012 127.504 293.491 126.393 292.13C125.323 290.737 123.824 290.464 123.864 290.319C123.87 290.259 124.259 290.222 124.852 290.412C125.441 290.596 126.207 291.058 126.802 291.807C127.394 292.558 127.668 293.409 127.712 294.024C127.761 294.645 127.636 295.015 127.576 295.007Z" fill="#263238"/>
<path d="M133.505 290.345C133.355 290.35 133.433 288.829 132.323 287.468C131.253 286.075 129.754 285.802 129.794 285.657C129.8 285.597 130.189 285.56 130.782 285.75C131.371 285.934 132.137 286.396 132.732 287.145C133.324 287.896 133.598 288.747 133.642 289.362C133.69 289.983 133.566 290.354 133.505 290.345Z" fill="#263238"/>
<path d="M139.433 285.684C139.283 285.689 139.361 284.168 138.25 282.807C137.18 281.414 135.681 281.141 135.721 280.996C135.727 280.936 136.116 280.899 136.709 281.089C137.298 281.273 138.064 281.735 138.659 282.484C139.251 283.235 139.525 284.086 139.569 284.701C139.617 285.322 139.493 285.692 139.433 285.684Z" fill="#263238"/>
<path d="M145.361 281.022C145.211 281.027 145.289 279.506 144.178 278.145C143.108 276.752 141.609 276.479 141.649 276.334C141.655 276.274 142.044 276.237 142.637 276.427C143.226 276.611 143.992 277.073 144.587 277.822C145.179 278.573 145.453 279.424 145.497 280.039C145.546 280.66 145.421 281.03 145.361 281.022Z" fill="#263238"/>
<path d="M151.136 276.435C150.989 276.442 150.959 274.985 149.926 273.618C148.942 272.204 147.539 271.805 147.579 271.672C147.588 271.611 147.973 271.601 148.536 271.832C149.098 272.056 149.801 272.562 150.347 273.31C150.896 274.056 151.163 274.874 151.229 275.47C151.296 276.072 151.198 276.439 151.136 276.435Z" fill="#263238"/>
<path d="M156.605 272.06C156.458 272.067 156.428 270.61 155.395 269.244C154.411 267.83 153.008 267.431 153.048 267.298C153.057 267.237 153.442 267.226 154.005 267.458C154.567 267.682 155.27 268.188 155.816 268.936C156.364 269.682 156.631 270.5 156.698 271.096C156.765 271.697 156.667 272.064 156.605 272.06Z" fill="#263238"/>
<path d="M162.314 267.461C162.167 267.468 162.137 266.011 161.104 264.645C160.12 263.231 158.717 262.832 158.757 262.699C158.766 262.638 159.151 262.627 159.714 262.859C160.276 263.083 160.979 263.589 161.525 264.337C162.074 265.083 162.341 265.901 162.407 266.497C162.474 267.098 162.376 267.465 162.314 267.461Z" fill="#263238"/>
<path d="M168.183 263.041C168.036 263.048 168.006 261.591 166.973 260.225C165.989 258.811 164.586 258.412 164.626 258.279C164.636 258.218 165.02 258.207 165.583 258.439C166.145 258.663 166.848 259.169 167.394 259.917C167.942 260.663 168.21 261.481 168.276 262.077C168.342 262.678 168.245 263.045 168.183 263.041Z" fill="#263238"/>
<path d="M174.359 257.974C174.212 257.981 174.182 256.524 173.149 255.158C172.165 253.744 170.762 253.345 170.802 253.212C170.811 253.151 171.196 253.14 171.759 253.372C172.321 253.596 173.024 254.102 173.57 254.85C174.118 255.596 174.386 256.414 174.452 257.01C174.518 257.611 174.421 257.978 174.359 257.974Z" fill="#263238"/>
<path d="M180.534 252.907C180.387 252.914 180.357 251.457 179.324 250.091C178.34 248.677 176.937 248.278 176.977 248.145C176.986 248.084 177.371 248.074 177.934 248.305C178.496 248.529 179.199 249.035 179.745 249.783C180.294 250.529 180.561 251.347 180.627 251.943C180.693 252.544 180.596 252.911 180.534 252.907Z" fill="#263238"/>
<path d="M186.71 247.84C186.563 247.847 186.533 246.39 185.5 245.023C184.516 243.609 183.113 243.21 183.153 243.077C183.163 243.016 183.547 243.006 184.11 243.237C184.672 243.461 185.375 243.967 185.921 244.715C186.469 245.461 186.737 246.279 186.803 246.875C186.869 247.477 186.772 247.844 186.71 247.84Z" fill="#263238"/>
<path d="M201.411 236.487C201.264 236.494 201.234 235.037 200.201 233.671C199.217 232.257 197.814 231.858 197.854 231.725C197.863 231.664 198.248 231.653 198.811 231.885C199.373 232.109 200.076 232.615 200.622 233.363C201.17 234.11 201.438 234.927 201.504 235.523C201.571 236.124 201.473 236.492 201.411 236.487Z" fill="#263238"/>
<path d="M207.573 231.447C207.426 231.454 207.396 229.997 206.363 228.631C205.379 227.217 203.976 226.818 204.016 226.685C204.026 226.624 204.41 226.613 204.973 226.845C205.535 227.069 206.238 227.575 206.784 228.323C207.332 229.069 207.6 229.887 207.666 230.483C207.732 231.084 207.635 231.452 207.573 231.447Z" fill="#263238"/>
<path d="M213.771 226.685C213.624 226.692 213.594 225.235 212.561 223.868C211.577 222.454 210.174 222.055 210.214 221.922C210.224 221.861 210.608 221.85 211.171 222.082C211.733 222.306 212.436 222.812 212.982 223.56C213.53 224.306 213.798 225.124 213.864 225.72C213.931 226.322 213.834 226.689 213.771 226.685Z" fill="#263238"/>
<path d="M219.915 221.923C219.768 221.93 219.738 220.473 218.705 219.106C217.721 217.692 216.318 217.293 216.358 217.16C216.368 217.099 216.752 217.089 217.315 217.32C217.877 217.544 218.58 218.05 219.126 218.798C219.674 219.544 219.942 220.362 220.008 220.958C220.075 221.56 219.977 221.927 219.915 221.923Z" fill="#263238"/>
<path d="M226.101 217.16C225.954 217.167 225.924 215.71 224.891 214.344C223.907 212.93 222.504 212.531 222.544 212.398C222.553 212.337 222.938 212.327 223.501 212.558C224.063 212.782 224.766 213.288 225.312 214.036C225.86 214.782 226.128 215.6 226.194 216.196C226.261 216.798 226.164 217.165 226.101 217.16Z" fill="#263238"/>
<path d="M232.025 211.905C231.878 211.912 231.848 210.455 230.815 209.088C229.831 207.674 228.428 207.275 228.468 207.142C228.478 207.081 228.862 207.07 229.425 207.302C229.987 207.526 230.69 208.032 231.236 208.78C231.784 209.526 232.052 210.344 232.118 210.94C232.184 211.542 232.087 211.91 232.025 211.905Z" fill="#263238"/>
<path d="M238.345 207.177C238.198 207.184 238.168 205.727 237.135 204.361C236.151 202.947 234.748 202.548 234.788 202.415C234.798 202.354 235.182 202.343 235.745 202.575C236.307 202.799 237.01 203.305 237.556 204.053C238.104 204.799 238.372 205.617 238.438 206.213C238.504 206.814 238.407 207.181 238.345 207.177Z" fill="#263238"/>
<path d="M244.538 202.415C244.391 202.422 244.361 200.965 243.328 199.599C242.344 198.185 240.941 197.786 240.981 197.653C240.991 197.592 241.375 197.581 241.938 197.813C242.5 198.037 243.203 198.543 243.749 199.291C244.298 200.038 244.565 200.855 244.631 201.451C244.698 202.052 244.601 202.419 244.538 202.415Z" fill="#263238"/>
<path d="M250.806 197.395C250.659 197.402 250.629 195.945 249.596 194.579C248.612 193.165 247.209 192.766 247.249 192.633C247.258 192.572 247.643 192.562 248.206 192.793C248.768 193.017 249.471 193.523 250.017 194.271C250.565 195.017 250.833 195.835 250.899 196.431C250.966 197.033 250.868 197.4 250.806 197.395Z" fill="#263238"/>
<path d="M116.592 303.431C116.442 303.436 116.52 301.915 115.409 300.554C114.339 299.161 112.84 298.888 112.88 298.743C112.886 298.683 113.275 298.646 113.868 298.836C114.457 299.02 115.223 299.482 115.818 300.231C116.41 300.982 116.684 301.833 116.728 302.448C116.776 303.069 116.652 303.44 116.592 303.431Z" fill="#263238"/>
<path d="M89.4685 358.364C89.4395 358.511 87.9755 358.089 86.3985 358.861C84.7985 359.586 84.1915 360.983 84.0595 360.912C84.0015 360.892 84.0555 360.506 84.3745 359.971C84.6875 359.439 85.3115 358.799 86.1765 358.39C87.0425 357.984 87.9325 357.911 88.5425 358.008C89.1585 358.102 89.4905 358.308 89.4685 358.364Z" fill="#263238"/>
<path d="M92.5212 365.547C92.4922 365.694 91.0282 365.272 89.4512 366.044C87.8512 366.769 87.2442 368.166 87.1122 368.095C87.0542 368.075 87.1082 367.689 87.4272 367.154C87.7402 366.622 88.3642 365.982 89.2292 365.573C90.0952 365.167 90.9862 365.094 91.5952 365.191C92.2112 365.285 92.5432 365.491 92.5212 365.547Z" fill="#263238"/>
<path d="M95.3352 373.477C95.2992 373.623 93.8582 373.128 92.2432 373.819C90.6082 374.463 89.9322 375.828 89.8042 375.75C89.7482 375.728 89.8202 375.344 90.1662 374.826C90.5062 374.31 91.1612 373.702 92.0452 373.337C92.9302 372.975 93.8232 372.947 94.4282 373.074C95.0382 373.199 95.3592 373.421 95.3352 373.477Z" fill="#263238"/>
<path d="M97.9274 380.854C97.8914 380.999 96.4504 380.505 94.8354 381.196C93.2004 381.84 92.5244 383.205 92.3964 383.127C92.3394 383.105 92.4124 382.721 92.7584 382.203C93.0984 381.687 93.7534 381.079 94.6374 380.714C95.5224 380.352 96.4154 380.323 97.0194 380.451C97.6304 380.577 97.9514 380.798 97.9274 380.854Z" fill="#263238"/>
<path d="M100.211 388.71C100.161 388.851 98.7745 388.221 97.1015 388.755C95.4125 389.24 94.6085 390.534 94.4895 390.444C94.4355 390.416 94.5445 390.041 94.9385 389.559C95.3255 389.078 96.0365 388.536 96.9515 388.257C97.8675 387.982 98.7595 388.039 99.3485 388.224C99.9425 388.405 100.241 388.657 100.211 388.71Z" fill="#263238"/>
<path d="M102.622 397.508C102.562 397.645 101.226 396.913 99.5169 397.32C97.7969 397.677 96.8989 398.907 96.7859 398.809C96.7339 398.777 96.8709 398.411 97.2989 397.96C97.7209 397.51 98.4699 397.021 99.4029 396.812C100.337 396.606 101.222 396.729 101.796 396.958C102.376 397.184 102.655 397.457 102.622 397.508Z" fill="#263238"/>
<path d="M104.864 407.207C104.804 407.344 103.468 406.612 101.759 407.019C100.039 407.376 99.1411 408.606 99.0281 408.508C98.9761 408.476 99.1131 408.11 99.5421 407.659C99.9641 407.209 100.713 406.72 101.646 406.511C102.579 406.305 103.465 406.428 104.039 406.657C104.618 406.883 104.897 407.156 104.864 407.207Z" fill="#263238"/>
<path d="M193.192 234.316C193.392 234.166 196.06 233.14 198.215 234.707C200.228 236.17 200.918 237.38 200.918 237.38C200.918 237.38 201.52 238.619 200.37 239.485C199.22 240.35 196.154 240.273 196.154 240.273L197.506 239.132L195.336 237.165C195.336 237.165 193.535 237.581 192.757 236.131C191.979 234.681 193.192 234.316 193.192 234.316Z" fill="#FFBF9D"/>
<path d="M184.175 239.789C184.175 239.789 185.424 238.223 186.988 238.22C188.552 238.217 190.718 239.015 190.718 239.015C190.718 239.015 194.403 242.976 194.73 243.826C195.057 244.676 193.269 245.943 193.269 245.943C193.269 245.943 193.735 248.019 192.911 249.109C192.087 250.199 184.423 255.123 184.423 255.123L179.279 253.589C179.279 253.589 184.333 247.699 185.654 246.645C186.975 245.591 186.404 246.081 186.404 246.081L186.021 245.032C185.681 244.1 184.911 243.392 183.954 243.131L183.363 242.97L180.817 244.971C180.817 244.971 180.252 243.838 181.101 242.573C181.95 241.307 184.175 239.789 184.175 239.789Z" fill="#FFBF9D"/>
<path d="M189.694 240.569C189.694 240.569 188.202 238.482 189.339 237.704C190.476 236.926 191.599 237.482 192.805 237.836C194.011 238.19 195.523 239.471 195.838 240.721C196.153 241.972 196.481 243.761 194.729 243.826C192.978 243.892 189.694 240.569 189.694 240.569Z" fill="#FFBF9D"/>
<path d="M183.89 240.055C183.854 240.013 184.485 239.535 185.703 239.447C186.905 239.333 188.626 239.83 190.018 241.022C191.426 242.189 192.327 243.606 192.809 244.678C193.294 245.759 193.404 246.487 193.344 246.503C193.266 246.528 193.032 245.846 192.479 244.843C191.93 243.846 191.019 242.527 189.686 241.423C188.366 240.3 186.833 239.803 185.711 239.814C184.584 239.803 183.922 240.137 183.89 240.055Z" fill="#FF9A6C"/>
<path d="M194.707 244.271C194.625 244.273 194.591 243.742 194.349 242.944C194.109 242.159 193.617 241.071 192.737 240.211C191.811 239.409 190.658 239.041 189.87 238.777C189.065 238.522 188.547 238.408 188.557 238.332C188.564 238.266 189.107 238.25 189.962 238.421C190.802 238.608 192.015 238.907 193.088 239.827C194.089 240.807 194.539 241.995 194.706 242.857C194.868 243.728 194.767 244.274 194.707 244.271Z" fill="#FF9A6C"/>
<path d="M175.273 256.804C175.273 256.804 181.375 257.354 184.666 254.957C187.957 252.56 183.57 248.743 183.57 248.743L175.273 256.804Z" fill="#FFBF9D"/>
<path d="M187.298 247.7C187.172 247.769 186.855 247.43 186.59 246.943C186.325 246.456 186.213 246.006 186.339 245.937C186.465 245.868 186.782 246.207 187.047 246.694C187.311 247.18 187.424 247.631 187.298 247.7Z" fill="#FF9A6C"/>
<path d="M42.6701 284.656C42.6701 284.656 35.0001 328.534 35.5801 336.269C36.2391 345.06 39.8581 345.618 44.8511 346.065C49.4951 346.481 84.6851 341.557 84.6851 341.557L80.5971 325.289L57.3771 326.473L63.0741 302.54L42.6701 284.656Z" fill="#455A64"/>
<path d="M92.1349 335.831C92.0309 335.931 82.1779 325.822 70.1299 313.256C58.0779 300.686 48.3949 290.418 48.4989 290.319C48.6029 290.219 58.4539 300.326 70.5059 312.896C82.5539 325.462 92.2389 335.732 92.1349 335.831Z" fill="#263238"/>
<path d="M82.9823 325.5C82.9823 325.5 84.3253 318.303 87.4693 315.937C90.6133 313.571 98.8983 310.876 98.8983 310.876C98.8983 310.876 99.1443 311.816 97.9673 313.525C96.7903 315.233 92.7593 317.444 92.7593 317.444L101.636 315.742L109.708 311.377C110.011 311.213 110.395 311.263 110.623 311.521C111.051 312.005 111.423 312.93 109.981 314.218C107.767 316.196 101.201 320.686 101.201 320.686C101.201 320.686 101.87 328.182 99.4733 329.369C97.0773 330.557 87.5313 333.726 87.5313 333.726L83.0413 335.182L80.7363 325.65L82.9823 325.5Z" fill="#FFBF9D"/>
<path d="M47.6027 333.757C47.5477 333.753 47.5597 332.936 48.0287 331.722C48.4847 330.519 49.4897 328.93 51.1407 327.782C52.7937 326.635 54.6327 326.247 55.9187 326.239C57.2207 326.223 57.9897 326.496 57.9747 326.549C57.9607 326.635 57.1807 326.498 55.9377 326.606C54.7057 326.706 52.9897 327.132 51.4367 328.209C49.8857 329.288 48.8887 330.748 48.3657 331.868C47.8317 332.994 47.6887 333.774 47.6027 333.757Z" fill="#263238"/>
</svg>
