<svg width="500" height="500" viewBox="0 0 500 500" fill="none" xmlns="http://www.w3.org/2000/svg">
<path d="M469.561 276.3C469.561 276.44 373.351 276.56 254.691 276.56C136.031 276.56 39.8008 276.44 39.8008 276.3C39.8008 276.16 136.001 276 254.691 276C373.381 276 469.561 276.15 469.561 276.3Z" fill="#E0E0E0"/>
<path d="M170.311 240C165.731 238.72 161.46 236.521 157.757 233.538C154.053 230.556 150.996 226.85 148.769 222.648C146.543 218.447 145.195 213.836 144.806 209.096C144.418 204.357 144.998 199.588 146.511 195.08C148.861 188.08 153.401 181.89 155.341 174.75C157.551 166.65 156.231 158.06 154.871 149.75C153.511 141.44 152.121 132.9 154.191 124.75C156.261 116.6 162.771 108.97 171.191 108.39C178.951 107.86 186.131 113.61 189.371 120.69C192.611 127.77 192.641 135.89 191.881 143.69C191.121 151.49 189.651 159.18 190.111 166.96C191.051 182.69 199.861 197.51 198.831 213.24C198.291 221.43 195.121 226.67 189.691 232.83C185.011 238.14 177.241 241.64 170.351 240.01" fill="#F0F0F0"/>
<path d="M171.8 279.13C171.68 279.13 171.58 250.73 171.58 215.71C171.58 180.69 171.68 152.27 171.8 152.27C171.92 152.27 172.01 180.67 172.01 215.71C172.01 250.75 171.91 279.13 171.8 279.13Z" fill="#E0E0E0"/>
<path d="M185.89 202.57C185.96 202.66 182.89 205.19 179.02 208.2C175.15 211.21 171.96 213.6 171.89 213.5C171.82 213.4 174.89 210.89 178.76 207.87C182.63 204.85 185.82 202.48 185.89 202.57Z" fill="#E0E0E0"/>
<path d="M171.811 200.74C170.29 199.95 168.838 199.034 167.471 198C166.031 197.079 164.663 196.05 163.381 194.92C164.903 195.704 166.355 196.617 167.721 197.65C169.167 198.565 170.536 199.598 171.811 200.74Z" fill="#E0E0E0"/>
<path d="M85.0617 155.7L67.9317 190.25L73.0417 190.44L58.5317 217.9H66.1517L54.2617 242.3H120.732L106.102 217.9L113.112 217.6L99.0817 190.15L104.272 189.85L85.0617 155.7Z" fill="#F0F0F0"/>
<path d="M85.7114 195.66C85.8514 195.66 85.7114 213.6 85.4914 235.72C85.2714 257.84 84.8915 275.78 84.7515 275.78C84.6115 275.78 84.7515 257.84 84.9715 235.71C85.1915 213.58 85.5615 195.65 85.7114 195.66Z" fill="#E0E0E0"/>
<path d="M95.5915 206C94.0861 207.583 92.4577 209.044 90.7215 210.37C89.0967 211.839 87.3579 213.176 85.5215 214.37C87.0285 212.789 88.6568 211.328 90.3915 210C92.0175 208.533 93.7562 207.195 95.5915 206Z" fill="#E0E0E0"/>
<path d="M67.1309 89H115.881C115.881 89 115.881 77.84 110.121 77.84C108.058 77.7735 106.037 78.4281 104.406 79.6912C102.774 80.9543 101.633 82.7468 101.181 84.76C101.181 84.76 101.181 64 90.7009 67C80.7909 69.9 79.7009 83.23 79.7009 83.23C79.7009 83.23 77.9109 76.52 72.5409 80.3C67.1709 84.08 67.1309 89 67.1309 89Z" fill="#F0F0F0"/>
<path d="M481.88 439.52C481.88 439.66 381.03 439.78 256.66 439.78C132.29 439.78 31.4102 439.66 31.4102 439.52C31.4102 439.38 132.24 439.26 256.66 439.26C381.08 439.26 481.88 439.37 481.88 439.52Z" fill="#263238"/>
<path d="M223.371 140.8V324.4H429.861V140.8H407.521L362.301 84.1299L324.161 140.25L223.371 140.8Z" fill="#FF6D38"/>
<g opacity="0.5">
<path d="M223.371 140.8V324.4H429.861V140.8H407.521L362.301 84.1299L324.161 140.25L223.371 140.8Z" fill="white"/>
</g>
<path d="M264.191 73.3101C263.191 74.6701 204.881 143.46 204.881 143.46H322.821L362.301 84.1301L407.521 140.8L448.881 140.75L398.391 71.6201L264.191 73.3101Z" fill="#263238"/>
<path d="M303.371 316.79H254.441V324.41H303.371V316.79Z" fill="#E6E6E6"/>
<path d="M308.46 328.19H243.17V334.1H308.46V328.19Z" fill="#E6E6E6"/>
<path d="M257.691 242.97L258.091 316.38H300.121V242.97H257.691Z" fill="#FF6D38"/>
<g opacity="0.2">
<path d="M257.691 242.97L258.091 316.38H300.121V242.97H257.691Z" fill="black"/>
</g>
<g opacity="0.4">
<path d="M290.702 281.53C291.723 281.53 292.552 280.702 292.552 279.68C292.552 278.658 291.723 277.83 290.702 277.83C289.68 277.83 288.852 278.658 288.852 279.68C288.852 280.702 289.68 281.53 290.702 281.53Z" fill="black"/>
</g>
<path d="M279.051 217.76L240.291 249.71V258.55L279.391 226.79L315.201 256.14V246.91L279.051 217.76Z" fill="#263238"/>
<path d="M300.06 63.8198H291V76.3698H300.06V63.8198Z" fill="#FF6D38"/>
<path d="M315.732 57.21H306.182V76.37H315.732V57.21Z" fill="#FF6D38"/>
<g opacity="0.4">
<path d="M300.06 63.8198H291V76.3698H300.06V63.8198Z" fill="black"/>
<path d="M315.73 57.21H306.18V76.37H315.73V57.21Z" fill="black"/>
</g>
<path d="M369.08 113.64H358.4V124.32H369.08V113.64Z" fill="white"/>
<g opacity="0.1">
<path d="M322.82 143.46H328.51L365.87 88.6099L362.3 84.1299L322.82 143.46Z" fill="black"/>
</g>
<g opacity="0.1">
<path d="M223.371 143.46V149.39L322.821 143.46H223.371Z" fill="black"/>
</g>
<g opacity="0.1">
<path d="M407.521 140.8L429.861 148.21V140.8H407.521Z" fill="black"/>
</g>
<path d="M306.181 321.48H249.311V328.87H306.181V321.48Z" fill="#E6E6E6"/>
<path d="M304.692 321.58C304.692 321.72 292.392 321.84 277.222 321.84C262.052 321.84 249.762 321.72 249.762 321.58C249.762 321.44 262.052 321.32 277.222 321.32C292.392 321.32 304.692 321.43 304.692 321.58Z" fill="#E0E0E0"/>
<path d="M304.692 328.19C304.692 328.33 292.392 328.45 277.222 328.45C262.052 328.45 249.762 328.33 249.762 328.19C249.762 328.05 262.052 327.93 277.222 327.93C292.392 327.93 304.692 328 304.692 328.19Z" fill="#E0E0E0"/>
<path d="M301.831 153.63H254.441V198.65H301.831V153.63Z" fill="white"/>
<path d="M275.88 153.63C275.88 153.63 262.44 176.54 255.08 176.74C255.08 176.74 261.9 180.22 262.42 198.65H254.42V153.65L275.88 153.63Z" fill="#FF6D38"/>
<path d="M280.391 153.63C280.391 153.63 293.821 176.54 301.191 176.74C301.191 176.74 294.361 180.22 293.851 198.65H301.851V153.65L280.391 153.63Z" fill="#FF6D38"/>
<path d="M278.5 153.23H277V201.25H278.5V153.23Z" fill="#263238"/>
<path d="M253.74 176.49V177.99H301.76V176.49H253.74Z" fill="#263238"/>
<path d="M304.211 198.65H251.281V199.77H304.211V198.65Z" fill="#263238"/>
<path d="M400.771 153.63H353.381V198.65H400.771V153.63Z" fill="white"/>
<path d="M374.821 153.63C374.821 153.63 361.391 176.54 354.021 176.74C354.021 176.74 360.851 180.22 361.361 198.65H353.361V153.65L374.821 153.63Z" fill="#FF6D38"/>
<path d="M379.33 153.63C379.33 153.63 392.76 176.54 400.13 176.74C400.13 176.74 393.31 180.22 392.79 198.65H400.79V153.65L379.33 153.63Z" fill="#FF6D38"/>
<path d="M377.441 153.23H375.941V201.25H377.441V153.23Z" fill="#263238"/>
<path d="M352.682 176.49V177.99H400.702V176.49H352.682Z" fill="#263238"/>
<path d="M403.16 198.65H350.23V199.77H403.16V198.65Z" fill="#263238"/>
<path d="M400.771 248.7H353.381V293.72H400.771V248.7Z" fill="white"/>
<path d="M374.821 248.7C374.821 248.7 361.391 271.62 354.021 271.82C354.021 271.82 360.851 275.3 361.361 293.72H353.361V248.72L374.821 248.7Z" fill="#FF6D38"/>
<path d="M379.33 248.7C379.33 248.7 392.76 271.62 400.13 271.82C400.13 271.82 393.31 275.3 392.79 293.72H400.79V248.72L379.33 248.7Z" fill="#FF6D38"/>
<path d="M377.441 248.3H375.941V296.32H377.441V248.3Z" fill="#263238"/>
<path d="M352.682 271.57V273.07H400.702V271.57H352.682Z" fill="#263238"/>
<path d="M403.16 293.72H350.23V294.84H403.16V293.72Z" fill="#263238"/>
<path d="M228.17 288.48V438.8H241.07V298.58H339.22V288.48H228.17Z" fill="#455A64"/>
<path d="M241.07 298.58H236.9V438.8H241.07V298.58Z" fill="#263238"/>
<path d="M339.219 288.48H331.369V298.58H339.219V288.48Z" fill="#263238"/>
<path d="M341.53 305.94H246.83V365.66H341.53V305.94Z" fill="#FF6D38"/>
<path d="M341.53 305.94H246.83V365.66H341.53V305.94Z" fill="#FF6D38"/>
<path d="M341.541 305.94H336.311V365.66H341.541V305.94Z" fill="#FF6D38"/>
<g opacity="0.2">
<path d="M341.541 305.94H336.311V365.66H341.541V305.94Z" fill="black"/>
</g>
<path d="M331.371 360.51C331.371 360.51 331.371 360.19 331.371 359.6C331.371 359.01 331.371 358.12 331.371 356.99C331.371 354.69 331.371 351.34 331.321 347.05C331.321 338.46 331.261 326.12 331.211 311.05L331.421 311.25L252.421 311.31L252.681 311.05C252.681 328.59 252.681 345.31 252.681 360.53L252.441 360.29L309.241 360.4L325.531 360.47H329.881H331.001H331.391H329.931H325.631L309.381 360.54L252.381 360.66H252.141V360.42C252.141 345.2 252.141 328.48 252.141 310.94V310.67H252.411L331.411 310.73H331.611V311C331.611 326.14 331.531 338.53 331.511 347.15C331.511 351.42 331.511 354.75 331.451 357.04V359.61C331.381 360.22 331.371 360.51 331.371 360.51Z" fill="#263238"/>
<path d="M265.121 298.58H262.311V305.94H265.121V298.58Z" fill="#FF6D38"/>
<path d="M311.371 298.58H308.561V305.94H311.371V298.58Z" fill="#FF6D38"/>
<path d="M278.119 323.35V326.49H284.409V329.61H278.119V334.49H274.119V320.23H285.299V323.35H278.119Z" fill="#FF6D38"/>
<path opacity="0.2" d="M278.119 323.35V326.49H284.409V329.61H278.119V334.49H274.119V320.23H285.299V323.35H278.119Z" fill="black"/>
<path d="M286.311 327.36C286.311 323.09 289.671 319.95 294.231 319.95C298.791 319.95 302.161 323.09 302.161 327.36C302.161 331.63 298.801 334.78 294.231 334.78C289.661 334.78 286.311 331.64 286.311 327.36ZM298.081 327.36C298.038 326.607 297.775 325.883 297.325 325.278C296.875 324.673 296.258 324.212 295.549 323.954C294.841 323.695 294.072 323.65 293.338 323.824C292.604 323.998 291.937 324.382 291.419 324.931C290.902 325.48 290.556 326.168 290.425 326.911C290.295 327.653 290.384 328.418 290.683 329.111C290.982 329.803 291.478 330.393 292.108 330.807C292.738 331.221 293.476 331.441 294.231 331.44C294.757 331.446 295.28 331.342 295.764 331.136C296.249 330.929 296.686 330.625 297.048 330.242C297.409 329.859 297.688 329.405 297.865 328.909C298.043 328.413 298.116 327.886 298.081 327.36Z" fill="#FF6D38"/>
<path opacity="0.2" d="M286.311 327.36C286.311 323.09 289.671 319.95 294.231 319.95C298.791 319.95 302.161 323.09 302.161 327.36C302.161 331.63 298.801 334.78 294.231 334.78C289.661 334.78 286.311 331.64 286.311 327.36ZM298.081 327.36C298.038 326.607 297.775 325.883 297.325 325.278C296.875 324.673 296.258 324.212 295.549 323.954C294.841 323.695 294.072 323.65 293.338 323.824C292.604 323.998 291.937 324.382 291.419 324.931C290.902 325.48 290.556 326.168 290.425 326.911C290.295 327.653 290.384 328.418 290.683 329.111C290.982 329.803 291.478 330.393 292.108 330.807C292.738 331.221 293.476 331.441 294.231 331.44C294.757 331.446 295.28 331.342 295.764 331.136C296.249 330.929 296.686 330.625 297.048 330.242C297.409 329.859 297.688 329.405 297.865 328.909C298.043 328.413 298.116 327.886 298.081 327.36Z" fill="black"/>
<path d="M310.511 330.7H308.311V334.49H304.311V320.23H310.831C314.721 320.23 317.161 322.23 317.161 325.51C317.199 326.453 316.953 327.386 316.456 328.188C315.959 328.99 315.232 329.625 314.371 330.01L317.451 334.49H313.101L310.511 330.7ZM310.511 323.41H308.271V327.59H310.511C312.181 327.59 313.021 326.81 313.021 325.51C313.021 324.21 312.221 323.41 310.551 323.41H310.511Z" fill="#FF6D38"/>
<path opacity="0.2" d="M310.511 330.7H308.311V334.49H304.311V320.23H310.831C314.721 320.23 317.161 322.23 317.161 325.51C317.199 326.453 316.953 327.386 316.456 328.188C315.959 328.99 315.232 329.625 314.371 330.01L317.451 334.49H313.101L310.511 330.7ZM310.511 323.41H308.271V327.59H310.511C312.181 327.59 313.021 326.81 313.021 325.51C313.021 324.21 312.221 323.41 310.551 323.41H310.511Z" fill="black"/>
<path d="M266.779 353.48L268.169 350.36C269.643 351.301 271.351 351.81 273.099 351.83C274.849 351.83 275.539 351.34 275.539 350.62C275.539 348.25 267.029 349.98 267.029 344.42C267.029 341.75 269.209 339.57 273.659 339.57C275.548 339.539 277.413 339.99 279.079 340.88L277.779 344.02C276.513 343.296 275.087 342.898 273.629 342.86C271.859 342.86 271.219 343.46 271.219 344.21C271.219 346.49 279.699 344.79 279.699 350.3C279.699 352.9 277.519 355.12 273.079 355.12C270.867 355.175 268.684 354.607 266.779 353.48Z" fill="#FF6D38"/>
<path opacity="0.2" d="M266.779 353.48L268.169 350.36C269.643 351.301 271.351 351.81 273.099 351.83C274.849 351.83 275.539 351.34 275.539 350.62C275.539 348.25 267.029 349.98 267.029 344.42C267.029 341.75 269.209 339.57 273.659 339.57C275.548 339.539 277.413 339.99 279.079 340.88L277.779 344.02C276.513 343.296 275.087 342.898 273.629 342.86C271.859 342.86 271.219 343.46 271.219 344.21C271.219 346.49 279.699 344.79 279.699 350.3C279.699 352.9 277.519 355.12 273.079 355.12C270.867 355.175 268.684 354.607 266.779 353.48Z" fill="black"/>
<path d="M291.67 351.92H285.34L284.17 354.83H279.85L286.45 339.83H290.62L297.24 354.83H292.84L291.67 351.92ZM290.43 348.8L288.5 344L286.58 348.78L290.43 348.8Z" fill="#FF6D38"/>
<path opacity="0.2" d="M291.67 351.92H285.34L284.17 354.83H279.85L286.45 339.83H290.62L297.24 354.83H292.84L291.67 351.92ZM290.43 348.8L288.5 344L286.58 348.78L290.43 348.8Z" fill="black"/>
<path d="M298.439 339.87H302.669V351.47H309.809V354.83H298.439V339.87Z" fill="#FF6D38"/>
<path opacity="0.2" d="M298.439 339.87H302.669V351.47H309.809V354.83H298.439V339.87Z" fill="black"/>
<path d="M323.48 351.56V354.83H311.48V339.83H323.2V343.1H315.66V345.62H322.3V348.78H315.66V351.52L323.48 351.56Z" fill="#FF6D38"/>
<path opacity="0.2" d="M323.48 351.56V354.83H311.48V339.83H323.2V343.1H315.66V345.62H322.3V348.78H315.66V351.52L323.48 351.56Z" fill="black"/>
<path d="M329.511 315.12C329.461 315.12 329.451 314.93 329.341 314.63C329.196 314.224 328.926 313.874 328.571 313.63C328.316 313.448 328.019 313.333 327.709 313.294C327.398 313.256 327.082 313.296 326.791 313.41C326.44 313.544 326.139 313.781 325.926 314.09C325.714 314.399 325.6 314.765 325.601 315.14C325.603 315.515 325.718 315.88 325.93 316.188C326.142 316.496 326.442 316.734 326.791 316.87C327.083 316.979 327.398 317.017 327.708 316.978C328.018 316.94 328.314 316.827 328.571 316.65C328.923 316.403 329.192 316.054 329.341 315.65C329.451 315.35 329.461 315.17 329.511 315.17C329.561 315.17 329.591 315.35 329.511 315.7C329.426 316.202 329.159 316.654 328.761 316.97C328.463 317.212 328.108 317.373 327.73 317.44C327.352 317.506 326.963 317.475 326.601 317.35C326.15 317.189 325.76 316.893 325.484 316.502C325.209 316.111 325.061 315.644 325.061 315.165C325.061 314.687 325.209 314.22 325.484 313.829C325.76 313.437 326.15 313.141 326.601 312.98C326.963 312.855 327.352 312.824 327.73 312.891C328.108 312.957 328.463 313.119 328.761 313.36C329.159 313.676 329.426 314.129 329.511 314.63C329.591 314.93 329.531 315.12 329.511 315.12Z" fill="#263238"/>
<path d="M328.559 313.87C328.659 313.97 328.289 314.53 327.719 315.13C327.149 315.73 326.619 316.13 326.509 316.04C326.399 315.95 326.779 315.38 327.349 314.78C327.919 314.18 328.449 313.77 328.559 313.87Z" fill="#263238"/>
<path d="M328.78 315.9C328.78 316.03 328.01 315.9 327.32 315.28C326.63 314.66 326.32 314.05 326.43 313.97C326.54 313.89 327.02 314.36 327.65 314.88C328.28 315.4 328.84 315.76 328.78 315.9Z" fill="#263238"/>
<path d="M328.74 357.28C328.74 357.28 328.68 357.09 328.58 356.79C328.432 356.386 328.163 356.037 327.81 355.79C327.555 355.609 327.259 355.494 326.948 355.455C326.637 355.417 326.322 355.456 326.03 355.57C325.68 355.704 325.379 355.941 325.166 356.25C324.954 356.559 324.84 356.925 324.84 357.3C324.846 357.666 324.959 358.022 325.166 358.324C325.372 358.626 325.662 358.861 326 359C326.293 359.109 326.607 359.146 326.917 359.108C327.227 359.07 327.523 358.957 327.78 358.78C328.13 358.53 328.398 358.182 328.55 357.78C328.65 357.48 328.67 357.3 328.71 357.3C328.75 357.3 328.8 357.48 328.71 357.83C328.626 358.329 328.363 358.78 327.97 359.1C327.672 359.34 327.317 359.502 326.939 359.568C326.562 359.634 326.173 359.604 325.81 359.48C325.355 359.324 324.96 359.029 324.68 358.637C324.4 358.246 324.25 357.776 324.25 357.295C324.25 356.813 324.4 356.344 324.68 355.952C324.96 355.561 325.355 355.266 325.81 355.11C326.173 354.986 326.562 354.955 326.939 355.022C327.317 355.088 327.672 355.249 327.97 355.49C328.363 355.81 328.626 356.261 328.71 356.76C328.83 357.09 328.77 357.28 328.74 357.28Z" fill="#263238"/>
<path d="M327.789 356C327.899 356.1 327.529 356.66 326.959 357.26C326.389 357.86 325.859 358.26 325.749 358.17C325.639 358.08 326.019 357.51 326.579 356.91C327.139 356.31 327.689 355.93 327.789 356Z" fill="#263238"/>
<path d="M328.001 358.06C328.001 358.19 327.231 358.01 326.541 357.44C325.851 356.87 325.541 356.21 325.651 356.13C325.761 356.05 326.241 356.52 326.871 357.04C327.501 357.56 328.081 357.92 328.001 358.06Z" fill="#263238"/>
<path d="M258.71 356.26C258.71 356.26 258.65 356.08 258.54 355.78C258.391 355.376 258.122 355.027 257.77 354.78C257.513 354.603 257.217 354.49 256.907 354.452C256.597 354.414 256.282 354.451 255.99 354.56C255.642 354.697 255.343 354.935 255.131 355.243C254.919 355.552 254.803 355.916 254.8 356.29C254.806 356.663 254.923 357.025 255.137 357.329C255.351 357.634 255.651 357.868 256 358C256.291 358.115 256.607 358.154 256.918 358.116C257.228 358.078 257.525 357.962 257.78 357.78C258.135 357.536 258.405 357.186 258.55 356.78C258.66 356.48 258.67 356.29 258.72 356.29C258.77 356.29 258.8 356.48 258.72 356.83C258.635 357.331 258.368 357.784 257.97 358.1C257.672 358.342 257.317 358.503 256.939 358.57C256.561 358.636 256.172 358.605 255.81 358.48C255.359 358.319 254.969 358.023 254.693 357.632C254.418 357.241 254.27 356.774 254.27 356.295C254.27 355.817 254.418 355.35 254.693 354.958C254.969 354.567 255.359 354.271 255.81 354.11C256.172 353.985 256.561 353.954 256.939 354.021C257.317 354.087 257.672 354.249 257.97 354.49C258.368 354.806 258.635 355.259 258.72 355.76C258.79 356.08 258.73 356.27 258.71 356.26Z" fill="#263238"/>
<path d="M257.76 355C257.86 355.09 257.49 355.66 256.93 356.26C256.37 356.86 255.82 357.26 255.71 357.17C255.6 357.08 255.98 356.5 256.55 355.9C257.12 355.3 257.65 354.92 257.76 355Z" fill="#263238"/>
<path d="M258.001 357.05C257.951 357.18 257.231 356.99 256.541 356.43C255.851 355.87 255.541 355.19 255.651 355.12C255.761 355.05 256.241 355.51 256.871 356.02C257.501 356.53 258.001 356.91 258.001 357.05Z" fill="#263238"/>
<path d="M259.079 315.94C259.029 315.94 259.019 315.76 258.909 315.46C258.76 315.056 258.492 314.707 258.139 314.46C257.882 314.283 257.586 314.17 257.276 314.132C256.966 314.093 256.652 314.13 256.359 314.24C256.01 314.376 255.71 314.614 255.498 314.922C255.286 315.23 255.171 315.595 255.169 315.97C255.169 316.345 255.282 316.711 255.495 317.02C255.707 317.329 256.009 317.566 256.359 317.7C256.651 317.814 256.966 317.854 257.277 317.816C257.588 317.777 257.884 317.662 258.139 317.48C258.495 317.236 258.764 316.886 258.909 316.48C259.019 316.18 259.029 315.99 259.079 315.99C259.129 315.99 259.159 316.18 259.079 316.53C258.994 317.031 258.727 317.484 258.329 317.8C258.031 318.041 257.676 318.203 257.298 318.269C256.92 318.336 256.532 318.305 256.169 318.18C255.718 318.019 255.328 317.723 255.053 317.331C254.777 316.94 254.629 316.473 254.629 315.995C254.629 315.516 254.777 315.049 255.053 314.658C255.328 314.267 255.718 313.971 256.169 313.81C256.532 313.685 256.92 313.654 257.298 313.72C257.676 313.787 258.031 313.948 258.329 314.19C258.727 314.506 258.994 314.958 259.079 315.46C259.159 315.76 259.099 315.94 259.079 315.94Z" fill="#263238"/>
<path d="M258.13 314.7C258.23 314.79 257.86 315.36 257.29 315.96C256.72 316.56 256.19 316.96 256.08 316.87C255.97 316.78 256.35 316.2 256.92 315.6C257.49 315 258 314.6 258.13 314.7Z" fill="#263238"/>
<path d="M258.35 316.73C258.3 316.86 257.58 316.67 256.89 316.11C256.2 315.55 255.89 314.87 256 314.8C256.11 314.73 256.59 315.19 257.22 315.7C257.85 316.21 258.41 316.59 258.35 316.73Z" fill="#263238"/>
<path d="M274.109 323.35V326.49H280.399V329.61H274.109V334.49H270.109V320.23H281.299V323.35H274.109Z" fill="#FAFAFA"/>
<path d="M282.301 327.36C282.301 323.09 285.661 319.95 290.221 319.95C294.781 319.95 298.141 323.09 298.141 327.36C298.141 331.63 294.781 334.78 290.221 334.78C285.661 334.78 282.301 331.64 282.301 327.36ZM294.071 327.36C294.028 326.607 293.765 325.883 293.315 325.278C292.865 324.673 292.248 324.212 291.54 323.954C290.831 323.695 290.062 323.65 289.328 323.824C288.594 323.998 287.927 324.382 287.41 324.931C286.892 325.48 286.546 326.168 286.416 326.911C286.285 327.653 286.374 328.418 286.673 329.111C286.972 329.803 287.468 330.393 288.098 330.807C288.729 331.221 289.467 331.441 290.221 331.44C290.748 331.446 291.27 331.342 291.755 331.136C292.239 330.929 292.676 330.625 293.038 330.242C293.4 329.859 293.678 329.405 293.856 328.909C294.033 328.413 294.107 327.886 294.071 327.36Z" fill="#FAFAFA"/>
<path d="M306.501 330.7H304.301V334.49H300.301V320.23H306.821C310.711 320.23 313.161 322.23 313.161 325.51C313.199 326.453 312.954 327.386 312.456 328.188C311.959 328.99 311.232 329.625 310.371 330.01L313.441 334.49H309.121L306.501 330.7ZM306.501 323.41H304.301V327.59H306.541C308.211 327.59 309.041 326.81 309.041 325.51C309.041 324.21 308.211 323.41 306.541 323.41H306.501Z" fill="#FAFAFA"/>
<path d="M262.76 353.48L264.15 350.36C265.628 351.3 267.338 351.809 269.09 351.83C270.84 351.83 271.52 351.34 271.52 350.62C271.52 348.25 263.02 349.98 263.02 344.42C263.02 341.75 265.2 339.57 269.64 339.57C271.532 339.539 273.4 339.99 275.07 340.88L273.76 344C272.496 343.278 271.074 342.879 269.62 342.84C267.85 342.84 267.21 343.44 267.21 344.19C267.21 346.47 275.69 344.77 275.69 350.28C275.69 352.88 273.51 355.1 269.06 355.1C266.85 355.16 264.667 354.599 262.76 353.48Z" fill="#FAFAFA"/>
<path d="M287.65 351.92H281.33L280.15 354.83H275.84L282.44 339.83H286.61L293.23 354.83H288.83L287.65 351.92ZM286.41 348.8L284.49 344L282.57 348.78L286.41 348.8Z" fill="#FAFAFA"/>
<path d="M294.43 339.87H298.65V351.47H305.79V354.83H294.43V339.87Z" fill="#FAFAFA"/>
<path d="M319.459 351.56V354.83H307.459V339.83H319.189V343.1H311.649V345.62H318.289V348.78H311.649V351.52L319.459 351.56Z" fill="#FAFAFA"/>
<path d="M377.469 416.66C371.469 413.43 369.059 408.87 367.639 402.2C366.956 398.852 366.998 395.396 367.762 392.065C368.526 388.734 369.995 385.606 372.069 382.89C375.559 378.4 380.679 375.12 383.069 369.97C385.609 364.47 384.689 357.48 388.559 352.83C391.219 349.63 395.499 348.36 398.909 345.97C401.679 343.97 403.839 341.33 406.319 338.97C408.799 336.61 411.829 334.61 415.219 334.47C420.339 334.27 424.859 338.8 425.689 343.85C426.519 348.9 424.239 354.09 420.739 357.85C418.209 360.56 414.949 362.79 413.479 366.2C410.709 372.61 415.289 380.53 412.249 386.81C410.029 391.4 404.109 394.15 403.839 399.24C403.729 401.11 404.469 402.92 404.669 404.78C405.299 410.61 400.399 415.93 394.789 417.62C389.179 419.31 383.119 418.19 377.469 416.62" fill="#FF6D38"/>
<path d="M406.589 356.24C406.442 356.51 406.264 356.761 406.059 356.99L404.429 359.06C403.709 359.94 402.839 361.06 401.909 362.36C400.979 363.66 399.829 365.13 398.759 366.86C398.199 367.71 397.609 368.6 397.009 369.53C396.409 370.46 395.849 371.53 395.229 372.53C393.979 374.53 392.839 376.86 391.589 379.24C386.354 389.699 382.781 400.911 380.999 412.47C380.639 415.14 380.249 417.67 380.099 420.06C380.009 421.25 379.879 422.4 379.829 423.51C379.779 424.62 379.759 425.69 379.719 426.71C379.599 428.71 379.719 430.59 379.719 432.2C379.719 433.81 379.789 435.2 379.879 436.35C379.969 437.5 379.979 438.35 380.019 438.98C380.045 439.286 380.045 439.594 380.019 439.9C379.939 439.603 379.892 439.298 379.879 438.99C379.809 438.32 379.719 437.45 379.609 436.37C379.499 435.29 379.359 433.84 379.329 432.22C379.299 430.6 379.159 428.74 379.239 426.7C379.239 425.7 379.289 424.6 379.309 423.49C379.329 422.38 379.459 421.21 379.539 420.01C379.669 417.61 380.039 415.06 380.379 412.37C382.102 400.726 385.687 389.435 390.999 378.93C392.269 376.54 393.439 374.25 394.719 372.21C395.349 371.21 395.919 370.21 396.539 369.21L398.339 366.55C399.449 364.83 400.619 363.39 401.589 362.09C402.559 360.79 403.449 359.71 404.209 358.85L405.939 356.85C406.132 356.623 406.351 356.419 406.589 356.24Z" fill="#263238"/>
<path d="M351.179 394.79C352.379 394.889 353.547 395.227 354.614 395.786C355.68 396.344 356.624 397.111 357.389 398.04C358.908 399.916 359.976 402.116 360.509 404.47C361.669 408.97 360.889 414.26 359.569 418.71C354.719 416.94 351.769 411.71 350.439 408.99C348.329 404.66 347.159 395.57 351.179 394.79Z" fill="#FF6D38"/>
<path d="M366.519 424.22C365.796 423.084 365.388 421.775 365.337 420.429C365.287 419.083 365.594 417.748 366.229 416.56C366.876 415.381 367.753 414.344 368.808 413.51C369.862 412.675 371.073 412.06 372.369 411.7C372.948 411.471 373.569 411.37 374.191 411.405C374.812 411.439 375.419 411.608 375.969 411.9C376.433 412.259 376.792 412.736 377.009 413.282C377.225 413.827 377.291 414.421 377.199 415C377.008 416.152 376.514 417.232 375.769 418.13C373.379 421.31 370.479 423.95 366.519 424.25" fill="#FF6D38"/>
<g opacity="0.2">
<path d="M351.179 394.79C352.379 394.889 353.547 395.227 354.614 395.786C355.68 396.344 356.624 397.111 357.389 398.04C358.908 399.916 359.976 402.116 360.509 404.47C361.669 408.97 360.889 414.26 359.569 418.71C354.719 416.94 351.769 411.71 350.439 408.99C348.329 404.66 347.159 395.57 351.179 394.79Z" fill="black"/>
</g>
<g opacity="0.2">
<path d="M366.519 424.22C365.796 423.084 365.388 421.775 365.337 420.429C365.287 419.083 365.594 417.748 366.229 416.56C366.876 415.381 367.753 414.344 368.808 413.51C369.862 412.675 371.073 412.06 372.369 411.7C372.948 411.471 373.569 411.37 374.191 411.405C374.812 411.439 375.419 411.608 375.969 411.9C376.433 412.259 376.792 412.736 377.009 413.282C377.225 413.827 377.291 414.421 377.199 415C377.008 416.152 376.514 417.232 375.769 418.13C373.379 421.31 370.479 423.95 366.519 424.25" fill="black"/>
</g>
<g opacity="0.2">
<path d="M361.47 428.63C359.869 426.288 357.734 424.36 355.24 423.007C352.746 421.654 349.966 420.915 347.13 420.85C345.69 420.85 343.98 421.17 343.41 422.5C342.84 423.83 343.79 425.3 344.83 426.3C347.039 428.35 349.806 429.7 352.781 430.181C355.756 430.661 358.807 430.25 361.55 429" fill="black"/>
</g>
<path d="M361.47 428.63C359.869 426.288 357.734 424.36 355.24 423.007C352.746 421.654 349.966 420.915 347.13 420.85C345.69 420.85 343.98 421.17 343.41 422.5C342.84 423.83 343.79 425.3 344.83 426.3C347.039 428.35 349.806 429.7 352.781 430.181C355.756 430.661 358.807 430.25 361.55 429" fill="#FF6D38"/>
<path d="M366.559 439.65C366.432 439.351 366.351 439.034 366.319 438.71C366.199 438.09 366.039 437.2 365.879 436.09C365.412 433.187 365.338 430.233 365.659 427.31C366.012 424.353 367.167 421.549 368.999 419.2C369.553 418.497 370.195 417.869 370.909 417.33C371.158 417.117 371.438 416.942 371.739 416.81C370.854 417.614 370.035 418.486 369.289 419.42C367.608 421.786 366.552 424.537 366.219 427.42C365.917 430.3 365.944 433.206 366.299 436.08C366.453 437.264 366.54 438.456 366.559 439.65Z" fill="#263238"/>
<path d="M352.689 401.64C352.962 402.102 353.199 402.583 353.399 403.08C353.839 404.02 354.399 405.4 355.159 407.08C356.609 410.49 358.539 415.23 360.539 420.51C362.539 425.79 364.229 430.63 365.389 434.15C365.979 435.9 366.389 437.33 366.729 438.32C366.909 438.829 367.05 439.35 367.149 439.88C366.901 439.403 366.697 438.904 366.539 438.39C366.159 437.33 365.649 435.94 365.039 434.27C363.789 430.78 362.039 425.98 360.039 420.7C358.039 415.42 356.169 410.7 354.809 407.22L353.209 403.14C352.994 402.656 352.82 402.154 352.689 401.64Z" fill="#263238"/>
<path d="M349.609 424.38C349.918 424.337 350.231 424.337 350.539 424.38C350.906 424.396 351.27 424.44 351.629 424.51C352.112 424.582 352.589 424.682 353.059 424.81C354.285 425.124 355.477 425.556 356.619 426.1C358.012 426.791 359.326 427.629 360.539 428.6C361.739 429.587 362.826 430.704 363.779 431.93C364.557 432.931 365.227 434.01 365.779 435.15C366 435.581 366.194 436.026 366.359 436.48C366.501 436.806 366.621 437.14 366.719 437.48C366.833 437.775 366.9 438.085 366.919 438.4C366.829 438.4 366.459 437.15 365.459 435.28C364.882 434.192 364.213 433.155 363.459 432.18C362.498 431.007 361.427 429.929 360.259 428.96C359.074 428.019 357.801 427.192 356.459 426.49C355.35 425.937 354.196 425.479 353.009 425.12C350.919 424.58 349.599 424.48 349.609 424.38Z" fill="#263238"/>
<path d="M123.001 436.44L122.751 438.65C122.751 438.65 116.921 452.33 118.001 453.36C118.736 454.053 119.663 454.507 120.661 454.662C121.659 454.817 122.68 454.667 123.591 454.23C126.171 453.16 135.891 440.74 135.891 440.74L136.281 438.92L123.001 436.44Z" fill="#FF6D38"/>
<path d="M118.391 450.48C118.391 450.48 121.491 448.48 124.081 452.48C124.081 452.48 125.441 451.72 128.911 447.74C132.381 443.76 135.721 439.89 135.721 439.89C135.721 439.89 136.081 439.5 136.011 439.89C135.941 440.28 135.861 440.84 135.861 440.84L129.221 448.84C129.221 448.84 125.221 453.53 124.121 454.03C122.988 454.725 121.631 454.958 120.331 454.68C119.335 454.483 118.446 453.928 117.831 453.12C117.801 452.89 118.391 450.48 118.391 450.48Z" fill="#F0F0F0"/>
<path d="M124.751 453.82C124.221 452.62 123.334 451.614 122.209 450.939C121.085 450.264 119.779 449.953 118.471 450.05C118.844 449.91 119.244 449.855 119.641 449.89C120.605 449.906 121.547 450.179 122.371 450.68C123.198 451.164 123.887 451.853 124.371 452.68C124.592 453.022 124.722 453.414 124.751 453.82Z" fill="#263238"/>
<path d="M136.28 439.25C136.097 439.523 135.896 439.783 135.68 440.03L134 442.09L128.21 448.8C127.183 450.074 126.048 451.258 124.82 452.34C123.78 453.227 122.483 453.757 121.12 453.85C120.194 453.881 119.287 453.584 118.56 453.01C118.293 452.807 118.075 452.547 117.92 452.25C118.144 452.487 118.384 452.708 118.64 452.91C119.357 453.425 120.228 453.68 121.11 453.63C122.417 453.508 123.653 452.976 124.64 452.11C125.847 451.032 126.964 449.859 127.98 448.6L133.83 441.94L135.63 439.94C135.825 439.69 136.042 439.459 136.28 439.25Z" fill="#263238"/>
<path d="M124.92 446.43C124.367 446.294 123.836 446.082 123.34 445.8C122.807 445.605 122.297 445.35 121.82 445.04C122.399 445.066 122.965 445.227 123.47 445.51C124.017 445.703 124.513 446.017 124.92 446.43Z" fill="#263238"/>
<path d="M126.29 444.37C125.652 444.304 125.024 444.163 124.42 443.95C123.789 443.84 123.174 443.652 122.59 443.39C123.887 443.411 125.159 443.755 126.29 444.39V444.37Z" fill="#263238"/>
<path d="M127.581 442.59C127.521 442.66 126.731 442.18 125.641 441.85C124.551 441.52 123.641 441.45 123.641 441.36C124.357 441.264 125.085 441.324 125.775 441.537C126.466 441.749 127.102 442.109 127.641 442.59H127.581Z" fill="#263238"/>
<path d="M128.181 440.61C128.131 440.69 127.411 440.33 126.461 440.08C125.871 439.975 125.287 439.838 124.711 439.67C125.323 439.582 125.946 439.619 126.543 439.781C127.14 439.943 127.697 440.225 128.181 440.61Z" fill="#455A64"/>
<path d="M127.52 438.93C127.134 438.853 126.769 438.693 126.45 438.46C126.093 438.243 125.758 437.992 125.45 437.71C125.28 437.55 125.1 437.37 124.92 437.18C124.819 437.079 124.732 436.964 124.66 436.84C124.612 436.76 124.586 436.669 124.586 436.575C124.586 436.482 124.612 436.39 124.66 436.31C124.764 436.184 124.904 436.092 125.061 436.047C125.218 436.002 125.386 436.007 125.54 436.06C125.802 436.12 126.048 436.236 126.26 436.4C126.605 436.674 126.868 437.037 127.02 437.45C127.191 437.808 127.26 438.206 127.22 438.6C127.22 438.6 127.11 438.16 126.82 437.54C126.654 437.183 126.403 436.87 126.09 436.63C125.77 436.39 125.16 436.19 124.92 436.48C124.83 436.59 124.92 436.79 125.14 436.98C125.297 437.163 125.464 437.337 125.64 437.5C125.936 437.78 126.25 438.041 126.58 438.28C127.14 438.69 127.54 438.89 127.52 438.93Z" fill="#455A64"/>
<path d="M127.309 438.74C127.316 438.332 127.445 437.935 127.679 437.6C127.901 437.21 128.2 436.869 128.559 436.6C128.771 436.44 129.003 436.309 129.249 436.21C129.391 436.15 129.546 436.126 129.699 436.14C129.797 436.146 129.891 436.179 129.97 436.236C130.05 436.292 130.112 436.37 130.149 436.46C130.188 436.615 130.189 436.776 130.152 436.931C130.116 437.085 130.043 437.229 129.939 437.35C129.803 437.576 129.634 437.782 129.439 437.96C129.113 438.262 128.724 438.487 128.299 438.62C127.923 438.78 127.504 438.808 127.109 438.7C127.488 438.627 127.862 438.53 128.229 438.41C128.602 438.256 128.941 438.032 129.229 437.75C129.4 437.584 129.548 437.395 129.669 437.19C129.739 437.104 129.791 437.005 129.822 436.898C129.853 436.792 129.862 436.68 129.849 436.57C129.799 436.42 129.559 436.41 129.339 436.5C129.12 436.589 128.912 436.703 128.719 436.84C128.38 437.068 128.085 437.356 127.849 437.69C127.459 438.3 127.369 438.75 127.309 438.74Z" fill="#455A64"/>
<path d="M133.931 438.59C133.559 438.579 133.19 438.665 132.861 438.84C132.104 439.329 131.528 440.053 131.221 440.9C130.915 441.752 130.876 442.677 131.111 443.55C131.291 444.22 131.531 444.6 131.491 444.63C131.208 444.357 131.004 444.011 130.901 443.63C130.569 442.72 130.569 441.721 130.901 440.81C131.23 439.895 131.88 439.131 132.731 438.66C133.471 438.3 134.001 438.56 133.931 438.59Z" fill="#263238"/>
<path d="M130.17 444.35C129.894 444.906 129.529 445.413 129.09 445.85C128.725 446.351 128.279 446.788 127.77 447.14C128.045 446.584 128.41 446.078 128.85 445.64C129.214 445.139 129.66 444.703 130.17 444.35Z" fill="#263238"/>
<path d="M131.52 443.11C131.61 443.11 131.71 443.29 131.8 443.54C131.89 443.79 131.93 444.01 131.8 444.05C131.67 444.09 131.55 443.92 131.46 443.64C131.37 443.36 131.44 443.13 131.52 443.11Z" fill="#263238"/>
<path d="M131.66 441.13C131.74 441.13 131.73 441.39 131.66 441.65C131.59 441.91 131.53 442.12 131.44 442.11C131.35 442.1 131.29 441.87 131.35 441.59C131.41 441.31 131.58 441.1 131.66 441.13Z" fill="#263238"/>
<path d="M132.82 439.53C132.87 439.6 132.74 439.79 132.56 439.97C132.38 440.15 132.19 440.3 132.12 440.25C132.05 440.2 132.12 439.97 132.33 439.76C132.54 439.55 132.76 439.46 132.82 439.53Z" fill="#455A64"/>
<path d="M134.641 438.76C134.641 438.85 134.441 438.94 134.191 439.01C133.941 439.08 133.711 439.11 133.681 439.01C133.651 438.91 133.831 438.77 134.111 438.69C134.391 438.61 134.631 438.68 134.641 438.76Z" fill="#455A64"/>
<path d="M155.071 441.38L157.071 432.23L139.961 428.44L136.961 441.78L138.011 442.09C142.671 443.4 161.801 448.42 165.171 448.16C168.881 447.88 155.071 441.38 155.071 441.38Z" fill="#FF6D38"/>
<path d="M143.14 443C143.216 441.501 142.727 440.027 141.77 438.87C140.841 437.717 139.514 436.953 138.05 436.73L137 441.54L143.14 443Z" fill="#FF6D38"/>
<path d="M161.761 444.81C161.761 444.81 166.531 447.41 165.761 448.11C164.991 448.81 145.411 444.46 136.961 441.78L137.071 441.41L159.811 446.67C159.811 446.67 160.751 444.63 161.761 444.81Z" fill="#F0F0F0"/>
<path d="M136.76 441.34C136.849 441.384 136.943 441.418 137.04 441.44L137.88 441.67L140.96 442.5C143.56 443.18 147.17 444.07 151.18 444.97C155.19 445.87 158.83 446.59 161.48 447.09L164.62 447.65L165.47 447.79H165.77C165.676 447.756 165.579 447.732 165.48 447.72L164.63 447.54L161.51 446.91C158.87 446.38 155.23 445.62 151.23 444.73C147.23 443.84 143.61 443 141 442.35L137.91 441.59L137.06 441.39L136.76 441.34Z" fill="#263238"/>
<path d="M159.689 446.94C159.942 446.455 160.247 445.999 160.599 445.58C161.006 445.215 161.452 444.897 161.929 444.63C161.353 444.708 160.826 444.996 160.449 445.44C160.021 445.831 159.751 446.364 159.689 446.94Z" fill="#263238"/>
<path d="M155.219 443.25C155.219 443.3 155.569 443.06 155.899 442.72C156.229 442.38 156.479 442.07 156.439 442.03C156.399 441.99 156.089 442.23 155.749 442.57C155.409 442.91 155.179 443.21 155.219 443.25Z" fill="#263238"/>
<path d="M154 442.21C154 442.26 154.34 442.14 154.7 441.95C155.06 441.76 155.31 441.54 155.29 441.49C155.27 441.44 154.95 441.56 154.59 441.76C154.23 441.96 154 442.16 154 442.21Z" fill="#263238"/>
<path d="M153.48 440.4C153.48 440.46 153.85 440.6 154.35 440.72C154.642 440.823 154.953 440.858 155.26 440.82C154.995 440.658 154.699 440.553 154.39 440.51C154.099 440.408 153.788 440.37 153.48 440.4Z" fill="#263238"/>
<path d="M153.43 439.2C153.679 439.462 154.004 439.64 154.36 439.71C154.694 439.853 155.066 439.885 155.42 439.8C155.097 439.669 154.762 439.572 154.42 439.51C154.099 439.38 153.768 439.276 153.43 439.2Z" fill="#263238"/>
<path d="M156.131 441.89C156.481 442.034 156.853 442.115 157.231 442.13C157.64 442.165 158.052 442.165 158.461 442.13C158.708 442.117 158.953 442.077 159.191 442.01C159.339 441.96 159.464 441.856 159.541 441.72C159.575 441.643 159.587 441.558 159.575 441.475C159.562 441.392 159.526 441.314 159.471 441.25C159.1 440.947 158.635 440.782 158.156 440.782C157.677 440.782 157.212 440.947 156.841 441.25C156.625 441.433 156.448 441.658 156.321 441.91C156.268 441.998 156.238 442.098 156.231 442.2C156.415 441.882 156.655 441.601 156.941 441.37C157.252 441.148 157.619 441.02 158.001 441C158.23 440.974 158.463 440.994 158.685 441.059C158.906 441.124 159.112 441.233 159.291 441.38C159.441 441.55 159.291 441.74 159.101 441.81C158.883 441.879 158.658 441.923 158.431 441.94C158.031 441.968 157.63 441.968 157.231 441.94C156.561 442 156.141 441.86 156.131 441.89Z" fill="#263238"/>
<path d="M156.4 442C156.586 441.797 156.692 441.535 156.7 441.26C156.73 440.965 156.688 440.666 156.58 440.39C156.522 440.208 156.419 440.043 156.281 439.911C156.143 439.778 155.974 439.682 155.79 439.63C155.733 439.629 155.675 439.639 155.621 439.66C155.567 439.681 155.518 439.712 155.476 439.752C155.434 439.792 155.401 439.839 155.378 439.892C155.354 439.945 155.342 440.002 155.34 440.06C155.321 440.243 155.345 440.428 155.41 440.6C155.501 440.874 155.626 441.136 155.78 441.38C155.908 441.613 156.09 441.812 156.31 441.96C156.31 441.96 156.14 441.71 155.91 441.3C155.783 441.057 155.679 440.803 155.6 440.54C155.5 440.27 155.49 439.83 155.78 439.84C156.07 439.85 156.28 440.21 156.4 440.47C156.508 440.715 156.559 440.982 156.55 441.25C156.524 441.504 156.474 441.755 156.4 442Z" fill="#263238"/>
<path d="M138.15 436.74C138.15 436.74 138.65 436.8 139.4 437.06C140.383 437.397 141.251 438.005 141.904 438.814C142.556 439.622 142.968 440.598 143.09 441.63C143.18 442.42 143.09 442.92 143.09 442.92C143.132 442.811 143.159 442.697 143.17 442.58C143.209 442.248 143.209 441.912 143.17 441.58C143.088 440.508 142.683 439.486 142.008 438.649C141.333 437.811 140.421 437.198 139.39 436.89C139.081 436.794 138.763 436.73 138.44 436.7C138.27 436.72 138.15 436.72 138.15 436.74Z" fill="#263238"/>
<path d="M141.5 430C141.129 431.143 140.818 432.305 140.57 433.48C140.262 434.642 140.022 435.821 139.85 437.01C140.229 435.87 140.54 434.708 140.78 433.53C141.095 432.37 141.335 431.191 141.5 430Z" fill="#455A64"/>
<path d="M145.67 441.84C147.255 442.519 148.948 442.912 150.67 443C150.67 442.94 149.55 442.76 148.18 442.44C146.81 442.12 145.69 441.78 145.67 441.84Z" fill="#263238"/>
<path d="M142.321 441.09C142.261 441.09 142.321 441.34 142.411 441.63C142.501 441.92 142.481 442.15 142.541 442.16C142.601 442.17 142.691 441.91 142.621 441.58C142.551 441.25 142.361 441.05 142.321 441.09Z" fill="#263238"/>
<path d="M141.399 439.23C141.349 439.23 141.399 439.47 141.559 439.69C141.719 439.91 141.849 440.06 141.899 440.03C141.949 440 141.899 439.79 141.739 439.57C141.579 439.35 141.449 439.2 141.399 439.23Z" fill="#455A64"/>
<path d="M139.75 438.11C139.75 438.17 139.98 438.22 140.21 438.37C140.44 438.52 140.6 438.69 140.65 438.66C140.7 438.63 140.65 438.36 140.32 438.19C139.99 438.02 139.75 438.06 139.75 438.11Z" fill="#455A64"/>
<path d="M138.541 437.49C138.541 437.54 138.591 437.65 138.721 437.73C138.851 437.81 138.981 437.85 139.011 437.8C139.041 437.75 139.011 437.64 138.841 437.56C138.671 437.48 138.581 437.44 138.541 437.49Z" fill="#455A64"/>
<path d="M163.22 286.6L143 279.44L115.1 284.5L115.9 440.82L142.38 440.47C142.38 440.47 142.38 438.65 142.32 435.47L157.85 439.72C157.85 439.72 172.98 388.6 178.14 367.62C182.41 350.1 163.22 286.6 163.22 286.6ZM142 410C141.59 372.18 141.05 311.71 141.6 303.84C141.6 303.84 156.43 356.62 156.6 361.09C156.67 363.78 148.45 389.91 142 410Z" fill="#263238"/>
<path d="M142.261 408.54C142.401 408.54 142.521 415.54 142.521 424.19C142.521 432.84 142.411 439.85 142.271 439.85C142.131 439.85 142.011 432.85 142.001 424.19C141.991 415.53 142.121 408.54 142.261 408.54Z" fill="#455A64"/>
<path d="M148 436.76C148 436.76 148 436.64 148.07 436.4C148.14 436.16 148.21 435.79 148.32 435.4C148.55 434.45 148.88 433.1 149.32 431.4C150.21 427.89 151.48 422.86 153.06 416.66C156.27 404.19 160.69 387.02 165.58 368.06C166.58 364.23 167.58 360.48 168.48 356.89V357C165.23 340.44 161.98 325.95 159.41 315.62L156.41 303.48C156.06 302.08 155.79 300.98 155.59 300.21C155.51 299.85 155.44 299.57 155.39 299.36C155.379 299.26 155.379 299.16 155.39 299.06C155.431 299.15 155.465 299.244 155.49 299.34L155.73 300.18C155.95 300.95 156.25 302.04 156.64 303.43C157.41 306.26 158.51 310.38 159.82 315.54C162.48 325.85 165.82 340.34 169.06 356.9V357L166.17 368.17C161.17 387.12 156.74 404.27 153.49 416.73L149.59 431.43C149.13 433.14 148.76 434.48 148.51 435.43C148.38 435.87 148.29 436.21 148.21 436.43C148.156 436.549 148.085 436.661 148 436.76Z" fill="#455A64"/>
<path d="M127.051 439.52C126.911 439.52 126.791 408.06 126.791 369.26C126.791 330.46 126.911 299 127.051 299C127.191 299 127.311 330.45 127.311 369.26C127.311 408.07 127.201 439.52 127.051 439.52Z" fill="#455A64"/>
<path d="M134.401 201.55L150.401 202.34C150.571 200.48 150.711 193.28 150.711 193.28C150.711 193.28 157.371 192.5 157.711 185.87C158.051 179.24 157.461 163.99 157.461 163.99C153.759 162.219 149.652 161.471 145.563 161.822C141.475 162.174 137.556 163.613 134.211 165.99L133.211 166.71L134.401 201.55Z" fill="#E6BBAC"/>
<path d="M154.12 175.32C153.949 175.135 153.854 174.892 153.854 174.64C153.854 174.388 153.949 174.145 154.12 173.96C154.195 173.826 154.3 173.711 154.427 173.624C154.553 173.537 154.698 173.48 154.85 173.458C155.002 173.437 155.157 173.45 155.303 173.498C155.449 173.545 155.583 173.626 155.692 173.733C155.802 173.841 155.886 173.972 155.937 174.117C155.987 174.262 156.004 174.417 155.986 174.569C155.967 174.722 155.914 174.868 155.829 174.996C155.745 175.125 155.633 175.232 155.5 175.31C155.316 175.489 155.069 175.589 154.812 175.591C154.555 175.593 154.308 175.496 154.12 175.32Z" fill="#263238"/>
<path d="M157.18 173.87C157.07 173.98 156.44 173.46 155.53 173.42C154.62 173.38 153.94 173.83 153.84 173.7C153.74 173.57 153.9 173.45 154.2 173.24C154.601 172.971 155.079 172.841 155.56 172.87C156.04 172.887 156.501 173.063 156.87 173.37C157.14 173.61 157.23 173.82 157.18 173.87Z" fill="#263238"/>
<path d="M145.669 174.27C145.841 174.375 145.978 174.528 146.061 174.711C146.144 174.895 146.17 175.099 146.136 175.297C146.101 175.495 146.007 175.678 145.867 175.822C145.727 175.966 145.546 176.065 145.349 176.105C145.152 176.145 144.948 176.125 144.762 176.047C144.577 175.968 144.419 175.836 144.31 175.667C144.201 175.498 144.146 175.3 144.151 175.099C144.156 174.898 144.222 174.703 144.339 174.54C144.486 174.336 144.705 174.195 144.951 174.145C145.198 174.095 145.454 174.14 145.669 174.27Z" fill="#263238"/>
<path d="M147.241 174.3C147.131 174.41 146.501 173.89 145.591 173.85C144.681 173.81 143.991 174.26 143.901 174.14C143.811 174.02 143.961 173.88 144.261 173.67C144.66 173.406 145.134 173.276 145.612 173.3C146.091 173.323 146.549 173.498 146.921 173.8C147.201 174 147.291 174.26 147.241 174.3Z" fill="#263238"/>
<path d="M150.621 182C151.095 181.826 151.596 181.738 152.101 181.74C152.341 181.74 152.531 181.68 152.561 181.55C152.57 181.311 152.518 181.074 152.411 180.86C152.201 180.25 151.981 179.63 151.761 178.98C151.134 177.388 150.671 175.736 150.381 174.05C151.161 175.571 151.787 177.165 152.251 178.81C152.461 179.47 152.671 180.09 152.871 180.71C153.01 181.025 153.041 181.376 152.961 181.71C152.923 181.8 152.864 181.88 152.79 181.943C152.715 182.005 152.626 182.049 152.531 182.07C152.395 182.088 152.257 182.088 152.121 182.07C151.621 182.133 151.113 182.109 150.621 182Z" fill="#263238"/>
<path d="M147.609 182.87C146.679 182.27 150.179 184.36 152.039 184.34C151.713 184.805 151.239 185.146 150.694 185.307C150.15 185.469 149.567 185.441 149.039 185.23C147.069 184.43 147.609 182.87 147.609 182.87Z" fill="white"/>
<path d="M150.739 193.19C147.677 193.13 144.701 192.163 142.189 190.41C142.189 190.41 144.059 195.25 150.689 194.9L150.739 193.19Z" fill="#D88876"/>
<path d="M134.461 174C134.311 174 129.531 173.44 130.121 179.06C130.711 184.68 136.181 182.23 136.181 182.06C136.181 181.89 134.461 174 134.461 174Z" fill="#E6BBAC"/>
<path d="M134.251 180.31C134.251 180.31 134.161 180.39 134.001 180.49C133.778 180.612 133.517 180.644 133.271 180.58C132.885 180.386 132.557 180.093 132.32 179.731C132.083 179.37 131.945 178.952 131.921 178.52C131.86 178.04 131.905 177.552 132.051 177.09C132.087 176.909 132.166 176.74 132.281 176.595C132.395 176.451 132.543 176.336 132.711 176.26C132.82 176.218 132.94 176.216 133.05 176.255C133.16 176.293 133.252 176.369 133.311 176.47C133.411 176.62 133.381 176.74 133.411 176.74C133.441 176.74 133.521 176.64 133.411 176.41C133.368 176.275 133.28 176.158 133.161 176.08C132.992 175.983 132.792 175.951 132.601 175.99C132.373 176.063 132.168 176.193 132.005 176.368C131.842 176.543 131.727 176.757 131.671 176.99C131.483 177.501 131.421 178.05 131.491 178.59C131.517 179.093 131.69 179.577 131.989 179.982C132.287 180.388 132.698 180.696 133.171 180.87C133.326 180.899 133.486 180.892 133.638 180.851C133.791 180.809 133.932 180.734 134.051 180.63C134.251 180.45 134.271 180.32 134.251 180.31Z" fill="#D88876"/>
<path d="M156.54 164.4C157.345 164.142 158.041 163.624 158.519 162.927C158.997 162.23 159.229 161.394 159.18 160.55C159.1 159.709 158.792 158.905 158.29 158.225C157.788 157.545 157.11 157.015 156.33 156.69C155.546 156.375 154.704 156.229 153.86 156.262C153.015 156.295 152.187 156.505 151.43 156.88C151.164 155.652 150.47 154.558 149.472 153.795C148.473 153.032 147.236 152.649 145.981 152.715C144.726 152.782 143.536 153.292 142.623 154.156C141.71 155.02 141.135 156.181 141 157.43C140.81 156.16 139.34 155.43 138.06 155.43C137.417 155.381 136.772 155.479 136.172 155.716C135.573 155.954 135.035 156.324 134.6 156.8C134.185 157.291 133.966 157.919 133.987 158.561C134.007 159.204 134.265 159.816 134.71 160.28C133.263 160.125 131.81 160.509 130.63 161.36C130.051 161.793 129.59 162.364 129.288 163.021C128.986 163.677 128.852 164.399 128.9 165.12C128.974 165.836 129.271 166.51 129.748 167.048C130.225 167.586 130.859 167.961 131.56 168.12C132.04 168.21 132.63 168.22 132.9 168.63C133.025 168.877 133.077 169.155 133.05 169.43V174.19C133.493 174.026 133.981 174.039 134.415 174.225C134.848 174.411 135.194 174.757 135.38 175.19C135.735 176.064 135.849 177.017 135.71 177.95C136.13 178.56 137.16 178.35 137.59 177.75C137.954 177.107 138.104 176.365 138.02 175.63L137.93 167.97C138.311 168.171 138.738 168.272 139.169 168.262C139.599 168.252 140.021 168.132 140.392 167.914C140.764 167.696 141.074 167.386 141.292 167.014C141.51 166.642 141.63 166.221 141.64 165.79C142.194 166.297 142.854 166.674 143.572 166.894C144.29 167.114 145.048 167.172 145.791 167.063C146.534 166.954 147.243 166.681 147.867 166.263C148.492 165.846 149.015 165.295 149.4 164.65C150.182 165.287 151.039 165.828 151.95 166.26C152.877 166.682 153.928 166.746 154.9 166.44C155.378 166.274 155.794 165.965 156.093 165.556C156.391 165.147 156.558 164.656 156.57 164.15L156.23 163.87" fill="#263238"/>
<path d="M209.46 220.51C208.378 220.51 207.321 220.831 206.421 221.432C205.522 222.033 204.821 222.887 204.407 223.887C203.993 224.886 203.884 225.986 204.095 227.047C204.306 228.108 204.827 229.083 205.592 229.848C206.357 230.613 207.332 231.134 208.393 231.345C209.454 231.556 210.554 231.448 211.554 231.034C212.553 230.62 213.407 229.919 214.008 229.019C214.609 228.12 214.93 227.062 214.93 225.98C214.932 225.262 214.791 224.55 214.517 223.885C214.242 223.221 213.839 222.618 213.331 222.109C212.823 221.601 212.219 221.198 211.555 220.924C210.891 220.65 210.179 220.509 209.46 220.51ZM209.46 224.99C209.15 224.99 208.846 224.898 208.588 224.726C208.33 224.553 208.129 224.308 208.01 224.021C207.891 223.734 207.86 223.419 207.92 223.114C207.981 222.809 208.131 222.53 208.35 222.31C208.57 222.091 208.849 221.941 209.154 221.88C209.458 221.82 209.774 221.851 210.061 221.97C210.348 222.089 210.593 222.29 210.766 222.548C210.938 222.806 211.03 223.11 211.03 223.42C211.033 223.628 210.994 223.833 210.916 224.026C210.839 224.218 210.723 224.393 210.577 224.54C210.431 224.687 210.257 224.803 210.065 224.883C209.873 224.962 209.668 225.002 209.46 225V224.99Z" fill="#FF6D38"/>
<path d="M207.65 231.05V240.88C207.65 240.88 209.83 241.88 209.71 242.01C209.59 242.14 211.28 240.88 211.28 240.88V239.7L210.28 238.7L211.28 237.79L210.28 236.54L211.28 235.43L210.16 234.17L211.28 233.04V231.04L207.65 231.05Z" fill="#FF6D38"/>
<path d="M215.55 211.76L209.3 206.17L203 211.84L204.86 212.13L205.02 217.86L213.53 218.01L213.28 212.01L215.55 211.76ZM209.25 216.94C209.056 216.925 208.871 216.853 208.718 216.734C208.564 216.615 208.449 216.454 208.385 216.271C208.322 216.087 208.313 215.889 208.36 215.701C208.407 215.512 208.508 215.342 208.651 215.21C208.793 215.078 208.971 214.99 209.162 214.958C209.354 214.925 209.551 214.949 209.729 215.027C209.907 215.104 210.059 215.232 210.165 215.394C210.272 215.556 210.329 215.746 210.33 215.94C210.33 216.079 210.302 216.216 210.247 216.343C210.192 216.469 210.111 216.583 210.009 216.677C209.908 216.771 209.788 216.843 209.657 216.889C209.527 216.934 209.388 216.951 209.25 216.94Z" fill="#263238"/>
<path d="M210.091 216.57C210.091 216.57 209.901 216.62 209.601 216.62C209.182 216.588 208.761 216.653 208.371 216.81C207.802 217.023 207.308 217.398 206.951 217.89C206.517 218.492 206.321 219.233 206.401 219.97C206.488 220.705 206.844 221.382 207.401 221.87C207.856 222.275 208.419 222.539 209.021 222.63C209.601 222.666 210.184 222.619 210.751 222.49C210.511 222.694 210.232 222.844 209.93 222.932C209.629 223.02 209.312 223.043 209.001 223C208.303 222.955 207.637 222.689 207.101 222.24C206.43 221.684 206.002 220.887 205.911 220.02C205.821 219.155 206.068 218.288 206.601 217.6C207.025 217.046 207.618 216.646 208.291 216.46C208.731 216.321 209.201 216.304 209.651 216.41C209.931 216.48 210.101 216.54 210.091 216.57Z" fill="#455A64"/>
<path d="M212.081 221.18C211.951 221.11 212.261 220.4 212.211 219.52C212.161 218.64 211.831 217.97 211.931 217.88C212.031 217.79 212.701 218.43 212.731 219.49C212.761 220.55 212.191 221.27 212.081 221.18Z" fill="#455A64"/>
<path d="M193.66 213.19C194.28 211.352 195.073 209.578 196.03 207.89C196.896 206.551 198.148 205.505 199.62 204.89C201.54 204.16 203.68 204.45 205.72 204.75L210.64 205.48C211.31 205.58 212.16 205.89 212.14 206.56C212.108 206.755 212.018 206.936 211.883 207.081C211.748 207.225 211.573 207.326 211.38 207.37C210.987 207.445 210.583 207.445 210.19 207.37C209.103 207.232 208.004 207.199 206.91 207.27C206.13 207.32 205.16 207.6 205.03 208.37C204.9 209.14 205.65 209.65 206.34 209.67C207.041 209.622 207.714 209.376 208.28 208.96L210.21 207.82C210.55 207.553 210.98 207.427 211.41 207.47C212.12 207.63 212.29 208.65 211.91 209.27C211.459 209.847 210.89 210.321 210.24 210.66C207.76 212.34 206.61 215.06 205.47 218.66" fill="#E6BBAC"/>
<path d="M193.71 212.43L182.71 240.79L171.27 214.32C167.69 201.51 151.87 200.67 151.87 200.67L136.22 198.67C130.59 196.38 121.47 198.29 117.9 200.26C113.35 202.76 109.31 210.45 108.41 216.12C108.41 216.12 92.6502 256.87 95.3402 261.12C98.0302 265.37 114.86 282 114.86 282L112.51 290.58L139.29 292.27L142 281.7L142.32 293.01L167.5 294.78C166.4 284.83 164.62 274.83 164.14 271.98L162.14 242.79L162.4 236.79L162.64 236.17C165 240.12 167.97 245.17 171.64 251.65C179 264.65 186.43 261.33 190.79 256.11C192.649 253.722 194.05 251.009 194.92 248.11L205.75 217.67L193.71 212.43ZM117 261.09C117 261.25 114.3 256.28 114.3 256.28L118.24 243.28C118.24 243.28 117 260.94 117 261.09Z" fill="#FF6D38"/>
<path d="M134.17 199L142.62 231.45L151.38 200.98L150.41 200.9L150.64 196.89L134.17 194.92V199Z" fill="white"/>
<path d="M133.72 199.31C133.743 199.456 133.743 199.604 133.72 199.75C133.66 200.08 133.59 200.5 133.5 201C133.29 202.15 132.99 203.72 132.62 205.65C132.25 207.58 131.76 210.03 131.23 212.71C130.98 214.02 130.6 215.53 131.34 216.77C132.08 218.01 133.62 218.61 135.14 219.12L135.43 219.22L135.27 219.48C134.06 221.59 134.16 224.48 135.05 226.97C135.635 228.553 136.323 230.097 137.11 231.59C137.85 233.083 138.567 234.527 139.26 235.92C140.62 238.7 141.89 241.27 143.02 243.55L142.62 243.65C142.62 239.98 142.62 236.95 142.62 234.76C142.62 233.76 142.62 232.93 142.62 232.31C142.597 232.024 142.597 231.736 142.62 231.45C142.681 231.733 142.708 232.021 142.7 232.31C142.7 232.93 142.75 233.74 142.79 234.76C142.84 236.94 142.92 239.97 143.01 243.64V244.56L142.59 243.74C141.45 241.46 140.16 238.9 138.76 236.14C138.07 234.75 137.35 233.3 136.6 231.82C135.801 230.305 135.102 228.738 134.51 227.13C133.59 224.51 133.51 221.52 134.79 219.23L134.93 219.6C134.147 219.352 133.387 219.034 132.66 218.65C131.929 218.275 131.314 217.708 130.88 217.01C130.494 216.32 130.33 215.527 130.41 214.74C130.477 214.026 130.594 213.318 130.76 212.62C131.33 209.95 131.83 207.62 132.26 205.62C132.69 203.62 133.03 202.14 133.26 201C133.37 200.5 133.47 200.09 133.55 199.76C133.588 199.604 133.645 199.452 133.72 199.31Z" fill="#263238"/>
<path d="M152.91 201.18C153.062 201.674 153.175 202.179 153.25 202.69C153.43 203.69 153.68 205.1 153.95 206.9C154.22 208.7 154.54 210.83 154.73 213.27C154.73 213.88 154.81 214.5 154.79 215.16C154.795 215.875 154.578 216.574 154.17 217.16C153.296 218.299 152.156 219.206 150.85 219.8V219.36C151.306 219.739 151.695 220.192 152 220.7C152.08 220.82 152.15 220.95 152.22 221.08C152.263 221.192 152.283 221.311 152.28 221.43V221.67C152.22 221.98 152.14 222.26 152.06 222.55C151.06 225.68 149.82 228.55 148.73 231.14C147.64 233.73 146.6 236.07 145.73 238.01C144.86 239.95 144.13 241.53 143.62 242.61L143.01 243.85C142.87 244.13 142.79 244.27 142.77 244.26C142.793 244.1 142.844 243.944 142.92 243.8C143.06 243.46 143.23 243.04 143.43 242.53L145.43 237.87C146.27 235.87 147.25 233.54 148.33 230.95C149.41 228.36 150.61 225.47 151.6 222.4C151.684 222.135 151.751 221.864 151.8 221.59V221.41C151.794 221.384 151.794 221.357 151.8 221.33L151.59 220.97C151.321 220.523 150.984 220.121 150.59 219.78L150.27 219.51L150.63 219.33C151.856 218.784 152.931 217.946 153.76 216.89C154.54 215.89 154.29 214.53 154.27 213.34C154.12 210.93 153.83 208.78 153.61 206.98C153.39 205.18 153.2 203.83 153.06 202.76C152.959 202.239 152.909 201.71 152.91 201.18Z" fill="#263238"/>
<path d="M142 282.94C141.85 282.94 142 273.76 142.31 262.46C142.62 251.16 143 242 143.18 242C143.36 242 143.18 251.17 142.87 262.48C142.56 273.79 142.18 282.94 142 282.94Z" fill="#263238"/>
<path d="M146.111 250.19C146.051 250.19 146.381 249.82 146.921 250.07C147.105 250.147 147.259 250.281 147.361 250.453C147.462 250.624 147.506 250.824 147.486 251.022C147.466 251.22 147.383 251.407 147.249 251.554C147.114 251.701 146.936 251.802 146.741 251.84C146.551 251.91 146.343 251.916 146.149 251.857C145.955 251.798 145.786 251.677 145.667 251.513C145.548 251.348 145.486 251.15 145.49 250.947C145.495 250.745 145.565 250.549 145.691 250.39C146.031 249.91 146.481 250.02 146.451 250.08C146.421 250.14 146.161 250.21 146.011 250.57C145.969 250.661 145.947 250.76 145.947 250.86C145.947 250.96 145.969 251.059 146.011 251.15C146.073 251.241 146.164 251.308 146.27 251.341C146.375 251.373 146.488 251.37 146.591 251.33C146.7 251.313 146.8 251.261 146.876 251.181C146.951 251.102 146.999 250.999 147.011 250.89C147.007 250.791 146.98 250.693 146.931 250.606C146.882 250.52 146.814 250.445 146.731 250.39C146.431 250.15 146.151 250.25 146.111 250.19Z" fill="#263238"/>
<path d="M146.221 260.58C146.151 260.58 146.481 260.22 147.031 260.46C147.188 260.534 147.323 260.648 147.423 260.79C147.523 260.932 147.585 261.098 147.601 261.27C147.608 261.499 147.536 261.723 147.398 261.905C147.259 262.087 147.063 262.216 146.841 262.27C146.627 262.332 146.399 262.32 146.192 262.236C145.986 262.153 145.813 262.003 145.701 261.81C145.627 261.651 145.596 261.474 145.611 261.298C145.627 261.123 145.689 260.954 145.791 260.81C146.141 260.32 146.581 260.43 146.551 260.5C146.521 260.57 146.261 260.63 146.111 260.99C146.069 261.081 146.047 261.18 146.047 261.28C146.047 261.381 146.069 261.48 146.111 261.57C146.181 261.654 146.273 261.716 146.377 261.749C146.481 261.782 146.592 261.784 146.698 261.756C146.803 261.727 146.898 261.669 146.971 261.589C147.044 261.508 147.093 261.408 147.111 261.3C147.106 261.201 147.078 261.105 147.029 261.018C146.981 260.931 146.913 260.857 146.831 260.8C146.531 260.54 146.251 260.65 146.221 260.58Z" fill="#263238"/>
<path d="M145.77 272.34C145.71 272.34 146.03 271.98 146.58 272.22C146.738 272.292 146.874 272.403 146.976 272.544C147.077 272.684 147.141 272.848 147.16 273.02C147.166 273.25 147.093 273.475 146.953 273.657C146.812 273.839 146.614 273.967 146.39 274.02C146.176 274.081 145.947 274.069 145.741 273.986C145.534 273.903 145.362 273.753 145.25 273.56C145.175 273.4 145.144 273.224 145.16 273.048C145.176 272.872 145.238 272.704 145.34 272.56C145.69 272.07 146.14 272.18 146.1 272.25C146.06 272.32 145.81 272.37 145.66 272.74C145.618 272.831 145.596 272.93 145.596 273.03C145.596 273.13 145.618 273.229 145.66 273.32C145.728 273.407 145.821 273.471 145.927 273.503C146.032 273.535 146.145 273.534 146.25 273.5C146.359 273.48 146.458 273.425 146.534 273.344C146.609 273.263 146.657 273.16 146.67 273.05C146.661 272.951 146.63 272.855 146.58 272.768C146.53 272.682 146.461 272.608 146.38 272.55C146.08 272.3 145.8 272.41 145.77 272.34Z" fill="#263238"/>
<path d="M151.38 232.6H158.74V231.45H150.99L151.38 232.6Z" fill="#263238"/>
<path d="M203.64 223.29C201.6 222.606 199.62 221.756 197.72 220.75C195.743 219.903 193.837 218.9 192.02 217.75C194.058 218.439 196.038 219.292 197.94 220.3C199.917 221.141 201.823 222.141 203.64 223.29Z" fill="#455A64"/>
<path d="M193.66 215.54C193.66 215.54 193.72 215.21 194.16 215.05C194.423 214.942 194.717 214.942 194.98 215.05C195.15 215.133 195.291 215.265 195.384 215.429C195.476 215.593 195.517 215.782 195.5 215.97C195.502 216.167 195.435 216.359 195.311 216.512C195.187 216.665 195.013 216.771 194.82 216.81C194.663 216.829 194.504 216.797 194.365 216.72C194.227 216.643 194.117 216.524 194.05 216.38C194.001 216.293 193.975 216.195 193.975 216.095C193.975 215.995 194.001 215.897 194.05 215.81C194.13 215.69 194.21 215.68 194.23 215.7C194.25 215.72 194.17 215.95 194.38 216.18C194.59 216.41 194.97 216.41 195 215.94C195.03 215.47 194.6 215.32 194.27 215.37C193.94 215.42 193.72 215.59 193.66 215.54Z" fill="#455A64"/>
<path d="M182.14 246.74C182.003 245.664 182.044 244.573 182.26 243.51C182.304 242.426 182.523 241.355 182.91 240.34C182.995 242.501 182.735 244.661 182.14 246.74Z" fill="#263238"/>
<path d="M184.69 246.43C184.135 245.562 183.723 244.61 183.47 243.61C183.063 242.658 182.819 241.644 182.75 240.61C183.726 242.421 184.382 244.387 184.69 246.42V246.43Z" fill="#263238"/>
<path d="M144.661 198.28C144.298 199.69 143.663 201.015 142.791 202.18L144.261 206.18H145.511L146.571 202.34C146.571 202.34 145.831 201.75 145.291 198.16L144.661 198.28Z" fill="#455A64"/>
<path d="M150.361 200.81C150.361 200.81 150.241 201.08 149.921 201.5C149.478 202.15 148.819 202.621 148.061 202.83C147.778 202.898 147.484 202.901 147.199 202.839C146.915 202.776 146.649 202.65 146.421 202.47C145.981 201.992 145.686 201.399 145.571 200.76C145.183 199.381 144.961 197.961 144.911 196.53L145.411 196.59C145.171 197.41 144.961 198.28 144.661 199.15C144.377 200.022 144.005 200.863 143.551 201.66C143.309 202.074 142.965 202.418 142.551 202.66C142.154 202.889 141.698 202.994 141.241 202.96C140.463 202.877 139.705 202.66 139.001 202.32C138.39 202.031 137.802 201.696 137.241 201.32C136.437 200.796 135.663 200.228 134.921 199.62C134.628 199.423 134.362 199.187 134.131 198.92C134.191 198.84 135.391 199.75 137.431 201C137.989 201.335 138.57 201.629 139.171 201.88C139.832 202.179 140.538 202.369 141.261 202.44C141.637 202.453 142.01 202.359 142.335 202.17C142.661 201.981 142.926 201.703 143.101 201.37C143.509 200.603 143.844 199.8 144.101 198.97C144.381 198.12 144.601 197.26 144.851 196.43C144.859 196.398 144.874 196.367 144.894 196.34C144.914 196.314 144.939 196.291 144.968 196.275C144.997 196.258 145.029 196.247 145.062 196.243C145.095 196.239 145.129 196.241 145.161 196.25C145.213 196.266 145.259 196.298 145.293 196.34C145.327 196.383 145.347 196.435 145.351 196.49C145.387 197.887 145.582 199.276 145.931 200.63C146.018 201.193 146.257 201.722 146.621 202.16C146.802 202.307 147.013 202.412 147.24 202.468C147.466 202.523 147.702 202.527 147.931 202.48C148.633 202.311 149.262 201.918 149.721 201.36C149.91 201.151 150.125 200.966 150.361 200.81Z" fill="#E0E0E0"/>
<path d="M144.261 206.17C144.051 206.69 140.121 221.85 140.121 221.85L142.611 231.45L147.221 215.45C147.221 215.45 145.661 205.66 145.591 205.92C145.521 206.18 144.261 206.17 144.261 206.17Z" fill="#455A64"/>
<path d="M129.859 277.17C127.827 277.569 125.743 277.637 123.689 277.37C121.632 277.267 119.605 276.828 117.689 276.07C117.689 275.92 120.409 276.55 123.769 276.85C127.129 277.15 129.849 277 129.859 277.17Z" fill="#263238"/>
<path d="M164.589 279.24C163.175 279.412 161.744 279.412 160.329 279.24C158.907 279.251 157.49 279.083 156.109 278.74C157.521 278.571 158.948 278.571 160.359 278.74C161.784 278.739 163.204 278.907 164.589 279.24Z" fill="#263238"/>
<path d="M118.4 229C118.428 229.182 118.428 229.368 118.4 229.55C118.4 229.97 118.42 230.5 118.46 231.14C118.46 232.52 118.53 234.51 118.54 236.98C118.54 241.91 118.41 248.72 118.01 256.23C117.61 263.74 117.01 270.53 116.45 275.43C116.18 277.88 115.93 279.86 115.74 281.23C115.65 281.86 115.57 282.38 115.51 282.8C115.489 282.983 115.452 283.163 115.4 283.34C115.372 283.158 115.372 282.972 115.4 282.79C115.4 282.37 115.48 281.84 115.53 281.2C115.66 279.76 115.85 277.79 116.07 275.4C116.52 270.49 117.07 263.71 117.48 256.2C117.89 248.69 118.07 241.9 118.16 236.97C118.16 234.56 118.23 232.59 118.25 231.14C118.25 230.5 118.25 229.97 118.25 229.55C118.272 229.36 118.322 229.174 118.4 229Z" fill="#263238"/>
<path d="M114.291 256.77C114.825 253.964 115.527 251.193 116.391 248.47C117.093 245.696 117.965 242.968 119.001 240.3C118.473 243.11 117.775 245.885 116.911 248.61C116.204 251.381 115.329 254.106 114.291 256.77Z" fill="#263238"/>
<path d="M117.39 262.05C116.136 260.322 115.023 258.496 114.06 256.59C112.943 254.767 111.98 252.853 111.18 250.87C112.437 252.596 113.551 254.422 114.51 256.33C115.626 258.154 116.59 260.067 117.39 262.05Z" fill="#263238"/>
</svg>
