<svg width="500" height="500" viewBox="0 0 500 500" fill="none" xmlns="http://www.w3.org/2000/svg">
<path d="M214.74 88.84H41.1504V244.144H214.74V88.84Z" fill="#FAFAFA"/>
<path d="M214.741 244.145C214.741 244.145 214.712 243.149 214.697 241.262C214.687 239.356 214.672 236.57 214.652 232.941C214.629 225.649 214.594 214.991 214.55 201.416C214.501 174.281 214.432 135.506 214.348 88.841L214.741 89.234C164.748 89.254 105.086 89.278 41.1655 89.304H41.1495L41.6135 88.84C41.5935 145.342 41.5745 198.509 41.5575 244.144L41.1495 243.736C92.9355 243.821 136.279 243.893 166.703 243.942C181.925 243.988 193.909 244.025 202.115 244.049C206.203 244.07 209.344 244.086 211.49 244.097C212.54 244.107 213.343 244.115 213.907 244.12C214.452 244.129 214.741 244.145 214.741 244.145C214.741 244.145 214.483 244.16 213.954 244.168C213.4 244.173 212.612 244.181 211.581 244.191C209.453 244.202 206.339 244.218 202.286 244.239C194.102 244.264 182.148 244.301 166.966 244.347C136.478 244.397 93.0435 244.468 41.1495 244.553L40.7415 244.554V244.145C40.7255 198.511 40.7065 145.343 40.6855 88.841V88.377H41.1495H41.1655C105.086 88.403 164.748 88.427 214.741 88.447H215.136L215.135 88.841C215.051 135.61 214.981 174.47 214.933 201.665C214.889 215.202 214.855 225.831 214.831 233.102C214.811 236.699 214.796 239.46 214.786 241.348C214.77 243.207 214.741 244.145 214.741 244.145Z" fill="#E0E0E0"/>
<path d="M107.711 116.435C107.711 116.691 98.5744 116.899 87.3064 116.899C76.0334 116.899 66.8984 116.691 66.8984 116.435C66.8984 116.179 76.0334 115.971 87.3064 115.971C98.5744 115.971 107.711 116.179 107.711 116.435Z" fill="#E0E0E0"/>
<path d="M181.263 128.096C181.263 128.352 156.161 128.56 125.204 128.56C94.2357 128.56 69.1387 128.353 69.1387 128.096C69.1387 127.84 94.2347 127.632 125.204 127.632C156.162 127.632 181.263 127.84 181.263 128.096Z" fill="#E0E0E0"/>
<path d="M74.5113 147.848H67.1973V155.161H74.5113V147.848Z" fill="#E0E0E0"/>
<path d="M92.5122 147.848H85.1992V155.161H92.5122V147.848Z" fill="#E0E0E0"/>
<path d="M110.846 147.516H103.533V154.829H110.846V147.516Z" fill="#E0E0E0"/>
<path d="M128.516 147.848H121.203V155.161H128.516V147.848Z" fill="#E0E0E0"/>
<path d="M146.518 147.848H139.205V155.161H146.518V147.848Z" fill="#E0E0E0"/>
<path d="M164.52 147.848H157.207V155.161H164.52V147.848Z" fill="#E0E0E0"/>
<path d="M182.522 147.848H175.209V155.161H182.522V147.848Z" fill="#EBEBEB"/>
<path d="M74.5113 163.396H67.1973V170.709H74.5113V163.396Z" fill="#EBEBEB"/>
<path d="M92.5122 163.396H85.1992V170.709H92.5122V163.396Z" fill="#E0E0E0"/>
<path d="M110.515 163.396H103.201V170.709H110.515V163.396Z" fill="#EBEBEB"/>
<path d="M128.516 163.396H121.203V170.709H128.516V163.396Z" fill="#E0E0E0"/>
<path d="M146.518 163.396H139.205V170.709H146.518V163.396Z" fill="#E0E0E0"/>
<path d="M164.852 163.064H157.539V170.377H164.852V163.064Z" fill="#E0E0E0"/>
<path d="M182.522 163.396H175.209V170.709H182.522V163.396Z" fill="#E0E0E0"/>
<path d="M74.5113 178.944H67.1973V186.257H74.5113V178.944Z" fill="#E0E0E0"/>
<path d="M92.8443 178.611H85.5312V185.924H92.8443V178.611Z" fill="#E0E0E0"/>
<path d="M110.515 178.944H103.201V186.257H110.515V178.944Z" fill="#E0E0E0"/>
<path d="M128.516 178.944H121.203V186.257H128.516V178.944Z" fill="#EBEBEB"/>
<path d="M146.518 178.944H139.205V186.257H146.518V178.944Z" fill="#E0E0E0"/>
<path d="M164.52 178.944H157.207V186.257H164.52V178.944Z" fill="#E0E0E0"/>
<path d="M182.522 178.944H175.209V186.257H182.522V178.944Z" fill="#E0E0E0"/>
<path d="M74.5113 194.491H67.1973V201.805H74.5113V194.491Z" fill="#E0E0E0"/>
<path d="M92.5122 194.491H85.1992V201.805H92.5122V194.491Z" fill="#E0E0E0"/>
<path d="M110.515 194.491H103.201V201.805H110.515V194.491Z" fill="#E0E0E0"/>
<path d="M128.848 194.159H121.535V201.472H128.848V194.159Z" fill="#E0E0E0"/>
<path d="M146.518 194.491H139.205V201.805H146.518V194.491Z" fill="#E0E0E0"/>
<path d="M164.52 194.491H157.207V201.805H164.52V194.491Z" fill="#EBEBEB"/>
<path d="M182.522 194.491H175.209V201.805H182.522V194.491Z" fill="#E0E0E0"/>
<path d="M74.5113 210.039H67.1973V217.352H74.5113V210.039Z" fill="#E0E0E0"/>
<path d="M92.5122 210.039H85.1992V217.352H92.5122V210.039Z" fill="#EBEBEB"/>
<path d="M110.515 210.039H103.201V217.352H110.515V210.039Z" fill="#E0E0E0"/>
<path d="M128.516 210.039H121.203V217.352H128.516V210.039Z" fill="#E0E0E0"/>
<path d="M146.518 210.039H139.205V217.352H146.518V210.039Z" fill="#E0E0E0"/>
<path d="M164.852 209.707H157.539V217.02H164.852V209.707Z" fill="#E0E0E0"/>
<path d="M182.522 210.039H175.209V217.352H182.522V210.039Z" fill="#E0E0E0"/>
<path d="M410.771 51.8701L399.615 51.9303L399.915 107.439L411.071 107.379L410.771 51.8701Z" fill="#E0E0E0"/>
<path d="M331.856 52.0477L302.967 52.2008L303.129 82.8458L332.018 82.6927L331.856 52.0477Z" fill="#EBEBEB"/>
<path d="M360.612 51.8602L331.723 52.0162L331.888 82.6612L360.777 82.5052L360.612 51.8602Z" fill="#F5F5F5"/>
<path d="M303.009 60.649C322.207 60.807 341.453 60.696 360.649 60.384C361.044 60.378 361.041 59.772 360.645 59.77C341.447 59.664 322.201 59.758 303.006 60.123C302.668 60.129 302.67 60.646 303.009 60.649Z" fill="#E0E0E0"/>
<path d="M337.445 82.1505L284.959 82.434L285.094 107.407L337.58 107.124L337.445 82.1505Z" fill="#EBEBEB"/>
<path d="M389.683 81.8693L337.197 82.1527L337.332 107.126L389.818 106.842L389.683 81.8693Z" fill="#F5F5F5"/>
<path d="M284.99 89.3911C319.857 89.7861 354.847 89.4321 389.713 88.8741C390.108 88.8671 390.106 88.2621 389.71 88.2601C354.84 88.0761 319.849 88.0961 284.988 88.8651C284.649 88.8721 284.651 89.3871 284.99 89.3911Z" fill="#E0E0E0"/>
<path d="M468.707 107.418H265.361V116.365H468.707V107.418Z" fill="#E0E0E0"/>
<path d="M306.909 111.72H298.654V142.248H306.909V111.72Z" fill="#E0E0E0"/>
<path d="M430.136 111.72H421.881V142.248H430.136V111.72Z" fill="#E0E0E0"/>
<path d="M421.654 31.1705L410.498 31.2307L410.91 107.576L422.066 107.515L421.654 31.1705Z" fill="#EBEBEB"/>
<path d="M439.086 45.3858L421.752 45.4794L422.086 107.348L439.42 107.255L439.086 45.3858Z" fill="#F5F5F5"/>
<path d="M438.961 57.317C438.961 57.483 435.08 57.617 430.294 57.617C425.507 57.617 421.627 57.482 421.627 57.317C421.627 57.151 425.507 57.017 430.294 57.017C435.081 57.017 438.961 57.152 438.961 57.317Z" fill="#E0E0E0"/>
<path d="M438.961 54.718C438.961 54.884 435.08 55.018 430.294 55.018C425.507 55.018 421.627 54.884 421.627 54.718C421.627 54.552 425.507 54.418 430.294 54.418C435.081 54.418 438.961 54.552 438.961 54.718Z" fill="#E0E0E0"/>
<path d="M438.961 97.958C438.961 98.124 435.08 98.258 430.294 98.258C425.507 98.258 421.627 98.124 421.627 97.958C421.627 97.792 425.507 97.658 430.294 97.658C435.081 97.658 438.961 97.792 438.961 97.958Z" fill="#E0E0E0"/>
<path d="M438.961 95.359C438.961 95.525 435.08 95.659 430.294 95.659C425.507 95.659 421.627 95.525 421.627 95.359C421.627 95.193 425.507 95.059 430.294 95.059C435.081 95.059 438.961 95.193 438.961 95.359Z" fill="#E0E0E0"/>
<path d="M430.573 89.688C430.407 89.688 430.273 83.446 430.273 75.748C430.273 68.047 430.407 61.807 430.573 61.807C430.739 61.807 430.873 68.048 430.873 75.748C430.874 83.446 430.739 89.688 430.573 89.688Z" fill="#E0E0E0"/>
<path d="M458.016 60.5911H439.148V107.289H458.016V60.5911Z" fill="#EBEBEB"/>
<path d="M419.113 44.221C419.113 45.992 417.678 47.427 415.907 47.427C414.136 47.427 412.701 45.992 412.701 44.221C412.701 42.45 414.136 41.015 415.907 41.015C417.677 41.015 419.113 42.45 419.113 44.221Z" fill="#E0E0E0"/>
<path d="M416.898 53.0391H414.916V98.4551H416.898V53.0391Z" fill="#E0E0E0"/>
<path d="M74.2614 342.833C79.4944 340.133 85.6574 339.782 91.4674 340.742C94.5884 341.258 97.8424 342.192 99.9664 344.536C102.09 346.881 102.492 351.007 100.054 353.021C98.6024 354.22 96.5784 354.402 94.6954 354.381C90.1474 354.328 85.1004 353.527 81.4674 356.264C79.3944 357.825 78.0144 360.421 75.5354 361.189C73.1104 361.94 70.3744 360.509 69.0884 358.321C67.8024 356.132 67.7594 353.397 68.3594 350.93C68.3594 350.93 68.9904 345.553 74.2614 342.833Z" fill="#FF6D38"/>
<path d="M62.2733 319.688C65.4733 324.258 71.6933 322.745 74.5763 319.956C77.4603 317.166 78.6793 313.123 79.7883 309.267C82.3233 300.457 84.8793 291.215 82.9943 282.244C82.4303 279.562 81.4273 276.887 79.5433 274.897C77.6583 272.907 74.7603 271.723 72.1103 272.423C68.9743 273.252 67.0253 276.323 65.6173 279.245C61.4763 287.833 59.2843 297.354 59.2523 306.889C59.2363 311.342 59.7613 316.012 62.2733 319.688Z" fill="#FF6D38"/>
<path d="M53.4844 326.246C56.9594 322.122 57.6184 316.108 56.0724 310.942C54.5264 305.776 51.0334 301.381 47.0084 297.793C42.2884 293.586 36.7414 290.313 30.7774 288.216C28.4304 287.391 25.9544 286.74 23.4774 286.976C21.0004 287.212 18.5064 288.479 17.3514 290.682C15.6434 293.94 17.2814 297.892 19.0524 301.115C22.1734 306.795 25.7414 312.228 29.7134 317.35C32.9084 321.47 36.5694 325.533 41.4394 327.395C46.3094 329.257 51.3684 329.038 53.9494 325.66" fill="#FF6D38"/>
<path d="M62.0546 388.632C62.1146 388.636 62.2116 387.895 62.3436 386.555C62.4906 385.043 62.6756 383.145 62.8956 380.887C63.1596 378.502 63.5076 375.664 64.1706 372.573C64.8306 369.49 65.8646 366.149 67.1926 362.761C68.5676 359.393 70.2436 356.331 72.2036 353.883C74.1486 351.424 76.4116 349.644 78.5376 348.617C80.6566 347.57 82.5586 347.145 83.8716 346.956C85.1966 346.82 85.9386 346.715 85.9396 346.657C85.9406 346.598 85.1966 346.588 83.8356 346.624C82.4866 346.714 80.5076 347.056 78.2726 348.072C76.0316 349.066 73.6316 350.874 71.5906 353.384C69.5336 355.884 67.7966 359.013 66.3976 362.441C65.0466 365.889 64.0286 369.264 63.3976 372.413C62.7686 375.557 62.4806 378.427 62.2926 380.832C62.1126 383.239 62.0446 385.188 62.0116 386.535C61.9806 387.882 61.9966 388.629 62.0546 388.632Z" fill="#263238"/>
<path d="M62.4456 384.271C62.4746 384.27 62.4936 383.938 62.5016 383.307C62.4996 382.583 62.4976 381.671 62.4946 380.551C62.4876 378.16 62.4886 374.699 62.6176 370.425C62.8296 361.878 63.5656 352.679 64.9866 339.71C66.3326 327.515 68.1396 313.323 70.0456 304.097C70.4546 301.998 70.8666 300.11 71.2536 298.456C71.6226 296.798 71.9386 295.37 72.2436 294.213C72.5056 293.125 72.7186 292.238 72.8876 291.535C73.0256 290.92 73.0846 290.592 73.0566 290.584C73.0286 290.576 72.9136 290.887 72.7216 291.488C72.5116 292.181 72.2466 293.055 71.9216 294.129C71.5666 295.274 71.2026 296.694 70.7876 298.345C70.3546 299.992 69.9006 301.876 69.4526 303.971C67.5666 312.332 65.5686 324.017 64.1336 337.017C62.7096 350.013 62.0676 361.846 62.0106 370.414C61.9596 374.698 62.0506 378.166 62.1606 380.56C62.2286 381.679 62.2846 382.59 62.3286 383.314C62.3766 383.943 62.4156 384.273 62.4456 384.271Z" fill="#263238"/>
<path d="M62.5035 361.449C62.5635 361.447 62.5525 360.424 62.4835 358.57C62.3775 356.72 62.1235 354.046 61.6015 350.771C61.0495 347.504 60.2775 343.624 59.0655 339.408C58.5405 337.481 57.3055 332.863 54.3135 325.962C50.3725 316.612 45.0175 308.969 40.3595 304.234C39.2665 302.977 38.0505 302.071 37.0765 301.183C36.5725 300.757 36.1275 300.333 35.6745 299.996C35.2185 299.682 34.7945 299.389 34.4005 299.118C32.8675 298.07 32.0085 297.517 31.9765 297.566C31.8385 297.753 35.4105 299.855 39.9205 304.653C44.4115 309.441 49.6175 317.032 53.5265 326.303C55.7065 331.332 57.2265 335.817 58.3045 339.625C59.5505 343.8 60.3785 347.641 61.0035 350.875C61.5975 354.117 61.9425 356.764 62.1495 358.597C62.3215 360.433 62.4445 361.451 62.5035 361.449Z" fill="#263238"/>
<path d="M40.4453 401.708L42.7313 433.038H82.9813L85.2683 401.708H40.4453Z" fill="#263238"/>
<path d="M90.0696 389.358H36.5566V401.707H90.0696V389.358Z" fill="#263238"/>
<path d="M36.5566 431.839V435.263H39.0706H89.1856V431.839H36.5566Z" fill="#455A64"/>
<path d="M41.5353 441.287L39.0703 435.263H87.2683L84.3933 441.287H41.5353Z" fill="#455A64"/>
<path d="M84.5213 411.947C84.5303 411.954 84.4663 412.052 84.3333 412.235C84.1733 412.447 83.9753 412.709 83.7323 413.033C83.1603 413.765 82.3753 414.77 81.3873 416.034L81.2833 416.167L81.1823 416.028C79.7083 413.99 77.7393 411.266 75.4223 408.061H75.7533C74.0393 410.487 72.1313 413.19 70.0823 416.092L69.9043 416.344L69.7053 416.107C67.6123 413.617 65.3393 410.912 62.9793 408.104L63.3673 408.099C63.2503 408.246 63.1243 408.405 62.9973 408.564C60.9113 411.179 58.8923 413.71 56.9833 416.104L56.7823 416.355L56.5973 416.093C54.5553 413.204 52.6473 410.505 50.9233 408.064L51.2533 408.08C48.4573 411.266 46.0853 413.968 44.2653 416.042L44.1413 416.183L44.0463 416.024C43.1253 414.476 42.3903 413.242 41.8583 412.348C41.6293 411.949 41.4443 411.627 41.2973 411.369C41.1743 411.145 41.1153 411.027 41.1263 411.02C41.1373 411.013 41.2163 411.119 41.3603 411.33C41.5233 411.578 41.7283 411.888 41.9813 412.272C42.5403 413.15 43.3113 414.362 44.2783 415.881L44.0593 415.863C45.8503 413.764 48.1843 411.029 50.9353 407.804L51.1083 407.601L51.2653 407.82C53.0053 410.249 54.9303 412.936 56.9903 415.812L56.6053 415.802C58.5103 413.405 60.5243 410.87 62.6053 408.251C62.7323 408.092 62.8583 407.933 62.9753 407.786L63.1663 407.546L63.3633 407.781C65.7163 410.594 67.9833 413.304 70.0703 415.799L69.6943 415.814C71.7643 412.927 73.6913 410.238 75.4223 407.824L75.5903 407.59L75.7543 407.824C78.0233 411.065 79.9503 413.817 81.3933 415.878L81.1883 415.872C82.2163 414.64 83.0323 413.661 83.6273 412.948C83.8923 412.642 84.1073 412.393 84.2803 412.192C84.4293 412.023 84.5113 411.94 84.5213 411.947Z" fill="#E0E0E0"/>
<path d="M85.8273 401.501C85.8273 401.64 75.7423 401.752 63.3043 401.752C50.8623 401.752 40.7793 401.64 40.7793 401.501C40.7793 401.363 50.8623 401.251 63.3043 401.251C75.7423 401.25 85.8273 401.362 85.8273 401.501Z" fill="#455A64"/>
<path d="M87.8613 435.6C87.8613 435.738 76.9003 435.851 63.3833 435.851C49.8613 435.851 38.9023 435.739 38.9023 435.6C38.9023 435.462 49.8603 435.35 63.3833 435.35C76.9013 435.349 87.8613 435.461 87.8613 435.6Z" fill="#263238"/>
<path d="M471.75 441.855H347.973V324.237C347.973 315.883 354.745 309.111 363.099 309.111H456.625C464.979 309.111 471.751 315.883 471.751 324.237V441.855H471.75Z" fill="#455A64"/>
<path d="M461.344 309.788C461.488 309.788 461.604 339.34 461.604 375.785C461.604 412.243 461.487 441.788 461.344 441.788C461.2 441.788 461.084 412.243 461.084 375.785C461.084 339.34 461.2 309.788 461.344 309.788Z" fill="#263238"/>
<path d="M400.364 165.002C411.704 181.168 418.315 200.611 419.178 220.339C419.76 233.639 417.97 247.813 424.282 259.535C433.337 276.351 452.931 275.78 458.93 293.912C461.539 301.798 456.729 319.154 455.432 327.359C453.958 336.685 459.662 344.516 458.189 353.841C456.838 362.39 450.441 368.491 442.756 372.472C435.92 376.013 429.599 376.107 422.486 373.162C408.933 367.552 397.653 361.629 387.997 350.588C374.44 335.087 370.345 313.623 368.029 293.161C362.922 248.048 363.957 202.244 371.098 157.408" fill="#263238"/>
<path d="M429.347 375.068C429.347 375.068 429.494 375.022 429.784 374.959C430.073 374.89 430.51 374.823 431.065 374.655C432.18 374.36 433.816 373.828 435.748 372.783C437.668 371.744 439.941 370.215 441.933 367.823C442.917 366.631 443.818 365.203 444.351 363.535C444.86 361.865 445.09 359.988 445.196 358.04C445.389 354.12 444.791 349.831 443.9 345.298C443.028 340.761 441.845 335.917 441.56 330.675C441.424 328.063 441.537 325.347 442.126 322.657C442.683 319.96 443.657 317.326 444.668 314.678C445.685 312.031 446.757 309.356 447.533 306.554C448.267 303.757 448.718 300.788 448.226 297.855C447.8 294.919 446.596 292.172 444.982 289.772C443.37 287.358 441.367 285.276 439.311 283.347C435.179 279.491 430.708 276.307 426.888 272.731C419.18 265.632 413.989 257.554 410.709 250.394C409.074 246.801 407.819 243.445 406.984 240.421C406.504 238.927 406.23 237.49 405.887 236.192C405.63 234.876 405.395 233.673 405.183 232.588C404.865 230.404 404.633 228.708 404.57 227.547C404.527 226.987 404.493 226.551 404.468 226.231C404.448 225.934 404.451 225.781 404.451 225.781C404.451 225.781 404.484 225.931 404.521 226.226C404.558 226.544 404.609 226.979 404.674 227.536C404.771 228.692 405.035 230.38 405.383 232.552C405.608 233.631 405.857 234.827 406.13 236.135C406.487 237.425 406.773 238.853 407.265 240.337C408.123 243.34 409.396 246.672 411.044 250.237C414.35 257.342 419.542 265.347 427.214 272.376C431.012 275.916 435.491 279.093 439.66 282.972C441.734 284.914 443.765 287.019 445.413 289.481C447.062 291.928 448.304 294.754 448.743 297.778C449.248 300.802 448.782 303.851 448.035 306.688C447.246 309.531 446.165 312.22 445.147 314.86C444.134 317.501 443.166 320.11 442.615 322.759C442.032 325.399 441.914 328.067 442.042 330.65C442.309 335.832 443.47 340.664 444.326 345.215C445.201 349.763 445.784 354.091 445.566 358.057C445.444 360.035 445.205 361.912 444.668 363.637C444.105 365.353 443.171 366.803 442.159 368.008C440.11 370.424 437.796 371.939 435.844 372.961C433.88 373.987 432.222 374.491 431.092 374.755C429.959 375.026 429.347 375.068 429.347 375.068Z" fill="#455A64"/>
<path d="M243.164 410.801L291.152 388.008C291.152 388.008 309.842 297.263 313.375 290.448C316.909 283.633 331.681 277.745 331.681 277.745L329.206 400.625L324.822 428.97L257.143 435.382L243.164 410.801Z" fill="#FF6D38"/>
<path d="M202.205 432.298C201.94 432.288 200.605 433.124 201.724 435.23C202.843 437.337 210.967 444.305 213.358 441.878C215.75 439.451 212.097 436.489 212.097 436.489L202.205 432.298Z" fill="#FFBE9D"/>
<path d="M212.443 436.584C212.443 436.584 222.255 437.821 226.034 439.258C230.138 440.817 235.135 439.755 238.498 437.475C241.861 435.196 243.822 433.137 243.822 433.137L256.341 432.94C256.341 432.94 262.351 426.711 258.783 417.428C258.161 415.809 257.489 414.528 255.915 412.542C254.428 410.934 252.08 409.63 248.022 408.929L233.149 412.141C233.149 412.141 210.106 410.494 206.011 412.431C206.011 412.431 200.863 415.485 199.269 416.765C198.669 417.247 196.844 423.111 200.592 426.159C200.592 426.159 197.329 428.754 199.097 431.081L199.944 432.114C199.944 432.114 197.75 434.954 198.876 436.19C200.002 437.426 209.862 443.205 213.388 441.827C216.914 440.449 213.996 437.182 212.443 436.584Z" fill="#FFBE9D"/>
<path d="M203.058 421.092C203.07 421.065 203.5 421.231 204.277 421.527C205.054 421.823 206.182 422.243 207.597 422.693C208.304 422.918 209.084 423.148 209.928 423.37C210.768 423.6 211.687 423.78 212.639 424.089C213.58 424.402 214.596 424.845 215.341 425.719C216.047 426.561 216.527 427.818 216.063 429.01C215.837 429.595 215.363 430.041 214.846 430.318C214.32 430.59 213.755 430.718 213.207 430.775C212.102 430.88 211.063 430.74 210.08 430.61C208.114 430.31 206.401 429.783 204.995 429.285C203.586 428.787 202.475 428.316 201.708 427.989C200.943 427.659 200.527 427.46 200.537 427.434C200.548 427.407 200.984 427.556 201.767 427.841C202.551 428.122 203.676 428.551 205.088 429.011C206.497 429.471 208.201 429.963 210.134 430.237C211.098 430.356 212.131 430.482 213.164 430.377C213.679 430.322 214.195 430.198 214.655 429.96C215.104 429.716 215.498 429.341 215.684 428.857C216.075 427.881 215.674 426.742 215.034 425.979C214.381 425.2 213.426 424.758 212.52 424.45C211.602 424.141 210.683 423.946 209.838 423.7C208.992 423.462 208.212 423.214 207.506 422.97C206.094 422.482 204.977 422.018 204.216 421.676C203.455 421.333 203.047 421.117 203.058 421.092Z" fill="#EB996E"/>
<path d="M203.942 413.998C203.954 413.971 204.382 414.138 205.154 414.438C205.927 414.735 207.046 415.165 208.45 415.633C209.853 416.102 211.541 416.609 213.441 417.064C214.378 417.304 215.46 417.496 216.351 418.241C216.787 418.609 217.118 419.151 217.205 419.746C217.299 420.338 217.193 420.949 216.951 421.496C216.458 422.616 215.42 423.333 214.383 423.682C213.333 424.042 212.241 424.066 211.255 423.93C209.269 423.632 207.635 422.92 206.225 422.474C204.876 422.002 203.759 421.611 202.909 421.313C202.129 421.03 201.702 420.861 201.711 420.834C201.72 420.807 202.164 420.925 202.959 421.161C203.819 421.427 204.95 421.776 206.316 422.198C207.737 422.611 209.394 423.292 211.303 423.555C212.254 423.676 213.277 423.642 214.253 423.302C215.215 422.974 216.147 422.311 216.577 421.33C217.029 420.363 216.88 419.174 216.088 418.542C215.325 417.888 214.289 417.672 213.352 417.429C211.443 416.95 209.754 416.411 208.356 415.905C206.957 415.4 205.85 414.927 205.093 414.584C204.337 414.239 203.931 414.022 203.942 413.998Z" fill="#EB996E"/>
<path d="M208.669 416.025C208.55 416.024 208.485 415.122 208.223 414.053C207.97 412.982 207.618 412.149 207.724 412.094C207.816 412.039 208.353 412.828 208.622 413.957C208.896 415.085 208.776 416.032 208.669 416.025Z" fill="#EB996E"/>
<path d="M243.299 416.319L234.551 412.948C234.551 412.948 210.26 401.611 209.849 402.225C209.439 402.839 208.122 402.772 208.41 405.734C208.698 408.695 222.854 414.666 223.301 415.693C223.749 416.72 223.002 421.907 228.23 425.622C233.458 429.338 237.231 429.418 237.231 429.418" fill="#FFBE9D"/>
<path d="M237.23 429.418C237.23 429.425 237.159 429.43 237.022 429.425C236.885 429.419 236.681 429.404 236.417 429.366C235.888 429.292 235.112 429.134 234.145 428.821C233.178 428.51 232.024 428.034 230.755 427.345C229.499 426.641 228.071 425.804 226.727 424.552C225.381 423.314 224.28 421.528 223.745 419.438C223.464 418.4 223.365 417.271 223.228 416.172C223.211 416.032 223.18 415.908 223.142 415.796C223.113 415.72 223.023 415.65 222.913 415.562C222.696 415.399 222.449 415.25 222.203 415.102C221.706 414.809 221.188 414.529 220.662 414.247C218.555 413.125 216.313 411.99 214.051 410.69C212.92 410.04 211.783 409.35 210.678 408.563C210.13 408.163 209.588 407.741 209.095 407.242C208.846 406.996 208.62 406.715 208.428 406.398C208.344 406.228 208.258 406.058 208.226 405.852C208.183 405.655 208.193 405.495 208.174 405.314C208.146 404.616 208.169 403.866 208.549 403.201C208.735 402.869 209.046 402.62 209.321 402.427C209.459 402.329 209.582 402.237 209.656 402.137C209.682 402.112 209.636 402.146 209.74 402.053C209.853 401.984 209.873 402.007 209.911 401.999C209.997 401.993 210.024 402.008 210.082 402.012C210.175 402.03 210.263 402.05 210.347 402.074C211.663 402.479 212.867 403.009 214.076 403.505C216.477 404.517 218.77 405.54 220.952 406.52C225.314 408.485 229.22 410.298 232.495 411.833C233.315 412.209 234.09 412.602 234.831 412.916C235.587 413.213 236.302 413.494 236.971 413.758C238.298 414.284 239.445 414.738 240.395 415.115C241.309 415.485 242.03 415.776 242.553 415.988C242.78 416.084 242.963 416.162 243.111 416.225C243.236 416.281 243.299 416.312 243.296 416.319C243.293 416.326 243.226 416.307 243.096 416.264C242.944 416.211 242.756 416.146 242.524 416.065C241.994 415.871 241.263 415.603 240.336 415.263C239.378 414.904 238.221 414.471 236.883 413.97C236.209 413.716 235.49 413.444 234.729 413.157C233.967 412.845 233.2 412.467 232.373 412.097C229.069 410.604 225.148 408.832 220.797 406.865C218.612 405.895 216.317 404.881 213.92 403.876C212.722 403.386 211.494 402.852 210.24 402.468C210.162 402.446 210.086 402.429 210.014 402.415C209.989 402.413 209.933 402.402 209.935 402.407C209.93 402.393 209.936 402.437 209.923 402.375C209.896 402.299 209.928 402.31 209.907 402.275C209.901 402.263 209.891 402.253 209.879 402.246C210.154 402.432 209.948 402.307 210.007 402.352L209.982 402.383C209.853 402.554 209.695 402.661 209.56 402.759C209.285 402.954 209.052 403.144 208.901 403.411C208.594 403.941 208.552 404.631 208.584 405.295C208.605 405.654 208.621 405.929 208.786 406.198C208.949 406.466 209.153 406.724 209.388 406.956C209.852 407.426 210.381 407.84 210.917 408.232C212 409.006 213.128 409.693 214.251 410.342C216.498 411.64 218.733 412.78 220.841 413.914C221.368 414.2 221.887 414.483 222.392 414.784C222.644 414.937 222.893 415.087 223.135 415.271C223.245 415.36 223.399 415.47 223.478 415.659C223.533 415.818 223.566 415.97 223.583 416.112C223.719 417.259 223.805 418.331 224.073 419.352C224.58 421.387 225.627 423.12 226.927 424.342C228.219 425.572 229.632 426.429 230.864 427.142C232.11 427.843 233.245 428.336 234.195 428.668C235.145 429.002 235.909 429.183 236.429 429.283C236.689 429.334 236.89 429.362 237.024 429.382C237.161 429.402 237.231 429.411 237.23 429.418Z" fill="#EB996E"/>
<path d="M210.442 430.56C210.449 430.537 210.789 430.603 211.372 430.831C211.952 431.058 212.776 431.461 213.662 432.155C214.1 432.508 214.564 432.911 214.986 433.439C215.388 433.957 215.798 434.655 215.692 435.484C215.587 436.318 214.873 436.977 214.073 437.234C213.246 437.512 212.35 437.381 211.528 437.154C208.273 436.163 205.44 434.967 203.474 433.921C202.492 433.399 201.724 432.929 201.209 432.582C200.693 432.236 200.423 432.022 200.438 432.001C200.455 431.975 200.753 432.144 201.292 432.446C201.83 432.75 202.614 433.179 203.605 433.663C205.582 434.633 208.424 435.782 211.636 436.759C212.426 436.979 213.244 437.088 213.946 436.853C214.649 436.63 215.229 436.083 215.318 435.43C215.418 434.775 215.086 434.14 214.716 433.646C214.336 433.146 213.89 432.734 213.479 432.379C211.784 430.981 210.402 430.638 210.442 430.56Z" fill="#EB996E"/>
<g opacity="0.3">
<path d="M324.479 429C316.619 402.491 309.687 368.346 301.828 341.837C298.955 366.312 302.551 398.621 307.056 422.848C307.584 425.687 307.826 428.47 310.028 430.338L324.479 429Z" fill="black"/>
</g>
<path d="M311.606 410.801C311.501 410.826 311.169 409.071 310.103 406.424C309.581 405.097 308.818 403.577 307.848 401.964C306.847 400.371 305.622 398.697 304.154 397.096C302.666 395.512 301.087 394.166 299.572 393.05C298.036 391.964 296.576 391.09 295.291 390.471C292.731 389.212 291.005 388.751 291.038 388.648C291.048 388.614 291.479 388.717 292.255 388.936C292.645 389.039 293.118 389.182 293.649 389.397C294.182 389.606 294.805 389.812 295.449 390.139C296.771 390.723 298.273 391.577 299.849 392.66C301.404 393.772 303.021 395.131 304.534 396.742C306.028 398.37 307.263 400.083 308.257 401.716C309.22 403.368 309.96 404.929 310.444 406.291C310.722 406.958 310.882 407.594 311.05 408.141C311.225 408.687 311.333 409.169 311.406 409.566C311.57 410.356 311.641 410.794 311.606 410.801Z" fill="#263238"/>
<path d="M326.595 276.509C326.595 276.509 301.457 332.66 301.457 342.969C301.457 353.278 320.292 424.905 320.292 424.905C320.113 427.747 319.381 442.024 319.381 442.024L424.971 442.386L426.579 419.689L418.337 398.059L426.571 336.914C426.571 336.914 432.113 301.412 432.606 291.484C433.223 279.06 391.141 264.661 392.288 262.941L385.021 253.214L343.387 287.018L335.162 263.259L325.305 272.575L326.595 276.509Z" fill="#FF6D38"/>
<path d="M395.742 291.445C384.315 310.782 363.398 346.021 363.398 346.021L325.918 388.755C325.918 388.755 323.466 410.472 328.37 417.127C333.274 423.782 341.681 428.336 341.681 428.336C341.681 428.336 351.576 428.336 364.143 417.828C376.709 407.32 411.387 363.885 411.387 363.885L423.296 349.524C423.296 349.524 437.491 314.641 434.842 296.887C433.82 290.042 430.907 287.195 427.017 284.056C417.246 276.172 402.129 280.637 395.742 291.445Z" fill="#FF6D38"/>
<path d="M427.696 337.401C427.704 337.405 427.645 337.539 427.523 337.797C427.387 338.075 427.203 338.453 426.968 338.936C426.471 339.932 425.708 341.388 424.666 343.229C422.598 346.92 419.384 352.134 415.177 358.419C413.072 361.56 410.716 364.967 408.134 368.587C405.576 372.228 402.6 375.937 400.179 380.297C397.694 384.617 395.56 389.419 392.906 394.183C390.253 398.944 387.122 403.673 383.381 408.093C379.631 412.5 375.391 416.344 370.755 419.253C366.136 422.185 361.097 424.082 356.138 424.913C351.178 425.77 346.29 425.491 341.974 424.313C339.807 423.744 337.807 422.871 335.985 421.884C334.156 420.905 332.493 419.785 331.05 418.543C329.592 417.322 328.337 415.994 327.328 414.607C326.279 413.248 325.51 411.813 324.867 410.449C323.636 407.683 323.118 405.105 322.852 403.007C322.639 400.896 322.627 399.248 322.681 398.136C322.712 397.599 322.736 397.18 322.754 396.871C322.773 396.586 322.788 396.441 322.797 396.441C322.806 396.442 322.809 396.588 322.807 396.873C322.802 397.182 322.795 397.601 322.786 398.138C322.766 399.248 322.811 400.889 323.053 402.982C323.348 405.062 323.891 407.609 325.131 410.328C325.779 411.669 326.548 413.076 327.592 414.407C328.596 415.766 329.842 417.065 331.286 418.26C332.715 419.475 334.363 420.571 336.175 421.529C337.98 422.495 339.948 423.343 342.087 423.895C346.343 425.037 351.162 425.297 356.057 424.438C360.952 423.603 365.918 421.724 370.482 418.819C375.063 415.936 379.261 412.127 382.983 407.753C386.696 403.366 389.815 398.664 392.459 393.933C395.105 389.198 397.25 384.398 399.762 380.057C402.215 375.67 405.22 371.95 407.782 368.334C410.377 364.729 412.748 361.337 414.871 358.212C419.113 351.96 422.37 346.782 424.489 343.128C425.557 341.305 426.347 339.867 426.874 338.888C427.129 338.415 427.328 338.046 427.474 337.774C427.613 337.523 427.688 337.397 427.696 337.401Z" fill="#263238"/>
<path d="M324.042 386.827C324.087 386.902 323.509 387.229 322.821 387.996C322.135 388.747 321.372 390.016 321.225 391.563C321.085 393.111 321.603 394.499 322.14 395.363C322.676 396.243 323.184 396.67 323.127 396.735C323.097 396.782 322.488 396.449 321.834 395.567C321.184 394.706 320.553 393.217 320.707 391.515C320.868 389.814 321.762 388.466 322.558 387.739C323.362 386.99 324.021 386.776 324.042 386.827Z" fill="#263238"/>
<path d="M330.934 398.172C330.941 398.155 331.143 398.203 331.521 398.307C331.711 398.356 331.94 398.434 332.218 398.498C332.509 398.551 332.832 398.61 333.188 398.676C334.647 398.914 336.838 398.886 339.369 398.101C341.885 397.295 344.702 395.746 347.326 393.424C349.954 391.103 352.316 388.007 354.784 384.769C357.243 381.523 359.726 378.468 362.468 376.18C363.827 375.038 365.163 374.027 366.274 372.939C367.385 371.861 368.276 370.692 368.775 369.494C369.714 367.03 369.083 364.718 368.198 363.593C367.274 362.429 366.344 362.314 366.391 362.243C366.395 362.227 366.596 362.278 366.973 362.41C367.329 362.581 367.866 362.871 368.356 363.466C369.335 364.614 370.062 367.006 369.118 369.626C368.61 370.91 367.703 372.125 366.577 373.245C365.453 374.371 364.115 375.404 362.779 376.544C360.098 378.816 357.657 381.838 355.198 385.084C352.73 388.32 350.341 391.434 347.643 393.783C344.954 396.126 342.063 397.674 339.477 398.451C336.875 399.209 334.628 399.178 333.154 398.874C332.796 398.79 332.472 398.715 332.179 398.646C331.901 398.565 331.674 398.47 331.488 398.405C331.117 398.269 330.927 398.189 330.934 398.172Z" fill="#263238"/>
<path d="M400.827 285.507C400.841 285.519 400.696 285.726 400.408 286.111C400.084 286.532 399.658 287.086 399.127 287.776C397.987 289.199 396.417 291.32 394.505 293.958C390.717 299.26 385.855 306.853 381.168 315.628C376.454 324.39 372.549 332.518 369.563 338.322C368.078 341.228 366.857 343.57 365.976 345.169C365.554 345.932 365.216 346.543 364.958 347.008C364.72 347.426 364.588 347.641 364.572 347.632C364.556 347.624 364.658 347.392 364.865 346.959C365.101 346.483 365.41 345.857 365.796 345.076C366.634 343.39 367.801 341.04 369.233 338.158C372.133 332.316 375.986 324.161 380.709 315.382C385.405 306.591 390.333 299.002 394.206 293.743C396.16 291.126 397.778 289.036 398.968 287.65C399.531 286.984 399.982 286.451 400.326 286.045C400.641 285.681 400.813 285.495 400.827 285.507Z" fill="#263238"/>
<g opacity="0.3">
<path d="M322.799 396.441C327.675 399.084 333.026 398.803 338.468 397.735C343.91 396.667 348.949 393.652 352.463 389.361C351.517 394.112 349.482 398.756 346.015 402.141C342.549 405.525 337.531 407.494 332.766 406.622C328.002 405.749 323.193 401.27 322.799 396.441Z" fill="black"/>
</g>
<g opacity="0.3">
<path d="M368.902 367.585C371.968 372.282 373.063 378.223 371.872 383.704C376.001 377.381 376.971 369.377 375.86 361.908C374.749 354.439 371.715 347.395 368.334 340.642C368.334 340.642 364.605 346.937 364.571 347.632C364.391 351.266 365.729 358.111 366.431 361.682C368.308 363.451 369.196 366.209 368.704 368.741" fill="black"/>
</g>
<g opacity="0.3">
<path d="M339.322 422.603C349.26 430.349 364.006 430.715 374.88 424.349C385.352 418.219 391.798 407.183 397.783 396.627C407.047 380.287 418.351 360.08 424.969 342.501C424.969 342.501 406.417 367.813 400.825 378.723C396.606 386.954 393.369 392.379 388.173 400.032C377.733 415.408 358.828 424.616 340.286 423.358" fill="black"/>
</g>
<path d="M319.38 442.023C319.369 442.022 319.364 441.916 319.364 441.709C319.369 441.465 319.374 441.165 319.381 440.798C319.412 439.948 319.454 438.788 319.507 437.333C319.646 434.291 319.842 430.025 320.077 424.895L320.086 424.966C318.289 418.968 316.188 411.692 314.016 403.831C311.134 393.413 308.702 383.933 307.066 377.041C306.25 373.595 305.613 370.8 305.214 368.86C305.024 367.928 304.873 367.184 304.759 366.625C304.661 366.113 304.617 365.842 304.635 365.838C304.652 365.834 304.73 366.097 304.861 366.602C304.999 367.155 305.182 367.891 305.411 368.814C305.899 370.788 306.583 373.555 307.423 376.952C309.15 383.817 311.636 393.277 314.517 403.691C316.689 411.548 318.757 418.832 320.498 424.842L320.509 424.879L320.507 424.913C320.196 430.041 319.938 434.305 319.753 437.345C319.651 438.797 319.57 439.956 319.51 440.804C319.478 441.17 319.451 441.469 319.43 441.712C319.408 441.919 319.391 442.024 319.38 442.023Z" fill="#263238"/>
<path d="M425.016 283.456C424.986 283.536 423.936 283.164 422.201 282.734C420.468 282.301 418.031 281.866 415.309 281.781C412.586 281.703 410.127 281.992 408.371 282.32C406.613 282.645 405.544 282.954 405.518 282.872C405.507 282.838 405.764 282.727 406.239 282.555C406.713 282.377 407.415 282.17 408.295 281.96C410.053 281.535 412.553 281.181 415.324 281.26C418.094 281.347 420.568 281.849 422.297 282.378C423.163 282.641 423.852 282.89 424.314 283.095C424.779 283.296 425.029 283.422 425.016 283.456Z" fill="#263238"/>
<path d="M391.568 265.019C391.583 265.028 391.491 265.207 391.301 265.538C391.077 265.915 390.796 266.39 390.45 266.972C389.699 268.21 388.585 269.984 387.175 272.156C384.346 276.491 380.299 282.397 375.512 288.684C371.66 293.752 367.93 298.299 364.874 301.862L364.66 302.112L364.525 301.815C363.073 298.631 361.871 295.994 360.999 294.081C360.611 293.197 360.297 292.483 360.054 291.932C359.843 291.435 359.741 291.168 359.76 291.159C359.779 291.15 359.92 291.399 360.167 291.879C360.436 292.418 360.784 293.116 361.215 293.98C362.127 295.873 363.385 298.484 364.905 301.637L364.556 301.591C367.559 297.991 371.254 293.429 375.099 288.369C379.878 282.092 383.965 276.23 386.87 271.952C388.28 269.848 389.436 268.124 390.28 266.863C390.659 266.302 390.968 265.845 391.213 265.482C391.431 265.169 391.553 265.009 391.568 265.019Z" fill="#263238"/>
<path d="M415.876 426.265C415.733 426.249 416.191 421.059 416.899 414.673C417.607 408.285 418.297 403.121 418.44 403.137C418.583 403.153 418.125 408.342 417.416 414.73C416.709 421.116 416.019 426.281 415.876 426.265Z" fill="#263238"/>
<path d="M343.498 424.905C343.641 424.89 344.174 428.791 344.689 433.617C345.204 438.445 345.506 442.37 345.363 442.385C345.22 442.4 344.687 438.5 344.172 433.672C343.656 428.846 343.355 424.92 343.498 424.905Z" fill="#263238"/>
<path d="M396.908 310.69C396.777 309.863 395.632 309.409 394.969 309.92L394.902 309.976C394.278 310.534 394.515 311.742 395.303 312.023C396.092 312.303 397.039 311.516 396.908 310.69Z" fill="white"/>
<path d="M386.483 285.275C386.352 284.448 385.207 283.994 384.544 284.505L384.477 284.561C383.853 285.119 384.09 286.327 384.878 286.608C385.667 286.888 386.614 286.102 386.483 285.275Z" fill="white"/>
<path d="M362.553 305.739C362.422 304.912 361.277 304.458 360.614 304.969L360.547 305.025C359.923 305.583 360.16 306.791 360.948 307.072C361.736 307.353 362.684 306.566 362.553 305.739Z" fill="white"/>
<path d="M336.686 295.463C336.555 294.636 335.41 294.182 334.747 294.693L334.68 294.749C334.056 295.307 334.293 296.515 335.081 296.796C335.869 297.077 336.817 296.289 336.686 295.463Z" fill="white"/>
<path d="M332.108 285.333C331.977 284.506 330.832 284.052 330.169 284.563L330.102 284.619C329.478 285.177 329.715 286.385 330.503 286.666C331.292 286.947 332.24 286.16 332.108 285.333Z" fill="white"/>
<path d="M334.096 273.628C333.965 272.801 332.82 272.347 332.157 272.858L332.09 272.914C331.466 273.472 331.703 274.68 332.491 274.961C333.28 275.241 334.228 274.454 334.096 273.628Z" fill="white"/>
<path d="M319.77 289.728C319.639 288.901 318.494 288.447 317.831 288.958L317.764 289.014C317.14 289.572 317.377 290.78 318.165 291.061C318.953 291.341 319.901 290.554 319.77 289.728Z" fill="white"/>
<path d="M352.953 294.371C352.822 293.544 351.677 293.09 351.014 293.601L350.947 293.657C350.323 294.215 350.56 295.423 351.348 295.704C352.137 295.984 353.085 295.197 352.953 294.371Z" fill="white"/>
<path d="M324.86 315.237C324.729 314.41 323.584 313.956 322.921 314.467L322.854 314.523C322.23 315.081 322.467 316.289 323.255 316.57C324.044 316.85 324.991 316.063 324.86 315.237Z" fill="white"/>
<path d="M299.141 375.258C299.01 374.431 297.865 373.977 297.202 374.488L297.135 374.544C296.511 375.102 296.748 376.31 297.536 376.591C298.325 376.871 299.272 376.084 299.141 375.258Z" fill="white"/>
<path d="M308.317 340.642C308.186 339.815 307.041 339.361 306.378 339.872L306.311 339.928C305.687 340.486 305.924 341.694 306.712 341.975C307.501 342.255 308.448 341.468 308.317 340.642Z" fill="white"/>
<path d="M375.955 279.856C375.824 279.029 374.679 278.575 374.016 279.086L373.949 279.142C373.325 279.7 373.562 280.908 374.35 281.189C375.139 281.47 376.086 280.683 375.955 279.856Z" fill="white"/>
<path d="M408.237 348.785C408.106 347.958 406.961 347.504 406.298 348.015L406.231 348.071C405.607 348.629 405.844 349.837 406.632 350.118C407.42 350.398 408.368 349.611 408.237 348.785Z" fill="white"/>
<path d="M420.815 289.467C420.684 288.64 419.539 288.186 418.876 288.697L418.809 288.753C418.185 289.311 418.422 290.519 419.21 290.8C419.999 291.081 420.946 290.294 420.815 289.467Z" fill="white"/>
<path d="M415.875 328.313C415.744 327.486 414.599 327.032 413.936 327.543L413.869 327.599C413.245 328.157 413.482 329.365 414.27 329.646C415.059 329.926 416.007 329.139 415.875 328.313Z" fill="white"/>
<path d="M387.67 356.362C387.539 355.535 386.394 355.081 385.731 355.592L385.664 355.648C385.04 356.206 385.277 357.414 386.065 357.695C386.853 357.975 387.801 357.189 387.67 356.362Z" fill="white"/>
<path d="M388.856 333.013C388.725 332.186 387.58 331.732 386.917 332.243L386.85 332.299C386.226 332.857 386.463 334.065 387.251 334.346C388.039 334.626 388.987 333.84 388.856 333.013Z" fill="white"/>
<path d="M405.873 289.67C405.742 288.843 404.597 288.389 403.934 288.9L403.867 288.956C403.243 289.514 403.48 290.722 404.268 291.003C405.057 291.283 406.004 290.496 405.873 289.67Z" fill="white"/>
<path d="M382.965 267.047C382.834 266.22 381.689 265.766 381.026 266.277L380.959 266.333C380.335 266.891 380.572 268.099 381.36 268.38C382.149 268.66 383.096 267.873 382.965 267.047Z" fill="white"/>
<path d="M382.135 303.515C382.004 302.688 380.859 302.234 380.196 302.745L380.129 302.801C379.505 303.359 379.742 304.567 380.53 304.848C381.318 305.129 382.266 304.342 382.135 303.515Z" fill="white"/>
<path d="M352.887 414.765C352.756 413.938 351.611 413.484 350.948 413.995L350.881 414.051C350.257 414.609 350.494 415.817 351.282 416.098C352.071 416.379 353.019 415.592 352.887 414.765Z" fill="white"/>
<path d="M319.34 396.471C319.209 395.644 318.064 395.19 317.401 395.701L317.334 395.757C316.71 396.315 316.947 397.523 317.735 397.804C318.524 398.085 319.472 397.298 319.34 396.471Z" fill="white"/>
<path d="M292.213 405.438C292.082 404.611 290.937 404.157 290.274 404.668L290.207 404.724C289.583 405.282 289.82 406.49 290.608 406.771C291.397 407.051 292.344 406.264 292.213 405.438Z" fill="white"/>
<path d="M289.311 420.887C289.18 420.06 288.035 419.606 287.372 420.117L287.305 420.173C286.681 420.731 286.918 421.939 287.706 422.22C288.495 422.501 289.442 421.714 289.311 420.887Z" fill="white"/>
<path d="M314.742 426.063C314.611 425.236 313.466 424.782 312.803 425.293L312.736 425.349C312.112 425.907 312.349 427.115 313.137 427.396C313.925 427.676 314.873 426.889 314.742 426.063Z" fill="white"/>
<path d="M306.239 391.464C306.108 390.637 304.963 390.183 304.3 390.694L304.233 390.75C303.609 391.308 303.846 392.516 304.634 392.797C305.423 393.078 306.371 392.291 306.239 391.464Z" fill="white"/>
<path d="M337.442 400.256C337.311 399.429 336.166 398.975 335.503 399.486L335.436 399.542C334.812 400.1 335.049 401.308 335.837 401.589C336.625 401.87 337.573 401.082 337.442 400.256Z" fill="white"/>
<path d="M411.615 391.406C411.484 390.579 410.339 390.125 409.676 390.636L409.61 390.692C408.986 391.25 409.223 392.458 410.011 392.739C410.799 393.02 411.746 392.233 411.615 391.406Z" fill="white"/>
<path d="M365.721 435.383C365.59 434.556 364.445 434.102 363.782 434.613L363.715 434.669C363.091 435.227 363.328 436.435 364.116 436.716C364.905 436.996 365.852 436.209 365.721 435.383Z" fill="white"/>
<path d="M385.295 410.903C385.164 410.076 384.019 409.622 383.356 410.133L383.289 410.189C382.665 410.747 382.902 411.955 383.69 412.236C384.479 412.517 385.426 411.729 385.295 410.903Z" fill="white"/>
<path d="M396.922 430.812C396.791 429.985 395.646 429.531 394.983 430.042L394.916 430.098C394.292 430.656 394.529 431.864 395.317 432.145C396.106 432.426 397.053 431.639 396.922 430.812Z" fill="white"/>
<path d="M364.571 326.55C364.44 325.723 363.295 325.269 362.632 325.78L362.565 325.836C361.941 326.394 362.178 327.602 362.966 327.883C363.755 328.164 364.702 327.377 364.571 326.55Z" fill="white"/>
<path d="M390.895 377.376C390.764 376.549 389.619 376.095 388.956 376.606L388.889 376.662C388.265 377.22 388.502 378.428 389.29 378.709C390.079 378.99 391.026 378.203 390.895 377.376Z" fill="white"/>
<path d="M382.358 396.629C382.227 395.802 381.082 395.348 380.419 395.859L380.352 395.915C379.728 396.473 379.965 397.681 380.753 397.962C381.542 398.242 382.49 397.455 382.358 396.629Z" fill="white"/>
<path d="M410.428 412.091C410.297 411.264 409.152 410.81 408.489 411.321L408.422 411.377C407.798 411.935 408.035 413.143 408.823 413.424C409.611 413.705 410.559 412.918 410.428 412.091Z" fill="white"/>
<path d="M333.619 434.415C333.488 433.588 332.343 433.134 331.68 433.645L331.613 433.701C330.989 434.259 331.226 435.467 332.014 435.748C332.803 436.029 333.75 435.242 333.619 434.415Z" fill="white"/>
<path d="M269.617 428.575C269.486 427.748 268.341 427.294 267.678 427.805L267.611 427.861C266.987 428.419 267.224 429.627 268.012 429.908C268.801 430.189 269.749 429.401 269.617 428.575Z" fill="white"/>
<path d="M325.979 418.063C325.848 417.236 324.703 416.782 324.04 417.293L323.973 417.349C323.349 417.907 323.586 419.115 324.374 419.396C325.163 419.677 326.111 418.89 325.979 418.063Z" fill="white"/>
<path d="M271.991 406.626C271.86 405.799 270.715 405.345 270.052 405.856L269.985 405.912C269.361 406.47 269.598 407.678 270.386 407.959C271.175 408.239 272.122 407.452 271.991 406.626Z" fill="white"/>
<path d="M362.198 370.329C362.067 369.502 360.922 369.048 360.259 369.559L360.192 369.615C359.568 370.173 359.805 371.381 360.593 371.662C361.382 371.943 362.329 371.156 362.198 370.329Z" fill="white"/>
<path d="M343.319 315.237C343.188 314.41 342.043 313.956 341.38 314.467L341.313 314.523C340.689 315.081 340.926 316.289 341.714 316.57C342.503 316.85 343.45 316.063 343.319 315.237Z" fill="white"/>
<path d="M338.602 363.013C338.471 362.186 337.326 361.732 336.663 362.243L336.596 362.299C335.972 362.857 336.209 364.065 336.997 364.346C337.786 364.627 338.734 363.84 338.602 363.013Z" fill="white"/>
<path d="M330.922 347.429C330.791 346.602 329.646 346.148 328.983 346.659L328.916 346.715C328.292 347.273 328.529 348.481 329.317 348.762C330.106 349.043 331.054 348.256 330.922 347.429Z" fill="white"/>
<path d="M364.889 396.413C364.758 395.586 363.613 395.132 362.95 395.643L362.883 395.699C362.259 396.257 362.496 397.465 363.284 397.746C364.073 398.027 365.02 397.24 364.889 396.413Z" fill="white"/>
<path d="M340.946 386.802C340.815 385.975 339.67 385.521 339.007 386.032L338.94 386.088C338.316 386.646 338.553 387.854 339.341 388.135C340.129 388.415 341.077 387.628 340.946 386.802Z" fill="white"/>
<path d="M351.194 334.047C351.063 333.22 349.918 332.766 349.255 333.277L349.188 333.333C348.564 333.891 348.801 335.099 349.589 335.38C350.378 335.66 351.325 334.873 351.194 334.047Z" fill="white"/>
<path d="M314.742 371.401C314.611 370.574 313.466 370.12 312.803 370.631L312.736 370.687C312.112 371.245 312.349 372.453 313.137 372.734C313.925 373.015 314.873 372.228 314.742 371.401Z" fill="white"/>
<path d="M371.005 354.256C370.874 353.429 369.729 352.975 369.066 353.486L369 353.542C368.376 354.1 368.613 355.308 369.401 355.589C370.189 355.87 371.137 355.082 371.005 354.256Z" fill="white"/>
<path d="M423.188 309.501C423.057 308.674 421.912 308.22 421.249 308.731L421.182 308.787C420.558 309.345 420.795 310.553 421.583 310.834C422.371 311.115 423.319 310.328 423.188 309.501Z" fill="white"/>
<path d="M402 275.612C401.869 274.785 400.724 274.331 400.061 274.842L399.994 274.898C399.37 275.456 399.607 276.664 400.395 276.945C401.184 277.226 402.132 276.439 402 275.612Z" fill="white"/>
<path d="M360.936 279.856C360.805 279.029 359.66 278.575 358.997 279.086L358.93 279.142C358.306 279.7 358.543 280.908 359.331 281.189C360.119 281.47 361.067 280.683 360.936 279.856Z" fill="white"/>
<path d="M319.053 158.209C311.176 163.221 308.033 173.723 309.535 179.93C310.292 183.058 311.712 186.206 311.092 189.364C310.557 192.093 308.595 194.276 307.126 196.638C302.229 204.515 303.096 215.539 309.165 222.553C315.234 229.567 326.018 232.01 334.518 228.296" fill="#263238"/>
<path d="M314.391 199.196C295.232 157.056 340.806 135.885 365.674 142.909C389.045 149.51 399.013 161.141 402.859 176.772C406.706 192.41 406.522 209.346 400.394 224.24C397.372 231.583 391.93 239.045 384.042 239.962" fill="#263238"/>
<path d="M336.839 302.108C336.508 281.974 336.274 254.317 336.267 254.432C336.267 254.432 318.961 251.558 315.375 228.978C313.592 217.749 314.156 199.337 315.104 184.287C315.958 170.741 324.933 154.12 338.431 155.548L380.578 166.201C384.678 166.635 387.765 170.134 387.684 174.256L384.938 261.434" fill="#FFBE9D"/>
<path d="M322.64 198.077C322.568 199.597 323.796 200.91 325.382 201.014C326.964 201.118 328.308 199.973 328.379 198.454C328.45 196.935 327.223 195.62 325.641 195.516C324.055 195.411 322.711 196.557 322.64 198.077Z" fill="#263238"/>
<path d="M352.56 198.077C352.488 199.596 353.716 200.91 355.301 201.013C356.883 201.117 358.227 199.972 358.299 198.453C358.37 196.934 357.143 195.619 355.561 195.515C353.975 195.411 352.631 196.557 352.56 198.077Z" fill="#263238"/>
<path d="M319.524 192.816C319.87 193.206 322.117 191.656 325.231 191.768C328.343 191.835 330.576 193.513 330.927 193.143C331.098 192.98 330.755 192.286 329.784 191.528C328.829 190.774 327.181 190.017 325.241 189.96C323.301 189.906 321.645 190.566 320.683 191.266C319.7 191.97 319.353 192.641 319.524 192.816Z" fill="#263238"/>
<path d="M349.097 193.561C349.459 193.937 351.648 192.304 354.762 192.299C357.874 192.248 360.169 193.841 360.505 193.458C360.67 193.288 360.305 192.608 359.302 191.888C358.319 191.17 356.644 190.475 354.703 190.492C352.762 190.512 351.132 191.234 350.197 191.969C349.244 192.708 348.921 193.392 349.097 193.561Z" fill="#263238"/>
<path d="M338.42 217.557C338.434 217.38 336.497 217.046 333.359 216.644C332.563 216.562 331.81 216.404 331.676 215.861C331.489 215.286 331.821 214.428 332.207 213.502C332.955 211.577 333.738 209.558 334.56 207.443C337.828 198.816 340.193 191.722 339.845 191.594C339.497 191.466 336.564 198.354 333.297 206.981C332.511 209.108 331.758 211.136 331.043 213.076C330.742 213.98 330.224 215.006 330.63 216.199C330.844 216.794 331.428 217.225 331.939 217.363C332.449 217.518 332.897 217.527 333.291 217.551C336.448 217.72 338.408 217.734 338.42 217.557Z" fill="#263238"/>
<path d="M336.268 254.432C336.268 254.432 351.459 255.411 366.509 246.365C366.509 246.365 358.868 262.074 336.268 259.961V254.432Z" fill="#EB996E"/>
<path d="M348.327 189.129C348.634 189.976 351.746 189.574 355.401 190.015C359.067 190.382 362.014 191.452 362.499 190.692C362.716 190.328 362.202 189.532 361.01 188.711C359.829 187.892 357.943 187.114 355.748 186.869C353.553 186.629 351.543 186.978 350.212 187.519C348.871 188.061 348.195 188.727 348.327 189.129Z" fill="#263238"/>
<path d="M320.244 184.985C320.793 185.693 322.939 184.958 325.521 184.924C328.101 184.799 330.288 185.399 330.792 184.659C331.013 184.299 330.668 183.591 329.713 182.921C328.772 182.253 327.198 181.708 325.423 181.761C323.65 181.817 322.113 182.459 321.215 183.184C320.303 183.911 320.003 184.64 320.244 184.985Z" fill="#263238"/>
<path d="M383.812 203.983C384.143 203.823 395.898 198.624 396.036 212.143C396.174 225.662 382.573 223.012 382.545 222.624C382.518 222.236 383.812 203.983 383.812 203.983Z" fill="#FFBE9D"/>
<path d="M386.623 217.46C386.682 217.416 386.86 217.622 387.26 217.801C387.65 217.974 388.319 218.091 389.021 217.819C390.444 217.28 391.623 215 391.664 212.563C391.686 211.332 391.416 210.163 390.97 209.198C390.547 208.213 389.9 207.529 389.18 207.408C388.463 207.25 387.958 207.686 387.797 208.068C387.62 208.448 387.709 208.717 387.637 208.741C387.599 208.775 387.345 208.518 387.448 207.958C387.501 207.689 387.656 207.368 387.971 207.105C388.293 206.838 388.769 206.699 389.27 206.748C390.313 206.809 391.261 207.759 391.751 208.819C392.299 209.883 392.631 211.197 392.606 212.579C392.547 215.304 391.179 217.867 389.23 218.452C388.282 218.709 387.485 218.431 387.072 218.116C386.651 217.786 386.577 217.485 386.623 217.46Z" fill="#EB996E"/>
<path d="M333.929 148.88C326.408 152.767 323.312 168.154 326.424 176.027C329.536 183.9 337.922 187.746 346.192 189.558C354.462 191.37 362.57 191.584 370.726 189.315C371.294 194.8 374.581 200.43 379.903 201.877C386.948 203.793 394.049 197.341 395.617 190.211C397.185 183.08 394.835 175.736 392.514 168.814" fill="#263238"/>
<path d="M393.578 197.934C393.61 197.976 393.24 198.327 392.536 198.919C391.829 199.508 390.793 200.348 389.418 201.271C388.043 202.181 386.305 203.195 384.162 203.814C382.047 204.426 379.456 204.648 376.988 203.709C374.525 202.772 372.706 200.907 371.558 199.015C370.393 197.1 369.871 195.133 369.612 193.496C369.359 191.849 369.362 190.502 369.4 189.581C369.443 188.658 369.526 188.153 369.576 188.155C369.724 188.152 369.564 190.21 370.155 193.399C370.475 194.978 371.036 196.849 372.168 198.634C373.287 200.406 375.008 202.123 377.264 202.978C379.519 203.839 381.939 203.668 383.968 203.12C386.017 202.569 387.731 201.64 389.12 200.804C391.881 199.079 393.498 197.823 393.578 197.934Z" fill="#263238"/>
<path d="M339.34 226.239C339.794 227.389 340.257 228.557 341.018 229.531C341.779 230.505 342.893 231.277 344.128 231.336C345.444 231.399 346.713 230.62 347.447 229.526C348.181 228.432 348.43 227.068 348.371 225.752C348.318 224.562 347.774 223.142 346.591 223.001C346.099 222.943 345.614 223.133 345.155 223.319C343.083 224.159 341.01 225 338.938 225.84" fill="#EB996E"/>
<path d="M341.823 231.354C341.855 231.159 343.219 231.713 345.139 230.944C346.068 230.57 347.085 229.83 347.646 228.667C348.206 227.517 348.317 225.961 347.728 224.6C347.591 224.259 347.386 223.948 347.186 223.671C346.94 223.413 346.985 223.424 346.717 223.464C346.464 223.532 346.055 223.725 345.721 223.855C345.375 223.996 345.034 224.135 344.7 224.271C343.369 224.809 342.164 225.28 341.147 225.66C339.111 226.42 337.822 226.821 337.762 226.679C337.702 226.538 338.882 225.883 340.839 224.938C341.818 224.465 342.99 223.92 344.299 223.33C344.628 223.183 344.964 223.032 345.305 222.88C345.668 222.731 345.945 222.568 346.44 222.412C346.683 222.344 347.027 222.305 347.362 222.439C347.69 222.572 347.895 222.795 348.048 222.981C348.326 223.351 348.571 223.731 348.747 224.16C349.478 225.859 349.302 227.74 348.557 229.134C347.797 230.558 346.501 231.358 345.402 231.685C344.284 232.03 343.32 231.947 342.708 231.79C342.088 231.626 341.798 231.416 341.823 231.354Z" fill="#263238"/>
<path d="M398.97 194.729C397.585 194.632 386.42 196.077 387.299 216.832C388.12 236.217 401.72 231.948 406.06 224.65C410.171 217.736 412.546 195.682 398.97 194.729Z" fill="#455A64"/>
<path d="M405.874 197.181C405.859 197.181 405.842 196.994 405.822 196.635C405.805 196.231 405.783 195.707 405.756 195.054C405.716 193.621 405.66 191.624 405.591 189.142C405.489 184.044 405.347 176.964 405.183 168.787L405.433 169.034C403.592 169.037 401.657 169.039 399.677 169.042L399.935 168.777C399.977 170.322 400.021 171.952 400.066 173.606C400.259 181.395 400.439 188.648 400.589 194.719L400.593 194.897L400.421 194.937C397.831 195.544 395.783 197.05 394.492 198.754C393.177 200.46 392.523 202.273 392.124 203.761C391.726 205.261 391.59 206.48 391.514 207.306C391.477 207.72 391.457 208.038 391.446 208.253C391.433 208.468 391.426 208.579 391.414 208.579C391.403 208.58 391.387 208.468 391.378 208.253C391.367 208.037 391.365 207.716 391.381 207.298C391.416 206.463 391.511 205.23 391.878 203.7C392.248 202.182 392.876 200.322 394.207 198.541C395.511 196.763 397.637 195.162 400.319 194.512L400.151 194.731C399.977 188.661 399.768 181.408 399.544 173.62C399.501 171.966 399.458 170.336 399.417 168.791L399.41 168.525H399.675C401.655 168.528 403.59 168.53 405.431 168.533H405.679L405.682 168.779C405.772 176.957 405.85 184.039 405.906 189.137C405.914 191.62 405.92 193.617 405.925 195.051C405.918 195.704 405.912 196.228 405.908 196.633C405.901 196.993 405.889 197.181 405.874 197.181Z" fill="#455A64"/>
<path d="M398.968 168.783C398.968 168.783 393.13 155.117 379.215 148.374C372.475 145.108 367.433 143.423 362.547 142.194C362.547 142.194 370.664 140.267 383.8 146.111C389.769 148.766 395.782 152.225 399.758 157.408C402.284 160.7 405.437 167.134 405.432 168.784L398.968 168.783Z" fill="#455A64"/>
<path d="M362.949 334.249C362.944 334.243 363.028 334.151 363.198 333.976C363.365 333.798 363.63 333.549 363.953 333.198C364.61 332.506 365.55 331.452 366.652 329.996C367.757 328.543 368.997 326.669 370.299 324.398C371.604 322.128 372.957 319.454 374.431 316.464C377.38 310.487 380.794 303.241 384.325 294.939C386.094 290.79 387.894 286.378 389.686 281.734C390.13 280.571 390.578 279.396 391.031 278.209C391.48 277.021 391.941 275.798 392.638 274.664C393.323 273.528 394.318 272.524 395.542 271.904C396.15 271.591 396.831 271.354 397.576 271.387C397.947 271.417 398.326 271.54 398.638 271.772C398.959 272.003 399.152 272.341 399.313 272.671L399.346 272.738L399.329 272.817C399.229 273.274 399.085 273.741 398.791 274.15C398.503 274.562 398.035 274.864 397.543 274.968C396.545 275.171 395.594 274.854 394.753 274.456C392.947 273.703 391.875 271.562 392.283 269.611C392.471 268.629 393.083 267.735 393.906 267.169C394.727 266.599 395.736 266.3 396.748 266.359C397.737 266.422 398.822 266.825 399.372 267.806C399.655 268.285 399.624 268.992 399.268 269.436C398.935 269.889 398.479 270.161 398.001 270.363C396.31 271.034 394.278 270.442 393.208 269.004C392.672 268.285 392.449 267.351 392.559 266.482C392.651 265.608 393.028 264.781 393.598 264.125C394.167 263.468 394.961 262.99 395.849 262.88C396.721 262.793 397.651 263.037 398.281 263.716C398.597 264.051 398.773 264.526 398.759 264.993C398.755 265.47 398.514 265.923 398.182 266.225C397.513 266.833 396.595 267.052 395.737 266.884C394.845 266.695 394.204 266.025 393.79 265.319C393.376 264.595 393.172 263.798 393.058 263.012C392.858 261.451 392.88 259.808 393.589 258.348C393.97 257.643 394.497 256.985 395.293 256.663C396.073 256.353 396.931 256.434 397.668 256.739C398.383 257.051 399.096 257.7 399.133 258.59C399.196 259.457 398.588 260.231 397.865 260.544C397.149 260.886 396.27 260.901 395.564 260.51C394.864 260.134 394.387 259.463 394.143 258.755C393.878 258.053 393.896 257.243 394.007 256.567C394.098 255.866 394.226 255.165 394.469 254.491C394.701 253.824 395.108 253.161 395.682 252.724C396.24 252.28 396.875 251.955 397.565 251.788C397.899 251.717 398.286 251.649 398.666 251.776C399.028 251.896 399.328 252.11 399.581 252.359C399.831 252.612 400.036 252.908 400.169 253.245C400.305 253.572 400.356 253.988 400.203 254.35C399.907 255.109 399.063 255.356 398.415 255.34C397.729 255.349 397.071 255.076 396.537 254.71C395.464 253.95 394.774 252.775 394.529 251.563C394.261 250.353 394.398 249.07 394.949 248.001C395.237 247.476 395.588 246.985 396.072 246.626C396.547 246.266 397.1 246.04 397.67 245.937C398.238 245.846 398.851 245.882 399.371 246.176C399.882 246.465 400.26 247.006 400.289 247.594C400.328 248.782 399.408 249.715 398.404 249.993C397.329 250.277 396.298 249.695 395.685 248.971C395.049 248.233 394.72 247.309 394.659 246.412C394.574 244.592 395.29 243.06 395.638 241.624C396.045 240.187 396.417 238.872 396.752 237.688C397.424 235.343 397.948 233.513 398.311 232.247C398.49 231.643 398.629 231.174 398.729 230.836C398.826 230.519 398.888 230.36 398.888 230.36C398.888 230.36 398.86 230.529 398.78 230.851C398.692 231.193 398.569 231.667 398.412 232.277C398.071 233.549 397.579 235.387 396.948 237.744C396.626 238.932 396.269 240.25 395.878 241.691C395.537 243.14 394.849 244.682 394.95 246.393C395.013 247.23 395.33 248.094 395.921 248.768C396.483 249.432 397.43 249.926 398.318 249.674C399.186 249.441 399.994 248.568 399.94 247.621C399.917 247.159 399.61 246.722 399.195 246.49C398.772 246.252 398.24 246.216 397.732 246.301C397.223 246.396 396.72 246.604 396.3 246.927C395.878 247.24 395.55 247.701 395.292 248.178C394.792 249.157 394.666 250.352 394.922 251.477C395.154 252.607 395.803 253.684 396.774 254.366C397.268 254.698 397.819 254.923 398.418 254.915C398.994 254.926 399.619 254.702 399.802 254.192C400.005 253.709 399.681 253.084 399.271 252.669C399.058 252.458 398.802 252.285 398.533 252.197C398.278 252.107 397.976 252.155 397.666 252.221C396.445 252.536 395.284 253.367 394.899 254.646C394.675 255.269 394.552 255.942 394.466 256.624C394.358 257.322 394.354 257.961 394.585 258.599C394.801 259.22 395.215 259.787 395.79 260.092C396.346 260.402 397.069 260.393 397.66 260.109C398.258 259.841 398.697 259.254 398.649 258.615C398.631 257.98 398.089 257.457 397.474 257.187C396.847 256.928 396.101 256.865 395.476 257.121C394.859 257.36 394.356 257.953 394.032 258.572C393.397 259.873 393.36 261.45 393.557 262.939C393.666 263.684 393.861 264.425 394.229 265.064C394.591 265.689 395.161 266.249 395.84 266.383C396.525 266.523 397.319 266.325 397.828 265.852C398.368 265.397 398.373 264.564 397.896 264.058C397.429 263.542 396.625 263.312 395.903 263.392C395.176 263.482 394.48 263.889 393.985 264.464C392.977 265.596 392.685 267.453 393.624 268.694C394.527 269.932 396.364 270.464 397.801 269.878C398.206 269.711 398.605 269.461 398.841 269.13C399.085 268.805 399.101 268.404 398.908 268.047C398.506 267.309 397.584 266.924 396.713 266.876C394.942 266.753 393.095 267.972 392.786 269.712C392.433 271.428 393.36 273.327 394.972 273.992C395.754 274.371 396.638 274.635 397.425 274.469C398.234 274.322 398.676 273.537 398.827 272.721L398.842 272.866C398.609 272.299 398.134 271.921 397.538 271.888C396.944 271.86 396.326 272.059 395.767 272.349C394.63 272.925 393.709 273.845 393.055 274.923C392.39 276 391.934 277.194 391.484 278.38C391.028 279.567 390.576 280.743 390.13 281.906C388.325 286.551 386.51 290.963 384.725 295.11C381.162 303.409 377.71 310.645 374.718 316.607C373.223 319.588 371.846 322.257 370.515 324.523C369.186 326.79 367.919 328.657 366.787 330.1C364.527 332.996 362.949 334.249 362.949 334.249Z" fill="white"/>
<path d="M411.087 184.997C410.997 185.016 411.129 183.581 410.177 181.299C409.254 179.059 406.981 176.02 402.999 174.109C401.022 173.176 398.654 172.586 396.08 172.417C393.504 172.248 390.731 172.494 387.873 173.044C382.14 174.098 376.122 176.573 369.381 177.589C366.004 178.031 362.658 178.01 359.479 177.578C356.298 177.132 353.32 176.23 350.578 175.165C345.127 172.915 340.731 169.776 337.618 166.604C334.487 163.442 332.463 160.415 331.339 158.206C331.02 157.673 330.786 157.174 330.602 156.732C330.415 156.305 330.253 155.937 330.117 155.625C330 155.348 329.906 155.124 329.829 154.941C329.767 154.786 329.739 154.705 329.747 154.701C329.755 154.698 329.799 154.772 329.878 154.92C329.967 155.096 330.077 155.314 330.213 155.582C330.362 155.886 330.537 156.246 330.742 156.663C330.94 157.096 331.186 157.585 331.517 158.108C332.689 160.275 334.744 163.244 337.877 166.342C340.993 169.45 345.363 172.521 350.758 174.719C353.471 175.759 356.413 176.639 359.551 177.073C362.688 177.492 365.981 177.508 369.308 177.073C375.958 176.075 381.987 173.615 387.786 172.572C390.675 172.03 393.489 171.796 396.111 171.986C398.73 172.177 401.143 172.799 403.16 173.777C407.212 175.774 409.483 178.918 410.365 181.222C410.844 182.381 410.968 183.355 411.061 183.999C411.074 184.3 411.085 184.545 411.094 184.743C411.098 184.911 411.096 184.996 411.087 184.997Z" fill="#455A64"/>
<path d="M395.996 163.446C395.998 163.464 395.75 163.507 395.279 163.573C394.807 163.637 394.113 163.74 393.223 163.895C391.44 164.191 388.887 164.759 385.747 165.541C382.61 166.319 378.847 167.262 374.565 167.707C370.292 168.161 365.529 168.122 360.62 167.404C355.707 166.693 351.133 165.383 347.147 163.781C343.161 162.175 339.745 160.319 337.035 158.53C335.692 157.619 334.486 156.777 333.474 155.98C332.482 155.157 331.591 154.492 330.933 153.867C330.303 153.274 329.797 152.799 329.412 152.436C329.069 152.105 328.894 151.925 328.907 151.912C328.919 151.899 329.118 152.054 329.484 152.359C329.885 152.702 330.41 153.152 331.066 153.713C331.742 154.313 332.648 154.951 333.652 155.748C334.675 156.519 335.89 157.335 337.236 158.22C342.651 161.683 350.919 165.5 360.696 166.887C365.562 167.598 370.28 167.651 374.519 167.228C378.763 166.814 382.512 165.915 385.665 165.181C388.818 164.445 391.396 163.929 393.195 163.693C394.093 163.568 394.795 163.497 395.271 163.467C395.744 163.436 395.995 163.428 395.996 163.446Z" fill="#455A64"/>
<path d="M397.485 230.447C397.478 230.464 397.345 230.424 397.094 230.333C396.847 230.233 396.485 230.072 396.057 229.797C395.199 229.261 394.056 228.257 393.131 226.675C392.193 225.101 391.572 222.97 391.335 220.588C391.104 218.204 391.104 215.577 391.326 212.831C391.558 210.086 392.021 207.495 392.611 205.184C393.192 202.878 393.889 200.808 394.843 199.247C395.783 197.678 396.921 196.67 397.787 196.142C398.22 195.873 398.58 195.71 398.829 195.616C399.08 195.524 399.216 195.492 399.222 195.507C399.241 195.552 398.71 195.739 397.899 196.31C397.09 196.875 396.032 197.889 395.161 199.432C394.276 200.968 393.628 203.002 393.077 205.299C392.519 207.593 392.075 210.158 391.846 212.874C391.626 215.586 391.613 218.197 391.814 220.54C392.02 222.88 392.588 224.95 393.452 226.491C394.306 228.043 395.37 229.054 396.172 229.627C396.974 230.212 397.507 230.399 397.485 230.447Z" fill="#263238"/>
<path d="M353.685 233.321L343.429 235.334C341.883 235.637 340.384 234.63 340.081 233.084L340.007 232.706C339.704 231.16 340.711 229.661 342.256 229.358L352.512 227.345C354.058 227.042 355.557 228.049 355.86 229.595L355.934 229.973C356.238 231.518 355.231 233.017 353.685 233.321Z" fill="#455A64"/>
<path d="M354.471 228.885L401.917 214C403.091 213.632 404.342 214.28 404.717 215.452C405.107 216.667 404.402 217.962 403.17 218.295L354.653 231.402L354.471 228.885Z" fill="#455A64"/>
<path d="M389.538 222.342C389.528 222.307 390.088 222.112 391.11 221.789C392.22 221.451 393.682 221.006 395.448 220.468C397.268 219.906 399.503 219.313 401.867 218.538C402.438 218.317 402.992 218.02 403.421 217.582C403.833 217.156 404.1 216.54 404.089 215.932C404.089 215.322 403.7 214.774 403.109 214.573C402.515 214.375 401.805 214.463 401.126 214.633C395.611 216.408 390.622 218.013 386.901 219.21C385.137 219.755 383.677 220.206 382.568 220.549C381.541 220.854 380.968 221.006 380.957 220.972C380.946 220.938 381.497 220.72 382.504 220.356C383.599 219.973 385.042 219.469 386.785 218.86C390.418 217.626 395.398 215.92 400.998 214.128C401.722 213.951 402.508 213.83 403.281 214.084C404.062 214.333 404.615 215.136 404.6 215.919C404.606 216.694 404.284 217.407 403.777 217.93C403.27 218.439 402.647 218.758 402.04 218.986C399.588 219.763 397.401 220.299 395.55 220.822C393.765 221.295 392.288 221.687 391.166 221.984C390.127 222.247 389.548 222.376 389.538 222.342Z" fill="#263238"/>
<path d="M311.958 186C313.583 191.702 307.787 196.591 305.746 202.159C303.773 207.542 305.453 213.574 307.882 218.767C310.31 223.96 313.508 228.887 314.751 234.483C317.818 248.283 305.34 263.149 307.717 277.084C308.583 282.159 310.626 287.457 312.399 292.291C314.172 297.125 314.047 301.547 312.399 306.424C309.702 314.405 305.124 318.168 301.899 325.951C300.25 329.931 300.38 334.389 300.463 338.696C300.546 343.003 300.515 347.494 298.599 351.352C296.683 355.21 292.295 358.192 288.135 357.075C292.489 362.194 300.528 363.724 306.458 360.563C311.929 357.646 314.99 351.721 317.609 346.101C330.291 318.889 336.998 316.592 336.65 286.572C336.628 284.64 336.266 254.573 336.266 254.573C336.266 254.573 331.517 253.307 328.78 251.418C314.615 241.642 314.099 224.219 314.211 210.716" fill="#263238"/>
<path d="M340.303 277.083V288.412C340.303 288.412 331.588 332.857 328.974 357.549C326.36 382.241 325.918 388.755 325.918 388.755C325.918 388.755 332.17 398.508 345.242 381.95C358.314 365.392 360.638 362.778 365.867 362.487C365.867 362.487 359.476 293.059 359.767 290.445C360.057 287.831 362.091 285.507 362.091 285.507L340.303 277.083Z" fill="#FFBE9D"/>
<path d="M357.442 251.519C357.442 251.519 343.208 270.401 342.046 273.016C340.884 275.63 340.303 277.083 340.303 277.083L362.09 285.507L383.296 262.267L391.139 241.642L388.815 217.241C388.815 217.241 384.167 216.951 383.296 221.017C382.425 225.084 382.715 228.86 382.715 228.86L376.206 223.631L365.721 220.436C365.721 220.436 363.252 224.503 367.319 226.536C371.386 228.57 372.548 228.57 372.548 228.57L376.207 234.961L374.608 242.121L367.193 235.168C365.705 233.773 363.436 233.631 361.787 234.831L356.996 238.314L352.505 236.308L343.79 243.966L340.304 247.161C340.304 247.161 342.628 251.518 347.276 249.485C351.924 247.451 351.924 247.451 351.924 247.451L357.442 251.519Z" fill="#FFBE9D"/>
<path d="M340.303 280.906C340.303 280.906 340.285 280.701 340.298 280.301C340.311 279.901 340.346 279.305 340.441 278.528C340.539 277.752 340.69 276.791 340.986 275.681C341.309 274.585 341.675 273.283 342.514 272.023C345.769 267.018 350.901 260.058 357.296 251.41L357.334 251.666C355.609 250.401 353.742 249.031 351.806 247.61L352.001 247.632C351.061 248.045 350.103 248.466 349.128 248.895C348.148 249.303 347.19 249.825 346.067 250.088C344.962 250.341 343.719 250.259 342.666 249.702C341.599 249.175 340.739 248.308 340.11 247.264L340.025 247.123L340.155 247.001C343.902 243.485 348.067 239.926 352.346 236.13L352.475 236.016L352.624 236.104C353.822 236.811 355.15 237.596 356.492 238.389L356.236 238.395C357.723 237.417 359.233 236.423 360.763 235.416C361.545 234.914 362.262 234.402 363.112 233.898C364.023 233.433 365.194 233.532 366.024 234.153C368.9 236.583 371.845 239.071 374.842 241.603L374.427 241.742C374.907 239.589 375.427 237.258 375.952 234.905L375.98 235.089C374.823 233.069 373.577 230.893 372.32 228.699L372.545 228.83C371.855 228.755 371.331 228.547 370.74 228.343C370.166 228.132 369.598 227.891 369.03 227.638C368.461 227.386 367.898 227.112 367.333 226.834C367.05 226.694 366.767 226.51 366.483 226.348C366.234 226.128 365.939 225.96 365.73 225.689C365.061 224.982 364.673 223.984 364.722 223.019C364.744 222.049 365.032 221.14 365.495 220.3L365.592 220.125L365.794 220.187C369.336 221.267 372.833 222.334 376.278 223.384L376.326 223.399L376.365 223.43C378.562 225.196 380.731 226.94 382.872 228.661L382.459 228.879C382.322 226.246 382.505 223.655 383.013 221.145C383.232 219.863 383.994 218.599 385.132 217.928C386.256 217.233 387.545 216.97 388.829 216.994L389.038 216.998L389.059 217.216C389.876 225.89 390.645 234.063 391.357 241.62L391.362 241.671L391.344 241.719C388.437 249.322 385.801 256.216 383.464 262.33L383.452 262.362L383.429 262.387C376.456 269.977 370.845 276.086 366.963 280.311C365.03 282.399 363.529 284.021 362.497 285.135C361.993 285.672 361.605 286.084 361.329 286.377C361.064 286.655 360.919 286.788 360.919 286.788C360.919 286.788 361.039 286.631 361.291 286.342C361.558 286.041 361.933 285.617 362.421 285.066C363.437 283.937 364.915 282.293 366.817 280.178C370.671 275.927 376.241 269.781 383.163 262.144L383.128 262.201C385.444 256.079 388.054 249.176 390.934 241.562L390.921 241.66C390.193 234.105 389.406 225.934 388.571 217.261L388.8 217.483C387.64 217.462 386.398 217.718 385.399 218.346C384.377 218.959 383.717 220.043 383.506 221.244C383.011 223.698 382.834 226.275 382.969 228.837L382.999 229.412L382.555 229.055C380.413 227.336 378.242 225.593 376.044 223.829L376.13 223.874C372.684 222.825 369.186 221.759 365.644 220.681L365.942 220.567C365.536 221.303 365.257 222.175 365.245 223.025C365.204 223.883 365.535 224.713 366.114 225.332C366.29 225.569 366.562 225.718 366.78 225.916C367.044 226.064 367.288 226.226 367.566 226.364C368.125 226.64 368.683 226.911 369.244 227.159C370.344 227.64 371.524 228.149 372.547 228.306L372.712 228.331L372.772 228.437C374.028 230.632 375.273 232.808 376.429 234.828L376.479 234.915L376.457 235.013C375.931 237.366 375.409 239.697 374.928 241.849L374.836 242.262L374.513 241.988C371.528 239.46 368.595 236.977 365.729 234.55C365.048 234.039 364.083 233.955 363.333 234.337C362.588 234.779 361.794 235.334 361.035 235.821C359.503 236.826 357.991 237.817 356.503 238.793L356.377 238.876L356.247 238.799C354.906 238.004 353.579 237.216 352.383 236.507L352.661 236.481C348.377 240.267 344.203 243.815 340.451 247.317L340.496 247.054C341.061 247.997 341.886 248.84 342.858 249.316C343.823 249.83 344.948 249.907 345.979 249.677C347.007 249.445 347.984 248.927 348.966 248.52C349.943 248.095 350.902 247.677 351.844 247.267L351.948 247.222L352.039 247.289C353.969 248.717 355.83 250.095 357.55 251.367L357.698 251.476L357.588 251.623C351.159 260.238 345.979 267.172 342.684 272.124C341.849 273.346 341.468 274.635 341.133 275.716C340.824 276.814 340.657 277.767 340.543 278.537C340.432 279.308 340.38 279.901 340.35 280.299C340.32 280.702 340.303 280.906 340.303 280.906Z" fill="#EB996E"/>
<path d="M367.263 255.892C367.159 255.876 367.544 254.351 367.703 251.876C367.754 250.649 367.684 249.142 367.016 247.678C366.352 246.211 365.041 244.935 363.546 243.781C360.53 241.454 357.622 239.58 355.482 238.289C354.481 237.7 353.629 237.198 352.929 236.786C352.324 236.433 351.993 236.229 352.01 236.196C352.026 236.165 352.388 236.308 353.023 236.607C353.659 236.905 354.566 237.364 355.666 237.971C357.865 239.186 360.823 241.022 363.866 243.371C365.382 244.541 366.761 245.89 367.453 247.481C368.145 249.066 368.169 250.647 368.071 251.9C367.965 253.165 367.737 254.162 367.579 254.846C367.413 255.527 367.297 255.899 367.263 255.892Z" fill="#EB996E"/>
<path d="M382.51 246.828C382.431 246.808 382.642 245.82 382.88 244.215C383.119 242.61 383.346 240.378 383.328 237.906C383.304 235.433 383.039 233.205 382.773 231.604C382.508 230.003 382.281 229.019 382.359 228.997C382.419 228.98 382.773 229.933 383.134 231.534C383.496 233.133 383.824 235.391 383.848 237.901C383.867 240.411 383.577 242.673 383.242 244.278C382.908 245.885 382.57 246.844 382.51 246.828Z" fill="#EB996E"/>
<path d="M285.402 172.734L274.978 154.363C279.589 146.878 282.255 138.066 282.255 128.629C282.255 101.491 260.255 79.491 233.117 79.491C205.979 79.491 183.979 101.491 183.979 128.629C183.979 155.767 205.979 177.767 233.117 177.767C244.449 177.767 254.877 173.921 263.189 167.477L263.172 167.499L285.402 172.734Z" fill="white"/>
<path d="M285.402 172.734C284.493 172.525 277.362 170.889 263.142 167.626L262.947 167.581L263.069 167.421L263.086 167.399L263.268 167.58C260.465 169.749 257.108 171.887 253.162 173.667C249.212 175.417 244.686 176.846 239.69 177.51C237.196 177.828 234.59 178.033 231.912 177.901C230.574 177.825 229.212 177.792 227.838 177.677C226.473 177.471 225.09 177.261 223.688 177.049C218.127 175.95 212.441 173.838 207.137 170.546C201.837 167.266 196.929 162.812 192.996 157.34C189.069 151.878 186.091 145.402 184.697 138.365C183.317 131.338 183.432 123.806 185.278 116.516C187.137 109.252 190.608 102.156 195.805 96.318L197.811 94.111C198.47 93.369 199.257 92.7569 199.971 92.0759C200.719 91.4319 201.394 90.703 202.198 90.134C202.985 89.545 203.771 88.958 204.555 88.372C205.318 87.755 206.159 87.258 206.995 86.758C207.828 86.252 208.658 85.748 209.487 85.245C210.359 84.822 211.228 84.3989 212.096 83.9779C212.971 83.5749 213.812 83.0969 214.729 82.8069C221.863 79.9739 229.472 78.8959 236.744 79.4229C244.019 79.9459 250.98 82.0329 256.952 85.3939C262.943 88.7279 267.995 93.18 271.895 98.153C275.807 103.128 278.563 108.616 280.271 114.081C281.967 119.571 282.427 125.017 282.409 130.058C282.264 135.111 281.346 139.768 280.007 143.854C278.665 147.946 276.903 151.467 275.083 154.429L275.085 154.302C281.701 166.121 284.966 171.955 285.402 172.734C284.957 171.961 281.623 166.165 274.869 154.425L274.833 154.362L274.872 154.298C276.665 151.34 278.4 147.832 279.716 143.759C281.029 139.693 281.923 135.065 282.05 130.048C282.05 125.043 281.579 119.641 279.883 114.201C278.176 108.786 275.431 103.352 271.545 98.429C267.671 93.508 262.658 89.106 256.721 85.813C250.802 82.492 243.909 80.436 236.707 79.924C229.506 79.409 221.978 80.482 214.92 83.287C214.012 83.573 213.18 84.0469 212.315 84.4469C211.457 84.8639 210.597 85.2819 209.734 85.7009C208.914 86.1989 208.093 86.6989 207.269 87.1989C206.442 87.6939 205.609 88.1859 204.855 88.7969C204.079 89.3769 203.302 89.958 202.523 90.541C201.727 91.104 201.061 91.8259 200.32 92.4629C199.613 93.1369 198.834 93.7419 198.183 94.4769L196.2 96.66C191.057 102.436 187.622 109.457 185.779 116.643C183.95 123.854 183.83 131.31 185.19 138.267C186.563 145.233 189.505 151.647 193.386 157.061C197.275 162.485 202.128 166.905 207.374 170.165C212.623 173.437 218.254 175.543 223.766 176.646C225.156 176.86 226.528 177.071 227.881 177.279C229.243 177.397 230.595 177.432 231.922 177.512C234.579 177.65 237.165 177.454 239.642 177.147C244.603 176.505 249.101 175.102 253.034 173.379C256.962 171.626 260.309 169.517 263.109 167.375L263.894 166.774L263.291 167.556L263.274 167.578L263.201 167.373C277.384 170.798 284.496 172.515 285.402 172.734Z" fill="#263238"/>
<path d="M222.466 128.629C222.466 130.833 220.68 132.619 218.476 132.619C216.272 132.619 214.486 130.833 214.486 128.629C214.486 126.426 216.272 124.64 218.476 124.64C220.68 124.64 222.466 126.426 222.466 128.629Z" fill="#263238"/>
<path d="M238.433 128.629C238.433 130.833 236.647 132.619 234.443 132.619C232.239 132.619 230.453 130.833 230.453 128.629C230.453 126.426 232.239 124.64 234.443 124.64C236.647 124.64 238.433 126.426 238.433 128.629Z" fill="#263238"/>
<path d="M254.357 126.634C255.459 128.542 254.805 130.982 252.897 132.084C250.989 133.186 248.549 132.532 247.447 130.624C246.345 128.716 246.999 126.276 248.907 125.174C250.815 124.073 253.255 124.726 254.357 126.634Z" fill="#263238"/>
<path d="M482.043 442.142C482.043 442.286 380.384 442.402 255.01 442.402C129.592 442.402 27.9551 442.285 27.9551 442.142C27.9551 441.999 129.592 441.882 255.01 441.882C380.384 441.882 482.043 441.998 482.043 442.142Z" fill="#263238"/>
<path d="M353.555 442.385C353.555 442.385 360.337 430.803 374.943 430.306C389.549 429.809 396.853 442.385 396.853 442.385H353.555Z" fill="#455A64"/>
<path d="M381.546 442.023C381.439 442.023 381.413 441.166 381.118 439.843C380.829 438.521 380.189 436.741 379.034 435.032C377.87 433.328 376.451 432.077 375.329 431.322C374.207 430.56 373.42 430.221 373.46 430.121C373.481 430.056 374.339 430.248 375.568 430.94C376.794 431.623 378.341 432.886 379.561 434.674C380.773 436.467 381.377 438.37 381.561 439.762C381.751 441.159 381.614 442.028 381.546 442.023Z" fill="#263238"/>
<path d="M344.512 441.855L344.511 441.763C344.461 438.702 341.965 436.247 338.904 436.247H214.559C211.462 436.247 208.951 438.758 208.951 441.855H344.512Z" fill="#455A64"/>
<path d="M106.473 224.044C106.473 226.66 108.432 382.824 108.432 382.824L224.417 410.73H234.01L227.905 192.713H219.184L106.473 224.044Z" fill="#263238"/>
<path d="M131.002 376.287L95.0547 442.173H127.911C122.035 441.586 179.939 442.173 179.939 442.173L127.911 428.377L144.18 391.425L142.792 376.287H131.002Z" fill="#263238"/>
<path d="M131.803 388.448L127.91 265.654L163.228 262.267L167.582 393.38L154.966 394.021L131.803 388.448Z" fill="#263238"/>
<path d="M172.52 398.244C172.52 398.244 172.505 398.051 172.498 397.673C172.493 397.281 172.486 396.721 172.477 395.989C172.468 394.491 172.454 392.301 172.436 389.465C172.419 383.758 172.394 375.462 172.363 365.041C172.34 344.169 172.308 314.796 172.27 280.736L172.519 280.985C159.448 280.988 145.387 280.992 130.845 280.996L131.105 280.736C131.105 282.528 131.105 284.461 131.105 286.403C131.089 319.617 131.075 350.532 131.063 376.287V376.343L131.036 376.391C120.219 396.224 111.246 412.675 104.969 424.184C101.826 429.917 99.3587 434.415 97.6697 437.495C96.8277 439.016 96.1797 440.185 95.7357 440.987C95.2957 441.775 95.0527 442.173 95.0527 442.173C95.0527 442.173 95.2547 441.753 95.6757 440.955C96.1067 440.145 96.7347 438.967 97.5527 437.432C99.2177 434.339 101.649 429.821 104.747 424.064C110.985 412.534 119.902 396.052 130.652 376.183L130.626 376.287C130.614 350.532 130.599 319.617 130.584 286.403C130.584 284.462 130.584 282.529 130.584 280.736V280.476H130.844C145.386 280.48 159.447 280.484 172.518 280.487H172.768V280.736C172.731 314.796 172.698 344.169 172.675 365.041C172.644 375.462 172.619 383.757 172.602 389.465C172.584 392.302 172.57 394.492 172.561 395.989C172.552 396.721 172.545 397.28 172.54 397.673C172.535 398.051 172.52 398.244 172.52 398.244Z" fill="#455A64"/>
<path d="M144.178 391.425C144.31 391.483 139.307 403.048 133.007 417.252C126.704 431.461 121.49 442.928 121.358 442.87C121.227 442.812 126.228 431.25 132.53 417.041C138.832 402.837 144.047 391.367 144.178 391.425Z" fill="#455A64"/>
<path d="M224.419 410.731C224.419 410.731 224.4 410.541 224.39 410.169C224.382 409.778 224.371 409.23 224.357 408.521C224.339 407.051 224.314 404.919 224.281 402.184C224.24 396.681 224.116 388.717 223.922 378.879C223.548 359.201 222.66 332.027 221.57 302.017C220.48 271.996 219.65 244.813 219.37 225.13C219.223 215.289 219.155 207.325 219.176 201.821C219.185 199.085 219.193 196.953 219.198 195.484C219.206 194.775 219.212 194.227 219.217 193.836C219.224 193.465 219.241 193.275 219.241 193.275C219.241 193.275 219.26 193.465 219.27 193.836C219.278 194.227 219.289 194.775 219.303 195.484C219.321 196.954 219.346 199.085 219.379 201.821C219.42 207.324 219.544 215.286 219.738 225.125C220.112 244.803 221 271.979 222.09 302C223.18 332.01 224.01 359.191 224.29 378.874C224.437 388.715 224.505 396.68 224.484 402.185C224.475 404.921 224.467 407.053 224.462 408.523C224.454 409.232 224.448 409.78 224.443 410.171C224.436 410.54 224.419 410.731 224.419 410.731Z" fill="#455A64"/>
<path d="M166.194 279.829C166.338 279.829 166.454 305.946 166.454 338.156C166.454 370.377 166.337 396.489 166.194 396.489C166.05 396.489 165.934 370.377 165.934 338.156C165.934 305.946 166.05 279.829 166.194 279.829Z" fill="#455A64"/>
<path d="M103.696 431.889C103.681 431.899 103.51 431.66 103.197 431.194C103.034 430.947 102.843 430.659 102.623 430.327C102.386 429.99 102.143 429.583 101.903 429.105C100.82 427.265 99.5903 424.385 98.7313 420.655C97.8773 416.925 97.5873 412.317 98.1123 407.287C98.6863 402.265 100.035 396.809 102.446 391.482C103.661 388.815 105.229 386.397 106.98 384.27C107.402 383.724 107.836 383.197 108.305 382.709C108.765 382.213 109.206 381.709 109.668 381.234C110.631 380.325 111.535 379.391 112.527 378.602C114.43 376.93 116.442 375.599 118.337 374.391C119.323 373.85 120.252 373.284 121.19 372.825C122.141 372.395 123.018 371.902 123.92 371.579C127.462 370.138 130.511 369.438 132.64 369.256C133.695 369.079 134.533 369.144 135.092 369.107C135.653 369.096 135.947 369.099 135.947 369.117C135.947 369.135 135.653 369.167 135.095 369.212C134.539 369.283 133.709 369.251 132.665 369.458C130.559 369.7 127.552 370.449 124.062 371.92C123.173 372.251 122.309 372.75 121.372 373.184C120.448 373.647 119.533 374.217 118.562 374.761C116.696 375.973 114.713 377.304 112.839 378.968C111.862 379.753 110.973 380.681 110.024 381.584C109.569 382.055 109.135 382.555 108.682 383.046C108.22 383.53 107.793 384.052 107.378 384.591C105.655 386.695 104.113 389.081 102.92 391.701C100.538 396.963 99.1843 402.376 98.5903 407.341C98.0453 412.319 98.2923 416.877 99.0923 420.578C99.8963 424.279 101.061 427.153 102.082 429.01C102.306 429.492 102.534 429.904 102.756 430.248C102.959 430.589 103.134 430.884 103.285 431.137C103.569 431.62 103.711 431.879 103.696 431.889Z" fill="#455A64"/>
</svg>
