<svg width="750" height="500" viewBox="0 0 750 500" fill="none" xmlns="http://www.w3.org/2000/svg">
<path d="M578.56 118.658L579.544 122.194L576.358 144.669L570.43 146.317L573.565 124.836L565.752 127.009L566.819 130.849L561.968 132.198L559.664 123.913L578.56 118.658Z" fill="#E0E0E0"/>
<path d="M602.723 129.355C603.884 133.532 601.83 138.021 595.095 139.894C591.828 140.803 588.139 140.848 585.4 139.869L586.394 135.094C588.553 135.945 591.228 136.035 593.686 135.352C596.415 134.593 597.78 132.98 597.247 131.06C596.731 129.208 595.183 128.333 590.905 129.522L584.876 131.199L582.398 117.592L596.78 113.593L597.998 117.972L588.163 120.706L589.038 125.288L590.958 124.755C597.929 122.815 601.561 125.179 602.723 129.355Z" fill="#E0E0E0"/>
<path d="M602.284 118.773C601.216 114.934 602.66 111.775 605.826 110.895C608.958 110.024 611.85 111.941 612.927 115.814C614.004 119.687 612.517 122.822 609.385 123.693C606.218 124.574 603.351 122.613 602.284 118.773ZM611.243 116.282C610.39 113.218 608.436 111.802 606.247 112.411C604.024 113.029 603.125 115.274 603.968 118.306C604.811 121.337 606.74 122.796 608.963 122.178C611.152 121.569 612.094 119.347 611.243 116.282ZM620.153 107.092L622.139 106.539L612.596 134.592L610.61 135.145L620.153 107.092ZM619.823 125.87C618.756 122.03 620.232 118.862 623.365 117.991C626.531 117.11 629.398 119.071 630.466 122.911C631.533 126.75 630.09 129.909 626.924 130.79C623.792 131.661 620.89 129.709 619.823 125.87ZM628.782 123.379C627.939 120.348 626.01 118.889 623.786 119.507C621.598 120.115 620.654 122.337 621.507 125.403C622.359 128.467 624.314 129.883 626.502 129.274C628.725 128.656 629.625 126.41 628.782 123.379Z" fill="#E0E0E0"/>
<path d="M629.888 446.948L700.299 447.498L700.992 358.623L630.581 358.073L629.888 446.948Z" fill="#EBEBEB"/>
<path d="M673.485 361.231L672.233 447.284L661.109 447.198L663.493 361.153L673.485 361.231Z" fill="#FAFAFA"/>
<path d="M590.189 360.581L630.585 360.896L700.994 361.446L630.509 370.72L629.913 446.954L589.535 446.639L590.189 360.581Z" fill="#E0E0E0"/>
<path d="M612.18 360.752L610.575 446.803L598.588 446.71L600.547 360.661L612.18 360.752Z" fill="#FAFAFA"/>
<path d="M644.147 334.562C644.152 334.74 642.961 334.955 640.795 335.171C638.628 335.377 635.484 335.609 631.564 335.58C627.633 335.517 622.972 335.251 617.782 333.774C617.119 333.549 616.437 333.282 615.764 332.872C615.097 332.47 614.416 331.912 613.923 331.133C613.414 330.361 613.192 329.405 613.183 328.558C613.168 327.701 613.316 326.92 613.48 326.198C614.16 323.453 614.855 320.606 616.087 317.738C616.71 316.315 617.461 314.94 618.369 313.683C619.288 312.454 620.318 311.255 621.719 310.37C622.414 309.934 623.196 309.584 624.045 309.41C624.891 309.236 625.793 309.26 626.601 309.456C628.232 309.863 629.448 310.759 630.493 311.584C634.61 314.902 637.623 318.647 639.671 322.04C641.725 325.443 642.813 328.489 643.382 330.612C643.931 332.749 643.995 333.973 643.839 334.008C643.403 334.143 642.408 329.333 638.123 323.038C635.976 319.926 632.972 316.501 629.015 313.475C628.049 312.739 627.042 312.097 626.041 311.88C625.058 311.66 624.064 311.886 623.09 312.521C622.121 313.137 621.259 314.124 620.467 315.201C619.695 316.286 619.038 317.491 618.474 318.776C617.363 321.349 616.651 324.131 615.961 326.785C615.639 328.061 615.576 329.125 616.03 329.814C616.46 330.549 617.473 331.119 618.561 331.505C619.655 331.885 620.88 332.174 622.028 332.429C623.184 332.691 624.322 332.887 625.426 333.063C627.637 333.405 629.724 333.605 631.637 333.74C635.467 334.002 638.6 334.052 640.767 334.157C642.937 334.254 644.142 334.381 644.147 334.562Z" fill="#E0E0E0"/>
<path d="M642.692 335.206C642.663 335.027 643.968 334.651 646.343 334.109C648.716 333.557 652.166 332.863 656.37 331.849C660.567 330.826 665.537 329.484 670.752 327.306C672.048 326.772 673.33 326.176 674.358 325.389C674.865 324.999 675.289 324.556 675.517 324.108C675.753 323.662 675.811 323.218 675.716 322.653C675.621 322.09 675.357 321.45 675.032 320.752C674.695 320.04 674.356 319.323 674.014 318.6C673.322 317.171 672.576 315.773 671.711 314.458C670.84 313.149 669.869 311.958 668.756 310.966C667.643 309.967 666.426 309.114 665.178 308.664C663.92 308.198 662.641 308.129 661.465 308.502C660.277 308.865 659.172 309.634 658.142 310.519C653.947 314.223 650.724 318.239 648.508 321.866C646.266 325.497 644.989 328.738 644.233 331.014C643.482 333.296 643.182 334.614 642.981 334.585C642.826 334.566 642.785 333.189 643.253 330.756C643.725 328.332 644.783 324.855 646.914 320.945C649.029 317.03 652.209 312.736 656.559 308.716C657.682 307.713 659.012 306.694 660.709 306.133C662.404 305.553 664.364 305.649 666.041 306.264C666.888 306.562 667.681 306.974 668.424 307.453C669.14 307.936 669.841 308.449 670.486 309.038C671.796 310.194 672.916 311.567 673.883 313.022C674.843 314.482 675.638 315.989 676.347 317.473C676.691 318.214 677.033 318.95 677.373 319.68C677.708 320.426 678.073 321.254 678.235 322.241C678.412 323.215 678.261 324.395 677.743 325.297C677.246 326.21 676.549 326.855 675.862 327.371C674.469 328.391 673.023 328.994 671.656 329.529C666.191 331.664 661.058 332.844 656.755 333.649C652.444 334.445 648.935 334.863 646.506 335.109C644.076 335.345 642.72 335.383 642.692 335.206Z" fill="#FAFAFA"/>
<path d="M577.35 360.475L680.846 361.282L681.075 331.866L577.579 331.059L577.35 360.475Z" fill="#E0E0E0"/>
<path d="M615.404 360.772L708.955 361.502L709.185 332.086L615.634 331.356L615.404 360.772Z" fill="#EBEBEB"/>
<path d="M680.507 331.868L679.848 361.421L668.938 361.195L669.699 331.784L680.507 331.868Z" fill="#FAFAFA"/>
<path d="M602.988 331.409L601.933 360.696L589.938 360.601L590.581 331.166L602.988 331.409Z" fill="#FAFAFA"/>
<path d="M683.588 447.986L715.75 448.237L716.067 407.641L683.905 407.39L683.588 447.986Z" fill="#EBEBEB"/>
<path d="M703.515 408.837L702.944 448.145L697.863 448.105L698.951 408.802L703.515 408.837Z" fill="#FAFAFA"/>
<path d="M665.469 408.54L683.921 408.684L716.082 408.935L683.886 413.172L683.614 447.994L665.17 447.85L665.469 408.54Z" fill="#E0E0E0"/>
<path d="M675.514 408.619L674.781 447.925L669.305 447.882L670.2 408.577L675.514 408.619Z" fill="#FAFAFA"/>
<path d="M690.115 396.655C690.12 396.988 687.972 397.486 684.347 397.62C682.514 397.65 680.378 397.592 677.86 396.912C677.216 396.689 676.376 396.389 675.736 395.447C675.426 394.982 675.291 394.399 675.286 393.922C675.276 393.438 675.355 393.029 675.432 392.675C675.74 391.397 676.053 390.079 676.649 388.688C676.95 388 677.318 387.326 677.77 386.705C678.224 386.103 678.74 385.497 679.498 385.02C680.217 384.539 681.321 384.274 682.253 384.529C683.169 384.766 683.781 385.245 684.28 385.645C686.204 387.24 687.583 389.038 688.492 390.664C690.303 393.967 690.283 396.363 689.975 396.401C689.587 396.5 688.955 394.377 686.944 391.661C685.936 390.315 684.567 388.838 682.803 387.536C682.383 387.224 681.98 387 681.693 386.952C681.424 386.909 681.212 386.952 680.869 387.171C680.544 387.38 680.196 387.773 679.869 388.223C679.553 388.672 679.278 389.176 679.037 389.726C678.562 390.821 678.233 392.074 677.915 393.262C677.769 393.817 677.801 394.071 677.845 394.128C677.876 394.238 678.198 394.483 678.64 394.642C679.569 394.965 680.684 395.213 681.641 395.389C682.624 395.567 683.559 395.686 684.421 395.78C687.879 396.115 690.111 396.271 690.115 396.655Z" fill="#E0E0E0"/>
<path d="M689.45 396.95C689.384 396.575 691.8 395.945 695.594 394.927C697.482 394.401 699.708 393.744 702.023 392.737C702.595 392.494 703.137 392.223 703.507 391.927C703.69 391.783 703.809 391.636 703.84 391.557C703.871 391.477 703.872 391.475 703.851 391.327C703.819 391.069 703.418 390.29 703.124 389.67C702.813 389.032 702.485 388.424 702.115 387.862C701.744 387.304 701.34 386.809 700.885 386.401C700.426 385.984 699.93 385.64 699.486 385.477C699.025 385.305 698.626 385.28 698.23 385.394C697.826 385.506 697.382 385.79 696.937 386.161C695.063 387.767 693.579 389.526 692.539 391.105C690.425 394.283 689.983 396.731 689.582 396.664C689.415 396.642 689.303 395.998 689.44 394.845C689.579 393.698 690.002 392.045 690.945 390.183C691.884 388.316 693.325 386.28 695.354 384.358C695.892 383.868 696.561 383.334 697.474 383.024C698.39 382.703 699.469 382.754 700.349 383.076C700.796 383.231 701.206 383.443 701.586 383.686C701.945 383.926 702.293 384.179 702.615 384.471C703.267 385.044 703.819 385.72 704.287 386.424C704.751 387.13 705.128 387.848 705.456 388.541C705.614 388.885 705.771 389.226 705.926 389.564C706.081 389.918 706.276 390.347 706.368 390.913C706.471 391.469 706.377 392.208 706.064 392.743C705.764 393.286 705.371 393.636 705.009 393.906C704.274 394.435 703.569 394.713 702.925 394.957C700.361 395.921 697.972 396.415 695.978 396.724C691.98 397.305 689.507 397.282 689.45 396.95Z" fill="#FAFAFA"/>
<path d="M659.59 408.488L706.865 408.856L706.97 395.419L659.695 395.051L659.59 408.488Z" fill="#E0E0E0"/>
<path d="M676.973 408.623L719.705 408.957L719.81 395.52L677.078 395.186L676.973 408.623Z" fill="#EBEBEB"/>
<path d="M706.723 395.425L706.422 408.924L701.439 408.821L701.787 395.387L706.723 395.425Z" fill="#FAFAFA"/>
<path d="M671.314 395.215L670.833 408.593L665.354 408.549L665.646 395.104L671.314 395.215Z" fill="#FAFAFA"/>
<path d="M71.6931 447.818L129.373 448.268L129.941 375.462L72.2609 375.012L71.6931 447.818Z" fill="#EBEBEB"/>
<path d="M107.394 377.604L106.369 448.099L97.2559 448.028L99.2079 377.54L107.394 377.604Z" fill="#FAFAFA"/>
<path d="M39.1571 377.071L72.2501 377.33L129.928 377.78L72.1871 385.378L71.6991 447.828L38.6211 447.57L39.1571 377.071Z" fill="#E0E0E0"/>
<path d="M57.1731 377.212L55.8591 447.705L46.0391 447.628L47.6441 377.138L57.1731 377.212Z" fill="#FAFAFA"/>
<path d="M83.3596 355.757C83.3706 356.115 82.4026 356.493 80.6296 356.854C78.8546 357.207 76.2716 357.564 73.0076 357.677C71.3756 357.729 69.5716 357.712 67.6226 357.546C66.6486 357.459 65.6376 357.349 64.5996 357.173C63.5456 356.993 62.5436 356.824 61.3006 356.451C60.6866 356.252 60.0376 356.01 59.3486 355.601C58.6716 355.2 57.9216 354.61 57.3556 353.727C56.7706 352.851 56.5156 351.748 56.5056 350.859C56.4866 349.955 56.6316 349.202 56.7716 348.558C57.3226 346.256 57.8826 343.885 58.9636 341.361C59.5096 340.113 60.1796 338.887 61.0036 337.756C61.4316 337.189 61.8566 336.67 62.3706 336.137C62.8946 335.605 63.4856 335.104 64.1786 334.669C64.8736 334.238 65.6826 333.876 66.5876 333.696C67.4876 333.514 68.4726 333.546 69.3186 333.76C71.0266 334.205 72.1456 335.09 73.0476 335.817C76.5146 338.708 78.9886 341.965 80.6086 344.91C82.2326 347.864 82.9976 350.496 83.3016 352.328C83.5886 354.174 83.4436 355.226 83.1096 355.303C82.3416 355.495 81.1416 351.715 77.5136 346.905C75.6966 344.521 73.2416 341.904 70.0946 339.599C69.3506 339.048 68.6476 338.672 68.1996 338.606C67.7866 338.551 67.4976 338.606 66.9216 338.971C66.6526 339.155 66.3616 339.406 66.0776 339.71C65.7936 340.021 65.4806 340.415 65.2026 340.793C64.6496 341.58 64.1666 342.467 63.7406 343.438C62.9016 345.371 62.3096 347.612 61.7376 349.733C61.6166 350.199 61.5556 350.569 61.5496 350.788C61.5486 351.016 61.5566 351.039 61.5736 351.088C61.5656 351.199 62.0906 351.634 62.8626 351.912C63.6126 352.197 64.6186 352.462 65.5106 352.684C66.4186 352.915 67.3186 353.097 68.1946 353.264C69.9476 353.593 71.6176 353.817 73.1586 353.996C76.2426 354.348 78.8026 354.556 80.5776 354.826C82.3536 355.09 83.3486 355.397 83.3596 355.757Z" fill="#E0E0E0"/>
<path d="M82.1694 356.285C82.0394 355.539 86.3654 354.342 93.1484 352.472C96.5244 351.506 100.499 350.311 104.624 348.501C105.643 348.065 106.597 347.58 107.224 347.074C107.534 346.829 107.719 346.586 107.747 346.493C107.774 346.397 107.767 346.468 107.737 346.246C107.699 346.035 107.543 345.622 107.281 345.078C107.007 344.506 106.73 343.929 106.452 343.348C105.895 342.209 105.312 341.13 104.66 340.137C104.004 339.151 103.295 338.282 102.5 337.567C102.111 337.2 101.683 336.884 101.262 336.586C100.866 336.32 100.464 336.105 100.08 335.96C99.2974 335.666 98.6504 335.626 97.9944 335.808C97.3224 335.989 96.5494 336.471 95.7604 337.126C92.4154 339.973 89.7494 343.1 87.8744 345.901C84.0604 351.54 83.1994 355.902 82.4054 355.776C82.0694 355.732 81.8344 354.57 82.0494 352.487C82.2684 350.415 83.0054 347.426 84.6854 344.058C86.3584 340.68 88.9384 337 92.5934 333.52C93.5684 332.629 94.7904 331.646 96.4814 331.07C98.1774 330.472 100.183 330.567 101.805 331.159C102.629 331.445 103.382 331.833 104.079 332.279C104.736 332.716 105.371 333.179 105.957 333.71C107.147 334.755 108.152 335.985 109.001 337.264C109.843 338.545 110.524 339.845 111.114 341.093C111.398 341.711 111.679 342.325 111.959 342.934C112.239 343.573 112.598 344.363 112.77 345.422C112.963 346.46 112.785 347.863 112.194 348.87C111.628 349.892 110.895 350.54 110.227 351.038C108.871 352.011 107.589 352.51 106.427 352.949C101.803 354.673 97.5024 355.543 93.9144 356.075C90.3194 356.598 87.4104 356.778 85.3874 356.798C83.3674 356.807 82.2254 356.639 82.1694 356.285Z" fill="#FAFAFA"/>
<path d="M28.6515 376.979L113.436 377.64L113.624 353.542L28.8395 352.881L28.6515 376.979Z" fill="#E0E0E0"/>
<path d="M59.8278 377.223L136.465 377.821L136.653 353.723L60.0158 353.125L59.8278 377.223Z" fill="#EBEBEB"/>
<path d="M113.146 353.55L112.606 377.76L103.668 377.575L104.292 353.481L113.146 353.55Z" fill="#FAFAFA"/>
<path d="M49.6412 353.174L48.7772 377.166L38.9512 377.088L39.4782 352.975L49.6412 353.174Z" fill="#FAFAFA"/>
<path d="M137.797 76.6827L138.775 80.4887L123.522 84.4057L122.745 81.3787L128.642 72.0267C129.993 69.8667 130.043 68.7477 129.791 67.7667C129.384 66.1807 128.052 65.5387 125.918 66.0867C124.188 66.5307 122.887 67.5717 122.256 69.1797L118.289 67.8617C119.262 65.1837 121.71 62.9877 125.343 62.0547C129.842 60.8997 133.433 62.4367 134.373 66.0987C134.876 68.0597 134.787 69.9887 132.635 73.3367L129.118 78.9117L137.797 76.6827Z" fill="#E0E0E0"/>
<path d="M138.061 69.915C136.351 63.254 139.072 58.528 144.032 57.255C149.02 55.974 153.652 58.812 155.363 65.473C157.073 72.133 154.381 76.851 149.392 78.132C144.432 79.406 139.772 76.576 138.061 69.915ZM150.663 66.679C149.485 62.094 147.382 60.607 145.046 61.206C142.739 61.798 141.613 64.115 142.79 68.7C143.968 73.285 146.071 74.773 148.378 74.181C150.713 73.582 151.84 71.264 150.663 66.679Z" fill="#E0E0E0"/>
<path d="M156.509 60.1069C155.665 56.8199 156.947 54.1549 159.658 53.4589C162.34 52.7699 164.768 54.4519 165.62 57.7679C166.472 61.0839 165.153 63.7279 162.472 64.4159C159.76 65.1119 157.352 63.3949 156.509 60.1069ZM164.178 58.1369C163.504 55.5129 161.865 54.2749 159.99 54.7559C158.088 55.2439 157.284 57.1409 157.95 59.7359C158.617 62.3309 160.234 63.6059 162.138 63.1179C164.012 62.6369 164.852 60.7609 164.178 58.1369ZM171.921 50.4629L173.623 50.0259L165.021 73.7489L163.321 74.1859L171.921 50.4629ZM171.322 66.4459C170.478 63.1589 171.79 60.4869 174.471 59.7979C177.181 59.1029 179.589 60.8189 180.433 64.1079C181.278 67.3939 179.995 70.0599 177.285 70.7549C174.603 71.4439 172.167 69.7329 171.322 66.4459ZM178.992 64.4769C178.326 61.8809 176.708 60.6069 174.805 61.0949C172.93 61.5759 172.09 63.4509 172.764 66.0749C173.438 68.6989 175.078 69.9369 176.953 69.4559C178.855 68.9679 179.659 67.0719 178.992 64.4769Z" fill="#E0E0E0"/>
<path d="M327.235 139.915C327.306 144.04 324.191 147.871 317.235 147.991C313.81 148.05 310.263 147.166 307.857 145.53L309.984 141.158C311.86 142.524 314.461 143.283 317.013 143.239C319.844 143.19 321.572 142.008 321.537 140.014C321.505 138.161 320.122 137.032 316.907 137.088L314.32 137.132L314.256 133.392L319.191 127.608L308.775 127.788L308.697 123.244L325.824 122.949L325.888 126.619L320.474 133.006C324.889 133.627 327.173 136.315 327.235 139.915Z" fill="#E0E0E0"/>
<path d="M329.773 135.117C329.634 127.043 334.028 122.387 340.041 122.283C346.088 122.179 350.605 126.681 350.745 134.755C350.885 142.829 346.525 147.485 340.478 147.59C334.465 147.693 329.912 143.19 329.773 135.117ZM345.048 134.853C344.951 129.296 342.954 127.023 340.123 127.072C337.327 127.12 335.41 129.461 335.505 135.018C335.601 140.576 337.598 142.848 340.394 142.8C343.226 142.75 345.144 140.411 345.048 134.853Z" fill="#E0E0E0"/>
<path d="M353.511 128.938C353.443 124.954 355.634 122.258 358.919 122.202C362.17 122.146 364.487 124.728 364.557 128.748C364.626 132.768 362.4 135.428 359.149 135.484C355.863 135.54 353.58 132.923 353.511 128.938ZM362.809 128.778C362.754 125.597 361.218 123.736 358.947 123.775C356.64 123.815 355.206 125.763 355.259 128.908C355.314 132.054 356.815 133.951 359.121 133.911C361.393 133.872 362.863 131.958 362.809 128.778ZM373.741 122.121L375.804 122.085L359.519 146.84L357.456 146.876L373.741 122.121ZM368.705 140.214C368.637 136.23 370.862 133.533 374.112 133.477C377.398 133.42 379.681 136.038 379.749 140.023C379.817 144.006 377.626 146.702 374.341 146.759C371.091 146.816 368.774 144.198 368.705 140.214ZM378.003 140.054C377.948 136.908 376.447 135.011 374.14 135.05C371.868 135.09 370.398 137.003 370.452 140.184C370.507 143.364 372.043 145.226 374.314 145.186C376.622 145.147 378.056 143.199 378.003 140.054Z" fill="#E0E0E0"/>
<path d="M445.58 64.327C445.102 67.452 442.393 69.8239 437.352 69.0539C434.907 68.6809 432.44 67.6069 430.912 66.1349L433.002 63.2559C434.185 64.4689 435.936 65.3289 437.775 65.6109C439.817 65.9229 441.208 65.2579 441.427 63.8219C441.639 62.4349 440.869 61.3889 437.669 60.8999L433.157 60.2109L435.581 50.4189L446.344 52.0639L445.844 55.3409L438.484 54.2159L437.695 57.5259L439.131 57.7459C444.348 58.5409 446.057 61.201 445.58 64.327Z" fill="#F5F5F5"/>
<path d="M447.747 61.3051C448.637 55.4831 452.367 52.6731 456.702 53.3361C461.062 54.0021 463.759 57.7931 462.869 63.6151C461.979 69.4371 458.274 72.2501 453.914 71.5841C449.579 70.9221 446.857 67.1271 447.747 61.3051ZM458.76 62.9881C459.372 58.9801 458.216 57.1011 456.174 56.7901C454.157 56.4811 452.491 57.9301 451.879 61.9371C451.267 65.9451 452.425 67.8251 454.44 68.1321C456.483 68.4431 458.148 66.9951 458.76 62.9881Z" fill="#F5F5F5"/>
<path d="M465.572 59.773C466.011 56.899 467.917 55.23 470.287 55.592C472.631 55.95 473.979 58.091 473.537 60.99C473.094 63.888 471.167 65.529 468.823 65.171C466.454 64.808 465.133 62.646 465.572 59.773ZM480.954 57.351L482.441 57.578L467.697 73.38L466.211 73.153L480.954 57.351ZM472.277 60.797C472.628 58.503 471.752 56.976 470.113 56.726C468.449 56.472 467.178 57.697 466.833 59.965C466.486 62.234 467.333 63.781 468.997 64.035C470.634 64.286 471.926 63.09 472.277 60.797ZM475.115 69.743C475.554 66.869 477.484 65.204 479.829 65.562C482.197 65.923 483.518 68.085 483.079 70.959C482.64 73.832 480.734 75.501 478.365 75.139C476.021 74.782 474.675 72.616 475.115 69.743ZM481.819 70.767C482.166 68.498 481.318 66.951 479.655 66.696C478.017 66.446 476.724 67.641 476.375 69.935C476.024 72.228 476.9 73.755 478.539 74.005C480.202 74.259 481.472 73.035 481.819 70.767Z" fill="#F5F5F5"/>
<path d="M44.2443 149.194L40.5843 164.825L36.9663 163.978L39.9463 151.249L36.8203 150.517L37.5003 147.615L44.2443 149.194Z" fill="#F5F5F5"/>
<path d="M45.1369 157.646C46.3449 152.489 49.8879 150.232 53.7279 151.131C57.5909 152.036 59.7429 155.626 58.5349 160.783C57.3269 165.941 53.8059 168.203 49.9419 167.298C46.1029 166.4 43.9289 162.805 45.1369 157.646ZM54.8959 159.931C55.7269 156.38 54.8209 154.614 53.0119 154.191C51.2249 153.772 49.6299 154.954 48.7989 158.504C47.9669 162.055 48.8729 163.821 50.6589 164.239C52.4679 164.662 54.0649 163.482 54.8959 159.931Z" fill="#F5F5F5"/>
<path d="M75.1885 156.439L76.5065 156.748L62.1725 169.88L60.8555 169.571L75.1885 156.439ZM61.2255 157.528C61.8215 154.981 63.6485 153.62 65.7475 154.111C67.8235 154.597 68.8825 156.612 68.2815 159.18C67.6805 161.747 65.8375 163.082 63.7605 162.596C61.6605 162.105 60.6295 160.073 61.2255 157.528ZM67.1655 158.918C67.6415 156.886 66.9635 155.455 65.5125 155.115C64.0385 154.77 62.8135 155.779 62.3425 157.789C61.8725 159.798 62.5225 161.246 63.9955 161.591C65.4465 161.931 66.6895 160.951 67.1655 158.918ZM69.0795 167.139C69.6755 164.593 71.5245 163.236 73.6015 163.722C75.7005 164.213 76.7315 166.245 76.1365 168.791C75.5405 171.337 73.7135 172.698 71.6155 172.207C69.5385 171.721 68.4835 169.685 69.0795 167.139ZM75.0195 168.53C75.4895 166.52 74.8405 165.073 73.3665 164.727C71.9145 164.387 70.6715 165.369 70.1965 167.4C69.7205 169.432 70.3985 170.864 71.8505 171.204C73.3235 171.549 74.5485 170.539 75.0195 168.53Z" fill="#F5F5F5"/>
<path d="M138.895 310.872C121.488 293.057 94.2163 285.571 70.1543 292.006C91.0553 306.02 114.544 313.53 139.708 313.737" fill="#FF6D38"/>
<path d="M115.582 228.308C118.446 208.052 110.574 185.265 95.4078 170.541C94.9068 190.617 103.383 213.208 115.582 228.308Z" fill="#FF6D38"/>
<path d="M127.709 266.574C116.901 245.915 99.1602 228.96 78.0332 219.1C84.3642 242.423 104.313 261.503 127.895 266.79" fill="#FF6D38"/>
<path d="M130.22 273.957C117.985 274.3 105.604 273.87 93.7724 270.739C81.9404 267.608 70.6084 261.591 62.7344 252.22C86.5354 252.247 110.28 259.495 130.037 272.766" fill="#FF6D38"/>
<path d="M124.01 249.637C130.22 226.362 140.467 210.261 158.761 197.217C160.145 208.542 157.362 220.33 151.058 229.839C144.754 239.349 134.98 246.503 124.01 249.637Z" fill="#FF6D38"/>
<path d="M170.192 289.777C170.513 276.252 161.795 262.96 149.262 257.866C150.279 269.886 159.721 283.79 170.192 289.777Z" fill="#FF6D38"/>
<path d="M176.037 270.153C177.427 250.71 191.242 232.722 209.668 226.362C205.442 245.813 194.196 262.004 176.037 270.153Z" fill="#FF6D38"/>
<path d="M167.23 304.979C171.545 298.807 178.585 294.969 185.87 293.063C193.156 291.157 200.767 290.989 208.296 290.831C198.139 302.006 182.889 308.357 167.802 307.696" fill="#FF6D38"/>
<path d="M158.484 354.591C172.057 350.401 187.184 351.485 200.02 357.566C212.857 363.647 223.277 374.666 228.633 387.822C203.15 382.986 178.006 371.668 158.484 354.591Z" fill="#FF6D38"/>
<path d="M130.517 337.349C134.75 349.862 133.937 364.986 124.527 375.771C120.699 362.93 122.962 348.414 130.517 337.349Z" fill="#FF6D38"/>
<path d="M113.988 330.398C112.81 346.487 102.524 361.598 87.9893 368.595C87.2673 368.942 86.4323 369.275 85.6903 368.973C84.5433 368.506 84.4393 366.941 84.5803 365.711C86.4233 349.68 98.3003 334.176 113.988 330.398Z" fill="#FF6D38"/>
<path d="M103.191 328.773C96.0329 336.507 85.5949 341.101 75.0559 341.155C64.5179 341.209 54.0329 336.722 46.7969 329.061C64.7239 327.099 85.4059 325.791 103.191 328.773Z" fill="#FF6D38"/>
<path d="M100.507 185.471C100.496 185.475 100.552 185.653 100.671 185.996C100.805 186.368 100.986 186.87 101.217 187.512C101.724 188.873 102.45 190.822 103.379 193.317C104.344 195.827 105.456 198.924 106.746 202.52C107.395 204.318 108.088 206.239 108.822 208.275C109.53 210.323 110.276 212.487 111.061 214.759C114.237 223.836 117.763 234.731 121.57 246.861C125.308 259.013 129.234 272.429 133.096 286.583C136.907 300.756 140.284 314.324 143.16 326.71C145.954 339.114 148.356 350.311 150.092 359.769C150.537 362.13 150.962 364.38 151.364 366.509C151.727 368.643 152.069 370.656 152.389 372.54C153.038 376.304 153.594 379.547 153.968 382.21C154.372 384.84 154.688 386.896 154.908 388.331C155.019 389.004 155.106 389.531 155.17 389.921C155.233 390.279 155.271 390.461 155.282 390.46C155.294 390.458 155.279 390.273 155.239 389.912C155.191 389.52 155.127 388.99 155.045 388.313C154.854 386.873 154.581 384.81 154.232 382.171C153.899 379.501 153.381 376.25 152.767 372.478C152.463 370.59 152.138 368.572 151.794 366.434C151.407 364.301 150.998 362.047 150.569 359.681C148.893 350.205 146.538 338.989 143.777 326.569C140.934 314.167 137.572 300.586 133.759 286.404C129.894 272.241 125.947 258.822 122.174 246.674C118.331 234.547 114.756 223.661 111.52 214.6C110.719 212.333 109.956 210.173 109.234 208.129C108.481 206.098 107.771 204.182 107.107 202.389C105.783 198.804 104.634 195.72 103.63 193.223C102.649 190.748 101.882 188.814 101.347 187.463C101.089 186.831 100.887 186.337 100.737 185.972C100.595 185.635 100.518 185.466 100.507 185.471Z" fill="#263238"/>
<path d="M198.968 236.746C198.959 236.738 198.855 236.837 198.659 237.037C198.44 237.267 198.158 237.564 197.802 237.938C197.054 238.735 195.968 239.928 194.615 241.504C191.91 244.651 188.09 249.32 184.061 255.576C180.031 261.813 175.901 269.759 173.025 279.186C170.068 288.585 168.233 299.267 166.406 310.432C162.761 332.784 158.289 352.802 155.051 367.283C153.419 374.487 152.095 380.332 151.169 384.425C150.728 386.417 150.382 387.98 150.136 389.091C150.031 389.596 149.948 389.998 149.884 390.308C149.831 390.583 149.81 390.725 149.821 390.728C149.833 390.731 149.877 390.594 149.952 390.324C150.033 390.018 150.138 389.621 150.27 389.122C150.546 388.018 150.934 386.464 151.429 384.485C152.407 380.404 153.803 374.575 155.524 367.39C158.883 352.935 163.434 332.916 167.082 310.543C168.909 299.375 170.721 288.727 173.628 279.371C176.454 269.99 180.508 262.082 184.47 255.834C188.429 249.572 192.18 244.869 194.819 241.674C196.139 240.075 197.191 238.854 197.905 238.028C198.24 237.635 198.505 237.323 198.711 237.082C198.89 236.868 198.977 236.754 198.968 236.746Z" fill="#263238"/>
<path d="M97.8359 328.011C97.8349 328.035 98.0579 328.075 98.4819 328.129C98.9849 328.185 99.5979 328.252 100.338 328.334C100.75 328.375 101.197 328.418 101.679 328.466C102.173 328.54 102.702 328.62 103.264 328.704C104.401 328.872 105.699 329.039 107.112 329.353C107.823 329.495 108.566 329.642 109.337 329.796C110.104 329.99 110.899 330.192 111.721 330.4C113.38 330.775 115.094 331.382 116.922 331.933C120.525 333.197 124.406 334.822 128.272 336.935C132.126 339.076 135.537 341.544 138.449 344.004C139.863 345.284 141.226 346.482 142.354 347.752C143.561 348.949 144.539 350.191 145.444 351.317C146.397 352.407 147.06 353.538 147.731 354.47C148.412 355.398 148.901 356.256 149.297 356.962C149.676 357.603 149.99 358.132 150.248 358.568C150.472 358.932 150.601 359.119 150.622 359.108C150.643 359.098 150.556 358.891 150.371 358.505C150.143 358.051 149.865 357.499 149.53 356.832C149.167 356.102 148.708 355.217 148.053 354.262C147.407 353.303 146.765 352.142 145.828 351.022C144.939 349.866 143.972 348.592 142.77 347.365C141.647 346.063 140.284 344.836 138.865 343.528C135.943 341.013 132.501 338.5 128.606 336.336C124.698 334.2 120.771 332.576 117.124 331.335C115.275 330.795 113.54 330.203 111.862 329.849C111.031 329.653 110.226 329.463 109.451 329.279C108.671 329.14 107.921 329.005 107.201 328.877C105.773 328.592 104.462 328.457 103.314 328.324C102.746 328.259 102.213 328.198 101.714 328.141C101.228 328.115 100.778 328.091 100.362 328.068C99.6159 328.037 98.9979 328.012 98.4909 327.991C98.0619 327.982 97.8369 327.988 97.8359 328.011Z" fill="#263238"/>
<path d="M92.73 237.175C92.699 237.211 93.16 237.652 94.021 238.419C94.993 239.262 96.231 240.336 97.71 241.619C100.844 244.299 105.206 247.964 110.05 251.981C114.896 255.999 119.307 259.606 122.521 262.19C124.056 263.406 125.34 264.423 126.349 265.222C127.262 265.926 127.781 266.298 127.811 266.261C127.841 266.224 127.378 265.782 126.516 265.014C125.543 264.171 124.306 263.097 122.826 261.813C119.691 259.133 115.332 255.469 110.488 251.454C105.646 247.44 101.238 243.835 98.024 241.251C96.488 240.035 95.204 239.017 94.195 238.218C93.281 237.512 92.761 237.139 92.73 237.175Z" fill="#263238"/>
<path d="M88.3244 260.887C88.2704 261.069 97.6835 264.01 109.344 267.455C121.009 270.902 130.507 273.548 130.56 273.366C130.614 273.185 121.203 270.244 109.538 266.797C97.8775 263.352 88.3774 260.706 88.3244 260.887Z" fill="#263238"/>
<path d="M123.078 251.447C123.119 251.471 123.463 250.988 124.049 250.095C124.711 249.086 125.542 247.82 126.53 246.315C128.634 243.131 131.622 238.788 135.154 234.163C138.692 229.54 142.095 225.513 144.604 222.637C145.791 221.283 146.788 220.144 147.584 219.236C148.287 218.431 148.659 217.97 148.625 217.937C148.591 217.904 148.153 218.303 147.39 219.053C146.624 219.8 145.547 220.913 144.244 222.313C141.637 225.113 138.161 229.106 134.609 233.747C131.063 238.39 128.126 242.795 126.121 246.054C125.118 247.683 124.333 249.018 123.82 249.957C123.304 250.894 123.037 251.423 123.078 251.447Z" fill="#263238"/>
<path d="M155.765 264.608C155.683 264.667 156.567 266.029 157.973 268.239C159.38 270.449 161.287 273.523 163.263 276.993C165.237 280.467 166.905 283.677 168.086 286.015C169.268 288.353 169.987 289.809 170.079 289.768C170.16 289.733 169.597 288.206 168.523 285.806C167.45 283.406 165.842 280.144 163.858 276.653C161.872 273.165 159.889 270.117 158.375 267.968C156.862 265.82 155.837 264.556 155.765 264.608Z" fill="#263238"/>
<path d="M166.948 305.627C166.997 305.72 168.792 304.842 171.731 303.52C174.669 302.196 178.773 300.468 183.41 298.842C188.05 297.221 192.336 296.013 195.459 295.215C198.581 294.416 200.532 293.983 200.512 293.879C200.503 293.832 200.005 293.887 199.111 294.025C198.216 294.159 196.929 294.402 195.348 294.743C192.185 295.423 187.852 296.564 183.184 298.195C178.521 299.831 174.422 301.64 171.525 303.081C170.076 303.801 168.918 304.413 168.135 304.867C167.349 305.317 166.926 305.585 166.948 305.627Z" fill="#263238"/>
<path d="M158.145 354.666C158.14 354.689 158.34 354.756 158.725 354.863C159.19 354.982 159.749 355.124 160.419 355.295C162.006 355.661 164.119 356.149 166.679 356.74C171.956 357.967 179.307 359.499 187.125 362.136C194.943 364.798 201.651 368.182 206.201 371.098C208.481 372.55 210.258 373.832 211.456 374.757C212.66 375.675 213.316 376.199 213.351 376.158C213.366 376.14 213.221 375.988 212.93 375.713C212.634 375.444 212.212 375.029 211.623 374.549C210.471 373.557 208.727 372.207 206.465 370.692C201.951 367.651 195.216 364.167 187.348 361.488C179.468 358.831 172.088 357.373 166.781 356.266C164.202 355.762 162.074 355.346 160.475 355.034C158.984 354.755 158.155 354.619 158.145 354.666Z" fill="#263238"/>
<path d="M126.306 366.753C126.493 366.78 127.614 360.178 128.809 352.009C130.004 343.837 130.821 337.192 130.634 337.164C130.447 337.137 129.326 343.737 128.131 351.909C126.935 360.079 126.118 366.726 126.306 366.753Z" fill="#263238"/>
<path d="M93.1603 354.717C93.2393 354.776 94.3543 353.399 96.1473 351.17C97.9393 348.94 100.421 345.867 103.226 342.527C106.034 339.187 108.633 336.213 110.521 334.064C112.408 331.914 113.572 330.579 113.501 330.511C113.467 330.478 113.13 330.77 112.551 331.324C111.971 331.878 111.154 332.701 110.163 333.736C108.18 335.805 105.516 338.737 102.7 342.086C99.8873 345.435 97.4583 348.564 95.7623 350.874C94.9133 352.029 94.2423 352.975 93.7973 353.642C93.3513 354.308 93.1223 354.689 93.1603 354.717Z" fill="#263238"/>
<path d="M180.878 385.46V401.838H176.783L162.225 447.789H129.94L115.836 402.293L110.377 401.838V385.46H180.878Z" fill="#455A64"/>
<path d="M113.107 402.293C113.107 402.482 127.363 402.636 144.944 402.636C162.531 402.636 176.784 402.482 176.784 402.293C176.784 402.104 162.532 401.95 144.944 401.95C127.362 401.95 113.107 402.104 113.107 402.293Z" fill="#263238"/>
<path d="M89.8888 296.941C89.8798 296.988 90.6178 297.184 91.9578 297.5C93.4118 297.85 95.3208 298.31 97.6248 298.866C102.401 300.049 108.959 301.845 116.073 304.233C123.187 306.63 129.498 309.163 134.018 311.106C136.189 312.056 137.988 312.843 139.358 313.442C140.617 314 141.323 314.289 141.344 314.247C141.365 314.205 140.698 313.835 139.473 313.202C138.251 312.564 136.455 311.693 134.214 310.664C129.734 308.602 123.429 305.989 116.291 303.584C109.153 301.188 102.551 299.459 97.7358 298.395C95.3288 297.861 93.3708 297.469 92.0118 297.239C90.6528 297.003 89.8978 296.895 89.8888 296.941Z" fill="#263238"/>
<path d="M123.826 427.81C123.826 427.999 133.828 428.153 146.163 428.153C158.502 428.153 168.502 428 168.502 427.81C168.502 427.62 158.502 427.467 146.163 427.467C133.828 427.467 123.826 427.621 123.826 427.81Z" fill="#FAFAFA"/>
<path d="M122.57 424.011C122.57 424.2 133.169 424.354 146.241 424.354C159.318 424.354 169.915 424.201 169.915 424.011C169.915 423.822 159.318 423.668 146.241 423.668C133.169 423.669 122.57 423.822 122.57 424.011Z" fill="#FAFAFA"/>
<path d="M636.146 321.768L569.481 246.873C564.172 240.909 556.586 237.472 548.602 237.414L329.113 235.816C313.418 235.702 300.643 248.413 300.68 264.109L301.048 419.533C301.085 435.143 313.784 447.759 329.394 447.693L548.118 446.773C556.302 446.739 564.069 443.154 569.404 436.947L636.467 358.936C645.683 348.215 645.547 332.329 636.146 321.768ZM599.054 348.729C594.213 360.64 580.633 366.373 568.722 361.532C556.811 356.691 551.078 343.111 555.919 331.2C560.76 319.289 574.34 313.557 586.251 318.397C598.162 323.237 603.895 336.817 599.054 348.729Z" fill="#FF6D38"/>
<g opacity="0.4">
<path d="M636.146 321.768L569.481 246.873C564.172 240.909 556.586 237.472 548.602 237.414L329.113 235.816C313.418 235.702 300.643 248.413 300.68 264.109L301.048 419.533C301.085 435.143 313.784 447.759 329.394 447.693L548.118 446.773C556.302 446.739 564.069 443.154 569.404 436.947L636.467 358.936C645.683 348.215 645.547 332.329 636.146 321.768ZM599.054 348.729C594.213 360.64 580.633 366.373 568.722 361.532C556.811 356.691 551.078 343.111 555.919 331.2C560.76 319.289 574.34 313.557 586.251 318.397C598.162 323.237 603.895 336.817 599.054 348.729Z" fill="black"/>
</g>
<path d="M647.701 321.768L581.036 246.873C575.727 240.909 568.141 237.472 560.157 237.414L340.668 235.816C324.973 235.702 312.198 248.413 312.236 264.109L312.604 419.533C312.641 435.143 325.34 447.759 340.95 447.693L559.674 446.773C567.858 446.739 575.625 443.154 580.96 436.947L648.023 358.936C657.238 348.215 657.101 332.329 647.701 321.768ZM610.609 348.729C605.768 360.64 592.188 366.373 580.277 361.532C568.366 356.691 562.633 343.111 567.474 331.2C572.315 319.289 585.895 313.557 597.806 318.397C609.717 323.237 615.449 336.817 610.609 348.729Z" fill="#FF6D38"/>
<path d="M385.238 316.559C385.414 297.721 397.019 285.854 413.303 286.005C429.588 286.156 440.812 298.076 440.635 317.073C440.458 336.071 429.015 347.78 412.73 347.629C396.446 347.478 385.063 335.397 385.238 316.559ZM424.67 316.925C424.781 304.951 420.205 299.162 413.18 299.097C406.317 299.033 401.472 304.895 401.362 316.708C401.253 328.522 405.987 334.473 412.85 334.537C419.876 334.603 424.559 328.899 424.67 316.925ZM479.862 287.902L498.861 288.079L421.51 399.122L402.513 398.945L479.862 287.902ZM460.74 369.949C460.915 351.111 472.521 339.244 488.644 339.394C504.928 339.545 516.312 351.625 516.137 370.463C515.961 389.302 504.355 401.168 488.071 401.017C471.948 400.866 460.564 388.787 460.74 369.949ZM500.013 370.314C500.122 358.5 495.547 352.551 488.522 352.486C481.658 352.423 476.816 358.124 476.705 370.097C476.593 382.071 481.329 387.863 488.193 387.926C495.218 387.991 499.903 382.127 500.013 370.314Z" fill="white"/>
<path d="M640.403 368.008C640.462 367.94 641.212 368.482 642.584 369.575C643.955 370.67 645.954 372.312 648.486 374.48C651.021 376.644 654.094 379.328 657.562 382.562C661.028 385.797 664.898 389.579 668.904 394.032C672.893 398.492 677.069 403.601 680.836 409.597C681.305 410.347 681.777 411.104 682.254 411.867C682.698 412.65 683.146 413.44 683.597 414.236C684.52 415.81 685.364 417.496 686.137 419.239C687.659 422.728 688.903 426.582 689.027 430.766C689.084 432.848 688.805 435.003 688.105 437.062C687.415 439.124 686.286 441.082 684.813 442.728C681.881 446.06 677.787 448.294 673.369 449.271C668.94 450.24 664.293 449.962 659.859 448.952C655.408 447.939 651.128 446.256 646.974 444.216C638.654 440.104 631.526 434.377 625.465 428.19C622.432 425.087 619.669 421.833 617.149 418.523C614.637 415.235 612.247 411.963 609.988 408.719C600.963 395.735 593.988 383.215 589.592 372.037C588.493 369.251 587.535 366.564 586.716 363.986C586.317 362.693 585.936 361.434 585.626 360.19C585.328 358.935 584.998 357.762 584.903 356.493C584.578 354.01 585.2 351.516 586.545 349.786C587.871 348.034 589.659 347.036 591.29 346.483C592.11 346.183 592.921 346.062 593.674 345.931C594.439 345.892 595.15 345.806 595.812 345.886C597.138 345.933 598.227 346.279 599.065 346.6C599.884 346.981 600.481 347.331 600.804 347.669C601.147 347.978 601.301 348.148 601.271 348.181C601.241 348.214 601.026 348.11 600.647 347.884C600.29 347.629 599.679 347.373 598.884 347.092C598.066 346.868 597.033 346.622 595.789 346.659C595.17 346.621 594.507 346.746 593.803 346.816C593.11 346.979 592.369 347.125 591.633 347.435C590.165 348.009 588.62 348.978 587.548 350.514C586.463 352.034 586.001 354.118 586.347 356.31C586.449 357.402 586.812 358.594 587.13 359.783C587.463 360.981 587.867 362.208 588.289 363.467C589.155 365.98 590.158 368.614 591.298 371.343C595.834 382.244 602.905 394.556 611.951 407.338C614.216 410.534 616.608 413.76 619.12 417.005C621.612 420.235 624.321 423.393 627.289 426.404C633.217 432.406 640.137 437.933 648.135 441.883C652.123 443.843 656.254 445.465 660.432 446.423C664.6 447.382 668.866 447.627 672.828 446.776C676.759 445.929 680.416 443.936 682.951 441.078C685.534 438.247 686.713 434.506 686.63 430.811C686.556 427.098 685.456 423.482 684.039 420.148C683.318 418.476 682.536 416.861 681.647 415.305C681.216 414.522 680.789 413.746 680.365 412.976C679.909 412.224 679.456 411.478 679.007 410.738C675.403 404.823 671.377 399.729 667.525 395.246C663.656 390.769 659.908 386.926 656.557 383.609C653.203 380.293 650.239 377.507 647.812 375.231C645.401 372.953 643.527 371.181 642.24 369.965C640.978 368.749 640.344 368.075 640.403 368.008Z" fill="#263238"/>
<path d="M536.232 212.787C536.089 212.807 533.286 193.237 529.97 169.082C526.653 144.919 524.081 125.321 524.224 125.302C524.366 125.282 527.17 144.848 530.486 169.011C533.801 193.166 536.374 212.767 536.232 212.787Z" fill="#263238"/>
<path d="M618.684 105.758C618.692 105.761 618.661 105.864 618.591 106.061C618.509 106.284 618.402 106.57 618.269 106.931C617.963 107.724 617.532 108.839 616.984 110.257C615.845 113.175 614.22 117.341 612.217 122.474C608.203 132.794 602.739 147.081 596.925 162.944C591.113 178.813 586.054 193.25 582.45 203.721C580.662 208.933 579.212 213.163 578.196 216.125C577.698 217.562 577.307 218.691 577.028 219.494C576.897 219.855 576.793 220.143 576.712 220.366C576.638 220.562 576.596 220.66 576.587 220.658C576.579 220.655 576.604 220.551 576.661 220.35C576.729 220.123 576.817 219.83 576.928 219.462C577.184 218.651 577.544 217.512 578.003 216.062C578.944 213.112 580.342 208.854 582.101 203.603C585.616 193.1 590.622 178.639 596.435 162.766C602.251 146.899 607.771 132.628 611.873 122.341C613.923 117.197 615.607 113.043 616.794 110.183C617.381 108.779 617.842 107.677 618.17 106.893C618.323 106.54 618.445 106.26 618.54 106.042C618.627 105.851 618.675 105.755 618.684 105.758Z" fill="#263238"/>
<path d="M677.764 182.718C677.852 182.832 663.537 194.043 645.795 207.756C628.047 221.473 613.592 232.498 613.504 232.384C613.416 232.27 627.728 221.062 645.477 207.344C663.219 193.631 677.677 182.604 677.764 182.718Z" fill="#263238"/>
<path d="M501.516 216.438C501.402 216.525 495.867 209.471 489.156 200.684C482.442 191.894 477.094 184.7 477.209 184.613C477.324 184.526 482.857 191.578 489.57 200.368C496.281 209.155 501.63 216.351 501.516 216.438Z" fill="#263238"/>
<path d="M671.007 271.561C670.967 271.699 662.196 269.264 651.42 266.122C640.64 262.979 631.936 260.32 631.977 260.182C632.017 260.044 640.786 262.479 651.566 265.622C662.342 268.764 671.047 271.423 671.007 271.561Z" fill="#263238"/>
<path d="M544.99 271.242L551.49 267.499L554.944 260.841L558.687 267.341L565.345 270.795L558.845 274.538L555.391 281.196L551.648 274.696L544.99 271.242Z" fill="white"/>
<path d="M509.852 260.919L512.127 259.609L513.336 257.278L514.647 259.554L516.978 260.763L514.702 262.073L513.493 264.404L512.183 262.129L509.852 260.919Z" fill="white"/>
<path d="M532.291 306.85L536.691 304.317L539.028 299.811L541.561 304.21L546.067 306.548L541.668 309.081L539.331 313.587L536.797 309.188L532.291 306.85Z" fill="white"/>
<path d="M716.807 447.789C716.807 447.933 562.561 448.049 372.333 448.049C182.039 448.049 27.8262 447.932 27.8262 447.789C27.8262 447.646 182.039 447.529 372.333 447.529C562.562 447.528 716.807 447.645 716.807 447.789Z" fill="#263238"/>
<path d="M228.71 430.061C228.71 430.061 186.95 441.619 185.275 442.209C182.76 443.095 183.182 452.311 187.097 452.168C188.949 452.1 219.173 453.294 222.992 453.055C226.811 452.816 237.088 448.756 237.088 448.756L228.71 430.061Z" fill="#455A64"/>
<path d="M211.313 445.995C211.103 446.024 210.821 443.815 209.473 441.512C208.158 439.188 206.39 437.835 206.52 437.668C206.593 437.507 208.667 438.684 210.078 441.164C211.513 443.627 211.489 446.013 211.313 445.995Z" fill="#263238"/>
<path d="M215.668 444.021C215.464 444.057 215.04 442.082 213.928 439.901C212.838 437.708 211.504 436.193 211.654 436.05C211.769 435.913 213.4 437.279 214.552 439.587C215.721 441.886 215.846 444.01 215.668 444.021Z" fill="#263238"/>
<path d="M219.753 442.927C219.543 442.914 219.703 440.828 218.776 438.515C217.888 436.186 216.356 434.762 216.502 434.61C216.586 434.451 218.458 435.742 219.427 438.261C220.423 440.767 219.922 442.987 219.753 442.927Z" fill="#263238"/>
<path d="M219.01 437.533C218.936 437.552 218.566 436.386 218.562 434.426C218.566 433.45 218.677 432.282 218.985 431.021C219.138 430.391 219.344 429.74 219.607 429.083C219.742 428.751 219.896 428.37 220.276 428.059C220.665 427.71 221.374 427.782 221.71 428.13C222.093 428.464 222.215 428.934 222.268 429.311C222.31 429.695 222.331 430.052 222.322 430.414C222.312 431.133 222.218 431.822 222.063 432.458C221.754 433.733 221.258 434.802 220.779 435.65C219.806 437.344 218.962 438.211 218.902 438.164C218.806 438.097 219.506 437.125 220.34 435.421C220.75 434.569 221.18 433.523 221.436 432.316C221.565 431.714 221.636 431.072 221.636 430.408C221.617 429.766 221.627 428.964 221.251 428.656C221.052 428.491 220.873 428.48 220.699 428.61C220.515 428.751 220.361 429.037 220.242 429.34C219.983 429.964 219.772 430.583 219.609 431.183C219.28 432.383 219.121 433.501 219.057 434.444C218.933 436.334 219.123 437.516 219.01 437.533Z" fill="#263238"/>
<path d="M219.063 437.108C219.044 437.032 220.051 436.685 221.756 436.673C222.604 436.671 223.623 436.761 224.719 437.036C225.26 437.182 225.841 437.322 226.425 437.665C226.997 437.955 227.595 438.749 227.368 439.574C227.189 440.35 226.524 440.894 225.864 441.064C225.199 441.25 224.555 441.183 223.991 441.059C222.845 440.796 221.954 440.232 221.278 439.725C219.94 438.675 219.286 437.872 219.336 437.813C219.409 437.724 220.2 438.411 221.56 439.32C222.244 439.757 223.101 440.23 224.121 440.429C224.629 440.526 225.176 440.556 225.67 440.408C226.162 440.273 226.57 439.898 226.687 439.415C226.807 438.948 226.524 438.521 226.067 438.25C225.62 437.973 225.066 437.813 224.552 437.659C223.519 437.364 222.553 437.228 221.738 437.168C220.105 437.053 219.08 437.22 219.063 437.108Z" fill="#263238"/>
<path d="M204.897 446.442C204.69 446.419 204.895 444.633 204.074 442.675C203.292 440.7 201.898 439.567 202.03 439.406C202.099 439.236 203.845 440.225 204.722 442.411C205.622 444.587 205.066 446.516 204.897 446.442Z" fill="#263238"/>
<path d="M234.036 448.37C234.054 448.414 233.48 448.682 232.421 449.13C231.348 449.535 229.778 450.103 227.774 450.57C223.78 451.577 218.086 452.148 211.831 452.081C205.573 452.012 199.934 451.727 195.844 451.564C193.908 451.461 192.286 451.375 191.005 451.308C189.863 451.232 189.232 451.167 189.234 451.119C189.236 451.071 189.869 451.044 191.014 451.036C192.297 451.045 193.921 451.057 195.86 451.07C200.09 451.153 205.668 451.262 211.836 451.383C218.063 451.448 223.689 450.961 227.667 450.089C231.656 449.267 233.987 448.24 234.036 448.37Z" fill="#263238"/>
<path d="M235.27 449.322C235.214 449.418 234.071 448.751 232.141 447.905C230.234 447.087 227.377 446.107 224.239 446.591C221.092 447.073 218.861 449.187 217.409 450.654C215.945 452.174 215.087 453.183 215.002 453.112C214.939 453.06 215.651 451.951 217.046 450.319C217.751 449.512 218.645 448.577 219.815 447.73C220.972 446.88 222.461 446.156 224.129 445.901C227.495 445.386 230.462 446.51 232.35 447.457C234.266 448.436 235.313 449.253 235.27 449.322Z" fill="#263238"/>
<path d="M193.378 451.128C193.302 451.077 193.659 450.525 193.988 449.55C194.32 448.585 194.575 447.153 194.294 445.626C194.011 444.098 193.261 442.852 192.607 442.069C191.951 441.276 191.421 440.887 191.474 440.813C191.507 440.757 192.131 441.032 192.904 441.8C193.672 442.553 194.546 443.865 194.853 445.524C195.158 447.182 194.811 448.72 194.362 449.697C193.914 450.688 193.428 451.168 193.378 451.128Z" fill="#263238"/>
<path d="M272.283 431.298C272.283 431.298 315.121 437.809 316.854 438.196C319.457 438.776 320.133 447.978 316.229 448.301C314.382 448.454 284.514 453.232 280.694 453.449C276.874 453.666 264.895 450.528 264.895 450.528L272.283 431.298Z" fill="#455A64"/>
<path d="M291.45 445.051C291.662 445.055 291.679 442.828 292.744 440.38C293.773 437.916 295.368 436.363 295.219 436.212C295.127 436.061 293.208 437.476 292.101 440.106C290.97 442.724 291.277 445.09 291.45 445.051Z" fill="#263238"/>
<path d="M286.892 443.609C287.099 443.62 287.285 441.609 288.129 439.311C288.951 437.004 290.095 435.341 289.929 435.217C289.798 435.095 288.341 436.644 287.472 439.074C286.586 441.495 286.714 443.619 286.892 443.609Z" fill="#263238"/>
<path d="M282.706 443.008C282.914 442.97 282.506 440.918 283.151 438.511C283.755 436.093 285.108 434.497 284.945 434.363C284.843 434.215 283.137 435.72 282.474 438.336C281.784 440.944 282.545 443.088 282.706 443.008Z" fill="#263238"/>
<path d="M282.802 437.564C282.878 437.574 283.107 436.372 282.877 434.426C282.758 433.457 282.508 432.311 282.052 431.095C281.825 430.487 281.543 429.865 281.204 429.244C281.03 428.931 280.832 428.571 280.418 428.307C279.99 428.006 279.295 428.162 279.002 428.548C278.661 428.925 278.597 429.406 278.59 429.787C278.594 430.173 278.615 430.53 278.667 430.889C278.762 431.601 278.937 432.275 279.166 432.888C279.624 434.118 280.245 435.12 280.822 435.905C281.99 437.472 282.93 438.232 282.984 438.178C283.071 438.101 282.261 437.218 281.23 435.626C280.721 434.829 280.172 433.841 279.774 432.674C279.574 432.092 279.427 431.462 279.347 430.803C279.289 430.164 279.185 429.368 279.521 429.018C279.699 428.831 279.876 428.798 280.064 428.906C280.264 429.024 280.451 429.289 280.605 429.576C280.936 430.165 281.218 430.754 281.452 431.33C281.921 432.483 282.211 433.573 282.388 434.502C282.735 436.365 282.686 437.561 282.802 437.564Z" fill="#263238"/>
<path d="M282.698 437.149C282.708 437.071 281.666 436.846 279.972 437.037C279.13 437.136 278.129 437.346 277.073 437.75C276.553 437.959 275.993 438.167 275.453 438.577C274.92 438.933 274.42 439.793 274.743 440.584C275.013 441.334 275.738 441.795 276.414 441.885C277.096 441.99 277.727 441.848 278.273 441.657C279.379 441.259 280.197 440.593 280.808 440.01C282.012 438.809 282.565 437.933 282.509 437.881C282.425 437.802 281.722 438.578 280.479 439.641C279.851 440.156 279.057 440.728 278.068 441.046C277.576 441.203 277.036 441.298 276.528 441.209C276.024 441.133 275.574 440.809 275.4 440.344C275.226 439.895 275.456 439.437 275.877 439.113C276.288 438.785 276.819 438.56 277.311 438.346C278.302 437.93 279.245 437.681 280.047 437.524C281.657 437.218 282.694 437.262 282.698 437.149Z" fill="#263238"/>
<path d="M297.874 444.733C298.076 444.685 297.661 442.937 298.244 440.895C298.785 438.841 300.035 437.551 299.885 437.406C299.797 437.245 298.18 438.435 297.57 440.71C296.934 442.977 297.716 444.826 297.874 444.733Z" fill="#263238"/>
<path d="M269.172 450.111C269.159 450.158 269.761 450.355 270.866 450.674C271.979 450.949 273.606 451.326 275.651 451.552C279.736 452.077 285.458 451.967 291.661 451.157C297.866 450.345 303.432 449.391 307.473 448.743C309.383 448.411 310.983 448.133 312.247 447.913C313.372 447.702 313.991 447.562 313.983 447.515C313.976 447.467 313.344 447.516 312.206 447.644C310.934 447.805 309.322 448.01 307.399 448.254C303.209 448.839 297.684 449.61 291.574 450.464C285.399 451.269 279.755 451.454 275.702 451.061C271.641 450.719 269.204 449.976 269.172 450.111Z" fill="#263238"/>
<path d="M268.059 451.202C268.127 451.291 269.182 450.492 270.997 449.423C272.793 448.384 275.514 447.071 278.687 447.179C281.869 447.283 284.335 449.117 285.952 450.401C287.587 451.736 288.558 452.636 288.634 452.556C288.69 452.496 287.851 451.48 286.273 450.025C285.477 449.308 284.478 448.485 283.216 447.784C281.966 447.077 280.402 446.536 278.715 446.481C275.311 446.37 272.5 447.839 270.738 449.003C268.95 450.204 268.008 451.14 268.059 451.202Z" fill="#263238"/>
<path d="M405.514 255.29C405.166 254.462 404.26 254.059 404.26 254.059L405.278 252.015C405.278 252.015 405.18 250.821 404.687 249.96C404.194 249.099 402.441 249.168 402.441 249.168L402.705 248.595C403.082 247.777 403.004 246.818 402.488 246.079C402.41 245.968 402.325 245.854 402.233 245.741C401.519 244.868 400.016 244.616 400.016 244.616C400.016 244.616 401.012 242.696 400.57 241.893C399.983 240.828 397.867 239.688 396.311 240.211C394.619 240.779 391.035 242.523 388.557 243.906C387.58 244.452 386.352 244 385.96 242.952C385.214 240.954 383.899 237.912 382.173 235.832C380.294 233.568 378.526 233.75 377.502 234.146C377.009 234.337 376.806 234.923 377.081 235.375C377.862 236.663 379.393 239.241 379.802 240.333C380.29 241.637 380.835 251.495 380.835 251.495L378.135 256.636L350.854 299.703C350.854 299.703 309.705 271.966 309.867 271.277L307.93 303.076L338.946 323.674C344.334 327.252 351.031 328.257 357.232 326.418C363.4 324.589 368.447 320.132 371.026 314.238L391.896 268.944L394.429 265.24L404.259 258.942C404.259 258.942 405.863 256.117 405.514 255.29Z" fill="#FFBE9D"/>
<path d="M400.992 244.674C400.997 244.681 400.93 244.742 400.796 244.853C400.639 244.979 400.444 245.136 400.205 245.328C399.657 245.753 398.913 246.331 398.005 247.036C397.062 247.756 395.952 248.604 394.723 249.543C394.096 250.003 393.479 250.532 392.739 250.983C392.015 251.421 391.032 251.718 390.128 251.327C389.685 251.131 389.348 250.752 389.16 250.333C388.969 249.912 388.905 249.454 388.932 249.016C388.979 248.121 389.46 247.362 389.974 246.776C390.501 246.184 391.084 245.719 391.613 245.276C392.143 244.836 392.638 244.425 393.093 244.048C393.982 243.32 394.711 242.722 395.247 242.283C395.487 242.093 395.683 241.938 395.841 241.813C395.978 241.708 396.053 241.656 396.059 241.662C396.065 241.669 396.001 241.734 395.874 241.851C395.724 241.985 395.538 242.153 395.311 242.357C394.788 242.811 394.076 243.429 393.208 244.183C392.759 244.568 392.271 244.986 391.748 245.435C391.224 245.886 390.652 246.353 390.149 246.928C389.655 247.501 389.217 248.212 389.178 249.03C389.121 249.825 389.45 250.747 390.233 251.098C390.615 251.268 391.052 251.293 391.462 251.219C391.875 251.149 392.26 250.978 392.617 250.77C393.325 250.343 393.958 249.811 394.586 249.358C395.827 248.436 396.948 247.602 397.9 246.894C398.827 246.216 399.588 245.659 400.148 245.25C400.398 245.074 400.602 244.929 400.767 244.813C400.909 244.715 400.986 244.667 400.992 244.674Z" fill="#EB996E"/>
<path d="M403.174 249.302C403.184 249.316 403.022 249.451 402.719 249.682C402.416 249.912 401.971 250.236 401.413 250.626C400.298 251.405 398.726 252.439 396.937 253.494C396.489 253.755 396.056 254.024 395.596 254.226C395.139 254.427 394.643 254.547 394.166 254.496C393.207 254.382 392.522 253.682 392.316 253.008C392.104 252.32 392.272 251.729 392.443 251.389C392.531 251.215 392.625 251.096 392.689 251.018C392.759 250.944 392.799 250.909 392.805 250.915C392.823 250.929 392.676 251.086 392.531 251.43C392.393 251.767 392.268 252.33 392.483 252.952C392.689 253.558 393.332 254.18 394.189 254.267C394.612 254.306 395.063 254.196 395.496 254.002C395.931 253.808 396.361 253.54 396.809 253.28C398.593 252.227 400.175 251.22 401.313 250.48C401.849 250.132 402.3 249.838 402.662 249.603C402.983 249.396 403.164 249.288 403.174 249.302Z" fill="#EB996E"/>
<path d="M404.45 253.817C404.457 253.833 404.288 253.93 403.977 254.094C403.615 254.276 403.17 254.5 402.646 254.764C401.518 255.32 399.952 256.073 398.215 256.89C397.78 257.09 397.362 257.307 396.918 257.454C396.479 257.603 396.003 257.663 395.571 257.562C395.14 257.471 394.753 257.202 394.568 256.842C394.379 256.487 394.358 256.103 394.413 255.781C394.538 255.12 394.939 254.724 395.197 254.493C395.469 254.262 395.647 254.174 395.655 254.186C395.667 254.203 395.508 254.318 395.264 254.564C395.031 254.808 394.676 255.21 394.588 255.808C394.547 256.102 394.58 256.444 394.749 256.742C394.913 257.041 395.237 257.26 395.62 257.337C396.004 257.42 396.426 257.365 396.84 257.221C397.255 257.08 397.672 256.864 398.108 256.663C399.844 255.846 401.422 255.118 402.57 254.603C403.107 254.367 403.563 254.167 403.935 254.005C404.26 253.869 404.443 253.801 404.45 253.817Z" fill="#EB996E"/>
<path d="M405.159 258.011C405.166 258.045 404.568 258.198 403.595 258.419C402.623 258.639 401.276 258.927 399.786 259.23C399.413 259.305 399.05 259.378 398.697 259.448C398.347 259.518 397.995 259.589 397.646 259.575C397.298 259.563 396.96 259.452 396.714 259.241C396.461 259.035 396.346 258.717 396.358 258.447C396.4 257.895 396.735 257.567 396.958 257.402C397.195 257.235 397.359 257.212 397.361 257.223C397.37 257.244 397.222 257.298 397.019 257.478C396.826 257.652 396.546 257.985 396.535 258.45C396.538 258.676 396.635 258.918 396.847 259.082C397.054 259.249 397.345 259.34 397.653 259.345C397.965 259.352 398.297 259.282 398.648 259.208C399 259.136 399.363 259.061 399.735 258.985C401.226 258.683 402.578 258.422 403.559 258.246C404.542 258.069 405.152 257.977 405.159 258.011Z" fill="#EB996E"/>
<path d="M394.492 256.014C394.471 256.091 393.252 255.651 391.694 255.734C390.135 255.798 388.964 256.351 388.935 256.276C388.896 256.23 390.062 255.552 391.682 255.484C393.302 255.4 394.526 255.965 394.492 256.014Z" fill="#EB996E"/>
<path d="M247.559 246.584C247.559 246.584 233.718 234.909 236.926 226.868C240.134 218.827 249.012 214.84 253.379 200.222C256.869 188.541 277.662 166.041 302.299 182.954C302.299 182.954 310.638 181.638 315.383 185.437C320.128 189.236 321.268 196.817 323.282 205.572C326.385 219.062 328.085 229.433 322.078 236.025C316.071 242.617 313.879 244.401 314.2 251.903C314.619 261.694 318.937 260.384 315.213 267.522L294.547 260.777L294.334 255.088L292.24 260.442L280.216 256.117L247.559 246.584Z" fill="#263238"/>
<path d="M316.369 197.357C315.027 200.442 316.128 204.003 317.403 207.116C318.679 210.229 320.156 213.526 319.511 216.828C318.368 222.68 311.106 225.941 310.3 231.849C309.868 235.015 311.457 238.236 310.843 241.372C310.249 244.405 307.712 246.689 305.025 248.216C302.338 249.743 299.359 250.756 296.832 252.536C296.832 252.536 291.271 257.094 281.697 249.578" fill="#263238"/>
<path d="M277.122 189.714C274.548 189.113 271.942 190.583 271.123 193.096L251.267 259C248.703 266.707 258.4 274.936 266.673 277.619C275.028 280.328 276.718 276.357 279.375 269.101C283.814 256.978 285.4 252.4 285.381 252.471C285.381 252.471 296.466 254.374 303.391 241.455C306.835 235.03 310.369 223.762 312.963 214.449C315.298 206.066 313.362 194.112 304.887 192.135L277.122 189.714Z" fill="#FFBE9D"/>
<path d="M305.939 221.35C305.65 222.287 304.618 222.815 303.633 222.531C302.65 222.247 302.086 221.259 302.375 220.321C302.664 219.384 303.697 218.855 304.679 219.138C305.664 219.423 306.228 220.413 305.939 221.35Z" fill="#263238"/>
<path d="M308.685 218.96C308.388 219.113 307.402 217.668 305.513 217.017C303.636 216.339 301.914 216.829 301.789 216.527C301.724 216.39 302.089 216.054 302.845 215.825C303.59 215.594 304.751 215.521 305.924 215.934C307.097 216.349 307.936 217.126 308.35 217.766C308.775 218.413 308.828 218.895 308.685 218.96Z" fill="#263238"/>
<path d="M287.224 215.376C286.935 216.314 285.903 216.841 284.918 216.558C283.935 216.274 283.371 215.286 283.66 214.348C283.949 213.411 284.982 212.882 285.965 213.165C286.949 213.449 287.513 214.439 287.224 215.376Z" fill="#263238"/>
<path d="M289.857 213.312C289.56 213.465 288.571 212.019 286.684 211.369C284.807 210.691 283.084 211.181 282.96 210.879C282.896 210.742 283.258 210.405 284.016 210.177C284.762 209.946 285.922 209.873 287.096 210.286C288.269 210.701 289.107 211.478 289.522 212.118C289.944 212.765 289.998 213.247 289.857 213.312Z" fill="#263238"/>
<path d="M291.84 229.688C291.868 229.577 293.112 229.783 295.097 230.2C295.596 230.317 296.085 230.38 296.281 230.08C296.516 229.771 296.495 229.182 296.456 228.54C296.408 227.216 296.359 225.829 296.306 224.376C296.143 218.464 296.204 213.67 296.442 213.666C296.68 213.662 297.006 218.45 297.168 224.362C297.196 225.816 297.225 227.202 297.25 228.528C297.242 229.139 297.34 229.869 296.843 230.506C296.588 230.821 296.144 230.959 295.806 230.935C295.465 230.922 295.191 230.833 294.948 230.764C292.999 230.201 291.81 229.797 291.84 229.688Z" fill="#263238"/>
<path d="M285.382 252.471C285.382 252.471 275.977 249.866 268.768 241.22C268.768 241.22 270.119 252.228 284.25 255.706L285.382 252.471Z" fill="#EB996E"/>
<path d="M289.46 233.958C289.094 232.825 288.076 231.919 286.851 231.636C286.002 231.439 285.037 231.547 284.308 232.041C283.579 232.535 283.145 233.445 283.377 234.238C283.637 235.131 284.644 235.666 285.633 235.723C286.623 235.78 287.604 235.457 288.545 235.122C288.805 235.029 289.073 234.931 289.278 234.751C289.483 234.571 289.612 234.288 289.519 234.048" fill="#EB996E"/>
<path d="M291.265 207.911C290.97 208.408 289.058 207.781 286.703 207.62C284.351 207.412 282.366 207.732 282.151 207.195C282.058 206.94 282.478 206.5 283.327 206.126C284.169 205.752 285.45 205.488 286.862 205.597C288.273 205.709 289.497 206.17 290.27 206.671C291.051 207.173 291.397 207.673 291.265 207.911Z" fill="#263238"/>
<path d="M311.406 212.696C310.877 213.018 309.415 212.117 307.511 211.558C305.623 210.943 303.899 210.857 303.655 210.295C303.554 210.027 303.933 209.662 304.756 209.447C305.569 209.231 306.829 209.223 308.133 209.626C309.436 210.031 310.462 210.747 311.001 211.382C311.55 212.022 311.645 212.534 311.406 212.696Z" fill="#263238"/>
<path d="M254.012 232.955C257.735 220.486 261.458 208.018 265.181 195.549C265.944 192.992 266.826 190.259 268.955 188.65C270.967 187.13 273.66 186.949 276.182 186.897C287.056 186.672 297.957 187.749 308.578 190.096C309.086 192.635 306.892 195.045 304.437 195.869C301.982 196.693 299.317 196.404 296.728 196.43C294.138 196.456 291.325 196.922 289.571 198.828C287.706 200.855 287.524 203.989 285.763 206.106C282.734 209.75 276.395 208.981 273.387 212.641C271.112 215.41 271.726 219.457 270.976 222.962C270.126 226.933 270.126 226.933 267.019 232.776C265.112 236.362 269.912 243.201 265.13 252.075L255.854 249.435L259.927 235.73L254.408 248.584L254.012 232.955Z" fill="#263238"/>
<path d="M286.237 229.458C286.432 229.571 286.332 230.07 286.32 230.788C286.3 231.501 286.401 232.471 286.863 233.358C287.329 234.244 288.069 234.879 288.667 235.268C289.264 235.667 289.731 235.868 289.713 236.093C289.704 236.294 289.145 236.498 288.247 236.289C287.369 236.094 286.169 235.388 285.48 234.082C284.799 232.773 284.902 231.385 285.241 230.551C285.581 229.694 286.067 229.35 286.237 229.458Z" fill="#263238"/>
<path d="M283.479 199.399C283.486 199.416 283.308 199.516 282.964 199.692C282.613 199.854 282.115 200.127 281.49 200.506C280.249 201.266 278.527 202.548 276.911 204.597C275.315 206.631 273.796 209.452 273.304 212.859C273.043 214.555 273.125 216.36 273.343 218.232C273.54 220.103 273.842 222.067 273.694 224.113C273.621 225.133 273.41 226.14 273.056 227.08C272.694 228.017 272.206 228.867 271.726 229.684C270.749 231.303 269.852 232.879 269.632 234.576C269.374 236.258 269.548 237.904 269.757 239.423C269.968 240.948 270.239 242.366 270.345 243.692C270.579 246.335 270.148 248.534 269.427 249.847C269.089 250.515 268.692 250.948 268.435 251.239C268.148 251.505 267.993 251.637 267.981 251.624C267.93 251.582 268.612 251.072 269.245 249.757C269.888 248.456 270.253 246.318 269.978 243.725C269.851 242.431 269.561 241.019 269.329 239.485C269.101 237.955 268.901 236.272 269.157 234.504C269.549 230.822 273.102 228.123 273.174 224.074C273.318 222.109 273.028 220.169 272.835 218.286C272.622 216.406 272.546 214.533 272.829 212.788C273.363 209.283 274.958 206.412 276.624 204.366C278.311 202.304 280.099 201.046 281.387 200.331C282.036 199.974 282.554 199.728 282.921 199.596C283.281 199.45 283.472 199.382 283.479 199.399Z" fill="#263238"/>
<path d="M328.297 255.631C328.302 255.638 328.246 255.685 328.13 255.77C328.011 255.85 327.845 255.989 327.6 256.125C327.121 256.417 326.366 256.785 325.326 257.052C324.291 257.319 322.953 257.445 321.442 257.193C319.941 256.947 318.245 256.255 316.843 254.904C315.45 253.565 314.371 251.601 314.087 249.331C313.941 248.202 313.985 246.997 314.317 245.82C314.649 244.646 315.219 243.514 315.966 242.48C317.459 240.396 319.54 238.715 321.492 236.839C322.467 235.898 323.422 234.903 324.213 233.767C325.004 232.632 325.626 231.358 326.077 230.007C326.982 227.296 327.192 224.461 327.129 221.759C327.057 219.05 326.715 216.44 326.318 213.974C325.507 209.04 324.262 204.693 322.983 201.135C321.714 197.57 320.411 194.79 319.477 192.891C319.007 191.942 318.631 191.21 318.369 190.717C318.113 190.221 317.986 189.956 318.002 189.947C318.018 189.938 318.175 190.186 318.461 190.666C318.753 191.143 319.159 191.86 319.657 192.798C320.649 194.674 322.009 197.441 323.329 201.008C324.658 204.568 325.948 208.931 326.791 213.894C327.204 216.374 327.559 218.997 327.639 221.745C327.709 224.484 327.503 227.377 326.571 230.172C326.105 231.564 325.461 232.885 324.638 234.062C323.815 235.241 322.834 236.257 321.846 237.206C319.866 239.096 317.806 240.755 316.356 242.759C315.631 243.753 315.082 244.832 314.759 245.942C314.437 247.053 314.386 248.198 314.516 249.278C314.768 251.449 315.784 253.343 317.101 254.641C318.425 255.949 320.043 256.641 321.495 256.907C322.955 257.178 324.262 257.087 325.281 256.855C327.338 256.378 328.263 255.556 328.297 255.631Z" fill="#263238"/>
<path d="M243.231 242.071C243.187 241.981 244.6 241.927 246.446 240.475C248.251 239.05 250.254 236.041 250.705 231.879C250.965 229.81 250.924 227.516 250.878 225.048C250.85 222.589 250.797 219.895 251.492 217.156C251.826 215.791 252.344 214.425 253.105 213.149C253.876 211.884 254.924 210.719 256.261 209.91C258.971 208.249 262.297 208.329 265.248 207.296C266.74 206.801 268.021 205.896 269.076 204.792C270.135 203.686 270.975 202.403 271.784 201.136C273.382 198.616 274.917 195.967 277.356 194.404C278.551 193.62 279.908 193.184 281.228 192.995C282.552 192.792 283.847 192.792 285.084 192.827C287.559 192.912 289.847 193.08 291.91 192.775C296.056 192.207 299.103 190.489 300.986 189.149C301.942 188.476 302.61 187.856 303.073 187.45C303.278 187.256 303.445 187.097 303.582 186.967C303.699 186.86 303.762 186.808 303.769 186.814C303.769 186.814 302.986 187.877 301.106 189.312C299.241 190.716 296.18 192.512 291.962 193.14C289.858 193.475 287.527 193.325 285.075 193.26C282.652 193.21 279.903 193.296 277.617 194.809C275.315 196.292 273.814 198.87 272.215 201.411C271.404 202.687 270.553 203.997 269.451 205.151C268.361 206.3 266.98 207.274 265.42 207.789C262.336 208.849 259.064 208.78 256.525 210.347C253.98 211.885 252.612 214.654 251.957 217.274C251.267 219.934 251.299 222.584 251.309 225.044C251.336 227.508 251.357 229.827 251.069 231.927C250.561 236.171 248.458 239.227 246.57 240.636C245.619 241.351 244.756 241.717 244.157 241.884C243.862 241.985 243.622 242.006 243.468 242.043C243.313 242.069 243.232 242.08 243.231 242.071Z" fill="#455A64"/>
<path d="M253.248 200.645C253.27 200.589 253.919 200.982 255.222 201.177C256.509 201.377 258.48 201.266 260.62 200.287C262.77 199.328 264.91 197.452 267.083 195.202C268.182 194.084 269.326 192.884 270.631 191.753C271.934 190.63 273.413 189.559 275.138 188.866C276.863 188.166 278.683 187.928 280.407 187.897C282.137 187.868 283.791 188.024 285.355 188.172C286.919 188.321 288.402 188.476 289.785 188.488C291.17 188.508 292.459 188.394 293.613 188.176C295.926 187.747 297.66 186.837 298.637 185.963C299.632 185.103 300.002 184.447 300.052 184.485C300.067 184.495 299.974 184.653 299.781 184.949C299.691 185.102 299.557 185.274 299.386 185.468C299.226 185.673 299.022 185.89 298.771 186.114C297.811 187.057 296.044 188.052 293.685 188.536C292.509 188.783 291.194 188.92 289.784 188.919C288.37 188.925 286.877 188.784 285.312 188.649C283.748 188.515 282.109 188.371 280.418 188.406C278.731 188.443 276.98 188.679 275.333 189.348C272.018 190.717 269.638 193.347 267.424 195.54C265.226 197.778 263.011 199.677 260.769 200.624C258.544 201.589 256.5 201.645 255.188 201.377C254.523 201.257 254.038 201.05 253.714 200.914C253.4 200.753 253.24 200.661 253.248 200.645Z" fill="#455A64"/>
<path d="M325.604 228.686C325.537 228.661 325.969 228.047 326.095 226.783C326.249 225.532 325.867 223.656 324.669 221.731C323.514 219.761 321.363 218.052 319.183 215.919C318.106 214.842 317.02 213.604 316.273 212.077C315.522 210.555 315.154 208.816 315.034 207.05C314.803 203.499 315.41 200.179 315.331 197.172C315.313 194.174 314.585 191.458 313.13 189.714C311.726 187.935 309.975 187.094 308.74 186.896C307.49 186.682 306.781 186.916 306.775 186.847C306.771 186.829 306.943 186.784 307.278 186.714C307.614 186.656 308.123 186.615 308.772 186.696C310.063 186.838 311.919 187.662 313.417 189.482C314.975 191.271 315.771 194.113 315.812 197.162C315.915 200.229 315.325 203.555 315.554 207.014C315.671 208.736 316.024 210.404 316.732 211.854C317.434 213.307 318.471 214.511 319.524 215.582C321.646 217.699 323.829 219.48 324.984 221.541C326.179 223.548 326.52 225.516 326.296 226.808C326.203 227.456 326.018 227.934 325.872 228.241C325.711 228.543 325.62 228.695 325.604 228.686Z" fill="#455A64"/>
<path d="M237.104 234.679C237.095 234.695 236.877 234.574 236.465 234.328C236.066 234.066 235.499 233.627 234.907 232.928C233.727 231.578 232.462 228.939 232.988 225.63C233.147 224.82 233.413 223.987 233.842 223.186C234.297 222.399 234.894 221.665 235.605 221.003C237.05 219.696 238.894 218.74 240.807 217.8C242.71 216.853 244.751 215.869 246.364 214.261C247.997 212.664 248.903 210.393 249.51 208.037C250.116 205.667 250.529 203.272 251.307 201.049C252.065 198.827 253.08 196.79 254.209 194.96C256.469 191.287 259.242 188.487 261.816 186.514C264.389 184.521 266.759 183.327 268.429 182.632C269.256 182.259 269.932 182.054 270.383 181.903C270.836 181.754 271.076 181.685 271.082 181.702C271.103 181.76 270.145 182.06 268.511 182.818C266.877 183.565 264.558 184.798 262.044 186.805C259.529 188.792 256.822 191.581 254.619 195.212C253.518 197.022 252.529 199.03 251.79 201.216C251.035 203.395 250.629 205.763 250.014 208.171C249.4 210.557 248.459 212.937 246.726 214.623C245.02 216.31 242.924 217.296 241.019 218.233C239.1 219.161 237.293 220.084 235.895 221.326C235.208 221.954 234.631 222.649 234.194 223.385C233.779 224.138 233.515 224.927 233.351 225.699C233.073 227.258 233.231 228.725 233.587 229.934C233.953 231.145 234.507 232.109 235.065 232.803C236.181 234.207 237.157 234.613 237.104 234.679Z" fill="#263238"/>
<path d="M328.419 229.617C328.375 229.575 328.845 229.139 329.483 228.195C330.122 227.258 330.864 225.756 331.257 223.764C331.645 221.778 331.647 219.308 331.011 216.703C330.377 214.094 329.064 211.402 327.427 208.756C325.78 206.106 324.004 203.704 322.506 201.429C321.001 199.16 319.785 197.011 318.968 195.111C318.151 193.21 317.715 191.582 317.524 190.444C317.431 189.873 317.374 189.43 317.36 189.125C317.339 188.822 317.336 188.663 317.354 188.661C317.404 188.655 317.469 189.289 317.722 190.403C317.972 191.517 318.455 193.104 319.304 194.961C320.154 196.817 321.387 198.921 322.905 201.163C324.415 203.41 326.207 205.806 327.87 208.482C329.524 211.157 330.851 213.904 331.477 216.591C332.104 219.273 332.062 221.808 331.617 223.839C331.167 225.876 330.35 227.394 329.648 228.313C329.29 228.771 328.998 229.111 328.769 229.314C328.551 229.525 328.431 229.63 328.419 229.617Z" fill="#263238"/>
<path d="M224.554 369.022L216.34 383.311C216.34 383.311 175.527 368.377 151.636 372.728C142.552 374.382 132.83 394.993 146.066 408.228C158.979 421.141 182.075 439.396 225.4 445.306C226.481 445.453 244.227 449.264 243.134 449.135C242.041 449.006 268.014 453.116 268.014 453.116L274.111 430.06L322.503 437.654C351.021 435.707 364.979 405.211 347.805 395.395C331.784 386.238 301.66 385.503 301.66 385.503L290.741 368.379L224.554 369.022Z" fill="#263238"/>
<path d="M268.977 453.951C269.105 453.171 269.449 451.071 270.154 446.764C270.539 444.464 271.013 441.661 271.624 438.436C271.931 436.824 272.274 435.106 272.682 433.298C272.89 432.394 273.112 431.468 273.376 430.524C273.511 430.053 273.652 429.577 273.825 429.1C274.005 428.623 274.159 428.143 274.559 427.677L274.632 428.026C264.331 424.369 251.456 419.538 237.731 413.751C229.292 410.162 221.331 406.536 214.326 402.763C210.836 400.865 207.55 398.954 204.726 396.81C201.878 394.707 199.343 392.607 196.966 390.778C192.257 387.063 187.988 384.663 184.793 383.643C184.01 383.342 183.285 383.177 182.662 383.013C182.042 382.832 181.505 382.737 181.069 382.668C180.656 382.593 180.33 382.533 180.081 382.488C179.858 382.444 179.745 382.418 179.746 382.409C179.747 382.4 179.863 382.409 180.088 382.435C180.34 382.468 180.67 382.511 181.087 382.565C181.528 382.617 182.071 382.696 182.698 382.863C183.329 383.012 184.064 383.163 184.858 383.451C186.476 383.93 188.369 384.781 190.46 385.944C192.55 387.114 194.799 388.665 197.191 390.486C199.588 392.301 202.136 394.384 204.982 396.462C207.801 398.579 211.067 400.459 214.555 402.342C221.549 406.08 229.505 409.687 237.935 413.273C251.646 419.054 264.503 423.919 274.772 427.634L275.059 427.738L274.845 427.984C274.575 428.295 274.372 428.79 274.21 429.242C274.04 429.703 273.898 430.172 273.761 430.636C273.493 431.567 273.266 432.488 273.053 433.386C272.633 435.184 272.276 436.896 271.955 438.503C271.315 441.718 270.808 444.514 270.389 446.807C269.968 449.075 269.637 450.857 269.405 452.107C269.285 452.715 269.188 453.178 269.113 453.489C269.039 453.797 268.977 453.951 268.977 453.951Z" fill="#455A64"/>
<path d="M338.417 398.175C338.415 398.184 338.327 398.176 338.156 398.152C337.956 398.12 337.708 398.081 337.402 398.032C336.737 397.945 335.778 397.696 334.511 397.575C331.998 397.204 328.312 396.962 323.777 397.195C319.24 397.412 313.878 398.286 308.064 399.787C305.163 400.565 302.144 401.478 299.053 402.548C295.962 403.621 292.811 404.854 289.583 406.14C286.349 407.446 283.093 408.456 279.928 409.326C276.762 410.2 273.667 410.883 270.707 411.456C264.786 412.609 259.402 413.321 254.881 413.872C250.358 414.417 246.692 414.795 244.159 415.055C242.924 415.176 241.948 415.272 241.24 415.341C240.931 415.366 240.681 415.386 240.48 415.403C240.308 415.414 240.22 415.415 240.219 415.406C240.218 415.397 240.304 415.378 240.474 415.35C240.674 415.32 240.922 415.283 241.229 415.237C241.934 415.144 242.906 415.016 244.137 414.854C246.706 414.531 250.35 414.072 254.836 413.508C259.348 412.91 264.718 412.162 270.615 410.987C273.564 410.403 276.645 409.713 279.794 408.836C282.943 407.964 286.179 406.956 289.391 405.658C292.616 404.373 295.786 403.137 298.887 402.068C301.991 401.001 305.026 400.093 307.944 399.325C313.793 397.843 319.193 397.001 323.759 396.83C328.323 396.642 332.026 396.943 334.54 397.377C335.807 397.53 336.764 397.811 337.424 397.932C337.726 398.001 337.971 398.058 338.168 398.103C338.334 398.141 338.419 398.167 338.417 398.175Z" fill="#455A64"/>
<path d="M263.864 389.877C263.894 390.22 261.698 390.77 258.074 391.109C254.454 391.451 249.403 391.516 243.872 390.927C238.34 390.33 233.417 389.197 229.952 388.095C226.482 386.995 224.452 385.992 224.555 385.664C224.784 384.934 233.356 387.215 244.15 388.338C254.933 389.528 263.795 389.116 263.864 389.877Z" fill="#263238"/>
<path d="M302.117 385.83C302.123 385.866 301.553 386.015 300.52 386.256C300.001 386.364 299.373 386.526 298.651 386.743C297.926 386.946 297.099 387.17 296.207 387.491C294.398 388.054 292.315 388.928 290.029 389.945C287.766 391.017 285.328 392.299 282.845 393.781C277.89 396.772 273.694 399.932 270.73 402.301C269.245 403.483 268.06 404.462 267.246 405.145C266.43 405.825 265.966 406.189 265.942 406.162C265.918 406.135 266.335 405.721 267.112 404.993C267.886 404.263 269.037 403.239 270.496 402.016C273.408 399.567 277.59 396.344 282.575 393.335C285.074 391.844 287.537 390.564 289.828 389.509C292.143 388.508 294.256 387.663 296.094 387.141C297 386.84 297.84 386.639 298.576 386.462C299.309 386.27 299.947 386.136 300.476 386.058C301.529 385.877 302.111 385.794 302.117 385.83Z" fill="#455A64"/>
<path d="M256.749 406.161C256.733 406.221 255.613 405.98 253.882 405.344C252.148 404.717 249.828 403.663 247.333 402.387C244.929 401.128 242.756 399.989 240.985 399.062C239.362 398.215 238.344 397.715 238.374 397.644C238.4 397.582 239.474 397.965 241.146 398.731C242.821 399.491 245.08 400.648 247.569 401.923C250.058 403.196 252.333 404.293 254.018 405.002C255.698 405.72 256.772 406.083 256.749 406.161Z" fill="#455A64"/>
<path d="M261.163 370.717C261.242 370.727 261.103 372.218 260.95 374.628C260.796 377.038 260.662 380.372 260.731 384.054C260.804 387.737 261.067 391.064 261.314 393.467C261.559 395.87 261.756 397.354 261.678 397.367C261.642 397.373 261.552 397.009 261.418 396.344C261.281 395.68 261.119 394.712 260.949 393.512C260.608 391.112 260.285 387.769 260.211 384.065C260.142 380.362 260.335 377.01 260.583 374.599C260.706 373.393 260.831 372.419 260.942 371.75C261.051 371.08 261.128 370.712 261.163 370.717Z" fill="#455A64"/>
<path d="M265.707 372.202C265.733 372.245 265.536 372.361 265.281 372.657C265.025 372.947 264.74 373.451 264.643 374.131C264.559 374.797 264.679 375.678 265.271 376.32C265.842 376.978 266.923 377.171 267.879 376.814C268.838 376.462 269.532 375.611 269.536 374.74C269.566 373.867 269.083 373.121 268.585 372.671C268.069 372.219 267.524 372.022 267.141 371.969C266.755 371.91 266.53 371.951 266.522 371.901C266.515 371.881 266.73 371.768 267.157 371.766C267.579 371.759 268.21 371.917 268.822 372.388C269.409 372.856 270.017 373.675 270.016 374.752C270.038 375.842 269.181 376.902 268.06 377.303C266.95 377.729 265.608 377.484 264.915 376.643C264.212 375.827 264.14 374.81 264.28 374.072C264.437 373.316 264.813 372.785 265.137 372.515C265.462 372.237 265.699 372.182 265.707 372.202Z" fill="#455A64"/>
<path d="M278.13 355.731C278.157 355.754 277.88 356.115 277.352 356.751C276.834 357.394 276.015 358.268 274.947 359.29C273.885 360.319 272.53 361.45 270.949 362.603C269.352 363.733 267.521 364.873 265.503 365.891C263.475 366.891 261.462 367.667 259.598 368.261C257.725 368.829 256.006 369.231 254.545 369.459C253.087 369.696 251.896 369.824 251.07 369.85C250.245 369.889 249.79 369.893 249.787 369.857C249.78 369.758 251.602 369.657 254.478 369.096C255.917 368.824 257.608 368.389 259.451 367.803C261.285 367.19 263.267 366.411 265.27 365.424C267.263 364.419 269.078 363.307 270.671 362.211C272.248 361.092 273.613 360.004 274.697 359.019C276.878 357.061 278.056 355.666 278.13 355.731Z" fill="#263238"/>
<path d="M296.385 366.827C296.381 366.983 294.583 366.984 292.461 367.516C290.334 368.03 288.741 368.863 288.665 368.726C288.589 368.619 290.123 367.547 292.336 367.01C294.545 366.459 296.402 366.696 296.385 366.827Z" fill="#263238"/>
<g opacity="0.3">
<path d="M254.414 369.329C263.03 367.783 271.059 363.145 276.701 356.452C277.772 359.592 276.885 363.311 274.512 365.63C277.052 366.834 280.025 366.034 282.81 365.652C285.595 365.269 288.993 365.643 290.323 368.12C277.887 369.274 265.377 369.631 252.896 369.189" fill="black"/>
</g>
<path d="M229.584 349.734C229.505 349.844 228.266 348.118 225.271 346.937C223.796 346.348 221.904 345.954 219.804 346.014C217.708 346.07 215.412 346.629 213.267 347.765C208.907 350.029 206.325 353.889 204.348 356.364C203.413 357.664 202.813 358.822 202.385 359.615C201.964 360.412 201.727 360.853 201.693 360.837C201.662 360.823 201.837 360.354 202.203 359.526C202.575 358.704 203.133 357.505 204.045 356.153C204.966 354.805 206.167 353.312 207.553 351.667C208.978 350.052 210.805 348.471 213.024 347.303C215.237 346.13 217.624 345.564 219.792 345.533C221.964 345.498 223.908 345.944 225.409 346.595C226.926 347.225 227.99 348.053 228.655 348.67C228.989 348.981 229.227 349.242 229.373 349.433C229.525 349.62 229.597 349.722 229.584 349.734Z" fill="#263238"/>
<path d="M255.765 253.815L241.799 256.783L248.782 282.912L273.499 288.223L290.458 276.186L292.785 261.782L278.245 256.283L255.765 253.815Z" fill="#FFBE9D"/>
<path d="M245.934 255.707C245.934 255.707 255.381 283.148 272.843 280.613C290.305 278.078 288.847 260.293 288.847 260.293C288.847 260.293 307.071 265.846 312.704 271.761C318.337 277.675 315.036 290.519 315.036 290.519L310.309 313.74L300.03 358.224C300.03 358.224 303.96 370.356 293.915 373.356L290.741 368.378L230.473 370.082C230.473 370.082 217.583 384.944 213.566 379.817C209.549 374.69 205.68 364.702 205.68 364.702L233.343 258.986L245.934 255.707Z" fill="#455A64"/>
<path d="M307.931 268.252C308.419 268.534 350.723 299.287 350.723 299.287C350.723 299.287 347.404 324.574 367.689 320.546C367.689 320.546 359.489 341.694 348.387 337.253C345.232 335.991 306.242 311.318 306.242 311.318L297.957 293.668L307.931 268.252Z" fill="#455A64"/>
<path d="M245.934 257.063C245.934 257.063 244.978 257.089 243.364 257.244C235.083 258.039 204.521 264.369 201.693 285.935C200.213 297.218 199.79 330.207 198.186 344.035C198.186 344.035 200.743 363.259 201.693 366.822C203.383 373.159 234.041 363.015 234.041 363.015L234.105 301.968L244.979 257.088" fill="#455A64"/>
<path d="M226.595 312.477C226.613 312.478 226.629 312.65 226.643 312.974C226.652 313.299 226.661 313.776 226.741 314.386C226.869 315.607 227.245 317.353 228.031 319.408C228.812 321.466 230.001 323.81 231.195 326.491C231.784 327.835 232.361 329.273 232.792 330.825C233.213 332.378 233.495 334.026 233.62 335.722C233.88 339.12 233.618 342.351 233.376 345.264C233.125 348.177 232.881 350.808 232.518 352.998C232.164 355.19 231.703 356.934 231.311 358.111C231.112 358.699 230.945 359.151 230.813 359.45C230.685 359.751 230.61 359.905 230.593 359.898C230.552 359.882 230.784 359.239 231.117 358.052C231.447 356.865 231.849 355.125 232.154 352.942C232.468 350.76 232.673 348.14 232.898 345.224C233.114 342.313 233.357 339.104 233.101 335.762C232.978 334.093 232.705 332.479 232.3 330.959C231.886 329.441 231.327 328.019 230.755 326.681C229.595 324.01 228.432 321.633 227.686 319.535C226.934 317.439 226.606 315.645 226.539 314.403C226.489 313.781 226.513 313.298 226.538 312.971C226.558 312.646 226.577 312.476 226.595 312.477Z" fill="#263238"/>
<path d="M227.974 304.784C228.058 304.78 228.134 306.335 228.482 308.815C228.827 311.293 229.494 314.697 230.714 318.314C231.024 319.216 231.337 320.093 231.674 320.927C231.758 321.117 231.836 321.387 231.923 321.499C232.043 321.685 232.163 321.869 232.281 322.052C232.515 322.426 232.736 322.8 232.924 323.179C233.703 324.685 234.061 326.217 234.051 327.504C234.058 328.797 233.721 329.802 233.456 330.457C233.14 331.096 232.933 331.427 232.905 331.411C232.768 331.372 233.748 330 233.682 327.511C233.645 326.284 233.27 324.838 232.497 323.4C232.31 323.038 232.092 322.681 231.861 322.32C231.741 322.138 231.619 321.955 231.497 321.77C231.331 321.513 231.302 321.338 231.2 321.117C230.852 320.277 230.532 319.391 230.219 318.48C228.986 314.824 228.369 311.368 228.115 308.86C227.98 307.605 227.944 306.584 227.924 305.88C227.923 305.175 227.939 304.785 227.974 304.784Z" fill="#263238"/>
<path d="M229.221 295.618C229.139 295.646 228.686 294.373 227.78 292.397C226.878 290.421 225.466 287.764 223.548 285.064C221.622 282.368 219.572 280.165 217.999 278.667C216.427 277.166 215.373 276.321 215.426 276.253C215.448 276.224 215.733 276.408 216.23 276.766C216.731 277.119 217.424 277.674 218.248 278.396C219.899 279.837 222.021 282.031 223.971 284.762C225.914 287.497 227.293 290.219 228.116 292.25C228.53 293.265 228.828 294.102 228.997 294.69C229.175 295.277 229.255 295.606 229.221 295.618Z" fill="#263238"/>
<path d="M315.893 277.699C315.966 277.712 315.866 278.635 315.686 280.123C315.505 281.61 315.253 283.662 315.015 285.933C314.779 288.205 314.602 290.265 314.472 291.757C314.342 293.249 314.249 294.174 314.174 294.171C314.104 294.169 314.067 293.239 314.104 291.736C314.14 290.234 314.26 288.16 314.497 285.878C314.736 283.597 315.047 281.544 315.321 280.066C315.596 278.59 315.824 277.687 315.893 277.699Z" fill="#263238"/>
<path d="M324.588 303.376C324.601 303.472 323.268 303.598 321.221 304.182C319.183 304.743 316.431 305.991 314.174 308.315C313.055 309.479 312.191 310.762 311.485 311.973C310.822 313.21 310.307 314.371 309.938 315.371C309.764 315.856 309.602 316.307 309.451 316.728C309.336 317.105 309.231 317.45 309.133 317.771C308.952 318.343 308.835 318.656 308.8 318.648C308.765 318.64 308.815 318.311 308.936 317.72C309.008 317.39 309.086 317.034 309.17 316.645C309.3 316.212 309.44 315.747 309.589 315.248C309.919 314.218 310.407 313.02 311.063 311.741C311.763 310.487 312.642 309.155 313.8 307.951C316.139 305.541 319.028 304.302 321.125 303.825C321.651 303.691 322.13 303.591 322.557 303.535C322.981 303.465 323.347 303.411 323.649 303.395C324.252 303.349 324.585 303.34 324.588 303.376Z" fill="#263238"/>
<path d="M352.606 331.213C352.574 331.23 352.335 330.831 351.928 330.093C351.719 329.726 351.478 329.27 351.235 328.722C350.988 328.177 350.68 327.565 350.422 326.856C349.847 325.46 349.292 323.744 348.81 321.805C348.357 319.86 347.993 317.687 347.827 315.385C347.683 313.081 347.754 310.878 347.942 308.889C348.161 306.903 348.478 305.128 348.862 303.668C349.023 302.93 349.246 302.283 349.418 301.71C349.585 301.134 349.764 300.65 349.922 300.259C350.227 299.473 350.409 299.045 350.443 299.058C350.538 299.092 349.871 300.832 349.221 303.752C348.887 305.209 348.61 306.97 348.42 308.935C348.26 310.902 348.205 313.076 348.347 315.35C348.511 317.622 348.857 319.768 349.278 321.696C349.729 323.617 350.24 325.325 350.766 326.724C351.801 329.531 352.696 331.167 352.606 331.213Z" fill="#263238"/>
<path d="M341.606 323.696C341.572 323.706 341.435 323.327 341.215 322.627C341.005 321.926 340.757 320.889 340.586 319.586C340.231 316.992 340.303 313.268 341.529 309.426C342.729 305.571 344.821 302.489 346.641 300.589C347.577 299.642 348.615 299.125 349.39 299.112C349.775 299.098 350.062 299.199 350.241 299.276C350.415 299.372 350.496 299.434 350.488 299.449C350.469 299.503 350.107 299.242 349.405 299.314C348.709 299.384 347.77 299.907 346.906 300.845C345.199 302.762 343.198 305.813 342.026 309.583C340.827 313.344 340.697 316.981 340.952 319.546C341.206 322.123 341.704 323.67 341.606 323.696Z" fill="#263238"/>
<path d="M272.842 318.72C272.877 318.729 272.787 319.15 272.595 319.906C272.505 320.286 272.379 320.747 272.186 321.267C271.999 321.789 271.816 322.396 271.521 323.03C270.996 324.326 270.223 325.808 269.236 327.374C268.221 328.921 266.976 330.541 265.49 332.079C263.986 333.601 262.395 334.883 260.872 335.934C259.329 336.957 257.865 337.764 256.581 338.319C255.954 338.629 255.351 338.826 254.833 339.024C254.317 339.229 253.86 339.365 253.481 339.464C252.729 339.674 252.311 339.773 252.301 339.738C252.27 339.637 253.937 339.185 256.424 337.985C257.672 337.395 259.095 336.566 260.599 335.538C262.083 334.482 263.638 333.211 265.117 331.715C266.578 330.202 267.813 328.62 268.834 327.112C269.827 325.585 270.623 324.143 271.184 322.882C272.326 320.368 272.741 318.69 272.842 318.72Z" fill="#263238"/>
<g opacity="0.3">
<path d="M238.21 328.624C236.289 321.609 234.368 314.594 232.447 307.579C232.166 306.554 231.698 305.348 230.652 305.16C229.678 304.985 228.784 305.904 228.603 306.876C228.422 307.849 228.453 308.968 228.551 309.952C229.005 314.521 229.364 317.624 231.492 321.165C235.64 328.064 232.906 331.411 232.906 331.411C233.236 339.81 232.528 351.274 229.915 359.9L232.38 370.31C234.724 362.572 240.072 356.117 240.974 348.082C241.709 341.53 239.951 334.983 238.21 328.624Z" fill="black"/>
</g>
<g opacity="0.3">
<path d="M310.301 313.881C317.148 317.445 323.239 322.361 329.916 326.169C327.299 320.72 322.935 315.333 317.627 312.441C316.197 311.662 314.599 310.987 312.987 311.215C311.375 311.443 310.212 312.353 310.457 313.963" fill="black"/>
</g>
<g opacity="0.3">
<path d="M349.555 298.809C347.216 298.752 345.448 300.877 344.303 302.918C341.078 308.668 339.734 315.453 340.523 321.999C340.665 323.18 341.102 324.602 342.27 324.831C343.117 324.997 343.962 324.378 344.339 323.602C344.716 322.825 344.732 321.929 344.729 321.066C344.716 317.057 344.456 313.023 345.026 309.055C345.596 305.087 347.097 301.098 350.052 298.388" fill="black"/>
</g>
<path d="M243.783 306.316C243.783 306.31 243.862 306.3 244.018 306.288C244.194 306.276 244.422 306.261 244.713 306.242C245.351 306.208 246.255 306.16 247.421 306.098C249.816 305.987 253.28 305.827 257.665 305.625C266.496 305.25 279.028 304.718 293.934 304.085L294.17 304.075L294.176 304.312C294.474 316.513 294.817 330.546 295.181 345.409C295.193 345.909 295.205 346.408 295.216 346.897L295.222 347.161L294.958 347.164C278.53 347.344 263.205 348.705 250.306 350.498L250.11 350.525L250.058 350.335C246.505 337.27 245.206 326.018 244.733 318.166C244.496 314.234 244.451 311.14 244.452 309.032C244.451 307.978 244.475 307.17 244.485 306.626C244.493 306.369 244.499 306.167 244.504 306.009C244.51 305.871 244.516 305.801 244.522 305.801C244.528 305.801 244.534 305.871 244.539 306.01C244.543 306.168 244.548 306.369 244.555 306.627C244.563 307.195 244.575 307.997 244.589 309.032C244.632 311.138 244.718 314.227 244.993 318.15C245.542 325.984 246.902 337.201 250.489 350.218L250.242 350.056C263.151 348.216 278.498 346.826 294.95 346.645L294.693 346.911C294.681 346.423 294.67 345.923 294.658 345.423C294.315 330.559 293.991 316.526 293.71 304.325L293.951 304.552C279.041 305.107 266.507 305.574 257.674 305.904C253.287 306.051 249.82 306.167 247.425 306.247C246.258 306.278 245.353 306.302 244.715 306.319C244.423 306.323 244.195 306.326 244.019 306.328C243.863 306.326 243.783 306.323 243.783 306.316Z" fill="white"/>
<path d="M256.961 336.633C256.819 336.657 255.569 329.899 254.169 321.541C252.768 313.18 251.748 306.385 251.89 306.362C252.032 306.338 253.282 313.095 254.683 321.455C256.082 329.813 257.102 336.609 256.961 336.633Z" fill="white"/>
<path d="M258.465 349.526C258.323 349.548 257.824 347.108 257.35 344.076C256.876 341.043 256.607 338.567 256.749 338.545C256.891 338.523 257.39 340.963 257.864 343.996C258.338 347.027 258.607 349.504 258.465 349.526Z" fill="white"/>
<path d="M267.076 329.939C267.041 329.946 266.943 329.615 266.795 329.01C266.646 328.405 266.458 327.524 266.249 326.431C265.83 324.245 265.356 321.203 265.017 317.821C264.681 314.438 264.545 311.362 264.524 309.136C264.513 308.023 264.523 307.122 264.55 306.5C264.575 305.878 264.606 305.534 264.642 305.534C264.719 305.534 264.777 306.908 264.893 309.124C265.008 311.341 265.201 314.4 265.536 317.769C265.873 321.137 266.288 324.174 266.613 326.369C266.937 328.565 267.151 329.924 267.076 329.939Z" fill="white"/>
<path d="M265.943 348.189C265.8 348.207 265.291 345.043 264.806 341.123C264.321 337.202 264.043 334.01 264.186 333.993C264.329 333.975 264.838 337.139 265.323 341.059C265.808 344.979 266.086 348.171 265.943 348.189Z" fill="white"/>
<path d="M277.244 347.38C277.208 347.382 277.138 346.795 277.041 345.733C276.941 344.582 276.809 343.066 276.65 341.235C276.322 337.437 275.834 332.195 275.171 326.418C274.505 320.64 273.79 315.423 273.247 311.65C272.986 309.831 272.77 308.325 272.606 307.181C272.459 306.125 272.394 305.538 272.43 305.531C272.465 305.525 272.598 306.1 272.806 307.147C273.017 308.193 273.293 309.712 273.61 311.593C274.247 315.355 275.021 320.572 275.688 326.358C276.352 332.143 276.783 337.398 277.016 341.207C277.134 343.111 277.21 344.653 277.242 345.72C277.278 346.787 277.28 347.378 277.244 347.38Z" fill="white"/>
<path d="M286.856 347.915C286.82 347.914 286.796 347.316 286.785 346.235C286.775 345.066 286.761 343.524 286.745 341.66C286.708 337.798 286.605 332.464 286.327 326.579C286.046 320.692 285.643 315.372 285.313 311.524C285.153 309.667 285.02 308.131 284.919 306.966C284.828 305.889 284.795 305.292 284.831 305.287C284.867 305.283 284.968 305.873 285.121 306.943C285.276 308.013 285.469 309.566 285.68 311.488C286.104 315.332 286.565 320.657 286.847 326.554C287.125 332.449 287.171 337.794 287.113 341.66C287.085 343.593 287.041 345.157 286.988 346.238C286.937 347.319 286.892 347.916 286.856 347.915Z" fill="white"/>
<g opacity="0.3">
<path d="M253.096 339.812C254.618 340.847 256.526 341.212 258.363 341.094C260.2 340.976 261.979 340.404 263.679 339.698C265.929 338.763 268.125 337.546 269.73 335.713C271.447 333.751 272.375 331.2 272.785 328.626C273.194 326.052 273.118 323.428 273.041 320.822C273.038 320.709 273.032 320.588 272.966 320.495C272.842 320.323 272.562 320.344 272.4 320.481C272.238 320.619 272.165 320.831 272.097 321.032C269.124 329.744 261.669 336.79 252.803 339.266" fill="black"/>
</g>
<path d="M246.897 423.57L240.785 412.11L227.048 347.8C227.048 347.8 214.405 340.545 204.063 356.452C203.647 357.093 218.298 403.148 222.387 415.963L222.961 428.217C222.961 428.217 222.235 442.726 222.961 443.995C223.686 445.265 225.5 445.99 225.5 445.99C225.5 445.99 224.956 449.617 229.127 449.98C229.127 449.98 229.49 453.97 232.573 453.426C235.656 452.882 236.744 450.887 236.744 450.887C236.744 450.887 236.744 455.965 239.464 455.421C242.184 454.877 242.629 452.701 243.132 451.975C243.635 451.25 244.208 443.814 244.208 443.814L244.16 431.528L251.244 437.265C253.29 438.284 256.285 439.548 257.989 438.025L246.897 423.57Z" fill="#FFBE9D"/>
<path d="M244.16 430.919C244.309 430.894 244.739 433.87 244.562 437.537C244.48 439.24 244.406 440.786 244.337 442.206C244.276 443.399 244.235 444.14 244.16 444.141C243.998 444.15 243.864 441.166 244.042 437.518C244.218 433.877 244.024 430.938 244.16 430.919Z" fill="#EB996E"/>
<path d="M236.361 439.476C236.505 439.474 236.658 442.194 236.703 445.549C236.748 448.906 236.668 451.628 236.525 451.63C236.381 451.632 236.228 448.913 236.183 445.556C236.137 442.201 236.217 439.478 236.361 439.476Z" fill="#EB996E"/>
<path d="M229.819 441.706C229.955 441.695 230.191 443.608 229.96 445.962C229.738 448.317 229.143 450.15 229.011 450.113C228.864 450.077 229.224 448.222 229.441 445.912C229.668 443.603 229.668 441.713 229.819 441.706Z" fill="#EB996E"/>
<path d="M225.609 440.291C225.752 440.305 225.747 441.541 225.597 443.05C225.447 444.56 225.21 445.772 225.067 445.758C224.924 445.744 224.929 444.509 225.079 442.999C225.229 441.489 225.466 440.277 225.609 440.291Z" fill="#EB996E"/>
<path d="M239.34 189.729L230.139 173.513C234.209 166.906 236.562 159.128 236.562 150.799C236.562 126.845 217.143 107.426 193.189 107.426C169.235 107.426 149.816 126.845 149.816 150.799C149.816 174.753 169.235 194.172 193.189 194.172C203.191 194.172 212.396 190.777 219.733 185.089L219.718 185.108L239.34 189.729Z" fill="white"/>
<path d="M239.341 189.729C238.435 189.522 232.207 188.097 219.689 185.235C219.619 185.219 219.576 185.15 219.592 185.08C219.596 185.062 219.605 185.044 219.616 185.029L219.631 185.01L219.813 185.191C217.339 187.107 214.375 188.996 210.891 190.569C207.403 192.115 203.407 193.379 198.995 193.965C196.792 194.246 194.491 194.428 192.126 194.312C190.944 194.245 189.741 194.216 188.528 194.115C187.323 193.933 186.101 193.748 184.863 193.561C179.951 192.591 174.929 190.726 170.245 187.819C165.563 184.923 161.229 180.989 157.754 176.157C154.285 171.333 151.654 165.613 150.423 159.398C149.203 153.191 149.305 146.538 150.935 140.1C152.576 133.684 155.643 127.415 160.233 122.259L162.005 120.31C162.587 119.655 163.282 119.114 163.913 118.512C164.574 117.943 165.17 117.299 165.88 116.797L167.962 115.24C168.636 114.695 169.379 114.256 170.118 113.814C170.854 113.368 171.587 112.922 172.319 112.478C173.089 112.104 173.857 111.731 174.623 111.359C175.396 111.003 176.139 110.581 176.949 110.325C183.251 107.823 189.971 106.871 196.395 107.337C202.821 107.8 208.969 109.643 214.244 112.612C219.535 115.557 223.997 119.49 227.441 123.882C230.895 128.277 233.329 133.124 234.836 137.95C236.333 142.799 236.738 147.608 236.722 152.06C236.593 156.523 235.781 160.634 234.598 164.242C233.412 167.855 231.855 170.963 230.247 173.578L230.249 173.451C236.061 183.857 238.907 188.952 239.341 189.729C238.897 188.959 235.983 183.902 230.032 173.575C230.009 173.535 230.012 173.485 230.034 173.448C231.615 170.838 233.145 167.741 234.305 164.148C235.462 160.56 236.25 156.477 236.361 152.05C236.36 147.634 235.944 142.869 234.447 138.07C232.94 133.293 230.518 128.5 227.09 124.158C223.672 119.818 219.25 115.935 214.013 113.03C208.792 110.101 202.711 108.288 196.359 107.837C190.007 107.383 183.367 108.33 177.142 110.804C176.341 111.057 175.608 111.475 174.844 111.827C174.087 112.195 173.328 112.563 172.568 112.933C171.845 113.372 171.121 113.813 170.394 114.255C169.664 114.692 168.93 115.125 168.264 115.665L166.207 117.203C165.505 117.699 164.917 118.337 164.264 118.898C163.641 119.493 162.954 120.026 162.379 120.674L160.628 122.6C156.091 127.695 153.062 133.888 151.436 140.227C149.822 146.588 149.716 153.164 150.916 159.301C152.127 165.446 154.721 171.103 158.145 175.88C161.575 180.665 165.856 184.564 170.483 187.441C175.113 190.328 180.08 192.186 184.943 193.16C186.169 193.349 187.379 193.535 188.573 193.719C189.775 193.823 190.967 193.855 192.138 193.925C194.482 194.047 196.764 193.875 198.949 193.604C203.326 193.038 207.295 191.802 210.765 190.283C214.231 188.737 217.185 186.878 219.656 184.988C219.713 184.944 219.794 184.954 219.838 185.011C219.875 185.058 219.873 185.124 219.838 185.17L219.823 185.189L219.75 184.984C232.228 188.005 238.438 189.51 239.341 189.729Z" fill="#263238"/>
<path d="M180.452 142.536C179.815 142.194 179.028 142.073 178.294 141.98C175.985 141.688 174.012 142.344 172.336 144.182C177.032 146.904 183.419 150.513 187.988 153.119L193.756 149.821C189.605 147.527 184.384 144.65 180.452 142.536Z" fill="#FF6D38"/>
<g opacity="0.3">
<path d="M180.452 142.536C179.815 142.194 179.028 142.073 178.294 141.98C175.985 141.688 174.012 142.344 172.336 144.182C177.032 146.904 183.419 150.513 187.988 153.119L193.756 149.821C189.605 147.527 184.384 144.65 180.452 142.536Z" fill="black"/>
</g>
<path d="M198.119 159.199C197.971 159.077 197.942 159.045 197.907 159.025C196.471 158.195 194.949 156.61 193.494 156.64C192.94 156.651 192.343 157.128 190.912 157.935C188.527 159.28 184.522 161.627 182.125 162.95C180.079 164.079 177.584 164.925 175.254 164.192C174.121 163.835 173.218 163.2 172.025 162.24C180.959 157.061 189.487 152.117 198.114 147.116C197.978 146.729 197.842 146.356 197.715 145.98C196.658 142.846 197.79 139.398 200.5 137.492C203.235 135.569 206.92 135.707 209.538 137.83C212.086 139.896 212.961 143.456 211.669 146.496C210.366 149.564 207.254 151.355 203.955 151.02C203.389 150.963 202.739 151.123 202.218 151.371C201.225 151.845 200.296 152.455 199.112 153.141C201.119 154.044 202.483 155.478 204.827 155.26C208.065 154.959 210.943 157.306 211.927 160.435C212.89 163.496 211.77 166.829 209.148 168.708C206.51 170.599 202.904 170.557 200.303 168.605C197.737 166.68 196.688 163.308 197.714 160.266C197.831 159.919 197.974 159.58 198.119 159.199ZM204.781 147.184C206.812 147.193 208.407 145.583 208.388 143.543C208.37 141.595 206.754 139.985 204.808 139.977C202.833 139.969 201.147 141.668 201.174 143.639C201.201 145.576 202.828 147.175 204.781 147.184ZM204.74 166.264C206.677 166.298 208.337 164.705 208.387 162.765C208.44 160.717 206.88 159.082 204.85 159.057C202.892 159.033 201.246 160.588 201.175 162.532C201.103 164.49 202.765 166.229 204.74 166.264Z" fill="#FF6D38"/>
<path d="M195.08 152.995C194.99 153.024 195.027 152.316 194.297 151.79C193.948 151.543 193.4 151.42 192.882 151.624C192.368 151.813 191.934 152.361 191.939 152.995C191.933 153.63 192.368 154.178 192.882 154.367C193.4 154.571 193.948 154.447 194.297 154.201C195.027 153.674 194.99 152.966 195.08 152.995C195.11 152.994 195.161 153.148 195.125 153.435C195.089 153.716 194.935 154.145 194.52 154.493C194.12 154.841 193.419 155.06 192.718 154.818C192.024 154.599 191.409 153.862 191.418 152.995C191.41 152.128 192.024 151.392 192.718 151.173C193.419 150.931 194.12 151.15 194.519 151.498C194.934 151.846 195.088 152.276 195.124 152.556C195.161 152.842 195.11 152.996 195.08 152.995Z" fill="#263238"/>
<path d="M201.457 151.73C201.464 151.742 201.276 151.868 200.928 152.084C200.47 152.362 199.98 152.659 199.445 152.983C198.013 153.824 196.35 154.801 194.512 155.88C192.663 156.94 190.989 157.898 189.548 158.724C189.002 159.027 188.5 159.305 188.032 159.565C187.672 159.76 187.47 159.861 187.463 159.848C187.456 159.835 187.645 159.71 187.993 159.493C188.451 159.216 188.941 158.918 189.476 158.594C190.908 157.753 192.571 156.777 194.408 155.698C196.256 154.639 197.929 153.681 199.369 152.855C199.916 152.552 200.417 152.274 200.885 152.014C201.247 151.82 201.45 151.718 201.457 151.73Z" fill="#263238"/>
<path d="M197.119 147.731C197.123 147.737 197.039 147.795 196.876 147.899C196.66 148.033 196.425 148.18 196.159 148.346C195.436 148.784 194.548 149.321 193.502 149.955C191.255 151.308 188.146 153.169 184.661 155.137C181.233 157.083 178.133 158.843 175.747 160.198C174.678 160.794 173.772 161.299 173.034 161.711C172.759 161.86 172.515 161.992 172.291 162.113C172.12 162.203 172.029 162.247 172.025 162.241C172.022 162.235 172.106 162.178 172.27 162.077C172.488 161.946 172.725 161.802 172.994 161.641C173.723 161.214 174.618 160.689 175.674 160.071C178.052 158.702 181.14 156.925 184.556 154.958C188.04 152.991 191.161 151.15 193.427 149.829C194.487 149.218 195.386 148.699 196.118 148.277C196.391 148.124 196.634 147.988 196.855 147.864C197.025 147.77 197.116 147.725 197.119 147.731Z" fill="#263238"/>
<path d="M362.32 202.184L364.218 205.653L367.687 207.551L364.218 209.448L362.32 212.918L360.423 209.448L356.953 207.551L360.423 205.653L362.32 202.184Z" fill="#FF6D38"/>
<path d="M375 154.658L376.973 154.529L378.564 153.355L378.694 155.328L379.868 156.919L377.895 157.049L376.304 158.223L376.174 156.25L375 154.658Z" fill="#FF6D38"/>
<path d="M694.861 312.457L696.834 312.327L698.425 311.153L698.555 313.126L699.728 314.717L697.755 314.847L696.164 316.021L696.034 314.048L694.861 312.457Z" fill="#FF6D38"/>
<path d="M469.551 213.73L471.524 213.6L473.115 212.426L473.245 214.399L474.419 215.99L472.446 216.12L470.854 217.294L470.725 215.321L469.551 213.73Z" fill="#FF6D38"/>
<path d="M481.566 129.233L483.539 129.103L485.13 127.929L485.26 129.902L486.434 131.493L484.461 131.623L482.87 132.797L482.74 130.824L481.566 129.233Z" fill="#FF6D38"/>
<path d="M421.02 181.673L424.021 179.945L425.615 176.872L427.343 179.872L430.417 181.467L427.416 183.195L425.821 186.269L424.094 183.268L421.02 181.673Z" fill="#FF6D38"/>
<path d="M673.066 352.18L676.067 350.452L677.661 347.378L679.389 350.379L682.463 351.974L679.462 353.702L677.868 356.775L676.14 353.774L673.066 352.18Z" fill="#FF6D38"/>
<path d="M658.004 297.33L661.004 295.602L662.599 292.528L664.327 295.529L667.401 297.123L664.4 298.851L662.805 301.925L661.077 298.924L658.004 297.33Z" fill="#FF6D38"/>
</svg>
