<svg width="500" height="500" viewBox="0 0 500 500" fill="none" xmlns="http://www.w3.org/2000/svg">
<path d="M465.861 156.59C467.802 155.776 469.183 153.773 469.195 151.414C469.208 148.323 466.869 145.807 463.97 145.794C461.073 145.781 458.713 148.275 458.7 151.366C458.69 153.747 460.081 155.773 462.044 156.591C453.969 157.807 454.335 166.584 454.335 166.584L473.43 166.672C473.43 166.672 473.865 157.799 465.861 156.59Z" fill="#E0E0E0"/>
<path d="M46.6261 167.456L47.0831 172.117L42.9221 172.523L42.4781 167.989C38.3341 168.142 34.2561 167.24 31.7931 165.675L33.5831 160.374C35.8151 161.711 38.9201 162.54 41.9451 162.538L41.2641 155.589C36.5361 154.919 31.2261 153.884 30.6441 147.934C30.2131 143.523 33.0451 139.424 39.5461 138.032L39.0941 133.413L43.2551 133.006L43.6991 137.542C46.8441 137.486 49.9621 138.02 52.3931 139.253L50.8141 144.575C48.5731 143.576 46.3411 143.081 44.2361 143.033L44.9291 150.107C49.6531 150.736 54.8801 151.78 55.4541 157.645C55.8771 161.972 53.0811 166.026 46.6261 167.456ZM40.6661 149.472L40.0871 143.564C37.9311 144.279 37.1761 145.571 37.3101 146.945C37.4521 148.401 38.7781 149.07 40.6661 149.472ZM48.8041 158.8C48.6611 157.343 47.3771 156.671 45.5271 156.221L46.0891 161.963C48.1251 161.303 48.9341 160.131 48.8041 158.8Z" fill="#EBEBEB"/>
<path d="M339.45 64.8203C342.097 63.2213 344.914 62.0083 347.82 61.1823L349.544 52.8973L363.543 52.6523L365.557 60.8713C368.491 61.5943 371.35 62.7073 374.051 64.2123L381.126 59.5743L391.198 69.3003L386.813 76.5323C388.413 79.1793 389.626 81.9983 390.451 84.9043L398.736 86.6283L398.982 100.626L390.763 102.641C390.04 105.574 388.927 108.432 387.422 111.134L392.059 118.209L382.335 128.281L375.102 123.895C372.455 125.495 369.637 126.707 366.73 127.532L365.005 135.817L351.007 136.063L348.992 127.843C346.059 127.12 343.2 126.007 340.499 124.502L333.424 129.139L323.352 119.414L327.737 112.182C326.137 109.535 324.924 106.717 324.099 103.81L315.814 102.086L315.568 88.0903L323.787 86.0743C324.51 83.1413 325.624 80.2833 327.128 77.5813L322.491 70.5063L332.215 60.4343L339.45 64.8203ZM346.912 83.4683C341.15 89.4363 341.317 98.9443 347.285 104.705C353.252 110.466 362.761 110.299 368.522 104.331C374.283 98.3643 374.117 88.8553 368.149 83.0943C362.181 77.3343 352.673 77.5013 346.912 83.4683Z" fill="#EBEBEB"/>
<path d="M398.98 34.9814C400.076 34.3194 401.243 33.8164 402.447 33.4744L403.161 30.0424L408.959 29.9404L409.793 33.3444C411.008 33.6434 412.192 34.1044 413.311 34.7284L416.241 32.8074L420.412 36.8354L418.596 39.8304C419.259 40.9274 419.761 42.0944 420.103 43.2984L423.534 44.0124L423.636 49.8104L420.232 50.6444C419.933 51.8594 419.472 53.0434 418.848 54.1614L420.768 57.0914L416.741 61.2634L413.745 59.4474C412.649 60.1104 411.481 60.6124 410.278 60.9544L409.564 64.3864L403.767 64.4884L402.932 61.0844C401.717 60.7854 400.533 60.3234 399.414 59.7004L396.484 61.6214L392.312 57.5934L394.128 54.5984C393.465 53.5014 392.963 52.3344 392.621 51.1314L389.19 50.4174L389.088 44.6194L392.492 43.7844C392.791 42.5694 393.253 41.3854 393.876 40.2664L391.955 37.3364L395.983 33.1644L398.98 34.9814ZM402.071 42.7054C399.685 45.1774 399.754 49.1154 402.226 51.5014C404.697 53.8874 408.636 53.8184 411.022 51.3464C413.408 48.8744 413.339 44.9364 410.867 42.5504C408.395 40.1644 404.457 40.2334 402.071 42.7054Z" fill="#F5F5F5"/>
<path d="M179.945 400.114C181.539 399.151 183.236 398.42 184.986 397.923L186.024 392.934L194.454 392.786L195.667 397.735C197.434 398.17 199.155 398.84 200.782 399.747L205.042 396.954L211.107 402.811L208.466 407.166C209.43 408.76 210.16 410.458 210.657 412.208L215.646 413.246L215.794 421.676L210.845 422.89C210.41 424.656 209.739 426.377 208.833 428.004L211.625 432.265L205.769 438.33L201.413 435.689C199.819 436.652 198.122 437.382 196.371 437.879L195.333 442.868L186.904 443.016L185.691 438.066C183.925 437.631 182.203 436.96 180.576 436.054L176.316 438.847L170.251 432.991L172.892 428.636C171.929 427.042 171.198 425.345 170.701 423.595L165.712 422.557L165.564 414.127L170.514 412.913C170.949 411.147 171.62 409.425 172.526 407.799L169.734 403.538L175.59 397.473L179.945 400.114ZM184.439 411.344C180.97 414.938 181.07 420.663 184.664 424.133C188.258 427.603 193.983 427.502 197.453 423.908C200.922 420.314 200.822 414.589 197.228 411.119C193.634 407.65 187.908 407.751 184.439 411.344Z" fill="#EBEBEB"/>
<path d="M245.164 405.061C247.227 403.814 249.423 402.869 251.688 402.226L253.032 395.768L263.943 395.577L265.513 401.983C267.799 402.546 270.028 403.414 272.134 404.587L277.648 400.972L285.499 408.552L282.081 414.189C283.328 416.253 284.273 418.45 284.916 420.715L291.373 422.059L291.565 432.97L285.159 434.541C284.596 436.827 283.728 439.055 282.555 441.161L286.169 446.676L278.59 454.527L272.952 451.109C270.889 452.356 268.692 453.301 266.427 453.944L265.083 460.402L254.172 460.593L252.601 454.186C250.315 453.622 248.087 452.755 245.981 451.582L240.467 455.197L232.616 447.617L236.034 441.98C234.787 439.917 233.841 437.72 233.198 435.455L226.74 434.111L226.549 423.2L232.955 421.629C233.518 419.343 234.387 417.115 235.559 415.009L231.945 409.494L239.524 401.643L245.164 405.061ZM250.98 419.597C246.489 424.249 246.619 431.659 251.271 436.15C255.922 440.641 263.333 440.51 267.824 435.859C272.315 431.208 272.185 423.796 267.533 419.306C262.882 414.815 255.471 414.945 250.98 419.597Z" fill="#EBEBEB"/>
<path d="M443.737 79.8579H437.477V107.912H443.737V79.8579Z" fill="#E0E0E0"/>
<path d="M426.58 90.7546V97.0146H454.633V90.7546H426.58Z" fill="#E0E0E0"/>
<path d="M465.744 94.3581C465.735 94.3581 465.719 94.2201 465.697 93.9521C465.676 93.6601 465.647 93.2661 465.611 92.7631C465.594 92.4991 465.575 92.2081 465.554 91.8881C465.519 91.5681 465.449 91.2201 465.391 90.8431C465.269 90.0881 465.153 89.2131 464.862 88.2611C464.416 86.3291 463.506 84.0471 462.075 81.6291C460.633 79.2211 458.556 76.7071 455.73 74.5751C452.913 72.4631 449.36 70.6661 445.259 69.9421C441.186 69.2431 436.59 69.3711 432.212 71.0351C431.098 71.3921 430.051 71.9431 428.975 72.4601C427.955 73.0771 426.881 73.6451 425.932 74.4171C424.923 75.1101 424.041 75.9771 423.117 76.8111C422.282 77.7351 421.405 78.6401 420.686 79.6891C419.209 81.7401 417.92 84.0201 417.139 86.5261C416.33 89.0171 415.895 91.6621 415.859 94.3551C415.895 97.0481 416.329 99.6951 417.137 102.186C417.917 104.693 419.207 106.973 420.684 109.025C421.404 110.074 422.281 110.979 423.115 111.903C424.039 112.738 424.921 113.605 425.93 114.298C426.879 115.07 427.954 115.639 428.973 116.256C430.05 116.773 431.097 117.324 432.211 117.681C436.589 119.345 441.186 119.473 445.259 118.774C449.36 118.049 452.913 116.253 455.73 114.14C458.556 112.007 460.633 109.493 462.075 107.086C463.505 104.668 464.415 102.386 464.861 100.454C465.152 99.5031 465.268 98.6271 465.39 97.8731C465.448 97.4951 465.518 97.1481 465.553 96.8281C465.574 96.5081 465.593 96.2171 465.61 95.9531C465.646 95.4511 465.675 95.0571 465.696 94.7641C465.719 94.4961 465.735 94.3581 465.744 94.3581C465.753 94.3581 465.755 94.4951 465.75 94.7641C465.741 95.0581 465.73 95.4541 465.715 95.9581C465.705 96.2241 465.695 96.5171 465.683 96.8391C465.656 97.1621 465.594 97.5121 465.544 97.8931C465.437 98.6551 465.336 99.5391 465.058 100.502C464.638 102.457 463.749 104.773 462.326 107.233C460.891 109.683 458.808 112.248 455.955 114.431C453.111 116.594 449.509 118.44 445.34 119.197C441.2 119.927 436.518 119.814 432.049 118.131C430.913 117.769 429.843 117.211 428.744 116.686C427.702 116.061 426.606 115.481 425.635 114.697C424.605 113.991 423.702 113.11 422.759 112.259C421.905 111.318 421.01 110.395 420.273 109.326C418.763 107.234 417.445 104.907 416.646 102.348C415.818 99.8041 415.374 97.1021 415.338 94.3531C415.374 91.6051 415.82 88.9031 416.647 86.3611C417.446 83.8031 418.764 81.4771 420.274 79.3851C421.01 78.3161 421.906 77.3941 422.76 76.4531C423.703 75.6021 424.606 74.7211 425.636 74.0161C426.606 73.2321 427.702 72.6531 428.744 72.0271C429.843 71.5021 430.912 70.9441 432.049 70.5821C436.517 68.8991 441.199 68.7851 445.338 69.5161C449.507 70.2721 453.109 72.1181 455.953 74.2811C458.806 76.4641 460.89 79.0291 462.325 81.4791C463.748 83.9391 464.638 86.2551 465.058 88.2111C465.336 89.1741 465.438 90.0591 465.544 90.8211C465.594 91.2021 465.656 91.5521 465.683 91.8751C465.695 92.1971 465.705 92.4911 465.715 92.7561C465.73 93.2611 465.741 93.6571 465.75 93.9511C465.755 94.2211 465.753 94.3581 465.744 94.3581Z" fill="#E0E0E0"/>
<path d="M156.288 31.7772L119.122 18.4302L82.3161 31.5972C77.6181 33.8162 73.4961 35.1452 73.4961 39.5222V61.3162C73.4961 76.4512 77.4621 91.4492 85.6201 104.69C92.4851 115.832 103.116 127.305 119.483 134.597C134.528 129.71 145.757 116.682 152.623 105.54C160.782 92.2992 164.747 77.3012 164.747 62.1662V42.5682C164.747 36.3262 161.439 33.2782 156.288 31.7772Z" fill="#EBEBEB"/>
<path d="M119.483 121.949C106.535 116.18 98.1241 106.909 92.6921 98.0942C86.2371 87.6182 83.0991 75.7522 83.0991 63.7782V48.4902C83.0991 45.0272 85.1881 41.7832 89.3361 39.8472L119.128 28.7072L119.121 18.4292L82.3161 31.5972C78.4531 33.2852 73.4961 35.1452 73.4961 39.5222V61.3162C73.4961 76.4512 77.4621 91.4492 85.6201 104.69C92.4851 115.832 103.116 127.305 119.483 134.597V121.949Z" fill="#E0E0E0"/>
<path d="M119.484 134.596C122.091 133.723 124.486 132.717 126.786 131.465C132.956 128.104 138.22 123.488 142.237 119.31C146.731 114.637 150.079 109.586 152.985 104.869C161.144 91.6282 165.109 76.6302 164.748 61.0782L164.771 43.0852C164.748 34.1252 160.153 33.4652 156.29 31.7772L119.123 18.4302L119.13 28.7082L149.27 40.0272C153.418 41.9632 155.507 45.2072 155.507 48.6702V63.9582C155.507 75.9322 152.37 87.7982 145.915 98.2742C140.483 107.09 132.433 116.18 119.485 121.949L119.484 134.596Z" fill="#E0E0E0"/>
<path d="M122.999 53.606H115.246V88.35H122.999V53.606Z" fill="white"/>
<path d="M101.75 67.1015V74.8545H136.494V67.1015H101.75Z" fill="white"/>
<path d="M476.483 471.901C476.483 472.045 375.076 472.161 250.012 472.161C124.905 472.161 23.5195 472.045 23.5195 471.901C23.5195 471.757 124.906 471.641 250.012 471.641C375.075 471.641 476.483 471.758 476.483 471.901Z" fill="#263238"/>
<path d="M364.692 420.13L140.026 419.31C134.573 419.29 130.168 414.853 130.188 409.4L131.382 82.237C131.402 76.784 135.839 72.379 141.292 72.399L365.958 73.219C371.411 73.239 375.816 77.676 375.796 83.129L374.602 410.292C374.583 415.745 370.146 420.15 364.692 420.13Z" fill="#E0E0E0"/>
<path d="M364.692 420.13C364.692 420.13 364.947 420.11 365.449 420.083C365.95 420.05 366.697 419.939 367.651 419.664C368.593 419.359 369.737 418.842 370.887 417.924C372.02 417.003 373.161 415.655 373.866 413.852C374.237 412.959 374.448 411.943 374.518 410.869C374.578 409.792 374.539 408.644 374.554 407.448C374.559 405.052 374.565 402.432 374.572 399.594C374.586 393.917 374.603 387.367 374.622 379.994C374.712 350.496 374.842 307.818 375.002 255.084C375.089 228.715 375.185 199.833 375.288 168.827C375.341 153.324 375.395 137.29 375.451 120.774C375.479 112.516 375.508 104.138 375.538 95.6439C375.547 91.3999 375.557 87.1269 375.567 82.8269C375.533 80.7169 374.732 78.6449 373.409 76.9949C372.057 75.3679 370.18 74.1549 368.095 73.6919C367.052 73.4509 365.992 73.4259 364.89 73.4349C363.797 73.4309 362.703 73.4279 361.606 73.4239C359.414 73.4159 357.215 73.4089 355.009 73.4009C350.598 73.3849 346.16 73.3699 341.697 73.3539C332.771 73.3229 323.743 73.2909 314.618 73.2589C296.369 73.1939 277.736 73.1279 258.767 73.0609C220.829 72.9239 181.55 72.7819 141.319 72.6369C138.858 72.6199 136.419 73.5819 134.645 75.2739C132.857 76.9489 131.758 79.3249 131.644 81.7639C131.577 86.7399 131.594 91.7419 131.565 96.7039C131.528 106.64 131.492 116.51 131.456 126.308C131.383 145.905 131.311 165.214 131.241 184.187C131.098 222.134 130.96 258.736 130.828 293.604C130.693 328.472 130.565 361.605 130.445 392.614C130.43 396.49 130.415 400.333 130.4 404.142C130.402 406.043 130.364 407.951 130.399 409.821C130.454 411.673 131.084 413.485 132.132 414.986C133.183 416.493 134.665 417.671 136.339 418.379C137.181 418.723 138.065 418.946 138.963 419.06C139.857 419.142 140.781 419.128 141.699 419.132C145.369 419.147 149.003 419.161 152.602 419.175C166.995 419.233 180.808 419.288 193.992 419.341C246.726 419.565 289.4 419.747 318.894 419.872C333.637 419.945 345.086 420.002 352.852 420.04C356.731 420.064 359.69 420.083 361.683 420.096C363.673 420.11 364.692 420.13 364.692 420.13C364.692 420.13 363.673 420.142 361.683 420.143C359.69 420.141 356.731 420.138 352.852 420.134C345.085 420.116 333.637 420.089 318.894 420.055C289.399 419.965 246.725 419.835 193.991 419.674C180.807 419.631 166.994 419.586 152.601 419.538C149.003 419.526 145.368 419.514 141.698 419.502C140.782 419.498 139.863 419.515 138.921 419.429C137.989 419.312 137.069 419.08 136.195 418.723C134.455 417.989 132.915 416.766 131.823 415.201C130.732 413.642 130.076 411.757 130.018 409.833C129.981 407.93 130.019 406.045 130.015 404.138C130.028 400.329 130.041 396.486 130.054 392.61C130.16 361.601 130.274 328.468 130.393 293.6C130.516 258.732 130.645 222.13 130.778 184.183C130.846 165.21 130.915 145.9 130.986 126.304C131.022 116.506 131.057 106.635 131.093 96.6999C131.122 91.7269 131.104 86.7589 131.172 81.7369C131.291 79.1789 132.445 76.6849 134.32 74.9279C136.179 73.1539 138.743 72.1429 141.321 72.1619C181.552 72.3099 220.831 72.4549 258.769 72.5949C277.738 72.6659 296.371 72.7359 314.62 72.8049C323.744 72.8399 332.773 72.8739 341.699 72.9079C346.162 72.9249 350.6 72.9419 355.011 72.9579C357.217 72.9659 359.416 72.9749 361.608 72.9829C362.704 72.9869 363.799 72.9909 364.892 72.9959C365.973 72.9869 367.109 73.0119 368.194 73.2649C370.374 73.7509 372.336 75.0179 373.746 76.7189C375.128 78.4429 375.964 80.6109 375.999 82.8129C375.988 87.1179 375.977 91.3949 375.965 95.6439C375.932 104.137 375.9 112.515 375.868 120.774C375.804 137.29 375.741 153.324 375.681 168.827C375.558 199.833 375.442 228.716 375.337 255.084C375.113 307.818 374.931 350.495 374.806 379.993C374.771 387.366 374.74 393.916 374.713 399.593C374.699 402.431 374.685 405.051 374.673 407.447C374.654 408.646 374.69 409.785 374.625 410.874C374.55 411.96 374.333 412.985 373.955 413.885C373.236 415.703 372.079 417.057 370.933 417.979C369.769 418.898 368.615 419.41 367.666 419.709C366.705 419.978 365.954 420.081 365.451 420.106C364.947 420.126 364.692 420.13 364.692 420.13Z" fill="#263238"/>
<g opacity="0.3">
<path d="M153.37 410.743L358.325 410.371L360.818 370.781L354.625 346.877L151.627 377.837L153.37 410.743Z" fill="black"/>
</g>
<path d="M364.692 420.13C364.692 420.13 364.947 420.11 365.449 420.083C365.95 420.05 366.697 419.939 367.651 419.664C368.593 419.359 369.737 418.842 370.887 417.924C372.02 417.003 373.161 415.655 373.866 413.852C374.237 412.959 374.448 411.943 374.518 410.869C374.578 409.792 374.539 408.644 374.554 407.448C374.559 405.052 374.565 402.432 374.572 399.594C374.586 393.917 374.603 387.367 374.622 379.994C374.712 350.496 374.842 307.818 375.002 255.084C375.089 228.715 375.185 199.833 375.288 168.827C375.341 153.324 375.395 137.29 375.451 120.774C375.479 112.516 375.508 104.138 375.538 95.6439C375.547 91.3999 375.557 87.1269 375.567 82.8269C375.533 80.7169 374.732 78.6449 373.409 76.9949C372.057 75.3679 370.18 74.1549 368.095 73.6919C367.052 73.4509 365.992 73.4259 364.89 73.4349C363.797 73.4309 362.703 73.4279 361.606 73.4239C359.414 73.4159 357.215 73.4089 355.009 73.4009C350.598 73.3849 346.16 73.3699 341.697 73.3539C332.771 73.3229 323.743 73.2909 314.618 73.2589C296.369 73.1939 277.736 73.1279 258.767 73.0609C220.829 72.9239 181.55 72.7819 141.319 72.6369C138.858 72.6199 136.419 73.5819 134.645 75.2739C132.857 76.9489 131.758 79.3249 131.644 81.7639C131.577 86.7399 131.594 91.7419 131.565 96.7039C131.528 106.64 131.492 116.51 131.456 126.308C131.383 145.905 131.311 165.214 131.241 184.187C131.098 222.134 130.96 258.736 130.828 293.604C130.693 328.472 130.565 361.605 130.445 392.614C130.43 396.49 130.415 400.333 130.4 404.142C130.402 406.043 130.364 407.951 130.399 409.821C130.454 411.673 131.084 413.485 132.132 414.986C133.183 416.493 134.665 417.671 136.339 418.379C137.181 418.723 138.065 418.946 138.963 419.06C139.857 419.142 140.781 419.128 141.699 419.132C145.369 419.147 149.003 419.161 152.602 419.175C166.995 419.233 180.808 419.288 193.992 419.341C246.726 419.565 289.4 419.747 318.894 419.872C333.637 419.945 345.086 420.002 352.852 420.04C356.731 420.064 359.69 420.083 361.683 420.096C363.673 420.11 364.692 420.13 364.692 420.13C364.692 420.13 363.673 420.142 361.683 420.143C359.69 420.141 356.731 420.138 352.852 420.134C345.085 420.116 333.637 420.089 318.894 420.055C289.399 419.965 246.725 419.835 193.991 419.674C180.807 419.631 166.994 419.586 152.601 419.538C149.003 419.526 145.368 419.514 141.698 419.502C140.782 419.498 139.863 419.515 138.921 419.429C137.989 419.312 137.069 419.08 136.195 418.723C134.455 417.989 132.915 416.766 131.823 415.201C130.732 413.642 130.076 411.757 130.018 409.833C129.981 407.93 130.019 406.045 130.015 404.138C130.028 400.329 130.041 396.486 130.054 392.61C130.16 361.601 130.274 328.468 130.393 293.6C130.516 258.732 130.645 222.13 130.778 184.183C130.846 165.21 130.915 145.9 130.986 126.304C131.022 116.506 131.057 106.635 131.093 96.6999C131.122 91.7269 131.104 86.7589 131.172 81.7369C131.291 79.1789 132.445 76.6849 134.32 74.9279C136.179 73.1539 138.743 72.1429 141.321 72.1619C181.552 72.3099 220.831 72.4549 258.769 72.5949C277.738 72.6659 296.371 72.7359 314.62 72.8049C323.744 72.8399 332.773 72.8739 341.699 72.9079C346.162 72.9249 350.6 72.9419 355.011 72.9579C357.217 72.9659 359.416 72.9749 361.608 72.9829C362.704 72.9869 363.799 72.9909 364.892 72.9959C365.973 72.9869 367.109 73.0119 368.194 73.2649C370.374 73.7509 372.336 75.0179 373.746 76.7189C375.128 78.4429 375.964 80.6109 375.999 82.8129C375.988 87.1179 375.977 91.3949 375.965 95.6439C375.932 104.137 375.9 112.515 375.868 120.774C375.804 137.29 375.741 153.324 375.681 168.827C375.558 199.833 375.442 228.716 375.337 255.084C375.113 307.818 374.931 350.495 374.806 379.993C374.771 387.366 374.74 393.916 374.713 399.593C374.699 402.431 374.685 405.051 374.673 407.447C374.654 408.646 374.69 409.785 374.625 410.874C374.55 411.96 374.333 412.985 373.955 413.885C373.236 415.703 372.079 417.057 370.933 417.979C369.769 418.898 368.615 419.41 367.666 419.709C366.705 419.978 365.954 420.081 365.451 420.106C364.947 420.126 364.692 420.13 364.692 420.13Z" fill="#263238"/>
<g opacity="0.3">
<path d="M153.37 410.743L358.325 410.371L360.818 370.781L354.625 346.877L151.627 377.837L153.37 410.743Z" fill="black"/>
</g>
<path d="M143.72 86.3742L142.58 402.93L362.253 403.721L363.393 87.165L143.72 86.3742Z" fill="white"/>
<path d="M362.255 403.739C362.26 401.916 362.645 274.003 363.205 87.1842L363.409 87.3892C296.777 87.1522 222.237 86.8862 143.763 86.6072H143.737L143.962 86.3832C143.512 205.259 143.096 315.088 142.763 402.937L142.583 402.756C276.192 403.354 360.77 403.732 362.255 403.739C360.771 403.735 276.191 403.496 142.583 403.118H142.402L142.403 402.937C142.711 315.088 143.097 205.259 143.514 86.3832L143.515 86.1582L143.74 86.1592H143.766C222.24 86.4532 296.78 86.7312 363.412 86.9802L363.617 86.9812L363.616 87.1862C362.812 274.003 362.263 401.917 362.255 403.739Z" fill="#263238"/>
<path d="M204.066 187.366L156.02 187.188L155.982 197.362L204.028 197.54L204.066 187.366Z" fill="#E0E0E0"/>
<path d="M306.265 165.542L209.963 165.195L209.926 175.369L306.228 175.716L306.265 165.542Z" fill="#E0E0E0"/>
<path d="M201.462 164.956L155.65 164.791L155.614 174.965L201.426 175.13L201.462 164.956Z" fill="#E0E0E0"/>
<path d="M346.605 165.689L311.756 165.56L311.718 175.734L346.567 175.863L346.605 165.689Z" fill="#E0E0E0"/>
<path d="M217.613 346.51L155.666 346.287L155.624 357.874L217.571 358.097L217.613 346.51Z" fill="#E0E0E0"/>
<path d="M268.288 368.315L155.666 367.91L155.624 379.497L268.246 379.902L268.288 368.315Z" fill="#E0E0E0"/>
<path d="M345.77 213.355L155.734 212.671L155.693 224.259L345.729 224.943L345.77 213.355Z" fill="#E0E0E0"/>
<path d="M341.952 241.915C341.952 242.056 301.003 242.02 250.502 241.836C199.984 241.652 159.044 241.388 159.045 241.247C159.046 241.106 199.986 241.142 250.504 241.326C301.004 241.511 341.952 241.775 341.952 241.915Z" fill="#263238"/>
<path d="M341.915 251.974C341.915 252.115 300.966 252.079 250.465 251.895C199.947 251.711 159.007 251.447 159.008 251.306C159.009 251.165 199.949 251.201 250.467 251.385C300.967 251.57 341.916 251.833 341.915 251.974Z" fill="#263238"/>
<path d="M305.552 261.9C305.551 262.041 272.735 262.035 232.264 261.887C191.779 261.739 158.97 261.506 158.971 261.365C158.972 261.224 191.781 261.23 232.266 261.378C272.737 261.526 305.552 261.759 305.552 261.9Z" fill="#263238"/>
<path d="M315.212 97.0629L202.576 96.6519L202.672 70.3079C202.685 66.8149 205.527 63.9929 209.02 64.0059L309.005 64.3709C312.498 64.3839 315.32 67.2259 315.307 70.7199L315.212 97.0629Z" fill="#263238"/>
<path d="M273.393 51.9541L244.725 51.8501L247.986 76.4341L269.58 76.5131L273.393 51.9541Z" fill="#263238"/>
<path d="M308.097 64.3671C308.097 64.4981 286.12 64.5231 259.016 64.4241C231.903 64.3251 209.932 64.1391 209.932 64.0081C209.932 63.8771 231.905 63.8521 259.017 63.9511C286.121 64.0511 308.097 64.2371 308.097 64.3671Z" fill="#455A64"/>
<path d="M205.116 91.391C204.985 91.39 204.896 86.769 204.917 81.07C204.938 75.369 205.061 70.749 205.191 70.749C205.322 70.75 205.411 75.37 205.39 81.071C205.37 86.77 205.247 91.391 205.116 91.391Z" fill="#455A64"/>
<path d="M311.593 89.3352C311.462 89.3342 311.372 85.1382 311.391 79.9642C311.41 74.7882 311.531 70.5942 311.662 70.5942C311.792 70.5942 311.883 74.7902 311.864 79.9662C311.845 85.1402 311.724 89.3352 311.593 89.3352Z" fill="#455A64"/>
<path d="M306.146 93.6599C306.146 93.7909 283.586 93.8139 255.765 93.7129C227.934 93.6109 205.38 93.4229 205.381 93.2929C205.382 93.1619 227.936 93.1389 255.767 93.2409C283.588 93.3419 306.147 93.5299 306.146 93.6599Z" fill="#455A64"/>
<g opacity="0.3">
<path d="M315.296 73.7432L319.907 87.5852L319.883 94.3582L314.627 94.3392L315.296 73.7432Z" fill="black"/>
</g>
<path d="M341.916 284.365C341.916 284.509 311.767 284.625 274.584 284.625C237.388 284.625 207.246 284.509 207.246 284.365C207.246 284.221 237.389 284.105 274.584 284.105C311.767 284.105 341.916 284.222 341.916 284.365Z" fill="#263238"/>
<path d="M323.219 296.192C323.219 296.336 297.255 296.452 265.235 296.452C233.204 296.452 207.246 296.335 207.246 296.192C207.246 296.049 233.204 295.932 265.235 295.932C297.255 295.932 323.219 296.049 323.219 296.192Z" fill="#263238"/>
<path d="M341.916 313.802C341.916 313.946 311.767 314.062 274.584 314.062C237.388 314.062 207.246 313.945 207.246 313.802C207.246 313.659 237.389 313.542 274.584 313.542C311.767 313.542 341.916 313.659 341.916 313.802Z" fill="#263238"/>
<path d="M323.219 325.629C323.219 325.773 297.255 325.889 265.235 325.889C233.204 325.889 207.246 325.772 207.246 325.629C207.246 325.485 233.204 325.369 265.235 325.369C297.255 325.369 323.219 325.486 323.219 325.629Z" fill="#263238"/>
<path d="M341.915 373.991C341.915 373.991 341.392 374.378 340.299 374.951C339.213 375.532 337.494 376.211 335.175 376.607C334.013 376.767 332.705 376.903 331.275 376.811C329.847 376.747 328.293 376.528 326.694 376.032C323.513 375.089 320.012 373.073 317.563 369.59C315.125 366.163 313.667 361.451 314.247 356.491C314.516 354.02 315.314 351.512 316.769 349.265C317.526 348.162 318.51 347.196 319.662 346.433C320.247 346.064 320.88 345.757 321.556 345.542C322.238 345.347 322.967 345.266 323.692 345.36C325.157 345.542 326.46 346.557 327.118 347.881C327.788 349.208 327.961 350.707 327.957 352.169C327.858 355.098 327.34 358.047 326.381 360.929C325.411 363.797 323.989 366.601 321.971 369.019C319.967 371.433 317.338 373.437 314.3 374.569C311.281 375.725 307.97 376.05 304.872 375.41C301.772 374.79 298.939 373.071 297.034 370.67C295.098 368.289 293.942 365.441 293.295 362.604C292.641 359.756 292.442 356.891 292.487 354.115C292.531 351.362 292.869 348.524 294.339 346.23C295.074 345.104 296.064 344.163 297.224 343.546C298.377 342.926 299.734 342.674 300.995 342.934C302.259 343.184 303.361 343.896 304.193 344.782C305.029 345.672 305.633 346.735 305.975 347.856C306.647 350.112 306.405 352.405 305.931 354.441C304.944 358.543 303.159 361.977 301.24 364.696C299.313 367.424 297.235 369.446 295.411 370.914C293.583 372.384 292.013 373.321 290.93 373.906C290.39 374.203 289.957 374.39 289.675 374.53C289.39 374.665 289.238 374.722 289.238 374.722C289.238 374.722 289.374 374.633 289.652 374.482C289.926 374.326 290.35 374.124 290.88 373.814C291.943 373.201 293.487 372.241 295.284 370.756C297.076 369.274 299.117 367.247 301.003 364.528C302.882 361.82 304.623 358.407 305.573 354.358C306.029 352.351 306.244 350.121 305.592 347.973C305.264 346.914 304.683 345.905 303.892 345.069C303.104 344.236 302.072 343.581 300.912 343.357C298.552 342.871 296.073 344.354 294.724 346.479C293.339 348.65 293.001 351.399 292.967 354.123C292.929 356.869 293.132 359.696 293.78 362.491C294.42 365.276 295.557 368.048 297.429 370.345C299.275 372.662 301.986 374.302 304.978 374.902C307.967 375.518 311.184 375.206 314.117 374.082C317.069 372.981 319.613 371.045 321.575 368.687C323.545 366.329 324.942 363.583 325.899 360.766C326.844 357.945 327.361 355.013 327.462 352.165C327.47 350.751 327.298 349.319 326.685 348.104C326.085 346.897 324.928 346.002 323.628 345.835C322.325 345.651 321.015 346.132 319.917 346.828C318.823 347.548 317.873 348.473 317.146 349.526C315.747 351.672 314.944 354.135 314.677 356.54C314.09 361.383 315.496 366.009 317.864 369.376C320.24 372.796 323.653 374.796 326.78 375.753C328.35 376.254 329.881 376.485 331.29 376.563C332.701 376.668 333.995 376.55 335.147 376.407C337.445 376.046 339.161 375.404 340.256 374.857C340.823 374.619 341.208 374.345 341.492 374.208C341.766 374.058 341.915 373.991 341.915 373.991Z" fill="#263238"/>
<path d="M215.008 117.539H218.956V131.495H215.008V117.539Z" fill="#FF725E"/>
<path d="M235.045 117.539V131.495H231.795L225.634 124.058V131.495H221.766V117.539H225.016L231.177 124.976V117.539H235.045Z" fill="#FF725E"/>
<path d="M239.451 131.356C238.387 131.077 237.523 130.705 236.859 130.24L238.155 127.329C238.779 127.741 239.504 128.074 240.328 128.326C241.152 128.578 241.963 128.704 242.761 128.704C244.276 128.704 245.034 128.326 245.034 127.568C245.034 127.169 244.818 126.874 244.386 126.681C243.954 126.488 243.26 126.285 242.303 126.073C241.253 125.847 240.376 125.605 239.671 125.345C238.966 125.086 238.361 124.671 237.857 124.099C237.352 123.528 237.099 122.757 237.099 121.786C237.099 120.935 237.331 120.168 237.797 119.483C238.262 118.798 238.956 118.257 239.881 117.858C240.804 117.459 241.938 117.26 243.28 117.26C244.197 117.26 245.101 117.363 245.991 117.569C246.882 117.775 247.666 118.077 248.344 118.476L247.128 121.407C245.798 120.689 244.509 120.33 243.26 120.33C242.475 120.33 241.904 120.447 241.545 120.679C241.186 120.912 241.007 121.214 241.007 121.586C241.007 121.958 241.219 122.237 241.645 122.423C242.07 122.609 242.755 122.802 243.699 123.001C244.762 123.227 245.643 123.47 246.341 123.729C247.039 123.988 247.643 124.4 248.155 124.965C248.666 125.53 248.923 126.298 248.923 127.268C248.923 128.105 248.69 128.863 248.225 129.541C247.76 130.219 247.062 130.761 246.132 131.166C245.201 131.571 244.071 131.774 242.742 131.774C241.611 131.775 240.514 131.636 239.451 131.356Z" fill="#FF725E"/>
<path d="M252.34 130.08C251.19 128.95 250.615 127.349 250.615 125.275V117.539H254.562V125.155C254.562 127.388 255.447 128.505 257.214 128.505C258.968 128.505 259.847 127.388 259.847 125.155V117.539H263.734V125.275C263.734 127.349 263.16 128.95 262.009 130.08C260.859 131.21 259.247 131.775 257.175 131.775C255.102 131.775 253.491 131.21 252.34 130.08Z" fill="#FF725E"/>
<path d="M272.509 127.787H270.356V131.495H266.408V117.539H272.788C274.051 117.539 275.147 117.748 276.078 118.167C277.009 118.586 277.726 119.184 278.231 119.961C278.736 120.738 278.989 121.652 278.989 122.703C278.989 123.713 278.753 124.594 278.281 125.345C277.809 126.096 277.135 126.684 276.258 127.11L279.269 131.496H275.042L272.509 127.787ZM274.383 121.188C273.971 120.829 273.36 120.65 272.548 120.65H270.356V124.737H272.548C273.359 124.737 273.971 124.561 274.383 124.208C274.795 123.856 275.001 123.354 275.001 122.703C275.002 122.052 274.795 121.547 274.383 121.188Z" fill="#FF725E"/>
<path d="M290.512 128.785H284.61L283.513 131.496H279.486L285.647 117.54H289.535L295.716 131.496H291.609L290.512 128.785ZM289.355 125.873L287.561 121.407L285.766 125.873H289.355Z" fill="#FF725E"/>
<path d="M310.111 117.539V131.495H306.861L300.7 124.058V131.495H296.832V117.539H300.082L306.243 124.976V117.539H310.111Z" fill="#FF725E"/>
<path d="M315.924 130.848C314.761 130.23 313.847 129.369 313.183 128.266C312.518 127.163 312.186 125.913 312.186 124.518C312.186 123.122 312.518 121.873 313.183 120.77C313.847 119.667 314.761 118.806 315.924 118.188C317.087 117.57 318.399 117.261 319.862 117.261C321.137 117.261 322.287 117.487 323.311 117.939C324.334 118.391 325.185 119.043 325.863 119.893L323.35 122.166C322.447 121.076 321.35 120.531 320.061 120.531C319.303 120.531 318.628 120.697 318.037 121.03C317.446 121.362 316.987 121.831 316.662 122.435C316.336 123.04 316.173 123.734 316.173 124.519C316.173 125.304 316.336 125.998 316.662 126.602C316.987 127.207 317.446 127.676 318.037 128.008C318.629 128.341 319.304 128.507 320.061 128.507C321.35 128.507 322.447 127.962 323.35 126.872L325.863 129.145C325.185 129.996 324.335 130.647 323.311 131.099C322.287 131.551 321.137 131.777 319.862 131.777C318.4 131.775 317.087 131.466 315.924 130.848Z" fill="#FF725E"/>
<path d="M338.822 128.446V131.496H327.617V117.54H338.563V120.59H331.525V122.943H337.725V125.894H331.525V128.446H338.822Z" fill="#FF725E"/>
<path d="M225.39 139.973C226.425 140.835 226.942 142.022 226.942 143.534C226.942 145.046 226.425 146.233 225.39 147.095C224.356 147.957 222.936 148.388 221.133 148.388H217.692V152.605H215.703V138.68H221.134C222.936 138.68 224.356 139.111 225.39 139.973ZM223.958 145.851C224.621 145.314 224.953 144.541 224.953 143.534C224.953 142.526 224.621 141.753 223.958 141.216C223.294 140.679 222.333 140.41 221.073 140.41H217.692V146.657H221.073C222.333 146.657 223.294 146.388 223.958 145.851Z" fill="#FF725E"/>
<path d="M232.552 151.839C231.425 151.222 230.539 150.37 229.896 149.282C229.253 148.195 228.932 146.982 228.932 145.642C228.932 144.303 229.253 143.089 229.896 142.002C230.539 140.915 231.424 140.062 232.552 139.446C233.679 138.829 234.946 138.521 236.352 138.521C237.744 138.521 239.004 138.83 240.131 139.446C241.258 140.062 242.14 140.911 242.777 141.992C243.413 143.073 243.732 144.29 243.732 145.642C243.732 146.995 243.414 148.211 242.777 149.292C242.14 150.373 241.258 151.222 240.131 151.838C239.004 152.454 237.744 152.763 236.352 152.763C234.945 152.764 233.679 152.455 232.552 151.839ZM239.107 150.297C239.922 149.833 240.565 149.193 241.037 148.378C241.508 147.562 241.743 146.65 241.743 145.643C241.743 144.635 241.508 143.724 241.037 142.908C240.566 142.092 239.923 141.453 239.107 140.989C238.292 140.525 237.373 140.293 236.352 140.293C235.331 140.293 234.405 140.525 233.577 140.989C232.748 141.453 232.098 142.093 231.628 142.908C231.157 143.724 230.922 144.635 230.922 145.643C230.922 146.651 231.157 147.562 231.628 148.378C232.099 149.193 232.749 149.833 233.577 150.297C234.406 150.761 235.331 150.993 236.352 150.993C237.373 150.993 238.291 150.761 239.107 150.297Z" fill="#FF725E"/>
<path d="M246.773 138.68H248.762V150.874H256.301V152.604H246.773V138.68Z" fill="#FF725E"/>
<path d="M258.59 138.68H260.579V152.605H258.59V138.68Z" fill="#FF725E"/>
<path d="M267.214 151.839C266.093 151.222 265.214 150.374 264.578 149.293C263.941 148.212 263.623 146.995 263.623 145.643C263.623 144.29 263.941 143.074 264.578 141.993C265.214 140.912 266.096 140.063 267.224 139.447C268.351 138.83 269.611 138.522 271.003 138.522C272.09 138.522 273.085 138.705 273.987 139.069C274.888 139.434 275.658 139.974 276.294 140.691L275.001 141.944C273.953 140.843 272.648 140.293 271.082 140.293C270.048 140.293 269.113 140.525 268.277 140.989C267.442 141.453 266.789 142.093 266.318 142.908C265.847 143.724 265.612 144.635 265.612 145.643C265.612 146.651 265.847 147.562 266.318 148.378C266.789 149.193 267.442 149.833 268.277 150.297C269.113 150.761 270.047 150.993 271.082 150.993C272.634 150.993 273.94 150.436 275.001 149.322L276.294 150.575C275.658 151.291 274.885 151.835 273.977 152.206C273.069 152.577 272.071 152.763 270.984 152.763C269.59 152.764 268.334 152.455 267.214 151.839Z" fill="#FF725E"/>
<path d="M284.231 147.79V152.604H282.261V147.75L276.732 138.679H278.86L283.316 146.019L287.791 138.679H289.761L284.231 147.79Z" fill="#FF725E"/>
<path d="M193.589 156.847H163.469C160.301 156.847 157.734 154.279 157.734 151.112V120.992C157.734 117.824 160.302 115.257 163.469 115.257H193.589C196.756 115.257 199.324 117.825 199.324 120.992V151.112C199.324 154.28 196.756 156.847 193.589 156.847Z" fill="#FF725E"/>
<path d="M181.286 136.41C183.228 135.596 184.608 133.593 184.62 131.234C184.632 128.143 182.294 125.627 179.395 125.613C176.498 125.6 174.138 128.094 174.125 131.185C174.115 133.566 175.506 135.592 177.469 136.41C169.394 137.626 169.76 146.403 169.76 146.403L188.855 146.491C188.855 146.491 189.29 137.619 181.286 136.41Z" fill="white"/>
<path d="M190.602 300.523H173.715C171.593 300.523 169.873 298.803 169.873 296.681V279.794C169.873 277.672 171.593 275.952 173.715 275.952H190.602C192.724 275.952 194.444 277.672 194.444 279.794V296.681C194.445 298.802 192.724 300.523 190.602 300.523Z" fill="#FF725E"/>
<path d="M190.602 334.294H173.715C171.593 334.294 169.873 332.574 169.873 330.452V313.565C169.873 311.443 171.593 309.723 173.715 309.723H190.602C192.724 309.723 194.444 311.443 194.444 313.565V330.452C194.445 332.573 192.724 334.294 190.602 334.294Z" fill="#FF725E"/>
<path d="M182.596 294.54L175.062 289.501L176.821 286.873L181.872 290.251L188.157 281.934L190.68 283.84L182.596 294.54Z" fill="white"/>
<path d="M182.596 329.083L175.062 324.044L176.821 321.416L181.872 324.794L188.157 316.477L190.68 318.383L182.596 329.083Z" fill="white"/>
<path d="M383.396 303.572L387.17 290.025L390.113 267.179V230.687L392.015 213.713L374.488 218.64L375.599 265.928L374.833 295.056L376.298 303.5L382.999 303.672" fill="#FFBF9D"/>
<path d="M377.748 200.654C380.102 190.868 392.016 187.179 392.016 187.179L391.45 207.326L387.306 229.053L384.381 234.987L370.891 233.982C370.891 233.982 376.674 205.122 377.748 200.654Z" fill="#FF725E"/>
<path d="M382.116 448.16L364.757 306.087L361.785 233.6L365.972 233.429L368.94 305.827L386.659 447.917L382.116 448.16Z" fill="#455A64"/>
<path d="M390.168 448.216L385.979 448.105L400.669 305.361L396.465 233.023L400.648 232.78L404.862 305.294L404.86 305.383L390.168 448.216Z" fill="#455A64"/>
<path d="M380.832 455.388C380.568 458.362 379.163 465.981 378.915 469.16C378.829 470.259 379.828 471.203 381.077 471.208L390.449 471.249C391.737 471.255 392.67 469.427 392.261 467.839L389.736 455.529" fill="#263238"/>
<path d="M375.782 236.764C371.228 236.764 366.666 236.611 362.145 236.306L362.427 232.125C369.59 232.608 376.856 232.701 384.026 232.402L384.201 236.588C381.405 236.706 378.595 236.764 375.782 236.764Z" fill="#455A64"/>
<path d="M369.036 226.786C368.804 226.748 365.243 226.191 362.268 225.67C359.293 225.149 357.136 227.381 357.285 230.207C357.434 233.033 364.648 234.408 369.781 234.531C375.507 234.669 384.113 234.495 384.113 234.495L384.109 227.097C384.109 227.097 373.417 227.501 369.036 226.786Z" fill="#AE7461"/>
<path d="M367.702 307.306C378.352 307.306 389.002 307.306 399.652 307.306C403.143 307.306 403.148 303.378 399.652 303.378C389.002 303.378 378.352 303.378 367.702 303.378C364.212 303.378 364.206 307.306 367.702 307.306Z" fill="#455A64"/>
<path d="M369.201 311.215C369.201 311.215 371.256 313.97 374.213 312.886C374.213 312.886 377.169 314.216 378.105 311.95C378.105 311.95 380.716 311.999 381.209 310.472C381.209 310.472 382.687 310.62 383.18 308.649C383.673 306.678 383.18 304.806 383.18 304.806C383.18 304.806 380.569 303.279 380.076 305.742C380.076 305.742 378.007 304.116 377.317 306.087C377.317 306.087 376.726 305.545 375.691 305.693C374.656 305.841 374.262 307.22 374.262 307.22C374.262 307.22 374.705 306.284 373.917 305.643C373.129 305.002 371.317 306.364 371.317 306.364L369.201 311.215Z" fill="#FFBF9D"/>
<path d="M373.337 295.363C373.337 295.363 367.921 300.186 366.463 302.269C366.188 302.662 366.098 312.891 366.098 312.891C366.098 312.891 368.769 312.512 369.572 310.109C370.374 307.707 370.621 305.485 370.621 305.485C370.621 305.485 375.806 305.979 377.534 301.535C379.262 297.091 378.768 294.252 378.768 294.252L373.337 295.363Z" fill="#FFBF9D"/>
<path d="M377.277 301.957C377.31 301.967 377.255 302.183 377.119 302.579C376.937 302.946 376.628 303.494 376.034 303.965C374.876 304.951 372.849 305.638 370.551 305.745L370.802 305.533C370.774 305.681 370.745 305.84 370.715 305.999C370.469 307.158 370.353 308.255 369.989 309.274C369.63 310.274 369.049 311.06 368.477 311.606C367.318 312.711 366.313 312.949 366.306 312.891C366.265 312.816 367.186 312.459 368.213 311.349C368.722 310.8 369.228 310.049 369.537 309.113C369.843 308.199 369.964 307.045 370.204 305.902C370.234 305.743 370.264 305.584 370.292 305.437L370.33 305.234L370.543 305.225C372.729 305.13 374.694 304.526 375.813 303.684C376.975 302.854 377.175 301.903 377.277 301.957Z" fill="#FF9A6C"/>
<path d="M374.498 306.603C374.628 306.567 375.074 307.974 374.999 309.771C374.935 311.569 374.382 312.937 374.255 312.891C374.109 312.849 374.419 311.471 374.478 309.751C374.551 308.032 374.348 306.634 374.498 306.603Z" fill="#FF9A6C"/>
<path d="M377.277 306.176C377.39 306.104 378.166 307.327 378.354 309.064C378.556 310.801 378.07 312.165 377.944 312.12C377.794 312.087 378.029 310.751 377.837 309.123C377.664 307.493 377.138 306.242 377.277 306.176Z" fill="#FF9A6C"/>
<path d="M380.151 305.877C380.272 305.812 380.886 306.79 381.153 308.168C381.428 309.545 381.229 310.682 381.093 310.668C380.943 310.66 380.903 309.569 380.642 308.268C380.392 306.966 380.016 305.942 380.151 305.877Z" fill="#FF9A6C"/>
<path d="M387.745 288.543C387.745 288.543 377.586 369.747 376.829 376.905C375.998 384.767 374.977 408.791 374.977 408.791H402.994C402.994 408.791 404.826 383.58 404.696 382.729L422.072 327.851L414.588 287.664L387.745 288.543Z" fill="#263238"/>
<path d="M405.262 404.535C407.14 396.509 405.143 396.934 404.427 396.342C402.675 394.894 385.163 387.578 376.561 390.13C374.679 390.688 373.318 392.324 373.013 394.263L372.028 400.542C371.944 401.199 364.448 445.463 364.448 445.463C364.448 445.463 347.255 448.787 343.525 452.987C341.363 455.421 342.873 458.568 344.232 459.939C346.399 462.126 375.473 465.948 386.65 466.106C389.17 466.142 391.366 464.426 391.935 461.97C394.955 448.913 403.606 411.614 405.262 404.535Z" fill="#F5F5F5"/>
<path d="M405.263 404.535C405.263 404.535 405.234 404.739 405.152 405.132C405.063 405.543 404.937 406.121 404.774 406.873C404.427 408.42 403.922 410.668 403.274 413.555C401.944 419.371 400.028 427.756 397.661 438.109C396.468 443.292 395.162 448.967 393.76 455.059C393.409 456.582 393.052 458.131 392.689 459.705C392.506 460.493 392.322 461.287 392.137 462.087C391.931 462.915 391.543 463.71 390.975 464.369C389.867 465.706 388.049 466.47 386.288 466.331C384.569 466.296 382.833 466.2 381.077 466.08C374.056 465.576 366.716 464.732 359.141 463.615C355.357 463.033 351.507 462.423 347.648 461.483C346.684 461.236 345.721 460.987 344.772 460.568C344.536 460.458 344.297 460.332 344.063 460.131C343.875 459.943 343.708 459.747 343.548 459.541C343.234 459.128 342.968 458.68 342.748 458.209C342.319 457.269 342.069 456.197 342.236 455.132C342.374 454.068 342.972 453.072 343.777 452.403C345.244 451.117 346.99 450.356 348.698 449.628C350.419 448.912 352.179 448.351 353.927 447.81C357.435 446.761 360.934 445.91 364.401 445.211L364.197 445.419C366.474 431.991 368.613 419.382 370.539 408.021C371.019 405.181 371.487 402.419 371.939 399.741C372.152 398.399 372.361 397.079 372.567 395.781C372.678 395.127 372.755 394.5 372.891 393.839C373.051 393.189 373.312 392.566 373.688 392.025C374.418 390.933 375.571 390.138 376.8 389.883C377.409 389.774 378.002 389.581 378.607 389.547C379.21 389.508 379.806 389.425 380.397 389.424C382.766 389.368 385.006 389.726 387.114 390.104C391.327 390.93 395.009 392.126 398.163 393.322C399.743 393.917 401.188 394.528 402.49 395.15C403.14 395.466 403.759 395.761 404.315 396.146C404.588 396.35 404.834 396.464 405.128 396.634C405.408 396.803 405.625 397.057 405.77 397.327C406.036 397.882 406.106 398.458 406.114 398.982C406.129 399.508 406.1 399.998 406.05 400.449C405.96 401.352 405.817 402.105 405.695 402.709C405.446 403.917 405.263 404.535 405.263 404.535C405.263 404.535 405.282 404.374 405.342 404.065C405.395 403.755 405.509 403.299 405.604 402.691C405.71 402.085 405.838 401.333 405.913 400.436C405.955 399.988 405.977 399.503 405.955 398.988C405.941 398.475 405.86 397.918 405.611 397.412C405.474 397.168 405.284 396.949 405.027 396.797C404.781 396.66 404.45 396.497 404.195 396.309C403.67 395.953 403.039 395.657 402.395 395.351C401.096 394.745 399.65 394.148 398.072 393.567C394.92 392.399 391.241 391.231 387.053 390.433C384.959 390.069 382.734 389.725 380.406 389.792C379.825 389.795 379.244 389.88 378.654 389.92C378.062 389.956 377.492 390.147 376.901 390.253C375.74 390.499 374.696 391.232 374.018 392.248C373.672 392.751 373.432 393.329 373.286 393.932C373.164 394.536 373.081 395.204 372.975 395.845C372.774 397.143 372.569 398.462 372.36 399.803C371.915 402.482 371.456 405.246 370.984 408.087C369.076 419.455 366.958 432.07 364.703 445.505L364.674 445.678L364.499 445.713C361.056 446.411 357.563 447.262 354.078 448.306C352.342 448.844 350.593 449.402 348.896 450.109C347.216 450.822 345.488 451.591 344.133 452.784C343.387 453.405 342.877 454.27 342.752 455.208C342.603 456.144 342.824 457.121 343.222 457.991C343.425 458.427 343.673 458.843 343.963 459.225C344.109 459.414 344.265 459.597 344.43 459.761C344.579 459.885 344.776 459.997 344.992 460.097C345.864 460.483 346.829 460.739 347.776 460.98C351.596 461.912 355.445 462.526 359.218 463.109C366.777 464.231 374.11 465.084 381.111 465.599C382.861 465.722 384.592 465.821 386.298 465.859C387.967 465.99 389.594 465.293 390.626 464.069C391.729 462.873 391.837 461.161 392.256 459.601C392.623 458.028 392.985 456.48 393.34 454.958C394.764 448.871 396.091 443.201 397.303 438.022C399.738 427.685 401.709 419.313 403.077 413.505C403.766 410.628 404.303 408.387 404.673 406.845C404.858 406.098 405 405.524 405.101 405.116C405.199 404.732 405.263 404.535 405.263 404.535Z" fill="#263238"/>
<path d="M404.695 405.737C404.691 405.773 404.146 405.764 403.168 405.719C402.679 405.69 402.081 405.662 401.385 405.674C400.69 405.679 399.899 405.646 399.025 405.708C397.277 405.758 395.203 405.966 392.925 406.338C390.653 406.745 388.18 407.335 385.654 408.184C383.136 409.058 380.818 410.105 378.771 411.174C376.741 412.275 374.973 413.379 373.56 414.409C372.831 414.894 372.226 415.405 371.673 415.826C371.115 416.243 370.659 416.63 370.29 416.953C369.544 417.588 369.118 417.928 369.093 417.902C369.068 417.876 369.447 417.487 370.155 416.802C370.505 416.455 370.944 416.042 371.488 415.601C372.027 415.156 372.621 414.621 373.342 414.112C374.739 413.036 376.504 411.887 378.543 410.751C380.598 409.647 382.938 408.575 385.485 407.691C388.04 406.832 390.546 406.249 392.846 405.864C395.153 405.515 397.252 405.343 399.015 405.34C399.896 405.301 400.693 405.361 401.392 405.383C402.092 405.399 402.692 405.456 403.181 405.517C404.161 405.625 404.699 405.701 404.695 405.737Z" fill="#E0E0E0"/>
<path d="M400.258 426.778C400.187 426.835 399.186 425.603 397.38 423.8C395.578 421.995 392.909 419.672 389.635 417.568C386.355 415.472 383.128 414.018 380.736 413.134C378.343 412.246 376.805 411.852 376.828 411.763C376.837 411.728 377.228 411.798 377.93 411.954C378.634 412.103 379.638 412.383 380.859 412.786C383.303 413.587 386.596 415.007 389.917 417.128C393.23 419.257 395.896 421.656 397.645 423.542C398.522 424.484 399.196 425.279 399.625 425.856C400.06 426.43 400.287 426.756 400.258 426.778Z" fill="#E0E0E0"/>
<path d="M398.796 430.116C398.759 430.203 397.117 429.495 394.367 428.662C391.62 427.825 387.729 426.953 383.357 426.658C378.982 426.376 375.01 426.731 372.177 427.201C369.341 427.666 367.621 428.153 367.596 428.062C367.586 428.027 368.008 427.881 368.782 427.645C369.553 427.4 370.692 427.118 372.113 426.838C374.951 426.271 378.967 425.853 383.392 426.138C387.814 426.435 391.74 427.376 394.48 428.31C395.852 428.774 396.943 429.203 397.676 429.546C398.411 429.882 398.81 430.083 398.796 430.116Z" fill="#E0E0E0"/>
<path d="M395.616 442.805C395.606 442.84 395.189 442.759 394.443 442.584C393.591 442.387 392.536 442.143 391.286 441.853C388.619 441.251 384.914 440.513 380.782 439.951C376.649 439.394 372.88 439.119 370.149 438.99C368.868 438.936 367.785 438.891 366.912 438.854C366.147 438.824 365.723 438.79 365.723 438.755C365.723 438.719 366.146 438.684 366.912 438.652C367.679 438.616 368.789 438.604 370.161 438.622C372.904 438.657 376.698 438.875 380.852 439.435C385.004 440 388.718 440.799 391.372 441.495C392.7 441.842 393.767 442.149 394.496 442.388C395.227 442.624 395.626 442.77 395.616 442.805Z" fill="#E0E0E0"/>
<path d="M390.599 463.322C390.57 463.344 390.264 463.012 389.736 462.394C389.215 461.771 388.433 460.893 387.439 459.839C385.456 457.727 382.516 454.986 378.897 452.445C375.271 449.912 371.69 448.086 369.027 446.944C367.696 446.37 366.604 445.935 365.841 445.659C365.08 445.374 364.664 445.199 364.674 445.165C364.685 445.131 365.122 445.24 365.905 445.467C366.691 445.686 367.809 446.07 369.168 446.604C371.886 447.666 375.533 449.46 379.196 452.019C382.851 454.586 385.783 457.4 387.71 459.591C388.676 460.685 389.42 461.605 389.894 462.269C390.375 462.926 390.627 463.3 390.599 463.322Z" fill="#E0E0E0"/>
<path d="M366.781 464.457C366.711 464.436 366.912 463.547 367.286 462.124C367.663 460.702 368.203 458.743 368.884 456.599C369.568 454.455 370.313 452.548 370.958 451.218C371.596 449.885 372.078 449.107 372.137 449.137C372.206 449.172 371.842 450.006 371.296 451.365C370.742 452.722 370.061 454.624 369.381 456.757C368.733 458.795 368.145 460.641 367.64 462.228C367.174 463.625 366.849 464.478 366.781 464.457Z" fill="#E0E0E0"/>
<path d="M394.099 392.776C394.099 392.86 392.858 392.889 390.87 393.083C388.883 393.275 386.15 393.685 383.214 394.483C380.278 395.288 377.716 396.323 375.907 397.167C374.096 398.009 373.013 398.615 372.97 398.543C372.952 398.512 373.203 398.329 373.676 398.022C374.146 397.711 374.852 397.303 375.745 396.836C377.528 395.9 380.104 394.795 383.077 393.98C386.051 393.172 388.831 392.814 390.842 392.715C391.848 392.664 392.664 392.657 393.227 392.685C393.789 392.71 394.099 392.74 394.099 392.776Z" fill="#E0E0E0"/>
<path d="M394.884 149.359C392.733 149.797 390.366 148.396 389.714 146.3C389.062 144.204 390.218 141.708 392.237 140.849C390.765 139.583 390.228 137.341 390.967 135.545C391.705 133.749 393.663 132.534 395.6 132.669C395.513 130.754 396.493 128.824 398.092 127.765C399.691 126.707 401.85 126.557 403.579 127.385C405.53 125.392 408.926 125.027 411.256 126.559C413.081 126.054 415.19 126.865 416.207 128.462C417.224 130.059 417.066 132.313 415.836 133.753" fill="#263238"/>
<path d="M412.6 130.88L411.62 130.967C401.755 131.839 394.213 140.139 394.29 150.042C394.361 159.253 394.558 169.428 395.052 174.329C396.076 184.477 406.376 185.158 406.376 185.158L406.596 197.439L429.669 194.043L429.452 150.037C429.429 139.409 423.224 130.563 412.6 130.88Z" fill="#FFBF9D"/>
<path d="M406.363 185.158C406.363 185.158 412.813 184.969 419.258 180.079C419.258 180.079 416.642 187.851 406.424 187.833L406.363 185.158Z" fill="#FF9A6C"/>
<path d="M397.846 159.463C397.886 160.231 398.571 160.831 399.374 160.803C400.176 160.775 400.794 160.131 400.754 159.363C400.713 158.595 400.029 157.995 399.227 158.022C398.424 158.049 397.805 158.695 397.846 159.463Z" fill="#263238"/>
<path d="M396.912 154.819C397.108 154.992 398.135 154.082 399.697 153.948C401.255 153.792 402.472 154.494 402.624 154.288C402.7 154.196 402.486 153.87 401.955 153.551C401.432 153.233 400.563 152.955 399.591 153.045C398.619 153.136 397.833 153.567 397.395 153.975C396.948 154.386 396.816 154.743 396.912 154.819Z" fill="#263238"/>
<path d="M411.355 158.591C411.395 159.359 412.08 159.959 412.883 159.931C413.685 159.904 414.303 159.26 414.263 158.491C414.222 157.723 413.538 157.123 412.736 157.15C411.933 157.177 411.314 157.823 411.355 158.591Z" fill="#263238"/>
<path d="M412.283 153.754C412.48 153.927 413.508 153.017 415.069 152.883C416.626 152.727 417.843 153.429 417.996 153.222C418.072 153.13 417.86 152.804 417.327 152.486C416.804 152.168 415.936 151.89 414.964 151.98C413.992 152.071 413.206 152.502 412.767 152.91C412.321 153.32 412.187 153.677 412.283 153.754Z" fill="#263238"/>
<path d="M407.642 165.833C407.642 165.743 406.656 165.662 405.066 165.599C404.664 165.593 404.279 165.548 404.188 165.281C404.069 165.001 404.197 164.557 404.35 164.076C404.64 163.079 404.942 162.032 405.26 160.936C406.515 156.469 407.386 152.811 407.206 152.762C407.025 152.713 405.862 156.294 404.607 160.761C404.307 161.862 404.02 162.911 403.748 163.914C403.637 164.381 403.423 164.917 403.68 165.497C403.814 165.785 404.125 165.976 404.387 166.022C404.65 166.077 404.874 166.062 405.072 166.056C406.662 166.001 407.644 165.921 407.642 165.833Z" fill="#263238"/>
<path d="M417.372 147.079C417.27 146.643 415.862 146.728 414.246 146.371C412.623 146.051 411.349 145.404 411.101 145.767C410.989 145.941 411.186 146.36 411.684 146.816C412.178 147.27 412.988 147.731 413.959 147.934C414.93 148.136 415.843 148.036 416.461 147.814C417.084 147.593 417.414 147.285 417.372 147.079Z" fill="#263238"/>
<path d="M402.423 149.537C402.052 149.224 400.813 149.747 399.271 149.952C397.735 150.202 396.39 150.061 396.135 150.468C396.025 150.663 396.274 150.993 396.885 151.258C397.488 151.523 398.463 151.681 399.521 151.525C400.578 151.368 401.459 150.936 401.952 150.509C402.454 150.078 402.589 149.692 402.423 149.537Z" fill="#263238"/>
<path d="M394.854 145.297C394.854 145.297 396.971 138.698 399.908 136.942C403.463 134.816 405.422 138.751 408.874 137.449C412.326 136.147 415.719 134.109 419.578 136.525C423.802 139.17 422.133 141.435 422.776 145.92C425.384 164.107 429.178 168.98 429.366 160.288C429.387 159.336 431.938 158.354 431.973 154.336C432.019 149.125 431.663 142.834 430.186 139.269C428.941 136.264 426.99 134.285 423.622 132.21C418.306 128.935 411.447 129.461 406.836 130.341C402.223 131.221 393.725 137.368 394.854 145.297Z" fill="#263238"/>
<path d="M428.693 160.07C428.618 158.496 429.86 157.139 431.435 157.149C433.345 157.161 435.549 158.051 435.77 161.977C436.162 168.942 429.089 167.899 429.065 167.7C429.05 167.565 428.831 162.986 428.693 160.07Z" fill="#FFBF9D"/>
<path d="M430.433 164.994C430.462 164.97 430.559 165.072 430.77 165.155C430.975 165.235 431.322 165.279 431.678 165.122C432.399 164.811 432.952 163.608 432.915 162.35C432.897 161.715 432.73 161.119 432.477 160.632C432.236 160.134 431.886 159.797 431.512 159.752C431.138 159.687 430.889 159.924 430.815 160.125C430.733 160.325 430.785 160.462 430.749 160.476C430.73 160.495 430.593 160.367 430.633 160.077C430.654 159.937 430.726 159.768 430.883 159.625C431.042 159.48 431.284 159.396 431.544 159.41C432.083 159.417 432.594 159.884 432.872 160.418C433.18 160.953 433.382 161.623 433.402 162.335C433.437 163.741 432.792 165.095 431.802 165.443C431.319 165.599 430.902 165.474 430.682 165.321C430.455 165.162 430.41 165.008 430.433 164.994Z" fill="#FF9A6C"/>
<path d="M427.367 146.625C426.519 147.32 425.622 148.04 424.545 148.243C423.468 148.447 422.17 147.933 421.891 146.872C421.766 146.396 421.834 145.824 421.484 145.479C421.065 145.067 420.378 145.268 419.801 145.381C417.8 145.774 415.244 143.752 414.556 141.833C414.109 142.65 413.002 142.982 412.178 142.549C411.354 142.116 411.045 141.854 410.373 141.209C409.701 140.565 408.79 140.016 407.883 140.227C407.376 140.345 406.922 140.694 406.402 140.693C405.483 140.693 404.943 139.664 404.725 138.771C404.507 137.878 404.306 136.831 403.49 136.408C402.734 136.015 401.829 136.361 401.001 136.559C400.173 136.757 399.071 136.656 398.783 135.854C398.632 135.433 398.777 134.964 398.982 134.567C399.913 132.769 402.204 131.804 404.141 132.395C404.618 130.04 406.606 128.064 408.964 127.603C411.322 127.141 413.909 128.221 415.238 130.223C416.588 128.761 418.672 128.014 420.643 128.284C422.614 128.554 424.42 129.834 425.328 131.605C426.978 131.011 428.962 131.494 430.154 132.78C431.346 134.066 431.678 136.08 430.961 137.681C432.272 138.284 433.451 139.43 433.604 140.865C433.757 142.3 432.483 143.856 431.062 143.601C431.722 144.671 431.4 146.23 430.371 146.951C429.342 147.672 427.766 147.443 426.985 146.458" fill="#263238"/>
<path d="M403.807 134.484C403.801 134.485 403.806 134.528 403.82 134.611C403.837 134.694 403.853 134.819 403.897 134.978C403.989 135.293 404.16 135.757 404.52 136.272C404.881 136.779 405.421 137.353 406.205 137.778C406.974 138.21 408.003 138.499 409.122 138.338L408.991 138.195C408.828 138.808 408.95 139.516 409.3 140.1C409.635 140.696 410.125 141.208 410.64 141.703C410.902 141.939 411.136 142.224 411.488 142.431C411.829 142.63 412.226 142.727 412.625 142.742C413.417 142.773 414.28 142.452 414.79 141.743L414.524 141.692C414.823 143.057 415.73 144.369 417.052 145.101C417.754 145.52 418.597 145.739 419.399 145.647C420.202 145.568 420.929 145.266 421.603 144.955L421.41 144.89C421.86 145.72 422.498 146.406 423.243 146.888C423.975 147.37 424.914 147.608 425.721 147.333C427.33 146.841 428.297 145.382 428.402 144.078L428.251 144.165C429.103 144.536 429.98 144.502 430.669 144.305C431.368 144.112 431.897 143.754 432.268 143.416C432.639 143.071 432.847 142.731 432.969 142.499C433.079 142.259 433.121 142.127 433.113 142.124C433.076 142.099 432.93 142.672 432.189 143.329C431.819 143.644 431.298 143.974 430.625 144.143C429.961 144.318 429.129 144.331 428.34 143.972L428.203 143.91L428.189 144.059C428.075 145.276 427.14 146.641 425.647 147.08C424.915 147.321 424.089 147.107 423.396 146.651C422.7 146.196 422.09 145.534 421.672 144.753L421.606 144.629L421.479 144.687C420.815 144.991 420.113 145.276 419.371 145.347C418.629 145.429 417.873 145.234 417.203 144.837C415.954 144.144 415.103 142.917 414.813 141.625L414.74 141.3L414.546 141.573C414.117 142.179 413.346 142.481 412.634 142.455C412.277 142.444 411.925 142.358 411.627 142.187C411.337 142.024 411.094 141.743 410.828 141.505C410.315 141.019 409.839 140.527 409.521 139.973C409.189 139.427 409.08 138.805 409.216 138.251L409.258 138.08L409.085 138.107C408.032 138.272 407.044 138.015 406.294 137.613C405.53 137.219 404.993 136.676 404.626 136.194C403.9 135.201 403.855 134.464 403.807 134.484Z" fill="#455A64"/>
<path d="M413.689 169.895C413.576 169.942 413.374 169.703 412.915 169.752C412.466 169.792 411.708 169.989 410.98 170.27C409.487 170.847 408.438 171.72 408.267 171.546C408.099 171.413 408.971 170.165 410.677 169.494C411.532 169.177 412.312 169.05 412.975 169.166C413.301 169.23 413.56 169.415 413.656 169.587C413.755 169.758 413.736 169.871 413.689 169.895Z" fill="#263238"/>
<path d="M413.777 314.969C413.279 316.432 426.052 385.911 427.638 395.726C429.224 405.54 436.707 456.313 436.707 456.313L459.884 455.091C459.884 455.091 457.754 400.927 456.908 395.798C456.063 390.669 453.654 364.675 453.759 355.76C453.864 346.845 454.457 324.776 454.683 314.96C454.953 303.252 450.31 285.103 450.31 285.103L409.051 290.787L413.777 314.969Z" fill="#263238"/>
<path d="M418.755 343.734C418.72 343.741 418.618 343.376 418.465 342.71C418.309 342.045 418.11 341.076 417.877 339.878C417.414 337.48 416.866 334.149 416.338 330.463C415.808 326.845 415.329 323.575 414.956 321.033C414.791 319.917 414.651 318.963 414.535 318.175C414.444 317.498 414.41 317.121 414.445 317.114C414.48 317.107 414.581 317.472 414.734 318.138C414.889 318.803 415.087 319.772 415.319 320.971C415.78 323.369 416.325 326.701 416.853 330.388C417.385 334.004 417.866 337.274 418.239 339.815C418.405 340.931 418.546 341.884 418.663 342.673C418.757 343.35 418.791 343.727 418.755 343.734Z" fill="#455A64"/>
<path d="M437.923 437.947L438.974 459.066C438.974 459.066 417.439 467.206 417.246 471.128L459.071 470.6L458.81 437.629L437.923 437.947Z" fill="#263238"/>
<path d="M451.885 457.125C452.697 457.332 453.268 458.217 453.091 459.022C452.914 459.826 452 460.404 451.184 460.211C450.368 460.018 449.65 458.976 449.918 458.196C450.186 457.416 451.296 456.796 452.041 457.175" fill="#E0E0E0"/>
<path d="M459.073 470.6L458.914 467.277L418.872 469.026C418.872 469.026 417.02 469.844 417.248 471.128L459.073 470.6Z" fill="#455A64"/>
<path d="M438.294 458.867C438.303 459.067 439.326 459.145 440.339 459.776C441.369 460.382 441.899 461.243 442.086 461.161C442.274 461.12 441.953 459.926 440.713 459.183C439.479 458.429 438.247 458.684 438.294 458.867Z" fill="white"/>
<path d="M433.931 460.701C433.887 460.896 434.776 461.225 435.481 462.063C436.211 462.881 436.398 463.795 436.601 463.783C436.793 463.812 436.919 462.637 436.023 461.611C435.136 460.578 433.933 460.51 433.931 460.701Z" fill="white"/>
<path d="M431.508 465.883C431.694 465.923 431.965 464.919 431.426 463.829C430.895 462.734 429.926 462.314 429.842 462.482C429.729 462.648 430.356 463.229 430.785 464.131C431.236 465.021 431.305 465.865 431.508 465.883Z" fill="white"/>
<path d="M438.599 454.027C438.687 454.209 439.62 453.92 440.776 453.983C441.933 454.022 442.836 454.391 442.94 454.218C443.056 454.072 442.169 453.341 440.808 453.287C439.446 453.221 438.496 453.871 438.599 454.027Z" fill="white"/>
<path d="M440.888 188.227L431.829 184.275L431.585 185.199C429.326 189.147 422.449 191.493 417.395 191.453C412.037 191.41 409.017 188.507 408.82 184.948L406.316 185.199L391.116 187.307L384.107 212.596L386.289 300.171C395.418 312.119 419.628 310.199 450.986 292.331C452.747 290.482 450.913 285.533 450.311 285.104L446.867 259.103L446.731 190.355L440.888 188.227Z" fill="#FF725E"/>
<path d="M447.248 213.713C447.097 213.713 446.924 222.081 446.861 232.403C446.798 242.728 446.869 251.095 447.02 251.095C447.171 251.095 447.344 242.728 447.407 232.404C447.469 222.082 447.398 213.713 447.248 213.713Z" fill="#263238"/>
<path d="M463.838 236.324C463.838 236.324 464.219 233.9 462.776 222.07C461.333 210.24 461.508 202.5 455.388 195.116C452.629 191.786 443.44 189.175 443.44 189.175L436.139 210.068L434.715 213.16L440.4 236.327L463.838 236.324Z" fill="#FF725E"/>
<path d="M438.309 214.777C438.385 214.777 438.452 215.604 438.573 216.938C438.719 218.48 438.885 220.226 439.068 222.153C439.247 224.082 439.409 225.83 439.552 227.374C439.661 228.712 439.701 229.544 439.63 229.553C439.559 229.562 439.389 228.746 439.187 227.417C438.984 226.088 438.748 224.246 438.55 222.203C438.125 218.122 438.147 214.775 438.309 214.777Z" fill="#263238"/>
<path d="M391.118 187.307C390.934 188.187 385.391 196.795 395.718 217.711L407.995 243.205L415.945 238.608C415.945 238.608 401.597 215.784 398.079 208.182C393.008 197.222 396.638 186.466 396.638 186.466L391.118 187.307Z" fill="#E0E0E0"/>
<g opacity="0.3">
<path d="M398.57 197.929L399.37 198.027C400.701 202.091 404.641 204.996 408.858 205.707C413.075 206.418 417.464 205.15 421.076 202.86C424.688 200.57 427.599 197.321 430.116 193.863C421.263 196.237 407.422 195.554 398.57 197.929Z" fill="black"/>
</g>
<g opacity="0.3">
<path d="M447.972 266.493L389.189 271.558C389.85 274.367 393.278 275.346 396.128 275.796C413.845 278.593 432.105 281.309 449.989 282.665C449.017 272.215 447.9 271.71 447.972 266.493Z" fill="black"/>
</g>
<path d="M386.279 271.103C386.279 271.103 443.012 276.634 452.772 275.088C462.532 273.542 468.237 264.958 467.47 250.255C466.703 235.552 463.881 218.641 463.881 218.641L449.833 220.582L390.199 254.353L386.115 267.143L386.279 271.103Z" fill="#455A64"/>
<path d="M384.707 271.166C384.702 271.05 384.716 258.948 388.795 253.937C392.999 248.772 447.026 220.841 447.572 220.559C453.49 217.503 463.649 216.421 464.079 216.376L464.403 219.502C464.304 219.512 454.402 220.568 449.014 223.351C432.115 232.076 394.105 252.391 391.232 255.92C388.278 259.548 387.81 269.389 387.847 271.049L384.707 271.166Z" fill="white"/>
<path d="M384.708 271.166C384.708 271.166 384.97 271.141 385.489 271.111C386.022 271.083 386.797 271.043 387.846 270.988L387.787 271.05C387.77 269.735 387.859 267.968 388.104 265.794C388.372 263.63 388.729 261.022 389.801 258.215C390.09 257.525 390.405 256.807 390.888 256.157C391.088 255.8 391.428 255.554 391.728 255.266C392.026 254.967 392.369 254.737 392.708 254.491C393.382 253.989 394.089 253.5 394.833 253.032C395.568 252.548 396.324 252.058 397.113 251.582C400.242 249.634 403.721 247.625 407.463 245.491C414.953 241.233 423.538 236.546 432.899 231.543C437.582 229.046 442.458 226.468 447.502 223.849C448.749 223.188 450.056 222.527 451.427 222.043C452.792 221.54 454.199 221.147 455.622 220.797C458.473 220.103 461.393 219.596 464.377 219.245L464.145 219.531C464.068 218.791 463.985 217.992 463.902 217.19C463.874 216.921 463.846 216.653 463.821 216.406L464.107 216.638C457.099 217.496 450.211 218.942 444.472 222.461C438.535 225.554 432.826 228.567 427.403 231.461C416.561 237.259 406.848 242.566 398.854 247.291C396.857 248.473 394.969 249.624 393.22 250.765C392.345 251.334 391.501 251.898 390.717 252.485C389.929 253.07 389.17 253.64 388.658 254.387C387.587 255.859 386.973 257.481 386.496 258.972C386.027 260.474 385.751 261.89 385.514 263.162C385.082 265.717 384.921 267.727 384.827 269.089C384.791 269.754 384.762 270.27 384.742 270.64C384.727 270.991 384.713 271.156 384.708 271.166C384.702 271.176 384.688 270.982 384.688 270.636C384.687 270.286 384.696 269.764 384.722 269.081C384.782 267.715 384.911 265.698 385.314 263.127C385.537 261.846 385.799 260.419 386.259 258.898C386.727 257.387 387.331 255.74 388.424 254.213C388.953 253.43 389.748 252.822 390.53 252.235C391.319 251.636 392.163 251.064 393.038 250.488C394.787 249.332 396.671 248.168 398.665 246.974C406.645 242.203 416.343 236.86 427.176 231.037C432.595 228.13 438.301 225.107 444.236 222.007C445.732 221.246 447.188 220.419 448.772 219.714C450.351 219.03 452.001 218.5 453.678 218.048C457.038 217.153 460.507 216.527 464.052 216.117L464.311 216.087L464.338 216.349C464.364 216.596 464.392 216.865 464.419 217.133C464.502 217.935 464.585 218.735 464.662 219.475L464.688 219.73L464.429 219.76C461.481 220.107 458.565 220.611 455.744 221.297C452.906 221.969 450.214 222.904 447.736 224.3C442.692 226.913 437.813 229.483 433.127 231.97C423.759 236.954 415.163 241.615 407.66 245.839C403.912 247.956 400.426 249.947 397.293 251.873C396.502 252.344 395.746 252.828 395.012 253.305C394.266 253.768 393.561 254.249 392.893 254.74C392.555 254.981 392.211 255.209 391.933 255.487C391.647 255.759 391.32 255.985 391.126 256.327C390.66 256.943 390.345 257.643 390.057 258.317C388.981 261.067 388.596 263.666 388.305 265.816C388.036 267.977 387.92 269.743 387.908 271.045L387.907 271.106L387.849 271.107C386.783 271.131 385.996 271.148 385.454 271.161C384.941 271.172 384.708 271.166 384.708 271.166Z" fill="#263238"/>
<path d="M451.59 193.029C451.592 193.13 450.462 193.026 448.771 193.54C447.088 194.031 444.903 195.276 443.126 197.3C441.349 199.331 440.259 201.568 439.522 203.183C438.791 204.81 438.385 205.845 438.311 205.818C438.251 205.797 438.532 204.72 439.183 203.04C439.841 201.374 440.897 199.059 442.736 196.956C444.58 194.853 446.898 193.602 448.672 193.186C449.559 192.968 450.3 192.91 450.808 192.929C451.315 192.943 451.592 192.999 451.59 193.029Z" fill="#263238"/>
<path d="M430.359 172.5C432.78 172.71 432.537 181.824 432.503 189.288C431.505 197.793 418.107 202.485 410.204 203.142C405.608 203.524 399.424 200.699 398.053 196.144C396.683 191.589 397.004 180.819 397.147 180.346C397.147 180.346 400.178 184.67 407.119 184.393C413.392 184.143 422.277 179.373 422.277 179.373C424.427 178.161 428.494 174.247 430.359 172.5Z" fill="#E0E0E0"/>
<path d="M432.13 181.605C432.145 181.615 432.079 181.737 431.939 181.959C431.795 182.178 431.596 182.512 431.296 182.91C430.718 183.723 429.808 184.852 428.555 186.127C426.073 188.678 422.012 191.734 416.817 193.525C411.621 195.32 406.539 195.42 403.012 194.942C401.238 194.711 399.826 194.384 398.87 194.101C398.388 193.973 398.025 193.832 397.777 193.749C397.53 193.66 397.403 193.605 397.408 193.588C397.42 193.548 397.954 193.685 398.92 193.904C399.886 194.125 401.296 194.394 403.054 194.576C406.552 194.954 411.542 194.795 416.647 193.032C421.751 191.272 425.776 188.319 428.297 185.864C429.569 184.637 430.513 183.555 431.136 182.785C431.761 182.018 432.096 181.581 432.13 181.605Z" fill="#263238"/>
<path d="M447.88 248.31C447.869 248.392 446.458 248.236 444.175 248.113C441.892 247.987 438.731 247.941 435.256 248.208C431.78 248.482 428.664 249.018 426.429 249.496C424.192 249.972 422.823 250.344 422.799 250.265C422.789 250.231 423.12 250.101 423.729 249.894C424.337 249.684 425.231 249.422 426.345 249.137C428.573 248.564 431.708 247.965 435.215 247.689C438.721 247.419 441.912 247.525 444.201 247.746C445.346 247.855 446.27 247.975 446.903 248.089C447.538 248.198 447.885 248.275 447.88 248.31Z" fill="#263238"/>
<path d="M441.495 246.119C441.355 246.153 440.818 244.46 440.295 242.338C439.772 240.215 439.461 238.466 439.6 238.432C439.739 238.398 440.277 240.09 440.8 242.213C441.323 244.336 441.634 246.085 441.495 246.119Z" fill="#263238"/>
<g opacity="0.3">
<path d="M439.702 238.791C439.554 238.161 438.584 238.076 438.133 238.54C437.682 239.004 437.649 239.729 437.737 240.37C437.825 241.011 438.006 241.658 437.884 242.294C437.705 243.23 436.888 243.936 435.998 244.277C435.108 244.618 434.138 244.664 433.189 244.755C428.182 245.234 423.315 247.098 419.269 250.085C418.74 250.476 418.184 251.216 418.629 251.7C418.973 252.074 419.585 251.883 420.048 251.675C425.635 249.175 431.841 248.075 437.947 248.501C438.677 248.552 439.42 248.623 440.133 248.457C440.845 248.291 441.537 247.835 441.772 247.143C442.007 246.45 441.611 245.548 440.889 245.426" fill="black"/>
</g>
<g opacity="0.3">
<path d="M384.349 220.491C384.349 220.491 381.346 226.275 381.967 236.327C382.588 246.379 384.622 253.935 384.622 253.935L384.349 220.491Z" fill="black"/>
</g>
<path d="M384.156 236.664C384.552 252.398 384.994 265.146 385.145 265.142C385.295 265.138 385.097 252.384 384.702 236.65C384.307 220.921 383.864 208.171 383.713 208.175" fill="#263238"/>
<path d="M169.325 233.155C171.553 231.848 174.098 230.485 174.098 230.485L176.294 229.154C176.332 229.32 176.346 229.496 176.354 229.666C176.369 229.991 176.382 230.333 176.554 230.609C176.88 231.132 177.632 231.197 178.235 231.05C179.497 230.741 180.557 229.721 180.905 228.478C181.239 227.284 180.899 225.936 180.055 225.027C180.052 224.7 179.994 224.355 179.843 223.992C178.916 221.766 175.477 221.088 175.477 221.088L176.18 220.515C176.18 220.515 178.875 219.724 182.024 223.175C182.494 223.69 183.135 224.048 183.832 224.119C184.259 224.162 184.703 224.098 185.033 223.783C185.853 222.996 185.506 222.215 183.569 220.034C181.633 217.852 179.038 216.387 177.083 216.554C175.128 216.721 174.374 216.911 174.374 216.911C174.374 216.911 180.417 211.371 180.786 211.005C181.852 209.946 182.268 208.587 181.628 207.812C181.217 207.315 180.33 206.992 179.051 208.186C177.944 209.22 165.253 218.377 165.253 218.377L159.877 222.755L156.031 227.086L161.483 234.289L163.917 234.139C165.78 234.456 167.697 234.109 169.325 233.155Z" fill="#FFBF9D"/>
<path d="M175.371 221.036C175.405 221.093 175.86 220.519 176.894 220.35C177.401 220.27 178.025 220.36 178.629 220.678C179.238 220.989 179.815 221.491 180.382 222.065C180.953 222.638 181.507 223.206 182.118 223.605C182.726 224 183.358 224.244 183.928 224.267C184.505 224.299 184.945 224.017 185.131 223.776C185.326 223.531 185.366 223.362 185.354 223.357C185.327 223.341 185.246 223.49 185.039 223.689C184.834 223.886 184.451 224.092 183.942 224.038C183.439 223.992 182.85 223.744 182.287 223.358C181.72 222.97 181.189 222.415 180.613 221.837C180.039 221.257 179.427 220.73 178.764 220.412C178.107 220.083 177.401 220.005 176.855 220.125C176.304 220.236 175.914 220.484 175.681 220.679C175.447 220.878 175.357 221.024 175.371 221.036Z" fill="#FF9A6C"/>
<path d="M181.192 210.589C181.158 210.558 180.707 210.987 179.983 211.683C179.174 212.454 178.209 213.372 177.142 214.387C176.06 215.386 175.081 216.291 174.26 217.049C173.519 217.727 173.062 218.149 173.091 218.184C173.118 218.217 173.629 217.857 174.411 217.221C175.194 216.586 176.244 215.672 177.366 214.621C178.486 213.57 179.465 212.581 180.148 211.842C180.832 211.103 181.224 210.618 181.192 210.589Z" fill="#FF9A6C"/>
<path d="M175.288 223.635C175.28 223.658 175.453 223.724 175.75 223.854C176.03 223.984 176.499 224.21 176.658 224.726C176.736 224.975 176.663 225.257 176.451 225.497C176.249 225.742 175.944 225.935 175.623 226.163C175.309 226.386 174.934 226.694 174.818 227.178C174.712 227.65 174.869 228.158 175.2 228.525C175.539 228.901 176.034 229.068 176.487 229.076C176.945 229.081 177.376 228.971 177.737 228.738C178.404 228.276 178.875 227.749 179.249 227.285C179.615 226.815 179.85 226.385 179.95 226.064C180.05 225.741 180.028 225.549 180.013 225.551C179.983 225.548 179.962 225.728 179.832 226.019C179.701 226.31 179.447 226.704 179.071 227.141C178.692 227.569 178.198 228.077 177.576 228.488C176.988 228.852 175.995 228.909 175.444 228.31C175.176 228.016 175.052 227.602 175.13 227.249C175.209 226.894 175.499 226.626 175.803 226.403C176.106 226.176 176.432 225.962 176.663 225.665C176.905 225.384 177.002 224.969 176.879 224.659C176.641 224.03 176.092 223.838 175.796 223.738C175.475 223.64 175.294 223.616 175.288 223.635Z" fill="#FF9A6C"/>
<path d="M168.696 228.454C168.719 228.435 168.56 228.181 168.151 227.894C167.749 227.611 167.062 227.314 166.225 227.361L166.355 227.615C166.582 227.355 166.813 227.06 167.03 226.739C168.248 224.956 168.456 223.179 168.373 223.183C168.277 223.155 167.934 224.845 166.76 226.559C166.55 226.869 166.331 227.157 166.117 227.415L165.881 227.7L166.247 227.67C166.998 227.608 167.642 227.838 168.047 228.06C168.459 228.283 168.665 228.484 168.696 228.454Z" fill="#FF9A6C"/>
<path d="M179.006 219.058C178.925 219.028 178.712 219.658 178.981 220.39C179.243 221.125 179.811 221.476 179.854 221.401C179.916 221.33 179.512 220.921 179.288 220.281C179.05 219.645 179.1 219.074 179.006 219.058Z" fill="#FF9A6C"/>
<path d="M165.435 219.191C165.446 219.158 165.78 219.23 166.376 219.388C166.972 219.546 167.829 219.791 168.885 220.103C169.981 220.436 171.226 220.813 172.586 221.225C172.935 221.333 173.291 221.444 173.654 221.556C173.984 221.687 174.474 221.711 174.791 222.232C174.937 222.499 174.844 222.865 174.656 223.052C174.476 223.249 174.265 223.359 174.048 223.443C173.629 223.58 173.211 223.681 172.774 223.722C171.025 223.894 169.44 223.489 168.014 223.457C167.302 223.43 166.628 223.478 166.027 223.64C165.426 223.8 164.88 224.059 164.351 224.245C163.303 224.671 162.267 224.596 161.713 224.259C161.137 223.927 161.052 223.525 161.073 223.531C161.113 223.5 161.26 223.843 161.801 224.084C162.339 224.332 163.234 224.359 164.224 223.914C164.726 223.715 165.266 223.434 165.914 223.24C166.562 223.046 167.284 222.98 168.027 222.996C169.512 223.01 171.102 223.39 172.719 223.225C173.12 223.189 173.512 223.092 173.872 222.977C174.218 222.854 174.454 222.608 174.346 222.444C174.256 222.247 173.869 222.123 173.507 222.012C173.146 221.894 172.792 221.778 172.445 221.665C171.098 221.215 169.864 220.803 168.778 220.44C167.736 220.085 166.896 219.789 166.318 219.573C165.738 219.359 165.424 219.224 165.435 219.191Z" fill="#FF9A6C"/>
<path d="M84.6383 188.629L84.5263 146.933C84.1603 136.562 89.8913 127.704 100.269 127.626L101.229 127.674C110.884 128.165 118.547 135.985 118.834 145.648C119.101 154.639 119.281 164.576 118.977 169.377C118.349 179.315 108.323 180.357 108.323 180.357C108.301 180.357 108.204 186.409 108.182 189.332L110.454 196.181L102.287 194.109L84.6383 188.629Z" fill="#FFBF9D"/>
<path d="M108.322 180.358C108.322 180.358 102.035 180.407 95.5684 175.872C95.5684 175.872 98.3034 183.507 108.272 183.116L108.322 180.358Z" fill="#FF9A6C"/>
<path d="M115.841 153.901C115.83 154.652 115.184 155.262 114.399 155.264C113.616 155.266 112.989 154.66 113 153.909C113.011 153.158 113.657 152.547 114.44 152.545C115.225 152.543 115.852 153.15 115.841 153.901Z" fill="#263238"/>
<path d="M116.494 149.934C116.309 150.11 115.273 149.259 113.744 149.185C112.218 149.089 111.057 149.819 110.901 149.623C110.824 149.536 111.02 149.211 111.526 148.88C112.025 148.551 112.862 148.248 113.814 148.3C114.766 148.354 115.549 148.745 115.991 149.127C116.443 149.512 116.585 149.855 116.494 149.934Z" fill="#263238"/>
<path d="M101.591 153.863C101.579 154.614 100.934 155.224 100.149 155.226C99.3662 155.229 98.7382 154.623 98.7502 153.871C98.7612 153.12 99.4072 152.509 100.191 152.507C100.976 152.504 101.603 153.111 101.591 153.863Z" fill="#263238"/>
<path d="M101.497 149.526C101.311 149.702 100.274 148.852 98.747 148.778C97.222 148.683 96.06 149.412 95.903 149.216C95.826 149.129 96.021 148.804 96.529 148.473C97.028 148.143 97.865 147.841 98.817 147.893C99.768 147.947 100.551 148.338 100.994 148.72C101.444 149.105 101.587 149.448 101.497 149.526Z" fill="#263238"/>
<path d="M106.381 161.548C106.378 161.461 107.337 161.345 108.886 161.226C109.279 161.206 109.652 161.147 109.731 160.884C109.837 160.607 109.695 160.178 109.529 159.714C109.21 158.751 108.876 157.742 108.526 156.684C107.138 152.371 106.155 148.834 106.329 148.779C106.503 148.725 107.769 152.176 109.157 156.488C109.49 157.551 109.808 158.564 110.111 159.534C110.236 159.985 110.464 160.501 110.236 161.076C110.116 161.362 109.819 161.559 109.565 161.614C109.311 161.678 109.091 161.671 108.897 161.673C107.344 161.677 106.383 161.635 106.381 161.548Z" fill="#263238"/>
<path d="M102.234 144.771C102.007 145.15 100.544 144.665 98.7405 144.534C96.9395 144.367 95.4175 144.606 95.2555 144.195C95.1855 143.999 95.5075 143.663 96.1595 143.38C96.8055 143.096 97.7875 142.898 98.8685 142.986C99.9485 143.077 100.885 143.433 101.476 143.819C102.073 144.206 102.336 144.59 102.234 144.771Z" fill="#263238"/>
<path d="M116.792 145.444C116.462 145.78 115.23 145.375 113.733 145.304C112.239 145.189 110.96 145.438 110.681 145.064C110.56 144.883 110.771 144.542 111.337 144.234C111.895 143.926 112.817 143.691 113.845 143.754C114.873 143.819 115.753 144.165 116.261 144.54C116.777 144.915 116.938 145.279 116.792 145.444Z" fill="#263238"/>
<path d="M84.9623 154.338C84.7963 154.256 78.2323 151.97 78.1033 158.78C77.9753 165.59 84.8383 164.314 84.8543 164.119C84.8703 163.924 84.9623 154.338 84.9623 154.338Z" fill="#FFBF9D"/>
<path d="M82.8242 161.5C82.7952 161.478 82.7042 161.581 82.5022 161.669C82.3052 161.755 81.9672 161.81 81.6152 161.671C80.9012 161.394 80.3162 160.24 80.3062 159.012C80.3002 158.392 80.4422 157.804 80.6702 157.32C80.8882 156.826 81.2162 156.484 81.5802 156.426C81.9422 156.35 82.1952 156.571 82.2742 156.765C82.3622 156.957 82.3162 157.092 82.3522 157.105C82.3712 157.122 82.5002 156.993 82.4512 156.711C82.4252 156.575 82.3482 156.413 82.1912 156.279C82.0302 156.143 81.7912 156.071 81.5382 156.093C81.0122 156.119 80.5302 156.594 80.2792 157.125C79.9992 157.659 79.8262 158.319 79.8322 159.015C79.8502 160.388 80.5282 161.686 81.5072 161.989C81.9842 162.123 82.3862 161.986 82.5952 161.829C82.8082 161.664 82.8472 161.513 82.8242 161.5Z" fill="#FF9A6C"/>
<path d="M101.57 162.449C101.805 162.437 101.8 164 103.133 165.117C104.464 166.237 106.132 166.07 106.143 166.289C106.164 166.387 105.771 166.591 105.066 166.607C104.376 166.627 103.369 166.4 102.553 165.717C101.739 165.032 101.393 164.122 101.343 163.48C101.287 162.826 101.463 162.439 101.57 162.449Z" fill="#263238"/>
<path d="M132.663 136.819C132.563 136.416 132.278 136.079 131.925 135.861C131.154 135.384 130.255 135.426 129.387 135.394C127.227 135.315 125.095 134.717 123.189 133.699C123.868 133.373 124.504 132.972 125.048 132.451C126.172 131.376 126.84 129.708 126.366 128.227C126.277 127.949 126.123 127.656 125.845 127.565C125.405 127.42 125.009 127.846 124.694 128.185C123.656 129.297 122.709 129.764 121.2 129.58C120.262 129.466 119.357 129.236 118.627 128.76C118.598 128.729 118.573 128.694 118.544 128.663C118.197 128.29 117.859 127.934 117.526 127.589L117.524 127.586L117.525 127.588C115.016 124.994 112.85 123.187 110.6 122.227C107.303 120.819 101.754 120.161 98.2695 120.998C94.7835 121.835 91.6115 124.583 91.0555 128.124C89.1455 126.44 86.2265 126.393 83.8395 127.295L83.7805 127.268C81.1245 128.153 79.5685 130.908 78.7335 133.581C78.6875 133.727 78.6475 133.875 78.6045 134.022C77.6835 135.417 76.4465 136.602 74.9835 137.414C74.7255 137.557 74.4295 137.733 74.3925 138.026C74.3555 138.316 74.5965 138.562 74.8305 138.737C75.4535 139.203 76.1835 139.516 76.9455 139.668C76.6915 140.302 76.3955 140.917 76.0325 141.503C75.7235 142.001 75.3575 142.597 75.6065 143.127C75.7995 143.537 76.3115 143.715 76.7605 143.658C77.2095 143.602 77.6125 143.362 77.9995 143.128C77.6905 143.826 77.3815 144.524 77.0735 145.222C78.0235 145.408 79.0135 145.352 79.9455 145.091C80.4535 147.617 80.7775 152.283 81.3895 154.001C83.1965 154.07 83.6395 153.883 84.5455 154.205C85.7165 154.621 85.2225 156.699 86.7695 156.138C87.5565 155.852 88.8185 152.916 89.0965 152.126C90.9415 146.882 91.6355 141.237 91.1235 135.702C92.2405 134.561 93.5785 133.636 95.0415 132.997L94.9215 133.101C97.7255 132.192 100.895 131.306 103.509 132.669C105.537 133.726 106.697 135.877 108.194 137.606C111.031 140.883 114.282 142.667 118.607 142.944C118.935 145.959 118.947 150.878 119.036 153.686L121.549 148.121L121.55 148.144C121.75 147.819 121.917 147.491 122.079 147.162L122.134 147.062V147.049C122.39 146.521 122.635 145.991 122.956 145.47C122.965 145.478 122.973 145.486 122.982 145.495C124.474 146.867 126.757 144.864 125.592 143.204C125.361 142.875 125.083 142.58 124.762 142.335C125.443 143.002 126.472 143.336 127.389 143.075C128.306 142.814 129.032 141.907 128.972 140.956C128.931 140.307 128.48 139.717 127.9 139.449C129.126 139.569 130.387 139.328 131.47 138.74C132.181 138.351 132.883 137.707 132.663 136.819Z" fill="#263238"/>
<path d="M94.1662 129.333C94.1862 129.359 93.7432 129.588 93.1472 130.226C92.5572 130.862 91.8862 131.975 91.5482 133.503C91.3752 134.262 91.2592 135.113 91.2402 136.031C91.2172 136.948 91.2702 137.933 91.3192 138.97C91.3642 140.007 91.4162 141.103 91.3262 142.24C91.2812 142.807 91.2002 143.384 91.0652 143.959C90.9282 144.524 90.7662 145.137 90.3272 145.617C89.9772 146.008 89.4032 146.172 88.9112 146.06C88.4152 145.962 87.9772 145.687 87.6602 145.319C87.0342 144.557 86.8942 143.605 86.7522 142.765L86.9612 142.795C86.6042 143.54 86.2372 144.275 85.7052 144.858C85.1812 145.444 84.4652 145.824 83.7442 145.873C83.3852 145.898 83.0252 145.833 82.7202 145.672C82.4092 145.512 82.1862 145.247 82.0362 144.97C81.8932 144.687 81.8212 144.378 81.8432 144.082C81.8662 143.786 81.9872 143.508 82.1792 143.313L82.2832 143.409C81.4962 144.268 80.6752 144.722 80.1092 144.971C79.8232 145.096 79.5952 145.169 79.4402 145.215C79.2842 145.257 79.2032 145.275 79.2012 145.269C79.1992 145.262 79.2772 145.232 79.4282 145.178C79.5782 145.12 79.8002 145.036 80.0772 144.902C80.6272 144.635 81.4232 144.169 82.1782 143.315L82.2822 143.411C81.9392 143.76 81.9072 144.383 82.1852 144.891C82.3252 145.142 82.5302 145.378 82.8032 145.513C83.0752 145.653 83.4032 145.71 83.7312 145.684C84.3932 145.632 85.0612 145.276 85.5522 144.718C86.0542 144.161 86.4092 143.445 86.7622 142.699L86.9122 142.383L86.9712 142.729C87.1132 143.568 87.2642 144.483 87.8352 145.169C88.1192 145.499 88.5202 145.747 88.9542 145.832C89.3892 145.925 89.8532 145.791 90.1582 145.456C90.5422 145.042 90.7072 144.461 90.8402 143.905C90.9722 143.344 91.0532 142.779 91.0982 142.221C91.1902 141.103 91.1442 140.015 91.1042 138.979C91.0612 137.942 91.0152 136.954 91.0472 136.024C91.0752 135.095 91.2022 134.233 91.3882 133.464C91.7522 131.917 92.4602 130.79 93.0812 130.163C93.7092 129.534 94.1662 129.333 94.1662 129.333Z" fill="#455A64"/>
<path d="M124.796 139.673C124.798 139.676 124.771 139.699 124.715 139.74C124.647 139.788 124.564 139.845 124.462 139.916C124.352 139.995 124.211 140.088 124.034 140.178C123.86 140.273 123.661 140.389 123.421 140.484C122.486 140.905 120.993 141.31 119.139 141.163C117.303 141.021 115.11 140.324 113.171 138.816C111.209 137.343 109.506 135.197 108.128 132.752C107.428 131.53 106.863 130.281 106.236 129.125C105.613 127.968 104.92 126.896 104.072 126.045C103.234 125.188 102.254 124.548 101.237 124.242C100.73 124.08 100.217 124.035 99.726 124.036C99.234 124.052 98.766 124.141 98.334 124.273C97.469 124.543 96.766 125.004 96.23 125.481C95.692 125.963 95.327 126.475 95.074 126.916C94.602 127.823 94.565 128.41 94.529 128.4C94.525 128.399 94.528 128.364 94.539 128.296C94.554 128.213 94.571 128.114 94.592 127.992C94.646 127.726 94.769 127.342 94.994 126.874C95.238 126.419 95.6 125.887 96.142 125.385C96.682 124.888 97.395 124.405 98.283 124.117C98.727 123.976 99.209 123.878 99.719 123.857C100.227 123.85 100.766 123.894 101.291 124.058C102.348 124.367 103.362 125.023 104.223 125.895C105.096 126.763 105.805 127.854 106.435 129.018C107.07 130.182 107.636 131.429 108.329 132.639C109.697 135.065 111.376 137.187 113.299 138.647C115.203 140.141 117.343 140.838 119.152 141.001C120.974 141.168 122.45 140.793 123.384 140.403C124.327 140.005 124.778 139.645 124.796 139.673Z" fill="#455A64"/>
<path d="M125.795 135.313C125.803 135.327 125.674 135.412 125.432 135.555C125.193 135.702 124.827 135.881 124.362 136.071C123.898 136.264 123.324 136.442 122.675 136.586C122.024 136.719 121.295 136.813 120.526 136.826C119.757 136.83 119.027 136.753 118.372 136.634C117.72 136.504 117.142 136.339 116.674 136.157C116.205 135.978 115.835 135.807 115.593 135.665C115.348 135.528 115.217 135.446 115.225 135.432C115.245 135.393 115.79 135.688 116.729 136.001C117.197 136.162 117.769 136.306 118.411 136.423C119.055 136.528 119.771 136.597 120.525 136.593C121.278 136.58 121.992 136.495 122.633 136.376C123.272 136.245 123.841 136.088 124.305 135.917C125.236 135.581 125.774 135.275 125.795 135.313Z" fill="#455A64"/>
<path d="M107.812 444.182L106.778 463.044C106.778 463.044 125.604 470.429 125.752 473.934L89.1074 473.243L89.5114 443.787L107.812 444.182Z" fill="#263238"/>
<path d="M95.4766 461.243C94.7636 461.424 94.2586 462.212 94.4096 462.931C94.5606 463.651 95.3576 464.171 96.0736 464.003C96.7896 463.835 97.4246 462.908 97.1946 462.209C96.9636 461.511 95.9946 460.951 95.3396 461.286" fill="#E0E0E0"/>
<path d="M89.1094 473.243L89.2664 470.275L124.342 472.047C124.342 472.047 125.96 472.788 125.754 473.933L89.1094 473.243Z" fill="#455A64"/>
<path d="M107.376 462.869C107.367 463.048 106.47 463.112 105.579 463.671C104.673 464.207 104.205 464.973 104.041 464.899C103.877 464.861 104.164 463.797 105.255 463.139C106.34 462.472 107.418 462.706 107.376 462.869Z" fill="white"/>
<path d="M111.19 464.53C111.227 464.704 110.447 464.994 109.825 465.739C109.181 466.466 109.012 467.282 108.834 467.27C108.665 467.295 108.561 466.245 109.352 465.333C110.135 464.415 111.189 464.359 111.19 464.53Z" fill="white"/>
<path d="M113.286 469.173C113.123 469.208 112.891 468.309 113.368 467.338C113.839 466.363 114.69 465.992 114.763 466.143C114.861 466.292 114.308 466.807 113.928 467.611C113.53 468.405 113.465 469.158 113.286 469.173Z" fill="white"/>
<path d="M107.136 458.544C107.058 458.706 106.242 458.443 105.229 458.493C104.215 458.522 103.422 458.846 103.331 458.691C103.23 458.56 104.011 457.912 105.205 457.87C106.397 457.82 107.226 458.405 107.136 458.544Z" fill="white"/>
<path d="M63.4455 442.322L61.4615 465.091L65.0845 483.552C65.3455 484.883 64.4255 486.156 63.0805 486.326C62.3275 486.421 61.5805 486.151 61.0665 485.591C57.7995 482.03 45.8495 468.869 46.0875 467.211C46.3635 465.291 46.5865 443.055 46.5865 443.055L63.4455 442.322Z" fill="#263238"/>
<path d="M63.0804 486.327L46.1864 465.673L46.1244 466.639C46.0714 467.474 46.3114 468.302 46.8124 468.973C48.1514 470.768 51.9574 475.643 60.9974 485.588C61.5234 486.167 62.3074 486.445 63.0804 486.327Z" fill="#455A64"/>
<g opacity="0.6">
<path d="M51.3384 458.615C51.8844 459.047 52.0154 459.923 51.6074 460.487C51.1984 461.05 50.3084 461.191 49.7544 460.769C49.2014 460.347 49.0114 459.3 49.4804 458.786C49.9504 458.272 51.0034 458.163 51.4404 458.706" fill="white"/>
</g>
<path d="M58.505 476.027C58.63 476.098 59.221 474.937 60.619 474.381C62 473.784 63.239 474.186 63.277 474.047C63.3 473.992 63.023 473.797 62.494 473.687C61.97 473.575 61.194 473.6 60.426 473.917C59.66 474.236 59.094 474.768 58.803 475.218C58.507 475.67 58.45 476.004 58.505 476.027Z" fill="white"/>
<path d="M59.9339 479.185C60.0359 479.291 60.8159 478.596 62.0169 478.334C63.2129 478.045 64.2169 478.329 64.2629 478.19C64.3359 478.078 63.2699 477.523 61.9039 477.845C60.5359 478.151 59.8189 479.116 59.9339 479.185Z" fill="white"/>
<path d="M55.7315 471.918C55.8315 472.033 57.0255 470.959 58.8575 470.387C60.6815 469.787 62.2775 469.967 62.2915 469.815C62.3365 469.696 60.6625 469.27 58.7045 469.909C56.7415 470.528 55.6255 471.847 55.7315 471.918Z" fill="white"/>
<path d="M55.7582 464.946C55.8102 465.087 57.1042 464.641 58.7472 464.687C60.3912 464.71 61.6652 465.21 61.7232 465.072C61.7932 464.964 60.5242 464.214 58.7582 464.185C56.9922 464.14 55.6932 464.836 55.7582 464.946Z" fill="white"/>
<path d="M56.1701 458.248C56.2321 458.384 57.5481 457.705 59.2751 457.895C61.0061 458.047 62.1631 458.97 62.2511 458.848C62.2911 458.803 62.0611 458.501 61.5541 458.163C61.0521 457.825 60.2551 457.489 59.3251 457.395C58.3941 457.305 57.5471 457.478 56.9881 457.711C56.4251 457.944 56.1401 458.195 56.1701 458.248Z" fill="white"/>
<path d="M59.3167 456.618C59.3457 456.62 59.4167 456.317 59.4037 455.757C59.3887 455.202 59.2807 454.378 58.8627 453.454C58.6437 453.014 58.4217 452.453 57.8047 452.112C57.4977 451.94 57.0227 451.969 56.7327 452.253C56.4457 452.53 56.3367 452.899 56.3057 453.26C56.2367 454.709 57.3897 456.189 59.0037 456.502C60.6277 456.786 62.1687 455.948 62.8957 454.739C63.0577 454.424 63.1817 454.034 63.0297 453.637C62.8807 453.237 62.4267 453.053 62.0967 453.088C61.4127 453.146 60.9607 453.508 60.5437 453.772C59.7177 454.353 59.1877 454.987 58.8737 455.444C58.5577 455.905 58.4477 456.196 58.4727 456.21C58.5487 456.275 59.1207 455.127 60.7407 454.067C61.1477 453.826 61.6187 453.517 62.1087 453.503C62.3477 453.495 62.5467 453.602 62.6187 453.799C62.6947 453.989 62.6287 454.272 62.4887 454.518C61.8757 455.506 60.4657 456.269 59.0967 456.007C57.7337 455.758 56.7217 454.455 56.7667 453.288C56.7817 453.007 56.8737 452.73 57.0347 452.573C57.1927 452.418 57.4207 452.388 57.6247 452.487C58.0567 452.694 58.3237 453.193 58.5417 453.607C59.3967 455.344 59.2147 456.635 59.3167 456.618Z" fill="white"/>
<path d="M125.967 285.758C125.967 285.758 128.746 296.518 127.738 309.626C127.348 314.698 110.232 455.018 110.232 455.018H87.1217L93.6177 323.136L91.7257 323.547C91.7257 323.547 79.1107 379.794 78.0807 388.901C77.1557 397.086 66.5167 456.555 66.5167 456.555L45.3867 456.798L52.1347 378.139L59.9877 302.663L62.9417 280.692L125.967 285.758Z" fill="#263238"/>
<path d="M89.973 309.682C89.96 309.712 90.299 309.91 90.937 310.225C91.578 310.527 92.519 310.988 93.799 311.227C94.437 311.343 95.164 311.377 95.928 311.242C96.686 311.108 97.498 310.785 98.154 310.173C98.811 309.561 99.234 308.703 99.504 307.813C99.776 306.915 99.932 305.981 100.123 305.033C100.86 301.227 101.359 297.751 101.65 295.229C101.796 293.968 101.892 292.945 101.945 292.237C101.997 291.529 102.007 291.135 101.974 291.132C101.94 291.128 101.866 291.514 101.756 292.215C101.634 293.018 101.485 294.01 101.307 295.183C100.929 297.689 100.377 301.145 99.643 304.94C99.27 306.816 99.016 308.727 97.844 309.846C96.673 310.944 95.044 311.06 93.854 310.885C92.625 310.701 91.673 310.298 91.014 310.051C90.355 309.791 89.987 309.651 89.973 309.682Z" fill="#455A64"/>
<path d="M96.9291 291.796C96.9361 291.775 96.7791 291.675 96.4541 291.655C96.1321 291.631 95.6431 291.729 95.1611 292.071C94.6991 292.411 94.2071 293.022 94.1871 293.856C94.1491 294.7 94.8081 295.531 95.6671 295.84C96.5181 296.173 97.5611 295.98 98.0881 295.319C98.6211 294.678 98.6531 293.894 98.5281 293.334C98.3901 292.759 98.0861 292.364 97.8271 292.171C97.5691 291.972 97.3851 291.944 97.3761 291.965C97.3131 292.028 98.0261 292.353 98.1871 293.399C98.2581 293.893 98.1771 294.548 97.7481 295.021C97.3361 295.506 96.5431 295.649 95.8381 295.382C95.1311 295.119 94.6281 294.49 94.6371 293.854C94.6261 293.216 94.9961 292.669 95.3731 292.344C96.1831 291.66 96.9351 291.885 96.9291 291.796Z" fill="#455A64"/>
<path d="M120.098 188.104C120.681 188.339 127.758 189.014 130.147 197.71C132.536 206.406 140.916 233.103 140.916 233.103L157.498 223.236L165.8 240.861L145.776 254.459C145.776 254.459 133.292 262.74 127.958 251.932L120.098 188.104Z" fill="#263238"/>
<path d="M83.5103 231.536C83.4113 229.155 79.7412 212.094 79.7412 211.797C79.7412 211.499 83.3713 186.436 83.3713 186.436L84.1773 178.587L101.791 189.147C101.791 189.147 108.448 183.415 108.271 183.116L109.752 187.603L111.149 188.104L113.235 208.057L121.628 285.706C121.628 285.706 118.749 289.21 107.762 290.817C94.0623 292.822 74.2812 285.706 74.2812 285.706C74.2812 285.706 83.6103 233.917 83.5103 231.536Z" fill="#E0E0E0"/>
<g opacity="0.3">
<path d="M124.309 312.915C124.309 312.915 121.721 314.872 120.139 303.098C118.558 291.324 113.886 241.945 113.886 241.945L110.514 190.831L120.59 220.599L124.309 312.915Z" fill="black"/>
</g>
<g opacity="0.3">
<path d="M85.0682 274.563C85.0682 274.563 80.4422 319.748 78.6872 318.871C76.9322 317.994 60.0332 311.331 60.0332 311.331L61.7342 296.724L85.0682 274.563Z" fill="black"/>
</g>
<path d="M106.165 195.723L103.972 198.953H100.687L98.9297 195.723L100.866 191.635L103.47 191.775L106.165 195.723Z" fill="#FF725E"/>
<path d="M84.7175 189.147C84.7005 189.174 84.9775 189.382 85.4925 189.737C86.0945 190.138 86.8305 190.628 87.6955 191.204C89.5665 192.427 92.1675 194.089 95.0555 195.901C95.9985 196.49 96.9125 197.06 97.7685 197.594L97.9555 197.711L98.0685 197.528C99.4775 195.251 100.295 193.098 100.911 191.592C101.21 190.834 101.439 190.227 101.591 189.808C101.743 189.389 101.815 189.157 101.791 189.147C101.742 189.125 101.32 189.999 100.655 191.484C99.9705 192.955 99.0975 195.084 97.7005 197.29L98.0005 197.224C97.1465 196.686 96.2365 196.111 95.2955 195.518C92.4075 193.706 89.7795 192.087 87.8655 190.934C86.9695 190.405 86.2085 189.956 85.5855 189.589C85.0425 189.279 84.7335 189.12 84.7175 189.147Z" fill="#455A64"/>
<path d="M109.931 192.435C109.888 192.406 109.534 192.837 108.972 193.588C108.41 194.339 107.64 195.409 106.765 196.658L107.12 196.652C106.762 196.156 106.389 195.609 106.006 195.041C104.897 193.383 103.903 191.866 103.136 190.8C102.373 189.73 101.84 189.111 101.791 189.148C101.74 189.186 102.178 189.867 102.869 190.978C103.566 192.086 104.514 193.626 105.629 195.293C106.013 195.865 106.394 196.413 106.768 196.91L106.953 197.157L107.123 196.904C107.975 195.64 108.698 194.537 109.198 193.743C109.698 192.95 109.974 192.464 109.931 192.435Z" fill="#455A64"/>
<path d="M103.971 198.954L111.822 272.774L104.296 283.392L95.9844 274.564L100.686 198.954H103.971Z" fill="#FF725E"/>
<path d="M83.6745 179.308C83.0615 179.783 75.5885 185.233 75.5885 185.233L60.1185 191.637C60.1185 191.637 63.6285 221.834 63.7145 222.577C64.6175 230.461 67.2415 255.233 67.2415 255.233L53.2695 307.436L77.5655 315.199C77.5655 315.199 83.1365 287.07 85.7415 271.861C88.3465 256.652 87.5795 252.345 87.2725 237.611C86.9665 222.877 83.7485 186.532 83.7485 186.532L83.6745 179.308Z" fill="#263238"/>
<path d="M85.7418 252.564C85.7578 252.562 85.7368 252.316 85.6828 251.848C85.6228 251.381 85.5569 250.688 85.4118 249.806C85.1369 248.039 84.6908 245.489 84.0728 242.352C82.8468 236.077 80.9878 227.443 78.8308 217.933C77.1028 210.307 75.4518 203.274 74.0968 197.641L74.0368 197.823C75.2039 196.829 76.2808 195.911 77.2788 195.061L77.4148 194.945L77.2868 194.824C76.0448 193.654 74.9548 192.627 74.0048 191.732L74.0338 191.868C74.6878 190.21 75.2078 188.889 75.5808 187.941C75.7418 187.513 75.8718 187.169 75.9738 186.899C76.0588 186.662 76.0978 186.537 76.0878 186.533C76.0778 186.529 76.0178 186.645 75.9118 186.874C75.7948 187.138 75.6458 187.474 75.4598 187.892C75.0598 188.83 74.5038 190.135 73.8058 191.775L73.7729 191.851L73.8338 191.911C74.7698 192.821 75.8428 193.865 77.0658 195.055L77.0728 194.819C76.0658 195.658 74.9778 196.564 73.8008 197.545L73.7148 197.616L73.7398 197.727C75.0368 203.392 76.6458 210.425 78.3868 218.036C80.5438 227.545 82.4519 236.164 83.7569 242.419C84.4149 245.545 84.9078 248.082 85.2358 249.838C85.4068 250.715 85.5008 251.401 85.5898 251.864C85.6748 252.323 85.7258 252.566 85.7418 252.564Z" fill="#455A64"/>
<path d="M50.1329 303.929C50.1279 303.941 50.3049 304.028 50.6479 304.182C51.0259 304.347 51.5309 304.568 52.1659 304.845C53.5339 305.424 55.4619 306.239 57.8639 307.255C62.7719 309.293 69.6069 312.13 77.4819 315.4L77.7309 315.504L77.7799 315.237C78.3679 312.068 78.9969 308.674 79.6459 305.172C81.6179 294.349 83.4029 284.553 84.7029 277.416C85.3229 273.89 85.8279 271.024 86.1849 268.995C86.3449 268.029 86.4719 267.264 86.5649 266.702C86.5999 266.462 86.6289 266.265 86.6529 266.104C86.6699 265.969 86.6749 265.899 86.6679 265.897C86.6599 265.896 86.6399 265.963 86.6079 266.095C86.5719 266.255 86.5289 266.449 86.4759 266.685C86.3619 267.243 86.2069 268.003 86.0119 268.963C85.6209 270.985 85.0679 273.843 84.3889 277.357C83.0549 284.488 81.2239 294.275 79.2009 305.089C78.5569 308.592 77.9329 311.987 77.3499 315.157L77.6489 314.994C69.7489 311.784 62.8929 308.998 57.9699 306.997C55.5479 306.031 53.6029 305.256 52.2229 304.706C51.5759 304.457 51.0629 304.259 50.6769 304.11C50.3239 303.98 50.1379 303.917 50.1329 303.929Z" fill="#455A64"/>
<path d="M57.707 203.471C57.582 203.483 58.016 209.248 58.676 216.348C59.336 223.45 59.972 229.195 60.096 229.184C60.221 229.172 59.787 223.408 59.127 216.306C58.467 209.206 57.831 203.459 57.707 203.471Z" fill="#455A64"/>
<path d="M127.208 311.486C125.434 312.491 123.215 311.323 123.039 309.292L117.59 253.375L108.936 185.125L112.26 186.757L121.631 188.363C121.631 188.363 126.588 200.685 127.96 212.405C129.332 224.125 129.112 254.655 129.112 254.655L137.421 305.642L127.208 311.486Z" fill="#263238"/>
<path d="M119.047 254.757C119.063 254.756 119.063 254.495 119.051 254.002C119.046 253.507 118.994 252.782 118.992 251.843C118.961 249.967 118.937 247.253 118.961 243.897C118.993 237.187 119.159 227.917 119.386 217.679C119.557 210.692 119.717 204.157 119.852 198.625L119.855 198.505L119.751 198.449C118.426 197.735 117.178 197.062 116.002 196.428L116.062 196.683C116.991 195.324 117.837 194.088 118.608 192.961L118.68 192.855L118.589 192.769C116.501 190.793 114.827 189.208 113.641 188.086C113.08 187.567 112.636 187.156 112.303 186.848C111.996 186.57 111.831 186.43 111.821 186.44C111.811 186.45 111.956 186.61 112.245 186.908C112.564 187.23 112.991 187.66 113.529 188.202C114.692 189.348 116.335 190.966 118.382 192.983L118.363 192.791C117.579 193.908 116.718 195.135 115.773 196.482L115.661 196.642L115.833 196.737C117.004 197.381 118.246 198.065 119.564 198.79L119.463 198.614C119.276 204.135 119.09 210.675 118.932 217.67C118.704 227.91 118.589 237.184 118.639 243.899C118.655 247.256 118.728 249.974 118.814 251.85C118.843 252.788 118.924 253.516 118.958 254.009C119.002 254.501 119.032 254.758 119.047 254.757Z" fill="#455A64"/>
<path d="M120.81 286.604C120.795 286.606 120.799 286.752 120.82 287.028C120.852 287.356 120.891 287.754 120.937 288.233C121.067 289.348 121.241 290.841 121.452 292.654C121.907 296.385 122.566 301.534 123.321 307.218C123.59 309.218 123.85 311.15 124.091 312.942L124.134 313.261L124.412 313.104C128.151 310.993 131.393 309.163 133.774 307.818C134.879 307.175 135.783 306.649 136.471 306.249C137.096 305.876 137.429 305.663 137.416 305.64C137.403 305.617 137.046 305.787 136.399 306.12C135.695 306.492 134.771 306.98 133.641 307.578C131.24 308.887 127.97 310.668 124.201 312.723L124.522 312.885C124.286 311.092 124.032 309.159 123.769 307.158C123.013 301.474 122.304 296.331 121.768 292.612C121.498 290.807 121.276 289.32 121.11 288.21C121.03 287.735 120.963 287.341 120.908 287.016C120.859 286.744 120.825 286.602 120.81 286.604Z" fill="#455A64"/>
<path d="M129.11 254.654C128.966 254.657 128.634 242.321 128.368 227.106C128.102 211.886 128.003 199.549 128.146 199.547C128.29 199.544 128.622 211.877 128.888 227.097C129.155 242.312 129.254 254.651 129.11 254.654Z" fill="#455A64"/>
<path d="M60.1181 191.635C60.1181 191.635 53.2691 194.586 50.6931 205.287C48.6591 213.736 39.0671 257.108 39.3011 263.081C39.5351 269.054 42.2511 304.041 43.0491 304.041C43.8471 304.041 61.3201 303.019 61.3201 303.019L60.0331 261.787L65.3061 239.296L67.2411 224.347L60.1181 191.635Z" fill="#263238"/>
<path d="M43.0488 304.042C43.0478 304.015 43.5178 303.962 44.3918 303.888C45.3328 303.818 46.5948 303.725 48.1558 303.609C51.4508 303.401 55.9948 303.114 61.3068 302.779L61.0788 303.027C60.9718 299.638 60.8548 295.926 60.7318 292.035C60.5208 283.977 60.3308 276.685 60.1898 271.323C60.1468 268.724 60.1108 266.597 60.0858 265.045C60.0848 264.35 60.0848 263.784 60.0838 263.337C60.0888 262.946 60.1008 262.741 60.1188 262.741C60.1368 262.74 60.1608 262.945 60.1888 263.334C60.2148 263.78 60.2478 264.345 60.2888 265.039C60.3558 266.59 60.4468 268.716 60.5588 271.312C60.7388 276.673 60.9828 283.963 61.2528 292.019C61.3618 295.911 61.4668 299.623 61.5618 303.012L61.5688 303.249L61.3338 303.26C56.0178 303.519 51.4708 303.741 48.1728 303.902C46.6088 303.961 45.3438 304.009 44.4008 304.044C43.5238 304.069 43.0508 304.069 43.0488 304.042Z" fill="#455A64"/>
<path d="M62.201 209.61C62.344 209.594 63.588 219.795 64.979 232.391C66.371 244.992 67.383 255.216 67.24 255.232C67.097 255.248 65.853 245.049 64.461 232.449C63.071 219.852 62.058 209.625 62.201 209.61Z" fill="#455A64"/>
<path d="M80.6782 355.304H28.4082C26.9132 355.304 25.7012 354.092 25.7012 352.597V316.84C25.7012 315.345 26.9132 314.133 28.4082 314.133H80.6782C82.1732 314.133 83.3852 315.345 83.3852 316.84V352.597C83.3852 354.092 82.1732 355.304 80.6782 355.304Z" fill="#455A64"/>
<path d="M61.0183 314.159C60.7163 314.021 59.6663 314.128 59.6153 315.275C59.5643 316.423 60.5493 324.186 60.5493 324.186C60.5493 324.186 62.9753 332.82 62.3203 333.787C61.6643 334.754 60.3133 334.528 59.8553 333.901C59.5243 333.449 56.7923 326.234 56.7923 326.234L56.0893 322.31C56.0893 322.31 57.4983 334.739 56.7113 335.712C55.9233 336.686 55.0733 336.309 54.5293 335.813C53.9853 335.318 53.4193 329.826 53.4193 329.826L52.1423 322.493L52.3213 334.401C52.3213 334.401 52.1743 335.73 51.1353 335.773C49.6993 335.832 49.4013 334.292 49.4013 334.292L47.9533 321.959C47.9533 321.959 48.4363 329.967 47.8993 330.385C47.1803 330.945 46.5233 330.761 46.2863 330.147C45.8043 328.897 45.1023 321.697 45.1023 321.697L44.4413 307.986L43.9453 304.202L57.1033 303.526L57.1363 304.456C57.1363 304.456 62.2073 308.282 63.3183 309.792C63.3183 309.792 64.8933 312.238 65.3063 314.132L61.0183 314.159Z" fill="#FFBF9D"/>
<path d="M80.273 341.731H86.498V323.386H80.273V341.731Z" fill="#455A64"/>
<path d="M84.8086 331.3L89.8426 329.769L89.8736 335.866L84.9926 334.741L84.8086 331.3Z" fill="#455A64"/>
<path d="M83.5571 341.73C83.5571 341.658 82.3271 341.593 80.2721 341.543L80.4591 341.73C80.5151 339.457 80.5511 336.12 80.5511 332.409C80.5511 328.866 80.5191 325.664 80.4671 323.385L80.2731 323.579C82.4951 323.529 83.8571 323.46 83.8571 323.385C83.8571 323.309 82.4951 323.241 80.2731 323.191L80.0831 323.188L80.0781 323.385C80.0261 325.664 79.9941 328.865 79.9941 332.409C79.9941 336.12 80.0291 339.457 80.0861 341.73L80.0911 341.921L80.2731 341.917C82.3271 341.868 83.5571 341.802 83.5571 341.73Z" fill="#263238"/>
</svg>
