<svg width="500" height="500" viewBox="0 0 500 500" fill="none" xmlns="http://www.w3.org/2000/svg">
<path d="M444.848 156.54C431.935 163.226 422.033 174.736 414.913 187.411C407.793 200.085 403.204 213.992 398.659 227.8L394.682 299.008C409.707 273.459 421.767 243.425 425.026 213.969C421.693 213.672 418.36 213.376 415.027 213.079C421.731 212.056 427.359 207.201 430.939 201.444C434.519 195.687 436.362 189.049 438.161 182.513C434.095 183.117 430.028 183.721 425.962 184.326C435.513 177.953 442.439 167.764 444.848 156.54Z" fill="#E0E0E0"/>
<path d="M392.455 315.692C392.455 315.692 359.842 276.677 360.219 239.431H373.393C373.393 239.431 359.083 230.026 360.216 224.759C361.348 219.492 361.725 199.553 361.725 199.553L373.77 202.563C373.77 202.563 364.736 198.048 363.607 190.9C362.478 183.752 366.242 150.645 366.242 150.645C366.242 150.645 380.922 166.07 385.439 181.871C389.956 197.672 401.812 216.107 398.331 264.262C394.848 312.417 392.455 315.692 392.455 315.692Z" fill="#EBEBEB"/>
<path d="M408.989 319.375C408.989 319.375 444.322 295.849 452.172 265.823L441.58 262.942C441.58 262.942 455.144 258.51 455.386 254.027C455.629 249.545 459.691 233.432 459.691 233.432L449.348 233.218C449.348 233.218 457.599 231.564 460.072 226.064C462.545 220.564 466.765 193.124 466.765 193.124C466.765 193.124 451.586 202.315 444.496 214.031C437.406 225.747 423.838 237.975 416.096 277.452C408.355 316.929 408.989 319.375 408.989 319.375Z" fill="#EBEBEB"/>
<path d="M375.15 184.662C375.159 184.66 375.197 184.797 375.263 185.068C375.332 185.362 375.424 185.761 375.543 186.27C375.784 187.356 376.128 188.911 376.569 190.902C377.018 192.912 377.542 195.378 378.11 198.248C378.688 201.117 379.362 204.38 380.022 208.004C381.415 215.238 382.885 223.887 384.4 233.509C385.868 243.138 387.335 253.747 388.64 264.912C389.919 276.084 390.912 286.75 391.681 296.461C392.402 306.176 392.945 314.932 393.241 322.293C393.426 325.972 393.514 329.303 393.607 332.227C393.709 335.151 393.763 337.671 393.784 339.73C393.809 341.768 393.828 343.361 393.842 344.473C393.843 344.995 393.843 345.404 393.844 345.706C393.841 345.984 393.836 346.126 393.827 346.126C393.818 346.126 393.806 345.984 393.791 345.706C393.778 345.404 393.76 344.996 393.737 344.474C393.701 343.363 393.648 341.771 393.581 339.734C393.528 337.676 393.446 335.158 393.316 332.236C393.196 329.314 393.082 325.985 392.874 322.309C392.531 314.954 391.951 306.204 391.204 296.497C390.409 286.793 389.402 276.135 388.124 264.97C386.82 253.812 385.368 243.208 383.927 233.58C382.439 223.96 381.007 215.309 379.661 208.07C379.025 204.444 378.376 201.177 377.826 198.304C377.285 195.429 376.791 192.959 376.373 190.942C375.973 188.943 375.661 187.381 375.442 186.291C375.345 185.777 375.269 185.376 375.213 185.079C375.162 184.805 375.141 184.664 375.15 184.662Z" fill="#E0E0E0"/>
<path d="M387.931 339.584C387.931 339.584 358.086 305.738 348.819 285.278L355.815 282.291C350.744 283.127 345.549 280.949 341.617 277.641C337.685 274.333 334.798 269.982 331.967 265.695L341.183 264.139C332.803 261.789 325.419 256.072 321.047 248.549C331.922 250.336 341.761 256.307 349.868 263.769C356.434 269.812 361.993 276.827 367.332 283.994C369.937 287.49 372.216 291.215 374.115 295.14C379.13 305.502 387.949 327.154 387.931 339.584Z" fill="#EBEBEB"/>
<path d="M452.64 212.824C452.648 212.828 452.6 212.944 452.498 213.167C452.383 213.412 452.23 213.737 452.035 214.149C451.605 215.034 450.993 216.293 450.211 217.9C449.409 219.524 448.433 221.513 447.333 223.839C446.228 226.162 444.939 228.792 443.589 231.736C440.833 237.596 437.665 244.626 434.26 252.481C430.884 260.348 427.29 269.048 423.715 278.258C420.16 287.479 416.963 296.335 414.165 304.427C411.396 312.529 409.009 319.862 407.104 326.051C406.122 329.136 405.305 331.949 404.559 334.411C403.808 336.872 403.191 338.999 402.691 340.74C402.187 342.455 401.793 343.797 401.516 344.742C401.382 345.178 401.277 345.521 401.198 345.779C401.123 346.012 401.081 346.13 401.072 346.128C401.063 346.126 401.089 346.003 401.146 345.765C401.213 345.503 401.302 345.155 401.415 344.714C401.67 343.763 402.033 342.412 402.496 340.685C402.966 338.935 403.555 336.799 404.279 334.329C404.999 331.858 405.791 329.037 406.751 325.943C408.612 319.737 410.965 312.388 413.711 304.272C416.486 296.166 419.672 287.298 423.229 278.07C426.807 268.854 430.418 260.153 433.82 252.291C437.251 244.441 440.456 237.422 443.256 231.579C444.628 228.644 445.941 226.024 447.071 223.712C448.197 221.398 449.199 219.421 450.03 217.811C450.849 216.222 451.491 214.978 451.942 214.103C452.156 213.701 452.324 213.384 452.451 213.145C452.568 212.928 452.632 212.82 452.64 212.824Z" fill="#E0E0E0"/>
<path d="M390.463 354.087C390.445 354.089 390.4 353.874 390.329 353.464C390.256 352.999 390.162 352.403 390.046 351.666C389.934 350.884 389.791 349.929 389.586 348.826C389.387 347.722 389.196 346.459 388.897 345.08C388.365 342.308 387.6 339.034 386.625 335.434C385.618 331.843 384.381 327.931 382.871 323.9C381.338 319.876 379.679 316.123 378.06 312.762C376.411 309.416 374.82 306.454 373.387 304.023C372.699 302.79 372.007 301.717 371.427 300.757C370.851 299.794 370.327 298.983 369.894 298.322C369.494 297.693 369.171 297.184 368.918 296.786C368.7 296.432 368.592 296.24 368.607 296.23C368.622 296.22 368.758 296.391 369.005 296.726C369.279 297.11 369.629 297.601 370.063 298.209C370.523 298.853 371.073 299.65 371.673 300.6C372.278 301.547 372.993 302.61 373.704 303.834C375.182 306.249 376.813 309.202 378.491 312.55C380.14 315.912 381.819 319.675 383.358 323.716C384.874 327.763 386.102 331.696 387.088 335.308C388.042 338.929 388.771 342.222 389.259 345.011C389.535 346.399 389.702 347.67 389.874 348.78C390.052 349.89 390.166 350.852 390.247 351.639C390.324 352.381 390.385 352.982 390.434 353.451C390.47 353.867 390.481 354.085 390.463 354.087Z" fill="#E0E0E0"/>
<path d="M429.843 346.126H364.523V359.444H429.843V346.126Z" fill="#E0E0E0"/>
<path d="M370.748 359.444L377.813 404.239H417.283L423.869 359.444H370.748Z" fill="#E0E0E0"/>
<path d="M425.838 359.444C425.838 359.588 413.481 359.704 398.242 359.704C382.997 359.704 370.643 359.587 370.643 359.444C370.643 359.301 382.997 359.184 398.242 359.184C413.482 359.183 425.838 359.3 425.838 359.444Z" fill="#EBEBEB"/>
<path d="M323.357 103.158C321.982 108.57 318.998 112.479 318.998 112.479L323.288 116.488L323.292 116.483L341.59 132.994L341.161 133.193C341.161 133.193 356.997 122.13 361.375 118.52C364.987 115.542 374.652 109.398 375.438 103.436C375.721 101.288 374.555 99.1468 372.602 98.2078C371.483 97.6698 370.025 97.4738 368.425 98.5408C368.425 98.5408 372.685 93.5468 369.317 90.2628C365.949 86.9788 363.318 89.5518 363.318 89.5518C363.318 89.5518 367.485 83.2018 363.617 79.6768C363.617 79.6768 361.163 77.5848 357.968 79.3818L359.538 77.7028L367.634 69.0408C369.604 66.9328 369.708 63.5808 367.673 61.5358C365.565 59.4168 362.146 59.4638 360.096 61.6018L337.296 85.3778L338.455 72.4198C338.747 69.0528 334.199 66.6128 332.178 67.8498C332.178 67.8498 329.072 69.0608 328.221 74.3328C327.585 78.2738 323.357 103.158 323.357 103.158Z" fill="#F5F5F5"/>
<path d="M323.358 103.158C323.358 103.158 323.375 102.937 323.438 102.511C323.507 102.065 323.603 101.437 323.728 100.621C323.999 98.9399 324.393 96.4959 324.9 93.3529C325.421 90.1889 326.056 86.3229 326.795 81.8309C327.168 79.5819 327.566 77.1769 327.989 74.6239C328.199 73.3439 328.5 71.9999 329.158 70.7629C329.793 69.5259 330.72 68.3489 332.105 67.6639L332.073 67.6799C332.877 67.2269 333.831 67.2619 334.671 67.4949C335.52 67.7399 336.317 68.1769 337.002 68.7709C337.682 69.3639 338.256 70.1369 338.528 71.0519C338.601 71.2769 338.621 71.5189 338.668 71.7539C338.677 71.9919 338.676 72.2369 338.671 72.4739C338.631 72.9279 338.591 73.3849 338.551 73.8439C338.228 77.5219 337.889 81.3829 337.536 85.3979L337.123 85.2099C343.48 78.5669 350.444 71.2899 357.852 63.5479C358.315 63.0639 358.78 62.5789 359.247 62.0909C359.71 61.6199 360.167 61.0759 360.77 60.6689C361.949 59.8549 363.459 59.5239 364.888 59.7799C366.32 60.0249 367.645 60.8659 368.481 62.0809C369.325 63.2949 369.614 64.8619 369.326 66.3159C369.186 67.0439 368.903 67.7459 368.502 68.3749C368.098 69.0209 367.557 69.5179 367.086 70.0389C366.111 71.0829 365.131 72.1319 364.145 73.1869C362.174 75.2959 360.184 77.4269 358.176 79.5759L357.828 79.1329C358.925 78.5169 360.368 78.1569 361.739 78.4979C362.3 78.6239 362.835 78.8419 363.329 79.1319C363.565 79.2689 363.834 79.4609 364.01 79.6829C364.194 79.9019 364.421 80.0889 364.567 80.3359C365.245 81.2659 365.545 82.4259 365.546 83.5399C365.523 85.7929 364.663 87.8559 363.555 89.7059L363.12 89.3479C364.228 88.3559 365.833 88.0549 367.189 88.5509C367.872 88.7719 368.46 89.1739 368.997 89.6039C369.253 89.8359 369.526 90.0419 369.744 90.3259L370.087 90.7269L370.354 91.1859C371.082 92.4359 370.967 93.9669 370.566 95.2309C370.142 96.5219 369.472 97.6759 368.636 98.7189L368.271 98.3079C369.429 97.4819 371.052 97.2399 372.37 97.8069C373.69 98.3249 374.754 99.3879 375.304 100.663C375.576 101.301 375.736 101.988 375.748 102.679C375.776 103.378 375.58 104.038 375.425 104.691C375.006 105.975 374.301 107.103 373.544 108.156C370.343 112.273 366.167 115.116 362.417 118.012C358.71 121.011 354.96 123.655 351.425 126.206C347.861 128.72 344.473 131.11 341.28 133.363L341.072 133.001C341.227 132.93 341.364 132.866 341.501 132.803L341.449 133.147C334.112 126.489 327.981 120.924 323.198 116.584L323.392 116.576L323.388 116.581L323.293 116.683L323.192 116.588C321.519 115.01 320.15 113.72 318.92 112.56L318.848 112.492L318.907 112.409C320.847 109.709 321.879 107.303 322.505 105.681C322.817 104.865 323.019 104.229 323.146 103.801C323.277 103.374 323.358 103.158 323.358 103.158C323.358 103.158 323.196 104.066 322.617 105.723C322.021 107.368 321.025 109.791 319.089 112.547L319.076 112.397C320.316 113.546 321.696 114.824 323.383 116.387L323.188 116.394L323.192 116.389L323.285 116.29L323.386 116.381C328.193 120.694 334.356 126.223 341.731 132.839L341.966 133.05L341.679 133.184C341.542 133.248 341.405 133.312 341.25 133.384L341.042 133.022C344.225 130.759 347.603 128.357 351.156 125.831C354.684 123.267 358.413 120.624 362.11 117.617C365.867 114.707 370.007 111.858 373.118 107.84C373.85 106.819 374.523 105.731 374.912 104.531C375.052 103.924 375.235 103.313 375.207 102.693C375.196 102.074 375.05 101.457 374.805 100.883C374.308 99.7349 373.349 98.7819 372.17 98.3219C370.997 97.8309 369.641 98.0289 368.58 98.7729L366.997 99.8829L368.214 98.3619C368.989 97.3939 369.646 96.2619 370.034 95.0649C370.406 93.8799 370.494 92.5319 369.86 91.4559C369.249 90.4109 368.174 89.5079 367.006 89.0869C365.834 88.6479 364.439 88.9369 363.516 89.7549L362.126 90.9869L363.081 89.3969C364.131 87.6489 364.966 85.6149 364.977 83.5459C365.014 81.4949 363.728 79.4189 361.614 79.0559C360.393 78.7519 359.118 79.0689 358.108 79.6319L356.521 80.5159L357.761 79.1899C359.769 77.0419 361.761 74.9119 363.732 72.8029C364.718 71.7489 365.699 70.6999 366.674 69.6569C367.16 69.1219 367.678 68.6429 368.028 68.0759C368.391 67.5079 368.648 66.8719 368.775 66.2129C369.036 64.8959 368.774 63.4869 368.021 62.4019C367.275 61.3149 366.079 60.5499 364.792 60.3309C363.505 60.0989 362.143 60.3959 361.081 61.1269C360.549 61.4819 360.122 61.9849 359.642 62.4739C359.175 62.9609 358.709 63.4459 358.245 63.9289C350.82 71.6549 343.841 78.9179 337.47 85.5479L336.995 86.0429L337.057 85.3599C337.423 81.3459 337.774 77.4859 338.109 73.8089C338.166 72.8789 338.384 71.9779 338.112 71.1749C337.874 70.3589 337.354 69.6469 336.724 69.0929C336.091 68.5379 335.343 68.1239 334.561 67.8949C333.784 67.6729 332.935 67.6619 332.284 68.0249L332.281 68.0269L332.252 68.0409C331.038 68.6339 330.097 69.7639 329.498 70.9419C328.86 72.1279 328.561 73.4209 328.346 74.6849C327.908 77.2359 327.494 79.6409 327.108 81.8879C326.332 86.3749 325.664 90.2369 325.117 93.3969C324.565 96.5319 324.135 98.9699 323.84 100.646C323.691 101.457 323.576 102.081 323.494 102.525C323.413 102.945 323.358 103.158 323.358 103.158Z" fill="#E0E0E0"/>
<path d="M335.779 139.689L313.237 118.62C311.524 117.019 311.433 114.333 313.034 112.62L313.238 112.402C314.839 110.689 317.525 110.598 319.238 112.199L341.78 133.268C343.493 134.869 343.584 137.555 341.983 139.268L341.779 139.486C340.178 141.199 337.492 141.29 335.779 139.689Z" fill="#F5F5F5"/>
<path d="M335.78 139.689C335.801 139.665 336.024 139.888 336.531 140.181C337.036 140.458 337.874 140.799 338.976 140.706C339.521 140.659 340.12 140.495 340.697 140.167C341.262 139.838 341.804 139.308 342.244 138.682C343.127 137.445 343.286 135.347 342.029 133.838C336.11 128.32 328.002 120.76 319.045 112.409C317.996 111.419 316.422 111.092 315.093 111.54C314.432 111.769 313.838 112.148 313.37 112.673C312.867 113.18 312.517 113.766 312.327 114.422C311.939 115.727 312.289 117.177 313.16 118.151C314.112 119.097 315.152 120.036 316.108 120.946C319.972 124.589 323.456 127.873 326.398 130.647C329.282 133.394 331.63 135.631 333.301 137.223C334.078 137.98 334.696 138.582 335.158 139.032C335.579 139.448 335.793 139.675 335.78 139.689C335.767 139.703 335.526 139.505 335.081 139.114C334.601 138.684 333.958 138.107 333.151 137.383C331.45 135.823 329.06 133.631 326.124 130.939C323.158 128.191 319.647 124.937 315.751 121.328C314.775 120.407 313.781 119.526 312.755 118.511C311.759 117.407 311.354 115.757 311.793 114.268C311.999 113.528 312.426 112.828 312.961 112.289C313.473 111.712 314.166 111.259 314.918 111.002C316.434 110.487 318.238 110.86 319.436 111.993C328.403 120.404 336.527 127.944 342.345 133.585C343.706 135.266 343.486 137.548 342.509 138.863C342.017 139.531 341.458 140.054 340.833 140.404C340.21 140.74 339.569 140.895 338.994 140.928C337.83 140.991 336.973 140.596 336.474 140.28C335.971 139.946 335.78 139.689 335.78 139.689Z" fill="#E0E0E0"/>
<path d="M349.525 88.03C349.41 87.923 351.266 85.75 353.67 83.179C356.074 80.606 358.116 78.609 358.231 78.716C358.346 78.823 356.49 80.995 354.086 83.568C351.682 86.139 349.639 88.137 349.525 88.03Z" fill="#E0E0E0"/>
<path d="M358.137 94.893C358.022 94.786 359.088 93.459 360.517 91.93C361.947 90.4 363.198 89.248 363.313 89.355C363.428 89.462 362.362 90.789 360.933 92.319C359.504 93.848 358.252 95 358.137 94.893Z" fill="#E0E0E0"/>
<path d="M363.274 104.058C363.159 103.951 364.225 102.624 365.654 101.094C367.084 99.5639 368.336 98.4119 368.45 98.5189C368.564 98.6259 367.499 99.9529 366.07 101.483C364.641 103.013 363.389 104.165 363.274 104.058Z" fill="#E0E0E0"/>
<path d="M362.349 55.8821C362.201 55.9361 361.074 53.1951 359.832 49.7611C358.589 46.3261 357.702 43.4991 357.85 43.4451C357.998 43.3921 359.125 46.1321 360.368 49.5671C361.61 53.0011 362.497 55.8291 362.349 55.8821Z" fill="#E0E0E0"/>
<path d="M368.303 57.331C368.173 57.243 370.202 54.027 372.834 50.149C375.467 46.27 377.707 43.198 377.837 43.286C377.967 43.374 375.939 46.59 373.305 50.469C370.673 54.347 368.433 57.42 368.303 57.331Z" fill="#E0E0E0"/>
<path d="M372.633 62.424C372.6 62.27 375.59 61.507 379.31 60.72C383.031 59.932 386.073 59.419 386.105 59.573C386.138 59.727 383.149 60.49 379.428 61.278C375.708 62.064 372.666 62.578 372.633 62.424Z" fill="#E0E0E0"/>
<path d="M85.9312 274.4L53.8242 404.225H62.2752L95.1752 274.4H85.9312Z" fill="#F5F5F5"/>
<path d="M146.409 274.4L176.451 404.225H167.999L137.166 274.4H146.409Z" fill="#F5F5F5"/>
<path d="M121.306 402.317H111.467L110.002 253.313H119.84L121.306 402.317Z" fill="#F5F5F5"/>
<path d="M184.336 165.804H45.5078V254.747H184.336V165.804Z" fill="#EBEBEB"/>
<path d="M149.8 273.036H80.1191V281.626H149.8V273.036Z" fill="#F5F5F5"/>
<path d="M54.7326 243.144C54.7656 243.144 54.7976 243.655 54.8276 244.771H54.6376C54.4946 240.421 54.3906 226.01 54.3906 208.932C54.4296 198.626 54.4646 189.3 54.4906 182.436C54.5356 179.116 54.5726 176.396 54.5996 174.407C54.6256 173.52 54.6466 172.798 54.6636 172.224C54.6856 171.725 54.7086 171.463 54.7326 171.463C54.7566 171.463 54.7796 171.725 54.8016 172.224C54.8186 172.798 54.8396 173.521 54.8656 174.407C54.8926 176.396 54.9296 179.116 54.9746 182.436C55.0006 189.301 55.0356 198.626 55.0746 208.932C55.0746 226.01 54.9706 240.422 54.8276 244.771H54.6376C54.6686 243.656 54.6996 243.144 54.7326 243.144Z" fill="#F5F5F5"/>
<path d="M65.0666 243.144C65.0996 243.144 65.1316 243.655 65.1616 244.771H64.9716C64.8286 240.421 64.7246 226.01 64.7246 208.932C64.7636 198.626 64.7986 189.3 64.8246 182.436C64.8696 179.116 64.9066 176.396 64.9336 174.407C64.9596 173.52 64.9806 172.798 64.9976 172.224C65.0196 171.725 65.0426 171.463 65.0666 171.463C65.0906 171.463 65.1136 171.725 65.1356 172.224C65.1526 172.798 65.1736 173.521 65.1996 174.407C65.2266 176.396 65.2636 179.116 65.3086 182.436C65.3346 189.301 65.3696 198.626 65.4086 208.932C65.4086 226.01 65.3046 240.422 65.1616 244.771H64.9716C65.0016 243.656 65.0336 243.144 65.0666 243.144Z" fill="#F5F5F5"/>
<path d="M75.3986 243.144C75.4316 243.144 75.4636 243.655 75.4936 244.771H75.3036C75.1606 240.421 75.0566 226.01 75.0566 208.932C75.0956 198.626 75.1306 189.3 75.1566 182.436C75.2016 179.116 75.2386 176.396 75.2656 174.407C75.2916 173.52 75.3126 172.798 75.3296 172.224C75.3516 171.725 75.3746 171.463 75.3986 171.463C75.4226 171.463 75.4456 171.725 75.4676 172.224C75.4846 172.798 75.5056 173.521 75.5316 174.407C75.5586 176.396 75.5956 179.116 75.6406 182.436C75.6666 189.301 75.7016 198.626 75.7406 208.932C75.7406 226.01 75.6366 240.422 75.4936 244.771H75.3036C75.3346 243.656 75.3666 243.144 75.3986 243.144Z" fill="#F5F5F5"/>
<path d="M85.7307 243.144C85.7637 243.144 85.7957 243.655 85.8257 244.771H85.6357C85.4927 240.421 85.3887 226.01 85.3887 208.932C85.4277 198.626 85.4627 189.3 85.4887 182.436C85.5337 179.116 85.5707 176.396 85.5977 174.407C85.6237 173.52 85.6447 172.798 85.6617 172.224C85.6837 171.725 85.7067 171.463 85.7307 171.463C85.7547 171.463 85.7777 171.725 85.7997 172.224C85.8167 172.798 85.8377 173.521 85.8637 174.407C85.8907 176.396 85.9277 179.116 85.9727 182.436C85.9987 189.301 86.0337 198.626 86.0727 208.932C86.0727 226.01 85.9687 240.422 85.8257 244.771H85.6357C85.6657 243.656 85.6977 243.144 85.7307 243.144Z" fill="#F5F5F5"/>
<path d="M96.0627 243.144C96.0957 243.144 96.1277 243.655 96.1577 244.771H95.9677C95.8247 240.421 95.7207 226.01 95.7207 208.932C95.7597 198.626 95.7947 189.3 95.8207 182.436C95.8657 179.116 95.9027 176.396 95.9297 174.407C95.9557 173.52 95.9767 172.798 95.9937 172.224C96.0157 171.725 96.0387 171.463 96.0627 171.463C96.0867 171.463 96.1097 171.725 96.1317 172.224C96.1487 172.798 96.1697 173.521 96.1957 174.407C96.2227 176.396 96.2597 179.116 96.3047 182.436C96.3307 189.301 96.3657 198.626 96.4047 208.932C96.4047 226.01 96.3007 240.422 96.1577 244.771H95.9677C95.9987 243.656 96.0307 243.144 96.0627 243.144Z" fill="#F5F5F5"/>
<path d="M106.397 243.144C106.43 243.144 106.462 243.655 106.492 244.771H106.302C106.159 240.421 106.055 226.01 106.055 208.932C106.094 198.626 106.129 189.3 106.155 182.436C106.2 179.116 106.237 176.396 106.264 174.407C106.29 173.52 106.311 172.798 106.328 172.224C106.35 171.725 106.373 171.463 106.397 171.463C106.421 171.463 106.444 171.725 106.466 172.224C106.483 172.798 106.504 173.521 106.53 174.407C106.557 176.396 106.594 179.116 106.639 182.436C106.665 189.301 106.7 198.626 106.739 208.932C106.739 226.01 106.635 240.422 106.492 244.771H106.302C106.332 243.656 106.364 243.144 106.397 243.144Z" fill="#F5F5F5"/>
<path d="M116.729 243.144C116.762 243.144 116.794 243.655 116.824 244.771H116.634C116.491 240.421 116.387 226.01 116.387 208.932C116.426 198.626 116.461 189.3 116.487 182.436C116.532 179.116 116.569 176.396 116.596 174.407C116.622 173.52 116.643 172.798 116.66 172.224C116.682 171.725 116.705 171.463 116.729 171.463C116.752 171.463 116.776 171.725 116.798 172.224C116.815 172.798 116.836 173.521 116.862 174.407C116.889 176.396 116.926 179.116 116.971 182.436C116.997 189.301 117.032 198.626 117.071 208.932C117.071 226.01 116.967 240.422 116.824 244.771H116.634C116.664 243.656 116.696 243.144 116.729 243.144Z" fill="#F5F5F5"/>
<path d="M127.061 243.144C127.094 243.144 127.126 243.655 127.156 244.771H126.966C126.823 240.421 126.719 226.01 126.719 208.932C126.758 198.626 126.793 189.3 126.819 182.436C126.864 179.116 126.901 176.396 126.928 174.407C126.954 173.52 126.975 172.798 126.992 172.224C127.014 171.725 127.037 171.463 127.061 171.463C127.084 171.463 127.108 171.725 127.13 172.224C127.147 172.798 127.168 173.521 127.194 174.407C127.221 176.396 127.258 179.116 127.303 182.436C127.329 189.301 127.364 198.626 127.403 208.932C127.403 226.01 127.299 240.422 127.156 244.771H126.966C126.996 243.656 127.028 243.144 127.061 243.144Z" fill="#F5F5F5"/>
<path d="M137.395 243.144C137.428 243.144 137.46 243.655 137.49 244.771H137.3C137.157 240.421 137.053 226.01 137.053 208.932C137.092 198.626 137.127 189.3 137.153 182.436C137.198 179.116 137.235 176.396 137.262 174.407C137.288 173.52 137.309 172.798 137.326 172.224C137.348 171.725 137.372 171.463 137.395 171.463C137.419 171.463 137.442 171.725 137.464 172.224C137.481 172.798 137.502 173.521 137.528 174.407C137.555 176.396 137.592 179.116 137.637 182.436C137.663 189.301 137.698 198.626 137.737 208.932C137.737 226.01 137.633 240.422 137.49 244.771H137.3C137.33 243.656 137.362 243.144 137.395 243.144Z" fill="#F5F5F5"/>
<path d="M147.727 243.144C147.76 243.144 147.792 243.655 147.822 244.771H147.632C147.489 240.421 147.385 226.01 147.385 208.932C147.424 198.626 147.459 189.3 147.485 182.436C147.53 179.116 147.567 176.396 147.594 174.407C147.62 173.52 147.641 172.798 147.658 172.224C147.68 171.725 147.703 171.463 147.727 171.463C147.751 171.463 147.774 171.725 147.796 172.224C147.813 172.798 147.834 173.521 147.86 174.407C147.887 176.396 147.924 179.116 147.969 182.436C147.995 189.301 148.03 198.626 148.069 208.932C148.069 226.01 147.965 240.422 147.822 244.771H147.632C147.662 243.656 147.694 243.144 147.727 243.144Z" fill="#F5F5F5"/>
<path d="M158.059 243.144C158.092 243.144 158.124 243.655 158.154 244.771H157.964C157.821 240.421 157.717 226.01 157.717 208.932C157.756 198.626 157.791 189.3 157.817 182.436C157.862 179.116 157.899 176.396 157.926 174.407C157.952 173.52 157.973 172.798 157.99 172.224C158.012 171.725 158.035 171.463 158.059 171.463C158.083 171.463 158.106 171.725 158.128 172.224C158.145 172.798 158.166 173.521 158.192 174.407C158.219 176.396 158.256 179.116 158.301 182.436C158.327 189.301 158.362 198.626 158.401 208.932C158.401 226.01 158.297 240.422 158.154 244.771H157.964C157.994 243.656 158.026 243.144 158.059 243.144Z" fill="#F5F5F5"/>
<path d="M168.391 243.144C168.424 243.144 168.456 243.655 168.486 244.771H168.296C168.153 240.421 168.049 226.01 168.049 208.932C168.088 198.626 168.123 189.3 168.149 182.436C168.194 179.116 168.231 176.396 168.258 174.407C168.284 173.52 168.305 172.798 168.322 172.224C168.344 171.725 168.367 171.463 168.391 171.463C168.415 171.463 168.438 171.725 168.46 172.224C168.477 172.798 168.498 173.521 168.524 174.407C168.551 176.396 168.588 179.116 168.633 182.436C168.659 189.301 168.694 198.626 168.733 208.932C168.733 226.01 168.629 240.422 168.486 244.771H168.296C168.326 243.656 168.358 243.144 168.391 243.144Z" fill="#F5F5F5"/>
<path d="M178.723 243.144C178.756 243.144 178.788 243.655 178.818 244.771H178.628C178.485 240.421 178.381 226.01 178.381 208.932C178.42 198.626 178.455 189.3 178.481 182.436C178.526 179.116 178.563 176.396 178.59 174.407C178.616 173.52 178.637 172.798 178.654 172.224C178.676 171.725 178.699 171.463 178.723 171.463C178.746 171.463 178.77 171.725 178.792 172.224C178.809 172.798 178.83 173.521 178.856 174.407C178.883 176.396 178.92 179.116 178.965 182.436C178.991 189.301 179.026 198.626 179.065 208.932C179.065 226.01 178.961 240.422 178.818 244.771H178.628C178.658 243.656 178.69 243.144 178.723 243.144Z" fill="#F5F5F5"/>
<path d="M283.688 102.27L275.893 172.463C274.567 184.4 270.181 201.664 251.404 198.707C235.306 194.913 232.887 178.931 234.135 167.793C234.727 162.51 235.21 158.102 235.235 157.556C235.235 157.556 217.553 153.891 218.226 136.061C218.552 127.445 220.667 109.753 222.767 93.7701C225.021 76.6041 240.1 64.0591 257.391 64.9261L259.11 65.0121C277.595 67.0251 286.212 83.8481 283.688 102.27Z" fill="#936760"/>
<path d="M235.236 157.556C235.236 157.556 246.434 158.778 258.78 151.861C258.78 151.861 252.468 164.592 234.768 162.095L235.236 157.556Z" fill="#6F4C47"/>
<path d="M252.039 104.73C252.346 105.13 254.585 103.742 257.552 104.028C260.519 104.27 262.545 106.037 262.903 105.695C263.077 105.545 262.793 104.847 261.913 104.051C261.047 103.259 259.521 102.426 257.672 102.261C255.823 102.099 254.202 102.649 253.241 103.28C252.259 103.912 251.886 104.549 252.039 104.73Z" fill="#263238"/>
<path d="M251.371 110.855C251.263 112.124 252.247 113.262 253.57 113.4C254.89 113.537 256.051 112.623 256.16 111.354C256.269 110.086 255.284 108.946 253.963 108.808C252.641 108.67 251.48 109.586 251.371 110.855Z" fill="#263238"/>
<path d="M242.091 124.376C242.112 124.221 240.424 123.841 237.684 123.351C236.988 123.244 236.334 123.072 236.24 122.589C236.1 122.075 236.431 121.336 236.811 120.54C237.553 118.881 238.33 117.142 239.146 115.319C242.398 107.882 244.789 101.754 244.489 101.625C244.188 101.497 241.308 107.42 238.057 114.856C237.272 116.691 236.521 118.439 235.807 120.113C235.503 120.894 235.003 121.773 235.307 122.839C235.469 123.371 235.963 123.776 236.405 123.918C236.847 124.078 237.24 124.105 237.585 124.143C240.352 124.432 242.073 124.531 242.091 124.376Z" fill="#263238"/>
<path d="M254.669 93.7721C254.873 94.4631 257.301 94.2621 260.116 94.7581C262.942 95.1941 265.184 96.1671 265.59 95.5771C265.772 95.2941 265.406 94.6351 264.515 93.9311C263.632 93.2291 262.202 92.5321 260.511 92.2511C258.82 91.9741 257.248 92.1751 256.195 92.5571C255.133 92.9371 254.583 93.4441 254.669 93.7721Z" fill="#263238"/>
<path d="M226.883 93.7672C227.127 94.3402 229.507 94.0322 232.313 94.2912C235.125 94.5002 237.395 95.1952 237.759 94.6732C237.921 94.4232 237.52 93.8872 236.598 93.3412C235.685 92.7972 234.232 92.2882 232.548 92.1472C230.864 92.0092 229.328 92.2682 228.312 92.6512C227.288 93.0342 226.777 93.4952 226.883 93.7672Z" fill="#263238"/>
<path d="M281.571 115.39C281.882 115.274 293.996 112.383 292.995 124.545C291.995 136.707 279.991 133.194 279.998 132.844C280.007 132.494 281.571 115.39 281.571 115.39Z" fill="#936760"/>
<path d="M284.092 128.542C284.149 128.508 284.292 128.708 284.636 128.901C284.972 129.089 285.564 129.249 286.217 129.064C287.54 128.698 288.79 126.747 289.03 124.56C289.152 123.456 289.007 122.383 288.686 121.478C288.388 120.558 287.864 119.889 287.226 119.721C286.595 119.519 286.105 119.869 285.928 120.199C285.737 120.525 285.794 120.775 285.728 120.79C285.691 120.817 285.484 120.565 285.623 120.07C285.693 119.833 285.859 119.557 286.164 119.347C286.476 119.134 286.915 119.048 287.361 119.134C288.294 119.276 289.067 120.208 289.419 121.202C289.823 122.204 290.012 123.412 289.875 124.652C289.595 127.097 288.152 129.286 286.352 129.65C285.478 129.803 284.786 129.486 284.441 129.169C284.09 128.838 284.048 128.56 284.092 128.542Z" fill="#6F4C47"/>
<path d="M243.909 133.108C243.815 132.786 246.273 132.369 248.215 130.351C249.184 129.359 249.811 128.225 250.28 127.398C250.742 126.563 251.077 126.045 251.203 126.101C251.321 126.155 251.218 126.746 250.905 127.677C250.586 128.597 250.007 129.897 248.91 131.024C247.825 132.165 246.486 132.761 245.526 133.008C244.556 133.269 243.928 133.215 243.909 133.108Z" fill="#263238"/>
<path d="M226.01 100.898C226.317 101.298 228.556 99.9101 231.523 100.196C234.49 100.438 236.516 102.205 236.874 101.863C237.048 101.712 236.764 101.015 235.884 100.22C235.018 99.4281 233.492 98.5951 231.643 98.4301C229.794 98.2681 228.173 98.8181 227.212 99.4491C226.23 100.08 225.857 100.718 226.01 100.898Z" fill="#263238"/>
<path d="M225.801 107.693C225.693 108.962 226.677 110.1 228 110.238C229.32 110.376 230.481 109.461 230.59 108.192C230.699 106.924 229.714 105.784 228.393 105.646C227.07 105.508 225.91 106.425 225.801 107.693Z" fill="#263238"/>
<path d="M291.181 104.507C290.286 107.9 288.168 115.634 285.134 114.944C279.12 113.575 279.491 123.202 276.593 122.068C273.736 120.95 273.013 113.288 273.336 110.237C274.343 100.712 277.998 93.865 273.972 82.988C271.344 78.648 266.773 75.7571 261.699 75.7571C256.625 75.7561 251.784 78.437 249.155 82.7771C248.54 79.4491 246.798 74.449 243.785 72.909C240.772 71.368 236.804 71.65 234.292 73.918C231.78 76.186 231.176 80.419 233.257 83.088C231.904 83.563 230.264 83.015 229.467 81.823C229.378 83.383 229.97 84.9711 231.06 86.0911C229.832 85.8111 228.714 85.07 227.977 84.047C228.306 85.423 228.635 86.7981 228.964 88.1741C223.926 88.4241 218.88 83.6571 217.38 79.3461C215.106 72.8111 216.59 66.1331 220.133 60.1911C223.677 54.2491 230.17 49.9691 237.088 49.8721C244.006 49.7751 249.874 52.919 252.69 59.239C257.106 55.958 266.174 54.648 271.233 56.807C276.292 58.967 280.04 63.937 280.726 69.395C283.826 67.998 287.609 68.9411 290.297 71.0241C290.521 71.1981 290.739 71.3781 290.95 71.5641C294.645 74.8211 296.243 79.869 295.431 84.727C295.109 86.654 294.492 88.6541 294.137 90.2021C293.081 94.8001 291.181 104.507 291.181 104.507Z" fill="#263238"/>
<path d="M228.673 81.532C228.661 81.546 228.521 81.44 228.264 81.223C228.007 81.008 227.645 80.662 227.248 80.158C226.443 79.175 225.48 77.494 225.158 75.197C224.823 72.948 225.28 69.95 227.332 67.6C229.293 65.271 232.662 63.568 236.245 63.996C238.014 64.203 239.654 64.873 241.058 65.756C242.466 66.642 243.664 67.729 244.645 68.888C246.632 71.2 247.798 73.743 248.418 75.939C249.048 78.145 249.151 80.016 249.129 81.287C249.1 81.925 249.071 82.418 249.017 82.75C248.973 83.082 248.942 83.255 248.924 83.253C248.78 83.27 249.363 80.385 248.065 76.043C247.412 73.901 246.236 71.434 244.282 69.202C242.368 66.995 239.569 64.928 236.183 64.514C232.806 64.106 229.584 65.709 227.695 67.913C225.724 70.131 225.247 72.967 225.522 75.152C225.787 77.375 226.668 79.037 227.408 80.036C228.155 81.049 228.712 81.491 228.673 81.532Z" fill="#455A64"/>
<path d="M226.487 86.8531C226.471 86.8621 226.344 86.6671 226.117 86.2871C225.891 85.9071 225.562 85.3441 225.156 84.6081C224.359 83.1331 223.166 80.9901 222.236 78.1061C221.785 76.6651 221.422 75.0271 221.35 73.2381C221.283 71.4571 221.486 69.5071 222.243 67.6201C222.985 65.7331 224.355 63.9781 226.17 62.7211C227.986 61.4711 230.192 60.6511 232.52 60.4551C234.851 60.2451 237.14 60.6501 239.203 61.3661C241.268 62.0971 243.123 63.1471 244.729 64.3461C247.952 66.7441 250.106 69.8921 250.886 72.8431C251.69 75.8011 251.28 78.3531 250.702 79.9271C250.422 80.7291 250.083 81.2981 249.861 81.6811C249.612 82.0501 249.474 82.2371 249.459 82.2271C249.405 82.1971 249.991 81.4481 250.51 79.8621C251.019 78.2991 251.358 75.8031 250.532 72.9431C249.73 70.0921 247.609 67.0551 244.443 64.7311C241.317 62.4271 237.094 60.5961 232.566 60.9741C230.328 61.1621 228.204 61.9491 226.461 63.1401C224.718 64.3411 223.412 65.9971 222.688 67.8001C221.951 69.6021 221.736 71.4881 221.782 73.2231C221.834 74.9671 222.167 76.5711 222.589 77.9981C223.459 80.8521 224.596 83.0131 225.336 84.5131C225.696 85.2231 225.986 85.7951 226.21 86.2361C226.407 86.6321 226.503 86.8441 226.487 86.8531Z" fill="#455A64"/>
<path d="M286.85 96.9861C286.786 96.9111 287.915 96.0781 289.307 94.3441C290.697 92.6311 292.276 89.9031 292.888 86.5741C293.499 83.2431 292.991 80.1321 292.299 78.0371C291.613 75.9211 290.854 74.7421 290.94 74.6951C290.967 74.6781 291.182 74.9551 291.508 75.4951C291.836 76.0351 292.253 76.8541 292.647 77.9171C293.444 80.0241 294.031 83.2271 293.4 86.6671C292.768 90.1061 291.083 92.8911 289.59 94.5791C288.844 95.4331 288.163 96.0511 287.665 96.4391C287.168 96.8291 286.869 97.0111 286.85 96.9861Z" fill="#455A64"/>
<path d="M276.116 96.8949C276.093 96.8449 276.699 96.6199 277.616 95.9619C278.516 95.3079 279.747 94.1479 280.503 92.3159L280.973 91.1789L280.891 92.4089C280.78 94.0689 280.653 95.9829 280.514 98.0569L280.125 97.8359C281.493 96.8609 282.815 95.5549 283.886 93.9799C285.252 91.9899 286.059 89.7789 286.374 87.7169C286.686 85.6469 286.539 83.7349 286.213 82.1849C285.541 79.0619 284.327 77.4029 284.436 77.3549C284.451 77.3449 284.53 77.4429 284.665 77.6379C284.806 77.8299 284.987 78.1299 285.21 78.5249C285.646 79.3159 286.188 80.5239 286.572 82.1049C286.952 83.6819 287.144 85.6449 286.848 87.7869C286.549 89.9219 285.727 92.2159 284.315 94.2739C283.208 95.9019 281.833 97.2479 280.408 98.2419L279.976 98.5439L280.019 98.0209C280.191 95.9489 280.349 94.0379 280.487 92.3799L280.874 92.4729C280.032 94.3809 278.705 95.5339 277.742 96.1499C277.254 96.4619 276.844 96.6499 276.562 96.7639C276.278 96.8709 276.123 96.9129 276.116 96.8949Z" fill="#455A64"/>
<path d="M272.277 72.1741C272.175 72.2491 271.633 70.5101 269.472 68.8381C268.403 68.0261 266.939 67.2711 265.19 66.9651C263.448 66.6491 261.44 66.8571 259.533 67.6091C257.626 68.3721 256.021 69.5781 254.86 70.9271C253.685 72.2721 252.912 73.7121 252.396 74.9631C251.387 77.4951 251.316 79.2301 251.21 79.2101C251.181 79.2081 251.171 78.7791 251.267 78.0111C251.363 77.2451 251.579 76.1381 252.053 74.8301C252.537 73.5311 253.298 72.0271 254.497 70.6141C255.683 69.1961 257.35 67.9221 259.342 67.1251C261.334 66.3391 263.447 66.1341 265.276 66.4931C267.11 66.8421 268.619 67.6691 269.7 68.5491C270.78 69.4441 271.453 70.3771 271.821 71.0601C272.003 71.4041 272.13 71.6771 272.194 71.8721C272.265 72.0641 272.293 72.1671 272.277 72.1741Z" fill="#455A64"/>
<path d="M269.315 63.25C269.264 63.349 268.151 62.507 266.039 62.073C263.967 61.622 260.827 61.771 257.98 63.401C255.136 65.046 253.35 67.58 252.391 69.485C251.414 71.412 251.117 72.742 251.023 72.715C250.992 72.708 251.035 72.37 251.183 71.774C251.329 71.178 251.603 70.328 252.06 69.324C252.953 67.338 254.749 64.668 257.72 62.949C260.703 61.24 263.993 61.151 266.119 61.713C267.195 61.985 268.018 62.362 268.544 62.684C269.073 63.002 269.332 63.226 269.315 63.25Z" fill="#455A64"/>
<path d="M197.263 340.228L309.021 341.751C309.021 341.751 340.275 328.673 348.861 328.321C357.447 327.969 374.491 329.061 382.375 341.751C390.524 354.867 391.663 378.007 366.549 394.824C342.094 411.2 230.261 426.332 214.93 424.94L186.671 387.008C186.671 387.008 186.375 355.921 186.671 354.44C186.967 352.96 191.704 339.637 191.704 339.637L197.263 340.228Z" fill="#263238"/>
<path d="M264.164 392.707L322.068 414.215L295.677 486.392C288.937 483.449 288.747 441.047 288.747 441.047L251.082 428.789L264.164 392.707Z" fill="#FF6D38"/>
<g opacity="0.6">
<path d="M293.78 417.586C294.673 416.329 296.597 415.938 297.89 416.778C299.183 417.618 299.597 419.57 298.727 420.843C297.856 422.116 295.561 422.656 294.371 421.676C293.18 420.696 292.819 418.377 293.97 417.35" fill="white"/>
</g>
<path d="M322.068 414.215L316.223 412.044L293.057 482.203C293.057 482.203 293.28 485.928 295.676 486.392L322.068 414.215Z" fill="#263238"/>
<path d="M287.954 442.083C288.31 442.2 289.114 440.496 290.882 439.177C292.615 437.811 294.468 437.475 294.447 437.1C294.497 436.75 292.198 436.505 290.087 438.141C287.961 439.757 287.602 442.041 287.954 442.083Z" fill="#263238"/>
<path d="M288.317 450.798C288.629 451.004 289.786 449.696 291.715 449.045C293.624 448.336 295.347 448.623 295.459 448.267C295.635 447.956 293.66 446.957 291.278 447.814C288.889 448.649 287.983 450.668 288.317 450.798Z" fill="#263238"/>
<path d="M295.804 458.411C295.996 458.118 294.414 456.984 292.154 457.183C289.891 457.366 288.522 458.75 288.761 459.006C288.978 459.311 290.405 458.62 292.264 458.484C294.118 458.306 295.641 458.748 295.804 458.411Z" fill="#263238"/>
<path d="M279.678 438.337C280.053 438.307 280.158 436.512 281.022 434.57C281.846 432.61 283.082 431.304 282.847 431.01C282.667 430.713 280.809 431.75 279.823 434.052C278.821 436.345 279.338 438.409 279.678 438.337Z" fill="#263238"/>
<path d="M271.744 433.487C271.888 433.544 272.615 432.231 273.047 429.865C273.26 428.688 273.375 427.25 273.268 425.659C273.214 424.864 273.104 424.031 272.926 423.18C272.834 422.77 272.762 422.296 272.475 421.778C272.25 421.253 271.397 420.689 270.659 420.931C269.969 421.098 269.491 421.664 269.289 422.18C269.077 422.706 269.026 423.176 268.981 423.604C268.882 424.479 268.873 425.33 268.93 426.134C269.053 427.742 269.437 429.153 269.899 430.267C270.837 432.509 271.945 433.562 272.057 433.466C272.232 433.349 271.426 432.13 270.769 429.958C270.443 428.875 270.181 427.549 270.131 426.07C270.111 425.33 270.143 424.554 270.25 423.76C270.328 422.922 270.561 422.27 270.973 422.198C271.129 422.174 271.183 422.184 271.348 422.425C271.494 422.665 271.583 423.049 271.675 423.454C271.858 424.245 271.985 425.02 272.068 425.763C272.232 427.251 272.219 428.61 272.129 429.747C271.952 432.027 271.551 433.423 271.744 433.487Z" fill="#263238"/>
<path d="M272.415 433.213C272.515 433.108 271.508 431.947 269.272 430.983C268.162 430.509 266.747 430.125 265.134 430.029C264.328 429.986 263.476 430.017 262.603 430.147C261.735 430.309 260.592 430.476 259.935 431.786C259.647 432.49 259.988 433.287 260.391 433.664C260.792 434.081 261.194 434.282 261.581 434.52C262.376 434.961 263.208 435.247 264.015 435.412C265.634 435.747 267.142 435.585 268.314 435.234C270.7 434.508 271.659 433.191 271.55 433.117C271.416 432.935 270.287 433.915 268.095 434.337C267.014 434.545 265.672 434.591 264.28 434.238C263.585 434.064 262.88 433.795 262.215 433.408C261.489 433.015 260.975 432.501 261.159 432.242C261.284 431.881 262.085 431.482 262.805 431.411C263.588 431.277 264.358 431.224 265.092 431.232C266.562 431.257 267.883 431.516 268.955 431.851C271.109 432.526 272.291 433.385 272.415 433.213Z" fill="#263238"/>
<path d="M216.4 383.788L160.365 409.779L192.345 479.66C198.833 476.196 195.691 433.911 195.691 433.911L232.277 418.731L216.4 383.788Z" fill="#FF6D38"/>
<g opacity="0.6">
<path d="M188.831 410.917C187.842 409.734 185.894 409.496 184.671 410.435C183.448 411.374 183.189 413.353 184.156 414.554C185.124 415.754 187.454 416.112 188.564 415.042C189.674 413.972 189.852 411.631 188.624 410.698" fill="white"/>
</g>
<path d="M160.365 409.78L166.021 407.157L194.628 475.279C194.628 475.279 194.698 479.01 192.346 479.661L160.365 409.78Z" fill="#263238"/>
<path d="M196.566 434.881C196.22 435.026 195.284 433.39 193.418 432.214C191.583 430.988 189.709 430.799 189.701 430.423C189.623 430.078 191.896 429.654 194.13 431.118C196.377 432.562 196.913 434.811 196.566 434.881Z" fill="#263238"/>
<path d="M196.888 443.598C196.593 443.828 195.337 442.615 193.363 442.117C191.404 441.56 189.71 441.982 189.569 441.636C189.369 441.34 191.259 440.189 193.701 440.856C196.149 441.5 197.211 443.442 196.888 443.598Z" fill="#263238"/>
<path d="M190.021 451.775C189.806 451.498 191.294 450.243 193.564 450.264C195.835 450.269 197.308 451.541 197.09 451.815C196.898 452.136 195.421 451.559 193.557 451.57C191.694 451.538 190.21 452.099 190.021 451.775Z" fill="#263238"/>
<path d="M204.521 430.496C204.145 430.495 203.899 428.714 202.885 426.846C201.909 424.957 200.575 423.752 200.786 423.44C200.942 423.13 202.876 424.017 204.039 426.235C205.219 428.443 204.865 430.542 204.521 430.496Z" fill="#263238"/>
<path d="M212.05 425.038C211.911 425.107 211.083 423.854 210.466 421.53C210.161 420.373 209.933 418.949 209.915 417.354C209.907 416.557 209.95 415.719 210.061 414.856C210.121 414.44 210.155 413.962 210.401 413.423C210.584 412.882 211.39 412.253 212.144 412.436C212.845 412.548 213.366 413.075 213.608 413.574C213.861 414.082 213.948 414.547 214.027 414.97C214.195 415.835 214.27 416.682 214.277 417.488C214.28 419.101 214.009 420.537 213.635 421.684C212.876 423.992 211.854 425.129 211.735 425.043C211.551 424.94 212.259 423.662 212.743 421.445C212.983 420.34 213.14 418.997 213.073 417.519C213.035 416.78 212.942 416.009 212.772 415.226C212.628 414.397 212.345 413.765 211.929 413.726C211.772 413.714 211.718 413.728 211.573 413.982C211.446 414.233 211.388 414.623 211.328 415.034C211.208 415.837 211.142 416.619 211.117 417.366C211.07 418.862 211.191 420.216 211.369 421.343C211.729 423.599 212.238 424.959 212.05 425.038Z" fill="#263238"/>
<path d="M211.358 424.817C211.25 424.72 212.163 423.484 214.316 422.347C215.386 421.788 216.766 421.293 218.366 421.071C219.166 420.965 220.018 420.928 220.899 420.99C221.777 421.084 222.93 421.16 223.688 422.414C224.03 423.094 223.753 423.915 223.381 424.322C223.014 424.77 222.629 425.001 222.262 425.269C221.504 425.771 220.697 426.122 219.906 426.35C218.318 426.811 216.802 426.768 215.607 426.51C213.171 425.973 212.112 424.736 212.215 424.654C212.334 424.462 213.537 425.35 215.755 425.598C216.849 425.72 218.19 425.661 219.55 425.2C220.229 424.972 220.911 424.648 221.543 424.21C222.236 423.761 222.707 423.208 222.504 422.965C222.351 422.615 221.521 422.28 220.798 422.266C220.007 422.194 219.235 422.202 218.504 422.267C217.041 422.407 215.744 422.769 214.701 423.188C212.606 424.03 211.495 424.979 211.358 424.817Z" fill="#263238"/>
<path d="M191.705 339.636C191.705 339.636 143.445 321.612 125.681 323.944C115.748 325.248 100.219 332.826 99.0346 345.557C97.8506 358.288 100.958 375.318 118.13 383.608C135.302 391.898 203.839 422.654 220.123 427.392C236.407 432.129 277.007 443.222 277.007 443.222L292.433 399.266C292.433 399.266 208.285 370.131 203.844 366.874C199.403 363.617 188.152 359.176 188.152 359.176L191.705 339.636Z" fill="#263238"/>
<path d="M359.467 345.613C359.464 345.621 359.351 345.592 359.132 345.526C358.888 345.452 358.568 345.355 358.163 345.232C357.311 344.976 356.051 344.607 354.409 344.216C352.767 343.831 350.741 343.394 348.36 343.164C345.979 342.928 343.241 342.916 340.24 343.174C337.242 343.438 333.966 343.98 330.582 345.014C328.893 345.533 327.171 346.165 325.488 347.002C323.784 347.833 322.031 348.689 320.234 349.566C313.014 353.017 304.952 356.55 296.364 359.942C279.167 366.832 262.659 370.102 250.891 372.776C244.986 374.082 240.213 375.157 236.923 375.94C235.302 376.324 234.032 376.625 233.134 376.837C232.721 376.93 232.395 377.004 232.146 377.06C231.923 377.108 231.807 377.128 231.805 377.119C231.803 377.11 231.914 377.073 232.133 377.009C232.379 376.94 232.701 376.85 233.109 376.736C233.969 376.506 235.235 376.153 236.876 375.743C240.153 374.9 244.916 373.769 250.812 372.417C262.566 369.65 279.03 366.328 296.175 359.458C304.752 356.07 312.809 352.555 320.03 349.133C321.828 348.264 323.583 347.416 325.287 346.592C327.002 345.749 328.748 345.118 330.459 344.601C333.884 343.573 337.189 343.049 340.211 342.807C343.237 342.57 345.994 342.608 348.391 342.874C350.792 343.135 352.819 343.602 354.459 344.019C356.1 344.441 357.354 344.842 358.197 345.131C358.595 345.274 358.911 345.388 359.151 345.475C359.363 345.559 359.47 345.605 359.467 345.613Z" fill="#455A64"/>
<path d="M356.93 339.251C356.913 339.335 355.461 339.072 353.098 338.817C350.736 338.56 347.453 338.367 343.835 338.549C340.216 338.739 336.97 339.268 334.647 339.766C332.322 340.262 330.905 340.672 330.879 340.59C330.868 340.556 331.212 340.419 331.844 340.201C332.475 339.977 333.404 339.703 334.563 339.407C336.88 338.814 340.152 338.221 343.808 338.029C347.463 337.845 350.778 338.099 353.144 338.452C354.328 338.627 355.28 338.805 355.93 338.962C356.582 339.115 356.938 339.216 356.93 339.251Z" fill="#455A64"/>
<path d="M171.402 352.401C171.346 352.474 170.009 351.437 167.696 350.005C165.388 348.57 162.053 346.81 158.144 345.424C154.23 344.049 150.528 343.327 147.831 342.995C145.132 342.659 143.441 342.627 143.443 342.534C143.443 342.498 143.866 342.478 144.632 342.472C145.398 342.457 146.507 342.506 147.872 342.629C150.601 342.869 154.36 343.542 158.318 344.933C162.271 346.334 165.62 348.169 167.895 349.695C169.035 350.456 169.929 351.114 170.516 351.606C171.108 352.092 171.425 352.373 171.402 352.401Z" fill="#455A64"/>
<path d="M195.62 417.96C195.62 417.96 195.75 418.003 195.997 418.104C196.257 418.213 196.619 418.365 197.093 418.564C198.065 418.956 199.469 419.623 201.357 420.347C205.115 421.839 210.671 423.883 217.795 426.226C232.05 430.884 252.543 436.819 277.063 442.995L276.786 443.143C281.356 430.457 286.4 416.458 291.705 401.731L291.85 402.057C285.932 399.628 279.703 397.07 273.374 394.472C232.647 377.71 196.045 362.646 171.138 352.396L171.103 352.382L171.078 352.355C166.917 347.949 163.088 344.069 159.499 340.935C155.909 337.804 152.609 335.386 149.792 333.621C146.99 331.827 144.677 330.697 143.132 329.906C142.355 329.543 141.76 329.266 141.343 329.071C140.942 328.881 140.742 328.772 140.742 328.772C140.742 328.772 140.955 328.85 141.363 329.025C141.784 329.209 142.387 329.472 143.174 329.816C144.735 330.579 147.067 331.685 149.893 333.459C152.733 335.204 156.061 337.608 159.678 340.728C163.295 343.85 167.152 347.723 171.33 352.114L171.27 352.073C196.193 362.285 232.818 377.292 273.571 393.99C279.899 396.59 286.128 399.148 292.045 401.579L292.274 401.673L292.19 401.905C286.869 416.627 281.811 430.62 277.228 443.302L277.155 443.503L276.95 443.451C252.427 437.231 231.947 431.231 217.707 426.493C210.591 424.11 205.045 422.023 201.302 420.485C199.421 419.739 198.025 419.048 197.063 418.633C196.596 418.419 196.238 418.256 195.982 418.139C195.739 418.026 195.62 417.96 195.62 417.96Z" fill="#455A64"/>
<path d="M314.903 185.833C314.903 185.833 328.798 193.838 331.614 203.243C333.324 208.953 346.286 282.007 348.337 296.412C350.407 310.956 346.061 321.489 339.918 326.267C333.775 331.045 315.153 337.412 315.153 337.412L288.955 345.898L281.447 326.787L306.386 290.962L303.973 266.829L314.903 185.833Z" fill="#FF6D38"/>
<path d="M287.59 173.21L277.145 167.25C277.145 167.25 267.636 178.374 254.667 177.008C241.698 175.643 234.018 165.717 234.018 165.717L195.344 173.592C192.749 174.112 188.016 175.752 183.491 182.217C178.442 189.431 154.512 221.418 154.512 221.418H137.751C133.132 221.418 128.889 223.972 126.74 228.061C123.879 233.508 120.444 240.793 120.779 243.811C121.346 248.913 120.362 262.924 127.206 267.298C129.377 268.685 137.142 272.847 143.168 272.563C152.059 272.144 162.386 267.514 168.336 263.354C173.374 259.831 185.092 247.653 189.599 242.9L189.593 242.974L192.487 344.432L293.889 341.544L314.903 185.831C314.903 185.833 288.614 173.21 287.59 173.21Z" fill="#FF6D38"/>
<path d="M189.239 200.396C189.383 200.394 189.648 212.97 189.831 228.481C190.014 243.997 190.046 256.573 189.902 256.575C189.758 256.577 189.493 244.004 189.31 228.488C189.127 212.976 189.095 200.397 189.239 200.396Z" fill="#263238"/>
<path d="M327.18 282.412C327.185 282.464 326.32 282.55 324.788 282.842C323.254 283.122 321.064 283.729 318.509 284.841C315.949 285.943 313.081 287.655 310.148 289.891C307.218 292.133 304.25 294.919 301.341 298.036C298.439 301.166 295.794 304.265 293.304 307.015C290.819 309.768 288.488 312.173 286.397 314.051C284.311 315.934 282.507 317.327 281.205 318.206C280.568 318.665 280.034 318.965 279.687 319.188C279.334 319.403 279.145 319.509 279.135 319.494C279.125 319.479 279.296 319.344 279.629 319.1C279.957 318.849 280.47 318.523 281.086 318.041C282.346 317.116 284.104 315.687 286.146 313.78C288.194 311.878 290.486 309.459 292.946 306.694C295.411 303.933 298.045 300.823 300.959 297.68C303.883 294.547 306.884 291.75 309.857 289.508C312.832 287.273 315.754 285.573 318.362 284.502C320.965 283.42 323.194 282.863 324.75 282.642C325.522 282.489 326.138 282.485 326.548 282.435C326.962 282.403 327.178 282.394 327.18 282.412Z" fill="#263238"/>
<path d="M329.475 275.54C329.489 275.634 327.94 275.847 325.524 276.517C323.11 277.181 319.845 278.4 316.558 280.35C313.276 282.313 310.65 284.603 308.916 286.41C307.176 288.216 306.252 289.476 306.176 289.419C306.147 289.398 306.357 289.069 306.764 288.489C307.162 287.904 307.803 287.102 308.647 286.158C310.329 284.267 312.96 281.894 316.291 279.902C319.628 277.921 322.967 276.738 325.431 276.16C326.663 275.867 327.673 275.685 328.377 275.614C329.081 275.532 329.47 275.504 329.475 275.54Z" fill="#263238"/>
<g opacity="0.3">
<path d="M140.748 257.731C146.115 259.194 152.562 251.47 157.437 246.638C159.973 244.124 162.61 241.442 163.544 237.995C164.316 235.148 163.812 232.075 162.701 229.342C161.59 226.609 160.804 224.838 159.132 222.408C159.582 226.575 160.607 232.96 159.205 238.198C158.036 242.566 155.267 246.042 152.332 249.339C149.224 252.829 145.55 256.491 140.748 257.731Z" fill="black"/>
</g>
<path d="M163.697 253.313C163.596 253.281 164.218 251.544 164.721 248.633C164.983 247.18 165.155 245.428 165.213 243.481C165.237 241.533 165.127 239.389 164.788 237.165C164.425 234.945 163.869 232.871 163.246 231.024C162.59 229.189 161.887 227.575 161.19 226.274C159.815 223.66 158.688 222.2 158.774 222.138C158.803 222.116 159.094 222.471 159.599 223.135C159.857 223.463 160.159 223.874 160.469 224.379C160.784 224.88 161.172 225.435 161.514 226.099C162.26 227.392 163.009 229.012 163.699 230.864C164.356 232.727 164.935 234.83 165.303 237.084C165.647 239.341 165.744 241.519 165.693 243.494C165.608 245.468 165.394 247.239 165.083 248.7C164.962 249.437 164.764 250.085 164.619 250.658C164.479 251.234 164.319 251.718 164.175 252.11C163.899 252.897 163.731 253.324 163.697 253.313Z" fill="#263238"/>
<path d="M238.24 169.637C238.309 169.773 237.121 170.464 235.878 171.58C234.625 172.686 233.801 173.786 233.674 173.702C233.556 173.636 234.217 172.354 235.532 171.192C236.839 170.021 238.189 169.512 238.24 169.637Z" fill="#263238"/>
<path d="M248.793 175.768C248.903 175.878 247.882 176.974 247.061 178.591C246.223 180.2 245.927 181.668 245.774 181.643C245.641 181.638 245.715 180.055 246.598 178.353C247.468 176.645 248.712 175.663 248.793 175.768Z" fill="#263238"/>
<path d="M266.86 182.129C266.715 182.161 266.303 180.773 265.699 179.104C265.1 177.433 264.532 176.101 264.664 176.033C264.786 175.967 265.576 177.218 266.189 178.927C266.807 180.635 266.996 182.102 266.86 182.129Z" fill="#263238"/>
<path d="M278.484 176.634C278.33 176.669 277.934 174.899 276.789 173.031C275.665 171.149 274.281 169.978 274.384 169.857C274.449 169.744 276.05 170.784 277.235 172.761C278.436 174.728 278.615 176.629 278.484 176.634Z" fill="#263238"/>
<path d="M311.873 209.489C312.016 209.508 310.299 223.366 308.039 240.439C305.778 257.517 303.831 271.342 303.688 271.323C303.546 271.304 305.262 257.449 307.522 240.371C309.782 223.298 311.73 209.471 311.873 209.489Z" fill="#263238"/>
<path d="M159.917 231.929C159.953 231.93 159.94 232.438 159.886 233.361C159.878 233.825 159.796 234.384 159.679 235.03C159.623 235.359 159.565 235.704 159.503 236.068C159.426 236.432 159.315 236.81 159.213 237.211C158.839 238.825 158.114 240.665 157.215 242.657C156.236 244.611 155.031 246.703 153.49 248.707C151.929 250.693 150.245 252.431 148.537 253.808C146.796 255.134 145.118 256.21 143.564 256.807C143.181 256.965 142.822 257.131 142.471 257.258C142.115 257.357 141.776 257.451 141.454 257.541C141.142 257.626 140.848 257.706 140.57 257.782C140.296 257.842 140.035 257.855 139.807 257.888C138.887 257.996 138.382 258.038 138.379 258.002C138.353 257.861 140.444 257.822 143.417 256.471C144.92 255.845 146.544 254.756 148.236 253.436C149.896 252.063 151.541 250.346 153.078 248.39C154.596 246.416 155.795 244.363 156.785 242.447C157.695 240.495 158.446 238.693 158.859 237.114C159.771 233.972 159.799 231.918 159.917 231.929Z" fill="#263238"/>
<g opacity="0.3">
<path d="M308.611 347.904C312.91 345.825 313.888 340.248 314.327 335.492C315.612 321.555 316.898 307.618 318.183 293.681C318.787 287.128 319.082 279.648 314.46 274.963C310.239 270.685 303.534 270.428 297.524 270.445C260.418 270.552 227.649 271.636 190.543 271.743L192.434 336.652L308.611 347.904Z" fill="black"/>
</g>
<path d="M174.551 281.799L178.502 357.082C178.654 359.984 181.079 362.259 184.02 362.257L303.94 362.466C306.886 362.465 309.314 360.178 309.458 357.27L314.034 283.266C314.186 280.193 311.999 276.104 308.886 276.043L180.18 276.055C176.972 275.992 174.385 278.633 174.551 281.799Z" fill="#E0E0E0"/>
<path d="M174.551 281.799C174.551 281.799 174.542 281.705 174.538 281.517C174.524 281.329 174.54 281.049 174.583 280.679C174.69 279.958 175.001 278.822 176.004 277.746C176.502 277.218 177.167 276.707 178.01 276.381C178.844 276.027 179.859 275.949 180.908 275.977C183.021 275.97 185.457 275.962 188.199 275.952C199.181 275.931 215.053 275.902 234.663 275.865C254.283 275.847 277.64 275.826 303.574 275.803C305.195 275.802 306.826 275.801 308.467 275.8C309.286 275.763 310.222 275.964 310.945 276.433C311.687 276.888 312.291 277.526 312.775 278.23C313.728 279.649 314.292 281.338 314.281 283.085C314.182 284.763 314.082 286.451 313.981 288.148C313.564 294.923 313.139 301.841 312.705 308.884C311.836 322.969 310.936 337.552 310.014 352.489L309.841 355.286C309.762 356.225 309.776 357.125 309.61 358.105C309.254 360.035 307.809 361.678 305.994 362.349C305.098 362.707 304.075 362.756 303.179 362.725L300.421 362.72C298.585 362.717 296.757 362.713 294.934 362.71C287.645 362.696 280.462 362.682 273.404 362.668C259.289 362.638 245.674 362.609 232.704 362.582C219.734 362.551 207.41 362.521 195.875 362.494C192.992 362.486 190.157 362.479 187.375 362.472C186.679 362.47 185.987 362.468 185.298 362.467C184.61 362.455 183.927 362.496 183.215 362.401C181.811 362.211 180.508 361.479 179.619 360.414C178.713 359.362 178.268 357.949 178.281 356.625C178.214 355.315 178.147 354.02 178.081 352.738C177.949 350.175 177.821 347.667 177.695 345.218C176.702 325.633 175.898 309.783 175.342 298.817C175.076 293.346 174.869 289.096 174.729 286.2C174.665 284.765 174.616 283.669 174.583 282.918C174.553 282.178 174.551 281.799 174.551 281.799C174.551 281.799 174.589 282.177 174.636 282.915C174.681 283.665 174.747 284.76 174.834 286.194C174.997 289.088 175.237 293.337 175.545 298.806C176.14 309.771 177 325.617 178.063 345.199C178.194 347.648 178.329 350.155 178.466 352.718C178.535 354 178.604 355.295 178.674 356.604C178.669 357.902 179.082 359.164 179.926 360.155C180.754 361.143 181.967 361.821 183.271 361.995C183.913 362.082 184.609 362.043 185.297 362.053C185.986 362.054 186.679 362.054 187.374 362.055C190.157 362.058 192.991 362.06 195.874 362.063C207.409 362.076 219.734 362.089 232.703 362.103C245.673 362.121 259.288 362.139 273.403 362.159C280.461 362.17 287.643 362.181 294.933 362.193C296.755 362.196 298.584 362.199 300.42 362.202L303.178 362.207C304.117 362.236 304.973 362.19 305.81 361.864C307.462 361.253 308.778 359.757 309.099 358.006C309.248 357.152 309.245 356.178 309.321 355.259L309.494 352.462C310.419 337.526 311.323 322.943 312.196 308.858C312.634 301.816 313.064 294.898 313.485 288.123C313.587 286.432 313.688 284.749 313.788 283.076C313.802 281.463 313.267 279.838 312.372 278.51C311.484 277.179 310.077 276.167 308.462 276.289C306.821 276.288 305.19 276.288 303.569 276.287C277.635 276.268 254.279 276.252 234.659 276.238C215.05 276.205 199.178 276.178 188.197 276.16C185.456 276.151 183.02 276.143 180.907 276.137C179.849 276.101 178.884 276.169 178.058 276.507C177.231 276.818 176.576 277.31 176.081 277.823C175.084 278.866 174.759 279.98 174.636 280.691C174.523 281.416 174.579 281.799 174.551 281.799Z" fill="#263238"/>
<path d="M245.182 325.58C249.083 325.58 252.245 322.418 252.245 318.517C252.245 314.616 249.083 311.454 245.182 311.454C241.281 311.454 238.119 314.616 238.119 318.517C238.119 322.418 241.281 325.58 245.182 325.58Z" fill="white"/>
<path d="M252.244 318.517C252.186 318.52 252.213 317.887 251.925 316.817C251.64 315.767 250.925 314.23 249.343 313.049C248.559 312.472 247.576 311.984 246.445 311.791C245.322 311.606 244.057 311.646 242.857 312.109C241.656 312.544 240.511 313.362 239.699 314.493C238.863 315.609 238.393 317.04 238.379 318.516C238.393 319.992 238.863 321.424 239.699 322.54C240.512 323.671 241.657 324.491 242.858 324.925C244.059 325.387 245.323 325.428 246.447 325.243C247.578 325.05 248.561 324.562 249.345 323.985C250.927 322.803 251.642 321.267 251.927 320.217C252.213 319.146 252.186 318.513 252.244 318.517C252.262 318.517 252.272 318.672 252.274 318.97C252.282 319.267 252.245 319.711 252.122 320.266C251.89 321.361 251.204 322.993 249.567 324.278C248.756 324.905 247.724 325.443 246.525 325.668C245.334 325.885 243.985 325.858 242.693 325.377C241.402 324.924 240.167 324.054 239.287 322.843C238.383 321.648 237.87 320.104 237.857 318.516C237.871 316.928 238.383 315.385 239.287 314.191C240.167 312.98 241.402 312.111 242.693 311.658C243.985 311.177 245.334 311.15 246.524 311.367C247.723 311.591 248.755 312.129 249.566 312.756C251.203 314.04 251.889 315.673 252.122 316.768C252.246 317.323 252.282 317.766 252.274 318.064C252.272 318.361 252.262 318.517 252.244 318.517Z" fill="#263238"/>
<path d="M178.59 290.132C178.734 290.127 179.325 302.778 179.91 318.385C180.495 333.998 180.853 346.655 180.71 346.66C180.566 346.665 179.975 334.017 179.39 318.404C178.805 302.797 178.447 290.137 178.59 290.132Z" fill="#263238"/>
<path d="M142.545 191.908C141.844 191.314 144.916 179.491 144.916 179.491C144.916 179.491 136.781 166.218 136.566 161.936C136.352 157.654 139.777 148.877 139.777 148.877L163.113 142.883C163.113 142.883 170.609 156.799 172.106 161.723C173.603 166.647 169.535 183.346 169.535 183.346L165.582 191.91C165.583 191.908 153.662 201.328 142.545 191.908Z" fill="#936760"/>
<path d="M136.612 164.496C136.612 164.496 135.6 162.742 134.154 159.314C132.677 155.81 130.862 152.374 134.154 150.415C136.091 149.262 137.67 149.86 137.67 149.86C137.67 149.86 137.165 146.911 138.927 145.804C140.689 144.697 142.387 145.503 142.387 145.503C142.387 145.503 141.831 141.343 144.368 139.579C147.55 137.366 150.831 139.395 150.831 139.395C150.831 139.395 148.823 121.185 148.648 120.22C148.009 116.679 149.319 113.547 152.842 114.42C154.133 114.74 154.85 116.101 156.364 122.031C157.878 127.961 160.311 138.082 160.311 138.082C160.311 138.082 164.409 145.204 166.345 149.066C168.281 152.929 172.108 161.723 172.426 164.052C173.25 170.077 169.722 178.053 169.722 178.053L144.916 179.492C144.916 179.492 137.557 166.224 136.612 164.496Z" fill="#936760"/>
<path d="M138.159 150.645C138.22 150.606 138.949 151.633 140.079 153.324C140.665 154.216 141.324 155.219 142.041 156.309C142.404 156.872 142.805 157.472 143.107 158.174C143.409 158.863 143.596 159.709 143.399 160.54C143.234 161.355 142.65 162.147 141.832 162.377C141.022 162.629 140.234 162.388 139.61 162.103C138.974 161.81 138.436 161.426 137.953 161.078C137.465 160.728 137.019 160.391 136.617 160.077C135.813 159.448 135.187 158.91 134.767 158.524C134.347 158.138 134.131 157.906 134.154 157.879C134.204 157.82 135.187 158.606 136.837 159.782C137.672 160.34 138.641 161.12 139.807 161.665C140.389 161.92 141.067 162.094 141.677 161.891C142.296 161.711 142.743 161.118 142.891 160.426C143.056 159.73 142.908 159.018 142.636 158.373C142.365 157.726 141.989 157.139 141.635 156.567C140.953 155.455 140.325 154.432 139.767 153.522C138.717 151.78 138.098 150.683 138.159 150.645Z" fill="#6F4C47"/>
<path d="M158.504 152.807C158.37 152.813 158.246 151.03 158.764 148.909C159.271 146.784 160.194 145.255 160.311 145.321C160.449 145.388 159.759 146.975 159.27 149.031C158.768 151.084 158.657 152.811 158.504 152.807Z" fill="#6F4C47"/>
<path d="M168.337 158.131C166.121 155.872 163.132 154.471 160.039 153.8C156.946 153.129 153.741 153.15 150.59 153.437C148.067 153.667 145.185 154.319 144.036 156.577C142.853 158.901 144.276 161.897 146.515 163.234C148.754 164.571 151.522 164.624 154.119 164.388C156.716 164.152 159.335 163.668 161.912 164.069" fill="#936760"/>
<path d="M161.911 164.069C161.905 164.113 161.212 164.003 159.953 164.018C158.693 164.019 156.887 164.249 154.637 164.523C153.51 164.648 152.261 164.752 150.913 164.68C149.574 164.603 148.105 164.353 146.734 163.63C145.356 162.92 144.176 161.635 143.629 160.02C143.347 159.218 143.274 158.315 143.453 157.438C143.659 156.568 144.134 155.743 144.821 155.144C146.205 153.921 147.979 153.529 149.59 153.293C151.226 153.095 152.795 153.014 154.303 153.009C157.314 152.998 160.035 153.443 162.189 154.203C164.35 154.953 165.935 155.958 166.922 156.757C167.42 157.155 167.776 157.499 168.008 157.739C168.236 157.984 168.348 158.119 168.336 158.131C168.301 158.167 167.818 157.655 166.8 156.918C165.789 156.179 164.207 155.243 162.073 154.552C159.946 153.852 157.276 153.452 154.306 153.489C152.825 153.507 151.253 153.599 149.66 153.799C148.093 154.031 146.405 154.432 145.172 155.531C144.556 156.067 144.144 156.793 143.96 157.551C143.804 158.32 143.859 159.126 144.115 159.86C144.608 161.339 145.691 162.541 146.96 163.207C148.239 163.897 149.64 164.157 150.941 164.249C152.25 164.337 153.48 164.257 154.601 164.157C156.843 163.931 158.682 163.754 159.956 163.816C160.592 163.838 161.084 163.901 161.414 163.951C161.744 164.009 161.914 164.051 161.911 164.069Z" fill="#6F4C47"/>
<path d="M138.34 150.929C140.95 154.893 143.254 159.249 145.454 163.454C146.094 164.677 146.771 165.971 147.946 166.695C148.887 167.275 151.222 166.223 152.267 165.864L145.101 149.557" fill="#936760"/>
<path d="M145.1 149.557C145.13 149.544 145.354 149.974 145.737 150.772C146.147 151.655 146.679 152.801 147.324 154.187C148.652 157.094 150.472 161.158 152.503 165.76L152.615 166.014L152.35 166.108C151.576 166.384 150.745 166.733 149.849 166.958C149.495 167.044 149.134 167.113 148.753 167.122C148.564 167.125 148.367 167.118 148.166 167.06C147.962 167.016 147.761 166.888 147.626 166.794C147.022 166.375 146.56 165.819 146.183 165.25C145.446 164.094 144.926 162.933 144.344 161.856C143.218 159.687 142.186 157.746 141.291 156.131C140.399 154.514 139.645 153.224 139.122 152.334C138.599 151.443 138.307 150.951 138.34 150.929C138.367 150.911 138.717 151.366 139.294 152.226C139.872 153.085 140.676 154.351 141.612 155.949C142.55 157.545 143.619 159.474 144.769 161.633C145.36 162.699 145.907 163.884 146.608 164.968C146.967 165.503 147.391 166.004 147.921 166.369C148.371 166.737 149.068 166.602 149.724 166.454C150.572 166.242 151.378 165.906 152.183 165.621L152.03 165.969C150.014 161.36 148.251 157.271 147.007 154.327C146.421 152.915 145.937 151.748 145.564 150.849C145.236 150.027 145.07 149.57 145.1 149.557Z" fill="#6F4C47"/>
<path d="M143.168 144.712C145.471 150.489 147.775 156.266 150.079 162.043C150.568 163.269 151.072 164.521 151.937 165.519C152.802 166.517 154.11 167.23 155.416 167.035C157.216 166.766 158.394 164.856 158.485 163.038C158.576 161.22 157.857 159.473 157.192 157.778C155.125 152.511 153.466 147.083 152.236 141.56" fill="#936760"/>
<path d="M152.235 141.56C152.253 141.556 152.312 141.738 152.409 142.088C152.518 142.494 152.653 143.001 152.819 143.62C153.176 144.949 153.696 146.872 154.427 149.22C155.156 151.568 156.098 154.342 157.288 157.365C157.865 158.871 158.612 160.474 158.735 162.323C158.802 163.235 158.642 164.215 158.213 165.076C157.792 165.933 157.099 166.733 156.136 167.111C155.172 167.497 154.08 167.332 153.233 166.876C152.369 166.43 151.685 165.722 151.193 164.954C150.213 163.393 149.737 161.742 149.102 160.245C147.922 157.229 146.855 154.502 145.949 152.187C145.089 149.938 144.384 148.094 143.865 146.738C143.646 146.135 143.467 145.642 143.323 145.247C143.205 144.904 143.15 144.721 143.167 144.714C143.184 144.707 143.271 144.878 143.421 145.208C143.589 145.594 143.798 146.075 144.054 146.663C144.611 148.003 145.368 149.827 146.291 152.051C147.227 154.354 148.329 157.066 149.548 160.067C150.191 161.557 150.698 163.228 151.619 164.674C152.084 165.392 152.701 166.019 153.471 166.416C154.228 166.819 155.144 166.946 155.946 166.626C156.751 166.313 157.368 165.62 157.748 164.848C158.136 164.066 158.283 163.207 158.226 162.353C158.122 160.636 157.413 159.06 156.841 157.54C155.67 154.493 154.761 151.696 154.075 149.327C153.387 146.957 152.92 145.016 152.623 143.669C152.478 142.995 152.37 142.47 152.308 142.113C152.243 141.754 152.218 141.564 152.235 141.56Z" fill="#6F4C47"/>
<path d="M143.724 185.344C143.724 185.344 127.899 231.987 127.274 234.277C126.649 236.567 130.397 253.226 137.269 257.182C144.141 261.138 157.467 244.688 159.133 238.65C160.799 232.611 159.133 222.408 159.133 222.408L169.801 182.217" fill="#936760"/>
<path d="M159.134 178.094C159.127 178.153 158.544 178.16 157.645 177.899C156.749 177.642 155.559 177.059 154.497 176.089C153.439 175.115 152.755 173.979 152.421 173.109C152.082 172.236 152.04 171.654 152.097 171.642C152.248 171.58 152.797 173.861 154.848 175.705C156.862 177.589 159.183 177.939 159.134 178.094Z" fill="#6F4C47"/>
<path d="M443.319 404.225C443.319 404.369 355.206 404.485 246.539 404.485C137.834 404.485 49.7402 404.368 49.7402 404.225C49.7402 404.081 137.834 403.965 246.539 403.965C355.207 403.964 443.319 404.081 443.319 404.225Z" fill="#263238"/>
<path d="M185.44 111.439H73.204C70.285 111.439 67.918 109.072 67.918 106.153V75.0221C67.918 72.1031 70.284 69.7361 73.204 69.7361H185.44C188.359 69.7361 190.726 72.1031 190.726 75.0221V106.153C190.725 109.073 188.359 111.439 185.44 111.439Z" fill="#FF6D38"/>
<path d="M191.519 111.432H83.5922C80.4822 111.432 77.9512 108.902 77.9512 105.791V75.234C77.9512 72.124 80.4812 69.593 83.5922 69.593H191.519C194.629 69.593 197.16 72.124 197.16 75.234V105.791C197.159 108.902 194.629 111.432 191.519 111.432ZM83.5922 70.593C81.0332 70.593 78.9512 72.675 78.9512 75.234V105.791C78.9512 108.35 81.0322 110.432 83.5922 110.432H191.519C194.078 110.432 196.16 108.35 196.16 105.791V75.234C196.16 72.675 194.079 70.593 191.519 70.593H83.5922Z" fill="#FF6D38"/>
<path d="M90.5 89.9981C90.5 87.3681 92.52 85.4851 95.237 85.4851C96.745 85.4851 98.005 86.0331 98.827 87.0311L97.53 88.2281C96.944 87.5551 96.209 87.2061 95.336 87.2061C93.703 87.2061 92.544 88.3531 92.544 89.9991C92.544 91.6451 93.703 92.7911 95.336 92.7911C96.209 92.7911 96.944 92.4421 97.53 91.7561L98.827 92.9531C98.004 93.9631 96.745 94.5111 95.224 94.5111C92.519 94.5111 90.5 92.6281 90.5 89.9981Z" fill="white"/>
<path d="M100.182 85.635H102.202V92.716H106.578V94.362H100.182V85.635Z" fill="white"/>
<path d="M107.707 85.635H109.727V94.362H107.707V85.635Z" fill="white"/>
<path d="M111.244 89.9981C111.244 87.3681 113.264 85.4851 115.981 85.4851C117.489 85.4851 118.749 86.0331 119.571 87.0311L118.274 88.2281C117.688 87.5551 116.953 87.2061 116.08 87.2061C114.447 87.2061 113.288 88.3531 113.288 89.9991C113.288 91.6451 114.447 92.7911 116.08 92.7911C116.953 92.7911 117.688 92.4421 118.274 91.7561L119.571 92.9531C118.748 93.9631 117.489 94.5111 115.968 94.5111C113.264 94.5111 111.244 92.6281 111.244 89.9981Z" fill="white"/>
<path d="M124.107 90.933L122.935 92.155V94.362H120.928V85.635H122.935V89.712L126.799 85.635H129.043L125.428 89.525L129.255 94.362H126.899L124.107 90.933Z" fill="white"/>
<path d="M141.676 85.635V94.362H139.656V90.784H135.692V94.362H133.672V85.635H135.692V89.076H139.656V85.635H141.676Z" fill="white"/>
<path d="M150.497 92.741V94.362H143.74V85.635H150.335V87.256H145.748V89.151H149.799V90.722H145.748V92.742L150.497 92.741Z" fill="white"/>
<path d="M157.661 94.361L155.978 91.93H155.878H154.12V94.361H152.1V85.634H155.877C158.208 85.634 159.667 86.844 159.667 88.801C159.667 90.11 159.006 91.07 157.872 91.556L159.829 94.361H157.661ZM155.766 87.28H154.121V90.322H155.766C157 90.322 157.623 89.748 157.623 88.801C157.623 87.841 157 87.28 155.766 87.28Z" fill="white"/>
<path d="M168.017 92.741V94.362H161.26V85.635H167.855V87.256H163.268V89.151H167.319V90.722H163.268V92.742L168.017 92.741Z" fill="white"/>
<path d="M192.613 110.506C192.494 110.587 191.551 109.416 190.507 107.89C189.463 106.364 188.712 105.061 188.831 104.98C188.95 104.899 189.892 106.07 190.937 107.596C191.981 109.122 192.732 110.425 192.613 110.506Z" fill="#FF6D38"/>
<path d="M196.66 78.2831C196.544 78.3671 195.062 76.5231 193.351 74.1631C191.64 71.8031 190.347 69.8211 190.464 69.7371C190.58 69.6531 192.062 71.4971 193.773 73.8571C195.484 76.2171 196.777 78.1991 196.66 78.2831Z" fill="#FF6D38"/>
<path d="M196.231 104.984C196.085 105.085 194.586 102.925 192.94 100.16C192.11 98.78 191.383 97.517 190.867 96.598C190.356 95.675 190.037 95.111 190.095 95.068C190.241 94.967 191.74 97.126 193.387 99.892C194.217 101.272 194.944 102.534 195.46 103.454C195.969 104.377 196.288 104.941 196.231 104.984Z" fill="#FF6D38"/>
<path d="M196.69 96.2639C196.543 96.3659 194.943 94.0379 193.168 91.0669C192.274 89.5839 191.489 88.2279 190.932 87.2399C190.379 86.2489 190.035 85.6429 190.092 85.5999C190.239 85.4979 191.839 87.8259 193.614 90.7969C194.508 92.2799 195.293 93.6359 195.85 94.6229C196.403 95.6159 196.747 96.2209 196.69 96.2639Z" fill="#FF6D38"/>
<path d="M196.677 87.6341C196.529 87.7361 194.922 85.3951 193.137 82.4081C192.238 80.9171 191.448 79.5541 190.888 78.5611C190.332 77.5641 189.986 76.9561 190.043 76.9131C190.19 76.8111 191.798 79.1521 193.583 82.1391C194.482 83.6301 195.271 84.9931 195.832 85.9851C196.388 86.9821 196.734 87.5911 196.677 87.6341Z" fill="#FF6D38"/>
<path d="M64.8906 76.1998C64.8546 76.3388 62.0106 75.7148 58.5406 74.8058C55.0696 73.8968 52.2856 73.0478 52.3226 72.9078C52.3586 72.7688 55.2016 73.3928 58.6726 74.3018C62.1426 75.2118 64.9266 76.0608 64.8906 76.1998Z" fill="#263238"/>
<path d="M66.1012 68.6919C65.9902 68.7829 63.0142 65.3359 59.4552 60.9939C55.8952 56.6499 53.1002 53.0559 53.2122 52.9649C53.3232 52.8739 56.2982 56.3199 59.8582 60.6639C63.4172 65.0059 66.2122 68.6009 66.1012 68.6919Z" fill="#263238"/>
<path d="M75.3742 65.0729C75.2452 65.1139 74.4312 62.7929 73.9882 59.8039C73.5342 56.8149 73.6322 54.3579 73.7672 54.3599C73.9192 54.3569 74.0552 56.7789 74.5032 59.7269C74.9402 62.6749 75.5202 65.0309 75.3742 65.0729Z" fill="#263238"/>
</svg>
