<svg width="53" height="61" viewBox="0 0 53 61" fill="none" xmlns="http://www.w3.org/2000/svg">
<path opacity="0.3" d="M25.9592 46.5101C25.9592 48.8897 25.3102 51.1611 24.1204 53.1081C23.6878 53.7571 23.2551 54.406 22.8224 54.9468C21.7408 56.2448 20.4429 57.2183 18.9286 57.9754C18.2796 58.2999 17.6306 58.6244 16.8735 58.8407C15.6837 59.2734 14.3857 59.4897 12.9796 59.4897C5.84082 59.4897 0 53.6489 0 46.5101C0 45.104 0.216326 43.806 0.648979 42.5081C0.865306 41.7509 1.1898 41.102 1.51429 40.453C3.67755 36.3428 8.00408 33.4224 13.0878 33.4224C20.1184 33.5305 25.9592 39.3713 25.9592 46.5101Z" fill="#FE7A36"/>
<path d="M29.2041 60.5714C29.096 60.5714 28.9878 60.5714 28.8796 60.5714C28.1225 60.3551 27.3653 60.1388 26.6082 59.8143C23.796 58.8408 21.2 57.4347 18.8204 55.7041C12.8715 51.3776 8.54494 45.2122 6.598 38.1816C5.84086 35.3694 5.4082 32.449 5.4082 29.5286V7.57143C5.4082 7.13878 5.73269 6.70612 6.16535 6.4898L28.8796 0C29.096 0 29.3123 0 29.5286 0L52.2429 6.4898C52.6755 6.59796 53 7.03061 53 7.57143V29.4204C53 33.098 52.3511 36.6674 51.1613 40.0204V40.1286C48.998 46.402 44.8878 51.8102 39.5878 55.7041C37.2082 57.4347 34.6123 58.8408 31.8 59.8143C31.1511 60.0306 30.2858 60.3551 29.5286 60.5714C29.4204 60.5714 29.3123 60.5714 29.2041 60.5714ZM7.57147 8.43674V29.4204C7.57147 32.1245 7.89596 34.9367 8.6531 37.5327C10.4919 44.1306 14.4939 49.9714 20.1184 53.9735C22.2817 55.5959 24.7694 56.8939 27.3653 57.8674C27.9062 58.0837 28.5551 58.3 29.2041 58.5163C29.8531 58.3 30.3939 58.0837 30.9347 57.8674C33.5306 56.8939 36.0184 55.5959 38.2898 53.9735C43.2653 50.2959 47.0511 45.3204 49.1062 39.4796V39.3714C50.1878 36.1265 50.8368 32.7735 50.8368 29.4204V8.43674L29.2041 2.16327L7.57147 8.43674Z" fill="black"/>
<path d="M29.204 60.5713C29.0959 60.5713 28.9877 60.5713 28.8795 60.5713C28.1224 60.355 27.3652 60.1387 26.6081 59.8142C23.7959 58.8407 21.1999 57.4346 18.8203 55.704C18.4959 55.4877 18.3877 55.1632 18.3877 54.8387C18.604 49.9713 22.0652 45.8611 26.8244 44.7795C28.4469 44.455 30.0693 44.455 31.5836 44.7795C33.6387 45.2122 35.3693 46.2938 36.8836 47.6999C38.8305 49.6468 39.9122 52.1346 40.0203 54.9468C40.0203 55.2713 39.9122 55.5958 39.5877 55.8122C37.2081 57.5428 34.6122 58.9489 31.7999 59.9224C31.151 60.1387 30.2857 60.4632 29.5285 60.6795C29.4203 60.5713 29.3122 60.5713 29.204 60.5713ZM20.551 54.1897C22.6061 55.5958 24.8775 56.7856 27.3652 57.7591C27.9061 57.9754 28.555 58.1917 29.204 58.4081C29.853 58.1917 30.3938 57.9754 30.9346 57.7591C33.4224 56.8938 35.6938 55.704 37.7489 54.1897C37.5326 52.2428 36.6673 50.404 35.2612 48.9979C34.0714 47.8081 32.6652 47.0509 31.0428 46.6183C29.7448 46.2938 28.4469 46.2938 27.1489 46.6183C23.6877 47.5917 20.9836 50.6203 20.551 54.1897Z" fill="black"/>
<path d="M38.9384 55.8125C38.8302 55.8125 38.6139 55.8125 38.5057 55.7043C38.0731 55.5962 37.8568 55.1635 37.8568 54.839C37.7486 52.6757 36.8833 50.6206 35.369 49.1064C34.1792 47.9166 32.7731 47.1594 31.1506 46.7268C30.5017 46.6186 29.8527 46.5104 29.2037 46.5104C28.5547 46.5104 28.1221 46.0778 28.1221 45.4288C28.1221 44.7798 28.5547 44.3472 29.2037 44.3472C29.7445 44.3472 30.3935 44.239 30.8262 43.9145C31.9078 43.3737 32.6649 42.2921 32.7731 40.9941L32.9894 38.6145C32.9894 38.0737 32.9894 37.6411 32.7731 37.1002C32.6649 36.7757 32.7731 36.3431 32.9894 36.0186C33.4221 35.4778 33.9629 35.0451 34.5037 34.6125C36.3425 33.2064 38.6139 32.4492 40.9935 32.4492C43.9139 32.4492 46.618 33.5309 48.6731 35.586C49.7547 36.6676 50.5119 37.8574 51.0527 39.2635C51.0527 39.3717 51.1608 39.4798 51.1608 39.6962C51.1608 39.8043 51.1608 39.9125 51.0527 40.0206C48.8894 46.2941 44.7792 51.7023 39.4792 55.5962C39.371 55.8125 39.1547 55.8125 38.9384 55.8125ZM33.0976 45.1043C34.5037 45.6451 35.8017 46.5104 36.8833 47.5921C38.2894 48.9982 39.371 50.837 39.8037 52.7839C44.0221 49.3227 47.1588 44.888 49.1057 39.8043C48.6731 38.8309 48.0241 37.9655 47.267 37.2084C45.5364 35.4778 43.3731 34.6125 41.1017 34.6125C39.1547 34.6125 37.4241 35.2615 35.9098 36.3431C35.5853 36.5594 35.369 36.7758 35.1527 36.9921C35.2608 37.5329 35.369 38.1819 35.2608 38.7227L35.0445 41.1023C34.8282 42.7247 34.1792 44.1309 33.0976 45.1043Z" fill="black"/>
<path d="M19.4691 55.8124C19.2528 55.8124 19.0364 55.7042 18.8201 55.596C12.8711 51.2695 8.5446 45.1042 6.59766 38.0736C6.59766 37.9654 6.59766 37.7491 6.59766 37.6409C7.24664 32.2328 11.8977 28.1226 17.3058 28.1226C20.2262 28.1226 22.9303 29.3124 24.9854 31.2593C25.3099 31.5838 25.6344 31.9083 25.8507 32.2328C26.2834 32.7736 26.716 33.4226 27.0405 34.0715C27.2568 34.5042 27.1487 35.045 26.716 35.3695C25.7426 36.1266 25.3099 37.3164 25.4181 38.5062L25.6344 40.8858C25.7426 42.1838 26.4997 43.2654 27.5813 43.8062C28.1221 44.0226 28.663 44.2389 29.2038 44.2389C29.8528 44.2389 30.2854 44.6715 30.2854 45.3205C30.2854 45.9695 29.8528 46.4022 29.2038 46.4022C28.5548 46.4022 27.9058 46.5103 27.2568 46.6185C23.4711 47.4838 20.6589 50.8368 20.5507 54.7307C20.5507 55.1634 20.3344 55.4879 19.9017 55.7042C19.7936 55.8124 19.6854 55.8124 19.4691 55.8124ZM8.76092 37.7491C10.3834 43.6981 13.9528 48.8899 18.7119 52.7838C19.4691 49.3226 22.065 46.4022 25.4181 45.1042C24.3364 44.1307 23.5793 42.7246 23.4711 41.3185L23.2548 38.9389C23.1466 37.3164 23.6875 35.694 24.7691 34.5042C24.6609 34.2879 24.4446 33.9634 24.2283 33.747C24.0119 33.4226 23.7956 33.2062 23.5793 32.9899C21.8487 31.2593 19.5772 30.2858 17.3058 30.2858C12.9793 30.2858 9.30174 33.4226 8.76092 37.7491Z" fill="black"/>
<path d="M29.2046 46.51C28.2311 46.51 27.3658 46.2937 26.5005 45.861C24.7699 44.9957 23.5801 43.1569 23.3638 41.21L23.1475 38.8304C22.9311 36.8835 23.7964 35.0447 25.3107 33.7467C26.3924 32.8814 27.6903 32.4488 28.9883 32.4488H29.4209C31.9087 32.4488 34.072 34.0712 34.9373 36.3427C35.2618 37.0998 35.2618 37.9651 35.2618 38.7223L35.0454 41.1019C34.8291 43.0488 33.6393 44.7794 31.9087 45.7529C31.0434 46.2937 30.1781 46.51 29.2046 46.51ZM28.9883 34.6121C28.123 34.6121 27.3658 34.9365 26.7169 35.4774C25.7434 36.2345 25.3107 37.4243 25.4189 38.6141L25.6352 40.9937C25.7434 42.2916 26.5005 43.3733 27.5822 43.9141C28.5556 44.4549 29.8536 44.4549 30.9352 43.9141C32.0169 43.3733 32.774 42.2916 32.8822 40.9937L33.0985 38.6141C33.0985 38.0733 33.0985 37.6406 32.8822 37.0998C32.3414 35.5855 30.9352 34.6121 29.4209 34.6121H28.9883ZM41.1026 34.6121C37.5332 34.6121 34.5046 31.7998 34.1801 28.2304L33.9638 25.8508C33.8556 23.9039 34.5046 22.0651 35.8026 20.659C37.1005 19.2529 38.9393 18.3876 40.8862 18.3876H41.2107C43.1577 18.3876 44.9964 19.1447 46.2944 20.659C47.5924 22.0651 48.2413 24.0121 48.1332 25.8508L47.9169 28.2304C47.7005 31.7998 44.672 34.6121 41.1026 34.6121ZM40.8862 20.5508C39.5883 20.5508 38.2903 21.0916 37.425 22.0651C36.5597 23.0386 36.0189 24.3365 36.1271 25.6345L36.3434 28.0141C36.5597 30.5019 38.6148 32.4488 41.1026 32.4488C43.5903 32.4488 45.6454 30.5019 45.8618 28.0141L46.0781 25.6345C46.1862 24.3365 45.7536 23.0386 44.7801 22.0651C43.9148 21.0916 42.6169 20.5508 41.3189 20.5508H40.8862ZM17.3067 30.2855C13.6291 30.2855 10.7087 27.4733 10.3842 23.9039L10.1679 21.5243C10.0597 19.5774 10.7087 17.7386 12.0067 16.3325C13.3046 14.9263 15.1434 14.061 17.0903 14.061H17.4148C19.3618 14.061 21.2005 14.8182 22.4985 16.3325C23.7964 17.7386 24.4454 19.6855 24.3373 21.5243L24.1209 23.9039C24.0128 27.4733 20.9842 30.2855 17.3067 30.2855ZM17.1985 16.2243C15.9005 16.2243 14.6026 16.7651 13.7373 17.7386C12.872 18.7121 12.3311 20.01 12.4393 21.308L12.6556 23.6876C12.872 26.1753 14.9271 28.1223 17.4148 28.1223C19.9026 28.1223 21.9577 26.1753 22.174 23.6876L22.3903 21.308C22.4985 20.01 22.0658 18.7121 21.0924 17.7386C20.2271 16.7651 18.9291 16.2243 17.6311 16.2243H17.1985Z" fill="#FE7A36"/>
</svg>
