<svg width="57" height="50" viewBox="0 0 57 50" fill="none" xmlns="http://www.w3.org/2000/svg">
<path opacity="0.3" d="M24 33.5248C24 35.7248 23.4 37.8248 22.3 39.6248C21.9 40.2248 21.5 40.8248 21.1 41.3248C20.1 42.5248 18.9 43.4248 17.5 44.1248C16.9 44.4248 16.3 44.7248 15.6 44.9248C14.5 45.3248 13.3 45.5248 12 45.5248C5.4 45.5248 0 40.1248 0 33.5248C0 32.2248 0.2 31.0248 0.6 29.8248C0.8 29.1248 1.1 28.5248 1.4 27.9248C3.4 24.1248 7.4 21.4248 12.1 21.4248C18.6 21.5248 24 26.9248 24 33.5248Z" fill="#FE7A36"/>
<path d="M44 40.5249C43.7 40.5249 43.5 40.4249 43.3 40.2249L40.8 37.7249C40.4 37.3249 40.4 36.7249 40.8 36.3249C41.2 35.9249 41.8 35.9249 42.2 36.3249L44 38.1249L48.3 33.8249C48.7 33.4249 49.3 33.4249 49.7 33.8249C50.1 34.2249 50.1 34.8249 49.7 35.2249L44.7 40.2249C44.5 40.4249 44.3 40.5249 44 40.5249Z" fill="#FE7A36"/>
<path d="M53.2002 17.525C52.7002 17.525 52.2002 17.425 51.8002 17.125L48.5002 15.325C48.5002 15.325 48.4002 15.325 48.4002 15.225L31.4002 6.025C31.1002 5.825 30.7002 5.825 30.5002 6.025L10.2002 17.025C8.8002 17.825 6.9002 17.225 6.1002 15.825C5.9002 15.425 5.7002 14.925 5.7002 14.425C5.7002 13.325 6.3002 12.325 7.3002 11.825L27.6002 0.825C29.7002 -0.275 32.2002 -0.275 34.3002 0.825L54.6002 11.825C55.3002 12.225 55.8002 12.825 56.1002 13.625C56.3002 14.425 56.2002 15.225 55.9002 15.925C55.3002 17.025 54.3002 17.525 53.2002 17.525ZM31.0002 4.025C31.5002 4.025 32.0002 4.125 32.4002 4.425L49.4002 13.625C49.4002 13.625 49.5002 13.625 49.5002 13.725L52.7002 15.525C53.2002 15.825 53.8002 15.625 54.1002 15.125C54.2002 14.925 54.3002 14.625 54.2002 14.325C54.1002 14.025 54.0002 13.825 53.7002 13.725L33.4002 2.725C31.9002 1.925 30.1002 1.925 28.6002 2.725L8.3002 13.725C8.0002 13.825 7.8002 14.225 7.8002 14.525C7.8002 14.725 7.8002 14.825 7.9002 15.025C8.2002 15.525 8.8002 15.725 9.3002 15.425L29.6002 4.425C30.0002 4.225 30.5002 4.025 31.0002 4.025Z" fill="black"/>
<path d="M36.6 41.5249H24C23.4 41.5249 23 41.1249 23 40.5249V22.5249C23 20.8249 24.3 19.5249 26 19.5249H36C37.7 19.5249 39 20.8249 39 22.5249V27.5249C39 27.9249 38.7 28.3249 38.3 28.5249L37 28.8249V36.6249C37 36.8249 37 37.0249 37 37.3249C37.1 38.3249 37.2 39.2249 37.6 40.2249C37.7 40.5249 37.7 40.8249 37.5 41.1249C37.3 41.3249 37 41.5249 36.6 41.5249ZM25 39.5249H35.3C35.1 38.8249 35.1 38.1249 35 37.4249C35 37.1249 35 36.9249 35 36.6249V28.0249C35 27.6249 35.3 27.2249 35.7 27.0249L37 26.6249V22.5249C37 21.9249 36.6 21.5249 36 21.5249H26C25.4 21.5249 25 21.9249 25 22.5249V39.5249Z" fill="#FE7A36"/>
<path d="M45 49.5249C44.9 49.5249 44.8 49.5249 44.7 49.5249C43.1 49.0249 41.6 48.3249 40.3 47.3249C40.2 47.2249 40.1 47.2249 40 47.1249C39.7 46.9249 39.4 46.6249 39 46.3249C38.1 45.4249 37.3 44.3249 36.6 43.2249C36.2 42.4249 35.8 41.7249 35.6 40.9249C35.2 39.8249 35 38.7249 35 37.5249C35 37.2249 35 37.0249 35 36.7249V28.1249C35 27.7249 35.3 27.3249 35.7 27.1249L44.7 24.5249C44.9 24.5249 45.1 24.5249 45.2 24.5249L54.2 27.1249C54.6 27.2249 54.9 27.6249 54.9 28.1249V36.7249C54.9 39.9249 53.7 43.0249 51.6 45.4249C51.4 45.7249 51.1 46.0249 50.8 46.2249C49.2 47.7249 47.3 48.8249 45.2 49.4249C45.2 49.5249 45.1 49.5249 45 49.5249ZM37 28.8249V36.6249C37 36.8249 37 37.0249 37 37.3249C37.1 38.3249 37.2 39.2249 37.6 40.2249C37.8 40.9249 38.1 41.5249 38.5 42.2249C39 43.2249 39.7 44.1249 40.5 44.8249C40.8 45.0249 41 45.3249 41.3 45.5249C41.4 45.6249 41.5 45.6249 41.5 45.7249C42.6 46.5249 43.7 47.1249 45 47.5249C46.7 47.0249 48.3 46.0249 49.5 44.8249C49.7 44.6249 50 44.3249 50.2 44.1249C52 42.0249 53 39.4249 53 36.7249V28.9249L45 26.5249L37 28.8249Z" fill="black"/>
<path d="M36.6 41.5252H15C13.3 41.5252 12 40.2252 12 38.5252V14.5252C12 14.2252 12.2 13.8252 12.5 13.6252C12.5 13.6252 12.6 13.6252 12.6 13.5252L29.6 4.3252C30.5 3.8252 31.6 3.8252 32.5 4.3252L49.5 13.5252C49.5 13.5252 49.6 13.5252 49.6 13.6252C49.9 13.8252 50.1 14.1252 50.1 14.5252V26.6252C50.1 26.9252 50 27.2252 49.7 27.4252C49.4 27.6252 49.1 27.6252 48.8 27.6252L45 26.5252L37 28.8252V36.6252C37 36.8252 37 37.0252 37 37.3252C37.1 38.3252 37.2 39.2252 37.6 40.2252C37.7 40.5252 37.7 40.8252 37.5 41.1252C37.3 41.3252 37 41.5252 36.6 41.5252ZM14 15.1252V38.5252C14 39.1252 14.4 39.5252 15 39.5252H35.3C35.1 38.8252 35.1 38.1252 35 37.4252C35 37.1252 35 36.9252 35 36.6252V28.0252C35 27.6252 35.3 27.2252 35.7 27.0252L44.7 24.4252C44.9 24.4252 45.1 24.4252 45.2 24.4252L47.9 25.2252V15.1252L31.4 6.1252C31.1 5.9252 30.7 5.9252 30.5 6.1252L14 15.1252Z" fill="black"/>
</svg>
