<svg width="54" height="59" viewBox="0 0 54 59" fill="none" xmlns="http://www.w3.org/2000/svg">
<path opacity="0.3" d="M44.0039 41.4772C44.0039 39.6177 45.5114 38.1101 47.371 38.1101H49.8931C51.7526 38.1101 53.2602 36.6026 53.2602 34.7431C53.2602 32.8835 51.7526 31.376 49.8931 31.376H47.371C45.5114 31.376 44.0039 29.8685 44.0039 28.0089C44.0039 26.1494 45.5114 24.6419 47.371 24.6419H49.8931C51.7526 24.6419 53.2602 23.1343 53.2602 21.2748C53.2602 19.4152 51.7526 17.9077 49.8931 17.9077H6.38758C4.52803 17.9077 3.02051 19.4152 3.02051 21.2748C3.02051 23.1343 4.52803 24.6419 6.38758 24.6419H8.90967C10.7692 24.6419 12.2767 26.1494 12.2767 28.0089C12.2767 29.8685 10.7692 31.376 8.90967 31.376H6.38758C4.52803 31.376 3.02051 32.8835 3.02051 34.7431C3.02051 36.6026 4.52803 38.1101 6.38758 38.1101H8.90967C10.7692 38.1101 12.2767 39.6177 12.2767 41.4772C12.2767 43.3367 10.7692 44.8443 8.90967 44.8443H6.38758C4.52803 44.8443 3.02051 46.3518 3.02051 48.2113C3.02051 50.0709 4.52803 51.5784 6.38758 51.5784H8.90967C10.7692 51.5784 12.2767 53.0859 12.2767 54.9455C12.2767 56.805 13.7843 58.3125 15.6438 58.3125H40.6372C42.4967 58.3125 44.0043 56.805 44.0043 54.9455C44.0043 53.0859 45.5118 51.5784 47.3713 51.5784H49.8934C51.753 51.5784 53.2605 50.0709 53.2605 48.2113C53.2605 46.3518 51.753 44.8443 49.8934 44.8443H47.3713C45.5115 44.8443 44.0039 43.3367 44.0039 41.4772Z" fill="#FE7A36"/>
<path d="M33.0722 23.2684H22.9066C20.1754 23.2684 18.8072 19.9761 20.7366 18.052L25.8194 12.9906C26.1775 12.6325 26.5998 12.3866 27.0487 12.2423C28.107 11.9056 29.3148 12.1514 30.1593 12.9906L35.2368 18.052C37.1715 19.9761 35.8033 23.2684 33.0722 23.2684ZM43.8363 14.5084C43.0614 16.3363 41.3564 17.3625 40.0256 16.8013C39.9828 16.7853 39.9401 16.7639 39.8973 16.7425C38.6787 16.1172 38.2886 14.2572 39.0315 12.4882C39.4858 11.4192 40.2608 10.6229 41.0945 10.2594C41.6771 10.0029 42.2864 9.96012 42.8315 10.1899C44.1624 10.7511 44.6113 12.6859 43.8363 14.5084ZM37.2517 6.24022C36.466 8.76291 34.3442 10.3449 32.511 9.7784C32.4629 9.76237 32.4148 9.74634 32.3667 9.72496C30.651 9.07825 29.8707 6.64108 30.6403 4.19321C31.1855 2.4455 32.372 1.15209 33.6494 0.708481C34.2159 0.505383 34.8038 0.47866 35.365 0.649689C37.1982 1.22157 38.0374 3.72288 37.2517 6.24022ZM15.9478 16.8013C15.3973 17.0311 14.7827 16.9937 14.2001 16.7425C13.3717 16.3791 12.5967 15.5827 12.1424 14.5084C11.3941 12.7554 11.7843 10.8954 13.0029 10.2594C13.051 10.2327 13.0991 10.2113 13.1472 10.1899C14.4673 9.6341 16.1669 10.6656 16.9419 12.4882C17.7169 14.316 17.2679 16.2455 15.9478 16.8013ZM23.4624 9.7784C22.8959 9.95478 22.3026 9.92271 21.7307 9.72496C20.448 9.276 19.2722 7.98259 18.727 6.24022C17.9627 3.79771 18.7324 1.37657 20.448 0.708481C20.5015 0.687102 20.5549 0.665723 20.6137 0.649689C22.4309 0.088498 24.5527 1.67052 25.3384 4.19321C26.1241 6.71056 25.285 9.21721 23.4624 9.7784Z" fill="white"/>
<path d="M31.1908 23.2684H22.9066C20.1754 23.2684 18.8072 19.9761 20.7366 18.052L25.8194 12.9906C26.1775 12.6325 26.5997 12.3866 27.0487 12.2423C27.4977 12.3866 27.9199 12.6325 28.278 12.9906L33.3608 18.052C35.2902 19.9761 33.922 23.2684 31.1908 23.2684ZM41.955 14.5085C41.5007 15.5827 40.7257 16.3791 39.8973 16.7425C38.6787 16.1172 38.2886 14.2573 39.0315 12.4882C39.4858 11.4192 40.2607 10.6229 41.0945 10.2594C42.3131 10.8955 42.7033 12.7554 41.955 14.5085ZM35.3704 6.24024C34.8252 7.9826 33.6494 9.27602 32.3667 9.72497C30.651 9.07826 29.8707 6.64109 30.6403 4.19323C31.1855 2.44552 32.372 1.1521 33.6494 0.708496C35.365 1.37124 36.14 3.79772 35.3704 6.24024ZM14.2001 16.7425C13.3717 16.3791 12.5967 15.5827 12.1424 14.5085C11.3941 12.7554 11.7843 10.8955 13.0029 10.2594C13.8367 10.6229 14.6116 11.4192 15.0659 12.4882C15.8088 14.2573 15.4187 16.1172 14.2001 16.7425ZM21.7307 9.72497C20.448 9.27602 19.2722 7.9826 18.727 6.24024C17.9627 3.79772 18.7324 1.37658 20.448 0.708496C21.7254 1.1521 22.9119 2.44552 23.4571 4.19323C24.2267 6.64109 23.4464 9.07826 21.7307 9.72497Z" fill="#FE7A36"/>
<path d="M33.0726 23.8028H29.0427C28.901 23.8028 28.765 23.7465 28.6648 23.6463C28.5646 23.5461 28.5083 23.4101 28.5083 23.2684C28.5083 23.1266 28.5646 22.9907 28.6648 22.8905C28.765 22.7902 28.901 22.7339 29.0427 22.7339H33.0726C33.6873 22.7339 34.2538 22.5297 34.7102 22.1439C34.9794 21.9134 35.1979 21.6297 35.352 21.3106C35.5061 20.9915 35.5924 20.6439 35.6055 20.2898C35.6327 19.5971 35.3682 18.9365 34.8593 18.4304L29.7819 13.3684C29.3056 12.8947 28.6612 12.6288 27.9894 12.6287C27.3176 12.6286 26.6731 12.8943 26.1967 13.3679L21.1128 18.4304C20.2352 19.3058 20.2539 20.4202 20.5645 21.1711C20.8766 21.9263 21.6558 22.7334 22.9054 22.7334H25.4335C25.5752 22.7334 25.7112 22.7897 25.8114 22.8899C25.9116 22.9902 25.9679 23.1261 25.9679 23.2678C25.9679 23.4096 25.9116 23.5455 25.8114 23.6458C25.7112 23.746 25.5752 23.8023 25.4335 23.8023H22.9054C21.4191 23.8023 20.1433 22.9504 19.5762 21.5795C19.0113 20.2139 19.3111 18.7174 20.3576 17.673L25.4404 12.6111C25.8445 12.2073 26.3393 11.906 26.8835 11.7324C27.514 11.5295 28.1882 11.5041 28.8322 11.659C29.4762 11.8139 30.0651 12.1431 30.5344 12.6106L35.6124 17.673C36.3345 18.3924 36.7107 19.3363 36.6717 20.3309C36.6522 20.8329 36.5291 21.3254 36.3102 21.7776C36.0913 22.2297 35.7813 22.6317 35.3997 22.9584C34.7482 23.5116 33.9433 23.8028 33.0726 23.8028ZM40.7818 17.486C40.3916 17.488 40.0065 17.3971 39.6583 17.2209C38.1827 16.4635 37.6931 14.2952 38.5386 12.2813C39.0335 11.1178 39.8866 10.2028 40.8812 9.76986C41.615 9.4465 42.382 9.42085 43.0394 9.6977C43.6861 9.97028 44.1831 10.4962 44.4755 11.2183C44.8913 12.245 44.8379 13.5208 44.3285 14.718C43.6118 16.4074 42.157 17.486 40.7818 17.486ZM42.0784 10.5742C41.785 10.5742 41.5151 10.6587 41.3104 10.7485C40.5733 11.0697 39.9058 11.7982 39.5231 12.6971C38.9042 14.1717 39.1811 15.7741 40.141 16.2668C40.1623 16.2775 40.1885 16.2914 40.2147 16.3011C41.2719 16.7463 42.6973 15.8264 43.344 14.2995C43.7369 13.3754 43.7898 12.3733 43.4846 11.6191C43.3569 11.3032 43.1035 10.8842 42.6241 10.6822C42.4513 10.6098 42.2657 10.5731 42.0784 10.5742ZM33.265 10.4256C32.9562 10.4257 32.649 10.3796 32.3538 10.2888C32.2845 10.267 32.2163 10.2417 32.1496 10.2129C30.1763 9.47002 29.2768 6.75011 30.1309 4.03288C30.7065 2.18736 31.9882 0.71971 33.4745 0.203414C34.1522 -0.0392346 34.8604 -0.0632855 35.521 0.138209C36.5787 0.467976 37.3858 1.32205 37.7979 2.54438C38.1885 3.70471 38.1763 5.07349 37.7631 6.39897C37.0143 8.7998 35.1207 10.4256 33.265 10.4256ZM34.6076 1.07086C34.3422 1.07263 34.0791 1.12037 33.83 1.21195C32.6531 1.62082 31.6285 2.82391 31.1512 4.35249C30.4778 6.4941 31.1084 8.67954 32.5558 9.22523C32.6146 9.25035 32.6456 9.25997 32.6755 9.27013C34.2153 9.74474 36.0464 8.31771 36.7417 6.08149C37.0886 4.9698 37.1041 3.83512 36.7845 2.88644C36.4847 1.99709 35.9245 1.38405 35.2062 1.16011C35.0123 1.10063 34.8105 1.07054 34.6076 1.07086ZM15.1749 17.4876C14.7663 17.4846 14.3627 17.398 13.9889 17.2332C12.9937 16.797 12.1423 15.8804 11.6506 14.7169C10.7987 12.7207 11.284 10.5539 12.7564 9.78536C12.8134 9.75476 12.8717 9.72676 12.9312 9.70144C14.5287 9.02855 16.5442 10.1867 17.4341 12.2792C17.944 13.4817 17.9974 14.7596 17.5811 15.7853C17.2898 16.5025 16.797 17.0242 16.1556 17.2941L16.154 17.2946C15.8438 17.4238 15.5109 17.4894 15.1749 17.4876ZM13.8996 10.5753C13.711 10.5753 13.5277 10.6095 13.355 10.6822C13.3304 10.6934 13.2962 10.7078 13.2626 10.7266C12.2866 11.2364 12.0098 12.8356 12.6346 14.2984C13.0162 15.2011 13.6816 15.9312 14.4154 16.2524C14.7409 16.393 15.2385 16.518 15.7414 16.308C16.2134 16.1092 16.4635 15.695 16.5902 15.3828C16.8959 14.6292 16.8435 13.625 16.4496 12.6966C15.9109 11.4272 14.8376 10.5753 13.8996 10.5753ZM22.6986 10.4273C22.3095 10.4259 21.9234 10.3593 21.5564 10.23C20.0733 9.71053 18.7943 8.24341 18.2171 6.3995C17.3732 3.70204 18.2679 0.983737 20.2545 0.209827C20.3266 0.180966 20.3961 0.154778 20.472 0.133933C22.557 -0.511169 24.9781 1.23654 25.8493 4.03341C26.3469 5.62773 26.2523 7.32413 25.5954 8.57104C25.139 9.43688 24.4565 10.0307 23.6211 10.2883C23.3224 10.3809 23.0113 10.4277 22.6986 10.4273ZM21.3817 1.06925C21.175 1.06925 20.9717 1.09972 20.7718 1.16065C20.7184 1.17561 20.6847 1.19004 20.6505 1.2034C19.1781 1.77689 18.5607 3.91797 19.2379 6.08042C19.7157 7.60793 20.7387 8.81102 21.9076 9.22042C22.3945 9.38878 22.8648 9.40481 23.3041 9.26799L23.3058 9.26746C23.8637 9.09589 24.3287 8.68275 24.6494 8.07345C25.1769 7.0724 25.2437 5.68171 24.8285 4.35249C24.2224 2.40649 22.7649 1.06925 21.3817 1.06925Z" fill="black"/>
<path d="M32.3224 37.2687L40.5735 29.0834C42.3319 27.3394 45.1828 27.3394 46.9412 29.0834C47.3588 29.4964 47.6904 29.9882 47.9167 30.5303C48.143 31.0723 48.2595 31.6539 48.2595 32.2413C48.2595 32.8287 48.143 33.4102 47.9167 33.9523C47.6904 34.4943 47.3588 34.9861 46.9412 35.3992L35.9942 46.1965C27.9147 54.166 19.4792 54.4722 11.0244 46.8945V29.4602H21.5834" fill="white"/>
<path d="M23.2517 52.9542C19.0839 52.9542 14.8804 51.067 10.6682 47.292C10.6122 47.2419 10.5674 47.1805 10.5368 47.1119C10.5061 47.0433 10.4902 46.969 10.4902 46.8938V29.46C10.4902 29.3183 10.5465 29.1823 10.6468 29.0821C10.747 28.9819 10.883 28.9256 11.0247 28.9256H21.5831C21.7249 28.9256 21.8608 28.9819 21.961 29.0821C22.0613 29.1823 22.1176 29.3183 22.1176 29.46C22.1176 29.6018 22.0613 29.7377 21.961 29.838C21.8608 29.9382 21.7249 29.9945 21.5831 29.9945H11.5597V46.6539C19.6858 53.828 27.7803 53.5474 35.6199 45.8153L46.5663 35.018C47.3135 34.2767 47.7261 33.29 47.7261 32.2409C47.7261 31.1917 47.314 30.2045 46.5652 29.4622C45.0169 27.9266 42.4985 27.9282 40.9506 29.4622L32.699 37.6481C32.6495 37.6989 32.5903 37.7393 32.525 37.767C32.4597 37.7947 32.3895 37.8091 32.3186 37.8094C32.2476 37.8097 32.1773 37.7959 32.1118 37.7687C32.0462 37.7416 31.9867 37.7016 31.9368 37.6513C31.8868 37.6009 31.8474 37.5411 31.8208 37.4753C31.7942 37.4095 31.781 37.3391 31.7819 37.2682C31.7828 37.1972 31.7978 37.1272 31.8261 37.0621C31.8543 36.997 31.8952 36.9382 31.9465 36.8891L40.1976 28.7038C42.1596 26.7572 45.3541 26.7567 47.3172 28.7038C47.7864 29.1655 48.1586 29.7163 48.4123 30.3237C48.666 30.9312 48.7959 31.5831 48.7945 32.2414C48.7945 33.5776 48.2702 34.8341 47.3172 35.7785L36.3697 46.5769C32.0598 50.8281 27.6761 52.9542 23.2517 52.9542Z" fill="black"/>
<path d="M21.584 29.4595H29.3407C31.8265 29.4595 33.8436 31.4595 33.8436 33.9266C33.8436 36.3937 31.8287 38.3936 29.3407 38.3936H21.584" fill="white"/>
<path d="M29.341 38.9284H21.5843C21.4425 38.9284 21.3066 38.872 21.2063 38.7718C21.1061 38.6716 21.0498 38.5356 21.0498 38.3939C21.0498 38.2521 21.1061 38.1162 21.2063 38.016C21.3066 37.9157 21.4425 37.8594 21.5843 37.8594H29.341C31.5297 37.8594 33.31 36.0957 33.31 33.9273C33.31 31.759 31.5297 29.9947 29.341 29.9947H21.5843C21.4425 29.9947 21.3066 29.9384 21.2063 29.8382C21.1061 29.7379 21.0498 29.602 21.0498 29.4602C21.0498 29.3185 21.1061 29.1826 21.2063 29.0823C21.3066 28.9821 21.4425 28.9258 21.5843 28.9258H29.341C32.1186 28.9258 34.3789 31.1695 34.3789 33.9273C34.3789 36.6847 32.1186 38.9284 29.341 38.9284Z" fill="black"/>
<path d="M11.0258 29.0513V47.747C11.0258 48.6663 10.2722 49.4145 9.34221 49.4145H2.21775C1.28778 49.4145 0.53418 48.6663 0.53418 47.747V29.0513C0.53418 28.1267 1.29312 27.3784 2.21775 27.3784H9.34221C10.2722 27.3784 11.0258 28.1267 11.0258 29.0513Z" fill="white"/>
<path d="M8.16638 29.0513V47.747C8.16638 48.6663 7.41278 49.4145 6.48281 49.4145H2.21775C1.28778 49.4145 0.53418 48.6663 0.53418 47.747V29.0513C0.53418 28.1267 1.29312 27.3784 2.21775 27.3784H6.47746C7.41278 27.3784 8.16638 28.1267 8.16638 29.0513Z" fill="#FE7A36"/>
<path d="M9.3425 49.9493H2.21804C0.995179 49.9493 0 48.9616 0 47.7473V45.572C0 45.4302 0.0563095 45.2943 0.156542 45.1941C0.256774 45.0938 0.392718 45.0375 0.534468 45.0375C0.676218 45.0375 0.812161 45.0938 0.912393 45.1941C1.01263 45.2943 1.06894 45.4302 1.06894 45.572V47.7473C1.06894 48.3721 1.58416 48.8804 2.21804 48.8804H9.3425C9.97638 48.8804 10.4916 48.3721 10.4916 47.7473V29.0516C10.4916 28.4241 9.97638 27.9132 9.3425 27.9132H2.21804C1.58416 27.9132 1.06894 28.4241 1.06894 29.0516V35.9516C1.06894 36.0933 1.01263 36.2293 0.912393 36.3295C0.812161 36.4297 0.676218 36.486 0.534468 36.486C0.392718 36.486 0.256774 36.4297 0.156542 36.3295C0.0563095 36.2293 0 36.0933 0 35.9516V29.0516C0 27.8346 0.995179 26.8442 2.21804 26.8442H9.3425C10.5654 26.8442 11.5605 27.8346 11.5605 29.0516V47.7473C11.5605 48.9616 10.5654 49.9493 9.3425 49.9493Z" fill="black"/>
<path d="M7.66728 33.5202C7.52553 33.5202 7.38959 33.4639 7.28935 33.3637C7.18912 33.2634 7.13281 33.1275 7.13281 32.9857V31.5437C7.13281 31.402 7.18912 31.2661 7.28935 31.1658C7.38959 31.0656 7.52553 31.0093 7.66728 31.0093C7.80903 31.0093 7.94497 31.0656 8.04521 31.1658C8.14544 31.2661 8.20175 31.402 8.20175 31.5437V32.9857C8.20175 33.1275 8.14544 33.2634 8.04521 33.3637C7.94497 33.4639 7.80903 33.5202 7.66728 33.5202Z" fill="black"/>
<path opacity="0.1" d="M13 30V45C15.8333 47.8333 23.1 52.4 29.5 48C35.9 43.6 43.5 35.5 46.5 32C46.5 31.062 46.3707 29.3698 45.9043 28.7426L45.5 28.5C45.6568 28.5 45.7906 28.5896 45.9043 28.7426L48 30V34.5C42.1667 40.5 29.9 52.3 27.5 51.5C25.8333 52.1667 21.4 52.6 17 51C17 50.6 13 48.3333 11 47V30L13 29.5V30Z" fill="#294157" stroke="#294157" stroke-width="0.3"/>
</svg>
