<svg width="54" height="48" viewBox="0 0 54 48" fill="none" xmlns="http://www.w3.org/2000/svg">
<path opacity="0.3" d="M50.68 42.72C50.68 43.54 50.35 44.28 49.82 44.81C49.28 45.34 48.55 45.67 47.73 45.67H20.5C19.68 45.67 19.02 45.01 19.02 44.19C19.02 43.78 18.85 43.41 18.59 43.14C18.32 42.87 17.95 42.71 17.54 42.71H11.38C10.56 42.71 9.9 42.05 9.9 41.23V37.89C9.9 37.07 9.24 36.41 8.42 36.41H6.11C4.48 36.41 3.15 35.09 3.15 33.45C3.15 32.63 3.48 31.89 4.01 31.36C4.55 30.83 5.28 30.5 6.1 30.5H13.59C14.41 30.5 15.07 29.84 15.07 29.02V24.36H2.76C1.23 24.36 0 23.12 0 21.6C0 20.84 0.31 20.15 0.81 19.65C1.31 19.15 2 18.84 2.76 18.84H15.1V15.1C15.1 14.28 14.44 13.62 13.62 13.62H5.68C4.05 13.62 2.72 12.3 2.72 10.66C2.72 9.84 3.05 9.1 3.58 8.57C4.11 8.04 4.85 7.71 5.67 7.71H23.47C24.29 7.71 24.95 7.05 24.95 6.23V5.48C24.95 4.66 25.61 4 26.43 4H50.95C52.58 4 53.91 5.32 53.91 6.96C53.91 7.78 53.58 8.51 53.05 9.05C52.51 9.58 51.78 9.91 50.96 9.91H41.57C40.19 9.91 39.07 11.03 39.07 12.41C39.07 13.79 40.19 14.91 41.57 14.91H47.27C48.9 14.91 50.23 16.23 50.23 17.87C50.23 18.69 49.9 19.42 49.37 19.96C48.83 20.49 48.1 20.82 47.28 20.82H41.85C40.32 20.82 39.08 22.06 39.08 23.59V36.98C39.08 38.51 40.32 39.75 41.85 39.75H47.75C49.36 39.76 50.68 41.08 50.68 42.72Z" fill="#FE7A36"/>
<path d="M40.8634 27.6499L41.5034 11.7199C41.2934 10.1899 42.3034 8.74986 43.8234 8.43986C45.3734 8.11986 46.8934 9.07986 47.2734 10.6199L49.1834 28.3299C49.2734 28.6899 49.2334 29.0799 49.0634 29.4099L45.0034 37.4699C44.8934 37.6799 44.7434 37.8699 44.5534 38.0099L41.1034 40.6399L31.4434 35.7799L36.5534 25.6999C37.2534 24.7699 38.5234 24.4699 39.5734 24.9999C40.7634 25.5999 41.2434 27.0499 40.6434 28.2499L38.5434 32.8799" fill="white"/>
<path opacity="0.1" d="M41.1136 40.6201L39.6836 39.9001L42.1936 37.9901C42.3836 37.8401 42.5336 37.6601 42.6336 37.4501L46.6936 29.3901C46.8536 29.0601 46.9036 28.6701 46.8136 28.3101L44.9036 10.6101C44.6736 9.69012 44.0336 8.98012 43.2336 8.62012C43.4136 8.53012 43.6136 8.47012 43.8236 8.43012C44.0236 8.39012 44.2136 8.37012 44.4236 8.37012C45.7436 8.37012 46.9536 9.27012 47.2836 10.6101L49.1936 28.3101C49.2836 28.6701 49.2436 29.0601 49.0736 29.3901L45.0136 37.4501C44.9136 37.6601 44.7536 37.8401 44.5636 37.9901L41.1136 40.6201ZM40.8536 27.6601C40.8636 27.6501 40.8636 27.6401 40.8636 27.6301V27.6501L40.8536 27.6601Z" fill="#294157"/>
<path d="M38.5635 32.8601L40.8535 27.6501C40.8135 27.8401 40.7435 28.0401 40.6535 28.2201L38.5635 32.8601ZM42.7035 28.5501L42.7335 27.7601C42.7635 28.0201 42.7535 28.2901 42.7035 28.5501ZM40.8635 27.6201L40.8935 26.8301C40.9235 27.0901 40.9135 27.3601 40.8635 27.6201Z" fill="#294157"/>
<path d="M38.5635 32.8601L40.8535 27.6501C40.8135 27.8401 40.7435 28.0401 40.6535 28.2201L38.5635 32.8601ZM42.7035 28.5501L42.7335 27.7601C42.7635 28.0201 42.7535 28.2901 42.7035 28.5501ZM40.8635 27.6201L40.8935 26.8301C40.9235 27.0901 40.9135 27.3601 40.8635 27.6201ZM40.9335 25.7201L40.8935 26.8201C40.8735 26.6701 40.8335 26.5201 40.7935 26.3801C40.7135 26.1101 40.5735 25.8601 40.3935 25.6401C40.5735 25.6501 40.7535 25.6701 40.9335 25.7201Z" fill="#294157"/>
<path d="M41.1131 41.2298C41.0231 41.2298 40.9231 41.2098 40.8431 41.1698L31.1831 36.3098C31.0431 36.2398 30.9331 36.1098 30.8831 35.9598C30.8331 35.8098 30.8431 35.6398 30.9231 35.4998L36.0331 25.4198C36.0531 25.3898 36.0631 25.3598 36.0931 25.3298C36.9731 24.1598 38.5631 23.7898 39.8631 24.4498C40.0431 24.5398 40.2131 24.6498 40.3731 24.7698L40.8931 11.7498C40.6731 9.92978 41.8931 8.21978 43.6931 7.84978C45.5731 7.45978 47.4031 8.60978 47.8631 10.4698C47.8731 10.4998 47.8731 10.5198 47.8731 10.5498L49.7831 28.2198C49.8931 28.7098 49.8331 29.2298 49.6031 29.6798L45.5431 37.7398C45.3931 38.0298 45.1831 38.2898 44.9231 38.4898L41.4731 41.1198C41.3731 41.1898 41.2431 41.2298 41.1131 41.2298ZM32.2731 35.4898L41.0431 39.9098L44.1831 37.5098C44.2931 37.4198 44.3931 37.3098 44.4531 37.1798L48.5131 29.1198C48.6131 28.9198 48.6431 28.6798 48.5831 28.4598C48.5731 28.4298 48.5731 28.4098 48.5731 28.3798L46.6631 10.7198C46.3431 9.51978 45.1531 8.76978 43.9331 9.02978C42.7331 9.27978 41.9231 10.4198 42.0931 11.6298C42.0931 11.6698 42.1031 11.6998 42.0931 11.7398L41.4831 26.7898C41.5531 27.3698 41.4531 27.9598 41.1731 28.4998L39.0931 33.1098C38.9531 33.4198 38.5931 33.5498 38.2931 33.4098C37.9831 33.2698 37.8531 32.9098 37.9931 32.6098L40.0931 27.9798C40.1631 27.8398 40.2131 27.6998 40.2431 27.5598L40.2731 26.8498C40.2631 26.7598 40.2331 26.6598 40.2031 26.5698C40.0531 26.1098 39.7331 25.7398 39.3031 25.5198C38.5331 25.1298 37.6131 25.3398 37.0731 26.0098L32.2731 35.4898Z" fill="#241C70"/>
<path d="M30.633 35.3398L42.233 41.1798C42.843 41.4898 43.083 42.2298 42.773 42.8398L40.913 46.5398C40.603 47.1498 39.863 47.3898 39.253 47.0898L27.653 41.2498C27.043 40.9398 26.793 40.1998 27.103 39.5898L28.963 35.8898C29.273 35.2798 30.023 35.0398 30.633 35.3398Z" fill="#FE7A36"/>
<path opacity="0.4" d="M30.6333 35.3398L30.9733 35.5098L29.3033 38.8198C28.9933 39.4298 29.2433 40.1698 29.8533 40.4798L41.1033 46.1398L40.9033 46.5398C40.5933 47.1498 39.8533 47.3898 39.2433 47.0898L27.6433 41.2498C27.0333 40.9398 26.7833 40.1998 27.0933 39.5898L28.9533 35.8898C29.2733 35.2798 30.0233 35.0398 30.6333 35.3398Z" fill="white"/>
<path d="M39.8038 47.8302C39.5238 47.8302 39.2338 47.7602 38.9738 47.6302L27.3738 41.7902C26.9338 41.5702 26.6038 41.1902 26.4538 40.7202C26.2938 40.2502 26.3338 39.7502 26.5538 39.3102L28.4138 35.6102C28.8738 34.7002 29.9838 34.3302 30.8938 34.7902L42.4838 40.6302C42.9238 40.8502 43.2538 41.2302 43.4038 41.7002C43.5538 42.1702 43.5238 42.6702 43.2938 43.1102L41.4338 46.8102C41.2138 47.2502 40.8338 47.5802 40.3638 47.7302C40.1938 47.8002 40.0038 47.8302 39.8038 47.8302ZM30.0738 35.8202C29.8438 35.8202 29.6138 35.9502 29.5038 36.1702L27.6438 39.8702C27.5638 40.0202 27.5538 40.1902 27.6138 40.3502C27.6638 40.5102 27.7838 40.6402 27.9338 40.7202L39.5238 46.5602C39.6738 46.6402 39.8438 46.6502 40.0038 46.6002C40.1638 46.5502 40.2938 46.4402 40.3638 46.2902L42.2238 42.5902C42.3038 42.4402 42.3138 42.2702 42.2638 42.1102C42.2138 41.9502 42.1038 41.8202 41.9538 41.7402L30.3638 35.9002C30.2638 35.8402 30.1738 35.8202 30.0738 35.8202Z" fill="#241C70"/>
<path d="M9.98294 27.6499L9.34294 11.7199C9.55294 10.1899 8.54294 8.74986 7.02294 8.43986C5.47294 8.11986 3.95294 9.07986 3.57294 10.6199L1.66294 28.3099C1.57294 28.6699 1.61294 29.0599 1.78294 29.3899L5.84294 37.4499C5.95294 37.6599 6.10294 37.8499 6.29294 37.9899L9.74294 40.6199L19.4029 35.7599L14.2929 25.6799C13.5929 24.7499 12.3229 24.4499 11.2729 24.9799C10.0829 25.5799 9.60294 27.0299 10.2029 28.2299L12.3029 32.8599" fill="white"/>
<path opacity="0.1" d="M9.73318 40.6201L11.1632 39.9001L8.65318 37.9901C8.46318 37.8401 8.31318 37.6601 8.21318 37.4501L4.15318 29.3901C3.99318 29.0601 3.94318 28.6701 4.03318 28.3101L5.94318 10.6101C6.17318 9.69012 6.81318 8.98012 7.61318 8.62012C7.43318 8.53012 7.23318 8.47012 7.02318 8.43012C6.82318 8.39012 6.63318 8.37012 6.42318 8.37012C5.10318 8.37012 3.89318 9.27012 3.56318 10.6101L1.65318 28.3101C1.56318 28.6701 1.60318 29.0601 1.77318 29.3901L5.83318 37.4501C5.93318 37.6601 6.09318 37.8401 6.28318 37.9901L9.73318 40.6201ZM9.98318 27.6601C9.97318 27.6501 9.97318 27.6401 9.97318 27.6301V27.6501L9.98318 27.6601Z" fill="#294157"/>
<path d="M12.2838 32.8601L9.99384 27.6501C10.0338 27.8401 10.1038 28.0401 10.1938 28.2201L12.2838 32.8601ZM8.14384 28.5501L8.11384 27.7601C8.07384 28.0201 8.08384 28.2901 8.14384 28.5501ZM9.98384 27.6201L9.95384 26.8301C9.91384 27.0901 9.92384 27.3601 9.98384 27.6201Z" fill="#294157"/>
<path d="M12.2838 32.8601L9.99384 27.6501C10.0338 27.8401 10.1038 28.0401 10.1938 28.2201L12.2838 32.8601ZM8.14384 28.5501L8.11384 27.7601C8.07384 28.0201 8.08384 28.2901 8.14384 28.5501ZM9.98384 27.6201L9.95384 26.8301C9.91384 27.0901 9.92384 27.3601 9.98384 27.6201ZM9.90384 25.7201L9.94384 26.8201C9.96384 26.6701 10.0038 26.5201 10.0438 26.3801C10.1238 26.1101 10.2638 25.8601 10.4438 25.6401C10.2638 25.6501 10.0838 25.6701 9.90384 25.7201Z" fill="#294157"/>
<path d="M9.73338 41.23C9.60338 41.23 9.47338 41.19 9.36338 41.11L5.91338 38.48C5.65338 38.28 5.44338 38.02 5.29338 37.73L1.23338 29.67C1.00338 29.22 0.943382 28.7 1.05338 28.21L2.96338 10.54C2.96338 10.51 2.97338 10.49 2.97338 10.46C3.43338 8.60001 5.26338 7.45001 7.14338 7.84001C8.94338 8.21001 10.1634 9.92001 9.94338 11.74L10.4634 24.76C10.6234 24.64 10.7934 24.53 10.9734 24.44C12.2834 23.78 13.8634 24.15 14.7434 25.32C14.7634 25.35 14.7834 25.38 14.8034 25.41L19.9134 35.49C19.9834 35.63 20.0034 35.8 19.9534 35.95C19.9034 36.1 19.7934 36.23 19.6534 36.3L9.99338 41.16C9.92338 41.21 9.82338 41.23 9.73338 41.23ZM4.17338 10.71L2.27338 28.37C2.27338 28.4 2.26338 28.42 2.26338 28.45C2.19338 28.68 2.22338 28.92 2.32338 29.12L6.38338 37.18C6.44338 37.31 6.54338 37.42 6.65338 37.51L9.79338 39.91L18.5634 35.49L13.7534 26.01C13.2234 25.34 12.2934 25.13 11.5234 25.52C11.0934 25.74 10.7734 26.11 10.6234 26.57C10.5934 26.66 10.5734 26.75 10.5534 26.85L10.5934 27.57C10.6234 27.7 10.6734 27.83 10.7334 27.95L12.8434 32.61C12.9834 32.92 12.8434 33.28 12.5434 33.41C12.2334 33.55 11.8734 33.41 11.7434 33.11L9.64338 28.48C9.38338 27.96 9.28338 27.37 9.35338 26.79L8.74338 11.74C8.74338 11.7 8.74338 11.67 8.74338 11.63C8.91338 10.42 8.10338 9.27001 6.90338 9.03001C5.67338 8.77001 4.48338 9.51001 4.17338 10.71Z" fill="#241C70"/>
<path d="M20.2139 35.3398L8.61386 41.1798C8.00386 41.4898 7.76386 42.2298 8.07386 42.8398L9.93386 46.5398C10.2439 47.1498 10.9839 47.3898 11.5939 47.0898L23.1939 41.2498C23.8039 40.9398 24.0539 40.1998 23.7439 39.5898L21.8839 35.8898C21.5739 35.2798 20.8239 35.0398 20.2139 35.3398Z" fill="#FE7A36"/>
<path opacity="0.4" d="M20.2132 35.3398L19.8732 35.5098L21.5432 38.8198C21.8532 39.4298 21.6032 40.1698 20.9932 40.4798L9.74316 46.1398L9.94316 46.5398C10.2532 47.1498 10.9932 47.3898 11.6032 47.0898L23.2032 41.2498C23.8132 40.9398 24.0632 40.1998 23.7532 39.5898L21.8932 35.8898C21.5732 35.2798 20.8232 35.0398 20.2132 35.3398Z" fill="white"/>
<path d="M11.0434 47.8299C10.8534 47.8299 10.6534 47.7999 10.4634 47.7399C9.99343 47.5899 9.61342 47.2599 9.39342 46.8199L7.53342 43.1199C7.31342 42.6799 7.27343 42.1799 7.42343 41.7099C7.57343 41.2399 7.90343 40.8599 8.34343 40.6399L19.9334 34.7999C20.8434 34.3399 21.9534 34.7099 22.4134 35.6199L24.2734 39.3199C24.7334 40.2299 24.3634 41.3399 23.4534 41.7999L11.8534 47.6399C11.6034 47.7699 11.3234 47.8299 11.0434 47.8299ZM20.4834 35.8899L8.89342 41.7199C8.74342 41.7899 8.63342 41.9199 8.58343 42.0799C8.53343 42.2399 8.54343 42.4099 8.62343 42.5599L10.4834 46.2599C10.5634 46.4099 10.6834 46.5199 10.8434 46.5699C11.0034 46.6199 11.1734 46.6099 11.3234 46.5299L22.9134 40.6899C23.0634 40.6099 23.1734 40.4799 23.2334 40.3199C23.2834 40.1599 23.2734 39.9899 23.2034 39.8399L21.3434 36.1399C21.1834 35.8499 20.7934 35.7299 20.4834 35.8899Z" fill="#241C70"/>
<path d="M33.4834 0.459961H17.6934V3.78996H33.4834V0.459961Z" fill="white"/>
<path opacity="0.1" d="M33.4831 0.459961V1.76996H18.8531V3.78996H17.7031V0.459961H33.4831Z" fill="#294157"/>
<path d="M33.4834 22.77H17.6934V26.1H33.4834V22.77Z" fill="white"/>
<path opacity="0.1" d="M33.4831 22.77V24.06H18.8531V26.1H17.7031V22.77H33.4831Z" fill="#294157"/>
<path d="M33.4834 4.25H17.6934C17.4434 4.25 17.2334 4.05 17.2334 3.79V0.46C17.2334 0.21 17.4334 0 17.6934 0H33.4834C33.7334 0 33.9434 0.2 33.9434 0.46V3.79C33.9434 4.04 33.7434 4.25 33.4834 4.25ZM18.1534 3.34H33.0334V0.92H18.1534V3.34ZM33.4834 26.56H17.6934C17.4434 26.56 17.2334 26.36 17.2334 26.1V22.77C17.2334 22.52 17.4334 22.31 17.6934 22.31H33.4834C33.7334 22.31 33.9434 22.51 33.9434 22.77V26.1C33.9434 26.36 33.7434 26.56 33.4834 26.56ZM18.1534 25.65H33.0334V23.23H18.1534V25.65Z" fill="#241C70"/>
<path d="M32.8235 22.77H18.3535C18.4235 19.39 20.8035 14.56 23.9835 13.28C20.8035 12 18.4235 7.17004 18.3535 3.79004H32.8235C32.7535 7.17004 30.3735 12 27.1935 13.28C30.3835 14.57 32.7635 19.39 32.8235 22.77Z" fill="white"/>
<path d="M32.8231 23.2301H18.3631C18.2431 23.2301 18.1231 23.1801 18.0431 23.0901C17.9531 23.0001 17.9131 22.8801 17.9131 22.7601C17.9731 19.4801 20.0331 15.0501 22.9831 13.2801C20.0331 11.5001 17.9731 7.08008 17.9131 3.80008C17.9131 3.68008 17.9531 3.56008 18.0431 3.47008C18.1331 3.38008 18.2431 3.33008 18.3631 3.33008H32.8331C32.9531 3.33008 33.0731 3.38008 33.1531 3.47008C33.2431 3.56008 33.2831 3.68008 33.2831 3.80008C33.2231 7.08008 31.1631 11.5101 28.2131 13.2801C31.0931 15.0401 33.2231 19.4901 33.2831 22.7601C33.2831 22.8801 33.2431 23.0001 33.1531 23.0901C33.0631 23.1801 32.9531 23.2301 32.8231 23.2301ZM18.8331 22.3201H32.3431C32.0931 19.0701 29.8631 14.8501 27.0231 13.7101C26.8531 13.6401 26.7331 13.4701 26.7331 13.2901C26.7331 13.1001 26.8431 12.9401 27.0231 12.8701C29.8631 11.7201 32.0931 7.50008 32.3431 4.26008H18.8331C19.0831 7.51008 21.3131 11.7301 24.1531 12.8701C24.3231 12.9401 24.4431 13.1101 24.4431 13.2901C24.4431 13.4801 24.3331 13.6401 24.1531 13.7101C21.3131 14.8501 19.0931 19.0701 18.8331 22.3201Z" fill="#241C70"/>
<path d="M19.6338 8.60986C20.9338 11.8899 25.5938 14.6999 25.5938 14.6999C25.5938 14.6999 30.2538 11.8899 31.5538 8.60986H19.6338Z" fill="#FE7A36"/>
<path opacity="0.4" d="M30.8438 9.93986C31.1338 9.50986 31.3738 9.05986 31.5538 8.60986H19.6338C19.8138 9.05986 20.0638 9.50986 20.3438 9.93986H30.8438Z" fill="white"/>
<path d="M25.5932 15.1499C25.5132 15.1499 25.4332 15.1299 25.3532 15.0799C25.1532 14.9599 20.5432 12.1499 19.2032 8.7699C19.1432 8.6299 19.1632 8.4699 19.2532 8.3499C19.3432 8.2299 19.4832 8.1499 19.6332 8.1499H31.5532C31.7032 8.1499 31.8432 8.2199 31.9332 8.3499C32.0132 8.4799 32.0332 8.6299 31.9832 8.7699C30.6332 12.1499 26.0332 14.9599 25.8332 15.0799C25.7532 15.1299 25.6732 15.1499 25.5932 15.1499ZM20.3432 9.0599C21.6532 11.4899 24.7132 13.5899 25.5932 14.1499C26.4632 13.5799 29.5332 11.4799 30.8432 9.0599H20.3432Z" fill="#241C70"/>
<path d="M19.1735 19.0001C18.6735 20.2901 18.3735 21.6101 18.3535 22.7701H32.8235C32.8035 21.6201 32.5035 20.2901 32.0035 19.0001C27.4535 18.4601 23.1435 20.7501 19.1735 19.0001Z" fill="#FE7A36"/>
<path opacity="0.4" d="M32.3033 19.85C28.7133 19.53 25.2833 20.86 22.0533 20.48C20.6033 20.31 19.2433 21.29 19.0633 22.74V22.77H18.3633C18.3833 21.61 18.6733 20.29 19.1833 19C23.1533 20.74 27.4633 18.46 32.0133 19C32.1233 19.28 32.2233 19.57 32.3033 19.85Z" fill="white"/>
<path d="M32.8231 23.23H18.3631C18.2431 23.23 18.1231 23.18 18.0431 23.09C17.9531 23 17.9131 22.88 17.9131 22.76C17.9331 21.56 18.2331 20.21 18.7631 18.83C18.8131 18.71 18.9031 18.62 19.0131 18.57C19.1231 18.52 19.2531 18.52 19.3731 18.57C21.5631 19.53 23.9031 19.19 26.3731 18.84C28.2131 18.58 30.1031 18.3 32.0731 18.54C32.2431 18.56 32.3831 18.67 32.4431 18.83C32.9731 20.2 33.2731 21.56 33.2931 22.76C33.2931 22.88 33.2531 23 33.1631 23.09C33.0631 23.18 32.9531 23.23 32.8231 23.23ZM18.8331 22.32H32.3431C32.2731 21.43 32.0431 20.42 31.6731 19.43C29.9131 19.27 28.1731 19.52 26.4831 19.76C24.0331 20.11 21.7131 20.45 19.4331 19.6C19.1131 20.54 18.9031 21.48 18.8331 22.32Z" fill="#241C70"/>
<path d="M26.7536 16.85C26.7536 17.49 26.2336 18.01 25.5936 18.01C24.9536 18.01 24.4336 17.49 24.4336 16.85C24.4336 16.21 25.5936 14.77 25.5936 14.77C25.5936 14.77 26.7536 16.22 26.7536 16.85Z" fill="#FAA857"/>
<path d="M25.5934 18.4598C24.7034 18.4598 23.9834 17.7398 23.9834 16.8498C23.9834 16.1098 24.9434 14.8598 25.2434 14.4898L25.5934 14.0498L25.9534 14.4898C26.2434 14.8598 27.2134 16.1098 27.2134 16.8498C27.2034 17.7398 26.4834 18.4598 25.5934 18.4598ZM25.5934 15.5398C25.2134 16.0798 24.8934 16.6398 24.8934 16.8598C24.8934 17.2498 25.2034 17.5598 25.5934 17.5598C25.9834 17.5598 26.2934 17.2498 26.2934 16.8598C26.2934 16.6398 25.9734 16.0698 25.5934 15.5398Z" fill="#241C70"/>
</svg>
