<svg width="500" height="500" viewBox="0 0 500 500" fill="none" xmlns="http://www.w3.org/2000/svg">
<path d="M500 382.4H0V382.65H500V382.4Z" fill="#EBEBEB"/>
<path d="M449.899 398.49H416.779V398.74H449.899V398.49Z" fill="#EBEBEB"/>
<path d="M269.861 395.44H239.641V395.69H269.861V395.44Z" fill="#EBEBEB"/>
<path d="M415.781 389.21H345.891V389.46H415.781V389.21Z" fill="#EBEBEB"/>
<path d="M219.601 390.89H52.4609V391.14H219.601V390.89Z" fill="#EBEBEB"/>
<path d="M234.83 390.89H228.5V391.14H234.83V390.89Z" fill="#EBEBEB"/>
<path d="M237.001 337.8H43.9109C42.3983 337.797 40.9485 337.195 39.8798 336.124C38.8112 335.053 38.2109 333.603 38.2109 332.09V60.66C38.2241 59.156 38.8301 57.718 39.8974 56.6582C40.9646 55.5985 42.4069 55.0026 43.9109 55H237.001C238.515 55 239.968 55.6016 241.039 56.6724C242.109 57.7433 242.711 59.1956 242.711 60.71V332.09C242.711 333.604 242.109 335.057 241.039 336.128C239.968 337.198 238.515 337.8 237.001 337.8ZM43.9109 55.2C42.4646 55.2026 41.0784 55.7791 40.0566 56.8027C39.0348 57.8264 38.4609 59.2136 38.4609 60.66V332.09C38.4609 333.536 39.0348 334.924 40.0566 335.947C41.0784 336.971 42.4646 337.547 43.9109 337.55H237.001C238.448 337.547 239.835 336.971 240.859 335.948C241.882 334.924 242.458 333.537 242.461 332.09V60.66C242.458 59.2127 241.882 57.8255 240.859 56.8021C239.835 55.7787 238.448 55.2026 237.001 55.2H43.9109Z" fill="#EBEBEB"/>
<path d="M453.31 337.8H260.21C258.696 337.797 257.246 337.195 256.175 336.125C255.105 335.054 254.503 333.604 254.5 332.09V60.66C254.516 59.1551 255.124 57.7171 256.193 56.6576C257.262 55.5981 258.705 55.0025 260.21 55H453.31C454.812 55.0052 456.252 55.6022 457.317 56.6617C458.382 57.7212 458.987 59.1578 459 60.66V332.09C459 333.601 458.401 335.05 457.335 336.121C456.268 337.191 454.821 337.795 453.31 337.8ZM260.21 55.2C258.763 55.2026 257.375 55.7787 256.352 56.8021C255.329 57.8255 254.753 59.2127 254.75 60.66V332.09C254.753 333.537 255.329 334.924 256.352 335.948C257.375 336.971 258.763 337.547 260.21 337.55H453.31C454.757 337.547 456.145 336.971 457.168 335.948C458.191 334.924 458.767 333.537 458.77 332.09V60.66C458.767 59.2127 458.191 57.8255 457.168 56.8021C456.145 55.7787 454.757 55.2026 453.31 55.2H260.21Z" fill="#EBEBEB"/>
<path d="M420.279 377.81H443.859V280.68H420.279V377.81Z" fill="#F0F0F0"/>
<path d="M274.04 382.4H439.33V377.82H274.04V382.4Z" fill="#F0F0F0"/>
<path d="M420.28 280.69H269.51V377.82H420.28V280.69Z" fill="#F5F5F5"/>
<path d="M410.999 317.39H278.779V341.11H410.999V317.39Z" fill="#F0F0F0"/>
<path d="M410.999 345.44H278.779V369.16H410.999V345.44Z" fill="#F0F0F0"/>
<path d="M310.38 320H379.38C379.812 319.997 380.225 319.825 380.53 319.52C380.835 319.215 381.007 318.801 381.01 318.37C381.007 317.939 380.834 317.527 380.529 317.224C380.224 316.92 379.811 316.75 379.38 316.75H310.38C309.949 316.75 309.536 316.92 309.231 317.224C308.926 317.527 308.753 317.939 308.75 318.37C308.75 318.802 308.922 319.217 309.227 319.523C309.533 319.828 309.948 320 310.38 320Z" fill="#F5F5F5"/>
<path d="M410.999 289.34H278.779V313.06H410.999V289.34Z" fill="#F0F0F0"/>
<path d="M310.38 291.94H379.38C379.812 291.937 380.225 291.765 380.53 291.46C380.835 291.155 381.007 290.741 381.01 290.31C381.007 289.879 380.834 289.467 380.529 289.164C380.224 288.86 379.811 288.69 379.38 288.69H310.38C309.949 288.69 309.536 288.86 309.231 289.164C308.926 289.467 308.753 289.879 308.75 290.31C308.75 290.742 308.922 291.157 309.227 291.463C309.533 291.768 309.948 291.94 310.38 291.94Z" fill="#F5F5F5"/>
<path d="M310.38 348H379.38C379.812 347.997 380.225 347.825 380.53 347.52C380.835 347.215 381.007 346.801 381.01 346.37C381.007 345.939 380.834 345.527 380.529 345.224C380.224 344.92 379.811 344.75 379.38 344.75H310.38C309.949 344.75 309.536 344.92 309.231 345.224C308.926 345.527 308.753 345.939 308.75 346.37C308.75 346.802 308.922 347.217 309.227 347.523C309.533 347.828 309.948 348 310.38 348Z" fill="#F5F5F5"/>
<path d="M266.369 280.69H420.279V272.71H266.369V280.69Z" fill="#F0F0F0"/>
<path d="M447.159 272.71H420.279V280.69H447.159V272.71Z" fill="#E6E6E6"/>
<path d="M396.629 252.62C396.629 263.72 386.869 272.71 374.869 272.71C362.869 272.71 353.109 263.71 353.109 252.62C353.109 246.07 356.489 238.17 361.779 232.78H387.999C393.239 238.17 396.629 246.07 396.629 252.62Z" fill="#E6E6E6"/>
<path d="M426.76 256C426.76 265.23 418.65 272.7 408.67 272.7C398.69 272.7 390.59 265.23 390.59 256C390.59 250.56 393.4 244 397.79 239.51H419.55C423.94 244 426.76 250.57 426.76 256Z" fill="#F0F0F0"/>
<path d="M325.381 272.58H342.501L340.381 206.27H325.381V272.58Z" fill="#F0F0F0"/>
<path d="M295.68 272.58H337.35L342.5 196.38H300.83L295.68 272.58Z" fill="#E6E6E6"/>
<path d="M294.711 272.58H336.381L341.531 196.38H299.861L294.711 272.58Z" fill="#F0F0F0"/>
<path d="M330.87 263.39L334.48 206C334.507 205.574 334.447 205.147 334.302 204.745C334.158 204.343 333.932 203.975 333.64 203.664C333.347 203.352 332.994 203.104 332.602 202.935C332.21 202.766 331.787 202.679 331.36 202.68H308.49C307.695 202.681 306.93 202.984 306.351 203.529C305.771 204.073 305.421 204.817 305.37 205.61L301.75 263C301.724 263.426 301.785 263.853 301.93 264.254C302.076 264.655 302.301 265.023 302.593 265.334C302.885 265.645 303.238 265.892 303.63 266.062C304.021 266.232 304.443 266.32 304.87 266.32H327.75C328.544 266.317 329.308 266.013 329.886 265.469C330.465 264.925 330.817 264.183 330.87 263.39Z" fill="white"/>
<path d="M219.589 107.95H70.7793V297.33H219.589V107.95Z" fill="#E6E6E6"/>
<path d="M217.749 107.95H68.9395V297.33H217.749V107.95Z" fill="#FAFAFA"/>
<path d="M213.59 293.17V112.12L73.1098 112.12V293.17H213.59Z" fill="white"/>
<path d="M162.094 260.505C163.775 250.152 156.745 240.398 146.393 238.717C136.04 237.037 126.286 244.067 124.605 254.419C122.925 264.772 129.955 274.526 140.307 276.207C150.66 277.887 160.414 270.857 162.094 260.505Z" fill="#FAFAFA"/>
<path d="M150.602 220.186C160.292 216.172 164.893 205.063 160.88 195.374C156.866 185.684 145.757 181.083 136.068 185.097C126.378 189.11 121.777 200.219 125.791 209.908C129.804 219.598 140.913 224.199 150.602 220.186Z" fill="#EBEBEB"/>
<path d="M162.091 150.891C163.771 140.538 156.741 130.784 146.389 129.103C136.036 127.423 126.282 134.453 124.601 144.805C122.921 155.158 129.951 164.912 140.303 166.592C150.656 168.273 160.41 161.243 162.091 150.891Z" fill="#E0E0E0"/>
<path d="M363.781 165.49C388.578 165.49 408.681 145.388 408.681 120.59C408.681 95.7924 388.578 75.6899 363.781 75.6899C338.983 75.6899 318.881 95.7924 318.881 120.59C318.881 145.388 338.983 165.49 363.781 165.49Z" fill="#E0E0E0"/>
<path d="M362.339 165.49C387.137 165.49 407.239 145.388 407.239 120.59C407.239 95.7924 387.137 75.6899 362.339 75.6899C337.542 75.6899 317.439 95.7924 317.439 120.59C317.439 145.388 337.542 165.49 362.339 165.49Z" fill="#F0F0F0"/>
<path d="M401.61 120.59C401.62 129.878 398.34 138.869 392.352 145.969C386.364 153.069 378.055 157.819 368.899 159.376C359.743 160.934 350.331 159.198 342.332 154.476C334.334 149.755 328.266 142.353 325.205 133.584C322.144 124.815 322.288 115.245 325.611 106.572C328.934 97.8992 335.221 90.6832 343.358 86.2042C351.494 81.7252 360.954 80.2727 370.06 82.1043C379.165 83.9359 387.328 88.9332 393.1 96.2099L393.21 96.3399C398.665 103.244 401.626 111.79 401.61 120.59Z" fill="#FAFAFA"/>
<path d="M365.999 119.14C366.242 119.617 366.341 120.154 366.286 120.686C366.231 121.218 366.024 121.723 365.689 122.14L350.999 140.58C350.779 140.887 350.499 141.145 350.176 141.34C349.853 141.535 349.494 141.663 349.12 141.715C348.746 141.768 348.366 141.744 348.002 141.645C347.638 141.546 347.297 141.374 347.001 141.14C346.706 140.905 346.46 140.614 346.281 140.282C346.101 139.95 345.99 139.585 345.955 139.21C345.92 138.834 345.962 138.455 346.078 138.096C346.194 137.737 346.381 137.405 346.629 137.12L359.629 120.72L349.269 111.59C348.978 111.353 348.738 111.059 348.563 110.727C348.388 110.394 348.282 110.03 348.252 109.656C348.221 109.281 348.266 108.905 348.384 108.548C348.503 108.192 348.692 107.863 348.941 107.581C349.189 107.3 349.492 107.071 349.831 106.91C350.17 106.748 350.538 106.656 350.913 106.64C351.289 106.624 351.663 106.684 352.015 106.816C352.366 106.949 352.688 107.151 352.959 107.41L365.299 118.29C365.587 118.524 365.825 118.813 365.999 119.14Z" fill="#E0E0E0"/>
<path d="M249.999 427.56C357.082 427.56 443.889 422.492 443.889 416.24C443.889 409.988 357.082 404.92 249.999 404.92C142.917 404.92 56.1094 409.988 56.1094 416.24C56.1094 422.492 142.917 427.56 249.999 427.56Z" fill="#F5F5F5"/>
<path d="M355.02 419.95H144.98L152.07 411.33H347.93L355.02 419.95Z" fill="#FF6D38"/>
<path opacity="0.6" d="M355.02 419.95H144.98L152.07 411.33H347.93L355.02 419.95Z" fill="white"/>
<path d="M189.419 336.84C215.529 336.18 232.469 356.07 232.469 356.07C229.909 364.22 228.269 370.32 228.269 370.32C213.989 367.62 197.749 366.53 184.379 363.05C172.309 359.91 171.049 343.6 172.379 336.75C173.709 329.9 180.559 328.3 187.299 326.07C194.989 323.52 209.649 323.32 220.159 323.28C231.239 323.28 245.799 324.28 253.339 325.98C253.339 325.98 269.339 325.27 281.229 325.47C288.169 324.3 283.989 335.61 272.969 345.25C267.526 350.07 261.083 353.624 254.102 355.656C247.122 357.688 239.778 358.147 232.599 357H232.509" fill="#263238"/>
<path d="M315 336.84C288.89 336.18 265.72 356.07 265.72 356.07C268.28 364.22 269.92 370.32 269.92 370.32C284.2 367.62 306.67 366.53 320.04 363.05C332.12 359.91 333.37 343.6 332.04 336.75C330.71 329.9 323.86 328.3 317.12 326.07C309.43 323.52 294.77 323.32 284.26 323.28C273.18 323.28 258.62 324.28 251.08 325.98C251.08 325.98 235.08 325.27 223.2 325.47C216.25 324.3 220.43 335.61 231.45 345.25C236.887 350.063 243.321 353.613 250.293 355.645C257.264 357.676 264.598 358.139 271.77 357H271.86" fill="#263238"/>
<path d="M232.59 266C230.33 273.707 227.946 281.373 225.44 289C224.19 292.82 222.92 296.63 221.6 300.43C220.28 304.23 219 308 217.54 311.84L217.36 312.32L217.12 312.9C216.96 313.28 216.78 313.64 216.6 314C216.237 314.669 215.836 315.317 215.4 315.94C214.601 317.057 213.693 318.092 212.69 319.03C210.928 320.663 209.001 322.108 206.94 323.34C203.204 325.547 199.266 327.392 195.18 328.85C187.381 331.661 179.326 333.701 171.13 334.94L169.6 328.46C173.24 327.16 176.99 325.78 180.6 324.28C184.21 322.78 187.79 321.28 191.2 319.54C194.528 317.94 197.715 316.063 200.73 313.93C203.55 311.93 205.8 309.42 206.03 307.93L212.71 285C214.97 277.33 217.29 269.66 219.71 262L232.59 266Z" fill="#CE7A63"/>
<path d="M172.21 328.78L160 325.68L165.82 337.42C165.82 337.42 174.1 337.78 176.82 333.17L172.21 328.78Z" fill="#CE7A63"/>
<path d="M258.649 182.63C254.269 179.46 247.069 176.8 244.169 181.63C241.269 186.46 238.769 196.63 233.939 199.09C229.109 201.55 223.359 211.42 226.519 220.09C229.679 228.76 217.189 226.42 216.519 239.59C215.849 252.76 234.599 259.42 246.439 252.92C258.279 246.42 266.609 212.5 265.859 199.09C265.109 185.68 258.649 182.63 258.649 182.63Z" fill="#263238"/>
<path d="M253.15 182.05C253.15 182.05 259.57 172.3 271.39 177.33C285.19 183.2 280.86 189.53 283.39 202.91C285.92 216.29 301.34 218.68 300.64 237.3C299.45 269.01 271.39 263.13 263.64 254.71C255.89 246.29 264.47 215.38 264.47 215.38L253.15 182.05Z" fill="#263238"/>
<path d="M150.1 330.29L155.51 339.86L165.81 337.57L159.98 325.83L150.1 330.29Z" fill="#CE7A63"/>
<path d="M224.1 247.86C218.79 249.22 215.1 271.08 215.1 271.08L229.74 281.08C229.74 281.08 243.74 259.02 239.74 253.18C235.41 247.05 231.86 245.89 224.1 247.86Z" fill="#FF6D38"/>
<path opacity="0.2" d="M223.62 255.81L235 258.45L236.09 269.57C234.157 273.485 232.028 277.3 229.71 281L220.83 275C221.21 269.89 222.18 259.27 223.62 255.81Z" fill="black"/>
<path d="M224.1 247.86C224.1 247.86 218 250 230.26 325.68H282.63C281.75 304.37 281.72 291.23 291.91 247.49C284.577 245.974 277.144 244.995 269.67 244.56C260.86 244.13 253.67 243.85 245.9 244.56C235.68 245.49 224.1 247.86 224.1 247.86Z" fill="#FF6D38"/>
<path opacity="0.2" d="M279.589 267.8L286.349 273.55C284.899 281.2 283.939 287.55 283.349 293.24C282.049 287.56 278.839 272.14 279.589 267.8Z" fill="black"/>
<path d="M267.32 217.79C265.82 225.44 264.32 239.45 269.67 244.56C269.67 244.56 264.67 256.02 251.42 256.02C238.17 256.02 245.9 244.56 245.9 244.56C254.43 242.56 254.21 236.19 252.72 230.25L267.32 217.79Z" fill="#CE7A63"/>
<path d="M269.669 244.56C260.859 244.13 253.669 243.85 245.889 244.56C242.209 244.89 238.359 245.41 234.939 245.94C232.679 250.03 223.709 268.42 245.719 268.42C268.799 268.42 278.419 248.2 279.619 245.42C276.529 245.06 273.109 244.73 269.669 244.56Z" fill="#CE7A63"/>
<path opacity="0.2" d="M261.37 222.87L252.73 230.24C253.092 231.624 253.336 233.035 253.46 234.46C256.72 233.99 261.2 230.41 261.54 227C261.734 225.625 261.677 224.225 261.37 222.87Z" fill="black"/>
<path d="M277.399 203.33C274.999 215.9 274.229 221.27 266.999 226.94C256.119 235.48 241.209 229.77 239.819 216.73C238.569 205 242.729 186.42 255.819 182.98C258.69 182.217 261.707 182.2 264.587 182.929C267.466 183.659 270.111 185.111 272.272 187.149C274.433 189.187 276.038 191.743 276.936 194.574C277.833 197.406 277.992 200.419 277.399 203.33Z" fill="#CE7A63"/>
<path d="M254.999 181.63C250.489 184.16 253.479 188.63 261.619 191.8C269.759 194.97 270.249 195.55 268.919 202.13C267.589 208.71 279.449 214.8 279.599 208C279.749 201.2 282.169 188.3 275.839 184.71C269.509 181.12 259.769 179 254.999 181.63Z" fill="#263238"/>
<path d="M254.32 184.8C250.32 186.09 241.23 195.96 241.9 192.71C242.57 189.46 244.27 184.96 249.07 183.3C251.338 182.4 253.722 181.825 256.15 181.59L254.32 184.8Z" fill="#263238"/>
<path d="M279.779 213.89C278.601 216.058 276.642 217.696 274.299 218.47C271.189 219.47 269.619 216.78 270.469 213.84C271.239 211.19 273.769 207.48 276.899 207.76C280.029 208.04 281.189 211.23 279.779 213.89Z" fill="#CE7A63"/>
<path d="M229.689 368.83L234.479 355.16C234.659 354.66 236.729 355.97 237.239 356.07C237.239 356.07 244.749 355.07 247.739 355.91C250.729 356.75 250.599 358.67 250.049 360.71C248.779 365.45 246.729 366.35 245.409 372.63C244.599 376.46 243.939 379.99 239.749 383.63C235.749 387.1 231.909 386.89 233.489 382.63C237.289 372.47 235.489 373.98 233.089 370.2C232.649 369.56 229.429 369.55 229.689 368.83Z" fill="#CE7A63"/>
<path d="M267.329 368.83L262.529 355.16C262.349 354.66 260.279 355.97 259.769 356.07C259.769 356.07 252.259 355.07 249.269 355.91C246.279 356.75 246.409 358.67 246.959 360.71C248.229 365.45 250.279 366.35 251.599 372.63C252.409 376.46 253.069 379.99 257.259 383.63C261.259 387.1 265.099 386.89 263.519 382.63C259.719 372.47 261.519 373.98 263.919 370.2C264.359 369.56 267.579 369.55 267.329 368.83Z" fill="#CE7A63"/>
<path d="M231.33 372.09L236.16 353.96L229.8 351.33L220.83 370.8L231.33 372.09Z" fill="#FF6D38"/>
<path d="M266.049 372.47L258.459 354.14L264.329 351.73L276.219 369.56L266.049 372.47Z" fill="#FF6D38"/>
<path d="M248.7 204.36C248.7 204.36 246.38 208.57 244.17 210.46C245.37 211.91 247.76 211.63 247.76 211.63L248.7 204.36Z" fill="#BA4D3C"/>
<path d="M250.909 217H250.989C253.257 217.189 255.512 216.502 257.289 215.08C257.326 215.042 257.346 214.992 257.346 214.94C257.346 214.887 257.326 214.837 257.289 214.8C257.252 214.763 257.202 214.743 257.149 214.743C257.097 214.743 257.047 214.763 257.009 214.8C255.308 216.137 253.167 216.79 251.009 216.63C250.966 216.628 250.924 216.639 250.888 216.663C250.852 216.687 250.825 216.721 250.811 216.762C250.796 216.802 250.795 216.846 250.807 216.887C250.82 216.928 250.845 216.964 250.879 216.99L250.909 217Z" fill="#263238"/>
<path d="M262.34 199.41C262.397 199.442 262.461 199.458 262.525 199.458C262.59 199.458 262.654 199.442 262.71 199.41C262.754 199.383 262.791 199.347 262.821 199.305C262.851 199.263 262.872 199.215 262.883 199.165C262.894 199.115 262.895 199.063 262.886 199.012C262.877 198.962 262.858 198.913 262.83 198.87C262.357 198.066 261.695 197.389 260.903 196.896C260.111 196.403 259.211 196.11 258.28 196.04C258.225 196.031 258.168 196.034 258.113 196.05C258.059 196.065 258.008 196.092 257.965 196.128C257.922 196.165 257.888 196.21 257.864 196.262C257.84 196.313 257.828 196.369 257.828 196.425C257.828 196.482 257.84 196.537 257.864 196.589C257.888 196.64 257.922 196.686 257.965 196.722C258.008 196.759 258.059 196.786 258.113 196.801C258.168 196.816 258.225 196.819 258.28 196.81C259.08 196.886 259.851 197.15 260.529 197.581C261.207 198.012 261.773 198.598 262.18 199.29C262.224 199.342 262.279 199.383 262.34 199.41Z" fill="#263238"/>
<path d="M253.61 202.92C253.528 202.904 253.443 202.914 253.367 202.95C253.291 202.986 253.229 203.046 253.19 203.12C253.151 203.194 253.136 203.279 253.149 203.362C253.162 203.445 253.201 203.521 253.26 203.58C253.908 204.252 254.707 204.76 255.591 205.061C256.474 205.362 257.417 205.447 258.34 205.31C258.442 205.286 258.53 205.224 258.586 205.136C258.642 205.048 258.661 204.942 258.64 204.84C258.619 204.739 258.558 204.652 258.472 204.595C258.386 204.539 258.281 204.519 258.18 204.54C257.384 204.655 256.573 204.577 255.813 204.315C255.052 204.052 254.366 203.612 253.81 203.03C253.756 202.975 253.686 202.937 253.61 202.92Z" fill="#263238"/>
<path d="M239.859 201.5C239.797 201.485 239.732 201.486 239.671 201.504C239.609 201.522 239.554 201.555 239.509 201.6C239.436 201.675 239.395 201.775 239.395 201.88C239.395 201.985 239.436 202.085 239.509 202.16C240.157 202.832 240.956 203.338 241.84 203.638C242.724 203.937 243.666 204.02 244.589 203.88C244.689 203.858 244.777 203.798 244.834 203.712C244.89 203.626 244.91 203.521 244.889 203.42C244.865 203.319 244.803 203.231 244.715 203.175C244.627 203.119 244.521 203.099 244.419 203.12C243.623 203.236 242.812 203.158 242.053 202.893C241.294 202.629 240.61 202.185 240.059 201.6C240.002 201.549 239.933 201.515 239.859 201.5Z" fill="#263238"/>
<path d="M241 195.58C241.061 195.616 241.13 195.635 241.2 195.635C241.271 195.635 241.34 195.616 241.4 195.58C242.017 195.062 242.751 194.7 243.538 194.526C244.325 194.352 245.142 194.37 245.92 194.58C246.019 194.613 246.126 194.606 246.219 194.561C246.312 194.516 246.384 194.437 246.42 194.34C246.438 194.292 246.445 194.24 246.443 194.189C246.44 194.137 246.427 194.087 246.405 194.04C246.383 193.994 246.351 193.952 246.313 193.918C246.274 193.883 246.229 193.857 246.18 193.84C245.281 193.587 244.334 193.553 243.419 193.741C242.504 193.929 241.647 194.333 240.92 194.92C240.88 194.952 240.845 194.991 240.819 195.035C240.794 195.08 240.777 195.13 240.771 195.181C240.764 195.232 240.768 195.284 240.782 195.333C240.795 195.383 240.819 195.43 240.85 195.47C240.889 195.521 240.941 195.559 241 195.58Z" fill="#263238"/>
<path d="M283.409 322.61L283.829 327.29C284.009 327.66 283.579 328.03 282.979 328.03H229.999C229.529 328.03 229.139 327.8 229.109 327.5L228.639 322.81C228.639 322.49 229.019 322.21 229.529 322.21H282.529C282.698 322.191 282.869 322.218 283.024 322.288C283.179 322.359 283.312 322.47 283.409 322.61Z" fill="#FF6D38"/>
<path opacity="0.3" d="M283.409 322.61L283.829 327.29C284.009 327.66 283.579 328.03 282.979 328.03H229.999C229.529 328.03 229.139 327.8 229.109 327.5L228.639 322.81C228.639 322.49 229.019 322.21 229.529 322.21H282.529C282.698 322.191 282.869 322.218 283.024 322.288C283.179 322.359 283.312 322.47 283.409 322.61Z" fill="black"/>
<path d="M276.29 328.54H277.71C277.99 328.54 278.21 328.39 278.19 328.21L277.52 322.12C277.52 321.94 277.26 321.8 276.97 321.8H275.55C275.27 321.8 275.05 321.94 275.07 322.12L275.74 328.21C275.76 328.39 276 328.54 276.29 328.54Z" fill="#263238"/>
<path d="M234.001 328.54H235.421C235.701 328.54 235.911 328.39 235.891 328.21L235.231 322.12C235.231 321.94 234.961 321.8 234.681 321.8H233.261C232.981 321.8 232.761 321.94 232.781 322.12L233.451 328.21C233.471 328.39 233.711 328.54 234.001 328.54Z" fill="#263238"/>
<path d="M255.139 328.54H256.559C256.849 328.54 257.059 328.39 257.039 328.21L256.379 322.12C256.379 321.94 256.109 321.8 255.829 321.8H254.409C254.119 321.8 253.909 321.94 253.929 322.12L254.589 328.21C254.609 328.39 254.859 328.54 255.139 328.54Z" fill="#263238"/>
<path d="M296.56 263L300.85 286.12C301.58 289.96 302.32 293.79 303.1 297.58C303.48 299.47 303.92 301.34 304.33 303.19L304.99 305.92L305.63 308.26C306.037 309.307 306.668 310.253 307.48 311.03C308.611 312.185 309.847 313.232 311.17 314.16C314.174 316.235 317.338 318.071 320.63 319.65C324.01 321.33 327.54 322.86 331.11 324.32C334.68 325.78 338.37 327.15 341.95 328.44L340.42 334.92C332.332 333.691 324.381 331.682 316.68 328.92C312.656 327.496 308.77 325.708 305.07 323.58C303.049 322.396 301.147 321.019 299.39 319.47C297.233 317.612 295.524 315.291 294.39 312.68L294.16 312.11L294.01 311.68L293.74 310.92L293.21 309.38L292.28 306.38C291.693 304.38 291.15 302.413 290.65 300.48C289.617 296.573 288.68 292.667 287.84 288.76C286.1 280.94 284.61 273.15 283.33 265.24L296.56 263Z" fill="#CE7A63"/>
<path d="M291.91 247.49C297.16 249.08 303.66 265.96 303.66 265.96L283.3 280.52C283.3 280.52 275.68 266.62 277.89 259.84C280.18 252.78 285.92 245.67 291.91 247.49Z" fill="#FF6D38"/>
<path d="M339.35 328.78L351.58 325.68L345.75 337.42C345.75 337.42 337.48 337.78 334.75 333.17L339.35 328.78Z" fill="#CE7A63"/>
<path d="M361.46 330.29L356.05 339.86L345.75 337.57L351.58 325.83L361.46 330.29Z" fill="#CE7A63"/>
</svg>
