<svg width="437" height="437" viewBox="0 0 437 437" fill="none" xmlns="http://www.w3.org/2000/svg">
<path d="M437 334.217H0V334.436H437V334.217Z" fill="#EBEBEB"/>
<path d="M393.213 348.28H364.266V348.499H393.213V348.28Z" fill="#EBEBEB"/>
<path d="M289.486 350.657H281.891V350.876H289.486V350.657Z" fill="#EBEBEB"/>
<path d="M363.391 340.169H346.619V340.388H363.391V340.169Z" fill="#EBEBEB"/>
<path d="M83.5977 341.638H45.8496V341.856H83.5977V341.638Z" fill="#EBEBEB"/>
<path d="M96.9172 341.638H91.3848V341.856H96.9172V341.638Z" fill="#EBEBEB"/>
<path d="M196.781 345.326H114.904V345.545H196.781V345.326Z" fill="#EBEBEB"/>
<path d="M207.139 295.237H38.3783C37.0562 295.235 35.7891 294.708 34.8551 293.772C33.9211 292.837 33.3965 291.569 33.3965 290.246V53.0167C33.408 51.7022 33.9377 50.4453 34.8704 49.5191C35.8032 48.5929 37.0638 48.0721 38.3783 48.0698H207.139C208.463 48.0698 209.732 48.5956 210.668 49.5315C211.604 50.4674 212.13 51.7368 212.13 53.0604V290.246C212.13 291.57 211.604 292.839 210.668 293.775C209.732 294.711 208.463 295.237 207.139 295.237ZM38.3783 48.2446C37.1142 48.2469 35.9026 48.7507 35.0096 49.6454C34.1166 50.5401 33.615 51.7526 33.615 53.0167V290.246C33.615 291.511 34.1166 292.723 35.0096 293.618C35.9026 294.512 37.1142 295.016 38.3783 295.019H207.139C208.404 295.016 209.616 294.513 210.511 293.618C211.405 292.724 211.909 291.511 211.911 290.246V53.0167C211.909 51.7518 211.405 50.5393 210.511 49.6449C209.616 48.7504 208.404 48.2469 207.139 48.2446H38.3783Z" fill="#EBEBEB"/>
<path d="M396.194 295.237H227.424C226.101 295.235 224.833 294.708 223.898 293.773C222.962 292.837 222.436 291.569 222.434 290.246V53.0167C222.447 51.7014 222.979 50.4445 223.913 49.5186C224.847 48.5926 226.109 48.0721 227.424 48.0698H396.194C397.507 48.0744 398.765 48.5962 399.696 49.5222C400.627 50.4482 401.155 51.7037 401.167 53.0167V290.246C401.167 291.567 400.643 292.834 399.711 293.769C398.779 294.705 397.514 295.232 396.194 295.237ZM227.424 48.2446C226.159 48.2469 224.947 48.7504 224.052 49.6449C223.158 50.5393 222.654 51.7518 222.652 53.0167V290.246C222.654 291.511 223.158 292.724 224.052 293.618C224.947 294.513 226.159 295.016 227.424 295.019H396.194C397.458 295.016 398.671 294.513 399.565 293.618C400.46 292.724 400.963 291.511 400.966 290.246V53.0167C400.963 51.7518 400.46 50.5393 399.565 49.6449C398.671 48.7504 397.458 48.2469 396.194 48.2446H227.424Z" fill="#EBEBEB"/>
<path d="M368.775 106.444H237.02V223.359H368.775V106.444Z" fill="#E6E6E6"/>
<path d="M365.305 109.652H240.314V220.222H365.305V109.652Z" fill="#F0F0F0"/>
<path d="M269.646 109.652L240.314 219.977V168.131L255.802 109.652H269.646Z" fill="white"/>
<path d="M280.038 109.652L250.444 220.222H245.725L275.318 109.652H280.038Z" fill="white"/>
<path d="M365.305 179.415V197.087L359.318 220.222H354.59L365.305 179.415Z" fill="white"/>
<path d="M283.911 107.659H281.805V222.686H283.911V107.659Z" fill="#E6E6E6"/>
<path d="M324.718 107.659H322.611V222.686H324.718V107.659Z" fill="#E6E6E6"/>
<path d="M208.563 146.674H68.2246V187.91H208.563V146.674Z" fill="#E6E6E6"/>
<path d="M208.562 146.674H84.375V187.91H208.562V146.674Z" fill="#EBEBEB"/>
<path d="M205.941 185.288V149.296H86.9987V185.288H205.941Z" fill="#E0E0E0"/>
<path d="M110.894 149.296H108.822V185.288H110.894V149.296Z" fill="#EBEBEB"/>
<path d="M145.346 176.198V174.127H109.354V176.198H145.346Z" fill="#EBEBEB"/>
<path d="M182.588 161.567V159.496H146.597V161.567H182.588Z" fill="#EBEBEB"/>
<path d="M147.628 149.296H145.557V185.288H147.628V149.296Z" fill="#EBEBEB"/>
<path d="M185.235 149.296H183.164V185.288H185.235V149.296Z" fill="#EBEBEB"/>
<path d="M132.757 133.886C140.029 132.169 144.533 124.883 142.816 117.61C141.1 110.338 133.813 105.834 126.541 107.55C119.268 109.267 114.764 116.554 116.481 123.826C118.197 131.098 125.484 135.602 132.757 133.886Z" fill="#E0E0E0"/>
<path d="M131.494 132.051C137.764 131.033 142.022 125.125 141.004 118.854C139.987 112.584 134.079 108.326 127.808 109.344C121.538 110.362 117.28 116.27 118.298 122.54C119.316 128.81 125.224 133.068 131.494 132.051Z" fill="#F0F0F0"/>
<path d="M129.107 128.592V120.551L123.775 123.566" fill="#F0F0F0"/>
<path d="M129.108 129.028C128.992 129.028 128.881 128.982 128.799 128.9C128.717 128.818 128.671 128.707 128.671 128.591V121.302L123.995 123.924C123.946 123.953 123.891 123.972 123.833 123.98C123.776 123.987 123.718 123.983 123.663 123.967C123.607 123.952 123.556 123.925 123.511 123.889C123.466 123.853 123.428 123.809 123.401 123.758C123.372 123.708 123.353 123.653 123.345 123.596C123.338 123.539 123.342 123.481 123.358 123.426C123.373 123.37 123.4 123.318 123.436 123.273C123.472 123.228 123.516 123.191 123.567 123.164L128.89 120.148C128.956 120.11 129.031 120.09 129.108 120.09C129.185 120.09 129.26 120.11 129.327 120.148C129.392 120.188 129.446 120.243 129.484 120.308C129.522 120.374 129.543 120.448 129.545 120.524V128.565C129.549 128.625 129.54 128.684 129.52 128.74C129.499 128.796 129.468 128.848 129.427 128.891C129.386 128.935 129.337 128.969 129.282 128.993C129.227 129.016 129.168 129.028 129.108 129.028Z" fill="#E0E0E0"/>
<path d="M218.501 373.687C312.091 373.687 387.961 369.258 387.961 363.794C387.961 358.329 312.091 353.9 218.501 353.9C124.911 353.9 49.041 358.329 49.041 363.794C49.041 369.258 124.911 373.687 218.501 373.687Z" fill="#F5F5F5"/>
<path d="M243.794 206.264V203.406H238.777V206.264C238.778 207.068 238.565 207.858 238.161 208.553C237.758 209.249 237.177 209.825 236.478 210.223C235.779 210.62 235.198 211.196 234.794 211.892C234.39 212.588 234.178 213.378 234.18 214.182V240.839C234.179 241.235 234.256 241.628 234.407 241.994C234.558 242.361 234.78 242.694 235.06 242.974C235.341 243.254 235.673 243.476 236.04 243.627C236.406 243.778 236.799 243.856 237.195 243.854H245.376C245.772 243.856 246.165 243.778 246.531 243.627C246.897 243.476 247.23 243.254 247.51 242.974C247.791 242.694 248.013 242.361 248.164 241.994C248.315 241.628 248.392 241.235 248.391 240.839V214.182C248.391 213.378 248.178 212.589 247.774 211.893C247.371 211.198 246.79 210.622 246.092 210.223C245.394 209.825 244.813 209.249 244.409 208.553C244.006 207.858 243.793 207.068 243.794 206.264Z" fill="#FF6D38"/>
<path opacity="0.7" d="M243.794 206.264V203.406H238.777V206.264C238.778 207.068 238.565 207.858 238.161 208.553C237.758 209.249 237.177 209.825 236.478 210.223C235.779 210.62 235.198 211.196 234.794 211.892C234.39 212.588 234.178 213.378 234.18 214.182V240.839C234.179 241.235 234.256 241.628 234.407 241.994C234.558 242.361 234.78 242.694 235.06 242.974C235.341 243.254 235.673 243.476 236.04 243.627C236.406 243.778 236.799 243.856 237.195 243.854H245.376C245.772 243.856 246.165 243.778 246.531 243.627C246.897 243.476 247.23 243.254 247.51 242.974C247.791 242.694 248.013 242.361 248.164 241.994C248.315 241.628 248.392 241.235 248.391 240.839V214.182C248.391 213.378 248.178 212.589 247.774 211.893C247.371 211.198 246.79 210.622 246.092 210.223C245.394 209.825 244.813 209.249 244.409 208.553C244.006 207.858 243.793 207.068 243.794 206.264Z" fill="white"/>
<path d="M243.986 201.605H238.576V204.988H243.986V201.605Z" fill="#FF6D38"/>
<path opacity="0.2" d="M248.391 222.241H234.18V226.121H248.391V222.241Z" fill="white"/>
<path opacity="0.2" d="M248.391 226.777H234.18V230.657H248.391V226.777Z" fill="white"/>
<path opacity="0.2" d="M248.391 231.312H234.18V235.193H248.391V231.312Z" fill="white"/>
<path d="M263.022 243.846H254.492L253.461 230.657H264.063L263.022 243.846Z" fill="#FF6D38"/>
<path opacity="0.7" d="M264.063 230.657L263.765 234.45L263.022 243.846H254.501L253.758 234.45L253.461 230.657H264.063Z" fill="white"/>
<path opacity="0.2" d="M263.765 234.45L263.022 243.846H254.501L253.758 234.45H263.765Z" fill="white"/>
<path d="M264.856 231.313H252.664L253.538 229.678H263.982L264.856 231.313Z" fill="#FF6D38"/>
<path d="M299.091 234.451H270.599C270.06 234.453 269.543 234.668 269.162 235.05C268.78 235.431 268.565 235.948 268.562 236.487V364.458H273.807V355.369H295.954V364.458H301.198V236.487C301.197 236.214 301.141 235.944 301.034 235.693C300.927 235.442 300.77 235.214 300.574 235.025C300.378 234.835 300.145 234.686 299.891 234.588C299.636 234.489 299.364 234.442 299.091 234.451Z" fill="#263238"/>
<path opacity="0.7" d="M299.091 234.451H270.599C270.06 234.453 269.543 234.668 269.162 235.05C268.78 235.431 268.565 235.948 268.562 236.487V364.458H273.807V355.369H295.954V364.458H301.198V236.487C301.197 236.214 301.141 235.944 301.034 235.693C300.927 235.442 300.77 235.214 300.574 235.025C300.378 234.835 300.145 234.686 299.891 234.588C299.636 234.489 299.364 234.442 299.091 234.451Z" fill="white"/>
<path opacity="0.4" d="M297.343 234.451H270.599C270.06 234.453 269.543 234.668 269.162 235.05C268.78 235.431 268.565 235.948 268.562 236.487V364.458H272.059V355.369H295.954V364.458H299.45V236.487C299.449 236.214 299.393 235.944 299.286 235.693C299.179 235.442 299.022 235.214 298.826 235.025C298.63 234.835 298.397 234.686 298.143 234.588C297.888 234.489 297.616 234.442 297.343 234.451Z" fill="white"/>
<path d="M296.278 243.846H217.023V355.141H296.278V243.846Z" fill="#263238"/>
<path opacity="0.75" d="M296.278 243.846H217.023V355.141H296.278V243.846Z" fill="white"/>
<path d="M244.869 234.45H216.385C215.844 234.45 215.325 234.665 214.942 235.046C214.559 235.428 214.342 235.946 214.34 236.487V364.458H219.584V355.368H241.731V364.458H246.975V236.487C246.975 236.213 246.92 235.943 246.814 235.691C246.707 235.439 246.551 235.212 246.354 235.022C246.157 234.832 245.925 234.683 245.669 234.585C245.414 234.487 245.142 234.441 244.869 234.45Z" fill="#263238"/>
<path opacity="0.7" d="M244.869 234.45H216.385C215.844 234.45 215.325 234.665 214.942 235.046C214.559 235.428 214.342 235.946 214.34 236.487V364.458H219.584V355.368H241.731V364.458H246.975V236.487C246.975 236.213 246.92 235.943 246.814 235.691C246.707 235.439 246.551 235.212 246.354 235.022C246.157 234.832 245.925 234.683 245.669 234.585C245.414 234.487 245.142 234.441 244.869 234.45Z" fill="white"/>
<path opacity="0.4" d="M243.121 234.451H216.385C215.844 234.451 215.325 234.665 214.942 235.047C214.559 235.428 214.342 235.946 214.34 236.487V364.458H217.836V355.369H241.731V364.458H245.227V236.487C245.226 236.214 245.17 235.944 245.063 235.693C244.956 235.442 244.8 235.214 244.603 235.025C244.407 234.835 244.175 234.686 243.92 234.588C243.665 234.489 243.394 234.442 243.121 234.451Z" fill="white"/>
<path opacity="0.2" d="M292.59 247.141H248.199V260.696H292.59V247.141Z" fill="white"/>
<path opacity="0.2" d="M292.59 263.738H248.199V351.278H292.59V263.738Z" fill="white"/>
<path d="M228.769 323.511C228.105 323.31 227.703 322.969 227.703 322.637V300.787C227.703 300.703 227.721 300.619 227.756 300.543C227.826 300.4 227.931 300.276 228.061 300.184C228.281 300.036 228.523 299.924 228.778 299.852C229.083 299.762 229.396 299.706 229.713 299.686H339.505C339.827 299.711 340.146 299.767 340.458 299.852C340.706 299.928 340.942 300.04 341.157 300.184C341.285 300.279 341.389 300.401 341.463 300.543C341.499 300.619 341.514 300.703 341.507 300.787V322.637C341.507 323.004 341.113 323.345 340.449 323.511C339.723 323.712 338.96 323.741 338.22 323.599L284.609 312.831L230.998 323.599C230.687 323.659 230.371 323.688 230.054 323.686C229.62 323.688 229.187 323.629 228.769 323.511ZM232.405 302.352V320.942L278.727 311.651L232.405 302.352ZM290.5 311.651L336.822 320.942V302.352L290.5 311.651ZM241.355 301.784L284.609 310.471L327.855 301.784H241.355Z" fill="#263238"/>
<g opacity="0.3">
<path d="M228.769 323.511C228.105 323.31 227.703 322.969 227.703 322.637V300.787C227.703 300.703 227.721 300.619 227.756 300.543C227.826 300.4 227.931 300.276 228.061 300.184C228.281 300.036 228.523 299.924 228.778 299.852C229.083 299.762 229.396 299.706 229.713 299.686H339.505C339.827 299.711 340.146 299.767 340.458 299.852C340.706 299.928 340.942 300.04 341.157 300.184C341.285 300.279 341.389 300.401 341.463 300.543C341.499 300.619 341.514 300.703 341.507 300.787V322.637C341.507 323.004 341.113 323.345 340.449 323.511C339.723 323.712 338.96 323.741 338.22 323.599L284.609 312.831L230.998 323.599C230.687 323.659 230.371 323.688 230.054 323.686C229.62 323.688 229.187 323.629 228.769 323.511ZM232.405 302.352V320.942L278.727 311.651L232.405 302.352ZM290.5 311.651L336.822 320.942V302.352L290.5 311.651ZM241.355 301.784L284.609 310.471L327.855 301.784H241.355Z" fill="white"/>
</g>
<path d="M214.392 298.366H373.381C373.69 298.365 373.997 298.425 374.282 298.543C374.568 298.661 374.828 298.834 375.046 299.052C375.265 299.271 375.438 299.53 375.556 299.816C375.674 300.102 375.734 300.408 375.732 300.717C375.732 301.341 375.485 301.939 375.044 302.38C374.603 302.821 374.005 303.068 373.381 303.068H214.392C213.769 303.068 213.171 302.821 212.73 302.38C212.289 301.939 212.041 301.341 212.041 300.717C212.04 300.408 212.1 300.102 212.218 299.816C212.335 299.53 212.509 299.271 212.727 299.052C212.946 298.834 213.205 298.661 213.491 298.543C213.777 298.425 214.083 298.365 214.392 298.366Z" fill="#263238"/>
<g opacity="0.3">
<path d="M214.392 298.366H373.381C373.69 298.365 373.997 298.425 374.282 298.543C374.568 298.661 374.828 298.834 375.046 299.052C375.265 299.271 375.438 299.53 375.556 299.816C375.674 300.102 375.734 300.408 375.732 300.717C375.732 301.341 375.485 301.939 375.044 302.38C374.603 302.821 374.005 303.068 373.381 303.068H214.392C213.769 303.068 213.171 302.821 212.73 302.38C212.289 301.939 212.041 301.341 212.041 300.717C212.04 300.408 212.1 300.102 212.218 299.816C212.335 299.53 212.509 299.271 212.727 299.052C212.946 298.834 213.205 298.661 213.491 298.543C213.777 298.425 214.083 298.365 214.392 298.366Z" fill="white"/>
</g>
<path d="M362.474 341.009C363.118 341.009 363.737 340.756 364.198 340.305C364.659 339.854 364.925 339.241 364.938 338.596L365.367 321.396C365.375 321.066 365.317 320.739 365.196 320.432C365.075 320.125 364.894 319.846 364.664 319.61C364.433 319.375 364.157 319.188 363.853 319.061C363.549 318.934 363.223 318.869 362.893 318.87H230.045C229.618 318.87 229.199 318.981 228.828 319.193C228.457 319.404 228.147 319.709 227.93 320.076L218.412 336.044C218.077 336.606 217.979 337.278 218.14 337.913C218.301 338.547 218.707 339.092 219.269 339.427C219.831 339.762 220.503 339.86 221.137 339.699C221.772 339.538 222.316 339.132 222.651 338.57L231.452 323.8H360.367L360.009 338.474C359.992 339.129 360.236 339.763 360.687 340.238C361.137 340.713 361.758 340.99 362.412 341.009H362.474Z" fill="#263238"/>
<g opacity="0.3">
<path d="M362.474 341.009C363.118 341.009 363.737 340.756 364.198 340.305C364.659 339.854 364.925 339.241 364.938 338.596L365.367 321.396C365.375 321.066 365.317 320.739 365.196 320.432C365.075 320.125 364.894 319.846 364.664 319.61C364.433 319.375 364.157 319.188 363.853 319.061C363.549 318.934 363.223 318.869 362.893 318.87H230.045C229.618 318.87 229.199 318.981 228.828 319.193C228.457 319.404 228.147 319.709 227.93 320.076L218.412 336.044C218.077 336.606 217.979 337.278 218.14 337.913C218.301 338.547 218.707 339.092 219.269 339.427C219.831 339.762 220.503 339.86 221.137 339.699C221.772 339.538 222.316 339.132 222.651 338.57L231.452 323.8H360.367L360.009 338.474C359.992 339.129 360.236 339.763 360.687 340.238C361.137 340.713 361.758 340.99 362.412 341.009H362.474Z" fill="white"/>
</g>
<path d="M95.2656 214.392V304.65C95.2656 307.193 96.7165 309.256 98.4907 309.256H202.138C203.886 309.256 205.363 307.193 205.363 304.65V214.392C205.363 211.858 203.913 209.795 202.138 209.795H98.4557C96.6815 209.76 95.2656 211.858 95.2656 214.392ZM183.443 219.942C183.443 217.6 184.763 215.703 186.406 215.703H196.894C197.318 215.725 197.731 215.849 198.096 216.065C198.461 216.281 198.769 216.583 198.992 216.944C199.581 217.832 199.886 218.877 199.866 219.942C199.866 222.284 198.537 224.172 196.894 224.172H186.406C185.982 224.151 185.57 224.026 185.205 223.81C184.839 223.594 184.532 223.292 184.309 222.931C183.712 222.049 183.398 221.007 183.409 219.942H183.443ZM100.772 219.942C100.772 217.6 102.1 215.703 103.735 215.703H114.223C114.647 215.725 115.059 215.849 115.424 216.065C115.79 216.281 116.097 216.583 116.32 216.944C116.906 217.833 117.21 218.878 117.194 219.942C117.194 222.284 115.866 224.172 114.231 224.172H103.743C103.319 224.151 102.907 224.026 102.542 223.81C102.176 223.594 101.869 223.292 101.646 222.931C101.046 222.05 100.729 221.008 100.737 219.942H100.772Z" fill="#FF6D38"/>
<path opacity="0.6" d="M95.2656 214.392V304.65C95.2656 307.193 96.7165 309.256 98.4907 309.256H202.138C203.886 309.256 205.363 307.193 205.363 304.65V214.392C205.363 211.858 203.913 209.795 202.138 209.795H98.4557C96.6815 209.76 95.2656 211.858 95.2656 214.392ZM183.443 219.942C183.443 217.6 184.763 215.703 186.406 215.703H196.894C197.318 215.725 197.731 215.849 198.096 216.065C198.461 216.281 198.769 216.583 198.992 216.944C199.581 217.832 199.886 218.877 199.866 219.942C199.866 222.284 198.537 224.172 196.894 224.172H186.406C185.982 224.151 185.57 224.026 185.205 223.81C184.839 223.594 184.532 223.292 184.309 222.931C183.712 222.049 183.398 221.007 183.409 219.942H183.443ZM100.772 219.942C100.772 217.6 102.1 215.703 103.735 215.703H114.223C114.647 215.725 115.059 215.849 115.424 216.065C115.79 216.281 116.097 216.583 116.32 216.944C116.906 217.833 117.21 218.878 117.194 219.942C117.194 222.284 115.866 224.172 114.231 224.172H103.743C103.319 224.151 102.907 224.026 102.542 223.81C102.176 223.594 101.869 223.292 101.646 222.931C101.046 222.05 100.729 221.008 100.737 219.942H100.772Z" fill="white"/>
<path d="M96.9609 214.392V304.65C96.9609 307.193 98.4118 309.256 100.186 309.256H203.869C205.617 309.256 207.094 307.193 207.094 304.65V214.392C207.094 211.858 205.643 209.795 203.869 209.795H100.186C98.4118 209.76 96.9609 211.858 96.9609 214.392ZM185.139 219.942C185.139 217.6 186.467 215.703 188.11 215.703H198.598C199.022 215.725 199.435 215.849 199.8 216.065C200.166 216.281 200.473 216.583 200.696 216.944C201.285 217.832 201.59 218.877 201.57 219.942C201.57 222.284 200.242 224.172 198.598 224.172H188.11C187.685 224.152 187.271 224.028 186.904 223.812C186.537 223.596 186.228 223.294 186.004 222.931C185.42 222.045 185.118 221.003 185.139 219.942ZM102.467 219.942C102.467 217.6 103.796 215.703 105.43 215.703H115.918C116.342 215.725 116.754 215.849 117.12 216.065C117.485 216.281 117.793 216.583 118.016 216.944C118.601 217.833 118.906 218.878 118.89 219.942C118.89 222.284 117.561 224.172 115.927 224.172H105.439C105.015 224.151 104.602 224.026 104.237 223.81C103.872 223.594 103.564 223.292 103.341 222.931C102.754 222.046 102.449 221.004 102.467 219.942Z" fill="#FF6D38"/>
<path opacity="0.7" d="M96.9609 214.392V304.65C96.9609 307.193 98.4118 309.256 100.186 309.256H203.869C205.617 309.256 207.094 307.193 207.094 304.65V214.392C207.094 211.858 205.643 209.795 203.869 209.795H100.186C98.4118 209.76 96.9609 211.858 96.9609 214.392ZM185.139 219.942C185.139 217.6 186.467 215.703 188.11 215.703H198.598C199.022 215.725 199.435 215.849 199.8 216.065C200.166 216.281 200.473 216.583 200.696 216.944C201.285 217.832 201.59 218.877 201.57 219.942C201.57 222.284 200.242 224.172 198.598 224.172H188.11C187.685 224.152 187.271 224.028 186.904 223.812C186.537 223.596 186.228 223.294 186.004 222.931C185.42 222.045 185.118 221.003 185.139 219.942ZM102.467 219.942C102.467 217.6 103.796 215.703 105.43 215.703H115.918C116.342 215.725 116.754 215.849 117.12 216.065C117.485 216.281 117.793 216.583 118.016 216.944C118.601 217.833 118.906 218.878 118.89 219.942C118.89 222.284 117.561 224.172 115.927 224.172H105.439C105.015 224.151 104.602 224.026 104.237 223.81C103.872 223.594 103.564 223.292 103.341 222.931C102.754 222.046 102.449 221.004 102.467 219.942Z" fill="white"/>
<path opacity="0.1" d="M105.046 293.961H199.01C200.434 293.961 201.588 292.807 201.588 291.383V267.706C201.588 266.283 200.434 265.128 199.01 265.128H105.046C103.622 265.128 102.468 266.283 102.468 267.706V291.383C102.468 292.807 103.622 293.961 105.046 293.961Z" fill="black"/>
<path d="M207.094 299.101H96.9609V300.481H207.094V299.101Z" fill="#FF6D38"/>
<path d="M123.82 323.511C123.164 323.31 122.762 322.969 122.762 322.637V300.787C122.741 300.707 122.741 300.623 122.762 300.543C122.836 300.401 122.94 300.279 123.068 300.184C123.29 300.039 123.531 299.927 123.785 299.852C124.089 299.762 124.403 299.706 124.72 299.686H234.556C234.878 299.71 235.197 299.765 235.508 299.852C235.757 299.926 235.993 300.038 236.207 300.184C236.34 300.273 236.446 300.397 236.513 300.543C236.548 300.619 236.566 300.703 236.566 300.787V322.637C236.566 323.004 236.164 323.345 235.499 323.511C234.776 323.711 234.016 323.741 233.28 323.599L179.66 312.831L126.048 323.599C125.309 323.74 124.546 323.71 123.82 323.511ZM127.464 302.352V320.942L173.786 311.651L127.464 302.352ZM185.559 311.651L231.881 320.942V302.352L185.559 311.651ZM136.414 301.784L179.66 310.471L222.914 301.784H136.414Z" fill="#263238"/>
<g opacity="0.5">
<path d="M123.82 323.511C123.164 323.31 122.762 322.969 122.762 322.637V300.787C122.741 300.707 122.741 300.623 122.762 300.543C122.836 300.401 122.94 300.279 123.068 300.184C123.29 300.039 123.531 299.927 123.785 299.852C124.089 299.762 124.403 299.706 124.72 299.686H234.556C234.878 299.71 235.197 299.765 235.508 299.852C235.757 299.926 235.993 300.038 236.207 300.184C236.34 300.273 236.446 300.397 236.513 300.543C236.548 300.619 236.566 300.703 236.566 300.787V322.637C236.566 323.004 236.164 323.345 235.499 323.511C234.776 323.711 234.016 323.741 233.28 323.599L179.66 312.831L126.048 323.599C125.309 323.74 124.546 323.71 123.82 323.511ZM127.464 302.352V320.942L173.786 311.651L127.464 302.352ZM185.559 311.651L231.881 320.942V302.352L185.559 311.651ZM136.414 301.784L179.66 310.471L222.914 301.784H136.414Z" fill="white"/>
</g>
<path d="M109.443 298.366H268.441C269.064 298.366 269.662 298.614 270.103 299.055C270.544 299.496 270.792 300.094 270.792 300.717C270.79 301.34 270.541 301.937 270.101 302.377C269.66 302.818 269.064 303.066 268.441 303.068H109.443C108.82 303.066 108.223 302.818 107.783 302.377C107.343 301.937 107.094 301.34 107.092 300.717C107.092 300.094 107.34 299.496 107.78 299.055C108.221 298.614 108.819 298.366 109.443 298.366Z" fill="#263238"/>
<g opacity="0.6">
<path d="M109.443 298.366H268.441C269.064 298.366 269.662 298.614 270.103 299.055C270.544 299.496 270.792 300.094 270.792 300.717C270.79 301.34 270.541 301.937 270.101 302.377C269.66 302.818 269.064 303.066 268.441 303.068H109.443C108.82 303.066 108.223 302.818 107.783 302.377C107.343 301.937 107.094 301.34 107.092 300.717C107.092 300.094 107.34 299.496 107.78 299.055C108.221 298.614 108.819 298.366 109.443 298.366Z" fill="white"/>
</g>
<path d="M257.532 341.009C258.176 341.006 258.794 340.753 259.254 340.303C259.715 339.852 259.981 339.24 259.997 338.596L260.416 321.396C260.425 321.067 260.367 320.74 260.247 320.434C260.126 320.128 259.946 319.849 259.717 319.614C259.487 319.378 259.212 319.191 258.909 319.063C258.606 318.936 258.281 318.87 257.952 318.87H125.104C124.675 318.869 124.254 318.98 123.882 319.192C123.509 319.403 123.199 319.708 122.98 320.076L113.471 336.044C113.136 336.606 113.038 337.278 113.199 337.913C113.359 338.547 113.765 339.092 114.327 339.427C114.889 339.762 115.562 339.859 116.196 339.699C116.83 339.538 117.375 339.132 117.71 338.57L126.502 323.799H255.417L255.05 338.474C255.034 339.129 255.277 339.763 255.728 340.238C256.178 340.713 256.799 340.99 257.454 341.009H257.532Z" fill="#263238"/>
<g opacity="0.6">
<path d="M257.532 341.009C258.176 341.006 258.794 340.753 259.254 340.303C259.715 339.852 259.981 339.24 259.997 338.596L260.416 321.396C260.425 321.067 260.367 320.74 260.247 320.434C260.126 320.128 259.946 319.849 259.717 319.614C259.487 319.378 259.212 319.191 258.909 319.063C258.606 318.936 258.281 318.87 257.952 318.87H125.104C124.675 318.869 124.254 318.98 123.882 319.192C123.509 319.403 123.199 319.708 122.98 320.076L113.471 336.044C113.136 336.606 113.038 337.278 113.199 337.913C113.359 338.547 113.765 339.092 114.327 339.427C114.889 339.762 115.562 339.859 116.196 339.699C116.83 339.538 117.375 339.132 117.71 338.57L126.502 323.799H255.417L255.05 338.474C255.034 339.129 255.277 339.763 255.728 340.238C256.178 340.713 256.799 340.99 257.454 341.009H257.532Z" fill="white"/>
</g>
<path d="M111.968 284.618H285.737C286.63 284.618 287.354 283.894 287.354 283.001V268.877C287.354 267.984 286.63 267.261 285.737 267.261H111.968C111.075 267.261 110.351 267.984 110.351 268.877V283.001C110.351 283.894 111.075 284.618 111.968 284.618Z" fill="#263238"/>
<path opacity="0.2" d="M111.968 284.618H285.737C286.63 284.618 287.354 283.894 287.354 283.001V268.877C287.354 267.984 286.63 267.261 285.737 267.261H111.968C111.075 267.261 110.351 267.984 110.351 268.877V283.001C110.351 283.894 111.075 284.618 111.968 284.618Z" fill="white"/>
<path d="M169.076 285.361H368.593C369.626 285.361 370.463 284.523 370.463 283.49V268.3C370.463 267.267 369.626 266.43 368.593 266.43H169.076C168.043 266.43 167.205 267.267 167.205 268.3V283.49C167.205 284.523 168.043 285.361 169.076 285.361Z" fill="#FF6D38"/>
<path opacity="0.2" d="M169.076 285.361H368.593C369.626 285.361 370.463 284.523 370.463 283.49V268.3C370.463 267.267 369.626 266.43 368.593 266.43H169.076C168.043 266.43 167.205 267.267 167.205 268.3V283.49C167.205 284.523 168.043 285.361 169.076 285.361Z" fill="white"/>
<path d="M230.822 353.883L227.047 357.658H224.599L223.533 351.593L230.822 353.883Z" fill="#FF6D38"/>
<path d="M220.519 349.452H223.377C226.698 349.452 229.39 352.817 229.39 356.959C229.39 361.102 226.698 364.467 223.377 364.467H220.519C217.198 364.467 214.506 361.102 214.506 356.959C214.506 352.817 217.198 349.452 220.519 349.452Z" fill="#263238"/>
<path opacity="0.3" d="M220.519 364.467C223.84 364.467 226.532 361.106 226.532 356.959C226.532 352.813 223.84 349.452 220.519 349.452C217.198 349.452 214.506 352.813 214.506 356.959C214.506 361.106 217.198 364.467 220.519 364.467Z" fill="white"/>
<path opacity="0.3" d="M220.519 362.325C222.653 362.325 224.382 359.923 224.382 356.959C224.382 353.995 222.653 351.593 220.519 351.593C218.386 351.593 216.656 353.995 216.656 356.959C216.656 359.923 218.386 362.325 220.519 362.325Z" fill="white"/>
<path d="M219.418 356.251V350.194C219.417 349.618 219.53 349.047 219.751 348.515C219.971 347.982 220.295 347.499 220.703 347.092L224.199 343.596H230.789V353.918H225.09L221.752 357.256C221.614 357.391 221.449 357.497 221.269 357.566C221.089 357.635 220.896 357.666 220.703 357.658C220.35 357.632 220.02 357.471 219.781 357.21C219.543 356.948 219.413 356.605 219.418 356.251Z" fill="#FF6D38"/>
<path opacity="0.3" d="M219.418 350.203V356.251C219.418 356.605 219.554 356.945 219.798 357.2C220.042 357.456 220.376 357.607 220.729 357.623C220.922 357.636 221.116 357.606 221.297 357.537C221.478 357.467 221.642 357.36 221.778 357.221L225.116 353.883H230.815V343.569H224.225L220.729 347.065C220.312 347.474 219.981 347.962 219.756 348.501C219.531 349.04 219.416 349.619 219.418 350.203Z" fill="white"/>
<path opacity="0.2" d="M219.418 350.203V356.251C219.418 356.605 219.554 356.945 219.798 357.2C220.042 357.456 220.376 357.607 220.729 357.623C220.922 357.636 221.116 357.606 221.297 357.537C221.478 357.467 221.642 357.36 221.778 357.221L225.116 353.883V343.569H224.242L220.746 347.065C220.326 347.473 219.992 347.96 219.764 348.499C219.536 349.038 219.418 349.618 219.418 350.203Z" fill="white"/>
<path d="M218.342 344.321H230.876C231.421 344.321 231.863 343.879 231.863 343.334V333.755C231.863 333.209 231.421 332.767 230.876 332.767H218.342C217.797 332.767 217.355 333.209 217.355 333.755V343.334C217.355 343.879 217.797 344.321 218.342 344.321Z" fill="#FF6D38"/>
<path opacity="0.2" d="M217.356 333.746V343.36C217.354 343.49 217.379 343.62 217.428 343.741C217.477 343.861 217.55 343.971 217.642 344.064C217.733 344.157 217.843 344.23 217.963 344.28C218.084 344.33 218.213 344.356 218.343 344.356H230.868C231.13 344.354 231.381 344.248 231.566 344.061C231.751 343.875 231.855 343.623 231.855 343.36V333.746C231.853 333.485 231.748 333.235 231.563 333.05C231.379 332.865 231.129 332.761 230.868 332.758H218.343C218.081 332.758 217.83 332.862 217.645 333.048C217.46 333.233 217.356 333.484 217.356 333.746Z" fill="white"/>
<path opacity="0.2" d="M217.356 333.746V343.36C217.354 343.49 217.379 343.62 217.428 343.741C217.477 343.861 217.55 343.971 217.642 344.064C217.733 344.157 217.843 344.23 217.963 344.28C218.084 344.33 218.213 344.356 218.343 344.356H225.108C225.371 344.354 225.622 344.248 225.807 344.061C225.992 343.875 226.096 343.623 226.096 343.36V333.746C226.093 333.485 225.988 333.235 225.804 333.05C225.619 332.865 225.369 332.761 225.108 332.758H218.343C218.081 332.758 217.83 332.862 217.645 333.048C217.46 333.233 217.356 333.484 217.356 333.746Z" fill="white"/>
<path d="M364.527 343.01H227.711C227.57 343.01 227.434 342.954 227.334 342.854C227.234 342.754 227.178 342.619 227.178 342.477V334.279C227.178 334.138 227.234 334.002 227.334 333.902C227.434 333.802 227.57 333.746 227.711 333.746H364.527V343.01Z" fill="#FF6D38"/>
<path opacity="0.3" d="M364.527 343.01H227.711C227.57 343.01 227.434 342.954 227.334 342.854C227.234 342.754 227.178 342.619 227.178 342.477V334.279C227.178 334.138 227.234 334.002 227.334 333.902C227.434 333.802 227.57 333.746 227.711 333.746H364.527V343.01Z" fill="white"/>
<path d="M370.741 353.883L366.974 357.658H364.527L363.461 351.593L370.741 353.883Z" fill="#FF6D38"/>
<path d="M360.447 349.452H363.305C366.626 349.452 369.318 352.817 369.318 356.959C369.318 361.102 366.626 364.467 363.305 364.467H360.447C357.126 364.467 354.434 361.102 354.434 356.959C354.434 352.817 357.126 349.452 360.447 349.452Z" fill="#263238"/>
<path opacity="0.3" d="M360.447 364.467C363.768 364.467 366.46 361.106 366.46 356.959C366.46 352.813 363.768 349.452 360.447 349.452C357.126 349.452 354.434 352.813 354.434 356.959C354.434 361.106 357.126 364.467 360.447 364.467Z" fill="white"/>
<path opacity="0.3" d="M360.445 362.325C362.579 362.325 364.308 359.923 364.308 356.959C364.308 353.995 362.579 351.593 360.445 351.593C358.312 351.593 356.582 353.995 356.582 356.959C356.582 359.923 358.312 362.325 360.445 362.325Z" fill="white"/>
<path d="M359.344 356.251V350.194C359.344 349.617 359.458 349.046 359.68 348.514C359.902 347.981 360.228 347.498 360.637 347.092L364.133 343.596H370.732V353.918H365.025L361.686 357.256C361.548 357.391 361.384 357.497 361.203 357.566C361.023 357.635 360.83 357.666 360.637 357.658C360.283 357.634 359.951 357.474 359.71 357.212C359.47 356.951 359.339 356.607 359.344 356.251Z" fill="#FF6D38"/>
<path opacity="0.3" d="M359.344 350.203V356.251C359.343 356.605 359.48 356.945 359.724 357.2C359.968 357.456 360.302 357.607 360.655 357.623C360.848 357.636 361.042 357.606 361.223 357.537C361.404 357.467 361.568 357.36 361.704 357.221L365.042 353.883H370.749V343.569H364.151L360.655 347.065C360.238 347.474 359.907 347.962 359.682 348.501C359.456 349.04 359.342 349.619 359.344 350.203Z" fill="white"/>
<path opacity="0.2" d="M359.344 350.203V356.251C359.343 356.605 359.48 356.945 359.724 357.2C359.968 357.456 360.302 357.607 360.655 357.623C360.848 357.636 361.042 357.606 361.223 357.537C361.404 357.467 361.568 357.36 361.704 357.221L365.042 353.883V343.569H364.168L360.672 347.065C360.252 347.473 359.918 347.96 359.69 348.499C359.461 349.038 359.344 349.618 359.344 350.203Z" fill="white"/>
<path d="M358.27 344.321H370.803C371.349 344.321 371.791 343.879 371.791 343.334V333.755C371.791 333.209 371.349 332.767 370.803 332.767H358.27C357.725 332.767 357.283 333.209 357.283 333.755V343.334C357.283 343.879 357.725 344.321 358.27 344.321Z" fill="#FF6D38"/>
<path opacity="0.2" d="M357.281 333.746V343.36C357.28 343.49 357.305 343.62 357.354 343.741C357.403 343.861 357.476 343.971 357.567 344.064C357.659 344.157 357.769 344.23 357.889 344.28C358.009 344.33 358.138 344.356 358.269 344.356H370.793C371.056 344.354 371.307 344.248 371.492 344.061C371.677 343.875 371.781 343.623 371.781 343.36V333.746C371.779 333.485 371.674 333.235 371.489 333.05C371.304 332.865 371.055 332.761 370.793 332.758H358.269C358.007 332.758 357.756 332.862 357.571 333.048C357.385 333.233 357.281 333.484 357.281 333.746Z" fill="white"/>
<path opacity="0.2" d="M357.281 333.746V343.36C357.28 343.49 357.305 343.62 357.354 343.741C357.403 343.861 357.476 343.971 357.567 344.064C357.659 344.157 357.769 344.23 357.889 344.28C358.009 344.33 358.138 344.356 358.269 344.356H365.034C365.296 344.354 365.548 344.248 365.733 344.061C365.918 343.875 366.021 343.623 366.021 343.36V333.746C366.019 333.485 365.914 333.235 365.729 333.05C365.545 332.865 365.295 332.761 365.034 332.758H358.269C358.007 332.758 357.756 332.862 357.571 333.048C357.385 333.233 357.281 333.484 357.281 333.746Z" fill="white"/>
<path d="M109.712 296.67H306.948C308.164 296.67 309.15 295.684 309.15 294.468V283.893C309.15 282.676 308.164 281.69 306.948 281.69H109.712C108.496 281.69 107.51 282.676 107.51 283.893V294.468C107.51 295.684 108.496 296.67 109.712 296.67Z" fill="#FF6D38"/>
<path opacity="0.5" d="M109.712 296.67H306.948C308.164 296.67 309.15 295.684 309.15 294.468V283.893C309.15 282.676 308.164 281.69 306.948 281.69H109.712C108.496 281.69 107.51 282.676 107.51 283.893V294.468C107.51 295.684 108.496 296.67 109.712 296.67Z" fill="white"/>
<g opacity="0.7">
<path d="M163.97 293.297H198.607C199.163 293.323 199.718 293.235 200.239 293.04C200.761 292.845 201.237 292.546 201.639 292.162C202.042 291.778 202.362 291.316 202.581 290.804C202.8 290.292 202.913 289.741 202.913 289.185C202.913 288.628 202.8 288.078 202.581 287.566C202.362 287.054 202.042 286.592 201.639 286.208C201.237 285.823 200.761 285.525 200.239 285.33C199.718 285.134 199.163 285.047 198.607 285.073H163.97C163.414 285.047 162.859 285.134 162.338 285.33C161.816 285.525 161.34 285.823 160.938 286.208C160.535 286.592 160.215 287.054 159.996 287.566C159.777 288.078 159.664 288.628 159.664 289.185C159.664 289.741 159.777 290.292 159.996 290.804C160.215 291.316 160.535 291.778 160.938 292.162C161.34 292.546 161.816 292.845 162.338 293.04C162.859 293.235 163.414 293.323 163.97 293.297Z" fill="white"/>
</g>
<g opacity="0.7">
<path d="M209.444 293.297H265.949C266.505 293.323 267.06 293.235 267.581 293.04C268.102 292.845 268.579 292.546 268.981 292.162C269.384 291.778 269.704 291.316 269.923 290.804C270.142 290.292 270.255 289.741 270.255 289.185C270.255 288.628 270.142 288.078 269.923 287.566C269.704 287.054 269.384 286.592 268.981 286.208C268.579 285.823 268.102 285.525 267.581 285.33C267.06 285.134 266.505 285.047 265.949 285.073H209.444C208.387 285.122 207.388 285.576 206.657 286.342C205.926 287.108 205.518 288.126 205.518 289.185C205.518 290.244 205.926 291.262 206.657 292.028C207.388 292.794 208.387 293.248 209.444 293.297Z" fill="white"/>
</g>
<g opacity="0.7">
<path d="M114.118 293.297H154.008C154.564 293.323 155.119 293.235 155.64 293.04C156.162 292.845 156.638 292.546 157.04 292.162C157.443 291.778 157.763 291.316 157.982 290.804C158.201 290.292 158.314 289.741 158.314 289.185C158.314 288.628 158.201 288.078 157.982 287.566C157.763 287.054 157.443 286.592 157.04 286.208C156.638 285.823 156.162 285.525 155.64 285.33C155.119 285.134 154.564 285.047 154.008 285.073H114.118C113.061 285.122 112.062 285.576 111.331 286.342C110.599 287.108 110.191 288.126 110.191 289.185C110.191 290.244 110.599 291.262 111.331 292.028C112.062 292.794 113.061 293.248 114.118 293.297Z" fill="white"/>
</g>
<path d="M271.893 240.63V304.65C271.893 307.194 273.335 309.256 275.118 309.256H378.792C380.54 309.256 382.025 307.194 382.025 304.65V240.63C382.025 238.095 380.574 236.033 378.792 236.033H275.118C273.335 236.033 271.893 238.095 271.893 240.63ZM360.088 246.18C360.088 243.838 361.416 241.941 363.06 241.941H373.548C373.972 241.963 374.384 242.087 374.749 242.303C375.115 242.519 375.422 242.821 375.645 243.182C376.231 244.071 376.535 245.116 376.519 246.18C376.519 248.522 375.191 250.41 373.548 250.41H363.06C362.636 250.388 362.223 250.264 361.858 250.048C361.492 249.832 361.185 249.53 360.962 249.169C360.375 248.284 360.07 247.242 360.088 246.18ZM277.425 246.18C277.425 243.838 278.753 241.941 280.388 241.941H290.876C291.3 241.963 291.712 242.087 292.078 242.303C292.443 242.519 292.75 242.821 292.973 243.182C293.562 244.069 293.867 245.115 293.847 246.18C293.847 248.522 292.519 250.41 290.876 250.41H280.388C279.964 250.388 279.551 250.264 279.186 250.048C278.821 249.832 278.513 249.53 278.29 249.169C277.697 248.286 277.386 247.244 277.399 246.18H277.425Z" fill="#FF6D38"/>
<path opacity="0.6" d="M271.893 240.63V304.65C271.893 307.194 273.335 309.256 275.118 309.256H378.792C380.54 309.256 382.025 307.194 382.025 304.65V240.63C382.025 238.095 380.574 236.033 378.792 236.033H275.118C273.335 236.033 271.893 238.095 271.893 240.63ZM360.088 246.18C360.088 243.838 361.416 241.941 363.06 241.941H373.548C373.972 241.963 374.384 242.087 374.749 242.303C375.115 242.519 375.422 242.821 375.645 243.182C376.231 244.071 376.535 245.116 376.519 246.18C376.519 248.522 375.191 250.41 373.548 250.41H363.06C362.636 250.388 362.223 250.264 361.858 250.048C361.492 249.832 361.185 249.53 360.962 249.169C360.375 248.284 360.07 247.242 360.088 246.18ZM277.425 246.18C277.425 243.838 278.753 241.941 280.388 241.941H290.876C291.3 241.963 291.712 242.087 292.078 242.303C292.443 242.519 292.75 242.821 292.973 243.182C293.562 244.069 293.867 245.115 293.847 246.18C293.847 248.522 292.519 250.41 290.876 250.41H280.388C279.964 250.388 279.551 250.264 279.186 250.048C278.821 249.832 278.513 249.53 278.29 249.169C277.697 248.286 277.386 247.244 277.399 246.18H277.425Z" fill="white"/>
<path d="M273.623 240.63V304.65C273.623 307.194 275.065 309.256 276.848 309.256H380.522C382.27 309.256 383.756 307.194 383.756 304.65V240.63C383.756 238.095 382.305 236.033 380.522 236.033H276.848C275.065 236.033 273.623 238.095 273.623 240.63ZM361.836 246.18C361.836 243.838 363.164 241.941 364.807 241.941H375.295C375.719 241.963 376.132 242.087 376.497 242.303C376.863 242.519 377.17 242.821 377.393 243.182C377.979 244.071 378.283 245.116 378.267 246.18C378.267 248.522 376.939 250.41 375.295 250.41H364.807C364.383 250.388 363.971 250.264 363.606 250.048C363.24 249.832 362.933 249.53 362.71 249.169C362.123 248.284 361.818 247.242 361.836 246.18ZM279.173 246.18C279.173 243.838 280.501 241.941 282.136 241.941H292.624C293.048 241.963 293.46 242.087 293.826 242.303C294.191 242.519 294.498 242.821 294.721 243.182C295.31 244.069 295.615 245.115 295.595 246.18C295.595 248.522 294.267 250.41 292.624 250.41H282.136C281.712 250.388 281.299 250.264 280.934 250.048C280.569 249.832 280.261 249.53 280.038 249.169C279.439 248.288 279.121 247.245 279.129 246.18H279.173Z" fill="#FF6D38"/>
<path opacity="0.7" d="M273.623 240.63V304.65C273.623 307.194 275.065 309.256 276.848 309.256H380.522C382.27 309.256 383.756 307.194 383.756 304.65V240.63C383.756 238.095 382.305 236.033 380.522 236.033H276.848C275.065 236.033 273.623 238.095 273.623 240.63ZM361.836 246.18C361.836 243.838 363.164 241.941 364.807 241.941H375.295C375.719 241.963 376.132 242.087 376.497 242.303C376.863 242.519 377.17 242.821 377.393 243.182C377.979 244.071 378.283 245.116 378.267 246.18C378.267 248.522 376.939 250.41 375.295 250.41H364.807C364.383 250.388 363.971 250.264 363.606 250.048C363.24 249.832 362.933 249.53 362.71 249.169C362.123 248.284 361.818 247.242 361.836 246.18ZM279.173 246.18C279.173 243.838 280.501 241.941 282.136 241.941H292.624C293.048 241.963 293.46 242.087 293.826 242.303C294.191 242.519 294.498 242.821 294.721 243.182C295.31 244.069 295.615 245.115 295.595 246.18C295.595 248.522 294.267 250.41 292.624 250.41H282.136C281.712 250.388 281.299 250.264 280.934 250.048C280.569 249.832 280.261 249.53 280.038 249.169C279.439 248.288 279.121 247.245 279.129 246.18H279.173Z" fill="white"/>
<path opacity="0.1" d="M281.698 293.961H375.662C377.086 293.961 378.24 292.807 378.24 291.383V267.706C378.24 266.283 377.086 265.128 375.662 265.128H281.698C280.274 265.128 279.12 266.283 279.12 267.706V291.383C279.12 292.807 280.274 293.961 281.698 293.961Z" fill="black"/>
<path d="M383.756 299.101H273.623V300.481H383.756V299.101Z" fill="#FF6D38"/>
<path d="M314.43 234.232V268.729H348.804V234.232H314.43ZM326.491 235.98H336.743V242.701H326.491V235.98Z" fill="#FF6D38"/>
<path d="M341.288 267.409H348.473V249.352H341.288V267.409Z" fill="#FF6D38"/>
<path opacity="0.2" d="M341.288 267.409H348.473V249.352H341.288V267.409Z" fill="black"/>
<path d="M314.753 267.409H321.938V249.352H314.753V267.409Z" fill="#FF6D38"/>
<path opacity="0.2" d="M314.753 267.409H321.938V249.352H314.753V267.409Z" fill="black"/>
<path d="M343.019 267.409H350.203V249.352H343.019V267.409Z" fill="#FF6D38"/>
<path opacity="0.2" d="M343.019 267.409H350.203V249.352H343.019V267.409Z" fill="white"/>
<path d="M316.484 267.409H323.668V249.352H316.484V267.409Z" fill="#FF6D38"/>
<path opacity="0.2" d="M316.484 267.409H323.668V249.352H316.484V267.409Z" fill="white"/>
<path d="M311.537 236.041H316.178V234.276H311.537V236.041Z" fill="#FF6D38"/>
<path d="M123.81 353.883L120.043 357.658H117.596L116.529 351.593L123.81 353.883Z" fill="#FF6D38"/>
<path d="M113.515 349.452H116.373C119.694 349.452 122.386 352.817 122.386 356.959C122.386 361.102 119.738 364.458 116.373 364.458H113.515C110.194 364.458 107.502 361.093 107.502 356.951C107.502 352.808 110.194 349.452 113.515 349.452Z" fill="#263238"/>
<path opacity="0.3" d="M113.515 364.467C116.836 364.467 119.528 361.106 119.528 356.959C119.528 352.813 116.836 349.452 113.515 349.452C110.194 349.452 107.502 352.813 107.502 356.959C107.502 361.106 110.194 364.467 113.515 364.467Z" fill="white"/>
<path opacity="0.3" d="M113.515 362.325C115.649 362.325 117.379 359.923 117.379 356.959C117.379 353.995 115.649 351.593 113.515 351.593C111.382 351.593 109.652 353.995 109.652 356.959C109.652 359.923 111.382 362.325 113.515 362.325Z" fill="white"/>
<path d="M112.414 356.251V350.194C112.414 349.617 112.529 349.046 112.751 348.514C112.973 347.981 113.298 347.498 113.708 347.092L117.204 343.596H123.794V353.918H118.095L114.757 357.256C114.618 357.391 114.454 357.497 114.274 357.566C114.093 357.635 113.901 357.666 113.708 357.658C113.353 357.634 113.021 357.474 112.781 357.212C112.54 356.951 112.409 356.607 112.414 356.251Z" fill="#FF6D38"/>
<path opacity="0.7" d="M112.414 350.203V356.251C112.414 356.605 112.55 356.945 112.794 357.2C113.038 357.456 113.372 357.607 113.725 357.623C113.919 357.636 114.112 357.606 114.293 357.537C114.474 357.467 114.638 357.36 114.774 357.221L118.113 353.883H123.82V343.569H117.221L113.725 347.065C113.308 347.474 112.977 347.962 112.752 348.501C112.527 349.04 112.412 349.619 112.414 350.203Z" fill="white"/>
<path opacity="0.2" d="M112.414 350.203V356.251C112.414 356.605 112.55 356.945 112.794 357.2C113.038 357.456 113.372 357.607 113.725 357.623C113.919 357.636 114.112 357.606 114.293 357.537C114.474 357.467 114.638 357.36 114.774 357.221L118.113 353.883V343.569H117.239L113.743 347.065C113.322 347.473 112.988 347.96 112.76 348.499C112.532 349.038 112.414 349.618 112.414 350.203Z" fill="white"/>
<path d="M111.339 344.321H123.872C124.417 344.321 124.859 343.879 124.859 343.334V333.755C124.859 333.209 124.417 332.767 123.872 332.767H111.339C110.793 332.767 110.351 333.209 110.351 333.755V343.334C110.351 343.879 110.793 344.321 111.339 344.321Z" fill="#FF6D38"/>
<path opacity="0.5" d="M123.864 332.758H111.339C110.794 332.758 110.352 333.2 110.352 333.746V343.325C110.352 343.87 110.794 344.313 111.339 344.313H123.864C124.409 344.313 124.851 343.87 124.851 343.325V333.746C124.851 333.2 124.409 332.758 123.864 332.758Z" fill="white"/>
<path opacity="0.2" d="M110.352 333.746V343.36C110.35 343.49 110.375 343.62 110.424 343.741C110.473 343.861 110.546 343.971 110.638 344.064C110.73 344.157 110.839 344.23 110.959 344.28C111.08 344.33 111.209 344.356 111.339 344.356H118.104C118.367 344.354 118.618 344.248 118.803 344.061C118.988 343.875 119.092 343.623 119.092 343.36V333.746C119.089 333.485 118.985 333.235 118.8 333.05C118.615 332.865 118.365 332.761 118.104 332.758H111.339C111.077 332.758 110.826 332.862 110.641 333.048C110.456 333.233 110.352 333.484 110.352 333.746Z" fill="white"/>
<path d="M257.523 343.01H120.742C120.672 343.01 120.603 342.996 120.538 342.97C120.474 342.943 120.415 342.904 120.365 342.854C120.316 342.805 120.277 342.746 120.25 342.681C120.223 342.616 120.209 342.547 120.209 342.477V334.279C120.209 334.209 120.223 334.14 120.25 334.075C120.277 334.01 120.316 333.952 120.365 333.902C120.415 333.853 120.474 333.813 120.538 333.786C120.603 333.76 120.672 333.746 120.742 333.746H257.523V343.01Z" fill="#FF6D38"/>
<path opacity="0.7" d="M257.523 343.01H120.742C120.672 343.01 120.603 342.996 120.538 342.97C120.474 342.943 120.415 342.904 120.365 342.854C120.316 342.805 120.277 342.746 120.25 342.681C120.223 342.616 120.209 342.547 120.209 342.477V334.279C120.209 334.209 120.223 334.14 120.25 334.075C120.277 334.01 120.316 333.952 120.365 333.902C120.415 333.853 120.474 333.813 120.538 333.786C120.603 333.76 120.672 333.746 120.742 333.746H257.523V343.01Z" fill="white"/>
<path d="M263.746 353.883L259.971 357.658H257.523L256.457 351.593L263.746 353.883Z" fill="#FF6D38"/>
<path d="M253.46 349.452H256.318C259.64 349.452 262.331 352.817 262.331 356.959C262.331 361.102 259.64 364.467 256.318 364.467H253.46C250.139 364.467 247.447 361.102 247.447 356.959C247.447 352.817 250.122 349.452 253.46 349.452Z" fill="#263238"/>
<path opacity="0.3" d="M253.443 364.467C256.764 364.467 259.456 361.106 259.456 356.959C259.456 352.813 256.764 349.452 253.443 349.452C250.122 349.452 247.43 352.813 247.43 356.959C247.43 361.106 250.122 364.467 253.443 364.467Z" fill="white"/>
<path opacity="0.3" d="M253.441 362.325C255.575 362.325 257.304 359.923 257.304 356.959C257.304 353.995 255.575 351.593 253.441 351.593C251.308 351.593 249.578 353.995 249.578 356.959C249.578 359.923 251.308 362.325 253.441 362.325Z" fill="white"/>
<path d="M252.34 356.251V350.194C252.34 349.617 252.454 349.046 252.676 348.514C252.899 347.981 253.224 347.498 253.634 347.092L257.13 343.596H263.728V353.918H258.021L254.682 357.256C254.545 357.392 254.381 357.498 254.2 357.567C254.02 357.636 253.827 357.667 253.634 357.658C253.279 357.634 252.947 357.474 252.706 357.212C252.466 356.951 252.335 356.607 252.34 356.251Z" fill="#FF6D38"/>
<path opacity="0.7" d="M252.342 350.203V356.251C252.341 356.605 252.478 356.945 252.722 357.2C252.966 357.456 253.3 357.607 253.653 357.623C253.846 357.636 254.04 357.606 254.221 357.537C254.402 357.467 254.566 357.36 254.702 357.221L258.04 353.883H263.748V343.569H257.149L253.653 347.065C253.236 347.474 252.905 347.962 252.68 348.501C252.454 349.04 252.34 349.619 252.342 350.203Z" fill="white"/>
<path opacity="0.2" d="M252.342 350.203V356.251C252.341 356.605 252.478 356.945 252.722 357.2C252.966 357.456 253.3 357.607 253.653 357.623C253.846 357.636 254.04 357.606 254.221 357.537C254.402 357.467 254.566 357.36 254.702 357.221L258.04 353.883V343.569H257.166L253.67 347.065C253.25 347.473 252.916 347.96 252.688 348.499C252.459 349.038 252.342 349.618 252.342 350.203Z" fill="white"/>
<path d="M251.266 344.321H263.799C264.345 344.321 264.787 343.879 264.787 343.334V333.755C264.787 333.209 264.345 332.767 263.799 332.767H251.266C250.721 332.767 250.279 333.209 250.279 333.755V343.334C250.279 343.879 250.721 344.321 251.266 344.321Z" fill="#FF6D38"/>
<path opacity="0.5" d="M250.277 333.746V343.36C250.276 343.49 250.301 343.62 250.35 343.741C250.399 343.861 250.472 343.971 250.564 344.064C250.655 344.157 250.765 344.23 250.885 344.28C251.005 344.33 251.135 344.356 251.265 344.356H263.789C264.052 344.354 264.303 344.248 264.488 344.061C264.673 343.875 264.777 343.623 264.777 343.36V333.746C264.775 333.485 264.67 333.235 264.485 333.05C264.301 332.865 264.051 332.761 263.789 332.758H251.265C251.003 332.758 250.752 332.862 250.567 333.048C250.381 333.233 250.277 333.484 250.277 333.746Z" fill="white"/>
<path opacity="0.2" d="M250.277 333.746V343.36C250.276 343.49 250.301 343.62 250.35 343.741C250.399 343.861 250.472 343.971 250.564 344.064C250.655 344.157 250.765 344.23 250.885 344.28C251.005 344.33 251.135 344.356 251.265 344.356H258.03C258.16 344.356 258.289 344.33 258.41 344.28C258.53 344.23 258.639 344.157 258.731 344.064C258.823 343.971 258.896 343.861 258.945 343.741C258.994 343.62 259.019 343.49 259.017 343.36V333.746C259.017 333.484 258.913 333.233 258.728 333.048C258.543 332.862 258.292 332.758 258.03 332.758H251.265C251.003 332.758 250.752 332.862 250.567 333.048C250.381 333.233 250.277 333.484 250.277 333.746Z" fill="white"/>
<path opacity="0.1" d="M197.82 228.717H106.269C104.169 228.717 102.467 230.419 102.467 232.519V257.017C102.467 259.117 104.169 260.819 106.269 260.819H197.82C199.92 260.819 201.622 259.117 201.622 257.017V232.519C201.622 230.419 199.92 228.717 197.82 228.717Z" fill="black"/>
<path d="M149.523 361.653C149.522 361.096 149.685 360.551 149.993 360.087C150.302 359.623 150.741 359.261 151.255 359.046C151.769 358.832 152.335 358.775 152.881 358.883C153.428 358.99 153.93 359.258 154.325 359.651C154.719 360.044 154.988 360.545 155.097 361.092C155.207 361.638 155.151 362.204 154.939 362.719C154.726 363.234 154.365 363.674 153.902 363.983C153.439 364.293 152.895 364.458 152.338 364.458C151.593 364.458 150.878 364.163 150.351 363.637C149.823 363.111 149.526 362.397 149.523 361.653Z" fill="#263238"/>
<path d="M110.43 361.653C110.43 361.096 110.595 360.551 110.905 360.088C111.214 359.625 111.654 359.264 112.169 359.052C112.684 358.839 113.25 358.784 113.796 358.893C114.342 359.002 114.844 359.271 115.237 359.666C115.63 360.06 115.898 360.562 116.005 361.109C116.113 361.655 116.056 362.222 115.842 362.736C115.627 363.25 115.265 363.689 114.801 363.997C114.337 364.305 113.792 364.469 113.235 364.467C112.49 364.465 111.777 364.167 111.251 363.64C110.725 363.112 110.43 362.398 110.43 361.653Z" fill="#263238"/>
<path d="M152.338 363.4C151.875 363.4 151.43 363.216 151.102 362.888C150.774 362.561 150.59 362.116 150.59 361.652V358.759C150.588 358.447 150.463 358.148 150.242 357.928C150.021 357.707 149.723 357.582 149.41 357.579H116.198C115.885 357.579 115.584 357.704 115.361 357.925C115.138 358.146 115.012 358.446 115.01 358.759V361.652C115.01 362.116 114.826 362.561 114.498 362.888C114.17 363.216 113.725 363.4 113.262 363.4C112.798 363.4 112.353 363.216 112.026 362.888C111.698 362.561 111.514 362.116 111.514 361.652V358.759C111.516 357.518 112.011 356.329 112.889 355.453C113.767 354.576 114.957 354.083 116.198 354.083H149.41C150.65 354.086 151.838 354.579 152.714 355.456C153.591 356.332 154.084 357.52 154.086 358.759V361.652C154.086 362.116 153.902 362.561 153.574 362.888C153.246 363.216 152.802 363.4 152.338 363.4Z" fill="#263238"/>
<path d="M132.787 357.58C132.323 357.58 131.879 357.396 131.551 357.068C131.223 356.74 131.039 356.295 131.039 355.832V139.281C131.039 138.817 131.223 138.373 131.551 138.045C131.879 137.717 132.323 137.533 132.787 137.533C133.251 137.533 133.695 137.717 134.023 138.045C134.351 138.373 134.535 138.817 134.535 139.281V355.832C134.535 356.295 134.351 356.74 134.023 357.068C133.695 357.396 133.251 357.58 132.787 357.58Z" fill="#263238"/>
<path d="M152.52 146.308C152.289 146.308 152.066 146.216 151.902 146.052C151.739 145.888 151.646 145.665 151.646 145.434C151.646 145.202 151.739 144.98 151.902 144.816C152.066 144.652 152.289 144.56 152.52 144.56C153.265 144.56 153.978 144.264 154.504 143.738C155.03 143.212 155.326 142.498 155.326 141.754V141.474C155.326 140.73 155.03 140.017 154.504 139.491C153.978 138.964 153.265 138.669 152.52 138.669H113.059C112.315 138.669 111.602 138.964 111.076 139.491C110.549 140.017 110.254 140.73 110.254 141.474V141.754C110.254 142.498 110.549 143.212 111.076 143.738C111.602 144.264 112.315 144.56 113.059 144.56C113.803 144.56 114.517 144.264 115.043 143.738C115.569 143.212 115.865 142.498 115.865 141.754V141.23C115.865 140.998 115.957 140.776 116.121 140.612C116.285 140.448 116.507 140.356 116.739 140.356C116.971 140.356 117.193 140.448 117.357 140.612C117.521 140.776 117.613 140.998 117.613 141.23V141.754C117.613 142.962 117.133 144.12 116.279 144.974C115.425 145.828 114.267 146.308 113.059 146.308C111.852 146.308 110.694 145.828 109.84 144.974C108.986 144.12 108.506 142.962 108.506 141.754V141.474C108.506 140.267 108.986 139.109 109.84 138.255C110.694 137.401 111.852 136.921 113.059 136.921H152.52C153.118 136.921 153.711 137.039 154.263 137.268C154.816 137.496 155.318 137.832 155.74 138.255C156.163 138.677 156.499 139.179 156.727 139.732C156.956 140.284 157.074 140.876 157.074 141.474V141.754C157.074 142.352 156.956 142.944 156.727 143.497C156.499 144.049 156.163 144.551 155.74 144.974C155.318 145.397 154.816 145.732 154.263 145.961C153.711 146.19 153.118 146.308 152.52 146.308Z" fill="#263238"/>
<path d="M146.604 149.375C146.604 148.912 146.788 148.467 147.115 148.139C147.443 147.812 147.888 147.627 148.352 147.627C148.815 147.627 149.26 147.443 149.588 147.115C149.915 146.788 150.1 146.343 150.1 145.879V145.556C150.084 144.844 150.34 144.153 150.816 143.624C151.291 143.095 151.951 142.767 152.66 142.707C153.027 142.687 153.395 142.741 153.74 142.868C154.085 142.995 154.4 143.19 154.667 143.443C154.934 143.696 155.146 144.001 155.291 144.338C155.436 144.676 155.51 145.04 155.51 145.407V145.949C155.534 146.396 155.729 146.816 156.054 147.124C156.38 147.431 156.81 147.602 157.258 147.601C157.71 147.617 158.14 147.808 158.454 148.134C158.769 148.46 158.945 148.896 158.944 149.349V168.472C158.944 169.019 158.727 169.544 158.34 169.931C157.953 170.318 157.429 170.535 156.882 170.535H156.008C155.46 170.535 154.934 170.752 154.546 171.138C154.158 171.525 153.939 172.05 153.936 172.598V174.066H151.69V172.598C151.688 172.05 151.469 171.525 151.08 171.138C150.692 170.752 150.167 170.535 149.619 170.535H148.745C148.474 170.535 148.206 170.482 147.955 170.378C147.705 170.274 147.478 170.122 147.286 169.931C147.095 169.739 146.943 169.512 146.839 169.262C146.736 169.011 146.682 168.743 146.682 168.472L146.604 149.375Z" fill="#FF6D38"/>
<path opacity="0.7" d="M146.604 149.375C146.604 148.912 146.788 148.467 147.115 148.139C147.443 147.812 147.888 147.627 148.352 147.627C148.815 147.627 149.26 147.443 149.588 147.115C149.915 146.788 150.1 146.343 150.1 145.879V145.556C150.084 144.844 150.34 144.153 150.816 143.624C151.291 143.095 151.951 142.767 152.66 142.707C153.027 142.687 153.395 142.741 153.74 142.868C154.085 142.995 154.4 143.19 154.667 143.443C154.934 143.696 155.146 144.001 155.291 144.338C155.436 144.676 155.51 145.04 155.51 145.407V145.949C155.534 146.396 155.729 146.816 156.054 147.124C156.38 147.431 156.81 147.602 157.258 147.601C157.71 147.617 158.14 147.808 158.454 148.134C158.769 148.46 158.945 148.896 158.944 149.349V168.472C158.944 169.019 158.727 169.544 158.34 169.931C157.953 170.318 157.429 170.535 156.882 170.535H156.008C155.46 170.535 154.934 170.752 154.546 171.138C154.158 171.525 153.939 172.05 153.936 172.598V174.066H151.69V172.598C151.688 172.05 151.469 171.525 151.08 171.138C150.692 170.752 150.167 170.535 149.619 170.535H148.745C148.474 170.535 148.206 170.482 147.955 170.378C147.705 170.274 147.478 170.122 147.286 169.931C147.095 169.739 146.943 169.512 146.839 169.262C146.736 169.011 146.682 168.743 146.682 168.472L146.604 149.375Z" fill="white"/>
<path opacity="0.1" d="M148.589 169.215H156.901C157.427 169.215 157.854 168.789 157.854 168.263V149.542C157.854 149.015 157.427 148.589 156.901 148.589H148.589C148.063 148.589 147.636 149.015 147.636 149.542V168.263C147.636 168.789 148.063 169.215 148.589 169.215Z" fill="black"/>
<path d="M157.852 160.589V168.184C157.852 168.457 157.743 168.72 157.55 168.913C157.356 169.107 157.094 169.215 156.821 169.215H148.666C148.393 169.215 148.13 169.107 147.937 168.913C147.743 168.72 147.635 168.457 147.635 168.184V160.589H157.852Z" fill="#FF6D38"/>
<path d="M152.522 146.308C151.315 146.306 150.158 145.825 149.305 144.972C148.452 144.118 147.971 142.961 147.969 141.754V141.23C147.969 140.998 148.061 140.776 148.225 140.612C148.389 140.448 148.611 140.356 148.843 140.356C149.075 140.356 149.297 140.448 149.461 140.612C149.625 140.776 149.717 140.998 149.717 141.23V141.754C149.717 142.498 150.012 143.212 150.538 143.738C151.065 144.264 151.778 144.56 152.522 144.56C152.754 144.56 152.976 144.652 153.14 144.816C153.304 144.98 153.396 145.202 153.396 145.434C153.396 145.666 153.304 145.888 153.14 146.052C152.976 146.216 152.754 146.308 152.522 146.308Z" fill="#263238"/>
<path d="M148.142 234.861C146.808 234.859 145.529 234.328 144.585 233.384C143.642 232.441 143.11 231.162 143.108 229.827V217.189C143.108 217.137 143.23 215.266 142.016 214.821L142.313 213.999C144.157 214.672 143.991 217.119 143.982 217.224V229.862C143.982 230.966 144.42 232.024 145.201 232.804C145.981 233.584 147.039 234.022 148.142 234.022C149.246 234.022 150.304 233.584 151.084 232.804C151.864 232.024 152.303 230.966 152.303 229.862V172.003H153.177V229.862C153.165 231.191 152.63 232.461 151.687 233.397C150.745 234.333 149.471 234.859 148.142 234.861Z" fill="#FF6D38"/>
<path d="M137.961 343.001V321.58H211.587V364.467H189.72H137.961H116.094V343.001H137.961Z" fill="#263238"/>
<path opacity="0.2" d="M116.094 343.001V364.467H211.587V321.58H137.961V343.001H116.094Z" fill="white"/>
<path opacity="0.2" d="M116.094 343.001V364.467H168.569V343.001H190.427V321.58H137.961V343.001H116.094Z" fill="white"/>
<path opacity="0.2" d="M168.569 343.001H116.094V364.458H168.569V343.001Z" fill="white"/>
<path d="M196.912 177.92C196.912 177.92 194.57 172.047 186.18 173.428C177.789 174.809 174.818 183.042 176.068 186.59C177.317 190.139 175.84 194.579 174.573 195.47C173.306 196.362 174.337 198.556 175.141 200.05C175.945 201.545 176.015 202.454 173.979 205.757C173.099 207.105 172.722 208.72 172.914 210.318C173.106 211.916 173.854 213.396 175.028 214.497C176.985 216.105 196.939 218.806 200.732 215.642C206.605 210.748 201.545 207.287 201.545 205.792C201.545 204.044 202.829 203.17 203.109 199.971C203.389 196.773 200.487 194.666 200.155 192.979C199.823 191.293 201.029 189.649 201.029 187.543C201.029 185.437 199.569 185.175 199.281 182.133C199.24 181.295 199.005 180.478 198.594 179.747C198.183 179.016 197.607 178.39 196.912 177.92Z" fill="#263238"/>
<path d="M135.225 352.843C138.696 351.772 142.034 350.306 145.171 348.473C147.128 347.424 147.146 347.94 149.165 346.961C149.456 346.793 149.704 346.558 149.888 346.276C150.072 345.994 150.187 345.673 150.224 345.339C150.26 345.004 150.218 344.666 150.099 344.351C149.98 344.036 149.789 343.753 149.541 343.526C148.592 342.768 147.715 341.926 146.919 341.009L141.203 341.97C140.967 344.312 137.165 349.338 133.861 350.518C131.475 351.348 133.459 353.332 135.225 352.843Z" fill="#EBB376"/>
<path d="M172.519 244.72C172.519 244.72 150.669 270.783 143.563 283.482C140.793 288.42 141.02 343.106 141.02 343.106L149.166 340.956L157.32 289.923L190.322 257.585L196.266 245.428L172.519 244.72Z" fill="#FF6D38"/>
<g opacity="0.2">
<path d="M141.02 343.08L149.166 340.93L156.953 292.31L157.338 289.923L170.649 276.883L190.34 257.603L196.274 245.446L172.519 244.72C172.519 244.72 150.669 270.774 143.563 283.473C140.793 288.42 141.02 343.08 141.02 343.08Z" fill="black"/>
</g>
<path opacity="0.2" d="M156.953 292.309L157.337 289.923L170.648 276.883L177.78 255.392C177.78 255.392 160.3 264.831 154.978 273.816C152.198 278.526 154.313 286.13 156.953 292.309Z" fill="black"/>
<path d="M159.521 343.421C163.063 342.624 166.501 341.418 169.765 339.829C171.801 338.955 171.775 339.453 173.864 338.623C174.167 338.477 174.432 338.261 174.637 337.993C174.842 337.726 174.98 337.414 175.042 337.082C175.103 336.751 175.085 336.41 174.99 336.087C174.895 335.764 174.724 335.468 174.493 335.223C173.598 334.397 172.779 333.494 172.046 332.522L166.269 333.038C165.858 335.362 161.68 340.082 158.307 341.009C155.886 341.682 157.721 343.788 159.521 343.421Z" fill="#EBB376"/>
<path d="M196.283 245.437C196.283 245.437 165.064 259.648 158.859 272.382C154.489 281.297 165.702 333.186 165.702 333.186L173.481 332.635C173.341 314.631 174.739 282.616 174.739 282.616C174.739 282.616 196.895 272.277 198.975 267.575C202.891 258.704 196.283 245.437 196.283 245.437Z" fill="#FF6D38"/>
<g opacity="0.2">
<path d="M196.283 245.437C196.283 245.437 165.064 259.648 158.859 272.382C154.489 281.297 165.702 333.186 165.702 333.186L173.481 332.635C173.341 314.631 174.739 282.616 174.739 282.616C174.739 282.616 196.895 272.277 198.975 267.575C202.891 258.704 196.283 245.437 196.283 245.437Z" fill="black"/>
</g>
<path d="M176.426 216.892C173.644 219.113 170.725 221.156 167.686 223.01C164.356 225.011 159.916 227.528 155.852 226.672C148.563 225.221 142.348 220.912 136.624 216.472C136.262 216.177 136.022 215.759 135.948 215.298C135.874 214.837 135.972 214.365 136.223 213.972C136.474 213.578 136.861 213.29 137.311 213.163C137.76 213.036 138.24 213.079 138.66 213.282C143.095 215.555 147.69 217.5 152.408 219.103C154.348 219.662 156.402 220.265 158.124 219.907C162.992 217.678 167.415 213.955 171.811 210.861C172.62 210.294 173.616 210.061 174.592 210.212C175.569 210.362 176.449 210.884 177.049 211.668C177.65 212.453 177.924 213.439 177.814 214.42C177.704 215.402 177.219 216.303 176.461 216.936L176.426 216.892Z" fill="#E9B376"/>
<path d="M177.779 206.579C172.343 207.182 165.027 214.716 165.027 214.716C165.027 214.716 167.973 224.968 170.813 225.579C173.654 226.191 177.779 206.579 177.779 206.579Z" fill="#FF6D38"/>
<path opacity="0.1" d="M172.466 224.12C171.898 225.125 171.33 225.684 170.814 225.579C169.704 225.335 168.577 223.622 167.615 221.629C168.732 219.925 170.13 218.424 171.749 217.189C172.676 218.885 172.868 221.725 172.466 224.12Z" fill="black"/>
<path d="M170.072 216.927C169.891 220.355 169.944 223.792 170.229 227.214C170.518 232.231 170.413 237.973 171.295 246.18H197.515C196.869 239.074 197.113 229.661 201.335 213.579C201.587 212.739 201.647 211.852 201.512 210.985C201.376 210.117 201.048 209.291 200.552 208.567C200.056 207.843 199.404 207.239 198.644 206.8C197.884 206.361 197.036 206.097 196.161 206.028C195.156 205.949 194.098 205.88 193.006 205.853C189.186 205.646 185.356 205.719 181.547 206.072C180.306 206.203 179.013 206.386 177.789 206.579C173.332 207.287 170.124 212.478 170.072 216.927Z" fill="#FF6D38"/>
<path d="M130.803 213.116L131.476 214.864C131.602 215.19 131.803 215.48 132.063 215.713C132.322 215.945 132.634 216.113 132.971 216.202L136.17 217.076C136.801 217.241 137.463 217.252 138.101 217.11C138.738 216.967 139.331 216.673 139.832 216.254L140.452 215.73C139.578 212.732 136.353 210.171 136.353 210.171L135.532 209.297C135.366 209.117 135.165 208.973 134.942 208.872C134.719 208.772 134.478 208.717 134.234 208.711C133.989 208.706 133.746 208.749 133.518 208.839C133.291 208.929 133.084 209.064 132.91 209.236L131.24 210.853C130.955 211.147 130.762 211.517 130.685 211.919C130.607 212.321 130.648 212.737 130.803 213.116Z" fill="#EBB376"/>
<path d="M191.948 192.962C191.022 196.668 189.929 203.45 192.368 205.862C192.368 205.862 189.894 209.044 181.102 213.973C177.781 209.603 180.91 206.107 180.91 206.107C185.079 205.041 185.14 201.99 184.58 199.115L191.948 192.962Z" fill="#EBB376"/>
<path opacity="0.2" d="M188.94 195.47L184.57 199.106C184.716 199.773 184.798 200.452 184.815 201.134C186.397 200.88 188.652 199.115 188.905 197.463C189.04 196.807 189.052 196.131 188.94 195.47Z" fill="black"/>
<path d="M194.954 185.498C193.949 191.476 193.652 194.019 190.304 196.938C185.279 201.308 178.217 199.193 177.43 193.136C176.722 187.683 178.488 178.829 184.579 176.749C185.873 176.257 187.276 176.12 188.64 176.352C190.005 176.585 191.283 177.178 192.341 178.07C193.4 178.963 194.2 180.122 194.659 181.428C195.119 182.734 195.22 184.139 194.954 185.498Z" fill="#EBB376"/>
<path d="M187.367 186.643C187.306 187.141 187 187.517 186.676 187.517C186.353 187.517 186.135 187.08 186.204 186.573C186.274 186.066 186.58 185.699 186.904 185.699C187.227 185.699 187.437 186.162 187.367 186.643Z" fill="#263238"/>
<path d="M181.092 186.101C181.031 186.608 180.716 186.975 180.393 186.975C180.069 186.975 179.86 186.538 179.921 186.031C179.982 185.524 180.297 185.157 180.62 185.157C180.943 185.157 181.153 185.594 181.092 186.101Z" fill="#263238"/>
<path d="M180.76 185.192L179.615 184.772C179.615 184.772 180.113 185.76 180.76 185.192Z" fill="#263238"/>
<path d="M182.745 186.59C182.16 187.717 181.434 188.766 180.586 189.711C180.823 189.914 181.105 190.06 181.408 190.136C181.712 190.212 182.029 190.216 182.334 190.148L182.745 186.59Z" fill="#D58745"/>
<path d="M188.696 183.54C188.657 183.541 188.618 183.534 188.581 183.519C188.545 183.504 188.513 183.481 188.486 183.453C188.245 183.185 187.942 182.982 187.604 182.86C187.265 182.738 186.902 182.701 186.546 182.753C186.509 182.761 186.471 182.761 186.434 182.754C186.398 182.746 186.363 182.731 186.332 182.71C186.301 182.689 186.274 182.662 186.254 182.63C186.234 182.599 186.22 182.563 186.214 182.526C186.203 182.448 186.222 182.368 186.268 182.304C186.313 182.239 186.381 182.193 186.458 182.177C186.91 182.1 187.373 182.14 187.805 182.293C188.236 182.446 188.621 182.707 188.923 183.051C188.977 183.107 189.006 183.182 189.006 183.26C189.006 183.338 188.977 183.413 188.923 183.47C188.859 183.521 188.778 183.546 188.696 183.54Z" fill="#263238"/>
<path d="M178.925 182.666C178.851 182.674 178.777 182.655 178.715 182.614C178.662 182.558 178.633 182.485 178.633 182.408C178.633 182.332 178.662 182.258 178.715 182.203C178.986 181.809 179.346 181.483 179.764 181.251C180.183 181.019 180.649 180.887 181.127 180.866C181.165 180.865 181.202 180.873 181.237 180.888C181.271 180.904 181.302 180.926 181.326 180.954C181.351 180.983 181.37 181.016 181.381 181.052C181.392 181.088 181.395 181.126 181.39 181.163C181.381 181.242 181.345 181.315 181.287 181.37C181.23 181.424 181.154 181.456 181.075 181.46C180.697 181.48 180.329 181.588 180 181.775C179.671 181.961 179.39 182.222 179.178 182.535C179.147 182.573 179.109 182.604 179.065 182.627C179.022 182.649 178.974 182.663 178.925 182.666Z" fill="#263238"/>
<path d="M187.037 185.725L185.9 185.288C185.9 185.288 186.39 186.293 187.037 185.725Z" fill="#263238"/>
<path d="M193.284 189.973C193.284 189.973 190.776 183.619 191.195 178.243C191.195 178.243 184.046 175.709 180.244 180.149C180.244 180.149 181.241 175.954 187.586 175.272C193.931 174.59 201.168 182.456 193.284 189.973Z" fill="#263238"/>
<path d="M196.405 190.532C195.686 191.599 194.573 192.338 193.311 192.586C191.685 192.865 191.135 191.24 191.799 189.684C192.393 188.286 193.958 186.459 195.487 186.887C197.017 187.316 197.322 189.195 196.405 190.532Z" fill="#EBB376"/>
<path d="M181.896 193.154C181.857 193.154 181.819 193.144 181.785 193.124C181.751 193.104 181.723 193.075 181.704 193.04C181.689 193.016 181.679 192.988 181.676 192.959C181.672 192.93 181.674 192.901 181.682 192.873C181.691 192.845 181.705 192.819 181.723 192.796C181.742 192.774 181.765 192.756 181.792 192.743C182.761 192.291 183.809 192.033 184.877 191.983C184.933 191.985 184.986 192.007 185.026 192.046C185.066 192.085 185.091 192.137 185.095 192.193C185.096 192.221 185.092 192.25 185.082 192.277C185.072 192.304 185.057 192.329 185.038 192.35C185.018 192.371 184.995 192.388 184.969 192.4C184.942 192.412 184.914 192.419 184.886 192.42C183.885 192.473 182.904 192.713 181.993 193.128L181.896 193.154Z" fill="#263238"/>
<path opacity="0.1" d="M201.02 214.681C199.875 219.121 199.001 222.931 198.398 226.279C194.605 221.323 196.335 213.842 196.335 213.842C197.874 212.88 199.534 213.387 201.02 214.681Z" fill="black"/>
<path d="M202.585 211.928C204.376 221.297 205.408 231.033 207.715 240.21C209.961 247.36 212.784 254.395 215.223 261.492C215.37 261.935 215.35 262.417 215.167 262.846C214.983 263.275 214.648 263.622 214.225 263.82C213.802 264.019 213.321 264.055 212.874 263.922C212.426 263.79 212.043 263.497 211.796 263.1C207.357 255.392 202.829 247.578 200.19 239.022C198.04 230.49 196.321 221.856 195.042 213.151C194.439 208.196 201.588 207.033 202.585 211.928Z" fill="#E9B376"/>
<path d="M198.056 206.588C203.073 208.685 205.791 217.539 205.791 217.539C205.791 217.539 201.753 225.046 196.238 227.712C196.238 227.712 191.493 215.712 193.153 210.87C194.814 206.028 198.056 206.588 198.056 206.588Z" fill="#FF6D38"/>
<path d="M213.159 260.286L220.151 260.828L218.718 266.771C218.718 266.771 213.779 267.086 212.066 263.389L213.159 260.286Z" fill="#EBB376"/>
<path d="M224.355 263.493L222.222 267.671L218.709 266.78L220.142 260.828L224.355 263.493Z" fill="#EBB376"/>
<path d="M185.76 176.268C185.76 176.268 186.101 180.918 189.02 181.267C191.939 181.617 191.956 185.637 191.956 185.637L195.907 179.817L192.795 175.849L185.76 176.268Z" fill="#263238"/>
<path d="M171.715 203.686C171.657 203.686 171.601 203.663 171.56 203.622C171.519 203.581 171.496 203.525 171.496 203.467C171.496 203.409 171.519 203.354 171.56 203.313C171.601 203.272 171.657 203.249 171.715 203.249C172.116 203.157 172.482 202.953 172.772 202.66C173.061 202.368 173.261 201.999 173.349 201.597C173.467 200.842 173.319 200.069 172.929 199.412C172.341 198.368 172.182 197.136 172.484 195.977C172.783 195.235 173.173 194.533 173.646 193.888C174.66 192.35 175.814 190.602 175.246 187.77C174.302 183.103 176.12 179.152 180.664 176.041C180.714 176.012 180.773 176.003 180.829 176.014C180.885 176.025 180.935 176.057 180.97 176.102C180.987 176.126 180.998 176.153 181.004 176.182C181.01 176.21 181.01 176.24 181.004 176.268C180.998 176.296 180.987 176.324 180.971 176.348C180.954 176.372 180.933 176.392 180.909 176.408C176.469 179.45 174.791 183.138 175.665 187.683C176.268 190.654 175.062 192.472 173.996 194.08C173.55 194.698 173.18 195.367 172.894 196.073C172.621 197.129 172.775 198.25 173.323 199.193C173.758 199.946 173.913 200.828 173.76 201.684C173.645 202.166 173.396 202.606 173.042 202.953C172.688 203.299 172.243 203.538 171.758 203.642L171.715 203.686Z" fill="#263238"/>
<path d="M192.69 187.219C192.514 187.223 192.34 187.184 192.183 187.106C191.571 186.826 191.309 186.066 191.038 185.183C190.618 183.89 190.164 182.421 188.416 181.949C184.632 180.909 185.514 176.268 185.523 176.225C185.536 176.169 185.569 176.121 185.616 176.09C185.664 176.059 185.721 176.048 185.776 176.058C185.805 176.063 185.833 176.073 185.857 176.088C185.882 176.103 185.903 176.123 185.919 176.147C185.936 176.171 185.947 176.198 185.953 176.226C185.958 176.254 185.958 176.284 185.951 176.312C185.951 176.487 185.138 180.595 188.53 181.556C190.461 182.089 191.003 183.741 191.44 185.052C191.693 185.83 191.912 186.512 192.314 186.713C192.471 186.767 192.637 186.788 192.803 186.774C192.968 186.761 193.129 186.713 193.275 186.634C193.302 186.621 193.33 186.614 193.359 186.613C193.388 186.611 193.418 186.616 193.445 186.627C193.472 186.638 193.496 186.654 193.517 186.675C193.537 186.695 193.553 186.72 193.564 186.747C193.575 186.774 193.581 186.803 193.581 186.833C193.581 186.862 193.575 186.891 193.564 186.918C193.552 186.944 193.535 186.969 193.515 186.989C193.494 187.009 193.469 187.025 193.441 187.036C193.204 187.142 192.949 187.204 192.69 187.219Z" fill="#263238"/>
<path d="M203.328 207.418C203.295 207.419 203.262 207.412 203.231 207.399C203.201 207.385 203.174 207.365 203.153 207.339C201.938 205.845 202.594 204.149 203.223 202.515C203.597 201.719 203.831 200.864 203.914 199.989C203.824 198.428 203.32 196.92 202.454 195.619C201.641 194.142 200.872 192.743 201.335 191.083C202.104 188.321 200.828 186.249 199.797 184.58C199.157 183.761 198.744 182.787 198.6 181.757C198.6 181.699 198.623 181.644 198.664 181.603C198.705 181.562 198.76 181.539 198.818 181.539C198.876 181.539 198.932 181.562 198.973 181.603C199.014 181.644 199.037 181.699 199.037 181.757C199.187 182.712 199.575 183.613 200.164 184.379C201.239 186.127 202.576 188.286 201.763 191.222C201.344 192.717 202.034 193.976 202.839 195.435C203.741 196.81 204.263 198.399 204.351 200.041C204.268 200.967 204.026 201.872 203.634 202.716C203.013 204.306 202.436 205.81 203.494 207.086C203.515 207.105 203.532 207.129 203.543 207.155C203.554 207.182 203.56 207.21 203.56 207.239C203.56 207.267 203.554 207.296 203.543 207.322C203.532 207.348 203.515 207.372 203.494 207.391C203.47 207.408 203.443 207.419 203.414 207.424C203.385 207.428 203.356 207.426 203.328 207.418Z" fill="#263238"/>
<path d="M140.451 213.868L139.83 216.237L138.484 215.756L139.201 213.239L140.451 213.868Z" fill="#FF6D38"/>
<path opacity="0.7" d="M140.451 213.868L139.83 216.237L138.484 215.756L139.201 213.239L140.451 213.868Z" fill="white"/>
<path d="M142.165 214.847C142.116 214.856 142.065 214.856 142.016 214.847C141.26 214.553 140.421 214.553 139.665 214.847C139.613 214.872 139.557 214.887 139.5 214.891C139.442 214.894 139.385 214.887 139.33 214.868C139.276 214.849 139.226 214.82 139.183 214.782C139.14 214.744 139.105 214.698 139.079 214.646C139.054 214.595 139.039 214.539 139.036 214.483C139.032 214.426 139.04 214.369 139.059 214.315C139.078 214.262 139.107 214.212 139.145 214.17C139.183 214.128 139.229 214.093 139.28 214.069C140.254 213.679 141.34 213.679 142.313 214.069C142.429 214.089 142.532 214.154 142.6 214.25C142.669 214.345 142.696 214.464 142.676 214.58C142.656 214.696 142.591 214.8 142.495 214.868C142.4 214.936 142.281 214.963 142.165 214.943V214.847Z" fill="#FF6D38"/>
<path d="M79.7869 343.351C79.7869 343.351 83.9384 334.296 79.1925 325.364C74.4467 316.432 73.0745 314.334 76.0986 312.499C79.1226 310.663 80.5123 319.648 80.5123 319.648C82.0081 315.591 82.1613 311.16 80.9493 307.01C78.8517 300.551 77.5319 290.028 80.3987 288.901C83.2654 287.773 80.9493 302.011 83.4489 306.887C84.7166 303.474 85.5363 299.91 85.8874 296.286C86.2282 291.103 85.6951 282.817 87.9588 280.685C90.2224 278.552 91.682 280.038 89.4533 291.488C88.1136 298.329 87.3738 305.275 87.2421 312.245C87.2421 312.245 92.1627 297.221 95.4752 296.784C98.7876 296.347 98.7789 301.215 95.9471 305.428C93.1154 309.641 87.6529 317.209 86.7614 321.099C86.7614 321.099 92.1714 309.798 97.0309 313.233C101.89 316.668 92.8007 323.528 88.7454 325.993C84.69 328.458 81.8757 343.928 81.8757 343.928L79.7869 343.351Z" fill="#FF6D38"/>
<path opacity="0.2" d="M79.7869 343.351C79.7869 343.351 83.9384 334.296 79.1925 325.364C74.4467 316.432 73.0745 314.334 76.0986 312.499C79.1226 310.663 80.5123 319.648 80.5123 319.648C82.0081 315.591 82.1613 311.16 80.9493 307.01C78.8517 300.551 77.5319 290.028 80.3987 288.901C83.2654 287.773 80.9493 302.011 83.4489 306.887C84.7166 303.474 85.5363 299.91 85.8874 296.286C86.2282 291.103 85.6951 282.817 87.9588 280.685C90.2224 278.552 91.682 280.038 89.4533 291.488C88.1136 298.329 87.3738 305.275 87.2421 312.245C87.2421 312.245 92.1627 297.221 95.4752 296.784C98.7876 296.347 98.7789 301.215 95.9471 305.428C93.1154 309.641 87.6529 317.209 86.7614 321.099C86.7614 321.099 92.1714 309.798 97.0309 313.233C101.89 316.668 92.8007 323.528 88.7454 325.993C84.69 328.458 81.8757 343.928 81.8757 343.928L79.7869 343.351Z" fill="black"/>
<path d="M83.0309 347.065C83.0309 347.065 78.9843 337.949 83.835 329.087C88.6857 320.224 90.0841 318.153 87.0862 316.274C84.0884 314.395 82.5851 323.353 82.5851 323.353C81.1368 319.281 81.0357 314.85 82.2967 310.715C84.473 304.283 85.9238 293.786 83.0658 292.615C80.2079 291.444 82.3579 305.725 79.8058 310.549C78.5765 307.119 77.798 303.544 77.4897 299.913C77.2101 294.721 77.8481 286.444 75.6019 284.286C73.3557 282.127 71.8874 283.578 73.985 295.062C75.241 301.923 75.8961 308.88 75.9427 315.854C75.9427 315.854 71.1969 300.76 67.9019 300.271C64.607 299.782 64.5458 304.641 67.3251 308.906C70.1044 313.171 75.4708 320.81 76.3186 324.708C76.3186 324.708 71.0746 313.346 66.1452 316.72C61.2158 320.093 70.253 327.077 74.2734 329.602C78.2938 332.128 80.9333 347.633 80.9333 347.633L83.0309 347.065Z" fill="#FF6D38"/>
<path d="M64.4141 340.571H97.8096L95.1089 364.466H67.1235L64.4141 340.571Z" fill="#263238"/>
</svg>
