<svg width="500" height="500" viewBox="0 0 500 500" fill="none" xmlns="http://www.w3.org/2000/svg">
<path d="M444.291 260.779H34.9512V303.209H444.291V260.779Z" fill="#F5F5F5"/>
<path d="M451.501 402.28C449.589 402.28 447.755 401.52 446.403 400.168C445.051 398.816 444.291 396.982 444.291 395.07V131.68C444.291 129.768 445.051 127.934 446.403 126.581C447.755 125.229 449.589 124.47 451.501 124.47C453.413 124.47 455.247 125.229 456.599 126.581C457.951 127.934 458.711 129.768 458.711 131.68V395.07C458.711 396.982 457.951 398.816 456.599 400.168C455.247 401.52 453.413 402.28 451.501 402.28Z" fill="#EBEBEB"/>
<path d="M42.1602 131.68C42.1602 127.698 38.9322 124.47 34.9502 124.47C30.9683 124.47 27.7402 127.698 27.7402 131.68V395.07C27.7402 399.052 30.9683 402.28 34.9502 402.28C38.9322 402.28 42.1602 399.052 42.1602 395.07V131.68Z" fill="#EBEBEB"/>
<path d="M448.031 293.739H27.9707V312.669H448.031V293.739Z" fill="#EBEBEB"/>
<path d="M448.031 140.859H27.9707V156.849H448.031V140.859Z" fill="#EBEBEB"/>
<path d="M70.7393 148.859H63.0293V303.209H70.7393V148.859Z" fill="#EBEBEB"/>
<path d="M100.19 148.859H92.4805V303.209H100.19V148.859Z" fill="#EBEBEB"/>
<path d="M129.649 148.859H121.939V303.209H129.649V148.859Z" fill="#EBEBEB"/>
<path d="M159.101 148.859H151.391V303.209H159.101V148.859Z" fill="#EBEBEB"/>
<path d="M188.55 148.859H180.84V303.209H188.55V148.859Z" fill="#EBEBEB"/>
<path d="M218.011 148.859H210.301V303.209H218.011V148.859Z" fill="#EBEBEB"/>
<path d="M247.46 148.859H239.75V303.209H247.46V148.859Z" fill="#EBEBEB"/>
<path d="M276.911 148.859H269.201V303.209H276.911V148.859Z" fill="#EBEBEB"/>
<path d="M306.36 148.859H298.65V303.209H306.36V148.859Z" fill="#EBEBEB"/>
<path d="M335.819 148.859H328.109V303.209H335.819V148.859Z" fill="#EBEBEB"/>
<path d="M365.271 148.859H357.561V303.209H365.271V148.859Z" fill="#EBEBEB"/>
<path d="M394.72 148.859H387.01V303.209H394.72V148.859Z" fill="#EBEBEB"/>
<path d="M424.181 148.859H416.471V303.209H424.181V148.859Z" fill="#EBEBEB"/>
<path d="M182.01 38.2598H109.77V113.56H182.01V38.2598Z" fill="#E0E0E0"/>
<path d="M177.121 38.2598H104.881V113.56H177.121V38.2598Z" fill="#FAFAFA"/>
<path d="M177.14 113.589H104.85V38.2393H177.14V113.589ZM104.9 113.589H177.09V38.2793H104.9V113.589Z" fill="#E0E0E0"/>
<path d="M167.41 48.3799H114.59V103.44H167.41V48.3799Z" fill="white"/>
<path d="M114.59 103.81C114.213 104.362 113.773 104.868 113.28 105.32C112.44 106.21 111.28 107.42 109.93 108.73C108.58 110.04 107.38 111.2 106.48 112.03C106.042 112.513 105.545 112.94 105 113.3C105.367 112.743 105.804 112.235 106.3 111.79C107.14 110.9 108.3 109.69 109.66 108.38C111.02 107.07 112.22 105.9 113.12 105.07C113.557 104.592 114.051 104.169 114.59 103.81Z" fill="#E0E0E0"/>
<path d="M167.4 103.67C167.957 104.045 168.467 104.485 168.92 104.98C169.81 105.82 171.01 106.98 172.32 108.33C173.63 109.68 174.8 110.88 175.63 111.78C176.11 112.241 176.536 112.754 176.9 113.31C176.344 112.943 175.836 112.506 175.39 112.01C174.5 111.17 173.29 110.01 171.98 108.65C170.67 107.29 169.5 106.09 168.67 105.19C168.192 104.732 167.766 104.222 167.4 103.67Z" fill="#E0E0E0"/>
<path d="M167.26 48.53C167.635 47.9794 168.071 47.4729 168.56 47.02C169.41 46.13 170.56 44.92 171.92 43.61C173.28 42.3 174.47 41.14 175.37 40.31C175.821 39.809 176.335 39.3686 176.9 39C176.522 39.5482 176.086 40.0545 175.6 40.51C174.76 41.4 173.6 42.6 172.24 43.92C170.88 45.24 169.68 46.4 168.78 47.23C168.326 47.7218 167.816 48.1581 167.26 48.53Z" fill="#E0E0E0"/>
<path d="M114.44 48.67C113.888 48.2929 113.381 47.8533 112.93 47.36C112.04 46.52 110.83 45.36 109.52 44.01C108.21 42.66 107.05 41.46 106.22 40.56C105.754 40.089 105.345 39.5655 105 39C105.557 39.3672 106.064 39.8041 106.51 40.3C107.4 41.14 108.61 42.3 109.92 43.66C111.23 45.02 112.4 46.22 113.23 47.12C113.699 47.5822 114.105 48.1032 114.44 48.67Z" fill="#E0E0E0"/>
<path d="M167.26 103.44C167.26 103.44 167.26 103.35 167.26 103.17C167.26 102.99 167.26 102.73 167.26 102.41C167.26 101.71 167.26 100.72 167.26 99.4098C167.26 96.7998 167.26 93.0098 167.21 88.1898C167.21 78.5498 167.15 64.8098 167.11 48.3598L167.31 48.5698H114.64L114.87 48.3298C114.87 68.5398 114.87 87.4498 114.87 103.39L114.67 103.19L152.81 103.29L163.52 103.35H166.35H163.55L152.88 103.4L114.62 103.5H114.42V103.3C114.42 87.3598 114.42 68.4498 114.42 48.2398V48.0098H114.66H167.33H167.53V48.2098C167.53 64.7198 167.46 78.4998 167.43 88.2098C167.43 93.0098 167.43 96.7898 167.38 99.3898C167.38 100.66 167.38 101.64 167.38 102.32C167.38 102.64 167.38 102.88 167.38 103.07C167.352 103.197 167.312 103.321 167.26 103.44Z" fill="#E0E0E0"/>
<path d="M149.8 67.0996H132.18V84.7196H149.8V67.0996Z" fill="#EBEBEB"/>
<path d="M397.45 27.0996V118.47H279.43L275.18 27.7396L397.45 27.0996Z" fill="#E0E0E0"/>
<path d="M275.18 27.6297V118.47L393.2 118.47V27.6297L275.18 27.6297Z" fill="white"/>
<path d="M393.65 118.92H274.73V27.1797H393.65V118.92ZM275.65 118.02H392.75V28.0797H275.63L275.65 118.02Z" fill="#E0E0E0"/>
<path d="M380.411 36.96H287.961V106.51H380.411V36.96Z" fill="white"/>
<path d="M380.42 36.9999H380H378.7H373.7L354.7 37.0599L287.99 37.1599L288.21 36.9499C288.21 57.8099 288.21 81.4899 288.21 106.49L287.97 106.26H380.43L380.23 106.45C380.23 85.4499 380.31 68.0699 380.33 55.9499C380.33 49.8899 380.33 45.1399 380.38 41.8899C380.38 40.2699 380.38 39.0299 380.38 38.1899C380.38 37.3499 380.38 36.8999 380.38 36.8999C380.38 36.8999 380.38 37.3199 380.38 38.1399C380.38 38.9599 380.38 40.2099 380.38 41.8099C380.38 45.0499 380.38 49.8099 380.43 55.8099C380.43 67.9599 380.49 85.3599 380.53 106.43V106.62H380.34H287.88H287.65V106.38C287.65 81.3799 287.65 57.6999 287.65 36.8399V36.6299H288L354.85 36.7399H373.76H378.76H380.47L380.42 36.9999Z" fill="#E0E0E0"/>
<path d="M275.18 27.4199C275.887 27.755 276.558 28.164 277.18 28.6399C278.38 29.4499 280.01 30.5899 281.79 31.8999C283.57 33.2099 285.13 34.4499 286.24 35.3799C286.886 35.8509 287.477 36.3945 288 36.9999C287.289 36.6145 286.619 36.1589 286 35.6399L281.48 32.2799L277 28.9099C276.345 28.4745 275.736 27.9754 275.18 27.4199Z" fill="#E0E0E0"/>
<path d="M393.2 27.6299C391.227 29.3625 389.157 30.9817 387 32.4799C384.897 34.1143 382.7 35.6236 380.42 36.9999C382.405 35.2599 384.492 33.6403 386.67 32.1499C388.753 30.5118 390.933 29.0023 393.2 27.6299Z" fill="#E0E0E0"/>
<path d="M380 106.51C382.358 108.33 384.621 110.269 386.78 112.32C389.042 114.256 391.202 116.309 393.25 118.47C390.885 116.655 388.619 114.715 386.46 112.66C384.2 110.725 382.043 108.672 380 106.51Z" fill="#E0E0E0"/>
<path d="M275.18 118.47C277.126 116.397 279.186 114.434 281.35 112.59C283.405 110.624 285.569 108.775 287.83 107.05C285.887 109.126 283.827 111.089 281.66 112.93C279.604 114.895 277.44 116.744 275.18 118.47Z" fill="#E0E0E0"/>
<path d="M330.521 74.5494C330.418 73.583 330.391 72.61 330.441 71.6394C330.501 70.4994 330.441 69.3294 330.441 68.1794C330.441 64.0994 327.681 61.5894 323.671 61.6294C321.787 61.8067 319.988 62.4986 318.471 63.6294C311.351 68.5094 313.981 79.2294 318.471 84.7794C319.944 86.5451 321.714 88.0408 323.701 89.1994C326.181 90.5694 330.281 90.6694 331.991 88.2594C332.649 87.3311 333.056 86.2477 333.169 85.1153C333.283 83.9828 333.101 82.8402 332.641 81.7994C331.562 79.5073 330.847 77.0614 330.521 74.5494Z" fill="#EBEBEB"/>
<path d="M331.999 58.4296C331.289 60.6496 329.309 61.9996 327.569 61.4296C325.829 60.8596 324.999 58.6196 325.699 56.4296C326.399 54.2396 328.389 52.8596 330.129 53.4296C331.869 53.9996 332.689 56.2096 331.999 58.4296Z" fill="#EBEBEB"/>
<path d="M323.841 58C323.841 59.64 322.771 60.94 321.491 60.93C320.211 60.92 319.201 59.57 319.221 57.93C319.241 56.29 320.291 54.99 321.571 55.01C322.851 55.03 323.861 56.4 323.841 58Z" fill="#EBEBEB"/>
<path d="M318.161 59.3097C318.368 59.5581 318.516 59.8506 318.594 60.1649C318.671 60.4792 318.676 60.8071 318.608 61.1235C318.54 61.44 318.4 61.7368 318.2 61.9913C318 62.2458 317.745 62.4514 317.453 62.5924C317.162 62.7334 316.842 62.8061 316.519 62.805C316.195 62.804 315.876 62.7291 315.585 62.5862C315.295 62.4432 315.041 62.2359 314.842 61.9801C314.644 61.7243 314.507 61.4266 314.441 61.1097C314.233 60.8612 314.085 60.5687 314.007 60.2544C313.93 59.9401 313.925 59.6122 313.993 59.2958C314.061 58.9793 314.201 58.6825 314.401 58.428C314.601 58.1735 314.856 57.9679 315.148 57.8269C315.439 57.6859 315.759 57.6132 316.082 57.6143C316.406 57.6153 316.725 57.6902 317.016 57.8331C317.306 57.9761 317.56 58.1834 317.759 58.4392C317.957 58.695 318.094 58.9927 318.161 59.3097Z" fill="#EBEBEB"/>
<path d="M314.001 62.6996C314.289 62.811 314.548 62.9876 314.756 63.2156C314.965 63.4436 315.118 63.7169 315.203 64.0139C315.288 64.3108 315.303 64.6235 315.247 64.9274C315.191 65.2312 315.066 65.518 314.88 65.7651C314.695 66.0123 314.455 66.2132 314.179 66.352C313.903 66.4908 313.598 66.5637 313.289 66.5651C312.98 66.5665 312.675 66.4963 312.398 66.36C312.121 66.2237 311.879 66.0251 311.691 65.7796C311.403 65.6682 311.145 65.4916 310.936 65.2636C310.728 65.0356 310.575 64.7623 310.49 64.4654C310.404 64.1684 310.389 63.8557 310.445 63.5518C310.501 63.248 310.627 62.9612 310.812 62.7141C310.997 62.4669 311.238 62.266 311.514 62.1272C311.79 61.9884 312.094 61.9155 312.403 61.9141C312.712 61.9127 313.017 61.9829 313.294 62.1192C313.572 62.2555 313.814 62.4541 314.001 62.6996Z" fill="#EBEBEB"/>
<path d="M312.091 67.1397C312.366 67.3019 312.591 67.5383 312.739 67.8219C312.887 68.1055 312.953 68.4249 312.929 68.744C312.904 69.063 312.791 69.3688 312.601 69.6266C312.412 69.8843 312.154 70.0838 311.857 70.2022C311.559 70.3206 311.235 70.3533 310.92 70.2964C310.605 70.2396 310.312 70.0956 310.075 69.8807C309.838 69.6659 309.666 69.3888 309.579 69.081C309.491 68.7733 309.492 68.4471 309.581 68.1397C309.787 67.6794 310.164 67.3176 310.633 67.1309C311.102 66.9443 311.624 66.9474 312.091 67.1397Z" fill="#EBEBEB"/>
<path d="M342.109 74.5494C342.212 73.583 342.239 72.61 342.189 71.6394C342.129 70.4994 342.189 69.3294 342.189 68.1794C342.189 64.0994 344.959 61.5894 348.969 61.6294C350.85 61.809 352.645 62.5007 354.159 63.6294C361.279 68.5094 358.649 79.2294 354.159 84.7794C352.688 86.5475 350.918 88.0435 348.929 89.1994C346.449 90.5694 342.359 90.6694 340.639 88.2594C339.981 87.3311 339.575 86.2477 339.461 85.1153C339.347 83.9828 339.529 82.8402 339.989 81.7994C341.068 79.5073 341.783 77.0614 342.109 74.5494Z" fill="#EBEBEB"/>
<path d="M340.65 58.4296C341.35 60.6496 343.33 61.9996 345.07 61.4296C346.81 60.8596 347.65 58.6196 346.94 56.4296C346.23 54.2396 344.25 52.8596 342.51 53.4296C340.77 53.9996 339.94 56.2096 340.65 58.4296Z" fill="#EBEBEB"/>
<path d="M348.789 58C348.789 59.64 349.859 60.94 351.139 60.93C352.419 60.92 353.429 59.57 353.409 57.93C353.389 56.29 352.339 54.99 351.059 55.01C349.779 55.03 348.769 56.4 348.789 58Z" fill="#EBEBEB"/>
<path d="M354.47 59.31C354.266 59.5593 354.121 59.8516 354.046 60.1649C353.972 60.4782 353.969 60.8045 354.039 61.119C354.108 61.4335 354.248 61.7282 354.448 61.9808C354.648 62.2334 354.902 62.4374 355.193 62.5774C355.483 62.7174 355.801 62.7898 356.123 62.7891C356.445 62.7884 356.763 62.7146 357.052 62.5734C357.342 62.4321 357.596 62.227 357.794 61.9735C357.993 61.7201 358.132 61.4248 358.2 61.11C358.404 60.8607 358.549 60.5684 358.624 60.255C358.698 59.9417 358.701 59.6155 358.632 59.301C358.562 58.9864 358.422 58.6918 358.222 58.4391C358.022 58.1865 357.768 57.9825 357.477 57.8425C357.187 57.7025 356.869 57.6302 356.547 57.6309C356.225 57.6316 355.907 57.7053 355.618 57.8466C355.328 57.9878 355.075 58.1929 354.876 58.4464C354.677 58.6999 354.538 58.9951 354.47 59.31Z" fill="#EBEBEB"/>
<path d="M358.599 62.6996C358.311 62.811 358.053 62.9876 357.844 63.2156C357.636 63.4436 357.483 63.7169 357.398 64.0139C357.313 64.3108 357.297 64.6235 357.353 64.9274C357.409 65.2312 357.535 65.518 357.72 65.7651C357.906 66.0123 358.146 66.2132 358.422 66.352C358.698 66.4908 359.002 66.5637 359.311 66.5651C359.62 66.5665 359.925 66.4963 360.203 66.36C360.48 66.2237 360.722 66.0251 360.909 65.7796C361.198 65.6682 361.456 65.4916 361.664 65.2636C361.873 65.0356 362.026 64.7623 362.111 64.4654C362.196 64.1684 362.211 63.8557 362.155 63.5518C362.099 63.248 361.974 62.9612 361.788 62.7141C361.603 62.4669 361.363 62.266 361.087 62.1272C360.811 61.9884 360.506 61.9155 360.197 61.9141C359.889 61.9127 359.583 61.9829 359.306 62.1192C359.029 62.2555 358.787 62.4541 358.599 62.6996Z" fill="#EBEBEB"/>
<path d="M360.54 67.1393C360.262 67.3022 360.035 67.54 359.886 67.8255C359.736 68.111 359.67 68.4328 359.694 68.7541C359.719 69.0755 359.833 69.3835 360.024 69.643C360.215 69.9026 360.475 70.1032 360.775 70.2221C361.075 70.3409 361.402 70.3733 361.719 70.3153C362.036 70.2574 362.33 70.1116 362.568 69.8945C362.806 69.6774 362.979 69.3977 363.066 69.0874C363.153 68.7771 363.151 68.4486 363.06 68.1393C362.854 67.6766 362.475 67.3129 362.004 67.126C361.533 66.9392 361.007 66.9439 360.54 67.1393Z" fill="#EBEBEB"/>
<path d="M60.791 403.22C100.281 451.39 167.791 481.33 235.921 480.94C304.051 480.55 371.091 449.83 409.841 401.21L60.791 403.22Z" fill="#F5F5F5"/>
<path d="M90.1094 403.049C121.699 440.659 181.279 463.769 235.799 463.469C290.319 463.169 351.999 439.329 382.999 401.359L90.1094 403.049Z" fill="#FAFAFA"/>
<path d="M120.41 402.59C152.83 424.16 195.69 436.59 235.8 436.39C275.73 436.16 319.51 423.32 352.26 401.54L120.41 402.59Z" fill="#EBEBEB"/>
<path d="M466.59 400.73C466.59 400.88 367.93 400.99 246.26 400.99C124.59 400.99 25.9004 400.88 25.9004 400.73C25.9004 400.58 124.54 400.47 246.26 400.47C367.98 400.47 466.59 400.59 466.59 400.73Z" fill="#263238"/>
<path d="M96.1507 313.13C96.0607 313.24 95.3007 312.78 94.4607 312.13C93.6207 311.48 93.0007 310.81 93.0907 310.7C93.1807 310.59 93.9407 311.04 94.7907 311.7C95.6407 312.36 96.2407 313 96.1507 313.13Z" fill="#263238"/>
<path d="M119.191 278.69C119.331 275.47 119.421 272.17 118.401 269.12C117.381 266.07 115.031 263.25 111.881 262.6C108.281 261.85 104.591 264.12 102.571 267.2C100.551 270.28 99.8608 274 99.2708 277.63C95.1632 302.644 93.6485 328.015 94.7508 353.34L109.481 355.4C116.001 329 118.001 305.87 119.191 278.69Z" fill="#455A64"/>
<path d="M109.831 262.48C109.826 262.563 109.806 262.645 109.771 262.72L109.521 263.39C109.281 264.01 108.961 264.86 108.521 265.93C108.321 266.49 108.041 267.09 107.821 267.77C107.601 268.45 107.361 269.2 107.111 270C106.861 270.8 106.581 271.66 106.281 272.56C105.981 273.46 105.791 274.46 105.521 275.48C104.294 280.282 103.346 285.15 102.681 290.06C101.881 295.6 101.361 301.73 100.951 308.18C100.191 321.08 100.081 332.79 99.7509 341.26C99.5909 345.5 99.4409 348.93 99.2809 351.26C99.2009 352.41 99.1409 353.32 99.1009 353.98C99.1009 354.27 99.0509 354.5 99.0309 354.69C99.0438 354.77 99.0438 354.851 99.0309 354.93C99.0157 354.851 99.0157 354.77 99.0309 354.69C99.0309 354.5 99.0309 354.26 99.0309 353.98C99.0309 353.314 99.0609 352.404 99.1209 351.25C99.2209 348.88 99.3009 345.46 99.4109 341.25C99.6509 332.78 99.7109 321.07 100.411 308.15C100.821 301.69 101.411 295.54 102.191 289.99C102.892 285.067 103.893 280.191 105.191 275.39L105.991 272.47L106.861 269.91C107.131 269.11 107.381 268.37 107.621 267.69C107.861 267.01 108.141 266.41 108.361 265.86C108.814 264.8 109.174 263.96 109.441 263.34L109.731 262.7C109.756 262.624 109.79 262.55 109.831 262.48Z" fill="#263238"/>
<path d="M111.2 262.49C111.965 263.4 112.574 264.43 113 265.54C114.126 268.584 114.583 271.834 114.34 275.07C113.95 283.2 113.22 294.42 112.25 306.8C111.28 319.18 110.25 330.38 109.33 338.47C108.89 342.47 108.52 345.79 108.24 348.04L107.91 350.64C107.91 350.91 107.83 351.13 107.81 351.32C107.79 351.51 107.81 351.55 107.81 351.55C107.799 351.471 107.799 351.39 107.81 351.31C107.81 351.13 107.81 350.9 107.81 350.63C107.87 349.964 107.95 349.094 108.05 348.02C108.27 345.71 108.58 342.44 108.97 338.43C109.74 330.33 110.76 319.14 111.74 306.76C112.72 294.38 113.49 283.17 113.98 275.05C114.251 271.86 113.856 268.649 112.82 265.62C112.368 264.533 111.826 263.486 111.2 262.49Z" fill="#263238"/>
<path d="M121.41 300.61C120.444 300.539 119.499 300.295 118.62 299.89C117.68 299.646 116.792 299.232 116 298.67C116.969 298.741 117.917 298.985 118.8 299.39C119.737 299.635 120.621 300.049 121.41 300.61Z" fill="#263238"/>
<path d="M123.18 285.601C122.385 286.238 121.49 286.738 120.53 287.081C119.639 287.579 118.668 287.918 117.66 288.081C118.454 287.444 119.35 286.947 120.31 286.611C121.202 286.112 122.173 285.77 123.18 285.601Z" fill="#263238"/>
<path d="M122.26 273.351C121.548 273.553 120.799 273.591 120.07 273.461C119.328 273.494 118.589 273.353 117.91 273.051C118.62 272.837 119.372 272.799 120.1 272.941C121.31 273.001 122.27 273.201 122.26 273.351Z" fill="#263238"/>
<path d="M107.059 265.5C106.939 265.58 106.299 264.77 105.619 263.71C105.135 263.1 104.793 262.39 104.619 261.63C104.739 261.55 105.389 262.36 106.059 263.43C106.729 264.5 107.189 265.42 107.059 265.5Z" fill="#263238"/>
<path d="M102 272.91C100.625 273.234 99.19 273.203 97.8301 272.82C97.8301 272.67 98.7701 272.57 99.9201 272.6C101.07 272.63 102.05 272.76 102 272.91Z" fill="#263238"/>
<path d="M98.4392 287.73C97.6697 287.692 96.9183 287.484 96.2392 287.12C95.0692 286.66 94.1792 286.17 94.2392 286.03C95.0087 286.068 95.7601 286.276 96.4392 286.64C97.5892 287.11 98.4892 287.59 98.4392 287.73Z" fill="#263238"/>
<path d="M98.0497 300.191C98.0497 300.341 97.2397 300.631 96.1797 300.861C95.1197 301.091 94.1797 301.141 94.1797 301.001C94.1797 300.861 94.9897 300.561 96.0497 300.341C97.1097 300.121 97.9997 300.051 98.0497 300.191Z" fill="#263238"/>
<path d="M96.3595 320.58C96.3595 320.73 95.4895 321 94.3595 321.21C93.2295 321.42 92.2995 321.46 92.2695 321.31C92.8766 320.946 93.5627 320.733 94.2695 320.69C94.9474 320.487 95.6641 320.449 96.3595 320.58Z" fill="#263238"/>
<path d="M95.2308 331.84C95.3008 331.97 94.5508 332.491 93.5708 333.011C92.5908 333.531 91.7308 333.85 91.6608 333.72C91.5908 333.59 92.3408 333.07 93.3208 332.55C94.3008 332.03 95.1608 331.71 95.2308 331.84Z" fill="#263238"/>
<path d="M104.421 344.611C104.291 344.681 103.651 343.791 102.971 342.611C102.488 341.932 102.148 341.164 101.971 340.351C102.101 340.281 102.751 341.171 103.421 342.351C103.907 343.026 104.248 343.796 104.421 344.611Z" fill="#263238"/>
<path d="M107.07 323.38C107.17 323.49 106.45 324.38 105.46 325.33C104.47 326.28 103.58 327.01 103.46 326.9C103.34 326.79 104.08 325.9 105.07 324.95C106.06 324 107 323.28 107.07 323.38Z" fill="#263238"/>
<path d="M106.48 312.24C106.38 312.34 105.71 311.79 104.99 311.02C104.27 310.25 103.78 309.53 103.88 309.44C103.98 309.35 104.66 309.89 105.38 310.66C106.1 311.43 106.59 312.15 106.48 312.24Z" fill="#263238"/>
<path d="M108.31 298.001C108.41 298.101 107.81 298.951 106.96 299.891C106.11 300.831 105.34 301.531 105.23 301.441C105.12 301.351 105.72 300.491 106.57 299.541C107.42 298.591 108.2 297.921 108.31 298.001Z" fill="#263238"/>
<path d="M109.331 287.68C109.231 287.79 108.391 287.13 107.461 286.21C106.531 285.29 105.851 284.47 105.961 284.36C106.071 284.25 106.901 284.92 107.831 285.84C108.761 286.76 109.441 287.58 109.331 287.68Z" fill="#263238"/>
<path d="M111.351 273.72C111.195 274.477 110.874 275.191 110.411 275.81C109.761 276.89 109.141 277.71 109.021 277.63C108.901 277.55 109.311 276.63 109.961 275.54C110.611 274.45 111.221 273.65 111.351 273.72Z" fill="#263238"/>
<path d="M115.139 260.781C115.269 260.851 114.899 261.781 114.309 262.871C113.719 263.961 113.139 264.791 113.019 264.721C112.899 264.651 113.259 263.721 113.849 262.621C114.439 261.521 114.999 260.711 115.139 260.781Z" fill="#263238"/>
<path d="M119.45 266.661C119.51 266.791 118.92 267.201 118.13 267.581C117.34 267.961 116.65 268.161 116.59 268.031C116.53 267.901 117.11 267.481 117.9 267.111C118.69 266.741 119.38 266.531 119.45 266.661Z" fill="#263238"/>
<path d="M119.55 313.13C118.547 313.138 117.557 312.898 116.67 312.43C115.716 312.115 114.856 311.564 114.17 310.83C115.107 311.115 116.015 311.49 116.88 311.95C117.807 312.254 118.701 312.649 119.55 313.13Z" fill="#263238"/>
<path d="M117.79 323C117.79 323.14 116.93 323.43 115.79 323.65C114.65 323.87 113.79 323.93 113.71 323.78C113.63 323.63 114.57 323.35 115.71 323.13C116.383 322.921 117.096 322.876 117.79 323Z" fill="#263238"/>
<path d="M115.63 339.84C113.894 338.803 112.596 337.167 111.98 335.24C112.652 335.957 113.261 336.73 113.8 337.55C114.472 338.263 115.084 339.028 115.63 339.84Z" fill="#263238"/>
<path d="M91.9992 347.56C91.8992 347.45 92.4992 346.78 93.3292 346.07C94.1592 345.36 94.9192 344.87 95.0092 344.98C95.0992 345.09 94.5092 345.76 93.6692 346.47C92.8292 347.18 92.0492 347.67 91.9992 347.56Z" fill="#263238"/>
<path d="M85.1491 310.73C84.1491 307.73 82.3891 304.25 79.2491 304.2C78.311 304.258 77.4058 304.567 76.6281 305.095C75.8505 305.622 75.2291 306.35 74.8291 307.2C73.9676 308.873 73.5574 310.741 73.6391 312.62C74.0264 325.95 76.2989 339.158 80.3891 351.85H91.8891C91.7541 337.88 89.4811 324.013 85.1491 310.73Z" fill="#455A64"/>
<path d="M64.349 291.89C62.749 285.46 57.949 281.99 52.349 281.67C47.269 282.56 45.299 287.56 44.689 292.67C44.079 297.78 45.689 302.89 47.249 307.81C52.2956 323.59 57.3423 339.37 62.389 355.15L76.699 353.59C72.199 332.46 69.599 312.87 64.349 291.89Z" fill="#455A64"/>
<path d="M79.2491 304.2C78.8745 304.717 78.5402 305.262 78.2491 305.83C77.6615 307.455 77.4763 309.198 77.7091 310.91C77.9291 313.1 78.1791 315.73 78.5491 318.62C78.9191 321.51 79.4391 324.67 80.0891 327.97C81.3891 334.58 82.8491 340.51 83.7791 344.83C84.2491 346.99 84.6091 348.74 84.7791 349.96C84.8791 350.51 84.9591 350.96 85.0191 351.36C85.0601 351.52 85.077 351.685 85.0691 351.85C84.9943 351.703 84.9436 351.544 84.9191 351.38C84.8291 351 84.7191 350.55 84.5791 350C84.2791 348.72 83.8691 347 83.3691 344.91C82.3691 340.61 80.8291 334.7 79.5191 328.07C78.8691 324.76 78.3691 321.58 78.0191 318.68C77.8291 317.22 77.7091 315.84 77.5891 314.54C77.4691 313.24 77.3491 312.05 77.2891 310.94C77.0795 309.174 77.3275 307.383 78.0091 305.74C78.3051 305.143 78.7283 304.617 79.2491 304.2Z" fill="#263238"/>
<path d="M52.5898 281.261C51.954 281.988 51.3756 282.764 50.8598 283.581C49.542 285.866 48.7942 288.435 48.6798 291.071C48.6218 294.979 49.2201 298.87 50.4498 302.581L54.5398 316.421C57.3898 326.221 59.9698 335.101 61.8598 341.581C62.7598 344.771 63.4898 347.371 64.0198 349.231L64.5798 351.311C64.6559 351.552 64.7095 351.8 64.7398 352.051C64.6324 351.822 64.5454 351.585 64.4798 351.341C64.3098 350.831 64.0998 350.141 63.8198 349.341C63.2598 347.491 62.4698 344.911 61.4998 341.741C59.5698 335.261 56.9398 326.401 54.0298 316.621C52.5998 311.701 51.2298 307.031 50.0298 302.771C48.7741 298.978 48.192 294.994 48.3098 291.001C48.4549 288.318 49.2734 285.714 50.6898 283.431C51.1996 282.608 51.8416 281.875 52.5898 281.261Z" fill="#263238"/>
<path d="M73.6109 352.081C73.4799 351.861 73.3694 351.63 73.2809 351.391C73.1009 350.931 72.7909 350.271 72.4709 349.391C71.7909 347.631 70.9109 345.041 70.0109 341.791C69.1109 338.541 68.2109 334.631 67.3409 330.261C66.4709 325.891 65.6009 321.061 64.6509 316.001C63.7009 310.941 62.5509 306.191 61.2609 301.941C60.1495 298.174 58.7555 294.497 57.0909 290.941C55.9654 288.541 54.6757 286.222 53.2309 284.001C52.7409 283.201 52.2909 282.621 52.0309 282.201C51.8741 282.003 51.74 281.788 51.6309 281.561C51.8066 281.74 51.9672 281.934 52.1109 282.141C52.4109 282.541 52.8809 283.141 53.4009 283.891C54.9102 286.084 56.2475 288.391 57.4009 290.791C59.1277 294.336 60.5657 298.014 61.7009 301.791C63.0915 306.424 64.2397 311.127 65.1409 315.881C66.1409 320.881 66.9809 325.741 67.8009 330.121C68.6209 334.501 69.4909 338.411 70.3509 341.661C71.2109 344.911 72.0209 347.511 72.6409 349.281C72.9309 350.171 73.2109 350.851 73.3609 351.281C73.469 351.539 73.5527 351.807 73.6109 352.081Z" fill="#263238"/>
<path d="M47.5403 305.461C47.5403 305.601 46.8003 305.921 45.8003 306.161C44.8003 306.401 43.9703 306.481 43.9403 306.341C43.9103 306.201 44.6803 305.891 45.6803 305.641C46.6803 305.391 47.5103 305.321 47.5403 305.461Z" fill="#263238"/>
<path d="M45.9999 295.701C45.2186 295.931 44.4023 296.019 43.5899 295.961C42.7854 296.079 41.9663 296.056 41.1699 295.891C41.9204 295.545 42.745 295.39 43.5699 295.441C44.3889 295.322 45.2247 295.411 45.9999 295.701Z" fill="#263238"/>
<path d="M47.6404 286.78C47.5404 286.89 46.7604 286.39 45.9004 285.66C45.0404 284.93 44.4104 284.24 44.5104 284.13C44.6104 284.02 45.3804 284.52 46.2404 285.25C47.1004 285.98 47.7304 286.67 47.6404 286.78Z" fill="#263238"/>
<path d="M51.9995 278.53C52.1395 278.53 52.0995 279.26 52.0795 280.1C52.0595 280.94 52.0795 281.63 51.9095 281.66C51.7395 281.69 51.5295 280.98 51.5595 280.08C51.5895 279.18 51.8595 278.49 51.9995 278.53Z" fill="#263238"/>
<path d="M60.9208 282.42C61.0408 282.5 60.6908 283.21 60.1408 283.99C59.5908 284.77 59.0408 285.35 58.9308 285.26C58.8208 285.17 59.1608 284.48 59.7108 283.69C60.2608 282.9 60.8008 282.33 60.9208 282.42Z" fill="#263238"/>
<path d="M66.6997 292.471C66.7597 292.611 66.0197 293.041 65.0497 293.471C64.0797 293.901 63.2497 294.081 63.1997 293.941C63.1497 293.801 63.8797 293.381 64.8497 292.941C65.8197 292.501 66.6497 292.341 66.6997 292.471Z" fill="#263238"/>
<path d="M70.2207 302.82C69.5727 303.36 68.7861 303.706 67.9507 303.82C67.1502 304.09 66.2886 304.121 65.4707 303.91C66.229 303.612 67.022 303.41 67.8307 303.31C68.6017 303.04 69.4056 302.875 70.2207 302.82Z" fill="#263238"/>
<path d="M54.0991 299.881C53.9591 299.831 54.0991 299.121 54.3191 298.281C54.5391 297.441 54.9091 296.801 55.0491 296.841C55.1891 296.881 55.0491 297.601 54.8191 298.441C54.5891 299.281 54.2291 299.921 54.0991 299.881Z" fill="#263238"/>
<path d="M56.3497 312.861C56.2097 312.811 56.4997 311.861 56.9897 310.711C57.4797 309.561 57.9897 308.711 58.1197 308.771C58.2497 308.831 57.9697 309.771 57.4697 310.921C56.9697 312.071 56.4797 312.921 56.3497 312.861Z" fill="#263238"/>
<path d="M50.7893 316.42C50.7293 316.56 49.7893 316.31 48.7293 315.97C47.6693 315.63 46.7293 315.31 46.7793 315.16C47.4968 315.063 48.2273 315.167 48.8893 315.46C49.9993 315.81 50.8493 316.29 50.7893 316.42Z" fill="#263238"/>
<path d="M54.0002 327C54.0902 327.12 53.4702 327.7 52.6302 328.3C51.7902 328.9 51.0402 329.3 50.9602 329.17C50.8802 329.04 51.4902 328.47 52.3302 327.87C53.1702 327.27 53.9102 326.89 54.0002 327Z" fill="#263238"/>
<path d="M56.5597 337.561C56.5597 337.701 55.8397 338.011 54.8697 338.251C53.8997 338.491 53.0797 338.561 53.0497 338.421C53.0197 338.281 53.7697 337.971 54.7397 337.731C55.7097 337.491 56.5297 337.421 56.5597 337.561Z" fill="#263238"/>
<path d="M70.5006 311.631C70.5706 311.761 69.9206 312.271 68.9806 312.631C68.0406 312.991 67.2106 313.021 67.1806 312.881C67.1506 312.741 67.9006 312.471 68.7906 312.131C69.6806 311.791 70.4206 311.511 70.5006 311.631Z" fill="#263238"/>
<path d="M72.4896 328.06C72.4296 328.19 71.6596 327.96 70.7596 327.54C69.8596 327.12 69.1996 326.67 69.2596 326.54C69.3196 326.41 70.0996 326.64 70.9896 327.06C71.8796 327.48 72.5496 327.93 72.4896 328.06Z" fill="#263238"/>
<path d="M76.0006 339.811C75.2082 339.777 74.4329 339.569 73.7306 339.201C72.5206 338.731 71.5906 338.201 71.6406 338.101C72.4361 338.134 73.2145 338.343 73.9206 338.711C75.1206 339.181 76.0606 339.671 76.0006 339.811Z" fill="#263238"/>
<path d="M57.1209 349C57.0509 348.87 57.9909 348.23 59.1209 347.38C60.2509 346.53 61.0509 345.77 61.1209 345.87C61.1909 345.97 60.5409 346.87 59.4109 347.79C58.7734 348.397 57.981 348.815 57.1209 349Z" fill="#263238"/>
<path d="M66.4203 343.001C66.2703 343.001 66.0703 342.231 65.7103 341.311C65.3503 340.391 64.9703 339.671 65.1003 339.581C65.2303 339.491 65.8203 340.131 66.2003 341.121C66.5803 342.111 66.5603 343.001 66.4203 343.001Z" fill="#263238"/>
<path d="M63.9997 328.91C63.9197 329.02 63.3197 328.74 62.6597 328.27C61.9997 327.8 61.5397 327.32 61.6597 327.2C61.7797 327.08 62.3397 327.37 62.9997 327.84C63.6597 328.31 63.9997 328.79 63.9997 328.91Z" fill="#263238"/>
<path d="M85.6107 306.76C85.7007 306.87 85.1207 307.45 84.3107 308.05C83.5007 308.65 82.7807 309.05 82.6907 308.91C82.6007 308.77 83.1907 308.22 84.0007 307.62C84.8107 307.02 85.5307 306.64 85.6107 306.76Z" fill="#263238"/>
<path d="M88.8803 315.68C88.8803 315.82 87.9803 316.01 86.8803 315.89C85.7803 315.77 84.8803 315.39 84.9403 315.25C85.0003 315.11 85.8603 315.25 86.9403 315.37C88.0203 315.49 88.8703 315.53 88.8803 315.68Z" fill="#263238"/>
<path d="M74.8494 317.681C74.8494 317.821 74.0295 318.121 72.9395 318.201C71.8495 318.281 70.9395 318.081 70.9395 317.941C70.9395 317.801 71.8195 317.741 72.8695 317.671C73.9195 317.601 74.8194 317.541 74.8494 317.681Z" fill="#263238"/>
<path d="M76.0491 309.24C76.0491 309.38 75.1791 309.41 74.2491 308.97C73.3191 308.53 72.7691 307.88 72.8691 307.78C72.9691 307.68 73.6091 308.11 74.4691 308.49C75.3291 308.87 76.0691 309.1 76.0491 309.24Z" fill="#263238"/>
<path d="M90.0801 325.26C90.0101 325.39 89.0801 324.97 88.0801 324.34C87.0801 323.71 86.3301 323.1 86.4101 322.97C86.4901 322.84 87.4101 323.26 88.4101 323.89C89.4101 324.52 90.1601 325.14 90.0801 325.26Z" fill="#263238"/>
<path d="M124.329 350.311H49.459V363.581H124.329V350.311Z" fill="#FF6D38"/>
<path d="M55.0508 360.94L64.1508 400.6H108.771L118.731 360.94H55.0508Z" fill="#FF6D38"/>
<path d="M124.28 363.59C124.28 363.74 107.4 363.86 86.5696 363.86C65.7396 363.86 48.8496 363.74 48.8496 363.59C48.8496 363.44 65.7296 363.33 86.5696 363.33C107.41 363.33 124.28 363.45 124.28 363.59Z" fill="#263238"/>
<path d="M82.6509 318C82.5209 318.08 82.0109 317.48 81.5009 316.67C80.9909 315.86 80.6809 315.14 80.8109 315.06C80.9409 314.98 81.4409 315.58 81.9509 316.39C82.4609 317.2 82.7709 317.9 82.6509 318Z" fill="#263238"/>
<path d="M82.67 328.65C82.6402 327.961 82.7775 327.275 83.07 326.65C83.42 325.59 83.82 324.76 83.96 324.8C84.1 324.84 83.96 325.8 83.57 326.8C83.18 327.8 82.81 328.69 82.67 328.65Z" fill="#263238"/>
<path d="M86.3308 339.861C86.2008 339.921 85.6408 339.021 85.0808 337.861C84.6632 337.182 84.3971 336.422 84.3008 335.631C84.4408 335.561 84.9908 336.461 85.5508 337.631C85.9695 338.309 86.2357 339.07 86.3308 339.861Z" fill="#263238"/>
<path d="M78.4209 348.87C78.3109 348.78 78.7609 348.08 79.4209 347.32C80.0809 346.56 80.7008 346.02 80.8108 346.12C80.9208 346.22 80.4808 346.91 79.8108 347.67C79.1408 348.43 78.5309 349 78.4209 348.87Z" fill="#263238"/>
<path d="M76.7593 332.5C76.7593 332.64 76.0193 332.64 75.1493 332.5C74.2793 332.36 73.6093 332.11 73.6293 331.97C73.6493 331.83 74.3793 331.83 75.2393 331.97C76.0993 332.11 76.7893 332.36 76.7593 332.5Z" fill="#263238"/>
<path d="M414.1 155.25C414.1 155.25 414.05 155.44 413.94 155.79C413.83 156.14 413.64 156.68 413.41 157.36C412.94 158.74 412.26 160.77 411.32 163.36C409.47 168.57 406.72 176.08 403.06 185.27C395.72 203.6 384.88 228.78 369.52 254.77C365.858 261.117 362.654 267.717 359.93 274.52C357.475 280.886 355.757 287.513 354.81 294.27C353.969 300.386 353.612 306.558 353.74 312.73C353.84 318.53 354.22 323.93 354.74 328.84C355.81 338.65 357.24 346.53 358.16 351.97C358.64 354.68 359.01 356.79 359.27 358.24C359.39 358.94 359.48 359.48 359.55 359.87C359.62 360.26 359.63 360.43 359.63 360.43C359.576 360.249 359.532 360.066 359.5 359.88C359.42 359.5 359.31 358.96 359.17 358.26C358.89 356.81 358.48 354.71 357.96 352.01C356.96 346.57 355.49 338.71 354.37 328.88C353.79 323.97 353.37 318.56 353.27 312.74C353.113 306.543 353.447 300.344 354.27 294.2C355.204 287.404 356.922 280.74 359.39 274.34C362.112 267.507 365.324 260.88 369 254.51C384.35 228.51 395.22 203.42 402.65 185.13C406.35 175.97 409.15 168.48 411.06 163.29C412 160.71 412.74 158.7 413.24 157.29L413.82 155.73C414 155.42 414.1 155.25 414.1 155.25Z" fill="#263238"/>
<path d="M400.13 242.101C400.13 242.101 400.13 242.181 400.02 242.321L399.64 242.941L398.14 245.291C396.84 247.341 394.91 250.291 392.51 253.871C387.74 261.101 380.97 270.971 374.16 282.281C370.77 287.961 367.77 293.491 365.23 298.611L363.41 302.381C362.83 303.601 362.32 304.811 361.8 305.971C360.74 308.281 359.89 310.501 359.07 312.501C358.25 314.501 357.63 316.361 357.02 317.971C356.41 319.581 355.96 320.971 355.58 322.131C355.2 323.291 354.91 324.131 354.69 324.781C354.6 325.051 354.52 325.281 354.45 325.461C354.425 325.541 354.392 325.618 354.35 325.691C354.339 325.611 354.339 325.53 354.35 325.451C354.4 325.261 354.47 325.031 354.54 324.751C354.74 324.091 355 323.201 355.34 322.071C355.68 320.941 356.11 319.491 356.69 317.871C357.27 316.251 357.86 314.371 358.69 312.371C359.52 310.371 360.32 308.121 361.37 305.801C361.88 304.631 362.37 303.411 362.96 302.181C363.55 300.951 364.14 299.691 364.76 298.401C367.28 293.251 370.28 287.701 373.67 282.021C380.49 270.681 387.32 260.841 392.17 253.671L397.93 245.181L399.51 242.881L399.93 242.291C399.993 242.223 400.06 242.16 400.13 242.101Z" fill="#263238"/>
<path d="M428.631 263.54C423.401 252.32 410.001 245 397.631 246C400.381 247.11 402.081 250 402.761 252.84C403.441 255.68 403.321 258.72 403.561 261.67C404.671 275.84 413.791 287.94 422.561 299.13C428.721 307 434.911 314.91 442.271 321.66C441.361 301.5 440.091 280.15 428.631 263.54Z" fill="#455A64"/>
<path d="M397.631 246.161C405.461 240.161 415.581 237.631 425.461 237.521C435.341 237.411 445.111 239.521 454.701 241.981C460.451 243.441 466.301 245.061 471.221 248.381C476.141 251.701 480.061 257.061 480.161 262.991C472.031 254.061 458.931 252.341 447.341 248.991C439.481 246.711 431.901 243.441 423.881 241.771C415.861 240.101 404.721 242.081 397.631 246.181" fill="#455A64"/>
<path d="M399 244.56C395.56 240.96 397.46 232.56 400.45 228.56C403.44 224.56 408.19 222.35 412.88 220.69C419.058 218.491 425.466 216.998 431.98 216.24C431.166 220.33 429.063 224.052 425.98 226.86C422.898 229.631 419.529 232.065 415.93 234.12L399 244.56Z" fill="#455A64"/>
<path d="M366.76 239.721C357 244.001 349.34 252.051 342 259.871C352.881 257.219 363.29 252.908 372.86 247.091C376.65 244.781 380.42 242.191 384.76 241.221C389.1 240.251 393.98 242.221 397.6 245.221C391.49 236.141 376.57 235.421 366.76 239.721Z" fill="#455A64"/>
<path d="M232.57 235.64C220.37 251.17 216.31 271.9 217.68 291.64C224.942 265.338 240.055 241.878 261 224.39C269 217.78 279.12 212.54 289 212.54C268.66 210.74 245.15 219.63 232.57 235.64Z" fill="#455A64"/>
<path d="M260.891 204.46C254.091 204.96 247.891 208.41 242.241 212.27C233.631 218.18 225.561 225.64 221.801 235.38C229.419 226.41 239.132 219.456 250.079 215.136C261.026 210.815 272.87 209.261 284.561 210.61C277.151 206.92 269.151 203.86 260.891 204.46Z" fill="#455A64"/>
<path d="M280 181.15C276.06 183.88 273 188.37 273.24 193.15C273.518 196.457 274.894 199.576 277.15 202.01C279.642 204.891 282.405 207.527 285.4 209.88C287.9 198.82 290.9 187.26 293.4 176.19C288.66 177.16 283.9 178.41 280 181.15Z" fill="#455A64"/>
<path d="M303 180.08C297.68 183.5 292.93 188.08 290.34 193.85C287.75 199.62 286.67 206.9 289.94 212.31C299.273 198.344 309.347 184.888 320.12 172C314.24 174.32 308.32 176.67 303 180.08Z" fill="#455A64"/>
<path d="M322.55 199.09C316.421 198.658 310.278 199.72 304.649 202.187C299.021 204.653 294.076 208.45 290.24 213.25C295.595 210.534 301.615 209.406 307.59 210C322.593 211.942 337.478 214.699 352.18 218.26C349.16 212.907 344.886 208.366 339.726 205.027C334.565 201.688 328.671 199.651 322.55 199.09Z" fill="#455A64"/>
<path d="M414 155.25C414.36 151.71 410.54 148.19 407.2 146.95C403.86 145.71 400.2 146.11 396.69 146.88C376.56 151.35 359.92 168.72 356.33 189.02C365.624 184.421 375.184 180.38 384.96 176.92L383.31 177.39C388.042 176.434 392.512 174.465 396.41 171.616C400.308 168.768 403.542 165.108 405.89 160.89C406.644 159.2 407.656 157.638 408.89 156.26C410.24 154.99 412.37 154.31 413.97 155.26" fill="#455A64"/>
<path d="M414 155.21C423.249 148.828 434.612 146.28 445.7 148.1C451.178 149.074 456.373 151.242 460.919 154.449C465.464 157.657 469.248 161.826 472 166.66C477.32 176.41 477.58 188.89 472.16 198.58C467.03 187.94 461.55 176.85 452.01 169.88C449.78 168.24 447.25 166.75 446.01 164.29C444.55 161.43 445.15 157.9 443.9 154.94C442.37 151.3 438.13 150.24 434.18 150.04C430.23 149.84 418.79 153.46 413.98 155.21" fill="#455A64"/>
<path d="M413.73 155C423.21 152.19 433.92 156.82 440.37 163.92C446.82 171.02 450.1 180.55 451.21 190.08C452.32 199.61 451.43 209.24 450.46 218.79C443.039 207.722 437.523 195.49 434.14 182.6C432.62 176.78 431.51 170.77 428.77 165.42C426.03 160.07 419.68 155.87 413.77 155" fill="#455A64"/>
<path d="M413.41 155.25C420.99 151.74 425.25 143.83 426.23 135.54C426.677 131.376 426.071 127.167 424.467 123.299C422.863 119.43 420.313 116.027 417.05 113.4C413.323 116.906 410.676 121.406 409.423 126.367C408.17 131.329 408.364 136.545 409.98 141.4C411.58 145.96 414.5 150.53 413.41 155.24" fill="#455A64"/>
<path d="M353.479 311.081C353.479 311.081 353.429 310.991 353.349 310.791L353.019 309.921C352.719 309.151 352.349 308.001 351.759 306.551C350.659 303.641 348.909 299.471 346.529 294.431C340.201 281.348 332.988 268.711 324.939 256.611C317.052 244.401 308.31 232.765 298.779 221.791C295.901 218.459 292.761 215.362 289.389 212.531C288.462 211.779 287.483 211.094 286.459 210.481L285.639 210.061C285.539 210.016 285.445 209.959 285.359 209.891L285.659 210.011L286.509 210.391C287.563 210.974 288.566 211.642 289.509 212.391C292.94 215.168 296.128 218.233 299.039 221.551C306.569 229.821 316.039 242.091 325.369 256.331C333.433 268.448 340.611 281.131 346.849 294.281C349.189 299.361 350.849 303.551 351.939 306.491C352.499 307.951 352.839 309.121 353.109 309.891C353.229 310.261 353.319 310.561 353.389 310.781C353.429 310.878 353.459 310.978 353.479 311.081Z" fill="#263238"/>
<path d="M380.311 401.52H328.561L320.301 335.46H389.761L380.311 401.52Z" fill="#FF6D38"/>
<path d="M362.15 303.89C367.63 291.3 365.32 276.02 372.29 264.18C377.62 255.12 387.48 249.73 397.29 245.91C399.57 252.74 398.49 260.35 395.6 266.91C392.71 273.47 388.15 279.21 383.32 284.54C376.65 291.92 369.39 298.74 362.15 305.54" fill="#455A64"/>
<path d="M392.949 335.46H315.539V348.95H392.949V335.46Z" fill="#FF6D38"/>
<path d="M393 349C393 349.14 375.67 349.26 354.3 349.26C332.93 349.26 315.59 349.14 315.59 349C315.59 348.86 332.92 348.74 354.3 348.74C375.68 348.74 393 348.81 393 349Z" fill="#263238"/>
<path d="M417.521 155.781C414.955 150.993 411.941 146.46 408.521 142.241C404.961 138.141 400.521 134.661 395.291 133.141C388.291 131.141 380.821 132.711 373.861 134.791C365.711 137.21 357.756 140.239 350.061 143.851C360.227 147.682 371.405 147.879 381.701 144.411C387.021 142.601 392.191 142.831 397.781 143.471C404.591 144.241 413.111 150.541 417.521 155.781Z" fill="#455A64"/>
<path d="M291.65 212.311C280.16 212.941 270.1 221.791 266.09 232.571C262.08 243.351 263.45 255.571 267.79 266.261C272.13 276.951 279.23 286.261 286.74 294.931C290.52 281.931 294.31 268.931 295.97 255.511C297.63 242.091 296.37 225.001 291.65 212.311Z" fill="#455A64"/>
<path d="M268.32 389.12L239.85 412.06L227.42 416C222.7 417.47 224.79 421 226.26 425.73L244.26 483.29C244.26 483.29 250.89 484.2 251.36 479.39C251.83 474.58 259.54 436.85 259.54 436.85L287.13 417.41L268.32 389.12Z" fill="#E0E0E0"/>
<path d="M269.15 385.099L262.4 391.229C261.901 391.682 261.588 392.304 261.521 392.975C261.455 393.646 261.639 394.317 262.04 394.859L280.8 420.319C281.199 420.861 281.785 421.236 282.444 421.371C283.104 421.505 283.79 421.391 284.37 421.049L292.01 416.549C292.336 416.357 292.619 416.098 292.839 415.79C293.06 415.482 293.214 415.132 293.291 414.761C293.368 414.39 293.367 414.007 293.288 413.636C293.208 413.266 293.052 412.916 292.83 412.609L273.18 385.519C272.956 385.21 272.669 384.951 272.338 384.759C272.007 384.568 271.639 384.449 271.259 384.409C270.878 384.37 270.494 384.411 270.131 384.529C269.767 384.648 269.433 384.843 269.15 385.099Z" fill="#E0E0E0"/>
<path d="M281.47 421.339C280.25 420.247 279.126 419.053 278.11 417.769C276.11 415.489 273.45 412.259 270.7 408.549C267.95 404.839 265.65 401.319 264.1 398.719C263.32 397.419 262.71 396.359 262.32 395.599C262.073 395.231 261.888 394.826 261.77 394.399C262.769 395.678 263.694 397.014 264.54 398.399C266.21 400.919 268.54 404.399 271.3 408.059C274.06 411.719 276.63 415.059 278.51 417.389C279.585 418.637 280.574 419.957 281.47 421.339Z" fill="#263238"/>
<path d="M264.999 397.85C264.829 397.8 266.339 394.71 269.779 392.49C273.219 390.27 276.639 390.08 276.619 390.27C276.599 390.46 273.439 390.95 270.189 393.11C266.939 395.27 265.169 398 264.999 397.85Z" fill="#263238"/>
<path d="M270.688 408.07C270.558 407.92 273.038 405.55 276.408 403C279.778 400.45 282.718 398.68 282.828 398.85C282.938 399.02 280.198 401.04 276.828 403.59C273.458 406.14 270.828 408.23 270.688 408.07Z" fill="#263238"/>
<path d="M279.248 417.489C279.148 417.279 282.388 416.259 285.128 413.299C287.868 410.339 288.738 407.089 288.958 407.169C288.97 407.913 288.809 408.649 288.488 409.319C287.197 412.683 284.636 415.404 281.358 416.899C280.715 417.268 279.99 417.47 279.248 417.489Z" fill="#263238"/>
<path d="M227.9 429.74C227.85 429.63 228.9 429.17 230.42 428.09C232.372 426.697 233.999 424.9 235.19 422.82C236.354 420.726 237.056 418.407 237.25 416.02C237.4 414.19 237.25 413.02 237.37 413.02C237.721 413.978 237.857 415.002 237.77 416.02C237.729 418.524 237.061 420.978 235.828 423.158C234.595 425.338 232.835 427.174 230.71 428.5C229.879 429.12 228.918 429.544 227.9 429.74Z" fill="#263238"/>
<path d="M238.939 466.249C239.478 465.698 240.144 465.29 240.879 465.059C242.612 464.341 244.517 464.147 246.359 464.499C248.157 464.877 249.859 465.619 251.359 466.679C252.509 467.489 253.119 468.109 253.059 468.179C252.352 467.913 251.68 467.561 251.059 467.129C249.536 466.242 247.883 465.601 246.159 465.229C244.435 464.92 242.662 465.03 240.989 465.549C240.328 465.842 239.642 466.076 238.939 466.249Z" fill="#263238"/>
<path d="M176.609 334.289C169.789 338.669 163.829 343.199 159.909 348.119C159.909 348.119 102.619 319.069 85.5592 335.819C68.4992 352.569 76.4192 368.349 83.3092 378.539C94.8392 395.599 204.309 433.849 204.309 433.849L220.799 409.399L206.059 400.739L223.319 402.459V335.999L176.609 334.289Z" fill="#263238"/>
<g opacity="0.3">
<path d="M196.86 367.45C191.11 361.5 184.39 356.57 177.72 351.68C175.963 350.232 173.976 349.089 171.84 348.3C170.612 347.995 169.333 347.964 168.092 348.21C166.851 348.455 165.679 348.971 164.66 349.72C168.56 351.54 172.93 353.03 176.66 355.16C184.055 359.427 190.777 364.765 196.61 371C201.61 376.27 205.61 382.38 209.52 388.46C207.41 380.5 202.61 373.4 196.86 367.45Z" fill="black"/>
</g>
<path d="M322.47 328.76C322.47 328.76 359.3 309.35 373.7 332C389.06 356.17 366.07 379.29 334.99 396.2C319.1 404.84 267.71 433.85 267.71 433.85L249.29 400.85L223.29 402.41L220 337L275.69 335L292.69 343.74L322.47 328.76Z" fill="#263238"/>
<g opacity="0.3">
<path d="M280.51 337.929C280.022 337.445 279.421 337.089 278.761 336.893C278.101 336.698 277.403 336.669 276.73 336.809C275.39 337.104 274.113 337.636 272.96 338.379C269.73 340.209 266.57 342.179 263.49 344.259C254.49 350.359 246.01 357.599 235.7 361.009C221.9 365.589 209.52 361.379 196.34 356.929C204.67 363.149 214.52 367.559 224.88 368.469C235.24 369.379 246.07 366.569 254.01 359.869C259.56 355.189 264.01 348.549 270.96 346.549C272.63 346.069 274.38 345.879 276.06 345.419C277.777 345.049 279.32 344.112 280.44 342.759C280.976 342.072 281.274 341.228 281.286 340.356C281.299 339.484 281.026 338.632 280.51 337.929Z" fill="black"/>
</g>
<path d="M214.929 401.71C214.788 401.478 214.667 401.234 214.569 400.98C214.349 400.45 214.039 399.73 213.649 398.84C213.259 397.95 212.779 396.76 212.229 395.46C211.679 394.16 210.879 392.71 210.099 391.09C205.908 382.681 200.402 374.995 193.789 368.32C187.117 361.712 179.331 356.333 170.789 352.43C167.529 350.9 164.789 349.91 162.889 349.2L160.699 348.42C160.438 348.341 160.184 348.241 159.939 348.12C160.209 348.16 160.474 348.227 160.729 348.32C161.239 348.48 161.989 348.69 162.949 349.01C165.666 349.905 168.336 350.936 170.949 352.1C179.592 355.939 187.458 361.328 194.159 368C200.813 374.716 206.308 382.488 210.419 391C211.189 392.64 211.959 394.09 212.499 395.42C213.039 396.75 213.499 397.89 213.839 398.85L214.669 401.02C214.777 401.242 214.864 401.473 214.929 401.71Z" fill="#455A64"/>
<path d="M210.899 440.06C210.899 440.06 210.899 439.86 211.089 439.48L211.719 437.82C212.299 436.35 213.129 434.22 214.179 431.52C216.329 426.06 219.409 418.28 223.119 408.88L223.249 409.16C216.797 406.692 210.59 403.625 204.709 400C198.027 395.791 191.693 391.052 185.769 385.83C177.619 378.83 170.349 371.58 162.989 365.9C159.542 363.169 155.787 360.853 151.799 359C148.291 357.465 144.645 356.27 140.909 355.43C135.483 354.255 129.984 353.443 124.449 353L119.939 352.59L118.759 352.48L118.369 352.42H118.769L119.949 352.48L124.469 352.79C130.027 353.165 135.55 353.933 140.999 355.09C144.77 355.913 148.453 357.095 151.999 358.62C156.022 360.467 159.815 362.779 163.299 365.51C170.709 371.2 177.999 378.42 186.129 385.42C192.038 390.625 198.347 395.356 204.999 399.57C210.846 403.195 217.016 406.271 223.429 408.76L223.629 408.84L223.549 409.04C219.759 418.41 216.629 426.17 214.439 431.61L211.869 437.87C211.579 438.57 211.349 439.11 211.179 439.51C211.096 439.698 211.003 439.882 210.899 440.06Z" fill="#455A64"/>
<path d="M267.71 433.849C267.71 433.849 267.71 433.849 267.61 433.709L267.34 433.269L266.34 431.519L262.54 424.849L249.09 400.999L249.02 400.859L249.12 400.739C257.523 391.26 266.603 382.403 276.29 374.239C289.944 362.688 304.795 352.631 320.59 344.239C322.09 343.409 323.59 342.729 324.94 342.019C326.29 341.309 327.61 340.649 328.86 340.099C331.34 338.969 333.45 337.949 335.22 337.209L339.29 335.509L340.35 335.079L340.72 334.949C340.611 335.024 340.494 335.085 340.37 335.129L339.37 335.609L335.37 337.399C333.61 338.169 331.52 339.209 329.06 340.399C327.82 340.969 326.54 341.669 325.16 342.399C323.78 343.129 322.32 343.809 320.83 344.649C305.122 353.102 290.33 363.155 276.69 374.649C267.028 382.805 257.953 391.63 249.53 401.059V400.799L262.8 424.739L266.49 431.459L267.49 433.239C267.58 433.429 267.66 433.579 267.72 433.699C267.78 433.819 267.72 433.849 267.71 433.849Z" fill="#455A64"/>
<path d="M244.389 391.55C244.472 391.326 244.572 391.109 244.689 390.9L245.609 389.08C246.009 388.29 246.519 387.33 247.169 386.24C247.819 385.15 248.489 383.89 249.369 382.57C250.249 381.25 251.159 379.76 252.249 378.24C253.339 376.72 254.529 375.12 255.809 373.45C261.46 366.282 267.999 359.86 275.269 354.34C276.959 353.1 278.549 351.89 280.119 350.87C281.689 349.85 283.119 348.87 284.489 348.07C285.859 347.27 287.109 346.55 288.209 345.93C289.309 345.31 290.269 344.81 291.069 344.43L292.909 343.53C293.118 343.421 293.335 343.327 293.559 343.25C293.374 343.399 293.173 343.527 292.959 343.63L291.159 344.63C290.379 345.04 289.429 345.55 288.349 346.2C287.269 346.85 286.009 347.53 284.689 348.4C283.369 349.27 281.879 350.17 280.359 351.25C278.839 352.33 277.229 353.49 275.559 354.74C268.355 360.267 261.847 366.647 256.179 373.74C254.899 375.4 253.659 376.95 252.609 378.48C251.559 380.01 250.549 381.43 249.679 382.76C248.809 384.09 248.079 385.31 247.419 386.38C246.759 387.45 246.219 388.38 245.789 389.17L244.789 390.94C244.678 391.157 244.544 391.362 244.389 391.55Z" fill="#455A64"/>
<path d="M210 383.939C209.721 383.633 209.477 383.298 209.27 382.939L207.43 380.159C205.87 377.809 203.68 374.599 201.14 371.159C198.6 367.719 196.14 364.649 194.41 362.459L192.31 359.859C192.029 359.558 191.787 359.222 191.59 358.859C191.912 359.115 192.207 359.403 192.47 359.719C193.01 360.289 193.77 361.139 194.69 362.209C196.54 364.349 199 367.369 201.56 370.849C204.12 374.329 206.25 377.579 207.74 379.979C208.48 381.179 209.06 382.159 209.45 382.849C209.671 383.192 209.855 383.558 210 383.939Z" fill="#455A64"/>
<path d="M203 397L236 415.48L249.34 417.3C254.41 417.99 252.89 421.96 252.2 427.03L243.78 488.8C243.78 488.8 237.18 490.87 235.86 486.05C234.54 481.23 220.19 444.05 220.19 444.05L188.68 429L203 397Z" fill="#EBEBEB"/>
<path d="M201.45 393.05L209.38 398.13C209.969 398.504 210.397 399.084 210.582 399.757C210.767 400.43 210.695 401.147 210.38 401.77L195.64 431C195.327 431.623 194.793 432.107 194.142 432.359C193.492 432.61 192.771 432.61 192.12 432.36L183.56 429.09C183.194 428.95 182.861 428.735 182.583 428.458C182.305 428.182 182.087 427.85 181.945 427.484C181.803 427.119 181.739 426.728 181.757 426.336C181.775 425.944 181.875 425.561 182.05 425.21L197.41 394.21C197.583 393.853 197.829 393.536 198.132 393.28C198.435 393.025 198.789 392.836 199.171 392.727C199.552 392.617 199.952 392.589 200.345 392.645C200.738 392.701 201.114 392.839 201.45 393.05Z" fill="#EBEBEB"/>
<path d="M195.129 432.12C196.183 430.795 197.123 429.383 197.939 427.9C199.569 425.23 201.739 421.48 203.939 417.22C206.139 412.96 207.839 408.98 208.939 406.06C209.499 404.6 209.939 403.41 210.209 402.58C210.394 402.161 210.512 401.715 210.559 401.26C209.76 402.747 209.049 404.28 208.429 405.85C207.169 408.71 205.369 412.62 203.209 416.85C201.049 421.08 198.969 424.85 197.459 427.61C196.578 429.057 195.8 430.564 195.129 432.12Z" fill="#263238"/>
<path d="M207.889 405.329C208.059 405.249 205.989 402.329 202.089 400.689C198.189 399.049 194.689 399.419 194.749 399.599C194.809 399.779 198.099 399.749 201.749 401.389C205.399 403.029 207.719 405.499 207.889 405.329Z" fill="#263238"/>
<path d="M203.829 416.73C203.939 416.56 200.999 414.57 197.129 412.54C193.259 410.51 189.949 409.23 189.869 409.42C189.789 409.61 192.929 411.21 196.779 413.22C200.629 415.23 203.719 416.92 203.829 416.73Z" fill="#263238"/>
<path d="M196.729 427.809C196.789 427.569 193.309 427.099 190.009 424.549C186.709 421.999 185.269 418.839 185.059 418.959C185.162 419.721 185.45 420.445 185.899 421.069C187.798 424.275 190.878 426.609 194.479 427.569C195.199 427.827 195.97 427.909 196.729 427.809Z" fill="#263238"/>
<path d="M251.18 431.459C251.18 431.329 250.05 431.039 248.33 430.209C246.107 429.126 244.148 427.567 242.593 425.644C241.038 423.721 239.924 421.48 239.33 419.079C238.86 417.229 238.82 416.029 238.69 416.029C238.502 417.082 238.54 418.162 238.8 419.199C239.273 421.745 240.377 424.131 242.01 426.14C243.643 428.149 245.754 429.717 248.15 430.699C249.094 431.166 250.127 431.425 251.18 431.459Z" fill="#263238"/>
<path d="M246.219 470.57C245.573 470.107 244.826 469.805 244.039 469.69C242.15 469.265 240.178 469.394 238.359 470.06C236.574 470.755 234.95 471.811 233.589 473.16C232.589 474.16 232.049 474.92 232.119 474.98C232.189 475.04 232.859 474.46 233.949 473.57C235.349 472.401 236.925 471.463 238.619 470.79C240.323 470.17 242.153 469.974 243.949 470.22C244.694 470.405 245.454 470.522 246.219 470.57Z" fill="#263238"/>
<path d="M156.799 237.47C156.799 237.47 162.679 216.77 171.949 211.8C181.219 206.83 203.059 203 203.059 203L248.849 200C248.849 200 276.399 198.86 287.149 210.13C296.469 219.91 302.619 244.52 302.619 244.52L251.359 269.39L169.299 301.29L154.689 280.58L156.799 237.47Z" fill="#D79581"/>
<path d="M158.09 232C158.09 232 176.95 274.47 187.33 279C215.84 291.58 269 224.2 269 224.2C269 224.2 286.17 207.33 286.48 208.25C286.79 209.17 297.21 214.69 301.2 226.04C305.19 237.39 313.2 265.28 313.2 265.28L283.35 269.28L269.4 340.42C238 366.79 206.41 377.29 174 336L170 338.82C168.32 336.82 172.27 335.25 172.78 332.67L182.14 315L164.22 269.69L148.27 265.69L158.09 232Z" fill="#FF6D38"/>
<g opacity="0.3">
<path d="M280.31 261.08C278.41 256.24 276.61 252.08 276.78 246.89L276.57 244.34C276.23 252.77 274.92 262.77 273.85 271.13C276.41 272.83 279.21 275.13 281.78 276.81C284.63 264.65 282.2 265.92 280.31 261.08Z" fill="black"/>
</g>
<g opacity="0.3">
<path d="M263.649 339.37C261.499 333.32 259.289 327.15 255.329 322.1C252.083 318.213 248.23 314.877 243.919 312.22C238.862 308.716 233.293 306.017 227.409 304.22C217.199 301.36 206.059 302.62 196.309 306.81C189.869 309.58 185.309 313.47 180.309 318.44L178.699 321.44C181.339 323.7 185.289 322.54 188.369 320.93C191.449 319.32 194.369 317.03 197.839 316.74L204.839 322.23C203.889 322.06 203.099 323.14 203.169 324.1C203.352 325.053 203.815 325.931 204.499 326.62C211.909 335.62 219.979 345.01 231.119 348.35C240.809 351.26 251.279 349.04 260.849 345.78C262.045 345.503 263.106 344.817 263.849 343.84C264.659 342.5 264.159 340.82 263.649 339.37Z" fill="black"/>
</g>
<path d="M218.86 110.66C222.18 107.23 221.73 101.24 218.62 97.6597C215.51 94.0797 210.4 92.6597 205.62 92.9897C202.171 93.2882 198.841 94.3966 195.901 96.2245C192.96 98.0525 190.493 100.549 188.7 103.51C186.8 106.72 185.57 110.6 182.43 112.62C179.67 114.39 176.12 114.25 173.05 115.42C168.95 116.99 166.05 120.87 164.75 125.08C163.45 129.29 163.6 133.78 164.12 138.15C164.6 142.15 165.32 146.5 163.31 150C161.3 153.5 157.31 155 154.51 157.75C149.24 162.95 149.51 172.62 154.95 177.57C156.71 179.15 158.95 180.44 159.69 182.69C160.33 184.75 159.42 186.94 159.27 189.08C158.88 194.62 164.56 199.71 170.02 198.73C172.77 198.23 175.43 196.47 178.16 197.1C180.89 197.73 182.47 200.42 184.55 202.27C186.656 204.03 189.301 205.014 192.045 205.06C194.79 205.105 197.466 204.209 199.63 202.52C201.39 201.05 202.89 198.98 205.15 198.6C207.41 198.22 209.6 199.68 211.88 199.6C214.88 199.47 217.08 196.71 218.21 193.94C219.34 191.17 219.85 188.1 221.56 185.65C223.8 182.43 227.64 180.84 230.95 178.73C234.609 176.396 237.724 173.303 240.084 169.661C242.445 166.019 243.995 161.912 244.63 157.618C245.266 153.325 244.971 148.945 243.767 144.775C242.562 140.606 240.476 136.743 237.65 133.45" fill="#263238"/>
<path d="M189.769 171.81C188.666 171.079 187.404 170.623 186.089 170.48L186.319 170.41C186.085 170.406 185.85 170.423 185.619 170.46C185.177 170.438 184.736 170.506 184.321 170.661C183.907 170.816 183.528 171.053 183.209 171.36C181.943 172.187 181.035 173.462 180.669 174.93C180.408 176.218 180.509 177.553 180.959 178.789C181.409 180.024 182.191 181.111 183.219 181.93C184.004 182.706 185.006 183.227 186.092 183.424C187.179 183.621 188.3 183.484 189.307 183.032C190.315 182.58 191.162 181.833 191.737 180.89C192.312 179.947 192.588 178.852 192.529 177.75C192.607 176.607 192.395 175.463 191.913 174.425C191.43 173.386 190.693 172.487 189.769 171.81Z" fill="#455A64"/>
<path d="M251.44 202.31L237.22 123.65C236.906 122.008 235.988 120.545 234.648 119.547C233.308 118.549 231.642 118.09 229.98 118.26L193.52 116.81C182.19 117.98 177.69 133.18 179.34 144.46C181.17 156.98 183.89 172.2 187.34 181.12C194.2 199.05 208.91 198.41 208.91 198.41L211.2 209L216.48 232L251.44 202.31Z" fill="#D79581"/>
<path d="M187.999 159.32C188.122 159.942 188.484 160.491 189.008 160.85C189.531 161.209 190.174 161.349 190.799 161.24C191.106 161.2 191.402 161.098 191.67 160.942C191.937 160.786 192.171 160.578 192.357 160.33C192.544 160.082 192.678 159.8 192.754 159.5C192.83 159.199 192.845 158.886 192.799 158.58C192.675 157.958 192.313 157.409 191.789 157.05C191.266 156.691 190.624 156.551 189.999 156.66C189.691 156.699 189.394 156.8 189.126 156.955C188.857 157.111 188.623 157.319 188.436 157.567C188.25 157.815 188.115 158.098 188.04 158.399C187.965 158.7 187.951 159.013 187.999 159.32Z" fill="#263238"/>
<path d="M184.279 151.63C184.639 151.88 186.159 150.17 188.719 149.63C191.279 149.09 193.429 149.98 193.639 149.63C193.749 149.46 193.329 148.96 192.379 148.54C191.117 148.005 189.719 147.875 188.379 148.17C187.044 148.455 185.833 149.155 184.919 150.17C184.249 150.91 184.099 151.53 184.279 151.63Z" fill="#263238"/>
<path d="M211.45 153.669C211.576 154.29 211.939 154.836 212.462 155.193C212.985 155.55 213.626 155.688 214.25 155.579C214.558 155.54 214.855 155.44 215.123 155.284C215.391 155.128 215.626 154.92 215.812 154.672C215.998 154.424 216.133 154.141 216.208 153.84C216.284 153.539 216.298 153.226 216.25 152.919C216.124 152.298 215.761 151.751 215.238 151.393C214.716 151.034 214.074 150.893 213.45 150.999C213.142 151.04 212.844 151.141 212.576 151.298C212.308 151.455 212.073 151.664 211.887 151.913C211.701 152.162 211.566 152.445 211.491 152.747C211.416 153.049 211.402 153.362 211.45 153.669Z" fill="#263238"/>
<path d="M209.539 146.81C209.899 147.05 211.419 145.34 213.979 144.81C216.539 144.28 218.689 145.16 218.899 144.81C219.009 144.64 218.589 144.14 217.639 143.72C216.375 143.19 214.979 143.061 213.639 143.35C212.303 143.635 211.092 144.335 210.179 145.35C209.509 146.08 209.359 146.7 209.539 146.81Z" fill="#263238"/>
<path d="M204.249 167.75C204.249 167.6 202.579 167.66 199.939 167.87C199.269 167.94 198.619 167.94 198.419 167.52C198.214 166.869 198.214 166.17 198.419 165.52C198.699 163.813 198.993 162.02 199.299 160.14C200.489 152.49 201.199 146.25 200.899 146.2C200.599 146.15 199.369 152.33 198.179 159.98C197.899 161.86 197.636 163.656 197.389 165.37C197.144 166.246 197.215 167.18 197.589 168.01C197.733 168.219 197.921 168.393 198.141 168.519C198.361 168.646 198.606 168.721 198.859 168.74C199.245 168.762 199.631 168.735 200.009 168.66C202.659 168.22 204.269 167.89 204.249 167.75Z" fill="#263238"/>
<path d="M208.869 198.41C217.631 196.7 225.745 192.591 232.309 186.54C232.309 186.54 228.869 201.08 209.939 203.26L208.869 198.41Z" fill="#A36456"/>
<path d="M205.909 173.75C206.309 172.784 206.937 171.929 207.74 171.26C208.543 170.591 209.497 170.128 210.519 169.91C211.188 169.777 211.88 169.81 212.533 170.005C213.187 170.2 213.783 170.552 214.269 171.03C214.779 171.577 215.124 172.256 215.268 172.989C215.411 173.723 215.346 174.482 215.079 175.18C214.753 175.914 214.213 176.533 213.53 176.955C212.847 177.378 212.052 177.585 211.249 177.55C209.728 177.384 208.27 176.852 206.999 176C206.612 175.818 206.27 175.551 205.999 175.22C205.858 175.034 205.767 174.815 205.737 174.583C205.708 174.351 205.739 174.116 205.829 173.9" fill="#A36456"/>
<path d="M212.159 167.93C211.739 167.99 212.319 170.77 210.349 173.25C208.379 175.73 205.349 176.04 205.429 176.43C205.429 176.61 206.199 176.83 207.429 176.6C209.06 176.278 210.526 175.393 211.569 174.1C212.57 172.855 213.051 171.271 212.909 169.68C212.799 168.5 212.339 167.87 212.159 167.93Z" fill="#263238"/>
<path d="M206.189 136.509C206.579 137.149 209.069 136.279 212.189 136.009C215.309 135.739 217.869 136.009 218.139 135.339C218.249 134.999 217.689 134.439 216.569 133.969C215.089 133.42 213.503 133.215 211.931 133.369C210.36 133.523 208.844 134.033 207.499 134.859C206.449 135.539 205.999 136.199 206.189 136.509Z" fill="#263238"/>
<path d="M183.32 142.64C183.89 143.12 185.53 142.15 187.64 141.64C189.75 141.13 191.64 141.21 191.93 140.51C192.05 140.18 191.64 139.65 190.74 139.27C189.548 138.832 188.252 138.759 187.018 139.06C185.784 139.361 184.667 140.023 183.81 140.96C183.18 141.74 183.06 142.39 183.32 142.64Z" fill="#263238"/>
<path d="M165.999 143.579C166.088 140.58 167.212 137.705 169.179 135.439C170.299 134.249 171.709 133.359 172.709 132.059C174.849 129.269 174.569 125.389 175.489 121.989C176.105 119.8 177.233 117.789 178.781 116.123C180.329 114.457 182.251 113.184 184.389 112.409C187.959 111.159 191.979 111.349 195.319 109.589C197.789 108.299 199.679 106.029 202.219 104.889C207.169 102.649 212.889 105.209 217.549 108.019C218.459 111.729 216.099 114.919 213.819 118.019C212.669 119.553 211.2 120.818 209.513 121.728C207.827 122.638 205.962 123.171 204.049 123.289C201.049 123.449 197.639 122.769 195.549 124.869C193.459 126.969 194.179 130.989 192.369 133.529C189.779 137.159 183.939 135.749 180.079 137.979C177.079 139.699 175.839 143.249 174.329 146.339C172.819 149.429 170.219 152.649 166.789 152.469C166.181 149.547 165.916 146.563 165.999 143.579Z" fill="#263238"/>
<path d="M200.609 117.59C202.869 116.32 207.459 113.59 208.249 111.13C209.979 105.88 214.249 101.56 219.369 100.61C222.053 100.181 224.803 100.631 227.211 101.892C229.618 103.154 231.554 105.159 232.729 107.61C235.92 106.963 239.227 107.188 242.301 108.262C245.376 109.335 248.104 111.217 250.199 113.71C250.746 114.342 251.251 115.01 251.709 115.71C253.071 117.172 254.099 118.914 254.721 120.814C255.342 122.713 255.543 124.725 255.309 126.71C254.999 129.1 254.149 131.89 255.779 133.71C257.409 135.53 260.349 134.9 262.779 135.13C264.907 135.399 266.874 136.405 268.336 137.975C269.798 139.545 270.662 141.578 270.779 143.72C270.779 145.25 270.469 146.88 271.119 148.26C271.769 149.64 273.359 150.47 274.649 151.42C276.256 152.602 277.525 154.186 278.327 156.013C279.129 157.841 279.437 159.846 279.219 161.83C279.001 163.813 278.265 165.705 277.086 167.314C275.907 168.924 274.325 170.195 272.499 171C270.849 171.73 268.959 172.11 267.689 173.39C266.229 174.86 265.979 177.1 265.149 179C264.325 180.812 262.969 182.331 261.262 183.355C259.554 184.378 257.576 184.858 255.589 184.73C254.791 184.653 254.007 184.468 253.259 184.18C252.489 186.07 250.929 187.59 247.829 188.34L238.829 147.64C238.725 148.191 238.488 148.708 238.14 149.147C237.791 149.586 237.341 149.933 236.829 150.16C230.679 153.16 226.499 140.02 227.079 136.04C224.142 134.625 221.394 132.848 218.899 130.75C216.459 128.52 213.139 121.67 212.739 118.32C210.399 119.05 199.619 118.16 200.609 117.59Z" fill="#263238"/>
<path d="M236.809 150.9C236.059 146.9 240.679 144.9 244.579 146.05C246.719 146.69 248.689 148.52 249.519 152.76C251.749 164 239.999 164 239.879 163.63C239.759 163.26 237.689 155.58 236.809 150.9Z" fill="#D79581"/>
<path d="M242.479 158.68C242.479 158.63 242.699 158.78 243.059 158.86C243.567 158.969 244.098 158.876 244.539 158.6C245.649 157.93 246.279 155.84 245.929 153.79C245.771 152.817 245.391 151.893 244.819 151.09C244.646 150.758 244.394 150.473 244.085 150.26C243.777 150.048 243.421 149.914 243.049 149.87C242.809 149.849 242.57 149.916 242.375 150.057C242.181 150.198 242.043 150.405 241.989 150.64C241.899 150.98 241.989 151.19 241.989 151.22C241.989 151.25 241.709 151.08 241.709 150.6C241.715 150.305 241.825 150.022 242.019 149.8C242.276 149.511 242.634 149.332 243.019 149.3C243.501 149.303 243.974 149.428 244.394 149.664C244.813 149.901 245.166 150.24 245.419 150.65C246.087 151.531 246.533 152.56 246.719 153.65C247.099 155.94 246.349 158.29 244.809 159.09C244.524 159.235 244.21 159.316 243.891 159.326C243.571 159.336 243.253 159.276 242.959 159.15C242.549 159 242.439 158.71 242.479 158.68Z" fill="#A36456"/>
<path d="M215.84 111.78C216.816 112.023 217.727 112.477 218.51 113.11C219.99 114.36 221.11 117.18 221.2 120.64V120.94H221.5C223.21 120.983 224.888 121.422 226.401 122.222C227.913 123.022 229.221 124.161 230.22 125.55C230.779 126.335 231.199 127.211 231.46 128.14C231.669 129.127 231.789 130.131 231.82 131.14C231.852 132.243 231.966 133.343 232.16 134.43C232.366 135.613 232.956 136.696 233.84 137.51C235.74 139.29 238.23 139.79 240.39 140.34C242.494 140.723 244.521 141.45 246.39 142.49C249.513 144.361 251.808 147.349 252.81 150.85C253.471 153.217 253.536 155.711 253 158.11C252.63 159.82 252.18 160.7 252.26 160.73C252.402 160.539 252.52 160.33 252.61 160.11C252.897 159.491 253.132 158.848 253.31 158.19C254.152 155.125 253.969 151.87 252.788 148.92C251.607 145.969 249.494 143.486 246.77 141.85C244.843 140.746 242.743 139.975 240.56 139.57C238.4 139.02 236.05 138.5 234.39 136.92C232.74 135.52 232.76 133.17 232.61 131.09C232.572 130.019 232.435 128.955 232.2 127.91C231.911 126.894 231.448 125.936 230.83 125.08C229.756 123.608 228.351 122.41 226.729 121.581C225.106 120.752 223.312 120.317 221.49 120.31L221.79 120.61C221.62 117 220.37 114.1 218.72 112.82C218.114 112.322 217.397 111.979 216.63 111.82C216.37 111.765 216.104 111.752 215.84 111.78Z" fill="#455A64"/>
<path d="M247.659 161.859C246.557 161.127 245.295 160.671 243.979 160.529L244.219 160.459C243.983 160.439 243.745 160.439 243.509 160.459C243.067 160.437 242.625 160.505 242.211 160.66C241.796 160.815 241.418 161.053 241.099 161.359C239.837 162.191 238.931 163.464 238.559 164.929C238.297 166.217 238.396 167.552 238.844 168.787C239.292 170.022 240.073 171.109 241.099 171.929C241.881 172.711 242.883 173.236 243.97 173.436C245.058 173.636 246.18 173.501 247.19 173.049C248.199 172.597 249.047 171.849 249.622 170.905C250.197 169.96 250.471 168.863 250.409 167.759C250.484 166.624 250.272 165.488 249.791 164.456C249.31 163.425 248.577 162.532 247.659 161.859Z" fill="#455A64"/>
<path d="M215.929 230.189C215.788 229.801 215.687 229.399 215.629 228.989C215.449 228.109 215.229 226.989 214.959 225.699C214.409 222.919 213.609 219.089 212.619 214.879C211.629 210.669 210.619 206.879 209.919 204.139C209.569 202.849 209.279 201.759 209.049 200.889C208.921 200.5 208.834 200.097 208.789 199.689C208.982 200.055 209.133 200.44 209.239 200.839C209.509 201.589 209.859 202.679 210.239 204.039C211.069 206.749 212.109 210.539 213.099 214.759C214.089 218.979 214.829 222.829 215.289 225.629C215.529 227.029 215.699 228.169 215.799 228.959C215.892 229.363 215.935 229.776 215.929 230.189Z" fill="#A36456"/>
<path d="M179.92 234.56C180.05 234.65 178.48 237.03 177.13 240.27C175.78 243.51 174.85 246.22 174.68 246.16C174.749 245.533 174.901 244.917 175.13 244.33C175.47 243.23 175.97 241.71 176.65 240.07C177.405 238.054 178.513 236.189 179.92 234.56Z" fill="#A36456"/>
<path d="M230.409 263.659C229.971 262.659 229.636 261.617 229.409 260.549C229.024 259.529 228.736 258.474 228.549 257.399C229.216 258.288 229.68 259.312 229.909 260.399C230.308 261.437 230.479 262.549 230.409 263.659Z" fill="#A36456"/>
<path d="M276.568 242.35L277.318 269.79L313.108 265.28" fill="#FF6D38"/>
<path d="M313.109 265.28C312.902 265.352 312.687 265.399 312.469 265.42L310.639 265.7L303.899 266.63L281.629 269.51L277.349 270.04H277.069V269.76C276.889 262.03 276.739 255.2 276.619 250.22C276.619 247.8 276.559 245.84 276.539 244.42V242.9C276.516 242.717 276.516 242.532 276.539 242.35C276.571 242.528 276.591 242.708 276.599 242.89C276.599 243.303 276.629 243.823 276.689 244.45C276.749 245.88 276.829 247.84 276.919 250.25C277.079 255.25 277.299 262.06 277.539 269.78L277.249 269.53L281.529 268.99L303.819 266.26L310.589 265.5L312.429 265.31C312.655 265.285 312.882 265.275 313.109 265.28Z" fill="#263238"/>
<path d="M230.579 355.54C230.418 355.595 230.249 355.625 230.079 355.63C229.749 355.63 229.259 355.74 228.629 355.76C226.844 355.852 225.054 355.789 223.279 355.57C217.417 354.76 211.776 352.785 206.689 349.76C201.634 346.74 196.887 343.23 192.519 339.28C190.819 337.79 189.469 336.56 188.519 335.71L187.469 334.71C187.229 334.47 187.109 334.34 187.129 334.33C187.277 334.414 187.414 334.515 187.539 334.63L188.659 335.55L192.729 339C197.173 342.85 201.948 346.3 206.999 349.31C212.034 352.298 217.594 354.297 223.379 355.2C225.131 355.454 226.899 355.574 228.669 355.56C229.879 355.54 230.569 355.5 230.579 355.54Z" fill="#263238"/>
<path d="M282.119 269C282.119 269 289.209 299.21 288.989 301.26C288.769 303.31 269.159 321.42 266.199 323.47C263.239 325.52 253.109 326.47 253.109 326.47L262.699 346.57L267.169 345.99C267.169 345.99 307.489 327.57 316.399 319.82C323.319 313.82 320.669 301.38 318.159 293.31C315.649 285.24 310.439 265.63 310.439 265.63L282.119 269Z" fill="#D79581"/>
<g opacity="0.3">
<path d="M254.2 312.69C253.199 312.596 252.189 312.64 251.2 312.82C248.632 312.886 246.109 312.141 243.99 310.69C241.81 309.36 239.87 307.69 237.74 306.28C232.599 302.922 226.5 301.341 220.375 301.78C214.251 302.219 208.439 304.653 203.83 308.71L203.42 310.11C206.98 307.44 211.92 307.54 216.25 308.59C222.74 310.17 228.62 313.59 234.88 315.86C241.14 318.13 248.36 319.29 254.34 316.33C255.04 315.99 255.78 315.5 255.92 314.74C256.13 313.76 255.18 312.89 254.2 312.69Z" fill="black"/>
</g>
<path d="M185.62 292.2C185.62 292.2 154.27 287.27 159.93 262.99C165.59 238.71 191 243.81 196.67 249.18C202.34 254.55 201.42 255.24 204.3 256.27C207.18 257.3 214.17 261.27 214.96 266.79C215.453 269.508 215.554 272.283 215.26 275.03L185.62 292.2Z" fill="#D79581"/>
<path d="M185.619 292.2C185.619 292.2 185.799 292.07 186.149 291.85L187.709 290.91L193.709 287.39L215.189 274.84L215.079 274.99C215.244 273.361 215.244 271.719 215.079 270.09C215.029 269.25 214.929 268.4 214.819 267.55C214.735 266.693 214.533 265.851 214.219 265.05C212.859 261.83 209.839 259.38 206.549 257.58C205.73 257.123 204.877 256.728 203.999 256.4C203.518 256.228 203.061 255.997 202.639 255.71C202.226 255.404 201.85 255.052 201.519 254.66C200.242 253.121 198.887 251.649 197.459 250.25C196.768 249.521 195.996 248.873 195.159 248.32C194.295 247.779 193.385 247.317 192.439 246.94C190.507 246.171 188.494 245.628 186.439 245.32C181.169 244.383 175.738 245.191 170.969 247.62C168.75 248.827 166.784 250.45 165.179 252.4C163.664 254.293 162.45 256.407 161.579 258.67C160.746 260.827 160.143 263.066 159.779 265.35C159.459 267.498 159.459 269.682 159.779 271.83C160.084 273.836 160.733 275.775 161.699 277.56C162.604 279.203 163.727 280.717 165.039 282.06C166.22 283.292 167.527 284.398 168.939 285.36C170.185 286.237 171.492 287.026 172.849 287.72C175.025 288.841 177.285 289.791 179.609 290.56C181.529 291.19 183.049 291.56 184.079 291.83L185.259 292.1L185.659 292.2L185.249 292.15C184.979 292.15 184.579 292.04 184.059 291.93C182.536 291.613 181.031 291.219 179.549 290.75C177.2 290.014 174.916 289.088 172.719 287.98C171.331 287.293 169.994 286.508 168.719 285.63C167.276 284.665 165.936 283.556 164.719 282.32C163.379 280.96 162.229 279.426 161.299 277.76C160.302 275.935 159.626 273.953 159.299 271.9C158.963 269.706 158.963 267.474 159.299 265.28C159.663 262.964 160.266 260.692 161.099 258.5C161.979 256.184 163.217 254.021 164.769 252.09C166.409 250.086 168.419 248.416 170.689 247.17C173.051 245.902 175.622 245.069 178.279 244.71C181.005 244.345 183.77 244.375 186.489 244.8C188.589 245.115 190.646 245.673 192.619 246.46C193.591 246.851 194.528 247.326 195.419 247.88C196.286 248.453 197.084 249.124 197.799 249.88C199.235 251.288 200.596 252.77 201.879 254.32C202.466 255.067 203.258 255.626 204.159 255.93C205.074 256.265 205.964 256.67 206.819 257.14C208.502 258.034 210.065 259.14 211.469 260.43C212.852 261.664 213.954 263.182 214.699 264.88C215.022 265.717 215.227 266.596 215.309 267.49C215.419 268.35 215.509 269.21 215.569 270.06C215.716 271.724 215.692 273.4 215.499 275.06V275.16H215.409L193.779 287.58L187.779 290.99L186.199 291.87L185.619 292.2Z" fill="#A36456"/>
<path d="M185.619 292.2L215.999 273.66L262.139 295.46L272.139 318.05C272.139 318.05 262.639 329.61 244.659 329.61C235.139 329.61 220.109 323.95 208.769 314.51C200.627 307.528 192.898 300.078 185.619 292.2Z" fill="#FAFAFA"/>
<path d="M293.31 294.809C289.87 289.809 286.31 282.909 282.95 278.359C279.59 273.809 270.66 272.759 265.13 273.909C259.24 275.129 255.85 281.579 255.25 287.569C254.65 293.559 255.99 299.569 255.5 305.569L260 326.479C260 326.479 275.41 321.369 277.91 308.369C278.952 303.286 278.007 297.997 275.27 293.589L282.14 304.059L293.31 294.809Z" fill="#FAFAFA"/>
<path d="M240.23 274.57L240.05 268.02C240.05 268.02 236.87 262.85 238.05 261.15C239.23 259.45 239.99 261.07 240.97 262.32C241.95 263.57 242.89 261.92 242.89 261.92C242.89 261.92 242.67 256.53 243.08 255.92C243.274 255.68 243.524 255.493 243.809 255.374C244.093 255.255 244.403 255.209 244.71 255.24C244.71 255.24 245.45 253.82 246.42 254.24C246.701 254.365 246.942 254.564 247.118 254.816C247.295 255.068 247.399 255.363 247.42 255.67C247.42 255.67 248.86 254.92 249.24 256.22C249.434 256.778 249.571 257.354 249.65 257.94C249.65 257.94 251.27 257.81 251.45 259.08C251.63 260.35 251.3 266.57 248.67 270.08L249.3 277.53L240.23 274.57Z" fill="#D79581"/>
<path d="M240.23 274.57C240.457 274.609 240.681 274.666 240.9 274.74L242.72 275.28L249.33 277.34L249.09 277.53C248.9 275.35 248.67 272.84 248.42 270.09V270L248.47 269.92C249.679 268.115 250.474 266.067 250.8 263.92C251.021 262.761 251.155 261.588 251.2 260.41C251.2 260.11 251.2 259.81 251.2 259.51C251.218 259.241 251.166 258.972 251.05 258.73C250.885 258.522 250.67 258.362 250.424 258.264C250.179 258.165 249.912 258.133 249.65 258.17H249.4V257.91C249.338 257.49 249.245 257.075 249.12 256.67C249 256.2 248.9 255.83 248.57 255.72C248.229 255.648 247.875 255.701 247.57 255.87L247.22 256.03V255.65C247.203 255.364 247.098 255.092 246.919 254.869C246.739 254.647 246.495 254.486 246.22 254.41C245.75 254.31 245.22 254.86 244.97 255.41L244.87 255.58H244.68C244.402 255.528 244.114 255.577 243.87 255.72C243.741 255.794 243.617 255.877 243.5 255.97L243.34 256.13C243.29 256.18 243.34 256.2 243.28 256.25C243.17 256.88 243.116 257.519 243.12 258.16C243.12 259.46 243.12 260.73 243.12 261.96V262C242.929 262.343 242.654 262.632 242.32 262.84C242.133 262.951 241.917 263.003 241.7 262.99C241.481 262.973 241.274 262.885 241.11 262.74C240.662 262.236 240.241 261.708 239.85 261.16C239.08 259.83 237.85 261.26 238.03 262.3C238.164 263.369 238.472 264.409 238.94 265.38C239.324 266.247 239.758 267.092 240.24 267.91C240.24 269.91 240.24 271.54 240.24 272.71V274C240.258 274.156 240.258 274.313 240.24 274.47C240.227 274.33 240.227 274.189 240.24 274.05C240.24 273.72 240.19 273.3 240.16 272.79C240.11 271.6 240.04 269.96 239.95 267.92V268C239.452 267.178 238.998 266.33 238.59 265.46C238.082 264.452 237.744 263.367 237.59 262.25C237.565 261.913 237.599 261.575 237.69 261.25C237.816 260.936 238.007 260.654 238.25 260.42C238.377 260.268 238.547 260.157 238.738 260.102C238.928 260.047 239.131 260.049 239.32 260.11C239.649 260.255 239.937 260.478 240.16 260.76C240.59 261.25 240.95 261.89 241.37 262.27C241.79 262.65 242.37 262.19 242.68 261.66V261.79C242.68 260.55 242.6 259.28 242.62 257.96C242.616 257.289 242.676 256.619 242.8 255.96C242.832 255.842 242.89 255.732 242.97 255.64C243.032 255.568 243.098 255.501 243.17 255.44C243.311 255.316 243.465 255.209 243.63 255.12C243.984 254.915 244.4 254.848 244.8 254.93L244.51 255.06C244.684 254.741 244.91 254.453 245.18 254.21C245.33 254.069 245.508 253.963 245.704 253.899C245.899 253.835 246.106 253.814 246.31 253.84C246.696 253.939 247.041 254.16 247.292 254.47C247.544 254.779 247.691 255.161 247.71 255.56L247.33 255.34C247.772 255.105 248.286 255.044 248.77 255.17C249.05 255.279 249.278 255.49 249.41 255.76C249.508 255.989 249.585 256.226 249.64 256.47C249.774 256.915 249.874 257.369 249.94 257.83L249.66 257.58C250 257.569 250.338 257.62 250.66 257.73C251.017 257.844 251.32 258.086 251.51 258.41C251.663 258.72 251.738 259.063 251.73 259.41C251.73 259.73 251.73 260.04 251.73 260.35C251.679 261.552 251.538 262.748 251.31 263.93C250.953 266.142 250.113 268.248 248.85 270.1L248.9 269.94C249.11 272.7 249.31 275.21 249.48 277.39V277.66L249.22 277.58L242.58 275.32L240.82 274.69C240.62 274.666 240.423 274.626 240.23 274.57Z" fill="#A36456"/>
<path d="M209.318 284.409C209.318 284.409 209.228 271.129 222.368 274.089C235.508 277.049 237.998 278.999 237.998 278.999L238.578 273.649H251.578C251.578 273.649 254.268 287.769 251.638 293.709C248.098 301.659 232.048 296.229 232.048 296.229C232.048 296.229 209.318 292.199 209.318 284.409Z" fill="#FAFAFA"/>
<path d="M251.53 273.66C251.597 273.838 251.647 274.023 251.68 274.21C251.78 274.62 251.9 275.15 252.05 275.81C252.2 276.47 252.41 277.36 252.6 278.36C252.79 279.36 252.9 280.54 253.09 281.82C253.463 284.884 253.335 287.988 252.71 291.01C252.288 292.841 251.407 294.534 250.15 295.93C249.437 296.681 248.573 297.272 247.614 297.663C246.656 298.055 245.625 298.238 244.59 298.2C242.465 298.189 240.343 298.032 238.24 297.73C233.39 297.03 228.9 295.8 224.77 294.99C222.787 294.664 220.83 294.203 218.91 293.61C217.223 293.079 215.654 292.227 214.29 291.1C213.31 290.27 212.504 289.254 211.919 288.111C211.334 286.968 210.981 285.72 210.88 284.44C210.851 283.748 210.915 283.055 211.07 282.38C211.128 282.146 211.209 281.919 211.31 281.7C211.106 282.592 211.032 283.508 211.09 284.42C211.354 286.919 212.585 289.216 214.52 290.82C215.867 291.891 217.404 292.698 219.05 293.2C220.955 293.765 222.896 294.203 224.86 294.51C229.02 295.31 233.51 296.51 238.31 297.21C240.39 297.515 242.488 297.675 244.59 297.69C245.562 297.723 246.53 297.549 247.43 297.18C247.871 296.998 248.291 296.767 248.68 296.49C249.074 296.237 249.433 295.935 249.75 295.59C250.96 294.264 251.811 292.649 252.22 290.9C252.858 287.945 253.02 284.907 252.7 281.9C252.55 280.63 252.41 279.47 252.29 278.45C252.17 277.43 251.95 276.59 251.82 275.89C251.69 275.19 251.62 274.69 251.54 274.28C251.504 274.075 251.501 273.866 251.53 273.66Z" fill="#263238"/>
<path d="M244.998 262.319C244.864 261.151 244.818 259.974 244.858 258.799C244.737 257.63 244.68 256.455 244.688 255.279C245.188 256.376 245.424 257.575 245.378 258.779C245.506 259.973 245.376 261.18 244.998 262.319Z" fill="#A36456"/>
<path d="M247.44 262.92C247.325 261.717 247.285 260.508 247.32 259.3C247.194 258.092 247.218 256.872 247.39 255.67C247.729 256.846 247.88 258.067 247.84 259.29C247.979 260.515 247.842 261.755 247.44 262.92Z" fill="#A36456"/>
<path d="M249.609 262.75C249.511 261.897 249.491 261.036 249.549 260.18C249.442 259.323 249.442 258.456 249.549 257.6C249.945 258.396 250.117 259.284 250.049 260.17C250.167 261.054 250.013 261.954 249.609 262.75Z" fill="#A36456"/>
<path d="M237.998 285.62C237.765 283.629 237.701 281.622 237.808 279.62C237.744 277.614 237.857 275.606 238.148 273.62C238.375 275.612 238.435 277.619 238.328 279.62C238.388 281.626 238.278 283.633 237.998 285.62Z" fill="#263238"/>
<path d="M203.45 262.75C203.45 262.75 203.72 262.81 204.06 263.15C204.298 263.403 204.48 263.704 204.592 264.034C204.704 264.363 204.744 264.713 204.71 265.06C204.662 265.535 204.54 266.001 204.35 266.44C204.13 266.955 203.786 267.408 203.35 267.76C202.797 268.112 202.18 268.35 201.534 268.46C200.889 268.57 200.227 268.55 199.59 268.4H199.66C198.95 268.426 198.241 268.338 197.56 268.14C196.07 267.711 194.77 266.791 193.87 265.53C193.154 264.498 192.744 263.284 192.69 262.03C192.654 261.193 192.779 260.358 193.06 259.57C193.139 259.277 193.279 259.005 193.47 258.77C193.126 259.811 192.967 260.904 193 262C193.099 263.168 193.514 264.288 194.2 265.24C195.059 266.39 196.27 267.229 197.65 267.63C198.275 267.815 198.927 267.899 199.58 267.88H199.65C200.795 268.159 202.004 267.979 203.02 267.38C203.761 266.797 204.242 265.945 204.36 265.01C204.444 264.387 204.282 263.756 203.91 263.25C203.65 262.92 203.43 262.78 203.45 262.75Z" fill="#A36456"/>
<path d="M270.539 273.48C270.019 273.553 269.494 273.579 268.969 273.56C268.469 273.56 267.869 273.67 267.159 273.73C266.785 273.783 266.415 273.857 266.049 273.95C265.632 274.019 265.224 274.13 264.829 274.28C262.848 274.927 261.07 276.078 259.669 277.62C258.869 278.541 258.171 279.547 257.589 280.62C256.985 281.795 256.483 283.019 256.089 284.28C255.679 285.54 255.391 286.836 255.229 288.15C255.112 289.376 255.079 290.609 255.129 291.84C255.219 294.21 255.509 296.34 255.709 298.13C255.909 299.92 256.089 301.37 256.149 302.38C256.149 302.88 256.149 303.27 256.199 303.54C256.249 303.81 256.199 303.95 256.199 303.95C256.088 303.44 256.014 302.922 255.979 302.4C255.849 301.4 255.639 299.96 255.379 298.17C255.119 296.38 254.799 294.26 254.679 291.86C254.617 290.603 254.644 289.343 254.759 288.09C254.905 286.73 255.193 285.39 255.619 284.09C256.019 282.795 256.538 281.54 257.169 280.34C257.768 279.225 258.497 278.185 259.339 277.24C260.813 275.659 262.68 274.496 264.749 273.87C265.16 273.732 265.581 273.628 266.009 273.56C266.386 273.48 266.766 273.42 267.149 273.38C267.869 273.38 268.489 273.26 268.999 273.3C269.516 273.318 270.031 273.378 270.539 273.48Z" fill="#263238"/>
<path d="M270.779 284.17C270.999 284.38 271.185 284.623 271.329 284.89C271.659 285.37 272.119 286.07 272.649 286.97C274.049 289.29 275.269 291.714 276.299 294.22C277.356 296.729 278.053 299.376 278.369 302.08C278.423 302.548 278.45 303.019 278.449 303.49C278.476 303.843 278.476 304.197 278.449 304.55C278.452 304.854 278.412 305.157 278.329 305.45C278.229 305.45 278.329 304.16 278.039 302.12C277.62 299.471 276.881 296.882 275.839 294.41C274.813 291.928 273.651 289.505 272.359 287.15C271.766 286.193 271.238 285.198 270.779 284.17Z" fill="#263238"/>
<path d="M305.789 299.119C304.648 298.277 303.369 297.641 302.009 297.239C296.139 295.109 291.629 294.049 289.009 289.779L281.059 302.429C282.869 305.059 282.199 307.609 284.459 309.209C286.239 310.469 288.649 310.099 290.779 309.649C294.672 308.816 298.525 307.853 302.339 306.759C304.529 306.139 307.079 305.069 307.439 302.819C307.498 302.113 307.378 301.404 307.089 300.757C306.801 300.11 306.353 299.547 305.789 299.119Z" fill="#FAFAFA"/>
<g opacity="0.3">
<path d="M271.068 284.729C274.198 289.979 276.288 295.579 279.768 300.409C280.06 297.225 279.386 294.026 277.834 291.229C276.282 288.433 273.925 286.168 271.068 284.729Z" fill="black"/>
</g>
<path d="M151.129 266.38C151.129 266.38 145.259 306.72 146.019 312.53C146.779 318.34 152.129 324.94 158.219 325.62C164.309 326.3 165.169 325.37 171.219 323.11C177.269 320.85 210.219 306.99 210.219 306.99L208.589 283.1L170.719 295.41L167.999 269.75L151.129 266.38Z" fill="#D79581"/>
<path d="M240.248 271.999C240.248 271.149 234.498 271.789 231.298 271.999C228.098 272.209 218.298 277.329 218.298 277.329L208.598 283.059L182.148 291.799L192.998 314.079L212.728 305.809C212.728 305.809 225.728 309.969 232.808 312.129C239.478 314.129 239.478 315.459 247.488 314.899C251.948 314.589 255.988 314.399 255.988 314.399C255.988 314.399 257.478 310.129 253.858 309.709C251.316 309.455 248.758 309.408 246.208 309.569L239.998 305.809C239.998 305.809 244.768 303.879 247.078 304.049L250.848 304.329C251.321 304.374 251.796 304.31 252.24 304.144C252.684 303.977 253.085 303.712 253.411 303.368C253.738 303.024 253.982 302.611 254.125 302.159C254.268 301.707 254.307 301.228 254.238 300.759C254.174 300.379 254.005 300.025 253.751 299.735C253.497 299.446 253.167 299.232 252.798 299.119C250.52 298.392 248.175 297.893 245.798 297.629C245.798 297.629 252.098 297.559 252.318 295.219C252.377 294.814 252.345 294.4 252.224 294.009C252.102 293.618 251.895 293.259 251.617 292.958C251.339 292.657 250.998 292.422 250.617 292.27C250.237 292.118 249.827 292.053 249.418 292.079C248.778 292.079 243.528 291.649 243.528 291.649C243.573 291.111 243.803 290.605 244.178 290.217C244.554 289.828 245.052 289.582 245.588 289.519C247.508 289.309 253.878 288.339 254.008 285.519C254.128 283.029 253.228 282.809 251.518 282.809C249.808 282.809 241.958 283.359 238.338 282.719C234.718 282.079 230.448 281.439 230.658 279.719C230.868 277.999 234.918 276.939 234.918 276.939C234.918 276.939 240.468 277.999 240.248 271.999Z" fill="#D79581"/>
<path d="M236.77 297.62C238.37 297.342 239.996 297.235 241.62 297.3C243.242 297.198 244.871 297.265 246.48 297.5C244.879 297.784 243.253 297.891 241.63 297.82C240.007 297.922 238.378 297.855 236.77 297.62Z" fill="#A36456"/>
<path d="M207.84 283.34C207.695 283.433 207.536 283.504 207.37 283.55L205.99 284.05L200.88 285.81L184 291.54L167.14 297.29L162.04 299.07L160.66 299.56C160.504 299.63 160.339 299.677 160.17 299.7C160.307 299.597 160.459 299.516 160.62 299.46C160.93 299.33 161.38 299.12 161.97 298.88C163.16 298.4 164.88 297.74 167.02 296.95C171.3 295.37 177.24 293.28 183.84 291.05C190.44 288.82 196.41 286.85 200.76 285.46C202.93 284.77 204.69 284.22 205.92 283.86L207.33 283.45C207.495 283.394 207.666 283.357 207.84 283.34Z" fill="#A36456"/>
<path d="M227.999 310.69C227.999 310.69 245.449 320.41 249.749 322.27C252.255 323.315 254.312 325.209 255.559 327.62L262.659 346.62C262.659 346.62 240.329 349.53 238.119 348.62C235.909 347.71 226.259 341.62 223.579 339.62C220.899 337.62 215.209 333.81 215.209 332.99V331.6L208.619 326C208.619 326 208.619 324.14 211.299 324.72C213.979 325.3 221.879 329.14 221.879 329.14L209.549 319.83C209.549 319.83 211.299 316.34 214.089 317.51C216.879 318.68 229.209 326 229.899 326.58C230.589 327.16 235.899 326.93 237.109 325.18C238.319 323.43 233.279 320.53 229.439 318.09C225.599 315.65 224.509 313.32 225.439 311.58C225.543 311.348 225.693 311.14 225.88 310.968C226.067 310.797 226.287 310.665 226.527 310.582C226.767 310.498 227.021 310.465 227.274 310.484C227.527 310.502 227.774 310.572 227.999 310.69Z" fill="#D79581"/>
<path d="M230.689 335.63C229.528 335.057 228.435 334.356 227.429 333.54C225.489 332.15 222.849 330.16 219.959 327.94L212.589 322.22L210.359 320.49C210.062 320.305 209.79 320.083 209.549 319.83C210.707 320.408 211.8 321.109 212.809 321.92C214.759 323.31 217.389 325.3 220.279 327.53L227.649 333.25L229.879 334.97C230.17 335.163 230.441 335.384 230.689 335.63Z" fill="#A36456"/>
<path d="M229.669 341.81C229.347 341.682 229.044 341.51 228.769 341.3C228.209 340.93 227.409 340.4 226.419 339.72C224.419 338.37 221.769 336.47 218.839 334.31C215.909 332.15 213.309 330.13 211.469 328.61C210.549 327.85 209.819 327.21 209.339 326.75C209.07 326.529 208.829 326.278 208.619 326C208.931 326.157 209.217 326.359 209.469 326.6L211.699 328.32C213.589 329.76 216.229 331.73 219.149 333.89L226.639 339.42L228.889 341.13C229.177 341.322 229.439 341.551 229.669 341.81Z" fill="#A36456"/>
</svg>
