<svg width="750" height="500" viewBox="0 0 750 500" fill="none" xmlns="http://www.w3.org/2000/svg">
<path d="M378.68 241.549L378.71 241.559L378.7 241.529L378.68 241.539V241.549Z" fill="#F5F5F5"/>
<path d="M378.811 241.789L378.821 241.809L378.811 241.789Z" fill="#F5F5F5"/>
<path d="M378.869 241.659L378.879 241.689L378.899 241.649L378.869 241.659Z" fill="#F5F5F5"/>
<path d="M425.779 144.6L425.989 144.71L502.279 17.7998L460.909 17.9998C460.909 17.9998 435.749 17.8098 428.409 17.9998L396.819 135.33L397.259 135.4L379.119 240.4L425.779 144.6Z" fill="#F5F5F5"/>
<path d="M710.27 15.2695H626.87L451.2 161.89L451.4 162.06L379.07 241.3L712.61 17.9995C711.966 16.9813 711.178 16.0617 710.27 15.2695Z" fill="#F5F5F5"/>
<path d="M734.66 156.74L380.61 244L379 242.07L379.89 244.15L379.48 244.25L379.13 244.14L379.33 244.02L379.02 244.1L379.29 243.58L378.97 243.93V244.07L378.79 242.38L378.61 243.91L378.5 243.77L378.56 243.93L378.23 243.82L377.62 243.25L378.24 242.25L377.45 243.12L376.94 242.63L378.21 241.86L376.58 242.3L143.1 22.2998H44.9998L290 183.83L376.08 242.42L372.78 243.31L15.3398 181.39V238.39L239 246L237.65 249L367.42 244.76L275 269.6C275 269.47 274.94 269.35 274.9 269.22L15.3398 372.89V441.3L304.52 286.71L373.76 244.53L376.19 244.46L157.51 484H231.69L376.89 244.4L378.53 244.35L349.54 484H404.14L379 244.5L379.24 244.72L378.99 244.41L380.46 245.41L420.86 340.59L420.65 340.68L511.79 484H584.67L446.85 324.75C446.819 324.768 446.792 324.791 446.77 324.82L383.42 247.43L467.6 304.72C467.551 304.779 467.507 304.843 467.47 304.91L720.73 486.8H734.66V425.39L481.07 277.1L481.01 277.27L381.64 245.27L380.76 244.19L734.66 215.46V156.74ZM376.64 244L375.12 243.74L376.62 242.82L377.29 243.28L376.64 244ZM378.55 244.29H378.44L377.12 244.06L377.51 243.41L378.07 243.8L377.69 243.67L378.54 244.25L378.55 244.29ZM378.99 244.43V244.31H379.49L379.05 244.43H380.05L379.61 244.29H379.99L380.22 244.83L378.99 244.43Z" fill="#F5F5F5"/>
<path d="M336.75 142.45L378.6 241.09L366.26 134.59L351.65 17.7998C351.65 17.7998 274 17.9998 278.55 17.9998L336.75 142.45Z" fill="#F5F5F5"/>
<path d="M378.521 241.9L378.391 242.7L378.731 242L378.701 241.71L378.521 241.9Z" fill="#F5F5F5"/>
<path d="M378.83 241.659L378.85 241.679V241.659H378.83Z" fill="#F5F5F5"/>
<path d="M578.721 156.94C581.381 154.25 725.891 63.3799 725.891 63.3799L728.341 82.6699L578.721 156.94Z" fill="#EBEBEB"/>
<path d="M290.36 104.12L235.14 24.1396H215.9L290.36 104.12Z" fill="#EBEBEB"/>
<path d="M27.6895 76.5391V99.4091L126.739 143.779L27.6895 76.5391Z" fill="#EBEBEB"/>
<path d="M50.1406 469.519C53.1406 468.029 128.061 425.579 128.061 425.579L74.7206 477.709L50.1406 469.519Z" fill="#EBEBEB"/>
<path d="M195.61 113.21L187.3 108.72L178.88 113.02L180.59 103.72L173.9 97.0499L183.26 95.7999L187.54 87.3799L191.63 95.8999L200.96 97.3599L194.12 103.88L195.61 113.21Z" fill="#E0E0E0"/>
<path d="M436.06 64.4992L427.75 60.0092L419.33 64.3092L421.04 55.0092L414.35 48.3392L423.71 47.0892L427.99 38.6592L432.08 47.1792L441.41 48.6492L434.57 55.1692L436.06 64.4992Z" fill="#E0E0E0"/>
<path d="M206.839 436.9L198.529 432.4L190.109 436.71L191.819 427.41L185.129 420.74L194.489 419.49L198.769 411.06L202.859 419.58L212.189 421.05L205.349 427.57L206.839 436.9Z" fill="#E0E0E0"/>
<path d="M562.499 433.47L554.179 428.97L545.769 433.27L547.469 423.98L540.779 417.31L550.149 416.06L554.429 407.63L558.509 416.15L567.849 417.62L560.999 424.13L562.499 433.47Z" fill="#E0E0E0"/>
<path d="M134.449 119.91L130.139 117.58L125.779 119.81L126.669 114.99L123.199 111.53L128.049 110.88L130.269 106.52L132.389 110.93L137.219 111.69L133.679 115.07L134.449 119.91Z" fill="#E0E0E0"/>
<path d="M252.49 457.089L248.18 454.759L243.82 456.989L244.7 452.169L241.23 448.709L246.09 448.059L248.31 443.699L250.42 448.119L255.26 448.869L251.71 452.249L252.49 457.089Z" fill="#E0E0E0"/>
<path d="M511.82 382.179L507.51 379.849L503.15 382.069L504.04 377.259L500.57 373.799L505.42 373.149L507.64 368.789L509.76 373.199L514.6 373.959L511.05 377.339L511.82 382.179Z" fill="#E0E0E0"/>
<path d="M614.971 117.91L610.661 115.58L606.301 117.81L607.191 113L603.721 109.54L608.571 108.89L610.791 104.52L612.911 108.94L617.751 109.7L614.201 113.08L614.971 117.91Z" fill="#E0E0E0"/>
<path d="M718.021 146.49H546.391V385.05H718.021V146.49Z" fill="white"/>
<path d="M718.021 146.49H546.391V232.84H718.021V146.49Z" fill="#455A64"/>
<path d="M688.3 254C688.3 254.15 664.7 254.27 635.6 254.27C606.5 254.27 582.9 254.15 582.9 254C582.9 253.85 606.49 253.74 635.6 253.74C664.71 253.74 688.3 253.83 688.3 254Z" fill="#263238"/>
<path d="M688.3 277.23C688.3 277.37 664.7 277.49 635.6 277.49C606.5 277.49 582.9 277.37 582.9 277.23C582.9 277.09 606.49 276.97 635.6 276.97C664.71 276.97 688.3 277.09 688.3 277.23Z" fill="#263238"/>
<path d="M688.3 300.49C688.3 300.63 664.7 300.75 635.6 300.75C606.5 300.75 582.9 300.63 582.9 300.49C582.9 300.35 606.49 300.22 635.6 300.22C664.71 300.22 688.3 300.34 688.3 300.49Z" fill="#263238"/>
<path d="M687.86 327.3H584.77C574.63 327.3 566.41 335.52 566.41 345.66V347.57C566.41 357.71 574.63 365.93 584.77 365.93H687.86C698 365.93 706.22 357.71 706.22 347.57V345.66C706.22 335.52 698 327.3 687.86 327.3Z" fill="#455A64"/>
<path d="M597.852 205.51C598.584 205.805 599.206 206.321 599.633 206.986C600.059 207.65 600.268 208.431 600.232 209.22C600.252 210.007 600.04 210.783 599.622 211.45C599.184 212.096 598.569 212.603 597.852 212.91C597.002 213.271 596.085 213.448 595.162 213.43H593.162V216.43H589.932V205H595.152C596.078 204.972 596.999 205.146 597.852 205.51ZM596.472 210.45C596.791 210.118 596.97 209.676 596.97 209.215C596.97 208.754 596.791 208.312 596.472 207.98C596.042 207.655 595.509 207.498 594.972 207.54H593.172V210.88H595.002C595.527 210.912 596.047 210.76 596.472 210.45Z" fill="white"/>
<path d="M606.791 213.38H605.001V216.38H601.801V205H607.001C607.925 204.977 608.842 205.154 609.691 205.52C610.212 205.768 610.677 206.122 611.054 206.558C611.432 206.995 611.715 207.506 611.885 208.057C612.055 208.609 612.109 209.19 612.043 209.764C611.977 210.338 611.792 210.891 611.501 211.39C611.093 212.016 610.518 212.514 609.841 212.83L612.301 216.42H608.841L606.791 213.38ZM608.331 207.98C607.902 207.655 607.368 207.498 606.831 207.54H605.001V210.88H606.801C607.336 210.919 607.868 210.767 608.301 210.45C608.62 210.118 608.799 209.676 608.799 209.215C608.799 208.754 608.62 208.312 608.301 207.98H608.331Z" fill="white"/>
<path d="M623 213.92V216.41H613.83V205H622.83V207.5H617.07V209.42H622.14V211.84H617.07V213.93L623 213.92Z" fill="white"/>
<path d="M635.142 216.41V210.41L632.202 215.34H630.772L627.852 210.57V216.46H624.852V205H627.512L631.512 211.59L635.422 205H638.082V216.42L635.142 216.41Z" fill="white"/>
<path d="M640.4 205H643.63V216.42H640.4V205Z" fill="white"/>
<path d="M647.241 215.25C646.75 214.726 646.371 214.107 646.129 213.431C645.886 212.755 645.785 212.037 645.831 211.32V205H649.061V211.23C649.061 213.06 649.781 213.97 651.231 213.97C652.681 213.97 653.381 213.06 653.381 211.23V205H656.561V211.33C656.607 212.047 656.506 212.765 656.264 213.441C656.021 214.117 655.643 214.736 655.151 215.26C654.029 216.16 652.634 216.65 651.196 216.65C649.758 216.65 648.363 216.16 647.241 215.26V215.25Z" fill="white"/>
<path d="M669.061 216.41V210.41L666.131 215.34H664.691L661.771 210.57V216.46H658.771V205H661.431L665.431 211.59L669.341 205H672.001V216.42L669.061 216.41Z" fill="white"/>
<path d="M610.13 350.52C609.269 350.06 608.555 349.367 608.07 348.52C607.573 347.66 607.311 346.683 607.311 345.69C607.311 344.696 607.573 343.72 608.07 342.86C608.564 342.032 609.277 341.358 610.13 340.91C611.054 340.421 612.086 340.177 613.13 340.2C613.986 340.184 614.835 340.351 615.62 340.69C616.35 340.995 616.994 341.472 617.5 342.08L615.92 343.54C615.598 343.144 615.19 342.827 614.728 342.61C614.266 342.394 613.761 342.284 613.25 342.29C612.635 342.281 612.029 342.433 611.49 342.73C610.983 343.009 610.564 343.424 610.28 343.93C609.992 344.471 609.844 345.076 609.85 345.69C609.842 346.303 609.99 346.909 610.28 347.45C610.56 347.96 610.98 348.38 611.49 348.66C612.03 348.954 612.636 349.102 613.25 349.09C613.762 349.095 614.268 348.985 614.73 348.767C615.193 348.548 615.6 348.228 615.92 347.83L617.5 349.29C616.995 349.902 616.35 350.386 615.62 350.7C614.825 351.028 613.971 351.191 613.11 351.18C612.077 351.217 611.051 350.99 610.13 350.52Z" fill="white"/>
<path d="M626.342 343.67C626.675 344.032 626.93 344.458 627.092 344.922C627.254 345.387 627.318 345.88 627.282 346.37V351H624.912V346.69C624.952 346.175 624.802 345.663 624.492 345.25C624.333 345.086 624.142 344.958 623.929 344.875C623.717 344.793 623.489 344.757 623.262 344.77C622.998 344.757 622.735 344.799 622.488 344.894C622.242 344.988 622.018 345.134 621.832 345.32C621.448 345.781 621.259 346.372 621.302 346.97V350.97H618.932V339.79H621.302V343.73C621.626 343.411 622.014 343.166 622.442 343.01C622.905 342.838 623.397 342.753 623.892 342.76C624.34 342.739 624.789 342.808 625.21 342.965C625.631 343.121 626.016 343.361 626.342 343.67Z" fill="white"/>
<path d="M631.08 350.63C630.418 350.289 629.863 349.769 629.48 349.13C629.1 348.47 628.9 347.721 628.9 346.96C628.9 346.198 629.1 345.45 629.48 344.79C629.865 344.154 630.419 343.638 631.08 343.3C631.799 342.945 632.589 342.76 633.39 342.76C634.192 342.76 634.982 342.945 635.7 343.3C636.358 343.64 636.908 344.156 637.29 344.79C637.67 345.45 637.87 346.198 637.87 346.96C637.87 347.721 637.67 348.47 637.29 349.13C636.91 349.768 636.359 350.287 635.7 350.63C634.98 350.979 634.19 351.16 633.39 351.16C632.59 351.16 631.8 350.979 631.08 350.63ZM634.89 348.63C635.294 348.178 635.503 347.585 635.47 346.98C635.487 346.682 635.445 346.383 635.345 346.102C635.246 345.82 635.091 345.561 634.89 345.34C634.693 345.143 634.46 344.986 634.202 344.88C633.945 344.773 633.669 344.718 633.39 344.718C633.112 344.718 632.836 344.773 632.578 344.88C632.321 344.986 632.087 345.143 631.89 345.34C631.686 345.559 631.529 345.818 631.428 346.1C631.326 346.381 631.283 346.681 631.3 346.98C631.284 347.28 631.328 347.581 631.429 347.864C631.53 348.148 631.687 348.408 631.89 348.63C632.292 349.021 632.83 349.24 633.39 349.24C633.951 349.24 634.489 349.021 634.89 348.63Z" fill="white"/>
<path d="M641.001 350.63C640.341 350.286 639.787 349.767 639.401 349.13C639.028 348.467 638.832 347.72 638.832 346.96C638.832 346.199 639.028 345.452 639.401 344.79C639.786 344.154 640.34 343.638 641.001 343.3C641.719 342.933 642.516 342.747 643.321 342.76C644.121 342.745 644.912 342.93 645.621 343.3C646.283 343.638 646.837 344.154 647.221 344.79C647.595 345.452 647.791 346.199 647.791 346.96C647.791 347.72 647.595 348.467 647.221 349.13C646.836 349.767 646.282 350.286 645.621 350.63C644.909 350.991 644.12 351.173 643.321 351.16C642.517 351.172 641.721 350.99 641.001 350.63ZM644.811 348.63C645.218 348.179 645.43 347.586 645.401 346.98C645.417 346.681 645.372 346.382 645.271 346.1C645.17 345.819 645.013 345.56 644.811 345.34C644.62 345.138 644.388 344.979 644.132 344.873C643.875 344.766 643.599 344.714 643.321 344.72C643.042 344.712 642.764 344.764 642.506 344.871C642.247 344.977 642.014 345.137 641.821 345.34C641.616 345.558 641.457 345.816 641.353 346.098C641.25 346.38 641.205 346.68 641.221 346.98C641.206 347.281 641.252 347.582 641.355 347.865C641.458 348.149 641.616 348.409 641.821 348.63C642.015 348.83 642.249 348.988 642.507 349.093C642.765 349.198 643.043 349.248 643.321 349.24C643.602 349.246 643.88 349.193 644.138 349.084C644.397 348.975 644.629 348.814 644.821 348.61L644.811 348.63Z" fill="white"/>
<path d="M650.14 350.91C649.591 350.79 649.066 350.577 648.59 350.28L649.38 348.58C649.787 348.838 650.233 349.03 650.7 349.15C651.194 349.295 651.705 349.369 652.22 349.37C653.22 349.37 653.72 349.13 653.72 348.63C653.716 348.513 653.674 348.4 653.6 348.31C653.526 348.219 653.424 348.156 653.31 348.13C652.9 347.998 652.478 347.911 652.05 347.87C651.492 347.792 650.941 347.675 650.4 347.52C649.966 347.393 649.576 347.151 649.27 346.82C648.932 346.426 648.76 345.917 648.79 345.4C648.782 344.905 648.941 344.423 649.24 344.03C649.576 343.6 650.026 343.274 650.54 343.09C651.181 342.86 651.859 342.748 652.54 342.76C653.118 342.759 653.695 342.822 654.26 342.95C654.756 343.051 655.235 343.227 655.68 343.47L654.89 345.16C654.174 344.752 653.363 344.541 652.54 344.55C652.148 344.526 651.757 344.598 651.4 344.76C651.292 344.807 651.199 344.884 651.132 344.981C651.065 345.078 651.026 345.192 651.02 345.31C651.02 345.431 651.061 345.548 651.135 345.644C651.209 345.74 651.313 345.809 651.43 345.84C651.853 345.976 652.288 346.073 652.73 346.13C653.283 346.216 653.83 346.332 654.37 346.48C654.795 346.607 655.178 346.845 655.48 347.17C655.809 347.559 655.977 348.06 655.95 348.57C655.957 349.058 655.799 349.534 655.5 349.92C655.149 350.342 654.689 350.66 654.17 350.84C653.505 351.07 652.803 351.178 652.1 351.16C651.439 351.16 650.78 351.076 650.14 350.91Z" fill="white"/>
<path d="M665.382 347.63H659.212C659.309 348.117 659.592 348.548 660.002 348.83C660.459 349.135 661.002 349.289 661.552 349.27C661.936 349.273 662.319 349.208 662.682 349.08C663.022 348.942 663.331 348.738 663.592 348.48L664.852 349.84C664.424 350.295 663.901 350.65 663.32 350.878C662.739 351.106 662.114 351.202 661.492 351.16C660.645 351.175 659.806 350.993 659.042 350.63C658.364 350.295 657.796 349.774 657.402 349.13C657.028 348.469 656.832 347.723 656.832 346.965C656.832 346.206 657.028 345.46 657.402 344.8C657.774 344.166 658.314 343.647 658.962 343.3C659.642 342.954 660.394 342.774 661.157 342.774C661.919 342.774 662.671 342.954 663.352 343.3C663.991 343.638 664.522 344.151 664.882 344.78C665.259 345.465 665.449 346.237 665.432 347.02C665.432 347.02 665.422 347.23 665.382 347.63ZM659.852 345C659.478 345.316 659.238 345.763 659.182 346.25H663.182C663.122 345.767 662.883 345.324 662.512 345.01C662.139 344.7 661.666 344.537 661.182 344.55C660.698 344.534 660.226 344.694 659.852 345Z" fill="white"/>
<path d="M572.181 258.31C571.814 258.314 571.458 258.183 571.181 257.94L568.241 255.35C567.943 255.085 567.762 254.712 567.739 254.314C567.715 253.915 567.851 253.524 568.116 253.225C568.382 252.927 568.755 252.746 569.153 252.723C569.552 252.699 569.943 252.835 570.241 253.1L572.072 254.71L576.212 250.13C576.483 249.859 576.848 249.702 577.231 249.692C577.615 249.682 577.987 249.819 578.273 250.075C578.559 250.331 578.735 250.687 578.767 251.069C578.798 251.451 578.682 251.831 578.442 252.13L573.301 257.8C573.161 257.959 572.989 258.087 572.796 258.175C572.603 258.263 572.394 258.309 572.181 258.31Z" fill="#455A64"/>
<path d="M572.181 281.56C571.814 281.565 571.458 281.433 571.181 281.19L568.241 278.61C568.093 278.479 567.972 278.32 567.885 278.142C567.798 277.964 567.747 277.77 567.735 277.572C567.711 277.173 567.846 276.78 568.111 276.48C568.377 276.181 568.75 275.999 569.149 275.974C569.549 275.95 569.942 276.085 570.241 276.35L572.071 277.96L576.211 273.39C576.339 273.231 576.498 273.1 576.678 273.004C576.858 272.909 577.056 272.851 577.259 272.834C577.462 272.817 577.666 272.842 577.86 272.907C578.053 272.972 578.231 273.076 578.383 273.212C578.535 273.349 578.657 273.514 578.743 273.699C578.828 273.884 578.875 274.085 578.881 274.289C578.886 274.493 578.85 274.695 578.775 274.885C578.699 275.074 578.586 275.246 578.441 275.39L573.301 281.06C573.162 281.219 572.989 281.346 572.796 281.433C572.603 281.519 572.393 281.563 572.181 281.56Z" fill="#455A64"/>
<path d="M572.181 304.82C571.814 304.824 571.458 304.692 571.181 304.45L568.241 301.86C567.943 301.595 567.762 301.222 567.739 300.823C567.715 300.425 567.851 300.033 568.116 299.735C568.382 299.437 568.755 299.256 569.153 299.232C569.552 299.209 569.943 299.345 570.241 299.61L572.072 301.22L576.212 296.64C576.483 296.369 576.848 296.212 577.231 296.202C577.615 296.191 577.987 296.328 578.273 296.584C578.559 296.841 578.735 297.196 578.767 297.579C578.798 297.961 578.682 298.341 578.442 298.64L573.301 304.31C573.161 304.469 572.989 304.597 572.796 304.685C572.603 304.773 572.394 304.819 572.181 304.82Z" fill="#455A64"/>
<path d="M642.43 169.56L644.9 174.57L650.44 175.38L646.43 179.28L647.38 184.79L642.43 182.19L637.48 184.79L638.42 179.28L634.42 175.38L639.95 174.57L642.43 169.56Z" fill="white"/>
<path d="M622.981 169.56L625.461 174.57L630.991 175.38L626.991 179.28L627.931 184.79L622.981 182.19L618.031 184.79L618.981 179.28L614.971 175.38L620.511 174.57L622.981 169.56Z" fill="white"/>
<path d="M638.711 190.22L632.201 186.71L625.63 190.07L626.961 182.81L621.73 177.59L629.05 176.61L632.391 170.02L635.591 176.68L642.891 177.83L637.54 182.93L638.711 190.22Z" fill="white"/>
<path d="M620.441 177.15L628.661 176.06L632.411 168.67L635.991 176.14L644.181 177.43L638.181 183.14L639.491 191.33L632.201 187.39L624.821 191.16L626.311 183.01L620.441 177.15ZM641.601 178.23L635.191 177.23L632.381 171.37L629.441 177.16L623.001 178L627.591 182.58L626.431 189L632.211 186L637.921 189.09L636.921 182.68L641.601 178.23Z" fill="#455A64"/>
<path d="M718.001 385.05C718.001 382.95 717.901 287.5 717.761 146.49L718.001 146.73H546.391L546.651 146.47C546.651 235.73 546.651 318.32 546.651 385.03L546.441 384.82L718.071 385.03L546.441 385.24H546.221V385.03C546.221 318.32 546.221 235.73 546.221 146.47V146.21H546.501H718.111H718.341V146.44C718.111 287.5 718.001 383 718.001 385.05Z" fill="#263238"/>
<path d="M579.31 116.14C579.836 115.171 580.162 114.106 580.271 113.009C580.38 111.912 580.269 110.804 579.944 109.751C579.618 108.697 579.086 107.72 578.378 106.874C577.67 106.029 576.8 105.334 575.82 104.83C576.134 102.121 575.392 99.3959 573.75 97.2193C572.108 95.0426 569.691 93.5818 567 93.1399C564.42 92.8299 561.81 93.5099 559.22 93.3099C556.63 93.1099 554.39 92.1099 551.93 91.6599C549.47 91.2099 546.64 91.4699 544.93 93.3099C543.06 95.3099 543.34 98.6999 544.83 101.05C546.32 103.4 548.72 104.96 551.05 106.46C550.351 106.459 549.676 106.712 549.149 107.172C548.623 107.631 548.282 108.267 548.19 108.96C548.044 110.381 548.429 111.805 549.27 112.96C550.54 114.907 552.324 116.466 554.423 117.465C556.523 118.464 558.858 118.863 561.17 118.62L567.7 118.43C568.609 119.053 569.633 119.489 570.713 119.712C571.792 119.934 572.905 119.939 573.986 119.726C575.068 119.512 576.096 119.085 577.01 118.47C577.924 117.854 578.706 117.062 579.31 116.14Z" fill="#263238"/>
<path d="M558.68 122.589C558.008 122.649 557.339 122.458 556.8 122.054C556.261 121.65 555.89 121.06 555.76 120.399C555.657 119.731 555.74 119.048 555.999 118.424C556.258 117.799 556.684 117.258 557.23 116.859C558.345 116.094 559.692 115.741 561.04 115.859C562.383 115.973 563.703 116.28 564.96 116.769C566.936 117.42 568.826 118.306 570.59 119.409C571.226 119.782 571.773 120.291 572.19 120.899C572.396 121.206 572.517 121.563 572.538 121.933C572.559 122.303 572.48 122.671 572.31 122.999C571.77 123.879 570.56 123.999 569.53 123.999C565.664 124.017 561.805 123.682 558 122.999" fill="#FF6D38"/>
<path d="M556.53 120.39C555.76 113.07 545.43 106.5 540.97 107.67C539.834 105.558 537.929 103.965 535.65 103.22C533.371 102.475 530.893 102.636 528.73 103.67L516.57 98.2799C514.49 97.3599 512.31 96.4099 510.05 96.6099C507.79 96.8099 505.49 98.6099 505.57 100.86C501.18 99.1099 495.69 103.54 496.49 108.21C495.835 108.359 495.218 108.64 494.676 109.037C494.134 109.433 493.679 109.937 493.339 110.515C492.999 111.094 492.781 111.737 492.699 112.403C492.616 113.069 492.671 113.746 492.86 114.39C487.407 115.74 482.226 118.013 477.54 121.11C475.54 122.4 473.61 123.99 472.97 126.24C472.33 128.49 473.76 131.43 476.1 131.45C475.051 131.8 474.126 132.444 473.434 133.306C472.742 134.168 472.314 135.211 472.2 136.31C470.39 135.05 467.85 137.4 468.13 139.59C468.41 141.78 470.28 143.36 472.08 144.59C473.88 145.82 475.87 147.16 476.59 149.24C476.415 149.448 476.2 149.618 475.958 149.74C475.715 149.862 475.45 149.933 475.18 149.95C470.32 150.19 466.33 153.82 466.27 158.68C466.27 159.13 466.27 159.55 466.27 159.92C466.27 162.14 467.79 165.34 468.77 167.32C471.24 172.32 473.92 173.71 477.92 177.64C474.58 179.64 477.16 191.36 490.09 191.18C503.41 207.82 514.14 218.3 531.29 230.95C533.74 232.76 536.93 234.59 539.63 233.19C541.23 235.19 544.05 235.83 546.58 235.47C549.083 234.955 551.48 234.018 553.67 232.7C556.24 233.638 559.038 233.757 561.679 233.041C564.32 232.325 566.675 230.808 568.42 228.7C570.689 228.621 572.917 228.071 574.962 227.084C577.007 226.098 578.825 224.697 580.3 222.97C585.35 224.74 591.55 221.05 592.41 215.77C595.242 210.046 597.107 203.893 597.93 197.56C601.19 199.01 605.03 196 605.81 192.51C606.59 189.02 605.27 185.51 603.97 182.14C605.67 184.24 609.44 182.94 610.49 180.46C611.54 177.98 610.71 175.12 609.66 172.63C608.133 168.979 606.169 165.527 603.81 162.35C605.52 157.92 603.88 150.23 601.62 146.05C592.5 129.18 583.93 120.32 556.55 120.3" fill="#263238"/>
<path d="M527.06 132.909C527.992 131.413 529.454 130.324 531.154 129.859C532.854 129.393 534.667 129.586 536.23 130.399L572.6 142.999C583.28 148.499 581.85 165.149 575.9 175.589C569.29 187.189 560.77 201.089 554 208.529C540.38 223.529 524.12 215.589 524.12 215.589L516.12 227.649L506.87 241.759C502.65 237.839 477.07 210.319 477.07 210.319L527.06 132.909Z" fill="#FFBF9D"/>
<path d="M542.489 188.879C542.559 188.739 544.159 189.429 546.679 190.659C547.309 190.989 547.939 191.239 548.299 190.899C548.749 190.324 549.013 189.627 549.059 188.899C549.439 187.113 549.839 185.236 550.259 183.269C552.029 175.269 553.719 168.899 554.039 168.969C554.359 169.039 553.189 175.569 551.419 183.539C550.969 185.539 550.539 187.359 550.119 189.149C550.025 190.103 549.596 190.992 548.909 191.659C548.688 191.81 548.435 191.908 548.17 191.946C547.905 191.984 547.634 191.962 547.379 191.879C546.996 191.755 546.63 191.584 546.289 191.369C543.869 189.999 542.409 188.999 542.489 188.879Z" fill="#263238"/>
<path d="M524.121 215.579C524.121 215.579 514.461 210.579 507.711 196.579C507.711 196.579 502.241 210.789 520.291 221.349L524.121 215.579Z" fill="#FF9A6C"/>
<path d="M551 157.1C550.36 157.58 548.25 155.77 545.33 154.32C542.41 152.87 539.74 152.17 539.75 151.38C539.75 151 540.53 150.66 541.81 150.63C543.475 150.66 545.112 151.069 546.597 151.824C548.081 152.579 549.375 153.662 550.38 154.99C551.06 156.05 551.24 156.87 551 157.1Z" fill="#263238"/>
<path d="M572.689 172.26C571.939 172.52 570.689 170.93 568.809 169.65C566.929 168.37 565.059 167.65 565.039 166.9C565.039 166.53 565.649 166.17 566.689 166.14C568.029 166.146 569.334 166.573 570.419 167.36C571.53 168.117 572.379 169.2 572.849 170.46C573.169 171.44 572.999 172.12 572.689 172.26Z" fill="#263238"/>
<path d="M577.559 188.62C579.344 186.005 580.174 182.855 579.909 179.7C579.689 178 579.039 176.36 578.999 174.64C578.909 170.93 581.559 167.79 582.889 164.33C583.726 162.081 584.015 159.665 583.732 157.283C583.448 154.9 582.601 152.62 581.259 150.63C578.999 147.35 575.449 145.01 573.699 141.44C572.399 138.8 572.189 135.7 570.699 133.15C567.869 128.15 561.409 126.79 555.699 126.29C552.619 128.89 552.699 133.08 552.699 137.11C552.725 139.125 553.184 141.11 554.047 142.931C554.91 144.752 556.156 146.365 557.699 147.66C560.119 149.66 563.479 151.2 563.959 154.29C564.459 157.54 561.319 160.36 561.279 163.64C561.229 168.34 567.089 170.77 568.989 175.07C570.449 178.38 569.329 182.19 568.689 185.76C568.049 189.33 568.269 193.7 571.309 195.68C573.655 193.572 575.752 191.204 577.559 188.62Z" fill="#263238"/>
<path d="M557.89 136.619C550.553 131.154 542.226 127.164 533.37 124.869C530.74 124.189 527.89 123.669 525.37 124.699C523.16 125.599 521.56 127.539 520.18 129.499C515.88 135.609 512.96 144.799 511.18 152.079L515.48 162.079C522.31 164.909 526.9 152.909 530.27 147.659C532.968 148.197 535.763 147.967 538.337 146.994C540.911 146.022 543.161 144.347 544.83 142.159C547.284 142.281 549.733 141.846 551.995 140.887C554.257 139.927 556.272 138.468 557.89 136.619Z" fill="#263238"/>
<path d="M517 159.83C519.28 156.19 515.5 152.44 511.23 152.08C508.89 151.88 506.23 152.93 503.8 156.77C497.28 166.99 508.89 171.44 509.1 171.15C509.31 170.86 514.33 164.08 517 159.83Z" fill="#FFBF9D"/>
<path d="M508.439 165.29C508.439 165.22 508.179 165.29 507.789 165.29C507.249 165.203 506.765 164.908 506.439 164.47C505.609 163.38 505.799 161.09 506.919 159.21C507.454 158.317 508.182 157.556 509.049 156.98C509.349 156.722 509.706 156.541 510.091 156.453C510.476 156.364 510.877 156.37 511.259 156.47C511.499 156.545 511.705 156.703 511.84 156.915C511.975 157.127 512.032 157.38 511.999 157.63C511.999 158 511.759 158.16 511.809 158.22C511.859 158.28 512.129 158.22 512.319 157.71C512.42 157.418 512.42 157.101 512.319 156.81C512.172 156.418 511.878 156.099 511.499 155.92C511.026 155.739 510.514 155.68 510.012 155.75C509.511 155.82 509.035 156.016 508.629 156.32C507.625 156.925 506.786 157.771 506.189 158.78C504.939 160.88 504.759 163.48 505.969 164.85C506.193 165.104 506.47 165.306 506.782 165.439C507.093 165.572 507.43 165.634 507.769 165.62C508.259 165.52 508.459 165.33 508.439 165.29Z" fill="#FF9A6C"/>
<path d="M504.36 168.63C504.36 168.63 504.36 168.63 504.24 168.74C504.12 168.848 503.985 168.939 503.84 169.01C503.257 169.297 502.59 169.368 501.96 169.21C500.954 168.995 500.004 168.572 499.17 167.97C498.632 167.601 498.13 167.182 497.67 166.72C497.129 166.209 496.673 165.614 496.32 164.96H496.48C495.747 165.696 494.835 166.23 493.833 166.508C492.831 166.786 491.775 166.8 490.767 166.547C489.758 166.294 488.833 165.783 488.082 165.065C487.33 164.347 486.778 163.445 486.48 162.45L486.67 162.54C486.049 162.767 485.363 162.742 484.76 162.47C484.151 162.195 483.633 161.751 483.27 161.19C482.878 160.6 482.692 159.897 482.74 159.19C482.789 158.477 483.019 157.788 483.41 157.19C484.222 155.976 485.437 155.087 486.84 154.68C488.278 154.286 489.759 154.068 491.25 154.03L491.11 154.27C490.887 153.718 490.782 153.126 490.803 152.532C490.824 151.938 490.969 151.354 491.23 150.82C491.738 149.707 492.562 148.768 493.6 148.12C494.675 147.496 495.86 147.085 497.09 146.91C498.329 146.732 499.578 146.636 500.83 146.62L500.66 146.83C500.581 146.197 500.636 145.554 500.822 144.944C501.008 144.334 501.321 143.771 501.74 143.29C502.578 142.278 503.699 141.54 504.96 141.17C507.38 140.47 509.86 140.9 512.16 141.28L511.96 141.4C512.435 140.185 513.201 139.105 514.189 138.254C515.178 137.402 516.36 136.806 517.632 136.516C518.904 136.226 520.227 136.251 521.487 136.59C522.747 136.929 523.905 137.571 524.86 138.46L524.59 138.52C525.039 137.56 525.703 136.717 526.53 136.055C527.357 135.392 528.325 134.929 529.36 134.7C530.313 134.451 531.309 134.412 532.279 134.584C533.249 134.757 534.171 135.138 534.98 135.7H534.77C535.396 134.88 536.2 134.212 537.122 133.748C538.043 133.284 539.058 133.035 540.09 133.02C540.993 132.977 541.894 133.117 542.742 133.432C543.589 133.746 544.364 134.228 545.02 134.85H544.83C545.53 133.994 546.429 133.324 547.45 132.9C548.332 132.502 549.276 132.259 550.24 132.18C551.78 132.009 553.334 132.361 554.65 133.18L555.03 133.42C555.15 133.51 555.26 133.61 555.36 133.7C555.559 133.863 555.749 134.037 555.93 134.22C556.203 134.514 556.454 134.828 556.68 135.16C556.84 135.43 556.96 135.64 557.06 135.79L557.18 136.01C557.123 135.949 557.073 135.882 557.03 135.81L556.62 135.2C556.389 134.879 556.135 134.575 555.86 134.29C555.681 134.111 555.491 133.944 555.29 133.79L554.96 133.52L554.58 133.29C553.278 132.524 551.76 132.208 550.26 132.39C549.319 132.485 548.4 132.735 547.54 133.13C546.558 133.539 545.694 134.189 545.03 135.02L544.94 135.13L544.85 135.03C544.216 134.436 543.468 133.977 542.652 133.681C541.835 133.386 540.967 133.259 540.1 133.31C539.1 133.336 538.12 133.593 537.236 134.059C536.351 134.526 535.586 135.19 535 136L534.91 136.13L534.79 136.04C534.012 135.513 533.129 135.16 532.202 135.007C531.275 134.853 530.326 134.902 529.42 135.15C528.435 135.369 527.514 135.811 526.727 136.442C525.94 137.073 525.308 137.876 524.88 138.79L524.78 139.01L524.61 138.85C523.692 138.01 522.585 137.406 521.382 137.089C520.18 136.772 518.918 136.751 517.706 137.028C516.493 137.305 515.366 137.873 514.421 138.681C513.476 139.489 512.742 140.515 512.28 141.67V141.81H512.13C509.83 141.43 507.41 141.02 505.13 141.69C503.954 142.045 502.91 142.741 502.13 143.69C501.742 144.131 501.452 144.65 501.28 145.212C501.107 145.774 501.056 146.367 501.13 146.95V147.15H500.92C498.44 147.22 495.92 147.35 493.87 148.59C492.889 149.193 492.11 150.073 491.63 151.12C491.388 151.61 491.251 152.145 491.229 152.691C491.207 153.237 491.299 153.782 491.5 154.29L491.6 154.52H491.35C489.886 154.553 488.432 154.764 487.02 155.15C485.688 155.525 484.533 156.362 483.76 157.51C483.38 158.027 483.162 158.645 483.133 159.285C483.105 159.926 483.267 160.561 483.6 161.11C483.892 161.632 484.353 162.04 484.907 162.267C485.461 162.494 486.075 162.526 486.65 162.36L486.79 162.31L486.84 162.46C487.169 163.485 487.772 164.399 488.585 165.105C489.398 165.81 490.389 166.279 491.45 166.46C492.349 166.595 493.268 166.522 494.135 166.247C495.002 165.971 495.794 165.5 496.45 164.87L496.55 164.77L496.61 164.89C496.95 165.528 497.385 166.112 497.9 166.62C498.35 167.078 498.842 167.494 499.37 167.86C500.182 168.461 501.107 168.893 502.09 169.13C502.702 169.29 503.349 169.241 503.93 168.99C504.19 168.77 504.35 168.61 504.36 168.63Z" fill="#455A64"/>
<path d="M474.549 131.089C474.535 130.801 474.556 130.513 474.609 130.229C474.743 129.404 475.042 128.615 475.489 127.909C476.186 126.768 477.241 125.889 478.489 125.409C479.328 125.097 480.223 124.964 481.117 125.017C482.01 125.071 482.883 125.31 483.679 125.719H483.519C484.398 123.814 485.967 122.313 487.909 121.519C488.979 121.059 490.135 120.834 491.299 120.859C492.518 120.973 493.723 121.2 494.899 121.539C495.501 121.683 496.121 121.736 496.739 121.699C497.365 121.654 497.971 121.462 498.509 121.139C499.629 120.519 500.569 119.509 501.849 118.889C503.193 118.282 504.688 118.092 506.14 118.343C507.593 118.595 508.937 119.276 509.999 120.299H509.709C510.4 118.983 511.384 117.844 512.585 116.969C513.787 116.094 515.173 115.507 516.638 115.254C518.103 115.001 519.606 115.088 521.031 115.508C522.457 115.929 523.766 116.672 524.859 117.679H524.579C525.39 116.266 526.589 115.114 528.035 114.361C529.48 113.609 531.111 113.287 532.734 113.433C534.358 113.579 535.905 114.188 537.192 115.187C538.48 116.186 539.454 117.533 539.999 119.069L539.829 118.969C541.487 118.738 543.176 118.867 544.779 119.349C546.214 119.752 547.592 120.337 548.879 121.089C550.986 122.279 552.863 123.837 554.419 125.689C555.435 126.859 556.252 128.186 556.839 129.619C556.995 129.996 557.122 130.383 557.219 130.779C557.261 130.91 557.295 131.044 557.319 131.179C557.319 131.179 557.159 130.639 556.759 129.659C556.137 128.255 555.304 126.953 554.289 125.799C552.726 123.987 550.853 122.467 548.759 121.309C547.485 120.571 546.12 120.003 544.699 119.619C543.135 119.164 541.492 119.044 539.879 119.269H539.759V119.149C539.22 117.685 538.274 116.405 537.033 115.46C535.792 114.515 534.306 113.945 532.751 113.816C531.196 113.686 529.637 114.004 528.257 114.731C526.876 115.458 525.732 116.564 524.959 117.919L524.849 118.119L524.679 117.969C523.625 116.983 522.356 116.255 520.973 115.842C519.59 115.429 518.13 115.342 516.707 115.588C515.285 115.834 513.939 116.407 512.775 117.26C511.611 118.114 510.661 119.226 509.999 120.509L509.879 120.729L509.709 120.549C508.698 119.588 507.423 118.951 506.048 118.719C504.672 118.488 503.259 118.672 501.989 119.249C500.779 119.819 499.839 120.819 498.659 121.489C498.075 121.829 497.422 122.03 496.749 122.079C496.104 122.111 495.457 122.051 494.829 121.899C493.669 121.565 492.481 121.337 491.279 121.219C490.158 121.184 489.042 121.392 488.009 121.829C486.131 122.578 484.603 124.006 483.729 125.829L483.669 125.949L483.559 125.889C482.795 125.489 481.956 125.252 481.095 125.193C480.234 125.135 479.37 125.256 478.559 125.549C477.324 125.996 476.271 126.836 475.559 127.939C475.111 128.627 474.799 129.394 474.639 130.199C474.569 130.789 474.569 131.089 474.549 131.089Z" fill="#455A64"/>
<path d="M566.519 201.629C566.546 201.458 566.609 201.295 566.703 201.15C566.798 201.005 566.923 200.882 567.069 200.789C567.416 200.561 567.815 200.423 568.229 200.389C568.791 200.369 569.352 200.461 569.879 200.659C570.521 200.908 571.194 201.066 571.879 201.129C572.69 201.119 573.477 200.846 574.119 200.349C574.873 199.79 575.509 199.086 575.989 198.279C576.539 197.449 576.989 196.499 577.699 195.579C579.029 193.699 581.179 192.379 583.139 190.679C584.164 189.812 585.004 188.748 585.609 187.549C585.935 186.93 586.124 186.247 586.162 185.548C586.2 184.849 586.086 184.151 585.829 183.499C585.113 182.179 584.24 180.95 583.229 179.839C582.725 179.213 582.33 178.506 582.059 177.749C581.816 176.955 581.775 176.113 581.939 175.299C582.362 173.705 582.952 172.16 583.699 170.689C584.039 169.944 584.264 169.152 584.369 168.339C584.451 167.529 584.265 166.714 583.839 166.019C583.12 165.146 582.297 164.364 581.389 163.689C580.942 163.307 580.56 162.855 580.259 162.349C579.968 161.831 579.823 161.244 579.839 160.649C579.942 159.534 580.205 158.44 580.619 157.399C580.964 156.401 581.09 155.341 580.989 154.289C580.904 153.288 580.613 152.315 580.132 151.432C579.652 150.548 578.994 149.775 578.199 149.159C576.698 148.012 574.82 147.472 572.939 147.649H572.719V147.429C573.03 145.821 572.995 144.165 572.616 142.572C572.236 140.979 571.521 139.485 570.519 138.189C569.677 137.112 568.635 136.209 567.449 135.529C566.448 134.941 565.351 134.535 564.209 134.329C562.595 134.056 560.936 134.251 559.429 134.889C559.031 135.052 558.646 135.246 558.279 135.469L557.989 135.619H557.879L557.969 135.549L558.249 135.369C558.613 135.131 558.998 134.927 559.399 134.759C560.911 134.065 562.596 133.836 564.239 134.099C565.409 134.289 566.535 134.693 567.559 135.289C568.779 135.973 569.856 136.887 570.729 137.979C571.765 139.303 572.506 140.832 572.903 142.466C573.3 144.099 573.343 145.798 573.029 147.449L572.849 147.259C574.813 147.059 576.779 147.613 578.349 148.809C579.194 149.447 579.898 150.254 580.414 151.179C580.93 152.103 581.249 153.125 581.349 154.179C581.452 155.274 581.323 156.378 580.969 157.419C580.57 158.429 580.311 159.489 580.199 160.569C580.214 161.109 580.351 161.638 580.599 162.117C580.846 162.597 581.198 163.014 581.629 163.339C582.571 164.025 583.418 164.832 584.149 165.739C584.614 166.504 584.818 167.399 584.729 168.289C584.629 169.14 584.396 169.971 584.039 170.749C583.302 172.198 582.719 173.719 582.299 175.289C582.136 176.042 582.171 176.824 582.399 177.559C582.657 178.282 583.032 178.958 583.509 179.559C584.539 180.691 585.422 181.948 586.139 183.299C586.438 183.999 586.558 184.762 586.489 185.519C586.422 186.25 586.222 186.961 585.899 187.619C585.277 188.855 584.409 189.951 583.349 190.839C581.349 192.559 579.209 193.839 577.909 195.659C577.259 196.559 576.749 197.499 576.189 198.339C575.664 199.164 574.985 199.881 574.189 200.449C573.506 200.963 572.673 201.237 571.819 201.229C571.131 201.164 570.457 200.996 569.819 200.729C569.311 200.525 568.767 200.423 568.219 200.429C567.819 200.45 567.43 200.57 567.089 200.779C566.803 200.985 566.6 201.287 566.519 201.629Z" fill="#455A64"/>
<path d="M596.571 200.199C596.557 200.113 596.557 200.026 596.571 199.939L596.701 199.189C596.821 198.519 597.001 197.559 597.231 196.329C597.461 195.099 597.781 193.579 597.981 191.799C598.295 189.802 598.038 187.757 597.241 185.899C596.761 184.899 596.051 183.899 595.421 182.899C595.088 182.353 594.829 181.764 594.651 181.149C594.461 180.499 594.433 179.813 594.571 179.149C594.841 177.799 595.661 176.629 596.051 175.309C596.251 174.658 596.251 173.961 596.051 173.309C595.806 172.63 595.451 171.995 595.001 171.429C594.523 170.83 594.101 170.187 593.741 169.509C593.388 168.78 593.27 167.959 593.401 167.159C593.839 165.606 594.484 164.119 595.321 162.739C595.692 162.036 595.913 161.263 595.971 160.469C595.982 160.075 595.916 159.682 595.775 159.313C595.634 158.944 595.422 158.606 595.151 158.319C594.051 157.109 592.341 156.559 591.071 155.319C590.444 154.67 590.035 153.842 589.901 152.949C589.8 152.096 589.8 151.233 589.901 150.379C589.971 149.539 590.061 148.709 590.051 147.899C590.06 147.109 589.871 146.328 589.501 145.629C588.721 144.239 587.181 143.569 585.761 142.979C584.27 142.488 582.904 141.676 581.761 140.599C580.809 139.471 580.073 138.175 579.591 136.779C579.182 135.472 578.649 134.206 578.001 132.999C576.575 131.004 574.592 129.473 572.301 128.599C570.42 127.858 568.396 127.554 566.381 127.709C564.86 127.843 563.369 128.21 561.961 128.799C561.076 129.185 560.226 129.647 559.421 130.179L558.781 130.579L558.551 130.709L558.761 130.549L559.381 130.109C560.178 129.552 561.025 129.07 561.911 128.669C563.327 128.047 564.832 127.652 566.371 127.499C568.41 127.324 570.463 127.618 572.371 128.359C574.72 129.239 576.755 130.794 578.221 132.829C578.935 134.015 579.532 135.267 580.001 136.569C580.477 137.924 581.195 139.181 582.121 140.279C583.224 141.309 584.538 142.086 585.971 142.559C586.713 142.855 587.432 143.206 588.121 143.609C588.861 144.024 589.473 144.634 589.889 145.373C590.305 146.112 590.51 146.952 590.481 147.799C590.48 148.641 590.433 149.483 590.341 150.319C590.241 151.143 590.241 151.976 590.341 152.799C590.454 153.617 590.826 154.377 591.401 154.969C592.581 156.159 594.291 156.709 595.491 157.969C596.1 158.621 596.428 159.488 596.401 160.379C596.343 161.222 596.108 162.044 595.711 162.789C595.021 164.269 594.071 165.609 593.821 167.109C593.695 167.844 593.804 168.6 594.131 169.269C594.477 169.928 594.882 170.554 595.341 171.139C595.821 171.737 596.194 172.414 596.441 173.139C596.666 173.859 596.666 174.63 596.441 175.349C596.021 176.739 595.211 177.889 594.951 179.159C594.753 180.405 595.04 181.678 595.751 182.719C596.351 183.779 597.071 184.719 597.561 185.779C598.353 187.674 598.599 189.752 598.271 191.779C598.051 193.569 597.691 195.079 597.451 196.319C597.211 197.559 596.991 198.489 596.851 199.169C596.781 199.479 596.731 199.719 596.691 199.909C596.663 200.011 596.623 200.108 596.571 200.199Z" fill="#455A64"/>
<path d="M593.55 182.369L593.75 182.469C593.935 182.594 594.086 182.762 594.19 182.959C594.347 183.359 594.403 183.792 594.354 184.219C594.305 184.646 594.153 185.054 593.91 185.409C593.548 185.901 593.121 186.342 592.64 186.719C592.076 187.154 591.574 187.666 591.15 188.239C590.749 188.943 590.538 189.739 590.54 190.549C590.54 191.419 590.54 192.349 590.44 193.339C590.404 193.871 590.246 194.387 589.979 194.848C589.712 195.309 589.343 195.703 588.9 195.999C587.98 196.609 586.9 196.869 585.95 197.499C585.039 198.215 584.438 199.253 584.27 200.399C584 201.569 583.92 202.839 583.57 204.109C583.409 204.762 583.127 205.379 582.74 205.929C582.323 206.482 581.795 206.941 581.19 207.279C579.942 207.883 578.639 208.369 577.3 208.729C575.951 209.078 574.78 209.92 574.02 211.089C573.452 212.426 573.046 213.826 572.81 215.259C572.624 216 572.305 216.701 571.87 217.329C571.408 217.936 570.813 218.428 570.13 218.769C568.806 219.337 567.42 219.75 566 219.999C564.666 220.255 563.397 220.779 562.27 221.539C561.25 222.388 560.171 223.163 559.04 223.859C558.46 224.18 557.813 224.358 557.15 224.379C556.513 224.379 555.88 224.267 555.28 224.049C554.72 223.85 554.149 223.683 553.57 223.549C553.008 223.458 552.437 223.441 551.87 223.499C550.794 223.677 549.746 223.993 548.75 224.439C547.75 224.849 546.83 225.259 545.89 225.569C544.189 226.134 542.351 226.134 540.65 225.569C539.371 225.17 538.198 224.486 537.22 223.569C536.604 222.988 536.085 222.313 535.68 221.569C535.538 221.313 535.418 221.045 535.32 220.769C535.818 221.777 536.496 222.685 537.32 223.449C538.294 224.333 539.452 224.989 540.71 225.369C542.378 225.88 544.164 225.845 545.81 225.269C546.73 224.959 547.65 224.549 548.64 224.129C549.658 223.656 550.734 223.32 551.84 223.129C552.431 223.044 553.03 223.044 553.62 223.129C554.213 223.259 554.798 223.426 555.37 223.629C555.938 223.835 556.537 223.94 557.14 223.939C557.754 223.912 558.352 223.745 558.89 223.449C560.001 222.751 561.063 221.979 562.07 221.139C563.229 220.352 564.535 219.808 565.91 219.539C567.286 219.288 568.628 218.879 569.91 218.319C570.544 218.008 571.095 217.552 571.52 216.989C571.933 216.403 572.231 215.745 572.4 215.049C572.644 213.584 573.063 212.153 573.65 210.789C574.019 210.14 574.541 209.59 575.17 209.189C575.797 208.802 576.468 208.493 577.17 208.269C578.48 207.953 579.761 207.528 581 206.999C581.559 206.679 582.049 206.251 582.44 205.739C582.803 205.221 583.071 204.642 583.23 204.029C583.57 202.809 583.65 201.549 583.93 200.349C584.123 199.126 584.778 198.023 585.76 197.269C586.76 196.599 587.86 196.349 588.76 195.779C589.172 195.508 589.516 195.146 589.765 194.722C590.015 194.297 590.164 193.82 590.2 193.329C590.32 192.389 590.26 191.449 590.32 190.569C590.33 189.72 590.565 188.888 591 188.159C591.436 187.573 591.955 187.055 592.54 186.619C593.021 186.261 593.449 185.837 593.81 185.359C594.05 185.025 594.205 184.637 594.263 184.23C594.32 183.822 594.278 183.407 594.14 183.019C594.01 182.75 593.805 182.524 593.55 182.369Z" fill="#455A64"/>
<path d="M533.059 187.069C533.423 186.852 533.856 186.782 534.269 186.875C534.683 186.968 535.044 187.217 535.279 187.569C536.779 189.799 538.279 192.029 539.789 194.269L540.299 195.009C539.087 196.055 537.742 196.936 536.299 197.629C535.673 197.92 534.99 198.071 534.299 198.071C533.609 198.071 532.926 197.92 532.299 197.629C531.343 197.036 530.6 196.153 530.179 195.109C529.489 193.419 528.929 191.689 529.699 190.039C530.259 188.829 531.999 187.749 533.059 187.069Z" fill="#FF9A6C"/>
<path d="M499.72 162.82C499.043 162.636 498.34 162.565 497.64 162.61C495.694 162.697 493.842 163.477 492.42 164.81C491.427 165.715 490.657 166.837 490.17 168.09C489.637 169.536 489.452 171.088 489.63 172.62C489.815 174.317 490.431 175.938 491.42 177.33C492.494 178.827 493.997 179.964 495.73 180.59C497.452 181.233 499.32 181.378 501.12 181.01C502.799 180.663 504.342 179.836 505.56 178.63C506.588 177.619 507.369 176.385 507.844 175.024C508.319 173.663 508.475 172.211 508.3 170.78C508.112 169.69 507.708 168.65 507.11 167.72C506.678 167.013 506.149 166.371 505.54 165.81C505.152 165.458 504.714 165.165 504.24 164.94C504.08 164.85 503.903 164.796 503.72 164.78C504.347 165.07 504.918 165.465 505.41 165.95C506.755 167.265 507.653 168.968 507.98 170.82C508.125 172.196 507.955 173.587 507.484 174.888C507.013 176.188 506.252 177.365 505.26 178.33C504.095 179.468 502.626 180.245 501.03 180.57C499.311 180.908 497.532 180.763 495.89 180.15C494.246 179.557 492.817 178.484 491.79 177.07C490.839 175.741 490.24 174.193 490.05 172.57C489.869 171.102 490.033 169.612 490.53 168.22C490.983 167.016 491.705 165.932 492.64 165.05C494.002 163.75 495.765 162.953 497.64 162.79C499 162.7 499.71 162.88 499.72 162.82Z" fill="#E0E0E0"/>
<path d="M540.21 170.69C539.84 171.268 539.257 171.679 538.587 171.832C537.918 171.985 537.215 171.87 536.63 171.51C536.333 171.351 536.071 171.134 535.859 170.872C535.648 170.611 535.491 170.309 535.397 169.986C535.304 169.662 535.277 169.324 535.317 168.989C535.356 168.655 535.463 168.332 535.63 168.04C536.002 167.463 536.584 167.055 537.253 166.901C537.922 166.748 538.624 166.862 539.21 167.22C539.509 167.377 539.772 167.592 539.986 167.854C540.199 168.115 540.357 168.417 540.45 168.741C540.544 169.066 540.571 169.405 540.529 169.74C540.488 170.075 540.379 170.398 540.21 170.69Z" fill="#263238"/>
<path d="M561.111 185.279C560.737 185.854 560.155 186.261 559.487 186.414C558.819 186.567 558.117 186.454 557.531 186.099C557.234 185.939 556.971 185.722 556.76 185.459C556.548 185.196 556.391 184.894 556.298 184.57C556.204 184.246 556.177 183.906 556.217 183.571C556.257 183.236 556.364 182.912 556.531 182.619C556.904 182.045 557.487 181.638 558.155 181.485C558.823 181.332 559.524 181.444 560.111 181.799C560.408 181.959 560.67 182.177 560.882 182.439C561.093 182.702 561.251 183.004 561.344 183.329C561.437 183.653 561.464 183.992 561.424 184.327C561.384 184.662 561.278 184.986 561.111 185.279Z" fill="#263238"/>
<path d="M567.089 179.52C566.659 179.7 565.829 177.41 563.569 176.13C561.309 174.85 558.919 175.24 558.859 174.77C558.859 174.56 559.399 174.13 560.459 173.93C561.827 173.68 563.24 173.923 564.445 174.617C565.65 175.312 566.569 176.411 567.039 177.72C567.389 178.74 567.299 179.45 567.089 179.52Z" fill="#263238"/>
<path d="M545.859 166.79C545.329 166.91 544.549 164.22 542.009 162.42C539.469 160.62 536.669 160.67 536.629 160.14C536.629 159.89 537.309 159.51 538.569 159.45C540.216 159.408 541.832 159.907 543.169 160.87C544.497 161.822 545.468 163.192 545.929 164.76C546.259 166 546.099 166.74 545.859 166.79Z" fill="#263238"/>
<path d="M534.26 197.829C534.26 197.829 533.9 197.969 533.26 197.829C532.321 197.601 531.475 197.088 530.84 196.359C529.869 195.31 529.226 193.999 528.99 192.589C528.837 191.727 528.935 190.838 529.27 190.029C529.655 189.189 530.226 188.446 530.94 187.859C531.624 187.29 532.373 186.803 533.17 186.409C533.392 186.271 533.641 186.183 533.9 186.15C534.158 186.117 534.421 186.141 534.67 186.219C535.103 186.436 535.454 186.787 535.67 187.219L537.83 190.659C538.541 191.704 539.135 192.824 539.6 193.999C538.723 193.089 537.952 192.082 537.3 190.999C536.58 189.999 535.81 188.849 534.99 187.659C534.55 186.939 534.23 186.769 533.51 187.159C532.773 187.539 532.079 187.999 531.44 188.529C530.823 188.983 530.337 189.592 530.031 190.295C529.726 190.997 529.612 191.768 529.7 192.529C529.897 193.808 530.428 195.012 531.24 196.019C531.785 196.708 532.502 197.24 533.32 197.559C533.9 197.749 534.27 197.759 534.26 197.829Z" fill="#263238"/>
<path d="M624.85 158.929C624.471 157.708 623.948 156.536 623.29 155.439C622.472 154.195 621.428 153.116 620.21 152.259C618.61 151.13 616.733 150.456 614.78 150.309H614.47V149.989C614.661 147.393 613.833 144.824 612.16 142.829C611.245 141.653 610.081 140.693 608.752 140.019C607.422 139.344 605.96 138.972 604.47 138.929H604.08V138.539C603.997 134.354 602.311 130.359 599.37 127.379C597.067 125.074 594.103 123.543 590.89 122.999C587.954 122.489 584.935 122.794 582.16 123.879L581.98 123.949L581.81 123.839C578.992 121.95 575.811 120.669 572.47 120.079C569.87 119.598 567.212 119.527 564.59 119.869C562.283 120.22 560.018 120.807 557.83 121.619C557.83 121.619 557.96 121.519 558.24 121.379C558.52 121.239 558.94 121.019 559.5 120.799C561.111 120.161 562.788 119.701 564.5 119.429C567.166 118.999 569.884 118.999 572.55 119.429C575.995 119.99 579.284 121.271 582.2 123.189H581.85C584.745 122.014 587.91 121.668 590.99 122.189C594.375 122.738 597.5 124.34 599.92 126.769C603.016 129.895 604.78 134.1 604.84 138.499L604.45 138.109C606.053 138.164 607.624 138.572 609.05 139.305C610.476 140.038 611.723 141.078 612.7 142.349C614.47 144.487 615.331 147.234 615.1 149.999L614.82 149.669C616.876 149.847 618.841 150.599 620.49 151.839C621.735 152.75 622.782 153.903 623.57 155.229C624.068 156.062 624.445 156.961 624.69 157.899C624.783 158.236 624.836 158.581 624.85 158.929Z" fill="#263238"/>
<path d="M560.791 107.4C559.755 107.225 558.772 106.822 557.911 106.22C556.687 105.431 555.634 104.405 554.813 103.203C553.992 102.001 553.42 100.647 553.131 99.22C552.735 97.1986 552.969 95.1044 553.801 93.22C554.746 91.0443 556.352 89.2214 558.391 88.01C560.703 86.7063 563.429 86.3445 566.001 87C568.814 87.6549 571.256 89.3898 572.801 91.83L572.351 91.64C574.105 91.2252 575.948 91.4264 577.571 92.21C578.961 92.8359 580.148 93.8366 581.001 95.1C581.788 96.3445 582.178 97.7987 582.121 99.27C582.084 100.654 581.692 102.005 580.983 103.194C580.274 104.383 579.271 105.37 578.071 106.06L577.921 105.34C579.001 105.466 580.034 105.856 580.929 106.475C581.823 107.094 582.552 107.923 583.051 108.89C583.526 109.748 583.811 110.699 583.887 111.677C583.963 112.655 583.828 113.639 583.491 114.56C582.934 116.052 581.984 117.365 580.741 118.36C579.498 119.355 578.008 119.994 576.431 120.21C574.387 120.486 572.307 120.177 570.431 119.32C569.937 119.108 569.462 118.853 569.011 118.56C568.711 118.35 568.561 118.24 568.571 118.22C568.581 118.2 569.231 118.6 570.521 119.09C572.358 119.82 574.357 120.044 576.311 119.74C577.781 119.509 579.162 118.886 580.309 117.938C581.456 116.99 582.327 115.75 582.831 114.35C583.125 113.515 583.236 112.627 583.157 111.745C583.078 110.863 582.81 110.009 582.371 109.24C581.924 108.385 581.275 107.651 580.48 107.104C579.686 106.557 578.769 106.212 577.811 106.1L576.521 106L577.651 105.38C578.727 104.751 579.624 103.858 580.257 102.785C580.891 101.713 581.24 100.496 581.271 99.25C581.315 97.9412 580.967 96.6491 580.271 95.54C579.525 94.42 578.488 93.5245 577.271 92.95C575.819 92.2485 574.171 92.065 572.601 92.43L572.311 92.51L572.151 92.25C570.724 89.9906 568.47 88.3791 565.871 87.76C563.479 87.1418 560.941 87.4751 558.791 88.69C556.865 89.8083 555.337 91.5005 554.421 93.53C553.62 95.2844 553.369 97.2402 553.701 99.14C554.224 101.905 555.806 104.355 558.111 105.97C558.954 106.535 559.852 107.014 560.791 107.4Z" fill="#263238"/>
<path d="M495.66 99.1698C495.663 98.9969 495.69 98.8252 495.74 98.6598C495.851 98.1782 496.001 97.7066 496.19 97.2498C496.894 95.5068 497.973 93.9398 499.35 92.6598C501.452 90.6574 504.177 89.4362 507.07 89.1998C508.901 89.0609 510.741 89.297 512.478 89.8936C514.215 90.4903 515.811 91.4349 517.17 92.6698L516.72 92.6098C520.129 90.8085 524.071 90.2905 527.83 91.1498C530.661 91.8199 533.248 93.2677 535.3 95.3298C537.172 97.2101 538.546 99.5263 539.3 102.07L538.99 101.81C541.962 102.226 544.78 103.389 547.18 105.19C549.041 106.572 550.625 108.292 551.85 110.26C552.642 111.53 553.254 112.903 553.67 114.34C553.83 114.844 553.934 115.363 553.98 115.89C553.366 113.998 552.523 112.188 551.47 110.5C550.229 108.624 548.653 106.993 546.82 105.69C544.483 103.999 541.761 102.916 538.9 102.54H538.66L538.59 102.31C537.845 99.8992 536.52 97.7084 534.73 95.9298C532.79 93.962 530.337 92.5764 527.65 91.9298C524.081 91.1128 520.339 91.5913 517.09 93.2798L516.84 93.4098L516.64 93.2198C515.361 92.0472 513.859 91.1443 512.223 90.5653C510.588 89.9863 508.852 89.743 507.12 89.8498C504.358 90.039 501.739 91.148 499.68 92.9998C498.314 94.2078 497.209 95.681 496.43 97.3298C495.89 98.5098 495.72 99.1898 495.66 99.1698Z" fill="#263238"/>
<path d="M434.35 174.279C434.35 174.279 435.43 172.359 443.76 173.449C452.09 174.539 485.09 197.389 485.09 197.389C485.09 197.389 479.09 220.999 497.24 225.499C510.46 228.779 517.47 225.089 517.47 225.089C517.47 225.089 539.6 252.609 541.41 263.829C541.41 263.829 434.76 338.449 452.07 330.339L434.35 330.539V174.279Z" fill="#FF6D38"/>
<path d="M539.681 258.779C539.971 259.569 544.101 264.489 540.011 286.409C536.291 306.319 520.011 326.409 520.011 326.409L487.551 297.199L539.681 258.779Z" fill="#FF6D38"/>
<path d="M522.749 274.39C522.6 274.57 522.433 274.734 522.249 274.88L520.759 276.18C519.439 277.29 517.519 278.88 515.109 280.8C510.299 284.64 503.579 289.85 496.109 295.53C488.639 301.21 481.809 306.3 476.859 310L470.979 314.3L469.359 315.45C469.182 315.596 468.987 315.72 468.779 315.82C468.939 315.654 469.113 315.504 469.299 315.37L470.859 314.14L476.639 309.71L495.789 295.16C503.269 289.48 510.019 284.32 514.879 280.55L520.629 276.06L522.179 274.84C522.355 274.673 522.546 274.522 522.749 274.39Z" fill="#263238"/>
<path d="M468.78 85.8398H232.57V414.15H468.78V85.8398Z" fill="white"/>
<path d="M468.78 85.8398H232.57V204.67H468.78V85.8398Z" fill="#FF6D38"/>
<path d="M444.17 95.3594H402.19C395.96 95.3594 390.91 100.41 390.91 106.639V107.809C390.91 114.039 395.96 119.089 402.19 119.089H444.17C450.4 119.089 455.45 114.039 455.45 107.809V106.639C455.45 100.41 450.4 95.3594 444.17 95.3594Z" fill="#263238"/>
<path d="M427.88 233.77C427.88 233.91 395.4 234.03 355.36 234.03C315.32 234.03 282.82 233.91 282.82 233.77C282.82 233.63 315.29 233.51 355.36 233.51C395.43 233.51 427.88 233.62 427.88 233.77Z" fill="#263238"/>
<path d="M427.88 265.77C427.88 265.91 395.4 266.03 355.36 266.03C315.32 266.03 282.82 265.91 282.82 265.77C282.82 265.63 315.29 265.51 355.36 265.51C395.43 265.51 427.88 265.63 427.88 265.77Z" fill="#263238"/>
<path d="M427.88 297.78C427.88 297.92 395.4 298.04 355.36 298.04C315.32 298.04 282.82 297.92 282.82 297.78C282.82 297.64 315.29 297.52 355.36 297.52C395.43 297.52 427.88 297.63 427.88 297.78Z" fill="#263238"/>
<path d="M427.279 334.67H285.389C271.438 334.67 260.129 345.979 260.129 359.93V362.58C260.129 376.531 271.438 387.84 285.389 387.84H427.279C441.23 387.84 452.539 376.531 452.539 362.58V359.93C452.539 345.979 441.23 334.67 427.279 334.67Z" fill="#FF6D38"/>
<path d="M294.33 186.289C293.289 186.048 292.3 185.621 291.41 185.029L292.87 181.759C293.629 182.249 294.454 182.626 295.32 182.879C296.207 183.156 297.131 183.301 298.06 183.309C299.76 183.309 300.62 182.879 300.62 182.029C300.619 181.807 300.547 181.591 300.416 181.412C300.285 181.232 300.101 181.098 299.89 181.029C299.13 180.727 298.343 180.496 297.54 180.339C296.521 180.142 295.518 179.868 294.54 179.519C293.75 179.232 293.045 178.751 292.49 178.119C291.896 177.387 291.593 176.461 291.64 175.519C291.628 174.592 291.904 173.683 292.43 172.919C293.017 172.096 293.83 171.46 294.77 171.089C295.988 170.609 297.291 170.381 298.6 170.419C299.627 170.42 300.65 170.538 301.65 170.769C302.58 170.963 303.474 171.3 304.3 171.769L302.93 175.069C301.605 174.307 300.109 173.891 298.58 173.859C297.913 173.809 297.245 173.944 296.65 174.249C296.469 174.347 296.317 174.491 296.21 174.667C296.102 174.842 296.044 175.043 296.04 175.249C296.044 175.462 296.117 175.668 296.246 175.837C296.376 176.006 296.556 176.13 296.76 176.189C297.509 176.478 298.282 176.699 299.07 176.849C300.088 177.047 301.091 177.318 302.07 177.659C302.837 177.963 303.523 178.442 304.07 179.059C304.678 179.78 304.986 180.708 304.93 181.649C304.94 182.562 304.667 183.456 304.15 184.209C303.55 185.027 302.732 185.661 301.79 186.039C300.576 186.522 299.276 186.753 297.97 186.719C296.743 186.733 295.52 186.588 294.33 186.289Z" fill="white"/>
<path d="M310.16 174.259H305.33V170.729H319.41V174.259H314.6V186.449H310.16V174.259Z" fill="white"/>
<path d="M330.81 183.4H324.17L322.93 186.4H318.4L325.33 170.68H329.71L336.71 186.4H332.09L330.81 183.4ZM329.51 180.12L327.51 175.12L325.51 180.12H329.51Z" fill="white"/>
<path d="M352.88 170.729V186.449H349.22L342.28 178.079V186.449H337.93V170.729H341.59L348.52 179.109V170.729H352.88Z" fill="white"/>
<path d="M356 170.729H363.43C365.013 170.711 366.579 171.053 368.01 171.729C369.287 172.323 370.364 173.275 371.11 174.469C371.831 175.734 372.21 177.164 372.21 178.619C372.21 180.075 371.831 181.505 371.11 182.769C370.367 183.966 369.289 184.919 368.01 185.509C366.58 186.19 365.013 186.532 363.43 186.509H356V170.729ZM363.25 182.899C364.44 182.955 365.606 182.547 366.5 181.759C367.284 180.892 367.718 179.764 367.718 178.594C367.718 177.425 367.284 176.297 366.5 175.429C365.609 174.634 364.442 174.221 363.25 174.279H360.45V182.899H363.25Z" fill="white"/>
<path d="M384.869 183.4H378.229L376.989 186.4H372.459L379.389 170.68H383.769L390.769 186.4H386.099L384.869 183.4ZM383.569 180.12L381.569 175.12L379.569 180.12H383.569Z" fill="white"/>
<path d="M398.86 182.27H396.43V186.45H392V170.73H399.18C400.45 170.703 401.711 170.945 402.88 171.44C403.884 171.854 404.736 172.566 405.322 173.479C405.909 174.393 406.201 175.465 406.16 176.55C406.208 177.595 405.941 178.63 405.394 179.522C404.847 180.413 404.044 181.12 403.09 181.55L406.48 186.49H401.72L398.86 182.27ZM400.97 174.84C400.373 174.4 399.639 174.187 398.9 174.24H396.43V178.84H398.9C399.639 178.892 400.373 178.679 400.97 178.24C401.205 178.028 401.389 177.766 401.508 177.473C401.628 177.181 401.68 176.865 401.66 176.55C401.681 176.234 401.633 175.917 401.519 175.621C401.405 175.326 401.228 175.059 401 174.84H400.97Z" fill="white"/>
<path d="M408.6 170.729H416C417.582 170.711 419.148 171.053 420.58 171.729C421.855 172.325 422.931 173.277 423.68 174.469C424.4 175.734 424.779 177.164 424.779 178.619C424.779 180.075 424.4 181.505 423.68 182.769C422.934 183.964 421.857 184.916 420.58 185.509C419.15 186.19 417.583 186.532 416 186.509H408.6V170.729ZM415.85 182.899C417.037 182.958 418.201 182.549 419.09 181.759C419.88 180.895 420.319 179.766 420.319 178.594C420.319 177.423 419.88 176.294 419.09 175.429C418.204 174.633 417.039 174.22 415.85 174.279H413V182.899H415.85Z" fill="white"/>
<path d="M410.999 104.419C411.289 104.556 411.546 104.751 411.756 104.993C411.966 105.235 412.123 105.517 412.217 105.823C412.311 106.129 412.34 106.451 412.303 106.769C412.265 107.087 412.162 107.394 411.999 107.669C411.753 108.028 411.405 108.303 410.999 108.459C410.538 108.657 410.04 108.753 409.539 108.739H408.259V110.489H406.789V104.139H409.539C410.04 104.131 410.537 104.226 410.999 104.419ZM410.459 107.259C410.575 107.16 410.668 107.035 410.728 106.895C410.789 106.754 410.817 106.602 410.809 106.449C410.82 106.293 410.794 106.137 410.733 105.993C410.672 105.848 410.578 105.721 410.459 105.619C410.168 105.413 409.815 105.314 409.459 105.339H408.269V107.539H409.459C409.805 107.558 410.146 107.459 410.429 107.259H410.459Z" fill="white"/>
<path d="M414.139 110.24C413.727 110.046 413.379 109.737 413.139 109.35C412.91 108.955 412.789 108.506 412.789 108.05C412.789 107.593 412.91 107.144 413.139 106.75C413.382 106.365 413.729 106.057 414.139 105.86C414.569 105.649 415.041 105.54 415.519 105.54C415.997 105.54 416.469 105.649 416.899 105.86C417.198 106.018 417.463 106.236 417.676 106.499C417.89 106.762 418.048 107.066 418.141 107.392C418.235 107.718 418.261 108.059 418.22 108.395C418.178 108.732 418.069 109.056 417.899 109.35C417.657 109.735 417.31 110.044 416.899 110.24C416.469 110.45 415.997 110.559 415.519 110.559C415.041 110.559 414.569 110.45 414.139 110.24ZM416.409 109.03C416.645 108.75 416.775 108.396 416.775 108.03C416.775 107.663 416.645 107.309 416.409 107.03C416.296 106.908 416.158 106.812 416.004 106.748C415.851 106.684 415.685 106.654 415.519 106.66C415.351 106.654 415.185 106.685 415.029 106.748C414.874 106.812 414.734 106.908 414.619 107.03C414.383 107.309 414.253 107.663 414.253 108.03C414.253 108.396 414.383 108.75 414.619 109.03C414.734 109.151 414.874 109.247 415.029 109.311C415.185 109.375 415.351 109.405 415.519 109.4C415.687 109.402 415.854 109.367 416.008 109.298C416.162 109.229 416.299 109.127 416.409 109V109.03Z" fill="white"/>
<path d="M423.261 105.849C423.633 106.052 423.939 106.357 424.141 106.729C424.351 107.138 424.461 107.59 424.461 108.049C424.461 108.509 424.351 108.961 424.141 109.369C423.939 109.742 423.633 110.047 423.261 110.249C422.885 110.459 422.461 110.566 422.031 110.559C421.757 110.577 421.483 110.533 421.229 110.431C420.975 110.329 420.746 110.171 420.561 109.969V112.249H419.141V105.609H420.491V106.169C420.682 105.954 420.921 105.785 421.188 105.676C421.454 105.567 421.743 105.52 422.031 105.539C422.461 105.533 422.885 105.639 423.261 105.849ZM422.671 109.029C422.907 108.75 423.036 108.396 423.036 108.029C423.036 107.663 422.907 107.309 422.671 107.029C422.434 106.794 422.114 106.661 421.781 106.661C421.447 106.661 421.127 106.794 420.891 107.029C420.654 107.309 420.525 107.663 420.525 108.029C420.525 108.396 420.654 108.75 420.891 109.029C421.127 109.265 421.447 109.398 421.781 109.398C422.114 109.398 422.434 109.265 422.671 109.029Z" fill="white"/>
<path d="M430.32 105.61V110.49H429V109.91C428.815 110.119 428.586 110.287 428.33 110.4C428.064 110.509 427.778 110.564 427.49 110.56C427.211 110.574 426.932 110.533 426.67 110.439C426.407 110.344 426.166 110.198 425.96 110.01C425.762 109.787 425.61 109.528 425.514 109.246C425.418 108.965 425.379 108.667 425.4 108.37V105.61H426.82V108.16C426.82 108.95 427.15 109.34 427.82 109.34C427.971 109.345 428.121 109.319 428.261 109.262C428.4 109.205 428.526 109.119 428.63 109.01C428.861 108.73 428.972 108.371 428.94 108.01V105.6L430.32 105.61Z" fill="white"/>
<path d="M431.629 103.76H433.049V110.49H431.629V103.76Z" fill="white"/>
<path d="M438.07 106.08C438.288 106.288 438.456 106.543 438.562 106.825C438.667 107.107 438.708 107.41 438.68 107.71V110.49H437.36V109.88C437.197 110.119 436.973 110.308 436.71 110.428C436.447 110.548 436.157 110.594 435.87 110.56C435.527 110.572 435.185 110.507 434.87 110.37C434.615 110.259 434.397 110.079 434.24 109.85C434.095 109.619 434.019 109.352 434.02 109.08C434.014 108.873 434.059 108.668 434.149 108.481C434.24 108.295 434.374 108.133 434.54 108.01C435.012 107.715 435.565 107.578 436.12 107.62H437.24C437.248 107.488 437.226 107.357 437.178 107.234C437.13 107.112 437.055 107.001 436.96 106.91C436.719 106.729 436.421 106.64 436.12 106.66C435.858 106.658 435.597 106.702 435.35 106.79C435.118 106.86 434.902 106.972 434.71 107.12L434.21 106.12C434.499 105.92 434.821 105.771 435.16 105.68C435.535 105.58 435.922 105.529 436.31 105.53C436.945 105.484 437.574 105.681 438.07 106.08ZM436.87 109.44C437.056 109.331 437.195 109.156 437.26 108.95V108.45H436.26C435.68 108.45 435.39 108.64 435.39 109.02C435.386 109.104 435.405 109.189 435.443 109.264C435.482 109.339 435.539 109.403 435.61 109.45C435.78 109.567 435.984 109.624 436.19 109.61C436.429 109.623 436.666 109.564 436.87 109.44Z" fill="white"/>
<path d="M442 105.72C442.318 105.594 442.658 105.533 443 105.54V106.84H442.68C442.507 106.829 442.334 106.854 442.17 106.913C442.007 106.971 441.857 107.062 441.73 107.18C441.607 107.314 441.513 107.472 441.453 107.644C441.393 107.816 441.368 107.998 441.38 108.18V110.48H440V105.6H441.35V106.24C441.518 106.013 441.742 105.834 442 105.72Z" fill="white"/>
<path d="M320.29 366.64C319.116 366.018 318.137 365.083 317.46 363.94C316.779 362.755 316.42 361.412 316.42 360.045C316.42 358.678 316.779 357.335 317.46 356.15C318.14 355.011 319.119 354.081 320.29 353.46C321.447 352.877 322.714 352.548 324.008 352.496C325.302 352.445 326.592 352.671 327.79 353.16C328.791 353.585 329.676 354.243 330.37 355.08L328.201 357.08C327.754 356.537 327.192 356.102 326.555 355.806C325.918 355.51 325.223 355.361 324.52 355.37C323.675 355.355 322.841 355.562 322.1 355.97C321.401 356.354 320.825 356.93 320.44 357.63C320.053 358.378 319.851 359.207 319.851 360.05C319.851 360.892 320.053 361.722 320.44 362.47C320.828 363.167 321.403 363.742 322.1 364.13C322.842 364.534 323.676 364.737 324.52 364.72C325.224 364.731 325.921 364.582 326.559 364.284C327.196 363.986 327.758 363.547 328.201 363L330.37 365C329.675 365.844 328.787 366.51 327.78 366.94C326.688 367.395 325.514 367.623 324.33 367.61C322.924 367.626 321.536 367.293 320.29 366.64Z" fill="white"/>
<path d="M342.609 357.209C343.068 357.708 343.419 358.295 343.641 358.935C343.863 359.575 343.951 360.254 343.899 360.929V367.359H340.639V361.429C340.691 360.715 340.485 360.005 340.059 359.429C339.841 359.202 339.576 359.025 339.282 358.911C338.989 358.797 338.673 358.749 338.359 358.769C337.99 358.748 337.621 358.805 337.276 358.938C336.931 359.071 336.618 359.276 336.359 359.539C335.829 360.168 335.567 360.98 335.629 361.799V367.359H332.369V351.859H335.629V357.289C336.073 356.845 336.609 356.504 337.199 356.289C337.84 356.056 338.517 355.941 339.199 355.949C339.823 355.916 340.448 356.011 341.034 356.227C341.621 356.444 342.156 356.778 342.609 357.209Z" fill="white"/>
<path d="M349.13 366.779C348.215 366.313 347.45 365.599 346.92 364.719C346.381 363.813 346.107 362.773 346.13 361.719C346.111 360.665 346.384 359.627 346.92 358.719C347.453 357.845 348.218 357.135 349.13 356.669C350.112 356.162 351.205 355.908 352.31 355.929C353.412 355.907 354.502 356.161 355.48 356.669C356.389 357.135 357.151 357.845 357.68 358.719C358.216 359.627 358.49 360.665 358.47 361.719C358.493 362.773 358.219 363.813 357.68 364.719C357.154 365.598 356.392 366.312 355.48 366.779C354.502 367.287 353.412 367.541 352.31 367.519C351.205 367.54 350.112 367.286 349.13 366.779ZM354.37 364.009C354.888 363.366 355.17 362.565 355.17 361.739C355.17 360.913 354.888 360.112 354.37 359.469C354.105 359.192 353.785 358.974 353.43 358.83C353.075 358.685 352.693 358.617 352.31 358.629C351.926 358.618 351.543 358.687 351.187 358.832C350.831 358.977 350.508 359.194 350.24 359.469C349.717 360.11 349.431 360.912 349.431 361.739C349.431 362.566 349.717 363.368 350.24 364.009C350.508 364.285 350.831 364.502 351.187 364.646C351.543 364.791 351.926 364.86 352.31 364.849C352.694 364.86 353.076 364.79 353.431 364.644C353.786 364.497 354.106 364.278 354.37 363.999V364.009Z" fill="white"/>
<path d="M362.8 366.78C361.888 366.313 361.126 365.599 360.6 364.72C360.061 363.814 359.787 362.774 359.81 361.72C359.79 360.666 360.064 359.627 360.6 358.72C361.129 357.846 361.891 357.136 362.8 356.67C363.794 356.184 364.894 355.954 366 356C367.102 355.978 368.192 356.232 369.17 356.74C370.074 357.209 370.832 357.918 371.36 358.79C371.896 359.697 372.17 360.736 372.15 361.79C372.173 362.844 371.899 363.884 371.36 364.79C370.835 365.667 370.077 366.38 369.17 366.85C368.192 367.358 367.102 367.612 366 367.59C364.882 367.592 363.782 367.314 362.8 366.78ZM368 364C368.523 363.359 368.809 362.557 368.809 361.73C368.809 360.903 368.523 360.101 368 359.46C367.737 359.183 367.418 358.966 367.065 358.821C366.711 358.676 366.332 358.608 365.95 358.62C365.565 358.607 365.182 358.675 364.826 358.82C364.469 358.965 364.147 359.183 363.88 359.46C363.35 360.097 363.059 360.901 363.059 361.73C363.059 362.559 363.35 363.362 363.88 364C364.147 364.277 364.469 364.495 364.826 364.639C365.182 364.784 365.565 364.852 365.95 364.84C366.332 364.852 366.711 364.784 367.065 364.639C367.418 364.494 367.737 364.276 368 364Z" fill="white"/>
<path d="M375.36 367.18C374.608 367.007 373.889 366.713 373.23 366.31L374.32 363.97C374.882 364.321 375.492 364.587 376.13 364.76C376.81 364.955 377.513 365.056 378.22 365.06C379.6 365.06 380.29 364.726 380.29 364.06C380.286 363.898 380.227 363.742 380.124 363.617C380.02 363.492 379.879 363.405 379.72 363.37C379.162 363.186 378.585 363.062 378 363C377.23 362.892 376.469 362.731 375.72 362.52C375.125 362.329 374.59 361.984 374.17 361.52C373.933 361.247 373.752 360.93 373.639 360.586C373.526 360.243 373.482 359.88 373.51 359.52C373.502 358.838 373.72 358.174 374.13 357.63C374.593 357.041 375.214 356.597 375.92 356.35C376.814 356.024 377.76 355.868 378.71 355.89C379.508 355.887 380.303 355.974 381.08 356.15C381.766 356.28 382.425 356.524 383.03 356.87L381.95 359.19C380.963 358.63 379.845 358.341 378.71 358.35C378.171 358.319 377.633 358.419 377.14 358.64C376.994 358.705 376.867 358.81 376.776 358.942C376.684 359.074 376.63 359.229 376.62 359.39C376.618 359.558 376.673 359.722 376.777 359.855C376.881 359.988 377.027 360.081 377.19 360.12C377.772 360.312 378.372 360.446 378.98 360.52C379.743 360.639 380.497 360.802 381.24 361.01C381.822 361.187 382.347 361.514 382.76 361.96C383.218 362.491 383.451 363.18 383.41 363.88C383.415 364.553 383.193 365.208 382.78 365.74C382.302 366.324 381.667 366.761 380.95 367C380.038 367.318 379.076 367.47 378.11 367.45C377.186 367.477 376.262 367.386 375.36 367.18Z" fill="white"/>
<path d="M396.34 362.659H387.85C387.985 363.327 388.372 363.918 388.93 364.309C389.56 364.727 390.304 364.936 391.06 364.909C391.591 364.922 392.121 364.833 392.62 364.649C393.09 364.463 393.519 364.184 393.88 363.829L395.61 365.709C395.019 366.334 394.298 366.821 393.498 367.133C392.697 367.446 391.837 367.578 390.98 367.519C389.813 367.545 388.658 367.292 387.61 366.779C386.678 366.323 385.897 365.608 385.36 364.719C384.821 363.813 384.547 362.774 384.57 361.719C384.552 360.667 384.822 359.63 385.35 358.719C385.862 357.847 386.606 357.133 387.5 356.659C388.44 356.155 389.493 355.9 390.56 355.919C391.604 355.898 392.636 356.142 393.56 356.629C394.437 357.08 395.167 357.774 395.66 358.629C396.182 359.57 396.444 360.633 396.42 361.709C396.42 361.709 396.38 362.119 396.34 362.659ZM388.72 359.049C388.206 359.481 387.877 360.093 387.8 360.759H393.34C393.255 360.095 392.925 359.486 392.414 359.053C391.903 358.62 391.249 358.394 390.58 358.419C389.904 358.397 389.243 358.621 388.72 359.049Z" fill="white"/>
<path d="M268.07 239.169C267.701 239.172 267.345 239.036 267.07 238.789L263.07 235.239C262.92 235.11 262.798 234.952 262.709 234.776C262.621 234.599 262.569 234.406 262.556 234.208C262.543 234.011 262.569 233.813 262.634 233.626C262.698 233.439 262.799 233.267 262.93 233.119C263.195 232.839 263.557 232.67 263.941 232.648C264.326 232.625 264.705 232.751 265 232.999L267.93 235.579L274 228.879C274.272 228.608 274.637 228.451 275.02 228.441C275.403 228.431 275.776 228.568 276.062 228.824C276.347 229.08 276.524 229.436 276.555 229.818C276.587 230.2 276.47 230.58 276.23 230.879L269.16 238.679C269.022 238.832 268.854 238.954 268.667 239.038C268.479 239.123 268.276 239.167 268.07 239.169Z" fill="#FF6D38"/>
<path d="M268.07 271.17C267.702 271.176 267.345 271.044 267.07 270.8L263.07 267.24C262.922 267.108 262.801 266.949 262.715 266.771C262.629 266.593 262.579 266.4 262.567 266.203C262.555 266.006 262.583 265.808 262.648 265.621C262.712 265.435 262.813 265.262 262.945 265.115C263.076 264.967 263.235 264.846 263.413 264.76C263.591 264.674 263.784 264.624 263.981 264.612C264.38 264.589 264.771 264.724 265.07 264.99L268 267.57L274.07 260.86C274.341 260.589 274.706 260.432 275.089 260.421C275.473 260.411 275.846 260.548 276.131 260.804C276.417 261.06 276.593 261.416 276.625 261.798C276.656 262.181 276.54 262.56 276.3 262.86L269.23 270.66C269.086 270.825 268.908 270.957 268.707 271.045C268.506 271.133 268.289 271.176 268.07 271.17Z" fill="#FF6D38"/>
<path d="M268.07 303.179C267.701 303.182 267.344 303.046 267.07 302.799L263.07 299.249C262.922 299.118 262.801 298.959 262.715 298.781C262.629 298.603 262.579 298.41 262.567 298.213C262.555 298.015 262.583 297.818 262.648 297.631C262.712 297.444 262.813 297.272 262.945 297.124C263.076 296.977 263.235 296.856 263.413 296.77C263.591 296.684 263.784 296.633 263.981 296.622C264.38 296.598 264.771 296.734 265.07 296.999L268 299.569L274.07 292.869C274.341 292.598 274.706 292.442 275.089 292.431C275.473 292.421 275.846 292.558 276.131 292.814C276.417 293.07 276.593 293.426 276.625 293.808C276.656 294.19 276.54 294.57 276.3 294.869L269.23 302.669C269.086 302.834 268.907 302.966 268.707 303.054C268.506 303.142 268.289 303.185 268.07 303.179Z" fill="#FF6D38"/>
<path d="M366.579 121.529L370.589 129.649L379.549 130.949L373.069 137.269L374.599 146.189L366.579 141.979L358.569 146.189L360.099 137.269L353.619 130.949L362.579 129.649L366.579 121.529Z" fill="white"/>
<path d="M351.009 121.529L356.309 132.259L368.149 133.979L359.579 142.329L361.599 154.119L351.009 148.549L340.429 154.119L342.449 142.329L333.879 133.979L345.719 132.259L351.009 121.529Z" fill="white"/>
<path d="M362.889 155.889L350.999 149.649L339.119 155.889L341.389 142.669L331.779 133.299L345.059 131.369L350.999 119.369L356.929 131.369L370.209 133.299L360.599 142.659L362.889 155.889ZM335.999 134.649L343.519 141.989L341.739 152.349L351.049 147.449L360.349 152.349L358.539 141.999L366.059 134.659L355.659 133.149L350.999 123.719L346.339 133.139L335.999 134.649Z" fill="#FF6D38"/>
<path d="M468.78 414.16C468.78 412.06 468.68 279.95 468.54 85.8396L468.78 86.0796H232.6L232.86 85.8196C232.86 208.67 232.86 322.33 232.81 414.14L232.6 413.93L468.81 414.14L232.6 414.35H232.39V414.14C232.39 322.33 232.39 208.67 232.34 85.8196V85.5596H232.63H468.81H469V85.7896C468.87 280 468.78 412.06 468.78 414.16Z" fill="#263238"/>
<path d="M353.19 283.349C353.19 283.349 349.69 278.089 356.7 277.799C363.71 277.509 398.17 283.349 409.85 289.189L420.07 295.609L409 317.509H383.56C380.64 317.509 372.47 312.509 380.06 309.049C380.06 309.049 372.47 303.789 379.48 299.409C379.48 299.409 373.93 295.319 379.77 289.769L353.19 283.349Z" fill="#FFBF9D"/>
<path d="M411.899 291.359L469.899 321.739L491.659 300.919L517.589 324.279C517.589 324.279 491.889 354.459 476.999 357.089C462.109 359.719 404.119 313.089 404.119 313.089L411.899 291.359Z" fill="#FFBF9D"/>
<path d="M472.75 198L472.21 198.31C471.367 198.742 470.469 199.055 469.54 199.24C469.098 199.289 468.66 199.369 468.23 199.48C467.973 199.619 467.729 199.779 467.5 199.96C465.91 200.89 463.89 200.96 462.11 201.19C460.11 201.4 457.96 201.71 456.4 203C454.84 204.29 454.14 206.86 455.51 208.35C454.865 208.36 454.246 208.606 453.769 209.041C453.292 209.475 452.99 210.068 452.92 210.71C452.873 211.355 452.992 212.001 453.265 212.587C453.538 213.173 453.956 213.68 454.48 214.06C455.54 214.811 456.784 215.261 458.08 215.36C457.332 215.485 456.663 215.897 456.213 216.507C455.763 217.117 455.569 217.878 455.67 218.63C455.805 219.377 456.128 220.078 456.61 220.666C457.091 221.254 457.714 221.709 458.42 221.99C459.835 222.541 461.355 222.773 462.87 222.67C464.824 222.599 466.78 222.64 468.73 222.79C468.73 222.79 468.73 224.72 468.73 225.59C468.73 226.77 468.73 225.85 468.73 225.85C469.785 226.466 470.924 226.927 472.11 227.22C474.74 228.08 476.44 228.78 478.81 229.39C480.58 229.85 482.32 230.07 483.27 228.88C485.56 226.02 479.54 221.88 479.54 221.88C481.31 220.88 480.83 215.21 478.2 214.44C479.5 213.8 480.32 213.87 481.09 212.63C481.488 212.021 481.737 211.327 481.817 210.605C481.897 209.882 481.805 209.15 481.55 208.47C481.267 207.8 480.773 207.242 480.142 206.881C479.512 206.52 478.78 206.375 478.06 206.47C478.911 205.737 479.52 204.764 479.807 203.679C480.095 202.594 480.047 201.447 479.67 200.39C479.175 199.126 478.231 198.09 477.02 197.48C476.419 197.176 475.769 196.983 475.1 196.91C474.849 196.865 474.591 196.865 474.34 196.91C474.228 196.944 474.123 196.999 474.03 197.07C473.59 197.3 473.21 197.69 472.75 198Z" fill="#FFBF9D"/>
<path d="M475.559 191.48C475.54 190.852 475.387 190.237 475.109 189.674C474.831 189.112 474.436 188.615 473.949 188.22C472.729 187.39 470.529 187.49 469.079 187.81C468.989 189.57 469.079 190.46 468.959 192.22C468.959 192.59 469.069 192.88 468.899 193.22C468.449 194.09 466.539 194.22 465.659 194.67C464.932 195.111 464.402 195.814 464.177 196.634C463.952 197.454 464.05 198.329 464.449 199.08C464.889 199.809 465.529 200.397 466.292 200.775C467.056 201.152 467.912 201.303 468.759 201.21C470.463 200.993 472.026 200.148 473.139 198.84C474.026 197.845 474.699 196.678 475.116 195.412C475.532 194.145 475.683 192.807 475.559 191.48Z" fill="#FFBF9D"/>
<path d="M478.55 206.369C478.55 206.509 473.42 207.069 467.06 207.609C460.7 208.149 455.53 208.479 455.52 208.329C455.51 208.179 460.65 207.629 467.01 207.089C473.37 206.549 478.54 206.219 478.55 206.369Z" fill="#FF9A6C"/>
<path d="M478.549 214.399C477.572 214.699 476.567 214.9 475.549 214.999C473.103 215.364 470.64 215.604 468.169 215.719C465.269 215.869 462.649 215.839 460.749 215.719C459.722 215.725 458.696 215.624 457.689 215.419C458.71 215.318 459.736 215.295 460.759 215.349C462.649 215.349 465.259 215.349 468.139 215.169C471.019 214.989 473.619 214.799 475.499 214.609C476.51 214.469 477.529 214.398 478.549 214.399Z" fill="#FF9A6C"/>
<path d="M478.549 222.25C477.731 222.482 476.889 222.616 476.039 222.65C474.479 222.81 472.319 222.93 469.929 222.96C467.539 222.99 465.379 222.96 463.819 222.96C462.97 222.999 462.119 222.952 461.279 222.82C462.112 222.654 462.96 222.577 463.809 222.59C465.379 222.52 467.539 222.49 469.919 222.45C472.299 222.41 474.459 222.36 476.019 222.29C476.86 222.206 477.706 222.192 478.549 222.25Z" fill="#FF9A6C"/>
<path d="M475.09 194.06C475.285 194.723 475.228 195.435 474.93 196.06C474.326 197.565 473.186 198.794 471.73 199.51C470.964 199.919 470.16 200.254 469.33 200.51C468.657 200.748 467.959 200.912 467.25 201C466.746 201.056 466.238 200.94 465.81 200.67C465.52 200.47 465.44 200.28 465.46 200.26C465.977 200.597 466.6 200.732 467.21 200.64C467.892 200.499 468.561 200.301 469.21 200.05C470.005 199.777 470.777 199.443 471.52 199.05C472.879 198.381 473.974 197.275 474.63 195.91C474.836 195.307 474.99 194.688 475.09 194.06Z" fill="#FF9A6C"/>
<path d="M203.61 146.49H31.9805V385.05H203.61V146.49Z" fill="white"/>
<path d="M203.61 146.49H31.9805V232.84H203.61V146.49Z" fill="#455A64"/>
<path d="M173.9 254C173.9 254.15 150.3 254.27 121.2 254.27C92.1 254.27 68.5 254.15 68.5 254C68.5 253.85 92.09 253.74 121.2 253.74C150.31 253.74 173.9 253.83 173.9 254Z" fill="#263238"/>
<path d="M173.9 277.231C173.9 277.371 150.3 277.491 121.2 277.491C92.1 277.491 68.5 277.371 68.5 277.231C68.5 277.091 92.09 276.971 121.2 276.971C150.31 276.971 173.9 277.091 173.9 277.231Z" fill="#263238"/>
<path d="M173.9 300.491C173.9 300.631 150.3 300.751 121.2 300.751C92.1 300.751 68.5 300.631 68.5 300.491C68.5 300.351 92.09 300.221 121.2 300.221C150.31 300.221 173.9 300.341 173.9 300.491Z" fill="#263238"/>
<path d="M173.46 327.301H70.3698C60.2298 327.301 52.0098 335.521 52.0098 345.661V347.571C52.0098 357.711 60.2298 365.931 70.3698 365.931H173.46C183.6 365.931 191.82 357.711 191.82 347.571V345.661C191.82 335.521 183.6 327.301 173.46 327.301Z" fill="#455A64"/>
<path d="M101.861 211.53C102.236 212.035 102.43 212.652 102.411 213.28C102.428 213.739 102.326 214.194 102.113 214.601C101.901 215.007 101.587 215.352 101.201 215.6C100.141 216.205 98.9282 216.487 97.7108 216.41H91.5508V205H97.3908C98.5542 204.925 99.7128 205.208 100.711 205.81C101.07 206.047 101.364 206.372 101.565 206.753C101.766 207.134 101.868 207.559 101.861 207.99C101.865 208.504 101.727 209.01 101.461 209.45C101.179 209.881 100.785 210.227 100.321 210.45C100.93 210.648 101.467 211.024 101.861 211.53ZM94.7408 207.33V209.53H97.0008C98.0908 209.53 98.6308 209.16 98.6308 208.42C98.6308 207.68 98.0908 207.33 97.0008 207.33H94.7408ZM99.1508 212.92C99.1508 212.15 98.5808 211.76 97.4508 211.76H94.7408V214.08H97.4508C98.5808 214.08 99.1508 213.69 99.1508 212.92Z" fill="white"/>
<path d="M111.741 214.19H106.911L106.021 216.41H102.721L107.721 204.99H110.901L116.001 216.41H112.641L111.741 214.19ZM110.791 211.81L109.331 208.16L107.861 211.81H110.791Z" fill="white"/>
<path d="M118.229 216.301C117.473 216.123 116.756 215.811 116.109 215.381L117.169 213.001C117.721 213.356 118.321 213.632 118.949 213.821C119.596 214.025 120.271 214.13 120.949 214.131C122.189 214.131 122.809 213.821 122.809 213.201C122.808 213.039 122.756 212.882 122.661 212.751C122.566 212.621 122.432 212.523 122.279 212.471C121.727 212.259 121.159 212.091 120.579 211.971C119.847 211.824 119.125 211.627 118.419 211.381C117.85 211.177 117.341 210.833 116.939 210.381C116.502 209.851 116.281 209.176 116.319 208.491C116.311 207.817 116.51 207.158 116.889 206.601C117.318 206.005 117.908 205.543 118.589 205.271C119.475 204.928 120.42 204.765 121.369 204.791C122.117 204.788 122.861 204.872 123.589 205.041C124.267 205.188 124.918 205.437 125.519 205.781L124.519 208.181C123.557 207.625 122.47 207.323 121.359 207.301C120.876 207.264 120.392 207.361 119.959 207.581C119.826 207.653 119.715 207.76 119.637 207.89C119.56 208.02 119.519 208.169 119.519 208.321C119.521 208.476 119.573 208.627 119.666 208.751C119.76 208.875 119.891 208.966 120.039 209.011C120.584 209.218 121.146 209.376 121.719 209.481C122.452 209.632 123.174 209.833 123.879 210.081C124.446 210.289 124.954 210.632 125.359 211.081C125.815 211.613 126.044 212.302 125.999 213.001C126.007 213.665 125.808 214.315 125.429 214.861C124.999 215.459 124.405 215.921 123.719 216.191C122.836 216.545 121.89 216.715 120.939 216.691C120.023 216.68 119.112 216.548 118.229 216.301Z" fill="white"/>
<path d="M127.471 205H130.701V216.42H127.471V205Z" fill="white"/>
<path d="M135.471 215.88C134.54 215.399 133.761 214.669 133.221 213.77C132.689 212.836 132.41 211.78 132.41 210.705C132.41 209.631 132.689 208.575 133.221 207.64C133.76 206.739 134.539 206.005 135.471 205.52C136.466 205.009 137.572 204.752 138.691 204.77C139.659 204.755 140.62 204.942 141.511 205.32C142.328 205.674 143.046 206.224 143.601 206.92L141.541 208.78C141.226 208.365 140.82 208.028 140.353 207.795C139.886 207.563 139.372 207.441 138.851 207.44C138.274 207.431 137.706 207.572 137.201 207.85C136.719 208.114 136.326 208.514 136.071 209C135.795 209.524 135.657 210.109 135.671 210.7C135.658 211.295 135.796 211.883 136.071 212.41C136.328 212.895 136.721 213.294 137.201 213.56C137.706 213.838 138.274 213.98 138.851 213.97C139.372 213.97 139.886 213.848 140.353 213.616C140.82 213.383 141.226 213.046 141.541 212.63L143.601 214.49C143.043 215.185 142.326 215.733 141.511 216.09C140.62 216.469 139.659 216.656 138.691 216.64C137.571 216.661 136.464 216.399 135.471 215.88Z" fill="white"/>
<path d="M95.7208 350.521C94.8616 350.058 94.1483 349.366 93.6608 348.521C93.1689 347.659 92.9102 346.683 92.9102 345.691C92.9102 344.698 93.1689 343.723 93.6608 342.861C94.1701 342.069 94.8811 341.427 95.7208 341.001C96.5601 340.575 97.4813 340.334 98.4218 340.296C99.3623 340.258 100.3 340.424 101.171 340.781C101.895 341.09 102.536 341.567 103.041 342.171L101.461 343.631C101.14 343.236 100.734 342.92 100.273 342.705C99.8126 342.49 99.3091 342.383 98.8008 342.391C98.1866 342.377 97.5796 342.525 97.0408 342.821C96.5333 343.1 96.1141 343.515 95.8308 344.021C95.5381 344.56 95.39 345.167 95.4008 345.781C95.3872 346.395 95.5355 347.002 95.8308 347.541C96.1074 348.027 96.5121 348.428 97.0008 348.701C97.5396 348.996 98.1466 349.144 98.7608 349.131C99.2708 349.137 99.7756 349.027 100.237 348.808C100.698 348.59 101.103 348.269 101.421 347.871L103.001 349.331C102.501 349.949 101.855 350.434 101.121 350.741C100.329 351.069 99.4781 351.232 98.6208 351.221C97.6113 351.229 96.6152 350.989 95.7208 350.521Z" fill="white"/>
<path d="M111.939 343.67C112.269 344.034 112.521 344.461 112.681 344.925C112.841 345.389 112.905 345.88 112.869 346.37V351H110.509V346.69C110.547 346.174 110.394 345.661 110.079 345.25C109.922 345.084 109.731 344.955 109.518 344.872C109.305 344.79 109.077 344.755 108.849 344.77C108.587 344.757 108.325 344.799 108.081 344.894C107.836 344.989 107.614 345.134 107.429 345.32C107.041 345.778 106.851 346.372 106.899 346.97V350.97H104.529V339.79H106.899V343.73C107.212 343.413 107.586 343.165 107.999 343C108.467 342.828 108.961 342.743 109.459 342.75C109.914 342.726 110.368 342.796 110.794 342.954C111.221 343.112 111.61 343.356 111.939 343.67Z" fill="white"/>
<path d="M116.669 350.63C116.009 350.287 115.455 349.768 115.069 349.13C114.696 348.468 114.5 347.721 114.5 346.96C114.5 346.2 114.696 345.453 115.069 344.79C115.458 344.158 116.011 343.644 116.669 343.3C117.387 342.934 118.184 342.748 118.989 342.76C119.789 342.747 120.579 342.932 121.289 343.3C121.947 343.64 122.497 344.156 122.879 344.79C123.259 345.451 123.459 346.199 123.459 346.96C123.459 347.722 123.259 348.47 122.879 349.13C122.499 349.768 121.948 350.288 121.289 350.63C120.578 350.995 119.788 351.177 118.989 351.16C118.184 351.176 117.388 350.994 116.669 350.63ZM120.479 348.63C120.883 348.179 121.092 347.586 121.059 346.98C121.075 346.682 121.032 346.384 120.933 346.103C120.833 345.821 120.679 345.562 120.479 345.34C120.288 345.139 120.056 344.98 119.8 344.873C119.543 344.767 119.267 344.715 118.989 344.72C118.708 344.712 118.428 344.763 118.168 344.869C117.908 344.976 117.673 345.137 117.479 345.34C117.278 345.561 117.122 345.82 117.021 346.102C116.919 346.383 116.875 346.682 116.889 346.98C116.861 347.587 117.073 348.18 117.479 348.63C117.674 348.832 117.909 348.991 118.169 349.096C118.43 349.201 118.709 349.25 118.989 349.24C119.268 349.245 119.544 349.191 119.801 349.083C120.057 348.974 120.289 348.813 120.479 348.61V348.63Z" fill="white"/>
<path d="M126.611 350.631C125.948 350.29 125.394 349.77 125.011 349.131C124.713 348.648 124.517 348.109 124.437 347.548C124.356 346.987 124.392 346.415 124.542 345.868C124.692 345.321 124.953 344.81 125.309 344.369C125.665 343.927 126.108 343.564 126.611 343.301C127.329 342.946 128.119 342.761 128.921 342.761C129.722 342.761 130.512 342.946 131.231 343.301C131.888 343.641 132.439 344.157 132.821 344.791C133.201 345.451 133.401 346.199 133.401 346.961C133.401 347.722 133.201 348.471 132.821 349.131C132.44 349.769 131.89 350.288 131.231 350.631C130.511 350.98 129.721 351.161 128.921 351.161C128.121 351.161 127.331 350.98 126.611 350.631ZM130.421 348.631C130.82 348.184 131.028 347.599 131.001 347.001C131.017 346.703 130.974 346.404 130.874 346.123C130.774 345.842 130.62 345.583 130.421 345.361C130.228 345.158 129.995 344.999 129.736 344.892C129.478 344.785 129.2 344.734 128.921 344.741C128.641 344.734 128.363 344.785 128.105 344.892C127.847 344.999 127.613 345.158 127.421 345.361C127.219 345.582 127.063 345.841 126.962 346.122C126.861 346.403 126.816 346.702 126.831 347.001C126.802 347.607 127.014 348.2 127.421 348.651C127.614 348.851 127.848 349.009 128.106 349.114C128.365 349.219 128.642 349.269 128.921 349.261C129.202 349.264 129.482 349.208 129.74 349.096C129.999 348.984 130.231 348.819 130.421 348.611V348.631Z" fill="white"/>
<path d="M135.729 350.911C135.184 350.791 134.662 350.578 134.189 350.281L134.979 348.591C135.388 348.843 135.834 349.032 136.299 349.151C136.79 349.296 137.298 349.37 137.809 349.371C138.809 349.371 139.309 349.131 139.309 348.631C139.308 348.513 139.266 348.4 139.192 348.309C139.117 348.218 139.014 348.156 138.899 348.131C138.493 348 138.074 347.913 137.649 347.871C137.088 347.797 136.533 347.68 135.989 347.521C135.56 347.392 135.171 347.154 134.859 346.831C134.519 346.435 134.347 345.922 134.379 345.401C134.372 344.907 134.53 344.424 134.829 344.031C135.169 343.601 135.623 343.275 136.139 343.091C136.78 342.86 137.458 342.748 138.139 342.761C138.718 342.759 139.295 342.823 139.859 342.951C140.356 343.051 140.835 343.226 141.279 343.471L140.489 345.161C139.774 344.753 138.963 344.542 138.139 344.551C137.748 344.529 137.357 344.601 136.999 344.761C136.892 344.808 136.799 344.885 136.732 344.982C136.665 345.079 136.626 345.193 136.619 345.311C136.62 345.432 136.66 345.55 136.734 345.645C136.809 345.741 136.912 345.81 137.029 345.841C137.456 345.977 137.895 346.074 138.339 346.131C138.892 346.218 139.439 346.335 139.979 346.481C140.403 346.61 140.783 346.852 141.079 347.181C141.246 347.37 141.373 347.59 141.454 347.829C141.535 348.067 141.567 348.319 141.549 348.571C141.557 349.059 141.398 349.535 141.099 349.921C140.749 350.343 140.289 350.662 139.769 350.841C139.104 351.071 138.403 351.179 137.699 351.161C137.035 351.162 136.373 351.078 135.729 350.911Z" fill="white"/>
<path d="M151.001 347.63H144.831C144.925 348.116 145.205 348.547 145.611 348.83C146.069 349.134 146.611 349.288 147.161 349.27C147.546 349.28 147.93 349.216 148.291 349.08C148.634 348.943 148.947 348.739 149.211 348.48L150.471 349.85C150.04 350.302 149.514 350.654 148.932 350.881C148.349 351.107 147.724 351.202 147.101 351.16C146.257 351.18 145.42 350.998 144.661 350.63C143.981 350.299 143.411 349.778 143.021 349.13C142.644 348.471 142.445 347.725 142.445 346.965C142.445 346.206 142.644 345.46 143.021 344.8C143.396 344.165 143.939 343.646 144.591 343.3C145.273 342.935 146.037 342.749 146.811 342.76C147.566 342.748 148.313 342.927 148.981 343.28C149.62 343.616 150.148 344.13 150.501 344.76C150.864 345.449 151.037 346.222 151.001 347C151.001 347 151.001 347.24 151.001 347.63ZM145.441 345C145.072 345.315 144.836 345.758 144.781 346.24H148.781C148.715 345.759 148.477 345.319 148.111 345C147.735 344.689 147.259 344.525 146.771 344.54C146.286 344.527 145.814 344.691 145.441 345Z" fill="white"/>
<path d="M57.7711 258.31C57.4039 258.312 57.0484 258.181 56.7711 257.94L53.8411 255.35C53.5428 255.085 53.362 254.712 53.3385 254.313C53.3151 253.915 53.4509 253.523 53.7161 253.225C53.9814 252.927 54.3542 252.746 54.7527 252.722C55.1513 252.699 55.5428 252.835 55.8411 253.1L57.6711 254.71L61.8111 250.13C62.0857 249.875 62.4458 249.732 62.8204 249.73C63.1951 249.727 63.5572 249.864 63.8356 250.115C64.1139 250.366 64.2884 250.712 64.3246 251.085C64.3608 251.458 64.2561 251.83 64.0311 252.13L58.9011 257.8C58.7584 257.959 58.5843 258.086 58.3897 258.174C58.1952 258.262 57.9845 258.308 57.7711 258.31Z" fill="#455A64"/>
<path d="M57.771 281.56C57.4037 281.563 57.0482 281.431 56.771 281.19L53.841 278.61C53.6926 278.479 53.5715 278.32 53.4847 278.142C53.3978 277.964 53.3469 277.77 53.3348 277.572C53.3105 277.173 53.4458 276.78 53.711 276.48C53.9762 276.181 54.3496 275.999 54.7491 275.974C55.1485 275.95 55.5413 276.085 55.841 276.35L57.661 278L61.801 273.43C61.926 273.264 62.0844 273.125 62.2659 273.023C62.4475 272.921 62.6483 272.858 62.8556 272.838C63.0629 272.818 63.2721 272.841 63.4699 272.906C63.6677 272.972 63.8498 273.077 64.0045 273.217C64.1593 273.356 64.2833 273.526 64.3686 273.716C64.454 273.906 64.4989 274.112 64.5005 274.32C64.502 274.528 64.4602 274.734 64.3776 274.926C64.2951 275.117 64.1736 275.289 64.021 275.43L58.891 281.1C58.7465 281.251 58.5723 281.369 58.3794 281.448C58.1866 281.528 57.9794 281.566 57.771 281.56Z" fill="#455A64"/>
<path d="M57.7711 304.82C57.4039 304.823 57.0484 304.691 56.7711 304.45L53.8411 301.86C53.6934 301.729 53.573 301.57 53.4867 301.392C53.4005 301.214 53.3501 301.021 53.3385 300.824C53.3269 300.626 53.3543 300.429 53.4191 300.242C53.4839 300.055 53.5848 299.883 53.7161 299.735C53.8475 299.588 54.0066 299.467 54.1845 299.381C54.3623 299.295 54.5554 299.244 54.7527 299.233C54.9501 299.221 55.1477 299.249 55.3345 299.313C55.5212 299.378 55.6934 299.479 55.8411 299.61L57.6711 301.22L61.8111 296.64C61.9362 296.474 62.0945 296.335 62.2761 296.233C62.4577 296.131 62.6585 296.068 62.8658 296.048C63.0731 296.028 63.2823 296.051 63.4801 296.116C63.6779 296.182 63.86 296.287 64.0147 296.427C64.1694 296.566 64.2934 296.736 64.3788 296.926C64.4642 297.116 64.5091 297.322 64.5106 297.53C64.5122 297.738 64.4704 297.944 64.3878 298.136C64.3052 298.327 64.1838 298.499 64.0311 298.64L58.9011 304.31C58.7584 304.469 58.5843 304.596 58.3897 304.684C58.1952 304.772 57.9845 304.818 57.7711 304.82Z" fill="#455A64"/>
<path d="M124.3 190.221L117.8 186.711L111.22 190.071L112.55 182.811L107.32 177.59L114.64 176.611L117.99 170.021L121.19 176.68L128.49 177.831L123.14 182.93L124.3 190.221Z" fill="white"/>
<path d="M203.61 385.05C203.61 382.95 203.52 287.5 203.38 146.49L203.61 146.73L32.0002 146.75L32.2602 146.49C32.2602 235.75 32.2602 318.34 32.2102 385.05L32.0002 384.84L203.63 385.05L32.0002 385.26H31.7902V385.05C31.7902 318.34 31.7902 235.75 31.7402 146.49V146.23H32.0002H203.61H203.85V146.46C203.71 287.5 203.62 383 203.61 385.05Z" fill="#263238"/>
</svg>
