<svg width="750" height="500" viewBox="0 0 750 500" fill="none" xmlns="http://www.w3.org/2000/svg">
<path d="M375.091 118.87H331.061V302.77H375.091V118.87Z" fill="#F5F5F5"/>
<path d="M375.09 118.87H353.08V302.32H375.09V118.87Z" fill="#EBEBEB"/>
<path d="M351.64 105.17H336.09V118.87H351.64V105.17Z" fill="#F5F5F5"/>
<path d="M351.642 105.17H347.932V118.87H351.642V105.17Z" fill="#EBEBEB"/>
<path d="M327.391 118.87V118.07H376.381V118.87" fill="#E0E0E0"/>
<path d="M343.492 124.841H339.762V132.701H343.492V124.841Z" fill="#FAFAFA"/>
<path d="M353.08 135.781C353.08 135.861 348.15 135.931 342.08 135.931C336.01 135.931 331.08 135.861 331.08 135.781C331.08 135.701 336.01 135.631 342.08 135.631C348.15 135.631 353.08 135.701 353.08 135.781Z" fill="#E0E0E0"/>
<path d="M365.691 124.841H361.961V132.701H365.691V124.841Z" fill="#E0E0E0"/>
<path d="M375.281 135.781C375.281 135.861 370.351 135.931 364.281 135.931C358.211 135.931 353.281 135.861 353.281 135.781C353.281 135.701 358.211 135.631 364.281 135.631C370.351 135.631 375.281 135.701 375.281 135.781Z" fill="#E0E0E0"/>
<path d="M365.691 140.44H361.961V148.3H365.691V140.44Z" fill="#E0E0E0"/>
<path d="M375.281 151.38C375.281 151.47 370.351 151.53 364.281 151.53C358.211 151.53 353.281 151.47 353.281 151.38C353.281 151.29 358.211 151.23 364.281 151.23C370.351 151.23 375.281 151.3 375.281 151.38Z" fill="#E0E0E0"/>
<path d="M365.691 156.511H361.961V164.371H365.691V156.511Z" fill="#E0E0E0"/>
<path d="M375.281 167.461C375.281 167.541 370.351 167.611 364.281 167.611C358.211 167.611 353.281 167.541 353.281 167.461C353.281 167.381 358.211 167.311 364.281 167.311C370.351 167.311 375.281 167.371 375.281 167.461Z" fill="#E0E0E0"/>
<path d="M365.691 172.591H361.961V180.451H365.691V172.591Z" fill="#E0E0E0"/>
<path d="M375.281 183.531C375.281 183.611 370.351 183.681 364.281 183.681C358.211 183.681 353.281 183.611 353.281 183.531C353.281 183.451 358.211 183.381 364.281 183.381C370.351 183.381 375.281 183.441 375.281 183.531Z" fill="#E0E0E0"/>
<path d="M365.691 188.2H361.961V196.06H365.691V188.2Z" fill="#E0E0E0"/>
<path d="M375.281 199.14C375.281 199.22 370.351 199.29 364.281 199.29C358.211 199.29 353.281 199.22 353.281 199.14C353.281 199.06 358.211 198.99 364.281 198.99C370.351 198.99 375.281 199.06 375.281 199.14Z" fill="#E0E0E0"/>
<path d="M365.691 203.87H361.961V211.73H365.691V203.87Z" fill="#E0E0E0"/>
<path d="M365.691 219.75H361.961V227.61H365.691V219.75Z" fill="#E0E0E0"/>
<path d="M375.281 214.81C375.281 214.9 370.351 214.96 364.281 214.96C358.211 214.96 353.281 214.9 353.281 214.81C353.281 214.72 358.211 214.66 364.281 214.66C370.351 214.66 375.281 214.73 375.281 214.81Z" fill="#E0E0E0"/>
<path d="M343.492 140.681H339.762V148.541H343.492V140.681Z" fill="#FAFAFA"/>
<path d="M353.08 151.621C353.08 151.701 348.15 151.771 342.08 151.771C336.01 151.771 331.08 151.701 331.08 151.621C331.08 151.541 336.01 151.471 342.08 151.471C348.15 151.471 353.08 151.541 353.08 151.621Z" fill="#E0E0E0"/>
<path d="M343.492 156.521H339.762V164.381H343.492V156.521Z" fill="#FAFAFA"/>
<path d="M353.08 167.461C353.08 167.541 348.15 167.611 342.08 167.611C336.01 167.611 331.08 167.541 331.08 167.461C331.08 167.381 336.01 167.311 342.08 167.311C348.15 167.311 353.08 167.381 353.08 167.461Z" fill="#E0E0E0"/>
<path d="M343.492 172.36H339.762V180.22H343.492V172.36Z" fill="#FAFAFA"/>
<path d="M353.08 183.3C353.08 183.38 348.15 183.45 342.08 183.45C336.01 183.45 331.08 183.38 331.08 183.3C331.08 183.22 336.01 183.15 342.08 183.15C348.15 183.15 353.08 183.22 353.08 183.3Z" fill="#E0E0E0"/>
<path d="M343.492 188.2H339.762V196.06H343.492V188.2Z" fill="#FAFAFA"/>
<path d="M353.08 199.14C353.08 199.22 348.15 199.29 342.08 199.29C336.01 199.29 331.08 199.22 331.08 199.14C331.08 199.06 336.01 198.99 342.08 198.99C348.15 198.99 353.08 199.06 353.08 199.14Z" fill="#E0E0E0"/>
<path d="M343.492 204.04H339.762V211.9H343.492V204.04Z" fill="#FAFAFA"/>
<path d="M353.08 215.001C353.08 215.081 348.15 215.151 342.08 215.151C336.01 215.151 331.08 215.081 331.08 215.001C331.08 214.921 336.01 214.851 342.08 214.851C348.15 214.851 353.08 214.901 353.08 215.001Z" fill="#E0E0E0"/>
<path d="M343.492 219.881H339.762V227.741H343.492V219.881Z" fill="#FAFAFA"/>
<path d="M300.311 162.86H256.281V302.39H300.311V162.86Z" fill="#F5F5F5"/>
<path d="M300.301 162.86H278.291V302.01H300.301V162.86Z" fill="#EBEBEB"/>
<path d="M276.851 149.16H261.301V162.86H276.851V149.16Z" fill="#F5F5F5"/>
<path d="M276.86 149.16H273.15V162.86H276.86V149.16Z" fill="#EBEBEB"/>
<path d="M252.611 162.861V162.061H301.591V162.861" fill="#E0E0E0"/>
<path d="M268.701 168.841H264.971V176.701H268.701V168.841Z" fill="#FAFAFA"/>
<path d="M278.291 179.781C278.291 179.861 273.361 179.931 267.291 179.931C261.221 179.931 256.291 179.861 256.291 179.781C256.291 179.701 261.211 179.631 267.291 179.631C273.371 179.631 278.291 179.701 278.291 179.781Z" fill="#E0E0E0"/>
<path d="M290.9 168.841H287.17V176.701H290.9V168.841Z" fill="#E0E0E0"/>
<path d="M300.5 179.781C300.5 179.861 295.57 179.931 289.5 179.931C283.43 179.931 278.5 179.861 278.5 179.781C278.5 179.701 283.43 179.631 289.5 179.631C295.57 179.631 300.5 179.701 300.5 179.781Z" fill="#E0E0E0"/>
<path d="M290.9 184.44H287.17V192.3H290.9V184.44Z" fill="#E0E0E0"/>
<path d="M300.5 195.38C300.5 195.46 295.57 195.53 289.5 195.53C283.43 195.53 278.5 195.46 278.5 195.38C278.5 195.3 283.43 195.23 289.5 195.23C295.57 195.23 300.5 195.3 300.5 195.38Z" fill="#E0E0E0"/>
<path d="M290.9 200.511H287.17V208.371H290.9V200.511Z" fill="#E0E0E0"/>
<path d="M300.5 211.451C300.5 211.541 295.57 211.601 289.5 211.601C283.43 211.601 278.5 211.541 278.5 211.451C278.5 211.361 283.43 211.301 289.5 211.301C295.57 211.301 300.5 211.371 300.5 211.451Z" fill="#E0E0E0"/>
<path d="M290.9 216.58H287.17V224.44H290.9V216.58Z" fill="#E0E0E0"/>
<path d="M300.5 227.52C300.5 227.61 295.57 227.67 289.5 227.67C283.43 227.67 278.5 227.61 278.5 227.52C278.5 227.43 283.43 227.37 289.5 227.37C295.57 227.37 300.5 227.44 300.5 227.52Z" fill="#E0E0E0"/>
<path d="M290.9 232.19H287.17V240.05H290.9V232.19Z" fill="#E0E0E0"/>
<path d="M300.5 243.14C300.5 243.22 295.57 243.29 289.5 243.29C283.43 243.29 278.5 243.22 278.5 243.14C278.5 243.06 283.43 242.99 289.5 242.99C295.57 242.99 300.5 243.05 300.5 243.14Z" fill="#E0E0E0"/>
<path d="M290.9 247.87H287.17V255.73H290.9V247.87Z" fill="#E0E0E0"/>
<path d="M290.9 263.75H287.17V271.61H290.9V263.75Z" fill="#E0E0E0"/>
<path d="M300.5 258.81C300.5 258.89 295.57 258.96 289.5 258.96C283.43 258.96 278.5 258.89 278.5 258.81C278.5 258.73 283.43 258.66 289.5 258.66C295.57 258.66 300.5 258.73 300.5 258.81Z" fill="#E0E0E0"/>
<path d="M268.701 184.681H264.971V192.541H268.701V184.681Z" fill="#FAFAFA"/>
<path d="M278.291 195.621C278.291 195.701 273.361 195.771 267.291 195.771C261.221 195.771 256.291 195.701 256.291 195.621C256.291 195.541 261.211 195.471 267.291 195.471C273.371 195.471 278.291 195.541 278.291 195.621Z" fill="#E0E0E0"/>
<path d="M268.701 200.521H264.971V208.381H268.701V200.521Z" fill="#FAFAFA"/>
<path d="M278.291 211.461C278.291 211.541 273.361 211.611 267.291 211.611C261.221 211.611 256.291 211.541 256.291 211.461C256.291 211.381 261.211 211.311 267.291 211.311C273.371 211.311 278.291 211.381 278.291 211.461Z" fill="#E0E0E0"/>
<path d="M268.701 216.36H264.971V224.22H268.701V216.36Z" fill="#FAFAFA"/>
<path d="M278.291 227.3C278.291 227.38 273.361 227.45 267.291 227.45C261.221 227.45 256.291 227.38 256.291 227.3C256.291 227.22 261.211 227.15 267.291 227.15C273.371 227.15 278.291 227.21 278.291 227.3Z" fill="#E0E0E0"/>
<path d="M268.701 232.19H264.971V240.05H268.701V232.19Z" fill="#FAFAFA"/>
<path d="M278.291 243.14C278.291 243.22 273.361 243.29 267.291 243.29C261.221 243.29 256.291 243.22 256.291 243.14C256.291 243.06 261.211 242.99 267.291 242.99C273.371 242.99 278.291 243.05 278.291 243.14Z" fill="#E0E0E0"/>
<path d="M268.701 248.03H264.971V255.89H268.701V248.03Z" fill="#FAFAFA"/>
<path d="M278.291 259.001C278.291 259.081 273.361 259.151 267.291 259.151C261.221 259.151 256.291 259.081 256.291 259.001C256.291 258.921 261.211 258.851 267.291 258.851C273.371 258.851 278.291 258.891 278.291 259.001Z" fill="#E0E0E0"/>
<path d="M268.701 263.87H264.971V271.73H268.701V263.87Z" fill="#FAFAFA"/>
<path d="M618.06 185.74H575.25V321.41H618.06V185.74Z" fill="#F5F5F5"/>
<path d="M618.05 185.74H596.65V321.04H618.05V185.74Z" fill="#EBEBEB"/>
<path d="M595.261 172.42H580.141V185.74H595.261V172.42Z" fill="#F5F5F5"/>
<path d="M595.25 172.42H591.65V185.74H595.25V172.42Z" fill="#EBEBEB"/>
<path d="M571.682 185.74V184.96H619.312V185.74" fill="#E0E0E0"/>
<path d="M587.321 191.551H583.701V199.191H587.321V191.551Z" fill="#FAFAFA"/>
<path d="M596.65 202.19C596.65 202.27 591.86 202.33 585.95 202.33C580.04 202.33 575.25 202.27 575.25 202.19C575.25 202.11 580 202 586 202C592 202 596.65 202.11 596.65 202.19Z" fill="#E0E0E0"/>
<path d="M608.911 191.551H605.291V199.191H608.911V191.551Z" fill="#E0E0E0"/>
<path d="M618.24 202.19C618.24 202.27 613.45 202.33 607.54 202.33C601.63 202.33 596.84 202.27 596.84 202.19C596.84 202.11 601.63 202.04 607.54 202.04C613.45 202.04 618.24 202.11 618.24 202.19Z" fill="#E0E0E0"/>
<path d="M608.911 206.721H605.291V214.361H608.911V206.721Z" fill="#E0E0E0"/>
<path d="M618.24 217.36C618.24 217.44 613.45 217.5 607.54 217.5C601.63 217.5 596.84 217.44 596.84 217.36C596.84 217.28 601.63 217.21 607.54 217.21C613.45 217.21 618.24 217.28 618.24 217.36Z" fill="#E0E0E0"/>
<path d="M608.911 222.351H605.291V229.991H608.911V222.351Z" fill="#E0E0E0"/>
<path d="M618.24 233.001C618.24 233.081 613.45 233.141 607.54 233.141C601.63 233.141 596.84 233.081 596.84 233.001C596.84 232.921 601.63 232.851 607.54 232.851C613.45 232.851 618.24 232.901 618.24 233.001Z" fill="#E0E0E0"/>
<path d="M608.911 237.971H605.291V245.611H608.911V237.971Z" fill="#E0E0E0"/>
<path d="M618.24 248.611C618.24 248.691 613.45 248.761 607.54 248.761C601.63 248.761 596.84 248.691 596.84 248.611C596.84 248.531 601.63 248.471 607.54 248.471C613.45 248.471 618.24 248.531 618.24 248.611Z" fill="#E0E0E0"/>
<path d="M608.911 253.15H605.291V260.79H608.911V253.15Z" fill="#E0E0E0"/>
<path d="M618.24 263.79C618.24 263.87 613.45 263.94 607.54 263.94C601.63 263.94 596.84 263.87 596.84 263.79C596.84 263.71 601.63 263.65 607.54 263.65C613.45 263.65 618.24 263.71 618.24 263.79Z" fill="#E0E0E0"/>
<path d="M608.911 268.4H605.291V276.04H608.911V268.4Z" fill="#E0E0E0"/>
<path d="M608.911 283.841H605.291V291.481H608.911V283.841Z" fill="#E0E0E0"/>
<path d="M618.24 279.001C618.24 279.081 613.45 279.141 607.54 279.141C601.63 279.141 596.84 279.081 596.84 279.001C596.84 278.921 601.63 278.851 607.54 278.851C613.45 278.851 618.24 279.001 618.24 279.001Z" fill="#E0E0E0"/>
<path d="M587.321 206.95H583.701V214.59H587.321V206.95Z" fill="#FAFAFA"/>
<path d="M596.65 217.59C596.65 217.67 591.86 217.74 585.95 217.74C580.04 217.74 575.25 217.67 575.25 217.59C575.25 217.51 580.04 217.44 585.95 217.44C591.86 217.44 596.65 217.51 596.65 217.59Z" fill="#E0E0E0"/>
<path d="M587.321 222.351H583.701V229.991H587.321V222.351Z" fill="#FAFAFA"/>
<path d="M596.65 233.001C596.65 233.081 591.86 233.151 585.95 233.151C580.04 233.151 575.25 233.081 575.25 233.001C575.25 232.921 580.04 232.851 585.95 232.851C591.86 232.851 596.65 232.911 596.65 233.001Z" fill="#E0E0E0"/>
<path d="M587.321 237.75H583.701V245.39H587.321V237.75Z" fill="#FAFAFA"/>
<path d="M596.65 248.39C596.65 248.47 591.86 248.54 585.95 248.54C580.04 248.54 575.25 248.47 575.25 248.39C575.25 248.31 580.04 248.25 585.95 248.25C591.86 248.25 596.65 248.31 596.65 248.39Z" fill="#E0E0E0"/>
<path d="M587.321 253.15H583.701V260.79H587.321V253.15Z" fill="#FAFAFA"/>
<path d="M596.65 263.79C596.65 263.87 591.86 263.94 585.95 263.94C580.04 263.94 575.25 263.87 575.25 263.79C575.25 263.71 580.04 263.65 585.95 263.65C591.86 263.65 596.65 263.71 596.65 263.79Z" fill="#E0E0E0"/>
<path d="M587.321 268.561H583.701V276.201H587.321V268.561Z" fill="#FAFAFA"/>
<path d="M596.65 279.191C596.65 279.271 591.86 279.341 585.95 279.341C580.04 279.341 575.25 279.271 575.25 279.191C575.25 279.111 580.04 279.051 585.95 279.051C591.86 279.051 596.65 279.111 596.65 279.191Z" fill="#E0E0E0"/>
<path d="M587.321 283.96H583.701V291.6H587.321V283.96Z" fill="#FAFAFA"/>
<path d="M667.5 250.82H615.25V416.41H667.5V250.82Z" fill="#F5F5F5"/>
<path d="M667.501 250.82H641.381V415.95H667.501V250.82Z" fill="#EBEBEB"/>
<path d="M639.671 234.561H621.221V250.821H639.671V234.561Z" fill="#F5F5F5"/>
<path d="M639.671 234.561H635.271V250.821H639.671V234.561Z" fill="#EBEBEB"/>
<path d="M610.9 250.82V249.87H669.03V250.82" fill="#E0E0E0"/>
<path d="M629.99 257.91H625.57V267.24H629.99V257.91Z" fill="#FAFAFA"/>
<path d="M641.38 270.901C641.38 270.991 635.53 271.071 628.32 271.071C621.11 271.071 615.25 270.991 615.25 270.901C615.25 270.811 621.1 270.721 628.32 270.721C635.54 270.721 641.38 270.801 641.38 270.901Z" fill="#E0E0E0"/>
<path d="M656.34 257.91H651.92V267.24H656.34V257.91Z" fill="#E0E0E0"/>
<path d="M667.731 270.901C667.731 270.991 661.881 271.071 654.671 271.071C647.461 271.071 641.611 270.991 641.611 270.901C641.611 270.811 647.451 270.721 654.671 270.721C661.891 270.721 667.731 270.801 667.731 270.901Z" fill="#E0E0E0"/>
<path d="M656.34 276.42H651.92V285.75H656.34V276.42Z" fill="#E0E0E0"/>
<path d="M667.731 289.41C667.731 289.51 661.881 289.59 654.671 289.59C647.461 289.59 641.611 289.51 641.611 289.41C641.611 289.31 647.451 289.23 654.671 289.23C661.891 289.23 667.731 289.31 667.731 289.41Z" fill="#E0E0E0"/>
<path d="M656.34 295.5H651.92V304.83H656.34V295.5Z" fill="#E0E0E0"/>
<path d="M667.731 308.481C667.731 308.581 661.881 308.661 654.671 308.661C647.461 308.661 641.611 308.581 641.611 308.481C641.611 308.381 647.451 308.311 654.671 308.311C661.891 308.311 667.731 308.381 667.731 308.481Z" fill="#E0E0E0"/>
<path d="M656.34 314.57H651.92V323.9H656.34V314.57Z" fill="#E0E0E0"/>
<path d="M667.731 327.561C667.731 327.651 661.881 327.731 654.671 327.731C647.461 327.731 641.611 327.651 641.611 327.561C641.611 327.471 647.451 327.381 654.671 327.381C661.891 327.381 667.731 327.461 667.731 327.561Z" fill="#E0E0E0"/>
<path d="M656.34 333.101H651.92V342.431H656.34V333.101Z" fill="#E0E0E0"/>
<path d="M667.731 346.08C667.731 346.18 661.881 346.26 654.671 346.26C647.461 346.26 641.611 346.18 641.611 346.08C641.611 345.98 647.451 345.91 654.671 345.91C661.891 345.91 667.731 346 667.731 346.08Z" fill="#E0E0E0"/>
<path d="M656.34 351.7H651.92V361.03H656.34V351.7Z" fill="#E0E0E0"/>
<path d="M656.34 370.551H651.92V379.881H656.34V370.551Z" fill="#E0E0E0"/>
<path d="M667.731 364.691C667.731 364.791 661.881 364.861 654.671 364.861C647.461 364.861 641.611 364.791 641.611 364.691C641.611 364.591 647.451 364.511 654.671 364.511C661.891 364.511 667.731 364.591 667.731 364.691Z" fill="#E0E0E0"/>
<path d="M629.99 276.71H625.57V286.04H629.99V276.71Z" fill="#FAFAFA"/>
<path d="M641.38 289.691C641.38 289.791 635.53 289.871 628.32 289.871C621.11 289.871 615.25 289.791 615.25 289.691C615.25 289.591 621.1 289.511 628.32 289.511C635.54 289.511 641.38 289.591 641.38 289.691Z" fill="#E0E0E0"/>
<path d="M629.99 295.5H625.57V304.83H629.99V295.5Z" fill="#FAFAFA"/>
<path d="M641.38 308.491C641.38 308.591 635.53 308.671 628.32 308.671C621.11 308.671 615.25 308.591 615.25 308.491C615.25 308.391 621.1 308.311 628.32 308.311C635.54 308.311 641.38 308.391 641.38 308.491Z" fill="#E0E0E0"/>
<path d="M629.99 314.301H625.57V323.631H629.99V314.301Z" fill="#FAFAFA"/>
<path d="M641.38 327.29C641.38 327.39 635.53 327.46 628.32 327.46C621.11 327.46 615.25 327.39 615.25 327.29C615.25 327.19 621.1 327.11 628.32 327.11C635.54 327.11 641.38 327.19 641.38 327.29Z" fill="#E0E0E0"/>
<path d="M629.99 333.101H625.57V342.431H629.99V333.101Z" fill="#FAFAFA"/>
<path d="M641.38 346.08C641.38 346.18 635.53 346.26 628.32 346.26C621.11 346.26 615.25 346.18 615.25 346.08C615.25 345.98 621.1 345.91 628.32 345.91C635.54 345.91 641.38 346 641.38 346.08Z" fill="#E0E0E0"/>
<path d="M629.99 351.9H625.57V361.23H629.99V351.9Z" fill="#FAFAFA"/>
<path d="M641.38 364.88C641.38 364.98 635.53 365.06 628.32 365.06C621.11 365.06 615.25 364.98 615.25 364.88C615.25 364.78 621.1 364.7 628.32 364.7C635.54 364.7 641.38 364.78 641.38 364.88Z" fill="#E0E0E0"/>
<path d="M629.99 370.69H625.57V380.02H629.99V370.69Z" fill="#FAFAFA"/>
<path d="M627.372 314.24H553.512V411.65H627.372V314.24Z" fill="#EBEBEB"/>
<path d="M627.36 314.24H592.73V411.65H627.36V314.24Z" fill="#E0E0E0"/>
<path d="M575.63 327.431H568.99V343.561H575.63V327.431Z" fill="#F5F5F5"/>
<path d="M575.63 390.57H568.99V406.7H575.63V390.57Z" fill="#F5F5F5"/>
<path d="M592.732 349.891C592.732 350.071 583.952 350.221 573.122 350.221C562.292 350.221 553.512 350.071 553.512 349.891C553.512 349.711 562.292 349.561 573.122 349.561C583.952 349.561 592.732 349.711 592.732 349.891Z" fill="#F5F5F5"/>
<path d="M575.63 359.24H568.99V375.37H575.63V359.24Z" fill="#F5F5F5"/>
<path d="M592.732 381.701C592.732 381.891 583.952 382.031 573.122 382.031C562.292 382.031 553.512 381.891 553.512 381.701C553.512 381.511 562.292 381.381 573.122 381.381C583.952 381.381 592.732 381.521 592.732 381.701Z" fill="#F5F5F5"/>
<path d="M606.73 327.431H600.09V343.561H606.73V327.431Z" fill="#F5F5F5"/>
<path d="M621.13 327.431H614.49V343.561H621.13V327.431Z" fill="#F5F5F5"/>
<path d="M606.73 358.04H600.09V374.17H606.73V358.04Z" fill="#F5F5F5"/>
<path d="M621.13 358.04H614.49V374.17H621.13V358.04Z" fill="#F5F5F5"/>
<path d="M606.73 388.66H600.09V404.79H606.73V388.66Z" fill="#F5F5F5"/>
<path d="M621.13 388.66H614.49V404.79H621.13V388.66Z" fill="#F5F5F5"/>
<path d="M632.911 310.851H547.951V314.361H632.911V310.851Z" fill="#E0E0E0"/>
<path d="M627.881 314.69C627.881 314.87 611.371 315.02 591.011 315.02C570.651 315.02 554.141 314.87 554.141 314.69C554.141 314.51 570.651 314.36 591.011 314.36C611.371 314.36 627.881 314.51 627.881 314.69Z" fill="#EBEBEB"/>
<path d="M364.07 302.58H299.28L299 200.19H363.79L364.07 302.58Z" fill="#EBEBEB"/>
<path d="M363.781 200.19H331.391V302.58H363.781V200.19Z" fill="#E0E0E0"/>
<path d="M329.28 180.04H306.4V200.2H329.28V180.04Z" fill="#EBEBEB"/>
<path d="M329.27 180.04H323.82V200.2H329.27V180.04Z" fill="#E0E0E0"/>
<path d="M365.682 199.021H293.602V200.201H365.682V199.021Z" fill="#E0E0E0"/>
<path d="M317.271 208.99H311.791V220.55H317.271V208.99Z" fill="white"/>
<path d="M331.39 225.09C331.39 225.21 324.14 225.31 315.2 225.31C306.26 225.31 299 225.21 299 225.09C299 224.97 306.25 224.87 315.2 224.87C324.15 224.87 331.39 225 331.39 225.09Z" fill="#E0E0E0"/>
<path d="M349.941 208.99H344.461V220.55H349.941V208.99Z" fill="#F5F5F5"/>
<path d="M364.07 225.09C364.07 225.21 356.82 225.31 347.87 225.31C338.92 225.31 331.67 225.21 331.67 225.09C331.67 224.97 338.92 224.87 347.87 224.87C356.82 224.87 364.07 225 364.07 225.09Z" fill="#EBEBEB"/>
<path d="M349.941 231.94H344.461V243.5H349.941V231.94Z" fill="#F5F5F5"/>
<path d="M364.07 248C364.07 248.13 356.82 248.22 347.87 248.22C338.92 248.22 331.67 248.13 331.67 248C331.67 247.87 338.92 247.78 347.87 247.78C356.82 247.78 364.07 247.92 364.07 248Z" fill="#EBEBEB"/>
<path d="M349.941 255.591H344.461V267.151H349.941V255.591Z" fill="#F5F5F5"/>
<path d="M364.07 271.691C364.07 271.821 356.82 271.921 347.87 271.921C338.92 271.921 331.67 271.821 331.67 271.691C331.67 271.561 338.92 271.471 347.87 271.471C356.82 271.471 364.07 271.571 364.07 271.691Z" fill="#EBEBEB"/>
<path d="M349.941 279.24H344.461V290.8H349.941V279.24Z" fill="#F5F5F5"/>
<path d="M364.07 295.34C364.07 295.47 356.82 295.57 347.87 295.57C338.92 295.57 331.67 295.47 331.67 295.34C331.67 295.21 338.92 295.12 347.87 295.12C356.82 295.12 364.07 295.22 364.07 295.34Z" fill="#EBEBEB"/>
<path d="M317.271 232.29H311.791V243.85H317.271V232.29Z" fill="white"/>
<path d="M331.39 248.39C331.39 248.52 324.14 248.62 315.2 248.62C306.26 248.62 299 248.52 299 248.39C299 248.26 306.25 248.17 315.2 248.17C324.15 248.17 331.39 248.27 331.39 248.39Z" fill="#E0E0E0"/>
<path d="M317.271 255.601H311.791V267.161H317.271V255.601Z" fill="white"/>
<path d="M331.39 271.7C331.39 271.82 324.14 271.92 315.2 271.92C306.26 271.92 299 271.82 299 271.7C299 271.58 306.25 271.48 315.2 271.48C324.15 271.48 331.39 271.58 331.39 271.7Z" fill="#E0E0E0"/>
<path d="M317.271 278.91H311.791V290.47H317.271V278.91Z" fill="white"/>
<path d="M331.39 295C331.39 295.12 324.14 295.22 315.2 295.22C306.26 295.22 299 295.12 299 295C299 294.88 306.25 294.78 315.2 294.78C324.15 294.78 331.39 294.89 331.39 295Z" fill="#E0E0E0"/>
<path d="M265.9 346.81H201.12L200.83 244.42H265.62L265.9 346.81Z" fill="#EBEBEB"/>
<path d="M265.62 244.42H233.23V346.81H265.62V244.42Z" fill="#E0E0E0"/>
<path d="M231.11 224.271H208.23V244.43H231.11V224.271Z" fill="#EBEBEB"/>
<path d="M231.11 224.271H225.66V244.43H231.11V224.271Z" fill="#E0E0E0"/>
<path d="M267.521 243.25H195.441V244.43H267.521V243.25Z" fill="#E0E0E0"/>
<path d="M219.101 253.221H213.621V264.781H219.101V253.221Z" fill="white"/>
<path d="M233.23 269.321C233.23 269.441 225.98 269.541 217.03 269.541C208.08 269.541 200.83 269.441 200.83 269.321C200.83 269.201 208.09 269.101 217.03 269.101C225.97 269.101 233.23 269.191 233.23 269.321Z" fill="#E0E0E0"/>
<path d="M251.781 253.221H246.301V264.781H251.781V253.221Z" fill="#F5F5F5"/>
<path d="M265.902 269.321C265.902 269.441 258.652 269.541 249.712 269.541C240.772 269.541 233.512 269.441 233.512 269.321C233.512 269.201 240.762 269.101 249.712 269.101C258.662 269.101 265.902 269.191 265.902 269.321Z" fill="#EBEBEB"/>
<path d="M251.781 276.17H246.301V287.73H251.781V276.17Z" fill="#F5F5F5"/>
<path d="M265.902 292.271C265.902 292.401 258.652 292.501 249.712 292.501C240.772 292.501 233.512 292.401 233.512 292.271C233.512 292.141 240.762 292.051 249.712 292.051C258.662 292.051 265.902 292.151 265.902 292.271Z" fill="#EBEBEB"/>
<path d="M251.781 299.82H246.301V311.38H251.781V299.82Z" fill="#F5F5F5"/>
<path d="M265.902 315.92C265.902 316.05 258.652 316.15 249.712 316.15C240.772 316.15 233.512 316.05 233.512 315.92C233.512 315.79 240.762 315.7 249.712 315.7C258.662 315.7 265.902 315.8 265.902 315.92Z" fill="#EBEBEB"/>
<path d="M251.781 323.471H246.301V335.031H251.781V323.471Z" fill="#F5F5F5"/>
<path d="M265.902 339.571C265.902 339.701 258.652 339.801 249.712 339.801C240.772 339.801 233.512 339.701 233.512 339.571C233.512 339.441 240.762 339.351 249.712 339.351C258.662 339.351 265.902 339.451 265.902 339.571Z" fill="#EBEBEB"/>
<path d="M219.101 276.521H213.621V288.081H219.101V276.521Z" fill="white"/>
<path d="M233.23 292.62C233.23 292.75 225.98 292.85 217.03 292.85C208.08 292.85 200.83 292.75 200.83 292.62C200.83 292.49 208.09 292.4 217.03 292.4C225.97 292.4 233.23 292.5 233.23 292.62Z" fill="#E0E0E0"/>
<path d="M219.101 299.83H213.621V311.39H219.101V299.83Z" fill="white"/>
<path d="M233.23 315.93C233.23 316.05 225.98 316.15 217.03 316.15C208.08 316.15 200.83 316.05 200.83 315.93C200.83 315.81 208.09 315.71 217.03 315.71C225.97 315.71 233.23 315.81 233.23 315.93Z" fill="#E0E0E0"/>
<path d="M219.101 323.141H213.621V334.701H219.101V323.141Z" fill="white"/>
<path d="M233.23 339.241C233.23 339.361 225.98 339.461 217.03 339.461C208.08 339.461 200.83 339.361 200.83 339.241C200.83 339.121 208.09 339.021 217.03 339.021C225.97 339.021 233.23 339.121 233.23 339.241Z" fill="#E0E0E0"/>
<path d="M381.24 59.1006C381.84 54.7406 375.69 51.1606 371.08 50.7906C368.88 50.6106 366.59 50.9506 364.5 50.2206C359.99 48.6506 358.18 42.8106 353.77 40.9506C350.48 39.5606 346.68 40.8006 343.49 42.4106C340.3 44.0206 337.13 46.0406 333.56 46.2706C330.46 46.4706 327.08 45.2706 324.37 46.8306C322.37 47.9606 321.28 50.3006 319.42 51.6706C317.56 53.0406 315.21 53.3006 312.94 53.4306C310.67 53.5606 308.33 53.5706 306.27 54.5206C304.21 55.4706 302.5 57.6406 302.93 59.8706L381.24 59.1006Z" fill="#F5F5F5"/>
<path d="M90.7108 239.93C91.0808 237.23 87.2608 235 84.3908 234.77C83.0181 234.826 81.644 234.708 80.3008 234.42C77.4908 233.42 76.3708 229.81 73.6308 228.65C71.6308 227.79 69.2208 228.56 67.2308 229.56C65.2408 230.56 63.2308 231.81 61.0608 231.96C59.1308 232.08 57.0608 231.36 55.3408 232.31C54.0808 233.01 53.4208 234.46 52.2608 235.31C51.0579 236.046 49.6705 236.424 48.2608 236.4C46.8471 236.366 45.4396 236.597 44.1108 237.08C43.442 237.329 42.8733 237.791 42.4922 238.394C42.111 238.997 41.9384 239.709 42.0008 240.42L90.7108 239.93Z" fill="#F5F5F5"/>
<path d="M730.281 191.481C730.871 187.131 724.731 183.551 720.111 183.181C717.911 183.001 715.631 183.341 713.541 182.611C709.021 181.031 707.221 175.201 702.811 173.341C699.511 171.951 695.721 173.181 692.521 174.791C689.321 176.401 686.171 178.421 682.601 178.651C679.491 178.851 676.121 177.651 673.401 179.221C671.401 180.351 670.321 182.681 668.451 184.061C666.581 185.441 664.241 185.691 661.981 185.811C659.721 185.931 657.371 185.961 655.311 186.901C653.251 187.841 651.541 190.031 651.971 192.261L730.281 191.481Z" fill="#EBEBEB"/>
<path d="M526.921 99.7503C527.441 95.9703 522.102 92.8503 518.082 92.5303C516.172 92.3803 514.181 92.6703 512.361 92.0403C508.431 90.6703 506.862 85.5903 503.032 83.9703C500.162 82.7603 496.861 83.8403 494.081 85.2403C491.301 86.6403 488.552 88.4003 485.442 88.5903C482.742 88.7703 479.812 87.7703 477.442 89.0903C475.672 90.0903 474.752 92.0903 473.132 93.3003C471.44 94.3382 469.485 94.8659 467.502 94.8203C465.52 94.7908 463.55 95.1299 461.692 95.8203C459.902 96.6403 458.422 98.5403 458.792 100.48L526.921 99.7503Z" fill="#EBEBEB"/>
<path d="M265.72 111.11C266.33 106.66 260.05 103 255.33 102.62C253.08 102.44 250.74 102.78 248.6 102.04C243.98 100.43 242.13 94.45 237.6 92.55C234.22 91.13 230.34 92.4 227.07 94.04C223.8 95.68 220.6 97.76 217 98C213.83 98.2 210.38 97 207.6 98.58C205.53 99.73 204.44 102.12 202.53 103.58C200.62 105.04 198.23 105.25 195.91 105.37C193.59 105.49 191.2 105.52 189.09 106.49C186.98 107.46 185.23 109.69 185.67 111.96L265.72 111.11Z" fill="#EBEBEB"/>
<path d="M120.691 60.8C121.171 57.31 116.251 54.45 112.561 54.15C110.791 54.01 108.961 54.28 107.291 53.69C103.671 52.43 102.231 47.76 98.7009 46.27C96.0609 45.16 93.0209 46.15 90.4609 47.43C87.9009 48.71 85.3709 50.34 82.5109 50.53C80.0309 50.68 77.3309 49.76 75.1509 50.98C73.5309 51.88 72.6809 53.75 71.1509 54.85C69.6045 55.8032 67.8171 56.2926 66.0009 56.26C64.1824 56.2183 62.372 56.5132 60.6609 57.13C59.0109 57.89 57.6609 59.63 57.9809 61.42L120.691 60.8Z" fill="#EBEBEB"/>
<path d="M647.262 39.9204C647.592 37.4904 644.172 35.5004 641.602 35.2904C640.373 35.341 639.143 35.2334 637.942 34.9704C635.422 34.1004 634.422 30.8504 631.942 29.8104C630.102 29.0404 627.942 29.7204 626.212 30.6204C624.482 31.5204 622.672 32.6204 620.682 32.7704C618.952 32.8804 617.072 32.2404 615.562 33.0904C614.432 33.7204 613.842 35.0104 612.802 35.7804C611.724 36.4556 610.473 36.803 609.202 36.7804C607.934 36.7492 606.673 36.9561 605.482 37.3904C604.888 37.6203 604.385 38.0375 604.049 38.5789C603.714 39.1202 603.563 39.7561 603.622 40.3904L647.262 39.9204Z" fill="#F5F5F5"/>
<path d="M734.281 439.71C734.281 439.85 573.411 439.97 375.021 439.97C176.631 439.97 15.7207 439.85 15.7207 439.71C15.7207 439.57 176.561 439.45 375.021 439.45C573.481 439.45 734.281 439.56 734.281 439.71Z" fill="#263238"/>
<path d="M96.4509 193.08C98.1009 196.46 102.311 196.15 105.451 196.08C108.451 196.01 111.451 195.91 114.451 195.8C120.218 195.593 125.991 195.36 131.771 195.1L135.501 194.93C136.231 194.93 136.241 193.76 135.501 193.79C126.381 194.21 117.251 194.6 108.121 194.87C106.671 194.87 105.221 194.96 103.771 194.98C101.431 195.03 98.5809 194.92 97.4109 192.51C97.0909 191.85 96.1009 192.43 96.4109 193.09L96.4509 193.08Z" fill="#263238"/>
<path d="M101.179 195.33C101.752 191.783 103.367 188.486 105.819 185.86C106.319 185.32 105.519 184.51 105.019 185.05C102.417 187.82 100.698 191.301 100.079 195.05C99.9593 195.77 101.079 196.05 101.179 195.35V195.33Z" fill="#263238"/>
<path d="M129.799 186.519C130.201 189.021 130.078 191.578 129.439 194.029C129.419 194.102 129.413 194.177 129.422 194.252C129.431 194.326 129.454 194.398 129.491 194.464C129.528 194.529 129.577 194.587 129.636 194.633C129.695 194.68 129.762 194.714 129.834 194.734C129.907 194.755 129.982 194.761 130.057 194.752C130.131 194.743 130.203 194.72 130.269 194.683C130.334 194.646 130.392 194.597 130.438 194.538C130.485 194.479 130.519 194.412 130.539 194.339C131.223 191.687 131.346 188.922 130.899 186.219C130.789 185.499 129.689 185.799 129.799 186.519Z" fill="#263238"/>
<path d="M119.77 187.71C121.45 188.78 121.77 190.99 121.99 192.82C122.27 195.102 122.381 197.401 122.32 199.7C122.32 199.851 122.38 199.996 122.487 200.103C122.594 200.209 122.739 200.27 122.89 200.27C123.042 200.27 123.187 200.209 123.293 200.103C123.4 199.996 123.46 199.851 123.46 199.7C123.519 197.125 123.365 194.549 123 192C122.72 190 122.12 187.86 120.3 186.69C119.68 186.3 119.11 187.28 119.73 187.69L119.77 187.71Z" fill="#263238"/>
<path d="M147.25 186.77C148.427 188.184 149.127 189.934 149.25 191.77C149.557 193.956 149.704 196.162 149.69 198.37C149.69 198.521 149.75 198.666 149.857 198.773C149.964 198.88 150.109 198.94 150.26 198.94C150.412 198.94 150.557 198.88 150.663 198.773C150.77 198.666 150.83 198.521 150.83 198.37C150.841 196 150.671 193.633 150.32 191.29C150.12 189.331 149.316 187.482 148.02 186C147.5 185.48 146.69 186.29 147.21 186.8L147.25 186.77Z" fill="#263238"/>
<path d="M114.749 198.28C116.149 201.03 119.399 201.28 122.129 201.07C125.869 200.84 129.599 200.56 133.339 200.3L155.829 198.77C156.559 198.72 156.559 197.58 155.829 197.63L135.139 199L124.789 199.71C121.909 199.91 117.359 200.84 115.729 197.71C115.389 197.06 114.409 197.63 114.729 198.28H114.749Z" fill="#263238"/>
<path d="M204.791 160.88C204.791 160.88 204.791 160.02 204.591 158.49C204.396 156.322 203.88 154.196 203.061 152.18C202.551 150.789 201.66 149.57 200.491 148.66C200.169 148.434 199.803 148.281 199.416 148.21C199.029 148.139 198.632 148.153 198.251 148.25C197.452 148.522 196.754 149.031 196.251 149.71C195.142 151.235 194.365 152.976 193.971 154.82C193.064 158.809 193.064 162.951 193.971 166.94C194.367 168.786 195.143 170.53 196.251 172.06C196.757 172.735 197.453 173.244 198.251 173.52C198.632 173.618 199.031 173.631 199.418 173.559C199.805 173.486 200.171 173.329 200.491 173.1C201.662 172.196 202.553 170.979 203.061 169.59C203.878 167.573 204.393 165.447 204.591 163.28C204.751 161.74 204.741 160.88 204.791 160.88C204.81 161.089 204.81 161.3 204.791 161.51C204.822 162.103 204.822 162.697 204.791 163.29C204.672 165.494 204.199 167.665 203.391 169.72C202.87 171.184 201.944 172.471 200.721 173.43C200.356 173.693 199.938 173.873 199.495 173.958C199.053 174.043 198.598 174.029 198.161 173.92C197.262 173.64 196.473 173.088 195.901 172.34C194.735 170.766 193.917 168.963 193.501 167.05C192.554 162.991 192.554 158.769 193.501 154.71C193.92 152.8 194.737 151.001 195.901 149.43C196.473 148.682 197.262 148.13 198.161 147.85C198.597 147.739 199.052 147.724 199.494 147.807C199.936 147.89 200.355 148.068 200.721 148.33C201.945 149.292 202.871 150.582 203.391 152.05C204.199 154.101 204.672 156.269 204.791 158.47C204.822 159.066 204.822 159.663 204.791 160.26C204.811 160.466 204.811 160.674 204.791 160.88Z" fill="#263238"/>
<path d="M95.0497 177.67C94.4697 173.13 97.1997 169.56 102.05 168.42C102.05 168.42 106.36 152.19 118.66 151.05C130.96 149.91 148.21 151.68 151.89 154.05C155.57 156.42 160 164.32 163.3 164.83C166.6 165.34 186.63 167.74 187.64 167.74C188.34 167.74 191.83 161.85 193.96 158.14C194.434 157.311 195.184 156.674 196.079 156.339C196.974 156.005 197.958 155.995 198.86 156.31H198.93L194.71 174L166.44 175.52C166.44 175.52 156.29 187.06 148.81 187.06C141.33 187.06 115.97 187.95 111.53 187.06C107.09 186.17 95.8097 183.63 95.0497 177.67Z" fill="#FF6D38"/>
<path d="M147.9 161.569H145.97C143.861 161.569 142.15 163.28 142.15 165.389V169.329C142.15 171.439 143.861 173.149 145.97 173.149H147.9C150.01 173.149 151.72 171.439 151.72 169.329V165.389C151.72 163.28 150.01 161.569 147.9 161.569Z" fill="white"/>
<path d="M137.691 145.58C134.877 146.25 131.945 146.25 129.131 145.58V141H137.691V145.58Z" fill="#263238"/>
<path d="M135.8 143.04H131.02V148.75H135.8V143.04Z" fill="#263238"/>
<path d="M135.9 182.61C135.9 182.61 136.2 181.91 136.67 180.61C137.308 178.791 137.806 176.925 138.16 175.03C138.693 172.223 138.991 169.376 139.05 166.52C139.092 164.852 139.042 163.183 138.9 161.52C138.861 161.125 138.696 160.754 138.43 160.46C138.129 160.199 137.737 160.067 137.34 160.09H131.81C131.616 160.084 131.423 160.125 131.249 160.211C131.075 160.296 130.924 160.423 130.81 160.58C130.7 160.733 130.631 160.912 130.61 161.1L130.55 161.75C130.41 163.51 130.24 165.2 130.05 166.81C129.713 169.669 129.216 172.507 128.56 175.31C128.118 177.198 127.564 179.058 126.9 180.88C126.67 181.53 126.47 182.02 126.33 182.35C126.26 182.521 126.18 182.688 126.09 182.85C126.111 182.666 126.162 182.488 126.24 182.32C126.36 181.93 126.53 181.43 126.73 180.82C127.15 179.52 127.73 177.62 128.23 175.23C128.839 172.433 129.3 169.606 129.61 166.76C129.8 165.16 129.95 163.47 130.09 161.71L130.15 161.04C130.178 160.781 130.27 160.533 130.42 160.32C130.573 160.102 130.776 159.924 131.013 159.802C131.25 159.68 131.513 159.617 131.78 159.62H137.32C137.837 159.598 138.342 159.777 138.73 160.12C139.06 160.491 139.266 160.956 139.32 161.45C139.461 163.153 139.504 164.862 139.45 166.57C139.369 169.451 139.035 172.318 138.45 175.14C138.076 177.046 137.527 178.914 136.81 180.72C136.616 181.212 136.396 181.692 136.15 182.16C136.082 182.318 135.998 182.469 135.9 182.61Z" fill="#263238"/>
<path d="M115.74 155.26C110.26 155.26 108.95 156.02 108.83 156.1C105.672 159.652 103.339 163.859 102 168.42C105.51 166.93 110.86 169 113.85 171.25C116.84 173.5 118.43 174.98 122.73 174.7C127.03 174.42 126.56 170.03 127.49 163.3C128.42 156.57 121.53 155.26 115.74 155.26Z" fill="#E0E0E0"/>
<g opacity="0.3">
<path d="M149.79 182.05C149.79 182.05 127.26 183.05 120.44 182.88C113.62 182.71 106.51 176.81 102.32 175.29C100.027 174.368 97.4909 174.244 95.1197 174.94C95.1244 174.969 95.1244 175 95.1197 175.03L94.9997 176.03C94.9786 176.571 95.002 177.112 95.0697 177.65C95.8297 183.65 107.07 186.16 111.55 187.04C116.03 187.92 141.35 187.04 148.83 187.04C154.12 187.04 160.73 181.28 164.16 177.9C159.91 179 149.79 182.05 149.79 182.05Z" fill="white"/>
</g>
<path d="M149.501 182C149.143 182.084 148.778 182.131 148.411 182.14C147.701 182.21 146.681 182.28 145.411 182.36C142.881 182.52 139.411 182.7 135.541 182.84C131.671 182.98 128.181 183.07 125.651 183.08C124.391 183.08 123.361 183.08 122.651 183.08C122.282 183.087 121.913 183.057 121.551 182.99C121.912 182.915 122.282 182.881 122.651 182.89L125.651 182.77L135.521 182.4L145.391 182.05L148.391 181.99C148.76 181.956 149.132 181.959 149.501 182Z" fill="#263238"/>
<path d="M174.479 170.08H168.609V172.31H174.479V170.08Z" fill="white"/>
<path d="M170.439 168.449V173.939H172.649V168.449H170.439Z" fill="white"/>
<path d="M124 150.739C124 150.739 125.66 148.329 127.62 148.069C129.58 147.809 139.56 147.799 142.92 149.399C145.04 150.449 146.969 151.845 148.63 153.529L124 150.739Z" fill="#FF6D38"/>
<path d="M187.37 142C187.337 141.818 187.283 141.64 187.21 141.47C186.936 140.999 186.538 140.612 186.06 140.35C184.215 139.345 182.23 138.623 180.17 138.21C172.597 136.593 164.905 135.59 157.17 135.21C147.39 134.57 135.71 134.29 122.76 134.73C116.28 134.97 109.49 135.36 102.48 136.16C98.9902 136.56 95.4802 137.06 91.8702 137.79C90.0773 138.138 88.3073 138.595 86.5702 139.16C85.7017 139.437 84.8586 139.788 84.0502 140.21C83.2902 140.63 82.4302 141.21 82.3802 141.99C82.3302 142.77 83.2802 143.36 84.0402 143.78C84.852 144.201 85.6984 144.553 86.5702 144.83C88.3043 145.393 90.0708 145.85 91.8602 146.2C95.4202 146.94 98.9802 147.43 102.48 147.83C109.48 148.63 116.28 149.03 122.76 149.26C135.76 149.7 147.39 149.42 157.17 148.78C164.905 148.4 172.597 147.397 180.17 145.78C182.23 145.366 184.215 144.645 186.06 143.64C186.538 143.378 186.936 142.991 187.21 142.52C187.28 142.352 187.334 142.178 187.37 142C187.37 142.186 187.329 142.371 187.25 142.54C186.99 143.033 186.594 143.442 186.11 143.72C184.276 144.769 182.288 145.525 180.22 145.96C174.89 147.32 166.99 148.42 157.22 149.12C145.751 149.892 134.249 150.086 122.76 149.7C116.28 149.48 109.47 149.08 102.45 148.29C98.9402 147.89 95.3702 147.4 91.7902 146.67C89.9777 146.312 88.1879 145.848 86.4302 145.28C85.532 144.997 84.6617 144.632 83.8302 144.19C83.4049 143.96 83.0059 143.685 82.6402 143.37C82.4174 143.216 82.2353 143.011 82.1095 142.771C81.9837 142.532 81.918 142.265 81.918 141.995C81.918 141.724 81.9837 141.458 82.1095 141.218C82.2353 140.979 82.4174 140.773 82.6402 140.62C83.0039 140.299 83.4032 140.02 83.8302 139.79C84.6639 139.355 85.5339 138.994 86.4302 138.71C88.1879 138.141 89.9777 137.677 91.7902 137.32C95.3702 136.59 98.9302 136.1 102.44 135.7C109.44 134.91 116.27 134.52 122.75 134.29C134.236 133.903 145.734 134.097 157.2 134.87C164.941 135.289 172.633 136.346 180.2 138.03C182.272 138.463 184.263 139.219 186.1 140.27C186.584 140.547 186.98 140.956 187.24 141.45C187.324 141.621 187.368 141.809 187.37 142Z" fill="#263238"/>
<path d="M133.411 142.3C135.775 142.3 137.691 141.803 137.691 141.19C137.691 140.577 135.775 140.08 133.411 140.08C131.047 140.08 129.131 140.577 129.131 141.19C129.131 141.803 131.047 142.3 133.411 142.3Z" fill="#455A64"/>
<path d="M130.47 142.309C130.47 142.439 124.59 143.549 117.28 144.789C109.97 146.029 104.03 146.929 104.01 146.789C103.99 146.649 109.89 145.549 117.2 144.309C124.51 143.069 130.45 142.179 130.47 142.309Z" fill="#263238"/>
<path d="M133.069 141C132.923 141.017 132.775 141.017 132.629 141H131.379L126.759 141.08C122.869 141.14 117.479 141.25 111.539 141.47C105.599 141.69 100.229 141.99 96.3393 142.22L91.7293 142.49H90.4693C90.3236 142.513 90.175 142.513 90.0293 142.49C90.1698 142.437 90.319 142.409 90.4693 142.41L91.7093 142.26C92.7993 142.14 94.3693 142 96.3093 141.84C100.199 141.53 105.579 141.18 111.529 140.96C117.479 140.74 122.859 140.68 126.759 140.7C128.759 140.7 130.289 140.7 131.379 140.78L132.629 140.83C132.786 140.856 132.936 140.914 133.069 141Z" fill="#263238"/>
<path d="M119.78 158.09C117.379 159.469 114.902 160.711 112.36 161.81C109.886 163.049 107.341 164.145 104.74 165.09C107.143 163.713 109.62 162.471 112.16 161.37C114.636 160.132 117.18 159.037 119.78 158.09Z" fill="#263238"/>
<path d="M118.081 161.199C116.591 162.104 115.052 162.926 113.471 163.659C111.959 164.526 110.404 165.314 108.811 166.019C110.167 164.909 111.659 163.975 113.251 163.239C114.769 162.36 116.391 161.674 118.081 161.199Z" fill="#263238"/>
<path d="M150.25 153.15C150.25 153.28 144.38 152.82 137.18 152.15C129.98 151.48 124.18 150.78 124.18 150.65C124.18 150.52 130.04 150.98 137.25 151.65C144.46 152.32 150.26 153 150.25 153.15Z" fill="#263238"/>
<path d="M400.1 273.261H42.3203V439.441H400.1V273.261Z" fill="#E0E0E0"/>
<path d="M400.091 273.26C400.091 274.75 400.171 336.87 400.281 439.44V439.63H400.091L42.3405 439.7H42.0605V439.44C42.0605 380.98 42.0605 324.76 42.0605 273.26V273H42.3105L400.081 273.25L42.3105 273.49L42.5505 273.25C42.5505 324.75 42.5505 380.97 42.5505 439.43L42.2905 439.17L400.041 439.24L399.851 439.43C400.001 336.87 400.091 274.75 400.091 273.26Z" fill="#263238"/>
<path d="M395.7 383.761H42.3203V439.431H395.7V383.761Z" fill="#FF6D38"/>
<path d="M317.279 398.25H184.539V428.52H317.279V398.25Z" fill="#455A64"/>
<path d="M305.279 398.47V428.37C305.29 428.422 305.319 428.468 305.359 428.501C305.4 428.535 305.452 428.553 305.504 428.553C305.557 428.553 305.608 428.535 305.649 428.501C305.69 428.468 305.718 428.422 305.729 428.37V398.47C305.718 398.419 305.69 398.373 305.649 398.339C305.608 398.306 305.557 398.288 305.504 398.288C305.452 398.288 305.4 398.306 305.359 398.339C305.319 398.373 305.29 398.419 305.279 398.47Z" fill="#E0E0E0"/>
<path d="M290.439 398.47V428.37C290.439 428.431 290.464 428.49 290.507 428.533C290.55 428.576 290.608 428.6 290.669 428.6C290.73 428.6 290.789 428.576 290.832 428.533C290.875 428.49 290.899 428.431 290.899 428.37V398.47C290.899 398.409 290.875 398.351 290.832 398.308C290.789 398.264 290.73 398.24 290.669 398.24C290.608 398.24 290.55 398.264 290.507 398.308C290.464 398.351 290.439 398.409 290.439 398.47Z" fill="#E0E0E0"/>
<path d="M275.61 398.47V428.37C275.621 428.422 275.65 428.468 275.691 428.501C275.732 428.534 275.783 428.552 275.835 428.552C275.888 428.552 275.939 428.534 275.98 428.501C276.021 428.468 276.05 428.422 276.06 428.37V398.47C276.068 398.437 276.067 398.402 276.059 398.369C276.051 398.335 276.036 398.304 276.014 398.278C275.993 398.251 275.965 398.23 275.934 398.215C275.904 398.2 275.87 398.192 275.835 398.192C275.801 398.192 275.767 398.2 275.736 398.215C275.706 398.23 275.678 398.251 275.657 398.278C275.635 398.304 275.62 398.335 275.612 398.369C275.604 398.402 275.603 398.437 275.61 398.47Z" fill="#E0E0E0"/>
<path d="M260.77 398.47V428.37C260.77 428.431 260.794 428.49 260.837 428.533C260.88 428.576 260.939 428.6 261 428.6C261.061 428.6 261.119 428.576 261.162 428.533C261.205 428.49 261.23 428.431 261.23 428.37V398.47C261.23 398.409 261.205 398.351 261.162 398.308C261.119 398.264 261.061 398.24 261 398.24C260.939 398.24 260.88 398.264 260.837 398.308C260.794 398.351 260.77 398.409 260.77 398.47Z" fill="#E0E0E0"/>
<path d="M245.941 398.47V428.37C245.951 428.422 245.98 428.468 246.021 428.501C246.062 428.534 246.113 428.552 246.166 428.552C246.218 428.552 246.269 428.534 246.31 428.501C246.351 428.468 246.38 428.422 246.391 428.37V398.47C246.398 398.437 246.397 398.402 246.389 398.369C246.381 398.335 246.366 398.304 246.344 398.278C246.323 398.251 246.295 398.23 246.265 398.215C246.234 398.2 246.2 398.192 246.166 398.192C246.131 398.192 246.097 398.2 246.067 398.215C246.036 398.23 246.008 398.251 245.987 398.278C245.965 398.304 245.95 398.335 245.942 398.369C245.934 398.402 245.933 398.437 245.941 398.47Z" fill="#E0E0E0"/>
<path d="M231.1 398.47V428.37C231.1 428.431 231.124 428.49 231.167 428.533C231.21 428.576 231.269 428.6 231.33 428.6C231.391 428.6 231.449 428.576 231.492 428.533C231.535 428.49 231.56 428.431 231.56 428.37V398.47C231.56 398.409 231.535 398.351 231.492 398.308C231.449 398.264 231.391 398.24 231.33 398.24C231.269 398.24 231.21 398.264 231.167 398.308C231.124 398.351 231.1 398.409 231.1 398.47Z" fill="#E0E0E0"/>
<path d="M216.271 398.47V428.37C216.282 428.422 216.31 428.468 216.351 428.501C216.392 428.534 216.443 428.552 216.496 428.552C216.548 428.552 216.599 428.534 216.64 428.501C216.681 428.468 216.71 428.422 216.721 428.37V398.47C216.728 398.437 216.727 398.402 216.719 398.369C216.711 398.335 216.696 398.304 216.674 398.278C216.653 398.251 216.626 398.23 216.595 398.215C216.564 398.2 216.53 398.192 216.496 398.192C216.461 398.192 216.428 398.2 216.397 398.215C216.366 398.23 216.338 398.251 216.317 398.278C216.295 398.304 216.28 398.335 216.272 398.369C216.264 398.402 216.264 398.437 216.271 398.47Z" fill="#E0E0E0"/>
<path d="M201.43 398.47V428.37C201.43 428.431 201.454 428.49 201.497 428.533C201.54 428.576 201.599 428.6 201.66 428.6C201.721 428.6 201.779 428.576 201.822 428.533C201.865 428.49 201.89 428.431 201.89 428.37V398.47C201.89 398.409 201.865 398.351 201.822 398.308C201.779 398.264 201.721 398.24 201.66 398.24C201.599 398.24 201.54 398.264 201.497 398.308C201.454 398.351 201.43 398.409 201.43 398.47Z" fill="#E0E0E0"/>
<g opacity="0.3">
<path d="M184.529 402.14H315.049V428.56H317.299V398.28H184.559L184.529 402.14Z" fill="black"/>
</g>
<path d="M396.451 398.551H327.061V428.821H396.451V398.551Z" fill="#455A64"/>
<path d="M388.449 398.76V428.67C388.449 428.731 388.473 428.79 388.517 428.833C388.56 428.876 388.618 428.9 388.679 428.9C388.74 428.9 388.799 428.876 388.842 428.833C388.885 428.79 388.909 428.731 388.909 428.67V398.76C388.909 398.699 388.885 398.641 388.842 398.598C388.799 398.554 388.74 398.53 388.679 398.53C388.618 398.53 388.56 398.554 388.517 398.598C388.473 398.641 388.449 398.699 388.449 398.76Z" fill="#E0E0E0"/>
<path d="M373.619 398.76V428.67C373.63 428.722 373.658 428.768 373.699 428.801C373.74 428.835 373.791 428.853 373.844 428.853C373.897 428.853 373.948 428.835 373.989 428.801C374.03 428.768 374.058 428.722 374.069 428.67V398.76C374.058 398.709 374.03 398.663 373.989 398.629C373.948 398.596 373.897 398.578 373.844 398.578C373.791 398.578 373.74 398.596 373.699 398.629C373.658 398.663 373.63 398.709 373.619 398.76Z" fill="#E0E0E0"/>
<path d="M358.779 398.76V428.67C358.779 428.731 358.804 428.79 358.847 428.833C358.89 428.876 358.948 428.9 359.009 428.9C359.07 428.9 359.129 428.876 359.172 428.833C359.215 428.79 359.239 428.731 359.239 428.67V398.76C359.239 398.699 359.215 398.641 359.172 398.598C359.129 398.554 359.07 398.53 359.009 398.53C358.948 398.53 358.89 398.554 358.847 398.598C358.804 398.641 358.779 398.699 358.779 398.76Z" fill="#E0E0E0"/>
<path d="M343.939 398.76V428.67C343.939 428.731 343.964 428.79 344.007 428.833C344.05 428.876 344.108 428.9 344.169 428.9C344.23 428.9 344.289 428.876 344.332 428.833C344.375 428.79 344.399 428.731 344.399 428.67V398.76C344.399 398.699 344.375 398.641 344.332 398.598C344.289 398.554 344.23 398.53 344.169 398.53C344.108 398.53 344.05 398.554 344.007 398.598C343.964 398.641 343.939 398.699 343.939 398.76Z" fill="#E0E0E0"/>
<path d="M42.3203 398.45H175.06V428.73H42.3203" fill="#455A64"/>
<g opacity="0.3">
<path d="M175.06 400.15L80.5703 428.81L98.9703 428.57L175.06 406.43V400.15Z" fill="white"/>
</g>
<g opacity="0.3">
<path d="M175.06 409.24L111.68 428.52V428.81L117.11 428.59L175.06 411V409.24Z" fill="white"/>
</g>
<path d="M163.051 398.67V428.57C163.051 428.631 163.075 428.69 163.118 428.733C163.161 428.776 163.22 428.8 163.281 428.8C163.342 428.8 163.4 428.776 163.443 428.733C163.487 428.69 163.511 428.631 163.511 428.57V398.67C163.511 398.609 163.487 398.551 163.443 398.508C163.4 398.465 163.342 398.44 163.281 398.44C163.22 398.44 163.161 398.465 163.118 398.508C163.075 398.551 163.051 398.609 163.051 398.67Z" fill="#E0E0E0"/>
<path d="M148.211 398.67V428.57C148.211 428.631 148.235 428.69 148.278 428.733C148.321 428.776 148.38 428.8 148.441 428.8C148.502 428.8 148.56 428.776 148.604 428.733C148.647 428.69 148.671 428.631 148.671 428.57V398.67C148.671 398.609 148.647 398.551 148.604 398.508C148.56 398.465 148.502 398.44 148.441 398.44C148.38 398.44 148.321 398.465 148.278 398.508C148.235 398.551 148.211 398.609 148.211 398.67Z" fill="#E0E0E0"/>
<path d="M133.381 398.67V428.57C133.392 428.622 133.42 428.668 133.461 428.701C133.502 428.735 133.553 428.753 133.606 428.753C133.659 428.753 133.71 428.735 133.751 428.701C133.792 428.668 133.82 428.622 133.831 428.57V398.67C133.831 398.611 133.807 398.553 133.765 398.511C133.723 398.469 133.666 398.445 133.606 398.445C133.546 398.445 133.489 398.469 133.447 398.511C133.405 398.553 133.381 398.611 133.381 398.67Z" fill="#E0E0E0"/>
<path d="M118.539 398.67V428.57C118.539 428.631 118.563 428.69 118.606 428.733C118.65 428.776 118.708 428.8 118.769 428.8C118.83 428.8 118.889 428.776 118.932 428.733C118.975 428.69 118.999 428.631 118.999 428.57V398.67C118.999 398.609 118.975 398.551 118.932 398.508C118.889 398.465 118.83 398.44 118.769 398.44C118.708 398.44 118.65 398.465 118.606 398.508C118.563 398.551 118.539 398.609 118.539 398.67Z" fill="#E0E0E0"/>
<path d="M103.711 398.67V428.57C103.722 428.622 103.75 428.668 103.791 428.701C103.832 428.735 103.883 428.753 103.936 428.753C103.989 428.753 104.04 428.735 104.081 428.701C104.122 428.668 104.15 428.622 104.161 428.57V398.67C104.161 398.611 104.137 398.553 104.095 398.511C104.053 398.469 103.996 398.445 103.936 398.445C103.876 398.445 103.819 398.469 103.777 398.511C103.735 398.553 103.711 398.611 103.711 398.67Z" fill="#E0E0E0"/>
<path d="M88.8691 398.67V428.57C88.8691 428.631 88.8934 428.69 88.9365 428.733C88.9796 428.776 89.0381 428.8 89.0991 428.8C89.1601 428.8 89.2186 428.776 89.2618 428.733C89.3049 428.69 89.3291 428.631 89.3291 428.57V398.67C89.3291 398.609 89.3049 398.551 89.2618 398.508C89.2186 398.465 89.1601 398.44 89.0991 398.44C89.0381 398.44 88.9796 398.465 88.9365 398.508C88.8934 398.551 88.8691 398.609 88.8691 398.67Z" fill="#E0E0E0"/>
<path d="M74 398.67V428.57C74.0109 428.622 74.0392 428.668 74.0802 428.701C74.1212 428.735 74.1723 428.753 74.225 428.753C74.2777 428.753 74.3288 428.735 74.3698 428.701C74.4107 428.668 74.4391 428.622 74.45 428.57V398.67C74.45 398.611 74.4263 398.553 74.3841 398.511C74.3419 398.469 74.2847 398.445 74.225 398.445C74.1653 398.445 74.1081 398.469 74.0659 398.511C74.0237 398.553 74 398.611 74 398.67Z" fill="#E0E0E0"/>
<path d="M59.1992 398.67V428.57C59.1992 428.631 59.2234 428.69 59.2666 428.733C59.3097 428.776 59.3682 428.8 59.4292 428.8C59.4902 428.8 59.5487 428.776 59.5919 428.733C59.635 428.69 59.6592 428.631 59.6592 428.57V398.67C59.6592 398.609 59.635 398.551 59.5919 398.508C59.5487 398.465 59.4902 398.44 59.4292 398.44C59.3682 398.44 59.3097 398.465 59.2666 398.508C59.2234 398.551 59.1992 398.609 59.1992 398.67Z" fill="#E0E0E0"/>
<g opacity="0.3">
<path d="M42.2793 402.31H172.799V428.73H175.059V398.45H42.3193L42.2793 402.31Z" fill="black"/>
</g>
<g opacity="0.3">
<path d="M169.87 428.57H161.77V433.45H169.87V428.57Z" fill="white"/>
</g>
<g opacity="0.3">
<path d="M100.93 388.471H92.8301V393.351H100.93V388.471Z" fill="white"/>
</g>
<path d="M42.8503 429.001H174.85C174.902 428.99 174.948 428.962 174.981 428.921C175.014 428.88 175.033 428.829 175.033 428.776C175.033 428.723 175.014 428.672 174.981 428.631C174.948 428.59 174.902 428.562 174.85 428.551H42.8503C42.7987 428.562 42.7525 428.59 42.7193 428.631C42.6861 428.672 42.668 428.723 42.668 428.776C42.668 428.829 42.6861 428.88 42.7193 428.921C42.7525 428.962 42.7987 428.99 42.8503 429.001Z" fill="#E0E0E0"/>
<path d="M184.911 429.001H317.291C317.342 428.99 317.389 428.962 317.422 428.921C317.455 428.88 317.473 428.829 317.473 428.776C317.473 428.723 317.455 428.672 317.422 428.631C317.389 428.59 317.342 428.562 317.291 428.551H184.911C184.859 428.562 184.813 428.59 184.78 428.631C184.747 428.672 184.729 428.723 184.729 428.776C184.729 428.829 184.747 428.88 184.78 428.921C184.813 428.962 184.859 428.99 184.911 429.001Z" fill="#E0E0E0"/>
<path d="M175.06 326.801H42.3203V360.581H175.06V326.801Z" fill="#455A64"/>
<path d="M163.051 327.001V360.371C163.051 360.432 163.075 360.49 163.118 360.533C163.161 360.576 163.22 360.601 163.281 360.601C163.342 360.601 163.4 360.576 163.443 360.533C163.487 360.49 163.511 360.432 163.511 360.371V327.001C163.511 326.94 163.487 326.881 163.443 326.838C163.4 326.795 163.342 326.771 163.281 326.771C163.22 326.771 163.161 326.795 163.118 326.838C163.075 326.881 163.051 326.94 163.051 327.001Z" fill="#E0E0E0"/>
<path d="M148.211 327.001V360.371C148.211 360.432 148.235 360.49 148.278 360.533C148.321 360.576 148.38 360.601 148.441 360.601C148.502 360.601 148.56 360.576 148.604 360.533C148.647 360.49 148.671 360.432 148.671 360.371V327.001C148.671 326.94 148.647 326.881 148.604 326.838C148.56 326.795 148.502 326.771 148.441 326.771C148.38 326.771 148.321 326.795 148.278 326.838C148.235 326.881 148.211 326.94 148.211 327.001Z" fill="#E0E0E0"/>
<path d="M133.381 327.001V360.371C133.392 360.422 133.42 360.468 133.461 360.502C133.502 360.535 133.553 360.553 133.606 360.553C133.659 360.553 133.71 360.535 133.751 360.502C133.792 360.468 133.82 360.422 133.831 360.371V327.001C133.82 326.949 133.792 326.903 133.751 326.87C133.71 326.836 133.659 326.818 133.606 326.818C133.553 326.818 133.502 326.836 133.461 326.87C133.42 326.903 133.392 326.949 133.381 327.001Z" fill="#E0E0E0"/>
<path d="M118.539 327.001V360.371C118.539 360.432 118.563 360.49 118.606 360.533C118.65 360.576 118.708 360.601 118.769 360.601C118.83 360.601 118.889 360.576 118.932 360.533C118.975 360.49 118.999 360.432 118.999 360.371V327.001C118.999 326.94 118.975 326.881 118.932 326.838C118.889 326.795 118.83 326.771 118.769 326.771C118.708 326.771 118.65 326.795 118.606 326.838C118.563 326.881 118.539 326.94 118.539 327.001Z" fill="#E0E0E0"/>
<path d="M103.711 327.001V360.371C103.722 360.422 103.75 360.468 103.791 360.502C103.832 360.535 103.883 360.553 103.936 360.553C103.989 360.553 104.04 360.535 104.081 360.502C104.122 360.468 104.15 360.422 104.161 360.371V327.001C104.15 326.949 104.122 326.903 104.081 326.87C104.04 326.836 103.989 326.818 103.936 326.818C103.883 326.818 103.832 326.836 103.791 326.87C103.75 326.903 103.722 326.949 103.711 327.001Z" fill="#E0E0E0"/>
<path d="M88.8691 327.001V360.371C88.8691 360.432 88.8934 360.49 88.9365 360.533C88.9796 360.576 89.0381 360.601 89.0991 360.601C89.1601 360.601 89.2186 360.576 89.2618 360.533C89.3049 360.49 89.3291 360.432 89.3291 360.371V327.001C89.3291 326.94 89.3049 326.881 89.2618 326.838C89.2186 326.795 89.1601 326.771 89.0991 326.771C89.0381 326.771 88.9796 326.795 88.9365 326.838C88.8934 326.881 88.8691 326.94 88.8691 327.001Z" fill="#E0E0E0"/>
<path d="M74 327.001V360.371C74.0109 360.422 74.0392 360.468 74.0802 360.502C74.1212 360.535 74.1723 360.553 74.225 360.553C74.2777 360.553 74.3288 360.535 74.3698 360.502C74.4107 360.468 74.4391 360.422 74.45 360.371V327.001C74.4391 326.949 74.4107 326.903 74.3698 326.87C74.3288 326.836 74.2777 326.818 74.225 326.818C74.1723 326.818 74.1212 326.836 74.0802 326.87C74.0392 326.903 74.0109 326.949 74 327.001Z" fill="#E0E0E0"/>
<path d="M59.1992 327.001V360.371C59.1992 360.432 59.2234 360.49 59.2666 360.533C59.3097 360.576 59.3682 360.601 59.4292 360.601C59.4902 360.601 59.5487 360.576 59.5919 360.533C59.635 360.49 59.6592 360.432 59.6592 360.371V327.001C59.6592 326.94 59.635 326.881 59.5919 326.838C59.5487 326.795 59.4902 326.771 59.4292 326.771C59.3682 326.771 59.3097 326.795 59.2666 326.838C59.2234 326.881 59.1992 326.94 59.1992 327.001Z" fill="#E0E0E0"/>
<path d="M42.6792 361H175.059C175.12 361 175.179 360.976 175.222 360.933C175.265 360.89 175.289 360.831 175.289 360.77C175.289 360.709 175.265 360.651 175.222 360.607C175.179 360.564 175.12 360.54 175.059 360.54H42.6792C42.6182 360.54 42.5597 360.564 42.5166 360.607C42.4734 360.651 42.4492 360.709 42.4492 360.77C42.4492 360.831 42.4734 360.89 42.5166 360.933C42.5597 360.976 42.6182 361 42.6792 361Z" fill="#E0E0E0"/>
<path d="M326.791 429.15H395.581C395.642 429.15 395.7 429.126 395.743 429.083C395.786 429.04 395.811 428.981 395.811 428.92C395.811 428.859 395.786 428.801 395.743 428.758C395.7 428.715 395.642 428.69 395.581 428.69H326.791C326.73 428.69 326.671 428.715 326.628 428.758C326.585 428.801 326.561 428.859 326.561 428.92C326.561 428.981 326.585 429.04 326.628 429.083C326.671 429.126 326.73 429.15 326.791 429.15Z" fill="#E0E0E0"/>
<g opacity="0.3">
<path d="M395.581 398.551H327.061V403.021H395.581V398.551Z" fill="black"/>
</g>
<path d="M42.4108 353.44H175.051C175.102 353.429 175.149 353.401 175.182 353.36C175.215 353.319 175.233 353.268 175.233 353.215C175.233 353.163 175.215 353.111 175.182 353.07C175.149 353.03 175.102 353.001 175.051 352.99H42.4108C42.3592 353.001 42.313 353.03 42.2798 353.07C42.2466 353.111 42.2285 353.163 42.2285 353.215C42.2285 353.268 42.2466 353.319 42.2798 353.36C42.313 353.401 42.3592 353.429 42.4108 353.44Z" fill="#E0E0E0"/>
<g opacity="0.3">
<path d="M42.3008 330.661H172.821V360.411H175.071V326.801H42.3308L42.3008 330.661Z" fill="black"/>
</g>
<path d="M317.67 326.801H184.93V360.581H317.67V326.801Z" fill="#455A64"/>
<path d="M305.66 327.001V360.371C305.66 360.432 305.684 360.49 305.728 360.533C305.771 360.576 305.829 360.601 305.89 360.601C305.951 360.601 306.01 360.576 306.053 360.533C306.096 360.49 306.12 360.432 306.12 360.371V327.001C306.12 326.94 306.096 326.881 306.053 326.838C306.01 326.795 305.951 326.771 305.89 326.771C305.829 326.771 305.771 326.795 305.728 326.838C305.684 326.881 305.66 326.94 305.66 327.001Z" fill="#E0E0E0"/>
<path d="M290.83 327.001V360.371C290.841 360.422 290.869 360.468 290.91 360.502C290.951 360.535 291.002 360.553 291.055 360.553C291.108 360.553 291.159 360.535 291.2 360.502C291.241 360.468 291.269 360.422 291.28 360.371V327.001C291.269 326.949 291.241 326.903 291.2 326.87C291.159 326.836 291.108 326.818 291.055 326.818C291.002 326.818 290.951 326.836 290.91 326.87C290.869 326.903 290.841 326.949 290.83 327.001Z" fill="#E0E0E0"/>
<path d="M276 327.001V360.371C276 360.432 276.024 360.49 276.067 360.533C276.11 360.576 276.169 360.601 276.23 360.601C276.291 360.601 276.35 360.576 276.393 360.533C276.436 360.49 276.46 360.432 276.46 360.371V327.001C276.46 326.94 276.436 326.881 276.393 326.838C276.35 326.795 276.291 326.771 276.23 326.771C276.169 326.771 276.11 326.795 276.067 326.838C276.024 326.881 276 326.94 276 327.001Z" fill="#E0E0E0"/>
<path d="M261.16 327.001V360.371C261.171 360.422 261.199 360.468 261.24 360.502C261.281 360.535 261.332 360.553 261.385 360.553C261.438 360.553 261.489 360.535 261.53 360.502C261.571 360.468 261.599 360.422 261.61 360.371V327.001C261.599 326.949 261.571 326.903 261.53 326.87C261.489 326.836 261.438 326.818 261.385 326.818C261.332 326.818 261.281 326.836 261.24 326.87C261.199 326.903 261.171 326.949 261.16 327.001Z" fill="#E0E0E0"/>
<path d="M246.32 327.001V360.371C246.32 360.432 246.345 360.49 246.388 360.533C246.431 360.576 246.489 360.601 246.55 360.601C246.611 360.601 246.67 360.576 246.713 360.533C246.756 360.49 246.78 360.432 246.78 360.371V327.001C246.78 326.94 246.756 326.881 246.713 326.838C246.67 326.795 246.611 326.771 246.55 326.771C246.489 326.771 246.431 326.795 246.388 326.838C246.345 326.881 246.32 326.94 246.32 327.001Z" fill="#E0E0E0"/>
<path d="M231.48 327.001V360.371C231.48 360.432 231.505 360.49 231.548 360.533C231.591 360.576 231.649 360.601 231.71 360.601C231.771 360.601 231.83 360.576 231.873 360.533C231.916 360.49 231.94 360.432 231.94 360.371V327.001C231.94 326.94 231.916 326.881 231.873 326.838C231.83 326.795 231.771 326.771 231.71 326.771C231.649 326.771 231.591 326.795 231.548 326.838C231.505 326.881 231.48 326.94 231.48 327.001Z" fill="#E0E0E0"/>
<path d="M216.65 327.001V360.371C216.661 360.422 216.69 360.468 216.731 360.502C216.772 360.535 216.823 360.553 216.875 360.553C216.928 360.553 216.979 360.535 217.02 360.502C217.061 360.468 217.089 360.422 217.1 360.371V327.001C217.089 326.949 217.061 326.903 217.02 326.87C216.979 326.836 216.928 326.818 216.875 326.818C216.823 326.818 216.772 326.836 216.731 326.87C216.69 326.903 216.661 326.949 216.65 327.001Z" fill="#E0E0E0"/>
<path d="M201.811 327.001V360.371C201.811 360.432 201.835 360.49 201.878 360.533C201.921 360.576 201.98 360.601 202.041 360.601C202.102 360.601 202.16 360.576 202.203 360.533C202.246 360.49 202.271 360.432 202.271 360.371V327.001C202.271 326.94 202.246 326.881 202.203 326.838C202.16 326.795 202.102 326.771 202.041 326.771C201.98 326.771 201.921 326.795 201.878 326.838C201.835 326.881 201.811 326.94 201.811 327.001Z" fill="#E0E0E0"/>
<path d="M175.06 293.62H42.3203V305.98H175.06V293.62Z" fill="#455A64"/>
<path d="M163.051 293.71V305.91C163.051 305.971 163.075 306.03 163.118 306.073C163.161 306.116 163.22 306.14 163.281 306.14C163.342 306.14 163.4 306.116 163.443 306.073C163.487 306.03 163.511 305.971 163.511 305.91V293.71C163.511 293.649 163.487 293.591 163.443 293.548C163.4 293.505 163.342 293.48 163.281 293.48C163.22 293.48 163.161 293.505 163.118 293.548C163.075 293.591 163.051 293.649 163.051 293.71Z" fill="#E0E0E0"/>
<path d="M148.211 293.71V305.91C148.211 305.971 148.235 306.03 148.278 306.073C148.321 306.116 148.38 306.14 148.441 306.14C148.502 306.14 148.56 306.116 148.604 306.073C148.647 306.03 148.671 305.971 148.671 305.91V293.71C148.671 293.649 148.647 293.591 148.604 293.548C148.56 293.505 148.502 293.48 148.441 293.48C148.38 293.48 148.321 293.505 148.278 293.548C148.235 293.591 148.211 293.649 148.211 293.71Z" fill="#E0E0E0"/>
<path d="M133.381 293.71V305.91C133.392 305.962 133.42 306.008 133.461 306.041C133.502 306.075 133.553 306.093 133.606 306.093C133.659 306.093 133.71 306.075 133.751 306.041C133.792 306.008 133.82 305.962 133.831 305.91V293.71C133.831 293.651 133.807 293.593 133.765 293.551C133.723 293.509 133.666 293.485 133.606 293.485C133.546 293.485 133.489 293.509 133.447 293.551C133.405 293.593 133.381 293.651 133.381 293.71Z" fill="#E0E0E0"/>
<path d="M118.539 293.71V305.91C118.539 305.971 118.563 306.03 118.606 306.073C118.65 306.116 118.708 306.14 118.769 306.14C118.83 306.14 118.889 306.116 118.932 306.073C118.975 306.03 118.999 305.971 118.999 305.91V293.71C118.999 293.649 118.975 293.591 118.932 293.548C118.889 293.505 118.83 293.48 118.769 293.48C118.708 293.48 118.65 293.505 118.606 293.548C118.563 293.591 118.539 293.649 118.539 293.71Z" fill="#E0E0E0"/>
<path d="M103.711 293.71V305.91C103.722 305.962 103.75 306.008 103.791 306.041C103.832 306.075 103.883 306.093 103.936 306.093C103.989 306.093 104.04 306.075 104.081 306.041C104.122 306.008 104.15 305.962 104.161 305.91V293.71C104.161 293.651 104.137 293.593 104.095 293.551C104.053 293.509 103.996 293.485 103.936 293.485C103.876 293.485 103.819 293.509 103.777 293.551C103.735 293.593 103.711 293.651 103.711 293.71Z" fill="#E0E0E0"/>
<path d="M88.8691 293.71V305.91C88.8691 305.971 88.8934 306.03 88.9365 306.073C88.9796 306.116 89.0381 306.14 89.0991 306.14C89.1601 306.14 89.2186 306.116 89.2618 306.073C89.3049 306.03 89.3291 305.971 89.3291 305.91V293.71C89.3291 293.649 89.3049 293.591 89.2618 293.548C89.2186 293.505 89.1601 293.48 89.0991 293.48C89.0381 293.48 88.9796 293.505 88.9365 293.548C88.8934 293.591 88.8691 293.649 88.8691 293.71Z" fill="#E0E0E0"/>
<path d="M74 293.71V305.91C74.0109 305.962 74.0392 306.008 74.0802 306.041C74.1212 306.075 74.1723 306.093 74.225 306.093C74.2777 306.093 74.3288 306.075 74.3698 306.041C74.4107 306.008 74.4391 305.962 74.45 305.91V293.71C74.45 293.651 74.4263 293.593 74.3841 293.551C74.3419 293.509 74.2847 293.485 74.225 293.485C74.1653 293.485 74.1081 293.509 74.0659 293.551C74.0237 293.593 74 293.651 74 293.71Z" fill="#E0E0E0"/>
<path d="M59.1992 293.71V305.91C59.1992 305.971 59.2234 306.03 59.2666 306.073C59.3097 306.116 59.3682 306.14 59.4292 306.14C59.4902 306.14 59.5487 306.116 59.5919 306.073C59.635 306.03 59.6592 305.971 59.6592 305.91V293.71C59.6592 293.649 59.635 293.591 59.5919 293.548C59.5487 293.505 59.4902 293.48 59.4292 293.48C59.3682 293.48 59.3097 293.505 59.2666 293.548C59.2234 293.591 59.1992 293.649 59.1992 293.71Z" fill="#E0E0E0"/>
<path d="M185.291 361H317.671C317.732 361 317.79 360.976 317.833 360.933C317.876 360.89 317.901 360.831 317.901 360.77C317.901 360.709 317.876 360.651 317.833 360.607C317.79 360.564 317.732 360.54 317.671 360.54H185.291C185.23 360.54 185.171 360.564 185.128 360.607C185.085 360.651 185.061 360.709 185.061 360.77C185.061 360.831 185.085 360.89 185.128 360.933C185.171 360.976 185.23 361 185.291 361Z" fill="#E0E0E0"/>
<path d="M185.001 353.44H317.661C317.712 353.429 317.758 353.401 317.792 353.36C317.825 353.319 317.843 353.268 317.843 353.215C317.843 353.163 317.825 353.111 317.792 353.07C317.758 353.03 317.712 353.001 317.661 352.99H185.001C184.949 353.001 184.903 353.03 184.87 353.07C184.836 353.111 184.818 353.163 184.818 353.215C184.818 353.268 184.836 353.319 184.87 353.36C184.903 353.401 184.949 353.429 185.001 353.44Z" fill="#E0E0E0"/>
<g opacity="0.3">
<path d="M184.91 330.661H315.43V360.411H317.69V326.801H184.94L184.91 330.661Z" fill="black"/>
</g>
<path d="M384.679 326.801H332.199V360.581H384.679V326.801Z" fill="#455A64"/>
<path d="M332.1 353.131H384.3C384.36 353.131 384.417 353.107 384.459 353.065C384.501 353.023 384.525 352.965 384.525 352.906C384.525 352.846 384.501 352.789 384.459 352.747C384.417 352.704 384.36 352.681 384.3 352.681H332.1C332.04 352.681 331.983 352.704 331.941 352.747C331.899 352.789 331.875 352.846 331.875 352.906C331.875 352.965 331.899 353.023 331.941 353.065C331.983 353.107 332.04 353.131 332.1 353.131Z" fill="#E0E0E0"/>
<path d="M358.211 326.93V360.71C358.222 360.762 358.25 360.808 358.291 360.841C358.332 360.875 358.383 360.893 358.436 360.893C358.489 360.893 358.54 360.875 358.581 360.841C358.622 360.808 358.65 360.762 358.661 360.71V326.93C358.65 326.879 358.622 326.833 358.581 326.799C358.54 326.766 358.489 326.748 358.436 326.748C358.383 326.748 358.332 326.766 358.291 326.799C358.25 326.833 358.222 326.879 358.211 326.93Z" fill="#E0E0E0"/>
<g opacity="0.3">
<path d="M332.199 326.801V330.681L381.059 330.751L381.129 360.581H384.669V326.801H332.199Z" fill="black"/>
</g>
<path d="M395.69 370.431H42.4102V373.771H395.69V370.431Z" fill="white"/>
<path d="M394.09 314.33C394.09 314.46 315.26 314.56 218.09 314.56C120.92 314.56 42 314.46 42 314.33C42 314.2 120.81 314.09 218.07 314.09C315.33 314.09 394.09 314.19 394.09 314.33Z" fill="#263238"/>
<g opacity="0.3">
<path d="M42.3203 293.62V297.29H171.34V305.91H175.06V293.62H42.3203Z" fill="black"/>
</g>
<path d="M317.67 293.62H184.93V305.98H317.67V293.62Z" fill="#455A64"/>
<path d="M305.66 293.71V305.91C305.66 305.971 305.684 306.03 305.728 306.073C305.771 306.116 305.829 306.14 305.89 306.14C305.951 306.14 306.01 306.116 306.053 306.073C306.096 306.03 306.12 305.971 306.12 305.91V293.71C306.12 293.649 306.096 293.591 306.053 293.548C306.01 293.505 305.951 293.48 305.89 293.48C305.829 293.48 305.771 293.505 305.728 293.548C305.684 293.591 305.66 293.649 305.66 293.71Z" fill="#E0E0E0"/>
<path d="M290.83 293.71V305.91C290.841 305.962 290.869 306.008 290.91 306.041C290.951 306.075 291.002 306.093 291.055 306.093C291.108 306.093 291.159 306.075 291.2 306.041C291.241 306.008 291.269 305.962 291.28 305.91V293.71C291.28 293.651 291.256 293.593 291.214 293.551C291.172 293.509 291.115 293.485 291.055 293.485C290.995 293.485 290.938 293.509 290.896 293.551C290.854 293.593 290.83 293.651 290.83 293.71Z" fill="#E0E0E0"/>
<path d="M276 293.71V305.91C276 305.971 276.024 306.03 276.067 306.073C276.11 306.116 276.169 306.14 276.23 306.14C276.291 306.14 276.35 306.116 276.393 306.073C276.436 306.03 276.46 305.971 276.46 305.91V293.71C276.46 293.649 276.436 293.591 276.393 293.548C276.35 293.505 276.291 293.48 276.23 293.48C276.169 293.48 276.11 293.505 276.067 293.548C276.024 293.591 276 293.649 276 293.71Z" fill="#E0E0E0"/>
<path d="M261.16 293.71V305.91C261.171 305.962 261.199 306.008 261.24 306.041C261.281 306.075 261.332 306.093 261.385 306.093C261.438 306.093 261.489 306.075 261.53 306.041C261.571 306.008 261.599 305.962 261.61 305.91V293.71C261.61 293.651 261.586 293.593 261.544 293.551C261.502 293.509 261.445 293.485 261.385 293.485C261.325 293.485 261.268 293.509 261.226 293.551C261.184 293.593 261.16 293.651 261.16 293.71Z" fill="#E0E0E0"/>
<path d="M246.32 293.71V305.91C246.32 305.971 246.345 306.03 246.388 306.073C246.431 306.116 246.489 306.14 246.55 306.14C246.611 306.14 246.67 306.116 246.713 306.073C246.756 306.03 246.78 305.971 246.78 305.91V293.71C246.78 293.649 246.756 293.591 246.713 293.548C246.67 293.505 246.611 293.48 246.55 293.48C246.489 293.48 246.431 293.505 246.388 293.548C246.345 293.591 246.32 293.649 246.32 293.71Z" fill="#E0E0E0"/>
<path d="M231.48 293.71V305.91C231.48 305.971 231.505 306.03 231.548 306.073C231.591 306.116 231.649 306.14 231.71 306.14C231.771 306.14 231.83 306.116 231.873 306.073C231.916 306.03 231.94 305.971 231.94 305.91V293.71C231.94 293.649 231.916 293.591 231.873 293.548C231.83 293.505 231.771 293.48 231.71 293.48C231.649 293.48 231.591 293.505 231.548 293.548C231.505 293.591 231.48 293.649 231.48 293.71Z" fill="#E0E0E0"/>
<path d="M216.65 293.71V305.91C216.661 305.962 216.69 306.008 216.731 306.041C216.772 306.075 216.823 306.093 216.875 306.093C216.928 306.093 216.979 306.075 217.02 306.041C217.061 306.008 217.089 305.962 217.1 305.91V293.71C217.1 293.651 217.077 293.593 217.035 293.551C216.992 293.509 216.935 293.485 216.875 293.485C216.816 293.485 216.758 293.509 216.716 293.551C216.674 293.593 216.65 293.651 216.65 293.71Z" fill="#E0E0E0"/>
<path d="M201.811 293.71V305.91C201.811 305.971 201.835 306.03 201.878 306.073C201.921 306.116 201.98 306.14 202.041 306.14C202.102 306.14 202.16 306.116 202.203 306.073C202.246 306.03 202.271 305.971 202.271 305.91V293.71C202.271 293.649 202.246 293.591 202.203 293.548C202.16 293.505 202.102 293.48 202.041 293.48C201.98 293.48 201.921 293.505 201.878 293.548C201.835 293.591 201.811 293.649 201.811 293.71Z" fill="#E0E0E0"/>
<g opacity="0.3">
<path d="M184.93 293.62V297.29H313.95V305.91H317.67V293.62H184.93Z" fill="black"/>
</g>
<path d="M356.4 293.92H344.77V305.56H356.4V293.92Z" fill="#455A64"/>
<path d="M375.53 293.971H363.9V305.611H375.53V293.971Z" fill="#455A64"/>
<g opacity="0.3">
<path d="M344.77 296.32H353.65V305.56H356.4V293.92H344.77V296.32Z" fill="black"/>
</g>
<g opacity="0.3">
<path d="M364.07 296.32H372.95V305.56H375.7V293.92H364.07V296.32Z" fill="black"/>
</g>
<g opacity="0.3">
<path d="M339.92 387.23H327.68V394.59H339.92V387.23Z" fill="white"/>
</g>
<g opacity="0.3">
<path d="M200.26 430.051H188.02V437.411H200.26V430.051Z" fill="white"/>
</g>
<g opacity="0.3">
<path d="M195.82 278.511H183.58V285.871H195.82V278.511Z" fill="white"/>
</g>
<g opacity="0.3">
<path d="M179.65 278.511H167.41V285.871H179.65V278.511Z" fill="white"/>
</g>
<g opacity="0.3">
<path d="M309.289 388.471H301.189V393.351H309.289V388.471Z" fill="white"/>
</g>
<path d="M711.921 352.9H525.301V439.43H711.921V352.9Z" fill="#E0E0E0"/>
<path d="M711.919 439.441C711.919 439.441 711.919 438.911 711.919 437.891C711.919 436.871 711.919 435.361 711.919 433.391C711.919 429.441 711.919 423.631 711.919 416.151C711.919 401.201 711.859 379.591 711.819 352.901L712.009 353.091L525.399 353.161L525.659 352.901C525.659 383.341 525.659 412.611 525.659 439.441L525.409 439.191L659.409 439.311L698.109 439.381H708.449H710.999H708.359H698.069L659.429 439.451L525.269 439.561H525.029V439.321C525.029 412.491 525.029 383.221 525.029 352.781V352.521H525.299L711.909 352.591H712.099V352.781C712.099 379.521 712.019 401.171 711.999 416.151C711.999 423.611 711.999 429.411 711.999 433.351C711.999 435.301 711.999 436.801 711.999 437.811C711.999 438.821 711.919 439.441 711.919 439.441Z" fill="#263238"/>
<path d="M562.68 373.091V377.091H549.48V361.261H562.38V365.261H554.74V367.121H561.451V371.001H554.74V373.081L562.68 373.091Z" fill="white"/>
<path d="M578.919 377.131V369.891L575.469 375.701H573.119L569.669 370.141V377.141H564.789V361.261H569.189L574.359 369.711L579.359 361.261H583.759V377.131H578.919Z" fill="white"/>
<path d="M599.581 373.091V377.091H586.381V361.261H599.281V365.261H591.641V367.121H598.351V371.001H591.641V373.081L599.581 373.091Z" fill="white"/>
<path d="M608.44 373.141H607V377.141H601.65V361.261H609.29C613.71 361.261 616.53 363.571 616.53 367.261C616.573 368.296 616.311 369.321 615.778 370.209C615.245 371.098 614.464 371.811 613.53 372.261L616.87 377.161H611.15L608.44 373.141ZM608.94 365.381H606.94V369.101H608.94C610.42 369.101 611.12 368.401 611.12 367.241C611.12 366.081 610.42 365.381 608.94 365.381Z" fill="white"/>
<path d="M628.999 368.761H633.649V375.471C631.585 376.786 629.187 377.48 626.739 377.471C621.609 377.471 617.869 374.051 617.869 369.171C617.869 364.291 621.609 360.871 626.869 360.871C628.232 360.797 629.594 361.034 630.852 361.564C632.11 362.094 633.23 362.903 634.129 363.931L630.699 366.931C630.278 366.387 629.738 365.947 629.121 365.644C628.505 365.341 627.827 365.182 627.139 365.181C626.169 365.291 625.273 365.753 624.619 366.478C623.966 367.204 623.601 368.143 623.592 369.12C623.583 370.096 623.932 371.042 624.573 371.779C625.213 372.516 626.101 372.993 627.069 373.121C627.739 373.128 628.403 372.995 629.019 372.731L628.999 368.761Z" fill="white"/>
<path d="M649.17 373.091V377.091H636V361.261H648.91V365.261H641.26V367.121H648V371.001H641.28V373.081L649.17 373.091Z" fill="white"/>
<path d="M666.88 361.261V377.131H662.479L656.479 369.921V377.131H651.27V361.261H655.669L661.669 368.471V361.261H666.88Z" fill="white"/>
<path d="M668.83 369.19C668.83 364.32 672.58 360.89 677.68 360.89C679.033 360.821 680.384 361.074 681.621 361.626C682.859 362.179 683.948 363.016 684.8 364.07L681.42 367.07C681.032 366.505 680.515 366.042 679.911 365.718C679.307 365.395 678.635 365.22 677.95 365.21C676.981 365.329 676.089 365.799 675.443 366.53C674.796 367.261 674.439 368.204 674.439 369.18C674.439 370.156 674.796 371.099 675.443 371.83C676.089 372.561 676.981 373.031 677.95 373.15C678.635 373.139 679.307 372.965 679.911 372.641C680.515 372.318 681.032 371.854 681.42 371.29L684.8 374.29C683.947 375.342 682.858 376.178 681.62 376.729C680.383 377.28 679.033 377.53 677.68 377.46C672.58 377.49 668.83 374.07 668.83 369.19Z" fill="white"/>
<path d="M695.77 371.371V377.131H690.42V371.301L684.42 361.301H690.06L693.3 366.781L696.57 361.301H701.74L695.77 371.371Z" fill="white"/>
<g opacity="0.3">
<path d="M701.59 398.061H586.6V439.711H701.59V398.061Z" fill="black"/>
</g>
<path d="M613.3 394.7H604.51V439.78H613.3V394.7Z" fill="#E0E0E0"/>
<path d="M698.17 402.601H619.49V439.791H698.17V402.601Z" fill="#455A64"/>
<g opacity="0.3">
<path d="M698.17 402.601L619.49 432.511V439.421L698.17 408.711V402.601Z" fill="white"/>
</g>
<g opacity="0.3">
<path d="M625.551 439.78H630.381L698.171 413.04V411.28L625.551 439.78Z" fill="white"/>
</g>
<path d="M680.501 413.44H641.961V413.94H680.501V413.44Z" fill="#E0E0E0"/>
<path d="M658.34 423.301H657.1V427.911H658.34V423.301Z" fill="#E0E0E0"/>
<path d="M665.23 423.301H663.99V427.911H665.23V423.301Z" fill="#E0E0E0"/>
<path d="M642.171 439.78V402.6C642.171 402.539 642.147 402.481 642.104 402.438C642.06 402.394 642.002 402.37 641.941 402.37C641.88 402.37 641.821 402.394 641.778 402.438C641.735 402.481 641.711 402.539 641.711 402.6V439.78C641.711 439.841 641.735 439.9 641.778 439.943C641.821 439.986 641.88 440.01 641.941 440.01C642.002 440.01 642.06 439.986 642.104 439.943C642.147 439.9 642.171 439.841 642.171 439.78Z" fill="#E0E0E0"/>
<path d="M680.729 439.78V402.6C680.729 402.539 680.705 402.481 680.662 402.438C680.619 402.394 680.561 402.37 680.5 402.37C680.439 402.37 680.38 402.394 680.337 402.438C680.294 402.481 680.27 402.539 680.27 402.6V439.78C680.27 439.841 680.294 439.9 680.337 439.943C680.38 439.986 680.439 440.01 680.5 440.01C680.561 440.01 680.619 439.986 680.662 439.943C680.705 439.9 680.729 439.841 680.729 439.78Z" fill="#E0E0E0"/>
<path d="M661 414.001V439.591C661 439.652 661.024 439.71 661.067 439.753C661.111 439.796 661.169 439.821 661.23 439.821C661.291 439.821 661.35 439.796 661.393 439.753C661.436 439.71 661.46 439.652 661.46 439.591V414.001C661.46 413.94 661.436 413.881 661.393 413.838C661.35 413.795 661.291 413.771 661.23 413.771C661.169 413.771 661.111 413.795 661.067 413.838C661.024 413.881 661 413.94 661 414.001Z" fill="#E0E0E0"/>
<g opacity="0.3">
<path d="M621.81 439.781V405.051H698.17V402.601H619.49V439.781H621.81Z" fill="black"/>
</g>
<path d="M698.42 439.781H697.92V402.851H619.74V439.781H619.24V402.351H698.42V439.781Z" fill="#E0E0E0"/>
<path d="M711.92 382.67H536.85V385.38H711.92V382.67Z" fill="#FF6D38"/>
<path d="M536.869 132.32H395.689V439.44H536.869V132.32Z" fill="#FF6D38"/>
<g opacity="0.3">
<path d="M526.109 395.24H407.779V439.43H526.109V395.24Z" fill="black"/>
</g>
<path d="M536.869 166H444.789V384.02H536.869V166Z" fill="#455A64"/>
<path d="M536.869 387.021H395.689V395.241H536.869V387.021Z" fill="#FF6D38"/>
<path d="M439.201 136.271V150.271H434.481V145.101H430.111V150.271H425.391V136.271H430.111V141.271H434.481V136.271H439.201Z" fill="#FAFAFA"/>
<path d="M440.92 143.28C440.92 139.04 444.26 135.95 448.83 135.95C453.4 135.95 456.74 139.04 456.74 143.28C456.74 147.52 453.39 150.61 448.83 150.61C444.27 150.61 440.92 147.52 440.92 143.28ZM451.97 143.28C451.904 142.673 451.664 142.098 451.279 141.625C450.893 141.151 450.379 140.8 449.797 140.612C449.216 140.425 448.593 140.41 448.004 140.57C447.414 140.729 446.884 141.056 446.476 141.51C446.068 141.964 445.801 142.527 445.706 143.13C445.612 143.734 445.694 144.351 445.943 144.909C446.192 145.466 446.597 145.94 447.109 146.272C447.622 146.604 448.219 146.781 448.83 146.78C449.275 146.78 449.714 146.686 450.12 146.505C450.527 146.325 450.891 146.061 451.189 145.732C451.488 145.402 451.714 145.014 451.854 144.592C451.993 144.169 452.043 143.723 452 143.28H451.97Z" fill="#FAFAFA"/>
<path d="M457.57 149.17L459.1 145.72C460.507 146.531 462.097 146.971 463.72 147C465.06 147 465.54 146.72 465.54 146.24C465.54 144.48 457.79 145.9 457.79 140.68C457.79 138.08 459.98 135.95 464.32 135.95C466.157 135.916 467.974 136.335 469.61 137.17L468.18 140.6C466.977 139.964 465.641 139.622 464.28 139.6C462.9 139.6 462.46 140 462.46 140.48C462.46 142.16 470.21 140.76 470.21 145.92C470.21 148.48 468.02 150.65 463.68 150.65C461.551 150.68 459.45 150.171 457.57 149.17Z" fill="#FAFAFA"/>
<path d="M484.741 141.56C484.741 144.8 482.261 146.84 478.351 146.84H476.351V150.29H471.631V136.29H478.371C482.261 136.27 484.741 138.32 484.741 141.56ZM479.971 141.56C479.971 140.56 479.351 139.92 478.051 139.92H476.331V143.2H478.051C479.351 143.2 480.001 142.58 480.001 141.56H479.971Z" fill="#FAFAFA"/>
<path d="M486.279 136.271H490.999V150.271H486.279V136.271Z" fill="#FAFAFA"/>
<path d="M496.331 139.941H492.221V136.271H505.151V139.941H501.051V150.29H496.331V139.941Z" fill="#FAFAFA"/>
<path d="M515.22 147.84H509.9L508.96 150.29H504.15L510.28 136.29H514.92L521.05 150.29H516.16L515.22 147.84ZM513.92 144.44L512.56 140.92L511.2 144.44H513.92Z" fill="#FAFAFA"/>
<path d="M521.811 136.271H526.531V146.62H532.861V150.29H521.811V136.271Z" fill="#FAFAFA"/>
<path d="M431 179.11H417.6V192.5H431V179.11Z" fill="#455A64"/>
<path d="M431 223.601H417.6V237.001H431V223.601Z" fill="#455A64"/>
<path d="M431 270.311H417.6V283.711H431V270.311Z" fill="#455A64"/>
<path d="M431 317.021H417.6V330.421H431V317.021Z" fill="#455A64"/>
<path d="M431 363.73H417.6V377.12H431V363.73Z" fill="#455A64"/>
<path d="M427.881 405.13H406.221V435.4H427.881V405.13Z" fill="#455A64"/>
<path d="M428.381 435.91H405.721V404.63H428.381V435.91ZM406.721 434.91H427.381V405.63H406.721V434.91Z" fill="#E0E0E0"/>
<g opacity="0.3">
<path d="M427.881 406.83L406.221 415.64V422.55L427.881 413.11V406.83Z" fill="white"/>
</g>
<g opacity="0.3">
<path d="M427.881 415.92L406.221 425.61V427.51L427.881 417.69V415.92Z" fill="white"/>
</g>
<path d="M439.331 395.24H426.801V439.43H439.331V395.24Z" fill="#FF6D38"/>
<path d="M486.161 407.17H447.631V439.44H486.161V407.17Z" fill="#455A64"/>
<g opacity="0.3">
<path d="M485.81 409.87L447.93 425.61V432.51L485.81 416.14V409.87Z" fill="white"/>
</g>
<g opacity="0.3">
<path d="M485.669 419.09L447.779 434.83V436.74L485.669 420.86V419.09Z" fill="white"/>
</g>
<g opacity="0.3">
<path d="M448.101 436.05L449.311 409.01L485.811 407.7L447.631 407.17L448.101 436.05Z" fill="black"/>
</g>
<path d="M486.671 439.44H485.671V407.67H448.131V439.44H447.131V406.67H486.671V439.44Z" fill="#E0E0E0"/>
<path d="M467.439 407.37H466.439V439.44H467.439V407.37Z" fill="#E0E0E0"/>
<path d="M486.22 413.44H447.68V413.94H486.22V413.44Z" fill="#E0E0E0"/>
<path d="M464.051 423.301H462.811V427.911H464.051V423.301Z" fill="#E0E0E0"/>
<path d="M470.939 423.301H469.699V427.911H470.939V423.301Z" fill="#E0E0E0"/>
<path d="M526.099 405.13H504.439V435.4H526.099V405.13Z" fill="#455A64"/>
<path d="M526.609 435.91H503.939V404.63H526.609V435.91ZM504.939 434.91H525.609V405.63H504.939V434.91Z" fill="#E0E0E0"/>
<g opacity="0.3">
<path d="M526.109 406.83L504.439 415.64V422.55L526.109 413.11V406.83Z" fill="white"/>
</g>
<g opacity="0.3">
<path d="M526.109 415.92L504.439 425.61V427.51L526.109 417.69V415.92Z" fill="white"/>
</g>
<path d="M505.38 395.24H492.85V439.43H505.38V395.24Z" fill="#FF6D38"/>
<path d="M536.971 395.24H525.301V439.43H536.971V395.24Z" fill="#FF6D38"/>
<g opacity="0.3">
<path d="M407.929 202.63H395.689V209.99H407.929V202.63Z" fill="white"/>
</g>
<g opacity="0.3">
<path d="M407.929 162.32H395.689V169.68H407.929V162.32Z" fill="white"/>
</g>
<g opacity="0.3">
<path d="M506.881 151.04H494.641V158.4H506.881V151.04Z" fill="white"/>
</g>
<g opacity="0.3">
<path d="M490.689 146.931H478.449V154.291H490.689V146.931Z" fill="white"/>
</g>
<g opacity="0.3">
<path d="M407.929 252.15H395.689V259.51H407.929V252.15Z" fill="white"/>
</g>
<g opacity="0.3">
<path d="M407.929 301.66H395.689V309.02H407.929V301.66Z" fill="white"/>
</g>
<g opacity="0.3">
<path d="M407.929 350.29H395.689V357.65H407.929V350.29Z" fill="white"/>
</g>
<path d="M536.869 385.03H443.789V165H536.869V167H445.789V383.03H536.869V385.03Z" fill="#E0E0E0"/>
<path d="M536.869 214.561H444.789V218.241H536.869V214.561Z" fill="#E0E0E0"/>
<path d="M536.869 271.42H444.789V275.1H536.869V271.42Z" fill="#E0E0E0"/>
<path d="M536.869 328.28H444.789V331.96H536.869V328.28Z" fill="#E0E0E0"/>
<path d="M477.59 166.701V383.761C477.59 383.822 477.614 383.88 477.657 383.923C477.7 383.966 477.759 383.991 477.82 383.991C477.881 383.991 477.939 383.966 477.982 383.923C478.026 383.88 478.05 383.822 478.05 383.761V166.701C478.05 166.64 478.026 166.581 477.982 166.538C477.939 166.495 477.881 166.471 477.82 166.471C477.759 166.471 477.7 166.495 477.657 166.538C477.614 166.581 477.59 166.64 477.59 166.701Z" fill="#E0E0E0"/>
<path d="M511.08 166.001V384.001C511.08 384.062 511.104 384.12 511.147 384.163C511.191 384.206 511.249 384.231 511.31 384.231C511.371 384.231 511.43 384.206 511.473 384.163C511.516 384.12 511.54 384.062 511.54 384.001V166.001C511.54 165.94 511.516 165.881 511.473 165.838C511.43 165.795 511.371 165.771 511.31 165.771C511.249 165.771 511.191 165.795 511.147 165.838C511.104 165.881 511.08 165.94 511.08 166.001Z" fill="#E0E0E0"/>
<path d="M445.31 357.891H536.31C536.371 357.891 536.43 357.866 536.473 357.823C536.516 357.78 536.54 357.722 536.54 357.661C536.54 357.6 536.516 357.541 536.473 357.498C536.43 357.455 536.371 357.431 536.31 357.431H445.31C445.249 357.431 445.191 357.455 445.147 357.498C445.104 357.541 445.08 357.6 445.08 357.661C445.08 357.722 445.104 357.78 445.147 357.823C445.191 357.866 445.249 357.891 445.31 357.891Z" fill="#E0E0E0"/>
<path d="M445.31 301.92H536.31C536.371 301.92 536.43 301.896 536.473 301.853C536.516 301.809 536.54 301.751 536.54 301.69C536.54 301.629 536.516 301.57 536.473 301.527C536.43 301.484 536.371 301.46 536.31 301.46H445.31C445.249 301.46 445.191 301.484 445.147 301.527C445.104 301.57 445.08 301.629 445.08 301.69C445.08 301.751 445.104 301.809 445.147 301.853C445.191 301.896 445.249 301.92 445.31 301.92Z" fill="#E0E0E0"/>
<path d="M445.31 246H536.31C536.371 246 536.43 245.976 536.473 245.933C536.516 245.89 536.54 245.831 536.54 245.77C536.54 245.709 536.516 245.651 536.473 245.607C536.43 245.564 536.371 245.54 536.31 245.54H445.31C445.249 245.54 445.191 245.564 445.147 245.607C445.104 245.651 445.08 245.709 445.08 245.77C445.08 245.831 445.104 245.89 445.147 245.933C445.191 245.976 445.249 246 445.31 246Z" fill="#E0E0E0"/>
<path d="M445.31 190.59H536.31C536.371 190.59 536.43 190.566 536.473 190.523C536.516 190.479 536.54 190.421 536.54 190.36C536.54 190.299 536.516 190.24 536.473 190.197C536.43 190.154 536.371 190.13 536.31 190.13H445.31C445.249 190.13 445.191 190.154 445.147 190.197C445.104 190.24 445.08 190.299 445.08 190.36C445.08 190.421 445.104 190.479 445.147 190.523C445.191 190.566 445.249 190.59 445.31 190.59Z" fill="#E0E0E0"/>
<g opacity="0.3">
<path d="M536.971 182.5L445.311 240.34V257.46L536.871 202.32L536.971 182.5Z" fill="white"/>
</g>
<g opacity="0.3">
<path d="M536.971 289.32L445.311 347.16V364.29L536.871 309.14L536.971 289.32Z" fill="white"/>
</g>
<g opacity="0.3">
<path d="M536.971 227.98L445.311 285.82V292.61L536.871 236.99L536.971 227.98Z" fill="white"/>
</g>
<g opacity="0.3">
<path d="M420.02 330.421V318.931H430.99V317.021H417.6V330.421H420.02Z" fill="black"/>
</g>
<g opacity="0.3">
<path d="M420.02 377.13V365.64H430.99V363.73H417.6V377.13H420.02Z" fill="black"/>
</g>
<g opacity="0.3">
<path d="M420.02 236.991V225.501H430.99V223.601H417.6V236.991H420.02Z" fill="black"/>
</g>
<g opacity="0.3">
<path d="M420.02 283.701V272.211H430.99V270.311H417.6V283.701H420.02Z" fill="black"/>
</g>
<g opacity="0.3">
<path d="M420.02 192.51V181.02H430.99V179.12H417.6V192.51H420.02Z" fill="black"/>
</g>
<path d="M408.219 395.24H395.689V439.43H408.219V395.24Z" fill="#FF6D38"/>
<path d="M415.121 141.621H411.361V137.851H407.731V141.621H403.971V145.241H407.731V149.001H411.361V145.241H415.121V141.621Z" fill="#FAFAFA"/>
<path d="M452.44 397.7H450.16V404.72H452.44V397.7Z" fill="white"/>
<path d="M447.801 400.06V402.34H454.821V400.06H447.801Z" fill="white"/>
<path d="M485.671 399.57H456.891V402.84H485.671V399.57Z" fill="white"/>
<path d="M395.691 439.711C395.561 439.711 395.461 373.381 395.461 291.571C395.461 209.761 395.561 143.431 395.691 143.431C395.821 143.431 395.931 209.741 395.931 291.571C395.931 373.401 395.821 439.711 395.691 439.711Z" fill="#263238"/>
<path d="M643.539 122.75C643.539 122.75 642.939 122.54 641.829 122.3C640.27 121.954 638.661 121.89 637.079 122.11C634.727 122.423 632.509 123.382 630.669 124.88C628.415 126.714 626.824 129.236 626.139 132.06V132.14L626.009 132.66L625.809 132.17C624.712 129.488 622.82 127.206 620.389 125.63C618.411 124.339 616.135 123.578 613.779 123.42C612.19 123.307 610.592 123.452 609.049 123.85C607.959 124.14 607.379 124.39 607.369 124.36C607.497 124.276 607.635 124.209 607.779 124.16C608.18 123.988 608.59 123.841 609.009 123.72C610.56 123.27 612.177 123.087 613.789 123.18C616.2 123.304 618.538 124.055 620.569 125.36C623.063 126.964 625.004 129.296 626.129 132.04H625.799V131.95C626.501 129.054 628.139 126.47 630.459 124.6C632.35 123.081 634.63 122.124 637.039 121.84C638.65 121.637 640.284 121.736 641.859 122.13C642.287 122.236 642.708 122.369 643.119 122.53C643.266 122.588 643.407 122.662 643.539 122.75Z" fill="#263238"/>
<path d="M691.108 96.6502C691.108 96.6502 690.768 96.5502 690.108 96.4302C689.253 96.2483 688.373 96.2212 687.508 96.3502C686.227 96.5248 685.019 97.0509 684.018 97.8702C682.795 98.876 681.932 100.252 681.558 101.79L681.428 102.3L681.228 101.82C680.631 100.361 679.606 99.1166 678.288 98.2502C677.208 97.544 675.966 97.1241 674.678 97.0302C673.809 96.9683 672.936 97.0391 672.088 97.2402C671.488 97.3902 671.168 97.5202 671.158 97.4902C671.225 97.4395 671.299 97.3991 671.378 97.3702C671.6 97.2714 671.827 97.1846 672.058 97.1102C672.912 96.8459 673.806 96.7375 674.698 96.7902C676.05 96.849 677.361 97.2667 678.498 98.0002C679.888 98.8861 680.968 100.183 681.588 101.71H681.268C681.655 100.098 682.566 98.6593 683.858 97.6202C684.911 96.7814 686.18 96.2579 687.518 96.1102C688.409 96.0025 689.312 96.067 690.178 96.3002C690.414 96.3567 690.645 96.4337 690.868 96.5302C690.998 96.5902 691.108 96.6302 691.108 96.6502Z" fill="#263238"/>
<path d="M659.999 86.0001C659.999 86.0001 659.669 86.3701 659.079 87.0001C658.254 87.9366 657.508 88.9401 656.849 90.0001C654.66 93.5193 653.509 97.5855 653.529 101.73V101.88H653.189C652.851 99.6537 652.123 97.5042 651.039 95.5301C650.164 93.9149 649.067 92.4304 647.779 91.1201C646.927 90.2472 645.996 89.4539 644.999 88.7501C644.269 88.2601 643.859 88.0001 643.869 87.9801C643.983 88.0135 644.091 88.0641 644.189 88.1301C644.389 88.2501 644.709 88.3901 645.069 88.6401C646.126 89.3223 647.108 90.1133 647.999 91.0001C650.985 93.9336 652.942 97.7534 653.579 101.89H653.239V101.74C653.207 97.5316 654.406 93.4055 656.689 89.8701C657.374 88.7995 658.158 87.7952 659.029 86.8701C659.329 86.5401 659.599 86.3101 659.769 86.1501C659.939 85.9901 659.999 86.0001 659.999 86.0001Z" fill="#263238"/>
</svg>
