<svg width="453" height="453" viewBox="0 0 453 453" fill="none" xmlns="http://www.w3.org/2000/svg">
<path d="M391.637 103.103C389.29 95.0488 381.906 88.9333 373.698 87.2119C365.489 85.4905 356.701 87.8551 349.852 92.6479C346.844 94.7679 343.99 97.4315 340.384 98.0839C337.467 98.6275 334.477 97.7939 331.514 97.9208C323.804 98.256 317.671 105.223 315.714 112.698C313.757 120.172 315.034 128.1 316.33 135.674L330.01 137.631C327.791 134.722 329.657 130.192 332.819 128.344C335.981 126.496 339.859 126.587 343.51 126.732L364.873 127.529C371.17 127.773 377.838 127.918 383.32 124.811C390.622 120.77 393.983 111.157 391.637 103.103Z" fill="#EBEBEB"/>
<path d="M404.228 71.3116C402.344 68.5936 397.615 66.7816 394.371 69.3637C393.224 70.5596 392.527 72.1165 392.4 73.7688C392.273 75.421 392.723 77.0662 393.673 78.4237C394.698 79.7149 396.158 80.5889 397.781 80.8823C399.403 81.1758 401.076 80.8686 402.489 80.0182C403.846 79.0714 404.784 77.637 405.108 76.0145C405.433 74.392 405.117 72.707 404.228 71.3116Z" fill="#EBEBEB"/>
<path d="M360.959 357.009C345.448 346.726 341.507 327.039 341.688 309.245C341.688 306.273 341.308 303.157 342.658 300.52C344.007 297.884 347.26 295.99 349.906 297.213C352.134 298.192 353.158 300.729 354.436 302.822C356.148 305.611 358.618 307.858 361.557 309.299C363.468 310.205 365.815 310.776 367.663 309.707C370.182 308.23 370.381 304.688 370.309 301.734C370.146 296.238 369.979 290.738 369.81 285.236C369.72 282.292 369.638 279.275 370.49 276.457C371.341 273.639 373.298 271.021 376.089 270.115C378.879 269.209 382.386 270.794 383.047 273.676C383.191 274.893 383.248 276.119 383.219 277.345C383.337 278.568 383.935 279.909 385.113 280.217C386.291 280.525 387.459 279.673 388.32 278.785C391.292 275.732 393.267 271.845 395.106 267.986C396.945 264.126 398.73 260.167 401.448 256.851C404.166 253.535 407.89 250.862 412.111 250.509C416.333 250.156 420.9 252.665 422.077 256.788C423.255 260.91 420.918 265.204 418.363 268.629C414.573 273.729 410.066 278.254 404.981 282.065C403.987 282.646 403.204 283.528 402.743 284.584C402.155 286.568 404.066 288.48 406.023 289.114C408.243 289.793 410.626 289.503 412.927 289.721C415.228 289.938 417.756 290.89 418.68 293.046C419.957 296.036 417.511 299.252 415.056 301.381C410.196 305.632 404.644 309.018 398.639 311.392C396.492 312.244 394.218 312.996 392.506 314.563C390.793 316.131 389.788 318.803 390.911 320.86C392.035 322.917 394.753 323.515 397.018 323.034C399.283 322.554 401.285 321.277 403.432 320.407C407.446 318.776 412.691 318.93 415.373 322.373C417.14 324.629 417.366 327.809 416.569 330.609C415.646 333.335 414.186 335.849 412.275 338.002C406.033 345.876 397.814 351.954 388.456 355.614C379.124 359.111 370.435 360.198 361.004 357.009" fill="#EBEBEB"/>
<path d="M365.271 345.757C367.989 336.004 371.265 326.415 375.083 317.037L378.037 309.635C379.016 307.216 379.985 304.806 381.072 302.514C383.179 298.112 385.526 293.829 388.103 289.685C390.54 285.717 392.995 282.038 395.351 278.613C397.706 275.189 399.881 272.054 402.064 269.273C405.422 264.867 409.124 260.735 413.135 256.915C414.558 255.565 415.699 254.55 416.479 253.88L417.385 253.119C417.483 253.029 417.589 252.947 417.702 252.874C417.618 252.977 417.524 253.071 417.421 253.155L416.569 253.961C415.808 254.659 414.694 255.701 413.299 257.069C409.329 260.932 405.659 265.09 402.318 269.508C400.189 272.299 397.987 275.452 395.677 278.876C393.367 282.301 390.938 285.988 388.519 289.957C385.963 294.088 383.634 298.355 381.543 302.74C380.465 305.023 379.505 307.415 378.526 309.843L375.573 317.236C371.766 326.595 368.484 336.159 365.743 345.884" fill="#E0E0E0"/>
<path d="M381.227 302.486C381.076 302.082 380.97 301.663 380.91 301.236C380.737 300.421 380.52 299.243 380.275 297.775C379.795 294.849 379.252 290.826 378.708 286.296C378.164 281.766 377.539 277.762 377.005 274.844C376.751 273.395 376.525 272.217 376.361 271.401C376.249 270.984 376.182 270.556 376.162 270.124C376.343 270.518 376.477 270.931 376.561 271.356C376.796 272.153 377.077 273.322 377.385 274.772C378.01 277.68 378.672 281.73 379.243 286.224C379.813 290.717 380.303 294.658 380.683 297.721C380.864 299.098 381.018 300.267 381.145 301.2C381.221 301.624 381.248 302.056 381.227 302.486Z" fill="#E0E0E0"/>
<path d="M418.998 294.45C418.502 294.571 417.995 294.644 417.485 294.668C416.515 294.776 415.111 294.93 413.38 295.175C409.911 295.637 405.145 296.434 399.926 297.549C394.708 298.663 390.033 299.895 386.672 300.874C384.986 301.354 383.637 301.78 382.703 302.06C382.225 302.241 381.731 302.374 381.227 302.459C381.676 302.218 382.146 302.018 382.631 301.861C383.537 301.508 384.887 301.028 386.563 300.502C389.906 299.424 394.581 298.137 399.818 297.014C404.282 296.039 408.794 295.295 413.335 294.785C415.075 294.595 416.488 294.504 417.476 294.459C417.981 294.407 418.491 294.404 418.998 294.45Z" fill="#E0E0E0"/>
<path d="M365.724 345.041C365.611 344.904 365.52 344.752 365.452 344.588L364.772 343.229C364.183 342.051 363.377 340.321 362.408 338.165C360.478 333.87 357.986 327.836 355.332 321.15C352.677 314.464 350.249 308.421 348.41 304.09L346.208 298.98L345.619 297.585C345.54 297.424 345.482 297.253 345.447 297.078C345.558 297.219 345.649 297.374 345.719 297.54L346.399 298.89C346.987 300.076 347.794 301.807 348.763 303.954C350.693 308.258 353.185 314.283 355.839 320.978C358.494 327.673 360.922 333.707 362.761 338.038L364.962 343.166L365.551 344.57C365.627 344.72 365.685 344.878 365.724 345.041Z" fill="#E0E0E0"/>
<path d="M415.745 327.574C415.591 327.675 415.423 327.751 415.246 327.8L413.797 328.326L408.442 330.201C403.912 331.787 397.697 334.061 390.83 336.543C383.962 339.026 377.702 341.263 373.145 342.758C370.87 343.51 369.022 344.099 367.709 344.48L366.223 344.906C366.054 344.966 365.877 345.003 365.697 345.014C365.852 344.919 366.02 344.846 366.196 344.797L367.645 344.271L373 342.396C377.53 340.81 383.745 338.536 390.612 336.054C397.48 333.571 403.731 331.325 408.288 329.83C410.571 329.087 412.42 328.498 413.724 328.117L415.21 327.692C415.383 327.63 415.562 327.59 415.745 327.574Z" fill="#E0E0E0"/>
<path d="M30.9481 260.022C30.9481 260.022 24.289 263.248 33.1678 277.236C42.0466 291.225 47.9084 298.074 47.9084 298.074C47.9084 298.074 49.5573 301.363 46.7396 302.16C43.922 302.958 37.4984 302.541 36.5471 306.174C35.5958 309.807 38.5222 313.132 44.1757 315.651C49.8291 318.169 62.0057 324.131 63.102 324.711C64.1983 325.29 65.3579 326.74 63.5188 327.592C61.6796 328.443 47.5913 331.261 49.3308 337.866C51.0703 344.47 67.9491 348.81 69.7611 349.345C71.5731 349.879 72.1258 350.622 72.0714 351.528C72.017 352.434 67.1971 353.014 63.2198 353.974C59.2424 354.935 54.803 356.756 56.1258 360.489C57.4486 364.221 67.9038 371.361 91.5957 371.442L102.585 370.772L107.686 360.951C117.317 339.279 115.106 326.849 112.216 324.122C109.326 321.395 105.874 324.692 103.374 327.918C100.873 331.143 98.4269 335.338 97.5028 334.985C96.5787 334.631 96.1348 333.888 96.4156 331.995C96.6965 330.101 99.5957 312.887 94.2865 308.593C88.9774 304.298 80.6331 316.031 79.1291 317.354C77.6252 318.677 76.7192 317 76.6829 315.796C76.6467 314.591 76.1937 301.019 76.2209 294.831C76.2481 288.643 74.5538 284.629 70.7033 283.959C66.9978 283.334 64.7509 289.395 62.8664 291.605C60.982 293.816 58.6535 290.998 58.6535 290.998C58.6535 290.998 54.8665 282.844 45.743 269.019C36.6196 255.193 30.8031 260.095 30.8031 260.095" fill="#EBEBEB"/>
<path d="M103.393 373.336C96.7334 363.143 85.1638 344.833 75.1978 329.168C65.2318 313.503 56.1718 299.343 49.558 289.114C46.2511 284.022 43.5784 279.891 41.7211 277.019C40.8151 275.605 40.0812 274.5 39.592 273.73L39.0393 272.869C38.9215 272.679 38.8672 272.57 38.8672 272.57L39.0756 272.851L39.6463 273.694L41.8298 276.946C43.7233 279.782 46.4323 283.895 49.7664 288.987C56.4255 299.17 65.5036 313.322 75.4877 328.987C85.4718 344.652 96.978 362.98 103.574 373.2" fill="#E0E0E0"/>
<path d="M45.498 307.134C45.7654 307.147 46.0301 307.193 46.2863 307.27C46.7846 307.379 47.5003 307.56 48.3882 307.796C50.2002 308.267 52.583 308.973 55.2466 309.798L62.0597 311.954L64.1254 312.588C64.3833 312.654 64.6349 312.742 64.8774 312.851C64.6096 312.843 64.3443 312.797 64.0892 312.715C63.5909 312.607 62.8751 312.425 61.9963 312.181C60.1843 311.701 57.8106 310.958 55.1469 310.133L48.3248 308.04L46.25 307.406C45.9908 307.341 45.7389 307.25 45.498 307.134Z" fill="#E0E0E0"/>
<path d="M65.5672 312.045C65.4766 312.045 66.7088 306.953 68.2852 300.729C69.8616 294.504 71.3022 289.476 71.3928 289.494C71.4834 289.512 70.2421 294.586 68.6204 300.819C66.9987 307.052 65.6578 312.072 65.5672 312.045Z" fill="#E0E0E0"/>
<path d="M79.8086 336.797C79.9085 336.542 80.0362 336.299 80.1891 336.072C80.4972 335.565 80.8777 334.93 81.3216 334.178C82.282 332.575 83.5866 330.355 84.9456 327.836C86.3046 325.318 87.4552 323.026 88.2797 321.35C88.6693 320.561 88.9954 319.9 89.2491 319.365C89.3534 319.115 89.4873 318.878 89.6478 318.659C89.5803 318.92 89.4894 319.175 89.376 319.42C89.1766 319.909 88.8867 320.607 88.47 321.458C87.7089 323.162 86.5855 325.49 85.2265 328C83.8675 330.509 82.5085 332.711 81.5119 334.287C81.0045 335.075 80.6059 335.701 80.2888 336.099C80.1555 336.349 79.9944 336.583 79.8086 336.797Z" fill="#E0E0E0"/>
<path d="M60.7012 336.307C60.9482 336.256 61.2012 336.237 61.4532 336.253H63.5007C65.2221 336.253 67.6049 336.253 70.2414 336.253C72.8778 336.253 75.2515 336.335 76.9729 336.389L79.0205 336.471C79.2707 336.463 79.5207 336.491 79.7634 336.552C79.518 336.593 79.2693 336.611 79.0205 336.606H76.9729C75.2515 336.606 72.8687 336.606 70.2323 336.606C67.5958 336.606 65.2221 336.525 63.4917 336.471L61.4532 336.389C61.2005 336.386 60.9487 336.358 60.7012 336.307Z" fill="#E0E0E0"/>
<path d="M70.4766 359.745C70.7944 359.698 71.1156 359.677 71.4369 359.682L74.0553 359.637C76.2659 359.637 79.3191 359.637 82.6985 359.637C86.0779 359.637 89.122 359.637 91.3327 359.709L93.951 359.773C94.2727 359.766 94.5943 359.79 94.9114 359.845C94.5936 359.893 94.2723 359.914 93.951 359.909H91.3327C89.122 359.909 86.0688 359.909 82.6985 359.909C79.3282 359.909 76.2659 359.909 74.0553 359.836L71.4369 359.773C71.1168 359.799 70.7947 359.79 70.4766 359.745Z" fill="#E0E0E0"/>
<path d="M94.332 359.682C94.4618 359.368 94.6163 359.065 94.7941 358.776C95.1384 358.142 95.5914 357.308 96.144 356.312C97.2765 354.237 98.862 351.365 100.466 348.158C102.069 344.951 103.51 341.988 104.515 339.85L105.702 337.304C105.834 336.989 105.992 336.686 106.173 336.398C106.08 336.729 105.962 337.053 105.82 337.367C105.575 337.983 105.204 338.871 104.733 339.959C103.827 342.124 102.414 345.105 100.774 348.33C99.1338 351.555 97.5393 354.409 96.3524 356.484C95.7544 357.499 95.2561 358.296 94.9028 358.885C94.7382 359.168 94.5471 359.435 94.332 359.682Z" fill="#E0E0E0"/>
<path d="M145.738 208.29C141.956 206.741 138.73 204.089 136.478 200.679C135.288 198.908 134.753 196.778 134.965 194.654C135.301 192.562 136.986 190.595 139.106 190.505C139.833 190.513 140.551 190.679 141.208 190.992C141.865 191.305 142.446 191.757 142.911 192.317C143.839 193.427 144.602 194.666 145.176 195.995C145.284 194.93 145.659 193.91 146.267 193.029C146.876 192.148 147.697 191.436 148.655 190.958C149.634 190.538 150.727 190.466 151.753 190.754C152.778 191.043 153.674 191.674 154.29 192.543C155.504 194.355 155.124 197.073 154.082 198.704C152.916 200.353 151.577 201.872 150.086 203.234C148.274 205.046 145.738 206.541 145.738 208.335" fill="#EBEBEB"/>
<path d="M404.229 183.574C401.612 182.502 399.379 180.664 397.824 178.301C396.999 177.077 396.628 175.603 396.773 174.134C396.858 173.4 397.186 172.716 397.705 172.191C398.224 171.665 398.904 171.329 399.636 171.234C400.138 171.237 400.634 171.348 401.09 171.561C401.545 171.773 401.948 172.083 402.272 172.467C402.919 173.237 403.45 174.098 403.849 175.021C403.921 174.283 404.18 173.575 404.599 172.964C405.019 172.352 405.587 171.857 406.25 171.524C406.929 171.235 407.687 171.187 408.397 171.388C409.107 171.589 409.728 172.027 410.155 172.63C410.516 173.288 410.693 174.032 410.667 174.783C410.642 175.534 410.415 176.264 410.01 176.897C409.197 178.027 408.271 179.071 407.246 180.014C405.978 181.291 404.229 182.306 404.229 183.547" fill="#F5F5F5"/>
<path d="M244.047 160.489C241.689 159.52 239.678 157.862 238.276 155.733C237.545 154.623 237.225 153.293 237.37 151.973C237.455 151.318 237.754 150.709 238.221 150.242C238.688 149.775 239.297 149.475 239.952 149.391C240.405 149.394 240.852 149.495 241.261 149.688C241.671 149.88 242.034 150.159 242.326 150.505C242.906 151.196 243.382 151.969 243.739 152.797C243.806 152.133 244.04 151.497 244.418 150.947C244.797 150.397 245.308 149.952 245.905 149.653C246.516 149.393 247.199 149.349 247.838 149.531C248.478 149.712 249.036 150.107 249.42 150.65C249.748 151.242 249.91 151.912 249.888 152.588C249.865 153.265 249.66 153.922 249.293 154.491C248.566 155.514 247.731 156.456 246.802 157.3C245.66 158.451 244.084 159.366 244.084 160.489" fill="#EBEBEB"/>
<path d="M46.7393 180.856C42.5178 179.122 38.9159 176.157 36.4018 172.349C35.0651 170.369 34.4626 167.985 34.6985 165.608C35.07 163.28 36.9635 161.078 39.3282 160.969C40.1401 160.978 40.9407 161.161 41.6755 161.506C42.4103 161.852 43.062 162.352 43.5864 162.972C44.6242 164.214 45.4785 165.599 46.1232 167.085C46.2388 165.894 46.6553 164.752 47.3337 163.766C48.012 162.78 48.9298 161.983 50.0009 161.449C51.1047 160.973 52.3392 160.894 53.4951 161.224C54.651 161.554 55.6571 162.274 56.3429 163.261C57.7019 165.309 57.2489 168.299 56.1073 170.147C54.7992 171.97 53.3021 173.649 51.6407 175.157C49.5932 177.205 46.7755 178.845 46.7755 180.856" fill="#F5F5F5"/>
<path d="M320.986 219.85C317.383 218.372 314.306 215.847 312.153 212.602C311.011 210.913 310.495 208.878 310.694 206.849C311.02 204.856 312.633 202.98 314.653 202.89C315.344 202.898 316.025 203.055 316.65 203.349C317.275 203.643 317.83 204.067 318.277 204.593C319.164 205.655 319.893 206.839 320.443 208.108C320.543 207.091 320.901 206.117 321.48 205.275C322.06 204.434 322.844 203.753 323.759 203.297C324.689 202.89 325.73 202.813 326.711 203.078C327.691 203.343 328.551 203.935 329.149 204.756C329.649 205.665 329.894 206.691 329.859 207.728C329.824 208.764 329.51 209.772 328.95 210.645C327.834 212.21 326.555 213.653 325.136 214.949C323.387 216.706 320.986 218.101 320.986 219.823" fill="#EBEBEB"/>
<path d="M53.5172 107.162L54.4232 108.82C55.4398 110.689 56.9711 112.226 58.8354 113.25L60.4934 114.156L58.8354 115.062C56.9696 116.076 55.4372 117.609 54.4232 119.475L53.5172 121.133L52.6112 119.475C51.5919 117.613 50.0608 116.082 48.199 115.062L46.541 114.156L48.199 113.25C50.0569 112.226 51.5866 110.696 52.6112 108.838L53.5172 107.162Z" fill="#EBEBEB"/>
<path d="M330.371 49.3589L331.277 51.0169C332.291 52.8802 333.819 54.4121 335.681 55.4291L337.339 56.3351L335.681 57.2411C333.823 58.2634 332.296 59.794 331.277 61.6533L330.371 63.3113L329.465 61.6533C328.447 59.794 326.92 58.2634 325.062 57.2411L323.404 56.3351L325.062 55.4291C326.924 54.4121 328.452 52.8802 329.465 51.0169L330.371 49.3589Z" fill="#EBEBEB"/>
<path d="M97.4764 117.617L98.7901 120.018C100.259 122.691 102.459 124.891 105.132 126.36L107.533 127.674L105.132 128.987C102.459 130.456 100.259 132.656 98.7901 135.329L97.4764 137.73L96.1717 135.329C94.6921 132.649 92.4756 130.448 89.7844 128.987L87.3926 127.746L89.7844 126.433C92.4756 124.972 94.6921 122.771 96.1717 120.091L97.4764 117.617Z" fill="#EBEBEB"/>
<path d="M90.5987 62.5142L91.088 63.4202C91.6446 64.4403 92.4848 65.2773 93.507 65.8301L94.413 66.3284L93.507 66.8267C92.4885 67.3845 91.6495 68.2203 91.088 69.2367L90.5987 70.1427L90.1004 69.2367C89.5388 68.2203 88.6999 67.3845 87.6814 66.8267L86.7754 66.3284L87.6814 65.8301C88.7136 65.2815 89.5637 64.4441 90.1276 63.4202L90.5987 62.5142Z" fill="#F5F5F5"/>
<path d="M353.538 37.7261L354.036 38.6321C354.592 39.6524 355.428 40.492 356.446 41.0511L357.352 41.5403L356.446 42.0386C355.428 42.5978 354.592 43.4373 354.036 44.4577L353.538 45.3637L353.04 44.4577C352.482 43.4361 351.642 42.5964 350.621 42.0386L349.715 41.5403L350.621 41.0511C351.639 40.492 352.475 39.6524 353.031 38.6321L353.538 37.7261Z" fill="#F5F5F5"/>
<path d="M426.526 374.55C426.526 374.676 335.745 374.785 223.791 374.785C111.836 374.785 21.0371 374.676 21.0371 374.55C21.0371 374.423 111.791 374.314 223.791 374.314C335.791 374.314 426.526 374.414 426.526 374.55Z" fill="#263238"/>
<path d="M307.08 161.513V134.07H341.689V191.954L307.08 161.513Z" fill="#FF6D38"/>
<path d="M344.18 132.448H303.637V144.38H344.18V132.448Z" fill="#FF6D38"/>
<path d="M344.108 144.38C344.108 144.516 335.048 144.616 323.904 144.616C312.76 144.616 303.709 144.516 303.709 144.38C303.709 144.244 312.769 144.145 323.904 144.145C335.038 144.145 344.108 144.253 344.108 144.38Z" fill="#263238"/>
<path d="M59.1348 220.883L216.217 86.2964L396.719 221.399L381.589 234.373L216.724 114.219L75.017 234.21L59.1348 220.883Z" fill="#FF6D38"/>
<g opacity="0.3">
<path d="M216.724 114.219L216.217 86.2964L396.719 221.399L381.589 234.373L216.724 114.219Z" fill="black"/>
</g>
<path d="M216.724 114.219C216.656 113.858 216.625 113.491 216.633 113.123C216.633 112.317 216.57 111.311 216.533 110.133C216.452 107.506 216.352 104.063 216.234 100.267C216.117 96.4708 216.062 92.9192 216.071 90.3915C216.071 89.1322 216.071 88.1084 216.126 87.4017C216.113 87.031 216.143 86.6601 216.216 86.2964C216.284 86.6608 216.314 87.0312 216.307 87.4017C216.307 88.199 216.37 89.2137 216.406 90.3915C216.488 93.0189 216.588 96.4527 216.705 100.258C216.823 104.063 216.878 107.596 216.869 110.124C216.869 111.393 216.869 112.416 216.814 113.123C216.828 113.491 216.797 113.859 216.724 114.219Z" fill="#263238"/>
<path d="M176.163 178.545C174.67 175.586 173.515 172.468 172.721 169.25C171.923 166.003 172.242 162.581 173.627 159.538C174.533 157.807 175.819 156.321 176.526 154.509C177.495 152.027 177.26 149.073 178.918 146.953C181.491 143.674 186.673 144.679 190.514 143.067C193.513 141.816 195.688 138.935 198.813 138.065C201.531 137.313 204.449 138.265 206.967 139.488C209.486 140.711 212.014 142.206 214.804 142.722C216.815 142.922 218.836 143.013 220.856 142.994C222.868 143.121 224.997 143.655 226.356 145.15C227.715 146.645 227.905 149.3 226.356 150.541C229.916 150.097 233.096 153.757 232.897 157.336C232.698 160.915 229.88 163.959 226.555 165.309C223.23 166.659 219.515 166.604 215.955 166.215C205.88 165.01 195.878 160.779 189.3 153.014" fill="#263238"/>
<path d="M178.864 165.988L169.894 215.764C168.372 224.226 170.963 237.508 180.476 238.613C190.642 239.737 197.772 236.801 199.194 228.883C199.865 225.132 200.753 214.206 200.852 213.825C200.852 213.825 213.736 214.912 216.907 202.536C218.447 196.557 220.603 183.982 222.415 172.575C223.354 166.669 222.035 160.627 218.721 155.65C215.407 150.672 210.341 147.124 204.531 145.712L203.335 145.422C190.261 143.039 180.893 152.824 178.864 165.988Z" fill="#FFBE9D"/>
<path d="M200.851 213.816C195.12 212.402 189.914 209.378 185.848 205.1C185.848 205.1 187.814 215.691 200.47 217.585L200.851 213.816Z" fill="#EB996E"/>
<path d="M214.905 181.3C214.799 181.764 214.514 182.168 214.112 182.424C213.71 182.68 213.224 182.768 212.758 182.668C212.528 182.63 212.309 182.548 212.112 182.425C211.914 182.302 211.744 182.14 211.61 181.951C211.476 181.761 211.381 181.546 211.33 181.319C211.28 181.092 211.276 180.858 211.317 180.629C211.421 180.163 211.705 179.757 212.107 179.499C212.51 179.241 212.997 179.152 213.464 179.252C213.694 179.29 213.914 179.374 214.111 179.498C214.308 179.622 214.479 179.784 214.613 179.974C214.747 180.165 214.842 180.38 214.892 180.608C214.942 180.835 214.947 181.07 214.905 181.3Z" fill="#263238"/>
<path d="M218.265 178.02C217.993 178.201 216.887 176.878 214.985 176.416C213.082 175.954 211.442 176.57 211.297 176.289C211.216 176.162 211.542 175.8 212.258 175.501C213.225 175.135 214.28 175.072 215.284 175.32C216.276 175.561 217.167 176.11 217.83 176.887C218.346 177.476 218.4 177.947 218.265 178.02Z" fill="#263238"/>
<path d="M196.974 177.413C196.87 177.877 196.587 178.282 196.187 178.54C195.787 178.797 195.301 178.887 194.836 178.79C194.605 178.753 194.385 178.67 194.187 178.546C193.989 178.423 193.818 178.261 193.684 178.07C193.549 177.879 193.455 177.663 193.405 177.435C193.356 177.207 193.352 176.972 193.395 176.742C193.501 176.278 193.786 175.874 194.188 175.618C194.59 175.362 195.076 175.274 195.542 175.374C195.772 175.41 195.992 175.492 196.189 175.615C196.387 175.738 196.557 175.899 196.691 176.09C196.825 176.28 196.918 176.495 196.967 176.723C197.016 176.95 197.018 177.185 196.974 177.413Z" fill="#263238"/>
<path d="M199.43 173.816C199.158 173.988 198.053 172.674 196.141 172.212C194.229 171.75 192.607 172.366 192.453 172.086C192.381 171.95 192.698 171.587 193.423 171.297C194.385 170.923 195.44 170.859 196.44 171.116C197.434 171.348 198.327 171.895 198.986 172.674C199.466 173.272 199.566 173.735 199.43 173.816Z" fill="#263238"/>
<path d="M202.945 189.644C204.028 189.575 205.114 189.642 206.18 189.843C206.678 189.907 207.167 189.925 207.33 189.617C207.486 189.118 207.486 188.584 207.33 188.086L206.787 184.027C206.071 178.265 205.681 173.562 205.881 173.535C206.08 173.508 206.877 178.165 207.593 183.936C207.765 185.359 207.919 186.709 208.064 188.004C208.231 188.666 208.157 189.366 207.856 189.979C207.742 190.133 207.595 190.259 207.425 190.349C207.256 190.438 207.069 190.488 206.877 190.496C206.591 190.502 206.305 190.471 206.026 190.405C204.971 190.281 203.936 190.026 202.945 189.644Z" fill="#263238"/>
<path d="M196.975 189.599C197.292 189.653 196.794 191.728 198.207 193.63C199.62 195.533 201.831 195.841 201.831 196.131C201.831 196.267 201.242 196.412 200.309 196.213C199.09 195.936 198.008 195.236 197.256 194.238C196.531 193.283 196.206 192.084 196.35 190.894C196.486 190.006 196.839 189.553 196.975 189.599Z" fill="#263238"/>
<path d="M201.74 166.46C201.432 166.931 199.584 166.224 197.282 165.943C194.981 165.662 193.015 165.844 192.834 165.3C192.752 165.046 193.187 164.639 194.039 164.312C195.164 163.937 196.361 163.824 197.537 163.981C198.712 164.138 199.837 164.561 200.825 165.218C201.568 165.726 201.885 166.233 201.74 166.46Z" fill="#263238"/>
<path d="M218.908 172.33C218.473 172.684 217.268 171.914 215.692 171.506C214.115 171.098 212.702 171.089 212.503 170.555C212.421 170.31 212.738 169.92 213.409 169.649C214.312 169.349 215.285 169.324 216.202 169.578C217.12 169.831 217.942 170.351 218.564 171.071C219.035 171.66 219.108 172.14 218.908 172.33Z" fill="#263238"/>
<path d="M177.64 175.429C177.45 175.284 169.731 170.826 167.937 179.379C166.143 187.932 175.094 187.968 175.185 187.723C175.275 187.479 177.64 175.429 177.64 175.429Z" fill="#FFBE9D"/>
<path d="M173.228 183.918C173.228 183.918 173.056 183.991 172.784 184.054C172.396 184.134 171.993 184.059 171.66 183.846C170.827 183.32 170.365 181.726 170.655 180.176C170.782 179.44 171.076 178.743 171.515 178.138C171.655 177.891 171.851 177.681 172.087 177.523C172.323 177.366 172.593 177.266 172.874 177.232C173.056 177.223 173.236 177.278 173.381 177.387C173.527 177.496 173.63 177.653 173.672 177.83C173.735 178.093 173.672 178.247 173.672 178.274C173.672 178.301 173.88 178.165 173.889 177.803C173.883 177.581 173.804 177.367 173.663 177.196C173.565 177.083 173.446 176.99 173.312 176.923C173.178 176.856 173.033 176.816 172.883 176.806C172.522 176.805 172.166 176.897 171.849 177.071C171.532 177.245 171.265 177.497 171.071 177.803C170.552 178.467 170.201 179.248 170.048 180.077C169.749 181.816 170.292 183.61 171.452 184.226C171.666 184.343 171.903 184.409 172.147 184.42C172.39 184.431 172.633 184.386 172.856 184.29C173.173 184.145 173.255 183.964 173.228 183.918Z" fill="#EB996E"/>
<path d="M225.378 161.051C223.774 164.176 216.119 165.091 210.619 163.18C205.545 161.368 203.824 158.079 200.653 155.098C198.66 153.214 198.66 153.214 195.308 152.724C192.59 152.335 190.288 154.953 188.15 156.675C189.011 163.569 185.686 170.219 182.461 176.371C182.179 177.092 181.662 177.695 180.993 178.083C179.806 178.618 178.447 177.648 177.795 176.516C176.753 174.704 176.717 172.502 176.889 170.419C177.101 165.657 178.259 160.984 180.295 156.675C182.354 152.354 185.641 148.736 189.745 146.274C194.989 143.357 201.162 142.594 206.959 144.145C212.732 145.736 217.856 149.11 221.6 153.784C223.436 155.849 224.726 158.341 225.351 161.032" fill="#263238"/>
<path d="M206.995 181.146C207.067 181.146 207.076 180.403 207.466 179.161C208.041 177.41 209.178 175.898 210.7 174.858C211.816 174.105 213.1 173.64 214.439 173.504C215.778 173.368 217.13 173.565 218.374 174.079C219.851 174.677 221.114 175.706 221.998 177.032C222.946 178.444 223.419 180.122 223.349 181.821C223.279 183.52 222.669 185.153 221.608 186.482C220.625 187.724 219.294 188.645 217.785 189.127C216.503 189.536 215.139 189.621 213.816 189.374C212.493 189.128 211.251 188.557 210.202 187.714C208.773 186.562 207.767 184.969 207.339 183.184C207.049 181.907 207.103 181.164 207.031 181.164C206.958 181.164 206.986 181.345 206.967 181.698C206.941 182.214 206.977 182.731 207.076 183.238C207.419 185.142 208.415 186.866 209.894 188.113C210.993 189.046 212.31 189.686 213.723 189.975C215.136 190.263 216.598 190.19 217.975 189.762C219.617 189.259 221.067 188.27 222.134 186.926C223.298 185.489 223.968 183.716 224.045 181.868C224.122 180.021 223.601 178.198 222.56 176.67C221.919 175.72 221.094 174.907 220.134 174.28C219.174 173.654 218.098 173.226 216.97 173.021C215.842 172.817 214.684 172.841 213.565 173.091C212.447 173.341 211.389 173.812 210.456 174.477C208.883 175.6 207.75 177.233 207.248 179.098C207.107 179.597 207.028 180.111 207.013 180.629C206.967 180.964 206.967 181.146 206.995 181.146Z" fill="#263238"/>
<path d="M186.719 176.734C186.792 176.734 186.792 175.991 187.19 174.74C187.763 172.99 188.901 171.48 190.425 170.446C191.539 169.694 192.822 169.23 194.159 169.094C195.497 168.958 196.847 169.155 198.089 169.667C199.603 170.301 200.887 171.381 201.77 172.763C202.654 174.146 203.096 175.764 203.036 177.404C202.961 179.105 202.349 180.738 201.288 182.07C200.306 183.314 198.974 184.235 197.464 184.715C196.184 185.128 194.821 185.215 193.498 184.968C192.176 184.721 190.936 184.149 189.89 183.302C188.464 182.147 187.458 180.555 187.027 178.772C186.728 177.504 186.792 176.761 186.719 176.761C186.647 176.761 186.674 176.942 186.647 177.295C186.625 177.808 186.661 178.322 186.755 178.826C187.095 180.733 188.092 182.461 189.573 183.71C190.45 184.448 191.465 185.004 192.56 185.345C193.655 185.685 194.806 185.804 195.947 185.693C197.088 185.582 198.196 185.245 199.205 184.701C200.213 184.156 201.103 183.416 201.822 182.523C202.987 181.086 203.657 179.313 203.734 177.465C203.81 175.618 203.289 173.795 202.248 172.267C201.608 171.316 200.783 170.502 199.824 169.875C198.864 169.247 197.788 168.818 196.66 168.613C195.532 168.408 194.374 168.431 193.255 168.68C192.136 168.93 191.078 169.401 190.144 170.065C188.566 171.188 187.429 172.825 186.928 174.695C186.791 175.192 186.712 175.702 186.692 176.217C186.683 176.543 186.692 176.734 186.719 176.734Z" fill="#263238"/>
<path d="M203.533 177.721C203.615 177.893 204.729 177.431 205.988 177.875C207.248 178.319 207.8 179.361 208.009 179.27C208.217 179.18 208.063 178.908 207.791 178.464C207.421 177.873 206.859 177.427 206.2 177.199C205.541 176.972 204.823 176.977 204.167 177.214C203.714 177.395 203.488 177.64 203.533 177.721Z" fill="#263238"/>
<path d="M175.23 174.042C175.23 174.233 177.948 174.468 181.355 174.559C184.762 174.649 187.489 174.559 187.498 174.378C187.507 174.196 184.78 173.952 181.373 173.861C177.967 173.771 175.24 173.852 175.23 174.042Z" fill="#263238"/>
<path d="M82.0762 243.596L98.8282 262.622L119.449 243.596L136.183 263.139C136.183 263.139 117.292 282.754 107.263 287.057C97.8406 291.098 93.365 287.474 90.1306 286.658C86.8961 285.843 69.7637 255.048 69.7637 255.048L82.0762 243.596Z" fill="#FFBE9D"/>
<path d="M92.5577 221.725C92.5577 221.725 91.6517 223.057 89.2961 227.27C86.9405 231.483 87.1761 236.511 85.8896 240.479C84.3494 245.263 82.8545 246.16 82.8545 246.16L69.7628 255.048C69.7628 255.048 63.4208 251.143 61.2826 247.583C59.1445 244.022 55.6926 231.782 55.6926 231.782L49.7221 221.064C49.6775 220.758 49.7118 220.446 49.8217 220.158C50.0624 219.723 50.4109 219.357 50.8339 219.095C51.2568 218.834 51.7398 218.686 52.2366 218.665C52.7334 218.644 53.2272 218.751 53.6706 218.976C54.114 219.201 54.492 219.536 54.7685 219.95C54.7685 219.95 56.7979 218.138 60.2045 220.194C63.0312 221.87 62.7503 224.298 62.7503 224.298C64.4174 225.087 72.4264 237.653 74.4287 234.4C75.3084 232.838 76.4948 231.47 77.9168 230.378C84.2588 227.025 83.09 227.016 85.808 223.447C88.526 219.877 91.9598 219.044 92.5577 221.725Z" fill="#FFBE9D"/>
<path d="M58.5004 237.49C58.4517 237.315 58.4243 237.136 58.4189 236.955C58.4189 236.547 58.3374 236.049 58.283 235.406C58.1743 234.002 58.0384 232.081 57.8662 229.725C57.7847 228.52 57.7032 227.207 57.6035 225.802C57.6035 225.096 57.5129 224.362 57.4676 223.61C57.3528 222.816 57.3897 222.007 57.5763 221.227C57.7135 220.79 58.0029 220.417 58.3917 220.176C58.791 219.942 59.254 219.841 59.7145 219.886C60.173 219.932 60.6151 220.081 61.0075 220.323C61.3998 220.565 61.7322 220.892 61.9795 221.281C62.431 222.066 62.7379 222.925 62.8855 223.818C63.0757 224.724 63.2751 225.576 63.4653 226.473C64.4982 231.22 65.4585 235.669 66.2739 239.456L66.0655 239.302C67.9227 239.19 69.7811 239.499 71.5015 240.208C72.824 240.734 74.0489 241.478 75.1255 242.409C75.8021 243.007 76.4098 243.679 76.9375 244.411C77.1187 244.665 77.2365 244.883 77.3181 245.018C77.3996 245.154 77.4449 245.227 77.4358 245.236C76.7022 244.271 75.8702 243.384 74.9534 242.59C73.8829 241.711 72.6775 241.011 71.3838 240.516C69.7126 239.864 67.9185 239.589 66.129 239.709H65.9478V239.537C65.1142 235.75 64.1358 231.302 63.0848 226.563C62.8855 225.657 62.6952 224.751 62.4959 223.909C62.3407 223.066 62.0337 222.259 61.5899 221.526C61.3845 221.193 61.1052 220.912 60.7737 220.705C60.4422 220.497 60.0673 220.369 59.6782 220.33C59.318 220.273 58.9495 220.347 58.6389 220.538C58.3283 220.729 58.0961 221.025 57.984 221.372C57.8155 222.099 57.7787 222.851 57.8753 223.592C57.8753 224.344 57.9568 225.068 57.9931 225.775C58.0656 227.188 58.138 228.493 58.2015 229.707C58.3102 232.063 58.4008 233.992 58.4642 235.397C58.4642 236.031 58.4642 236.538 58.4642 236.946C58.492 237.126 58.5042 237.308 58.5004 237.49Z" fill="#EB996E"/>
<path d="M79.6745 229.417C79.2398 229.792 78.7763 230.131 78.2884 230.432C77.1838 231.22 76.2191 232.188 75.4345 233.295C74.673 234.414 74.1942 235.701 74.0392 237.046C74.0328 237.616 73.9935 238.184 73.9214 238.749C73.7293 238.194 73.6553 237.604 73.704 237.019C73.7681 235.591 74.2328 234.209 75.0449 233.032C75.8526 231.861 76.8955 230.87 78.1072 230.124C78.5788 229.789 79.1112 229.549 79.6745 229.417Z" fill="#EB996E"/>
<path d="M57.8394 226.392C57.1967 225.33 56.6159 224.232 56.0999 223.103C55.4584 222.037 54.9301 220.908 54.5234 219.732C55.3408 220.677 56.0153 221.736 56.5257 222.876C57.1785 223.956 57.6241 225.148 57.8394 226.392Z" fill="#EB996E"/>
<path d="M108.812 274.436C107.659 272.127 106.288 269.934 104.717 267.886C103.024 265.943 101.152 264.162 99.127 262.568C99.833 262.871 100.492 263.274 101.084 263.764C102.57 264.87 103.914 266.154 105.088 267.587C106.26 269.024 107.249 270.6 108.033 272.28C108.4 272.955 108.663 273.682 108.812 274.436Z" fill="#EB996E"/>
<path d="M171.017 209.757C171.017 209.757 146.772 216.226 136.181 223.42C130.89 227.044 112.625 248.616 112.625 248.616L130.872 275.651L149.726 257.159L171.017 209.757Z" fill="#E0E0E0"/>
<path d="M139.045 260.104L145.287 332.801L160.137 333.834H232.526L232.336 259.035L229.147 226.129L201.269 215.501C191.366 225.132 175.475 222.704 170.954 209.893L139.045 260.104Z" fill="#E0E0E0"/>
<path d="M137.187 237.454C137.313 237.454 138.247 247.42 139.261 259.723C140.276 272.027 141.001 282.029 140.874 282.047C140.747 282.065 139.814 272.081 138.79 259.768C137.766 247.456 137.06 237.463 137.187 237.454Z" fill="#263238"/>
<g opacity="0.3">
<path d="M169.015 319.492L167.447 320.081C173.331 319.73 179.066 318.094 184.25 315.289C189.434 312.484 193.941 308.578 197.454 303.845C188.385 309.852 179.216 315.813 169.015 319.492Z" fill="black"/>
</g>
<path d="M198.341 280.996C198.307 281.152 198.249 281.302 198.169 281.44C198.006 281.766 197.816 282.174 197.571 282.672C197.327 283.17 196.992 283.85 196.566 284.575C196.14 285.3 195.66 286.151 195.125 287.048C193.828 289.165 192.415 291.21 190.894 293.173C189.025 295.569 187.01 297.847 184.86 299.995C182.692 302.129 180.395 304.129 177.984 305.984C176.012 307.492 173.959 308.889 171.832 310.169C170.926 310.74 170.083 311.184 169.349 311.592C168.616 311.999 167.972 312.326 167.438 312.579L166.206 313.168C166.067 313.248 165.918 313.306 165.762 313.34C165.884 313.24 166.018 313.155 166.16 313.087L167.347 312.416C167.873 312.144 168.507 311.8 169.223 311.356C169.938 310.912 170.781 310.45 171.66 309.888C173.472 308.774 175.51 307.343 177.721 305.639C180.102 303.779 182.374 301.782 184.525 299.66C186.659 297.519 188.673 295.263 190.559 292.901C192.271 290.699 193.721 288.652 194.844 286.867C195.433 285.961 195.904 285.164 196.339 284.448C196.774 283.732 197.127 283.098 197.408 282.582L198.079 281.395C198.158 281.256 198.245 281.123 198.341 280.996Z" fill="#263238"/>
<path d="M90.7183 377.24L96.4443 403.333C96.4443 403.333 71.5746 415.999 72.1182 420.928L123.425 413.553L116.177 372.538L90.7183 377.24Z" fill="#455A64"/>
<g opacity="0.6">
<path d="M111.811 398.25C112.329 398.311 112.806 398.561 113.151 398.952C113.495 399.344 113.683 399.849 113.677 400.371C113.633 400.888 113.395 401.369 113.01 401.718C112.625 402.066 112.121 402.255 111.602 402.246C111.052 402.181 110.546 401.914 110.181 401.498C109.816 401.081 109.619 400.544 109.627 399.99C109.727 399.452 110.03 398.974 110.474 398.655C110.919 398.336 111.469 398.201 112.01 398.278" fill="white"/>
</g>
<g opacity="0.6">
<path d="M123.425 413.553L122.692 409.421L73.3871 418.264C72.9063 418.615 72.5193 419.078 72.2601 419.614C72.001 420.149 71.8777 420.741 71.9013 421.335L123.425 413.553Z" fill="white"/>
</g>
<path d="M95.5665 403.224C95.6208 403.469 96.8892 403.36 98.2845 403.94C99.6797 404.52 100.504 405.444 100.713 405.299C100.921 405.154 100.287 403.786 98.6197 403.116C96.9526 402.445 95.4759 403.007 95.5665 403.224Z" fill="#263238"/>
<path d="M90.6016 406.413C90.6016 406.658 91.7431 406.885 92.776 407.791C93.8088 408.697 94.2618 409.757 94.5064 409.702C94.751 409.648 94.6604 408.207 93.3467 407.111C92.033 406.015 90.6016 406.169 90.6016 406.413Z" fill="#263238"/>
<path d="M88.7889 413.362C89.0245 413.362 89.1423 412.067 88.2544 410.826C87.3665 409.584 86.0709 409.24 85.9984 409.512C85.9259 409.784 86.7867 410.336 87.5024 411.378C88.2181 412.42 88.499 413.381 88.7889 413.362Z" fill="#263238"/>
<path d="M94.9231 397.136C95.0681 397.345 96.1462 396.792 97.5777 396.629C99.0092 396.466 100.178 396.71 100.296 396.475C100.413 396.239 99.1723 395.569 97.4962 395.759C95.8201 395.949 94.7691 396.964 94.9231 397.136Z" fill="#263238"/>
<g opacity="0.3">
<path d="M91.8594 382.405L92.8741 387.062L117.889 382.269L117.155 378.047L91.8594 382.405Z" fill="black"/>
</g>
<path d="M93.8633 391.845C93.8633 391.954 94.8961 391.927 96.4182 391.374C97.3082 391.04 98.154 390.599 98.9369 390.06C99.404 389.744 99.849 389.395 100.269 389.018C100.526 388.806 100.749 388.556 100.93 388.275C101.06 388.069 101.117 387.826 101.094 387.583C101.072 387.341 100.969 387.113 100.803 386.934C100.647 386.782 100.458 386.67 100.25 386.605C100.042 386.54 99.8218 386.526 99.6073 386.563C99.291 386.617 98.9853 386.721 98.7013 386.871C97.2945 387.489 96.0689 388.455 95.1407 389.68C94.1532 390.984 93.9176 391.99 94.0173 392.026C94.117 392.062 94.579 391.202 95.6119 390.078C96.2178 389.424 96.9061 388.852 97.6594 388.375C98.1021 388.101 98.5655 387.861 99.0456 387.659C99.553 387.424 100.015 387.333 100.196 387.551C100.377 387.768 100.278 387.668 100.196 387.84C100.06 388.044 99.8949 388.227 99.707 388.384C99.3247 388.748 98.9191 389.087 98.4929 389.399C97.7753 389.936 97.0077 390.403 96.2008 390.794C95.4008 391.096 94.6202 391.447 93.8633 391.845Z" fill="#263238"/>
<path d="M94.2243 392.144C94.324 392.144 94.6502 391.183 94.4508 389.553C94.2317 388.029 93.6057 386.592 92.6388 385.394C92.4396 385.082 92.1632 384.826 91.8363 384.651C91.5094 384.477 91.143 384.389 90.7725 384.398C90.5525 384.45 90.3513 384.562 90.1913 384.722C90.0314 384.882 89.919 385.083 89.8665 385.304C89.7946 385.628 89.7642 385.959 89.7759 386.291C89.794 386.878 89.9009 387.458 90.093 388.012C90.4053 388.942 90.944 389.78 91.6604 390.45C92.9016 391.591 93.9888 391.7 93.9978 391.609C94.0069 391.519 93.0918 391.147 92.1043 390.015C91.5328 389.364 91.1093 388.598 90.8631 387.768C90.7212 387.285 90.648 386.785 90.6456 386.282C90.6456 385.72 90.7453 385.249 90.9627 385.267C91.1802 385.285 91.7147 385.548 92.0046 385.938C92.3389 386.336 92.6418 386.761 92.9106 387.206C93.3276 387.981 93.6326 388.81 93.8166 389.67C94.2243 391.156 94.1156 392.135 94.2243 392.144Z" fill="#263238"/>
<path d="M88.9241 383.818C88.9241 383.818 71.3296 311.791 71.1303 301.934C70.9219 291.469 80.5255 282.672 86.9762 281.168C93.4269 279.664 107.742 284.629 115.66 294.522C123.579 304.416 148.784 323.197 148.784 323.197C159.203 331.016 174.641 334.341 188.648 327.012C188.648 327.012 209.25 359.057 210.591 358.251C213.01 356.783 211.433 360.815 209.504 365.798C205.689 375.637 198.133 384.026 189.363 384.235L139.008 386.491L119.42 364.574L121.232 379.732L88.9241 383.818Z" fill="#263238"/>
<path d="M120.753 375.392C120.67 375.141 120.609 374.883 120.572 374.622C120.472 374.123 120.309 373.381 120.164 372.411C119.723 369.686 119.421 366.94 119.258 364.185C119.005 360.097 118.963 356 119.132 351.908C119.204 349.598 119.331 347.179 119.485 344.66C119.694 342.084 119.769 339.498 119.711 336.914C119.552 331.919 118.998 326.945 118.053 322.038C117.316 318.024 116.287 314.069 114.973 310.205C114.101 307.598 112.988 305.077 111.648 302.676C111.288 302.022 110.895 301.387 110.47 300.774C110.318 300.557 110.182 300.33 110.062 300.094C110.242 300.286 110.405 300.492 110.552 300.71C111.007 301.309 111.424 301.935 111.802 302.586C113.217 304.963 114.383 307.48 115.281 310.096C116.652 313.961 117.721 317.926 118.479 321.956C119.449 326.882 120.019 331.878 120.183 336.896C120.238 339.495 120.159 342.096 119.947 344.688C119.784 347.197 119.657 349.616 119.566 351.936C119.376 356.538 119.394 360.697 119.566 364.176C119.739 367.655 120.083 370.463 120.346 372.393C120.463 373.362 120.599 374.105 120.663 374.622C120.713 374.876 120.744 375.133 120.753 375.392Z" fill="#455A64"/>
<path d="M152.354 339.034C152.209 339.034 152.354 335.945 151.792 332.194C151.23 328.443 150.315 325.508 150.451 325.462C150.791 326.055 151.044 326.692 151.203 327.356C151.679 328.918 152.034 330.514 152.263 332.131C152.491 333.748 152.588 335.381 152.553 337.014C152.582 337.693 152.515 338.373 152.354 339.034Z" fill="#455A64"/>
<path d="M142.724 387.252L117.573 396.248C117.573 396.248 120.074 424.09 115.589 426.201L94.5879 378.817L133.183 363.179L142.724 387.252Z" fill="#455A64"/>
<g opacity="0.6">
<path d="M113.723 380.52C113.396 380.115 112.933 379.845 112.42 379.76C111.907 379.674 111.381 379.781 110.941 380.058C110.532 380.366 110.254 380.817 110.163 381.321C110.072 381.825 110.175 382.345 110.452 382.776C110.798 383.206 111.291 383.494 111.837 383.582C112.382 383.671 112.941 383.555 113.406 383.256C113.81 382.888 114.056 382.377 114.092 381.831C114.127 381.286 113.949 380.747 113.596 380.33" fill="white"/>
</g>
<g opacity="0.6">
<path d="M94.5879 378.817L98.4837 377.24L117.156 423.7C117.116 424.295 116.93 424.871 116.614 425.377C116.298 425.882 115.862 426.302 115.344 426.599L94.5879 378.817Z" fill="white"/>
</g>
<path d="M118.134 396.928C117.898 397.018 117.318 395.886 116.104 395.025C114.89 394.165 113.649 393.956 113.658 393.702C113.667 393.449 115.162 393.249 116.621 394.319C118.08 395.388 118.369 396.892 118.134 396.928Z" fill="#263238"/>
<path d="M118.062 402.817C117.854 402.962 117.048 402.101 115.734 401.693C114.42 401.285 113.279 401.485 113.197 401.249C113.116 401.014 114.384 400.343 116.006 400.86C117.627 401.376 118.28 402.717 118.062 402.817Z" fill="#263238"/>
<path d="M113.16 408.09C113.024 407.899 114.066 407.102 115.597 407.184C117.129 407.265 118.071 408.171 117.917 408.343C117.763 408.515 116.802 408.117 115.543 408.062C114.284 408.008 113.251 408.316 113.16 408.09Z" fill="#263238"/>
<path d="M123.633 394.246C123.379 394.246 123.279 393.023 122.654 391.727C122.029 390.432 121.205 389.571 121.359 389.363C121.513 389.154 122.745 389.825 123.452 391.356C124.158 392.887 123.868 394.282 123.633 394.246Z" fill="#263238"/>
<g opacity="0.3">
<path d="M137.74 389.027L133.264 390.631L124.041 366.885L128.009 365.272L137.74 389.027Z" fill="black"/>
</g>
<path d="M128.653 392.298C128.553 392.298 128.037 391.464 127.702 389.879C127.512 388.949 127.433 388 127.466 387.052C127.491 386.49 127.555 385.93 127.656 385.376C127.698 385.044 127.79 384.72 127.928 384.416C128.035 384.197 128.211 384.019 128.428 383.909C128.646 383.8 128.894 383.764 129.133 383.809C129.345 383.86 129.541 383.961 129.706 384.103C129.872 384.245 130.001 384.423 130.085 384.624C130.211 384.931 130.29 385.254 130.32 385.585C130.4 386.148 130.428 386.719 130.402 387.288C130.364 388.246 130.171 389.191 129.831 390.087C129.242 391.618 128.517 392.352 128.436 392.289C128.354 392.225 128.834 391.383 129.242 389.897C129.471 389.04 129.589 388.157 129.595 387.27C129.597 386.748 129.554 386.226 129.468 385.711C129.396 385.15 129.224 384.715 128.952 384.669C128.843 384.669 128.807 384.669 128.698 384.833C128.6 385.058 128.533 385.296 128.499 385.539C128.394 386.054 128.321 386.574 128.282 387.098C128.196 388.002 128.196 388.912 128.282 389.816C128.46 390.634 128.584 391.463 128.653 392.298Z" fill="#263238"/>
<path d="M128.218 392.162C128.146 392.09 128.807 391.256 130.293 390.595C131.171 390.202 132.108 389.957 133.065 389.87C133.632 389.812 134.202 389.812 134.769 389.87C135.136 389.874 135.495 389.973 135.813 390.157C136.13 390.341 136.395 390.604 136.581 390.921C136.663 391.137 136.682 391.372 136.635 391.598C136.589 391.824 136.479 392.033 136.318 392.198C136.083 392.432 135.818 392.633 135.53 392.796C135.024 393.092 134.478 393.312 133.908 393.449C132.956 393.683 131.961 393.683 131.009 393.449C129.378 393.005 128.707 392.135 128.78 392.081C129.55 392.378 130.336 392.629 131.136 392.833C131.993 392.977 132.871 392.931 133.709 392.697C134.19 392.56 134.65 392.359 135.077 392.099C135.566 391.818 135.901 391.455 135.765 391.292C135.629 391.129 135.131 390.794 134.642 390.758C134.131 390.689 133.616 390.665 133.102 390.685C132.219 390.725 131.347 390.89 130.51 391.175C129.088 391.673 128.309 392.298 128.218 392.162Z" fill="#263238"/>
<path d="M138.846 357.435C138.846 357.435 189.364 310.187 205.944 312.706C222.524 315.225 226.555 323.261 228.059 329.784C229.563 336.307 229.065 355.922 206.451 367.483C183.837 379.043 135.575 391.61 135.575 391.61L125.527 363.46L138.846 357.435Z" fill="#263238"/>
<path d="M138.846 357.435C138.846 357.435 138.556 357.589 137.985 357.861L135.43 359.039L125.564 363.569L125.618 363.433C128.119 370.382 131.58 379.985 135.738 391.564L135.53 391.446C147.389 388.266 161.297 384.262 176.427 379.179C183.983 376.615 191.829 373.797 199.783 370.345C201.777 369.521 203.725 368.533 205.7 367.627C206.696 367.174 207.62 366.567 208.59 366.042L210.03 365.227C210.52 364.964 210.936 364.611 211.417 364.321C215.201 361.89 218.539 358.825 221.283 355.261C225.65 349.669 228.113 342.828 228.313 335.736C228.417 333.474 228.188 331.209 227.634 329.014C227.109 326.857 226.224 324.805 225.016 322.944C223.815 321.128 222.295 319.544 220.531 318.269C218.804 317.01 216.915 315.992 214.914 315.243C212.962 314.482 210.954 313.876 208.907 313.431L205.872 312.887L204.377 312.796L202.882 312.932C200.926 313.243 199.014 313.781 197.183 314.536C193.657 315.982 190.255 317.712 187.009 319.709C181.159 323.277 175.504 327.155 170.067 331.324C160.101 338.916 152.336 345.566 147.027 350.169C144.382 352.479 142.343 354.3 140.966 355.532L139.39 356.964C139.036 357.281 138.846 357.435 138.846 357.435L139.353 356.928L140.893 355.487C142.252 354.237 144.264 352.389 146.9 350.051C152.173 345.403 159.856 338.717 169.858 331.079C175.29 326.884 180.942 322.983 186.791 319.392C190.054 317.378 193.475 315.633 197.02 314.173C198.882 313.402 200.828 312.852 202.819 312.534C203.326 312.488 203.842 312.416 204.359 312.389L205.926 312.479L208.988 313.023C211.061 313.461 213.094 314.067 215.068 314.835C217.106 315.596 219.032 316.629 220.794 317.906C222.603 319.208 224.159 320.829 225.387 322.69C226.631 324.594 227.549 326.691 228.105 328.896C228.666 331.134 228.898 333.441 228.794 335.745C228.794 336.905 228.631 338.065 228.522 339.224C228.413 340.384 228.159 341.544 227.833 342.667C226.707 347.32 224.61 351.682 221.681 355.469C218.916 359.087 215.544 362.199 211.715 364.665C211.244 364.973 210.81 365.326 210.311 365.571L208.862 366.395C207.883 366.93 206.95 367.537 205.944 367.99C203.96 368.941 202.003 369.92 200.001 370.753C192.055 374.214 184.173 377.023 176.608 379.578C161.451 384.642 147.534 388.638 135.657 391.763L135.503 391.809L135.448 391.655C131.335 380.067 127.929 370.445 125.482 363.487V363.396H125.573L135.467 358.966L138.049 357.825C138.538 357.553 138.846 357.435 138.846 357.435Z" fill="#455A64"/>
<path d="M165.799 323.533C165.02 322.119 166.624 319.637 165.102 319.102C159.267 317.046 163.743 307.823 157.772 309.435L149.781 323.587C153.269 325.725 151.784 331.741 154.828 334.459C156.64 336.045 159.276 335.954 161.586 335.428C170.375 333.462 177.795 328.824 180.06 320.108C180.431 318.513 166.542 324.955 165.799 323.533Z" fill="#E0E0E0"/>
<path d="M249.005 167.61C244.04 168.28 238.523 171.406 236.62 176.054C235.143 179.678 236.829 185.059 236.892 188.973C236.892 192.126 236.992 195.315 237.173 198.45C237.173 198.758 237.1 199.057 237.064 199.356C236.449 203.538 236.146 207.759 236.158 211.986C236.158 213.127 236.294 214.269 236.43 215.383C236.511 215.936 236.584 216.489 236.702 217.032C236.82 217.576 236.901 218.128 237.046 218.645C237.543 220.672 238.232 222.646 239.103 224.543C240.557 227.698 242.342 230.69 244.43 233.467C245.799 235.33 247.272 237.115 248.842 238.812L249.177 239.166L252.865 248.624C254.097 251.777 255.365 254.966 257.531 257.603C259.696 260.239 262.967 262.133 266.301 261.807C267.828 261.582 269.281 261 270.541 260.107C271.8 259.214 272.831 258.037 273.549 256.67C274.981 253.906 275.703 250.83 275.651 247.718L249.005 167.61ZM245.934 232.443C244.14 229.632 242.583 226.678 241.277 223.61C239.716 219.908 238.855 215.948 238.74 211.931C238.74 211.288 238.74 210.654 238.74 210.02C240.252 215.933 242.193 221.729 244.548 227.361L247.483 234.889C246.994 234.092 246.477 233.277 245.934 232.398V232.443Z" fill="#263238"/>
<path d="M293.754 228.366L257.84 242.808C257.84 242.808 271.104 272.38 282.492 269.725C293.881 267.071 299.416 239.963 299.416 239.963L293.754 228.366Z" fill="#FFBE9D"/>
<path d="M295.528 229.535C295.528 229.535 299.478 256.552 288.063 258.735C280.063 260.258 261.472 240.996 261.472 240.996C258.228 241.956 255.818 243.623 253.254 245.218C249.29 247.728 246.357 251.577 244.989 256.066C243.62 260.555 243.907 265.385 245.798 269.68C249.766 278.849 254.975 290.781 257.92 296.951C263.111 307.823 275.27 314.618 275.27 314.618L274.273 337.739C274.273 337.739 305.63 331.161 322.436 332.846C339.243 334.531 350.368 330.862 350.368 330.862L328.035 292.004L310.966 227.823C310.966 227.823 303.175 228.366 295.528 229.535Z" fill="#455A64"/>
<path d="M310.967 227.823C310.967 227.823 321.159 227.732 327.084 239.972C330.137 246.269 342.849 267.451 342.849 266.917L362.001 238.468L378.708 247.764C378.708 247.764 363.134 280.715 360.661 285.662C358.187 290.609 354.971 297.53 345.576 298.518C336.18 299.505 327.039 291.596 325.064 286.903C323.089 282.21 308.756 257.73 308.756 257.005C308.756 256.28 310.967 227.823 310.967 227.823Z" fill="#455A64"/>
<path d="M343.276 318.486C343.145 318.329 343.029 318.159 342.931 317.979C342.705 317.607 342.415 317.073 342.025 316.502C341.237 315.161 340.132 313.286 338.755 310.966C335.991 306.201 332.168 299.605 327.819 292.122V292.067V292.013C327.729 289.965 327.62 287.836 327.448 285.671C327.126 280.901 326.263 276.184 324.875 271.61C323.755 267.876 322.015 264.357 319.729 261.2C318.178 259.077 316.315 257.202 314.202 255.637C313.441 255.103 312.843 254.731 312.39 254.459C312.167 254.34 311.954 254.2 311.756 254.042C311.99 254.135 312.217 254.244 312.435 254.369C313.059 254.71 313.664 255.085 314.247 255.492C316.423 257.012 318.341 258.872 319.928 261.001C322.294 264.159 324.096 267.702 325.255 271.474C326.676 276.073 327.558 280.823 327.883 285.626C328.055 287.809 328.154 289.947 328.245 291.968V291.859C332.53 299.379 336.308 306.002 339.045 310.785C340.358 313.141 341.427 315.034 342.188 316.393L343.022 317.915C343.122 318.098 343.207 318.289 343.276 318.486Z" fill="#263238"/>
<path d="M343.674 279.257C343.084 277.313 342.764 275.298 342.723 273.268C342.637 271.841 342.637 270.41 342.723 268.983C342.716 268.385 342.798 267.789 342.968 267.216C343.103 267.216 342.968 269.934 343.203 273.241C343.439 276.548 343.81 279.229 343.674 279.257Z" fill="#263238"/>
<path d="M300.259 271.8C300.451 272.152 300.6 272.526 300.703 272.914C300.861 273.357 300.994 273.807 301.102 274.264C301.229 274.79 301.41 275.397 301.509 276.076C301.655 276.816 301.761 277.563 301.827 278.314C301.935 279.12 301.944 279.99 301.981 280.905C302.005 284.892 301.212 288.842 299.652 292.511C299.312 293.309 298.931 294.089 298.511 294.848C298.166 295.517 297.782 296.164 297.36 296.787C296.998 297.376 296.608 297.865 296.282 298.309C295.999 298.687 295.697 299.05 295.376 299.397C295.129 299.712 294.849 300 294.542 300.257C294.47 300.194 295.629 298.935 297.07 296.633C297.467 296.004 297.829 295.353 298.157 294.685C298.547 293.988 298.873 293.19 299.244 292.366C299.976 290.554 300.543 288.68 300.939 286.767C301.309 284.843 301.509 282.891 301.537 280.932C301.537 280.026 301.537 279.175 301.428 278.377C301.319 277.58 301.274 276.837 301.174 276.158C300.794 273.467 300.169 271.863 300.259 271.8Z" fill="#263238"/>
<path d="M281.306 181.581C280.54 178.855 279.233 176.312 277.461 174.104C275.69 171.895 273.491 170.067 270.996 168.729C268.502 167.391 265.763 166.57 262.943 166.315C260.124 166.061 257.282 166.378 254.588 167.248C243.716 170.663 237.636 182.278 240.354 193.223C242.746 202.808 245.365 212.403 246.787 215.691C251.081 225.603 258.565 227.007 261.464 227.161C262.453 227.112 263.434 226.957 264.391 226.699C264.41 226.696 264.429 226.7 264.446 226.71C264.462 226.72 264.475 226.735 264.481 226.754L267.018 239.139C269.138 247.057 276.15 251.959 284.169 249.875C292.187 247.791 295.747 239.519 293.772 231.537L281.306 181.581Z" fill="#FFBE9D"/>
<path d="M247.222 198.197C247.329 198.633 247.604 199.01 247.987 199.246C248.371 199.482 248.831 199.557 249.269 199.456C249.487 199.417 249.694 199.335 249.88 199.215C250.066 199.095 250.226 198.94 250.351 198.758C250.477 198.576 250.565 198.371 250.611 198.155C250.657 197.939 250.66 197.716 250.619 197.499C250.512 197.062 250.237 196.685 249.854 196.45C249.471 196.214 249.01 196.139 248.572 196.24C248.354 196.279 248.147 196.361 247.961 196.48C247.775 196.6 247.615 196.755 247.49 196.937C247.364 197.119 247.276 197.324 247.23 197.54C247.184 197.756 247.181 197.979 247.222 198.197Z" fill="#263238"/>
<path d="M243.815 194.944C244.078 195.107 245.111 193.848 246.923 193.377C248.735 192.906 250.284 193.458 250.42 193.195C250.556 192.933 250.175 192.733 249.514 192.471C248.593 192.131 247.589 192.086 246.642 192.344C245.701 192.586 244.861 193.118 244.241 193.866C243.77 194.437 243.716 194.881 243.815 194.944Z" fill="#263238"/>
<path d="M264.163 194.138C264.27 194.574 264.546 194.95 264.929 195.184C265.313 195.419 265.773 195.492 266.21 195.388C266.427 195.35 266.635 195.269 266.82 195.15C267.006 195.031 267.166 194.877 267.292 194.696C267.417 194.515 267.506 194.31 267.552 194.095C267.598 193.879 267.601 193.657 267.56 193.44C267.451 193.005 267.175 192.629 266.793 192.394C266.41 192.159 265.951 192.082 265.513 192.181C265.295 192.219 265.087 192.3 264.9 192.419C264.714 192.539 264.553 192.694 264.428 192.876C264.302 193.058 264.214 193.264 264.168 193.48C264.123 193.697 264.121 193.92 264.163 194.138Z" fill="#263238"/>
<path d="M261.663 190.65C261.926 190.813 262.968 189.544 264.771 189.082C266.574 188.62 268.132 189.164 268.277 188.892C268.341 188.774 268.033 188.439 267.371 188.167C266.448 187.836 265.446 187.795 264.499 188.049C263.557 188.294 262.715 188.826 262.089 189.572C261.627 190.133 261.537 190.577 261.663 190.65Z" fill="#263238"/>
<path d="M258.482 205.662C257.452 205.614 256.421 205.693 255.411 205.898C254.939 205.979 254.505 205.997 254.323 205.708C254.176 205.239 254.176 204.736 254.323 204.267C254.477 203.053 254.631 201.776 254.804 200.435C255.438 194.999 255.773 190.541 255.547 190.523C255.32 190.505 254.641 194.908 253.997 200.353C253.852 201.694 253.716 202.981 253.581 204.204C253.446 204.815 253.522 205.454 253.798 206.016C253.905 206.156 254.041 206.271 254.198 206.353C254.355 206.434 254.528 206.48 254.704 206.487C254.979 206.485 255.252 206.452 255.519 206.387C256.533 206.267 257.528 206.024 258.482 205.662Z" fill="#263238"/>
<path d="M264.463 226.681C264.463 226.681 271.584 225.431 278.959 217.957C278.959 217.957 278.524 227.814 265.106 230.015L264.463 226.681Z" fill="#EB996E"/>
<path d="M260.348 209.757C260.585 209.239 260.947 208.788 261.403 208.446C261.859 208.104 262.393 207.882 262.957 207.8C263.365 207.731 263.782 207.746 264.184 207.842C264.585 207.939 264.963 208.115 265.295 208.362C265.611 208.597 265.846 208.925 265.968 209.3C266.09 209.675 266.092 210.079 265.974 210.455C265.768 210.853 265.447 211.182 265.054 211.398C264.66 211.614 264.211 211.708 263.764 211.669C262.834 211.591 261.928 211.33 261.1 210.899C260.86 210.812 260.638 210.68 260.448 210.509C260.357 210.426 260.293 210.318 260.264 210.199C260.234 210.079 260.242 209.954 260.285 209.839" fill="#EB996E"/>
<path d="M264.117 205.499C263.819 205.553 264.308 207.501 262.985 209.322C261.662 211.143 259.515 211.469 259.569 211.741C259.569 211.868 260.131 211.995 261.019 211.796C262.172 211.507 263.19 210.829 263.9 209.875C264.576 208.965 264.872 207.828 264.725 206.704C264.552 205.87 264.253 205.454 264.117 205.499Z" fill="#263238"/>
<path d="M259.37 184.896C259.678 185.34 261.417 184.643 263.61 184.344C265.802 184.045 267.651 184.163 267.823 183.655C267.895 183.411 267.479 183.03 266.672 182.749C265.596 182.412 264.458 182.323 263.343 182.488C262.227 182.652 261.163 183.067 260.231 183.701C259.533 184.199 259.234 184.688 259.37 184.896Z" fill="#263238"/>
<path d="M242.728 189.961C243.145 190.287 244.286 189.535 245.772 189.128C247.258 188.72 248.608 188.684 248.798 188.176C248.87 187.941 248.562 187.578 247.892 187.343C247.027 187.077 246.104 187.071 245.235 187.326C244.367 187.58 243.593 188.084 243.009 188.774C242.601 189.354 242.528 189.798 242.728 189.961Z" fill="#263238"/>
<path d="M307.904 226.844C304.987 216.28 301.665 205.84 297.938 195.524C295.701 189.308 293.3 183.102 289.784 177.512C286.269 171.922 281.63 166.921 275.714 163.986C271.535 161.867 266.824 161.026 262.17 161.567C257.64 161.295 253.164 162.31 249.748 165.191C248.036 166.64 246.586 169.005 247.511 171.062C248.244 172.692 250.129 173.39 251.823 173.925L265.821 178.364L265.929 178.473L266.745 179.333C268.426 181.169 269.794 183.269 270.795 185.549C272.267 188.947 273.217 192.548 273.612 196.23C274.111 200.398 274.056 205.1 274.238 210.11C274.276 214.905 275.012 219.669 276.421 224.253C277.699 227.941 279.469 231.44 281.685 234.654C283.088 236.706 284.629 238.662 286.296 240.507C286.455 241.237 286.555 241.98 286.595 242.726C286.722 244.91 286.305 247.084 286.324 249.277C286.342 251.469 286.912 253.807 288.579 255.22C289.457 255.884 290.498 256.299 291.591 256.422C292.685 256.545 293.792 256.37 294.795 255.918C296.793 254.972 298.446 253.426 299.524 251.496C302.034 247.401 302.722 242.391 302.36 237.589C302.314 236.991 302.251 236.402 302.179 235.777C303.017 235.632 303.838 235.395 304.625 235.071C305.543 234.721 306.364 234.156 307.018 233.423C307.673 232.689 308.141 231.81 308.385 230.858C308.529 229.501 308.365 228.129 307.904 226.844ZM283.234 233.675C281.323 230.477 279.788 227.069 278.659 223.519C277.45 219.12 276.822 214.582 276.792 210.02C276.675 206.885 276.629 203.805 276.439 200.851C276.693 202.056 276.919 203.27 277.137 204.475C278.804 213.789 279.773 223.338 283.243 232.135C283.859 233.693 284.557 235.252 285.164 236.819C284.557 235.877 283.914 234.835 283.234 233.675Z" fill="#263238"/>
<path d="M290.456 178.337L290.039 178.274L288.825 178.156C288.29 178.102 287.647 178.038 286.904 177.948C286.161 177.857 285.301 177.775 284.367 177.631C282.483 177.386 280.254 177.014 277.799 176.534C275.344 176.054 272.662 175.402 269.871 174.623C267.081 173.843 264.435 172.956 262.116 172.104C259.797 171.252 257.677 170.373 255.937 169.603C255.031 169.232 254.288 168.86 253.609 168.543C252.929 168.226 252.331 167.954 251.86 167.719L250.755 167.184L250.365 167.012C250.478 167.097 250.6 167.17 250.728 167.23L251.815 167.809C252.286 168.054 252.866 168.353 253.545 168.715C254.225 169.078 254.995 169.431 255.865 169.812C257.595 170.609 259.688 171.479 262.035 172.367C264.381 173.255 267.018 174.115 269.808 174.913C272.598 175.71 275.289 176.317 277.754 176.806C280.218 177.295 282.456 177.621 284.34 177.848C285.246 177.984 286.152 178.056 286.886 178.129C287.62 178.201 288.281 178.256 288.816 178.292L290.03 178.364C290.172 178.369 290.315 178.36 290.456 178.337Z" fill="#455A64"/>
<path d="M290.954 180.149C290.809 180.135 290.663 180.135 290.519 180.149L289.277 180.231L288.371 180.294H287.302C286.541 180.294 285.662 180.367 284.702 180.339H283.18C282.655 180.339 282.111 180.285 281.54 180.258C280.408 180.258 279.203 180.077 277.916 179.959C272.401 179.336 266.994 177.983 261.835 175.936C260.657 175.438 259.533 174.985 258.51 174.487C257.993 174.242 257.486 174.025 257.024 173.78L255.674 173.073C254.768 172.647 254.061 172.167 253.391 171.805L252.485 171.27L251.724 170.79L250.664 170.129C250.544 170.047 250.417 169.977 250.283 169.92L250.637 170.174L251.669 170.872L252.421 171.379L253.327 171.932C253.989 172.321 254.732 172.838 255.592 173.245L256.942 173.961C257.404 174.206 257.912 174.432 258.428 174.686C259.443 175.193 260.575 175.655 261.762 176.154C266.926 178.249 272.357 179.615 277.898 180.213C279.176 180.33 280.381 180.466 281.522 180.493C282.093 180.493 282.646 180.557 283.171 180.557H284.693C285.663 180.557 286.505 180.557 287.302 180.484L288.371 180.421L289.277 180.339L290.519 180.213L290.954 180.149Z" fill="white"/>
<path d="M297.712 246.106C297.712 246.106 297.712 246.052 297.712 245.934V245.417C297.712 244.974 297.649 244.312 297.549 243.46C297.293 241.055 296.905 238.666 296.389 236.303C295.755 233.313 294.804 229.789 293.581 225.929C292.358 222.07 290.917 217.875 289.422 213.454L281.703 190.804C280.706 187.932 279.891 185.594 279.338 183.963L278.686 182.106L278.505 181.626C278.487 181.57 278.466 181.516 278.441 181.463C278.441 181.463 278.441 181.526 278.487 181.635L278.632 182.124L279.248 184L281.531 190.867C283.488 196.675 286.188 204.675 289.178 213.517C290.663 217.938 292.131 222.133 293.354 225.984C294.577 229.834 295.556 233.34 296.208 236.33C296.744 238.681 297.158 241.058 297.449 243.451C297.558 244.294 297.612 244.964 297.658 245.408L297.712 245.916V246.106Z" fill="#455A64"/>
<path d="M285.435 220.158C285.431 220.018 285.415 219.879 285.39 219.741C285.345 219.442 285.281 219.043 285.209 218.536C285.046 217.494 284.792 215.99 284.457 214.133C283.795 210.427 282.79 205.318 281.494 199.709C280.199 194.101 278.867 189.064 277.87 185.44C277.354 183.628 276.964 182.16 276.611 181.155L276.248 179.995C276.213 179.857 276.165 179.724 276.104 179.596C276.126 179.737 276.16 179.877 276.203 180.013C276.276 180.303 276.384 180.692 276.511 181.182C276.801 182.224 277.2 183.682 277.689 185.485C278.677 189.109 279.981 194.165 281.313 199.764C282.645 205.363 283.641 210.473 284.348 214.169C284.692 215.981 284.973 217.494 285.182 218.554C285.272 219.052 285.354 219.46 285.408 219.75C285.404 219.887 285.413 220.023 285.435 220.158Z" fill="#455A64"/>
<path d="M365.789 234.999C366.58 232.55 367.117 230.028 367.393 227.47C367.891 223.076 367.9 222.849 366.931 220.91C365.961 218.971 364.213 218.192 363.433 217.232C362.654 216.271 365.671 215.094 368.308 216.897C370.944 218.7 372.992 222.115 373.544 222.931C376.335 227.017 378.754 227.125 378.754 227.125L389.327 224.407C389.327 224.407 391.529 221.209 393.476 221.635L394.328 221.789L394.672 221.59C394.871 221.472 395.097 221.407 395.328 221.401C395.56 221.394 395.789 221.447 395.994 221.554C396.199 221.662 396.373 221.819 396.5 222.012C396.627 222.206 396.703 222.428 396.72 222.659C396.72 222.975 396.642 223.286 396.493 223.565C395.741 225.087 389.001 231.066 388.657 232.679C388.312 234.292 388.657 236.847 385.694 239.692C382.731 242.536 379.216 243.633 375.538 244.095L374.967 245.644L363.669 239.365L365.789 234.999Z" fill="#FFBE9D"/>
<path d="M386.691 235.995C386.69 235.66 386.727 235.325 386.8 234.998C386.927 234.255 387.081 233.349 387.271 232.28C387.461 231.211 387.742 229.753 388.023 228.276C388.264 227.562 388.264 226.788 388.023 226.074C387.948 225.912 387.837 225.77 387.699 225.657C387.561 225.544 387.399 225.464 387.226 225.422C387.042 225.402 386.856 225.42 386.679 225.476C386.503 225.532 386.34 225.625 386.202 225.748C385.486 226.337 385.296 227.406 385.006 228.303C384.716 229.2 384.444 230.115 384.191 230.921C383.674 232.516 383.221 233.929 382.841 235.089V235.179H382.75C382.112 235.244 381.505 235.483 380.992 235.868C380.63 236.14 380.476 236.339 380.449 236.321C380.422 236.303 380.549 236.076 380.893 235.75C381.395 235.277 382.025 234.962 382.705 234.844L382.578 234.953C382.922 233.775 383.33 232.353 383.792 230.749C384.046 229.916 384.308 229.037 384.58 228.113C384.725 227.651 384.852 227.207 385.024 226.69C385.199 226.162 385.512 225.69 385.93 225.322C386.123 225.158 386.349 225.035 386.593 224.964C386.836 224.892 387.092 224.872 387.344 224.905C387.586 224.962 387.812 225.073 388.005 225.23C388.198 225.387 388.353 225.586 388.458 225.811C388.762 226.614 388.785 227.495 388.521 228.312C388.204 229.789 387.914 231.13 387.67 232.298C387.425 233.467 387.217 234.246 387.054 235.016C386.98 235.358 386.858 235.688 386.691 235.995Z" fill="#EB996E"/>
<path d="M394.619 221.871C393.798 223.701 392.835 225.464 391.738 227.144C390.778 228.908 389.679 230.592 388.449 232.181C389.27 230.351 390.234 228.588 391.33 226.908C392.293 225.145 393.392 223.461 394.619 221.871Z" fill="#EB996E"/>
<path d="M388.195 227.017C388.134 226.173 388.375 225.335 388.874 224.652C389.59 223.456 390.55 222.84 390.623 222.931C390.695 223.021 389.943 223.782 389.282 224.897C388.621 226.011 388.331 227.044 388.195 227.017Z" fill="#EB996E"/>
<path d="M374.233 224.606C374.744 224.975 375.168 225.451 375.474 226.002C376.315 227.282 376.842 228.742 377.014 230.264C377.185 231.786 376.996 233.327 376.462 234.763C376.28 235.368 375.971 235.927 375.556 236.403C375.483 236.403 375.818 235.741 376.136 234.654C376.562 233.25 376.698 231.774 376.535 230.316C376.371 228.858 375.912 227.448 375.184 226.174C374.632 225.195 374.179 224.688 374.233 224.606Z" fill="#EB996E"/>
<path d="M381.527 233.25C381.391 233.25 381.255 231.864 380.503 230.351C379.751 228.838 378.745 227.859 378.845 227.75C379.744 228.345 380.469 229.167 380.947 230.133C381.425 231.099 381.637 232.175 381.563 233.25H381.527Z" fill="#EB996E"/>
<path d="M384.281 228.684C383.749 229.111 383.131 229.42 382.469 229.59C381.854 229.891 381.179 230.052 380.494 230.061C380.494 229.934 381.264 229.526 382.306 229.155C382.918 228.843 383.595 228.682 384.281 228.684Z" fill="#EB996E"/>
<path d="M354.664 381.027L378.537 387.858C378.537 387.858 377.903 413.833 382.161 415.528L398.786 370.291L362.021 358.124L354.664 381.027Z" fill="#455A64"/>
<g opacity="0.6">
<path d="M381.164 373.045C381.442 372.649 381.856 372.368 382.328 372.258C382.799 372.147 383.295 372.215 383.719 372.447C384.127 372.709 384.419 373.117 384.534 373.588C384.648 374.059 384.577 374.555 384.335 374.975C384.04 375.397 383.598 375.694 383.095 375.807C382.593 375.921 382.066 375.844 381.617 375.591C381.214 375.275 380.952 374.813 380.885 374.304C380.819 373.796 380.955 373.282 381.264 372.873" fill="white"/>
</g>
<g opacity="0.6">
<path d="M398.813 370.291L395.107 369.068L380.611 413.308C380.68 413.859 380.887 414.383 381.211 414.832C381.536 415.282 381.968 415.643 382.469 415.881L398.813 370.291Z" fill="white"/>
</g>
<path d="M378.065 388.52C378.292 388.593 378.754 387.505 379.832 386.636C380.91 385.766 382.043 385.494 382.016 385.259C381.988 385.023 380.593 384.932 379.298 386.002C378.002 387.071 377.803 388.502 378.065 388.52Z" fill="#263238"/>
<path d="M378.483 393.974C378.691 394.101 379.389 393.258 380.576 392.805C381.762 392.352 382.841 392.452 382.904 392.234C382.967 392.017 381.744 391.446 380.277 392.044C378.809 392.642 378.274 393.902 378.483 393.974Z" fill="#263238"/>
<path d="M383.348 398.577C383.466 398.395 382.442 397.716 381.037 397.888C379.633 398.06 378.791 398.957 378.954 399.111C379.117 399.265 379.968 398.83 381.137 398.703C382.306 398.577 383.239 398.794 383.348 398.577Z" fill="#263238"/>
<path d="M372.793 386.364C373.028 386.364 373.056 385.213 373.554 383.972C374.052 382.731 374.768 381.879 374.614 381.698C374.46 381.517 373.355 382.205 372.802 383.673C372.249 385.141 372.585 386.418 372.793 386.364Z" fill="#263238"/>
<path d="M330.374 376.461L307.86 386.944C307.86 386.944 312.553 412.502 308.575 414.848L285.092 372.765L319.52 354.998L330.374 376.461Z" fill="#455A64"/>
<g opacity="0.6">
<path d="M302.949 372.72C302.612 372.371 302.159 372.158 301.676 372.123C301.193 372.088 300.713 372.233 300.33 372.529C299.971 372.853 299.75 373.302 299.711 373.783C299.672 374.265 299.819 374.744 300.122 375.12C300.476 375.493 300.958 375.719 301.471 375.755C301.984 375.79 302.492 375.631 302.894 375.311C303.238 374.936 303.421 374.443 303.406 373.935C303.391 373.427 303.178 372.946 302.813 372.593" fill="white"/>
</g>
<g opacity="0.6">
<path d="M285.092 372.765L288.562 370.953L309.853 412.402C309.867 412.955 309.744 413.503 309.494 413.996C309.244 414.49 308.876 414.913 308.421 415.229L285.092 372.765Z" fill="white"/>
</g>
<path d="M308.439 387.532C308.221 387.632 307.596 386.626 306.391 385.938C305.186 385.249 304.027 385.15 304.018 384.914C304.009 384.679 305.368 384.38 306.808 385.24C308.249 386.101 308.647 387.478 308.439 387.532Z" fill="#263238"/>
<path d="M308.865 392.977C308.693 393.131 307.869 392.407 306.618 392.144C305.368 391.881 304.326 392.144 304.236 391.944C304.145 391.745 305.25 390.993 306.8 391.347C308.349 391.7 309.065 392.878 308.865 392.977Z" fill="#263238"/>
<path d="M304.789 398.287C304.644 398.114 305.541 397.29 306.963 397.245C308.386 397.199 309.346 397.942 309.21 398.151C309.074 398.359 308.159 398.033 306.99 398.087C305.822 398.142 304.916 398.486 304.789 398.287Z" fill="#263238"/>
<path d="M313.304 384.57C313.069 384.57 312.86 383.474 312.181 382.323C311.501 381.172 310.649 380.448 310.776 380.248C310.903 380.049 312.099 380.556 312.887 381.915C313.676 383.274 313.522 384.588 313.304 384.57Z" fill="#263238"/>
<path d="M349.345 325.997C349.345 325.997 383.9 317.191 392.615 319.039C401.331 320.887 412.149 322.228 413.734 328.688C415.32 335.148 414.794 345.712 408.452 351.519C402.11 357.327 324.756 382.142 324.756 382.142L317.1 361.304L297.521 325.689C314.591 326.541 333.408 328.072 349.345 325.997Z" fill="#263238"/>
<path d="M322.537 362.337C322.738 362.223 322.951 362.132 323.171 362.065L324.983 361.385C326.587 360.787 328.888 359.881 331.688 358.667C338.963 355.452 345.878 351.477 352.317 346.808C356.077 344.09 359.565 341.263 362.863 338.926C365.769 336.808 368.88 334.987 372.15 333.49C374.366 332.495 376.707 331.804 379.108 331.433C379.758 331.325 380.415 331.255 381.074 331.225C381.3 331.203 381.527 331.203 381.753 331.225C381.753 331.279 380.847 331.333 379.135 331.632C376.77 332.071 374.469 332.805 372.286 333.816C369.053 335.336 365.979 337.172 363.108 339.297C359.828 341.634 356.367 344.434 352.598 347.197C346.135 351.892 339.163 355.843 331.815 358.975C328.997 360.171 326.668 361.032 325.047 361.576C324.24 361.856 323.606 362.038 323.171 362.173C322.964 362.244 322.752 362.298 322.537 362.337Z" fill="#455A64"/>
<path d="M285.156 323.686C285.156 323.686 274.673 326.966 271.865 341.48C269.056 355.994 276.612 372.375 278.506 374.749C280.399 377.122 317.101 378.708 317.101 378.708L368.589 386.626C368.589 386.626 374.261 382.142 375.393 372.429C376.299 365.064 375.457 362.862 375.457 362.862L320.191 336.47C320.191 336.47 294.379 321.865 285.156 323.686Z" fill="#263238"/>
<path d="M297.522 325.671C297.654 325.719 297.784 325.773 297.912 325.834L299.071 326.359L303.502 328.434L319.945 336.208L375.556 362.663L375.664 362.717V362.835C376.103 365.723 376.17 368.655 375.864 371.56C375.535 374.562 374.702 377.487 373.399 380.212C372.812 381.459 372.118 382.654 371.325 383.782C370.577 384.898 369.712 385.931 368.743 386.862L368.661 386.926H368.552L331.316 381.172C328.471 380.729 325.699 380.266 322.999 379.922C320.392 379.472 317.814 378.866 315.28 378.11C310.754 376.729 306.356 374.962 302.133 372.828C298.662 371.081 295.306 369.114 292.086 366.939C290.7 365.943 289.368 365.046 288.244 364.122C287.121 363.197 286.061 362.373 285.155 361.585C284.249 360.797 283.479 360.054 282.808 359.428C282.138 358.803 281.594 358.233 281.169 357.77C280.743 357.308 280.417 356.973 280.19 356.72C279.964 356.466 279.873 356.357 279.873 356.357L280.226 356.692L281.232 357.707C281.667 358.16 282.211 358.713 282.899 359.329C283.588 359.945 284.34 360.697 285.273 361.449C286.206 362.201 287.203 363.08 288.38 363.949C289.558 364.819 290.836 365.761 292.231 366.731C295.457 368.875 298.813 370.817 302.278 372.547C306.494 374.648 310.879 376.388 315.388 377.748C317.908 378.503 320.471 379.108 323.062 379.56C325.78 379.913 328.498 380.357 331.37 380.783L368.625 386.491L368.435 386.545C370.324 384.688 371.859 382.502 372.965 380.094C374.243 377.417 375.063 374.544 375.393 371.596C375.69 368.733 375.623 365.844 375.193 362.998L375.32 363.17L319.819 336.479L303.438 328.579L299.044 326.441L297.902 325.87C297.64 325.743 297.522 325.671 297.522 325.671Z" fill="#455A64"/>
<path d="M278.016 375.166C277.91 375.027 277.822 374.874 277.754 374.713C277.6 374.405 277.373 373.943 277.101 373.354C276.549 372.167 275.779 370.427 274.945 368.235C272.69 362.533 271.383 356.501 271.076 350.378C270.929 346.999 271.218 343.616 271.937 340.312C272.269 338.875 272.705 337.464 273.242 336.09C273.728 334.898 274.303 333.744 274.963 332.638C275.914 331.041 277.051 329.563 278.352 328.235C278.805 327.764 279.203 327.438 279.457 327.202C279.581 327.076 279.721 326.967 279.874 326.876C279.874 326.876 279.375 327.411 278.488 328.362C276.397 330.668 274.745 333.336 273.613 336.235C273.095 337.595 272.677 338.991 272.363 340.412C271.676 343.687 271.402 347.035 271.548 350.378C271.861 356.453 273.114 362.443 275.262 368.135C276.05 370.337 276.766 372.085 277.264 373.299L277.844 374.686C277.92 374.839 277.977 375 278.016 375.166Z" fill="#455A64"/>
<path d="M227.942 231.284C225.858 224.38 222.578 217.794 221.509 210.654L214.959 211.56C210.431 212.783 206.525 215.657 204.009 219.616C201.494 223.575 200.552 228.332 201.369 232.951C202.094 237.064 204.168 240.833 205.156 244.901C206.143 248.969 205.708 253.871 202.438 256.434C204.008 256.521 205.558 256.049 206.814 255.103C206.974 256.64 206.554 258.181 205.636 259.424C208.534 259.834 211.483 259.17 213.926 257.558C213.952 258.118 213.847 258.676 213.621 259.188C213.394 259.7 213.052 260.154 212.621 260.511C215.549 260.473 218.42 259.697 220.968 258.254C223.517 256.811 225.659 254.749 227.199 252.258C230.805 246.079 230.026 238.188 227.942 231.284Z" fill="#263238"/>
<path d="M207.982 230.432C206.949 223.429 212.929 214.949 219.968 214.215L236.765 214.768C237.897 214.807 238.995 215.155 239.942 215.775C240.89 216.395 241.649 217.262 242.138 218.283L250.247 264.643C250.247 264.643 253.563 279.048 240.852 280.86C229.436 282.491 227.524 270.459 227.524 270.459L226.02 261.707C226.02 261.707 216.852 263.275 212.575 252.14C210.446 246.595 209.132 238.215 207.982 230.432Z" fill="#FFBE9D"/>
<path d="M214.794 238.695C214.873 239.08 215.099 239.419 215.424 239.64C215.748 239.862 216.147 239.948 216.534 239.882C216.725 239.856 216.909 239.793 217.076 239.695C217.242 239.598 217.387 239.468 217.503 239.313C217.618 239.159 217.702 238.983 217.749 238.796C217.796 238.609 217.804 238.414 217.775 238.224C217.696 237.839 217.47 237.499 217.146 237.278C216.821 237.056 216.423 236.97 216.036 237.037C215.844 237.062 215.66 237.126 215.494 237.223C215.327 237.321 215.182 237.45 215.067 237.605C214.951 237.759 214.867 237.935 214.821 238.122C214.774 238.309 214.765 238.504 214.794 238.695Z" fill="#263238"/>
<path d="M211.316 236.131C211.543 236.285 212.485 235.225 214.034 234.881C215.584 234.536 216.961 235.098 217.097 234.881C217.233 234.663 216.897 234.473 216.308 234.21C215.522 233.877 214.651 233.798 213.817 233.984C212.989 234.159 212.238 234.59 211.67 235.216C211.298 235.678 211.208 236.058 211.316 236.131Z" fill="#263238"/>
<path d="M228.204 235.832C228.281 236.218 228.507 236.559 228.832 236.781C229.157 237.003 229.556 237.088 229.944 237.019C230.135 236.995 230.319 236.932 230.485 236.836C230.651 236.739 230.797 236.61 230.912 236.456C231.028 236.303 231.112 236.127 231.159 235.941C231.206 235.754 231.215 235.56 231.185 235.37C231.108 234.983 230.883 234.642 230.558 234.419C230.234 234.195 229.834 234.107 229.446 234.174C229.254 234.2 229.07 234.263 228.904 234.361C228.738 234.458 228.592 234.588 228.477 234.742C228.361 234.897 228.277 235.073 228.231 235.26C228.184 235.447 228.175 235.641 228.204 235.832Z" fill="#263238"/>
<path d="M225.994 233.268C226.221 233.422 227.163 232.362 228.757 232.027C230.352 231.692 231.675 232.235 231.811 232.027C231.946 231.818 231.62 231.61 231.031 231.347C230.24 231.019 229.368 230.94 228.531 231.121C227.706 231.296 226.958 231.727 226.393 232.353C225.985 232.842 225.885 233.205 225.994 233.268Z" fill="#263238"/>
<path d="M223.666 245.825C222.757 245.777 221.846 245.826 220.948 245.97C220.54 246.015 220.141 246.024 220.042 245.807C219.931 245.453 219.947 245.072 220.087 244.729C220.286 243.823 220.495 242.871 220.712 241.866C221.231 239.423 221.627 236.955 221.899 234.473C221.709 234.473 220.875 237.734 220.023 241.802L219.453 244.665C219.372 244.892 219.338 245.132 219.353 245.372C219.369 245.612 219.434 245.846 219.543 246.06C219.638 246.175 219.757 246.267 219.892 246.33C220.027 246.393 220.174 246.424 220.322 246.423C220.559 246.43 220.796 246.412 221.029 246.368C221.925 246.286 222.81 246.104 223.666 245.825Z" fill="#263238"/>
<path d="M225.967 261.78C231.407 260.708 236.444 258.149 240.517 254.387C240.517 254.387 238.279 263.266 226.501 264.643L225.967 261.78Z" fill="#EB996E"/>
<path d="M228.467 244.955C228.204 245.001 228.567 246.722 227.353 248.262C226.139 249.803 224.254 250.002 224.3 250.246C224.345 250.491 224.78 250.5 225.559 250.355C226.572 250.152 227.482 249.601 228.132 248.797C228.741 248.028 229.035 247.057 228.956 246.079C228.866 245.309 228.585 244.928 228.467 244.955Z" fill="#263238"/>
<path d="M225.396 227.85C225.686 228.303 226.972 227.65 228.657 227.406C230.342 227.161 231.81 227.351 231.883 226.844C231.883 226.599 231.547 226.21 230.877 225.938C230.052 225.564 229.136 225.438 228.24 225.576C227.372 225.705 226.564 226.101 225.93 226.708C225.441 227.161 225.269 227.632 225.396 227.85Z" fill="#263238"/>
<path d="M210.102 230.677C210.455 231.066 211.56 230.459 212.955 230.251C214.351 230.042 215.583 230.187 215.8 229.698C215.882 229.454 215.637 229.046 215.066 228.711C214.321 228.316 213.466 228.179 212.635 228.322C211.804 228.464 211.044 228.878 210.473 229.499C210.047 230.015 209.938 230.486 210.102 230.677Z" fill="#263238"/>
<path d="M213.962 212.004C211.244 219.207 218.202 220.62 221.971 222.74C225.74 224.86 229.935 226.056 234.121 227.162C235.109 227.229 236.045 227.632 236.774 228.305C237.502 228.977 237.979 229.878 238.125 230.858C238.898 233.346 239.671 235.835 240.444 238.323C241.07 240.076 241.46 241.904 241.604 243.759C241.676 244.682 241.564 245.61 241.277 246.49C240.989 247.37 240.531 248.185 239.928 248.887C240.462 248.829 240.978 248.662 241.446 248.397C241.913 248.133 242.322 247.775 242.646 247.347C242.79 250.055 242.205 252.752 240.952 255.157C242.639 255.115 244.282 254.603 245.694 253.677C247.106 252.752 248.231 251.451 248.943 249.92C249.17 251.145 249.869 252.232 250.891 252.946C251.307 253.309 252.078 253.535 251.887 253.019C251.522 251.827 251.22 250.618 250.981 249.395C252.648 250.074 253.074 250.6 256.608 249.513C254.969 248.424 253.768 246.79 253.219 244.901C253.219 244.901 254.179 246.858 257.233 245.898C254.776 243.77 253.251 240.765 252.984 237.526C252.73 232.996 252.902 227.56 251.969 223.085C251.145 218.546 248.799 214.424 245.319 211.397C242.308 209.12 238.771 207.64 235.036 207.094C231.069 206.41 227.015 206.41 223.049 207.094C220.549 207.51 215.095 208.407 213.926 212.031" fill="#263238"/>
<path d="M240.997 255.084C241.867 254.934 242.726 254.731 243.57 254.477C244.552 254.153 245.472 253.662 246.288 253.028C247.395 252.188 248.266 251.077 248.816 249.802L248.988 249.376L249.097 249.82C249.257 250.549 249.566 251.237 250.003 251.841C250.468 252.506 251.179 252.959 251.978 253.1L251.788 253.317C251.48 252.067 251.154 250.744 250.809 249.376L250.701 248.923L251.099 249.159C251.932 249.608 252.86 249.85 253.806 249.866C254.752 249.881 255.688 249.67 256.535 249.25V249.612C254.837 248.511 253.597 246.83 253.047 244.883L252.721 243.741L253.437 244.692C253.879 245.227 254.483 245.604 255.157 245.767C255.831 245.93 256.541 245.871 257.178 245.598L257.124 245.988C254.714 244.085 253.4 241.005 252.866 237.897C252.478 234.933 252.348 231.942 252.476 228.955C252.58 226.2 252.237 223.447 251.462 220.801C250.049 216.314 247.105 212.466 243.145 209.929C240.469 208.253 237.443 207.214 234.302 206.894C233.45 206.813 232.594 206.777 231.738 206.785H231.068H230.832C231.987 206.618 233.158 206.59 234.32 206.704C238.307 207.018 242.109 208.518 245.236 211.011C248.364 213.504 250.674 216.876 251.869 220.692C252.664 223.375 253.022 226.168 252.929 228.964C252.808 231.926 252.938 234.894 253.319 237.834C253.844 240.878 255.131 243.832 257.405 245.644L257.704 245.879L257.36 246.033C256.627 246.352 255.81 246.42 255.035 246.227C254.26 246.034 253.571 245.59 253.074 244.964L253.464 244.765C253.98 246.621 255.148 248.229 256.753 249.295L257.07 249.503L256.735 249.657C255.824 250.103 254.82 250.325 253.806 250.302C252.793 250.28 251.799 250.016 250.909 249.53L251.19 249.313L252.141 253.263L252.205 253.517H251.96C251.516 253.444 251.091 253.281 250.711 253.04C250.332 252.799 250.004 252.483 249.749 252.112C249.288 251.466 248.965 250.732 248.798 249.956H249.088C248.51 251.281 247.587 252.426 246.415 253.272C245.559 253.91 244.596 254.389 243.57 254.686C242.939 254.885 242.29 255.022 241.632 255.093C241.42 255.11 241.208 255.106 240.997 255.084Z" fill="#455A64"/>
<path d="M249.24 241.902C249.215 241.728 249.215 241.551 249.24 241.377C249.24 240.978 249.295 240.471 249.331 239.864C249.454 238.023 249.454 236.177 249.331 234.337C249.191 231.614 248.464 228.953 247.202 226.536C246.443 225.13 245.422 223.881 244.194 222.858C242.856 221.786 241.341 220.955 239.718 220.403C236.518 219.424 233.211 218.837 229.87 218.654C227.116 218.471 224.385 218.025 221.716 217.322C219.913 216.831 218.209 216.031 216.679 214.958C216.271 214.654 215.884 214.324 215.519 213.97C215.274 213.726 215.148 213.599 215.166 213.581C215.184 213.562 215.709 214.07 216.788 214.804C218.329 215.804 220.025 216.545 221.807 216.996C224.464 217.651 227.175 218.063 229.906 218.228C233.288 218.384 236.636 218.965 239.872 219.959C241.55 220.529 243.114 221.391 244.493 222.505C245.76 223.568 246.809 224.866 247.582 226.328C248.854 228.807 249.565 231.535 249.666 234.319C249.748 236.175 249.687 238.035 249.485 239.882C249.422 240.534 249.358 241.041 249.304 241.386C249.308 241.56 249.286 241.734 249.24 241.902Z" fill="#455A64"/>
<path d="M203.208 304.706L202.592 311.954C207.962 312.146 213.204 313.651 217.858 316.339L217.441 304.706H203.208Z" fill="#FFBE9D"/>
<path d="M212.548 353.82C212.548 353.82 205.364 373.752 210.963 383.492C216.562 393.231 218.564 394.708 225.667 394.291C232.77 393.874 237.554 388.474 239.004 386.4C240.453 384.325 243.534 355.659 243.534 355.659L242.283 328.751L220.902 329.702L212.548 353.82Z" fill="#263238"/>
<path d="M271.62 327.012C271.62 327.012 274.139 341.979 273.931 355.098C273.722 368.217 269.002 384.244 263.965 390.803C261.546 393.92 255.276 394.762 250.882 394.427C246.805 394.083 242.882 390.803 242.674 384.543C242.465 378.282 243.661 353.866 243.58 354.282C243.498 354.699 237.809 336.045 237.809 336.045L241.297 328.797L271.62 327.012Z" fill="#263238"/>
<path d="M244.621 349.372C244.599 351.322 244.42 353.267 244.086 355.188C243.905 357.132 243.572 359.059 243.09 360.95C243.107 359 243.285 357.054 243.624 355.134C243.8 353.189 244.133 351.262 244.621 349.372Z" fill="#455A64"/>
<path d="M210.963 383.492C210.853 383.386 210.755 383.268 210.673 383.138C210.406 382.79 210.184 382.41 210.012 382.006C209.39 380.512 209.013 378.927 208.898 377.313C208.49 373.236 208.997 367.582 210.284 361.521C211.365 356.339 212.88 351.256 214.814 346.328C215.575 344.443 216.254 342.948 216.743 341.924C216.997 341.405 217.196 341.015 217.341 340.756C217.477 340.493 217.559 340.357 217.577 340.366C217.549 340.518 217.497 340.665 217.423 340.801L216.916 341.997C216.472 343.039 215.837 344.552 215.104 346.445C213.253 351.386 211.775 356.459 210.682 361.621C209.405 367.655 208.87 373.254 209.169 377.277C209.25 378.868 209.571 380.438 210.121 381.933C210.601 382.975 211.009 383.456 210.963 383.492Z" fill="#455A64"/>
<g opacity="0.3">
<path d="M217.958 339.65L217.668 340.837C229.392 346.853 243.353 347.705 256.218 344.833C262.08 343.528 268.123 341.209 271.72 336.416C253.919 338.969 235.937 340.051 217.958 339.65Z" fill="black"/>
</g>
<path d="M221.292 265.576C221.292 265.576 210.42 267.016 207.005 283.016C203.788 298.146 202.475 304.706 202.475 304.706H222.878L221.292 265.576Z" fill="#FF6D38"/>
<path d="M249.242 257.685C249.242 257.685 263.974 254.677 272.055 263.238C278.723 270.314 284.268 281.893 284.268 281.893L267.96 290.201L249.242 257.685Z" fill="#FF6D38"/>
<path d="M221.292 265.576L226.194 264.054C226.194 264.054 232.961 266.944 239.068 265.204C246.696 263.021 249.034 257.675 249.034 257.675L261.346 258.427L269.31 296.733L273.94 336.343C253.836 343.473 234.502 346.518 216.952 340.13L218.502 334.894L216.943 289.92L221.292 265.576Z" fill="#FF6D38"/>
<path d="M218.283 328.751C218.241 328.585 218.22 328.415 218.22 328.244L218.12 326.794C218.057 325.462 217.975 323.65 217.866 321.44C217.758 319.229 217.658 316.466 217.54 313.494C217.486 311.999 217.422 310.432 217.368 308.801C217.314 307.17 217.268 305.494 217.105 303.782C216.44 297.932 215.478 292.12 214.224 286.368C213.798 284.14 213.49 282.337 213.318 281.086C213.237 280.497 213.164 280.026 213.11 279.646C213.078 279.476 213.063 279.303 213.065 279.129C213.131 279.289 213.176 279.457 213.2 279.628C213.282 279.999 213.382 280.479 213.499 281.05L214.596 286.296C215.941 292.048 216.945 297.875 217.604 303.745C217.776 305.467 217.812 307.161 217.866 308.783C217.921 310.405 217.966 311.981 218.011 313.476C218.093 316.457 218.165 319.138 218.238 321.421C218.31 323.705 218.319 325.453 218.347 326.785V328.244C218.349 328.415 218.328 328.586 218.283 328.751Z" fill="#263238"/>
<path d="M260.277 322.536C259.897 322.788 259.497 323.009 259.081 323.198C258.302 323.605 257.142 324.149 255.711 324.792C251.95 326.428 248.096 327.841 244.168 329.023C240.241 330.21 236.256 331.193 232.227 331.968C230.687 332.276 229.428 332.475 228.603 332.602C228.155 332.689 227.7 332.74 227.244 332.756C227.672 332.598 228.115 332.486 228.567 332.421L232.191 331.641C235.253 330.971 239.439 329.956 244.05 328.57C248.662 327.184 252.703 325.671 255.602 324.484C257.052 323.886 258.229 323.388 259.027 323.034C259.427 322.829 259.845 322.662 260.277 322.536Z" fill="#263238"/>
<g opacity="0.3">
<path d="M213.726 283.016L213.5 283.433C212.533 286.423 212.345 289.61 212.952 292.693C213.559 295.777 214.942 298.654 216.97 301.055C216.375 294.964 215.29 288.932 213.726 283.016Z" fill="black"/>
</g>
<path d="M257.594 319.103C256.873 319.699 256.096 320.224 255.275 320.67C253.34 321.815 251.337 322.841 249.277 323.741C247.213 324.639 245.094 325.408 242.935 326.043C242.053 326.345 241.142 326.555 240.217 326.668C241.072 326.309 241.95 326.006 242.844 325.762C244.466 325.2 246.695 324.385 249.096 323.343C251.496 322.301 253.626 321.223 255.12 320.407C255.913 319.915 256.74 319.479 257.594 319.103Z" fill="#263238"/>
<path d="M281.84 278.894C281.84 278.894 284.558 285.716 286.678 291.578C288.961 297.811 293.237 311.673 284.177 314.953C277.292 317.435 273.867 309.58 273.867 309.58L268.322 290.083L273.441 287.365L271.801 282.536L281.84 278.894Z" fill="#FFBE9D"/>
<path d="M272.633 284.792C272.633 284.792 268.647 280.679 268.103 279.229L266.02 270.414C266.02 270.414 266.772 269.182 268.185 270.414C268.848 271.083 269.418 271.839 269.879 272.661L271.039 275.125L271.582 273.549L270.676 267.506C270.676 267.506 269.915 263.175 270.867 263.347C271.818 263.519 272.534 264.616 272.869 266.491L273.612 270.731C273.612 270.731 273.793 271.447 274.128 270.033C274.463 268.62 273.313 263.465 273.358 262.704C273.403 261.943 272.796 260.167 274.074 259.868C275.351 259.569 275.551 262.015 275.551 262.015L277.363 269.599C277.363 269.599 277.363 266.337 277.363 265.766C277.363 265.195 277.073 263.51 277.127 262.514C277.181 261.517 277.625 260.874 278.196 260.756C278.439 260.661 278.708 260.66 278.952 260.754C279.195 260.848 279.394 261.03 279.51 261.263L280.235 268.013C280.266 269.114 280.363 270.212 280.525 271.302C280.661 271.456 281.431 269.698 281.431 269.698L281.585 267.388C281.585 267.388 281.231 264.289 282.146 263.909C283.061 263.528 283.333 264.09 283.333 264.09L283.931 269.762L283.505 276.529L282.137 282.754L278.984 283.66L272.633 284.792Z" fill="#FFBE9D"/>
<path d="M277.046 309.743C277.046 309.743 276.956 309.743 276.829 309.598C276.631 309.438 276.451 309.255 276.294 309.055C275.717 308.31 275.289 307.461 275.035 306.554C274.281 303.582 274.03 300.504 274.292 297.449C274.484 294.431 274.242 291.402 273.576 288.452C273.051 286.196 272.516 284.828 272.589 284.828C272.776 285.109 272.925 285.414 273.033 285.734C273.385 286.592 273.688 287.469 273.939 288.362C274.704 291.317 274.994 294.375 274.799 297.422C274.7 299.081 274.7 300.745 274.799 302.405C274.876 303.758 275.079 305.102 275.406 306.418C275.625 307.3 275.989 308.139 276.484 308.901C276.802 309.471 277.073 309.716 277.046 309.743Z" fill="#EB996E"/>
<path d="M277.381 279.827C277.309 279.827 277.1 279.247 276.475 278.468C275.675 277.449 274.565 276.717 273.313 276.384C272.955 276.303 272.592 276.246 272.226 276.212C272.032 276.187 271.841 276.145 271.655 276.085C271.545 276.062 271.443 276.012 271.356 275.94C271.27 275.873 271.196 275.79 271.139 275.696C270.828 275.171 270.558 274.623 270.333 274.056C270.089 273.558 269.898 273.035 269.762 272.498C270.145 272.911 270.452 273.39 270.668 273.911C270.942 274.44 271.244 274.954 271.574 275.451C271.682 275.596 271.673 275.605 271.864 275.66C272.023 275.705 272.187 275.736 272.353 275.75C272.741 275.778 273.126 275.838 273.504 275.931C274.856 276.283 276.034 277.113 276.819 278.269C277.151 278.725 277.345 279.265 277.381 279.827Z" fill="#EB996E"/>
<path d="M210.871 311.927C210.665 311.623 210.389 311.372 210.066 311.197C209.742 311.022 209.382 310.928 209.014 310.921C208.278 310.913 207.546 310.822 206.831 310.649C206.278 310.441 205.807 310.061 205.272 309.807C204.583 309.493 203.814 309.404 203.071 309.55C202.329 309.696 201.651 310.071 201.132 310.622L200.715 310.36C200.397 310.127 200.022 309.985 199.63 309.948C199.237 309.911 198.842 309.981 198.486 310.151C197.771 310.496 197.149 311.009 196.674 311.646C195.234 313.465 194.297 315.63 193.956 317.925C193.821 318.831 193.866 319.891 194.627 320.362C194.903 320.504 195.213 320.567 195.523 320.545C195.833 320.522 196.131 320.415 196.384 320.235C196.888 319.867 197.305 319.394 197.608 318.849C198.652 317.198 199.48 315.419 200.072 313.558C199.504 315.776 199.11 318.036 198.894 320.316C198.825 320.895 198.881 321.482 199.057 322.038C199.122 322.3 199.259 322.538 199.454 322.726C199.648 322.913 199.891 323.041 200.156 323.096C200.42 323.151 200.694 323.13 200.947 323.036C201.2 322.942 201.421 322.778 201.585 322.563C201.895 322.198 202.142 321.785 202.319 321.34C203.22 319.387 203.977 317.37 204.584 315.306C204.156 317.435 203.914 319.596 203.859 321.766C203.794 322.132 203.822 322.508 203.939 322.861C204.056 323.214 204.259 323.532 204.529 323.786C204.768 323.917 205.038 323.98 205.31 323.967C205.582 323.954 205.844 323.867 206.07 323.714C206.513 323.4 206.866 322.975 207.093 322.482C208.244 320.244 208.181 317.472 209.603 315.397C210.011 314.885 210.392 314.353 210.745 313.802C210.917 313.524 211.018 313.207 211.041 312.88C211.063 312.553 211.005 312.226 210.871 311.927Z" fill="#FFBE9D"/>
<path d="M210.872 311.927C210.963 312.047 211.025 312.187 211.054 312.335C211.127 312.767 211.07 313.212 210.891 313.612C210.573 314.228 210.187 314.805 209.74 315.334C209.238 316.094 208.868 316.933 208.644 317.816C208.354 318.804 208.154 319.936 207.783 321.132C207.593 321.764 207.332 322.372 207.004 322.944C206.829 323.283 206.571 323.572 206.254 323.785C205.937 323.997 205.572 324.125 205.192 324.158C204.985 324.17 204.779 324.136 204.587 324.058C204.396 323.979 204.225 323.859 204.086 323.705C203.827 323.384 203.669 322.993 203.633 322.582C203.579 321.797 203.579 321.01 203.633 320.226C203.737 318.561 203.955 316.905 204.286 315.27L204.703 315.37C204.367 316.52 203.978 317.689 203.525 318.867C203.298 319.456 203.054 320.054 202.8 320.679C202.551 321.308 202.248 321.915 201.894 322.491C201.702 322.818 201.416 323.079 201.073 323.24C200.731 323.402 200.347 323.457 199.973 323.397C199.609 323.279 199.286 323.06 199.042 322.764C198.798 322.469 198.643 322.11 198.596 321.73C198.505 321.032 198.505 320.326 198.596 319.628C198.669 318.93 198.768 318.242 198.886 317.553C199.113 316.203 199.421 314.835 199.72 313.585L200.173 313.712C199.479 315.913 198.439 317.989 197.092 319.864C196.732 320.293 196.242 320.595 195.697 320.724C195.395 320.799 195.078 320.785 194.784 320.684C194.489 320.583 194.231 320.398 194.039 320.153C193.724 319.671 193.58 319.097 193.631 318.523C193.662 318 193.741 317.481 193.867 316.973C194.299 315.076 195.14 313.295 196.331 311.755C196.846 311.015 197.533 310.412 198.333 309.997C198.724 309.807 199.16 309.728 199.593 309.768C200.025 309.808 200.439 309.966 200.789 310.224L201.205 310.477H201.006C201.55 309.917 202.252 309.537 203.019 309.39C203.785 309.242 204.579 309.334 205.291 309.653C205.908 309.952 206.379 310.351 206.886 310.559C207.372 310.698 207.876 310.765 208.381 310.758C209.105 310.733 209.819 310.929 210.428 311.32C210.638 311.459 210.797 311.663 210.881 311.9C210.746 311.7 210.574 311.528 210.374 311.392C209.764 311.052 209.069 310.894 208.372 310.939C207.851 310.939 207.333 310.869 206.832 310.731C206.274 310.479 205.729 310.198 205.201 309.889C204.539 309.605 203.807 309.531 203.102 309.676C202.397 309.822 201.754 310.181 201.26 310.704L201.169 310.795L201.06 310.731L200.635 310.477C200.332 310.263 199.976 310.135 199.605 310.108C199.235 310.081 198.864 310.155 198.533 310.323C197.805 310.727 197.184 311.299 196.721 311.99C195.575 313.491 194.768 315.222 194.356 317.064C194.244 317.55 194.171 318.043 194.139 318.541C194.102 319.015 194.219 319.489 194.474 319.891C194.615 320.069 194.805 320.202 195.021 320.272C195.237 320.343 195.469 320.349 195.688 320.289C196.173 320.167 196.601 319.882 196.902 319.483C198.202 317.649 199.205 315.622 199.874 313.476L200.327 313.603C200.037 314.899 199.729 316.203 199.502 317.544C199.384 318.224 199.285 318.903 199.221 319.583C199.14 320.239 199.14 320.902 199.221 321.558C199.254 321.848 199.368 322.122 199.549 322.351C199.73 322.58 199.971 322.754 200.245 322.853C200.529 322.89 200.817 322.841 201.074 322.714C201.33 322.586 201.543 322.386 201.686 322.138C202.01 321.595 202.291 321.029 202.528 320.443C202.782 319.855 203.026 319.275 203.253 318.695C203.706 317.526 204.096 316.366 204.44 315.234L204.857 315.334C204.525 316.951 204.301 318.588 204.186 320.235C204.11 320.994 204.092 321.757 204.132 322.518C204.162 322.846 204.281 323.159 204.476 323.424C204.579 323.54 204.706 323.63 204.849 323.688C204.992 323.746 205.147 323.771 205.301 323.759C205.617 323.728 205.92 323.617 206.181 323.436C206.443 323.255 206.654 323.011 206.795 322.727C207.118 322.185 207.377 321.607 207.566 321.005C207.946 319.845 208.163 318.713 208.472 317.716C208.721 316.813 209.123 315.958 209.658 315.189C210.109 314.678 210.507 314.122 210.845 313.531C210.96 313.28 211.022 313.008 211.026 312.732C211.031 312.456 210.979 312.182 210.872 311.927Z" fill="#EB996E"/>
</svg>
